<svg width="32" height="40" viewBox="0 0 32 40" fill="none" xmlns="http://www.w3.org/2000/svg">
<g clip-path="url(#clip0_6310_21936)">
<path d="M32 32V8C32 3.58172 28.4183 0 24 0H16.8337C14.6864 0 12.6292 0.863212 11.1249 2.39549L2.29128 11.3934C0.822754 12.8892 0 14.9017 0 16.9979V32C0 36.4183 3.58172 40 8 40H24C28.4183 40 32 36.4183 32 32Z" fill="#7099ED"/>
<path d="M3.31299 29L6.71826 24.7515L7.27148 24.73L9.82812 21.1797H11.4771L8.31348 25.2778L7.76025 25.2993L5.021 29H3.31299ZM3.35596 21.1797H5.77295L8.28125 24.5312H8.30811L11.8208 29H9.35547L6.74512 25.5571H6.72363L3.35596 21.1797ZM12.562 29V21.1797H14.4849V27.958H18.8677V29H12.562ZM19.4263 26.873V26.7065H21.4136V26.8838C21.4136 27.3063 21.5854 27.6143 21.9292 27.8076C22.2765 28.001 22.7617 28.0977 23.3848 28.0977C24.0114 28.0977 24.4876 28.0028 24.8135 27.813C25.1429 27.6196 25.3094 27.3761 25.313 27.0825C25.3237 26.7352 25.2091 26.5096 24.9692 26.4058C24.7329 26.2983 24.0114 26.1193 22.8047 25.8687C21.6875 25.6466 20.8675 25.3441 20.3447 24.9609C19.8255 24.5778 19.5659 24.0317 19.5659 23.3228C19.5659 22.6388 19.9043 22.0838 20.5811 21.6577C21.2578 21.2316 22.1745 21.0186 23.3311 21.0186C24.484 21.0186 25.4025 21.2513 26.0864 21.7168C26.7739 22.1823 27.1177 22.7033 27.1177 23.2798V23.4409H25.168V23.1938C25.168 22.825 25.014 22.5475 24.7061 22.3613C24.4017 22.1715 23.9416 22.0767 23.3257 22.0767C22.7456 22.0767 22.298 22.1483 21.9829 22.2915C21.6714 22.4312 21.5156 22.6299 21.5156 22.8877C21.5156 23.2135 21.6571 23.4409 21.9399 23.5698C22.2264 23.6951 22.8709 23.8599 23.8735 24.064C25.0158 24.3039 25.8716 24.6261 26.4409 25.0308C27.0138 25.4318 27.2985 26.0173 27.2949 26.7871C27.2985 27.5212 26.944 28.1012 26.2314 28.5273C25.5189 28.9499 24.57 29.1611 23.3848 29.1611C22.2103 29.1611 21.256 28.9642 20.522 28.5703C19.7915 28.1764 19.4263 27.6107 19.4263 26.873Z" fill="white"/>
<path d="M19 0H15.4522C13.5481 0 11.7262 0.775664 10.4064 2.14818L2.23341 10.6479C0.800406 12.1382 0 14.1254 0 16.1928V17C0 15.3431 1.34315 14 3 14H10.5596C12.7453 14 14.5263 12.2455 14.5592 10.0601L14.6458 4.28932C14.6815 1.91005 16.6205 0 19 0Z" fill="#FFB31D"/>
</g>
<defs>
<clipPath id="clip0_6310_21936">
<rect width="32" height="40" fill="white"/>
</clipPath>
</defs>
</svg>
