<svg width="20" height="20" viewBox="0 0 20 20" fill="none" xmlns="http://www.w3.org/2000/svg">
<path d="M6.66667 2.58149C6.66667 2.58149 3.36145 2.28495 2.82319 2.82321C2.28492 3.36146 2.58152 6.66667 2.58152 6.66667" stroke="#8E8E93" stroke-width="1.5" stroke-linecap="round" stroke-linejoin="round"/>
<path d="M6.66667 17.4192C6.66667 17.4192 3.36145 17.7157 2.82319 17.1775C2.28492 16.6392 2.58152 13.334 2.58152 13.334" stroke="#8E8E93" stroke-width="1.5" stroke-linecap="round" stroke-linejoin="round"/>
<path d="M13.334 2.58149C13.334 2.58149 16.6392 2.28495 17.1775 2.82321C17.7157 3.36146 17.4192 6.66667 17.4192 6.66667" stroke="#8E8E93" stroke-width="1.5" stroke-linecap="round" stroke-linejoin="round"/>
<path d="M13.334 17.4192C13.334 17.4192 16.6392 17.7157 17.1775 17.1775C17.7157 16.6392 17.4192 13.334 17.4192 13.334" stroke="#8E8E93" stroke-width="1.5" stroke-linecap="round" stroke-linejoin="round"/>
<path d="M11.6758 8.33214L16.7189 3.28906" stroke="#8E8E93" stroke-width="1.5" stroke-linecap="round" stroke-linejoin="round"/>
<path d="M8.33095 11.668L3.0332 16.9832" stroke="#8E8E93" stroke-width="1.5" stroke-linecap="round" stroke-linejoin="round"/>
<path d="M8.33143 8.33444L3.20508 3.21484" stroke="#8E8E93" stroke-width="1.5" stroke-linecap="round" stroke-linejoin="round"/>
<path d="M11.6504 11.668L17.1074 17.0812" stroke="#8E8E93" stroke-width="1.5" stroke-linecap="round" stroke-linejoin="round"/>
</svg>
