<svg width="20" height="20" viewBox="0 0 20 20" fill="none" xmlns="http://www.w3.org/2000/svg">
<path d="M11.8586 14.9942C11.8498 14.3692 11.4205 12.2996 11.8592 11.8609C12.2981 11.4222 14.367 11.8525 14.9917 11.8615M17.5001 17.497L12.1794 12.1774" stroke="#8E8E93" stroke-width="1.5" stroke-linecap="round" stroke-linejoin="round"/>
<path d="M8.1415 14.9942C8.15025 14.3692 8.57958 12.2996 8.14083 11.8609C7.70206 11.4222 5.63313 11.8525 5.00837 11.8615M2.5 17.497L7.82065 12.1774" stroke="#8E8E93" stroke-width="1.5" stroke-linecap="round" stroke-linejoin="round"/>
<path d="M5.0067 8.13436C5.63149 8.14234 7.70109 8.56925 8.13919 8.12979C8.57716 7.69036 8.14436 5.62143 8.13463 4.99652M7.81462 7.80611L2.50195 2.50195" stroke="#8E8E93" stroke-width="1.5" stroke-linecap="round" stroke-linejoin="round"/>
<path d="M14.9922 8.13436C14.3675 8.14234 12.2978 8.56925 11.8597 8.12979C11.4217 7.69036 11.8545 5.62143 11.8643 4.99652M12.1843 7.80611L17.497 2.50195" stroke="#8E8E93" stroke-width="1.5" stroke-linecap="round" stroke-linejoin="round"/>
</svg>
