<svg width="118" height="167" viewBox="0 0 118 167" fill="none" xmlns="http://www.w3.org/2000/svg">
<g clip-path="url(#clip0_4419_12269)">
<path d="M2.79797 33.9826C2.44357 40.0325 4.17886 45.9374 8.37656 49.8665C10.3929 51.7529 12.7331 52.9473 15.4033 53.6952C20.1326 55.0235 25.8945 54.9565 32.7073 54.8728C42.227 54.7556 57.1237 53.3436 74.7271 46.2276L74.7516 46.2723C74.1528 47.4555 67.2482 61.6092 74.9715 70.5112C75.943 71.633 77.2995 72.8441 79.212 73.9212C79.8597 65.1365 83.9535 57.9145 89.416 55.3584C89.416 36.5499 79.713 19.6055 63.6493 11.7417C60.6554 10.2739 57.643 9.22462 54.759 8.48233C53.4637 8.15304 52.1927 7.87956 50.9585 7.6619C44.1334 6.45079 38.4265 6.81915 35.8663 7.0703C29.0473 7.72887 16.1548 8.97905 8.52931 18.64C6.19522 21.5924 4.52103 25.1197 3.59228 28.7921C3.16457 30.5055 2.88962 32.2524 2.79797 33.9826Z" fill="#262626"/>
<path d="M7.28819 150.712C10.1111 148.965 12.9279 147.218 15.7508 145.471C20.865 151.393 25.9793 157.32 31.0996 163.241C30.9163 153.324 30.8552 143.25 30.9346 133.031C30.953 131.284 30.9713 129.542 30.9896 127.807C27.5007 131.987 23.3763 136.474 18.531 141.051C14.6815 144.69 10.8932 147.893 7.28819 150.712Z" fill="#7099ED"/>
<path d="M20.9444 70.3432C20.9444 69.2214 21.1766 68.1665 21.5859 67.268L20.7366 66.6094L20.9382 71.6882L21.0543 71.6492C20.981 71.2306 20.9444 70.7897 20.9444 70.3432Z" fill="white"/>
<path d="M20.9441 70.3428C20.9441 70.7893 20.9807 71.2302 21.054 71.6488L25.4473 70.2535L21.5856 67.2676C21.1762 68.1661 20.9441 69.221 20.9441 70.3428Z" fill="white"/>
<path d="M25.4489 70.2533L21.0556 71.6486C21.5078 74.3443 23.3164 76.3591 25.4855 76.3591C27.9907 76.3591 30.0254 73.6634 30.0254 70.3426C30.0254 67.0219 27.9907 64.3262 25.4855 64.3262C23.8297 64.3262 22.3754 65.5038 21.5872 67.2674L25.4489 70.2533Z" fill="#262626"/>
<path d="M31.0637 122.845C31.0393 124.497 31.0149 126.149 30.9904 127.806C30.9721 129.542 30.9537 131.283 30.9354 133.03C30.856 143.249 30.9171 153.323 31.1004 163.241C38.7381 161.455 47.879 158.698 57.3987 154.322C66.9183 149.935 76.8168 143.93 85.9699 135.642C88.3468 133.488 90.5342 131.306 92.5445 129.134C93.6138 127.979 94.1881 126.528 94.2126 125.032C94.2187 124.831 94.2126 124.63 94.1942 124.43C93.9498 121.349 93.7726 118.128 93.7054 114.78C93.571 108.378 93.6871 104.086 94.1759 98.6335V98.3656C94.0415 98.3768 93.9132 98.3768 93.7848 98.3768C91.298 98.3768 88.9517 97.4447 86.8987 95.8039L86.8559 95.7648C86.0127 96.6355 85.0167 97.5284 83.8374 98.3768C78.0144 102.579 71.4826 103.165 68.3664 103.238L68.0915 103.227C68.0365 104.94 66.4845 106.324 64.5965 106.324H59.1767C57.252 106.324 55.6756 104.884 55.6756 103.126C55.6756 101.368 57.252 99.9228 59.1767 99.9228H64.5965C66.0018 99.9228 67.2177 100.687 67.7738 101.787C70.89 101.714 76.8657 101.307 82.6887 97.1099C83.8008 96.3062 84.754 95.4634 85.5666 94.643L85.5178 94.6039C81.6011 90.6525 79.1204 83.983 79.1204 76.3703C79.1204 75.5387 79.1509 74.7239 79.212 73.9202C77.2995 72.843 75.9431 71.6319 74.9716 70.5101C67.2483 61.6082 74.1528 47.4544 74.7516 46.2712L74.7272 46.2266C57.1237 53.3425 42.2271 54.7546 32.7074 54.8718C25.8945 54.9555 20.1326 55.0224 15.4033 53.6941L15.2139 54.2522C14.8901 64.9904 15.1406 74.1211 15.5072 81.1087C16.8025 105.839 19.9921 112.642 24.7519 117.682C26.9149 119.976 29.1696 121.656 31.0637 122.839V122.845ZM20.9391 71.6933L20.7375 66.6145L21.5868 67.2731C22.375 65.5094 23.8293 64.3318 25.4851 64.3318C27.9903 64.3318 30.025 67.0275 30.025 70.3483C30.025 73.6691 27.9903 76.3647 25.4851 76.3647C23.316 76.3647 21.5074 74.35 21.0552 71.6543L20.9391 71.6933ZM37.5039 90.8032C39.673 90.552 42.8747 89.9325 46.327 88.2637C48.6061 87.1643 50.3658 85.9085 51.6429 84.8425C51.8689 86.4778 51.7284 87.9958 51.3251 89.3409C50.3842 92.5277 47.9951 94.7714 45.5449 95.3797C45.1233 95.4858 44.6956 95.5416 44.274 95.5471C41.6466 95.5751 39.0192 93.5658 37.5039 90.8032ZM44.6284 71.6933L44.4267 66.6145L45.6426 67.5521C46.4003 65.6378 47.9156 64.3318 49.657 64.3318C52.1622 64.3318 54.1969 67.0275 54.1969 70.3483C54.1969 73.6691 52.1622 76.3647 49.657 76.3647C47.4513 76.3647 45.6121 74.2774 45.2027 71.5092L44.6284 71.6933Z" fill="white"/>
<path d="M46.3263 88.2591C42.874 89.9279 39.6723 90.5474 37.5032 90.7986C39.0185 93.5612 41.6459 95.5704 44.2733 95.5425C44.6949 95.5369 45.1226 95.4811 45.5442 95.3751L45.4831 95.1574C45.4526 94.8393 45.3059 92.5678 47.2306 90.8544C48.8743 89.3921 50.8906 89.3363 51.3244 89.3363C51.7277 87.9912 51.8683 86.4732 51.6422 84.8379C50.3651 85.9039 48.6054 87.1597 46.3263 88.2591Z" fill="#262626"/>
<path d="M44.4266 66.6094L44.6283 71.6882L45.2026 71.504C45.1477 71.1301 45.1171 70.7394 45.1171 70.3432C45.1171 69.333 45.3065 68.3842 45.6426 67.547L44.4266 66.6094Z" fill="white"/>
<path d="M45.1162 70.343C45.1162 70.7393 45.1468 71.13 45.2018 71.5039L49.1367 70.2537L45.6417 67.5469C45.3056 68.384 45.1162 69.3328 45.1162 70.343Z" fill="white"/>
<path d="M49.138 70.2533L45.2031 71.5035C45.6124 74.2718 47.4516 76.3591 49.6574 76.3591C52.1626 76.3591 54.1973 73.6634 54.1973 70.3426C54.1973 67.0219 52.1626 64.3262 49.6574 64.3262C47.916 64.3262 46.4007 65.6322 45.643 67.5465L49.138 70.2533Z" fill="#262626"/>
<path d="M47.2304 90.854C45.3057 92.5674 45.4523 94.839 45.4829 95.1571L45.544 95.3747C47.9942 94.7664 50.3832 92.5228 51.3242 89.3359C50.8904 89.3359 48.874 89.3917 47.2304 90.854Z" fill="#FF8B63"/>
<path d="M51.0069 7.44919L50.958 7.66127C52.1923 7.87894 53.4632 8.15241 54.7585 8.4817L54.8013 8.34775C60.1844 8.67704 64.5593 9.83234 67.9993 11.1551C93.5522 20.9779 98.5869 52.0872 99.1369 55.8824C102.045 57.5958 104.496 60.6598 106.151 64.5611C106.976 65.5378 107.703 66.7321 108.296 68.0995C120.186 51.73 120.193 34.8973 111.675 28.0827C110.099 26.8213 106.072 24.1703 97.9759 24.3991C97.7254 22.3899 96.094 11.049 85.5661 4.67536C75.0872 -1.6704 62.158 0.701585 54.6241 4.97116C53.0477 5.86414 51.8318 6.76829 51.0069 7.44919Z" fill="#262626"/>
<path d="M54.8012 8.34766L54.7584 8.4816C57.6424 9.2239 60.6547 10.2732 63.6487 11.741C79.7124 19.6048 89.4093 36.5492 89.4154 55.3576C90.7963 54.7102 92.2628 54.3642 93.7842 54.3642C95.6722 54.3642 97.4809 54.9 99.1367 55.8823C98.5868 52.0871 93.552 20.9778 67.9992 11.155C64.5592 9.83224 60.1843 8.67694 54.8012 8.34766Z" fill="#7099ED"/>
<path d="M59.1768 99.9238C57.2521 99.9238 55.6756 101.364 55.6756 103.127C55.6756 104.891 57.2521 106.325 59.1768 106.325H64.5965C66.4846 106.325 68.0366 104.941 68.0915 103.228C68.0977 103.194 68.0977 103.161 68.0977 103.127C68.0977 102.647 67.9816 102.195 67.7738 101.788C67.2178 100.688 66.0019 99.9238 64.5965 99.9238H59.1768Z" fill="#262626"/>
<path d="M82.6887 97.1098C76.8657 101.307 70.8899 101.714 67.7737 101.787C67.9815 102.194 68.0975 102.646 68.0975 103.126C68.0975 103.16 68.0975 103.193 68.0914 103.227L68.3664 103.238C71.4826 103.165 78.0144 102.579 83.8374 98.3767C85.0167 97.5284 86.0126 96.6354 86.8558 95.7647C86.9841 95.6363 87.1063 95.508 87.2224 95.3796C87.5035 95.0782 87.5157 94.6373 87.2347 94.3304C86.8864 93.9453 86.2448 93.9341 85.8843 94.3136C85.7804 94.4197 85.6766 94.5313 85.5666 94.6429C84.7539 95.4633 83.8007 96.3061 82.6887 97.1098Z" fill="#7099ED"/>
<path d="M100.812 61.7422C95.7523 61.7422 91.6462 68.4675 91.6462 76.761C91.6462 85.0546 95.7523 91.7743 100.812 91.7743C102.504 91.7743 104.087 91.0265 105.443 89.7149C108.15 87.1085 109.971 82.2808 109.971 76.761C109.971 73.5351 109.347 70.5437 108.297 68.0991C107.704 66.7317 106.977 65.5374 106.152 64.5607C104.655 62.7859 102.803 61.7422 100.812 61.7422Z" fill="#7099ED"/>
<path d="M94.2119 125.033C94.1875 126.529 93.6131 127.98 92.5439 129.135C90.5336 131.306 88.3462 133.489 85.9693 135.643C76.8162 143.931 66.9177 149.936 57.398 154.323C60.4348 158.286 63.4716 162.254 66.5083 166.222C68.6286 164.715 86.4276 151.923 93.5826 141.386C93.5826 141.386 97.7986 135.18 97.0165 129.71C96.6743 127.305 95.269 125.87 95.269 125.87C94.9268 125.591 94.5847 125.312 94.2486 125.033H94.2119Z" fill="#7099ED"/>
<path d="M79.1209 76.3717C79.1209 83.9844 81.6016 90.6538 85.5182 94.6053L85.5671 94.6444C85.6771 94.5327 85.781 94.4211 85.8848 94.3151C86.2453 93.9356 86.8869 93.9467 87.2352 94.3318C87.5163 94.6388 87.504 95.0797 87.223 95.3811C87.1069 95.5094 86.9847 95.6378 86.8564 95.7662L86.8991 95.8052C88.9522 97.4461 91.2985 98.3781 93.7853 98.3781C93.9136 98.3781 94.0419 98.3781 94.1703 98.367C98.7651 98.194 102.841 94.8397 105.444 89.7162C104.087 91.0278 102.505 91.7756 100.812 91.7756C95.7528 91.7756 91.6467 85.0504 91.6467 76.7624C91.6467 68.4744 95.7528 61.7435 100.812 61.7435C102.804 61.7435 104.655 62.7872 106.152 64.562C104.496 60.6608 102.046 57.5967 99.1378 55.8833C97.482 54.901 95.6734 54.3652 93.7853 54.3652C92.2639 54.3652 90.7974 54.7113 89.4165 55.3587C83.954 57.9148 79.8602 65.1368 79.2125 73.9216C79.1514 74.7253 79.1209 75.5401 79.1209 76.3717Z" fill="#7099ED"/>
<path d="M31.0625 122.839C29.1683 121.655 26.9137 119.976 24.7507 117.682C19.9908 112.642 16.8013 105.838 15.506 81.1084C15.1393 74.1208 14.8888 64.9901 15.2127 54.252" stroke="#262626" stroke-linecap="round" stroke-linejoin="round"/>
<path d="M68.8066 123.61C65.8799 124.916 50.03 131.669 34.9684 124.933C34.1741 124.581 32.7626 123.912 31.064 122.846" stroke="#262626" stroke-linecap="round" stroke-linejoin="round"/>
<path d="M3.59227 28.7921C4.52102 25.1197 6.19521 21.5924 8.52931 18.64C16.1548 8.97905 29.0473 7.72887 35.8663 7.0703C38.4265 6.81915 44.1334 6.45079 50.9585 7.6619C52.1927 7.87956 53.4637 8.15304 54.759 8.48233C57.643 9.22462 60.6553 10.2739 63.6493 11.7417C79.713 19.6055 89.4099 36.5499 89.416 55.3584" stroke="#262626" stroke-linecap="round" stroke-linejoin="round"/>
<path d="M77.9902 44.8594C76.8904 45.3394 75.8028 45.797 74.7274 46.2268C57.1239 53.3428 42.2273 54.7548 32.7076 54.872C25.8948 54.9557 20.1328 55.0227 15.4036 53.6944C12.7334 52.9465 10.3932 51.7521 8.37683 49.8657C4.17913 45.9366 2.44384 40.0317 2.79823 33.9818C2.88989 32.2516 3.16484 30.5047 3.59255 28.7969" stroke="#262626" stroke-linecap="round" stroke-linejoin="round"/>
<path d="M51.0069 7.44919C51.8318 6.76829 53.0477 5.86414 54.6241 4.97116C62.158 0.701585 75.0872 -1.6704 85.5661 4.67536C96.094 11.049 97.7254 22.3899 97.9759 24.3991C106.072 24.1703 110.099 26.8213 111.675 28.0827C120.193 34.8973 120.186 51.73 108.296 68.0995" stroke="#262626" stroke-linecap="round" stroke-linejoin="round"/>
<path d="M106.518 17.9258C105.314 18.3499 103.682 19.0699 102.002 20.281C99.9919 21.7321 98.721 23.306 97.9755 24.3999" stroke="#262626" stroke-linecap="round" stroke-linejoin="round"/>
<path d="M54.8012 8.34766C60.1843 8.67694 64.5591 9.83224 67.9992 11.155C93.552 20.9778 98.5868 52.0871 99.1367 55.8823" stroke="#262626" stroke-linecap="round" stroke-linejoin="round"/>
<path d="M106.152 64.5607C104.655 62.7859 102.803 61.7422 100.812 61.7422C95.7523 61.7422 91.6462 68.4675 91.6462 76.761C91.6462 85.0546 95.7523 91.7743 100.812 91.7743C102.504 91.7743 104.087 91.0265 105.443 89.7149C108.15 87.1085 109.971 82.2808 109.971 76.761C109.971 73.5351 109.347 70.5437 108.297 68.0991C107.704 66.7317 106.977 65.5374 106.152 64.5607Z" stroke="#262626" stroke-linecap="round" stroke-linejoin="round"/>
<path d="M86.8989 95.8039C88.952 97.4447 91.2983 98.3768 93.7851 98.3768C93.9134 98.3768 94.0417 98.3768 94.1701 98.3656C98.7649 98.1926 102.84 94.8383 105.443 89.7148" stroke="#262626" stroke-linecap="round" stroke-linejoin="round"/>
<path d="M106.152 64.562C104.496 60.6608 102.046 57.5967 99.1378 55.8833C97.482 54.901 95.6734 54.3652 93.7853 54.3652C92.2639 54.3652 90.7974 54.7113 89.4165 55.3587C83.954 57.9148 79.8602 65.1368 79.2125 73.9216C79.1514 74.7253 79.1209 75.5401 79.1209 76.3717C79.1209 83.9844 81.6016 90.6538 85.5182 94.6053" stroke="#262626" stroke-linecap="round" stroke-linejoin="round"/>
<path d="M79.2109 73.9205C77.2984 72.8433 75.942 71.6322 74.9705 70.5104C67.2472 61.6085 74.1517 47.4547 74.7505 46.2715" stroke="#262626" stroke-linecap="round" stroke-linejoin="round"/>
<path d="M94.1759 98.6348C93.6871 104.088 93.571 108.379 93.7054 114.781C93.7726 118.13 93.9498 121.35 94.1942 124.431C94.2126 124.632 94.2187 124.833 94.2126 125.034C94.1881 126.529 93.6138 127.98 92.5445 129.136C90.5342 131.307 88.3468 133.489 85.9699 135.643C76.8168 143.931 66.9183 149.937 57.3987 154.323C47.879 158.699 38.7381 161.456 31.1004 163.242C30.9171 153.324 30.856 143.25 30.9354 133.031C30.9537 131.284 30.9721 129.543 30.9904 127.807C31.0149 126.15 31.0393 124.498 31.0637 122.846" stroke="#262626" stroke-linecap="round" stroke-linejoin="round"/>
<path d="M67.7737 101.787C70.8899 101.714 76.8657 101.307 82.6887 97.1098C83.8007 96.3061 84.7539 95.4633 85.5666 94.6429C85.6766 94.5313 85.7804 94.4197 85.8843 94.3136C86.2448 93.9341 86.8864 93.9453 87.2347 94.3304C87.5157 94.6373 87.5035 95.0782 87.2224 95.3796C87.1063 95.508 86.9841 95.6363 86.8558 95.7647C86.0126 96.6354 85.0167 97.5284 83.8374 98.3767C78.0144 102.579 71.4826 103.165 68.3664 103.238" stroke="#262626" stroke-linecap="round" stroke-linejoin="round"/>
<path d="M83.6291 81.416C83.5191 82.7443 83.2441 88.0129 87.2952 92.4555C89.2138 94.5485 91.4074 95.7037 92.8555 96.3177" stroke="#262626" stroke-linecap="round" stroke-linejoin="round"/>
<path d="M97.4507 95.7149C97.854 95.7819 98.52 95.8377 99.3021 95.6814C99.9681 95.5475 100.469 95.3075 100.793 95.1289" stroke="#262626" stroke-linecap="round" stroke-linejoin="round"/>
<path d="M67.7738 101.788C67.2178 100.688 66.0019 99.9238 64.5965 99.9238H59.1768C57.2521 99.9238 55.6756 101.364 55.6756 103.127C55.6756 104.891 57.2521 106.325 59.1768 106.325H64.5965C66.4846 106.325 68.0366 104.941 68.0915 103.228C68.0977 103.194 68.0977 103.161 68.0977 103.127C68.0977 102.647 67.9816 102.195 67.7738 101.788Z" stroke="#262626" stroke-linecap="round" stroke-linejoin="round"/>
<path d="M51.3244 89.3363C51.7277 87.9912 51.8683 86.4732 51.6422 84.8379C50.3651 85.9039 48.6054 87.1597 46.3263 88.2591C42.874 89.9279 39.6723 90.5474 37.5032 90.7986C39.0185 93.5612 41.6459 95.5704 44.2733 95.5425C44.6949 95.5369 45.1226 95.4811 45.5442 95.3751C47.9944 94.7668 50.3835 92.5231 51.3244 89.3363Z" stroke="#262626" stroke-linecap="round" stroke-linejoin="round"/>
<path d="M51.3242 89.3359C50.8904 89.3359 48.874 89.3917 47.2304 90.854C45.3057 92.5674 45.4523 94.839 45.4829 95.1571" stroke="#262626" stroke-linecap="round" stroke-linejoin="round"/>
<path d="M34.2532 78.3066C30.7581 79.6015 29.4078 82.2525 30.0982 83.5473C30.6543 84.5854 32.7073 85.071 34.9375 84.725" stroke="#262626" stroke-linecap="round" stroke-linejoin="round"/>
<path d="M94.2486 125.033C94.5847 125.312 94.9268 125.591 95.269 125.87C95.269 125.87 96.6743 127.305 97.0165 129.71C97.7986 135.18 93.5826 141.386 93.5826 141.386C86.4276 151.923 68.6286 164.715 66.5083 166.222C63.4716 162.254 60.4348 158.286 57.398 154.323" stroke="#262626" stroke-linecap="round" stroke-linejoin="round"/>
<path d="M30.9896 127.807C27.5007 131.987 23.3763 136.474 18.531 141.051C14.6815 144.69 10.8932 147.893 7.2882 150.712C10.1111 148.965 12.9279 147.218 15.7508 145.471C20.865 151.393 25.9793 157.32 31.0996 163.241" stroke="#262626" stroke-linecap="round" stroke-linejoin="round"/>
<path d="M11.6387 37.7443C11.2782 37.7387 6.10285 37.5992 2.79723 33.9826C2.45506 33.6142 2.14344 33.2124 1.85015 32.7715C-0.453389 29.2777 0.432582 25.689 0.640329 24.9355" stroke="#262626" stroke-linecap="round" stroke-linejoin="round"/>
<path d="M10.4297 33.4351C9.57426 33.3569 8.32779 33.1337 7.04465 32.4416C5.20548 31.4538 4.17285 29.9859 3.59238 28.7971C3.17078 27.9153 2.99359 27.1898 2.9386 26.9219" stroke="#262626" stroke-linecap="round" stroke-linejoin="round"/>
<path d="M56.3594 62.6694C56.1272 62.2453 55.2351 60.7384 53.2126 59.9123C51.2635 59.1142 49.5037 59.4603 48.9844 59.5831" stroke="#262626" stroke-linecap="round" stroke-linejoin="round"/>
<path d="M25.9004 59.6895C25.3871 59.5165 24.5378 59.2988 23.4869 59.3602C21.7516 59.4607 20.554 60.242 20.1018 60.5769" stroke="#262626" stroke-linecap="round" stroke-linejoin="round"/>
</g>
<defs>
<clipPath id="clip0_4419_12269">
<rect width="118" height="166" fill="white" transform="matrix(-1 0 0 1 118 0.5)"/>
</clipPath>
</defs>
</svg>
