<svg width="20" height="20" viewBox="0 0 20 20" fill="none" xmlns="http://www.w3.org/2000/svg">
<path d="M15.8371 15.834H4.00042C3.15168 15.834 2.5 15.1263 2.5 14.2946C2.5 13.6898 2.78477 13.1205 3.26866 12.7576C4.30831 11.9781 4.2379 10.7398 4.29914 9.57647C4.37263 8.18055 4.94242 6.78416 5.83333 5.83398" stroke="white" stroke-width="1.5" stroke-linecap="round" stroke-linejoin="round"/>
<path d="M7.91797 4.58268C8.58116 4.3138 9.24608 4.16602 10.0034 4.16602C13.0408 4.16602 15.5467 6.54287 15.7064 9.57518C15.7677 10.7385 15.6972 11.9768 16.7369 12.7563C17.1867 13.0936 17.4644 13.6093 17.5013 14.166" stroke="white" stroke-width="1.5" stroke-linecap="round" stroke-linejoin="round"/>
<path d="M8.75 2.60352C8.75 3.29387 9.30967 4.16602 10 4.16602C10.6903 4.16602 11.25 3.29387 11.25 2.60352C11.25 1.91316 10.6903 1.66602 10 1.66602C9.30967 1.66602 8.75 1.91316 8.75 2.60352Z" stroke="white" stroke-width="1.5"/>
<path d="M12.5 15.834C12.5 17.2147 11.3807 18.334 10 18.334C8.61925 18.334 7.5 17.2147 7.5 15.834" stroke="white" stroke-width="1.5" stroke-linecap="round" stroke-linejoin="round"/>
<path d="M18.3346 18.3327L1.66797 1.66602" stroke="white" stroke-width="1.5" stroke-linecap="round"/>
</svg>
