<svg width="16" height="17" viewBox="0 0 16 17" fill="none" xmlns="http://www.w3.org/2000/svg">
<path d="M12.6697 13.166H3.20033C2.52135 13.166 2 12.5999 2 11.9345C2 11.4507 2.22782 10.9952 2.61493 10.7049C3.44665 10.0813 3.39032 9.09067 3.43931 8.16C3.49811 7.04327 3.95394 5.92616 4.66667 5.16602" stroke="#7099ED" stroke-width="1.5" stroke-linecap="round" stroke-linejoin="round"/>
<path d="M6.33398 4.16732C6.86454 3.95221 7.39647 3.83398 8.00234 3.83398C10.4323 3.83398 12.437 5.73547 12.5647 8.16132C12.6137 9.09198 12.5574 10.0827 13.3891 10.7063C13.7489 10.9761 13.9711 11.3887 14.0007 11.834" stroke="#7099ED" stroke-width="1.5" stroke-linecap="round" stroke-linejoin="round"/>
<path d="M7 2.58398C7 3.13627 7.44773 3.83398 8 3.83398C8.55227 3.83398 9 3.13627 9 2.58398C9 2.0317 8.55227 1.83398 8 1.83398C7.44773 1.83398 7 2.0317 7 2.58398Z" stroke="#7099ED" stroke-width="1.5"/>
<path d="M10 13.166C10 14.2706 9.1046 15.166 8 15.166C6.8954 15.166 6 14.2706 6 13.166" stroke="#7099ED" stroke-width="1.5" stroke-linecap="round" stroke-linejoin="round"/>
<path d="M14.6673 15.1673L1.33398 1.83398" stroke="#7099ED" stroke-width="1.5" stroke-linecap="round"/>
</svg>
