<svg width="32" height="40" viewBox="0 0 32 40" fill="none" xmlns="http://www.w3.org/2000/svg">
<path d="M29 29V12C29 7.58172 25.4183 4 21 4H16.5136C14.3395 4 12.259 4.88483 10.751 6.45087L5.23744 12.1765C3.80196 13.6672 3 15.6562 3 17.7256V29C3 33.4183 6.58172 37 11 37H21C25.4183 37 29 33.4183 29 29Z" fill="#7099ED"/>
<path d="M6.06396 29V22.6016H9.08301C10.0615 22.6016 10.813 22.7803 11.3374 23.1377C11.8618 23.4951 12.124 23.9932 12.124 24.6318C12.124 25.2734 11.8618 25.7759 11.3374 26.1392C10.8159 26.4995 10.0659 26.6797 9.0874 26.6797H7.63721V29H6.06396ZM7.63721 25.8228H9.0874C9.61182 25.8228 9.98828 25.7114 10.2168 25.4888C10.4453 25.2632 10.5596 24.9775 10.5596 24.6318C10.5596 24.292 10.4453 24.0107 10.2168 23.7881C9.98828 23.5654 9.61182 23.4541 9.0874 23.4541H7.63721V25.8228ZM13.1392 29V22.6016H15.8594C16.9668 22.6016 17.8984 22.8799 18.6543 23.4365C19.4131 23.9932 19.7925 24.7651 19.7925 25.7524V25.8491C19.7925 26.8364 19.4131 27.6084 18.6543 28.165C17.8984 28.7217 16.9668 29 15.8594 29H13.1392ZM14.7124 28.1475H15.855C16.5464 28.1475 17.106 27.9438 17.5337 27.5366C17.9614 27.1294 18.1753 26.5669 18.1753 25.8491V25.7524C18.1753 25.0347 17.9614 24.4722 17.5337 24.0649C17.106 23.6577 16.5464 23.4541 15.855 23.4541H14.7124V28.1475ZM20.9614 29V22.6016H26.3843V23.4541H22.5347V25.5239H25.9404V26.3721H22.5347V29H20.9614Z" fill="white"/>
<path d="M18.4999 4H16.1378C14.2432 4 12.4296 4.76796 11.1111 6.12847L5.25319 12.173C3.80684 13.6654 2.99805 15.6622 2.99805 17.7405V19C2.99805 17.3431 4.34119 16 5.99805 16H11.9999C13.6568 16 14.9999 14.6569 14.9999 13V7.5C14.9999 5.567 16.5669 4 18.4999 4Z" fill="#FFB31D"/>
</svg>
