<svg width="14" height="15" viewBox="0 0 14 15" fill="none" xmlns="http://www.w3.org/2000/svg">
<circle cx="7" cy="7.5" r="6.5" fill="#FF8B63" stroke="#FF8B63"/>
<path d="M5.98438 9.7627C5.98438 9.52832 6.07064 9.32975 6.24316 9.16699C6.41895 9.00098 6.67122 8.91797 7 8.91797C7.32878 8.91797 7.57943 9.00098 7.75195 9.16699C7.92773 9.32975 8.01562 9.52832 8.01562 9.7627C8.01562 9.99382 7.92773 10.1924 7.75195 10.3584C7.57943 10.5244 7.32878 10.6074 7 10.6074C6.67122 10.6074 6.41895 10.5244 6.24316 10.3584C6.07064 10.1924 5.98438 9.99382 5.98438 9.7627ZM6.27734 8.19531L6.13574 3.39062H7.86426L7.72266 8.19531H6.27734Z" fill="white"/>
</svg>
