<svg width="20" height="20" viewBox="0 0 20 20" fill="none" xmlns="http://www.w3.org/2000/svg">
<path d="M18.3327 9.63924C18.3327 14.0419 14.6012 17.6115 9.99935 17.6115C9.45827 17.6122 8.91868 17.5622 8.38718 17.4624C8.00462 17.3905 7.81333 17.3546 7.67979 17.375C7.54624 17.3954 7.357 17.496 6.97851 17.6973C5.9078 18.2667 4.65931 18.4678 3.45861 18.2445C3.91497 17.6832 4.22664 17.0097 4.36417 16.2877C4.4475 15.846 4.24102 15.417 3.93176 15.1029C2.52712 13.6766 1.66602 11.7546 1.66602 9.63924C1.66602 5.23663 5.3975 1.66699 9.99935 1.66699C14.6012 1.66699 18.3327 5.23663 18.3327 9.63924Z" stroke="#7099ED" stroke-width="1.5" stroke-linejoin="round"/>
<path d="M8.33398 8.20545C8.33398 7.35578 9.08015 6.66699 10.0007 6.66699C10.9212 6.66699 11.6673 7.35578 11.6673 8.20545C11.6673 8.51174 11.5704 8.79708 11.4032 9.03683C10.9052 9.75133 10.0007 10.4327 10.0007 11.2824V11.667" stroke="#7099ED" stroke-width="1.5" stroke-linecap="round"/>
<path d="M10 13.75H10.0075" stroke="#7099ED" stroke-width="1.5" stroke-linecap="round" stroke-linejoin="round"/>
</svg>
