<svg width="20" height="20" viewBox="0 0 20 20" fill="none" xmlns="http://www.w3.org/2000/svg">
<path d="M4.16797 17.5006C7.67629 13.5412 11.619 8.2902 17.5013 12.2285" stroke="white" stroke-width="1.5"/>
<path d="M17.5013 10.4167C17.5013 14.1486 17.5013 16.0146 16.342 17.174C15.1826 18.3333 13.3166 18.3333 9.58464 18.3333C5.85269 18.3333 3.98671 18.3333 2.82734 17.174C1.66797 16.0146 1.66797 14.1486 1.66797 10.4167C1.66797 6.68472 1.66797 4.81874 2.82734 3.65937C3.98671 2.5 5.85269 2.5 9.58464 2.5" stroke="white" stroke-width="1.5" stroke-linecap="round"/>
<path d="M18.3333 7.49935L15.4167 4.58268M15.4167 4.58268L12.5 1.66602M15.4167 4.58268L18.3333 1.66602M15.4167 4.58268L12.5 7.49935" stroke="white" stroke-width="1.5" stroke-linecap="round"/>
</svg>
