<svg width="12" height="12" viewBox="0 0 12 12" fill="none" xmlns="http://www.w3.org/2000/svg">
<path d="M11.4066 6.84442C11.7197 6.76 11.8763 6.71776 11.9381 6.637C12 6.5563 12 6.4264 12 6.16666V5.00644C12 4.7467 12 4.6168 11.9381 4.5361C11.8763 4.45534 11.7197 4.41309 11.4066 4.32866C10.2364 4.01307 9.50394 2.78962 9.80598 1.62704C9.88902 1.30731 9.93054 1.14745 9.89088 1.05369C9.85122 0.959927 9.73746 0.895319 9.50982 0.766091L8.475 0.178553C8.25168 0.0517487 8.14002 -0.0116534 8.03982 0.0018466C7.93956 0.0153466 7.82652 0.128153 7.60032 0.353753C6.7248 1.2272 5.27616 1.22717 4.4006 0.353699C4.17446 0.128093 4.06139 0.0152927 3.96116 0.00178666C3.86093 -0.0117133 3.74926 0.0516886 3.52592 0.178493L2.4911 0.766037C2.26352 0.895253 2.14972 0.959861 2.11007 1.0536C2.07041 1.14735 2.11192 1.30724 2.19495 1.62699C2.49682 2.78962 1.76383 4.01309 0.593412 4.32867C0.280272 4.41309 0.123702 4.45534 0.061848 4.53604C1.93428e-08 4.6168 0 4.7467 0 5.00644V6.16666C0 6.4264 1.93428e-08 6.5563 0.061848 6.637C0.12369 6.71776 0.280266 6.76 0.593412 6.84442C1.76364 7.16002 2.49605 8.38347 2.19403 9.54603C2.11097 9.86578 2.06944 10.0256 2.1091 10.1194C2.14876 10.2132 2.26255 10.2778 2.49015 10.407L3.52497 10.9946C3.74833 11.1213 3.86 11.1848 3.96024 11.1713C4.06048 11.1578 4.17353 11.0449 4.39963 10.8193C5.27562 9.94516 6.72528 9.9451 7.60134 10.8192C7.82742 11.0449 7.94046 11.1577 8.04072 11.1712C8.14092 11.1847 8.25264 11.1213 8.47596 10.9945L9.51078 10.4069C9.73842 10.2777 9.85224 10.2131 9.89184 10.1193C9.9315 10.0256 9.88998 9.86572 9.80688 9.54598C9.50472 8.38348 10.2365 7.16008 11.4066 6.84442Z" fill="#8E8E93"/>
<path d="M8.09453 5.58731C8.09453 6.74711 7.15433 7.68731 5.99453 7.68731C4.83473 7.68731 3.89453 6.74711 3.89453 5.58731C3.89453 4.4275 4.83473 3.4873 5.99453 3.4873C7.15433 3.4873 8.09453 4.4275 8.09453 5.58731Z" fill="white"/>
</svg>
