<svg width="20" height="17" viewBox="0 0 20 17" fill="none" xmlns="http://www.w3.org/2000/svg">
<path d="M17.5105 10.2473C17.9454 10.1301 18.1629 10.0714 18.2487 9.95926C18.3346 9.84718 18.3346 9.66676 18.3346 9.30601V7.69459C18.3346 7.33384 18.3346 7.15343 18.2487 7.04134C18.1628 6.92918 17.9454 6.87051 17.5105 6.75324C15.8851 6.31492 14.8679 4.61568 15.2874 3.00098C15.4027 2.55692 15.4604 2.33489 15.4053 2.20467C15.3502 2.07444 15.1922 1.98471 14.8761 1.80523L13.4388 0.989201C13.1286 0.813084 12.9736 0.725026 12.8344 0.743776C12.6951 0.762526 12.5381 0.919201 12.224 1.23253C11.008 2.44566 8.99597 2.44561 7.77992 1.23246C7.46583 0.919117 7.30879 0.762451 7.16958 0.743692C7.03038 0.724942 6.87528 0.813001 6.56508 0.989117L5.12784 1.80515C4.81174 1.98462 4.65369 2.07435 4.59862 2.20455C4.54354 2.33476 4.60119 2.55682 4.71651 3.00093C5.13578 4.61568 4.11774 6.31495 2.49215 6.75326C2.05724 6.87051 1.83978 6.92918 1.75387 7.04126C1.66797 7.15343 1.66797 7.33384 1.66797 7.69459V9.30601C1.66797 9.66676 1.66797 9.84718 1.75387 9.95926C1.83976 10.0714 2.05723 10.1301 2.49215 10.2473C4.11747 10.6857 5.1347 12.3849 4.71524 13.9996C4.59988 14.4437 4.54219 14.6657 4.59727 14.7959C4.65235 14.9262 4.8104 15.0159 5.12651 15.1953L6.56376 16.0114C6.87398 16.1875 7.02909 16.2756 7.1683 16.2568C7.30752 16.2381 7.46454 16.0813 7.77856 15.768C8.99522 14.5539 11.0086 14.5538 12.2254 15.7679C12.5394 16.0813 12.6964 16.238 12.8356 16.2568C12.9748 16.2755 13.13 16.1874 13.4401 16.0113L14.8774 15.1953C15.1936 15.0158 15.3516 14.9261 15.4066 14.7958C15.4617 14.6656 15.4041 14.4436 15.2886 13.9995C14.869 12.3849 15.8854 10.6858 17.5105 10.2473Z" stroke="#8E8E93" stroke-width="1.5" stroke-linecap="round"/>
</svg>
