<svg xmlns="http://www.w3.org/2000/svg" viewBox="0 0 20 20"><path fill="#EF3E58" d="M24.3 114.8H18c-.2 0-.4.2-.4.4v20.2c-1.4.4-2.8.6-4.4.6-4.2 0-5.2-1.3-5.2-6.9v-13.9c0-.2-.2-.4-.4-.4H1.4c-.2 0-.4.2-.4.4v14.6c0 9.1 3.1 12.7 11 12.7 4.5 0 9.5-1.1 12.5-2.3.1-.1.2-.2.2-.3v-24.6c0-.3-.2-.5-.4-.5M95.8 114.8h-6.4c-.2 0-.4.2-.4.4v20.2c-1.4.4-2.8.6-4.4.6-4.2 0-5.2-1.3-5.2-6.9v-13.9c0-.2-.2-.4-.4-.4h-6.4c-.2 0-.4.2-.4.4v14.6c0 9.1 3.1 12.7 11 12.7 4.5 0 9.5-1.1 12.5-2.3.1-.1.2-.2.2-.3v-24.6c.2-.3 0-.5-.1-.5M137.6 111.3c2.8 0 4-.5 4-3.9 0-3-1.1-3.5-4-3.5-3 0-4 .5-4 3.5 0 3.4 1.2 3.9 4 3.9M140.8 114.8h-6.4c-.2 0-.4.2-.4.4v26.1c0 .2.2.4.4.4h6.4c.2 0 .4-.2.4-.4v-26.1c-.1-.2-.2-.4-.4-.4M65.6 103.9h-6.4c-.2 0-.4.2-.4.4v37.1c0 .2.2.4.4.4h6.4c.2 0 .4-.2.4-.4v-37.1c-.1-.3-.2-.4-.4-.4M43.3 125.1c-4.3-.4-5.1-1-5.1-2.5 0-2.3 1.1-2.7 4.4-2.7 2.3 0 4.8.4 7.2.9.2 0 .3 0 .4-.2l2.4-4.7c.1-.1.1-.2 0-.3 0-.1-.1-.2-.2-.2-3.6-.9-6.9-1.4-9.6-1.4-5 0-11.5.9-11.5 9 0 5.9 3.7 7.3 9.1 7.8 4.9.4 5.3 1.4 5.3 2.8 0 2.2-1 2.8-4.8 2.8-1.9 0-4.3-.3-7.4-.9-.2 0-.3 0-.4.2l-2.3 4.7v.3c0 .1.1.2.2.2 3 .8 7.2 1.4 10.1 1.4 5 0 11.5-.9 11.5-9.1.1-5.1-2.6-7.4-9.3-8.1M126.8 116c-2.7-1.1-7.6-2-11.5-2-9.3 0-12.9 4-12.9 14.3 0 9.9 3.3 14 11.3 14 2.9 0 4.9-.7 6.3-1.4v.7c0 3.6-2.3 5.3-7.3 5.3-2 0-4.4-.3-6.6-.9-.2 0-.3 0-.4.2l-2.4 4.8v.3c0 .1.1.2.2.2 2.3.9 6.3 1.6 9.3 1.6 7.4 0 14.3-1.6 14.3-12.8v-23.6c0-.5-.1-.6-.3-.7m-11.5 4c1.6 0 3.3.3 4.7.8V134c0 1.2-2 2.1-4.8 2.1-4.1 0-5.5-1.2-5.5-7.8 0-7.6 1.5-8.3 5.6-8.3"/><path fill="#0F67B1" d="M44.9 70.1c-9.3 0-12.9 4-12.9 14.2 0 10.4 3.6 14.4 12.9 14.4 9.4 0 13-4 13-14.4 0-10.2-3.7-14.2-13-14.2m0 22.7c-4.2 0-5.6-1.2-5.6-8.4 0-7.7 1.5-8.4 5.6-8.4 4.5 0 5.7 1 5.7 8.4-.1 7.3-1.4 8.4-5.7 8.4M75.6 81.3c-4.4-.4-5.1-1-5.1-2.5 0-2.3 1.1-2.7 4.4-2.7 2.3 0 4.9.4 7.3.9.2 0 .3 0 .4-.2l2.4-4.7c.1-.1.1-.2 0-.3 0-.1-.1-.2-.2-.2-3.6-.9-7-1.5-9.7-1.5-5 0-11.7.9-11.7 9.1 0 5.9 3.7 7.4 9.2 7.9 4.9.4 5.3 1.4 5.3 2.8 0 2.2-1 2.9-4.8 2.9-1.9 0-4.4-.3-7.5-.9-.2 0-.3 0-.4.2L63 96.8v.3c0 .1.1.2.2.2 3 .8 7.2 1.4 10.2 1.4 5 0 11.7-1 11.7-9.2 0-5.2-2.6-7.5-9.5-8.2M25.7 72.1c-2.8-1.2-7.7-2-11.7-2-9.3 0-13 4-13 14.4 0 10 3.3 14.1 11.5 14.1 2.9 0 5-.7 6.4-1.5v.7c0 3.6-2.4 5.3-7.4 5.3-2 0-4.4-.3-6.7-1-.2 0-.3 0-.4.2L2 107.2v.3c0 .1.1.2.2.2 2.3.9 6.4 1.6 9.4 1.6 7.5 0 14.5-1.6 14.5-13V72.4c-.2-.1-.2-.2-.4-.3m-11.6 4c1.6 0 3.4.3 4.7.8v13.3c0 1.3-2 2.1-4.9 2.1-4.1 0-5.6-1.2-5.6-7.9.1-7.6 1.6-8.3 5.8-8.3"/><linearGradient id="a" gradientUnits="userSpaceOnUse" x1="75.572" y1="79.99" x2="75.572" y2="292.061" gradientTransform="translate(24.945 -79.1)"><stop offset=".398" stop-color="#1466AC"/><stop offset=".659" stop-color="#EF4058"/></linearGradient><path fill="url(#a)" d="M192.7 133v-.4c0-.2 0-.5.1-.7.3-3.7.5-8.2.7-13.4v-.4c.1-3.5.2-7.3.2-11.2 0-3.9-.1-7.7-.2-11.2v-.4c-.2-5.1-.4-9.7-.7-13.4 0-.2-.2-2.5-.2-2.6-.3-3.9-.5-6.3-.6-6.5 0-.4-.1-.8-.1-1.1v-.3c-.1-.7-.2-1.3-.4-2 0-.1 0-.2-.1-.3-1.7-8.1-6.2-17-11.8-23.7-2.2-2.6-4.5-4.9-6.9-6.7-.2-.2-3-2.2-7.4-5.3-5.1-3.5-12.4-8.4-20.7-13.2-14.7-8.7-27.9-14.7-29.6-15.5-.1 0-.1-.1-.1-.1-3.9-1.7-8.6-2.9-13.7-3.4-1-.1-2-.2-3-.2-.9 0-3.6-.1-4.1 0-6.9 0-13.2 1.3-18.2 3.6-.8.3-14.1 6.4-29.2 15.2l-.6.3C30.7 29.3 18.5 38.3 18 38.7c-3.8 2.8-7.2 6.4-10.3 11-.7 1.1-.7 3.7 2.3 3.7h7.7c3.3 0 4.1-2 7.8-4.7 4.1-3 12.2-9 27-17.8C63.2 24.6 73.2 19.7 78 17.4l1.1-.5c1.2-.6 2-.9 2-.9 3.4-1.5 8.2-2.5 13.3-2.6h2c1.5 0 3 .1 4.4.3 3.1.4 5.9 1 8.2 2 .2.1.8.4 1.1.5 2.3 1 14.7 6.9 28.2 14.8 8 4.7 15.1 9.4 20 12.8 4.3 3 6.9 4.9 7 5 1.9 1.4 3.8 3.4 5.6 5.6 4.5 5.8 8.2 13.7 8.8 19.8 0 .1.3 2.5.6 6.6 0 .3.5 8 .5 8.2.3 5.2.5 11.4.5 17.9s-.2 12.7-.5 17.9c0 .3-.5 8-.5 8.2-.3 4.1-.6 6.6-.6 6.6-.6 6.1-4.3 14-8.8 19.8-1.8 2.3-3.7 4.2-5.6 5.6-.1 0-2.7 2-7 5-4.9 3.4-12.1 8.1-20 12.8-13.5 8-26 13.8-28.2 14.8l-.4.2c-.2.1-.5.2-.7.3-2.3.9-5.1 1.6-8.2 2-1.4.2-2.9.3-4.4.3h-2c-5.1-.1-9.9-1-13.3-2.6 0 0-.7-.3-2-.9 0 0-.3-.1-.5-.2 0 0-.3-.1-.4-.2-.1 0-.9-.4-.9-.4-5.1-2.4-14.7-7.2-24.9-13.2-14.9-8.7-22.9-14.8-27-17.8-3.7-2.7-4.5-4.7-7.8-4.7H10c-3 0-3 2.6-2.3 3.6 3.1 4.6 6.5 8.2 10.3 11 .5.4 12.7 9.4 28.1 18.5.8.5 1.6 1 2.5 1.4 14.3 8.2 26.6 13.8 27.3 14.2 4.9 2.2 11.3 3.5 18.1 3.7h1.4c.9 0 1.8 0 2.7-.1 1 0 2-.1 3-.2 5.1-.5 9.9-1.7 13.7-3.4 0 0 .1 0 .1-.1 1.7-.8 14.9-6.9 29.6-15.5 8.3-4.9 15.6-9.7 20.7-13.2 4.4-3.1 7.2-5.1 7.4-5.3 2.4-1.8 4.7-4.1 6.9-6.7 5.6-6.7 10.1-15.6 11.8-23.7 0-.1 0-.2.1-.3.1-.7.3-1.4.4-2v-.3c.1-.4.1-.8.1-1.1 0-.2.3-2.6.6-6.5v-.4c.2-.3.2-.7.2-1"/></svg>