<svg width="283" height="232" viewBox="0 0 283 232" fill="none" xmlns="http://www.w3.org/2000/svg">
<g clip-path="url(#clip0_8723_20468)">
<path d="M117.374 115.764C116.771 117.397 114.975 122.436 114.187 129.492C114.1 130.22 114.023 130.968 113.968 131.736C113.881 132.848 113.826 134.009 113.804 135.2C113.793 136.096 113.793 137.011 113.815 137.956C113.837 138.645 113.87 139.353 113.902 140.072C113.957 140.869 114.023 141.676 114.11 142.493C114.22 143.565 114.362 144.648 114.537 145.76C115.479 151.586 117.406 157.884 120.888 164.281C119.695 165.305 117.472 167.126 114.483 169.074C107.902 173.365 97.609 178.246 86.5496 176.327C79.3007 175.068 73.9243 171.456 63.8066 163.573C54.7073 156.487 48.2578 149.677 45.2794 146.311C41.7973 142.365 39.1256 138.851 37.2422 136.243C38.9613 134.147 40.6805 132.051 42.4105 129.955C46.9766 124.385 51.5537 118.814 56.1308 113.244C65.6134 121.491 72.7855 125.349 78.0634 127.239C79.6292 127.799 83.823 129.197 87.2066 132.415C88.5424 132.1 89.5827 132.228 90.1959 132.366C90.7215 132.484 91.2252 132.671 91.696 132.927L91.7836 132.809C94.5101 131.962 97.4885 130.811 100.565 129.236C108.395 125.231 113.793 120.064 117.363 115.754H117.374V115.764Z" fill="#F4F3F1"/>
<path d="M232.87 105.43C230.548 103.747 226.015 101.287 220.266 102.271C217.606 102.723 215.492 103.786 213.894 104.938L213.762 104.8C210.696 103.196 207.258 101.562 203.447 100.037C201.126 99.1018 198.892 98.2948 196.746 97.5862C198.87 94.1417 201.159 91.5042 202.922 89.6836C203.71 89.9198 204.521 90.156 205.342 90.4217C208.178 91.3271 211.145 92.4392 214.178 93.7973C215.58 94.4271 216.982 95.0963 218.405 95.8344C224.044 98.7475 228.829 102.054 232.87 105.43Z" fill="#F4F3F1"/>
<path d="M114.109 142.492C115.456 142.925 117.022 143.348 118.774 143.683C121.227 144.136 123.439 144.303 125.278 144.323L125.935 144.254C126.132 145.878 126.362 147.393 126.614 148.781C122.081 147.905 118.15 146.793 114.931 145.71L114.536 145.76C114.361 144.647 114.219 143.565 114.109 142.492Z" fill="#7099ED"/>
<path d="M223.028 195.244L220.455 195.381L220.411 194.771C219.677 192.645 215.604 180.275 221.331 170.256L220.586 170.148C214.575 166.271 203.241 157.748 196.463 143.232C195.795 141.795 194.7 139.453 193.627 136.442C193.408 135.802 193.189 135.142 192.97 134.444C192.631 133.391 192.313 132.269 192.018 131.088C191.766 130.074 191.536 129.021 191.339 127.929C191.164 127.004 191.021 126.039 190.901 125.055C190.737 123.736 190.616 122.378 190.572 120.971C190.539 120.154 190.529 119.318 190.55 118.471C190.649 113.541 191.613 108.236 193.978 102.843C194.821 100.914 195.763 99.1723 196.748 97.5879C198.894 98.2965 201.128 99.1035 203.449 100.038C207.26 101.564 210.698 103.197 213.764 104.802L213.896 104.939C215.494 103.788 217.608 102.725 220.268 102.272C226.017 101.288 230.55 103.749 232.872 105.431C232.894 105.441 232.916 105.451 232.937 105.481C242.311 113.305 247.643 121.473 250.227 125.96L223.028 195.244Z" fill="#F4F3F1"/>
<path d="M232.937 105.48C232.937 105.48 232.893 105.44 232.871 105.431C228.831 102.055 224.046 98.7483 218.406 95.8352C216.983 95.0971 215.581 94.4279 214.18 93.7981L265.808 86.2793L250.227 125.96C247.643 121.472 242.31 113.304 232.937 105.48Z" fill="white"/>
<path d="M185.612 136.973C188.229 135.91 190.693 135.093 192.916 134.463L192.97 134.443C193.189 135.142 193.408 135.801 193.627 136.441H193.584C190.66 138.262 186.083 140.87 180.093 143.35C179.82 142.484 179.48 141.352 179.141 140.004C181.035 139 183.192 137.957 185.612 136.973Z" fill="#7099ED"/>
<path d="M135.113 100.529C134.467 101.562 133.832 102.625 133.218 103.737C128.028 113.136 125.981 122.564 125.488 130.88H125.28C123.232 130.732 121.064 130.525 118.776 130.22C117.177 130.004 115.644 129.768 114.188 129.492C114.976 122.436 116.772 117.397 117.374 115.763H117.363C118.338 114.573 119.181 113.461 119.892 112.447C122.739 108.884 126.659 104.672 131.937 100.499C134.094 98.7969 136.208 97.3109 138.255 96.002C137.182 97.4289 136.131 98.9347 135.124 100.529H135.113Z" fill="#7099ED"/>
<path d="M116.681 139.797C116.495 140.309 114.218 140.093 113.977 140.073H113.9C113.867 139.355 113.834 138.646 113.812 137.957H114.064C115.729 138.675 116.813 139.414 116.681 139.797Z" fill="#7099ED"/>
<path d="M114.481 169.074C117.47 167.125 119.693 165.305 120.886 164.281C121.226 164.911 121.587 165.541 121.96 166.171L107.517 201.472L167.577 198.234L219.906 195.409L220.027 197.269C219.425 197.269 218.811 197.87 218.57 198.726C218.308 199.661 218.636 200.537 219.293 200.684C219.359 200.694 219.425 200.704 219.49 200.704L219.578 203.036L100.29 206.727L98.3516 206.786L114.678 169.33L114.481 169.074Z" fill="#231F20"/>
<path d="M123.952 155.967C125.408 161.045 126.865 166.113 128.321 171.181C129.712 171.575 131.223 171.978 132.865 172.362C133.862 173.642 134.935 174.941 136.117 176.25C140.804 181.436 145.797 185.402 150.374 188.414C158.751 190.825 171.956 193.541 188.064 192.439C197.678 191.769 205.792 189.929 212.033 188.02C206.175 183.69 199.068 177.47 192.542 168.947C188.896 164.184 186.126 159.598 184.012 155.494C175.92 157.915 163.295 160.661 147.812 159.893C138.253 159.421 130.161 157.728 123.952 155.967ZM126.613 148.782C131.836 149.816 137.858 150.524 144.527 150.514C159.014 150.495 171.135 147.07 180.092 143.35C186.082 140.87 190.659 138.262 193.582 136.451H193.626C194.699 139.453 195.794 141.795 196.462 143.232C203.24 157.748 214.573 166.27 220.585 170.148L221.329 170.256C215.603 180.275 219.676 192.645 220.41 194.771L220.453 195.381L219.906 195.411L167.576 198.235C163.317 197.271 136.49 190.766 121.959 166.172C121.587 165.542 121.226 164.912 120.886 164.283C117.404 157.886 115.477 151.587 114.535 145.761L114.929 145.712C118.149 146.794 122.08 147.907 126.613 148.782Z" fill="#7099ED"/>
<path d="M167.577 208.479L104.626 210.103L98.3516 206.787L100.29 206.728L219.578 203.037L230.473 202.703L277.448 81.1816L278.335 78.8984L282.452 85.128L232.849 206.787L186.662 207.978L167.577 208.479Z" fill="#231F20"/>
<path d="M278.336 78.8984L277.449 81.1816L230.474 202.703L219.579 203.037L219.491 200.705C220.093 200.705 220.717 200.105 220.947 199.258C221.21 198.313 220.893 197.438 220.225 197.29C220.159 197.28 220.093 197.27 220.028 197.27L219.907 195.41L220.455 195.381L223.028 195.243L250.227 125.96L265.809 86.2795L214.18 93.7982C211.147 92.4401 208.18 91.3281 205.344 90.4227L278.336 78.8984Z" fill="#231F20"/>
<path d="M235.445 227.817V231.507H124.117V228.397L161.215 226.163C164.796 225.957 167.577 223.28 167.577 220.062V208.478L186.663 207.977V220.18C186.663 223.467 189.543 226.163 193.2 226.291L235.445 227.817Z" fill="#231F20"/>
<path d="M220.225 197.289C220.893 197.437 221.21 198.313 220.947 199.257C220.717 200.104 220.093 200.704 219.491 200.704C219.425 200.704 219.36 200.694 219.294 200.684C218.637 200.537 218.308 199.661 218.571 198.726C218.812 197.87 219.425 197.27 220.028 197.27C220.093 197.27 220.159 197.27 220.225 197.289Z" fill="white"/>
<path d="M192.544 168.947C199.07 177.47 206.177 183.69 212.035 188.02C205.793 189.929 197.68 191.769 188.066 192.439C171.958 193.541 158.753 190.825 150.376 188.413C145.799 185.402 140.806 181.436 136.119 176.25C134.937 174.941 133.864 173.642 132.867 172.362C140.609 174.203 150.978 175.817 163.198 175.374C174.039 174.98 183.105 173.09 189.839 171.181C187.89 165.955 185.952 160.73 184.014 155.494C186.127 159.598 188.898 164.184 192.544 168.947Z" fill="#7099ED"/>
<path d="M195.699 87.9316C197.943 88.3843 200.374 88.9551 202.925 89.6834C201.163 91.504 198.874 94.1415 196.75 97.586C195.764 99.1705 194.823 100.912 193.979 102.841C191.614 108.234 190.651 113.539 190.552 118.469H190.103C187.902 118.912 185.23 119.64 182.362 120.861C180.555 121.619 179 122.445 177.664 123.233C178.036 118.282 179.175 112.801 181.628 107.122C183.676 102.379 186.26 98.4028 188.833 95.165H188.844C191.264 92.1044 193.706 89.7129 195.699 87.9316Z" fill="#7099ED"/>
<path d="M192.969 134.443L192.914 134.463C190.691 135.093 188.228 135.91 185.611 136.972C183.191 137.957 181.034 139 179.139 140.004C178.876 138.97 178.614 137.799 178.384 136.51L178.778 136.451C180.858 135.024 181.92 133.577 181.537 132.997C181.187 132.475 179.621 132.593 177.88 133.105C177.76 132.131 177.672 131.117 177.617 130.054C179.161 129.188 180.979 128.283 183.048 127.446C185.895 126.304 188.534 125.557 190.79 125.064H190.899C191.02 126.039 191.162 127.003 191.337 127.928L191.097 127.968C189.443 128.233 188.49 129.336 188.633 130.024C188.775 130.753 190.21 131.53 191.972 131.097H192.016C192.312 132.268 192.629 133.39 192.969 134.443Z" fill="white"/>
<path d="M192.019 131.087H191.975C190.212 131.53 188.777 130.752 188.635 130.024C188.493 129.335 189.445 128.233 191.099 127.967L191.34 127.928C191.537 129.02 191.767 130.073 192.019 131.087Z" fill="#7099ED"/>
<path d="M190.902 125.055H190.792C188.536 125.557 185.898 126.305 183.051 127.446C180.981 128.283 179.163 129.188 177.619 130.054C177.532 128.667 177.499 127.21 177.543 125.695H177.806C179.251 124.907 180.904 124.11 182.777 123.352C185.602 122.211 188.241 121.463 190.518 120.971H190.573C190.617 122.378 190.737 123.736 190.902 125.055Z" fill="#7099ED"/>
<path d="M190.573 120.97H190.519C188.241 121.462 185.602 122.21 182.777 123.352C180.905 124.11 179.251 124.907 177.806 125.704H177.543C177.554 124.887 177.598 124.07 177.663 123.234C178.999 122.447 180.554 121.62 182.361 120.862C185.23 119.642 187.902 118.914 190.102 118.471H190.551C190.53 119.317 190.54 120.154 190.573 120.97Z" fill="#7099ED"/>
<path d="M184.013 155.494C185.951 160.73 187.89 165.955 189.839 171.181C183.104 173.09 174.038 174.98 163.198 175.374C150.977 175.817 140.608 174.203 132.866 172.362C131.224 171.978 129.713 171.575 128.322 171.181C126.866 166.113 125.409 161.045 123.953 155.967C130.162 157.728 138.254 159.421 147.813 159.893C163.296 160.661 175.921 157.915 184.013 155.494Z" fill="#7099ED"/>
<path d="M195.695 87.9323C193.702 89.7136 191.26 92.105 188.84 95.1657H188.83C187.494 94.8901 186.169 94.6244 184.844 94.3489C186.968 91.1898 188.162 88.3752 188.753 86.8301C190.79 87.0761 193.122 87.4206 195.695 87.9323Z" fill="#F4F3F1"/>
<path d="M177.662 123.233C177.597 124.07 177.553 124.887 177.542 125.694C177.498 127.209 177.531 128.666 177.619 130.053C177.673 131.116 177.761 132.13 177.881 133.104C178.013 134.315 178.188 135.446 178.385 136.509C178.615 137.798 178.878 138.97 179.141 140.003C179.48 141.351 179.819 142.483 180.093 143.349C171.136 147.069 159.015 150.494 144.528 150.513C137.859 150.523 131.837 149.815 126.614 148.781C126.362 147.394 126.132 145.878 125.935 144.254C125.847 143.536 125.76 142.798 125.694 142.03C125.617 141.164 125.541 140.269 125.497 139.353C125.442 138.468 125.398 137.552 125.388 136.617C125.366 135.496 125.366 134.334 125.388 133.153C125.409 132.405 125.442 131.648 125.486 130.88C125.979 122.564 128.026 113.136 133.217 103.738C133.83 102.625 134.465 101.563 135.111 100.529C136.118 98.935 137.17 97.4292 138.243 96.0022C139.403 95.2543 140.542 94.5654 141.637 93.9355C137.706 101.454 139.798 105.125 140.444 106.08C144.845 112.664 160.723 111 170.468 106.601C177.454 103.452 181.988 98.6004 184.845 94.3489C186.17 94.6244 187.495 94.8902 188.831 95.1657C186.258 98.4035 183.674 102.379 181.626 107.123C179.173 112.801 178.035 118.283 177.662 123.233Z" fill="#F4F3F1"/>
<path d="M126.636 53.892C126.055 54.4727 125.694 55.319 125.694 56.2638C125.694 58.0155 126.931 59.4327 128.453 59.4327C129.975 59.4327 131.213 58.0155 131.213 56.2638C131.213 54.512 129.975 53.1047 128.453 53.1047C127.752 53.1047 127.117 53.4 126.636 53.892ZM149.28 51.8745C148.667 52.4552 148.272 53.3311 148.272 54.3152C148.272 56.067 149.51 57.4841 151.032 57.4841C152.554 57.4841 153.791 56.067 153.791 54.3152C153.791 52.5634 152.554 51.1561 151.032 51.1561C150.364 51.1561 149.762 51.4218 149.291 51.8647H149.28V51.8745ZM140.126 87.7069C128.344 85.9355 116.671 70.9471 116.66 49.2764L158.533 47.1113C158.719 47.4263 158.938 47.8494 159.179 48.3612C159.628 49.3059 160.066 50.4082 160.405 51.6482C160.821 53.1933 160.996 54.5809 161.051 55.7422C161.807 55.8701 162.562 55.9981 163.329 56.126C163.438 54.512 163.537 52.8882 163.646 51.2644C164.325 50.8609 166.789 49.5225 169.931 49.9948C173.402 50.5263 175.998 53.0161 176.819 55.5552C176.885 55.7422 176.928 55.939 176.972 56.126C177.552 58.8225 176.184 61.8734 173.381 64.0089C174.574 65.9772 175.811 67.9455 177.093 69.9334C180.925 75.8973 184.834 81.5265 188.754 86.8409C188.163 88.386 186.969 91.2006 184.845 94.3597C181.987 98.6111 177.454 103.463 170.468 106.612C160.723 111.011 144.845 112.674 140.443 106.091C139.797 105.136 137.706 101.465 141.637 93.9562C142.743 93.3165 143.816 92.7358 144.845 92.2044C143.279 89.9114 141.363 88.4844 140.126 87.7069ZM145.053 71.9115C147.309 71.3604 149.225 67.6305 147.407 63.2315C147.035 64.0188 146.072 65.7508 143.936 67.1286C142.064 68.3391 140.213 68.6737 139.283 68.782C140.925 70.9864 143.312 72.3347 145.053 71.9115Z" fill="white"/>
<path d="M181.845 42.495V45.9002L177.049 46.1462L158.532 47.1008L116.66 49.2561L104.506 49.8859L104.309 47.2583L106.093 46.8941C108.973 46.3135 111.032 44.0205 111.054 41.3633L111.13 30.4788C111.196 22.5663 114.645 15.3428 120.284 9.96938C125.913 4.596 133.731 1.0728 142.524 0.561049C161.018 -0.521499 176.994 12.0557 178.22 28.6778L179.074 40.1626C179.129 40.8122 179.447 41.4027 179.95 41.816C180.443 42.2392 181.111 42.495 181.845 42.495Z" fill="#FF8B63"/>
<path d="M181.54 132.996C181.923 133.577 180.861 135.023 178.781 136.45L178.387 136.51C178.189 135.447 178.014 134.315 177.883 133.104C179.624 132.593 181.19 132.475 181.54 132.996Z" fill="#7099ED"/>
<path d="M158.531 47.1011L177.048 46.1465C177.048 47.3373 177.037 48.5478 177.015 49.7779C176.982 51.7462 176.916 53.6751 176.818 55.545C175.996 53.0059 173.401 50.516 169.93 49.9846C166.787 49.5122 164.324 50.8507 163.645 51.2541C163.535 52.878 163.437 54.5018 163.327 56.1158C162.561 55.9878 161.805 55.8599 161.05 55.732C160.995 54.5707 160.82 53.1831 160.404 51.638C160.064 50.3979 159.626 49.2957 159.177 48.3509C158.936 47.8392 158.717 47.416 158.531 47.1011Z" fill="#231F20"/>
<path d="M167.576 198.225L107.516 201.473L121.959 166.172C136.489 190.765 163.316 197.271 167.576 198.225Z" fill="white"/>
<path d="M149.292 51.8648C149.763 51.422 150.365 51.1562 151.033 51.1562C152.555 51.1562 153.792 52.5734 153.792 54.3153C153.792 56.0572 152.555 57.4842 151.033 57.4842C149.511 57.4842 148.273 56.0671 148.273 54.3153C148.273 53.3312 148.668 52.4553 149.281 51.8747H149.292V51.8648Z" fill="#231F20"/>
<path d="M147.406 63.2207C149.224 67.6198 147.308 71.3497 145.052 71.9008C143.311 72.324 140.924 70.9757 139.281 68.7712C140.212 68.663 142.063 68.3284 143.935 67.1179C146.07 65.7401 147.034 64.008 147.406 63.2207Z" fill="white"/>
<path d="M126.637 53.8908C127.119 53.3988 127.754 53.1035 128.455 53.1035C129.977 53.1035 131.214 54.5207 131.214 56.2626C131.214 58.0045 129.977 59.4315 128.455 59.4315C126.933 59.4315 125.695 58.0143 125.695 56.2626C125.695 55.3178 126.057 54.4715 126.637 53.8908Z" fill="#231F20"/>
<path d="M125.937 144.255L125.28 144.324C123.44 144.304 121.228 144.137 118.775 143.684C117.023 143.35 115.457 142.927 114.111 142.494C114.023 141.677 113.957 140.87 113.903 140.073H113.979C114.22 140.092 116.498 140.309 116.684 139.797C116.815 139.413 115.731 138.675 114.067 137.957H113.815C113.793 137.012 113.793 136.097 113.804 135.201H113.957C115.479 135.487 117.089 135.742 118.775 135.969C121.064 136.274 123.232 136.481 125.28 136.618H125.389C125.4 137.553 125.444 138.469 125.499 139.354C123.309 139.433 121.655 139.807 121.589 140.319C121.524 140.84 123.155 141.559 125.51 142.051L125.696 142.031C125.761 142.799 125.849 143.537 125.937 144.255Z" fill="white"/>
<path d="M125.694 142.03L125.508 142.05C123.154 141.558 121.522 140.84 121.588 140.318C121.654 139.806 123.307 139.432 125.497 139.354C125.541 140.269 125.617 141.164 125.694 142.03Z" fill="#7099ED"/>
<path d="M125.276 130.87H125.484C125.44 131.647 125.407 132.405 125.386 133.153C123.382 133.015 121.257 132.809 119.013 132.513C117.326 132.287 115.717 132.031 114.195 131.746H113.965C114.02 130.968 114.096 130.22 114.184 129.492C115.64 129.768 117.173 130.004 118.772 130.22C121.06 130.526 123.228 130.732 125.276 130.87Z" fill="#7099ED"/>
<path d="M125.386 136.618H125.276C123.229 136.48 121.061 136.273 118.772 135.968C117.086 135.742 115.476 135.486 113.954 135.2H113.801C113.823 134.01 113.877 132.848 113.965 131.736H114.195C115.717 132.032 117.327 132.287 119.013 132.514C121.258 132.809 123.382 133.016 125.386 133.153C125.364 134.334 125.364 135.496 125.386 136.618Z" fill="#7099ED"/>
<path d="M31.6116 121.374C27.1002 122.673 23.2239 121.276 21.9428 120.744L21.4062 118.313C21.6252 118.097 22.3808 117.28 22.3808 116.079C22.3808 115.971 22.3698 115.863 22.3589 115.755C22.3151 115.41 22.2165 115.105 22.0742 114.839C21.9099 114.003 21.8661 112.753 22.5998 111.503C22.6436 111.434 22.6874 111.355 22.7312 111.287C23.7714 109.712 25.4577 109.19 25.8957 109.072L26.049 108.994C24.9102 107.055 22.118 101.455 24.516 95.3436C24.5379 95.2747 24.5708 95.2156 24.5927 95.1467C25.8519 92.0861 27.9543 90.0489 29.3668 88.9172C27.3301 76.4482 29.4763 67.3449 34.2395 65.9475C34.9841 65.7309 36.2543 65.5735 38.1815 66.2722C39.7473 66.843 40.5905 68.3684 40.2291 69.8545C39.0246 74.7555 38.3129 80.9752 39.5393 87.9429C39.8568 89.7045 40.262 91.3677 40.7328 92.9128C44.2368 96.2687 46.0326 100.166 45.945 103.541C49.6022 107.311 52.9857 110.519 56.1284 113.245C51.5513 118.815 46.9743 124.385 42.4081 129.956C41.2694 128.893 40.043 127.81 38.7399 126.728C36.3091 124.71 33.911 122.929 31.6116 121.374Z" fill="white"/>
<path d="M24.2105 95.2454C23.4002 97.499 20.9255 99.4673 17.6186 99.7232C19.7977 99.8019 21.692 101.003 22.3818 102.744C23.2031 104.821 21.8781 106.632 21.7358 106.829C21.8781 106.947 23.3564 108.177 23.1374 110.037C23.0717 110.559 22.8855 111.06 22.6008 111.503C22.119 112.241 21.3635 112.832 20.4327 113.157C20.5094 113.196 21.5496 113.767 22.0752 114.83C22.1738 115.322 22.3161 115.647 22.3599 115.745C22.3709 115.863 22.3818 115.971 22.3818 116.08C22.3818 117.28 21.6263 118.097 21.4073 118.314L21.9438 120.744C20.597 121.04 13.8628 122.427 9.59236 120.666C8.89156 120.38 7.76372 119.898 6.98628 118.727C5.94604 117.152 6.20884 115.351 6.32929 114.702C6.23074 114.662 3.98601 113.786 3.59181 111.454C3.26332 109.525 4.47876 108.128 4.63205 107.951C1.73033 106.779 0.131649 104.162 0.646294 101.79C1.14999 99.4181 3.53707 98.247 3.88746 98.0895C3.12097 96.9086 1.78508 94.4286 2.68297 91.9879C4.21596 87.7758 11.1582 86.8704 14.1147 86.4866C20.7503 85.6304 26.2909 87.5396 29.3679 88.9174C27.9553 90.0491 25.8529 92.0863 24.5937 95.147C24.5718 95.2159 24.539 95.2749 24.5171 95.3438L24.2105 95.2454Z" fill="white"/>
<path d="M26.0486 108.993L25.8953 109.071C25.4573 109.189 23.771 109.711 22.7308 111.286C22.687 111.354 22.6432 111.433 22.5994 111.502C22.8841 111.059 23.0702 110.557 23.1359 110.036C23.3549 108.176 21.8767 106.946 21.7343 106.827C21.8767 106.631 23.2016 104.82 22.3804 102.743C21.6905 101.001 19.7962 99.8007 17.6172 99.722C20.9241 99.4661 23.3987 97.4978 24.209 95.2441L24.5156 95.3426C22.1176 101.454 24.9098 107.054 26.0486 108.993Z" fill="white"/>
<path d="M22.3589 115.743C22.3151 115.645 22.1728 115.32 22.0742 114.838C22.2166 115.104 22.3151 115.409 22.3589 115.743Z" fill="white"/>
<path d="M22.6017 111.502C21.868 112.752 21.9118 114.002 22.0761 114.828C21.5505 113.765 20.5102 113.195 20.4336 113.155C21.3643 112.831 22.1199 112.24 22.6017 111.502Z" fill="white"/>
<path d="M116.66 49.2656C116.671 70.9363 128.344 85.9247 140.126 87.6961C140.608 87.7748 141.078 87.824 141.56 87.8536C143.246 87.9421 150.211 88.0701 158.565 80.256" stroke="#231F20" stroke-linecap="round" stroke-linejoin="round"/>
<path d="M140.07 87.666C140.07 87.666 140.103 87.6857 140.125 87.6955C141.362 88.473 143.279 89.9 144.844 92.193C147.013 95.3915 147.275 98.4817 147.297 99.9185" stroke="#231F20" stroke-linecap="round" stroke-linejoin="round"/>
<path d="M232.938 105.48C242.311 113.304 247.643 121.473 250.227 125.96" stroke="#231F20" stroke-linecap="round" stroke-linejoin="round"/>
<path d="M173.383 63.998C174.576 65.9663 175.814 67.9346 177.095 69.9225C180.927 75.8864 184.836 81.5157 188.756 86.83C190.793 87.076 193.125 87.4205 195.699 87.9322C197.943 88.3849 200.374 88.9557 202.926 89.684C203.714 89.9202 204.524 90.1564 205.346 90.4221C208.182 91.3275 211.149 92.4395 214.182 93.7977C215.584 94.4275 216.985 95.0967 218.409 95.8348C224.048 98.7479 228.833 102.055 232.874 105.43" stroke="#231F20" stroke-linecap="round" stroke-linejoin="round"/>
<path d="M173.371 63.9883V63.9984" stroke="#231F20" stroke-linecap="round" stroke-linejoin="round"/>
<path d="M144.845 92.1934C143.816 92.7248 142.743 93.3054 141.637 93.9353C140.542 94.5651 139.403 95.254 138.242 96.002C136.195 97.3109 134.082 98.7969 131.924 100.499C126.647 104.672 122.726 108.884 119.88 112.437C119.693 112.673 119.507 112.909 119.332 113.136" stroke="#231F20" stroke-linecap="round" stroke-linejoin="round"/>
<path d="M141.637 93.9454C137.706 101.454 139.798 105.125 140.444 106.08C144.846 112.664 160.723 111 170.469 106.601C177.455 103.452 181.988 98.6003 184.846 94.3489C186.97 91.1898 188.164 88.3752 188.755 86.8301" stroke="#231F20" stroke-linecap="round" stroke-linejoin="round"/>
<path d="M172.966 57.4836C173.065 55.7811 171.773 54.2852 170.043 53.9801C168.543 53.7144 166.955 54.3738 166.145 55.6335" stroke="#231F20" stroke-linecap="round" stroke-linejoin="round"/>
<path d="M139.281 68.7712C140.212 68.663 142.063 68.3284 143.935 67.1179C146.07 65.7401 147.034 64.008 147.406 63.2207C149.224 67.6198 147.308 71.3497 145.052 71.9008C143.311 72.324 140.924 70.9757 139.281 68.7712Z" stroke="#231F20" stroke-linecap="round" stroke-linejoin="round"/>
<path d="M158.531 47.1016C158.717 47.4165 158.936 47.8397 159.177 48.3514C159.626 49.2962 160.064 50.3984 160.404 51.6384C160.82 53.1835 160.995 54.5711 161.05 55.7324C161.805 55.8604 162.561 55.9883 163.327 56.1162C163.437 54.5023 163.535 52.8784 163.645 51.2546C164.324 50.8511 166.787 49.5127 169.93 49.9851C173.401 50.5165 175.996 53.0064 176.818 55.5454C176.883 55.7324 176.927 55.9293 176.971 56.1162C177.551 58.8128 176.182 61.8636 173.379 63.9992C173.379 63.9992 173.376 63.9992 173.368 63.9992C171.901 65.1309 170.051 65.997 167.872 66.4398" stroke="#231F20" stroke-linecap="round" stroke-linejoin="round"/>
<path d="M177.05 46.1465C177.05 47.3373 177.039 48.5478 177.017 49.7779C176.985 51.7462 176.919 53.6751 176.82 55.545" stroke="#231F20" stroke-linecap="round" stroke-linejoin="round"/>
<path d="M177.049 46.1462L181.845 45.9001V42.495C181.111 42.495 180.443 42.2392 179.95 41.816C179.447 41.4027 179.129 40.8122 179.074 40.1626L178.22 28.6778C176.994 12.0557 161.018 -0.521499 142.524 0.561049C133.731 1.0728 125.913 4.596 120.284 9.96938C114.645 15.3428 111.196 22.5663 111.13 30.4788L111.054 41.3633C111.032 44.0205 108.973 46.3135 106.093 46.8941L104.309 47.2583L104.506 49.8859L116.66 49.256L158.532 47.1008L177.049 46.1462Z" stroke="#231F20" stroke-linecap="round" stroke-linejoin="round"/>
<path d="M140.256 21.7012C140.004 22.3999 137.42 29.9285 142.753 36.0991C146.071 39.9569 150.615 41.1182 152.17 41.4528" stroke="white" stroke-linecap="round" stroke-linejoin="round"/>
<path d="M124.229 23.2559C124.568 24.9486 124.787 26.9464 124.667 29.1902C124.305 35.902 121.363 41.5007 118.184 43.5007" stroke="#231F20" stroke-linecap="round" stroke-linejoin="round"/>
<path d="M147.133 52.0316L149.279 51.8741L149.29 51.8643L151.031 51.7363" stroke="#231F20" stroke-linecap="round" stroke-linejoin="round"/>
<path d="M124.238 54.0687L126.636 53.8915L128.136 53.7734" stroke="#231F20" stroke-linecap="round" stroke-linejoin="round"/>
<path d="M119.955 112.359L119.89 112.448C119.178 113.462 118.335 114.574 117.36 115.755C113.791 120.065 108.392 125.232 100.563 129.237C97.4861 130.812 94.5078 131.963 91.7812 132.81" stroke="#231F20" stroke-linecap="round" stroke-linejoin="round"/>
<path d="M87.207 132.416C88.5429 132.101 89.5832 132.229 90.1964 132.367C90.722 132.485 91.2256 132.672 91.6965 132.928C93.5908 133.942 94.9924 135.949 95.4633 138.4" stroke="#231F20" stroke-linecap="round" stroke-linejoin="round"/>
<path d="M45.9453 103.541C49.6026 107.31 52.9861 110.519 56.1287 113.245C65.6113 121.492 72.7835 125.349 78.0614 127.239C79.6272 127.8 83.821 129.197 87.2045 132.416C88.0258 133.193 88.7922 134.079 89.4711 135.092C91.8363 138.625 92.1648 142.395 92.0663 145.081" stroke="#231F20" stroke-linecap="round" stroke-linejoin="round"/>
<path d="M120.888 164.281C119.695 165.305 117.472 167.126 114.483 169.074C107.902 173.365 97.609 178.246 86.5496 176.327C79.3007 175.068 73.9243 171.456 63.8066 163.573C54.7073 156.487 48.2578 149.677 45.2794 146.311C41.7973 142.365 39.1256 138.851 37.2422 136.243C38.9613 134.147 40.6805 132.051 42.4105 129.955C46.9766 124.385 51.5537 118.814 56.1308 113.244" stroke="#231F20" stroke-linecap="round" stroke-linejoin="round"/>
<path d="M40.735 110.824C43.0783 109.771 44.2061 108.433 44.7427 107.606C45.5201 106.425 45.9253 105.027 45.9472 103.541C46.0348 100.166 44.239 96.2687 40.735 92.9128C40.2642 91.3677 39.859 89.7045 39.5415 87.9429C38.3151 80.9752 39.0268 74.7555 40.2313 69.8545C40.5927 68.3684 39.7495 66.843 38.1837 66.2722C36.2565 65.5735 34.9863 65.7309 34.2417 65.9475C29.4785 67.3449 27.3323 76.4482 29.369 88.9172C27.9565 90.0489 25.8541 92.0861 24.5949 95.1467C24.573 95.2156 24.5401 95.2747 24.5182 95.3436C22.1202 101.455 24.9124 107.055 26.0512 108.994C26.2045 109.259 26.3359 109.456 26.4126 109.574" stroke="#231F20" stroke-linecap="round" stroke-linejoin="round"/>
<path d="M36.7262 118.609C35.7298 119.455 34.142 120.567 31.963 121.266C31.8425 121.305 31.7221 121.335 31.6126 121.374C27.1012 122.673 23.225 121.276 21.9438 120.744C20.597 121.04 13.8628 122.427 9.59236 120.666C8.89156 120.38 7.76372 119.898 6.98628 118.727C5.94604 117.152 6.20884 115.351 6.32929 114.702C6.23074 114.662 3.98601 113.786 3.59182 111.454C3.26332 109.525 4.47876 108.128 4.63205 107.951C1.73033 106.779 0.131649 104.162 0.646294 101.79C1.14999 99.4181 3.53707 98.247 3.88746 98.0895C3.12097 96.9086 1.78508 94.4286 2.68297 91.9879C4.21596 87.7758 11.1582 86.8704 14.1147 86.4866C20.7503 85.6304 26.2909 87.5396 29.3679 88.9174" stroke="#231F20" stroke-linecap="round" stroke-linejoin="round"/>
<path d="M31.4609 121.266C31.4609 121.266 31.5595 121.335 31.6142 121.374C33.9137 122.929 36.3117 124.71 38.7426 126.728C40.0457 127.81 41.272 128.893 42.4108 129.956" stroke="#231F20" stroke-linecap="round" stroke-linejoin="round"/>
<path d="M22.3589 115.754C22.3698 115.862 22.3808 115.97 22.3808 116.079C22.3808 117.279 21.6252 118.096 21.4062 118.313" stroke="#231F20" stroke-linecap="round" stroke-linejoin="round"/>
<path d="M22.0742 114.838C22.2166 115.104 22.3151 115.409 22.3589 115.743" stroke="#231F20" stroke-linecap="round" stroke-linejoin="round"/>
<path d="M19.3801 88.2578C22.1285 88.9664 24.1652 90.915 24.4609 93.0998C24.5594 93.8182 24.4609 94.5464 24.209 95.2452C23.3987 97.4988 20.9241 99.4671 17.6172 99.723C19.7962 99.8017 21.6905 101.002 22.3804 102.744C23.2016 104.821 21.8767 106.632 21.7343 106.828C21.8767 106.947 23.3549 108.177 23.1359 110.037C23.0702 110.558 22.8841 111.06 22.5994 111.503C22.1176 112.241 21.3621 112.832 20.4313 113.156C20.508 113.196 21.5482 113.767 22.0738 114.829" stroke="#231F20" stroke-linecap="round" stroke-linejoin="round"/>
<path d="M22.3613 115.755C22.3175 115.646 22.1751 115.322 22.0766 114.839C21.9123 114.003 21.8685 112.753 22.6022 111.503C22.646 111.434 22.6898 111.355 22.7336 111.287C23.7738 109.712 25.4601 109.19 25.8981 109.072" stroke="#231F20" stroke-linecap="round" stroke-linejoin="round"/>
<path d="M117.374 115.764C116.771 117.397 114.976 122.436 114.187 129.492C114.1 130.221 114.023 130.969 113.968 131.736C113.881 132.848 113.826 134.01 113.804 135.2C113.793 136.096 113.793 137.011 113.815 137.956C113.837 138.645 113.87 139.353 113.903 140.072C113.957 140.869 114.023 141.676 114.111 142.493C114.22 143.565 114.363 144.648 114.538 145.76C115.479 151.586 117.407 157.885 120.889 164.282C121.228 164.911 121.589 165.541 121.962 166.171C136.492 190.765 163.319 197.27 167.579 198.224" stroke="#231F20" stroke-linecap="round" stroke-linejoin="round"/>
<path d="M138.243 96.002C137.17 97.4289 136.118 98.9347 135.111 100.529C134.465 101.562 133.83 102.625 133.217 103.737C128.026 113.136 125.979 122.564 125.486 130.88C125.442 131.647 125.409 132.405 125.388 133.153C125.366 134.334 125.366 135.495 125.388 136.617C125.398 137.552 125.442 138.467 125.497 139.353C125.541 140.268 125.617 141.164 125.694 142.03C125.76 142.798 125.847 143.536 125.935 144.254C126.132 145.878 126.362 147.393 126.614 148.781" stroke="#231F20" stroke-linecap="round" stroke-linejoin="round"/>
<path d="M202.924 89.6836C201.161 91.5042 198.872 94.1417 196.748 97.5862C195.763 99.1707 194.821 100.913 193.978 102.841C191.613 108.235 190.649 113.539 190.55 118.47C190.529 119.316 190.539 120.152 190.572 120.969C190.616 122.377 190.737 123.735 190.901 125.053C191.021 126.038 191.164 127.002 191.339 127.927C191.536 129.019 191.766 130.072 192.018 131.086C192.313 132.267 192.631 133.389 192.97 134.442C193.189 135.141 193.408 135.8 193.627 136.44C194.7 139.451 195.795 141.794 196.463 143.23C203.241 157.746 214.575 166.269 220.586 170.146" stroke="#231F20" stroke-linecap="round" stroke-linejoin="round"/>
<path d="M188.832 95.166C186.259 98.4038 183.675 102.38 181.627 107.123C179.174 112.802 178.035 118.283 177.663 123.234C177.598 124.07 177.554 124.887 177.543 125.694C177.499 127.209 177.532 128.666 177.619 130.054C177.674 131.116 177.762 132.13 177.882 133.104C178.014 134.315 178.189 135.447 178.386 136.51C178.616 137.799 178.879 138.97 179.141 140.003C179.481 141.351 179.82 142.483 180.094 143.349" stroke="#231F20" stroke-linecap="round" stroke-linejoin="round"/>
<path d="M195.698 87.9316C193.705 89.7129 191.264 92.1044 188.844 95.165" stroke="#231F20" stroke-linecap="round" stroke-linejoin="round"/>
<path d="M114.93 145.712C118.149 146.794 122.08 147.907 126.613 148.782C131.836 149.816 137.859 150.524 144.527 150.514C159.014 150.495 171.135 147.07 180.092 143.35C186.082 140.87 190.659 138.262 193.583 136.451" stroke="#231F20" stroke-linecap="round" stroke-linejoin="round"/>
<path d="M205.539 117.939C203.918 121.541 199.571 132.514 203.393 146.056C207.291 159.873 217.255 167.737 220.584 170.148" stroke="#231F20" stroke-linecap="round" stroke-linejoin="round"/>
<path d="M132.866 172.362C131.224 171.978 129.713 171.575 128.322 171.181C126.866 166.113 125.409 161.045 123.953 155.967C130.162 157.728 138.254 159.421 147.813 159.893C163.296 160.661 175.921 157.915 184.013 155.494C185.951 160.73 187.89 165.955 189.839 171.181C183.104 173.09 174.038 174.98 163.198 175.374C150.977 175.817 140.608 174.203 132.866 172.362Z" stroke="#231F20" stroke-linecap="round" stroke-linejoin="round"/>
<path d="M214.179 93.7981L265.807 86.2793L250.226 125.96L223.026 195.243L220.453 195.381L219.905 195.41L167.576 198.234L107.516 201.472L121.959 166.171" stroke="#231F20" stroke-linecap="round" stroke-linejoin="round"/>
<path d="M277.449 81.1816L278.336 78.8984L205.344 90.4227" stroke="#231F20" stroke-linecap="round" stroke-linejoin="round"/>
<path d="M114.678 169.33L98.3516 206.786L100.29 206.727" stroke="#231F20" stroke-linecap="round" stroke-linejoin="round"/>
<path d="M98.3516 206.787L104.626 210.103L167.577 208.479L186.662 207.978L232.849 206.787L282.452 85.128L278.335 78.8984" stroke="#231F20" stroke-linecap="round" stroke-linejoin="round"/>
<path d="M186.663 208.008V220.182C186.663 223.469 189.543 226.165 193.2 226.293L235.445 227.818V231.509H124.117V228.399L161.215 226.165C164.796 225.958 167.577 223.282 167.577 220.063V208.48" stroke="#231F20" stroke-linecap="round" stroke-linejoin="round"/>
<path d="M3.88672 98.0879C7.06219 98.4127 10.2486 98.7374 13.4241 99.0622" stroke="#231F20" stroke-linecap="round" stroke-linejoin="round"/>
<path d="M5.62891 107.92C8.61823 108.048 11.6185 108.176 14.6078 108.304" stroke="#231F20" stroke-linecap="round" stroke-linejoin="round"/>
<path d="M8.11328 114.435C10.2485 114.209 12.3728 113.982 14.508 113.756" stroke="#231F20" stroke-linecap="round" stroke-linejoin="round"/>
<path d="M19.1612 91.0817C18.559 90.4616 17.683 89.694 16.4566 89.0346C14.0914 87.7553 11.781 87.588 10.6094 87.5781" stroke="#231F20" stroke-linecap="round" stroke-linejoin="round"/>
<path d="M184.014 155.494C186.127 159.598 188.898 164.184 192.544 168.947C199.07 177.47 206.177 183.69 212.035 188.02C205.793 189.929 197.68 191.769 188.066 192.439C171.958 193.541 158.753 190.825 150.376 188.413C145.799 185.402 140.806 181.436 136.119 176.25C134.937 174.941 133.864 173.642 132.867 172.362" stroke="#231F20" stroke-linecap="round" stroke-linejoin="round"/>
<path d="M220.028 197.27C220.093 197.27 220.159 197.27 220.225 197.289C220.893 197.437 221.21 198.313 220.947 199.257C220.717 200.104 220.093 200.704 219.491 200.704C219.425 200.704 219.36 200.694 219.294 200.684C218.637 200.537 218.308 199.661 218.571 198.726C218.812 197.87 219.425 197.27 220.028 197.27Z" stroke="#231F20" stroke-linecap="round" stroke-linejoin="round"/>
<path d="M177.617 130.054C179.161 129.188 180.979 128.283 183.048 127.446C185.895 126.304 188.534 125.557 190.79 125.064" stroke="#231F20" stroke-linecap="round" stroke-linejoin="round"/>
<path d="M177.805 125.704C179.25 124.907 180.904 124.11 182.776 123.352C185.601 122.211 188.24 121.463 190.518 120.971" stroke="#231F20" stroke-linecap="round" stroke-linejoin="round"/>
<path d="M177.652 123.244C177.652 123.244 177.663 123.244 177.663 123.234C178.999 122.447 180.554 121.62 182.361 120.862C185.23 119.642 187.901 118.914 190.102 118.471" stroke="#231F20" stroke-linecap="round" stroke-linejoin="round"/>
<path d="M179.141 140.004C181.035 139 183.192 137.957 185.612 136.972C188.229 135.91 190.693 135.093 192.916 134.463" stroke="#231F20" stroke-linecap="round" stroke-linejoin="round"/>
<path d="M177.883 133.104C179.624 132.593 181.19 132.475 181.54 132.996C181.923 133.577 180.861 135.023 178.781 136.45" stroke="#231F20" stroke-linecap="round" stroke-linejoin="round"/>
<path d="M191.975 131.096C190.212 131.529 188.777 130.752 188.635 130.024C188.493 129.335 189.445 128.233 191.099 127.967" stroke="#231F20" stroke-linecap="round" stroke-linejoin="round"/>
<path d="M113.957 135.201C115.479 135.487 117.089 135.742 118.775 135.969C121.064 136.274 123.232 136.481 125.279 136.618" stroke="#231F20" stroke-linecap="round" stroke-linejoin="round"/>
<path d="M113.957 129.453C114.034 129.453 114.11 129.483 114.187 129.492C115.643 129.768 117.176 130.004 118.775 130.221C121.064 130.526 123.232 130.733 125.279 130.87" stroke="#231F20" stroke-linecap="round" stroke-linejoin="round"/>
<path d="M114.195 131.746C115.717 132.031 117.327 132.287 119.013 132.514C121.258 132.809 123.382 133.016 125.386 133.153C125.43 133.153 125.474 133.163 125.517 133.163" stroke="#231F20" stroke-linecap="round" stroke-linejoin="round"/>
<path d="M114.109 142.492C115.456 142.925 117.022 143.348 118.774 143.683C121.227 144.136 123.439 144.303 125.278 144.323" stroke="#231F20" stroke-linecap="round" stroke-linejoin="round"/>
<path d="M114.064 137.957C115.729 138.675 116.813 139.414 116.681 139.797C116.495 140.309 114.217 140.093 113.977 140.073" stroke="#231F20" stroke-linecap="round" stroke-linejoin="round"/>
<path d="M125.519 139.354H125.497C123.307 139.432 121.654 139.806 121.588 140.318C121.522 140.84 123.154 141.558 125.508 142.05" stroke="#231F20" stroke-linecap="round" stroke-linejoin="round"/>
<path d="M143.379 3.38477C147.124 3.39461 152.774 3.96541 158.435 6.88829C174.411 15.1452 174.674 34.0898 174.674 35.3101" stroke="white" stroke-width="0.99" stroke-linecap="round" stroke-linejoin="round"/>
<path d="M165.945 43.292L178.143 42.6523" stroke="white" stroke-width="0.99" stroke-linecap="round" stroke-linejoin="round"/>
<path d="M159.891 43.7349C160.723 43.6957 161.555 43.6467 162.387 43.6074" stroke="white" stroke-width="0.99" stroke-linecap="round" stroke-linejoin="round"/>
<path d="M100.289 206.728L219.577 203.037L230.472 202.703L277.447 81.1816" stroke="white" stroke-width="0.99" stroke-linecap="round" stroke-linejoin="round"/>
<path d="M229.345 162.303C227.1 163.621 225.425 165.058 224.165 166.416C223.027 167.637 222.096 168.926 221.329 170.255C215.603 180.273 219.676 192.644 220.41 194.769" stroke="#231F20" stroke-linecap="round" stroke-linejoin="round"/>
<path d="M223.84 158.721C223.106 159.232 222.241 159.98 221.562 161.063C219.35 164.606 221.234 168.533 221.518 169.123" stroke="#231F20" stroke-linecap="round" stroke-linejoin="round"/>
<path d="M58.2546 123.066C54.1374 127.869 50.0312 132.672 45.9141 137.474" stroke="#231F20" stroke-linecap="round" stroke-linejoin="round"/>
<path d="M148.723 115.538C152.095 116.04 157.461 116.404 163.669 114.957C174.871 112.359 181.386 105.588 183.62 103.029" stroke="#231F20" stroke-linecap="round" stroke-linejoin="round"/>
<path d="M184.844 94.3496C186.169 94.6252 187.494 94.8909 188.83 95.1664H188.84" stroke="#231F20" stroke-linecap="round" stroke-linejoin="round"/>
<path d="M196.746 97.5879C198.892 98.2965 201.126 99.1035 203.447 100.038C207.258 101.564 210.696 103.197 213.762 104.802" stroke="#231F20" stroke-linecap="round" stroke-linejoin="round"/>
<path d="M138.614 112.359C137.826 111.689 136.95 110.774 136.227 109.573C133.917 105.755 134.749 101.858 135.11 100.529" stroke="#231F20" stroke-linecap="round" stroke-linejoin="round"/>
<path d="M209.867 109.181C210.13 108.748 211.411 106.72 213.897 104.939C215.495 103.788 217.609 102.725 220.27 102.272C226.018 101.288 230.552 103.748 232.873 105.431C232.895 105.441 232.917 105.451 232.939 105.48C233.924 106.199 234.493 106.77 234.57 106.848" stroke="#231F20" stroke-linecap="round" stroke-linejoin="round"/>
</g>
<defs>
<clipPath id="clip0_8723_20468">
<rect width="283" height="232" fill="white"/>
</clipPath>
</defs>
</svg>
