<svg width="20" height="21" viewBox="0 0 20 21" fill="none" xmlns="http://www.w3.org/2000/svg">
<path d="M12.9163 9.91667C12.9163 11.5275 11.6105 12.8333 9.99967 12.8333C8.38884 12.8333 7.08301 11.5275 7.08301 9.91667C7.08301 8.30583 8.38884 7 9.99967 7C11.6105 7 12.9163 8.30583 12.9163 9.91667Z" stroke="#7099ED" stroke-width="1.5"/>
<path d="M10 2.41699C14.0588 2.41699 17.5 5.77781 17.5 9.85516C17.5 13.9974 14.0027 16.9042 10.7725 18.8809C10.5371 19.0138 10.2708 19.0837 10 19.0837C9.72917 19.0837 9.46292 19.0138 9.2275 18.8809C6.00325 16.885 2.5 14.0117 2.5 9.85516C2.5 5.77781 5.9412 2.41699 10 2.41699Z" stroke="#7099ED" stroke-width="1.5"/>
</svg>
