<svg width="195" height="50" viewBox="0 0 373 80" fill="none" xmlns="http://www.w3.org/2000/svg">
<path d="M319.09 0H43.76C19.592 0 0 19.592 0 43.76C0 67.928 19.592 87.52 43.76 87.52H319.09C343.258 87.52 362.85 67.928 362.85 43.76C362.85 19.592 343.258 0 319.09 0Z" fill="#383940"/>
<path d="M65.87 55.97H60.87C60.13 55.97 59.54 56.57 59.54 57.3V58.86C59.54 59.21 59.42 59.55 59.17 59.79C56.62 62.21 53.6 60.44 53.6 57.97V57.3C53.6 56.56 53 55.97 52.27 55.97H45.14C44.4 55.97 43.81 56.57 43.81 57.3V58.86C43.81 59.21 43.69 59.55 43.44 59.79C40.89 62.21 37.87 60.44 37.87 57.97V57.3C37.87 56.56 37.27 55.97 36.54 55.97H31.54C30.75 55.97 30.13 56.65 30.2 57.44C30.94 65.33 37.58 71.5 45.67 71.5H51.76C59.84 71.5 66.49 65.33 67.23 57.44C67.3 56.65 66.68 55.97 65.89 55.97H65.87Z" fill="white"/>
<path d="M71.36 46.05C70.62 46.05 70.03 45.45 70.03 44.72V38.05C70.03 32.71 67.78 27.67 63.73 23.92C63.08 23.32 62.39 22.76 61.67 22.24C60.78 21.61 59.56 22.24 59.56 23.33V37.85C59.56 39.09 58.57 40.06 57.35 40.06C56.13 40.06 55.14 39.09 55.14 37.85V17.92C55.14 17.32 54.74 16.77 54.15 16.63C52.48 16.23 50.72 16.01 48.94 16.01C47.06 16.01 45.21 16.23 43.45 16.67C42.91 16.81 42.47 17.4 42.47 17.96V37.85C42.47 39.09 41.48 40.06 40.26 40.06C39.04 40.06 38.05 39.09 38.05 37.85V23.51C38.05 22.41 36.79 21.78 35.9 22.44C35.09 23.04 34.32 23.71 33.59 24.44C29.88 28.13 27.85 32.96 27.85 38.04V44.71C27.85 45.45 27.25 46.04 26.51 46.04H24.59C23.85 46.04 23.26 46.64 23.26 47.37V49.8C23.26 50.54 23.86 51.13 24.59 51.13H73.29C74.03 51.13 74.62 50.53 74.62 49.8V47.37C74.62 46.63 74.02 46.04 73.29 46.04H71.37L71.36 46.05Z" fill="#FFB31D"/>
<path d="M92.6301 36.7001H113.97V57.0801H108.45V41.0901H98.1501V57.0801H92.6301V36.7001Z" fill="white"/>
<path d="M117.16 46.67C117.16 43.27 118.47 40.69 121.09 38.93C123.71 37.17 126.95 36.28 130.79 36.28C134.63 36.28 137.87 37.16 140.5 38.93C143.13 40.69 144.44 43.27 144.44 46.67V46.84C144.44 50.38 143.13 53.04 140.5 54.83C137.87 56.62 134.64 57.51 130.79 57.51C126.94 57.51 123.71 56.62 121.09 54.83C118.47 53.04 117.16 50.38 117.16 46.84V46.67ZM130.37 54.57C132.21 54.36 133.97 53.43 135.65 51.78C137.31 50.16 138.24 48.42 138.44 46.55C138.65 44.68 137.96 42.96 136.38 41.38L136.19 41.19C134.68 39.68 133.02 39.05 131.2 39.3C129.39 39.55 127.65 40.49 125.99 42.12C124.29 43.78 123.34 45.52 123.11 47.33C122.89 49.15 123.53 50.81 125.04 52.31L125.22 52.49C126.81 54.08 128.52 54.77 130.36 54.55L130.37 54.57Z" fill="white"/>
<path d="M145.84 46.74C145.84 43.28 147.09 40.67 149.58 38.91C152.08 37.15 155.33 36.28 159.33 36.28C163.33 36.28 166.34 36.94 168.36 38.25C170.39 39.56 171.59 41.55 171.98 44.21L172.05 44.77H166.55L166.45 44.32C166.18 42.97 165.51 41.93 164.45 41.19C163.39 40.45 161.74 40.08 159.5 40.08C157.05 40.08 155.14 40.65 153.78 41.78C152.42 42.91 151.74 44.56 151.74 46.71V47.02C151.74 49.2 152.43 50.88 153.82 52.04C155.21 53.2 157.09 53.78 159.48 53.78C161.73 53.78 163.4 53.44 164.48 52.75C165.56 52.07 166.24 51.02 166.5 49.61L166.56 49.09H172.06L172 49.71C171.68 52.31 170.53 54.27 168.54 55.56C166.55 56.85 163.5 57.51 159.37 57.51C155.24 57.51 151.92 56.61 149.48 54.82C147.04 53.02 145.82 50.43 145.82 47.03V46.75L145.84 46.74Z" fill="white"/>
<path d="M172.79 36.7001H195.02V41.0501H186.7V57.0801H181.1V41.0501H172.78V36.7001H172.79Z" fill="white"/>
<path d="M197.8 36.7001H211.39C213.99 36.7001 215.93 37.3501 217.19 38.6601C218.45 39.9701 219.08 41.8101 219.08 44.1901C219.08 46.4201 218.46 48.2201 217.23 49.5901C215.99 50.9601 214.02 51.6501 211.31 51.6601H203.32V57.0801H197.8V36.7001ZM209.87 47.9801C211.21 47.9801 212.16 47.6501 212.72 46.9901C213.28 46.3301 213.55 45.4401 213.55 44.3101C213.55 43.1801 213.27 42.2301 212.72 41.6101C212.16 40.9901 211.21 40.6801 209.87 40.7001H203.32V47.9801H209.87Z" fill="white"/>
<path d="M220.29 46.67C220.29 43.27 221.6 40.69 224.22 38.93C226.84 37.17 230.08 36.28 233.92 36.28C237.76 36.28 241 37.16 243.63 38.93C246.26 40.69 247.57 43.27 247.57 46.67V46.84C247.57 50.38 246.26 53.04 243.63 54.83C241 56.62 237.77 57.51 233.92 57.51C230.07 57.51 226.84 56.62 224.22 54.83C221.6 53.04 220.29 50.38 220.29 46.84V46.67ZM233.5 54.57C235.34 54.36 237.1 53.43 238.78 51.78C240.44 50.16 241.37 48.42 241.57 46.55C241.78 44.68 241.09 42.96 239.51 41.38L239.32 41.19C237.81 39.68 236.15 39.05 234.33 39.3C232.52 39.55 230.78 40.49 229.12 42.12C227.42 43.78 226.47 45.52 226.24 47.33C226.02 49.15 226.66 50.81 228.17 52.31L228.35 52.49C229.94 54.08 231.65 54.77 233.49 54.55L233.5 54.57Z" fill="white"/>
<path d="M267.11 57.08V44.61C267.1 44.31 267.11 44.1 267.11 43.97C267.12 43.84 267.13 43.71 267.13 43.56H267.09C267.02 43.69 266.94 43.83 266.84 43.97C266.74 44.11 266.57 44.31 266.33 44.55L257.13 57.08H250.76V36.7H256.26V48.87C256.27 49.11 256.27 49.3 256.26 49.43C256.26 49.56 256.26 49.74 256.26 49.96H256.34C256.4 49.79 256.47 49.67 256.57 49.58C256.67 49.49 256.82 49.32 257.04 49.06L266.25 36.7H272.62V57.08H267.09H267.11ZM263.41 31.67C263.9 31.3 264.29 30.75 264.57 30.02L267.85 31.21C267.29 32.72 266.48 33.81 265.43 34.49C264.38 35.16 263.12 35.5 261.68 35.5C260.24 35.5 258.98 35.16 257.92 34.49C256.86 33.82 256.05 32.73 255.48 31.21L258.78 30.02C259.04 30.75 259.43 31.3 259.94 31.67C260.45 32.04 261.03 32.23 261.68 32.23C262.33 32.23 262.92 32.04 263.41 31.67Z" fill="white"/>
<path d="M277.34 52.53C277.86 52.01 278.61 51.75 279.59 51.75C280.57 51.75 281.32 52.01 281.84 52.53C282.36 53.05 282.62 53.71 282.62 54.5C282.62 55.29 282.36 55.93 281.84 56.45C281.32 56.98 280.57 57.24 279.59 57.24C278.61 57.24 277.86 56.97 277.34 56.43C276.82 55.89 276.55 55.24 276.55 54.46C276.55 53.68 276.81 53.04 277.34 52.51V52.53Z" fill="#FFB31D"/>
<path d="M286.56 36.7001H300.15C302.75 36.7001 304.69 37.3501 305.95 38.6601C307.21 39.9701 307.84 41.8101 307.84 44.1901C307.84 46.4201 307.22 48.2201 305.99 49.5901C304.75 50.9601 302.78 51.6501 300.07 51.6601H292.08V57.0801H286.56V36.7001ZM298.63 47.9801C299.97 47.9801 300.92 47.6501 301.48 46.9901C302.04 46.3301 302.31 45.4401 302.31 44.3101C302.31 43.1801 302.03 42.2301 301.48 41.6101C300.92 40.9901 299.97 40.6801 298.63 40.7001H292.08V47.9801H298.63Z" fill="#FFB31D"/>
<path d="M327.09 38.8H328.29C332.09 38.8 334.92 39.48 336.8 40.84C338.68 42.2 339.61 44.19 339.61 46.81C339.61 49.43 338.7 51.32 336.87 52.71C335.04 54.09 332.15 54.78 328.19 54.78H327.1V57.37H321.57V54.78H320.49C316.53 54.78 313.64 54.09 311.81 52.71C309.98 51.33 309.07 49.36 309.07 46.8C309.07 44.24 310.01 42.2 311.88 40.84C313.76 39.48 316.59 38.8 320.38 38.8H321.57V36.42H327.1V38.8H327.09ZM315.81 43.8C314.98 44.48 314.57 45.52 314.57 46.92C314.57 48.32 314.98 49.32 315.81 50.02C316.63 50.72 318.08 51.07 320.16 51.07H321.56V42.78H320.16C318.09 42.78 316.64 43.12 315.81 43.79V43.8ZM327.09 42.79V51.08H328.5C330.57 51.08 332.02 50.73 332.84 50.03C333.66 49.32 334.07 48.29 334.07 46.93C334.07 45.57 333.66 44.49 332.84 43.81C332.02 43.14 330.57 42.8 328.5 42.8H327.09V42.79Z" fill="#FFB31D"/>
</svg>
