
<svg xmlns="http://www.w3.org/2000/svg" viewBox="0 0 513.07 463.19"><defs><style>.cls-1{fill:#fff;}.cls-2{fill:#383940;}.cls-3{fill:#ffa11a;}</style></defs><g id="_лой_2"><rect class="cls-1" x="-9.94" y="-25.32" width="522.89" height="510.88"/></g><g id="_лой_1"><g><rect class="cls-2" x="75.11" y="187.83" width="362.85" height="87.52" rx="43.76" ry="43.76"/><g><g><path class="cls-1" d="M140.98,243.8h-5c-.74,0-1.33,.6-1.33,1.33v1.56c0,.35-.12,.69-.37,.93-2.55,2.42-5.57,.65-5.57-1.82v-.67c0-.74-.6-1.33-1.33-1.33h-7.13c-.74,0-1.33,.6-1.33,1.33v1.56c0,.35-.12,.69-.37,.93-2.55,2.42-5.57,.65-5.57-1.82v-.67c0-.74-.6-1.33-1.33-1.33h-5c-.79,0-1.41,.68-1.34,1.47,.74,7.89,7.38,14.06,15.47,14.06h6.09c8.08,0,14.73-6.17,15.47-14.06,.07-.79-.55-1.47-1.34-1.47Z"/><path class="cls-3" d="M146.47,233.88c-.74,0-1.33-.6-1.33-1.33v-6.67c0-5.34-2.25-10.38-6.3-14.13-.65-.6-1.34-1.16-2.06-1.68-.89-.63-2.11,0-2.11,1.09v14.52c0,1.24-.99,2.21-2.21,2.21s-2.21-.97-2.21-2.21v-19.93c0-.6-.4-1.15-.99-1.29-1.67-.4-3.43-.62-5.21-.62-1.88,0-3.73,.22-5.49,.66-.54,.14-.98,.73-.98,1.29v19.89c0,1.24-.99,2.21-2.21,2.21s-2.21-.97-2.21-2.21v-14.34c0-1.1-1.26-1.73-2.15-1.07-.81,.6-1.58,1.27-2.31,2-3.71,3.69-5.74,8.52-5.74,13.6v6.67c0,.74-.6,1.33-1.34,1.33h-1.92c-.74,0-1.33,.6-1.33,1.33v2.43c0,.74,.6,1.33,1.33,1.33h48.7c.74,0,1.33-.6,1.33-1.33v-2.43c0-.74-.6-1.33-1.33-1.33h-1.92Z"/></g><g><path class="cls-1" d="M167.74,224.53h21.34v20.38h-5.52v-15.99h-10.3v15.99h-5.52v-20.38Z"/><path class="cls-1" d="M192.27,234.5c0-3.4,1.31-5.98,3.93-7.74,2.62-1.76,5.86-2.65,9.7-2.65s7.08,.88,9.71,2.65c2.63,1.76,3.94,4.34,3.94,7.74v.17c0,3.54-1.31,6.2-3.94,7.99-2.63,1.79-5.86,2.68-9.71,2.68s-7.08-.89-9.7-2.68c-2.62-1.79-3.93-4.45-3.93-7.99v-.17Zm13.21,7.9c1.84-.21,3.6-1.14,5.28-2.79,1.66-1.62,2.59-3.36,2.79-5.23,.21-1.87-.48-3.59-2.06-5.17l-.19-.19c-1.51-1.51-3.17-2.14-4.99-1.89-1.81,.25-3.55,1.19-5.21,2.82-1.7,1.66-2.65,3.4-2.88,5.21-.22,1.82,.42,3.48,1.93,4.98l.18,.18c1.59,1.59,3.3,2.28,5.14,2.06Z"/><path class="cls-1" d="M220.95,234.57c0-3.46,1.25-6.07,3.74-7.83,2.5-1.76,5.75-2.63,9.75-2.63s7.01,.66,9.03,1.97c2.03,1.31,3.23,3.3,3.62,5.96l.07,.56h-5.5l-.1-.45c-.27-1.35-.94-2.39-2-3.13-1.06-.74-2.71-1.11-4.95-1.11-2.45,0-4.36,.57-5.72,1.7-1.36,1.13-2.04,2.78-2.04,4.93v.31c0,2.18,.69,3.86,2.08,5.02,1.39,1.16,3.27,1.74,5.66,1.74,2.25,0,3.92-.34,5-1.03,1.08-.68,1.76-1.73,2.02-3.14l.06-.52h5.5l-.06,.62c-.32,2.6-1.47,4.56-3.46,5.85s-5.04,1.95-9.17,1.95-7.45-.9-9.89-2.69c-2.44-1.8-3.66-4.39-3.66-7.79v-.28Z"/><path class="cls-1" d="M247.9,224.53h22.23v4.35h-8.32v16.03h-5.6v-16.03h-8.32v-4.35Z"/><path class="cls-1" d="M272.91,224.53h13.59c2.6,0,4.54,.65,5.8,1.96,1.26,1.31,1.89,3.15,1.89,5.53,0,2.23-.62,4.03-1.85,5.4-1.24,1.37-3.21,2.06-5.92,2.07h-7.99v5.42h-5.52v-20.38Zm12.07,11.28c1.34,0,2.29-.33,2.85-.99s.83-1.55,.83-2.68-.28-2.08-.83-2.7c-.56-.62-1.51-.93-2.85-.91h-6.55v7.28h6.55Z"/><path class="cls-1" d="M295.4,234.5c0-3.4,1.31-5.98,3.93-7.74,2.62-1.76,5.86-2.65,9.7-2.65s7.08,.88,9.71,2.65c2.63,1.76,3.94,4.34,3.94,7.74v.17c0,3.54-1.31,6.2-3.94,7.99-2.63,1.79-5.86,2.68-9.71,2.68s-7.08-.89-9.7-2.68c-2.62-1.79-3.93-4.45-3.93-7.99v-.17Zm13.21,7.9c1.84-.21,3.6-1.14,5.28-2.79,1.66-1.62,2.59-3.36,2.79-5.23,.21-1.87-.48-3.59-2.06-5.17l-.19-.19c-1.51-1.51-3.17-2.14-4.99-1.89-1.81,.25-3.55,1.19-5.21,2.82-1.7,1.66-2.65,3.4-2.88,5.21-.22,1.82,.42,3.48,1.93,4.98l.18,.18c1.59,1.59,3.3,2.28,5.14,2.06Z"/><path class="cls-1" d="M342.22,244.91v-12.47c-.01-.3,0-.51,0-.64,.01-.13,.02-.26,.02-.41h-.04c-.07,.13-.15,.27-.25,.41s-.27,.34-.51,.58l-9.2,12.53h-6.37v-20.38h5.5v12.17c.01,.24,.01,.43,0,.56,0,.13,0,.31,0,.53h.08c.06-.17,.13-.29,.23-.38s.25-.26,.47-.52l9.21-12.36h6.37v20.38h-5.53Zm-3.7-25.41c.49-.37,.88-.92,1.16-1.65l3.28,1.19c-.56,1.51-1.37,2.6-2.42,3.28-1.05,.67-2.31,1.01-3.75,1.01s-2.7-.34-3.76-1.01c-1.06-.67-1.87-1.76-2.44-3.28l3.3-1.19c.26,.73,.65,1.28,1.16,1.65,.51,.37,1.09,.56,1.74,.56s1.24-.19,1.73-.56Z"/><path class="cls-3" d="M352.45,240.36c.52-.52,1.27-.78,2.25-.78s1.73,.26,2.25,.78,.78,1.18,.78,1.97-.26,1.43-.78,1.95c-.52,.53-1.27,.79-2.25,.79s-1.73-.27-2.25-.81-.79-1.19-.79-1.97,.26-1.42,.79-1.95Z"/><path class="cls-3" d="M361.67,224.53h13.59c2.6,0,4.54,.65,5.8,1.96,1.26,1.31,1.89,3.15,1.89,5.53,0,2.23-.62,4.03-1.85,5.4-1.24,1.37-3.21,2.06-5.92,2.07h-7.99v5.42h-5.52v-20.38Zm12.07,11.28c1.34,0,2.29-.33,2.85-.99s.83-1.55,.83-2.68-.28-2.08-.83-2.7c-.56-.62-1.51-.93-2.85-.91h-6.55v7.28h6.55Z"/><path class="cls-3" d="M402.2,226.63h1.2c3.8,0,6.63,.68,8.51,2.04s2.81,3.35,2.81,5.97-.91,4.51-2.74,5.9c-1.83,1.38-4.72,2.07-8.68,2.07h-1.09v2.59h-5.53v-2.59h-1.08c-3.96,0-6.85-.69-8.68-2.07-1.83-1.38-2.74-3.35-2.74-5.91s.94-4.6,2.81-5.96c1.88-1.36,4.71-2.04,8.5-2.04h1.19v-2.38h5.53v2.38Zm-11.28,5c-.83,.68-1.24,1.72-1.24,3.12s.41,2.4,1.24,3.1c.82,.7,2.27,1.05,4.35,1.05h1.4v-8.29h-1.4c-2.07,0-3.52,.34-4.35,1.01Zm11.28-1.01v8.29h1.41c2.07,0,3.52-.35,4.34-1.05,.82-.71,1.23-1.74,1.23-3.1s-.41-2.44-1.23-3.12c-.82-.67-2.27-1.01-4.34-1.01h-1.41Z"/></g></g></g></g></svg>