<svg width="32" height="40" viewBox="0 0 32 40" fill="none" xmlns="http://www.w3.org/2000/svg">
<g clip-path="url(#clip0_6310_21933)">
<path d="M32 32V8C32 3.58172 28.4183 0 24 0H16.8337C14.6864 0 12.6292 0.863212 11.1249 2.39549L2.29128 11.3934C0.822754 12.8892 0 14.9017 0 16.9979V32C0 36.4183 3.58172 40 8 40H24C28.4183 40 32 36.4183 32 32Z" fill="#7099ED"/>
<path d="M11.7188 29.0161L9.41455 21.1797H11.3965L12.9219 26.6904C12.9684 26.8802 13.0078 27.1237 13.04 27.4209C13.0723 27.7145 13.0884 27.9312 13.0884 28.0708H13.0991C13.0991 27.9312 13.1063 27.736 13.1206 27.4854C13.1385 27.2347 13.1654 27.0413 13.2012 26.9053L14.689 21.1797H16.9126L18.4004 26.6528C18.4684 26.9285 18.5132 27.1989 18.5347 27.4639C18.5597 27.7288 18.5705 27.9294 18.5669 28.0654H18.5991C18.6027 27.9258 18.6081 27.7253 18.6152 27.4639C18.6224 27.1989 18.6421 26.9984 18.6743 26.8623L20.2749 21.1797H21.521L19.2383 29.0161H17.1221L15.5698 23.2368C15.534 23.1007 15.5161 22.979 15.5161 22.8716C15.5161 22.7606 15.5143 22.637 15.5107 22.501H15.4731C15.4731 22.637 15.4731 22.7588 15.4731 22.8662C15.4767 22.9701 15.4606 23.09 15.4248 23.2261L13.8672 29.0054L11.7188 29.0161Z" fill="white"/>
<path d="M19 0H15.4522C13.5481 0 11.7262 0.775664 10.4064 2.14818L2.23341 10.6479C0.800406 12.1382 0 14.1254 0 16.1928V17C0 15.3431 1.34315 14 3 14H10.5596C12.7453 14 14.5263 12.2455 14.5592 10.0601L14.6458 4.28932C14.6815 1.91005 16.6205 0 19 0Z" fill="#FFB31D"/>
</g>
<defs>
<clipPath id="clip0_6310_21933">
<rect width="32" height="40" fill="white"/>
</clipPath>
</defs>
</svg>
