<svg width="40" height="40" viewBox="0 0 40 40" fill="none" xmlns="http://www.w3.org/2000/svg">
<path d="M32 32V8C32 3.58172 28.4183 0 24 0H16.8337C14.6864 0 12.6292 0.863212 11.1249 2.39549L2.29128 11.3934C0.822754 12.8892 0 14.9017 0 16.9979V32C0 36.4183 3.58172 40 8 40H24C28.4183 40 32 36.4183 32 32Z" fill="#7099ED"/>
<path d="M3.43115 22.2271V21.1797H11.1924V22.2271H8.26514V29H6.35303V22.2271H3.43115ZM11.2891 29L14.6943 24.7515L15.2476 24.73L17.8042 21.1797H19.4531L16.2896 25.2778L15.7363 25.2993L12.9971 29H11.2891ZM11.332 21.1797H13.749L16.2573 24.5312H16.2842L19.7969 29H17.3315L14.7212 25.5571H14.6997L11.332 21.1797ZM19.8022 22.2271V21.1797H27.5635V22.2271H24.6362V29H22.7241V22.2271H19.8022Z" fill="white"/>
<path d="M19 0H15.4522C13.5481 0 11.7262 0.775664 10.4064 2.14818L2.23341 10.6479C0.800406 12.1382 0 14.1254 0 16.1928V17C0 15.3431 1.34315 14 3 14H10.5596C12.7453 14 14.5263 12.2455 14.5592 10.0601L14.6458 4.28932C14.6815 1.91005 16.6205 0 19 0Z" fill="#FFB31D"/>
</svg>
