<svg width="20" height="21" viewBox="0 0 20 21" fill="none" xmlns="http://www.w3.org/2000/svg">
<path d="M12.9154 10.1198C12.9154 11.7306 11.6095 13.0365 9.9987 13.0365C8.38786 13.0365 7.08203 11.7306 7.08203 10.1198C7.08203 8.50896 8.38786 7.20312 9.9987 7.20312C11.6095 7.20312 12.9154 8.50896 12.9154 10.1198Z" stroke="white" stroke-width="1.5"/>
<path d="M17.5105 11.8655C17.9454 11.7483 18.1629 11.6896 18.2487 11.5774C18.3346 11.4653 18.3346 11.2849 18.3346 10.9242V9.31276C18.3346 8.95201 18.3346 8.77159 18.2487 8.65951C18.1628 8.54734 17.9454 8.48867 17.5105 8.37141C15.8851 7.93308 14.8679 6.23385 15.2874 4.61915C15.4027 4.17508 15.4604 3.95306 15.4053 3.82283C15.3502 3.69261 15.1922 3.60287 14.8761 3.42339L13.4388 2.60736C13.1286 2.43125 12.9736 2.34319 12.8344 2.36194C12.6951 2.38069 12.5381 2.53736 12.224 2.8507C11.008 4.06382 8.99597 4.06377 7.77992 2.85062C7.46583 2.53728 7.30879 2.38061 7.16958 2.36186C7.03038 2.34311 6.87528 2.43116 6.56508 2.60728L5.12784 3.42331C4.81174 3.60278 4.65369 3.69251 4.59862 3.82271C4.54354 3.95292 4.60119 4.17498 4.71651 4.61909C5.13578 6.23384 4.11774 7.93311 2.49215 8.37142C2.05724 8.48867 1.83978 8.54734 1.75387 8.65942C1.66797 8.77159 1.66797 8.95201 1.66797 9.31276V10.9242C1.66797 11.2849 1.66797 11.4653 1.75387 11.5774C1.83976 11.6896 2.05723 11.7483 2.49215 11.8655C4.11747 12.3038 5.1347 14.0031 4.71524 15.6178C4.59988 16.0618 4.54219 16.2838 4.59727 16.4141C4.65235 16.5443 4.8104 16.6341 5.12651 16.8135L6.56376 17.6296C6.87398 17.8057 7.02909 17.8938 7.1683 17.875C7.30752 17.8563 7.46454 17.6995 7.77856 17.3862C8.99522 16.1721 11.0086 16.172 12.2254 17.3861C12.5394 17.6995 12.6964 17.8562 12.8356 17.8749C12.9748 17.8937 13.13 17.8056 13.4401 17.6295L14.8774 16.8134C15.1936 16.634 15.3516 16.5443 15.4066 16.414C15.4617 16.2838 15.4041 16.0618 15.2886 15.6177C14.869 14.0031 15.8854 12.3039 17.5105 11.8655Z" stroke="white" stroke-width="1.5" stroke-linecap="round"/>
</svg>
