<svg width="40" height="40" viewBox="0 0 40 40" fill="none" xmlns="http://www.w3.org/2000/svg">
<rect width="40" height="40" rx="8" fill="#7099ED"/>
<path d="M22.9163 20.0007C22.9163 21.6115 21.6105 22.9173 19.9997 22.9173C18.3888 22.9173 17.083 21.6115 17.083 20.0007C17.083 18.3898 18.3888 17.084 19.9997 17.084C21.6105 17.084 22.9163 18.3898 22.9163 20.0007Z" stroke="white" stroke-width="1.5"/>
<path d="M27.5095 21.7464C27.9444 21.6291 28.1619 21.5704 28.2477 21.4583C28.3337 21.3462 28.3337 21.1658 28.3337 20.805V19.1936C28.3337 18.8329 28.3337 18.6524 28.2477 18.5404C28.1618 18.4282 27.9444 18.3695 27.5095 18.2523C25.8842 17.8139 24.8669 16.1147 25.2864 14.5C25.4017 14.0559 25.4594 13.8339 25.4043 13.7037C25.3492 13.5735 25.1912 13.4837 24.8751 13.3042L23.4378 12.4882C23.1277 12.3121 22.9726 12.224 22.8334 12.2428C22.6942 12.2615 22.5372 12.4182 22.223 12.7316C21.007 13.9447 18.995 13.9446 17.7789 12.7315C17.4649 12.4181 17.3078 12.2615 17.1686 12.2427C17.0294 12.224 16.8743 12.312 16.5641 12.4881L15.1269 13.3042C14.8108 13.4836 14.6527 13.5734 14.5976 13.7036C14.5426 13.8338 14.6002 14.0558 14.7155 14.4999C15.1348 16.1147 14.1168 17.814 12.4912 18.2523C12.0563 18.3695 11.8388 18.4282 11.7529 18.5403C11.667 18.6524 11.667 18.8329 11.667 19.1936V20.805C11.667 21.1658 11.667 21.3462 11.7529 21.4583C11.8388 21.5704 12.0563 21.6291 12.4912 21.7464C14.1165 22.1847 15.1337 23.8839 14.7143 25.4986C14.5989 25.9427 14.5412 26.1647 14.5963 26.2949C14.6514 26.4252 14.8094 26.5149 15.1255 26.6944L16.5628 27.5104C16.873 27.6865 17.0281 27.7746 17.1673 27.7559C17.3065 27.7371 17.4636 27.5804 17.7776 27.267C18.9942 26.0529 21.0077 26.0529 22.2244 27.2669C22.5384 27.5804 22.6954 27.737 22.8347 27.7558C22.9738 27.7745 23.129 27.6864 23.4392 27.5104L24.8764 26.6943C25.1926 26.5149 25.3507 26.4251 25.4057 26.2949C25.4607 26.1646 25.4031 25.9426 25.2877 25.4985C24.868 23.8839 25.8844 22.1848 27.5095 21.7464Z" stroke="white" stroke-width="1.5" stroke-linecap="round"/>
</svg>
