<svg width="20" height="21" viewBox="0 0 20 21" fill="none" xmlns="http://www.w3.org/2000/svg">
<path d="M12.9173 10.2458C12.9173 11.8566 11.6115 13.1624 10.0007 13.1624C8.38982 13.1624 7.08398 11.8566 7.08398 10.2458C7.08398 8.63493 8.38982 7.3291 10.0007 7.3291C11.6115 7.3291 12.9173 8.63493 12.9173 10.2458Z" stroke="#7099ED" stroke-width="1.5"/>
<path d="M17.5085 11.9934C17.9434 11.8762 18.1609 11.8175 18.2468 11.7054C18.3327 11.5933 18.3327 11.4129 18.3327 11.0521V9.44069C18.3327 9.07994 18.3327 8.89952 18.2468 8.78744C18.1608 8.67527 17.9434 8.6166 17.5085 8.49934C15.8832 8.06101 14.8659 6.36178 15.2854 4.74708C15.4008 4.30301 15.4584 4.08099 15.4033 3.95076C15.3483 3.82054 15.1903 3.7308 14.8741 3.55132L13.4368 2.73529C13.1267 2.55918 12.9716 2.47112 12.8324 2.48987C12.6932 2.50862 12.5362 2.66529 12.222 2.97863C11.006 4.19175 8.99402 4.1917 7.77797 2.97855C7.46387 2.66521 7.30683 2.50854 7.16762 2.48979C7.02842 2.47104 6.87332 2.55909 6.56312 2.73521L5.12588 3.55124C4.80979 3.73071 4.65174 3.82044 4.59667 3.95064C4.54158 4.08085 4.59924 4.30291 4.71456 4.74702C5.13382 6.36177 4.11578 8.06104 2.4902 8.49935C2.05528 8.6166 1.83782 8.67527 1.75192 8.78735C1.66602 8.89952 1.66602 9.07994 1.66602 9.44069V11.0521C1.66602 11.4129 1.66602 11.5933 1.75192 11.7054C1.83781 11.8175 2.05527 11.8762 2.4902 11.9934C4.11552 12.4318 5.13275 14.131 4.71328 15.7457C4.59792 16.1898 4.54024 16.4118 4.59532 16.542C4.6504 16.6723 4.80845 16.762 5.12456 16.9414L6.56181 17.7575C6.87202 17.9336 7.02713 18.0217 7.16635 18.0029C7.30557 17.9842 7.46258 17.8274 7.77661 17.5141C8.99327 16.3 11.0067 16.2999 12.2234 17.514C12.5374 17.8274 12.6944 17.9841 12.8337 18.0029C12.9728 18.0216 13.128 17.9335 13.4382 17.7574L14.8754 16.9414C15.1916 16.7619 15.3497 16.6722 15.4047 16.5419C15.4598 16.4117 15.4021 16.1897 15.2867 15.7456C14.867 14.131 15.8834 12.4319 17.5085 11.9934Z" stroke="#7099ED" stroke-width="1.5" stroke-linecap="round"/>
</svg>
