<svg width="20" height="21" viewBox="0 0 20 21" fill="none" xmlns="http://www.w3.org/2000/svg">
<path d="M12.9173 10.4997C12.9173 12.1105 11.6115 13.4163 10.0007 13.4163C8.38982 13.4163 7.08398 12.1105 7.08398 10.4997C7.08398 8.88884 8.38982 7.58301 10.0007 7.58301C11.6115 7.58301 12.9173 8.88884 12.9173 10.4997Z" stroke="white" stroke-width="1.5"/>
<path d="M17.5085 12.2473C17.9434 12.1301 18.1609 12.0714 18.2468 11.9593C18.3327 11.8472 18.3327 11.6668 18.3327 11.306V9.69459C18.3327 9.33384 18.3327 9.15343 18.2468 9.04134C18.1608 8.92918 17.9434 8.87051 17.5085 8.75324C15.8832 8.31492 14.8659 6.61568 15.2854 5.00098C15.4008 4.55692 15.4584 4.33489 15.4033 4.20467C15.3483 4.07444 15.1903 3.98471 14.8741 3.80523L13.4368 2.9892C13.1267 2.81308 12.9716 2.72503 12.8324 2.74378C12.6932 2.76253 12.5362 2.9192 12.222 3.23253C11.006 4.44566 8.99402 4.44561 7.77797 3.23246C7.46387 2.91912 7.30683 2.76245 7.16762 2.74369C7.02842 2.72494 6.87332 2.813 6.56312 2.98912L5.12588 3.80515C4.80979 3.98462 4.65174 4.07435 4.59667 4.20455C4.54158 4.33476 4.59924 4.55682 4.71456 5.00093C5.13382 6.61568 4.11578 8.31495 2.4902 8.75326C2.05528 8.87051 1.83782 8.92918 1.75192 9.04126C1.66602 9.15343 1.66602 9.33384 1.66602 9.69459V11.306C1.66602 11.6668 1.66602 11.8472 1.75192 11.9593C1.83781 12.0714 2.05527 12.1301 2.4902 12.2473C4.11552 12.6857 5.13275 14.3849 4.71328 15.9996C4.59792 16.4437 4.54024 16.6657 4.59532 16.7959C4.6504 16.9262 4.80845 17.0159 5.12456 17.1953L6.56181 18.0114C6.87202 18.1875 7.02713 18.2756 7.16635 18.2568C7.30557 18.2381 7.46258 18.0813 7.77661 17.768C8.99327 16.5539 11.0067 16.5538 12.2234 17.7679C12.5374 18.0813 12.6944 18.238 12.8337 18.2568C12.9728 18.2755 13.128 18.1874 13.4382 18.0113L14.8754 17.1953C15.1916 17.0158 15.3497 16.9261 15.4047 16.7958C15.4598 16.6656 15.4021 16.4436 15.2867 15.9995C14.867 14.3849 15.8834 12.6858 17.5085 12.2473Z" stroke="white" stroke-width="1.5" stroke-linecap="round"/>
</svg>
