<svg width="431" height="590" viewBox="0 0 431 590" fill="none" xmlns="http://www.w3.org/2000/svg">
<path d="M425.256 342.429C426.326 326.497 424.231 310.96 419.004 296.246C413.733 281.368 406.599 271.354 402.332 265.37C390.677 248.987 375.77 234.933 358.028 223.634L353.254 220.252C352.427 218.913 350.177 215.893 346.086 214.532C344.785 214.092 343.407 213.884 341.985 213.884C337.122 210.557 332.248 207.23 327.375 203.903C327.485 203.145 327.595 202.409 327.694 201.674C327.716 201.476 327.639 201.278 327.474 201.158C321.487 196.842 315.499 192.527 309.512 188.223C308.475 186.444 307.604 184.567 306.943 182.634C305.366 178.121 304.837 173.356 305.355 168.382C310.681 158.445 311.574 148.661 311.585 143.347C313.834 143.533 320.88 143.654 325.313 138.505C328.224 135.123 329.437 129.973 328.477 125.076C327.772 121.496 326.029 118.751 323.692 117.543C322.556 116.95 321.222 116.731 319.755 116.852C320.075 115.863 320.329 114.985 320.56 114.128C320.946 112.701 321.266 111.285 321.52 109.912L331.576 110.406H331.609C331.884 110.406 332.116 110.198 332.16 109.923L333.296 101.04C333.329 100.777 333.164 100.524 332.91 100.447C330.594 99.7554 329.073 97.5813 329.194 95.1766L330.815 63.6195C331.653 47.4236 326.085 31.8976 315.157 19.8853C304.208 7.8729 289.223 0.834585 272.948 0.0659697C257.522 -0.658725 242.549 4.41413 230.772 14.3622C218.996 24.2883 211.52 38.1783 209.701 53.4518L206.426 81.1549C205.61 88.0834 199.711 93.4088 192.709 93.5296L187.417 93.6394C187.13 93.6394 186.887 93.8809 186.876 94.1664L186.523 102.665C186.512 102.962 186.744 103.225 187.042 103.236L215.104 104.631C214.63 111.405 211.388 170.204 238.921 188.256C239.373 192.406 239.726 196.612 239.979 200.762C235.051 203.892 230.497 207.581 226.45 211.732C223.572 214.674 220.893 217.924 218.489 221.394V221.416C218.445 221.493 218.412 221.57 218.401 221.669C218.368 222.108 218.346 222.536 218.312 222.964C214.608 225.116 210.991 227.521 207.562 230.134C201.773 234.548 196.447 239.566 191.728 245.057C189.434 245.66 185.377 247.242 182.841 251.271C181.187 253.896 180.514 257.168 180.889 260.517C180.823 260.572 180.757 260.637 180.712 260.725C177.735 267.478 175.034 274.451 172.674 281.434C165.518 302.692 161.306 325.025 160.148 347.831C157.656 348.6 156.113 350.214 155.683 350.708C155.638 350.763 155.605 350.829 155.583 350.895C153.455 350.884 151.074 351.444 148.427 352.597C146.332 351.674 144.866 351.554 143.95 351.576C140.687 351.62 138.162 353.299 136.585 354.749C134.027 354.716 131.226 354.332 128.326 353.574L107.442 259.946C106.56 255.982 102.965 253.336 98.8966 253.61L14.6108 259.594C12.3614 259.759 10.3325 260.802 8.89908 262.548C7.46564 264.283 6.82611 266.457 7.10177 268.686L15.6362 338.366C14.302 337.73 12.9899 337.51 11.6998 337.741C8.60136 338.301 6.08734 341.43 5.51397 345.361C4.38928 346.316 2.85661 347.897 1.66576 350.203C0.640302 352.256 0.0338502 354.409 -0.0212819 356.264C-0.252836 362.962 6.21966 367.64 7.34435 368.408C6.70482 371.351 6.93638 374.129 8.02799 376.457C10.112 380.915 14.7651 382.803 17.2791 383.517C17.1027 384.33 17.0476 385.186 17.1579 386.032C17.654 389.853 21.0943 391.961 22.2851 392.576L23.7516 404.533C24.0273 406.773 25.1851 408.739 27.0044 410.078C28.4268 411.121 30.0918 411.67 31.823 411.67C32.3192 411.67 32.8153 411.626 33.3115 411.539L93.218 400.635C94.045 403.688 96.1289 405.983 98.5547 406.411C98.676 406.433 98.8084 406.455 98.9186 406.455C99.922 407.037 100.947 407.597 101.995 408.124C102.612 409.979 103.517 411.637 104.719 413.032C108.633 417.633 114.697 418.621 119.141 418.621C121.997 418.621 124.169 418.226 124.709 418.116C126.893 418.676 128.712 419.115 130.377 419.488C143.995 422.618 158.031 424.561 172.112 425.286C172.167 425.736 172.211 426.186 172.288 426.658C172.365 427.12 172.443 427.57 172.542 428.02C170.601 431.182 169.278 434.509 168.594 437.913C167.271 444.545 168.429 451.221 171.131 457.655C158.869 470.14 149.453 489.07 150.092 509.471C150.952 537.273 170.094 555.687 176.842 562.176C199.788 584.246 229.405 590.022 254.38 590.022C277.039 590.022 295.883 585.268 302.466 583.61C333.053 575.891 342.139 563.626 344.344 560.441C355.58 544.18 353.353 524.415 351.401 515.049C356.374 512.425 361.182 509.427 365.769 506.067C367.643 505.332 369.253 504.223 370.543 502.762C374.347 498.447 375.042 491.573 372.44 484.645C374.457 484.952 376.431 485.117 378.339 485.117C383.631 485.117 388.472 483.931 392.761 481.559C400.414 477.354 404.306 470.491 407.14 465.484C408.264 463.519 409.279 461.433 410.139 459.314C412.322 458.194 414.208 456.755 415.729 455.042C421.298 448.773 422.477 438.693 419.07 426.636C421.309 410.243 422.808 393.575 423.525 377.105C423.723 372.504 423.856 368.342 423.933 364.379C423.999 364.379 424.054 364.368 424.12 364.335C425.719 363.445 429.545 360.865 430.67 356.132C432.28 349.467 427.153 344.186 425.223 342.473L425.256 342.429Z" fill="#262626"/>
</svg>
