<svg width="45" height="45" viewBox="0 0 45 45" fill="none" xmlns="http://www.w3.org/2000/svg">
<circle cx="22.5" cy="22.5" r="22.5" fill="#FE0000"/>
<path d="M14.0132 13.9902C13.8934 15.0502 14.5526 17.4222 17.4894 17.4222" stroke="white" stroke-width="1.5" stroke-linecap="round"/>
<path d="M28.5938 17.38C29.8343 17.578 32.1119 16.498 31.9944 14.002" stroke="white" stroke-width="1.5" stroke-linecap="round"/>
<path d="M31.9915 29.9998C32.0515 28.9438 31.1764 26.5558 28.5977 26.4238" stroke="white" stroke-width="1.5" stroke-linecap="round"/>
<path d="M17.4503 26.4714C16.6488 26.2314 14.0117 27.3354 14.0117 29.9994" stroke="white" stroke-width="1.5" stroke-linecap="round"/>
<path d="M20.3286 15.118C20.3525 14.098 20.844 11.998 23.0016 11.998C24.9195 11.998 25.5848 13.618 25.6747 15.118M17.26 18.418C17.3798 17.638 18.2908 15.814 20.3645 15.634C22.4622 15.5548 25.339 15.586 25.8784 15.67C26.5856 15.733 28.2938 16.438 28.7493 18.418C28.9111 19.438 28.8272 20.878 28.8511 21.718C28.8152 22.558 28.9194 24.2615 28.7552 25.138C28.6354 26.098 27.9881 27.466 27.1011 28.306C25.7825 29.722 22.1626 31.21 19.034 28.45C17.4158 26.89 17.3079 25.378 17.188 24.778C17.1559 24.4563 17.1574 22.8755 17.1641 21.358C17.1401 20.0452 17.171 18.7798 17.26 18.418Z" stroke="white" stroke-width="1.5"/>
<path d="M14.0117 21.8984H16.9485" stroke="white" stroke-width="1.5" stroke-linecap="round"/>
<path d="M31.994 21.8984H29.1172" stroke="white" stroke-width="1.5" stroke-linecap="round"/>
<path d="M23.0039 25.498V29.278" stroke="white" stroke-width="1.5" stroke-linecap="round"/>
</svg>
