<svg width="135" height="42" viewBox="0 0 135 42" fill="none" xmlns="http://www.w3.org/2000/svg">
<rect y="0.5" width="135" height="41" rx="8" fill="#7099ED"/>
<path d="M12.2986 20.5752C12.2374 21.7385 12.3078 22.9768 11.2684 23.7563C10.7847 24.1192 10.5 24.6885 10.5 25.2933C10.5 26.125 11.1515 26.8327 12 26.8327H24C24.8485 26.8327 25.5 26.125 25.5 25.2933C25.5 24.6885 25.2153 24.1192 24.7316 23.7563C23.6922 22.9768 23.7626 21.7385 23.7013 20.5752C23.5418 17.5429 21.0365 15.166 18 15.166C14.9635 15.166 12.4582 17.5429 12.2986 20.5752Z" stroke="white" stroke-width="1.5" stroke-linecap="round" stroke-linejoin="round"/>
<path d="M16.75 13.6035C16.75 14.2939 17.3097 15.166 18 15.166C18.6903 15.166 19.25 14.2939 19.25 13.6035C19.25 12.9132 18.6903 12.666 18 12.666C17.3097 12.666 16.75 12.9132 16.75 13.6035Z" stroke="white" stroke-width="1.5"/>
<path d="M20.5 26.834C20.5 28.2147 19.3807 29.334 18 29.334C16.6192 29.334 15.5 28.2147 15.5 26.834" stroke="white" stroke-width="1.5" stroke-linecap="round" stroke-linejoin="round"/>
<path d="M46.8955 13.4766V14.2627H40.9756V13.4766H46.8955ZM41.1738 9.04688V19H40.2441V9.04688H41.1738ZM47.668 9.04688V19H46.7383V9.04688H47.668ZM54.4492 17.6875V13.873C54.4492 13.5312 54.3786 13.2373 54.2373 12.9912C54.1006 12.7451 53.8932 12.556 53.6152 12.4238C53.3418 12.2917 53.0068 12.2256 52.6104 12.2256C52.2412 12.2256 51.9108 12.2894 51.6191 12.417C51.332 12.5446 51.1064 12.7178 50.9424 12.9365C50.7783 13.1507 50.6963 13.3877 50.6963 13.6475L49.8008 13.6406C49.8008 13.3672 49.8669 13.1006 49.999 12.8408C50.1357 12.5811 50.3294 12.3486 50.5801 12.1436C50.8353 11.9339 51.1383 11.7699 51.4893 11.6514C51.8402 11.5283 52.2275 11.4668 52.6514 11.4668C53.18 11.4668 53.6471 11.5557 54.0527 11.7334C54.4583 11.9111 54.7751 12.18 55.0029 12.54C55.2354 12.9001 55.3516 13.349 55.3516 13.8867V17.4346C55.3516 17.6898 55.3698 17.9541 55.4062 18.2275C55.4473 18.501 55.5065 18.7288 55.584 18.9111V19H54.627C54.5723 18.8405 54.529 18.6377 54.4971 18.3916C54.4652 18.1455 54.4492 17.9108 54.4492 17.6875ZM54.6475 14.6592L54.6611 15.3428H53.1162C52.7106 15.3428 52.346 15.3792 52.0225 15.4521C51.7035 15.5205 51.4323 15.623 51.209 15.7598C50.9902 15.8965 50.8216 16.0628 50.7031 16.2588C50.5892 16.4548 50.5322 16.6781 50.5322 16.9287C50.5322 17.1839 50.596 17.4186 50.7236 17.6328C50.8512 17.847 51.0358 18.0179 51.2773 18.1455C51.5189 18.2686 51.8083 18.3301 52.1455 18.3301C52.5876 18.3301 52.9772 18.248 53.3145 18.084C53.6517 17.9154 53.9274 17.6989 54.1416 17.4346C54.3604 17.1657 54.5039 16.8786 54.5723 16.5732L54.9619 17.0723C54.9072 17.291 54.8024 17.5212 54.6475 17.7627C54.4971 17.9997 54.2965 18.223 54.0459 18.4326C53.7998 18.6377 53.5081 18.8063 53.1709 18.9385C52.8382 19.0706 52.46 19.1367 52.0361 19.1367C51.5485 19.1367 51.1224 19.0433 50.7578 18.8564C50.3978 18.6696 50.1175 18.4167 49.917 18.0977C49.721 17.7786 49.623 17.4186 49.623 17.0176C49.623 16.6484 49.7005 16.318 49.8555 16.0264C50.0104 15.7347 50.2337 15.4886 50.5254 15.2881C50.8216 15.083 51.1771 14.9281 51.5918 14.8232C52.0065 14.7139 52.4714 14.6592 52.9863 14.6592H54.6475ZM60.2871 18.3711C60.6243 18.3711 60.9388 18.3073 61.2305 18.1797C61.5221 18.0475 61.7637 17.8584 61.9551 17.6123C62.151 17.3617 62.2604 17.0586 62.2832 16.7031H63.1514C63.1286 17.1634 62.985 17.5781 62.7207 17.9473C62.4564 18.3164 62.11 18.6081 61.6816 18.8223C61.2578 19.0319 60.793 19.1367 60.2871 19.1367C59.763 19.1367 59.3005 19.0433 58.8994 18.8564C58.5029 18.665 58.1725 18.4007 57.9082 18.0635C57.6439 17.7262 57.4434 17.3343 57.3066 16.8877C57.1745 16.4411 57.1084 15.9603 57.1084 15.4453V15.1582C57.1084 14.6432 57.1745 14.1624 57.3066 13.7158C57.4434 13.2692 57.6439 12.8773 57.9082 12.54C58.1725 12.2028 58.5029 11.9408 58.8994 11.7539C59.2959 11.5625 59.7562 11.4668 60.2803 11.4668C60.818 11.4668 61.2988 11.5762 61.7227 11.7949C62.1465 12.0137 62.4837 12.3213 62.7344 12.7178C62.9896 13.1097 63.1286 13.5723 63.1514 14.1055H62.2832C62.2604 13.7227 62.1579 13.3923 61.9756 13.1143C61.7979 12.8363 61.5609 12.6198 61.2646 12.4648C60.973 12.3099 60.6449 12.2324 60.2803 12.2324C59.8656 12.2324 59.5124 12.3145 59.2207 12.4785C58.9336 12.638 58.6989 12.8568 58.5166 13.1348C58.3389 13.4082 58.209 13.7204 58.127 14.0713C58.0495 14.4176 58.0107 14.7799 58.0107 15.1582V15.4453C58.0107 15.8281 58.0495 16.195 58.127 16.5459C58.209 16.8923 58.3389 17.2021 58.5166 17.4756C58.6943 17.749 58.929 17.9678 59.2207 18.1318C59.5124 18.2913 59.8678 18.3711 60.2871 18.3711ZM67.4512 11.6035V19H66.542V11.6035H67.4512ZM70.1035 11.6035V12.3691H63.9785V11.6035H70.1035ZM70.7119 15.4111V15.1992C70.7119 14.6615 70.7894 14.1647 70.9443 13.709C71.1038 13.2533 71.3271 12.859 71.6143 12.5264C71.9014 12.1891 72.2477 11.9294 72.6533 11.7471C73.0635 11.5602 73.5192 11.4668 74.0205 11.4668C74.5264 11.4668 74.9821 11.5602 75.3877 11.7471C75.7979 11.9294 76.1488 12.1891 76.4404 12.5264C76.7321 12.859 76.9554 13.2533 77.1104 13.709C77.2653 14.1647 77.3428 14.6615 77.3428 15.1992V15.4111C77.3428 15.9443 77.2653 16.4388 77.1104 16.8945C76.9554 17.3503 76.7321 17.7467 76.4404 18.084C76.1488 18.4167 75.8001 18.6764 75.3945 18.8633C74.9889 19.0456 74.5355 19.1367 74.0342 19.1367C73.5283 19.1367 73.0703 19.0456 72.6602 18.8633C72.2546 18.6764 71.9059 18.4167 71.6143 18.084C71.3271 17.7467 71.1038 17.3503 70.9443 16.8945C70.7894 16.4388 70.7119 15.9443 70.7119 15.4111ZM71.6143 15.1992V15.4111C71.6143 15.8076 71.6667 16.1836 71.7715 16.5391C71.8763 16.8945 72.029 17.2113 72.2295 17.4893C72.4346 17.7627 72.6875 17.9792 72.9883 18.1387C73.2936 18.2936 73.6423 18.3711 74.0342 18.3711C74.4215 18.3711 74.7633 18.2936 75.0596 18.1387C75.3604 17.9792 75.611 17.7627 75.8115 17.4893C76.0166 17.2113 76.1715 16.8945 76.2764 16.5391C76.3812 16.1836 76.4336 15.8076 76.4336 15.4111V15.1992C76.4336 14.8073 76.3812 14.4336 76.2764 14.0781C76.1715 13.7227 76.0166 13.4082 75.8115 13.1348C75.6064 12.8568 75.3535 12.638 75.0527 12.4785C74.7565 12.3145 74.4124 12.2324 74.0205 12.2324C73.6331 12.2324 73.2891 12.3145 72.9883 12.4785C72.6875 12.638 72.4346 12.8568 72.2295 13.1348C72.0244 13.4082 71.8695 13.7227 71.7646 14.0781C71.6644 14.4336 71.6143 14.8073 71.6143 15.1992ZM79.9131 13.0254V21.8438H79.0039V11.6035H79.8447L79.9131 13.0254ZM85.0195 15.2334V15.377C85.0195 15.9284 84.9557 16.4342 84.8281 16.8945C84.7051 17.3503 84.5228 17.7467 84.2812 18.084C84.0397 18.4167 83.7435 18.6764 83.3926 18.8633C83.0417 19.0456 82.6406 19.1367 82.1895 19.1367C81.7428 19.1367 81.3441 19.0661 80.9932 18.9248C80.6468 18.7835 80.3483 18.583 80.0977 18.3232C79.8516 18.0635 79.6533 17.7559 79.5029 17.4004C79.3571 17.0449 79.2546 16.653 79.1953 16.2246V14.5566C79.2637 14.0872 79.373 13.6657 79.5234 13.292C79.6784 12.9137 79.8766 12.5879 80.1182 12.3145C80.3643 12.041 80.6582 11.8314 81 11.6855C81.3418 11.5397 81.7314 11.4668 82.1689 11.4668C82.6247 11.4668 83.0303 11.5557 83.3857 11.7334C83.7412 11.9111 84.0397 12.1663 84.2812 12.499C84.5228 12.8271 84.7051 13.2236 84.8281 13.6885C84.9557 14.1488 85.0195 14.6637 85.0195 15.2334ZM84.1104 15.377V15.2334C84.1104 14.8141 84.0671 14.4245 83.9805 14.0645C83.8984 13.7044 83.7686 13.39 83.5908 13.1211C83.4131 12.8477 83.1875 12.6357 82.9141 12.4854C82.6452 12.3304 82.3262 12.2529 81.957 12.2529C81.5788 12.2529 81.2552 12.3167 80.9863 12.4443C80.7174 12.5674 80.4941 12.7337 80.3164 12.9434C80.1387 13.1484 79.9974 13.3763 79.8926 13.627C79.7878 13.873 79.7103 14.1169 79.6602 14.3584V16.457C79.7467 16.7988 79.8835 17.1156 80.0703 17.4072C80.2572 17.6989 80.5055 17.9336 80.8154 18.1113C81.1299 18.2845 81.515 18.3711 81.9707 18.3711C82.3353 18.3711 82.652 18.2936 82.9209 18.1387C83.1898 17.9837 83.4131 17.7718 83.5908 17.5029C83.7686 17.2295 83.8984 16.9128 83.9805 16.5527C84.0671 16.1882 84.1104 15.7962 84.1104 15.377ZM87.7539 17.5439L91.6367 11.6035H92.5459V19H91.6367V13.0596L87.7539 19H86.8584V11.6035H87.7539V17.5439ZM90.9053 8.94434H91.6641C91.6641 9.29069 91.5843 9.59831 91.4248 9.86719C91.2699 10.1315 91.042 10.3389 90.7412 10.4893C90.445 10.6396 90.0918 10.7148 89.6816 10.7148C89.0664 10.7148 88.5811 10.5508 88.2256 10.2227C87.8701 9.88997 87.6924 9.46387 87.6924 8.94434H88.4512C88.4512 9.24967 88.5423 9.51628 88.7246 9.74414C88.9115 9.96745 89.2305 10.0791 89.6816 10.0791C90.1191 10.0791 90.4313 9.96517 90.6182 9.7373C90.8096 9.50944 90.9053 9.24512 90.9053 8.94434ZM95.6768 11.6035V19H94.7744V11.6035H95.6768ZM100.544 11.6035L97.126 15.6572H95.3623L95.2598 14.8506H96.75L99.416 11.6035H100.544ZM99.6826 19L96.6748 15.5342L97.249 14.8438L100.865 19H99.6826ZM106.498 17.6875V13.873C106.498 13.5312 106.427 13.2373 106.286 12.9912C106.149 12.7451 105.942 12.556 105.664 12.4238C105.391 12.2917 105.056 12.2256 104.659 12.2256C104.29 12.2256 103.96 12.2894 103.668 12.417C103.381 12.5446 103.155 12.7178 102.991 12.9365C102.827 13.1507 102.745 13.3877 102.745 13.6475L101.85 13.6406C101.85 13.3672 101.916 13.1006 102.048 12.8408C102.185 12.5811 102.378 12.3486 102.629 12.1436C102.884 11.9339 103.187 11.7699 103.538 11.6514C103.889 11.5283 104.276 11.4668 104.7 11.4668C105.229 11.4668 105.696 11.5557 106.102 11.7334C106.507 11.9111 106.824 12.18 107.052 12.54C107.284 12.9001 107.4 13.349 107.4 13.8867V17.4346C107.4 17.6898 107.419 17.9541 107.455 18.2275C107.496 18.501 107.555 18.7288 107.633 18.9111V19H106.676C106.621 18.8405 106.578 18.6377 106.546 18.3916C106.514 18.1455 106.498 17.9108 106.498 17.6875ZM106.696 14.6592L106.71 15.3428H105.165C104.759 15.3428 104.395 15.3792 104.071 15.4521C103.752 15.5205 103.481 15.623 103.258 15.7598C103.039 15.8965 102.87 16.0628 102.752 16.2588C102.638 16.4548 102.581 16.6781 102.581 16.9287C102.581 17.1839 102.645 17.4186 102.772 17.6328C102.9 17.847 103.085 18.0179 103.326 18.1455C103.568 18.2686 103.857 18.3301 104.194 18.3301C104.636 18.3301 105.026 18.248 105.363 18.084C105.701 17.9154 105.976 17.6989 106.19 17.4346C106.409 17.1657 106.553 16.8786 106.621 16.5732L107.011 17.0723C106.956 17.291 106.851 17.5212 106.696 17.7627C106.546 17.9997 106.345 18.223 106.095 18.4326C105.849 18.6377 105.557 18.8063 105.22 18.9385C104.887 19.0706 104.509 19.1367 104.085 19.1367C103.597 19.1367 103.171 19.0433 102.807 18.8564C102.447 18.6696 102.166 18.4167 101.966 18.0977C101.77 17.7786 101.672 17.4186 101.672 17.0176C101.672 16.6484 101.749 16.318 101.904 16.0264C102.059 15.7347 102.283 15.4886 102.574 15.2881C102.87 15.083 103.226 14.9281 103.641 14.8232C104.055 14.7139 104.52 14.6592 105.035 14.6592H106.696ZM42.2197 32.2549L44.4824 25.6035H45.4531L42.3564 34.1758C42.2926 34.349 42.2106 34.5381 42.1104 34.7432C42.0101 34.9528 41.8779 35.151 41.7139 35.3379C41.5544 35.5293 41.3561 35.6842 41.1191 35.8027C40.8867 35.9258 40.6019 35.9873 40.2646 35.9873C40.1735 35.9873 40.0573 35.9759 39.916 35.9531C39.7747 35.9303 39.6745 35.9098 39.6152 35.8916L39.6084 35.1396C39.6585 35.1488 39.7292 35.1579 39.8203 35.167C39.9115 35.1761 39.9775 35.1807 40.0186 35.1807C40.3102 35.1807 40.5563 35.1328 40.7568 35.0371C40.9619 34.9414 41.1328 34.7956 41.2695 34.5996C41.4062 34.4082 41.527 34.1644 41.6318 33.8682L42.2197 32.2549ZM40.1963 25.6035L42.4658 31.8379L42.7119 32.7812L42.0488 33.1436L39.2119 25.6035H40.1963ZM50.0195 29.623H47.4561L47.4424 28.8711H49.6094C50.0469 28.8711 50.4115 28.8255 50.7031 28.7344C50.9948 28.6387 51.2135 28.4974 51.3594 28.3105C51.5098 28.1191 51.585 27.8867 51.585 27.6133C51.585 27.4036 51.5417 27.2191 51.4551 27.0596C51.3685 26.9001 51.2386 26.7702 51.0654 26.6699C50.8968 26.5651 50.6849 26.4899 50.4297 26.4443C50.179 26.3942 49.8851 26.3691 49.5479 26.3691H47.7021V33H46.7998V25.6035H49.5479C49.999 25.6035 50.4046 25.6445 50.7646 25.7266C51.1292 25.804 51.4391 25.9248 51.6943 26.0889C51.9541 26.2484 52.1501 26.4535 52.2822 26.7041C52.4189 26.9548 52.4873 27.2487 52.4873 27.5859C52.4873 27.8138 52.444 28.028 52.3574 28.2285C52.2708 28.4245 52.1432 28.6022 51.9746 28.7617C51.8105 28.9167 51.6055 29.0443 51.3594 29.1445C51.1133 29.2402 50.8307 29.2995 50.5117 29.3223L50.0195 29.623ZM50.0195 33H47.1621L47.5312 32.2412H50.0195C50.416 32.2412 50.751 32.1911 51.0244 32.0908C51.3024 31.986 51.512 31.8356 51.6533 31.6396C51.7992 31.4391 51.8721 31.1999 51.8721 30.9219C51.8721 30.6576 51.7992 30.4274 51.6533 30.2314C51.512 30.0355 51.3024 29.8851 51.0244 29.7803C50.751 29.6755 50.416 29.623 50.0195 29.623H48.126L48.1396 28.8711H50.5596L50.9287 29.1514C51.307 29.1878 51.6328 29.2904 51.9062 29.459C52.1842 29.6276 52.3984 29.8418 52.5488 30.1016C52.6992 30.3568 52.7744 30.6348 52.7744 30.9355C52.7744 31.2773 52.7106 31.5781 52.583 31.8379C52.4554 32.0931 52.2708 32.3073 52.0293 32.4805C51.7878 32.6536 51.4961 32.7835 51.1543 32.8701C50.8171 32.9567 50.4388 33 50.0195 33ZM57.4844 33.1367C56.9967 33.1367 56.5479 33.0479 56.1377 32.8701C55.7321 32.6924 55.3812 32.444 55.085 32.125C54.7887 31.8014 54.5586 31.4186 54.3945 30.9766C54.235 30.5345 54.1553 30.0492 54.1553 29.5205V29.2266C54.1553 28.6478 54.2396 28.1283 54.4082 27.668C54.5814 27.2031 54.8161 26.8066 55.1123 26.4785C55.4085 26.1504 55.748 25.8997 56.1309 25.7266C56.5137 25.5534 56.9147 25.4668 57.334 25.4668C57.8125 25.4668 58.2363 25.5534 58.6055 25.7266C58.9746 25.8952 59.2822 26.1322 59.5283 26.4375C59.779 26.7428 59.9658 27.1051 60.0889 27.5244C60.2165 27.9437 60.2803 28.4017 60.2803 28.8984V29.4111H54.6953V28.6523H59.3779V28.5566C59.3688 28.1602 59.2891 27.7865 59.1387 27.4355C58.9883 27.0801 58.765 26.7907 58.4688 26.5674C58.1725 26.3441 57.7943 26.2324 57.334 26.2324C56.9967 26.2324 56.6868 26.3053 56.4043 26.4512C56.1263 26.5924 55.887 26.7952 55.6865 27.0596C55.486 27.3193 55.3311 27.6338 55.2217 28.0029C55.1123 28.3675 55.0576 28.7754 55.0576 29.2266V29.5205C55.0576 29.917 55.1169 30.2884 55.2354 30.6348C55.3538 30.9766 55.5202 31.2796 55.7344 31.5439C55.9531 31.8037 56.2129 32.0088 56.5137 32.1592C56.819 32.305 57.1562 32.3779 57.5254 32.3779C57.9629 32.3779 58.348 32.2959 58.6807 32.1318C59.0133 31.9632 59.3118 31.708 59.5762 31.3662L60.1367 31.8037C59.9727 32.0407 59.7699 32.2617 59.5283 32.4668C59.2913 32.6673 59.0042 32.8291 58.667 32.9521C58.3298 33.0752 57.9355 33.1367 57.4844 33.1367ZM63.1719 25.6035H64.0742L63.9512 28.29C63.9238 28.9964 63.8464 29.6117 63.7188 30.1357C63.5911 30.6553 63.4339 31.0973 63.2471 31.4619C63.0602 31.8265 62.8551 32.1341 62.6318 32.3848C62.4085 32.6309 62.1829 32.8359 61.9551 33H61.4697L61.4902 32.2344H61.709C61.8411 32.0703 61.9779 31.888 62.1191 31.6875C62.265 31.487 62.4017 31.2432 62.5293 30.9561C62.6615 30.6644 62.7731 30.3044 62.8643 29.876C62.9554 29.443 63.0169 28.9144 63.0488 28.29L63.1719 25.6035ZM63.4453 25.6035H67.6152V33H66.7129V26.4512H63.4453V25.6035ZM61.1621 32.2344H68.4219V35.1807H67.5195V33H62.0371V35.1807H61.1553L61.1621 32.2344ZM69.5361 29.4111V29.1992C69.5361 28.6615 69.6136 28.1647 69.7686 27.709C69.9281 27.2533 70.1514 26.859 70.4385 26.5264C70.7256 26.1891 71.0719 25.9294 71.4775 25.7471C71.8877 25.5602 72.3434 25.4668 72.8447 25.4668C73.3506 25.4668 73.8063 25.5602 74.2119 25.7471C74.6221 25.9294 74.973 26.1891 75.2646 26.5264C75.5563 26.859 75.7796 27.2533 75.9346 27.709C76.0895 28.1647 76.167 28.6615 76.167 29.1992V29.4111C76.167 29.9443 76.0895 30.4388 75.9346 30.8945C75.7796 31.3503 75.5563 31.7467 75.2646 32.084C74.973 32.4167 74.6243 32.6764 74.2188 32.8633C73.8132 33.0456 73.3597 33.1367 72.8584 33.1367C72.3525 33.1367 71.8945 33.0456 71.4844 32.8633C71.0788 32.6764 70.7301 32.4167 70.4385 32.084C70.1514 31.7467 69.9281 31.3503 69.7686 30.8945C69.6136 30.4388 69.5361 29.9443 69.5361 29.4111ZM70.4385 29.1992V29.4111C70.4385 29.8076 70.4909 30.1836 70.5957 30.5391C70.7005 30.8945 70.8532 31.2113 71.0537 31.4893C71.2588 31.7627 71.5117 31.9792 71.8125 32.1387C72.1178 32.2936 72.4665 32.3711 72.8584 32.3711C73.2458 32.3711 73.5876 32.2936 73.8838 32.1387C74.1846 31.9792 74.4352 31.7627 74.6357 31.4893C74.8408 31.2113 74.9958 30.8945 75.1006 30.5391C75.2054 30.1836 75.2578 29.8076 75.2578 29.4111V29.1992C75.2578 28.8073 75.2054 28.4336 75.1006 28.0781C74.9958 27.7227 74.8408 27.4082 74.6357 27.1348C74.4307 26.8568 74.1777 26.638 73.877 26.4785C73.5807 26.3145 73.2367 26.2324 72.8447 26.2324C72.4574 26.2324 72.1133 26.3145 71.8125 26.4785C71.5117 26.638 71.2588 26.8568 71.0537 27.1348C70.8486 27.4082 70.6937 27.7227 70.5889 28.0781C70.4886 28.4336 70.4385 28.8073 70.4385 29.1992ZM81.9639 31.7695L84.8213 25.6035H85.71L82.2783 33H81.6426L78.2246 25.6035H79.1064L81.9639 31.7695ZM78.833 25.6035V33H77.9307V25.6035H78.833ZM85.0332 33V25.6035H85.9424V33H85.0332ZM93.1064 25.6035V26.376H89.4014V25.6035H93.1064ZM93.8652 25.6035V33H92.9561V25.6035H93.8652ZM89.1621 25.6035H90.0645L89.9004 29.0898C89.8685 29.6504 89.8206 30.1471 89.7568 30.5801C89.6976 31.0085 89.6133 31.3753 89.5039 31.6807C89.3945 31.986 89.2555 32.2367 89.0869 32.4326C88.9229 32.6286 88.7246 32.7721 88.4922 32.8633C88.2598 32.9544 87.9886 33 87.6787 33H87.3574V32.1934L87.6172 32.1797C87.8132 32.1706 87.984 32.1296 88.1299 32.0566C88.2757 31.9792 88.3988 31.863 88.499 31.708C88.6038 31.5485 88.6904 31.3411 88.7588 31.0859C88.8317 30.8262 88.8887 30.514 88.9297 30.1494C88.9707 29.7803 89.0026 29.3473 89.0254 28.8506L89.1621 25.6035ZM98.9375 33.1367C98.4499 33.1367 98.001 33.0479 97.5908 32.8701C97.1852 32.6924 96.8343 32.444 96.5381 32.125C96.2419 31.8014 96.0117 31.4186 95.8477 30.9766C95.6882 30.5345 95.6084 30.0492 95.6084 29.5205V29.2266C95.6084 28.6478 95.6927 28.1283 95.8613 27.668C96.0345 27.2031 96.2692 26.8066 96.5654 26.4785C96.8617 26.1504 97.2012 25.8997 97.584 25.7266C97.9668 25.5534 98.3678 25.4668 98.7871 25.4668C99.2656 25.4668 99.6895 25.5534 100.059 25.7266C100.428 25.8952 100.735 26.1322 100.981 26.4375C101.232 26.7428 101.419 27.1051 101.542 27.5244C101.67 27.9437 101.733 28.4017 101.733 28.8984V29.4111H96.1484V28.6523H100.831V28.5566C100.822 28.1602 100.742 27.7865 100.592 27.4355C100.441 27.0801 100.218 26.7907 99.9219 26.5674C99.6257 26.3441 99.2474 26.2324 98.7871 26.2324C98.4499 26.2324 98.14 26.3053 97.8574 26.4512C97.5794 26.5924 97.3402 26.7952 97.1396 27.0596C96.9391 27.3193 96.7842 27.6338 96.6748 28.0029C96.5654 28.3675 96.5107 28.7754 96.5107 29.2266V29.5205C96.5107 29.917 96.57 30.2884 96.6885 30.6348C96.807 30.9766 96.9733 31.2796 97.1875 31.5439C97.4062 31.8037 97.666 32.0088 97.9668 32.1592C98.2721 32.305 98.6094 32.3779 98.9785 32.3779C99.416 32.3779 99.8011 32.2959 100.134 32.1318C100.466 31.9632 100.765 31.708 101.029 31.3662L101.59 31.8037C101.426 32.0407 101.223 32.2617 100.981 32.4668C100.744 32.6673 100.457 32.8291 100.12 32.9521C99.7829 33.0752 99.3887 33.1367 98.9375 33.1367ZM108.351 28.8916V29.6504H104.058V28.8916H108.351ZM104.276 25.6035V33H103.374V25.6035H104.276ZM109.062 25.6035V33H108.152V25.6035H109.062ZM112.186 31.5439L116.068 25.6035H116.978V33H116.068V27.0596L112.186 33H111.29V25.6035H112.186V31.5439ZM120.102 31.5439L123.984 25.6035H124.894V33H123.984V27.0596L120.102 33H119.206V25.6035H120.102V31.5439ZM123.253 22.9443H124.012C124.012 23.2907 123.932 23.5983 123.772 23.8672C123.618 24.1315 123.39 24.3389 123.089 24.4893C122.793 24.6396 122.439 24.7148 122.029 24.7148C121.414 24.7148 120.929 24.5508 120.573 24.2227C120.218 23.89 120.04 23.4639 120.04 22.9443H120.799C120.799 23.2497 120.89 23.5163 121.072 23.7441C121.259 23.9674 121.578 24.0791 122.029 24.0791C122.467 24.0791 122.779 23.9652 122.966 23.7373C123.157 23.5094 123.253 23.2451 123.253 22.9443Z" fill="white"/>
</svg>
