<svg width="40" height="24" viewBox="0 0 40 24" fill="none" xmlns="http://www.w3.org/2000/svg">
<path fill-rule="evenodd" clip-rule="evenodd" d="M33.6276 19.6278C37.0867 17.5523 39 14.8244 39 12C39 9.17555 37.0867 6.44765 33.6276 4.37221C30.1885 2.30871 25.3728 1 20 1C14.6272 1 9.81152 2.30871 6.37236 4.37221C2.91329 6.44765 1 9.17555 1 12C1 14.8244 2.91329 17.5523 6.37236 19.6278C9.81152 21.6913 14.6272 23 20 23C25.3728 23 30.1885 21.6913 33.6276 19.6278ZM20 24C31.0457 24 40 18.6274 40 12C40 5.37258 31.0457 0 20 0C8.9543 0 0 5.37258 0 12C0 18.6274 8.9543 24 20 24Z" fill="#FF0101"/>
<path d="M7 12.3203V12.2891C7 10.3411 7.67188 8.8724 9.01562 7.88281C10.3594 6.88802 12.138 6.39062 14.3516 6.39062C16.513 6.39062 18.138 6.7526 19.2266 7.47656C20.3151 8.20052 20.9714 9.28125 21.1953 10.7188L21.2344 11.0156H18.7578L18.7188 10.7891C18.5521 9.9974 18.1432 9.33594 17.4922 8.80469C16.8464 8.26823 15.8281 8 14.4375 8C12.901 8 11.7214 8.38281 10.8984 9.14844C10.0755 9.91406 9.66406 10.9583 9.66406 12.2812V12.3125C9.66406 13.7188 10.0859 14.7943 10.9297 15.5391C11.7734 16.2839 12.9401 16.6562 14.4297 16.6562C15.8672 16.6562 16.9062 16.4089 17.5469 15.9141C18.1875 15.4141 18.5833 14.7422 18.7344 13.8984L18.7734 13.6484H21.2422L21.2109 13.9453C21.0286 15.3672 20.4062 16.4375 19.3438 17.1562C18.2812 17.875 16.625 18.2344 14.375 18.2344C12.1042 18.2344 10.3073 17.7292 8.98438 16.7188C7.66146 15.7031 7 14.237 7 12.3203Z" fill="#FF0000"/>
<path d="M20.625 8.5625V6.625H32.8281V8.5625H27.9844V18H25.4688V8.5625H20.625Z" fill="#FF0000"/>
</svg>
