<svg width="48" height="49" viewBox="0 0 48 49" fill="none" xmlns="http://www.w3.org/2000/svg">
<g clip-path="url(#clip0_4117_15941)">
<path d="M24 48.1582C37.2548 48.1582 48 37.413 48 24.1582C48 10.9034 37.2548 0.158203 24 0.158203C10.7452 0.158203 0 10.9034 0 24.1582C0 37.413 10.7452 48.1582 24 48.1582Z" fill="#7099ED"/>
<path fill-rule="evenodd" clip-rule="evenodd" d="M10.8621 23.9041C17.8586 20.8559 22.524 18.8463 24.8583 17.8753C31.5234 15.1031 32.9083 14.6215 33.811 14.6056C34.0096 14.6021 34.4535 14.6513 34.741 14.8847C34.9838 15.0817 35.0506 15.3478 35.0826 15.5346C35.1146 15.7214 35.1544 16.1469 35.1227 16.4794C34.7615 20.2744 33.1987 29.4838 32.4036 33.7342C32.0672 35.5327 31.4048 36.1357 30.7635 36.1948C29.3697 36.323 28.3114 35.2737 26.9615 34.3888C24.8492 33.0042 23.6559 32.1422 21.6055 30.7911C19.236 29.2296 20.772 28.3713 22.1224 26.9688C22.4759 26.6017 28.6166 21.0162 28.7355 20.5095C28.7504 20.4461 28.7642 20.2099 28.6238 20.0852C28.4835 19.9604 28.2764 20.0031 28.1269 20.037C27.9151 20.0851 24.5406 22.3155 18.0036 26.7282C17.0457 27.3859 16.1782 27.7063 15.4009 27.6895C14.5439 27.671 12.8956 27.205 11.6702 26.8067C10.1672 26.3181 8.97261 26.0598 9.07663 25.2301C9.13081 24.7979 9.72596 24.3559 10.8621 23.9041Z" fill="white"/>
</g>
<defs>
<clipPath id="clip0_4117_15941">
<rect width="48" height="48" fill="white" transform="translate(0 0.158203)"/>
</clipPath>
</defs>
</svg>
