<svg width="537" height="227" viewBox="0 0 537 227" fill="none" xmlns="http://www.w3.org/2000/svg">
<g clip-path="url(#clip0_8999_21635)">
<rect x="0.8125" width="535.5" height="227" rx="16" fill="#FF8B63"/>
<g clip-path="url(#clip1_8999_21635)">
<path d="M309.444 139.987C308.985 139.993 308.677 140.438 308.89 140.812L310.647 144.004C310.761 144.206 310.993 144.321 311.242 144.302L313.182 144.152C313.614 144.119 313.877 143.702 313.692 143.343L312.117 140.299C312.017 140.109 311.803 139.981 311.567 139.981L309.444 139.987Z" fill="white"/>
<path d="M305.769 131.599C305.309 131.604 305.008 132.049 305.214 132.424L306.972 135.616C307.086 135.818 307.318 135.932 307.566 135.913L309.507 135.764C309.938 135.731 310.202 135.314 310.023 134.954L308.442 131.911C308.342 131.72 308.128 131.592 307.891 131.592L305.769 131.599Z" fill="white"/>
<path d="M301.53 123.657C301.071 123.663 300.763 124.107 300.976 124.482L302.733 127.674C302.847 127.876 303.079 127.991 303.328 127.972L305.262 127.823C305.7 127.789 305.963 127.372 305.778 127.013L304.203 123.969C304.103 123.778 303.889 123.65 303.653 123.657L301.53 123.657Z" fill="white"/>
<path d="M271.7 100.976C270.677 100.838 269.869 101.79 270.284 102.655C274.168 110.768 288.884 141.531 296.785 158.041C300.036 158.519 303.312 158.984 306.613 159.434C307.537 159.561 308.46 159.683 309.383 159.804C309.627 159.31 309.939 158.751 310.334 158.155L310.224 158.097C309.974 158.086 304.149 157.818 302.575 154.269C301.741 152.396 302.081 149.56 303.347 149.095C303.941 148.869 304.548 149.244 305.203 149.548C308.48 151.059 310.354 149.525 316.174 150.251C318.735 150.566 320.016 150.726 321.346 151.52C322.4 152.149 322.896 152.791 323.404 153.666C315.523 138.701 300.475 110.111 297.827 105.086C297.573 104.606 297.081 104.271 296.503 104.189L289.248 103.104C288.584 103.005 287.977 103.491 288.005 104.114C288.029 104.684 287.541 105.095 287.006 105.136C286.744 105.156 286.476 105.086 286.245 104.906L284.909 103.859C283.825 103.01 282.494 102.456 281.073 102.259L271.693 100.976L271.7 100.976ZM300.981 124.482C300.769 124.107 301.076 123.663 301.536 123.657L303.659 123.657C303.895 123.65 304.109 123.778 304.209 123.969L305.784 127.013C305.969 127.372 305.705 127.789 305.267 127.823L303.333 127.972C303.085 127.991 302.853 127.876 302.739 127.674L300.981 124.482ZM305.22 132.423C305.014 132.048 305.315 131.604 305.775 131.598L307.897 131.592C308.134 131.592 308.347 131.72 308.448 131.91L310.029 134.954C310.208 135.313 309.944 135.73 309.513 135.763L307.572 135.913C307.324 135.932 307.092 135.817 306.977 135.615L305.22 132.423ZM308.895 140.811C308.682 140.436 308.99 139.991 309.45 139.986L311.572 139.979C311.809 139.979 312.022 140.107 312.122 140.298L313.697 143.342C313.883 143.701 313.619 144.118 313.188 144.151L311.247 144.3C310.999 144.319 310.766 144.205 310.652 144.003L308.895 140.811Z" fill="white"/>
<path d="M435.359 210.311L435.373 210.328C436.755 211.022 438.136 211.716 439.523 212.409C439.421 211.25 439.264 209.812 438.986 208.161L438.934 208.165C437.73 208.925 436.536 209.637 435.359 210.311Z" fill="#FF8B63"/>
<path d="M415.93 119.273L415.813 123.903C417.383 121.153 418.96 118.408 420.529 115.658C419.132 113.046 417.631 110.785 416.195 108.862C416.107 112.334 416.018 115.801 415.93 119.273Z" fill="#FF8B63"/>
<path d="M325.127 152.734C324.387 153.026 323.809 153.377 323.404 153.667C323.919 154.548 324.439 155.669 325.554 157.262C328.449 161.408 330.225 161.422 331.855 164.756C331.964 164.982 332.067 165.203 332.156 165.425C332.984 167.389 333.161 169.18 333.193 170.363C333.928 170.776 335.164 171.457 336.715 172.234C339.634 173.694 352.764 180.158 373.444 183.165C376.348 183.585 380.622 184.117 385.872 184.429C386.814 177.022 388.264 171.008 389.435 166.833C389.781 165.603 390.19 164.164 390.677 162.556L390.658 162.557C388.766 166.078 386.868 169.6 384.976 173.126C377.597 171.353 369.527 168.977 361.011 165.763C356.543 164.079 352.366 162.325 348.476 160.542C346.874 157.494 342.853 151.017 334.629 147.323C332.321 146.285 330.104 145.661 328.142 145.276C325.437 144.54 322.738 143.809 320.027 143.079L325.133 152.734L325.127 152.734Z" fill="white"/>
<path d="M321.789 194.315C322.562 194.791 323.452 195.258 324.477 195.673C326.438 196.473 328.293 196.835 329.817 196.995C333.125 198.816 337.984 201.403 343.99 204.287C358.922 211.448 370.313 216.914 381.349 219.651C384.679 220.478 387.977 221.055 391.326 221.357C397.964 221.947 414.404 222.314 435.363 210.312C436.54 209.637 437.734 208.926 438.938 208.172L438.99 208.168C437.956 201.899 435.304 192.531 428.176 183.175C421.099 173.882 412.661 168.61 407.613 165.954C406.052 167.277 404.498 168.606 402.936 169.923C397.248 174.765 391.553 179.595 385.871 184.43C380.621 184.118 376.347 183.586 373.443 183.166C352.763 180.159 339.633 173.695 336.715 172.235C335.163 171.458 333.927 170.777 333.192 170.364C333.16 169.181 332.983 167.39 332.155 165.426C332.066 165.204 331.963 164.983 331.854 164.757C330.224 161.423 328.448 161.409 325.553 157.263C324.438 155.67 323.918 154.549 323.403 153.668C322.896 152.792 322.399 152.151 321.345 151.522C320.016 150.728 318.735 150.567 316.173 150.253C310.353 149.527 308.48 151.061 305.202 149.55C304.547 149.245 303.94 148.871 303.346 149.097C302.081 149.561 301.74 152.397 302.574 154.271C304.148 157.82 309.973 158.088 310.223 158.099L310.333 158.157C309.939 158.752 309.627 159.312 309.382 159.806C308.459 159.685 307.536 159.563 306.613 159.435C303.311 158.985 300.035 158.521 296.784 158.043C295.688 157.887 294.597 157.724 293.506 157.555C291.465 157.255 289.437 156.941 287.414 156.628L284.333 150.066L283.932 150.229C283.291 150.874 282.413 151.85 281.553 153.149C280.405 154.886 278.627 157.574 278.959 160.015C279.374 163.022 282.976 165.585 287.656 166.609C289.392 169.183 291.126 171.902 292.839 174.778C293.714 176.245 294.556 177.703 295.35 179.14C295.232 180.936 295.528 182.399 295.987 183.579C298.6 190.382 308.933 194.407 321.771 194.334L321.789 194.315Z" fill="white"/>
<path d="M430.585 108.977C429.947 109.646 429.333 110.379 428.751 111.188C424.572 117.027 424.809 123.531 425.29 127.044L425.537 127.187C428.007 123.658 430.524 120.318 433.042 117.164C445.453 112.058 458.183 107.162 471.247 102.506C471.682 102.352 472.111 102.199 472.546 102.045L472.392 101.666C472.345 99.7739 472.328 97.8438 472.347 95.8629C472.374 91.7754 472.539 87.5029 472.874 83.0608C473.145 79.3998 473.518 75.8814 473.968 72.5015C479.243 71.4281 483.325 67.9314 484.38 63.6085C485.308 59.7826 483.815 55.4992 481.202 52.9625C479.858 51.6518 478.216 50.8094 476.455 50.7282C471.937 50.528 466.417 55.3266 466.086 62.4759C464.092 62.0998 462.104 61.7231 460.11 61.347C460.597 60.2446 461.232 58.511 461.452 56.3281C461.645 54.4662 462.249 48.5594 457.773 44.5474C454.737 41.8265 450.888 41.3463 449.198 41.2417C449.479 40.1972 449.687 38.8876 449.599 37.4022C449.332 32.8139 446.455 29.6837 445.276 28.5349C440.065 28.719 432.684 29.6656 424.825 33.1217C422.308 34.2298 420.094 35.4409 418.162 36.6484C416.763 36.064 415.364 35.4796 413.972 34.8948L413.88 35.0703C413.591 39.5148 411.459 77.3617 427.187 88.4627C428.397 89.3203 429.651 89.988 430.754 90.4868C430.857 92.2539 430.924 94.0598 430.954 95.9046C430.969 96.7037 430.978 97.4972 430.979 98.2853C430.988 101.991 430.848 105.558 430.592 108.977L430.585 108.977ZM416.675 55.6072C416.489 53.1847 417.227 51.1605 418.325 51.0761C419.423 50.9917 420.462 52.8793 420.648 55.3017C420.834 57.7242 420.096 59.7425 418.998 59.8269C417.9 59.9113 416.861 58.0237 416.675 55.6072ZM426.388 69.1803C427.517 69.1596 429.508 68.9825 431.666 67.9803C433.138 67.2955 434.198 66.4619 434.886 65.8254C435.989 68.9836 433.837 71.9348 431.392 72.2852C429.52 72.5555 427.329 71.3221 426.388 69.1803ZM434.174 54.2618C433.988 51.8393 434.817 49.808 436.033 49.7146C437.248 49.6212 438.372 51.5022 438.558 53.9247C438.745 56.3472 437.914 58.3724 436.706 58.4654C435.497 58.5583 434.36 56.6783 434.174 54.2618Z" fill="white"/>
<path d="M381.345 219.651C381.48 220.561 381.789 222.017 382.591 223.635C384.277 227.019 387.375 229.518 391.366 231.335C391.353 228.003 391.341 224.683 391.322 221.357C387.973 221.055 384.675 220.478 381.345 219.651Z" fill="#FF8B63"/>
<path d="M264.138 101.655C263.098 102.74 262.828 104.271 263.441 105.583L284.332 150.065L287.413 156.627C289.435 156.941 291.464 157.255 293.505 157.555L266.445 101.478C265.984 100.532 266.216 99.5276 266.846 98.8234L264.138 101.655Z" fill="#231F20"/>
<path d="M266.848 98.8226C266.218 99.5268 265.986 100.531 266.447 101.477L293.507 157.554C294.598 157.723 295.689 157.886 296.785 158.042C288.884 141.532 274.168 110.769 270.284 102.656C269.869 101.791 270.677 100.839 271.7 100.977L281.079 102.259C282.501 102.457 283.832 103.01 284.916 103.859L286.252 104.906C286.483 105.087 286.751 105.156 287.012 105.136C287.548 105.095 288.036 104.684 288.012 104.115C287.983 103.491 288.59 103.005 289.255 103.105L296.509 104.189C297.088 104.271 297.58 104.606 297.834 105.086C300.481 110.111 315.529 138.701 323.411 153.667C323.816 153.377 324.393 153.025 325.133 152.734L320.027 143.079L320.02 143.079L300.095 105.424C298.918 103.204 296.631 101.665 293.96 101.293L269.445 97.9009C268.389 97.7535 267.447 98.1568 266.848 98.8226Z" fill="white"/>
<path d="M385.871 184.428C391.553 179.593 397.248 174.763 402.936 169.922C407.77 157.137 414.726 142.794 424.913 128.082C424.984 127.98 425.062 127.872 425.133 127.77C424.705 125.974 424.151 124.067 423.413 122.072C422.557 119.744 421.577 117.599 420.534 115.657C418.964 118.407 417.387 121.152 415.817 123.902L415.934 119.272C414.533 120.709 412.34 123.044 409.877 126.067C398.512 139.991 393.346 153.836 390.677 162.555C390.189 164.163 389.781 165.602 389.435 166.832C388.264 171.008 386.813 177.022 385.871 184.428Z" fill="#FF8B63"/>
<path d="M474.889 219.757C475.617 219.142 476.092 218.564 476.286 218.092C476.714 217.084 476.776 216.092 476.776 216.092C476.823 215.337 476.709 214.708 476.605 214.289C482.74 209.455 489.84 202.375 495.203 192.54C495.203 192.54 508.597 167.979 498.857 138.584C497.618 134.864 495.507 128.703 489.786 122.934C488.409 119.899 486.209 116.073 482.663 112.278C481.16 110.679 479.656 109.326 478.214 108.18C474.758 113.842 461.082 122.938 441.811 132.26C438.893 127.226 435.97 122.198 433.046 117.164C430.527 120.318 428.011 123.658 425.541 127.187C425.405 127.378 425.268 127.575 425.132 127.772C425.061 127.874 424.984 127.982 424.913 128.084C414.726 142.796 407.77 157.139 402.936 169.923C404.498 168.606 406.052 167.277 407.613 165.954C412.662 168.61 421.099 173.882 428.176 183.175C435.304 192.531 437.957 201.899 438.99 208.161C439.268 209.813 439.425 211.251 439.527 212.41C438.14 211.717 436.759 211.023 435.378 210.329L435.363 210.312C414.405 222.314 397.964 221.947 391.326 221.357C391.345 224.683 391.357 228.003 391.37 231.329C406.573 238.253 434.819 235.293 448.329 233.875C448.329 233.875 472.989 231.287 476.035 223.887C476.981 221.576 476.117 220.511 476.117 220.511C475.768 220.075 475.259 219.867 474.889 219.757Z" fill="#FF8B63"/>
<path d="M476.236 23.1388C477.011 22.1045 477.788 20.6789 477.657 19.0585C477.113 12.0667 460.211 7.24115 450.018 6.74331C426.167 5.5807 407.965 26.5828 404.378 30.8838L413.974 34.8932C415.366 35.4781 416.765 36.0625 418.164 36.6468C420.096 35.4394 422.31 34.2282 424.828 33.1201C432.686 29.664 440.067 28.7175 445.278 28.5334C446.457 29.6822 449.334 32.8123 449.601 37.4006C449.689 38.886 449.481 40.1956 449.2 41.2401C450.89 41.3448 454.74 41.825 457.775 44.5458C462.251 48.5578 461.647 54.4646 461.455 56.3265C461.235 58.5094 460.599 60.243 460.112 61.3454C462.106 61.7216 464.094 62.0982 466.088 62.4744C466.419 55.3251 471.939 50.5265 476.457 50.7266C478.218 50.8078 479.861 51.6503 481.204 52.9609C481.557 52.6028 490.093 43.7638 486.59 33.7625C486.059 32.251 483.842 26.6634 477.493 23.6739C477.07 23.4718 476.648 23.2936 476.236 23.1388Z" fill="#FF8B63"/>
<path d="M422.408 103.108C419.696 105.109 417.665 107.154 416.199 108.862C417.635 110.785 419.137 113.046 420.534 115.658C421.577 117.6 422.557 119.744 423.413 122.073C424.151 124.068 424.705 125.975 425.133 127.771C425.269 127.574 425.405 127.377 425.541 127.186L425.294 127.043C424.813 123.53 424.576 117.026 428.754 111.187C429.336 110.379 429.95 109.645 430.589 108.977C430.846 105.557 430.985 101.991 430.977 98.2852C428.6 99.2621 425.562 100.777 422.408 103.108Z" fill="#FF8B63"/>
<path d="M418.326 51.0746C417.228 51.159 416.49 53.1832 416.676 55.6057C416.863 58.0282 417.901 59.9098 418.999 59.8254C420.097 59.741 420.835 57.7167 420.649 55.3003C420.463 52.8838 419.424 50.9902 418.326 51.0746Z" fill="#231F20"/>
<path d="M472.546 102.044C472.111 102.198 471.682 102.351 471.247 102.505C458.183 107.161 445.453 112.057 433.042 117.163C435.966 122.196 438.89 127.224 441.807 132.259C461.079 122.937 474.754 113.841 478.21 108.179C478.636 107.478 478.902 106.838 479.008 106.252C479.581 103.097 478.435 100.761 478.435 100.761C476.946 97.7223 473.739 96.3624 472.347 95.8618C472.328 97.8427 472.345 99.7728 472.392 101.664L472.546 102.044Z" fill="#FF8B63"/>
<path d="M436.03 49.7132C434.814 49.8067 433.985 51.8379 434.171 54.2604C434.357 56.6829 435.487 58.5574 436.703 58.464C437.918 58.3706 438.741 56.3398 438.555 53.9233C438.37 51.5068 437.239 49.6203 436.03 49.7132Z" fill="#231F20"/>
<path d="M413.878 35.0698C413.588 39.5143 411.457 77.3611 427.185 88.4622C428.394 89.3198 429.649 89.9875 430.752 90.4863C432.7 91.3714 434.187 91.7444 434.187 91.7444C447.424 95.0648 460.43 84.0951 462.741 82.0943" stroke="#231F20" stroke-width="0.99" stroke-miterlimit="10" stroke-linecap="round"/>
<path d="M449.01 23.0061C446.995 23.5582 445.472 24.8725 445.116 26.4823C444.931 27.3149 445.099 28.048 445.274 28.5339C446.454 29.6827 449.33 32.8129 449.597 37.4012C449.685 38.8866 449.477 40.1962 449.196 41.2407C450.886 41.3453 454.736 41.8255 457.771 44.5464C462.247 48.5584 461.643 54.4651 461.451 56.3271C461.231 58.51 460.595 60.2436 460.108 61.346C462.102 61.7221 464.09 62.0988 466.084 62.4749C466.415 55.3256 471.935 50.527 476.453 50.7272C478.214 50.8084 479.857 51.6508 481.2 52.9615C483.814 55.4982 485.306 59.7816 484.378 63.6075C483.323 67.9304 479.241 71.4271 473.967 72.5005C473.517 75.8804 473.143 79.3988 472.872 83.0598C472.537 87.5019 472.372 91.7744 472.345 95.8619C472.326 97.8428 472.343 99.7729 472.39 101.665" stroke="#231F20" stroke-width="0.99" stroke-miterlimit="10" stroke-linecap="round"/>
<path d="M469.9 21.8753C471.384 21.9297 473.696 22.1671 476.235 23.1391C476.648 23.2939 477.069 23.4721 477.492 23.6742C483.842 26.6637 486.059 32.2513 486.589 33.7628C490.093 43.7641 481.557 52.6031 481.203 52.9612" stroke="#231F20" stroke-width="0.99" stroke-miterlimit="10" stroke-linecap="round"/>
<path d="M476.237 23.1405C477.012 22.1062 477.79 20.6806 477.659 19.0602C477.114 12.0684 460.213 7.24285 450.019 6.745C426.169 5.5824 407.967 26.5845 404.38 30.8855L413.976 34.8949C415.368 35.4798 416.767 36.0641 418.166 36.6485C420.097 35.4411 422.311 34.2299 424.829 33.1218C432.687 29.6657 440.068 28.7191 445.28 28.5351" stroke="#231F20" stroke-width="0.99" stroke-miterlimit="10" stroke-linecap="round"/>
<path d="M482.688 16.7715C482.522 17.5243 482.165 18.6107 481.35 19.7262C479.644 22.0716 477.105 22.8986 476.236 23.1398" stroke="#231F20" stroke-width="0.99" stroke-miterlimit="10" stroke-linecap="round"/>
<path d="M486.748 24.5509C486.182 24.3718 485.59 24.2007 484.974 24.0495C481.771 23.2489 478.785 23.0572 476.234 23.139" stroke="#231F20" stroke-width="0.99" stroke-miterlimit="10" stroke-linecap="round"/>
<path d="M434.884 65.8243C434.197 66.4608 433.137 67.2943 431.664 67.9791C429.507 68.9814 427.516 69.1585 426.387 69.1791C427.327 71.321 429.518 72.5544 431.391 72.2841C433.835 71.9337 435.988 68.9824 434.884 65.8243Z" fill="white" stroke="#231F20" stroke-width="0.99" stroke-miterlimit="10" stroke-linecap="round"/>
<path d="M430.477 70.5312C429.647 70.7635 428.81 71.0023 427.98 71.2346" stroke="#231F20" stroke-width="0.99" stroke-miterlimit="10" stroke-linecap="round"/>
<path d="M422.848 60.4087C422.571 60.8211 422.154 61.3887 421.584 62.0101C420.912 62.7537 420.586 62.9653 420.637 63.196C420.714 63.515 421.517 63.7902 424.487 63.6942" stroke="#231F20" stroke-width="0.99" stroke-miterlimit="10" stroke-linecap="round"/>
<path d="M441.709 46.4198C441.264 45.8523 440.44 44.965 439.116 44.2365C437.928 43.5817 436.81 43.3187 436.091 43.1995" stroke="#231F20" stroke-width="0.99" stroke-miterlimit="10" stroke-linecap="round"/>
<path d="M418.422 43.373C418.154 43.3936 417.779 43.4706 417.407 43.6857C416.307 44.3299 416.268 45.6205 416.265 45.759" stroke="#231F20" stroke-width="0.99" stroke-miterlimit="10" stroke-linecap="round"/>
<path d="M430.977 98.2852C430.985 101.991 430.846 105.557 430.589 108.977C430.524 109.92 430.445 110.859 430.358 111.78" stroke="#231F20" stroke-width="0.99" stroke-miterlimit="10" stroke-linecap="round"/>
<path d="M430.758 90.4863C430.861 92.2534 430.927 94.0593 430.957 95.9041C430.973 96.7031 430.981 97.4967 430.983 98.2848" stroke="#231F20" stroke-width="0.99" stroke-miterlimit="10" stroke-linecap="round"/>
<path d="M474.031 101.516C473.539 101.692 473.04 101.869 472.547 102.045C472.112 102.199 471.683 102.352 471.248 102.506C458.184 107.162 445.455 112.058 433.043 117.164C430.525 120.318 428.008 123.658 425.539 127.187C425.402 127.378 425.266 127.575 425.13 127.772C425.059 127.874 424.982 127.982 424.911 128.084C414.723 142.796 407.768 157.139 402.934 169.923" stroke="#231F20" stroke-width="0.99" stroke-miterlimit="10" stroke-linecap="round"/>
<path d="M478.211 108.18C474.755 113.842 461.08 122.938 441.808 132.26C438.891 127.225 435.967 122.198 433.043 117.164" stroke="#231F20" stroke-width="0.99" stroke-miterlimit="10" stroke-linecap="round"/>
<path d="M472.347 95.8618C473.739 96.3624 476.946 97.7223 478.435 100.761C478.435 100.761 479.581 103.097 479.008 106.252C478.902 106.838 478.636 107.478 478.21 108.173" stroke="#231F20" stroke-width="0.99" stroke-miterlimit="10" stroke-linecap="round"/>
<path d="M430.977 98.2852C428.6 99.2621 425.562 100.777 422.408 103.108C419.696 105.109 417.665 107.154 416.199 108.862C416.111 112.334 416.023 115.8 415.935 119.273L415.817 123.903C417.387 121.153 418.964 118.408 420.534 115.658" stroke="#231F20" stroke-width="0.99" stroke-miterlimit="10" stroke-linecap="round"/>
<path d="M425.131 127.77C424.703 125.974 424.149 124.067 423.411 122.072C422.555 119.744 421.575 117.599 420.532 115.657C419.135 113.045 417.633 110.784 416.197 108.861" stroke="#231F20" stroke-width="0.99" stroke-miterlimit="10" stroke-linecap="round"/>
<path d="M430.586 108.977C429.947 109.645 429.333 110.379 428.751 111.187C424.573 117.026 424.81 123.53 425.29 127.043" stroke="#231F20" stroke-width="0.99" stroke-miterlimit="10" stroke-linecap="round"/>
<path d="M478.21 108.173C479.652 109.325 481.156 110.678 482.659 112.277C486.205 116.072 488.405 119.898 489.782 122.933" stroke="#231F20" stroke-width="0.99" stroke-miterlimit="10" stroke-linecap="round"/>
<path d="M476.602 214.287C473.292 216.894 470.267 218.841 467.948 220.223" stroke="#231F20" stroke-width="0.99" stroke-miterlimit="10" stroke-linecap="round"/>
<path d="M482.658 117.337C484.699 118.576 486.947 120.196 489.154 122.313C489.367 122.519 489.58 122.726 489.786 122.932C495.508 128.702 497.618 134.863 498.857 138.582C508.597 167.978 495.204 192.539 495.204 192.539C489.84 202.373 482.741 209.453 476.605 214.281" stroke="#231F20" stroke-width="0.99" stroke-miterlimit="10" stroke-linecap="round"/>
<path d="M476.6 214.282C476.705 214.707 476.819 215.336 476.772 216.092C476.772 216.092 476.71 217.083 476.282 218.091C476.088 218.563 475.613 219.141 474.885 219.757C473.43 221.006 470.963 222.429 467.722 223.533" stroke="#231F20" stroke-width="0.99" stroke-miterlimit="10" stroke-linecap="round"/>
<path d="M381.349 219.649C381.485 220.559 381.794 222.016 382.595 223.633C384.282 227.017 387.379 229.516 391.371 231.333C406.573 238.251 434.819 235.291 448.329 233.873C448.329 233.873 472.989 231.286 476.035 223.885C476.981 221.574 476.117 220.51 476.117 220.51C475.768 220.073 475.259 219.866 474.889 219.756" stroke="#231F20" stroke-width="0.99" stroke-miterlimit="10" stroke-linecap="round"/>
<path d="M492.328 185.619C491.379 187.208 490.016 189.058 488.049 190.828C482.013 196.274 474.52 197.223 471.652 197.449C469.057 199.261 466.168 201.096 462.973 202.876C454.489 207.596 446.361 210.537 439.524 212.41" stroke="#231F20" stroke-width="0.99" stroke-miterlimit="10" stroke-linecap="round"/>
<path d="M441.514 140.253C437.357 142.347 432.848 144.914 428.2 148.063C419.304 154.096 412.564 160.469 407.609 165.952C406.048 167.275 404.494 168.604 402.932 169.922C397.244 174.763 391.549 179.593 385.867 184.428C380.617 184.116 376.344 183.584 373.439 183.164C352.759 180.157 339.629 173.694 336.711 172.233C335.159 171.456 333.923 170.775 333.188 170.362C333.156 169.179 332.979 167.388 332.151 165.424C332.062 165.202 331.96 164.981 331.85 164.755C330.22 161.421 328.444 161.407 325.549 157.261C324.434 155.669 323.914 154.547 323.399 153.666C322.892 152.791 322.395 152.149 321.341 151.52C320.012 150.726 318.731 150.566 316.17 150.251C310.349 149.525 308.476 151.059 305.198 149.548C304.544 149.244 303.936 148.869 303.342 149.095C302.077 149.56 301.736 152.396 302.57 154.269C304.145 157.818 309.969 158.086 310.22 158.097" stroke="#231F20" stroke-width="0.99" stroke-miterlimit="10" stroke-linecap="round"/>
<path d="M313.406 154.869C312.904 155.263 312.362 155.738 311.827 156.296C311.231 156.926 310.741 157.559 310.333 158.156C309.939 158.752 309.627 159.311 309.382 159.805" stroke="#231F20" stroke-width="0.99" stroke-miterlimit="10" stroke-linecap="round"/>
<path d="M312.254 160.191C311.298 160.066 310.342 159.941 309.379 159.805C308.456 159.683 307.533 159.561 306.609 159.434C303.308 158.984 300.032 158.52 296.781 158.042C295.684 157.885 294.594 157.722 293.503 157.553C291.462 157.253 289.433 156.94 287.411 156.626" stroke="#231F20" stroke-width="0.99" stroke-miterlimit="10" stroke-linecap="round"/>
<path d="M283.933 150.227C283.292 150.872 282.414 151.848 281.554 153.148C280.406 154.885 278.628 157.572 278.96 160.014C279.375 163.02 282.977 165.583 287.657 166.607C289.393 169.181 291.127 171.9 292.84 174.777C293.715 176.244 294.557 177.701 295.351 179.138C295.518 179.432 295.679 179.727 295.839 180.021" stroke="#231F20" stroke-width="0.99" stroke-miterlimit="10" stroke-linecap="round"/>
<path d="M295.349 179.139C295.23 180.935 295.527 182.399 295.986 183.579C298.599 190.381 308.932 194.406 321.77 194.334" stroke="#231F20" stroke-width="0.99" stroke-miterlimit="10" stroke-linecap="round"/>
<path d="M319.564 192.715C320.14 193.2 320.873 193.758 321.783 194.313C322.556 194.79 323.447 195.257 324.471 195.671C326.432 196.471 328.287 196.834 329.811 196.993C330.712 197.087 331.496 197.111 332.12 197.105" stroke="#231F20" stroke-width="0.99" stroke-miterlimit="10" stroke-linecap="round"/>
<path d="M329.812 196.994C333.12 198.815 337.979 201.402 343.985 204.285C358.917 211.446 370.307 216.912 381.343 219.65C384.674 220.477 387.972 221.053 391.321 221.355C397.959 221.946 414.399 222.313 435.358 210.31C436.535 209.636 437.729 208.925 438.933 208.17" stroke="#231F20" stroke-width="0.99" stroke-miterlimit="10" stroke-linecap="round"/>
<path d="M407.613 165.953C412.662 168.61 421.099 173.882 428.176 183.175C435.304 192.53 437.957 201.899 438.99 208.161C439.269 209.812 439.425 211.25 439.527 212.41C438.14 211.716 436.759 211.022 435.378 210.328" stroke="#231F20" stroke-width="0.99" stroke-miterlimit="10" stroke-linecap="round"/>
<path d="M415.93 119.273C414.528 120.711 412.335 123.046 409.873 126.069C398.507 139.993 393.341 153.838 390.672 162.557C390.184 164.164 389.776 165.604 389.43 166.834C388.259 171.009 386.809 177.023 385.866 184.43" stroke="#231F20" stroke-width="0.99" stroke-miterlimit="10" stroke-linecap="round"/>
<path d="M449.474 137.264C451.095 136.544 453.438 135.726 456.353 135.424C462.157 134.827 466.661 136.647 468.612 137.574" stroke="#231F20" stroke-width="0.99" stroke-miterlimit="10" stroke-linecap="round"/>
<path d="M327.633 152.169C327.201 152.196 326.7 152.264 326.158 152.396C325.791 152.491 325.445 152.608 325.133 152.734C324.393 153.026 323.815 153.377 323.41 153.667" stroke="#231F20" stroke-width="0.99" stroke-miterlimit="10" stroke-linecap="round"/>
<path d="M337.07 160.01C337.115 160.512 337.147 161.701 336.386 162.914C335.057 165.032 332.468 165.388 332.149 165.424" stroke="#231F20" stroke-width="0.99" stroke-miterlimit="10" stroke-linecap="round"/>
<path d="M320.014 143.079L300.088 105.424C298.912 103.204 296.625 101.665 293.954 101.293L269.439 97.9008C268.383 97.7534 267.441 98.1567 266.841 98.8225C266.212 99.5267 265.98 100.531 266.441 101.477L293.501 157.554" stroke="#231F20" stroke-width="0.99" stroke-miterlimit="10" stroke-linecap="round"/>
<path d="M325.127 152.733L320.021 143.078" stroke="#231F20" stroke-width="0.99" stroke-miterlimit="10" stroke-linecap="round"/>
<path d="M266.847 98.8222L264.139 101.654C263.099 102.738 262.829 104.269 263.442 105.582L284.333 150.064L287.414 156.626" stroke="#231F20" stroke-width="0.99" stroke-miterlimit="10" stroke-linecap="round"/>
<path d="M320.016 143.08L320.023 143.079C322.734 143.809 325.433 144.54 328.138 145.277C330.1 145.662 332.317 146.285 334.625 147.323C342.849 151.017 346.871 157.495 348.472 160.542C352.362 162.325 356.539 164.08 361.007 165.764C369.523 168.978 377.593 171.354 384.973 173.127C386.864 169.6 388.762 166.079 390.653 162.552" stroke="#231F20" stroke-width="0.99" stroke-miterlimit="10" stroke-linecap="round"/>
<path d="M391.32 221.355C391.339 224.681 391.351 228.002 391.364 231.328" stroke="#231F20" stroke-width="0.99" stroke-miterlimit="10" stroke-linecap="round"/>
<path d="M462.181 144.658C465.439 146.08 470.153 148.666 474.115 153.259C479.412 159.41 481.552 167.067 480.582 167.52C480.049 167.772 478.179 166.027 472.347 157.366" stroke="#231F20" stroke-width="0.99" stroke-miterlimit="10" stroke-linecap="round"/>
<path d="M323.404 153.666C315.523 138.701 300.475 110.111 297.827 105.086C297.573 104.606 297.081 104.271 296.503 104.189L289.248 103.104C288.584 103.005 287.977 103.491 288.005 104.114C288.029 104.684 287.541 105.095 287.006 105.136C286.744 105.156 286.476 105.086 286.245 104.906L284.909 103.859C283.825 103.01 282.494 102.456 281.073 102.259L271.693 100.976C270.67 100.838 269.863 101.791 270.278 102.656C274.161 110.768 288.877 141.532 296.779 158.042" stroke="#231F20" stroke-width="0.99" stroke-miterlimit="10" stroke-linecap="round"/>
<path d="M296.998 108.882L276.5 107.72" stroke="#FF8B63" stroke-width="0.99" stroke-miterlimit="10" stroke-linecap="round"/>
<path d="M299.719 114.712L279.594 114.207" stroke="#FF8B63" stroke-width="0.99" stroke-miterlimit="10" stroke-linecap="round"/>
<path d="M302.441 120.549L282.701 120.695" stroke="#FF8B63" stroke-width="0.99" stroke-miterlimit="10" stroke-linecap="round"/>
<path d="M303.653 123.657L301.53 123.657C301.071 123.663 300.763 124.107 300.976 124.482L302.733 127.674C302.847 127.876 303.079 127.991 303.328 127.972L305.262 127.823C305.7 127.789 305.963 127.372 305.778 127.013L304.203 123.969C304.103 123.778 303.889 123.65 303.653 123.657Z" stroke="#FF8B63" stroke-width="0.99" stroke-miterlimit="10" stroke-linecap="round"/>
<path d="M300.125 126.258L287.34 126.94" stroke="#FF8B63" stroke-width="0.99" stroke-miterlimit="10" stroke-linecap="round"/>
<path d="M307.891 131.592L305.769 131.599C305.309 131.604 305.008 132.049 305.214 132.424L306.972 135.616C307.086 135.818 307.318 135.932 307.566 135.913L309.507 135.764C309.938 135.731 310.202 135.314 310.023 134.954L308.442 131.911C308.342 131.72 308.128 131.592 307.891 131.592Z" stroke="#FF8B63" stroke-width="0.99" stroke-miterlimit="10" stroke-linecap="round"/>
<path d="M304.359 134.199L292.441 135.116" stroke="#FF8B63" stroke-width="0.99" stroke-miterlimit="10" stroke-linecap="round"/>
<path d="M311.567 139.981L309.444 139.987C308.985 139.993 308.677 140.438 308.89 140.812L310.647 144.004C310.761 144.206 310.993 144.321 311.242 144.302L313.182 144.152C313.614 144.119 313.877 143.702 313.692 143.343L312.117 140.299C312.017 140.109 311.803 139.981 311.567 139.981Z" stroke="#FF8B63" stroke-width="0.99" stroke-miterlimit="10" stroke-linecap="round"/>
<path d="M308.039 142.586L297.018 144.228" stroke="#FF8B63" stroke-width="0.99" stroke-miterlimit="10" stroke-linecap="round"/>
<path d="M479.031 56.5645C478.295 56.7294 477.228 57.0461 476.074 57.6883C475.885 57.7871 475.696 57.8979 475.502 58.0211C473.81 59.0958 472.843 60.3675 472.362 61.1205" stroke="#231F20" stroke-width="0.99" stroke-miterlimit="10" stroke-linecap="round"/>
<path d="M480.176 60.796C479.911 60.4313 479.585 60.0412 479.18 59.6451C478.094 58.6035 476.919 58.014 476.072 57.688" stroke="#231F20" stroke-width="0.99" stroke-miterlimit="10" stroke-linecap="round"/>
</g>
<path d="M40.666 50.7988L46.8477 36.5117H49.5137L55.7051 50.7988H52.7559L48.6445 40.7207C48.5208 40.4277 48.4167 40.1478 48.332 39.8809C48.2474 39.6074 48.1693 39.347 48.0977 39.0996H48C47.9219 39.347 47.8405 39.6074 47.7559 39.8809C47.6712 40.1543 47.5703 40.4342 47.4531 40.7207L43.3125 50.7988H40.666ZM43.5273 47.4688L44.2891 45.4473H51.9453L52.707 47.4688H43.5273ZM57.1895 50.7988V36.5801H63.3906C65.2201 36.5801 66.6198 36.9707 67.5898 37.752C68.5664 38.5332 69.0547 39.6758 69.0547 41.1797C69.0547 42.651 68.5697 43.7936 67.5996 44.6074C66.6296 45.4212 65.2233 45.8151 63.3809 45.7891H59.9043V50.7988H57.1895ZM59.9043 43.7773H63.1465C64.3184 43.7773 65.1452 43.5527 65.627 43.1035C66.1087 42.6478 66.3496 42.0098 66.3496 41.1895C66.3496 40.3626 66.1087 39.7311 65.627 39.2949C65.1452 38.8522 64.3184 38.6309 63.1465 38.6309H59.9043V43.7773ZM71.1543 50.7988V36.5801H81.9648V38.6797H73.8398V42.4688H80.9688V44.5098H73.8398V48.709H82.082V50.7988H71.1543ZM84.377 50.7988V36.5801H87.0918V42.4102H94.8262V36.5801H97.5312V50.7988H94.8262V44.5195H87.0918V50.7988H84.377ZM112.971 53.6211V50.7988H101.779V53.6211H99.2891V48.709H115.461V53.6211H112.971ZM102.121 36.5801H113.576V50.291H110.9V38.6699H104.406L104.113 43.9434C104.035 45.3431 103.905 46.4531 103.723 47.2734C103.547 48.0938 103.293 48.7871 102.961 49.3535H100.344C100.773 48.722 101.092 47.9896 101.301 47.1562C101.516 46.3229 101.659 45.2161 101.73 43.8359L102.121 36.5801ZM115.588 50.7988L121.77 36.5117H124.436L130.627 50.7988H127.678L123.566 40.7207C123.443 40.4277 123.339 40.1478 123.254 39.8809C123.169 39.6074 123.091 39.347 123.02 39.0996H122.922C122.844 39.347 122.762 39.6074 122.678 39.8809C122.593 40.1543 122.492 40.4342 122.375 40.7207L118.234 50.7988H115.588ZM118.449 47.4688L119.211 45.4473H126.867L127.629 47.4688H118.449ZM130.725 38.6895V36.5801H143.801V38.6895H138.625V50.7988H135.91V38.6895H130.725ZM145.002 43.9434V43.4062C145.002 41.0365 145.692 39.2591 147.072 38.0742C148.452 36.8828 150.217 36.2871 152.365 36.2871C154.507 36.2871 156.271 36.8828 157.658 38.0742C159.051 39.2591 159.748 41.0365 159.748 43.4062V43.9434C159.748 46.3327 159.051 48.123 157.658 49.3145C156.271 50.4993 154.507 51.0918 152.365 51.0918C150.217 51.0918 148.452 50.4993 147.072 49.3145C145.692 48.123 145.002 46.3327 145.002 43.9434ZM147.785 44.1094C147.785 45.7891 148.202 47.026 149.035 47.8203C149.875 48.6081 150.985 49.002 152.365 49.002C153.745 49.002 154.859 48.6081 155.705 47.8203C156.551 47.026 156.975 45.7891 156.975 44.1094V43.2598C156.975 41.5801 156.551 40.3496 155.705 39.5684C154.865 38.7806 153.752 38.3867 152.365 38.3867C150.985 38.3867 149.875 38.7806 149.035 39.5684C148.202 40.3496 147.785 41.5768 147.785 43.25V44.1094ZM162.326 50.7988V36.5801H168.527C170.357 36.5801 171.757 36.9707 172.727 37.752C173.703 38.5332 174.191 39.6758 174.191 41.1797C174.191 42.651 173.706 43.7936 172.736 44.6074C171.766 45.4212 170.36 45.8151 168.518 45.7891H165.041V50.7988H162.326ZM165.041 43.7773H168.283C169.455 43.7773 170.282 43.5527 170.764 43.1035C171.245 42.6478 171.486 42.0098 171.486 41.1895C171.486 40.3626 171.245 39.7311 170.764 39.2949C170.282 38.8522 169.455 38.6309 168.283 38.6309H165.041V43.7773ZM174.533 50.7988L180.715 36.5117H183.381L189.572 50.7988H186.623L182.512 40.7207C182.388 40.4277 182.284 40.1478 182.199 39.8809C182.115 39.6074 182.036 39.347 181.965 39.0996H181.867C181.789 39.347 181.708 39.6074 181.623 39.8809C181.538 40.1543 181.438 40.4342 181.32 40.7207L177.18 50.7988H174.533ZM177.395 47.4688L178.156 45.4473H185.812L186.574 47.4688H177.395ZM191.057 50.7988V36.5801H194.27L199.045 46.834C199.143 47.0423 199.24 47.2539 199.338 47.4688C199.436 47.6771 199.51 47.8561 199.562 48.0059H199.621C199.673 47.8561 199.742 47.6771 199.826 47.4688C199.911 47.2539 199.999 47.0423 200.09 46.834L204.924 36.5801H208.205V50.7988H205.529L205.539 41.1504C205.539 40.9486 205.546 40.7337 205.559 40.5059C205.572 40.2715 205.585 40.0566 205.598 39.8613H205.529C205.484 40.0566 205.425 40.2715 205.354 40.5059C205.288 40.7337 205.21 40.9486 205.119 41.1504L200.607 50.7988H198.303L193.811 41.1504C193.713 40.9551 193.628 40.7435 193.557 40.5156C193.485 40.2812 193.426 40.0632 193.381 39.8613H193.312C193.326 40.0632 193.339 40.2812 193.352 40.5156C193.371 40.7435 193.381 40.9583 193.381 41.1602V50.7988H191.057Z" fill="white"/>
</g>
<defs>
<clipPath id="clip0_8999_21635">
<rect x="0.8125" width="535.5" height="227" rx="16" fill="white"/>
</clipPath>
<clipPath id="clip1_8999_21635">
<rect width="235.121" height="227.454" fill="white" transform="matrix(-0.997057 0.0766591 0.0766591 0.997057 490.812 3)"/>
</clipPath>
</defs>
</svg>
