<svg width="536" height="227" viewBox="0 0 536 227" fill="none" xmlns="http://www.w3.org/2000/svg">
<rect x="0.3125" width="535.5" height="227" rx="16" fill="#7099ED"/>
<path d="M40.166 50.7988L46.3477 36.5117H49.0137L55.2051 50.7988H52.2559L48.1445 40.7207C48.0208 40.4277 47.9167 40.1478 47.832 39.8809C47.7474 39.6074 47.6693 39.347 47.5977 39.0996H47.5C47.4219 39.347 47.3405 39.6074 47.2559 39.8809C47.1712 40.1543 47.0703 40.4342 46.9531 40.7207L42.8125 50.7988H40.166ZM43.0273 47.4688L43.7891 45.4473H51.4453L52.207 47.4688H43.0273ZM56.6895 50.7988V36.5801H62.8906C64.7201 36.5801 66.1198 36.9707 67.0898 37.752C68.0664 38.5332 68.5547 39.6758 68.5547 41.1797C68.5547 42.651 68.0697 43.7936 67.0996 44.6074C66.1296 45.4212 64.7233 45.8151 62.8809 45.7891H59.4043V50.7988H56.6895ZM59.4043 43.7773H62.6465C63.8184 43.7773 64.6452 43.5527 65.127 43.1035C65.6087 42.6478 65.8496 42.0098 65.8496 41.1895C65.8496 40.3626 65.6087 39.7311 65.127 39.2949C64.6452 38.8522 63.8184 38.6309 62.6465 38.6309H59.4043V43.7773ZM70.6543 50.7988V36.5801H81.4648V38.6797H73.3398V42.4688H80.4688V44.5098H73.3398V48.709H81.582V50.7988H70.6543ZM83.877 50.7988V36.5801H86.5918V42.4102H94.3262V36.5801H97.0312V50.7988H94.3262V44.5195H86.5918V50.7988H83.877ZM112.471 53.6211V50.7988H101.279V53.6211H98.7891V48.709H114.961V53.6211H112.471ZM101.621 36.5801H113.076V50.291H110.4V38.6699H103.906L103.613 43.9434C103.535 45.3431 103.405 46.4531 103.223 47.2734C103.047 48.0938 102.793 48.7871 102.461 49.3535H99.8438C100.273 48.722 100.592 47.9896 100.801 47.1562C101.016 46.3229 101.159 45.2161 101.23 43.8359L101.621 36.5801ZM116.201 43.9434V43.4062C116.201 41.0365 116.891 39.2591 118.271 38.0742C119.652 36.8828 121.416 36.2871 123.564 36.2871C125.706 36.2871 127.471 36.8828 128.857 38.0742C130.251 39.2591 130.947 41.0365 130.947 43.4062V43.9434C130.947 46.3327 130.251 48.123 128.857 49.3145C127.471 50.4993 125.706 51.0918 123.564 51.0918C121.416 51.0918 119.652 50.4993 118.271 49.3145C116.891 48.123 116.201 46.3327 116.201 43.9434ZM118.984 44.1094C118.984 45.7891 119.401 47.026 120.234 47.8203C121.074 48.6081 122.184 49.002 123.564 49.002C124.945 49.002 126.058 48.6081 126.904 47.8203C127.751 47.026 128.174 45.7891 128.174 44.1094V43.2598C128.174 41.5801 127.751 40.3496 126.904 39.5684C126.064 38.7806 124.951 38.3867 123.564 38.3867C122.184 38.3867 121.074 38.7806 120.234 39.5684C119.401 40.3496 118.984 41.5768 118.984 43.25V44.1094ZM145.732 53.6211V50.7988H134.541V53.6211H132.051V48.709H148.223V53.6211H145.732ZM134.883 36.5801H146.338V50.291H143.662V38.6699H137.168L136.875 43.9434C136.797 45.3431 136.667 46.4531 136.484 47.2734C136.309 48.0938 136.055 48.7871 135.723 49.3535H133.105C133.535 48.722 133.854 47.9896 134.062 47.1562C134.277 46.3229 134.421 45.2161 134.492 43.8359L134.883 36.5801ZM148.35 50.7988L154.531 36.5117H157.197L163.389 50.7988H160.439L156.328 40.7207C156.204 40.4277 156.1 40.1478 156.016 39.8809C155.931 39.6074 155.853 39.347 155.781 39.0996H155.684C155.605 39.347 155.524 39.6074 155.439 39.8809C155.355 40.1543 155.254 40.4342 155.137 40.7207L150.996 50.7988H148.35ZM151.211 47.4688L151.973 45.4473H159.629L160.391 47.4688H151.211ZM163.486 38.6895V36.5801H176.562V38.6895H171.387V50.7988H168.672V38.6895H163.486ZM178.408 50.7988V36.5801H189.219V38.6797H181.094V42.4688H188.223V44.5098H181.094V48.709H189.336V50.7988H178.408ZM193.291 36.5801H204.707V50.7988H202.002V38.6699H195.576L195.215 45.3887C195.124 47.2507 194.821 48.6634 194.307 49.627C193.792 50.5905 192.816 51.0723 191.377 51.0723C191.156 51.0723 190.944 51.056 190.742 51.0234C190.54 50.9974 190.342 50.9486 190.146 50.877V48.5723C190.296 48.6243 190.436 48.6602 190.566 48.6797C190.703 48.6992 190.843 48.709 190.986 48.709C191.631 48.709 192.083 48.4355 192.344 47.8887C192.604 47.3418 192.77 46.3913 192.842 45.0371L193.291 36.5801ZM219.307 50.7988H216.592V45.457H211.875L211.387 45.2031C210.15 45.0404 209.202 44.5781 208.545 43.8164C207.887 43.0547 207.559 42.1009 207.559 40.9551C207.559 39.6139 208.037 38.5495 208.994 37.7617C209.958 36.974 211.315 36.5801 213.066 36.5801H219.307V50.7988ZM216.592 43.4551V38.6113H213.291C212.152 38.6113 211.364 38.8262 210.928 39.2559C210.492 39.679 210.273 40.2552 210.273 40.9844C210.273 41.7201 210.492 42.3158 210.928 42.7715C211.364 43.2272 212.152 43.4551 213.291 43.4551H216.592ZM209.785 50.7988H206.895L211.025 44.2656H213.779L209.785 50.7988ZM222.549 50.7988V36.5801H225.762L230.537 46.834C230.635 47.0423 230.732 47.2539 230.83 47.4688C230.928 47.6771 231.003 47.8561 231.055 48.0059H231.113C231.165 47.8561 231.234 47.6771 231.318 47.4688C231.403 47.2539 231.491 47.0423 231.582 46.834L236.416 36.5801H239.697V50.7988H237.021L237.031 41.1504C237.031 40.9486 237.038 40.7337 237.051 40.5059C237.064 40.2715 237.077 40.0566 237.09 39.8613H237.021C236.976 40.0566 236.917 40.2715 236.846 40.5059C236.781 40.7337 236.702 40.9486 236.611 41.1504L232.1 50.7988H229.795L225.303 41.1504C225.205 40.9551 225.12 40.7435 225.049 40.5156C224.977 40.2812 224.919 40.0632 224.873 39.8613H224.805C224.818 40.0632 224.831 40.2812 224.844 40.5156C224.863 40.7435 224.873 40.9583 224.873 41.1602V50.7988H222.549Z" fill="white"/>
</svg>
