<svg width="559" height="221" viewBox="0 0 589 221" fill="none" xmlns="http://www.w3.org/2000/svg">
<g clip-path="url(#clip0_8906_22007)">
<rect y="0.482422" width="589" height="220" rx="32" fill="#7099ED"/>
<path d="M51.9023 50.4824H49.2461V40.9609C49.2461 40.7526 49.2493 40.5247 49.2559 40.2773C49.2624 40.0234 49.2721 39.7956 49.2852 39.5938H49.168C49.0703 39.7891 48.9727 39.9811 48.875 40.1699C48.7839 40.3587 48.6536 40.5638 48.4844 40.7852L41.4824 50.4824H38.6113V36.2637H41.2773V45.7754C41.2773 45.9772 41.2708 46.2018 41.2578 46.4492C41.2513 46.6966 41.2448 46.9245 41.2383 47.1328H41.375C41.4466 46.9701 41.5345 46.7845 41.6387 46.5762C41.7493 46.3678 41.8763 46.1628 42.0195 45.9609L49.0312 36.2637H51.9023V50.4824ZM54.4902 43.6465V43.0996C54.4902 40.7103 55.1706 38.9264 56.5312 37.748C57.8919 36.5632 59.6465 35.9707 61.7949 35.9707C63.7806 35.9707 65.3626 36.3906 66.541 37.2305C67.7194 38.0638 68.3704 39.304 68.4941 40.9512L68.5137 41.1562H65.7695L65.7598 40.9414C65.6686 39.9583 65.2812 39.2357 64.5977 38.7734C63.9206 38.3047 62.9766 38.0703 61.7656 38.0703C60.4245 38.0703 59.3405 38.4674 58.5137 39.2617C57.6934 40.056 57.2832 41.2734 57.2832 42.9141V43.832C57.2832 45.5443 57.6934 46.7812 58.5137 47.543C59.3405 48.3047 60.4245 48.6855 61.7656 48.6855C63.1198 48.6855 64.1029 48.4219 64.7148 47.8945C65.3268 47.3607 65.6751 46.6641 65.7598 45.8047L65.7695 45.5996H68.5137L68.5039 45.8145C68.3932 47.3379 67.7682 48.5456 66.6289 49.4375C65.4961 50.3294 63.888 50.7754 61.8047 50.7754C59.6432 50.7754 57.8822 50.196 56.5215 49.0371C55.1673 47.8717 54.4902 46.0749 54.4902 43.6465ZM70.5254 50.4824V36.2637H83.582V50.4824H80.8672V38.3535H73.2402V50.4824H70.5254ZM86.1699 43.627V43.0898C86.1699 40.7201 86.86 38.9427 88.2402 37.7578C89.6204 36.5664 91.3848 35.9707 93.5332 35.9707C95.6751 35.9707 97.4395 36.5664 98.8262 37.7578C100.219 38.9427 100.916 40.7201 100.916 43.0898V43.627C100.916 46.0163 100.219 47.8066 98.8262 48.998C97.4395 50.1829 95.6751 50.7754 93.5332 50.7754C91.3848 50.7754 89.6204 50.1829 88.2402 48.998C86.86 47.8066 86.1699 46.0163 86.1699 43.627ZM88.9531 43.793C88.9531 45.4727 89.3698 46.7096 90.2031 47.5039C91.043 48.2917 92.153 48.6855 93.5332 48.6855C94.9134 48.6855 96.0267 48.2917 96.873 47.5039C97.7194 46.7096 98.1426 45.4727 98.1426 43.793V42.9434C98.1426 41.2637 97.7194 40.0332 96.873 39.252C96.0332 38.4642 94.9199 38.0703 93.5332 38.0703C92.153 38.0703 91.043 38.4642 90.2031 39.252C89.3698 40.0332 88.9531 41.2604 88.9531 42.9336V43.793ZM105.154 36.2637H116.57V50.4824H113.865V38.3535H107.439L107.078 45.0723C106.987 46.9342 106.684 48.347 106.17 49.3105C105.656 50.2741 104.679 50.7559 103.24 50.7559C103.019 50.7559 102.807 50.7396 102.605 50.707C102.404 50.681 102.205 50.6322 102.01 50.5605V48.2559C102.16 48.3079 102.299 48.3438 102.43 48.3633C102.566 48.3828 102.706 48.3926 102.85 48.3926C103.494 48.3926 103.947 48.1191 104.207 47.5723C104.467 47.0254 104.633 46.0749 104.705 44.7207L105.154 36.2637ZM119.881 50.4824V36.2637H122.596V42.0938H130.33V36.2637H133.035V50.4824H130.33V44.2031H122.596V50.4824H119.881ZM149.559 50.4824H146.902V40.9609C146.902 40.7526 146.906 40.5247 146.912 40.2773C146.919 40.0234 146.928 39.7956 146.941 39.5938H146.824C146.727 39.7891 146.629 39.9811 146.531 40.1699C146.44 40.3587 146.31 40.5638 146.141 40.7852L139.139 50.4824H136.268V36.2637H138.934V45.7754C138.934 45.9772 138.927 46.2018 138.914 46.4492C138.908 46.6966 138.901 46.9245 138.895 47.1328H139.031C139.103 46.9701 139.191 46.7845 139.295 46.5762C139.406 46.3678 139.533 46.1628 139.676 45.9609L146.688 36.2637H149.559V50.4824ZM151.404 38.373V36.2637H164.48V38.373H159.305V50.4824H156.59V38.373H151.404ZM166.326 50.4824V36.2637H177.137V38.3633H169.012V42.1523H176.141V44.1934H169.012V48.3926H177.254V50.4824H166.326ZM181.209 36.2637H192.625V50.4824H189.92V38.3535H183.494L183.133 45.0723C183.042 46.9342 182.739 48.347 182.225 49.3105C181.71 50.2741 180.734 50.7559 179.295 50.7559C179.074 50.7559 178.862 50.7396 178.66 50.707C178.458 50.681 178.26 50.6322 178.064 50.5605V48.2559C178.214 48.3079 178.354 48.3438 178.484 48.3633C178.621 48.3828 178.761 48.3926 178.904 48.3926C179.549 48.3926 180.001 48.1191 180.262 47.5723C180.522 47.0254 180.688 46.0749 180.76 44.7207L181.209 36.2637ZM207.225 50.4824H204.51V45.1406H199.793L199.305 44.8867C198.068 44.724 197.12 44.2617 196.463 43.5C195.805 42.7383 195.477 41.7845 195.477 40.6387C195.477 39.2975 195.955 38.2331 196.912 37.4453C197.876 36.6576 199.233 36.2637 200.984 36.2637H207.225V50.4824ZM204.51 43.1387V38.2949H201.209C200.07 38.2949 199.282 38.5098 198.846 38.9395C198.41 39.3626 198.191 39.9388 198.191 40.668C198.191 41.4036 198.41 41.9993 198.846 42.4551C199.282 42.9108 200.07 43.1387 201.209 43.1387H204.51ZM197.703 50.4824H194.812L198.943 43.9492H201.697L197.703 50.4824ZM210.467 50.4824V36.2637H213.68L218.455 46.5176C218.553 46.7259 218.65 46.9375 218.748 47.1523C218.846 47.3607 218.921 47.5397 218.973 47.6895H219.031C219.083 47.5397 219.152 47.3607 219.236 47.1523C219.321 46.9375 219.409 46.7259 219.5 46.5176L224.334 36.2637H227.615V50.4824H224.939L224.949 40.834C224.949 40.6322 224.956 40.4173 224.969 40.1895C224.982 39.9551 224.995 39.7402 225.008 39.5449H224.939C224.894 39.7402 224.835 39.9551 224.764 40.1895C224.699 40.4173 224.62 40.6322 224.529 40.834L220.018 50.4824H217.713L213.221 40.834C213.123 40.6387 213.038 40.4271 212.967 40.1992C212.895 39.9648 212.837 39.7467 212.791 39.5449H212.723C212.736 39.7467 212.749 39.9648 212.762 40.1992C212.781 40.4271 212.791 40.6419 212.791 40.8438V50.4824H210.467Z" fill="white"/>
<g clip-path="url(#clip1_8906_22007)">
<path d="M528.77 214.574H520.938C522.101 213.466 523.036 212.234 523.7 210.902H528.77C529.14 210.902 529.445 211.2 529.445 211.568V213.903C529.445 214.27 529.14 214.574 528.77 214.574Z" fill="#231F20"/>
<path d="M519.135 214.574H516.242C518.001 213.555 519.414 212.308 520.413 210.902H523.7C523.036 212.234 522.102 213.466 520.938 214.574C520.548 214.946 520.139 215.299 519.699 215.642L519.135 214.574Z" fill="#231F20"/>
<path d="M521.707 210.902H520.418C520.977 210.117 521.407 209.278 521.687 208.403C522.861 204.752 521.347 200.867 519.953 198.348C519.589 197.693 519.793 196.873 520.433 196.471C520.668 196.322 520.927 196.252 521.187 196.252C521.687 196.252 522.171 196.515 522.431 196.987C524.08 199.963 525.873 204.643 524.384 209.258C524.204 209.819 523.98 210.37 523.705 210.902H521.707Z" fill="#231F20"/>
<path d="M500.984 210.901V187.389H528.28V210.901H523.704C523.978 210.37 524.203 209.818 524.383 209.257C525.872 204.642 524.078 199.962 522.43 196.986C522.17 196.515 521.686 196.251 521.186 196.251C520.926 196.251 520.666 196.321 520.432 196.47C519.792 196.872 519.587 197.692 519.952 198.348C521.346 200.866 522.859 204.751 521.686 208.402C521.406 209.277 520.976 210.116 520.417 210.901H500.984Z" fill="#7099ED"/>
<path d="M516.244 214.574H500.573C500.203 214.574 499.898 214.27 499.898 213.903V211.568C499.898 211.2 500.203 210.902 500.573 210.902H520.415C519.416 212.308 518.002 213.555 516.244 214.574Z" fill="#231F20"/>
<path d="M528.275 214.652C529.643 214.652 530.747 215.75 530.747 217.111C530.747 218.473 529.643 219.575 528.275 219.575C526.906 219.575 525.797 218.473 525.797 217.111C525.797 215.75 526.906 214.652 528.275 214.652Z" fill="#231F20"/>
<path d="M499.898 182.312C499.898 174.816 506.008 168.74 513.546 168.74H515.799C523.332 168.74 529.447 174.816 529.447 182.312V183.718H499.898V182.312Z" fill="#7099ED"/>
<path d="M528.278 187.39H500.573C500.203 187.39 499.898 187.092 499.898 186.724V184.389C499.898 184.022 500.203 183.719 500.573 183.719H528.772C529.142 183.719 529.447 184.022 529.447 184.389V186.724C529.447 187.092 529.142 187.39 528.772 187.39H528.278Z" fill="#231F20"/>
<path d="M503.99 217.34C502.271 217.231 500.633 216.908 499.164 216.386C499.474 215.378 500.413 214.652 501.527 214.652C502.896 214.652 504.005 215.75 504.005 217.111C504.005 217.186 504 217.265 503.99 217.34Z" fill="#231F20"/>
<path d="M499.165 216.387C500.633 216.908 502.272 217.231 503.99 217.341C503.88 218.592 502.821 219.576 501.527 219.576C501.358 219.576 501.188 219.556 501.028 219.526C499.899 219.298 499.055 218.304 499.055 217.112C499.055 216.859 499.095 216.615 499.165 216.387Z" fill="#231F20"/>
<path d="M501.526 219.575C502.82 219.575 503.879 218.591 503.989 217.339C506.706 217.518 509.629 217.17 512.401 216.271C513.815 215.814 515.099 215.238 516.243 214.572H519.135L519.7 215.64C517.926 217.016 515.758 218.144 513.28 218.949C510.663 219.798 507.955 220.216 505.353 220.216C503.849 220.216 502.375 220.077 500.977 219.798L501.027 219.525C501.186 219.555 501.356 219.575 501.526 219.575Z" fill="#231F20"/>
<path d="M484.603 81.5946C483.723 81.5946 482.5 81.4704 481.271 80.8445C475.711 77.9979 476.22 67.9928 476.295 66.5422C476.63 60.2629 479.357 55.5038 481.535 51.7034C482.999 49.15 484.453 47.1628 485.527 45.8066C492.371 49.9498 495.633 64.6296 501.287 83.0005C501.327 83.1296 501.377 83.2936 501.397 83.3482C500.338 84.7889 498.975 86.4183 497.246 88.0627C494.928 90.2684 492.635 91.8481 490.737 92.9659H490.732C490.282 90.3876 488.509 87.2728 486.97 85.3105C485.852 83.8897 484.703 82.8614 483.808 82.1659C484.083 81.9572 484.353 81.7685 484.603 81.5946Z" fill="#7099ED"/>
<path d="M499.051 217.111C499.051 218.304 499.895 219.297 501.024 219.526L500.974 219.799C498.461 219.312 496.178 218.383 494.33 217.042C491.602 215.06 489.704 212.164 488.515 208.179C485.543 198.179 489.374 190.33 493.81 181.244C496.453 175.824 499.45 169.684 501.303 162.307C506.204 142.744 504.001 126.514 495.099 116.613C493.376 114.696 491.397 112.992 489.224 111.516C484.529 108.317 478.939 106.201 473.164 105.391C473.309 104.954 473.484 104.477 473.724 103.98C473.953 103.508 474.218 103.081 474.498 102.693C479.703 103.528 484.709 105.356 489.13 108.059C492.132 109.897 494.864 112.132 497.207 114.735C506.759 125.356 509.186 142.49 504.051 162.987C502.128 170.648 499.066 176.932 496.358 182.471C492.007 191.388 488.57 198.428 491.233 207.38C492.237 210.748 493.795 213.167 496.003 214.767C496.917 215.432 497.986 215.974 499.16 216.386C499.09 216.615 499.051 216.858 499.051 217.111Z" fill="#231F20"/>
<path d="M472.235 92.3053C477.47 87.3574 481.667 83.7557 483.805 82.166C484.699 82.8615 485.848 83.8898 486.967 85.3106C488.505 87.2729 490.279 90.3877 490.728 92.966C490.958 94.2526 490.853 95.4052 490.224 96.2199C490.024 96.4832 489.839 96.6173 488.845 96.8806C487.941 97.1191 486.372 97.4569 483.505 98.0878C479.469 98.977 478.989 99.0962 478.17 99.5582C477.49 99.9457 475.792 100.909 474.498 102.693C474.218 103.08 473.954 103.508 473.724 103.98C473.484 104.476 473.309 104.953 473.164 105.39C472.79 106.488 472.57 107.333 471.811 107.551C471.271 107.705 471.116 107.353 469.872 107.248C468.943 107.169 468.249 107.303 467.105 107.522C466.43 107.651 465.546 107.854 464.537 108.207C464.147 108.967 463.638 109.742 463.153 109.683C462.444 109.598 461.944 107.775 461.785 105.53C461.725 104.615 461.715 103.632 461.775 102.668C461.795 102.315 461.825 101.968 461.865 101.625C462.129 99.3248 462.564 95.5045 465.426 93.6664C466.605 92.9014 467.849 92.7077 469.278 92.4841C470.357 92.3152 471.356 92.2755 472.235 92.3053Z" fill="#FF8B63"/>
<path d="M488.847 96.8809C488.932 100.597 489.027 104.318 489.132 108.058C484.711 105.356 479.705 103.528 474.5 102.693C475.794 100.91 477.492 99.946 478.172 99.5585C478.991 99.0965 479.47 98.9773 483.507 98.088C486.374 97.4571 487.943 97.1193 488.847 96.8809Z" fill="white"/>
<path d="M487.327 27.2129C488.626 28.0177 489.226 30.6903 488.681 33.671C488.062 37.0541 486.198 39.5529 484.515 39.2498C482.831 38.9468 481.972 35.9562 482.592 32.5682C482.856 31.1275 483.346 29.8458 483.95 28.8771C484.19 29.2547 484.495 29.503 484.86 29.5676C485.754 29.7266 486.728 28.743 487.327 27.2129Z" fill="#231F20"/>
<path d="M486.761 26.9897C486.965 27.0245 487.155 27.104 487.33 27.2132C486.731 28.7433 485.756 29.7269 484.862 29.568C484.498 29.5034 484.193 29.255 483.953 28.8775C484.767 27.566 485.791 26.8158 486.761 26.9897Z" fill="#231F20"/>
<path d="M484.836 11.7322C486.585 12.0501 487.484 15.1649 486.84 18.6871C486.685 19.5316 486.455 20.3265 486.17 21.0418C485.181 21.0816 484.152 22.4328 483.667 24.3007C483.278 24.4944 482.888 24.564 482.504 24.4944C482.259 24.4497 482.034 24.3554 481.824 24.2113C482.434 21.4542 482.134 18.5579 480.875 16.0144C481.729 13.2971 483.353 11.4689 484.836 11.7322Z" fill="#231F20"/>
<path d="M486.412 21.0578C487.581 21.2664 488.181 23.343 487.751 25.6927C487.651 26.2392 487.506 26.7509 487.326 27.2129C487.152 27.1036 486.962 27.0241 486.757 26.9893C485.788 26.8154 484.764 27.5656 483.95 28.8771C483.415 28.0375 483.225 26.5472 483.525 24.9277C483.565 24.7141 483.61 24.5054 483.665 24.3017C484.614 23.8348 485.528 22.6425 486.168 21.0429C486.247 21.0379 486.332 21.0429 486.412 21.0578Z" fill="#231F20"/>
<path d="M486.175 21.043C485.535 22.6426 484.621 23.8349 483.672 24.3018C484.156 22.4339 485.186 21.0827 486.175 21.043Z" fill="#231F20"/>
<path d="M483.18 221.612C483.625 224.816 483.779 225.467 483.33 226.192C482.461 227.588 480.298 227.652 476.002 227.722C471.166 227.801 468.728 227.811 467.849 226.396C467.04 225.094 467.939 222.998 468.738 221.04C469.063 220.25 469.512 219.371 470.372 217.702C470.556 217.334 470.736 216.992 470.896 216.688C471.426 216.038 472.899 214.433 475.337 213.911C477.89 213.37 481.187 214.08 482.061 215.72C482.186 215.943 482.316 216.296 482.501 216.286H482.506C482.65 217.548 482.87 219.386 483.18 221.612Z" fill="white"/>
<path d="M480.873 16.0156C482.132 18.5591 482.431 21.4554 481.822 24.2125C480.528 23.3133 479.944 20.581 480.498 17.5457C480.598 17.0142 480.723 16.4975 480.873 16.0156Z" fill="#231F20"/>
<path d="M457.714 19.3139C457.599 18.6184 457.519 17.5901 457.804 16.4376C458.823 12.2994 463.644 10.0043 466.971 9.43795C471.387 8.68781 477.346 10.1036 480.389 15.1261C480.564 15.4192 480.728 15.7123 480.873 16.0153C480.723 16.4972 480.599 17.0138 480.499 17.5454C479.944 20.5807 480.529 23.313 481.822 24.2122C481.283 26.6613 480.029 28.9912 478.086 30.869C477.776 30.094 477.471 29.319 477.162 28.5441C478.59 27.4164 479.295 25.7422 478.925 24.242C478.685 23.2931 477.856 21.7481 476.427 21.6885C475.258 21.6438 474.434 22.6225 474.304 22.7814C474.154 22.3641 472.781 18.6582 468.769 17.3864C464.308 15.9756 460.737 18.8767 460.517 19.0655C460.492 19.0158 460.122 18.2756 459.343 18.1912C458.658 18.1117 457.959 18.5687 457.714 19.3139Z" fill="#231F20"/>
<path d="M482.985 213.362C483.51 214.668 482.905 216.263 482.506 216.288H482.501C482.316 216.298 482.186 215.945 482.061 215.721C481.187 214.082 477.89 213.372 475.337 213.913C472.899 214.435 471.426 216.039 470.896 216.685C470.901 216.432 470.911 216.173 470.916 215.91C471.116 207.624 471.151 193.64 470.996 185.184C470.981 184.235 470.961 183.292 470.936 182.348C470.831 177.892 470.676 173.51 470.477 169.213C471.001 169.253 471.526 169.292 472.05 169.327C475.632 169.576 479.109 169.72 482.456 169.774C482.631 175.234 482.76 180.763 482.85 186.362C482.965 193.416 483.01 206.526 482.985 213.362Z" fill="#7099ED"/>
<path d="M465.419 26.1448C465.564 26.7707 465.329 27.3619 464.894 27.4563C464.459 27.5556 463.99 27.1234 463.845 26.4975C463.705 25.8666 463.94 25.2804 464.375 25.181C464.809 25.0866 465.279 25.5139 465.419 26.1448Z" fill="#231F20"/>
<path d="M465.279 53.2784C466.468 54.6743 472.543 51.952 483.493 45.1113C482.608 45.8913 481.714 46.7805 480.84 47.7741C476.584 52.6077 474.656 57.8636 473.727 61.6292C470.599 61.7385 466.783 62.1657 462.562 63.2984C460.304 63.9094 458.276 64.6298 456.492 65.37C456.962 63.363 457.751 60.9437 459.105 58.3853C461.183 54.4557 463.85 51.6042 466.198 49.6171C465.109 51.4949 464.8 52.717 465.279 53.2784Z" fill="#7099ED"/>
<path d="M481.269 80.845C482.498 81.471 483.722 81.5952 484.601 81.5952C484.352 81.769 484.082 81.9578 483.807 82.1665C481.669 83.7561 477.473 87.3578 472.238 92.3057C471.358 92.2759 470.359 92.3156 469.28 92.4846C467.852 92.7081 466.608 92.9018 465.429 93.6669C462.566 95.505 462.132 99.3252 461.867 101.625C461.827 101.968 461.797 102.316 461.777 102.669C461.358 102.738 460.933 102.813 460.513 102.897C458.405 103.304 456.427 103.871 454.584 104.551C454.868 103.602 455.153 102.659 455.443 101.72C456.382 98.6446 457.336 95.6093 458.305 92.6087C457.971 90.9445 456.127 81.8137 455.843 80.3979C454.898 75.7232 454.239 72.4892 453.924 70.3083V70.2984C453.739 68.9919 453.679 68.0629 453.764 67.427C454.963 58.4105 461.667 52.4144 462.956 51.3115C465.394 49.235 467.772 47.9533 469.47 47.1833C468.556 47.7794 467.417 48.5792 466.198 49.6125C463.85 51.6046 461.183 54.4561 459.105 58.3856C457.751 60.9441 456.962 63.3634 456.492 65.3704C458.275 64.6302 460.303 63.9098 462.561 63.2988C466.783 62.1661 470.599 61.7389 473.726 61.6296C474.655 57.864 476.584 52.6081 480.84 47.7744C481.714 46.7809 482.608 45.8917 483.492 45.1117C483.567 45.0471 483.637 44.9826 483.712 44.918C484.067 45.0968 484.367 45.216 484.596 45.3204C484.911 45.4595 485.221 45.6234 485.526 45.8072C484.452 47.1634 482.998 49.1505 481.534 51.704C479.356 55.5043 476.629 60.2635 476.294 66.5428C476.219 67.9933 475.709 77.9985 481.269 80.845Z" fill="white"/>
<path d="M461.79 105.53C461.95 107.775 462.45 109.598 463.159 109.683C463.644 109.742 464.153 108.967 464.543 108.207C465.552 107.855 466.436 107.651 467.111 107.522C468.255 107.303 468.949 107.169 469.878 107.249C471.122 107.353 471.277 107.706 471.816 107.552C472.576 107.333 472.795 106.489 473.17 105.391C478.945 106.2 484.535 108.317 489.231 111.516C489.505 121.004 489.835 130.582 490.23 140.24C490.634 150.165 491.099 159.992 491.613 169.719C488.676 169.803 485.624 169.828 482.457 169.773C479.11 169.719 475.633 169.574 472.051 169.326C471.527 169.291 471.002 169.252 470.478 169.207C465.162 168.799 460.097 168.198 455.311 167.463C451.09 166.817 447.084 166.062 443.307 165.243C442.058 164.974 440.84 164.696 439.641 164.413C441.059 157.284 442.638 150.011 444.381 142.599C446.919 131.834 449.662 121.451 452.549 111.466C452.884 110.304 453.218 109.146 453.558 107.999C455.816 107.01 458.314 106.19 461.056 105.659C461.286 105.614 461.516 105.574 461.741 105.535H461.79V105.53Z" fill="white"/>
<path d="M459.991 27.6596C460.136 28.2855 459.896 28.8767 459.461 28.9711C459.027 29.0705 458.557 28.6383 458.417 28.0123C458.272 27.3814 458.512 26.7952 458.947 26.6959C459.381 26.5965 459.846 27.0287 459.991 27.6596Z" fill="#231F20"/>
<path d="M458.942 26.6952C458.507 26.7945 458.268 27.3807 458.412 28.0116C458.552 28.6376 459.022 29.0698 459.457 28.9704C459.891 28.876 460.131 28.2849 459.986 27.6589C459.841 27.028 459.377 26.5958 458.942 26.6952ZM482.715 44.3358C483.085 44.5842 483.42 44.773 483.709 44.917C483.635 44.9816 483.565 45.0462 483.49 45.1108C472.54 51.9514 466.465 54.6738 465.276 53.2778C464.797 52.7164 465.106 51.4944 466.195 49.6166C467.414 48.5783 468.553 47.7785 469.467 47.1823C469.427 46.0149 469.258 44.5295 468.783 42.8604C468.363 41.4048 467.814 40.1976 467.314 39.2687C467.224 39.2736 467.135 39.2687 467.045 39.2637C461.335 38.9209 457.983 30.8383 457.363 25.5526C457.074 23.0786 457.348 20.9276 457.713 19.313C457.958 18.5679 458.657 18.1108 459.342 18.1903C460.121 18.2748 460.491 19.015 460.516 19.0647C460.735 18.8759 464.307 15.9747 468.768 17.3855C472.779 18.6573 474.153 22.3633 474.303 22.7806C474.433 22.6216 475.257 21.6429 476.426 21.6876C477.855 21.7473 478.684 23.2922 478.924 24.2411C479.293 25.7414 478.589 27.4155 477.16 28.5432C477.47 29.3182 477.775 30.0931 478.085 30.8681C477.72 32.2939 477.665 33.4663 477.675 34.2164C477.72 37.8975 479.378 42.0804 482.715 44.3358ZM464.892 27.4552C465.326 27.3609 465.561 26.7697 465.416 26.1438C465.276 25.5128 464.807 25.0856 464.372 25.18C463.937 25.2794 463.703 25.8656 463.843 26.4965C463.987 27.1224 464.457 27.5546 464.892 27.4552Z" fill="white"/>
<path d="M453.924 70.3086C454.238 72.4895 454.898 75.7235 455.842 80.3982C456.127 81.814 457.97 90.9448 458.305 92.609C457.336 95.6095 456.381 98.6449 455.442 101.72C455.133 102.326 454.663 103.096 453.964 103.886C453.274 104.666 452.575 105.222 452.015 105.6C451.101 106.012 450.222 106.454 449.383 106.906C448.199 105.411 447.01 103.806 445.836 102.093C445.441 101.511 445.057 100.935 444.687 100.364L444.617 100.314C446.446 97.6165 448.179 94.5365 449.518 91.2081C451.331 86.6973 452.345 81.963 452.68 80.2988C453.474 76.3594 453.794 72.9366 453.924 70.3086Z" fill="#7099ED"/>
<path d="M442.328 115.555C444.386 113.578 447.164 111.337 450.646 109.43C450.86 109.991 451.08 110.547 451.295 111.109C448.308 112.589 445.32 114.07 442.328 115.555Z" fill="#FF8B63"/>
<path d="M445.669 215.71C445.813 217.757 445.708 219.59 445.504 221.145C445.169 221.199 444.679 221.279 444.085 221.358C442.441 221.582 441.183 221.661 440.478 221.701C436.757 221.93 434.898 222.039 433.075 222.074C425.727 222.208 419.128 222.327 418.543 220.236C418.348 219.55 418.863 218.855 419.088 218.556C420.466 216.689 423.619 217.076 425.507 216.987C428.085 216.862 431.701 215.695 436.097 210.916C437.646 211.333 439.924 211.775 442.996 212.759C444.19 213.142 444.889 213.41 445.374 213.256C445.504 214.016 445.604 214.836 445.669 215.71Z" fill="white"/>
<path d="M441.255 118.82C441.105 119.44 440.535 119.704 440.466 119.739L440.311 119.748C440.291 119.272 440.066 118.78 439.656 118.387L439.951 118.054C440.156 117.821 440.371 117.578 440.605 117.324C441.125 117.667 441.385 118.268 441.255 118.82Z" fill="white"/>
<path d="M440.604 117.323C440.369 117.576 440.155 117.82 439.95 118.053L439.655 118.386L438.711 119.469C438.781 119.295 438.846 119.126 438.901 118.967C439.435 117.383 439.355 115.877 439.116 114.72L439.186 114.705C441.488 112.315 444.89 109.355 449.386 106.905C450.225 106.453 451.105 106.011 452.019 105.599C452.843 105.226 453.697 104.879 454.587 104.551C456.43 103.87 458.408 103.304 460.516 102.896C460.936 102.812 461.36 102.738 461.78 102.668C461.72 103.632 461.73 104.615 461.79 105.529H461.74C461.515 105.574 461.285 105.614 461.056 105.659C458.313 106.19 455.815 107.01 453.557 107.998C452.538 108.446 451.569 108.927 450.65 109.429C447.168 111.337 444.391 113.577 442.333 115.554C441.683 116.175 441.109 116.772 440.604 117.323Z" fill="#231F20"/>
<path d="M439.657 118.387C440.066 118.779 440.291 119.271 440.311 119.748C440.326 120.036 440.271 120.314 440.136 120.558C439.836 121.094 439.267 121.268 439.112 121.308L438.922 121.298C438.937 120.831 438.827 120.314 438.562 119.812C438.617 119.698 438.667 119.584 438.712 119.47L439.657 118.387Z" fill="#FF8B63"/>
<path d="M449.387 106.907C444.891 109.356 441.489 112.317 439.186 114.706L439.116 114.721C439.356 115.879 439.436 117.384 438.902 118.969C438.847 119.127 438.782 119.296 438.712 119.47C438.667 119.585 438.617 119.699 438.562 119.813C438.132 120.757 437.543 121.661 437.138 121.572C437.028 121.547 436.923 121.447 436.834 121.224C436.644 120.757 436.529 119.743 436.599 117.732H436.489C435.1 119.321 433.716 120.916 432.328 122.511C431.314 120.692 431.229 119.142 431.244 118.377C431.294 115.59 432.897 113.564 433.911 112.287C434.945 110.975 435.939 110.176 436.184 109.977C438.237 108.293 441.554 104.85 444.621 100.314L444.691 100.364C445.061 100.935 445.446 101.512 445.84 102.093C447.014 103.807 448.203 105.411 449.387 106.907Z" fill="#FF8B63"/>
<path d="M438.918 121.298C438.898 121.934 438.648 122.475 438.228 122.778C437.849 123.051 437.399 123.081 437.084 123.061C437.139 122.46 437.024 121.8 436.805 121.233L436.83 121.223C436.92 121.447 437.024 121.546 437.134 121.571C437.539 121.661 438.128 120.756 438.558 119.812C438.823 120.314 438.933 120.831 438.918 121.298Z" fill="#FF8B63"/>
<path d="M437.083 123.062C437.038 123.623 436.838 124.13 436.438 124.453C435.604 125.133 434.24 124.696 434.001 124.617L433.891 124.522C434.305 124.045 434.715 123.568 435.129 123.092C434.405 121.656 434.32 120.449 434.86 120.002C435.085 119.813 435.404 119.768 435.649 119.838C436.114 119.962 436.538 120.528 436.803 121.234C437.023 121.8 437.138 122.461 437.083 123.062Z" fill="#FF8B63"/>
<path d="M435.193 205.094C437.231 199.475 438.27 194.791 438.85 191.537C439.824 186.022 439.929 181.984 441.617 174.144C442.112 171.834 442.581 169.957 442.901 168.739C442.531 167.13 443.056 165.784 443.306 165.242C447.082 166.062 451.089 166.817 455.31 167.463C454.78 168.521 454.216 169.832 453.766 171.392C453.366 172.783 453.147 174.045 453.027 175.123C453.516 175.829 453.681 176.41 453.471 176.698C453.292 176.941 452.842 176.951 452.402 176.887C452.138 178.953 451.838 181.05 451.498 183.181C449.99 192.555 447.876 201.204 445.449 209.103C446.003 210.697 446.403 212.516 445.633 213.122C445.554 213.186 445.469 213.226 445.374 213.256C444.889 213.41 444.19 213.142 442.996 212.759C439.924 211.775 437.646 211.333 436.097 210.916C434.609 210.519 433.794 210.141 433.609 209.321C433.584 209.197 433.619 208.715 433.709 207.747C433.864 206.097 433.934 205.248 434.204 205.094C434.454 204.955 434.793 204.955 435.193 205.094Z" fill="#7099ED"/>
<path d="M436.599 117.732C436.529 119.743 436.644 120.757 436.834 121.224L436.809 121.234C436.544 120.528 436.119 119.962 435.655 119.838C435.41 119.768 435.09 119.813 434.866 120.002C434.326 120.449 434.411 121.656 435.135 123.092C434.721 123.569 434.311 124.046 433.896 124.522C408.569 153.808 383.238 183.093 357.911 212.373C356.387 214.136 354.164 215.15 351.826 215.15H348.539V214.33C348.539 213.227 349.433 212.338 350.542 212.338C351.711 212.338 352.845 212.085 353.879 211.613C354.918 211.141 355.847 210.455 356.612 209.576C381.849 180.554 407.091 151.532 432.328 122.511C433.717 120.916 435.1 119.321 436.489 117.727H436.599V117.732Z" fill="#231F20"/>
<path d="M351.663 215.18V221.777H322.25V218.478L336.957 215.18H351.663Z" fill="#231F20"/>
<path d="M457.713 19.3145C457.348 20.929 457.074 23.08 457.363 25.554C457.983 30.8397 461.335 38.9223 467.045 39.2651C467.135 39.2701 467.224 39.275 467.314 39.2701C471.326 39.3396 474.483 35.5393 475.327 34.4513" stroke="#231F20" stroke-width="0.6" stroke-miterlimit="10"/>
<path d="M467.313 39.2637C467.313 39.2637 467.312 39.2686 467.317 39.2686C467.817 40.1976 468.367 41.4048 468.786 42.8604C469.261 44.5295 469.431 46.0149 469.471 47.1823C469.476 47.2519 469.481 47.3165 469.481 47.381" stroke="#231F20" stroke-width="0.6" stroke-miterlimit="10"/>
<path d="M480.873 16.0153C480.728 15.7123 480.564 15.4192 480.389 15.1261C477.346 10.1036 471.387 8.68781 466.971 9.43795C463.644 10.0043 458.823 12.2994 457.804 16.4376C457.519 17.5901 457.599 18.6184 457.714 19.3139C457.959 18.5687 458.658 18.1117 459.343 18.1912C460.122 18.2756 460.492 19.0158 460.517 19.0655C460.737 18.8767 464.308 15.9756 468.769 17.3864C472.781 18.6582 474.154 22.3641 474.304 22.7814C474.434 22.6225 475.258 21.6438 476.427 21.6885C477.856 21.7481 478.685 23.2931 478.925 24.242C479.295 25.7422 478.59 27.4164 477.162 28.5441C477.471 29.319 477.776 30.094 478.086 30.869C480.029 28.9912 481.283 26.6613 481.822 24.2122" stroke="#231F20" stroke-width="0.6" stroke-miterlimit="10"/>
<path d="M479.164 28.0215C478.65 29.0349 478.31 29.9987 478.09 30.868C477.726 32.2938 477.671 33.4662 477.681 34.2163C477.726 37.8974 479.384 42.0803 482.721 44.3357C483.091 44.5841 483.426 44.7729 483.715 44.9169C484.07 45.0958 484.37 45.215 484.599 45.3193C484.914 45.4584 485.224 45.6224 485.529 45.8062C492.372 49.9493 495.634 64.6291 501.289 83C501.329 83.1292 501.379 83.2931 501.399 83.3477C500.34 84.7884 498.976 86.4178 497.248 88.0622C494.93 90.2679 492.637 91.8476 490.739 92.9654" stroke="#231F20" stroke-width="0.6" stroke-miterlimit="10"/>
<path d="M482.428 59.4688C481.664 60.0351 480.645 60.9889 480.155 62.4146C479.346 64.7793 480.46 66.9999 481.933 70.0799C482.987 72.2856 484.611 75.7333 486.649 80.3285" stroke="#231F20" stroke-width="0.6" stroke-miterlimit="10"/>
<path d="M484.606 81.5957C484.356 81.7696 484.086 81.9583 483.812 82.167C481.674 83.7567 477.477 87.3583 472.242 92.3063" stroke="#231F20" stroke-width="0.6" stroke-miterlimit="10"/>
<path d="M490.329 78.7285C489.545 78.9868 488.391 79.419 487.067 80.1046C486.962 80.1543 486.822 80.2288 486.648 80.3281C486.183 80.5815 485.469 80.9988 484.609 81.5949" stroke="#231F20" stroke-width="0.6" stroke-miterlimit="10"/>
<path d="M485.527 45.8066C484.453 47.1628 482.999 49.15 481.535 51.7034C479.357 55.5038 476.63 60.2629 476.295 66.5422C476.22 67.9928 475.711 77.9979 481.271 80.8445C482.5 81.4704 483.723 81.5946 484.603 81.5946H484.608" stroke="#231F20" stroke-width="0.6" stroke-miterlimit="10"/>
<path d="M474.713 92.5835C474.063 92.4593 473.224 92.34 472.235 92.3053C471.356 92.2755 470.357 92.3152 469.278 92.4841C467.849 92.7077 466.605 92.9014 465.426 93.6664C462.564 95.5045 462.129 99.3248 461.865 101.625C461.825 101.968 461.795 102.315 461.775 102.668C461.715 103.632 461.725 104.615 461.785 105.53C461.944 107.775 462.444 109.598 463.153 109.683C463.638 109.742 464.147 108.967 464.537 108.207C465.546 107.854 466.43 107.651 467.105 107.522C468.249 107.303 468.943 107.169 469.872 107.248C471.116 107.353 471.271 107.705 471.811 107.551C472.57 107.333 472.79 106.488 473.164 105.39C473.309 104.953 473.484 104.476 473.724 103.98C473.954 103.508 474.218 103.08 474.498 102.693C475.792 100.909 477.49 99.9457 478.17 99.5582C478.989 99.0962 479.469 98.977 483.505 98.0878C486.372 97.4569 487.941 97.1191 488.845 96.8806C489.839 96.6173 490.024 96.4832 490.224 96.2199C490.853 95.4052 490.958 94.2526 490.728 92.966C490.279 90.3877 488.505 87.2729 486.967 85.3106C485.848 83.8898 484.699 82.8615 483.805 82.166" stroke="#231F20" stroke-width="0.6" stroke-miterlimit="10"/>
<path d="M476.688 94.4512C476.907 94.5654 477.227 94.779 477.482 95.1367C478.131 96.0508 477.826 97.1338 477.777 97.2977" stroke="#231F20" stroke-width="0.6" stroke-miterlimit="10"/>
<path d="M435.26 122.948C435.22 122.997 435.175 123.042 435.135 123.092C434.721 123.569 434.311 124.046 433.896 124.522C408.569 153.808 383.238 183.093 357.911 212.373C356.387 214.136 354.164 215.15 351.826 215.15H348.539V214.33C348.539 213.227 349.433 212.338 350.542 212.338C351.711 212.338 352.845 212.085 353.879 211.613C354.918 211.141 355.847 210.455 356.612 209.576C381.849 180.554 407.091 151.532 432.328 122.511C433.717 120.916 435.1 119.321 436.489 117.727" stroke="#231F20" stroke-width="0.6" stroke-miterlimit="10"/>
<path d="M461.737 105.535C461.513 105.575 461.283 105.615 461.053 105.659C458.311 106.191 455.813 107.011 453.555 107.999C452.536 108.446 451.567 108.928 450.648 109.43C447.166 111.338 444.388 113.578 442.33 115.555C441.681 116.176 441.106 116.772 440.602 117.324C440.367 117.577 440.152 117.82 439.947 118.054L439.653 118.387L438.708 119.47L438.648 119.539" stroke="#231F20" stroke-width="0.6" stroke-miterlimit="10"/>
<path d="M474.498 102.693C479.703 103.528 484.709 105.356 489.13 108.059C492.132 109.897 494.864 112.132 497.207 114.735C506.759 125.356 509.186 142.49 504.051 162.987C502.128 170.648 499.066 176.932 496.358 182.471C492.007 191.388 488.57 198.428 491.233 207.38C492.237 210.748 493.795 213.167 496.003 214.767C496.917 215.432 497.986 215.974 499.16 216.386C500.629 216.908 502.268 217.231 503.986 217.34C506.704 217.519 509.626 217.171 512.398 216.272C513.812 215.815 515.096 215.239 516.24 214.573C517.998 213.555 519.412 212.308 520.411 210.902C520.971 210.117 521.4 209.277 521.68 208.403C522.854 204.752 521.34 200.867 519.947 198.348C519.582 197.692 519.787 196.873 520.426 196.47C520.661 196.321 520.921 196.252 521.18 196.252C521.68 196.252 522.165 196.515 522.424 196.987C524.073 199.963 525.866 204.642 524.378 209.257C524.198 209.819 523.973 210.37 523.698 210.902C523.034 212.233 522.1 213.465 520.936 214.573C520.546 214.946 520.136 215.298 519.697 215.641C517.923 217.017 515.755 218.145 513.278 218.95C510.66 219.799 507.952 220.216 505.35 220.216C503.846 220.216 502.373 220.077 500.974 219.799C498.461 219.312 496.178 218.383 494.33 217.042C491.602 215.06 489.704 212.164 488.515 208.179C485.543 198.179 489.374 190.33 493.81 181.244C496.453 175.824 499.45 169.684 501.303 162.307C506.204 142.744 504.001 126.514 495.099 116.613C493.376 114.696 491.397 112.992 489.224 111.516C484.529 108.317 478.939 106.201 473.164 105.391" stroke="#231F20" stroke-width="0.6" stroke-miterlimit="10"/>
<path d="M439.188 114.705C441.49 112.315 444.892 109.355 449.388 106.905C450.227 106.453 451.107 106.011 452.021 105.599C452.845 105.226 453.699 104.879 454.589 104.551C456.432 103.87 458.41 103.304 460.518 102.896C460.938 102.812 461.362 102.738 461.782 102.668" stroke="#231F20" stroke-width="0.6" stroke-miterlimit="10"/>
<path d="M466.198 49.6175C463.85 51.6046 461.183 54.4561 459.105 58.3856C457.751 60.9441 456.962 63.3634 456.492 65.3704C458.276 64.6302 460.304 63.9098 462.562 63.2988C466.783 62.1661 470.599 61.7389 473.727 61.6296C474.656 57.864 476.584 52.6081 480.84 47.7744C481.714 46.7809 482.608 45.8917 483.493 45.1117C483.568 45.0471 483.638 44.9826 483.712 44.918" stroke="#231F20" stroke-width="0.6" stroke-miterlimit="10"/>
<path d="M453.924 70.2987C453.739 68.9922 453.679 68.0632 453.764 67.4273C454.963 58.4108 461.667 52.4147 462.956 51.3118C465.394 49.2353 467.772 47.9536 469.47 47.1836C468.556 47.7797 467.417 48.5795 466.198 49.6128" stroke="#231F20" stroke-width="0.6" stroke-miterlimit="10"/>
<path d="M454.581 104.552C454.866 103.603 455.151 102.659 455.44 101.72C456.38 98.6449 457.334 95.6095 458.303 92.609C457.968 90.9448 456.125 81.814 455.84 80.3982C454.896 75.7235 454.237 72.4895 453.922 70.3086" stroke="#231F20" stroke-width="0.6" stroke-miterlimit="10"/>
<path d="M489.231 111.516C489.505 121.005 489.835 130.583 490.23 140.24C490.634 150.166 491.099 159.992 491.613 169.719C488.676 169.803 485.624 169.828 482.457 169.773C479.11 169.719 475.633 169.575 472.051 169.326C471.527 169.292 471.002 169.252 470.478 169.207C465.162 168.8 460.097 168.199 455.311 167.463C451.09 166.818 447.084 166.063 443.307 165.243C442.058 164.975 440.84 164.696 439.641 164.413C441.059 157.284 442.638 150.012 444.381 142.6C446.919 131.834 449.662 121.452 452.549 111.467C452.884 110.304 453.218 109.147 453.558 107.999C453.573 107.959 453.583 107.925 453.593 107.885" stroke="#231F20" stroke-width="0.6" stroke-miterlimit="10"/>
<path d="M488.852 96.877C488.936 100.598 489.031 104.319 489.136 108.059" stroke="#231F20" stroke-width="0.6" stroke-miterlimit="10"/>
<path d="M455.306 167.469C454.777 168.522 454.212 169.833 453.763 171.393C453.363 172.784 453.143 174.046 453.023 175.124" stroke="#231F20" stroke-width="0.6" stroke-miterlimit="10"/>
<path d="M451.891 173.848C452.366 174.295 452.751 174.727 453.025 175.124C453.515 175.83 453.68 176.411 453.47 176.699C453.29 176.943 452.84 176.953 452.401 176.888C451.886 176.808 451.377 176.63 451.297 176.6" stroke="#231F20" stroke-width="0.6" stroke-miterlimit="10"/>
<path d="M452.399 176.883C452.134 178.954 451.835 181.051 451.495 183.182C449.986 192.556 447.873 201.205 445.445 209.104" stroke="#231F20" stroke-width="0.6" stroke-miterlimit="10"/>
<path d="M443.306 165.242C443.056 165.784 442.532 167.13 442.901 168.739C443.041 169.351 443.276 169.842 443.491 170.21" stroke="#231F20" stroke-width="0.6" stroke-miterlimit="10"/>
<path d="M442.903 168.74C442.584 169.957 442.114 171.835 441.619 174.145C439.931 181.984 439.826 186.023 438.852 191.537C438.273 194.791 437.233 199.476 435.195 205.095" stroke="#231F20" stroke-width="0.6" stroke-miterlimit="10"/>
<path d="M438.455 207.847C437.271 206.366 436.082 205.403 435.193 205.095C434.793 204.955 434.454 204.955 434.204 205.095C433.934 205.249 433.864 206.098 433.709 207.747C433.619 208.716 433.584 209.198 433.609 209.322C433.794 210.142 434.609 210.519 436.097 210.917C437.646 211.334 439.924 211.776 442.996 212.76C444.19 213.142 444.889 213.411 445.374 213.257C445.469 213.227 445.554 213.187 445.633 213.123C446.403 212.516 446.003 210.698 445.449 209.109C445.189 208.358 444.899 207.663 444.679 207.161" stroke="#231F20" stroke-width="0.6" stroke-miterlimit="10"/>
<path d="M442.508 203.525C442.743 203.903 443.067 204.35 443.492 204.802C443.981 205.319 444.471 205.706 444.876 205.979" stroke="#231F20" stroke-width="0.6" stroke-miterlimit="10"/>
<path d="M449.711 169.133C450.34 169.818 450.965 170.509 451.589 171.194" stroke="#231F20" stroke-width="0.6" stroke-miterlimit="10"/>
<path d="M447.25 173.162C448.104 173.49 448.963 173.818 449.818 174.146" stroke="#231F20" stroke-width="0.6" stroke-miterlimit="10"/>
<path d="M445.374 213.256C445.504 214.016 445.604 214.836 445.669 215.71C445.813 217.757 445.708 219.59 445.504 221.145C445.169 221.199 444.679 221.279 444.085 221.358C442.441 221.582 441.183 221.661 440.478 221.701C436.757 221.93 434.898 222.039 433.075 222.074C425.727 222.208 419.128 222.327 418.543 220.236C418.348 219.55 418.863 218.855 419.088 218.556C420.466 216.689 423.619 217.076 425.507 216.987C428.085 216.862 431.701 215.695 436.097 210.916" stroke="#231F20" stroke-width="0.6" stroke-miterlimit="10"/>
<path d="M470.477 169.213C470.676 173.51 470.831 177.892 470.936 182.348C470.961 183.292 470.981 184.235 470.996 185.184C471.151 193.64 471.116 207.624 470.916 215.91C470.911 216.173 470.901 216.432 470.896 216.685" stroke="#231F20" stroke-width="0.6" stroke-miterlimit="10"/>
<path d="M482.453 169.773C482.628 175.233 482.758 180.762 482.848 186.361C482.963 193.415 483.008 206.525 482.983 213.361" stroke="#231F20" stroke-width="0.6" stroke-miterlimit="10"/>
<path d="M481.074 211.656C481.319 211.741 482.513 212.178 482.987 213.36C483.512 214.667 482.908 216.261 482.508 216.286H482.503C482.318 216.296 482.188 215.943 482.063 215.72C481.189 214.081 477.892 213.37 475.339 213.912C472.902 214.433 471.428 216.038 470.898 216.684" stroke="#231F20" stroke-width="0.6" stroke-miterlimit="10"/>
<path d="M474.746 211.328C474.291 211.527 473.762 211.82 473.232 212.247C471.734 213.459 471.149 215.049 470.914 215.908C470.894 215.988 470.874 216.057 470.859 216.122" stroke="#231F20" stroke-width="0.6" stroke-miterlimit="10"/>
<path d="M482.466 215.963C482.476 216.067 482.491 216.172 482.506 216.286C482.65 217.548 482.87 219.386 483.18 221.612C483.625 224.816 483.779 225.467 483.33 226.192C482.461 227.588 480.298 227.652 476.002 227.722C471.166 227.801 468.728 227.811 467.849 226.395C467.04 225.094 467.939 222.998 468.738 221.04C469.063 220.25 469.512 219.371 470.372 217.702C470.556 217.334 470.736 216.991 470.896 216.688C471.121 216.251 471.316 215.889 471.471 215.605" stroke="#231F20" stroke-width="0.6" stroke-miterlimit="10"/>
<path d="M477.586 175.273C478.006 176.55 478.45 177.842 478.92 179.153C479.454 180.663 479.999 182.139 480.548 183.575" stroke="#231F20" stroke-width="0.6" stroke-miterlimit="10"/>
<path d="M472.151 178.566C471.747 179.823 471.342 181.085 470.938 182.347" stroke="#231F20" stroke-width="0.6" stroke-miterlimit="10"/>
<path d="M444.688 100.363C445.057 100.935 445.442 101.511 445.836 102.092C447.01 103.806 448.199 105.411 449.383 106.906" stroke="#231F20" stroke-width="0.6" stroke-miterlimit="10"/>
<path d="M453.928 70.2988V70.3088C453.798 72.9367 453.478 76.3595 452.684 80.299C452.349 81.9632 451.335 86.6975 449.522 91.2083C448.183 94.5367 446.45 97.6167 444.621 100.314C441.554 104.85 438.237 108.292 436.184 109.977C435.939 110.175 434.945 110.975 433.911 112.287C432.897 113.563 431.294 115.59 431.244 118.377C431.229 119.142 431.314 120.692 432.328 122.51C432.343 122.54 432.358 122.575 432.378 122.605" stroke="#231F20" stroke-width="0.6" stroke-miterlimit="10"/>
<path d="M451.984 91.6C452.184 91.5553 453.828 91.2076 455.052 92.2906C455.591 92.7675 455.831 93.3338 455.941 93.6666" stroke="#231F20" stroke-width="0.6" stroke-miterlimit="10"/>
<path d="M466.2 49.6121C465.111 51.4949 464.802 52.717 465.281 53.2784C466.47 54.6743 472.545 51.952 483.495 45.1113" stroke="#231F20" stroke-width="0.6" stroke-miterlimit="10"/>
<path d="M438.652 113.121C438.802 113.509 438.982 114.055 439.117 114.721C439.356 115.878 439.436 117.383 438.902 118.968C438.847 119.127 438.782 119.296 438.712 119.47C438.667 119.584 438.617 119.698 438.562 119.813C438.132 120.757 437.543 121.661 437.138 121.571C437.028 121.546 436.923 121.447 436.834 121.224C436.644 120.757 436.529 119.743 436.599 117.731C436.614 117.269 436.639 116.748 436.679 116.166" stroke="#231F20" stroke-width="0.6" stroke-miterlimit="10"/>
<path d="M434 124.617C434.24 124.696 435.604 125.133 436.438 124.453C436.837 124.13 437.037 123.623 437.082 123.062C437.137 122.461 437.022 121.8 436.802 121.234C436.538 120.528 436.113 119.962 435.648 119.838C435.404 119.768 435.084 119.813 434.859 120.002C434.32 120.449 434.405 121.656 435.129 123.092C435.154 123.151 435.184 123.211 435.219 123.275" stroke="#231F20" stroke-width="0.6" stroke-miterlimit="10"/>
<path d="M436.797 123.021C436.862 123.035 436.962 123.05 437.087 123.06C437.401 123.08 437.851 123.05 438.231 122.777C438.65 122.474 438.9 121.933 438.92 121.297C438.935 120.83 438.825 120.313 438.56 119.811C438.545 119.777 438.525 119.742 438.505 119.707" stroke="#231F20" stroke-width="0.6" stroke-miterlimit="10"/>
<path d="M439.109 121.308C439.264 121.268 439.834 121.094 440.133 120.558C440.268 120.314 440.323 120.036 440.308 119.748C440.288 119.271 440.064 118.779 439.654 118.387" stroke="#231F20" stroke-width="0.6" stroke-miterlimit="10"/>
<path d="M440.461 119.739C440.531 119.704 441.1 119.44 441.25 118.82C441.38 118.268 441.12 117.667 440.601 117.324H440.596" stroke="#231F20" stroke-width="0.6" stroke-miterlimit="10"/>
<path d="M442.328 115.555C445.32 114.07 448.308 112.589 451.295 111.109C451.08 110.547 450.86 109.991 450.646 109.43" stroke="#231F20" stroke-width="0.6" stroke-miterlimit="10"/>
<path d="M452.016 105.599C452.575 105.221 453.274 104.665 453.964 103.885C454.663 103.095 455.133 102.325 455.443 101.719" stroke="#231F20" stroke-width="0.6" stroke-miterlimit="10"/>
<path d="M463.492 33.2897C463.677 33.2599 464.341 33.1406 464.871 32.5495C465.41 31.9484 465.455 31.2678 465.46 31.084" stroke="#231F20" stroke-width="0.6" stroke-miterlimit="10"/>
<path d="M483.665 24.3007C483.276 24.4944 482.886 24.564 482.501 24.4944C482.257 24.4497 482.032 24.3554 481.822 24.2113C480.528 23.3121 479.944 20.5798 480.498 17.5445C480.598 17.013 480.723 16.4963 480.873 16.0144C481.727 13.2971 483.351 11.4689 484.834 11.7322C486.583 12.0501 487.482 15.1649 486.837 18.6871C486.683 19.5316 486.453 20.3265 486.168 21.0418" stroke="#231F20" stroke-width="0.6" stroke-miterlimit="10"/>
<path d="M483.95 28.8771C483.415 28.0375 483.225 26.5472 483.525 24.9277C483.565 24.7141 483.61 24.5054 483.665 24.3017C484.149 22.4339 485.178 21.0826 486.168 21.0429C486.247 21.0379 486.332 21.0429 486.412 21.0578C487.581 21.2664 488.181 23.343 487.751 25.6927C487.651 26.2392 487.506 26.7509 487.326 27.2129" stroke="#231F20" stroke-width="0.6" stroke-miterlimit="10"/>
<path d="M487.327 27.2132C488.626 28.018 489.226 30.6907 488.681 33.6714C488.062 37.0544 486.198 39.5532 484.515 39.2502C482.831 38.9472 481.972 35.9566 482.592 32.5685C482.856 31.1279 483.346 29.8462 483.95 28.8775C484.765 27.566 485.789 26.8158 486.758 26.9897C486.963 27.0245 487.153 27.104 487.327 27.2132Z" stroke="#231F20" stroke-width="0.6" stroke-miterlimit="10"/>
<path d="M322.25 221.777H351.663V215.18H336.957L322.25 218.478V221.777Z" stroke="#231F20" stroke-width="0.6" stroke-miterlimit="10"/>
<path d="M500.573 183.718H499.898V182.312C499.898 174.816 506.008 168.74 513.546 168.74H515.799C523.332 168.74 529.447 174.816 529.447 182.312V183.718H528.772" stroke="#231F20" stroke-width="0.6" stroke-miterlimit="10"/>
<path d="M500.982 187.39H500.573C500.203 187.39 499.898 187.092 499.898 186.724V184.389C499.898 184.022 500.203 183.719 500.573 183.719H528.772C529.142 183.719 529.447 184.022 529.447 184.389V186.724C529.447 187.092 529.142 187.39 528.772 187.39H528.278" stroke="#231F20" stroke-width="0.6" stroke-miterlimit="10"/>
<path d="M521.706 210.902H528.774C529.144 210.902 529.449 211.2 529.449 211.568V213.903C529.449 214.27 529.144 214.574 528.774 214.574H520.602" stroke="#231F20" stroke-width="0.6" stroke-miterlimit="10"/>
<path d="M519.136 214.574H500.573C500.203 214.574 499.898 214.27 499.898 213.903V211.568C499.898 211.2 500.203 210.902 500.573 210.902H520.894" stroke="#231F20" stroke-width="0.6" stroke-miterlimit="10"/>
<path d="M500.984 210.901V187.389H528.28V210.901" stroke="#231F20" stroke-width="0.6" stroke-miterlimit="10"/>
<path d="M501.527 214.652C502.896 214.652 504.005 215.75 504.005 217.111C504.005 217.186 504 217.265 503.99 217.34C503.88 218.592 502.821 219.575 501.527 219.575C501.358 219.575 501.188 219.556 501.028 219.526C499.899 219.297 499.055 218.304 499.055 217.111C499.055 216.858 499.095 216.615 499.165 216.386C499.474 215.378 500.413 214.652 501.527 214.652Z" stroke="#231F20" stroke-width="0.6" stroke-miterlimit="10"/>
<path d="M530.747 217.111C530.747 218.473 529.643 219.575 528.275 219.575C526.906 219.575 525.797 218.473 525.797 217.111C525.797 215.75 526.906 214.652 528.275 214.652C529.643 214.652 530.747 215.75 530.747 217.111Z" stroke="#231F20" stroke-width="0.6" stroke-miterlimit="10"/>
</g>
</g>
<defs>
<clipPath id="clip0_8906_22007">
<rect y="0.482422" width="589" height="220" rx="32" fill="white"/>
</clipPath>
<clipPath id="clip1_8906_22007">
<rect width="209" height="219" fill="white" transform="translate(322 9)"/>
</clipPath>
</defs>
</svg>
