<svg width="537" height="227" viewBox="0 0 537 227" fill="none" xmlns="http://www.w3.org/2000/svg">
<g clip-path="url(#clip0_9401_21918)">
<rect x="0.1875" width="536" height="227" rx="32" fill="#7099ED"/>
<path d="M52.0898 50H49.4336V40.4785C49.4336 40.2702 49.4368 40.0423 49.4434 39.7949C49.4499 39.541 49.4596 39.3132 49.4727 39.1113H49.3555C49.2578 39.3066 49.1602 39.4987 49.0625 39.6875C48.9714 39.8763 48.8411 40.0814 48.6719 40.3027L41.6699 50H38.7988V35.7812H41.4648V45.293C41.4648 45.4948 41.4583 45.7194 41.4453 45.9668C41.4388 46.2142 41.4323 46.4421 41.4258 46.6504H41.5625C41.6341 46.4876 41.722 46.3021 41.8262 46.0938C41.9368 45.8854 42.0638 45.6803 42.207 45.4785L49.2188 35.7812H52.0898V50ZM54.6777 43.1641V42.6172C54.6777 40.2279 55.3581 38.444 56.7188 37.2656C58.0794 36.0807 59.834 35.4883 61.9824 35.4883C63.9681 35.4883 65.5501 35.9082 66.7285 36.748C67.9069 37.5814 68.5579 38.8216 68.6816 40.4688L68.7012 40.6738H65.957L65.9473 40.459C65.8561 39.4759 65.4688 38.7533 64.7852 38.291C64.1081 37.8223 63.1641 37.5879 61.9531 37.5879C60.612 37.5879 59.528 37.985 58.7012 38.7793C57.8809 39.5736 57.4707 40.791 57.4707 42.4316V43.3496C57.4707 45.0618 57.8809 46.2988 58.7012 47.0605C59.528 47.8223 60.612 48.2031 61.9531 48.2031C63.3073 48.2031 64.2904 47.9395 64.9023 47.4121C65.5143 46.8783 65.8626 46.1816 65.9473 45.3223L65.957 45.1172H68.7012L68.6914 45.332C68.5807 46.8555 67.9557 48.0632 66.8164 48.9551C65.6836 49.847 64.0755 50.293 61.9922 50.293C59.8307 50.293 58.0697 49.7135 56.709 48.5547C55.3548 47.3893 54.6777 45.5924 54.6777 43.1641ZM70.7129 50V35.7812H83.7695V50H81.0547V37.8711H73.4277V50H70.7129ZM86.3574 43.1445V42.6074C86.3574 40.2376 87.0475 38.4603 88.4277 37.2754C89.8079 36.084 91.5723 35.4883 93.7207 35.4883C95.8626 35.4883 97.627 36.084 99.0137 37.2754C100.407 38.4603 101.104 40.2376 101.104 42.6074V43.1445C101.104 45.5339 100.407 47.3242 99.0137 48.5156C97.627 49.7005 95.8626 50.293 93.7207 50.293C91.5723 50.293 89.8079 49.7005 88.4277 48.5156C87.0475 47.3242 86.3574 45.5339 86.3574 43.1445ZM89.1406 43.3105C89.1406 44.9902 89.5573 46.2272 90.3906 47.0215C91.2305 47.8092 92.3405 48.2031 93.7207 48.2031C95.1009 48.2031 96.2142 47.8092 97.0605 47.0215C97.9069 46.2272 98.3301 44.9902 98.3301 43.3105V42.4609C98.3301 40.7812 97.9069 39.5508 97.0605 38.7695C96.2207 37.9818 95.1074 37.5879 93.7207 37.5879C92.3405 37.5879 91.2305 37.9818 90.3906 38.7695C89.5573 39.5508 89.1406 40.778 89.1406 42.4512V43.3105ZM105.342 35.7812H116.758V50H114.053V37.8711H107.627L107.266 44.5898C107.174 46.4518 106.872 47.8646 106.357 48.8281C105.843 49.7917 104.867 50.2734 103.428 50.2734C103.206 50.2734 102.995 50.2572 102.793 50.2246C102.591 50.1986 102.393 50.1497 102.197 50.0781V47.7734C102.347 47.8255 102.487 47.8613 102.617 47.8809C102.754 47.9004 102.894 47.9102 103.037 47.9102C103.682 47.9102 104.134 47.6367 104.395 47.0898C104.655 46.543 104.821 45.5924 104.893 44.2383L105.342 35.7812ZM120.068 50V35.7812H122.783V41.6113H130.518V35.7812H133.223V50H130.518V43.7207H122.783V50H120.068ZM149.746 50H147.09V40.4785C147.09 40.2702 147.093 40.0423 147.1 39.7949C147.106 39.541 147.116 39.3132 147.129 39.1113H147.012C146.914 39.3066 146.816 39.4987 146.719 39.6875C146.628 39.8763 146.497 40.0814 146.328 40.3027L139.326 50H136.455V35.7812H139.121V45.293C139.121 45.4948 139.115 45.7194 139.102 45.9668C139.095 46.2142 139.089 46.4421 139.082 46.6504H139.219C139.29 46.4876 139.378 46.3021 139.482 46.0938C139.593 45.8854 139.72 45.6803 139.863 45.4785L146.875 35.7812H149.746V50ZM151.592 37.8906V35.7812H164.668V37.8906H159.492V50H156.777V37.8906H151.592ZM166.514 50V35.7812H177.324V37.8809H169.199V41.6699H176.328V43.7109H169.199V47.9102H177.441V50H166.514ZM181.396 35.7812H192.812V50H190.107V37.8711H183.682L183.32 44.5898C183.229 46.4518 182.926 47.8646 182.412 48.8281C181.898 49.7917 180.921 50.2734 179.482 50.2734C179.261 50.2734 179.049 50.2572 178.848 50.2246C178.646 50.1986 178.447 50.1497 178.252 50.0781V47.7734C178.402 47.8255 178.542 47.8613 178.672 47.8809C178.809 47.9004 178.949 47.9102 179.092 47.9102C179.736 47.9102 180.189 47.6367 180.449 47.0898C180.71 46.543 180.876 45.5924 180.947 44.2383L181.396 35.7812ZM207.412 50H204.697V44.6582H199.98L199.492 44.4043C198.255 44.2415 197.308 43.7793 196.65 43.0176C195.993 42.2559 195.664 41.3021 195.664 40.1562C195.664 38.8151 196.143 37.7507 197.1 36.9629C198.063 36.1751 199.421 35.7812 201.172 35.7812H207.412V50ZM204.697 42.6562V37.8125H201.396C200.257 37.8125 199.469 38.0273 199.033 38.457C198.597 38.8802 198.379 39.4564 198.379 40.1855C198.379 40.9212 198.597 41.5169 199.033 41.9727C199.469 42.4284 200.257 42.6562 201.396 42.6562H204.697ZM197.891 50H195L199.131 43.4668H201.885L197.891 50ZM210.654 50V35.7812H213.867L218.643 46.0352C218.74 46.2435 218.838 46.4551 218.936 46.6699C219.033 46.8783 219.108 47.0573 219.16 47.207H219.219C219.271 47.0573 219.339 46.8783 219.424 46.6699C219.508 46.4551 219.596 46.2435 219.688 46.0352L224.521 35.7812H227.803V50H225.127L225.137 40.3516C225.137 40.1497 225.143 39.9349 225.156 39.707C225.169 39.4727 225.182 39.2578 225.195 39.0625H225.127C225.081 39.2578 225.023 39.4727 224.951 39.707C224.886 39.9349 224.808 40.1497 224.717 40.3516L220.205 50H217.9L213.408 40.3516C213.311 40.1562 213.226 39.9447 213.154 39.7168C213.083 39.4824 213.024 39.2643 212.979 39.0625H212.91C212.923 39.2643 212.936 39.4824 212.949 39.7168C212.969 39.9447 212.979 40.1595 212.979 40.3613V50H210.654Z" fill="white"/>
<g clip-path="url(#clip1_9401_21918)">
<path d="M528.958 220.091H521.125C522.289 218.983 523.223 217.751 523.887 216.42H528.958C529.328 216.42 529.632 216.718 529.632 217.086V219.42C529.632 219.788 529.328 220.091 528.958 220.091Z" fill="#231F20"/>
<path d="M519.322 220.091H516.43C518.188 219.073 519.602 217.826 520.601 216.42H523.888C523.224 217.751 522.289 218.983 521.125 220.091C520.736 220.464 520.326 220.816 519.887 221.159L519.322 220.091Z" fill="#231F20"/>
<path d="M521.894 216.42H520.605C521.165 215.635 521.594 214.795 521.874 213.921C523.048 210.269 521.535 206.385 520.141 203.866C519.776 203.21 519.981 202.391 520.62 201.988C520.855 201.839 521.115 201.77 521.375 201.77C521.874 201.77 522.359 202.033 522.619 202.505C524.267 205.48 526.06 210.16 524.572 214.775C524.392 215.337 524.167 215.888 523.892 216.42H521.894Z" fill="#231F20"/>
<path d="M501.172 216.419V192.906H528.467V216.419H523.891C524.166 215.887 524.391 215.336 524.571 214.774C526.059 210.159 524.266 205.48 522.617 202.504C522.358 202.032 521.873 201.769 521.374 201.769C521.114 201.769 520.854 201.838 520.619 201.987C519.98 202.39 519.775 203.209 520.14 203.865C521.533 206.384 523.047 210.269 521.873 213.92C521.593 214.794 521.164 215.634 520.604 216.419H501.172Z" fill="#7099ED"/>
<path d="M516.431 220.091H500.76C500.391 220.091 500.086 219.788 500.086 219.42V217.086C500.086 216.718 500.391 216.42 500.76 216.42H520.602C519.603 217.826 518.189 219.073 516.431 220.091Z" fill="#231F20"/>
<path d="M528.462 220.17C529.831 220.17 530.935 221.268 530.935 222.629C530.935 223.99 529.831 225.093 528.462 225.093C527.093 225.093 525.984 223.99 525.984 222.629C525.984 221.268 527.093 220.17 528.462 220.17Z" fill="#231F20"/>
<path d="M500.086 187.83C500.086 180.333 506.195 174.258 513.734 174.258H515.986C523.52 174.258 529.634 180.333 529.634 187.83V189.236H500.086V187.83Z" fill="#7099ED"/>
<path d="M528.465 192.908H500.76C500.391 192.908 500.086 192.609 500.086 192.242V189.907C500.086 189.539 500.391 189.236 500.76 189.236H528.96C529.329 189.236 529.634 189.539 529.634 189.907V192.242C529.634 192.609 529.329 192.908 528.96 192.908H528.465Z" fill="#231F20"/>
<path d="M504.177 222.857C502.459 222.748 500.82 222.425 499.352 221.904C499.661 220.895 500.6 220.17 501.714 220.17C503.083 220.17 504.192 221.268 504.192 222.629C504.192 222.704 504.187 222.783 504.177 222.857Z" fill="#231F20"/>
<path d="M499.352 221.904C500.821 222.426 502.459 222.749 504.178 222.858C504.068 224.11 503.009 225.094 501.715 225.094C501.545 225.094 501.375 225.074 501.215 225.044C500.086 224.815 499.242 223.822 499.242 222.63C499.242 222.376 499.282 222.133 499.352 221.904Z" fill="#231F20"/>
<path d="M501.714 225.092C503.007 225.092 504.066 224.109 504.176 222.857C506.894 223.036 509.816 222.688 512.589 221.789C514.002 221.332 515.286 220.756 516.43 220.09H519.323L519.887 221.158C518.114 222.534 515.946 223.662 513.468 224.466C510.85 225.316 508.143 225.733 505.54 225.733C504.036 225.733 502.563 225.594 501.164 225.316L501.214 225.043C501.374 225.073 501.544 225.092 501.714 225.092Z" fill="#231F20"/>
<path d="M484.79 87.1122C483.911 87.1122 482.687 86.988 481.458 86.362C475.898 83.5155 476.408 73.5104 476.483 72.0598C476.817 65.7805 479.545 61.0213 481.723 57.221C483.187 54.6675 484.64 52.6804 485.714 51.3242C492.558 55.4674 495.82 70.1472 501.475 88.5181C501.515 88.6472 501.565 88.8112 501.585 88.8658C500.526 90.3065 499.162 91.9359 497.434 93.5802C495.116 95.7859 492.823 97.3657 490.925 98.4834H490.92C490.47 95.9052 488.697 92.7904 487.158 90.8281C486.039 89.4073 484.89 88.379 483.996 87.6835C484.271 87.4748 484.54 87.286 484.79 87.1122Z" fill="#7099ED"/>
<path d="M499.238 222.629C499.238 223.821 500.082 224.815 501.211 225.043L501.161 225.317C498.649 224.83 496.366 223.901 494.517 222.559C491.79 220.577 489.892 217.681 488.703 213.697C485.73 203.697 489.562 195.848 493.998 186.762C496.64 181.342 499.638 175.202 501.491 167.824C506.392 148.261 504.189 132.031 495.287 122.131C493.563 120.213 491.585 118.509 489.412 117.034C484.716 113.834 479.126 111.718 473.352 110.908C473.496 110.471 473.671 109.994 473.911 109.498C474.141 109.026 474.406 108.598 474.685 108.211C479.891 109.046 484.896 110.874 489.317 113.576C492.319 115.414 495.052 117.65 497.395 120.253C506.946 130.874 509.374 148.008 504.238 168.505C502.315 176.165 499.253 182.45 496.545 187.989C492.194 196.906 488.758 203.945 491.42 212.897C492.424 216.265 493.983 218.685 496.191 220.284C497.105 220.95 498.174 221.491 499.348 221.904C499.278 222.132 499.238 222.376 499.238 222.629Z" fill="#231F20"/>
<path d="M472.423 97.8229C477.658 92.8749 481.854 89.2733 483.992 87.6836C484.886 88.3791 486.035 89.4074 487.154 90.8282C488.693 92.7905 490.466 95.9053 490.916 98.4836C491.146 99.7702 491.041 100.923 490.411 101.737C490.211 102.001 490.027 102.135 489.033 102.398C488.128 102.637 486.56 102.974 483.692 103.605C479.656 104.495 479.177 104.614 478.357 105.076C477.678 105.463 475.979 106.427 474.686 108.211C474.406 108.598 474.141 109.025 473.911 109.497C473.672 109.994 473.497 110.471 473.352 110.908C472.977 112.006 472.757 112.85 471.998 113.069C471.459 113.223 471.304 112.87 470.06 112.766C469.131 112.686 468.436 112.821 467.292 113.039C466.618 113.168 465.734 113.372 464.725 113.725C464.335 114.485 463.825 115.26 463.341 115.2C462.632 115.116 462.132 113.293 461.972 111.047C461.912 110.133 461.902 109.149 461.962 108.186C461.982 107.833 462.012 107.485 462.052 107.142C462.317 104.842 462.751 101.022 465.614 99.184C466.793 98.419 468.037 98.2252 469.465 98.0017C470.544 97.8328 471.543 97.793 472.423 97.8229Z" fill="#FF8B63"/>
<path d="M489.034 102.398C489.119 106.114 489.214 109.835 489.319 113.576C484.898 110.873 479.893 109.045 474.688 108.211C475.981 106.427 477.68 105.464 478.359 105.076C479.178 104.614 479.658 104.495 483.694 103.606C486.562 102.975 488.13 102.637 489.034 102.398Z" fill="white"/>
<path d="M487.515 32.7305C488.814 33.5353 489.413 36.2079 488.869 39.1886C488.249 42.5717 486.386 45.0705 484.702 44.7674C483.019 44.4644 482.16 41.4738 482.779 38.0857C483.044 36.6451 483.534 35.3634 484.138 34.3947C484.378 34.7722 484.682 35.0206 485.047 35.0852C485.941 35.2442 486.915 34.2605 487.515 32.7305Z" fill="#231F20"/>
<path d="M486.948 32.5073C487.153 32.542 487.343 32.6215 487.518 32.7308C486.918 34.2609 485.944 35.2445 485.05 35.0856C484.685 35.021 484.38 34.7726 484.141 34.395C484.955 33.0835 485.979 32.3334 486.948 32.5073Z" fill="#231F20"/>
<path d="M485.024 17.2498C486.772 17.5677 487.671 20.6825 487.027 24.2047C486.872 25.0492 486.642 25.8441 486.358 26.5594C485.369 26.5992 484.34 27.9504 483.855 29.8183C483.465 30.012 483.076 30.0816 482.691 30.012C482.446 29.9673 482.221 29.8729 482.012 29.7289C482.621 26.9717 482.321 24.0755 481.062 21.532C481.917 18.8146 483.54 16.9865 485.024 17.2498Z" fill="#231F20"/>
<path d="M486.6 26.5754C487.769 26.784 488.368 28.8605 487.939 31.2103C487.839 31.7568 487.694 32.2684 487.514 32.7305C487.339 32.6212 487.149 32.5417 486.944 32.5069C485.975 32.333 484.951 33.0832 484.137 34.3947C483.603 33.5551 483.413 32.0648 483.712 30.4453C483.752 30.2317 483.797 30.023 483.852 29.8193C484.801 29.3524 485.716 28.1601 486.355 26.5605C486.435 26.5555 486.52 26.5605 486.6 26.5754Z" fill="#231F20"/>
<path d="M486.362 26.5605C485.723 28.1602 484.809 29.3524 483.859 29.8194C484.344 27.9515 485.373 26.6003 486.362 26.5605Z" fill="#231F20"/>
<path d="M483.367 227.129C483.812 230.333 483.967 230.984 483.517 231.709C482.648 233.105 480.485 233.17 476.189 233.24C471.353 233.319 468.916 233.329 468.036 231.913C467.227 230.612 468.126 228.515 468.926 226.558C469.25 225.768 469.7 224.889 470.559 223.219C470.744 222.852 470.924 222.509 471.084 222.206C471.613 221.555 473.087 219.951 475.525 219.429C478.077 218.888 481.374 219.598 482.249 221.237C482.373 221.461 482.503 221.814 482.688 221.804H482.693C482.838 223.065 483.058 224.904 483.367 227.129Z" fill="white"/>
<path d="M481.06 21.5332C482.319 24.0767 482.619 26.9729 482.009 29.7301C480.716 28.8309 480.131 26.0986 480.686 23.0633C480.786 22.5317 480.91 22.0151 481.06 21.5332Z" fill="#231F20"/>
<path d="M457.902 24.8315C457.787 24.136 457.707 23.1077 457.992 21.9551C459.011 17.817 463.831 15.5219 467.158 14.9555C471.574 14.2054 477.534 15.6212 480.576 20.6436C480.751 20.9367 480.916 21.2298 481.061 21.5329C480.911 22.0148 480.786 22.5314 480.686 23.063C480.132 26.0983 480.716 28.8306 482.01 29.7297C481.47 32.1788 480.217 34.5087 478.273 36.3866C477.964 35.6116 477.659 34.8366 477.349 34.0616C478.778 32.934 479.482 31.2598 479.113 29.7595C478.873 28.8107 478.044 27.2657 476.615 27.2061C475.446 27.1614 474.622 28.14 474.492 28.299C474.342 27.8817 472.968 24.1757 468.957 22.904C464.496 21.4931 460.924 24.3943 460.704 24.5831C460.679 24.5334 460.31 23.7932 459.53 23.7088C458.846 23.6293 458.147 24.0863 457.902 24.8315Z" fill="#231F20"/>
<path d="M483.173 218.879C483.697 220.186 483.093 221.78 482.693 221.805H482.688C482.503 221.815 482.373 221.462 482.249 221.239C481.374 219.6 478.077 218.889 475.525 219.431C473.087 219.952 471.613 221.557 471.084 222.203C471.089 221.949 471.099 221.691 471.104 221.428C471.303 213.141 471.338 199.157 471.184 190.702C471.169 189.753 471.149 188.809 471.124 187.865C471.019 183.409 470.864 179.028 470.664 174.73C471.189 174.77 471.713 174.81 472.238 174.845C475.819 175.093 479.296 175.237 482.643 175.292C482.818 180.751 482.948 186.281 483.038 191.879C483.153 198.934 483.198 212.044 483.173 218.879Z" fill="#7099ED"/>
<path d="M465.606 31.6624C465.751 32.2883 465.516 32.8795 465.082 32.9739C464.647 33.0732 464.177 32.641 464.033 32.0151C463.893 31.3842 464.127 30.798 464.562 30.6986C464.997 30.6042 465.466 31.0314 465.606 31.6624Z" fill="#231F20"/>
<path d="M465.467 58.7959C466.656 60.1919 472.73 57.4696 483.68 50.6289C482.796 51.4088 481.902 52.2981 481.028 53.2916C476.771 58.1253 474.843 63.3812 473.914 67.1468C470.787 67.2561 466.97 67.6833 462.749 68.816C460.491 69.427 458.463 70.1473 456.68 70.8875C457.149 68.8806 457.939 66.4612 459.292 63.9028C461.37 59.9733 464.038 57.1218 466.386 55.1347C465.297 57.0125 464.987 58.2346 465.467 58.7959Z" fill="#7099ED"/>
<path d="M481.457 86.3626C482.686 86.9885 483.91 87.1127 484.789 87.1127C484.539 87.2866 484.269 87.4754 483.995 87.684C481.857 89.2737 477.66 92.8754 472.425 97.8233C471.546 97.7935 470.547 97.8332 469.468 98.0021C468.039 98.2257 466.795 98.4194 465.616 99.1845C462.754 101.023 462.319 104.843 462.055 107.143C462.015 107.486 461.985 107.833 461.965 108.186C461.545 108.256 461.12 108.33 460.701 108.415C458.593 108.822 456.615 109.388 454.771 110.069C455.056 109.12 455.341 108.176 455.63 107.237C456.57 104.162 457.524 101.127 458.493 98.1263C458.158 96.4621 456.315 87.3313 456.03 85.9155C455.086 81.2408 454.426 78.0068 454.112 75.8259V75.816C453.927 74.5095 453.867 73.5805 453.952 72.9446C455.151 63.9281 461.855 57.9319 463.144 56.8291C465.581 54.7526 467.959 53.4709 469.658 52.7009C468.743 53.297 467.605 54.0968 466.386 55.1301C464.038 57.1222 461.37 59.9737 459.292 63.9032C457.938 66.4616 457.149 68.8809 456.679 70.8879C458.463 70.1477 460.491 69.4274 462.749 68.8164C466.97 67.6837 470.787 67.2565 473.914 67.1472C474.843 63.3816 476.771 58.1257 481.027 53.292C481.902 52.2985 482.796 51.4092 483.68 50.6293C483.755 50.5647 483.825 50.5001 483.9 50.4355C484.254 50.6144 484.554 50.7336 484.784 50.8379C485.099 50.977 485.408 51.141 485.713 51.3248C484.639 52.681 483.185 54.6681 481.722 57.2215C479.544 61.0219 476.816 65.781 476.481 72.0603C476.407 73.5109 475.897 83.5161 481.457 86.3626Z" fill="white"/>
<path d="M461.978 111.047C462.138 113.293 462.637 115.116 463.347 115.2C463.831 115.26 464.341 114.485 464.73 113.725C465.74 113.372 466.624 113.169 467.298 113.039C468.442 112.821 469.136 112.687 470.066 112.766C471.309 112.87 471.464 113.223 472.004 113.069C472.763 112.851 472.983 112.006 473.358 110.908C479.132 111.718 484.722 113.834 489.418 117.033C489.693 126.522 490.022 136.1 490.417 145.757C490.822 155.683 491.286 165.509 491.801 175.236C488.864 175.321 485.811 175.345 482.644 175.291C479.297 175.236 475.82 175.092 472.239 174.844C471.714 174.809 471.19 174.769 470.665 174.724C465.35 174.317 460.285 173.716 455.499 172.981C451.278 172.335 447.271 171.58 443.495 170.76C442.246 170.492 441.027 170.214 439.828 169.93C441.247 162.802 442.825 155.529 444.569 148.117C447.107 137.352 449.849 126.969 452.736 116.984C453.071 115.821 453.406 114.664 453.745 113.516C456.003 112.528 458.501 111.708 461.244 111.176C461.473 111.132 461.703 111.092 461.928 111.052H461.978V111.047Z" fill="white"/>
<path d="M460.178 33.1772C460.323 33.8031 460.083 34.3943 459.649 34.4887C459.214 34.588 458.745 34.1558 458.605 33.5299C458.46 32.899 458.7 32.3128 459.134 32.2134C459.569 32.1141 460.033 32.5463 460.178 33.1772Z" fill="#231F20"/>
<path d="M459.129 32.2128C458.695 32.3121 458.455 32.8983 458.6 33.5292C458.74 34.1552 459.209 34.5874 459.644 34.488C460.079 34.3936 460.318 33.8024 460.174 33.1765C460.029 32.5456 459.564 32.1134 459.129 32.2128ZM482.903 49.8534C483.273 50.1018 483.607 50.2905 483.897 50.4346C483.822 50.4992 483.752 50.5638 483.677 50.6283C472.727 57.469 466.653 60.1913 465.464 58.7954C464.984 58.234 465.294 57.012 466.383 55.1341C467.602 54.0959 468.741 53.2961 469.655 52.6999C469.615 51.5325 469.445 50.0471 468.971 48.3779C468.551 46.9224 468.001 45.7152 467.502 44.7862C467.412 44.7912 467.322 44.7862 467.232 44.7813C461.522 44.4385 458.17 36.3559 457.551 31.0702C457.261 28.5962 457.536 26.4452 457.901 24.8306C458.145 24.0855 458.845 23.6284 459.529 23.7079C460.308 23.7924 460.678 24.5326 460.703 24.5822C460.923 24.3935 464.495 21.4923 468.956 22.9031C472.967 24.1749 474.341 27.8808 474.491 28.2981C474.62 28.1392 475.445 27.1605 476.614 27.2052C478.042 27.2648 478.872 28.8098 479.111 29.7587C479.481 31.2589 478.777 32.9331 477.348 34.0608C477.658 34.8357 477.962 35.6107 478.272 36.3857C477.907 37.8115 477.852 38.9839 477.862 39.734C477.907 43.4151 479.566 47.598 482.903 49.8534ZM465.079 32.9728C465.514 32.8784 465.748 32.2873 465.604 31.6613C465.464 31.0304 464.994 30.6032 464.56 30.6976C464.125 30.7969 463.89 31.3831 464.03 32.014C464.175 32.64 464.644 33.0722 465.079 32.9728Z" fill="white"/>
<path d="M454.111 75.8262C454.426 78.007 455.085 81.2411 456.029 85.9157C456.314 87.3316 458.158 96.4624 458.492 98.1266C457.523 101.127 456.569 104.162 455.63 107.237C455.32 107.844 454.851 108.614 454.151 109.403C453.462 110.183 452.762 110.74 452.203 111.117C451.289 111.53 450.41 111.972 449.57 112.424C448.386 110.929 447.198 109.324 446.024 107.61C445.629 107.029 445.244 106.453 444.875 105.881L444.805 105.832C446.633 103.134 448.366 100.054 449.705 96.7257C451.519 92.2149 452.533 87.4806 452.867 85.8164C453.662 81.8769 453.981 78.4541 454.111 75.8262Z" fill="#7099ED"/>
<path d="M442.516 121.073C444.574 119.095 447.351 116.855 450.833 114.947C451.048 115.509 451.268 116.065 451.482 116.626C448.495 118.107 445.508 119.587 442.516 121.073Z" fill="#FF8B63"/>
<path d="M445.856 221.228C446.001 223.274 445.896 225.107 445.691 226.662C445.356 226.717 444.867 226.796 444.272 226.876C442.629 227.099 441.37 227.179 440.666 227.219C436.944 227.447 435.086 227.556 433.262 227.591C425.914 227.725 419.315 227.845 418.731 225.753C418.536 225.068 419.05 224.372 419.275 224.074C420.654 222.206 423.806 222.594 425.694 222.504C428.272 222.38 431.889 221.213 436.285 216.434C437.833 216.851 440.111 217.293 443.183 218.277C444.377 218.659 445.077 218.927 445.561 218.773C445.691 219.533 445.791 220.353 445.856 221.228Z" fill="white"/>
<path d="M441.442 124.337C441.292 124.958 440.723 125.221 440.653 125.256L440.498 125.266C440.478 124.789 440.253 124.297 439.844 123.905L440.138 123.572C440.343 123.339 440.558 123.095 440.793 122.842C441.312 123.185 441.572 123.786 441.442 124.337Z" fill="white"/>
<path d="M440.792 122.841C440.557 123.094 440.342 123.337 440.137 123.571L439.843 123.904L438.898 124.987C438.968 124.813 439.033 124.644 439.088 124.485C439.623 122.9 439.543 121.395 439.303 120.237L439.373 120.222C441.676 117.833 445.078 114.872 449.574 112.423C450.413 111.971 451.292 111.529 452.206 111.117C453.031 110.744 453.885 110.396 454.774 110.068C456.617 109.388 458.596 108.821 460.704 108.414C461.123 108.33 461.548 108.255 461.967 108.186C461.908 109.149 461.918 110.133 461.977 111.047H461.928C461.703 111.092 461.473 111.131 461.243 111.176C458.501 111.708 456.003 112.527 453.745 113.516C452.726 113.963 451.757 114.445 450.838 114.947C447.356 116.854 444.578 119.095 442.52 121.072C441.871 121.693 441.296 122.289 440.792 122.841Z" fill="#231F20"/>
<path d="M439.844 123.904C440.254 124.297 440.478 124.789 440.498 125.265C440.513 125.554 440.458 125.832 440.324 126.075C440.024 126.612 439.454 126.786 439.299 126.825L439.11 126.815C439.125 126.348 439.015 125.832 438.75 125.33C438.805 125.216 438.855 125.102 438.9 124.987L439.844 123.904Z" fill="#FF8B63"/>
<path d="M449.575 112.424C445.079 114.873 441.677 117.834 439.374 120.224L439.304 120.239C439.544 121.396 439.624 122.901 439.089 124.486C439.034 124.645 438.969 124.814 438.899 124.988C438.854 125.102 438.804 125.216 438.749 125.331C438.32 126.274 437.73 127.179 437.326 127.089C437.216 127.064 437.111 126.965 437.021 126.741C436.831 126.274 436.716 125.261 436.786 123.249H436.676C435.288 124.839 433.904 126.433 432.515 128.028C431.501 126.21 431.416 124.66 431.431 123.895C431.481 121.108 433.085 119.081 434.099 117.804C435.133 116.493 436.127 115.693 436.372 115.494C438.425 113.81 441.742 110.368 444.809 105.832L444.879 105.882C445.249 106.453 445.633 107.029 446.028 107.611C447.202 109.324 448.391 110.929 449.575 112.424Z" fill="#FF8B63"/>
<path d="M439.105 126.815C439.085 127.451 438.836 127.993 438.416 128.296C438.036 128.569 437.587 128.599 437.272 128.579C437.327 127.978 437.212 127.317 436.992 126.751L437.017 126.741C437.107 126.964 437.212 127.064 437.322 127.089C437.727 127.178 438.316 126.274 438.746 125.33C439.01 125.832 439.12 126.348 439.105 126.815Z" fill="#FF8B63"/>
<path d="M437.27 128.579C437.225 129.141 437.025 129.647 436.626 129.97C435.792 130.651 434.428 130.214 434.188 130.134L434.078 130.04C434.493 129.563 434.902 129.086 435.317 128.609C434.593 127.173 434.508 125.966 435.047 125.519C435.272 125.33 435.592 125.286 435.837 125.355C436.301 125.479 436.726 126.046 436.99 126.751C437.21 127.317 437.325 127.978 437.27 128.579Z" fill="#FF8B63"/>
<path d="M435.38 210.611C437.419 204.993 438.458 200.308 439.037 197.054C440.011 191.54 440.116 187.501 441.805 179.662C442.299 177.352 442.769 175.474 443.088 174.257C442.719 172.648 443.243 171.301 443.493 170.76C447.27 171.579 451.276 172.335 455.497 172.98C454.968 174.039 454.403 175.35 453.954 176.91C453.554 178.301 453.334 179.563 453.214 180.641C453.704 181.346 453.869 181.927 453.659 182.215C453.479 182.459 453.029 182.469 452.59 182.404C452.325 184.471 452.025 186.567 451.686 188.698C450.177 198.073 448.064 206.722 445.636 214.62C446.191 216.215 446.59 218.033 445.821 218.639C445.741 218.704 445.656 218.744 445.561 218.773C445.077 218.927 444.377 218.659 443.183 218.277C440.111 217.293 437.833 216.851 436.285 216.434C434.796 216.036 433.982 215.659 433.797 214.839C433.772 214.715 433.807 214.233 433.897 213.264C434.052 211.615 434.122 210.765 434.391 210.611C434.641 210.472 434.981 210.472 435.38 210.611Z" fill="#7099ED"/>
<path d="M436.787 123.249C436.717 125.261 436.831 126.274 437.021 126.741L436.996 126.751C436.732 126.046 436.307 125.48 435.842 125.355C435.598 125.286 435.278 125.331 435.053 125.519C434.514 125.966 434.599 127.174 435.323 128.609C434.908 129.086 434.499 129.563 434.084 130.04C408.757 159.325 383.425 188.61 358.098 217.89C356.574 219.654 354.351 220.667 352.014 220.667H348.727V219.848C348.727 218.745 349.621 217.856 350.73 217.856C351.899 217.856 353.033 217.602 354.067 217.13C355.106 216.658 356.035 215.973 356.799 215.094C382.036 186.072 407.278 157.05 432.515 128.028C433.904 126.433 435.288 124.839 436.677 123.244H436.787V123.249Z" fill="#231F20"/>
<path d="M351.851 220.697V227.294H322.438V223.996L337.144 220.697H351.851Z" fill="#231F20"/>
<path d="M457.901 24.832C457.536 26.4466 457.261 28.5976 457.551 31.0716C458.17 36.3573 461.522 44.4399 467.232 44.7827C467.322 44.7876 467.412 44.7926 467.502 44.7876C471.513 44.8572 474.67 41.0568 475.515 39.9689" stroke="#231F20" stroke-width="0.6" stroke-miterlimit="10"/>
<path d="M467.5 44.7812C467.5 44.7812 467.5 44.7862 467.505 44.7862C468.005 45.7152 468.554 46.9224 468.974 48.3779C469.448 50.0471 469.618 51.5325 469.658 52.6999C469.663 52.7695 469.668 52.834 469.668 52.8986" stroke="#231F20" stroke-width="0.6" stroke-miterlimit="10"/>
<path d="M481.061 21.5329C480.916 21.2298 480.751 20.9367 480.576 20.6436C477.534 15.6212 471.574 14.2054 467.158 14.9555C463.831 15.5219 459.011 17.817 457.992 21.9551C457.707 23.1077 457.787 24.136 457.902 24.8315C458.147 24.0863 458.846 23.6293 459.53 23.7088C460.31 23.7932 460.679 24.5334 460.704 24.5831C460.924 24.3943 464.496 21.4931 468.957 22.904C472.968 24.1757 474.342 27.8817 474.492 28.299C474.622 28.14 475.446 27.1614 476.615 27.2061C478.044 27.2657 478.873 28.8107 479.113 29.7595C479.482 31.2598 478.778 32.934 477.349 34.0616C477.659 34.8366 477.964 35.6116 478.273 36.3866C480.217 34.5087 481.47 32.1788 482.01 29.7297" stroke="#231F20" stroke-width="0.6" stroke-miterlimit="10"/>
<path d="M479.352 33.5391C478.837 34.5525 478.498 35.5162 478.278 36.3856C477.913 37.8114 477.858 38.9838 477.868 39.7339C477.913 43.415 479.572 47.5979 482.909 49.8533C483.278 50.1017 483.613 50.2904 483.903 50.4345C484.257 50.6134 484.557 50.7326 484.787 50.8369C485.102 50.976 485.411 51.1399 485.716 51.3237C492.56 55.4669 495.822 70.1467 501.477 88.5176C501.517 88.6467 501.567 88.8107 501.587 88.8653C500.528 90.306 499.164 91.9354 497.435 93.5798C495.118 95.7855 492.825 97.3652 490.926 98.483" stroke="#231F20" stroke-width="0.6" stroke-miterlimit="10"/>
<path d="M482.615 64.9863C481.851 65.5527 480.832 66.5065 480.343 67.9322C479.533 70.2969 480.647 72.5175 482.121 75.5975C483.175 77.8032 484.798 81.2509 486.837 85.8461" stroke="#231F20" stroke-width="0.6" stroke-miterlimit="10"/>
<path d="M484.793 87.1133C484.544 87.2872 484.274 87.4759 483.999 87.6846C481.861 89.2743 477.665 92.8759 472.43 97.8238" stroke="#231F20" stroke-width="0.6" stroke-miterlimit="10"/>
<path d="M490.517 84.2461C489.732 84.5044 488.578 84.9366 487.255 85.6222C487.15 85.6719 487.01 85.7464 486.835 85.8457C486.37 86.0991 485.656 86.5164 484.797 87.1125" stroke="#231F20" stroke-width="0.6" stroke-miterlimit="10"/>
<path d="M485.714 51.3242C484.64 52.6804 483.187 54.6675 481.723 57.221C479.545 61.0213 476.817 65.7805 476.483 72.0598C476.408 73.5104 475.898 83.5155 481.458 86.362C482.687 86.988 483.911 87.1122 484.79 87.1122H484.795" stroke="#231F20" stroke-width="0.6" stroke-miterlimit="10"/>
<path d="M474.9 98.101C474.251 97.9769 473.412 97.8576 472.423 97.8229C471.543 97.793 470.544 97.8328 469.465 98.0017C468.037 98.2252 466.793 98.419 465.614 99.184C462.751 101.022 462.317 104.842 462.052 107.142C462.012 107.485 461.982 107.833 461.962 108.186C461.902 109.149 461.912 110.133 461.972 111.047C462.132 113.293 462.632 115.116 463.341 115.2C463.825 115.26 464.335 114.485 464.725 113.725C465.734 113.372 466.618 113.168 467.292 113.039C468.436 112.821 469.131 112.686 470.06 112.766C471.304 112.87 471.459 113.223 471.998 113.069C472.757 112.85 472.977 112.006 473.352 110.908C473.497 110.471 473.672 109.994 473.911 109.497C474.141 109.025 474.406 108.598 474.686 108.211C475.979 106.427 477.678 105.463 478.357 105.076C479.177 104.614 479.656 104.495 483.692 103.605C486.56 102.974 488.128 102.637 489.033 102.398C490.027 102.135 490.211 102.001 490.411 101.737C491.041 100.923 491.146 99.7702 490.916 98.4836C490.466 95.9053 488.693 92.7905 487.154 90.8282C486.035 89.4074 484.886 88.3791 483.992 87.6836" stroke="#231F20" stroke-width="0.6" stroke-miterlimit="10"/>
<path d="M476.875 99.9688C477.095 100.083 477.415 100.297 477.669 100.654C478.319 101.568 478.014 102.651 477.964 102.815" stroke="#231F20" stroke-width="0.6" stroke-miterlimit="10"/>
<path d="M435.448 128.465C435.408 128.515 435.363 128.56 435.323 128.609C434.908 129.086 434.499 129.563 434.084 130.04C408.757 159.325 383.425 188.61 358.098 217.89C356.574 219.654 354.351 220.667 352.014 220.667H348.727V219.848C348.727 218.745 349.621 217.856 350.73 217.856C351.899 217.856 353.033 217.602 354.067 217.13C355.106 216.658 356.035 215.973 356.799 215.094C382.036 186.072 407.278 157.05 432.515 128.028C433.904 126.433 435.288 124.839 436.677 123.244" stroke="#231F20" stroke-width="0.6" stroke-miterlimit="10"/>
<path d="M461.925 111.053C461.7 111.092 461.47 111.132 461.241 111.177C458.498 111.708 456 112.528 453.742 113.517C452.723 113.964 451.754 114.446 450.835 114.947C447.353 116.855 444.576 119.096 442.518 121.073C441.868 121.694 441.294 122.29 440.789 122.841C440.554 123.095 440.34 123.338 440.135 123.572L439.84 123.904L438.896 124.987L438.836 125.057" stroke="#231F20" stroke-width="0.6" stroke-miterlimit="10"/>
<path d="M474.685 108.211C479.891 109.046 484.896 110.874 489.317 113.576C492.319 115.414 495.052 117.65 497.395 120.253C506.946 130.874 509.374 148.008 504.238 168.505C502.315 176.165 499.253 182.45 496.545 187.989C492.194 196.906 488.758 203.945 491.42 212.897C492.424 216.265 493.983 218.685 496.191 220.284C497.105 220.95 498.174 221.491 499.348 221.904C500.817 222.425 502.455 222.748 504.174 222.858C506.891 223.036 509.813 222.689 512.586 221.79C514 221.332 515.283 220.756 516.427 220.091C518.186 219.072 519.6 217.825 520.599 216.419C521.158 215.634 521.588 214.795 521.867 213.921C523.041 210.269 521.528 206.384 520.134 203.866C519.769 203.21 519.974 202.39 520.614 201.988C520.848 201.839 521.108 201.769 521.368 201.769C521.867 201.769 522.352 202.033 522.612 202.505C524.26 205.48 526.054 210.16 524.565 214.775C524.385 215.336 524.16 215.888 523.886 216.419C523.221 217.751 522.287 218.983 521.123 220.091C520.733 220.463 520.324 220.816 519.884 221.159C518.111 222.535 515.943 223.662 513.465 224.467C510.847 225.317 508.14 225.734 505.537 225.734C504.034 225.734 502.56 225.595 501.161 225.317C498.649 224.83 496.366 223.901 494.517 222.56C491.79 220.577 489.892 217.681 488.703 213.697C485.73 203.697 489.562 195.848 493.998 186.762C496.64 181.342 499.638 175.202 501.491 167.824C506.392 148.261 504.189 132.031 495.287 122.131C493.563 120.213 491.585 118.509 489.412 117.034C484.716 113.834 479.126 111.718 473.352 110.908" stroke="#231F20" stroke-width="0.6" stroke-miterlimit="10"/>
<path d="M439.375 120.222C441.678 117.833 445.08 114.872 449.576 112.423C450.415 111.971 451.294 111.529 452.208 111.117C453.033 110.744 453.887 110.396 454.776 110.068C456.619 109.388 458.598 108.821 460.706 108.414C461.125 108.33 461.55 108.255 461.969 108.186" stroke="#231F20" stroke-width="0.6" stroke-miterlimit="10"/>
<path d="M466.386 55.1351C464.038 57.1222 461.37 59.9737 459.292 63.9032C457.939 66.4616 457.149 68.8809 456.68 70.8879C458.463 70.1477 460.491 69.4274 462.749 68.8164C466.97 67.6837 470.787 67.2565 473.914 67.1472C474.843 63.3816 476.771 58.1257 481.028 53.292C481.902 52.2985 482.796 51.4092 483.68 50.6293C483.755 50.5647 483.825 50.5001 483.9 50.4355" stroke="#231F20" stroke-width="0.6" stroke-miterlimit="10"/>
<path d="M454.112 75.8163C453.927 74.5098 453.867 73.5808 453.952 72.9449C455.151 63.9284 461.855 57.9323 463.144 56.8294C465.581 54.7529 467.959 53.4712 469.658 52.7012C468.743 53.2973 467.605 54.0971 466.386 55.1304" stroke="#231F20" stroke-width="0.6" stroke-miterlimit="10"/>
<path d="M454.769 110.069C455.054 109.12 455.338 108.176 455.628 107.237C456.567 104.162 457.521 101.127 458.49 98.1266C458.156 96.4624 456.312 87.3316 456.028 85.9158C455.083 81.2411 454.424 78.007 454.109 75.8262" stroke="#231F20" stroke-width="0.6" stroke-miterlimit="10"/>
<path d="M489.418 117.034C489.693 126.522 490.022 136.1 490.417 145.758C490.822 155.683 491.286 165.509 491.801 175.236C488.864 175.321 485.811 175.346 482.644 175.291C479.297 175.236 475.82 175.092 472.239 174.844C471.714 174.809 471.19 174.769 470.665 174.725C465.35 174.317 460.285 173.716 455.499 172.981C451.278 172.335 447.271 171.58 443.495 170.76C442.246 170.492 441.027 170.214 439.828 169.931C441.247 162.802 442.825 155.529 444.569 148.117C447.107 137.352 449.849 126.969 452.736 116.984C453.071 115.822 453.406 114.664 453.745 113.517C453.76 113.477 453.77 113.442 453.78 113.402" stroke="#231F20" stroke-width="0.6" stroke-miterlimit="10"/>
<path d="M489.039 102.395C489.124 106.115 489.219 109.836 489.324 113.577" stroke="#231F20" stroke-width="0.6" stroke-miterlimit="10"/>
<path d="M455.494 172.986C454.964 174.039 454.4 175.351 453.95 176.911C453.551 178.302 453.331 179.564 453.211 180.642" stroke="#231F20" stroke-width="0.6" stroke-miterlimit="10"/>
<path d="M452.079 179.365C452.553 179.812 452.938 180.245 453.213 180.642C453.702 181.347 453.867 181.929 453.657 182.217C453.478 182.46 453.028 182.47 452.588 182.406C452.074 182.326 451.564 182.147 451.484 182.117" stroke="#231F20" stroke-width="0.6" stroke-miterlimit="10"/>
<path d="M452.586 182.4C452.322 184.472 452.022 186.568 451.682 188.7C450.174 198.074 448.061 206.723 445.633 214.621" stroke="#231F20" stroke-width="0.6" stroke-miterlimit="10"/>
<path d="M443.493 170.76C443.244 171.301 442.719 172.648 443.089 174.257C443.229 174.868 443.463 175.36 443.678 175.728" stroke="#231F20" stroke-width="0.6" stroke-miterlimit="10"/>
<path d="M443.091 174.258C442.771 175.475 442.302 177.353 441.807 179.663C440.119 187.502 440.014 191.541 439.039 197.055C438.46 200.309 437.421 204.994 435.383 210.612" stroke="#231F20" stroke-width="0.6" stroke-miterlimit="10"/>
<path d="M438.643 213.364C437.459 211.884 436.27 210.92 435.38 210.612C434.981 210.473 434.641 210.473 434.391 210.612C434.122 210.766 434.052 211.616 433.897 213.265C433.807 214.234 433.772 214.716 433.797 214.84C433.982 215.659 434.796 216.037 436.285 216.434C437.833 216.852 440.111 217.294 443.183 218.277C444.377 218.66 445.077 218.928 445.561 218.774C445.656 218.744 445.741 218.705 445.821 218.64C446.59 218.034 446.191 216.216 445.636 214.626C445.376 213.876 445.087 213.18 444.867 212.679" stroke="#231F20" stroke-width="0.6" stroke-miterlimit="10"/>
<path d="M442.695 209.043C442.93 209.421 443.255 209.868 443.679 210.32C444.169 210.836 444.659 211.224 445.063 211.497" stroke="#231F20" stroke-width="0.6" stroke-miterlimit="10"/>
<path d="M449.898 174.65C450.528 175.336 451.152 176.026 451.777 176.712" stroke="#231F20" stroke-width="0.6" stroke-miterlimit="10"/>
<path d="M447.438 178.68C448.292 179.008 449.151 179.335 450.005 179.663" stroke="#231F20" stroke-width="0.6" stroke-miterlimit="10"/>
<path d="M445.561 218.773C445.691 219.533 445.791 220.353 445.856 221.228C446.001 223.274 445.896 225.107 445.691 226.662C445.356 226.717 444.867 226.796 444.272 226.876C442.629 227.099 441.37 227.179 440.666 227.219C436.944 227.447 435.086 227.556 433.262 227.591C425.914 227.725 419.315 227.845 418.731 225.753C418.536 225.068 419.05 224.372 419.275 224.074C420.654 222.206 423.806 222.594 425.694 222.504C428.272 222.38 431.889 221.213 436.285 216.434" stroke="#231F20" stroke-width="0.6" stroke-miterlimit="10"/>
<path d="M470.664 174.73C470.864 179.028 471.019 183.409 471.124 187.865C471.149 188.809 471.169 189.753 471.184 190.702C471.338 199.157 471.303 213.141 471.104 221.428C471.099 221.691 471.089 221.949 471.084 222.203" stroke="#231F20" stroke-width="0.6" stroke-miterlimit="10"/>
<path d="M482.641 175.291C482.815 180.751 482.945 186.28 483.035 191.878C483.15 198.933 483.195 212.043 483.17 218.878" stroke="#231F20" stroke-width="0.6" stroke-miterlimit="10"/>
<path d="M481.262 217.174C481.506 217.258 482.7 217.695 483.175 218.878C483.699 220.184 483.095 221.779 482.695 221.804H482.69C482.506 221.814 482.376 221.461 482.251 221.237C481.377 219.598 478.08 218.888 475.527 219.429C473.089 219.951 471.615 221.555 471.086 222.201" stroke="#231F20" stroke-width="0.6" stroke-miterlimit="10"/>
<path d="M474.933 216.846C474.479 217.044 473.949 217.338 473.42 217.765C471.921 218.977 471.337 220.567 471.102 221.426C471.082 221.505 471.062 221.575 471.047 221.64" stroke="#231F20" stroke-width="0.6" stroke-miterlimit="10"/>
<path d="M482.653 221.481C482.663 221.585 482.678 221.689 482.693 221.804C482.838 223.065 483.058 224.904 483.367 227.129C483.812 230.333 483.967 230.984 483.517 231.709C482.648 233.105 480.485 233.17 476.189 233.239C471.353 233.319 468.916 233.329 468.036 231.913C467.227 230.612 468.126 228.515 468.926 226.558C469.25 225.768 469.7 224.889 470.559 223.219C470.744 222.852 470.924 222.509 471.084 222.206C471.308 221.769 471.503 221.406 471.658 221.123" stroke="#231F20" stroke-width="0.6" stroke-miterlimit="10"/>
<path d="M477.773 180.791C478.193 182.068 478.638 183.359 479.107 184.671C479.642 186.181 480.186 187.656 480.736 189.092" stroke="#231F20" stroke-width="0.6" stroke-miterlimit="10"/>
<path d="M472.339 184.084C471.934 185.341 471.53 186.603 471.125 187.864" stroke="#231F20" stroke-width="0.6" stroke-miterlimit="10"/>
<path d="M444.875 105.881C445.245 106.452 445.629 107.028 446.024 107.61C447.198 109.324 448.387 110.928 449.571 112.423" stroke="#231F20" stroke-width="0.6" stroke-miterlimit="10"/>
<path d="M454.116 75.8164V75.8263C453.986 78.4543 453.666 81.8771 452.872 85.8166C452.537 87.4808 451.523 92.2151 449.71 96.7258C448.371 100.054 446.637 103.134 444.809 105.832C441.742 110.367 438.425 113.81 436.372 115.494C436.127 115.693 435.133 116.493 434.099 117.804C433.085 119.081 431.481 121.108 431.431 123.895C431.416 124.66 431.501 126.21 432.515 128.028C432.53 128.058 432.545 128.092 432.565 128.122" stroke="#231F20" stroke-width="0.6" stroke-miterlimit="10"/>
<path d="M452.172 97.1176C452.372 97.0729 454.015 96.7252 455.239 97.8081C455.779 98.2851 456.018 98.8514 456.128 99.1842" stroke="#231F20" stroke-width="0.6" stroke-miterlimit="10"/>
<path d="M466.388 55.1297C465.299 57.0125 464.989 58.2346 465.469 58.7959C466.658 60.1919 472.732 57.4696 483.682 50.6289" stroke="#231F20" stroke-width="0.6" stroke-miterlimit="10"/>
<path d="M438.839 118.639C438.989 119.026 439.169 119.573 439.304 120.238C439.544 121.396 439.624 122.901 439.089 124.486C439.034 124.645 438.969 124.814 438.899 124.988C438.854 125.102 438.804 125.216 438.75 125.33C438.32 126.274 437.73 127.178 437.326 127.089C437.216 127.064 437.111 126.965 437.021 126.741C436.831 126.274 436.716 125.261 436.786 123.249C436.801 122.787 436.826 122.265 436.866 121.684" stroke="#231F20" stroke-width="0.6" stroke-miterlimit="10"/>
<path d="M434.188 130.134C434.427 130.214 435.791 130.651 436.625 129.97C437.025 129.647 437.225 129.141 437.27 128.579C437.325 127.978 437.21 127.317 436.99 126.751C436.725 126.046 436.301 125.479 435.836 125.355C435.591 125.286 435.272 125.33 435.047 125.519C434.507 125.966 434.592 127.173 435.316 128.609C435.341 128.669 435.371 128.728 435.406 128.793" stroke="#231F20" stroke-width="0.6" stroke-miterlimit="10"/>
<path d="M436.984 128.538C437.049 128.553 437.149 128.568 437.274 128.578C437.589 128.598 438.038 128.568 438.418 128.295C438.838 127.992 439.087 127.45 439.107 126.814C439.122 126.347 439.013 125.831 438.748 125.329C438.733 125.294 438.713 125.259 438.693 125.225" stroke="#231F20" stroke-width="0.6" stroke-miterlimit="10"/>
<path d="M439.297 126.825C439.452 126.786 440.021 126.612 440.321 126.075C440.456 125.832 440.511 125.554 440.496 125.265C440.476 124.789 440.251 124.297 439.841 123.904" stroke="#231F20" stroke-width="0.6" stroke-miterlimit="10"/>
<path d="M440.648 125.256C440.718 125.221 441.288 124.958 441.438 124.337C441.568 123.786 441.308 123.185 440.788 122.842H440.783" stroke="#231F20" stroke-width="0.6" stroke-miterlimit="10"/>
<path d="M442.516 121.073C445.508 119.587 448.495 118.107 451.482 116.626C451.268 116.065 451.048 115.509 450.833 114.947" stroke="#231F20" stroke-width="0.6" stroke-miterlimit="10"/>
<path d="M452.203 111.116C452.763 110.739 453.462 110.182 454.151 109.402C454.851 108.612 455.32 107.842 455.63 107.236" stroke="#231F20" stroke-width="0.6" stroke-miterlimit="10"/>
<path d="M463.68 38.8073C463.865 38.7775 464.529 38.6582 465.058 38.0671C465.598 37.466 465.643 36.7854 465.648 36.6016" stroke="#231F20" stroke-width="0.6" stroke-miterlimit="10"/>
<path d="M483.853 29.8183C483.463 30.012 483.074 30.0816 482.689 30.012C482.444 29.9673 482.219 29.8729 482.009 29.7289C480.716 28.8297 480.131 26.0974 480.686 23.0621C480.786 22.5305 480.91 22.0139 481.06 21.532C481.915 18.8146 483.538 16.9865 485.022 17.2498C486.77 17.5677 487.669 20.6825 487.025 24.2047C486.87 25.0492 486.64 25.8441 486.356 26.5594" stroke="#231F20" stroke-width="0.6" stroke-miterlimit="10"/>
<path d="M484.137 34.3947C483.603 33.5551 483.413 32.0648 483.712 30.4453C483.752 30.2317 483.797 30.023 483.852 29.8193C484.337 27.9514 485.366 26.6002 486.355 26.5605C486.435 26.5555 486.52 26.5605 486.6 26.5754C487.769 26.784 488.368 28.8605 487.939 31.2103C487.839 31.7568 487.694 32.2684 487.514 32.7305" stroke="#231F20" stroke-width="0.6" stroke-miterlimit="10"/>
<path d="M487.515 32.7308C488.814 33.5356 489.413 36.2083 488.869 39.1889C488.249 42.572 486.386 45.0708 484.702 44.7678C483.019 44.4647 482.16 41.4741 482.779 38.0861C483.044 36.6454 483.534 35.3637 484.138 34.395C484.952 33.0835 485.976 32.3334 486.945 32.5073C487.15 32.542 487.34 32.6215 487.515 32.7308Z" stroke="#231F20" stroke-width="0.6" stroke-miterlimit="10"/>
<path d="M322.438 227.294H351.851V220.697H337.144L322.438 223.996V227.294Z" stroke="#231F20" stroke-width="0.6" stroke-miterlimit="10"/>
<path d="M500.76 189.236H500.086V187.83C500.086 180.333 506.195 174.258 513.734 174.258H515.986C523.52 174.258 529.634 180.333 529.634 187.83V189.236H528.96" stroke="#231F20" stroke-width="0.6" stroke-miterlimit="10"/>
<path d="M501.17 192.908H500.76C500.391 192.908 500.086 192.609 500.086 192.242V189.907C500.086 189.539 500.391 189.236 500.76 189.236H528.96C529.329 189.236 529.634 189.539 529.634 189.907V192.242C529.634 192.609 529.329 192.908 528.96 192.908H528.465" stroke="#231F20" stroke-width="0.6" stroke-miterlimit="10"/>
<path d="M521.893 216.42H528.962C529.331 216.42 529.636 216.718 529.636 217.086V219.42C529.636 219.788 529.331 220.091 528.962 220.091H520.789" stroke="#231F20" stroke-width="0.6" stroke-miterlimit="10"/>
<path d="M519.323 220.091H500.76C500.391 220.091 500.086 219.788 500.086 219.42V217.086C500.086 216.718 500.391 216.42 500.76 216.42H521.082" stroke="#231F20" stroke-width="0.6" stroke-miterlimit="10"/>
<path d="M501.172 216.419V192.906H528.467V216.419" stroke="#231F20" stroke-width="0.6" stroke-miterlimit="10"/>
<path d="M501.715 220.17C503.084 220.17 504.193 221.268 504.193 222.629C504.193 222.704 504.188 222.783 504.178 222.857C504.068 224.109 503.009 225.093 501.715 225.093C501.545 225.093 501.375 225.073 501.215 225.043C500.086 224.815 499.242 223.821 499.242 222.629C499.242 222.376 499.282 222.132 499.352 221.904C499.662 220.895 500.601 220.17 501.715 220.17Z" stroke="#231F20" stroke-width="0.6" stroke-miterlimit="10"/>
<path d="M530.935 222.629C530.935 223.99 529.831 225.093 528.462 225.093C527.093 225.093 525.984 223.99 525.984 222.629C525.984 221.268 527.093 220.17 528.462 220.17C529.831 220.17 530.935 221.268 530.935 222.629Z" stroke="#231F20" stroke-width="0.6" stroke-miterlimit="10"/>
</g>
</g>
<defs>
<clipPath id="clip0_9401_21918">
<rect x="0.1875" width="536" height="227" rx="32" fill="white"/>
</clipPath>
<clipPath id="clip1_9401_21918">
<rect width="209" height="219" fill="white" transform="translate(322.188 14.5176)"/>
</clipPath>
</defs>
</svg>
