<svg width="537" height="227" viewBox="0 0 537 227" fill="none" xmlns="http://www.w3.org/2000/svg">
<rect x="0.8125" width="536" height="227" rx="16" fill="#7099ED"/>
<path d="M54.6309 53.6211V50.7988H43.4395V53.6211H40.9492V48.709H57.1211V53.6211H54.6309ZM43.7812 36.5801H55.2363V50.291H52.5605V38.6699H46.0664L45.7734 43.9434C45.6953 45.3431 45.5651 46.4531 45.3828 47.2734C45.207 48.0938 44.9531 48.7871 44.6211 49.3535H42.0039C42.4336 48.722 42.7526 47.9896 42.9609 47.1562C43.1758 46.3229 43.319 45.2161 43.3906 43.8359L43.7812 36.5801ZM72.2969 50.7988H69.6406V41.2773C69.6406 41.069 69.6439 40.8411 69.6504 40.5938C69.6569 40.3398 69.6667 40.112 69.6797 39.9102H69.5625C69.4648 40.1055 69.3672 40.2975 69.2695 40.4863C69.1784 40.6751 69.0482 40.8802 68.8789 41.1016L61.877 50.7988H59.0059V36.5801H61.6719V46.0918C61.6719 46.2936 61.6654 46.5182 61.6523 46.7656C61.6458 47.013 61.6393 47.2409 61.6328 47.4492H61.7695C61.8411 47.2865 61.929 47.1009 62.0332 46.8926C62.1439 46.6842 62.2708 46.4792 62.4141 46.2773L69.4258 36.5801H72.2969V50.7988ZM81.0762 49.002C82.2806 49.002 83.166 48.7936 83.7324 48.377C84.2988 47.9603 84.5853 47.3711 84.5918 46.6094C84.5918 45.9062 84.3509 45.3691 83.8691 44.998C83.3939 44.627 82.668 44.4414 81.6914 44.4414H78.8496V42.4395H81.5254C82.4434 42.4395 83.1204 42.2669 83.5566 41.9219C83.9928 41.5768 84.2109 41.0755 84.2109 40.418C84.2109 39.7604 83.9505 39.2559 83.4297 38.9043C82.9089 38.5527 82.0983 38.377 80.998 38.377C79.8392 38.377 78.9635 38.582 78.3711 38.9922C77.7786 39.4023 77.4792 40.0339 77.4727 40.8867V41.0332H74.7773V40.8965C74.7839 39.4512 75.3079 38.3249 76.3496 37.5176C77.3978 36.7038 78.9603 36.2969 81.0371 36.2969C82.9186 36.2969 84.3672 36.6322 85.3828 37.3027C86.3984 37.9668 86.9062 38.9271 86.9062 40.1836C86.9062 41.0365 86.6719 41.7168 86.2031 42.2246C85.7409 42.7324 85.168 43.0905 84.4844 43.2988V43.3379C85.3177 43.5332 85.9948 43.9141 86.5156 44.4805C87.043 45.0404 87.3066 45.776 87.3066 46.6875C87.3066 48.0742 86.763 49.1549 85.6758 49.9297C84.5951 50.6979 83.0749 51.082 81.1152 51.082C79.0384 51.082 77.4336 50.7044 76.3008 49.9492C75.1745 49.194 74.6048 47.9831 74.5918 46.3164V46.1797H77.2871L77.2969 46.3066C77.2969 47.2376 77.6126 47.9212 78.2441 48.3574C78.8757 48.7871 79.8197 49.002 81.0762 49.002ZM87.9707 50.7988L94.1523 36.5117H96.8184L103.01 50.7988H100.061L95.9492 40.7207C95.8255 40.4277 95.7214 40.1478 95.6367 39.8809C95.5521 39.6074 95.474 39.347 95.4023 39.0996H95.3047C95.2266 39.347 95.1452 39.6074 95.0605 39.8809C94.9759 40.1543 94.875 40.4342 94.7578 40.7207L90.6172 50.7988H87.9707ZM90.832 47.4688L91.5938 45.4473H99.25L100.012 47.4688H90.832ZM117.785 50.7988H115.129V41.2773C115.129 41.069 115.132 40.8411 115.139 40.5938C115.145 40.3398 115.155 40.112 115.168 39.9102H115.051C114.953 40.1055 114.855 40.2975 114.758 40.4863C114.667 40.6751 114.536 40.8802 114.367 41.1016L107.365 50.7988H104.494V36.5801H107.16V46.0918C107.16 46.2936 107.154 46.5182 107.141 46.7656C107.134 47.013 107.128 47.2409 107.121 47.4492H107.258C107.329 47.2865 107.417 47.1009 107.521 46.8926C107.632 46.6842 107.759 46.4792 107.902 46.2773L114.914 36.5801H117.785V50.7988ZM111.32 33.5527C111.874 33.5527 112.329 33.4128 112.688 33.1328C113.052 32.8529 113.345 32.3841 113.566 31.7266L115.217 32.6738C114.859 33.5918 114.335 34.2461 113.645 34.6367C112.961 35.0208 112.186 35.2129 111.32 35.2129C110.448 35.2129 109.663 35.0176 108.967 34.627C108.277 34.2363 107.753 33.5853 107.395 32.6738L109.035 31.7266C109.257 32.3971 109.549 32.8691 109.914 33.1426C110.285 33.416 110.754 33.5527 111.32 33.5527ZM121.018 50.7988V36.5801H123.732V42.4102H131.467V36.5801H134.172V50.7988H131.467V44.5195H123.732V50.7988H121.018ZM137.404 50.7988V36.5801H148.215V38.6797H140.09V42.4688H147.219V44.5098H140.09V48.709H148.332V50.7988H137.404ZM150.627 50.7988V36.5801H156.828C158.658 36.5801 160.057 36.9707 161.027 37.752C162.004 38.5332 162.492 39.6758 162.492 41.1797C162.492 42.651 162.007 43.7936 161.037 44.6074C160.067 45.4212 158.661 45.8151 156.818 45.7891H153.342V50.7988H150.627ZM153.342 43.7773H156.584C157.756 43.7773 158.583 43.5527 159.064 43.1035C159.546 42.6478 159.787 42.0098 159.787 41.1895C159.787 40.3626 159.546 39.7311 159.064 39.2949C158.583 38.8522 157.756 38.6309 156.584 38.6309H153.342V43.7773ZM162.834 50.7988L169.016 36.5117H171.682L177.873 50.7988H174.924L170.812 40.7207C170.689 40.4277 170.585 40.1478 170.5 39.8809C170.415 39.6074 170.337 39.347 170.266 39.0996H170.168C170.09 39.347 170.008 39.6074 169.924 39.8809C169.839 40.1543 169.738 40.4342 169.621 40.7207L165.48 50.7988H162.834ZM165.695 47.4688L166.457 45.4473H174.113L174.875 47.4688H165.695ZM179.357 50.7988V36.5801H182.57L187.346 46.834C187.443 47.0423 187.541 47.2539 187.639 47.4688C187.736 47.6771 187.811 47.8561 187.863 48.0059H187.922C187.974 47.8561 188.042 47.6771 188.127 47.4688C188.212 47.2539 188.299 47.0423 188.391 46.834L193.225 36.5801H196.506V50.7988H193.83L193.84 41.1504C193.84 40.9486 193.846 40.7337 193.859 40.5059C193.872 40.2715 193.885 40.0566 193.898 39.8613H193.83C193.785 40.0566 193.726 40.2715 193.654 40.5059C193.589 40.7337 193.511 40.9486 193.42 41.1504L188.908 50.7988H186.604L182.111 41.1504C182.014 40.9551 181.929 40.7435 181.857 40.5156C181.786 40.2812 181.727 40.0632 181.682 39.8613H181.613C181.626 40.0632 181.639 40.2812 181.652 40.5156C181.672 40.7435 181.682 40.9583 181.682 41.1602V50.7988H179.357Z" fill="white"/>
</svg>
