<svg width="537" height="227" viewBox="0 0 537 227" fill="none" xmlns="http://www.w3.org/2000/svg">
<g clip-path="url(#clip0_8903_22034)">
<rect x="0.8125" width="536" height="227" rx="16" fill="#7099ED"/>
<g clip-path="url(#clip1_8903_22034)">
<path d="M430.089 234.14C429.991 237.636 429.893 241.135 429.799 244.63C426.221 243.943 421.608 242.571 416.857 239.695C415.39 238.809 414.082 237.882 412.922 236.961C412.837 234.811 412.844 232.491 412.989 230.027C413.06 228.824 413.161 227.661 413.283 226.545C413.559 226.636 413.839 226.73 414.122 226.825C415.464 227.681 416.918 228.537 418.486 229.37H418.489C420.903 230.658 423.581 231.885 426.528 232.96C427.725 233.395 428.912 233.789 430.089 234.14Z" fill="white"/>
<path d="M399.824 220.46C399.456 221.721 399.109 223.299 398.96 225.136C398.687 224.502 398.394 223.629 398.249 222.557C398.07 221.256 398.181 220.154 398.32 219.398C398.778 219.749 399.277 220.103 399.824 220.46Z" fill="#231F20"/>
<path d="M413.285 226.544C413.163 227.66 413.062 228.823 412.991 230.027C412.846 232.491 412.84 234.81 412.924 236.961C410.698 236.219 407.589 234.857 404.521 232.292C403.115 231.119 401.992 229.919 401.102 228.823C401.166 227.92 401.277 226.956 401.452 225.938C401.709 224.458 402.052 223.136 402.42 221.99C405.162 223.467 408.712 224.994 413.285 226.544Z" fill="#231F20"/>
<path d="M365.612 146.594C365.554 147.268 365.578 148.071 365.784 148.944C365.848 150.414 365.915 151.88 365.979 153.35C365.183 153.542 364.378 153.761 363.562 154.01C363.514 154.024 363.467 154.041 363.42 154.054C363.423 153.282 363.427 152.504 363.43 151.732V151.705C363.444 151.452 363.43 151.182 363.383 150.899C363.386 150.053 363.386 149.21 363.39 148.361C363.605 148.3 363.818 148.202 364.007 148.054C364.479 147.68 364.664 147.103 364.715 146.523L365.612 146.594Z" fill="#FF8B63"/>
<path d="M365.786 145.496C365.719 145.802 365.652 146.173 365.618 146.595L364.721 146.524C364.778 145.92 364.687 145.317 364.633 144.943C364.458 143.746 363.945 142.536 363.207 141.417L362.883 127.532C362.87 126.827 363.409 126.237 364.114 126.19C364.121 126.19 364.131 126.19 364.137 126.187C364.893 126.136 365.534 126.729 365.544 127.481L365.732 141.612L365.786 145.496Z" fill="#FF8B63"/>
<path d="M365.981 153.35C365.916 151.881 365.849 150.414 365.785 148.945C365.579 148.071 365.556 147.269 365.613 146.595C365.647 146.174 365.714 145.803 365.782 145.496L365.728 141.613H365.93C366.743 139.671 368.155 138.167 369.521 138.188C371.362 138.215 373.601 141.023 373.257 145.209C373.955 145.644 375.126 146.501 376.1 147.967C377.24 149.676 377.526 151.338 377.611 152.184C374.195 152.063 370.236 152.319 365.981 153.35Z" fill="#F4F3F1"/>
<path d="M363.429 151.732C363.426 152.504 363.423 153.283 363.419 154.055C362.961 154.197 362.509 154.345 362.07 154.497C362.171 154.409 363.331 153.344 363.429 151.732Z" fill="#F4F3F1"/>
<path d="M363.39 148.361C363.387 149.21 363.387 150.053 363.384 150.899C363.09 149.193 361.721 148.354 361.516 148.232C361.755 148.31 362.612 148.576 363.39 148.361Z" fill="#F4F3F1"/>
<path d="M363.396 148.361C362.617 148.577 361.76 148.311 361.521 148.233C361.727 148.355 363.096 149.194 363.389 150.9C363.436 151.183 363.45 151.453 363.436 151.705V151.732C363.339 153.344 362.179 154.409 362.077 154.497C362.077 154.5 362.074 154.5 362.074 154.5C357.414 156.118 353.782 158.299 351.206 160.146C350.73 160.028 349.699 159.84 348.522 160.18C348.35 159.9 347.746 158.838 348.002 157.48C348.161 156.651 348.569 156.074 348.805 155.791C347.058 154.635 346.394 152.498 347.116 150.812C347.658 149.538 348.933 148.665 350.407 148.5C348.306 146.794 348.218 144.084 349.425 142.9C350.252 142.091 351.715 141.953 353.074 142.455C351.617 140.915 351.051 139.145 351.651 137.921C352.177 136.843 353.448 136.499 353.785 136.408C356.881 135.575 361.022 138.107 363.207 141.417C363.945 142.536 364.458 143.747 364.633 144.943C364.687 145.317 364.778 145.921 364.721 146.524C364.67 147.104 364.485 147.68 364.013 148.055C363.824 148.203 363.612 148.301 363.396 148.361Z" fill="#F4F3F1"/>
<path d="M351.11 161.925C353.959 163.49 356.805 165.054 359.651 166.621C356.933 167.612 354.428 168.003 351.821 167.08C350.085 166.466 347.178 164.865 347.377 163.523C347.481 162.815 348.456 162.168 349.245 161.925C350.095 161.659 350.823 161.838 351.11 161.925Z" fill="#F4F3F1"/>
<path d="M400.5 160.271C398.804 159.604 396.7 158.929 394.245 158.457C391.48 157.928 389.021 157.8 387.039 157.834C379.293 158.7 373.432 160.622 369.43 162.28C365.68 163.834 362.547 165.567 359.651 166.622C356.805 165.054 353.959 163.49 351.109 161.926C354.063 160.082 356.66 158.963 358.494 158.279C367.019 155.103 374.92 155.461 380.905 155.791C383.046 155.909 384.806 156.094 385.973 156.236C389.241 156.455 393.817 157.187 398.78 159.435C399.377 159.708 399.95 159.988 400.5 160.271Z" fill="#7099ED"/>
<path d="M386.863 153.478C386.567 154.399 386.27 155.316 385.973 156.236C384.806 156.094 383.046 155.909 380.905 155.791C374.92 155.461 367.019 155.103 358.494 158.279C356.66 158.963 354.063 160.082 351.109 161.926L351.2 160.146C353.777 158.299 357.408 156.118 362.069 154.5C362.069 154.5 362.072 154.5 362.072 154.497C362.51 154.345 362.962 154.197 363.421 154.055C363.468 154.041 363.515 154.025 363.562 154.011C364.378 153.762 365.184 153.543 365.98 153.35C370.236 152.319 374.195 152.063 377.61 152.184C381.536 152.319 384.746 152.956 386.863 153.478Z" fill="#F4F3F1"/>
<path d="M411.861 164.336C411.496 164.215 411.109 164.094 410.701 163.969C408.408 163.275 407.096 163.082 404.624 162.766C403.44 161.936 402.065 161.083 400.503 160.271C399.954 159.988 399.381 159.708 398.784 159.435C393.82 157.187 389.244 156.455 385.977 156.236C386.273 155.316 386.57 154.399 386.867 153.479C389.672 154.025 393.014 154.871 396.676 156.223C398.018 156.718 399.407 157.281 400.827 157.925C403.221 159.007 405.379 160.163 407.301 161.319C409.004 162.344 410.525 163.366 411.861 164.336Z" fill="#F4F3F1"/>
<path d="M387.039 157.833C389.022 157.799 391.48 157.928 394.245 158.457C396.7 158.929 398.804 159.603 400.5 160.27C402.062 161.083 403.437 161.936 404.621 162.765C403.245 162.59 401.509 162.374 399.047 162.013C398.612 161.949 396.461 161.632 393.79 161.558C392.96 161.231 391.918 160.901 390.691 160.678C389.545 160.473 388.519 160.409 387.666 160.412C387.461 159.552 387.252 158.693 387.042 157.833H387.039Z" fill="#F4F3F1"/>
<path d="M387.041 157.834C387.25 158.694 387.459 159.553 387.664 160.413C378.597 161.427 371.816 163.757 367.122 165.837C362.34 167.954 358.432 170.384 353.421 169.727H353.418C353.155 169.693 352.892 169.649 352.622 169.599C349.496 168.999 345.045 167.017 344.977 164.327C344.937 162.793 346.316 161.023 348.09 160.325C348.235 160.268 348.376 160.221 348.518 160.18C349.695 159.84 350.727 160.028 351.202 160.146L351.111 161.926C350.825 161.839 350.096 161.66 349.246 161.926C348.457 162.169 347.483 162.816 347.378 163.524C347.179 164.866 350.086 166.467 351.823 167.081C354.429 168.004 356.935 167.613 359.653 166.622C362.549 165.567 365.682 163.834 369.432 162.28C373.434 160.622 379.295 158.7 387.041 157.834Z" fill="#F4F3F1"/>
<path d="M401.05 168.88C402.588 169.26 404.685 169.914 407.14 171.125L407.009 171.391C405.869 171.084 404.591 170.801 403.185 170.592C401.134 170.285 399.27 170.208 397.671 170.235C397.604 169.901 397.462 169.469 397.138 169.082C396.761 168.627 396.198 168.317 395.547 168.151L395.712 167.592C397.823 168.222 399.479 168.492 401.05 168.88Z" fill="#F4F3F1"/>
<path d="M399.582 178.349C399.565 178.643 399.582 179.061 399.781 179.482C400.422 180.827 402.354 181.016 403.517 181.282C408.201 182.354 408.123 186.399 412.723 187.218C412.878 187.245 414.17 187.178 416.729 187.036C417.387 187.62 418.216 188.479 418.971 189.662C419.575 190.616 419.963 191.516 420.216 192.241C419.771 192.116 419.332 191.995 418.901 191.88C406.094 188.385 399.37 187.771 395.896 188.422C394.767 188.631 393.984 188.975 393.445 189.396C392.969 189.77 390.592 191.843 387.844 191.442C386.748 191.28 385.969 190.782 385.618 190.552C380.935 187.475 368.63 178.046 362.23 174.105C360.301 172.915 357.347 171.263 353.422 169.726C358.433 170.384 362.341 167.953 367.123 165.836C371.816 163.756 378.598 161.427 387.665 160.412C388.518 160.409 389.543 160.473 390.69 160.679C391.917 160.901 392.959 161.231 393.789 161.558C392.558 161.521 391.219 161.538 389.887 161.656C389.044 161.73 387.642 161.895 387.041 162.903C386.593 163.658 386.761 164.636 387.041 165.213C387.803 166.773 390.42 167.468 393.549 166.868C394.322 167.154 395.04 167.394 395.711 167.592L395.546 168.152C393.866 167.717 391.607 168.226 390.424 169.615C390.187 169.891 389.446 170.761 389.621 171.793C389.844 173.097 391.459 174.206 393.678 174.284C393.711 174.398 393.752 174.516 393.802 174.638C393.802 174.638 394.224 175.676 395.404 176.505C396.072 176.974 397.559 177.459 399.676 177.884L399.582 178.349Z" fill="#7099ED"/>
<path d="M407.14 171.125C404.685 169.915 402.588 169.261 401.05 168.88C399.479 168.492 397.823 168.223 395.712 167.592C395.041 167.393 394.323 167.154 393.55 166.868C390.421 167.468 387.804 166.773 387.042 165.212C386.762 164.636 386.594 163.658 387.042 162.903C387.643 161.895 389.045 161.73 389.888 161.656C391.22 161.538 392.559 161.521 393.79 161.558C396.461 161.632 398.612 161.949 399.047 162.013C401.508 162.374 403.245 162.59 404.621 162.765C407.093 163.082 408.404 163.274 410.697 163.969C411.105 164.093 411.493 164.215 411.857 164.336C410.522 163.365 409.001 162.344 407.298 161.319C411.419 158.423 414.852 158.1 416.565 158.1C417.89 158.1 419.212 158.309 420.47 158.629C423.687 159.441 426.495 160.978 427.949 161.656C430.259 162.738 431.746 163.652 434.885 164.767C435.492 164.983 436.065 165.175 436.605 165.341C437.772 165.708 438.766 165.968 439.508 166.146C439.478 168.587 439.144 171.803 438.665 174.55C438.102 177.793 437.212 181.154 436.372 183.507C435.792 183.527 435.03 183.567 434.13 183.675C433.597 183.743 433.014 183.83 432.397 183.952C428.414 184.72 427.871 185.829 424.391 186.551C424.105 186.611 423.15 186.679 421.424 186.78C420.864 186.814 420.22 186.847 419.492 186.888C418.784 186.928 417.995 186.969 417.121 187.016C416.986 187.023 416.855 187.029 416.727 187.036C414.167 187.178 412.876 187.245 412.721 187.218C408.121 186.399 408.199 182.354 403.515 181.282C402.351 181.016 400.419 180.827 399.779 179.482C399.58 179.06 399.563 178.642 399.58 178.349L399.674 177.884C397.556 177.459 396.069 176.974 395.402 176.505C394.221 175.676 393.8 174.638 393.8 174.638C393.749 174.516 393.709 174.398 393.675 174.284C391.456 174.206 389.841 173.097 389.619 171.793C389.443 170.761 390.185 169.891 390.421 169.615C391.605 168.226 393.864 167.717 395.543 168.152C396.194 168.317 396.757 168.627 397.135 169.082C397.459 169.47 397.6 169.901 397.668 170.235C399.266 170.208 401.131 170.286 403.181 170.593C404.587 170.802 405.865 171.085 407.005 171.391L407.136 171.125H407.14Z" fill="#F4F3F1"/>
<path d="M418.359 94.6345C417.968 93.7783 417.557 93.0468 417.176 92.44C424.243 91.5399 431.854 86.7329 434.447 78.7099C436.771 71.5162 433.938 65.1956 433.112 63.5067C433.847 63.1224 435.044 62.3842 436.009 61.1268C438.042 60.9583 440.325 60.9009 442.807 61.0628C443.882 61.1302 444.911 61.2347 445.885 61.3661H445.889C447.305 63.5101 448.725 65.5495 450.124 67.4778C450.502 68.0003 450.879 68.5127 451.254 69.0183C450.316 73.7512 448.32 80.837 443.741 88.4015C439.789 94.921 435.304 99.5123 431.922 102.465C429.278 104.778 427.245 106.993 426.931 107.336C425.909 108.466 425.397 109.029 425.063 109.47C423.771 111.183 422.874 113.01 422.261 114.894C421.907 114.51 421.553 114.136 421.198 113.768C421.198 113.762 421.188 113.755 421.185 113.751C419.317 111.594 416.086 106.966 416.525 100.935C416.72 98.2684 417.577 96.1211 418.356 94.6345H418.359Z" fill="#F4F3F1"/>
<path d="M415.585 92.5771C414.823 92.6108 412.948 92.6479 410.241 91.9704C408.851 91.6231 407.24 91.0872 405.449 90.2646C392.834 84.4766 387.176 71.8152 385.203 66.6373L416.499 49.6172C416.857 49.6543 420.63 50.1127 422.346 53.3691C423.24 55.0714 423.149 56.7199 423.058 57.4615C424.629 57.0738 426.201 56.6895 427.772 56.3052L426.882 54.1714C426.794 53.8646 426.133 51.4308 427.593 49.6374C429.084 47.7968 431.822 47.8272 433.461 48.4811C437.126 49.9442 438.792 55.9277 436.752 59.9493C436.533 60.3841 436.28 60.7752 436.003 61.1258C435.039 62.3831 433.842 63.1214 433.107 63.5057C433.933 65.1945 436.765 71.5152 434.442 78.7089C431.849 86.7318 424.238 91.5389 417.17 92.4356C416.638 92.5063 416.108 92.5535 415.585 92.5771ZM408.74 69.1959C409.839 68.606 410.379 66.5935 409.182 65.0159C407.82 65.8451 406.457 66.6778 405.092 67.507C405.854 69.1925 407.695 69.7555 408.74 69.1959ZM396.823 74.512C397.923 73.9221 398.462 71.9096 397.265 70.3319C395.903 71.1646 394.54 71.9938 393.175 72.8231C393.937 74.5086 395.778 75.0716 396.823 74.512Z" fill="#F4F3F1"/>
<path d="M422.347 53.3689C420.631 50.1126 416.857 49.6541 416.5 49.617L433.913 40.1445L433.998 40.2996C435.937 44.3886 438.186 48.7102 440.799 53.1937C442.482 56.0759 444.185 58.7962 445.884 61.3649H445.881C444.906 61.2335 443.878 61.129 442.802 61.0616C440.32 60.8997 438.037 60.9571 436.004 61.1256C436.281 60.775 436.533 60.384 436.753 59.9491C438.793 55.9275 437.127 49.944 433.461 48.481C431.823 47.827 429.085 47.7967 427.594 49.6373C426.134 51.4306 426.795 53.8645 426.883 54.1712L427.773 56.3051C426.201 56.6894 424.63 57.0737 423.059 57.4613C423.15 56.7197 423.241 55.0713 422.347 53.3689Z" fill="#231F20"/>
<path d="M401.102 228.822C401.992 229.918 403.115 231.118 404.521 232.291C407.59 234.856 410.699 236.218 412.925 236.96C414.085 237.88 415.393 238.807 416.86 239.694C421.611 242.569 426.224 243.941 429.802 244.629C431.603 244.966 433.541 245.266 435.602 245.495C437.375 245.691 439.072 245.819 440.67 245.893C440.572 245.162 440.481 244.342 440.407 243.449C440.077 239.549 440.299 236.293 440.299 236.299C442.049 236.525 443.752 236.673 445.401 236.754C445.162 239.724 445.023 242.832 445.027 246.072C449.367 246.126 454.219 245.957 459.483 245.404C465.404 244.784 470.732 243.79 475.375 242.677C475.126 240.459 474.738 238.393 474.279 236.481C475.608 236.404 476.977 236.259 478.349 236.046C478.69 237.749 478.977 239.633 479.139 241.676C481 241.484 482.362 240.928 483.182 240.516C484.251 239.977 485.326 239.417 485.583 238.383C485.65 238.11 485.599 237.665 485.495 236.781C486.136 236.963 487.272 237.408 487.896 238.47C488.587 239.647 488.489 241.315 487.616 242.879C487.724 244.083 487.899 246.288 487.987 249.052C488.176 255.173 487.795 259.711 487.717 260.786C486.807 273.579 494.019 286.692 492.698 304.973C492.118 313.016 491.831 317.432 489.231 321.508C473.74 345.796 391.512 335.154 381.308 303.507C378.853 295.885 381.096 284.821 385.577 262.698C386.757 256.883 388.572 249.544 392.382 241.093C393.788 237.968 395.14 235.43 396.149 233.636C396.149 232.493 396.354 231.128 397.049 229.76C397.605 228.667 398.31 227.885 398.89 227.356C398.88 226.658 398.9 225.917 398.964 225.135C399.113 223.297 399.46 221.72 399.828 220.459C400.6 220.961 401.46 221.474 402.421 221.989C402.053 223.136 401.709 224.457 401.453 225.937C401.278 226.955 401.166 227.919 401.102 228.822Z" fill="#383940"/>
<path d="M461.414 73.8317C462.318 74.6408 462.655 76.1173 462.598 77.9916C462.365 85.9201 455.125 101.032 453.877 103.601C452.819 102.549 450.448 100.294 447.676 98.5344C447.511 98.4299 447.342 98.3254 447.177 98.2276C446.165 97.6276 445.144 97.159 443.872 96.9332C443.872 96.9332 442.959 96.7714 442.004 96.8017C439 96.8927 435.034 99.748 431.922 102.465C435.304 99.512 439.789 94.9207 443.741 88.4012C448.32 80.8367 450.316 73.7508 451.254 69.018C450.88 68.5123 450.502 67.9999 450.124 67.4774C450.441 67.3965 451.008 67.2886 451.699 67.3291C453.914 67.4606 455.24 69.0112 458.281 71.4619C460.244 73.0463 460.982 73.4441 461.414 73.8317Z" fill="#7099ED"/>
<path d="M438.791 162.338C439.337 162.459 439.543 164.007 439.513 166.147C438.771 165.969 437.776 165.709 436.609 165.342C437.806 162.756 438.434 162.257 438.791 162.338Z" fill="#7099ED"/>
<path d="M435.198 33.7236L437.636 38.1227L433.913 40.1453L416.5 49.6178L385.204 66.6346L375.179 72.0889L372.387 67.3189L373.048 66.7998C375.287 65.0435 376.029 61.986 374.852 59.4005L371.648 52.3584C369.746 48.1818 368.836 43.7793 368.836 39.4307C368.836 29.1222 373.951 19.1272 383.086 13.2043C397.782 3.67454 417.444 8.07706 426.667 22.9634L432.757 32.7898C433.158 33.4337 433.859 33.8112 434.591 33.8112C434.794 33.8112 434.999 33.7809 435.198 33.7236Z" fill="#FF8B63"/>
<path d="M434.133 183.676C435.033 183.568 435.795 183.528 436.375 183.508C435.681 185.456 435.023 186.714 434.622 186.639C434.382 186.596 434.129 186.046 434.136 183.717V183.676H434.133Z" fill="#7099ED"/>
<path d="M424.768 156.509C425.318 156.509 425.763 155.833 425.763 154.998C425.763 154.164 425.318 153.488 424.768 153.488C424.219 153.488 423.773 154.164 423.773 154.998C423.773 155.833 424.219 156.509 424.768 156.509Z" fill="#7099ED"/>
<path d="M424.182 120.887C424.729 120.887 425.177 121.561 425.177 122.397C425.177 123.233 424.729 123.904 424.182 123.904C423.636 123.904 423.188 123.23 423.188 122.397C423.188 121.564 423.633 120.887 424.182 120.887Z" fill="#7099ED"/>
<path d="M424.765 153.489C424.215 153.489 423.77 154.167 423.77 154.999C423.77 155.832 424.215 156.509 424.765 156.509C425.314 156.509 425.76 155.832 425.76 154.999C425.76 154.167 425.314 153.489 424.765 153.489ZM424.181 120.888C423.632 120.888 423.187 121.562 423.187 122.398C423.187 123.234 423.632 123.905 424.181 123.905C424.731 123.905 425.176 123.231 425.176 122.398C425.176 121.566 424.728 120.888 424.181 120.888ZM421.072 125.483C420.958 121.967 421.136 118.333 422.256 114.898C422.87 113.01 423.767 111.183 425.058 109.471C425.392 109.029 425.905 108.466 426.926 107.337C427.24 106.993 429.273 104.778 431.917 102.466C435.029 99.7486 438.995 96.8934 441.999 96.8023C442.954 96.772 443.867 96.9338 443.867 96.9338C445.139 97.1597 446.161 97.6282 447.172 98.2283C447.337 98.326 447.506 98.4305 447.671 98.535C450.443 100.295 452.814 102.55 453.872 103.602C455.12 101.033 462.36 85.9208 462.593 77.9922C463.27 78.1675 464.073 78.5012 464.768 79.1552C465.432 79.7788 465.89 80.5946 466.137 81.5216C467.118 82.152 468.575 83.0723 470.372 84.1341C478.944 89.194 485.094 91.4627 487.802 92.7571C492.759 95.1269 498.974 100.355 504.133 113.027C505.863 113.947 506.78 116.3 506.264 118.845C507.131 121.556 507.954 124.418 508.702 127.431C510.914 136.337 511.99 144.549 512.435 151.702C515.315 155.515 515.409 159.665 515.372 161.124L514.576 161.445C514.758 161.916 514.934 162.405 515.102 162.904C517.773 170.745 517.49 177.801 516.883 182.284L516.242 182.658C516.522 183.134 516.795 183.632 517.062 184.152C518.859 187.651 520.113 190.105 519.462 192.687C518.114 198.037 509.67 199.544 509.289 199.604C509.103 199.712 508.938 199.806 508.79 199.887C504.743 202.116 498.937 202.662 495.224 202.763C493.073 202.823 491.626 202.732 491.626 202.732C486.501 202.412 479.267 201.485 470.804 198.768C469.927 198.893 468.942 198.913 467.88 198.731C465.135 198.263 463.392 196.715 462.758 196.092C461.338 195.765 459.797 195.299 458.185 194.642C456.614 194.002 455.248 193.287 454.078 192.586H454.075C453.586 192.63 453.087 192.653 452.578 192.667C451.387 192.697 450.143 192.653 448.848 192.508C441.608 191.703 436.658 188.251 434.618 186.639C435.019 186.714 435.677 185.456 436.371 183.508C437.211 181.155 438.101 177.794 438.664 174.551C439.143 171.804 439.477 168.588 439.507 166.147C439.538 164.006 439.332 162.459 438.786 162.338C438.428 162.257 437.801 162.756 436.604 165.341C436.065 165.176 435.491 164.984 434.884 164.768C431.745 163.653 430.258 162.739 427.948 161.657C426.495 160.979 423.686 159.442 420.469 158.63L421.322 158.279C421.386 157.382 421.447 156.499 421.497 155.63C422.094 145.688 421.861 137.709 421.457 131.743C421.322 129.747 421.143 127.637 421.072 125.483Z" fill="#7099ED"/>
<path d="M422.158 199.603C422.158 200.439 421.713 201.113 421.167 201.113C420.62 201.113 420.172 200.439 420.172 199.603C420.172 198.767 420.617 198.096 421.167 198.096C421.716 198.096 422.158 198.77 422.158 199.603Z" fill="#7099ED"/>
<path d="M418.866 224.994C419.416 224.994 419.861 225.672 419.861 226.504C419.861 227.337 419.416 228.015 418.866 228.015C418.701 228.015 418.543 227.951 418.404 227.839C418.401 227.839 418.398 227.836 418.394 227.833C418.27 227.694 418.158 227.546 418.067 227.394C417.946 227.145 417.875 226.838 417.875 226.504C417.875 225.672 418.32 224.994 418.866 224.994Z" fill="#7099ED"/>
<path d="M421.172 201.114C421.719 201.114 422.164 200.44 422.164 199.604C422.164 198.768 421.719 198.097 421.172 198.097C420.626 198.097 420.178 198.771 420.178 199.604C420.178 200.436 420.623 201.114 421.172 201.114ZM418.404 227.839C418.542 227.95 418.701 228.014 418.866 228.014C419.416 228.014 419.861 227.337 419.861 226.504C419.861 225.672 419.416 224.994 418.866 224.994C418.316 224.994 417.875 225.672 417.875 226.504C417.875 226.838 417.945 227.145 418.067 227.394C418.154 227.576 418.266 227.725 418.394 227.832C418.397 227.832 418.401 227.839 418.404 227.839ZM418.616 205.665C419.365 202.472 419.915 197.874 418.903 191.881C419.335 191.995 419.773 192.117 420.218 192.241C420.869 191.709 421.523 191.173 422.174 190.64C421.84 190.172 421.503 189.703 421.172 189.235C421.537 188.668 421.897 188.099 422.262 187.529C421.985 187.279 421.709 187.03 421.429 186.78C423.155 186.679 424.11 186.612 424.396 186.551C427.876 185.83 428.419 184.721 432.401 183.952C433.019 183.831 433.602 183.743 434.135 183.676V183.716C434.131 186.046 434.384 186.595 434.624 186.639C436.664 188.25 441.614 191.702 448.854 192.508C450.149 192.653 451.393 192.697 452.583 192.666C453.092 192.653 453.591 192.629 454.08 192.585H454.084C455.254 193.286 456.62 194.001 458.191 194.642C459.803 195.299 461.344 195.764 462.763 196.091C463.397 196.715 465.141 198.262 467.886 198.731C468.948 198.913 469.932 198.892 470.809 198.768C479.273 201.485 486.506 202.412 491.632 202.732C491.632 202.732 493.078 202.823 495.23 202.762C495.864 205.392 496.72 209.373 497.368 214.291C498.106 219.914 498.477 222.729 498.035 224.293C496.724 228.928 491.429 232.377 485.211 234.416C482.996 235.144 480.662 235.69 478.349 236.048C476.977 236.26 475.608 236.405 474.279 236.482C470.789 236.685 467.552 236.412 465.083 235.626C464.901 235.569 464.507 235.441 463.92 235.245C459.543 236.176 453.055 237.146 445.401 236.755C443.752 236.675 442.049 236.526 440.299 236.3C437.031 235.882 433.609 235.195 430.092 234.14C428.915 233.789 427.728 233.395 426.531 232.96C423.583 231.884 420.906 230.657 418.492 229.373H418.488C417.831 228.577 416.93 227.31 416.303 225.581C415.487 223.322 415.531 221.37 415.592 220.248C415.905 214.642 417.814 209.09 418.616 205.665Z" fill="#7099ED"/>
<path d="M418.488 229.37C416.92 228.537 415.467 227.681 414.125 226.824C413.841 226.73 413.561 226.636 413.285 226.545C408.712 224.994 405.162 223.467 402.42 221.99C401.459 221.475 400.599 220.962 399.827 220.46C399.281 220.103 398.782 219.749 398.323 219.398C394.998 216.867 393.875 214.537 393.713 212.555C393.511 210.054 394.529 208.506 395.45 203.221C395.818 201.104 396.03 199.101 396.135 197.244C396.337 193.694 396.148 190.677 395.899 188.422C399.372 187.771 406.096 188.385 418.903 191.881C419.914 197.874 419.365 202.472 418.616 205.665C417.814 209.09 415.905 214.642 415.591 220.248C415.531 221.37 415.487 223.322 416.303 225.581C416.93 227.31 417.83 228.577 418.488 229.37Z" fill="#7099ED"/>
<path d="M409.184 65.0156C410.381 66.5933 409.842 68.6057 408.742 69.1957C407.697 69.7552 405.856 69.1923 405.094 67.5068C406.459 66.6775 407.822 65.8449 409.184 65.0156Z" fill="#231F20"/>
<path d="M408.557 103.618C407.539 104.087 406.46 104.677 405.364 105.418C401.101 108.311 398.717 112.073 397.446 114.604C397.095 113.202 396.643 110.596 397.314 107.471C397.358 107.266 397.406 107.067 397.456 106.875C397.692 105.941 397.989 105.145 398.262 104.518L398.781 104.737C399.314 103.649 399.975 102.998 400.649 102.604C402.524 101.505 405.283 101.936 408.557 103.618Z" fill="#7099ED"/>
<path d="M411.552 105.397C410.516 104.7 409.515 104.106 408.561 103.617C405.286 101.935 402.528 101.504 400.653 102.603C399.979 102.997 399.318 103.648 398.785 104.737L398.266 104.518C398.525 103.914 398.768 103.469 398.916 103.203C400.164 100.995 401.516 99.9566 404.187 97.6003C405.603 96.3496 407.707 94.4484 410.247 91.9774V91.9707C412.954 92.6483 414.829 92.6112 415.591 92.5775C416.114 92.5539 416.643 92.5067 417.176 92.4359C417.557 93.046 417.969 93.7776 418.36 94.6338C417.581 96.1204 416.724 98.2677 416.529 100.934C416.09 106.965 419.321 111.593 421.189 113.751C417.834 110.248 414.549 107.406 411.555 105.397H411.552Z" fill="#7099ED"/>
<path d="M397.27 70.332C398.467 71.9097 397.928 73.9221 396.828 74.5121C395.783 75.0716 393.942 74.5087 393.18 72.8232C394.545 71.9939 395.908 71.1647 397.27 70.332Z" fill="#231F20"/>
<path d="M362.227 174.105C368.627 178.046 380.931 187.475 385.615 190.553C385.966 190.782 386.745 191.281 387.841 191.442C390.589 191.844 392.966 189.77 393.442 189.396C393.981 188.975 394.764 188.631 395.893 188.422C396.143 190.677 396.332 193.694 396.129 197.244C395.573 198.104 394.052 200.21 391.176 201.488C388.08 202.86 385.298 202.442 384.31 202.247C383.454 202.948 382.317 203.581 380.904 203.753C377.553 204.161 374.029 201.805 372.747 197.922C371.136 196.277 369.834 193.681 368.229 190.02C366.479 186.019 364.324 180.662 362.227 174.105Z" fill="#7099ED"/>
<path d="M411.549 105.397C414.543 107.406 417.827 110.248 421.183 113.75C421.186 113.754 421.193 113.761 421.196 113.767C421.665 114.303 422.046 114.688 422.258 114.897C421.139 118.332 420.96 121.966 421.075 125.481C421.146 127.636 421.324 129.746 421.459 131.741C421.864 137.708 422.097 145.687 421.5 155.628C421.449 156.498 421.388 157.381 421.324 158.278L420.471 158.628C419.213 158.308 417.892 158.103 416.566 158.099C414.853 158.099 411.421 158.423 407.3 161.319C405.378 160.162 403.22 159.006 400.826 157.924C399.406 157.28 398.017 156.717 396.675 156.222C393.012 154.87 389.671 154.024 386.865 153.478C384.748 152.955 381.537 152.318 377.612 152.183C377.528 151.337 377.241 149.675 376.102 147.966C376.55 144.096 377.535 139.326 379.659 134.185C380.475 132.213 381.359 130.43 382.256 128.825C382.107 128.259 382.009 127.575 382.063 126.806C382.252 124.045 384.225 122.397 384.599 122.097C385.8 119.208 387.735 115.685 390.868 112.314C393.154 109.854 395.498 108.101 397.457 106.874C397.406 107.066 397.359 107.265 397.315 107.47C396.644 110.595 397.096 113.201 397.447 114.603C398.718 112.072 401.102 108.31 405.364 105.417C406.46 104.676 407.539 104.086 408.558 103.617C409.512 104.106 410.513 104.699 411.549 105.397Z" fill="#7099ED"/>
<path d="M385.203 66.6373C387.176 71.8152 392.834 84.4766 405.449 90.2646C407.24 91.0872 408.851 91.6231 410.241 91.9704C412.948 92.6479 414.823 92.6108 415.585 92.5771C416.108 92.5535 416.638 92.5063 417.17 92.4356C424.238 91.5389 431.849 86.7318 434.442 78.7089C436.765 71.5152 433.933 65.1945 433.107 63.5057C433.842 63.1214 435.039 62.3831 436.003 61.1258C436.28 60.7752 436.533 60.3841 436.752 59.9493C438.792 55.9277 437.126 49.9442 433.461 48.4811C431.822 47.8272 429.084 47.7968 427.593 49.6374C426.133 51.4308 426.794 53.8646 426.882 54.1714L427.772 56.3052C426.201 56.6895 424.629 57.0738 423.058 57.4615C423.149 56.7199 423.24 55.0714 422.346 53.3691C420.63 50.1127 416.857 49.6543 416.499 49.6172" stroke="#231F20" stroke-width="0.6" stroke-linecap="round" stroke-linejoin="round"/>
<path d="M434 40.3008C435.939 44.3898 438.188 48.7114 440.801 53.1948C442.484 56.077 444.187 58.7974 445.887 61.3661C447.303 63.5101 448.722 65.5495 450.122 67.4777C450.5 68.0002 450.877 68.5126 451.251 69.0183" stroke="#231F20" stroke-width="0.6" stroke-linecap="round" stroke-linejoin="round"/>
<path d="M417.172 92.4395C417.553 93.0462 417.964 93.7777 418.355 94.634C418.635 95.2475 418.905 95.9251 419.145 96.6667C419.6 98.0724 419.829 99.35 419.947 100.402" stroke="#231F20" stroke-width="0.6" stroke-linecap="round" stroke-linejoin="round"/>
<path d="M436.008 61.1268C438.041 60.9583 440.324 60.9009 442.806 61.0628C443.882 61.1302 444.91 61.2347 445.885 61.3661" stroke="#231F20" stroke-width="0.6" stroke-linecap="round" stroke-linejoin="round"/>
<path d="M430.531 55.9922C430.841 55.7124 431.384 55.1461 431.732 54.2595C431.755 54.2022 431.776 54.1415 431.796 54.0842C432.136 53.1066 432.059 52.2572 431.998 51.8594" stroke="#231F20" stroke-width="0.6" stroke-linecap="round" stroke-linejoin="round"/>
<path d="M434.4 54.7919C434.14 54.8323 433.786 54.8593 433.378 54.7919C432.603 54.6705 432.063 54.2964 431.797 54.084" stroke="#231F20" stroke-width="0.6" stroke-linecap="round" stroke-linejoin="round"/>
<path d="M410.695 79.7756C411.144 79.5295 411.731 79.1351 412.297 78.5317C413.228 77.5339 413.629 76.472 413.808 75.8652" stroke="#231F20" stroke-width="0.6" stroke-linecap="round" stroke-linejoin="round"/>
<path d="M405.359 59.5055C405.467 59.2392 405.933 58.1807 407.052 57.729C408.327 57.2099 409.939 57.6919 410.964 58.9729" stroke="#231F20" stroke-width="0.6" stroke-linecap="round" stroke-linejoin="round"/>
<path d="M394.335 66.0852C394.055 66.0245 393.191 65.8728 392.379 66.3515C391.364 66.9448 390.845 68.2696 391.135 69.6416" stroke="#231F20" stroke-width="0.6" stroke-linecap="round" stroke-linejoin="round"/>
<path d="M431.922 102.465C435.304 99.5116 439.789 94.9203 443.741 88.4008C448.32 80.8363 450.316 73.7505 451.254 69.0176" stroke="#231F20" stroke-width="0.6" stroke-linecap="round" stroke-linejoin="round"/>
<path d="M422.26 114.896C421.141 118.332 420.962 121.965 421.077 125.481C421.148 127.635 421.326 129.746 421.461 131.741C421.866 137.708 422.098 145.687 421.502 155.628C421.451 156.498 421.39 157.381 421.326 158.278" stroke="#231F20" stroke-width="0.6" stroke-linecap="round" stroke-linejoin="round"/>
<path d="M450.121 67.4774C450.438 67.3965 451.005 67.2886 451.696 67.3291C453.911 67.4606 455.237 69.0112 458.278 71.4619C460.241 73.0463 460.979 73.4441 461.411 73.8317C462.315 74.6408 462.652 76.1173 462.594 77.9916C462.362 85.9201 455.122 101.032 453.874 103.601C452.815 102.549 450.445 100.294 447.673 98.5344C447.508 98.4299 447.339 98.3254 447.174 98.2276C446.162 97.6276 445.141 97.159 443.869 96.9332C443.869 96.9332 442.956 96.7714 442.001 96.8017C438.997 96.8927 435.031 99.748 431.919 102.465C429.275 104.777 427.242 106.992 426.928 107.336C425.906 108.465 425.394 109.028 425.06 109.47C423.769 111.182 422.872 113.009 422.258 114.894" stroke="#231F20" stroke-width="0.6" stroke-linecap="round" stroke-linejoin="round"/>
<path d="M421.195 113.768C421.664 114.304 422.045 114.688 422.258 114.897" stroke="#231F20" stroke-width="0.6" stroke-linecap="round" stroke-linejoin="round"/>
<path d="M418.356 94.6348C417.577 96.1214 416.72 98.2687 416.525 100.935C416.086 106.966 419.317 111.594 421.185 113.752" stroke="#231F20" stroke-width="0.6" stroke-linecap="round" stroke-linejoin="round"/>
<path d="M410.243 91.9785C407.704 94.4495 405.6 96.3507 404.183 97.6013C401.513 99.9577 400.161 100.996 398.913 103.204C398.764 103.47 398.522 103.915 398.262 104.519C397.989 105.146 397.692 105.941 397.456 106.875C397.406 107.067 397.358 107.266 397.314 107.472C396.643 110.597 397.095 113.202 397.446 114.605C398.717 112.073 401.101 108.311 405.364 105.419C406.46 104.677 407.539 104.087 408.557 103.619" stroke="#231F20" stroke-width="0.6" stroke-linecap="round" stroke-linejoin="round"/>
<path d="M398.781 104.737C399.314 103.649 399.975 102.998 400.649 102.604C402.524 101.505 405.283 101.936 408.557 103.618C409.511 104.107 410.513 104.7 411.548 105.398C414.542 107.407 417.827 110.249 421.182 113.751C421.185 113.755 421.192 113.762 421.195 113.768C421.549 114.136 421.903 114.51 422.258 114.894L422.288 114.928" stroke="#231F20" stroke-width="0.6" stroke-linecap="round" stroke-linejoin="round"/>
<path d="M462.594 77.9922C463.272 78.1675 464.074 78.5012 464.769 79.1552C465.433 79.7788 465.892 80.5946 466.138 81.5216C466.488 82.8161 466.424 84.3263 465.925 85.823" stroke="#231F20" stroke-width="0.6" stroke-linecap="round" stroke-linejoin="round"/>
<path d="M466.141 81.5215C467.122 82.1519 468.579 83.0721 470.376 84.134C478.948 89.1939 485.098 91.4625 487.806 92.757C492.763 95.1268 498.978 100.355 504.137 113.027" stroke="#231F20" stroke-width="0.6" stroke-linecap="round" stroke-linejoin="round"/>
<path d="M501.5 112.672C502.104 112.568 503.142 112.5 504.137 113.026C505.867 113.946 506.784 116.299 506.268 118.844" stroke="#231F20" stroke-width="0.6" stroke-linecap="round" stroke-linejoin="round"/>
<path d="M505.312 115.955C505.636 116.899 505.957 117.86 506.27 118.844C507.137 121.554 507.96 124.416 508.708 127.43C510.92 136.336 511.996 144.548 512.441 151.701" stroke="#231F20" stroke-width="0.6" stroke-linecap="round" stroke-linejoin="round"/>
<path d="M473.489 123.74C473.172 126.764 472.993 130.165 473.088 133.877C473.226 139.399 473.927 144.27 474.794 148.338C474.807 148.413 474.824 148.49 474.841 148.564" stroke="#231F20" stroke-width="0.6" stroke-miterlimit="10"/>
<path d="M463.617 127.74C464.335 129.021 465.654 131 467.886 132.807C469.866 134.411 471.805 135.268 473.123 135.729" stroke="#231F20" stroke-width="0.6" stroke-miterlimit="10"/>
<path d="M480.241 142.988C479.806 143.133 476.127 144.434 474.788 148.338C473.264 152.788 476.201 156.455 476.45 156.755C476.454 156.762 476.457 156.766 476.461 156.769" stroke="#231F20" stroke-width="0.6" stroke-miterlimit="10"/>
<path d="M478.421 150.145C477.817 151.058 477.065 152.454 476.687 154.277C476.509 155.144 476.441 155.976 476.455 156.755C476.492 159.509 477.5 161.633 477.942 162.472" stroke="#231F20" stroke-width="0.6" stroke-miterlimit="10"/>
<path d="M508.078 147.879C509.258 148.553 510.954 149.74 512.435 151.702C515.315 155.514 515.409 159.664 515.372 161.124" stroke="#231F20" stroke-width="0.6" stroke-miterlimit="10"/>
<path d="M511.992 155.969C512.893 157.56 513.789 159.384 514.579 161.443C514.761 161.915 514.936 162.404 515.105 162.903C517.775 170.744 517.492 177.799 516.885 182.283" stroke="#231F20" stroke-width="0.6" stroke-miterlimit="10"/>
<path d="M511.37 176.238C512.756 177.668 514.576 179.791 516.242 182.657C516.522 183.132 516.795 183.631 517.062 184.15C518.859 187.649 520.113 190.103 519.463 192.685C518.114 198.035 509.67 199.542 509.289 199.603" stroke="#231F20" stroke-width="0.6" stroke-miterlimit="10"/>
<path d="M506.031 177.217C509.012 180.628 511.228 183.686 512.792 186.018C515.911 190.67 516.424 192.521 515.726 193.664C515.25 194.443 514.289 194.753 513.477 194.888" stroke="#231F20" stroke-width="0.6" stroke-miterlimit="10"/>
<path d="M514.037 192.596C513.969 193.189 513.821 193.995 513.477 194.888C513.339 195.242 513.174 195.606 512.968 195.977C511.899 197.908 510.338 198.99 509.289 199.604C509.104 199.712 508.938 199.806 508.79 199.887C504.743 202.115 498.937 202.662 495.224 202.763C493.073 202.823 491.626 202.732 491.626 202.732C486.501 202.412 479.267 201.485 470.804 198.768C470.804 198.768 470.801 198.767 470.797 198.765" stroke="#231F20" stroke-width="0.6" stroke-miterlimit="10"/>
<path d="M499.719 170.103C498.226 169.496 496.684 168.903 495.093 168.323C495.093 168.323 493.99 167.898 491.835 167.197C488.49 166.108 485.735 165.104 482.289 164.413C479.811 163.917 478.334 163.823 477.201 164.699C476.627 165.141 476.307 165.701 476.125 166.112" stroke="#231F20" stroke-width="0.6" stroke-miterlimit="10"/>
<path d="M486.2 183.26C483.833 176.444 480.976 171.961 479.085 169.392C477.975 167.882 477.041 166.823 476.124 166.112C475.298 165.465 474.485 165.104 473.571 164.946C470.226 164.366 467.363 166.867 466.625 167.552" stroke="#231F20" stroke-width="0.6" stroke-miterlimit="10"/>
<path d="M454.078 192.586C460.289 192.09 464.788 189.609 466.457 188.598" stroke="#231F20" stroke-width="0.6" stroke-miterlimit="10"/>
<path d="M434.617 186.639C436.657 188.25 441.607 191.702 448.847 192.508C450.142 192.653 451.386 192.696 452.577 192.666C453.086 192.653 453.585 192.629 454.074 192.585" stroke="#231F20" stroke-width="0.6" stroke-miterlimit="10"/>
<path d="M471.265 166.726C470.51 166.951 469.339 167.255 467.886 167.437C467.458 167.491 467.04 167.528 466.632 167.552C463.519 167.747 461.115 167.184 459.881 166.901C459.105 166.726 458.225 166.527 457.244 166.314C452.887 165.364 446.561 164.042 438.792 162.337C438.708 162.316 438.623 162.3 438.539 162.279" stroke="#231F20" stroke-width="0.6" stroke-miterlimit="10"/>
<path d="M454.078 192.586H454.081C455.252 193.287 456.617 194.002 458.189 194.642C459.801 195.3 461.342 195.765 462.761 196.092C464.012 196.385 465.169 196.57 466.194 196.688" stroke="#231F20" stroke-width="0.6" stroke-miterlimit="10"/>
<path d="M462.758 196.092C463.392 196.715 465.135 198.263 467.88 198.731C468.942 198.913 469.927 198.893 470.804 198.768C472.834 198.472 474.277 197.599 474.729 197.309" stroke="#231F20" stroke-width="0.6" stroke-miterlimit="10"/>
<path d="M484.331 159.08C483.39 159.427 476.744 161.935 477.041 164.234C477.058 164.386 477.108 164.541 477.199 164.7" stroke="#231F20" stroke-width="0.6" stroke-miterlimit="10"/>
<path d="M475.891 114.095C476.612 112.234 477.813 109.743 479.802 107.157C482.045 104.245 484.449 102.313 486.206 101.113" stroke="#231F20" stroke-width="0.6" stroke-miterlimit="10"/>
<path d="M457.478 176.593C457.721 175.352 457.913 173.852 457.923 172.15C457.94 169.82 457.613 167.838 457.242 166.314" stroke="#231F20" stroke-width="0.6" stroke-miterlimit="10"/>
<path d="M455.876 185.217C455.748 185.975 455.552 186.815 455.252 187.708C454.527 189.872 453.468 191.524 452.578 192.667" stroke="#231F20" stroke-width="0.6" stroke-miterlimit="10"/>
<path d="M462.995 177.482C461.592 176.825 460.125 177.149 459.613 177.927C458.999 178.858 459.515 180.816 461.393 181.659" stroke="#231F20" stroke-width="0.6" stroke-miterlimit="10"/>
<path d="M439.51 166.146H439.507C438.765 165.968 437.77 165.708 436.603 165.341C436.064 165.175 435.491 164.983 434.884 164.767C431.744 163.652 430.257 162.738 427.947 161.656C426.494 160.978 423.685 159.441 420.468 158.629C419.21 158.309 417.889 158.103 416.563 158.1C414.85 158.1 411.418 158.423 407.297 161.319" stroke="#231F20" stroke-width="0.6" stroke-miterlimit="10"/>
<path d="M393.79 161.559C392.559 161.521 391.22 161.538 389.888 161.656C389.045 161.73 387.643 161.896 387.042 162.904C386.594 163.659 386.762 164.636 387.042 165.213C387.804 166.773 390.421 167.468 393.55 166.868C393.561 166.864 393.571 166.865 393.581 166.861" stroke="#231F20" stroke-width="0.6" stroke-miterlimit="10"/>
<path d="M414.254 165.213C413.637 164.967 412.824 164.66 411.857 164.336C411.492 164.215 411.105 164.094 410.697 163.969C408.404 163.274 407.092 163.082 404.62 162.765C403.244 162.59 401.508 162.374 399.046 162.014C398.611 161.95 396.46 161.633 393.789 161.559" stroke="#231F20" stroke-width="0.6" stroke-miterlimit="10"/>
<path d="M391.664 166.104C392.011 166.255 392.534 166.478 393.175 166.727C393.3 166.774 393.424 166.822 393.546 166.869C394.318 167.155 395.036 167.395 395.707 167.593C397.818 168.224 399.474 168.494 401.045 168.881C402.583 169.262 404.68 169.916 407.135 171.126C407.327 171.217 407.52 171.315 407.715 171.416" stroke="#231F20" stroke-width="0.6" stroke-miterlimit="10"/>
<path d="M407.007 171.393C405.867 171.086 404.589 170.803 403.183 170.594C401.133 170.287 399.268 170.209 397.669 170.236C397.602 169.903 397.46 169.471 397.137 169.083C396.759 168.628 396.196 168.318 395.545 168.153C393.866 167.718 391.606 168.227 390.423 169.616C390.187 169.892 389.445 170.762 389.62 171.794C389.843 173.098 391.458 174.207 393.677 174.285H393.68" stroke="#231F20" stroke-width="0.6" stroke-miterlimit="10"/>
<path d="M393.532 172.949C393.511 173.269 393.518 173.745 393.673 174.284C393.707 174.399 393.747 174.517 393.798 174.638C393.798 174.638 394.22 175.676 395.4 176.506C396.067 176.974 397.555 177.46 399.672 177.884C402.087 178.366 405.317 178.774 409.094 178.993" stroke="#231F20" stroke-width="0.6" stroke-miterlimit="10"/>
<path d="M399.583 178.35C399.566 178.643 399.583 179.061 399.782 179.482C400.423 180.827 402.355 181.016 403.518 181.282C408.202 182.354 408.125 186.4 412.724 187.219C412.879 187.246 414.171 187.178 416.73 187.037C416.858 187.03 416.99 187.023 417.125 187.016C417.998 186.969 418.787 186.929 419.495 186.888C420.223 186.848 420.868 186.814 421.427 186.78C423.154 186.679 424.108 186.612 424.395 186.551C427.875 185.83 428.418 184.721 432.4 183.952C433.017 183.831 433.6 183.743 434.133 183.676C435.034 183.568 435.796 183.527 436.376 183.507" stroke="#231F20" stroke-width="0.6" stroke-miterlimit="10"/>
<path d="M436.588 165.375C436.588 165.375 436.598 165.352 436.605 165.342C437.802 162.756 438.429 162.257 438.786 162.338C439.333 162.459 439.538 164.007 439.508 166.147C439.478 168.588 439.144 171.804 438.665 174.551C438.102 177.794 437.212 181.155 436.372 183.508C435.677 185.456 435.02 186.714 434.619 186.64C434.379 186.596 434.126 186.046 434.133 183.717" stroke="#231F20" stroke-width="0.6" stroke-miterlimit="10"/>
<path d="M411.861 164.336C410.525 163.366 409.004 162.344 407.301 161.319C405.379 160.163 403.221 159.007 400.827 157.925C399.407 157.281 398.018 156.718 396.676 156.223C393.014 154.871 389.672 154.025 386.867 153.479C386.57 154.399 386.273 155.316 385.977 156.236C389.244 156.455 393.82 157.187 398.784 159.435C399.381 159.708 399.954 159.988 400.503 160.271C402.065 161.083 403.44 161.936 404.624 162.766" stroke="#231F20" stroke-width="0.6" stroke-linecap="round" stroke-linejoin="round"/>
<path d="M400.5 160.27C398.804 159.603 396.7 158.929 394.245 158.457C391.48 157.928 389.022 157.799 387.039 157.833C387.248 158.693 387.457 159.552 387.663 160.412C388.516 160.409 389.541 160.473 390.688 160.678C391.915 160.901 392.957 161.231 393.787 161.558" stroke="#231F20" stroke-width="0.6" stroke-linecap="round" stroke-linejoin="round"/>
<path d="M362.07 154.497C362.509 154.345 362.961 154.197 363.419 154.055C363.466 154.041 363.514 154.025 363.561 154.011C364.377 153.762 365.183 153.543 365.979 153.35C370.234 152.319 374.193 152.063 377.609 152.184C381.534 152.319 384.744 152.956 386.862 153.478" stroke="#231F20" stroke-width="0.6" stroke-linecap="round" stroke-linejoin="round"/>
<path d="M385.973 156.236C384.806 156.094 383.046 155.909 380.905 155.791C374.92 155.461 367.019 155.103 358.494 158.279C356.66 158.963 354.063 160.082 351.109 161.926L351.2 160.146C353.777 158.299 357.408 156.118 362.069 154.5" stroke="#231F20" stroke-width="0.6" stroke-linecap="round" stroke-linejoin="round"/>
<path d="M351.109 161.926C353.959 163.49 356.805 165.054 359.651 166.622" stroke="#231F20" stroke-width="0.6" stroke-linecap="round" stroke-linejoin="round"/>
<path d="M351.11 161.926C350.823 161.839 350.095 161.66 349.245 161.926C348.456 162.169 347.481 162.816 347.377 163.524C347.178 164.866 350.085 166.467 351.821 167.081C354.428 168.004 356.933 167.613 359.651 166.622C362.548 165.567 365.68 163.834 369.43 162.28C373.433 160.622 379.293 158.7 387.039 157.834" stroke="#231F20" stroke-width="0.6" stroke-linecap="round" stroke-linejoin="round"/>
<path d="M353.422 169.726C358.433 170.384 362.341 167.953 367.123 165.836C371.816 163.756 378.598 161.427 387.665 160.412" stroke="#231F20" stroke-width="0.6" stroke-linecap="round" stroke-linejoin="round"/>
<path d="M351.202 160.146C350.727 160.028 349.695 159.839 348.518 160.18C348.376 160.22 348.235 160.267 348.09 160.325C346.316 161.022 344.937 162.792 344.977 164.326C345.045 167.016 349.496 168.998 352.622 169.598C352.892 169.649 353.155 169.693 353.418 169.726" stroke="#231F20" stroke-width="0.6" stroke-linecap="round" stroke-linejoin="round"/>
<path d="M353.414 169.727H353.417C357.343 171.264 360.296 172.916 362.225 174.105C368.625 178.046 380.93 187.475 385.614 190.553C385.965 190.782 386.744 191.281 387.839 191.443C390.588 191.844 392.965 189.77 393.44 189.396C393.98 188.975 394.762 188.631 395.892 188.422C399.365 187.771 406.089 188.385 418.896 191.881C419.328 191.995 419.766 192.117 420.211 192.241C419.958 191.517 419.571 190.617 418.967 189.663C418.212 188.479 417.382 187.62 416.725 187.04" stroke="#231F20" stroke-width="0.6" stroke-linecap="round" stroke-linejoin="round"/>
<path d="M419.492 186.889C420.049 187.671 420.608 188.453 421.168 189.235C421.499 189.703 421.836 190.172 422.17 190.641C421.519 191.173 420.865 191.709 420.214 192.242" stroke="#231F20" stroke-width="0.6" stroke-linecap="round" stroke-linejoin="round"/>
<path d="M421.428 186.779C421.708 187.029 421.985 187.278 422.261 187.528C421.897 188.097 421.536 188.667 421.172 189.233" stroke="#231F20" stroke-width="0.6" stroke-linecap="round" stroke-linejoin="round"/>
<path d="M365.876 145.121C365.846 145.232 365.815 145.357 365.782 145.495C365.714 145.802 365.647 146.173 365.613 146.594C365.556 147.268 365.579 148.071 365.785 148.944C366.001 149.864 366.19 150.66 366.854 151.165C368.385 152.335 371.723 151.378 372.546 149.298C372.839 148.556 372.748 147.825 372.634 147.343" stroke="#231F20" stroke-width="0.6" stroke-miterlimit="10"/>
<path d="M365.93 141.609C366.742 139.671 368.155 138.167 369.521 138.188C371.362 138.215 373.601 141.023 373.257 145.209C373.955 145.644 375.125 146.501 376.1 147.967C377.24 149.676 377.526 151.338 377.611 152.184" stroke="#231F20" stroke-width="0.6" stroke-miterlimit="10"/>
<path d="M363.436 151.705C363.45 151.453 363.436 151.183 363.389 150.9C363.096 149.194 361.727 148.355 361.521 148.233C361.76 148.311 362.617 148.577 363.396 148.361C363.612 148.301 363.824 148.203 364.013 148.055C364.485 147.68 364.67 147.104 364.721 146.524C364.778 145.921 364.687 145.317 364.633 144.943C364.458 143.747 363.945 142.536 363.207 141.417C361.022 138.107 356.881 135.575 353.785 136.408C353.448 136.499 352.177 136.843 351.651 137.921C351.051 139.145 351.617 140.915 353.074 142.455C351.715 141.953 350.252 142.091 349.425 142.9C348.218 144.084 348.306 146.794 350.407 148.5C348.933 148.665 347.658 149.538 347.116 150.812C346.394 152.498 347.058 154.635 348.805 155.791C348.569 156.074 348.161 156.651 348.002 157.48C347.746 158.838 348.35 159.9 348.522 160.18" stroke="#231F20" stroke-width="0.6" stroke-miterlimit="10"/>
<path d="M362.07 154.5C362.07 154.5 362.074 154.5 362.074 154.497C362.175 154.409 363.335 153.344 363.433 151.732" stroke="#231F20" stroke-width="0.6" stroke-miterlimit="10"/>
<path d="M360.453 145.567C360.666 145.251 360.902 144.924 361.165 144.59C361.495 144.165 361.822 143.781 362.143 143.434" stroke="#231F20" stroke-width="0.6" stroke-miterlimit="10"/>
<path d="M361.162 150.721C360.983 150.953 360.801 151.216 360.626 151.523C360.251 152.177 360.039 152.801 359.914 153.3" stroke="#231F20" stroke-width="0.6" stroke-miterlimit="10"/>
<path d="M367.477 147.879C367.787 147.757 368.286 147.609 368.9 147.609C370.151 147.616 370.849 148.253 371.213 147.966C371.392 147.825 371.516 147.44 371.125 146.277" stroke="#231F20" stroke-width="0.6" stroke-miterlimit="10"/>
<path d="M363.207 141.417L362.883 127.532C362.87 126.827 363.409 126.237 364.114 126.19C364.121 126.19 364.131 126.19 364.137 126.187C364.893 126.136 365.534 126.729 365.544 127.481L365.732 141.612L365.786 145.496" stroke="#231F20" stroke-width="0.6" stroke-miterlimit="10"/>
<path d="M365.985 153.349C365.921 151.879 365.853 150.413 365.789 148.943" stroke="#231F20" stroke-width="0.6" stroke-miterlimit="10"/>
<path d="M363.39 148.357C363.386 149.21 363.386 150.053 363.383 150.899" stroke="#231F20" stroke-width="0.6" stroke-miterlimit="10"/>
<path d="M363.422 154.055C363.425 153.283 363.429 152.504 363.432 151.732V151.705" stroke="#231F20" stroke-width="0.6" stroke-miterlimit="10"/>
<path d="M393.714 132.406C393.384 133.846 393.043 136.189 393.539 138.986C394.267 143.119 396.398 145.887 397.46 147.097" stroke="#231F20" stroke-width="0.6" stroke-miterlimit="10"/>
<path d="M399.4 137.031C398.945 138.835 398.527 140.733 398.156 142.721C397.879 144.211 397.646 145.674 397.454 147.097C397.012 150.33 396.773 153.384 396.672 156.222" stroke="#231F20" stroke-width="0.6" stroke-miterlimit="10"/>
<path d="M397.46 106.875C395.501 108.102 393.157 109.855 390.871 112.316C387.738 115.687 385.803 119.209 384.602 122.098C384.073 123.369 383.685 124.515 383.398 125.473" stroke="#231F20" stroke-width="0.6" stroke-miterlimit="10"/>
<path d="M384.598 122.098C384.223 122.398 382.251 124.046 382.062 126.807C382.008 127.576 382.106 128.26 382.254 128.826C382.409 129.419 382.618 129.885 382.773 130.185" stroke="#231F20" stroke-width="0.6" stroke-linecap="round" stroke-linejoin="round"/>
<path d="M382.256 128.826C381.359 130.431 380.475 132.214 379.659 134.186C377.535 139.327 376.55 144.097 376.102 147.967" stroke="#231F20" stroke-width="0.6" stroke-linecap="round" stroke-linejoin="round"/>
<path d="M372.75 197.922C373.617 198.802 374.571 199.408 375.704 199.756C377.471 200.295 379.13 200.046 380.239 199.756" stroke="#231F20" stroke-width="0.6" stroke-linecap="round" stroke-linejoin="round"/>
<path d="M362.227 174.105C364.324 180.662 366.479 186.019 368.229 190.02C369.834 193.681 371.136 196.277 372.747 197.918" stroke="#231F20" stroke-width="0.6" stroke-linecap="round" stroke-linejoin="round"/>
<path d="M372.75 197.918C374.031 201.805 377.555 204.161 380.907 203.753C382.32 203.581 383.456 202.947 384.313 202.246C385.459 201.309 386.103 200.254 386.242 200.021" stroke="#231F20" stroke-width="0.6" stroke-linecap="round" stroke-linejoin="round"/>
<path d="M384.312 202.247C385.301 202.442 388.082 202.86 391.178 201.488C394.054 200.211 395.575 198.104 396.132 197.244" stroke="#231F20" stroke-width="0.6" stroke-linecap="round" stroke-linejoin="round"/>
<path d="M378.906 193.486C379.483 193.229 380.43 192.72 381.307 191.753C382.029 190.957 382.423 190.158 382.642 189.619" stroke="#231F20" stroke-width="0.6" stroke-linecap="round" stroke-linejoin="round"/>
<path d="M395.899 188.422C396.148 190.677 396.337 193.694 396.135 197.244C396.03 199.101 395.818 201.104 395.45 203.221C394.529 208.506 393.511 210.054 393.713 212.555C393.875 214.537 394.998 216.866 398.323 219.398C398.782 219.749 399.281 220.102 399.827 220.46C400.599 220.962 401.459 221.474 402.42 221.99C405.162 223.467 408.712 224.994 413.285 226.544C413.561 226.635 413.841 226.73 414.125 226.824C415.467 227.68 416.92 228.537 418.488 229.369" stroke="#231F20" stroke-width="0.6" stroke-linecap="round" stroke-linejoin="round"/>
<path d="M449.336 230.559C450.452 230.91 452.229 231.466 454.404 232.16C458.963 233.61 462.234 234.688 463.913 235.245C464.5 235.44 464.895 235.568 465.077 235.626C467.545 236.411 470.782 236.684 474.272 236.482C475.601 236.404 476.97 236.259 478.342 236.047C480.656 235.69 482.989 235.143 485.205 234.415C491.423 232.376 496.717 228.927 498.029 224.292C498.47 222.728 498.099 219.913 497.361 214.291C496.713 209.372 495.857 205.391 495.223 202.762" stroke="#231F20" stroke-width="0.6" stroke-linecap="round" stroke-linejoin="round"/>
<path d="M418.903 191.877C419.915 197.874 419.365 202.472 418.616 205.664C417.814 209.089 415.905 214.641 415.592 220.247C415.531 221.37 415.487 223.322 416.303 225.58C416.93 227.31 417.831 228.577 418.488 229.369H418.492" stroke="#231F20" stroke-width="0.6" stroke-linecap="round" stroke-linejoin="round"/>
<path d="M437.797 114.605C438.859 113.425 439.942 112.093 441 110.603C444.15 106.167 446.025 101.795 447.171 98.2285" stroke="#231F20" stroke-width="0.6" stroke-linecap="round" stroke-linejoin="round"/>
<path d="M412.992 113.405C412.53 112.801 411.97 111.911 411.593 110.738C410.827 108.368 411.289 106.302 411.552 105.398" stroke="#231F20" stroke-width="0.6" stroke-linecap="round" stroke-linejoin="round"/>
<path d="M442.203 118.338C442.8 117.323 443.683 115.924 444.87 114.337C446.223 112.53 446.897 111.626 447.204 111.738C447.676 111.903 447.646 114.121 445.204 123.671" stroke="#231F20" stroke-width="0.6" stroke-linecap="round" stroke-linejoin="round"/>
<path d="M428.75 118.716C426.481 117.843 423.962 119.05 423.237 121.204C422.566 123.193 423.581 125.488 425.638 126.361" stroke="#231F20" stroke-width="0.6" stroke-linecap="round" stroke-linejoin="round"/>
<path d="M427.503 152.945C425.55 152.858 423.884 153.502 423.591 154.456C423.237 155.598 424.704 157.658 427.681 158.457" stroke="#231F20" stroke-width="0.6" stroke-linecap="round" stroke-linejoin="round"/>
<path d="M416.742 154.367C418.327 154.789 419.912 155.21 421.497 155.628" stroke="#231F20" stroke-width="0.6" stroke-linecap="round" stroke-linejoin="round"/>
<path d="M417.188 128.23C417.687 128.166 418.88 127.943 419.946 126.986C420.536 126.453 420.877 125.884 421.072 125.482H421.075" stroke="#231F20" stroke-width="0.6" stroke-linecap="round" stroke-linejoin="round"/>
<path d="M430.8 134.898C429.441 134.473 427.614 133.705 425.82 132.232C424.97 131.53 424.373 130.873 424.221 130.988C424.046 131.112 424.481 132.218 427.155 136.499" stroke="#231F20" stroke-width="0.6" stroke-linecap="round" stroke-linejoin="round"/>
<path d="M424.19 199.553C423.195 199.337 422.575 199.395 422.322 199.732C421.816 200.409 422.824 202.22 425.347 205.156" stroke="#231F20" stroke-width="0.6" stroke-linecap="round" stroke-linejoin="round"/>
<path d="M420.478 224.246C419.254 224.114 418.151 224.671 417.811 225.493C417.582 226.046 417.676 226.761 418.06 227.394C418.151 227.546 418.263 227.694 418.387 227.833" stroke="#231F20" stroke-width="0.6" stroke-linecap="round" stroke-linejoin="round"/>
<path d="M418.067 227.394C417.946 227.145 417.875 226.838 417.875 226.504C417.875 225.672 418.32 224.994 418.866 224.994C419.413 224.994 419.861 225.672 419.861 226.504C419.861 227.337 419.416 228.015 418.866 228.015C418.701 228.015 418.543 227.951 418.404 227.839C418.401 227.839 418.398 227.836 418.394 227.833C418.266 227.725 418.155 227.576 418.067 227.394Z" stroke="#231F20" stroke-width="0.6" stroke-linecap="round" stroke-linejoin="round"/>
<path d="M422.158 199.603C422.158 200.439 421.713 201.113 421.167 201.113C420.62 201.113 420.172 200.439 420.172 199.603C420.172 198.767 420.617 198.096 421.167 198.096C421.716 198.096 422.158 198.77 422.158 199.603Z" stroke="#231F20" stroke-width="0.6" stroke-linecap="round" stroke-linejoin="round"/>
<path d="M424.768 156.509C425.318 156.509 425.763 155.833 425.763 154.998C425.763 154.164 425.318 153.488 424.768 153.488C424.219 153.488 423.773 154.164 423.773 154.998C423.773 155.833 424.219 156.509 424.768 156.509Z" stroke="#231F20" stroke-width="0.6" stroke-linecap="round" stroke-linejoin="round"/>
<path d="M425.177 122.397C425.177 123.23 424.729 123.904 424.182 123.904C423.636 123.904 423.188 123.23 423.188 122.397C423.188 121.564 423.633 120.887 424.182 120.887C424.732 120.887 425.177 121.561 425.177 122.397Z" stroke="#231F20" stroke-width="0.6" stroke-linecap="round" stroke-linejoin="round"/>
<path d="M413.283 226.545C413.161 227.661 413.06 228.824 412.989 230.027C412.844 232.491 412.837 234.811 412.922 236.961C414.082 237.882 415.39 238.809 416.857 239.695C421.608 242.571 426.221 243.943 429.799 244.63C429.893 241.135 429.991 237.636 430.089 234.14" stroke="#231F20" stroke-width="0.6" stroke-linecap="round" stroke-linejoin="round"/>
<path d="M402.414 221.99C402.047 223.136 401.703 224.458 401.446 225.938C401.271 226.956 401.16 227.92 401.096 228.823C401.035 229.686 401.018 230.492 401.025 231.227" stroke="#231F20" stroke-width="0.6" stroke-linecap="round" stroke-linejoin="round"/>
<path d="M399.823 220.459C399.455 221.72 399.108 223.297 398.959 225.135C398.895 225.917 398.875 226.658 398.885 227.356C398.902 228.654 399.027 229.8 399.179 230.757" stroke="#231F20" stroke-width="0.6" stroke-linecap="round" stroke-linejoin="round"/>
<path d="M398.32 219.398C398.181 220.154 398.07 221.256 398.249 222.557C398.394 223.629 398.687 224.502 398.96 225.136" stroke="#231F20" stroke-width="0.6" stroke-linecap="round" stroke-linejoin="round"/>
<path d="M433.913 40.1453L437.636 38.1227L435.198 33.7236C434.999 33.7809 434.794 33.8112 434.591 33.8112C433.859 33.8112 433.158 33.4337 432.757 32.7898L426.667 22.9634C417.444 8.07706 397.782 3.67454 383.086 13.2043C373.951 19.1272 368.836 29.1222 368.836 39.4307C368.836 43.7793 369.746 48.1818 371.648 52.3584L374.852 59.4005C376.029 61.986 375.287 65.0435 373.048 66.7998L372.387 67.3189L375.179 72.0889L385.204 66.638L416.5 49.6178L433.913 40.1453Z" stroke="#231F20" stroke-width="0.6" stroke-linecap="round" stroke-linejoin="round"/>
<path d="M386.508 18.7871C379.5 29.4024 382.178 41.9998 389.576 46.6585C396.941 51.297 406.528 46.527 407.054 46.2573" stroke="#231F20" stroke-width="0.6" stroke-linecap="round" stroke-linejoin="round"/>
<path d="M372.367 44.6582C374.626 47.8303 375.837 50.7058 376.501 52.6576C377.553 55.7488 377.675 57.795 377.702 58.3916C377.776 60.0434 377.611 61.4222 377.435 62.393" stroke="#231F20" stroke-width="0.6" stroke-linecap="round" stroke-linejoin="round"/>
</g>
<path d="M53.8594 42.5176V44.4805H45.0215V42.5176H53.8594ZM52.4922 44.1387V43.2793C52.4922 41.6322 52.1081 40.4082 51.3398 39.6074C50.5716 38.8001 49.4974 38.3965 48.1172 38.3965C46.7109 38.3965 45.6921 38.6634 45.0605 39.1973C44.4355 39.7311 44.0742 40.4147 43.9766 41.248L43.957 41.4727H41.252L41.2617 41.2383C41.4245 39.7604 42.0755 38.569 43.2148 37.6641C44.3542 36.7526 45.985 36.2969 48.1074 36.2969C50.2298 36.2969 51.9486 36.8861 53.2637 38.0645C54.5788 39.2428 55.2363 41.0462 55.2363 43.4746V44.0312C55.2363 46.4206 54.5755 48.1947 53.2539 49.3535C51.9388 50.5059 50.2233 51.082 48.1074 51.082C45.972 51.082 44.3346 50.6426 43.1953 49.7637C42.056 48.8783 41.4082 47.6738 41.252 46.1504L41.2422 45.916H43.9473L43.9668 46.1504C44.0645 46.9837 44.4323 47.6673 45.0703 48.2012C45.7083 48.7285 46.7142 48.9922 48.0879 48.9922C49.4225 48.9922 50.4902 48.6178 51.291 47.8691C52.0918 47.1204 52.4922 45.877 52.4922 44.1387ZM67.873 50.7988L61.3301 43.9824L63.3027 42.5762L71.2031 50.7988H67.873ZM59.1914 42.4199H61.8574L67.7754 36.5801H70.7148L62.4238 44.5293H59.1914V42.4199ZM57.834 50.7988V36.5801H60.5488V50.7988H57.834ZM71.7207 43.9629V43.416C71.7207 41.0267 72.401 39.2428 73.7617 38.0645C75.1224 36.8796 76.877 36.2871 79.0254 36.2871C81.0111 36.2871 82.5931 36.707 83.7715 37.5469C84.9499 38.3802 85.6009 39.6204 85.7246 41.2676L85.7441 41.4727H83L82.9902 41.2578C82.8991 40.2747 82.5117 39.5521 81.8281 39.0898C81.151 38.6211 80.207 38.3867 78.9961 38.3867C77.6549 38.3867 76.571 38.7839 75.7441 39.5781C74.9238 40.3724 74.5137 41.5898 74.5137 43.2305V44.1484C74.5137 45.8607 74.9238 47.0977 75.7441 47.8594C76.571 48.6211 77.6549 49.002 78.9961 49.002C80.3503 49.002 81.3333 48.7383 81.9453 48.2109C82.5573 47.6771 82.9056 46.9805 82.9902 46.1211L83 45.916H85.7441L85.7344 46.1309C85.6237 47.6543 84.9987 48.862 83.8594 49.7539C82.7266 50.6458 81.1185 51.0918 79.0352 51.0918C76.8737 51.0918 75.1126 50.5124 73.752 49.3535C72.3978 48.1882 71.7207 46.3913 71.7207 43.9629ZM87.7559 50.7988V36.5801H100.812V50.7988H98.0977V38.6699H90.4707V50.7988H87.7559ZM104.045 50.7988V36.5801H114.855V38.6797H106.73V42.4688H113.859V44.5098H106.73V48.709H114.973V50.7988H104.045ZM117.268 50.7988V36.5801H123.469C125.298 36.5801 126.698 36.9707 127.668 37.752C128.645 38.5332 129.133 39.6758 129.133 41.1797C129.133 42.651 128.648 43.7936 127.678 44.6074C126.708 45.4212 125.301 45.8151 123.459 45.7891H119.982V50.7988H117.268ZM119.982 43.7773H123.225C124.396 43.7773 125.223 43.5527 125.705 43.1035C126.187 42.6478 126.428 42.0098 126.428 41.1895C126.428 40.3626 126.187 39.7311 125.705 39.2949C125.223 38.8522 124.396 38.6309 123.225 38.6309H119.982V43.7773ZM129.846 38.6895V36.5801H142.922V38.6895H137.746V50.7988H135.031V38.6895H129.846ZM143.01 50.7988L149.191 36.5117H151.857L158.049 50.7988H155.1L150.988 40.7207C150.865 40.4277 150.76 40.1478 150.676 39.8809C150.591 39.6074 150.513 39.347 150.441 39.0996H150.344C150.266 39.347 150.184 39.6074 150.1 39.8809C150.015 40.1543 149.914 40.4342 149.797 40.7207L145.656 50.7988H143.01ZM145.871 47.4688L146.633 45.4473H154.289L155.051 47.4688H145.871ZM159.533 50.7988V36.5801H162.746L167.521 46.834C167.619 47.0423 167.717 47.2539 167.814 47.4688C167.912 47.6771 167.987 47.8561 168.039 48.0059H168.098C168.15 47.8561 168.218 47.6771 168.303 47.4688C168.387 47.2539 168.475 47.0423 168.566 46.834L173.4 36.5801H176.682V50.7988H174.006L174.016 41.1504C174.016 40.9486 174.022 40.7337 174.035 40.5059C174.048 40.2715 174.061 40.0566 174.074 39.8613H174.006C173.96 40.0566 173.902 40.2715 173.83 40.5059C173.765 40.7337 173.687 40.9486 173.596 41.1504L169.084 50.7988H166.779L162.287 41.1504C162.189 40.9551 162.105 40.7435 162.033 40.5156C161.962 40.2812 161.903 40.0632 161.857 39.8613H161.789C161.802 40.0632 161.815 40.2812 161.828 40.5156C161.848 40.7435 161.857 40.9583 161.857 41.1602V50.7988H159.533Z" fill="white"/>
</g>
<defs>
<clipPath id="clip0_8903_22034">
<rect x="0.8125" width="536" height="227" rx="16" fill="white"/>
</clipPath>
<clipPath id="clip1_8903_22034">
<rect width="175" height="327" fill="white" transform="translate(344.812 8)"/>
</clipPath>
</defs>
</svg>
