<svg width="536" height="227" viewBox="0 0 536 227" fill="none" xmlns="http://www.w3.org/2000/svg">
<rect x="0.296875" width="535.5" height="227" rx="16" fill="#7099ED"/>
<path d="M49.3867 42H46.7305V32.4785C46.7305 32.2702 46.7337 32.0423 46.7402 31.7949C46.7467 31.541 46.7565 31.3132 46.7695 31.1113H46.6523C46.5547 31.3066 46.457 31.4987 46.3594 31.6875C46.2682 31.8763 46.138 32.0814 45.9688 32.3027L38.9668 42H36.0957V27.7812H38.7617V37.293C38.7617 37.4948 38.7552 37.7194 38.7422 37.9668C38.7357 38.2142 38.7292 38.4421 38.7227 38.6504H38.8594C38.931 38.4876 39.0189 38.3021 39.123 38.0938C39.2337 37.8854 39.3607 37.6803 39.5039 37.4785L46.5156 27.7812H49.3867V42ZM51.9746 35.1641V34.6172C51.9746 32.2279 52.6549 30.444 54.0156 29.2656C55.3763 28.0807 57.1309 27.4883 59.2793 27.4883C61.265 27.4883 62.847 27.9082 64.0254 28.748C65.2038 29.5814 65.8548 30.8216 65.9785 32.4688L65.998 32.6738H63.2539L63.2441 32.459C63.153 31.4759 62.7656 30.7533 62.082 30.291C61.4049 29.8223 60.4609 29.5879 59.25 29.5879C57.9089 29.5879 56.8249 29.985 55.998 30.7793C55.1777 31.5736 54.7676 32.791 54.7676 34.4316V35.3496C54.7676 37.0618 55.1777 38.2988 55.998 39.0605C56.8249 39.8223 57.9089 40.2031 59.25 40.2031C60.6042 40.2031 61.5872 39.9395 62.1992 39.4121C62.8112 38.8783 63.1595 38.1816 63.2441 37.3223L63.2539 37.1172H65.998L65.9883 37.332C65.8776 38.8555 65.2526 40.0632 64.1133 40.9551C62.9805 41.847 61.3724 42.293 59.2891 42.293C57.1276 42.293 55.3665 41.7135 54.0059 40.5547C52.6517 39.3893 51.9746 37.5924 51.9746 35.1641ZM68.0098 42V27.7812H81.0664V42H78.3516V29.8711H70.7246V42H68.0098ZM83.6543 35.1445V34.6074C83.6543 32.2376 84.3444 30.4603 85.7246 29.2754C87.1048 28.084 88.8691 27.4883 91.0176 27.4883C93.1595 27.4883 94.9238 28.084 96.3105 29.2754C97.7038 30.4603 98.4004 32.2376 98.4004 34.6074V35.1445C98.4004 37.5339 97.7038 39.3242 96.3105 40.5156C94.9238 41.7005 93.1595 42.293 91.0176 42.293C88.8691 42.293 87.1048 41.7005 85.7246 40.5156C84.3444 39.3242 83.6543 37.5339 83.6543 35.1445ZM86.4375 35.3105C86.4375 36.9902 86.8542 38.2272 87.6875 39.0215C88.5273 39.8092 89.6374 40.2031 91.0176 40.2031C92.3978 40.2031 93.5111 39.8092 94.3574 39.0215C95.2038 38.2272 95.627 36.9902 95.627 35.3105V34.4609C95.627 32.7812 95.2038 31.5508 94.3574 30.7695C93.5176 29.9818 92.4043 29.5879 91.0176 29.5879C89.6374 29.5879 88.5273 29.9818 87.6875 30.7695C86.8542 31.5508 86.4375 32.778 86.4375 34.4512V35.3105ZM102.639 27.7812H114.055V42H111.35V29.8711H104.924L104.562 36.5898C104.471 38.4518 104.169 39.8646 103.654 40.8281C103.14 41.7917 102.163 42.2734 100.725 42.2734C100.503 42.2734 100.292 42.2572 100.09 42.2246C99.888 42.1986 99.6895 42.1497 99.4941 42.0781V39.7734C99.6439 39.8255 99.7839 39.8613 99.9141 39.8809C100.051 39.9004 100.191 39.9102 100.334 39.9102C100.979 39.9102 101.431 39.6367 101.691 39.0898C101.952 38.543 102.118 37.5924 102.189 36.2383L102.639 27.7812ZM117.365 42V27.7812H120.08V33.6113H127.814V27.7812H130.52V42H127.814V35.7207H120.08V42H117.365ZM147.043 42H144.387V32.4785C144.387 32.2702 144.39 32.0423 144.396 31.7949C144.403 31.541 144.413 31.3132 144.426 31.1113H144.309C144.211 31.3066 144.113 31.4987 144.016 31.6875C143.924 31.8763 143.794 32.0814 143.625 32.3027L136.623 42H133.752V27.7812H136.418V37.293C136.418 37.4948 136.411 37.7194 136.398 37.9668C136.392 38.2142 136.385 38.4421 136.379 38.6504H136.516C136.587 38.4876 136.675 38.3021 136.779 38.0938C136.89 37.8854 137.017 37.6803 137.16 37.4785L144.172 27.7812H147.043V42ZM148.889 29.8906V27.7812H161.965V29.8906H156.789V42H154.074V29.8906H148.889ZM163.811 42V27.7812H174.621V29.8809H166.496V33.6699H173.625V35.7109H166.496V39.9102H174.738V42H163.811ZM178.693 27.7812H190.109V42H187.404V29.8711H180.979L180.617 36.5898C180.526 38.4518 180.223 39.8646 179.709 40.8281C179.195 41.7917 178.218 42.2734 176.779 42.2734C176.558 42.2734 176.346 42.2572 176.145 42.2246C175.943 42.1986 175.744 42.1497 175.549 42.0781V39.7734C175.699 39.8255 175.839 39.8613 175.969 39.8809C176.105 39.9004 176.245 39.9102 176.389 39.9102C177.033 39.9102 177.486 39.6367 177.746 39.0898C178.007 38.543 178.173 37.5924 178.244 36.2383L178.693 27.7812ZM204.709 42H201.994V36.6582H197.277L196.789 36.4043C195.552 36.2415 194.605 35.7793 193.947 35.0176C193.29 34.2559 192.961 33.3021 192.961 32.1562C192.961 30.8151 193.439 29.7507 194.396 28.9629C195.36 28.1751 196.717 27.7812 198.469 27.7812H204.709V42ZM201.994 34.6562V29.8125H198.693C197.554 29.8125 196.766 30.0273 196.33 30.457C195.894 30.8802 195.676 31.4564 195.676 32.1855C195.676 32.9212 195.894 33.5169 196.33 33.9727C196.766 34.4284 197.554 34.6562 198.693 34.6562H201.994ZM195.188 42H192.297L196.428 35.4668H199.182L195.188 42ZM207.951 42V27.7812H211.164L215.939 38.0352C216.037 38.2435 216.135 38.4551 216.232 38.6699C216.33 38.8783 216.405 39.0573 216.457 39.207H216.516C216.568 39.0573 216.636 38.8783 216.721 38.6699C216.805 38.4551 216.893 38.2435 216.984 38.0352L221.818 27.7812H225.1V42H222.424L222.434 32.3516C222.434 32.1497 222.44 31.9349 222.453 31.707C222.466 31.4727 222.479 31.2578 222.492 31.0625H222.424C222.378 31.2578 222.32 31.4727 222.248 31.707C222.183 31.9349 222.105 32.1497 222.014 32.3516L217.502 42H215.197L210.705 32.3516C210.607 32.1562 210.523 31.9447 210.451 31.7168C210.38 31.4824 210.321 31.2643 210.275 31.0625H210.207C210.22 31.2643 210.233 31.4824 210.246 31.7168C210.266 31.9447 210.275 32.1595 210.275 32.3613V42H207.951Z" fill="white"/>
<g clip-path="url(#clip0_9587_22141)">
<path d="M391.735 30.4273L391.529 30.6459C388.621 27.9143 384.817 26.4117 380.822 26.4167L358.405 26.4451L338.163 26.4706C333.232 26.4769 329.243 30.468 329.249 35.3872L329.249 35.5917L328.945 35.6642L328.945 35.8826L309.679 35.907L309.724 71.1576L328.866 71.1334L329.166 71.133L329.166 71.433L329.172 76.371C329.175 78.8835 330.292 81.2424 332.237 82.8385L357.554 103.619C360.096 105.703 363.311 106.85 366.597 106.846L392.423 106.813C396.149 106.809 399.667 105.379 402.329 102.78L402.33 102.78L403.011 102.118L403.098 102.033L403.219 102.033L438.866 101.988L438.994 101.988L439.082 102.08L444.66 107.88L462.643 107.857L462.893 107.856L462.939 108.102L470.12 146.636L470.179 146.955L469.856 146.989L468.403 147.144L468.398 149.118L471.137 151.188L471.137 151.189C473.14 152.708 474.55 154.889 475.108 157.336L474.815 157.403L475.108 157.336L482.256 188.734L391.735 30.4273ZM391.735 30.4273L391.529 30.646L395.147 34.0429L395.148 34.0433M391.735 30.4273L395.148 34.0433M395.148 34.0433C395.671 34.5317 396.358 34.8068 397.075 34.8165L397.077 34.8165M395.148 34.0433L397.077 34.8165M397.077 34.8165L441.348 35.1887C454.128 35.296 466.868 37.0176 479.214 40.3065L479.291 40.0167M397.077 34.8165L479.291 40.0167M479.291 40.0167L479.214 40.3066L485.894 42.0852L485.972 42.1097C485.973 42.11 485.974 42.1103 485.975 42.1106C488.899 43.0973 490.712 46.1021 490.079 49.2529C489.89 50.1846 489.469 51.066 488.881 51.8228C485.772 55.8066 485.314 61.2258 487.718 65.6339C495.855 80.5714 502.417 96.3851 507.219 112.628C514.951 138.803 518.166 166.014 516.768 193.513C516.707 194.673 516.096 195.727 515.164 196.377L515.026 196.473L515.036 196.642L515.528 204.282M479.291 40.0167L515.528 204.282M515.528 204.282L513.271 204.428L512.838 197.696L512.813 197.311L512.446 197.43L494.861 203.137L494.471 203.264L494.71 203.598L498.953 209.513L497.117 210.823L492.348 204.17L492.22 203.991L492.012 204.059L484.02 206.652L484.019 206.653C483.554 206.805 483.081 206.877 482.615 206.878C480.786 206.88 479.048 205.794 478.317 204.042L478.317 204.042L476.801 200.423L476.524 200.539L476.801 200.423C476.002 198.517 476.567 196.31 478.19 195.026L478.191 195.026L480.758 192.991L480.758 192.991C482.029 191.981 482.617 190.312 482.256 188.734L515.528 204.282Z" fill="#7099ED" stroke="#383940" stroke-width="0.6"/>
<path d="M492.189 204.073L484.03 206.719C483.568 206.867 483.092 206.943 482.605 206.944C480.722 206.946 478.971 205.792 478.249 204.071L476.733 200.453C475.925 198.527 476.509 196.276 478.142 194.98L480.709 192.946C481.962 191.955 482.541 190.308 482.187 188.748L475.039 157.35C474.487 154.915 473.083 152.747 471.088 151.242L468.325 149.152L468.332 147.092L477.909 146.071L477.892 148.184L471.7 148.719L472.526 149.346C474.964 151.189 476.679 153.846 477.36 156.823L484.508 188.222C485.064 190.661 484.152 193.246 482.19 194.809L479.622 196.843C478.818 197.482 478.533 198.591 478.93 199.537L480.446 203.155C480.804 204.016 481.649 204.571 482.588 204.57C482.826 204.57 483.065 204.531 483.289 204.46L513.469 194.669C514.026 194.488 514.407 193.993 514.435 193.407C515.821 166.17 512.636 139.215 504.975 113.293C500.221 97.2051 493.722 81.543 485.66 66.7486C482.836 61.562 483.353 55.1724 486.984 50.4724C487.36 49.9866 487.608 49.5154 487.731 49.0395C488.267 47.0312 487.206 45.006 485.26 44.3282L478.603 42.5526C466.446 39.314 453.901 37.6173 441.32 37.5142L396.129 37.1337C395.414 37.1298 394.736 36.8548 394.221 36.3702L389.934 32.3414C387.514 30.0705 384.371 28.7996 381.058 28.7419L381.055 26.3633C384.978 26.4154 388.704 27.9188 391.567 30.6077L395.185 34.0046C395.696 34.4844 396.369 34.7547 397.07 34.7586L441.341 35.1308C454.122 35.2384 466.868 36.9634 479.22 40.2541L485.906 42.0344L485.987 42.058C488.968 43.0628 490.75 46.167 490.125 49.2743C489.94 50.1927 489.521 51.0924 488.912 51.8686C485.818 55.8305 485.363 61.2258 487.752 65.6137C495.895 80.5555 502.455 96.3698 507.258 112.619C514.995 138.798 518.209 166.02 516.809 193.528C516.748 194.679 516.14 195.77 515.182 196.437L515.073 196.513L515.578 204.348L513.2 204.498L512.743 197.401L494.557 203.299L499.023 209.53L497.084 210.912L492.179 204.068L492.189 204.073Z" fill="#231F20"/>
<path d="M381.298 26.6013C385.074 26.7107 388.646 28.1857 391.41 30.7749L395.028 34.1718C395.586 34.6944 396.311 34.9837 397.074 34.9922L441.345 35.3644C454.108 35.472 466.834 37.1923 479.167 40.4782L485.839 42.2538L485.915 42.2775C488.791 43.2443 490.506 46.2344 489.905 49.2228C489.725 50.1078 489.325 50.9694 488.74 51.717C485.589 55.7552 485.124 61.2504 487.561 65.7191C495.694 80.6466 502.25 96.4467 507.048 112.682C514.775 138.837 517.99 166.03 516.589 193.51C516.533 194.59 515.963 195.609 515.062 196.238L514.843 196.39L514.863 196.657L515.344 204.12L513.442 204.241L513.019 197.686L512.98 197.078L512.399 197.269L494.814 202.976L494.195 203.176L494.572 203.704L498.712 209.479L497.16 210.584L492.494 204.073L492.288 203.788L491.955 203.897L483.963 206.491C483.525 206.634 483.072 206.706 482.609 206.707C480.822 206.709 479.156 205.612 478.473 203.981L476.957 200.363C476.192 198.537 476.742 196.4 478.295 195.166L480.862 193.132C482.186 192.083 482.798 190.341 482.424 188.696L475.277 157.297C474.711 154.81 473.278 152.59 471.24 151.052L468.573 149.033L468.58 147.306L477.68 146.338L477.668 147.965L472.31 148.429L471.075 148.535L472.063 149.281L472.397 149.533C474.792 151.342 476.474 153.952 477.14 156.872L484.288 188.27C484.825 190.624 483.946 193.113 482.055 194.614L479.488 196.649C478.602 197.354 478.285 198.577 478.724 199.618L480.24 203.237C480.637 204.188 481.568 204.8 482.602 204.799C482.864 204.799 483.127 204.755 483.379 204.674L513.559 194.884C514.212 194.674 514.654 194.093 514.692 193.408C516.078 166.142 512.893 139.163 505.222 113.212C500.463 97.1054 493.96 81.4337 485.889 66.6203C483.108 61.5146 483.619 55.2296 487.189 50.601C487.584 50.0868 487.846 49.5917 487.979 49.0825C488.548 46.9553 487.42 44.8064 485.355 44.0812L485.336 44.0812L485.317 44.0717L478.678 42.3009C466.503 39.0575 453.938 37.3561 441.333 37.2531L396.142 36.8725C395.489 36.8686 394.869 36.6172 394.392 36.1706L390.105 32.1419C387.7 29.8852 384.59 28.5952 381.305 28.4852L381.302 26.5823M380.825 26.0977L380.829 28.952C384.171 28.9478 387.347 30.2044 389.777 32.4896L394.063 36.5183C394.626 37.0457 395.366 37.3397 396.133 37.3482L441.324 37.7288C453.887 37.8318 466.413 39.5286 478.55 42.7625L485.189 44.5333C486.958 45.1543 488.024 47.032 487.511 48.9594C487.378 49.4543 487.117 49.9018 486.802 50.3113C483.114 55.0923 482.583 61.5723 485.46 66.8492C493.512 81.6294 500.006 97.2725 504.755 113.346C512.406 139.244 515.587 166.171 514.205 193.38C514.182 193.865 513.868 194.274 513.406 194.427L483.226 204.218C483.016 204.285 482.807 204.318 482.597 204.318C481.782 204.319 481.004 203.835 480.674 203.051L479.158 199.432C478.799 198.581 479.056 197.591 479.78 197.02L482.347 194.985C484.38 193.37 485.326 190.69 484.75 188.16L477.602 156.762C476.912 153.727 475.164 151.023 472.682 149.147L472.348 148.895L478.14 148.398L478.161 145.805L468.103 146.874L468.096 149.267L470.955 151.428C472.902 152.9 474.273 155.02 474.814 157.403L481.962 188.801C482.298 190.266 481.751 191.822 480.57 192.756L478.003 194.791C476.274 196.163 475.672 198.509 476.523 200.539L478.039 204.158C478.823 206.026 480.67 207.18 482.615 207.177C483.115 207.177 483.621 207.1 484.111 206.938L492.103 204.344L497.046 211.241L499.371 209.583L494.953 203.423L512.537 197.716L512.99 204.746L515.845 204.562L515.335 196.623C516.34 195.922 517.001 194.784 517.066 193.528C518.466 165.996 515.247 138.746 507.505 112.543C502.698 96.2796 496.128 80.4462 487.98 65.4902C485.634 61.1879 486.08 55.8973 489.117 52.0067C489.736 51.2163 490.178 50.2928 490.372 49.3126C491.04 46.0054 489.134 42.8585 486.067 41.8253L485.977 41.7969L479.29 40.0166C466.919 36.7212 454.155 34.9962 441.349 34.8887L397.078 34.5165C396.435 34.5125 395.819 34.2659 395.352 33.8241L391.734 30.4272C388.77 27.6432 384.892 26.1115 380.82 26.1167L380.825 26.0977Z" fill="#231F20"/>
<path d="M444.637 107.952L438.97 102.06L403.124 102.106L402.377 102.834C399.701 105.445 396.165 106.881 392.427 106.886L366.602 106.918C363.298 106.923 360.074 105.771 357.521 103.676L332.203 82.895C330.242 81.2848 329.118 78.9123 329.115 76.3815L329.109 71.2056L309.667 71.2302L309.664 68.8516L331.489 68.824L331.499 76.3785C331.501 78.1957 332.309 79.9026 333.717 81.0568L359.034 101.838C361.158 103.581 363.843 104.539 366.599 104.535L392.424 104.502C395.537 104.499 398.482 103.301 400.711 101.129L402.153 99.7234L439.988 99.6756L445.654 105.567L466.535 105.541L466.538 107.92L444.642 107.947L444.637 107.952Z" fill="#231F20"/>
<path d="M331.249 69.0653L331.259 76.382C331.261 78.2706 332.102 80.044 333.563 81.2457L358.88 102.027C361.047 103.808 363.79 104.784 366.593 104.781L392.418 104.748C395.598 104.744 398.6 103.523 400.871 101.308L402.242 99.9691L439.876 99.9215L445.4 105.666L445.543 105.813L466.286 105.787L466.288 107.69L444.73 107.717L439.207 101.973L439.064 101.825L403.017 101.871L402.879 102.004L402.198 102.667C399.565 105.229 396.091 106.647 392.416 106.651L366.59 106.684C363.344 106.688 360.172 105.555 357.662 103.498L332.344 82.7172C330.44 81.1545 329.345 78.8486 329.342 76.3844L329.335 70.9706L309.894 70.9952L309.891 69.0923L331.24 69.0653M331.716 68.589L309.414 68.6172L309.418 71.4715L328.859 71.447L328.865 76.385C328.869 78.9872 330.026 81.431 332.04 83.0839L357.357 103.865C359.953 105.993 363.23 107.164 366.591 107.16L392.416 107.127C396.221 107.122 399.813 105.657 402.532 103.009L403.213 102.346L438.859 102.301L444.526 108.193L466.761 108.165L466.757 105.311L445.742 105.337L440.076 99.4456L402.042 99.4936L400.532 100.966C398.347 103.095 395.464 104.269 392.413 104.273L366.587 104.305C363.889 104.309 361.261 103.37 359.175 101.66L333.858 80.879C332.507 79.7675 331.728 78.1273 331.726 76.3814L331.716 68.589Z" fill="#231F20"/>
<path d="M309.624 38.2338L309.621 35.8551L329.187 35.8304L329.186 35.388C329.18 30.4405 333.208 26.4155 338.162 26.4092L358.166 26.3839L358.169 28.7626L338.165 28.7879C334.522 28.7925 331.565 31.7504 331.57 35.385L331.574 38.206L309.624 38.2338Z" fill="#231F20"/>
<path d="M357.932 26.6214L357.934 28.5243L338.169 28.5493C334.397 28.554 331.331 31.6216 331.336 35.3846L331.339 37.9677L309.867 37.9949L309.864 36.092L329.43 36.0673L329.429 35.387C329.423 30.5726 333.341 26.6525 338.166 26.6464L357.932 26.6214ZM358.408 26.1451L338.166 26.1706C333.069 26.1771 328.946 30.3021 328.952 35.3876L328.952 35.5921L309.387 35.6169L309.39 38.4712L331.816 38.4429L331.813 35.384C331.808 31.8779 334.656 29.0294 338.169 29.025L358.412 28.9994L358.408 26.1451Z" fill="#231F20"/>
<path d="M242.072 50.0986L242.08 56.2355L252.832 57.4064L252.821 48.9005L242.072 50.0986Z" fill="white"/>
<path d="M252.834 57.4087L252.837 60.3106L258.188 65.6367L258.157 40.6612C256.071 42.7475 254.905 43.9193 252.819 46.0056L252.834 57.4087Z" fill="white"/>
<path d="M258.156 40.6602L258.188 65.6357L273.215 65.6167L273.183 40.6412L258.156 40.6602ZM264.607 63.777C264.607 63.3869 265.789 63.0667 267.247 63.0648C268.706 63.063 269.884 63.3802 269.885 63.7703C269.885 64.1604 268.703 64.4759 267.249 64.4777C265.795 64.4796 264.608 64.1671 264.607 63.777ZM264.816 44.115C264.815 43.2064 265.891 42.4677 267.221 42.466C268.552 42.4643 269.625 43.2003 269.626 44.1089C269.627 45.0176 268.551 45.7563 267.226 45.758C265.9 45.7597 264.817 45.0237 264.816 44.115Z" fill="white"/>
<path d="M267.243 63.0631C265.784 63.0649 264.602 63.3851 264.602 63.7752C264.603 64.1653 265.786 64.4778 267.245 64.476C268.703 64.4741 269.88 64.1587 269.88 63.7686C269.88 63.3785 268.697 63.0612 267.243 63.0631Z" fill="white"/>
<path d="M267.22 42.4657C265.89 42.4674 264.813 43.2061 264.815 44.1148C264.816 45.0234 265.894 45.7594 267.224 45.7577C268.554 45.756 269.626 45.0173 269.625 44.1087C269.624 43.2 268.545 42.464 267.22 42.4657Z" fill="white"/>
<path d="M273.21 65.6166L273.217 70.821L282.456 70.8094L282.456 70.6238L282.411 35.6153L282.411 35.4297L273.172 35.4414L273.178 40.6411L273.21 65.6166Z" fill="#7099ED"/>
<path d="M282.459 70.6238L282.459 70.8093L286.044 70.8048L285.999 35.4252L282.414 35.4297L282.414 35.6152L282.459 70.6238Z" fill="white"/>
<path d="M286 35.4258L286.045 70.8054L294.531 70.7947L294.531 70.6091L294.486 35.6006L294.486 35.4151L286 35.4258Z" fill="#7099ED"/>
<path d="M294.529 70.6082L294.529 70.7937L302.071 70.7842L302.057 59.4476L302.041 46.741L302.026 35.4045L294.484 35.4141L294.485 35.5996L294.529 70.6082Z" fill="white"/>
<path d="M302.039 46.7422L302.055 59.4488L306.112 59.4437L306.11 57.5598L306.099 48.6209L306.096 46.7371L302.039 46.7422Z" fill="white"/>
<path d="M309.591 48.6167L306.102 48.6211L306.113 57.56L309.603 57.5555L309.591 48.6167Z" fill="white"/>
<path d="M309.594 48.6146L309.605 57.5535L309.613 63.7189L316.211 63.7105L316.204 58.4871L316.191 47.6643L316.184 42.4409L309.586 42.4492L309.594 48.6146Z" fill="white"/>
<path d="M316.188 47.6641L316.201 58.4868L319.505 58.4826L319.503 56.927L319.493 49.2107L319.491 47.6599L316.188 47.6641Z" fill="white"/>
<path d="M328.355 49.1997L319.492 49.2109L319.502 56.9272L328.365 56.916L328.355 49.1997Z" fill="white"/>
<path d="M328.362 56.9163L328.371 63.6954L335.064 63.687L335.056 56.9079L335.046 49.1916L335.037 42.4173L328.344 42.4258L328.352 49.2001L328.362 56.9163Z" fill="white"/>
<path d="M338.065 49.1876L335.047 49.1914L335.057 56.9077L338.074 56.9038L338.065 49.1876Z" fill="white"/>
<path d="M338.08 56.9031L338.104 75.7228L345.651 75.7132L345.638 65.3234L345.609 42.7408L345.594 30.3576L338.047 30.3672L338.071 49.1868L338.08 56.9031Z" fill="#7099ED"/>
<path d="M347.493 42.7398L345.609 42.7422L345.638 65.3248L347.521 65.3224L347.493 42.7398Z" fill="white"/>
<path d="M349.575 50.357L347.688 50.3594L347.697 57.6047L349.585 57.6023L349.575 50.357Z" fill="white"/>
<path d="M349.586 57.6042L349.595 64.2881L351.95 64.2851L351.925 44.8994L349.57 44.9023L349.577 50.3589L349.586 57.6042Z" fill="white"/>
<path d="M351.923 44.899L351.948 64.2848L351.984 92.6094L354.906 92.6057L354.905 91.9445L354.846 44.8953L354.837 37.5549L351.914 37.5586L351.923 44.899Z" fill="white"/>
<path d="M354.852 44.8945L354.911 91.9437L368.398 91.9266L368.396 90.6707L368.394 88.4586L368.391 86.2465L368.385 81.8175L368.38 77.3885L368.374 72.9595L368.369 68.5305L368.363 64.1015L368.36 61.8894L368.357 59.6773L368.355 57.4604L368.352 55.2483L368.349 53.0314L368.347 51.1808L368.344 49.1495L368.341 46.6567L368.339 44.8775L354.852 44.8945Z" fill="white"/>
<path d="M357.477 33.3164L357.479 35.3335L361.627 35.3282L366.532 35.322L381.807 35.3027L381.805 33.2857L380.837 33.2869L358.421 33.3152L357.477 33.3164Z" fill="#FF8B63"/>
<path d="M358.41 27.406L358.417 33.3145L380.834 33.2862L380.826 27.3777C380.824 25.7364 379.493 24.4109 377.848 24.4129L361.381 24.4337C359.736 24.4358 358.408 25.7648 358.41 27.406Z" fill="#FF8B63"/>
<path d="M366.531 35.3219L361.625 35.3281L361.635 43.4725L366.541 43.4663L366.531 35.3219Z" fill="#FF8B63"/>
<path d="M377.924 97.3044L368.398 97.3164L368.401 99.1717L377.926 99.1597L377.924 97.3044Z" fill="white"/>
<path d="M377.924 95.0895L368.398 95.1016L368.401 97.3184L377.927 97.3064L377.924 95.0895Z" fill="white"/>
<path d="M377.924 92.8747L368.398 92.8867L368.401 95.0988L377.927 95.0868L377.924 92.8747Z" fill="white"/>
<path d="M368.392 91.9278L368.393 92.8888L377.919 92.8767L377.916 90.6598L368.391 90.6719L368.392 91.9278Z" fill="white"/>
<path d="M372.86 46.6505L368.336 46.6562L368.339 49.149L372.863 49.1433L372.86 46.6505Z" fill="white"/>
<path d="M377.916 88.445L368.391 88.457L368.393 90.6691L377.919 90.6571L377.916 88.445Z" fill="white"/>
<path d="M377.916 86.2341L368.391 86.2461L368.393 88.4582L377.919 88.4462L377.916 86.2341Z" fill="white"/>
<path d="M377.908 81.8044L368.383 81.8164L368.388 86.2454L377.914 86.2334L377.908 81.8044Z" fill="white"/>
<path d="M368.375 77.3906L368.381 81.8196L377.906 81.8076L377.906 81.565L377.9 77.3786L368.375 77.3906Z" fill="white"/>
<path d="M377.893 72.9489L368.367 72.9609L368.373 77.3899L377.898 77.3779L377.893 72.9489Z" fill="white"/>
<path d="M368.367 68.5312L368.373 72.9602L377.898 72.9482L377.895 70.2746L377.893 68.5192L368.367 68.5312Z" fill="white"/>
<path d="M377.885 64.0895L368.359 64.1016L368.365 68.5306L377.89 68.5185L377.885 64.0895Z" fill="white"/>
<path d="M377.885 61.8786L368.359 61.8906L368.362 64.1027L377.888 64.0907L377.885 61.8786Z" fill="white"/>
<path d="M377.877 59.6637L368.352 59.6758L368.354 61.8879L377.88 61.8759L377.877 59.6637Z" fill="white"/>
<path d="M377.877 57.4489L368.352 57.4609L368.354 59.6778L377.88 59.6658L377.877 57.4489Z" fill="white"/>
<path d="M377.877 55.238L368.352 55.25L368.354 57.4621L377.88 57.4501L377.877 55.238Z" fill="white"/>
<path d="M377.869 53.0192L368.344 53.0312L368.347 55.2481L377.872 55.2361L377.869 53.0192Z" fill="white"/>
<path d="M377.869 51.1676L368.344 51.1797L368.346 53.0303L377.871 53.0182L377.869 51.1676Z" fill="white"/>
<path d="M377.9 77.376L377.905 81.5624L384.503 81.554L384.503 81.4018L384.496 75.6598L384.489 70.2651L377.891 70.2734L377.894 72.947L377.9 77.376Z" fill="white"/>
<path d="M384.5 75.6602L384.507 81.4021C384.509 82.5439 385.125 83.5992 386.117 84.1641L389.548 86.1245C388.512 85.0269 387.113 83.2875 386.018 80.8627C385.105 78.8468 384.697 77.0157 384.5 75.6602Z" fill="#FF8B63"/>
<path d="M384.487 70.2674L384.494 75.6621C384.691 77.0177 385.099 78.8487 386.012 80.8646C387.106 83.2894 388.505 85.0288 389.541 86.1264L393.563 88.4239L393.56 85.7503C392.095 84.3868 388.209 80.4099 386.88 73.9037C385.762 68.42 387.039 63.9798 387.728 62.0428L387.194 62.405C385.499 63.5536 384.481 65.4673 384.483 67.5129L384.487 70.2674Z" fill="#FF8B63"/>
<path d="M387.733 62.0394C387.044 63.9765 385.768 68.4166 386.885 73.9003C388.214 80.4066 392.1 84.3835 393.565 85.747L393.561 82.7975C388.959 77.185 387.415 70.3888 389.892 65.2383C390.463 64.0578 391.514 62.401 393.534 60.8428L393.53 58.1121L387.733 62.0394Z" fill="#FF8B63"/>
<path d="M389.89 65.241C387.413 70.3915 388.956 77.1876 393.559 82.8001L393.55 75.7118L395.109 75.7099L395.1 68.5122L393.541 68.5141L393.531 60.8455C391.512 62.4036 390.461 64.0605 389.89 65.241Z" fill="#FF8B63"/>
<path d="M393.571 88.4214L393.584 99.1395L396.697 99.1356L396.696 98.1033L396.684 88.4175L396.679 84.4642L396.669 76.4863L396.659 68.5084L396.638 51.9913L396.637 51.1445L393.523 51.1484L393.532 58.113L393.536 60.8437L393.545 68.5124L395.104 68.5104L395.113 75.7081L393.554 75.7101L393.563 82.7984L393.567 85.7479L393.571 88.4214Z" fill="#FF8B63"/>
<path d="M396.68 88.4168L396.692 98.1026L437.334 98.0512L437.334 97.3899L437.322 88.2846L437.198 88.2847L396.961 88.4165L396.68 88.4168Z" fill="white"/>
<path d="M396.672 84.4667L396.677 88.42L396.958 88.4197L437.195 88.2879L437.319 88.2878L437.314 84.3393L437.19 84.3394L396.953 84.4664L396.672 84.4667Z" fill="white"/>
<path d="M396.664 76.4871L396.674 84.465L396.956 84.4647L437.193 84.3377L437.317 84.3375L437.306 76.3549L437.182 76.355L396.945 76.4868L396.664 76.4871Z" fill="white"/>
<path d="M396.656 68.5106L396.666 76.4885L396.948 76.4881L437.185 76.3564L437.309 76.3562L437.299 68.3783L437.175 68.3785L396.938 68.5102L396.656 68.5106Z" fill="white"/>
<path d="M396.633 51.9922L396.654 68.5093L396.935 68.509L437.172 68.3773L437.296 68.3771L437.278 53.9198L437.275 51.9408L396.633 51.9922Z" fill="white"/>
<path d="M437.325 88.2843L437.336 97.3897L440.483 97.3857L440.475 91.363L440.471 88.2803L440.471 87.757L440.461 80.4784L440.455 75.8401L439.135 75.8418L439.125 67.8734L440.445 67.8717L440.438 61.9109L440.435 59.7131L440.433 58.0528L440.429 55.2983L440.428 53.914L437.281 53.918L437.3 68.3752L437.31 76.3531L437.32 84.3358L437.325 88.2843Z" fill="#FF8B63"/>
<path d="M437.273 51.9414L437.276 53.9204L440.422 53.9164L440.424 55.3008L441.711 55.2992L441.71 54.1003L441.707 51.9358L437.273 51.9414Z" fill="white"/>
<path d="M439.125 67.8749L439.135 75.8433L440.455 75.8416L440.461 80.4799C440.975 79.8656 445.707 74.032 443.71 67.303C442.954 64.7398 441.483 62.9577 440.438 61.9124L440.445 67.8732L439.125 67.8749Z" fill="#FF8B63"/>
<path d="M440.464 87.7598L440.465 88.283L445.805 84.9795C446.734 84.4027 447.52 83.6453 448.124 82.7597C448.728 81.8789 449.156 80.8698 449.355 79.7991C449.464 79.2186 449.559 78.6381 449.639 78.0529C450.041 75.198 450.118 72.3103 449.876 69.4372C449.823 68.7808 449.75 68.1291 449.659 67.4775L449.582 66.921C449.26 64.5808 447.893 62.5131 445.861 61.3026L444.248 60.3389C445.084 61.5652 448.982 67.564 447.552 75.5817C446.298 82.5955 441.769 86.6639 440.464 87.7598Z" fill="#FF8B63"/>
<path d="M440.432 59.715L440.435 61.9128C441.48 62.9581 442.951 64.7402 443.707 67.3034C445.704 74.0324 440.972 79.866 440.458 80.4803L440.467 87.7589C441.772 86.6631 446.301 82.5947 447.555 75.5809C448.985 67.5631 445.087 61.5644 444.251 60.3381L440.43 58.0547L440.432 59.715Z" fill="#FF8B63"/>
<path d="M440.531 91.3633L440.538 96.4773L442.988 96.4742L442.986 94.5285L442.985 93.9006L442.982 91.3602L440.531 91.3633Z" fill="white"/>
<path d="M445.188 53.1589C445.159 53.021 445.15 52.8783 445.15 52.7308C445.148 51.199 446.39 49.9558 447.93 49.9538C449.47 49.9519 450.711 51.192 450.713 52.7238C450.715 54.2556 449.472 55.5036 447.937 55.5055C446.545 55.5073 445.39 54.4907 445.188 53.1589ZM444.063 53.227C444.347 55.158 446.017 56.6354 448.034 56.6329C448.377 56.6325 449.026 57.055 449.026 57.055L452.182 57.051C452.549 57.0506 452.845 57.3452 452.846 57.7115C452.846 58.0778 452.551 58.3683 452.184 58.3688L451.893 58.3692C451.659 58.2838 451.411 58.2318 451.149 58.2321C450.887 58.2325 450.634 58.2851 450.406 58.371L450.391 58.3711C449.596 58.6813 449.029 59.4479 449.03 60.3518C449.032 61.2557 449.6 62.0161 450.396 62.3196L450.396 62.3719L450.563 62.3717C450.749 62.4285 450.945 62.4664 451.155 62.4661C451.364 62.4658 451.56 62.4275 451.746 62.3702L452.852 62.3688L452.852 62.4639L455.116 62.4611L455.098 48.0133L453.754 48.015C453.243 48.0157 452.834 48.4301 452.835 48.9343L452.837 50.6374C452.837 50.9847 452.556 51.2658 452.208 51.2662C451.97 51.2665 451.746 51.1336 451.645 50.9196C450.895 49.3412 449.139 48.3301 447.204 48.7179C445.65 49.0291 444.403 50.2818 444.1 51.833C444.005 52.3136 444.001 52.7799 444.063 53.227ZM449.85 60.4412C449.85 59.7942 450.378 59.2654 451.031 59.2646C451.684 59.2638 452.21 59.7912 452.21 60.4382C452.211 61.0852 451.683 61.6186 451.034 61.6195C450.386 61.6203 449.851 61.0929 449.85 60.4412Z" fill="#FF8B63"/>
<path d="M445.152 52.7305C445.152 52.878 445.162 53.0207 445.191 53.1586C445.393 54.4904 446.548 55.507 447.94 55.5052C449.475 55.5033 450.717 54.2601 450.716 52.7235C450.714 51.1869 449.468 49.9516 447.933 49.9535C446.398 49.9555 445.15 51.1987 445.152 52.7305Z" fill="white"/>
<path d="M445.473 111.531L446.154 115.041L449.596 115.036C452.357 115.033 454.795 116.833 455.604 119.463L456.806 123.386L456.825 123.509L459.651 123.102L459.902 124.819L460.306 127.606L460.709 130.388L461.113 133.171L461.397 135.135L459.066 135.471L461.298 146.89L474.105 144.743L470.176 118.022L467.535 118.025L462.994 108.345L445.473 111.531Z" fill="#FF8B63"/>
<path d="M449.644 78.0507L449.873 78.0837L450.745 78.0826L450.734 69.4244L450.033 69.4253L449.881 69.435C450.123 72.3081 450.045 75.1958 449.644 78.0507Z" fill="white"/>
<path d="M450.734 72.5039L450.739 76.4762L452.866 76.4735L452.863 74.7181L454.279 74.7163L454.278 73.8219L452.862 73.8237L452.861 72.5012L450.734 72.5039Z" fill="white"/>
<path d="M451.549 95.1182C450.882 95.5757 450.44 96.3422 450.441 97.2127C450.442 97.9073 450.724 98.5349 451.182 98.991C451.64 99.4471 452.27 99.727 452.966 99.7261L456.451 99.7217L456.444 94.6838L452.959 94.6882C452.44 94.6889 451.954 94.8465 451.549 95.1182ZM451.647 97.2112C451.646 96.393 452.308 95.7261 453.128 95.7251C453.948 95.7241 454.616 96.3892 454.617 97.2075C454.618 98.0257 453.951 98.6878 453.131 98.6889C452.311 98.6899 451.648 98.0295 451.647 97.2112Z" fill="#FF8B63"/>
<path d="M453.123 95.7247C452.303 95.7257 451.641 96.3926 451.643 97.2108C451.644 98.0291 452.307 98.6895 453.127 98.6884C453.947 98.6874 454.614 98.0253 454.613 97.2071C454.612 96.3888 453.943 95.7237 453.123 95.7247Z" fill="white"/>
<path d="M452.876 85.3123L452.878 86.7443L455.705 86.7407L455.704 85.8939L455.703 84.8521L455.702 84.4144L454.291 84.4162L454.292 85.3105L452.876 85.3123Z" fill="#FF8B63"/>
<path d="M452.875 82.6641L452.877 84.4195L454.293 84.4177L455.704 84.4159L455.703 83.631L455.702 82.6605L454.291 82.6623L452.875 82.6641Z" fill="#FF8B63"/>
<path d="M452.875 80.0117L452.877 81.7671L454.293 81.7654L454.294 82.6597L455.705 82.6579L455.705 82.401L455.704 81.1737L455.702 80.0081L454.291 80.0099L452.875 80.0117Z" fill="#FF8B63"/>
<path d="M452.867 77.3672L452.869 79.1179L454.285 79.1161L454.286 80.0104L455.698 80.0086L455.698 79.9468L455.696 78.7194L455.694 77.3636L454.283 77.3654L452.867 77.3672Z" fill="#FF8B63"/>
<path d="M452.867 74.7188L452.869 76.4742L454.285 76.4724L454.286 77.3667L455.698 77.365L455.696 76.2708L455.694 74.7152L454.283 74.717L452.867 74.7188Z" fill="#FF8B63"/>
<path d="M452.86 72.4993L452.862 73.8218L454.278 73.82L454.279 74.7144L455.69 74.7126L455.689 73.8135L455.686 72.0628L454.275 72.0646L452.859 72.0664L452.86 72.4993Z" fill="#FF8B63"/>
<path d="M452.859 69.4219L452.862 71.1725L454.278 71.1708L454.279 72.0651L455.69 72.0633L455.689 71.364L455.687 70.1366L455.686 69.4183L454.275 69.4201L452.859 69.4219Z" fill="#FF8B63"/>
<path d="M452.859 66.7734L452.862 68.5289L454.278 68.5271L454.279 69.4214L455.69 69.4196L455.689 68.9106L455.688 67.6833L455.686 66.7699L454.275 66.7716L452.859 66.7734Z" fill="#FF8B63"/>
<path d="M452.852 64.4414L452.853 65.8781L454.269 65.8763L454.27 66.7707L455.682 66.7689L455.681 66.4549L455.68 65.2846L455.679 64.4378L452.852 64.4414Z" fill="#FF8B63"/>
<path d="M454.496 123.846C453.505 123.99 452.815 124.909 452.959 125.898L454.185 134.345C454.329 135.335 455.25 136.023 456.242 135.879L455.958 133.915L455.554 131.132L455.15 128.35L454.746 125.567L454.496 123.846Z" fill="#FF8B63"/>
<path d="M454.493 123.843L454.743 125.565L459.901 124.816L459.651 123.099L456.824 123.507L454.493 123.843Z" fill="#FF8B63"/>
<path d="M454.743 125.566L455.147 128.349L460.3 127.605L460.305 127.605L459.901 124.818L454.743 125.566Z" fill="#FF8B63"/>
<path d="M455.149 128.347L455.553 131.129L460.706 130.385L460.711 130.385L460.307 127.603L460.302 127.603L455.149 128.347Z" fill="#FF8B63"/>
<path d="M455.113 62.4604L455.114 63.1169L465.955 63.1032L465.938 49.6497C465.936 48.3462 464.881 47.2962 463.58 47.2979L455.094 47.3086L455.113 62.4604Z" fill="#FF8B63"/>
<path d="M455.556 131.132L455.96 133.914L461.112 133.171L461.117 133.17L460.713 130.388L460.708 130.388L455.556 131.132Z" fill="#FF8B63"/>
<path d="M455.703 84.8516L455.704 85.8934L457.402 85.8913L465.182 85.8814L466.741 85.8795L466.74 84.8376L455.703 84.8516Z" fill="#FF8B63"/>
<path d="M455.704 84.4139L455.705 84.8515L466.741 84.8376L466.74 83.615L455.703 83.6289L455.704 84.4139Z" fill="#FF8B63"/>
<path d="M455.703 82.6592L455.705 83.6297L466.741 83.6158L466.74 82.769L466.74 82.3884L455.703 82.4023L455.703 82.6592Z" fill="#FF8B63"/>
<path d="M466.74 81.1618L455.703 81.1758L455.705 82.4032L466.741 82.3892L466.74 81.1618Z" fill="#FF8B63"/>
<path d="M455.703 80.0072L455.705 81.1727L466.741 81.1587L466.74 79.9314L455.703 79.9453L455.703 80.0072Z" fill="#FF8B63"/>
<path d="M466.732 78.7048L455.695 78.7188L455.697 79.9461L466.733 79.9322L466.732 78.7048Z" fill="#FF8B63"/>
<path d="M455.697 77.3637L455.698 78.7195L466.735 78.7056L466.732 76.2556L455.695 76.2695L455.697 77.3637Z" fill="#FF8B63"/>
<path d="M455.696 74.7155L455.698 76.2711L466.735 76.2572L466.732 73.8025L455.695 73.8164L455.696 74.7155Z" fill="#FF8B63"/>
<path d="M455.688 72.0626L455.691 73.8133L466.727 73.7993L466.724 71.3493L455.688 71.3633L455.688 72.0626Z" fill="#FF8B63"/>
<path d="M466.724 70.1228L455.688 70.1367L455.689 71.3641L466.726 71.3501L466.724 70.1228Z" fill="#FF8B63"/>
<path d="M455.688 69.4192L455.689 70.1375L466.726 70.1236L466.724 68.8962L455.688 68.9102L455.688 69.4192Z" fill="#FF8B63"/>
<path d="M466.724 67.6696L455.688 67.6836L455.689 68.911L466.726 68.897L466.724 67.6696Z" fill="#FF8B63"/>
<path d="M455.68 66.771L455.681 67.6844L466.718 67.6705L466.718 67.3993L466.716 66.4431L455.68 66.457L455.68 66.771Z" fill="#FF8B63"/>
<path d="M455.68 65.2852L455.681 66.4554L466.718 66.4415L466.716 65.2712L464.638 65.2738L456.905 65.2836L455.68 65.2852Z" fill="#FF8B63"/>
<path d="M455.962 133.913L456.246 135.878L459.072 135.47L461.403 135.134L461.119 133.169L461.115 133.169L455.962 133.913Z" fill="#FF8B63"/>
<path d="M456.453 99.7226L456.458 103.8L466.77 103.787L466.767 101.089L466.759 94.8144L466.758 94.0294L466.751 88.668L466.749 87.3502L465.19 87.3522L457.41 87.3621L456.438 87.3633L456.44 89.6848L456.446 94.2613L456.447 94.6847L456.453 99.7226Z" fill="#FF8B63"/>
<path d="M464.639 63.1035L456.906 63.1133L456.909 65.2826L464.642 65.2728L464.639 63.1035Z" fill="#FF8B63"/>
<path d="M465.187 85.8808L457.406 85.8906L457.408 87.3606L465.189 87.3508L465.187 85.8808Z" fill="#FF8B63"/>
<path d="M465.945 51.4336L465.952 56.4239L468.455 56.4208C469.146 56.4199 469.765 56.1384 470.218 55.6859C470.346 55.5573 470.46 55.4145 470.56 55.2621C470.808 54.8765 470.95 54.4148 470.95 53.9248C470.948 52.5452 469.826 51.4287 468.448 51.4304L465.945 51.4336ZM467.074 54.0629C467.073 53.4255 467.592 52.9063 468.231 52.9055C468.87 52.9046 469.39 53.4225 469.391 54.06C469.392 54.6975 468.877 55.2214 468.234 55.2222C467.59 55.223 467.075 54.7052 467.074 54.0629Z" fill="#FF8B63"/>
<path d="M466.758 94.8125L466.766 101.087C468.024 101.052 469.283 101.022 470.546 100.992L470.551 100.992C469.706 100.28 469.166 99.2099 469.165 98.0111C469.164 97.15 469.444 96.3505 469.91 95.7029C468.861 95.4093 467.807 95.1109 466.758 94.8125Z" fill="#FF8B63"/>
<path d="M466.75 88.668L466.757 94.0294L469.441 94.026C470.185 94.0251 470.856 93.7245 471.342 93.2386C471.828 92.7528 472.127 92.0864 472.126 91.3443C472.124 89.86 470.921 88.6627 469.434 88.6646L466.75 88.668ZM468.136 91.3303C468.135 90.6214 468.711 90.0451 469.421 90.0442C470.132 90.0433 470.709 90.6182 470.71 91.327C470.711 92.0358 470.135 92.617 469.425 92.6179C468.714 92.6188 468.137 92.0439 468.136 91.3303Z" fill="#FF8B63"/>
<path d="M466.738 82.3885L466.738 82.7691L468.311 82.7671L468.307 79.4418L468.297 71.3497L468.292 67.3964L466.719 67.3984L466.719 67.6696L466.721 68.897L466.722 70.1243L466.724 71.3517L466.727 73.8017L466.73 76.2564L466.733 78.7064L466.735 79.9338L466.736 81.1611L466.738 82.3885Z" fill="white"/>
<path d="M468.229 52.9048C467.59 52.9056 467.071 53.4248 467.072 54.0623C467.073 54.6997 467.593 55.2224 468.232 55.2216C468.871 55.2208 469.39 54.7016 469.389 54.0593C469.388 53.4171 468.872 52.904 468.229 52.9048Z" fill="white"/>
<path d="M473.608 71.3409L468.297 71.3477L468.307 79.4397L473.618 79.433L473.608 71.3409Z" fill="white"/>
<path d="M469.42 90.0452C468.71 90.0461 468.134 90.6225 468.134 91.3313C468.135 92.0402 468.713 92.6198 469.423 92.6189C470.134 92.618 470.71 92.0417 470.709 91.3281C470.708 90.6145 470.13 90.0444 469.42 90.0452Z" fill="white"/>
<path d="M475.403 94.821C474.754 94.3509 473.957 94.076 473.094 94.0771C471.783 94.0787 470.625 94.7176 469.907 95.7033C469.44 96.3509 469.16 97.1505 469.161 98.0115C469.163 99.2103 469.703 100.28 470.548 100.988C471.235 101.582 472.132 101.932 473.104 101.931C474.329 101.93 475.425 101.367 476.149 100.491C476.701 99.8145 477.038 98.9483 477.037 98.0016C477.035 96.6933 476.39 95.5334 475.403 94.821ZM470.672 98.0096C470.671 96.6728 471.756 95.5868 473.096 95.5851C474.436 95.5834 475.524 96.6667 475.526 98.0035C475.527 99.3403 474.442 100.426 473.102 100.428C471.763 100.43 470.674 99.3464 470.672 98.0096Z" fill="#FF8B63"/>
<path d="M470.032 115.708L473.697 140.979L479.107 140.197L475.442 114.931L472.511 115.353L472.511 115.348L470.032 115.708Z" fill="#7099ED"/>
<path d="M473.105 100.43C474.445 100.428 475.53 99.3425 475.528 98.0051C475.526 96.6678 474.439 95.5851 473.098 95.5868C471.758 95.5885 470.673 96.674 470.675 98.0113C470.677 99.3486 471.764 100.431 473.105 100.43Z" fill="white"/>
<path d="M479.371 107.391L471.52 108.524L472.511 115.349L475.443 114.927L499.337 111.476L498.347 104.646L495.987 104.987L490.52 105.778L489.224 105.966L487.069 106.277L485.625 106.484L479.371 107.391Z" fill="#7099ED"/>
<path d="M473.613 71.3406L473.623 79.4327L473.628 82.758L478.905 82.7513L478.887 68.4035L473.609 68.4102L473.613 71.3406Z" fill="white"/>
<path d="M475.442 114.929L479.111 140.195L479.107 140.195L479.424 142.369L486.059 141.409L503.319 138.913L500.568 119.95L499.337 111.474L475.442 114.929ZM478.787 120.89C478.657 119.992 479.28 119.158 480.186 119.029C481.087 118.894 481.922 119.521 482.052 120.42C482.186 121.319 481.558 122.157 480.657 122.287C479.756 122.416 478.916 121.794 478.787 120.89Z" fill="#7099ED"/>
<path d="M480.184 119.032C479.278 119.161 478.655 119.995 478.785 120.894C478.915 121.797 479.755 122.419 480.655 122.29C481.556 122.16 482.185 121.322 482.05 120.423C481.92 119.524 481.085 118.897 480.184 119.032Z" fill="white"/>
<path d="M490.964 92.5894C489.057 92.5918 487.51 94.1351 487.512 96.0428C487.515 97.9504 489.066 99.4898 490.973 99.4874C491.044 99.4873 491.116 99.4872 491.183 99.4776C491.845 99.4387 492.455 99.2143 492.965 98.8522C493.851 98.2278 494.431 97.1995 494.43 96.034C494.427 94.1264 492.876 92.587 490.964 92.5894ZM488.537 96.0415C488.535 94.6999 489.626 93.6091 490.965 93.6074C492.305 93.6057 493.403 94.6938 493.405 96.0353C493.406 97.3768 492.316 98.4629 490.972 98.4646C489.627 98.4663 488.539 97.383 488.537 96.0415Z" fill="white"/>
<path d="M490.97 93.6102C489.631 93.6119 488.54 94.7027 488.542 96.0442C488.544 97.3858 489.637 98.4691 490.977 98.4674C492.316 98.4657 493.411 97.3796 493.41 96.0381C493.408 94.6965 492.315 93.6085 490.97 93.6102Z" fill="white"/>
<path d="M504.635 183.999L508.058 183.686C509.793 183.527 511.073 181.993 510.914 180.262C510.769 178.621 509.389 177.39 507.773 177.392C507.678 177.393 507.578 177.397 507.482 177.407L503.183 177.798L498.006 178.271L493.544 178.676C491.804 178.835 490.524 180.368 490.683 182.1C490.833 183.741 492.212 184.971 493.828 184.969C493.924 184.969 494.019 184.964 494.114 184.955L498.519 184.554L504.635 183.999ZM491.884 181.994C491.792 180.981 492.54 180.09 493.55 179.998C494.561 179.907 495.458 180.648 495.55 181.661C495.642 182.669 494.895 183.56 493.884 183.652C492.873 183.743 491.976 183.002 491.884 181.994ZM505.785 180.725C505.693 179.717 506.44 178.826 507.451 178.734C508.461 178.643 509.358 179.384 509.45 180.392C509.542 181.401 508.795 182.296 507.784 182.388C506.774 182.479 505.876 181.738 505.785 180.725Z" fill="white"/>
<path d="M493.551 179.998C492.54 180.089 491.793 180.98 491.885 181.993C491.977 183.001 492.874 183.742 493.885 183.651C494.895 183.559 495.643 182.668 495.551 181.66C495.459 180.647 494.562 179.906 493.551 179.998Z" fill="white"/>
<path d="M497.526 162.546C497.358 165.524 497.324 168.759 497.5 172.218C497.607 174.334 497.781 176.356 498.008 178.268L503.185 177.795C502.585 175.004 502.128 171.493 502.304 167.459C502.355 166.246 502.463 165.099 502.6 164.014C502.723 163.072 502.15 162.193 501.239 161.913C500.771 161.771 500.242 161.648 499.655 161.582C499.288 161.54 498.945 161.521 498.621 161.522C498.039 161.523 497.554 161.97 497.526 162.546Z" fill="#7099ED"/>
<path d="M504.632 183.996L498.516 184.551C498.754 187.533 499.325 191.029 500.541 194.796C500.953 196.07 501.402 197.263 501.866 198.371C503.93 197.712 505.993 197.048 508.057 196.389C506.929 194.512 505.581 191.706 504.966 188.111C504.707 186.598 504.624 185.214 504.632 183.996Z" fill="#7099ED"/>
<path d="M507.449 178.732C506.439 178.824 505.692 179.714 505.783 180.723C505.875 181.736 506.772 182.477 507.783 182.385C508.794 182.293 509.541 181.398 509.449 180.39C509.357 179.381 508.46 178.64 507.449 178.732Z" fill="white"/>
<path d="M273.178 40.6411L273.172 35.4414L282.411 35.4297L285.996 35.4252L294.482 35.4145L302.024 35.4049L302.039 46.7415" stroke="#231F20" stroke-width="0.6" stroke-miterlimit="10" stroke-linecap="round"/>
<path d="M302.056 59.4479L302.07 70.7844L294.528 70.794L286.042 70.8047L282.457 70.8092L273.217 70.8209L273.211 65.6165" stroke="#231F20" stroke-width="0.6" stroke-miterlimit="10" stroke-linecap="round"/>
<path d="M252.834 57.4087L252.837 60.3106L258.188 65.6367L273.215 65.6178L273.184 40.6422L258.157 40.6612C256.071 42.7475 254.905 43.9193 252.819 46.0056L252.823 48.9028" stroke="#231F20" stroke-width="0.6" stroke-miterlimit="10" stroke-linecap="round"/>
<path d="M252.821 48.9005L242.072 50.0986L242.08 56.2355L252.832 57.4064L252.821 48.9005Z" stroke="#231F20" stroke-width="0.6" stroke-miterlimit="10" stroke-linecap="round"/>
<path d="M282.414 35.6133L282.458 70.6218" stroke="#231F20" stroke-width="0.6" stroke-miterlimit="10" stroke-linecap="round"/>
<path d="M286 35.4258L286.045 70.8054" stroke="#231F20" stroke-width="0.6" stroke-miterlimit="10" stroke-linecap="round"/>
<path d="M294.484 35.5977L294.529 70.6062" stroke="#231F20" stroke-width="0.6" stroke-miterlimit="10" stroke-linecap="round"/>
<path d="M258.156 40.6602L258.188 65.6357" stroke="#231F20" stroke-width="0.6" stroke-miterlimit="10" stroke-linecap="round"/>
<path d="M264.602 63.7752C264.603 64.1653 265.786 64.4778 267.245 64.476C268.703 64.4741 269.88 64.1587 269.88 63.7686C269.88 63.3785 268.697 63.0612 267.243 63.0631C265.789 63.0649 264.602 63.3851 264.602 63.7752Z" stroke="#231F20" stroke-width="0.6" stroke-miterlimit="10" stroke-linecap="round"/>
<path d="M264.815 44.1148C264.816 45.0234 265.894 45.7594 267.224 45.7577C268.554 45.756 269.626 45.0173 269.625 44.1087C269.624 43.2 268.545 42.464 267.22 42.4657C265.895 42.4674 264.813 43.2061 264.815 44.1148Z" stroke="#231F20" stroke-width="0.6" stroke-miterlimit="10" stroke-linecap="round"/>
<path d="M306.11 57.5598L306.112 59.4437L302.055 59.4488L302.039 46.7422L306.096 46.7371L306.099 48.6209" stroke="#231F20" stroke-width="0.6" stroke-miterlimit="10" stroke-linecap="round"/>
<path d="M309.603 57.5555L306.113 57.56L306.102 48.6211L309.591 48.6167" stroke="#231F20" stroke-width="0.6" stroke-miterlimit="10" stroke-linecap="round"/>
<path d="M316.191 47.6643L316.184 42.4409L309.586 42.4492L309.594 48.6146L309.605 57.5535L309.613 63.7189L316.211 63.7105L316.204 58.4871" stroke="#231F20" stroke-width="0.6" stroke-miterlimit="10" stroke-linecap="round"/>
<path d="M335.046 49.1916L335.037 42.4173L328.344 42.4258L328.352 49.2001" stroke="#231F20" stroke-width="0.6" stroke-miterlimit="10" stroke-linecap="round"/>
<path d="M328.367 56.918L328.376 63.697L335.069 63.6886L335.061 56.9095" stroke="#231F20" stroke-width="0.6" stroke-miterlimit="10" stroke-linecap="round"/>
<path d="M319.493 49.2107L319.491 47.6599L316.188 47.6641L316.201 58.4868L319.505 58.4826L319.503 56.927" stroke="#231F20" stroke-width="0.6" stroke-miterlimit="10" stroke-linecap="round"/>
<path d="M328.355 49.1997L319.492 49.2109L319.502 56.9272L328.365 56.916L328.355 49.1997Z" stroke="#231F20" stroke-width="0.6" stroke-miterlimit="10" stroke-linecap="round"/>
<path d="M345.609 42.7408L345.594 30.3576L338.047 30.3672L338.071 49.1868" stroke="#231F20" stroke-width="0.6" stroke-miterlimit="10" stroke-linecap="round"/>
<path d="M338.078 56.9023L338.102 75.722L345.649 75.7125L345.636 65.3226" stroke="#231F20" stroke-width="0.6" stroke-miterlimit="10" stroke-linecap="round"/>
<path d="M338.065 49.1876L335.047 49.1914L335.057 56.9077L338.074 56.9038L338.065 49.1876Z" stroke="#231F20" stroke-width="0.6" stroke-miterlimit="10" stroke-linecap="round"/>
<path d="M347.493 42.7398L345.609 42.7422L345.638 65.3248L347.521 65.3224L347.493 42.7398Z" stroke="#231F20" stroke-width="0.6" stroke-miterlimit="10" stroke-linecap="round"/>
<path d="M351.925 44.8994L349.57 44.9023L349.577 50.3589" stroke="#231F20" stroke-width="0.6" stroke-miterlimit="10" stroke-linecap="round"/>
<path d="M349.586 57.6016L349.594 64.2855L351.949 64.2825" stroke="#231F20" stroke-width="0.6" stroke-miterlimit="10" stroke-linecap="round"/>
<path d="M349.575 50.357L347.688 50.3594L347.697 57.6047L349.585 57.6023L349.575 50.357Z" stroke="#231F20" stroke-width="0.6" stroke-miterlimit="10" stroke-linecap="round"/>
<path d="M354.846 44.8953L354.837 37.5549L351.914 37.5586L351.923 44.899L351.948 64.2848L351.984 92.6094L354.906 92.6057L354.905 91.9445" stroke="#231F20" stroke-width="0.6" stroke-miterlimit="10" stroke-linecap="round"/>
<path d="M368.341 46.6567L368.339 44.8775L354.852 44.8945L354.911 91.9437L368.398 91.9266" stroke="#231F20" stroke-width="0.6" stroke-miterlimit="10" stroke-linecap="round"/>
<path d="M368.346 51.1798L368.344 49.1484" stroke="#231F20" stroke-width="0.6" stroke-miterlimit="10" stroke-linecap="round"/>
<path d="M372.86 46.6505L368.336 46.6562L368.339 49.149L372.863 49.1433L372.86 46.6505Z" stroke="#231F20" stroke-width="0.6" stroke-miterlimit="10" stroke-linecap="round"/>
<path d="M377.893 70.2727L377.891 68.5173L377.885 64.0883L377.883 61.8762L377.88 59.6641L377.877 57.4472L377.874 55.2351L377.871 53.0182L377.869 51.1676L368.344 51.1797L368.346 53.0303L368.349 55.2471L368.352 57.4593L368.354 59.6761L368.357 61.8882L368.36 64.1004L368.366 68.5294L368.371 72.9583L368.377 77.3873L368.382 81.8163L368.388 86.2453L368.391 88.4575L368.394 90.6696L368.395 91.9255L368.396 92.8864L368.399 95.0986L368.402 97.3154L368.404 99.1708L377.93 99.1587L377.927 97.3034L377.925 95.0865L377.922 92.8744L377.919 90.6575L377.916 88.4454L377.913 86.2333L377.908 81.8043L377.907 81.5617" stroke="#231F20" stroke-width="0.6" stroke-miterlimit="10" stroke-linecap="round"/>
<path d="M384.503 81.4018L384.503 81.554L377.905 81.5624L377.9 77.376L377.894 72.947L377.891 70.2734L384.489 70.2651" stroke="#231F20" stroke-width="0.6" stroke-miterlimit="10" stroke-linecap="round"/>
<path d="M396.633 51.9922L437.275 51.9408" stroke="#231F20" stroke-width="0.6" stroke-miterlimit="10" stroke-linecap="round"/>
<path d="M437.338 97.39L437.339 98.0513L396.696 98.1027" stroke="#231F20" stroke-width="0.6" stroke-miterlimit="10" stroke-linecap="round"/>
<path d="M393.563 82.7984L393.554 75.7101L395.113 75.7081L395.104 68.5104L393.545 68.5124L393.536 60.8437L393.532 58.113L393.523 51.1484L396.637 51.1445L396.638 51.9913L396.659 68.5084L396.669 76.4863L396.679 84.4642L396.684 88.4175L396.696 98.1033L396.697 99.1356L393.584 99.1395L393.571 88.4214L393.567 85.7479L393.563 82.7984Z" stroke="#231F20" stroke-width="0.6" stroke-miterlimit="10" stroke-linecap="round"/>
<path d="M437.281 53.918L440.428 53.914L440.429 55.2983L440.433 58.0528L440.435 59.7131L440.438 61.9109L440.445 67.8717L439.125 67.8734L439.135 75.8418L440.455 75.8401L440.461 80.4784L440.471 87.757L440.471 88.2803L440.475 91.363L440.483 97.3857L437.336 97.3897L437.325 88.2843L437.32 84.3358L437.31 76.3531L437.3 68.3752L437.281 53.918Z" stroke="#231F20" stroke-width="0.6" stroke-miterlimit="10" stroke-linecap="round"/>
<path d="M437.175 68.3788L396.938 68.5106" stroke="#231F20" stroke-width="0.6" stroke-miterlimit="10" stroke-linecap="round"/>
<path d="M437.182 76.3554L396.945 76.4871" stroke="#231F20" stroke-width="0.6" stroke-miterlimit="10" stroke-linecap="round"/>
<path d="M437.19 84.3359L396.953 84.4628" stroke="#231F20" stroke-width="0.6" stroke-miterlimit="10" stroke-linecap="round"/>
<path d="M437.198 88.2851L396.961 88.4168" stroke="#231F20" stroke-width="0.6" stroke-miterlimit="10" stroke-linecap="round"/>
<path d="M393.53 58.1136L387.733 62.0409L387.199 62.4031C385.504 63.5517 384.486 65.4654 384.488 67.511L384.506 81.4022C384.507 82.5439 385.124 83.5993 386.116 84.1641L389.546 86.1245L393.568 88.422" stroke="#231F20" stroke-width="0.6" stroke-miterlimit="10" stroke-linecap="round"/>
<path d="M380.834 33.2862L380.826 27.3777C380.824 25.7364 379.493 24.4109 377.848 24.4129L361.381 24.4337C359.736 24.4358 358.408 25.7648 358.41 27.406L358.417 33.3145" stroke="#231F20" stroke-width="0.6" stroke-miterlimit="10" stroke-linecap="round"/>
<path d="M366.532 35.322L381.807 35.3027L381.805 33.2857L380.837 33.2869L358.421 33.3152L357.477 33.3164L357.479 35.3335L361.627 35.3282" stroke="#231F20" stroke-width="0.6" stroke-miterlimit="10" stroke-linecap="round"/>
<path d="M366.531 35.3219L361.625 35.3281L361.635 43.4725L366.541 43.4663L366.531 35.3219Z" stroke="#231F20" stroke-width="0.6" stroke-miterlimit="10" stroke-linecap="round"/>
<path d="M440.43 58.0547L444.251 60.3381L445.864 61.3018C447.896 62.5123 449.262 64.58 449.585 66.9202L449.662 67.4767C449.753 68.1283 449.826 68.7799 449.879 69.4364C450.121 72.3094 450.043 75.1972 449.642 78.052C449.562 78.6373 449.467 79.2178 449.358 79.7983C449.159 80.8689 448.731 81.878 448.127 82.7589C447.523 83.6445 446.737 84.4019 445.808 84.9787L440.468 88.2822" stroke="#231F20" stroke-width="0.6" stroke-miterlimit="10" stroke-linecap="round"/>
<path d="M456.905 65.2836L455.68 65.2852" stroke="#231F20" stroke-width="0.6" stroke-miterlimit="10" stroke-linecap="round"/>
<path d="M466.722 67.3973L466.721 66.4411L466.719 65.2708L464.641 65.2734" stroke="#231F20" stroke-width="0.6" stroke-miterlimit="10" stroke-linecap="round"/>
<path d="M465.184 85.8808L466.743 85.8788L466.741 84.837L466.74 83.6143L466.739 82.7676" stroke="#231F20" stroke-width="0.6" stroke-miterlimit="10" stroke-linecap="round"/>
<path d="M455.711 85.8945L457.408 85.8924" stroke="#231F20" stroke-width="0.6" stroke-miterlimit="10" stroke-linecap="round"/>
<path d="M455.706 85.893L455.707 86.7398L452.88 86.7434L452.878 85.3114L454.294 85.3097L454.293 84.4153L452.877 84.4171L452.875 82.6617L454.291 82.6599L454.289 81.7655L452.873 81.7673L452.871 80.0119L454.287 80.0101L454.286 79.1157L452.87 79.1175L452.868 77.3668L454.284 77.3651L454.283 76.4707L452.867 76.4725L452.865 74.7171L454.28 74.7153L454.279 73.8209L452.863 73.8227L452.862 72.5002L452.861 72.0673L454.277 72.0655L454.276 71.1711L452.86 71.1729L452.858 69.4222L454.274 69.4205L454.273 68.5261L452.857 68.5279L452.855 66.7725L454.27 66.7707L454.269 65.8763L452.853 65.8781L452.852 64.4414L455.679 64.4378L455.68 65.2846L455.681 66.4549L455.682 66.7689L455.683 67.6823L455.684 68.9096L455.685 69.4187L455.686 70.137L455.687 71.3644L455.688 72.0637L455.69 73.8144L455.692 74.7135L455.694 76.2691L455.695 77.3633L455.697 78.7191L455.698 79.9465L455.698 80.0083L455.7 81.1738L455.701 82.4012L455.702 82.6581L455.703 83.6286L455.704 84.4135L455.704 84.8512L455.706 85.893Z" stroke="#231F20" stroke-width="0.6" stroke-miterlimit="10" stroke-linecap="round"/>
<path d="M466.716 66.4431L455.68 66.457" stroke="#231F20" stroke-width="0.6" stroke-miterlimit="10" stroke-linecap="round"/>
<path d="M466.724 67.6696L455.688 67.6836" stroke="#231F20" stroke-width="0.6" stroke-miterlimit="10" stroke-linecap="round"/>
<path d="M466.724 68.8962L455.688 68.9102" stroke="#231F20" stroke-width="0.6" stroke-miterlimit="10" stroke-linecap="round"/>
<path d="M466.724 70.1228L455.688 70.1367" stroke="#231F20" stroke-width="0.6" stroke-miterlimit="10" stroke-linecap="round"/>
<path d="M466.724 71.3493L455.688 71.3633" stroke="#231F20" stroke-width="0.6" stroke-miterlimit="10" stroke-linecap="round"/>
<path d="M466.732 73.8025L455.695 73.8164" stroke="#231F20" stroke-width="0.6" stroke-miterlimit="10" stroke-linecap="round"/>
<path d="M466.732 76.2556L455.695 76.2695" stroke="#231F20" stroke-width="0.6" stroke-miterlimit="10" stroke-linecap="round"/>
<path d="M466.732 78.7048L455.695 78.7188" stroke="#231F20" stroke-width="0.6" stroke-miterlimit="10" stroke-linecap="round"/>
<path d="M466.74 79.9314L455.703 79.9453" stroke="#231F20" stroke-width="0.6" stroke-miterlimit="10" stroke-linecap="round"/>
<path d="M466.74 81.1618L455.703 81.1758" stroke="#231F20" stroke-width="0.6" stroke-miterlimit="10" stroke-linecap="round"/>
<path d="M466.74 82.3884L455.703 82.4023" stroke="#231F20" stroke-width="0.6" stroke-miterlimit="10" stroke-linecap="round"/>
<path d="M466.74 83.615L455.703 83.6289" stroke="#231F20" stroke-width="0.6" stroke-miterlimit="10" stroke-linecap="round"/>
<path d="M466.74 84.8376L455.703 84.8516" stroke="#231F20" stroke-width="0.6" stroke-miterlimit="10" stroke-linecap="round"/>
<path d="M455.095 48.0127L455.094 47.3086L463.58 47.2979C464.881 47.2962 465.936 48.3462 465.938 49.6497L465.94 51.4337" stroke="#231F20" stroke-width="0.6" stroke-miterlimit="10" stroke-linecap="round"/>
<path d="M456.906 63.1152L455.118 63.1174L455.117 62.4609" stroke="#231F20" stroke-width="0.6" stroke-miterlimit="10" stroke-linecap="round"/>
<path d="M465.946 56.4241L465.954 63.1033L464.633 63.105" stroke="#231F20" stroke-width="0.6" stroke-miterlimit="10" stroke-linecap="round"/>
<path d="M464.639 63.1035L456.906 63.1133L456.909 65.2826L464.642 65.2728L464.639 63.1035Z" stroke="#231F20" stroke-width="0.6" stroke-miterlimit="10" stroke-linecap="round"/>
<path d="M457.41 87.3621L456.438 87.3633L456.44 89.6848L456.446 94.2613L456.447 94.6847" stroke="#231F20" stroke-width="0.6" stroke-miterlimit="10" stroke-linecap="round"/>
<path d="M466.748 88.6674L466.746 87.3496L465.188 87.3516" stroke="#231F20" stroke-width="0.6" stroke-miterlimit="10" stroke-linecap="round"/>
<path d="M456.452 99.7231L456.458 103.8L466.77 103.787L466.766 101.09L466.758 94.8149L466.757 94.0299" stroke="#231F20" stroke-width="0.6" stroke-miterlimit="10" stroke-linecap="round"/>
<path d="M465.187 85.8808L457.406 85.8906L457.408 87.3606L465.189 87.3508L465.187 85.8808Z" stroke="#231F20" stroke-width="0.6" stroke-miterlimit="10" stroke-linecap="round"/>
<path d="M444.063 53.227C444.001 52.7799 444.005 52.3136 444.1 51.833C444.403 50.2818 445.65 49.0291 447.204 48.7179C449.139 48.3301 450.895 49.3412 451.645 50.9196C451.746 51.1336 451.97 51.2665 452.208 51.2662C452.556 51.2658 452.837 50.9847 452.837 50.6374L452.835 48.9343C452.834 48.4301 453.243 48.0157 453.754 48.015L455.098 48.0133L455.116 62.4611L452.852 62.4639L452.852 62.3688L451.746 62.3702C451.56 62.4275 451.36 62.4658 451.155 62.4661C450.95 62.4664 450.749 62.4285 450.563 62.3717L450.396 62.3719L450.396 62.3196C449.6 62.0161 449.032 61.2509 449.03 60.3518C449.029 59.4527 449.596 58.6813 450.391 58.3758L450.406 58.371C450.634 58.2851 450.887 58.2325 451.149 58.2321C451.411 58.2318 451.659 58.2838 451.893 58.3692L452.184 58.3688C452.551 58.3683 452.846 58.073 452.846 57.7115C452.845 57.3499 452.549 57.0506 452.182 57.051L449.026 57.055C449.026 57.055 448.377 56.6325 448.034 56.6329C446.017 56.6354 444.347 55.158 444.063 53.227Z" stroke="#231F20" stroke-width="0.6" stroke-miterlimit="10" stroke-linecap="round"/>
<path d="M445.152 52.7305C445.152 52.878 445.162 53.0207 445.191 53.1586C445.393 54.4904 446.548 55.507 447.94 55.5052C449.475 55.5033 450.717 54.2601 450.716 52.7235C450.714 51.1869 449.468 49.9516 447.933 49.9535C446.398 49.9555 445.15 51.1987 445.152 52.7305Z" stroke="#231F20" stroke-width="0.6" stroke-miterlimit="10" stroke-linecap="round"/>
<path d="M449.853 60.4407C449.854 61.0924 450.384 61.6198 451.037 61.619C451.69 61.6181 452.214 61.0894 452.213 60.4377C452.212 59.7859 451.682 59.2633 451.034 59.2641C450.386 59.265 449.852 59.7937 449.853 60.4407Z" stroke="#231F20" stroke-width="0.6" stroke-miterlimit="10" stroke-linecap="round"/>
<path d="M466.75 88.668L469.434 88.6646C470.921 88.6627 472.124 89.86 472.126 91.3443C472.127 92.0864 471.828 92.7528 471.342 93.2386C470.856 93.7245 470.185 94.0251 469.441 94.026L466.757 94.0294L466.75 88.668Z" stroke="#231F20" stroke-width="0.6" stroke-miterlimit="10" stroke-linecap="round"/>
<path d="M468.134 91.3313C468.135 92.0449 468.713 92.6198 469.423 92.6189C470.134 92.618 470.71 92.0417 470.709 91.3281C470.708 90.6145 470.13 90.0444 469.42 90.0452C468.71 90.0461 468.134 90.6225 468.134 91.3313Z" stroke="#231F20" stroke-width="0.6" stroke-miterlimit="10" stroke-linecap="round"/>
<path d="M451.549 95.1182C450.882 95.5757 450.44 96.3422 450.441 97.2127C450.442 97.9073 450.724 98.5349 451.182 98.991C451.64 99.4471 452.27 99.727 452.966 99.7261L456.451 99.7217L456.444 94.6838L452.959 94.6882C452.44 94.6889 451.954 94.8465 451.549 95.1182Z" stroke="#231F20" stroke-width="0.6" stroke-miterlimit="10" stroke-linecap="round"/>
<path d="M451.643 97.2108C451.644 98.0291 452.307 98.6895 453.127 98.6884C453.947 98.6874 454.614 98.0253 454.613 97.2071C454.612 96.3888 453.943 95.7237 453.123 95.7247C452.303 95.7257 451.641 96.3926 451.643 97.2108Z" stroke="#231F20" stroke-width="0.6" stroke-miterlimit="10" stroke-linecap="round"/>
<path d="M459.066 135.471L461.298 146.89L474.105 144.743L470.176 118.022L467.535 118.025L462.994 108.345L445.473 111.531L446.154 115.041L449.596 115.036C452.357 115.033 454.795 116.833 455.604 119.463L456.806 123.386" stroke="#231F20" stroke-width="0.6" stroke-miterlimit="10" stroke-linecap="round"/>
<path d="M456.243 135.878L459.069 135.47L461.4 135.135L461.117 133.17L460.713 130.388L460.309 127.605L459.905 124.818L459.654 123.101L456.828 123.509L454.497 123.845C453.506 123.989 452.815 124.908 452.96 125.897L454.186 134.344C454.33 135.334 455.251 136.022 456.243 135.878Z" stroke="#231F20" stroke-width="0.6" stroke-miterlimit="10" stroke-linecap="round"/>
<path d="M454.5 123.844L454.75 125.566L455.154 128.348L455.558 131.131L455.962 133.913L456.246 135.877" stroke="#231F20" stroke-width="0.6" stroke-miterlimit="10" stroke-linecap="round"/>
<path d="M459.901 124.818L454.743 125.566" stroke="#231F20" stroke-width="0.6" stroke-miterlimit="10" stroke-linecap="round"/>
<path d="M460.302 127.603L455.149 128.347" stroke="#231F20" stroke-width="0.6" stroke-miterlimit="10" stroke-linecap="round"/>
<path d="M460.708 130.388L455.556 131.132" stroke="#231F20" stroke-width="0.6" stroke-miterlimit="10" stroke-linecap="round"/>
<path d="M461.115 133.169L455.962 133.913" stroke="#231F20" stroke-width="0.6" stroke-miterlimit="10" stroke-linecap="round"/>
<path d="M475.442 114.929L479.107 140.195L479.424 142.369L486.059 141.409L503.319 138.913L500.568 119.95L499.337 111.474L475.442 114.924" stroke="#231F20" stroke-width="0.6" stroke-miterlimit="10" stroke-linecap="round"/>
<path d="M472.511 115.349L472.511 115.354L475.443 114.931L499.337 111.476L498.347 104.646L495.987 104.987L490.52 105.778L489.224 105.966L487.069 106.277L485.625 106.484L479.371 107.391L471.52 108.524L472.511 115.349Z" stroke="#231F20" stroke-width="0.6" stroke-miterlimit="10" stroke-linecap="round"/>
<path d="M478.785 120.894C478.915 121.797 479.755 122.419 480.655 122.29C481.556 122.16 482.185 121.322 482.05 120.423C481.92 119.524 481.085 118.897 480.184 119.032C479.278 119.161 478.655 119.995 478.785 120.894Z" stroke="#231F20" stroke-width="0.6" stroke-miterlimit="10" stroke-linecap="round"/>
<path d="M498.172 124.465L499.172 131.357" stroke="#231F20" stroke-width="0.6" stroke-miterlimit="10" stroke-linecap="round"/>
<path d="M496.023 124.777L497.024 131.669" stroke="#231F20" stroke-width="0.6" stroke-miterlimit="10" stroke-linecap="round"/>
<path d="M493.875 125.082L494.875 131.974" stroke="#231F20" stroke-width="0.6" stroke-miterlimit="10" stroke-linecap="round"/>
<path d="M491.734 125.395L492.735 132.287" stroke="#231F20" stroke-width="0.6" stroke-miterlimit="10" stroke-linecap="round"/>
<path d="M496.938 115.988L497.938 122.88" stroke="#231F20" stroke-width="0.6" stroke-miterlimit="10" stroke-linecap="round"/>
<path d="M494.797 116.301L495.797 123.193" stroke="#231F20" stroke-width="0.6" stroke-miterlimit="10" stroke-linecap="round"/>
<path d="M492.648 116.609L493.649 123.506" stroke="#231F20" stroke-width="0.6" stroke-miterlimit="10" stroke-linecap="round"/>
<path d="M490.5 116.918L491.5 123.81" stroke="#231F20" stroke-width="0.6" stroke-miterlimit="10" stroke-linecap="round"/>
<path d="M475.442 114.932L479.112 140.197L479.107 140.197L473.697 140.98L470.032 115.709L472.511 115.349L475.442 114.927L475.442 114.932Z" stroke="#231F20" stroke-width="0.6" stroke-miterlimit="10" stroke-linecap="round"/>
<path d="M498.006 178.271L493.544 178.676C491.804 178.835 490.524 180.368 490.683 182.1C490.833 183.741 492.212 184.971 493.828 184.969C493.924 184.969 494.019 184.964 494.114 184.955L498.519 184.554L504.635 183.999L508.058 183.686C509.793 183.527 511.073 181.993 510.914 180.262C510.769 178.621 509.389 177.39 507.773 177.392C507.678 177.393 507.578 177.397 507.482 177.407L503.183 177.798L498.006 178.271Z" stroke="#231F20" stroke-width="0.6" stroke-miterlimit="10" stroke-linecap="round"/>
<path d="M505.783 180.723C505.875 181.736 506.772 182.477 507.783 182.385C508.794 182.293 509.541 181.398 509.449 180.39C509.357 179.381 508.46 178.64 507.449 178.732C506.439 178.824 505.692 179.714 505.783 180.723Z" stroke="#231F20" stroke-width="0.6" stroke-miterlimit="10" stroke-linecap="round"/>
<path d="M508.342 179.608L507.613 180.484L506.885 181.355" stroke="#231F20" stroke-width="0.6" stroke-miterlimit="10" stroke-linecap="round"/>
<path d="M508.481 181.211L507.608 180.485L506.734 179.758" stroke="#231F20" stroke-width="0.6" stroke-miterlimit="10" stroke-linecap="round"/>
<path d="M491.885 181.993C491.977 183.001 492.874 183.742 493.885 183.651C494.895 183.559 495.643 182.668 495.551 181.66C495.459 180.647 494.562 179.906 493.551 179.998C492.54 180.089 491.793 180.98 491.885 181.993Z" stroke="#231F20" stroke-width="0.6" stroke-miterlimit="10" stroke-linecap="round"/>
<path d="M494.435 180.877L493.707 181.749L492.979 182.625" stroke="#231F20" stroke-width="0.6" stroke-miterlimit="10" stroke-linecap="round"/>
<path d="M494.583 182.473L493.709 181.746L492.836 181.02" stroke="#231F20" stroke-width="0.6" stroke-miterlimit="10" stroke-linecap="round"/>
<path d="M504.632 183.992C504.624 185.215 504.707 186.599 504.966 188.112C505.581 191.707 506.929 194.512 508.057 196.39C505.993 197.049 503.93 197.713 501.866 198.372C501.402 197.264 500.953 196.071 500.541 194.796C499.325 191.03 498.754 187.534 498.516 184.552" stroke="#231F20" stroke-width="0.6" stroke-miterlimit="10" stroke-linecap="round"/>
<path d="M498.008 178.268C497.781 176.356 497.607 174.334 497.5 172.218C497.324 168.759 497.358 165.524 497.526 162.546C497.554 161.97 498.039 161.523 498.621 161.522C498.945 161.521 499.288 161.54 499.655 161.582C500.242 161.648 500.771 161.771 501.239 161.913C502.15 162.193 502.723 163.072 502.6 164.014C502.463 165.099 502.355 166.246 502.304 167.459C502.128 171.493 502.585 175.004 503.185 177.795" stroke="#231F20" stroke-width="0.6" stroke-miterlimit="10" stroke-linecap="round"/>
<path d="M499.57 161.526C499.57 161.44 499.575 161.355 499.575 161.274C499.572 159.361 499.004 158.215 498.526 157.541C496.921 155.273 494.481 155.719 492.532 153.076C491.993 152.344 491.2 151.27 491.346 149.971C491.605 147.73 494.413 147.132 494.454 145.781C494.491 144.692 492.725 143.248 486.062 141.41" stroke="#231F20" stroke-width="0.6" stroke-miterlimit="10" stroke-linecap="round"/>
<path d="M500.566 119.952C501.994 122.005 503.695 125.081 504.516 129.081C505.489 133.847 504.765 137.734 504.59 138.619C504.561 138.762 504.533 138.905 504.5 139.043C503.523 143.463 501.884 144.065 502.022 147.78C502.131 150.687 503.185 151.613 502.406 153.802C501.836 155.411 500.826 156.145 500.214 158.448C499.901 159.609 499.845 160.613 499.841 161.27" stroke="#231F20" stroke-width="0.6" stroke-miterlimit="10" stroke-linecap="round"/>
<path d="M477.056 110.233C477.68 109.405 478.446 108.438 479.375 107.39C479.87 106.824 480.417 106.228 481.008 105.619C481.969 104.628 482.693 103.971 483.25 103.532C483.555 103.299 483.812 103.127 484.032 103.003C484.489 102.746 484.794 102.702 485.061 102.697C487.306 102.652 488.936 105.447 489.227 105.965" stroke="#231F20" stroke-width="0.6" stroke-miterlimit="10" stroke-linecap="round"/>
<path d="M489.308 108.526C489.698 107.836 490.15 106.912 490.521 105.78C490.663 105.347 490.796 104.88 490.905 104.385C491.355 102.372 491.305 100.65 491.185 99.4898" stroke="#231F20" stroke-width="0.6" stroke-miterlimit="10" stroke-linecap="round"/>
<path d="M492.965 98.8522C493.851 98.2278 494.431 97.1995 494.43 96.034C494.427 94.1264 492.876 92.587 490.964 92.5894C489.052 92.5918 487.51 94.1351 487.512 96.0428C487.515 97.9504 489.066 99.4898 490.973 99.4874C491.044 99.4873 491.116 99.4872 491.183 99.4776C491.845 99.4387 492.455 99.2143 492.965 98.8522Z" stroke="#231F20" stroke-width="0.6" stroke-miterlimit="10" stroke-linecap="round"/>
<path d="M488.542 96.0442C488.544 97.3858 489.637 98.4691 490.977 98.4674C492.316 98.4657 493.411 97.3796 493.41 96.0381C493.408 94.6965 492.315 93.6085 490.97 93.6102C489.626 93.6119 488.54 94.7027 488.542 96.0442Z" stroke="#231F20" stroke-width="0.6" stroke-miterlimit="10" stroke-linecap="round"/>
<path d="M469.907 95.7033C469.44 96.3509 469.16 97.1505 469.161 98.0115C469.163 99.2103 469.703 100.28 470.548 100.988C471.235 101.582 472.132 101.932 473.104 101.931C474.329 101.93 475.425 101.367 476.149 100.491C476.701 99.8145 477.038 98.9483 477.037 98.0016C477.035 96.6933 476.39 95.5334 475.403 94.821C474.754 94.3509 473.957 94.076 473.094 94.0771C471.783 94.0787 470.625 94.7176 469.907 95.7033Z" stroke="#231F20" stroke-width="0.6" stroke-miterlimit="10" stroke-linecap="round"/>
<path d="M473.105 100.43C474.445 100.428 475.53 99.3425 475.528 98.0051C475.526 96.6678 474.439 95.5851 473.098 95.5868C471.758 95.5885 470.673 96.674 470.675 98.0113C470.677 99.3486 471.764 100.431 473.105 100.43Z" stroke="#231F20" stroke-width="0.6" stroke-miterlimit="10" stroke-linecap="round"/>
<path d="M485.624 106.484C485.256 105.828 484.788 105.134 484.177 104.454C483.876 104.117 483.566 103.808 483.246 103.533C480.659 101.257 477.569 100.671 476.148 100.492" stroke="#231F20" stroke-width="0.6" stroke-miterlimit="10" stroke-linecap="round"/>
<path d="M495.99 104.988C495.531 104.184 495.067 103.333 494.613 102.435C493.992 101.199 493.447 100.001 492.969 98.8594" stroke="#231F20" stroke-width="0.6" stroke-miterlimit="10" stroke-linecap="round"/>
<path d="M470.546 100.995C469.283 101.025 468.024 101.055 466.766 101.09" stroke="#231F20" stroke-width="0.6" stroke-miterlimit="10" stroke-linecap="round"/>
<path d="M469.91 95.7029C468.861 95.4093 467.807 95.1109 466.758 94.8125" stroke="#231F20" stroke-width="0.6" stroke-miterlimit="10" stroke-linecap="round"/>
<path d="M473.623 79.4327L473.628 82.758L478.905 82.7513L478.887 68.4035L473.609 68.4102L473.613 71.3406" stroke="#231F20" stroke-width="0.6" stroke-miterlimit="10" stroke-linecap="round"/>
<path d="M468.307 79.4418L468.311 82.7671L466.738 82.7691L466.738 82.3885L466.736 81.1611L466.735 79.9338L466.733 78.7064L466.73 76.2564L466.727 73.8017L466.724 71.3517L466.722 70.1243L466.721 68.897L466.719 67.6696L466.719 67.3984L468.292 67.3964L468.297 71.3497" stroke="#231F20" stroke-width="0.6" stroke-miterlimit="10" stroke-linecap="round"/>
<path d="M473.608 71.3409L468.297 71.3477L468.307 79.4397L473.618 79.433L473.608 71.3409Z" stroke="#231F20" stroke-width="0.6" stroke-miterlimit="10" stroke-linecap="round"/>
<path d="M377.869 53.0192L368.344 53.0312" stroke="#231F20" stroke-width="0.6" stroke-miterlimit="10" stroke-linecap="round"/>
<path d="M377.877 55.238L368.352 55.25" stroke="#231F20" stroke-width="0.6" stroke-miterlimit="10" stroke-linecap="round"/>
<path d="M377.877 57.4489L368.352 57.4609" stroke="#231F20" stroke-width="0.6" stroke-miterlimit="10" stroke-linecap="round"/>
<path d="M377.877 59.6637L368.352 59.6758" stroke="#231F20" stroke-width="0.6" stroke-miterlimit="10" stroke-linecap="round"/>
<path d="M377.885 61.8786L368.359 61.8906" stroke="#231F20" stroke-width="0.6" stroke-miterlimit="10" stroke-linecap="round"/>
<path d="M377.885 64.0895L368.359 64.1016" stroke="#231F20" stroke-width="0.6" stroke-miterlimit="10" stroke-linecap="round"/>
<path d="M377.893 68.5192L368.367 68.5312" stroke="#231F20" stroke-width="0.6" stroke-miterlimit="10" stroke-linecap="round"/>
<path d="M377.893 72.9489L368.367 72.9609" stroke="#231F20" stroke-width="0.6" stroke-miterlimit="10" stroke-linecap="round"/>
<path d="M377.9 77.3786L368.375 77.3906" stroke="#231F20" stroke-width="0.6" stroke-miterlimit="10" stroke-linecap="round"/>
<path d="M377.908 81.8044L368.383 81.8164" stroke="#231F20" stroke-width="0.6" stroke-miterlimit="10" stroke-linecap="round"/>
<path d="M377.916 86.2341L368.391 86.2461" stroke="#231F20" stroke-width="0.6" stroke-miterlimit="10" stroke-linecap="round"/>
<path d="M377.916 88.445L368.391 88.457" stroke="#231F20" stroke-width="0.6" stroke-miterlimit="10" stroke-linecap="round"/>
<path d="M377.916 90.6598L368.391 90.6719" stroke="#231F20" stroke-width="0.6" stroke-miterlimit="10" stroke-linecap="round"/>
<path d="M377.924 92.8747L368.398 92.8867" stroke="#231F20" stroke-width="0.6" stroke-miterlimit="10" stroke-linecap="round"/>
<path d="M377.924 95.0895L368.398 95.1016" stroke="#231F20" stroke-width="0.6" stroke-miterlimit="10" stroke-linecap="round"/>
<path d="M377.924 97.3044L368.398 97.3164" stroke="#231F20" stroke-width="0.6" stroke-miterlimit="10" stroke-linecap="round"/>
<path d="M470.56 55.2621C470.46 55.4145 470.346 55.5573 470.218 55.6859C469.765 56.1384 469.146 56.4199 468.455 56.4208L465.952 56.4239L465.945 51.4336L468.448 51.4304C469.826 51.4287 470.948 52.5452 470.95 53.9248C470.95 54.4148 470.808 54.8765 470.56 55.2621Z" stroke="#231F20" stroke-width="0.6" stroke-miterlimit="10" stroke-linecap="round"/>
<path d="M467.072 54.0623C467.073 54.7045 467.593 55.2224 468.232 55.2216C468.871 55.2208 469.39 54.7016 469.389 54.0593C469.388 53.4171 468.872 52.904 468.229 52.9048C467.585 52.9056 467.071 53.4248 467.072 54.0623Z" stroke="#231F20" stroke-width="0.6" stroke-miterlimit="10" stroke-linecap="round"/>
<path d="M470.555 55.2617C472.039 56.7964 473.93 58.9348 475.855 61.6773C476.509 62.6089 478.247 65.109 479.825 68.1897C480.441 69.3973 481.029 70.6953 481.527 72.0219C484.942 81.2134 481.014 84.9147 483.537 93.76C484.375 96.6942 486.159 101.031 490.518 105.778" stroke="#231F20" stroke-width="0.6" stroke-miterlimit="10" stroke-linecap="round"/>
<path d="M475.402 94.8235L475.407 94.8235C477.631 93.6219 478.283 92.4175 478.444 91.5086C478.823 89.4293 476.847 87.8 477.627 86.643C478.06 86.0002 479.176 85.7895 479.853 86.1407C480.764 86.6153 480.819 88.0662 480.897 89.4361C481.033 91.9478 481.384 94.4497 481.564 96.9613C481.68 98.5643 482.25 100.614 484.032 103.005C484.801 104.036 485.794 105.129 487.073 106.279" stroke="#231F20" stroke-width="0.6" stroke-miterlimit="10" stroke-linecap="round"/>
<path d="M437.276 53.9204L437.273 51.9414L441.707 51.9358L441.71 54.1003L441.711 55.2992L440.424 55.3008" stroke="#231F20" stroke-width="0.6" stroke-miterlimit="10" stroke-linecap="round"/>
<path d="M445.186 53.1589C444.886 53.1498 444.5 53.1598 444.061 53.2269C443.871 53.2557 443.666 53.294 443.456 53.3466C442.689 53.5426 442.098 53.8574 441.712 54.1005" stroke="#231F20" stroke-width="0.6" stroke-miterlimit="10" stroke-linecap="round"/>
<path d="M440.531 91.3633L440.538 96.4773L442.988 96.4742L442.986 94.5285L442.985 93.9006L442.982 91.3602L440.531 91.3633Z" stroke="#231F20" stroke-width="0.6" stroke-miterlimit="10" stroke-linecap="round"/>
<path d="M442.988 93.9001C443.621 93.1191 444.935 91.7473 447.008 91.1358C448.648 90.6532 450.407 90.7414 452.081 91.3292C453.67 91.8838 455.182 92.8856 456.442 94.2589" stroke="#231F20" stroke-width="0.6" stroke-miterlimit="10" stroke-linecap="round"/>
<path d="M456.438 89.6827C455.485 89.5459 454.193 89.5333 453.106 90.2482C452.64 90.558 452.321 90.9295 452.083 91.3294C451.431 92.4101 451.342 93.7042 450.409 94.5807C450.375 94.6141 450.342 94.6427 450.304 94.676C449.285 95.5431 447.264 95.9881 442.991 94.5283" stroke="#231F20" stroke-width="0.6" stroke-miterlimit="10" stroke-linecap="round"/>
<path d="M393.531 60.8455C391.512 62.4036 390.461 64.0605 389.89 65.241C387.413 70.3915 388.956 77.1876 393.559 82.8001" stroke="#231F20" stroke-width="0.6" stroke-miterlimit="10" stroke-linecap="round"/>
<path d="M387.728 62.0413C387.039 63.9784 385.763 68.4185 386.88 73.9022C388.209 80.4085 392.095 84.3854 393.56 85.7489" stroke="#231F20" stroke-width="0.6" stroke-miterlimit="10" stroke-linecap="round"/>
<path d="M389.548 86.1245C388.512 85.0269 387.113 83.2875 386.018 80.8627C385.105 78.8468 384.697 77.0157 384.5 75.6602" stroke="#231F20" stroke-width="0.6" stroke-miterlimit="10" stroke-linecap="round"/>
<path d="M440.438 61.9141C441.483 62.9593 442.954 64.7414 443.71 67.3047C445.707 74.0336 440.975 79.8673 440.461 80.4816" stroke="#231F20" stroke-width="0.6" stroke-miterlimit="10" stroke-linecap="round"/>
<path d="M444.248 60.3389C445.084 61.5652 448.982 67.564 447.552 75.5817C446.298 82.5955 441.769 86.6639 440.464 87.7598" stroke="#231F20" stroke-width="0.6" stroke-miterlimit="10" stroke-linecap="round"/>
<path d="M446.099 72.0052C446.213 71.025 446.235 69.8738 446.033 68.6181C445.255 63.7239 441.723 60.7122 440.43 59.7148" stroke="#231F20" stroke-width="0.6" stroke-miterlimit="10" stroke-linecap="round"/>
<path d="M450.031 69.4256L450.732 69.4247L450.736 72.5026L450.741 76.4749L450.743 78.0829L449.87 78.084" stroke="#231F20" stroke-width="0.6" stroke-miterlimit="10" stroke-linecap="round"/>
<path d="M452.861 72.5012L450.734 72.5039" stroke="#231F20" stroke-width="0.6" stroke-miterlimit="10" stroke-linecap="round"/>
<path d="M452.868 76.4739L450.742 76.4766" stroke="#231F20" stroke-width="0.6" stroke-miterlimit="10" stroke-linecap="round"/>
<path d="M345.648 72.9905L338.105 75.7259" stroke="#231F20" stroke-miterlimit="10" stroke-linecap="round"/>
<path d="M345.641 69.7561L338.097 72.4915" stroke="#231F20" stroke-miterlimit="10" stroke-linecap="round"/>
<path d="M345.641 66.5217L338.097 69.2572" stroke="#231F20" stroke-miterlimit="10" stroke-linecap="round"/>
<path d="M345.633 63.2834L338.089 66.0189" stroke="#231F20" stroke-miterlimit="10" stroke-linecap="round"/>
<path d="M345.633 60.0491L338.089 62.7845" stroke="#231F20" stroke-miterlimit="10" stroke-linecap="round"/>
<path d="M345.625 56.8147L338.082 59.5501" stroke="#231F20" stroke-miterlimit="10" stroke-linecap="round"/>
<path d="M345.625 53.5803L338.082 56.3157" stroke="#231F20" stroke-miterlimit="10" stroke-linecap="round"/>
<path d="M345.617 50.3459L338.074 53.0814" stroke="#231F20" stroke-miterlimit="10" stroke-linecap="round"/>
<path d="M345.617 47.1116L338.074 49.847" stroke="#231F20" stroke-miterlimit="10" stroke-linecap="round"/>
<path d="M345.609 43.8772L338.066 46.6126" stroke="#231F20" stroke-miterlimit="10" stroke-linecap="round"/>
<path d="M345.609 40.6389L338.066 43.3743" stroke="#231F20" stroke-miterlimit="10" stroke-linecap="round"/>
<path d="M345.602 37.4045L338.058 40.14" stroke="#231F20" stroke-miterlimit="10" stroke-linecap="round"/>
<path d="M345.602 34.1701L338.058 36.9056" stroke="#231F20" stroke-miterlimit="10" stroke-linecap="round"/>
<path d="M345.594 30.9358L338.05 33.6712" stroke="#231F20" stroke-miterlimit="10" stroke-linecap="round"/>
</g>
<defs>
<clipPath id="clip0_9587_22141">
<rect width="275.386" height="187.226" fill="white" transform="translate(241.797 24.3477) rotate(-0.0724104)"/>
</clipPath>
</defs>
</svg>
