<svg width="536" height="227" viewBox="0 0 536 227" fill="none" xmlns="http://www.w3.org/2000/svg">
<g clip-path="url(#clip0_9500_22497)">
<rect width="536" height="227" rx="16" fill="#7099ED"/>
<path d="M48.0059 44.8223V42H36.8145V44.8223H34.3242V39.9102H50.4961V44.8223H48.0059ZM37.1562 27.7812H48.6113V41.4922H45.9355V29.8711H39.4414L39.1484 35.1445C39.0703 36.5443 38.9401 37.6543 38.7578 38.4746C38.582 39.2949 38.3281 39.9883 37.9961 40.5547H35.3789C35.8086 39.9232 36.1276 39.1908 36.3359 38.3574C36.5508 37.5241 36.694 36.4173 36.7656 35.0371L37.1562 27.7812ZM65.6719 42H63.0156V32.4785C63.0156 32.2702 63.0189 32.0423 63.0254 31.7949C63.0319 31.541 63.0417 31.3132 63.0547 31.1113H62.9375C62.8398 31.3066 62.7422 31.4987 62.6445 31.6875C62.5534 31.8763 62.4232 32.0814 62.2539 32.3027L55.252 42H52.3809V27.7812H55.0469V37.293C55.0469 37.4948 55.0404 37.7194 55.0273 37.9668C55.0208 38.2142 55.0143 38.4421 55.0078 38.6504H55.1445C55.2161 38.4876 55.304 38.3021 55.4082 38.0938C55.5189 37.8854 55.6458 37.6803 55.7891 37.4785L62.8008 27.7812H65.6719V42ZM74.4512 40.2031C75.6556 40.2031 76.541 39.9948 77.1074 39.5781C77.6738 39.1615 77.9603 38.5723 77.9668 37.8105C77.9668 37.1074 77.7259 36.5703 77.2441 36.1992C76.7689 35.8281 76.043 35.6426 75.0664 35.6426H72.2246V33.6406H74.9004C75.8184 33.6406 76.4954 33.4681 76.9316 33.123C77.3678 32.778 77.5859 32.2767 77.5859 31.6191C77.5859 30.9616 77.3255 30.457 76.8047 30.1055C76.2839 29.7539 75.4733 29.5781 74.373 29.5781C73.2142 29.5781 72.3385 29.7832 71.7461 30.1934C71.1536 30.6035 70.8542 31.235 70.8477 32.0879V32.2344H68.1523V32.0977C68.1589 30.6523 68.6829 29.526 69.7246 28.7188C70.7728 27.9049 72.3353 27.498 74.4121 27.498C76.2936 27.498 77.7422 27.8333 78.7578 28.5039C79.7734 29.168 80.2812 30.1283 80.2812 31.3848C80.2812 32.2376 80.0469 32.918 79.5781 33.4258C79.1159 33.9336 78.543 34.2917 77.8594 34.5V34.5391C78.6927 34.7344 79.3698 35.1152 79.8906 35.6816C80.418 36.2415 80.6816 36.9772 80.6816 37.8887C80.6816 39.2754 80.138 40.3561 79.0508 41.1309C77.9701 41.8991 76.4499 42.2832 74.4902 42.2832C72.4134 42.2832 70.8086 41.9056 69.6758 41.1504C68.5495 40.3952 67.9798 39.1842 67.9668 37.5176V37.3809H70.6621L70.6719 37.5078C70.6719 38.4388 70.9876 39.1224 71.6191 39.5586C72.2507 39.9883 73.1947 40.2031 74.4512 40.2031ZM81.3457 42L87.5273 27.7129H90.1934L96.3848 42H93.4355L89.3242 31.9219C89.2005 31.6289 89.0964 31.349 89.0117 31.082C88.9271 30.8086 88.849 30.5482 88.7773 30.3008H88.6797C88.6016 30.5482 88.5202 30.8086 88.4355 31.082C88.3509 31.3555 88.25 31.6354 88.1328 31.9219L83.9922 42H81.3457ZM84.207 38.6699L84.9688 36.6484H92.625L93.3867 38.6699H84.207ZM111.16 42H108.504V32.4785C108.504 32.2702 108.507 32.0423 108.514 31.7949C108.52 31.541 108.53 31.3132 108.543 31.1113H108.426C108.328 31.3066 108.23 31.4987 108.133 31.6875C108.042 31.8763 107.911 32.0814 107.742 32.3027L100.74 42H97.8691V27.7812H100.535V37.293C100.535 37.4948 100.529 37.7194 100.516 37.9668C100.509 38.2142 100.503 38.4421 100.496 38.6504H100.633C100.704 38.4876 100.792 38.3021 100.896 38.0938C101.007 37.8854 101.134 37.6803 101.277 37.4785L108.289 27.7812H111.16V42ZM104.695 24.7539C105.249 24.7539 105.704 24.6139 106.062 24.334C106.427 24.054 106.72 23.5853 106.941 22.9277L108.592 23.875C108.234 24.793 107.71 25.4473 107.02 25.8379C106.336 26.222 105.561 26.4141 104.695 26.4141C103.823 26.4141 103.038 26.2188 102.342 25.8281C101.652 25.4375 101.128 24.7865 100.77 23.875L102.41 22.9277C102.632 23.5983 102.924 24.0703 103.289 24.3438C103.66 24.6172 104.129 24.7539 104.695 24.7539ZM114.393 42V27.7812H117.107V33.6113H124.842V27.7812H127.547V42H124.842V35.7207H117.107V42H114.393ZM130.779 42V27.7812H141.59V29.8809H133.465V33.6699H140.594V35.7109H133.465V39.9102H141.707V42H130.779ZM144.002 42V27.7812H150.203C152.033 27.7812 153.432 28.1719 154.402 28.9531C155.379 29.7344 155.867 30.877 155.867 32.3809C155.867 33.8522 155.382 34.9948 154.412 35.8086C153.442 36.6224 152.036 37.0163 150.193 36.9902H146.717V42H144.002ZM146.717 34.9785H149.959C151.131 34.9785 151.958 34.7539 152.439 34.3047C152.921 33.849 153.162 33.2109 153.162 32.3906C153.162 31.5638 152.921 30.9323 152.439 30.4961C151.958 30.0534 151.131 29.832 149.959 29.832H146.717V34.9785ZM156.209 42L162.391 27.7129H165.057L171.248 42H168.299L164.188 31.9219C164.064 31.6289 163.96 31.349 163.875 31.082C163.79 30.8086 163.712 30.5482 163.641 30.3008H163.543C163.465 30.5482 163.383 30.8086 163.299 31.082C163.214 31.3555 163.113 31.6354 162.996 31.9219L158.855 42H156.209ZM159.07 38.6699L159.832 36.6484H167.488L168.25 38.6699H159.07ZM172.732 42V27.7812H175.945L180.721 38.0352C180.818 38.2435 180.916 38.4551 181.014 38.6699C181.111 38.8783 181.186 39.0573 181.238 39.207H181.297C181.349 39.0573 181.417 38.8783 181.502 38.6699C181.587 38.4551 181.674 38.2435 181.766 38.0352L186.6 27.7812H189.881V42H187.205L187.215 32.3516C187.215 32.1497 187.221 31.9349 187.234 31.707C187.247 31.4727 187.26 31.2578 187.273 31.0625H187.205C187.16 31.2578 187.101 31.4727 187.029 31.707C186.964 31.9349 186.886 32.1497 186.795 32.3516L182.283 42H179.979L175.486 32.3516C175.389 32.1562 175.304 31.9447 175.232 31.7168C175.161 31.4824 175.102 31.2643 175.057 31.0625H174.988C175.001 31.2643 175.014 31.4824 175.027 31.7168C175.047 31.9447 175.057 32.1595 175.057 32.3613V42H172.732Z" fill="white"/>
<g clip-path="url(#clip1_9500_22497)">
<path d="M484.272 145.212C490.824 139.063 498.265 134.574 506.703 132.464C508.991 131.895 511.88 131.362 515.135 130.996C522.72 130.145 532.256 130.187 540.616 132.686C546.459 134.43 551.72 137.379 555.347 142.054C561.821 150.403 559.941 160.238 558.35 176.216C551.792 242.125 565.791 255.34 551.468 269.988C540.982 280.716 524.419 281.46 491.281 282.946C468.73 283.959 450.071 281.855 437.43 279.787C437.688 276.455 440.36 245.511 449.525 212.71C456.605 187.352 467.559 160.885 484.272 145.212Z" fill="#FF8B63"/>
<path d="M492.637 65.1348C492.355 67.3043 492.187 70.6427 493.178 74.4185C494.835 80.7115 498.589 83.864 510.047 94.8079C520.401 104.703 523.932 108.437 525.151 113.555C525.235 113.897 525.307 114.244 525.367 114.604C525.667 116.306 526.262 119.998 524.298 123.732C521.68 128.73 516.353 130.259 515.086 130.582L515.128 130.996C511.873 131.361 508.984 131.895 506.696 132.464C498.258 134.574 490.818 139.063 484.266 145.212C479.828 144.649 457.998 141.119 450.413 124.325C449.35 121.976 448.695 119.644 448.311 117.409C447.548 112.998 447.818 108.94 448.035 105.716C448.449 99.4947 449.872 93.9449 451.704 89.1682C454.623 81.5266 458.598 75.8509 461.223 72.5186C462.28 72.165 464.117 71.3619 465.498 69.5579C467.865 66.4833 468.411 61.1372 465.619 59.0035C463.757 57.5891 461 58.0326 459.325 58.7698C457.001 59.7887 455.944 61.7185 455.637 62.3239C451.98 61.7845 436.798 59.1713 431.051 47.5083C430.438 46.2676 429.898 44.8472 429.508 43.241C428.565 42.9713 423.304 41.371 421.43 36.6003C419.971 32.8964 421.37 29.3603 421.785 28.2995C425.424 19.0757 442.57 13.9274 456.706 15.6175C459.037 15.8932 485.473 19.5072 492.823 42.288C495.586 50.8585 494.595 58.8717 492.637 65.1348Z" fill="#231F20"/>
<path d="M540.609 132.686C532.25 130.187 522.713 130.145 515.128 130.996L515.086 130.582C516.353 130.259 521.68 128.73 524.298 123.732C526.262 119.998 525.668 116.306 525.367 114.604C525.307 114.244 525.235 113.897 525.151 113.555C525.896 113.939 526.646 114.37 527.391 114.844C534.856 119.596 538.699 126.884 540.717 132.326L540.609 132.686Z" fill="#7099ED"/>
<path d="M433.636 59.8488C433.336 59.3933 432.946 59.1236 432.519 59.1236C432.357 59.1236 432.201 59.1596 432.057 59.2375C431.318 59.5971 430.778 60.7898 430.778 62.2042C430.778 63.9123 431.558 65.2908 432.519 65.2908C433.48 65.2908 434.261 63.9123 434.261 62.2042C434.261 61.2573 434.021 60.4122 433.636 59.8488ZM465.621 59.0038C468.414 61.1374 467.867 66.4835 465.501 69.5581C464.12 71.3621 462.282 72.1652 461.225 72.5188C458.601 75.8511 454.625 81.5269 451.707 89.1684C450.001 89.8337 441.936 92.7884 435.528 88.8388C432.135 86.7471 428.117 82.0123 426.976 76.8281C426.568 74.9881 426.472 72.9024 424.754 70.9785C423.036 69.0487 421.223 68.9947 420.977 67.5983C420.688 65.9501 423.121 65.3627 424.598 62.5998C426.394 59.2495 424.64 56.8522 425.234 52.3272C425.529 50.0497 426.49 46.8732 429.51 43.2412C429.901 44.8474 430.441 46.2679 431.054 47.5085C436.801 59.1716 451.983 61.7847 455.64 62.3241C455.947 61.7188 457.003 59.7889 459.328 58.77C461.003 58.0328 463.76 57.5893 465.621 59.0038Z" fill="white"/>
<path d="M433.64 59.8486C434.024 60.412 434.264 61.2571 434.264 62.204C434.264 63.9121 433.484 65.2906 432.523 65.2906C431.562 65.2906 430.781 63.9121 430.781 62.204C430.781 60.7896 431.322 59.5969 432.06 59.2373C432.637 59.4111 433.165 59.6269 433.64 59.8486Z" fill="#231F20"/>
<path d="M433.634 59.8487C433.16 59.627 432.631 59.4112 432.055 59.2374C432.199 59.1595 432.355 59.1235 432.517 59.1235C432.944 59.1235 433.334 59.3932 433.634 59.8487Z" fill="#231F20"/>
<path d="M431.101 219.644C432.5 217.492 433.713 215.724 434.602 214.448C440.926 215.137 446.517 213.68 449.52 212.709C440.355 245.511 437.683 276.455 437.425 279.787C434.704 277.648 430.903 274.255 427.287 269.353C423.083 263.641 417.114 255.55 417.787 245.799C418.195 239.931 422.177 233.668 430.14 221.142C430.47 220.627 430.788 220.123 431.101 219.644Z" fill="#7099ED"/>
<path d="M430.971 157.343C430.37 156.018 429.902 154.202 430.43 152.242C430.707 151.235 431.181 150.432 431.631 149.845H431.692C431.968 144.085 433.487 133.423 441.24 124.073C443.564 121.268 446.027 119.093 448.315 117.409C448.699 119.644 449.354 121.976 450.417 124.325C458.002 141.118 479.831 144.649 484.269 145.212C467.556 160.885 456.602 187.351 449.522 212.709C446.519 213.68 440.928 215.137 434.604 214.447C431.896 214.154 429.055 213.464 426.227 212.176C425.806 211.984 425.404 211.786 425.007 211.583C415.795 214.226 407.315 213.404 401.712 210.648C398.799 209.215 396.662 207.255 395.605 204.984C395.412 204.576 395.244 204.163 395.106 203.749C393.437 199.05 394.403 194.196 394.403 194.196C394.938 191.535 395.989 189.515 396.77 188.262C396.8 187.225 396.968 186.141 397.37 185.182C397.652 184.51 398.049 183.905 398.607 183.408C400.001 182.167 401.586 182.329 404.613 182.209C407.616 182.095 415.567 181.568 422.029 178.613C423.962 177.732 425.41 176.791 426.233 176.216L427.638 175.982C427.758 175.658 427.89 175.341 428.034 175.017C428.22 174.597 428.425 174.202 428.635 173.818L429.103 173.788C429.037 172.739 429.079 171.547 429.235 169.623C429.481 166.626 429.962 162.437 430.977 157.343H430.971Z" fill="#7099ED"/>
<path d="M417.157 49.3423V153.291H257.867V49.3423H417.157ZM412.953 149.096V53.5376H262.077V149.096H412.953Z" fill="#7099ED"/>
<path d="M412.956 61.5146V149.096H394.117V141.67V61.5146H412.956Z" fill="white"/>
<path d="M412.954 53.5376V61.5148H262.078V53.5376H412.954ZM268.96 59.6209V55.9829H265.315V59.6209H268.96Z" fill="white"/>
<path d="M397.361 185.182C396.959 186.141 396.79 187.226 396.76 188.263C395.98 189.515 394.929 191.535 394.394 194.196C394.394 194.196 393.427 199.051 395.097 203.75L394.995 203.786C393.577 204.283 392.448 204.463 391.548 204.463C390.316 204.463 389.518 204.127 388.989 203.786C388.034 203.162 387.344 202.089 386.899 200.759C385.338 196.126 386.719 188.335 390.04 185.2C390.629 184.637 391.283 184.223 391.992 184.007C393.95 183.402 396.022 184.361 397.361 185.182Z" fill="#7099ED"/>
<path d="M391.547 204.469C392.447 204.469 393.576 204.283 394.994 203.785L395.096 203.75C395.234 204.163 395.402 204.577 395.594 204.984C396.651 207.256 398.789 209.215 401.702 210.648H371.891L373.32 204.469H391.547Z" fill="#7099ED"/>
<path d="M394.115 141.67V149.096H262.078V140.849H265.315V144.697H276.725V140.849H315.773C316.362 141.407 317.154 141.754 318.037 141.754H358.046C358.298 141.754 358.55 141.724 358.784 141.67H394.115Z" fill="#FF8B63"/>
<path d="M388.989 203.785C389.518 204.127 390.317 204.463 391.548 204.463H373.321L340.297 190.312V189.995L373.111 190.312C372.504 191.139 372.264 191.984 372.174 192.392L372.264 192.578C372 192.716 371.772 192.859 371.573 192.991C369.934 194.118 369.73 195.449 367.97 195.988C366.763 196.36 365.946 196.012 365.568 196.587C365.148 197.229 365.658 198.421 366.168 198.985C368.252 201.28 374.979 198.164 375.777 197.786L376.042 197.372C377.423 198.343 379.567 199.578 382.407 200.255C384.131 200.663 385.668 200.765 386.899 200.753C387.344 202.083 388.034 203.156 388.989 203.779V203.785Z" fill="#7099ED"/>
<path d="M387.926 185.098C387.692 185.122 387.445 185.158 387.193 185.206C386.436 185.356 385.896 185.59 385.391 185.805C384.785 186.063 383.968 186.471 383.061 187.106L382.989 187.004C382.094 186.614 381.248 186.333 380.461 186.135C380.695 185.739 381.464 184.541 382.989 184.007C385.584 183.102 387.836 185.014 387.926 185.098Z" fill="white"/>
<path d="M382.473 95.6172V115.299H366.078V104.865V95.6172H371.976H372.492H382.473Z" fill="white"/>
<path d="M373.325 204.469L371.895 210.648L353.08 202.413L345.309 199.015L339.352 196.408L340.3 190.318L373.325 204.469Z" fill="#7099ED"/>
<path d="M387.922 185.098C388.781 185.014 389.501 185.086 390.012 185.17L390.042 185.2C386.721 188.334 385.34 196.126 386.901 200.759C385.67 200.771 384.132 200.669 382.409 200.261C379.568 199.584 377.424 198.349 376.043 197.378L375.779 197.792C374.98 198.169 368.254 201.286 366.17 198.991C365.66 198.427 365.149 197.235 365.57 196.593C365.948 196.018 366.765 196.365 367.972 195.994C369.731 195.454 369.936 194.124 371.575 192.997C371.773 192.865 372.001 192.722 372.266 192.584L372.176 192.398C372.266 191.99 372.506 191.145 373.112 190.318C373.124 190.288 373.148 190.264 373.166 190.24C373.052 190.06 372.007 188.286 372.776 187.004C372.956 186.704 373.479 186.075 375.779 185.805C376.782 185.685 378.409 185.625 380.457 186.135C381.244 186.333 382.091 186.614 382.985 187.004L383.058 187.106C383.964 186.47 384.781 186.063 385.388 185.805C385.892 185.589 386.433 185.356 387.189 185.206C387.442 185.158 387.688 185.122 387.922 185.098Z" fill="white"/>
<path d="M371.975 90.8765V95.6172H366.077V104.865H360.336V90.8765H371.975Z" fill="white"/>
<path d="M355.207 141.67C356.667 141.334 357.748 140.04 357.748 138.487V126.752C357.748 124.942 356.282 123.48 354.469 123.48H358.048C359.862 123.48 361.327 124.942 361.327 126.752V138.487C361.327 140.04 360.246 141.334 358.787 141.67C358.552 141.724 358.3 141.754 358.048 141.754H354.469C354.721 141.754 354.973 141.724 355.207 141.67Z" fill="#FF8B63"/>
<path d="M355.207 133.747V141.67C354.973 141.724 354.721 141.754 354.468 141.754H340.992C342.8 141.754 344.265 140.292 344.265 138.488V131.631H353.087C354.258 131.631 355.207 132.578 355.207 133.747Z" fill="#FF8B63"/>
<path d="M345.305 210.648V199.015L353.076 202.413V210.648H345.305Z" fill="#7099ED"/>
<path d="M341.74 63.7563C348.172 63.7563 353.385 66.1237 353.385 69.0485C353.385 71.9733 348.172 74.3406 341.74 74.3406C335.308 74.3406 330.102 71.9733 330.102 69.0485C330.102 66.1237 335.314 63.7563 341.74 63.7563Z" fill="white"/>
<path d="M353.384 69.0483C353.384 66.1235 348.171 63.7562 341.739 63.7562C335.308 63.7562 330.101 66.1235 330.101 69.0483C330.101 71.9731 335.314 74.3405 341.739 74.3405C348.165 74.3405 353.384 71.9731 353.384 69.0483ZM342.256 61.5146H394.113V141.67H358.783C360.242 141.334 361.323 140.04 361.323 138.487V126.752C361.323 124.942 359.858 123.48 358.044 123.48H341.271V112.249C341.271 110.66 339.98 109.372 338.388 109.372H317.609V61.5146H342.256ZM382.469 115.299V95.6169H371.971V90.8762H360.332V104.865H366.074V115.299H382.469Z" fill="#7099ED"/>
<path d="M341.273 112.248V123.48H319.281V112.248C319.281 110.66 320.572 109.372 322.164 109.372H338.391C339.982 109.372 341.273 110.66 341.273 112.248Z" fill="#FF8B63"/>
<path d="M341.274 123.48H354.468C356.282 123.48 357.747 124.942 357.747 126.752V138.487C357.747 140.04 356.666 141.334 355.207 141.67V133.747C355.207 132.578 354.258 131.631 353.087 131.631H344.265V126.752C344.265 124.942 342.8 123.48 340.992 123.48H341.274Z" fill="#FF8B63"/>
<path d="M340.689 126.752V138.487C340.689 140.291 339.224 141.754 337.41 141.754H318.037C317.154 141.754 316.361 141.406 315.773 140.849C315.148 140.255 314.758 139.416 314.758 138.487V126.752C314.758 124.942 316.223 123.48 318.037 123.48H337.41C339.224 123.48 340.689 124.942 340.689 126.752Z" fill="#FF8B63"/>
<path d="M337.414 123.48H340.993C342.801 123.48 344.266 124.942 344.266 126.752V138.487C344.266 140.291 342.801 141.754 340.993 141.754H337.414C339.228 141.754 340.693 140.291 340.693 138.487V126.752C340.693 124.942 339.228 123.48 337.414 123.48Z" fill="#FF8B63"/>
<path d="M303.352 210.648V204.469H317.609H328.653H337.409V210.648H303.352Z" fill="#7099ED"/>
<path d="M332.927 153.291L307.848 169.641C307.193 170.066 306.797 170.798 306.797 171.577V176.216L295.633 176.096V171.475C295.633 170.09 296.335 168.802 297.495 168.053L320.381 153.291H332.927Z" fill="#7099ED"/>
<path d="M328.651 197.996V204.469H317.607V200.028C317.607 199.231 317.253 198.469 316.64 197.96L296.78 181.25C296.053 180.633 295.633 179.734 295.633 178.787V176.096L306.797 176.216L327.029 194.358C328.062 195.281 328.651 196.605 328.651 197.996Z" fill="#7099ED"/>
<path d="M317.64 109.372H322.163C320.571 109.372 319.28 110.66 319.28 112.248V123.48H318.037C316.223 123.48 314.758 124.942 314.758 126.752V112.248C314.758 110.672 316.031 109.39 317.61 109.372H317.64Z" fill="#FF8B63"/>
<path d="M314.758 138.487C314.758 139.416 315.149 140.256 315.773 140.849H287.914V67.0465H262.078V61.5146H317.611V109.372C316.031 109.39 314.758 110.672 314.758 112.249V138.487Z" fill="white"/>
<path d="M300.745 219.644V296.701H290.523V219.644H300.745Z" fill="#7099ED"/>
<path d="M287.914 140.604V140.849H276.725V121.581H265.315V140.849H262.078V67.0469H287.914V140.604ZM280.281 101.317V72.9743H267.135V101.317H280.281Z" fill="white"/>
<path d="M280.279 72.9741H267.133V101.317H280.279V72.9741Z" fill="#7099ED"/>
<path d="M276.723 140.849V144.696H265.312V140.849V121.58H276.723V140.849Z" fill="white"/>
<path d="M268.958 55.9829H265.312V59.6209H268.958V55.9829Z" fill="white"/>
<path d="M257.865 49.3423H252.484V153.291H257.865V49.3423Z" fill="#7099ED"/>
<path d="M251.484 210.648H401.705C407.309 213.405 415.788 214.226 425.001 211.583C425.397 211.787 425.799 211.984 426.22 212.176C429.048 213.465 431.889 214.154 434.597 214.448C433.709 215.724 432.496 217.492 431.096 219.644H251.484V210.648Z" fill="#7099ED"/>
<path d="M449.049 116.881C448.808 117.049 448.562 117.229 448.316 117.409C446.028 119.093 443.566 121.268 441.242 124.073C433.489 133.423 431.969 144.085 431.693 149.845C431.657 150.516 431.639 151.115 431.633 151.643" stroke="#231F20" stroke-width="0.6" stroke-miterlimit="10" stroke-linecap="round"/>
<path d="M431.634 149.845C431.184 150.433 430.709 151.236 430.433 152.243C429.905 154.202 430.373 156.018 430.974 157.343C431.472 158.452 432.06 159.213 432.235 159.435" stroke="#231F20" stroke-width="0.6" stroke-miterlimit="10" stroke-linecap="round"/>
<path d="M431.026 157.037C431.008 157.139 430.984 157.241 430.966 157.343C429.951 162.437 429.471 166.626 429.225 169.623C429.069 171.547 429.027 172.74 429.093 173.789C429.117 174.214 429.165 174.61 429.225 175.017C429.861 179.171 431.939 182.221 433.429 184.007" stroke="#231F20" stroke-width="0.6" stroke-miterlimit="10" stroke-linecap="round"/>
<path d="M428.625 173.818C428.415 174.202 428.21 174.597 428.024 175.017C427.88 175.341 427.748 175.658 427.628 175.982C426.181 179.788 426.331 183.552 426.823 186.404" stroke="#231F20" stroke-width="0.6" stroke-miterlimit="10" stroke-linecap="round"/>
<path d="M426.224 176.216C425.401 176.791 423.954 177.732 422.02 178.613C415.558 181.568 407.607 182.095 404.604 182.209C401.577 182.329 399.992 182.167 398.598 183.408C398.04 183.905 397.644 184.511 397.361 185.182C396.959 186.141 396.791 187.226 396.761 188.262C396.737 188.868 396.755 189.455 396.797 190.001" stroke="#231F20" stroke-width="0.6" stroke-miterlimit="10" stroke-linecap="round"/>
<path d="M425.008 211.583C425.008 211.583 425.02 211.577 425.026 211.577" stroke="#231F20" stroke-width="0.6" stroke-miterlimit="10" stroke-linecap="round"/>
<path d="M396.798 188.203C396.798 188.203 396.774 188.239 396.762 188.263C395.981 189.515 394.93 191.535 394.396 194.196C394.396 194.196 393.429 199.051 395.098 203.749C395.236 204.163 395.405 204.577 395.597 204.984C396.654 207.256 398.792 209.215 401.704 210.648C407.307 213.405 415.787 214.226 425 211.583" stroke="#231F20" stroke-width="0.6" stroke-miterlimit="10" stroke-linecap="round"/>
<path d="M422.023 209.779C422.93 210.414 423.921 211.019 425.002 211.583C425.399 211.787 425.801 211.984 426.221 212.176C429.05 213.465 431.89 214.154 434.599 214.448C440.923 215.137 446.514 213.681 449.517 212.71" stroke="#231F20" stroke-width="0.6" stroke-miterlimit="10" stroke-linecap="round"/>
<path d="M437.43 279.787C450.071 281.855 468.73 283.959 491.281 282.946C524.419 281.46 540.982 280.716 551.468 269.988C565.791 255.34 551.792 242.125 558.35 176.216C559.941 160.238 561.821 150.403 555.347 142.054C551.72 137.379 546.459 134.43 540.616 132.686C532.256 130.187 522.72 130.145 515.135 130.996C511.88 131.362 508.991 131.895 506.703 132.464C498.265 134.574 490.824 139.063 484.272 145.212C467.559 160.885 456.605 187.352 449.525 212.71C440.36 245.511 437.688 276.455 437.43 279.787Z" stroke="#231F20" stroke-width="0.6" stroke-miterlimit="10" stroke-linecap="round"/>
<path d="M468.266 198.99C469.809 191.199 473.412 178.433 482.679 165.428C488.798 156.833 495.476 150.822 500.695 146.848" stroke="#231F20" stroke-width="0.6" stroke-miterlimit="10" stroke-linecap="round"/>
<path d="M397.397 185.206C397.397 185.206 397.373 185.194 397.361 185.182C396.022 184.361 393.95 183.402 391.992 184.007C391.283 184.223 390.629 184.637 390.04 185.2C386.719 188.335 385.338 196.126 386.899 200.759C387.344 202.089 388.034 203.162 388.989 203.786C389.518 204.127 390.316 204.463 391.548 204.463C392.448 204.463 393.577 204.283 394.995 203.786" stroke="#231F20" stroke-width="0.6" stroke-miterlimit="10" stroke-linecap="round"/>
<path d="M386.903 200.759C385.672 200.771 384.135 200.669 382.411 200.261C379.571 199.584 377.427 198.35 376.045 197.379C375.955 197.319 375.865 197.253 375.781 197.193" stroke="#231F20" stroke-width="0.6" stroke-miterlimit="10" stroke-linecap="round"/>
<path d="M375.779 191.799C374.193 191.823 373.064 192.182 372.266 192.584C372.001 192.722 371.773 192.866 371.575 192.998C369.936 194.124 369.731 195.455 367.972 195.994C366.765 196.366 365.948 196.018 365.57 196.594C365.149 197.235 365.66 198.427 366.17 198.991C368.254 201.286 374.98 198.17 375.779 197.792" stroke="#231F20" stroke-width="0.6" stroke-miterlimit="10" stroke-linecap="round"/>
<path d="M372.18 192.398C372.27 191.99 372.51 191.145 373.117 190.318C373.129 190.288 373.153 190.264 373.171 190.24C373.393 189.946 373.657 189.665 373.981 189.401C375.579 188.106 377.897 187.891 379.987 188.802" stroke="#231F20" stroke-width="0.6" stroke-miterlimit="10" stroke-linecap="round"/>
<path d="M382.989 187.004C382.095 186.614 381.248 186.333 380.461 186.135C378.413 185.626 376.786 185.686 375.783 185.805C373.483 186.075 372.96 186.704 372.78 187.004C372.011 188.287 373.056 190.061 373.17 190.24" stroke="#231F20" stroke-width="0.6" stroke-miterlimit="10" stroke-linecap="round"/>
<path d="M382.383 187.603C382.611 187.423 382.839 187.256 383.055 187.106C383.962 186.47 384.779 186.063 385.386 185.805C385.89 185.589 386.431 185.356 387.187 185.206C387.439 185.158 387.686 185.122 387.92 185.098C388.779 185.014 389.499 185.086 390.01 185.17" stroke="#231F20" stroke-width="0.6" stroke-miterlimit="10" stroke-linecap="round"/>
<path d="M387.926 185.098C387.836 185.014 385.584 183.102 382.989 184.007C381.464 184.541 380.695 185.739 380.461 186.135" stroke="#231F20" stroke-width="0.6" stroke-miterlimit="10" stroke-linecap="round"/>
<path d="M437.425 279.787C434.704 277.648 430.903 274.256 427.287 269.353C423.083 263.641 417.114 255.55 417.787 245.799C418.195 239.931 422.177 233.668 430.14 221.142C430.47 220.627 430.788 220.123 431.101 219.644C432.5 217.492 433.713 215.724 434.602 214.448C434.608 214.442 434.608 214.436 434.614 214.43" stroke="#231F20" stroke-width="0.6" stroke-miterlimit="10" stroke-linecap="round"/>
<path d="M533.805 138.314C535.42 137.804 539.522 136.749 544.494 138.08C549.575 139.44 552.632 142.509 553.761 143.768" stroke="#231F20" stroke-width="0.6" stroke-miterlimit="10" stroke-linecap="round"/>
<path d="M525.156 113.555C525.901 113.939 526.652 114.37 527.396 114.844C534.861 119.596 538.705 126.884 540.722 132.326" stroke="#231F20" stroke-width="0.6" stroke-miterlimit="10" stroke-linecap="round"/>
<path d="M429.51 43.2412C426.49 46.8732 425.529 50.0497 425.234 52.3272C424.64 56.8522 426.394 59.2495 424.598 62.5998C423.121 65.3627 420.688 65.9501 420.977 67.5983C421.223 68.9947 423.036 69.0487 424.754 70.9785C426.472 72.9024 426.568 74.9881 426.976 76.8281C428.117 82.0123 432.135 86.7471 435.528 88.8388C441.936 92.7884 450.001 89.8337 451.707 89.1684" stroke="#231F20" stroke-width="0.6" stroke-miterlimit="10" stroke-linecap="round"/>
<path d="M428.242 58.8055C428.705 58.7756 429.209 58.7696 429.744 58.8055C430.578 58.8655 431.353 59.0273 432.056 59.2371C432.632 59.4109 433.161 59.6266 433.635 59.8484C434.254 60.1421 434.782 60.4597 435.209 60.7474" stroke="#231F20" stroke-width="0.6" stroke-miterlimit="10" stroke-linecap="round"/>
<path d="M428.641 55.0117C429.169 54.712 429.86 54.4124 430.701 54.3045C433.757 53.8969 436.069 56.2823 436.4 56.6359" stroke="#231F20" stroke-width="0.6" stroke-miterlimit="10" stroke-linecap="round"/>
<path d="M430.219 79.3571C430.729 79.417 431.348 79.435 432.044 79.3571C433.582 79.1833 434.753 78.6019 435.45 78.1704" stroke="#231F20" stroke-width="0.6" stroke-miterlimit="10" stroke-linecap="round"/>
<path d="M455.644 62.3241C455.951 61.7187 457.008 59.7889 459.332 58.77C461.007 58.0328 463.764 57.5893 465.626 59.0037C468.418 61.1374 467.872 66.4835 465.505 69.5581C464.124 71.3621 462.286 72.1652 461.229 72.5188C458.605 75.8511 454.629 81.5268 451.711 89.1684C449.879 93.9451 448.456 99.495 448.041 105.716C447.825 108.941 447.555 112.998 448.318 117.409C448.702 119.645 449.357 121.976 450.42 124.325C458.005 141.119 479.834 144.649 484.273 145.212M484.273 145.212C484.501 145.242 484.14 145.2 484.273 145.212Z" stroke="#231F20" stroke-width="0.6" stroke-miterlimit="10" stroke-linecap="round"/>
<path d="M486.289 77.9726C486.986 77.0196 490.421 72.183 492.637 65.1348C494.595 58.8717 495.586 50.8585 492.823 42.288C485.473 19.5072 459.037 15.8932 456.706 15.6175C442.57 13.9274 425.424 19.0757 421.785 28.2995C421.37 29.3603 419.971 32.8964 421.43 36.6003C423.304 41.371 428.565 42.9713 429.508 43.241C429.898 44.8472 430.438 46.2676 431.051 47.5083C436.798 59.1714 451.98 61.7845 455.637 62.3239" stroke="#231F20" stroke-width="0.6" stroke-miterlimit="10" stroke-linecap="round"/>
<path d="M492.64 65.1108V65.1348C492.357 67.3044 492.189 70.6427 493.18 74.4185C494.838 80.7116 498.591 83.8641 510.05 94.808C520.403 104.703 523.934 108.437 525.153 113.555C525.237 113.897 525.31 114.244 525.37 114.604C525.67 116.306 526.264 119.998 524.301 123.732C521.682 128.73 516.355 130.259 515.088 130.582" stroke="#231F20" stroke-width="0.6" stroke-miterlimit="10" stroke-linecap="round"/>
<path d="M345.308 210.648H251.484V219.644H431.108" stroke="#231F20" stroke-width="0.6" stroke-miterlimit="10" stroke-linecap="round"/>
<path d="M353.076 210.648H345.305" stroke="#231F20" stroke-width="0.6" stroke-linecap="round" stroke-linejoin="round"/>
<path d="M401.704 210.648H371.893H353.078" stroke="#231F20" stroke-width="0.6" stroke-miterlimit="10" stroke-linecap="round"/>
<path d="M345.309 199.015L339.352 196.408L340.3 190.318L373.325 204.469L371.895 210.648L353.08 202.413L345.309 199.015Z" stroke="#231F20" stroke-width="0.6" stroke-linecap="round" stroke-linejoin="round"/>
<path d="M340.297 190L373.111 190.318H373.165" stroke="#231F20" stroke-width="0.6" stroke-linecap="round" stroke-linejoin="round"/>
<path d="M373.32 204.469H391.547H395.138" stroke="#231F20" stroke-width="0.6" stroke-linecap="round" stroke-linejoin="round"/>
<path d="M345.305 199.015V210.648" stroke="#231F20" stroke-width="0.6" stroke-linecap="round" stroke-linejoin="round"/>
<path d="M353.078 202.413V210.648" stroke="#231F20" stroke-width="0.6" stroke-linecap="round" stroke-linejoin="round"/>
<path d="M257.867 49.3423V153.291" stroke="#231F20" stroke-width="0.6" stroke-linecap="round" stroke-linejoin="round"/>
<path d="M260.719 153.291H320.383H332.929H417.156V49.3423H261.037" stroke="#231F20" stroke-width="0.6" stroke-linecap="round" stroke-linejoin="round"/>
<path d="M394.115 149.096H262.078V140.849V67.0466V61.5148V53.5376H412.954V61.5148" stroke="#231F20" stroke-width="0.6" stroke-linecap="round" stroke-linejoin="round"/>
<path d="M260.718 153.291H257.865H252.484V49.3423H257.865H261.036" stroke="#231F20" stroke-width="0.6" stroke-linecap="round" stroke-linejoin="round"/>
<path d="M314.758 126.752C314.758 124.942 316.223 123.48 318.037 123.48H337.41" stroke="#231F20" stroke-width="0.6" stroke-miterlimit="10" stroke-linecap="round"/>
<path d="M337.41 141.754H318.037C317.154 141.754 316.361 141.406 315.773 140.849C315.148 140.256 314.758 139.416 314.758 138.487V127.909" stroke="#231F20" stroke-width="0.6" stroke-miterlimit="10" stroke-linecap="round"/>
<path d="M340.992 123.48C342.8 123.48 344.265 124.942 344.265 126.752V138.487C344.265 140.291 342.8 141.754 340.992 141.754" stroke="#231F20" stroke-width="0.6" stroke-miterlimit="10" stroke-linecap="round"/>
<path d="M354.47 123.48C356.283 123.48 357.749 124.942 357.749 126.752V138.487C357.749 140.04 356.668 141.334 355.208 141.67C354.974 141.724 354.722 141.754 354.47 141.754H337.414C339.228 141.754 340.693 140.291 340.693 138.487V126.752C340.693 124.942 339.228 123.48 337.414 123.48H354.47Z" stroke="#231F20" stroke-width="0.6" stroke-miterlimit="10" stroke-linecap="round"/>
<path d="M354.469 123.48H358.048C359.862 123.48 361.327 124.942 361.327 126.752V138.487C361.327 140.04 360.246 141.334 358.787 141.67C358.552 141.724 358.3 141.754 358.048 141.754H354.469" stroke="#231F20" stroke-width="0.6" stroke-miterlimit="10" stroke-linecap="round"/>
<path d="M344.57 131.631H353.086C354.257 131.631 355.206 132.578 355.206 133.747V141.67" stroke="#231F20" stroke-width="0.6" stroke-miterlimit="10" stroke-linecap="round"/>
<path d="M329.625 109.372H338.387C339.978 109.372 341.27 110.66 341.27 112.248V123.48" stroke="#231F20" stroke-width="0.6" stroke-miterlimit="10" stroke-linecap="round"/>
<path d="M314.758 127.909V112.248C314.758 110.672 316.031 109.39 317.61 109.372H322.163" stroke="#231F20" stroke-width="0.6" stroke-miterlimit="10" stroke-linecap="round"/>
<path d="M319.281 123.48V112.248C319.281 110.66 320.572 109.372 322.164 109.372H329.629" stroke="#231F20" stroke-width="0.6" stroke-miterlimit="10" stroke-linecap="round"/>
<path d="M276.727 140.849H287.915H315.774" stroke="#231F20" stroke-width="0.6" stroke-miterlimit="10" stroke-linecap="round"/>
<path d="M358.781 141.67H394.111" stroke="#231F20" stroke-width="0.6" stroke-miterlimit="10" stroke-linecap="round"/>
<path d="M262.078 61.5146H317.611H342.257H394.115" stroke="#231F20" stroke-width="0.6" stroke-miterlimit="10" stroke-linecap="round"/>
<path d="M407.336 55.665L408.705 57.0255L410.068 58.386" stroke="#231F20" stroke-width="0.6" stroke-miterlimit="10" stroke-linecap="round"/>
<path d="M410.069 55.665L408.706 57.0255L407.156 58.5718" stroke="#231F20" stroke-width="0.6" stroke-miterlimit="10" stroke-linecap="round"/>
<path d="M399.102 57.1157H403.696" stroke="#231F20" stroke-width="0.6" stroke-miterlimit="10" stroke-linecap="round"/>
<path d="M268.958 55.9829H265.312V59.6209H268.958V55.9829Z" stroke="#231F20" stroke-width="0.6" stroke-miterlimit="10" stroke-linecap="round"/>
<path d="M272.562 57.7988H306.92" stroke="#231F20" stroke-width="0.6" stroke-miterlimit="10" stroke-linecap="round"/>
<path d="M313.078 57.7988H318.915" stroke="#231F20" stroke-width="0.6" stroke-miterlimit="10" stroke-linecap="round"/>
<path d="M324.148 57.7988H332.106" stroke="#231F20" stroke-width="0.6" stroke-miterlimit="10" stroke-linecap="round"/>
<path d="M353.385 69.0485C353.385 71.9733 348.172 74.3406 341.74 74.3406C335.308 74.3406 330.102 71.9733 330.102 69.0485C330.102 66.1237 335.314 63.7563 341.74 63.7563C348.166 63.7563 353.385 66.1237 353.385 69.0485Z" stroke="#231F20" stroke-width="0.6" stroke-miterlimit="10" stroke-linecap="round"/>
<path d="M412.956 61.5146V149.096H394.117V141.67V61.5146H412.956Z" stroke="#231F20" stroke-width="0.6" stroke-miterlimit="10" stroke-linecap="round"/>
<path d="M280.279 72.9741H267.133V101.317H280.279V72.9741Z" stroke="#231F20" stroke-width="0.6" stroke-miterlimit="10" stroke-linecap="round"/>
<path d="M276.723 140.849V144.696H265.312V140.849V121.58H276.723V140.849Z" stroke="#231F20" stroke-width="0.6" stroke-miterlimit="10" stroke-linecap="round"/>
<path d="M265.315 140.849H262.078" stroke="#231F20" stroke-width="0.6" stroke-miterlimit="10" stroke-linecap="round"/>
<path d="M342.258 63.7562V61.5146" stroke="#231F20" stroke-width="0.6" stroke-miterlimit="10" stroke-linecap="round"/>
<path d="M317.609 61.5146V109.372" stroke="#231F20" stroke-width="0.6" stroke-miterlimit="10" stroke-linecap="round"/>
<path d="M371.976 95.6172H372.492H382.473V115.299H366.078V104.865V95.6172H371.976Z" stroke="#231F20" stroke-width="0.6" stroke-miterlimit="10" stroke-linecap="round"/>
<path d="M371.969 95.6172V90.8765" stroke="#231F20" stroke-width="0.6" stroke-miterlimit="10" stroke-linecap="round"/>
<path d="M366.077 104.865H360.336V90.8765H371.975" stroke="#231F20" stroke-width="0.6" stroke-miterlimit="10" stroke-linecap="round"/>
<path d="M290.523 219.644V296.701H300.745V219.644" stroke="#231F20" stroke-width="0.6" stroke-miterlimit="10" stroke-linecap="round"/>
<path d="M337.409 210.648V204.469H328.653H317.609H303.352V210.648" stroke="#231F20" stroke-width="0.6" stroke-linecap="round" stroke-linejoin="round"/>
<path d="M328.651 204.469V197.996C328.651 196.605 328.062 195.281 327.029 194.358L306.797 176.216L295.633 176.096V178.787C295.633 179.734 296.053 180.633 296.78 181.25L316.64 197.96C317.253 198.469 317.607 199.231 317.607 200.028V204.469" stroke="#231F20" stroke-width="0.6" stroke-linecap="round" stroke-linejoin="round"/>
<path d="M295.633 176.096V171.475C295.633 170.09 296.335 168.802 297.495 168.053L320.381 153.291" stroke="#231F20" stroke-width="0.6" stroke-linecap="round" stroke-linejoin="round"/>
<path d="M306.805 176.216V171.577C306.805 170.798 307.201 170.066 307.856 169.641L332.935 153.291" stroke="#231F20" stroke-width="0.6" stroke-linecap="round" stroke-linejoin="round"/>
<path d="M262.078 67.0469H287.914V140.604" stroke="#231F20" stroke-width="0.6" stroke-linecap="round" stroke-linejoin="round"/>
</g>
</g>
<defs>
<clipPath id="clip0_9500_22497">
<rect width="536" height="227" rx="16" fill="white"/>
</clipPath>
<clipPath id="clip1_9500_22497">
<rect width="309" height="282" fill="white" transform="translate(251.188 15)"/>
</clipPath>
</defs>
</svg>
