<svg width="536" height="227" viewBox="0 0 536 227" fill="none" xmlns="http://www.w3.org/2000/svg">
<g clip-path="url(#clip0_9500_23818)">
<rect width="536" height="227" rx="16" fill="#7099ED"/>
<path d="M49.0898 42H46.4336V32.4785C46.4336 32.2702 46.4368 32.0423 46.4434 31.7949C46.4499 31.541 46.4596 31.3132 46.4727 31.1113H46.3555C46.2578 31.3066 46.1602 31.4987 46.0625 31.6875C45.9714 31.8763 45.8411 32.0814 45.6719 32.3027L38.6699 42H35.7988V27.7812H38.4648V37.293C38.4648 37.4948 38.4583 37.7194 38.4453 37.9668C38.4388 38.2142 38.4323 38.4421 38.4258 38.6504H38.5625C38.6341 38.4876 38.722 38.3021 38.8262 38.0938C38.9368 37.8854 39.0638 37.6803 39.207 37.4785L46.2188 27.7812H49.0898V42ZM51.6777 35.1641V34.6172C51.6777 32.2279 52.3581 30.444 53.7188 29.2656C55.0794 28.0807 56.834 27.4883 58.9824 27.4883C60.9681 27.4883 62.5501 27.9082 63.7285 28.748C64.9069 29.5814 65.5579 30.8216 65.6816 32.4688L65.7012 32.6738H62.957L62.9473 32.459C62.8561 31.4759 62.4688 30.7533 61.7852 30.291C61.1081 29.8223 60.1641 29.5879 58.9531 29.5879C57.612 29.5879 56.528 29.985 55.7012 30.7793C54.8809 31.5736 54.4707 32.791 54.4707 34.4316V35.3496C54.4707 37.0618 54.8809 38.2988 55.7012 39.0605C56.528 39.8223 57.612 40.2031 58.9531 40.2031C60.3073 40.2031 61.2904 39.9395 61.9023 39.4121C62.5143 38.8783 62.8626 38.1816 62.9473 37.3223L62.957 37.1172H65.7012L65.6914 37.332C65.5807 38.8555 64.9557 40.0632 63.8164 40.9551C62.6836 41.847 61.0755 42.293 58.9922 42.293C56.8307 42.293 55.0697 41.7135 53.709 40.5547C52.3548 39.3893 51.6777 37.5924 51.6777 35.1641ZM67.7129 42V27.7812H80.7695V42H78.0547V29.8711H70.4277V42H67.7129ZM83.3574 35.1445V34.6074C83.3574 32.2376 84.0475 30.4603 85.4277 29.2754C86.8079 28.084 88.5723 27.4883 90.7207 27.4883C92.8626 27.4883 94.627 28.084 96.0137 29.2754C97.4069 30.4603 98.1035 32.2376 98.1035 34.6074V35.1445C98.1035 37.5339 97.4069 39.3242 96.0137 40.5156C94.627 41.7005 92.8626 42.293 90.7207 42.293C88.5723 42.293 86.8079 41.7005 85.4277 40.5156C84.0475 39.3242 83.3574 37.5339 83.3574 35.1445ZM86.1406 35.3105C86.1406 36.9902 86.5573 38.2272 87.3906 39.0215C88.2305 39.8092 89.3405 40.2031 90.7207 40.2031C92.1009 40.2031 93.2142 39.8092 94.0605 39.0215C94.9069 38.2272 95.3301 36.9902 95.3301 35.3105V34.4609C95.3301 32.7812 94.9069 31.5508 94.0605 30.7695C93.2207 29.9818 92.1074 29.5879 90.7207 29.5879C89.3405 29.5879 88.2305 29.9818 87.3906 30.7695C86.5573 31.5508 86.1406 32.778 86.1406 34.4512V35.3105ZM102.342 27.7812H113.758V42H111.053V29.8711H104.627L104.266 36.5898C104.174 38.4518 103.872 39.8646 103.357 40.8281C102.843 41.7917 101.867 42.2734 100.428 42.2734C100.206 42.2734 99.9948 42.2572 99.793 42.2246C99.5911 42.1986 99.3926 42.1497 99.1973 42.0781V39.7734C99.347 39.8255 99.487 39.8613 99.6172 39.8809C99.7539 39.9004 99.8939 39.9102 100.037 39.9102C100.682 39.9102 101.134 39.6367 101.395 39.0898C101.655 38.543 101.821 37.5924 101.893 36.2383L102.342 27.7812ZM117.068 42V27.7812H119.783V33.6113H127.518V27.7812H130.223V42H127.518V35.7207H119.783V42H117.068ZM146.746 42H144.09V32.4785C144.09 32.2702 144.093 32.0423 144.1 31.7949C144.106 31.541 144.116 31.3132 144.129 31.1113H144.012C143.914 31.3066 143.816 31.4987 143.719 31.6875C143.628 31.8763 143.497 32.0814 143.328 32.3027L136.326 42H133.455V27.7812H136.121V37.293C136.121 37.4948 136.115 37.7194 136.102 37.9668C136.095 38.2142 136.089 38.4421 136.082 38.6504H136.219C136.29 38.4876 136.378 38.3021 136.482 38.0938C136.593 37.8854 136.72 37.6803 136.863 37.4785L143.875 27.7812H146.746V42ZM148.592 29.8906V27.7812H161.668V29.8906H156.492V42H153.777V29.8906H148.592ZM163.514 42V27.7812H174.324V29.8809H166.199V33.6699H173.328V35.7109H166.199V39.9102H174.441V42H163.514ZM178.396 27.7812H189.812V42H187.107V29.8711H180.682L180.32 36.5898C180.229 38.4518 179.926 39.8646 179.412 40.8281C178.898 41.7917 177.921 42.2734 176.482 42.2734C176.261 42.2734 176.049 42.2572 175.848 42.2246C175.646 42.1986 175.447 42.1497 175.252 42.0781V39.7734C175.402 39.8255 175.542 39.8613 175.672 39.8809C175.809 39.9004 175.949 39.9102 176.092 39.9102C176.736 39.9102 177.189 39.6367 177.449 39.0898C177.71 38.543 177.876 37.5924 177.947 36.2383L178.396 27.7812ZM204.412 42H201.697V36.6582H196.98L196.492 36.4043C195.255 36.2415 194.308 35.7793 193.65 35.0176C192.993 34.2559 192.664 33.3021 192.664 32.1562C192.664 30.8151 193.143 29.7507 194.1 28.9629C195.063 28.1751 196.421 27.7812 198.172 27.7812H204.412V42ZM201.697 34.6562V29.8125H198.396C197.257 29.8125 196.469 30.0273 196.033 30.457C195.597 30.8802 195.379 31.4564 195.379 32.1855C195.379 32.9212 195.597 33.5169 196.033 33.9727C196.469 34.4284 197.257 34.6562 198.396 34.6562H201.697ZM194.891 42H192L196.131 35.4668H198.885L194.891 42ZM207.654 42V27.7812H210.867L215.643 38.0352C215.74 38.2435 215.838 38.4551 215.936 38.6699C216.033 38.8783 216.108 39.0573 216.16 39.207H216.219C216.271 39.0573 216.339 38.8783 216.424 38.6699C216.508 38.4551 216.596 38.2435 216.688 38.0352L221.521 27.7812H224.803V42H222.127L222.137 32.3516C222.137 32.1497 222.143 31.9349 222.156 31.707C222.169 31.4727 222.182 31.2578 222.195 31.0625H222.127C222.081 31.2578 222.023 31.4727 221.951 31.707C221.886 31.9349 221.808 32.1497 221.717 32.3516L217.205 42H214.9L210.408 32.3516C210.311 32.1562 210.226 31.9447 210.154 31.7168C210.083 31.4824 210.024 31.2643 209.979 31.0625H209.91C209.923 31.2643 209.936 31.4824 209.949 31.7168C209.969 31.9447 209.979 32.1595 209.979 32.3613V42H207.654Z" fill="white"/>
<g clip-path="url(#clip1_9500_23818)">
<path d="M338.538 164.82C338.473 165.583 338.499 166.491 338.732 167.479C338.805 169.142 338.881 170.801 338.953 172.464C338.053 172.682 337.141 172.929 336.218 173.212C336.164 173.227 336.111 173.246 336.058 173.261C336.061 172.388 336.065 171.507 336.069 170.633V170.603C336.084 170.317 336.069 170.012 336.016 169.691C336.019 168.734 336.019 167.78 336.023 166.819C336.267 166.75 336.508 166.64 336.721 166.472C337.256 166.049 337.465 165.396 337.523 164.74L338.538 164.82Z" fill="#FF8B63"/>
<path d="M338.731 163.578C338.654 163.925 338.578 164.345 338.54 164.822L337.525 164.741C337.59 164.059 337.487 163.376 337.426 162.953C337.227 161.599 336.647 160.229 335.812 158.963L335.446 143.252C335.43 142.455 336.041 141.787 336.838 141.734C336.846 141.734 336.857 141.734 336.865 141.73C337.719 141.673 338.444 142.344 338.456 143.195L338.669 159.184L338.731 163.578Z" fill="#FF8B63"/>
<path d="M338.954 172.465C338.882 170.802 338.805 169.143 338.733 167.48C338.5 166.492 338.474 165.584 338.538 164.822C338.577 164.345 338.653 163.925 338.729 163.578L338.668 159.184H338.897C339.816 156.987 341.415 155.286 342.96 155.309C345.043 155.339 347.577 158.517 347.188 163.254C347.977 163.746 349.301 164.715 350.404 166.374C351.693 168.308 352.018 170.188 352.113 171.146C348.248 171.008 343.769 171.298 338.954 172.465Z" fill="#F4F3F1"/>
<path d="M336.069 170.635C336.065 171.508 336.061 172.389 336.057 173.263C335.538 173.423 335.027 173.591 334.531 173.762C334.646 173.663 335.958 172.458 336.069 170.635Z" fill="#F4F3F1"/>
<path d="M336.02 166.819C336.016 167.78 336.016 168.734 336.012 169.691C335.68 167.761 334.131 166.811 333.898 166.674C334.169 166.762 335.138 167.063 336.02 166.819Z" fill="#F4F3F1"/>
<path d="M336.026 166.82C335.145 167.064 334.176 166.762 333.905 166.675C334.138 166.812 335.687 167.762 336.019 169.692C336.072 170.012 336.087 170.317 336.072 170.603V170.634C335.962 172.457 334.649 173.662 334.535 173.762C334.535 173.765 334.531 173.765 334.531 173.765C329.258 175.596 325.149 178.064 322.234 180.154C321.696 180.021 320.529 179.807 319.197 180.192C319.003 179.876 318.32 178.674 318.61 177.137C318.789 176.199 319.251 175.547 319.518 175.226C317.542 173.918 316.79 171.5 317.606 169.593C318.221 168.151 319.663 167.163 321.33 166.976C318.953 165.046 318.854 161.979 320.22 160.64C321.155 159.725 322.81 159.569 324.348 160.137C322.7 158.394 322.059 156.391 322.738 155.007C323.333 153.786 324.771 153.397 325.153 153.294C328.655 152.352 333.341 155.217 335.813 158.962C336.648 160.228 337.228 161.598 337.427 162.952C337.488 163.375 337.591 164.058 337.526 164.741C337.469 165.397 337.259 166.049 336.725 166.472C336.511 166.64 336.271 166.751 336.026 166.82Z" fill="#F4F3F1"/>
<path d="M322.125 182.169C325.349 183.938 328.569 185.708 331.789 187.482C328.714 188.603 325.879 189.046 322.93 188.001C320.965 187.306 317.677 185.495 317.902 183.977C318.02 183.176 319.122 182.443 320.015 182.169C320.977 181.867 321.801 182.069 322.125 182.169Z" fill="#F4F3F1"/>
<path d="M378.007 180.296C376.088 179.541 373.707 178.778 370.93 178.244C367.801 177.645 365.02 177.5 362.776 177.538C354.013 178.518 347.382 180.693 342.853 182.569C338.611 184.328 335.066 186.288 331.789 187.482C328.569 185.708 325.349 183.938 322.125 182.169C325.467 180.082 328.405 178.816 330.48 178.042C340.125 174.449 349.064 174.853 355.837 175.227C358.259 175.36 360.251 175.57 361.571 175.73C365.268 175.978 370.445 176.806 376.061 179.35C376.736 179.659 377.385 179.975 378.007 180.296Z" fill="#7099ED"/>
<path d="M362.578 172.609C362.242 173.651 361.907 174.688 361.571 175.729C360.251 175.569 358.259 175.359 355.837 175.226C349.064 174.852 340.125 174.448 330.48 178.041C328.405 178.815 325.467 180.082 322.125 182.168L322.228 180.154C325.143 178.064 329.252 175.596 334.525 173.765C334.525 173.765 334.528 173.765 334.528 173.761C335.024 173.59 335.536 173.422 336.054 173.262C336.108 173.246 336.161 173.227 336.215 173.212C337.138 172.93 338.05 172.682 338.95 172.464C343.765 171.297 348.244 171.007 352.109 171.145C356.55 171.297 360.182 172.018 362.578 172.609Z" fill="#F4F3F1"/>
<path d="M390.864 184.895C390.452 184.758 390.013 184.621 389.552 184.479C386.957 183.694 385.473 183.476 382.676 183.118C381.337 182.179 379.781 181.214 378.014 180.295C377.392 179.975 376.744 179.658 376.068 179.349C370.452 176.805 365.275 175.977 361.578 175.729C361.914 174.688 362.25 173.651 362.585 172.609C365.76 173.227 369.541 174.185 373.684 175.714C375.202 176.275 376.774 176.912 378.38 177.64C381.089 178.865 383.531 180.173 385.706 181.481C387.632 182.641 389.353 183.797 390.864 184.895Z" fill="#F4F3F1"/>
<path d="M362.781 177.537C365.025 177.499 367.806 177.644 370.934 178.243C373.712 178.777 376.093 179.539 378.012 180.295C379.778 181.214 381.335 182.179 382.674 183.117C381.117 182.919 379.152 182.675 376.367 182.267C375.875 182.194 373.441 181.836 370.419 181.752C369.481 181.382 368.302 181.008 366.913 180.756C365.616 180.524 364.456 180.451 363.491 180.455C363.258 179.482 363.022 178.51 362.785 177.537H362.781Z" fill="#F4F3F1"/>
<path d="M362.78 177.537C363.016 178.51 363.253 179.482 363.486 180.455C353.227 181.603 345.554 184.239 340.243 186.592C334.833 188.988 330.411 191.738 324.742 190.994H324.738C324.44 190.956 324.143 190.906 323.838 190.849C320.301 190.17 315.265 187.927 315.188 184.883C315.143 183.148 316.703 181.145 318.71 180.356C318.874 180.291 319.034 180.238 319.194 180.192C320.526 179.807 321.693 180.02 322.231 180.154L322.128 182.168C321.804 182.068 320.98 181.866 320.019 182.168C319.126 182.442 318.023 183.175 317.905 183.976C317.68 185.494 320.969 187.305 322.933 188C325.883 189.045 328.717 188.602 331.792 187.481C335.07 186.287 338.614 184.327 342.857 182.568C347.385 180.692 354.016 178.517 362.78 177.537Z" fill="#F4F3F1"/>
<path d="M378.625 190.037C380.365 190.468 382.738 191.208 385.515 192.577L385.366 192.879C384.077 192.532 382.631 192.211 381.04 191.975C378.72 191.628 376.61 191.54 374.802 191.57C374.726 191.193 374.565 190.705 374.199 190.266C373.772 189.751 373.135 189.4 372.398 189.213L372.585 188.58C374.974 189.293 376.847 189.598 378.625 190.037Z" fill="#F4F3F1"/>
<path d="M376.969 200.751C376.95 201.083 376.969 201.556 377.194 202.033C377.919 203.554 380.105 203.768 381.422 204.069C386.721 205.282 386.633 209.859 391.837 210.786C392.013 210.817 393.474 210.741 396.37 210.58C397.114 211.24 398.052 212.213 398.907 213.552C399.59 214.631 400.029 215.65 400.315 216.47C399.811 216.328 399.315 216.191 398.827 216.061C384.336 212.106 376.729 211.412 372.799 212.148C371.521 212.385 370.636 212.774 370.025 213.25C369.487 213.674 366.798 216.02 363.688 215.566C362.448 215.383 361.567 214.818 361.17 214.559C355.871 211.076 341.949 200.408 334.708 195.949C332.525 194.602 329.183 192.733 324.742 190.994C330.412 191.738 334.834 188.988 340.244 186.592C345.554 184.239 353.227 181.603 363.486 180.455C364.451 180.451 365.611 180.524 366.908 180.757C368.297 181.008 369.476 181.382 370.415 181.752C369.022 181.71 367.507 181.729 366 181.863C365.046 181.947 363.459 182.133 362.78 183.274C362.273 184.128 362.464 185.235 362.78 185.887C363.642 187.653 366.603 188.438 370.144 187.76C371.017 188.084 371.83 188.355 372.589 188.58L372.402 189.213C370.502 188.721 367.946 189.297 366.607 190.868C366.34 191.181 365.5 192.165 365.699 193.332C365.951 194.808 367.778 196.063 370.289 196.151C370.327 196.281 370.373 196.414 370.43 196.551C370.43 196.551 370.907 197.726 372.242 198.665C372.997 199.195 374.68 199.744 377.076 200.225L376.969 200.751Z" fill="#7099ED"/>
<path d="M385.521 192.578C382.743 191.209 380.37 190.469 378.63 190.038C376.852 189.599 374.979 189.294 372.591 188.581C371.832 188.356 371.019 188.085 370.145 187.761C366.605 188.44 363.644 187.654 362.782 185.888C362.465 185.236 362.274 184.13 362.782 183.275C363.461 182.135 365.048 181.948 366.002 181.864C367.509 181.73 369.024 181.711 370.416 181.753C373.438 181.837 375.872 182.196 376.364 182.268C379.149 182.676 381.114 182.92 382.671 183.119C385.467 183.477 386.951 183.695 389.546 184.48C390.007 184.622 390.446 184.759 390.858 184.896C389.347 183.798 387.627 182.642 385.7 181.482C390.362 178.206 394.246 177.84 396.184 177.84C397.684 177.84 399.179 178.076 400.602 178.439C404.242 179.358 407.42 181.097 409.065 181.864C411.678 183.088 413.361 184.122 416.913 185.384C417.599 185.629 418.248 185.846 418.858 186.033C420.178 186.449 421.304 186.742 422.143 186.945C422.109 189.706 421.731 193.345 421.189 196.454C420.552 200.123 419.545 203.926 418.595 206.588C417.939 206.611 417.077 206.657 416.058 206.779C415.455 206.855 414.795 206.954 414.097 207.092C409.591 207.961 408.977 209.216 405.04 210.032C404.715 210.101 403.636 210.177 401.682 210.292C401.049 210.33 400.32 210.368 399.496 210.414C398.695 210.46 397.802 210.505 396.814 210.559C396.661 210.566 396.512 210.574 396.367 210.582C393.472 210.742 392.01 210.818 391.835 210.788C386.631 209.861 386.719 205.284 381.419 204.071C380.103 203.769 377.917 203.556 377.192 202.034C376.967 201.557 376.948 201.084 376.967 200.752L377.074 200.226C374.678 199.745 372.995 199.196 372.24 198.666C370.904 197.727 370.428 196.553 370.428 196.553C370.37 196.415 370.325 196.282 370.286 196.152C367.776 196.064 365.948 194.81 365.697 193.333C365.498 192.166 366.338 191.182 366.605 190.869C367.944 189.298 370.5 188.722 372.4 189.214C373.136 189.401 373.774 189.752 374.201 190.267C374.567 190.705 374.727 191.194 374.804 191.571C376.612 191.541 378.722 191.628 381.042 191.976C382.633 192.212 384.079 192.532 385.368 192.88L385.517 192.578H385.521Z" fill="#F4F3F1"/>
<path d="M398.215 106.029C397.772 105.06 397.307 104.232 396.876 103.545C404.873 102.527 413.484 97.0879 416.418 88.0099C419.046 79.8702 415.841 72.7185 414.907 70.8075C415.738 70.3727 417.093 69.5374 418.184 68.1146C420.485 67.9239 423.068 67.8591 425.876 68.0422C427.093 68.1185 428.256 68.2367 429.359 68.3855H429.363C430.965 70.8113 432.571 73.119 434.155 75.3007C434.582 75.8919 435.009 76.4717 435.433 77.0439C434.372 82.3991 432.113 90.4167 426.932 98.9759C422.461 106.353 417.387 111.548 413.56 114.889C410.569 117.506 408.268 120.012 407.913 120.401C406.757 121.679 406.177 122.315 405.8 122.815C404.338 124.753 403.324 126.82 402.629 128.952C402.229 128.518 401.828 128.094 401.427 127.678C401.427 127.671 401.416 127.663 401.412 127.659C399.299 125.218 395.644 119.981 396.139 113.157C396.361 110.14 397.33 107.711 398.211 106.029H398.215Z" fill="#F4F3F1"/>
<path d="M395.079 103.701C394.216 103.739 392.095 103.781 389.031 103.014C387.459 102.621 385.636 102.015 383.61 101.084C369.337 94.535 362.935 80.2086 360.703 74.3498L396.112 55.0916C396.517 55.1335 400.786 55.6523 402.728 59.3368C403.739 61.2631 403.636 63.1282 403.533 63.9674C405.311 63.5287 407.089 63.0939 408.867 62.6591L407.86 60.2446C407.76 59.8975 407.013 57.1436 408.665 55.1144C410.351 53.0318 413.449 53.0662 415.303 53.8061C419.45 55.4615 421.335 62.2319 419.027 66.7823C418.779 67.2744 418.493 67.7168 418.18 68.1135C417.089 69.5362 415.734 70.3715 414.903 70.8064C415.837 72.7173 419.042 79.8691 416.413 88.0088C413.479 97.0867 404.868 102.526 396.872 103.54C396.269 103.621 395.67 103.674 395.079 103.701ZM387.334 77.2449C388.577 76.5774 389.188 74.3002 387.833 72.5152C386.292 73.4535 384.751 74.3956 383.205 75.3339C384.068 77.2411 386.151 77.878 387.334 77.2449ZM373.85 83.26C375.094 82.5925 375.705 80.3154 374.35 78.5303C372.809 79.4724 371.268 80.4107 369.722 81.349C370.585 83.2562 372.668 83.8932 373.85 83.26Z" fill="#F4F3F1"/>
<path d="M402.733 59.3364C400.791 55.6519 396.522 55.1331 396.117 55.0912L415.819 44.373L415.915 44.5485C418.108 49.1752 420.653 54.0651 423.61 59.1381C425.514 62.3993 427.44 65.4774 429.363 68.3839H429.359C428.257 68.2352 427.093 68.1169 425.876 68.0406C423.068 67.8575 420.485 67.9224 418.185 68.1131C418.497 67.7164 418.784 67.274 419.032 66.7819C421.34 62.2315 419.455 55.4611 415.308 53.8057C413.454 53.0658 410.356 53.0315 408.669 55.114C407.017 57.1432 407.765 59.8971 407.864 60.2442L408.872 62.6587C407.094 63.0935 405.316 63.5283 403.538 63.967C403.641 63.1278 403.744 61.2627 402.733 59.3364Z" fill="#231F20"/>
<path d="M446.923 82.4907C447.945 83.4061 448.327 85.0768 448.262 87.1975C447.999 96.1687 439.807 113.268 438.396 116.175C437.198 114.985 434.516 112.433 431.38 110.442C431.193 110.323 431.002 110.205 430.815 110.095C429.67 109.416 428.514 108.886 427.076 108.63C427.076 108.63 426.042 108.447 424.962 108.481C421.563 108.584 417.076 111.815 413.555 114.889C417.381 111.548 422.456 106.353 426.927 98.976C432.108 90.4168 434.367 82.3992 435.428 77.0439C435.004 76.4718 434.577 75.892 434.149 75.3008C434.508 75.2093 435.149 75.0872 435.931 75.133C438.438 75.2817 439.937 77.0363 443.378 79.8093C445.599 81.602 446.435 82.0521 446.923 82.4907Z" fill="#7099ED"/>
<path d="M421.328 182.634C421.946 182.771 422.179 184.522 422.144 186.944C421.305 186.742 420.179 186.448 418.859 186.033C420.214 183.107 420.923 182.543 421.328 182.634Z" fill="#7099ED"/>
<path d="M417.272 37.1075L420.03 42.0852L415.818 44.3737L396.116 55.0919L360.707 74.3463L349.364 80.5178L346.205 75.1206L346.953 74.5332C349.486 72.546 350.325 69.0864 348.994 66.1609L345.369 58.1929C343.218 53.467 342.188 48.4855 342.188 43.5651C342.188 31.9011 347.975 20.5917 358.311 13.8901C374.938 3.10709 397.184 8.08854 407.619 24.9324L414.509 36.051C414.963 36.7795 415.757 37.2067 416.585 37.2067C416.814 37.2067 417.047 37.1724 417.272 37.1075Z" fill="#FF8B63"/>
<path d="M416.062 206.779C417.081 206.657 417.943 206.611 418.6 206.588C417.814 208.793 417.07 210.215 416.616 210.131C416.345 210.082 416.059 209.46 416.066 206.824V206.779H416.062Z" fill="#7099ED"/>
<path d="M405.461 176.039C406.083 176.039 406.587 175.274 406.587 174.33C406.587 173.386 406.083 172.621 405.461 172.621C404.84 172.621 404.336 173.386 404.336 174.33C404.336 175.274 404.84 176.039 405.461 176.039Z" fill="#7099ED"/>
<path d="M404.805 135.732C405.423 135.732 405.931 136.495 405.931 137.441C405.931 138.387 405.423 139.146 404.805 139.146C404.187 139.146 403.68 138.383 403.68 137.441C403.68 136.499 404.183 135.732 404.805 135.732Z" fill="#7099ED"/>
<path d="M405.462 172.622C404.84 172.622 404.337 173.388 404.337 174.331C404.337 175.273 404.84 176.039 405.462 176.039C406.084 176.039 406.588 175.273 406.588 174.331C406.588 173.388 406.084 172.622 405.462 172.622ZM404.802 135.734C404.18 135.734 403.677 136.497 403.677 137.443C403.677 138.389 404.18 139.148 404.802 139.148C405.424 139.148 405.928 138.385 405.928 137.443C405.928 136.501 405.42 135.734 404.802 135.734ZM401.284 140.933C401.155 136.954 401.357 132.843 402.624 128.956C403.318 126.82 404.333 124.753 405.794 122.815C406.172 122.315 406.752 121.678 407.908 120.401C408.263 120.011 410.563 117.505 413.554 114.889C417.076 111.815 421.563 108.584 424.962 108.481C426.042 108.447 427.076 108.63 427.076 108.63C428.514 108.885 429.67 109.415 430.815 110.094C431.001 110.205 431.192 110.323 431.379 110.441C434.515 112.433 437.197 114.984 438.395 116.174C439.807 113.268 447.998 96.1684 448.262 87.1973C449.029 87.3956 449.937 87.7732 450.722 88.5132C451.474 89.2188 451.993 90.1419 452.271 91.1908C453.382 91.9041 455.03 92.9454 457.063 94.1469C466.762 99.8721 473.721 102.439 476.784 103.904C482.393 106.585 489.424 112.501 495.262 126.839C497.219 127.88 498.257 130.543 497.673 133.422C498.653 136.489 499.584 139.727 500.431 143.137C502.934 153.215 504.151 162.506 504.655 170.6C507.913 174.914 508.02 179.61 507.978 181.261L507.078 181.623C507.284 182.157 507.482 182.711 507.673 183.275C510.694 192.147 510.374 200.13 509.687 205.203L508.962 205.627C509.279 206.165 509.588 206.729 509.889 207.316C511.923 211.276 513.342 214.052 512.606 216.974C511.08 223.027 501.526 224.732 501.095 224.801C500.885 224.923 500.698 225.03 500.531 225.121C495.952 227.643 489.382 228.261 485.182 228.375C482.748 228.444 481.111 228.341 481.111 228.341C475.312 227.978 467.128 226.929 457.552 223.855C456.56 223.996 455.446 224.019 454.244 223.813C451.138 223.283 449.166 221.532 448.449 220.827C446.842 220.457 445.099 219.93 443.275 219.186C441.497 218.462 439.952 217.653 438.628 216.86H438.624C438.071 216.909 437.506 216.936 436.93 216.951C435.584 216.986 434.176 216.936 432.711 216.772C424.519 215.86 418.919 211.955 416.61 210.131C417.064 210.215 417.808 208.793 418.594 206.588C419.544 203.926 420.551 200.123 421.189 196.453C421.73 193.345 422.108 189.706 422.142 186.944C422.177 184.522 421.944 182.772 421.326 182.634C420.922 182.543 420.212 183.107 418.858 186.033C418.247 185.846 417.598 185.628 416.912 185.384C413.36 184.122 411.677 183.088 409.064 181.864C407.419 181.097 404.241 179.358 400.602 178.439L401.567 178.042C401.639 177.027 401.708 176.028 401.765 175.044C402.441 163.796 402.177 154.767 401.719 148.016C401.567 145.758 401.365 143.37 401.284 140.933Z" fill="#7099ED"/>
<path d="M402.513 224.801C402.513 225.747 402.009 226.509 401.391 226.509C400.773 226.509 400.266 225.747 400.266 224.801C400.266 223.855 400.769 223.096 401.391 223.096C402.013 223.096 402.513 223.859 402.513 224.801Z" fill="#7099ED"/>
<path d="M401.394 226.509C402.012 226.509 402.516 225.746 402.516 224.8C402.516 223.854 402.012 223.095 401.394 223.095C400.776 223.095 400.269 223.858 400.269 224.8C400.269 225.742 400.772 226.509 401.394 226.509ZM398.262 256.748C398.418 256.874 398.598 256.947 398.785 256.947C399.406 256.947 399.91 256.18 399.91 255.238C399.91 254.296 399.406 253.529 398.785 253.529C398.163 253.529 397.663 254.296 397.663 255.238C397.663 255.615 397.743 255.962 397.88 256.245C397.979 256.451 398.105 256.618 398.25 256.741C398.254 256.741 398.258 256.748 398.262 256.748ZM398.502 231.658C399.349 228.046 399.971 222.843 398.826 216.061C399.315 216.191 399.811 216.328 400.314 216.469C401.051 215.867 401.791 215.26 402.527 214.658C402.15 214.127 401.768 213.597 401.394 213.067C401.806 212.426 402.214 211.782 402.626 211.137C402.314 210.855 402.001 210.573 401.684 210.29C403.638 210.176 404.717 210.1 405.042 210.031C408.979 209.215 409.593 207.96 414.099 207.09C414.797 206.953 415.457 206.854 416.06 206.777V206.823C416.056 209.459 416.342 210.08 416.613 210.13C418.921 211.953 424.522 215.859 432.714 216.771C434.179 216.935 435.586 216.984 436.933 216.95C437.509 216.935 438.074 216.908 438.627 216.858H438.631C439.955 217.652 441.5 218.46 443.278 219.185C445.102 219.929 446.845 220.455 448.451 220.825C449.169 221.531 451.141 223.282 454.247 223.812C455.449 224.018 456.563 223.995 457.555 223.854C467.131 226.928 475.315 227.977 481.114 228.339C481.114 228.339 482.751 228.442 485.185 228.374C485.902 231.349 486.871 235.854 487.604 241.419C488.439 247.781 488.859 250.966 488.359 252.736C486.875 257.98 480.885 261.882 473.85 264.19C471.343 265.014 468.703 265.632 466.086 266.036C464.533 266.276 462.984 266.44 461.481 266.528C457.532 266.757 453.869 266.448 451.076 265.559C450.87 265.494 450.424 265.349 449.76 265.128C444.808 266.181 437.467 267.279 428.807 266.837C426.941 266.745 425.014 266.578 423.034 266.322C419.337 265.849 415.465 265.071 411.485 263.877C410.154 263.48 408.811 263.034 407.457 262.542C404.122 261.325 401.093 259.937 398.361 258.484H398.357C397.613 257.583 396.595 256.149 395.885 254.193C394.962 251.637 395.011 249.429 395.08 248.158C395.435 241.815 397.594 235.533 398.502 231.658Z" fill="#7099ED"/>
<path d="M398.357 258.481C396.583 257.539 394.938 256.571 393.42 255.602C393.099 255.495 392.783 255.388 392.47 255.285C387.296 253.531 383.279 251.803 380.177 250.132C379.09 249.548 378.117 248.969 377.243 248.4C376.625 247.996 376.061 247.596 375.542 247.199C371.78 244.334 370.509 241.699 370.326 239.456C370.097 236.626 371.25 234.875 372.291 228.894C372.707 226.499 372.947 224.233 373.066 222.131C373.295 218.115 373.081 214.701 372.799 212.149C376.728 211.413 384.336 212.107 398.826 216.063C399.971 222.845 399.349 228.047 398.502 231.659C397.594 235.535 395.434 241.817 395.08 248.16C395.011 249.43 394.961 251.639 395.885 254.194C396.594 256.151 397.613 257.585 398.357 258.481Z" fill="#7099ED"/>
<path d="M387.831 72.5156C389.185 74.3007 388.575 76.5778 387.331 77.2453C386.149 77.8785 384.065 77.2415 383.203 75.3344C384.748 74.3961 386.29 73.4539 387.831 72.5156Z" fill="#231F20"/>
<path d="M387.127 116.193C385.975 116.723 384.754 117.39 383.514 118.229C378.691 121.502 375.994 125.759 374.556 128.623C374.159 127.037 373.648 124.088 374.407 120.552C374.456 120.32 374.51 120.095 374.567 119.877C374.834 118.821 375.17 117.92 375.479 117.211L376.066 117.459C376.669 116.227 377.417 115.491 378.18 115.044C380.301 113.801 383.422 114.289 387.127 116.193Z" fill="#7099ED"/>
<path d="M390.509 118.206C389.337 117.416 388.204 116.745 387.125 116.192C383.42 114.289 380.299 113.8 378.178 115.044C377.415 115.49 376.667 116.226 376.064 117.458L375.477 117.21C375.77 116.528 376.045 116.024 376.213 115.723C377.625 113.224 379.154 112.05 382.176 109.384C383.779 107.968 386.159 105.817 389.032 103.021V103.014C392.096 103.78 394.217 103.738 395.079 103.7C395.671 103.674 396.27 103.62 396.872 103.54C397.304 104.23 397.769 105.058 398.212 106.027C397.33 107.709 396.361 110.139 396.14 113.156C395.644 119.98 399.299 125.217 401.413 127.658C397.616 123.695 393.9 120.479 390.512 118.206H390.509Z" fill="#7099ED"/>
<path d="M374.354 78.5312C375.709 80.3163 375.098 82.5935 373.855 83.261C372.672 83.8941 370.589 83.2571 369.727 81.35C371.272 80.4117 372.813 79.4734 374.354 78.5312Z" fill="#231F20"/>
<path d="M334.711 195.949C341.952 200.408 355.874 211.077 361.174 214.559C361.57 214.818 362.452 215.383 363.692 215.566C366.801 216.02 369.491 213.674 370.029 213.251C370.639 212.774 371.524 212.385 372.802 212.148C373.085 214.7 373.298 218.114 373.069 222.13C372.44 223.103 370.719 225.487 367.465 226.933C363.962 228.485 360.815 228.012 359.697 227.791C358.728 228.584 357.442 229.301 355.844 229.496C352.051 229.957 348.064 227.291 346.615 222.897C344.791 221.036 343.318 218.099 341.502 213.956C339.522 209.429 337.084 203.368 334.711 195.949Z" fill="#7099ED"/>
<path d="M390.512 118.207C393.9 120.481 397.616 123.696 401.412 127.659C401.416 127.663 401.424 127.671 401.428 127.678C401.958 128.285 402.389 128.719 402.629 128.956C401.363 132.843 401.161 136.954 401.29 140.933C401.37 143.37 401.573 145.758 401.725 148.016C402.183 154.767 402.446 163.796 401.771 175.044C401.714 176.028 401.645 177.027 401.573 178.042L400.607 178.439C399.184 178.076 397.689 177.843 396.189 177.84C394.251 177.84 390.367 178.206 385.705 181.482C383.53 180.174 381.088 178.866 378.38 177.641C376.773 176.913 375.202 176.276 373.683 175.715C369.54 174.186 365.759 173.228 362.585 172.61C360.189 172.019 356.556 171.298 352.115 171.146C352.02 170.188 351.696 168.308 350.406 166.374C350.914 161.995 352.028 156.598 354.431 150.781C355.355 148.55 356.354 146.532 357.369 144.717C357.201 144.076 357.091 143.301 357.152 142.432C357.365 139.308 359.597 137.443 360.021 137.103C361.379 133.834 363.569 129.848 367.113 126.034C369.7 123.25 372.352 121.266 374.568 119.878C374.511 120.095 374.458 120.32 374.408 120.553C373.649 124.089 374.16 127.037 374.557 128.624C375.995 125.76 378.693 121.503 383.515 118.23C384.755 117.391 385.976 116.724 387.128 116.193C388.208 116.746 389.341 117.418 390.512 118.207Z" fill="#7099ED"/>
<path d="M360.703 74.3498C362.935 80.2086 369.337 94.535 383.61 101.084C385.636 102.015 387.459 102.621 389.031 103.014C392.095 103.781 394.216 103.739 395.079 103.701C395.67 103.674 396.269 103.621 396.872 103.54C404.868 102.526 413.479 97.0867 416.413 88.0088C419.042 79.8691 415.837 72.7173 414.903 70.8064C415.734 70.3715 417.089 69.5362 418.18 68.1135C418.493 67.7168 418.779 67.2744 419.027 66.7823C421.335 62.2319 419.45 55.4615 415.303 53.8061C413.449 53.0662 410.351 53.0318 408.665 55.1144C407.013 57.1436 407.76 59.8975 407.86 60.2446L408.867 62.6591C407.089 63.0939 405.311 63.5287 403.533 63.9674C403.636 63.1282 403.739 61.2631 402.728 59.3368C400.786 55.6523 396.517 55.1335 396.112 55.0916" stroke="#231F20" stroke-width="0.6" stroke-linecap="round" stroke-linejoin="round"/>
<path d="M415.914 44.5488C418.108 49.1755 420.653 54.0654 423.609 59.1384C425.513 62.3996 427.44 65.4778 429.363 68.3842C430.965 70.8101 432.571 73.1178 434.155 75.2995C434.582 75.8907 435.009 76.4705 435.433 77.0426" stroke="#231F20" stroke-width="0.6" stroke-linecap="round" stroke-linejoin="round"/>
<path d="M396.875 103.545C397.306 104.231 397.772 105.059 398.214 106.028C398.531 106.722 398.836 107.489 399.107 108.328C399.622 109.919 399.881 111.364 400.015 112.554" stroke="#231F20" stroke-width="0.6" stroke-linecap="round" stroke-linejoin="round"/>
<path d="M418.18 68.1146C420.48 67.9239 423.063 67.8591 425.871 68.0422C427.088 68.1185 428.252 68.2367 429.355 68.3855" stroke="#231F20" stroke-width="0.6" stroke-linecap="round" stroke-linejoin="round"/>
<path d="M411.984 62.3052C412.335 61.9886 412.95 61.3478 413.343 60.3447C413.369 60.2798 413.392 60.2112 413.415 60.1463C413.8 59.0402 413.713 58.079 413.644 57.6289" stroke="#231F20" stroke-width="0.6" stroke-linecap="round" stroke-linejoin="round"/>
<path d="M416.359 60.9475C416.066 60.9933 415.665 61.0238 415.203 60.9475C414.326 60.8102 413.715 60.3868 413.414 60.1465" stroke="#231F20" stroke-width="0.6" stroke-linecap="round" stroke-linejoin="round"/>
<path d="M389.547 89.2136C390.054 88.9352 390.718 88.4889 391.359 87.8062C392.412 86.6771 392.866 85.4756 393.068 84.7891" stroke="#231F20" stroke-width="0.6" stroke-linecap="round" stroke-linejoin="round"/>
<path d="M383.508 66.2798C383.63 65.9785 384.156 64.7808 385.423 64.2697C386.865 63.6823 388.689 64.2277 389.849 65.6772" stroke="#231F20" stroke-width="0.6" stroke-linecap="round" stroke-linejoin="round"/>
<path d="M371.031 73.7254C370.715 73.6568 369.738 73.4851 368.818 74.0268C367.67 74.6981 367.083 76.1971 367.411 77.7495" stroke="#231F20" stroke-width="0.6" stroke-linecap="round" stroke-linejoin="round"/>
<path d="M413.555 114.888C417.381 111.547 422.456 106.352 426.927 98.9751C432.108 90.4158 434.367 82.3982 435.428 77.043" stroke="#231F20" stroke-width="0.6" stroke-linecap="round" stroke-linejoin="round"/>
<path d="M402.623 128.955C401.356 132.842 401.154 136.954 401.284 140.932C401.364 143.369 401.566 145.757 401.719 148.015C402.177 154.766 402.44 163.795 401.765 175.043C401.707 176.027 401.639 177.026 401.566 178.041" stroke="#231F20" stroke-width="0.6" stroke-linecap="round" stroke-linejoin="round"/>
<path d="M434.15 75.3008C434.509 75.2093 435.15 75.0872 435.932 75.133C438.439 75.2817 439.938 77.0363 443.38 79.8093C445.6 81.602 446.436 82.0521 446.924 82.4907C447.946 83.4061 448.328 85.0768 448.263 87.1975C448 96.1687 439.808 113.268 438.397 116.175C437.199 114.985 434.517 112.433 431.381 110.442C431.194 110.323 431.003 110.205 430.816 110.095C429.671 109.416 428.515 108.886 427.077 108.63C427.077 108.63 426.043 108.447 424.963 108.481C421.564 108.584 417.077 111.815 413.556 114.889C410.565 117.506 408.264 120.012 407.909 120.401C406.753 121.679 406.173 122.316 405.795 122.815C404.334 124.753 403.319 126.82 402.625 128.952" stroke="#231F20" stroke-width="0.6" stroke-linecap="round" stroke-linejoin="round"/>
<path d="M401.422 127.678C401.952 128.284 402.383 128.719 402.624 128.956" stroke="#231F20" stroke-width="0.6" stroke-linecap="round" stroke-linejoin="round"/>
<path d="M398.211 106.027C397.33 107.709 396.361 110.139 396.139 113.156C395.644 119.98 399.299 125.217 401.412 127.658" stroke="#231F20" stroke-width="0.6" stroke-linecap="round" stroke-linejoin="round"/>
<path d="M389.034 103.021C386.162 105.817 383.781 107.969 382.178 109.384C379.157 112.05 377.627 113.225 376.215 115.723C376.047 116.024 375.773 116.528 375.479 117.211C375.17 117.92 374.834 118.82 374.567 119.877C374.51 120.094 374.456 120.319 374.407 120.552C373.648 124.088 374.159 127.036 374.556 128.623C375.994 125.758 378.691 121.502 383.514 118.229C384.754 117.39 385.975 116.722 387.127 116.192" stroke="#231F20" stroke-width="0.6" stroke-linecap="round" stroke-linejoin="round"/>
<path d="M376.062 117.459C376.665 116.227 377.413 115.491 378.176 115.044C380.297 113.801 383.418 114.289 387.123 116.193C388.203 116.746 389.336 117.417 390.507 118.206C393.895 120.48 397.611 123.695 401.407 127.658C401.411 127.662 401.419 127.67 401.422 127.677C401.823 128.093 402.224 128.516 402.624 128.951L402.659 128.989" stroke="#231F20" stroke-width="0.6" stroke-linecap="round" stroke-linejoin="round"/>
<path d="M448.266 87.1973C449.032 87.3956 449.941 87.7732 450.726 88.5132C451.478 89.2188 451.997 90.1419 452.275 91.1908C452.672 92.6555 452.6 94.3643 452.035 96.0578" stroke="#231F20" stroke-width="0.6" stroke-linecap="round" stroke-linejoin="round"/>
<path d="M452.273 91.1895C453.384 91.9027 455.032 92.944 457.065 94.1455C466.764 99.8707 473.723 102.438 476.786 103.902C482.395 106.584 489.426 112.5 495.264 126.838" stroke="#231F20" stroke-width="0.6" stroke-linecap="round" stroke-linejoin="round"/>
<path d="M492.281 126.438C492.964 126.319 494.139 126.243 495.265 126.838C497.222 127.879 498.26 130.542 497.676 133.422" stroke="#231F20" stroke-width="0.6" stroke-linecap="round" stroke-linejoin="round"/>
<path d="M496.594 130.152C496.96 131.22 497.322 132.307 497.677 133.421C498.658 136.488 499.589 139.726 500.436 143.136C502.939 153.213 504.156 162.505 504.659 170.599" stroke="#231F20" stroke-width="0.6" stroke-linecap="round" stroke-linejoin="round"/>
<path d="M460.584 138.961C460.225 142.382 460.023 146.231 460.13 150.43C460.287 156.678 461.08 162.19 462.061 166.794C462.076 166.878 462.095 166.965 462.114 167.049" stroke="#231F20" stroke-width="0.6" stroke-miterlimit="10"/>
<path d="M449.414 143.488C450.227 144.938 451.718 147.177 454.244 149.221C456.484 151.037 458.677 152.006 460.169 152.528" stroke="#231F20" stroke-width="0.6" stroke-miterlimit="10"/>
<path d="M468.233 160.74C467.741 160.904 463.579 162.377 462.064 166.793C460.34 171.828 463.663 175.978 463.945 176.318C463.949 176.325 463.953 176.329 463.957 176.333" stroke="#231F20" stroke-width="0.6" stroke-miterlimit="10"/>
<path d="M466.171 168.838C465.489 169.872 464.638 171.451 464.21 173.514C464.008 174.494 463.932 175.437 463.947 176.318C463.989 179.434 465.13 181.837 465.63 182.787" stroke="#231F20" stroke-width="0.6" stroke-miterlimit="10"/>
<path d="M499.727 166.273C501.062 167.036 502.981 168.379 504.656 170.599C507.914 174.913 508.021 179.608 507.979 181.26" stroke="#231F20" stroke-width="0.6" stroke-miterlimit="10"/>
<path d="M504.156 175.428C505.175 177.228 506.19 179.292 507.083 181.622C507.289 182.156 507.487 182.709 507.678 183.274C510.699 192.146 510.379 200.129 509.692 205.202" stroke="#231F20" stroke-width="0.6" stroke-miterlimit="10"/>
<path d="M503.456 198.363C505.024 199.981 507.084 202.384 508.969 205.626C509.285 206.163 509.594 206.728 509.896 207.315C511.929 211.275 513.349 214.051 512.612 216.973C511.086 223.026 501.533 224.731 501.102 224.8" stroke="#231F20" stroke-width="0.6" stroke-miterlimit="10"/>
<path d="M497.414 199.471C500.787 203.331 503.293 206.79 505.064 209.43C508.593 214.693 509.173 216.788 508.383 218.081C507.845 218.962 506.758 219.313 505.838 219.465" stroke="#231F20" stroke-width="0.6" stroke-miterlimit="10"/>
<path d="M506.47 216.871C506.394 217.542 506.226 218.454 505.836 219.465C505.68 219.865 505.493 220.277 505.26 220.697C504.051 222.882 502.284 224.107 501.098 224.801C500.888 224.923 500.701 225.03 500.533 225.121C495.955 227.643 489.385 228.261 485.185 228.375C482.75 228.444 481.114 228.341 481.114 228.341C475.314 227.978 467.131 226.929 457.555 223.855C457.555 223.855 457.552 223.854 457.547 223.851" stroke="#231F20" stroke-width="0.6" stroke-miterlimit="10"/>
<path d="M490.273 191.422C488.583 190.735 486.84 190.064 485.039 189.408C485.039 189.408 483.791 188.927 481.353 188.134C477.569 186.902 474.452 185.765 470.552 184.983C467.748 184.423 466.077 184.316 464.795 185.308C464.147 185.807 463.784 186.441 463.578 186.906" stroke="#231F20" stroke-width="0.6" stroke-miterlimit="10"/>
<path d="M474.976 206.309C472.297 198.597 469.066 193.524 466.925 190.617C465.67 188.908 464.613 187.711 463.576 186.906C462.641 186.174 461.721 185.765 460.688 185.586C456.903 184.93 453.664 187.76 452.828 188.535" stroke="#231F20" stroke-width="0.6" stroke-miterlimit="10"/>
<path d="M438.633 216.86C445.661 216.299 450.75 213.492 452.639 212.348" stroke="#231F20" stroke-width="0.6" stroke-miterlimit="10"/>
<path d="M416.609 210.131C418.918 211.954 424.518 215.86 432.71 216.772C434.175 216.936 435.583 216.985 436.929 216.951C437.506 216.936 438.07 216.909 438.623 216.859" stroke="#231F20" stroke-width="0.6" stroke-miterlimit="10"/>
<path d="M458.066 187.599C457.211 187.855 455.888 188.198 454.243 188.404C453.759 188.465 453.286 188.507 452.824 188.534C449.302 188.755 446.582 188.118 445.186 187.798C444.308 187.599 443.312 187.374 442.202 187.134C437.273 186.058 430.116 184.563 421.325 182.633C421.23 182.61 421.134 182.591 421.039 182.568" stroke="#231F20" stroke-width="0.6" stroke-miterlimit="10"/>
<path d="M438.625 216.859H438.629C439.953 217.653 441.498 218.461 443.276 219.186C445.099 219.93 446.843 220.456 448.449 220.826C449.865 221.158 451.173 221.368 452.333 221.501" stroke="#231F20" stroke-width="0.6" stroke-miterlimit="10"/>
<path d="M448.453 220.826C449.17 221.532 451.143 223.283 454.248 223.813C455.45 224.019 456.564 223.996 457.556 223.855C459.853 223.519 461.486 222.531 461.997 222.203" stroke="#231F20" stroke-width="0.6" stroke-miterlimit="10"/>
<path d="M472.861 178.949C471.797 179.342 464.277 182.18 464.612 184.781C464.632 184.953 464.689 185.128 464.792 185.308" stroke="#231F20" stroke-width="0.6" stroke-miterlimit="10"/>
<path d="M463.305 128.048C464.121 125.943 465.479 123.124 467.73 120.198C470.268 116.903 472.988 114.717 474.976 113.359" stroke="#231F20" stroke-width="0.6" stroke-miterlimit="10"/>
<path d="M442.47 198.764C442.745 197.361 442.962 195.663 442.974 193.737C442.993 191.102 442.623 188.859 442.203 187.135" stroke="#231F20" stroke-width="0.6" stroke-miterlimit="10"/>
<path d="M440.661 208.521C440.516 209.38 440.295 210.329 439.955 211.34C439.135 213.789 437.937 215.658 436.93 216.951" stroke="#231F20" stroke-width="0.6" stroke-miterlimit="10"/>
<path d="M448.714 199.771C447.127 199.027 445.467 199.393 444.887 200.274C444.193 201.327 444.777 203.543 446.902 204.497" stroke="#231F20" stroke-width="0.6" stroke-miterlimit="10"/>
<path d="M422.15 186.945H422.146C421.307 186.742 420.182 186.449 418.861 186.033C418.251 185.846 417.602 185.629 416.916 185.384C413.364 184.122 411.681 183.088 409.068 181.864C407.423 181.097 404.245 179.358 400.605 178.439C399.182 178.076 397.687 177.844 396.187 177.84C394.249 177.84 390.365 178.206 385.703 181.482" stroke="#231F20" stroke-width="0.6" stroke-miterlimit="10"/>
<path d="M370.416 181.752C369.024 181.71 367.509 181.729 366.002 181.863C365.048 181.947 363.461 182.134 362.782 183.274C362.274 184.129 362.465 185.235 362.782 185.887C363.644 187.653 366.605 188.439 370.145 187.76C370.157 187.756 370.168 187.756 370.18 187.752" stroke="#231F20" stroke-width="0.6" stroke-miterlimit="10"/>
<path d="M393.577 185.887C392.878 185.608 391.959 185.261 390.864 184.895C390.452 184.758 390.013 184.62 389.552 184.479C386.957 183.693 385.473 183.476 382.676 183.117C381.12 182.919 379.155 182.675 376.37 182.267C375.878 182.194 373.444 181.836 370.422 181.752" stroke="#231F20" stroke-width="0.6" stroke-miterlimit="10"/>
<path d="M368.016 186.895C368.409 187.066 369 187.318 369.725 187.6C369.866 187.654 370.007 187.707 370.145 187.76C371.018 188.085 371.831 188.355 372.59 188.58C374.978 189.294 376.852 189.599 378.63 190.037C380.369 190.469 382.742 191.208 385.52 192.578C385.737 192.681 385.955 192.791 386.176 192.906" stroke="#231F20" stroke-width="0.6" stroke-miterlimit="10"/>
<path d="M385.373 192.879C384.084 192.532 382.638 192.212 381.047 191.975C378.727 191.628 376.617 191.541 374.809 191.571C374.733 191.193 374.572 190.705 374.206 190.267C373.779 189.752 373.142 189.401 372.405 189.214C370.505 188.722 367.949 189.298 366.61 190.869C366.343 191.182 365.504 192.166 365.702 193.333C365.954 194.809 367.781 196.064 370.292 196.152H370.295" stroke="#231F20" stroke-width="0.6" stroke-miterlimit="10"/>
<path d="M370.126 194.641C370.104 195.003 370.111 195.541 370.287 196.151C370.325 196.281 370.371 196.414 370.428 196.552C370.428 196.552 370.905 197.726 372.24 198.665C372.996 199.195 374.678 199.744 377.074 200.225C379.806 200.77 383.461 201.232 387.734 201.48" stroke="#231F20" stroke-width="0.6" stroke-miterlimit="10"/>
<path d="M376.967 200.752C376.947 201.084 376.967 201.557 377.192 202.034C377.917 203.555 380.103 203.769 381.419 204.07C386.718 205.283 386.631 209.86 391.835 210.787C392.01 210.818 393.471 210.742 396.367 210.581C396.512 210.574 396.661 210.566 396.813 210.558C397.802 210.505 398.694 210.459 399.496 210.414C400.32 210.368 401.048 210.33 401.682 210.291C403.635 210.177 404.715 210.101 405.039 210.032C408.976 209.216 409.591 207.961 414.097 207.091C414.795 206.954 415.455 206.855 416.058 206.779C417.076 206.656 417.939 206.611 418.595 206.588" stroke="#231F20" stroke-width="0.6" stroke-miterlimit="10"/>
<path d="M418.84 186.071C418.84 186.071 418.852 186.044 418.859 186.033C420.214 183.107 420.923 182.543 421.328 182.634C421.946 182.771 422.178 184.522 422.144 186.944C422.11 189.706 421.732 193.345 421.19 196.453C420.553 200.123 419.546 203.925 418.596 206.588C417.81 208.792 417.066 210.215 416.612 210.131C416.341 210.082 416.055 209.46 416.063 206.824" stroke="#231F20" stroke-width="0.6" stroke-miterlimit="10"/>
<path d="M390.864 184.895C389.353 183.797 387.632 182.641 385.706 181.481C383.531 180.173 381.089 178.865 378.38 177.64C376.774 176.912 375.202 176.275 373.684 175.714C369.541 174.185 365.76 173.227 362.585 172.609C362.25 173.651 361.914 174.688 361.578 175.729C365.275 175.977 370.452 176.805 376.068 179.349C376.744 179.658 377.392 179.975 378.014 180.295C379.781 181.214 381.337 182.179 382.676 183.118" stroke="#231F20" stroke-width="0.6" stroke-linecap="round" stroke-linejoin="round"/>
<path d="M378.012 180.295C376.093 179.539 373.712 178.777 370.934 178.243C367.806 177.644 365.025 177.499 362.781 177.537C363.018 178.51 363.254 179.482 363.487 180.455C364.452 180.451 365.612 180.524 366.909 180.756C368.298 181.008 369.477 181.382 370.416 181.752" stroke="#231F20" stroke-width="0.6" stroke-linecap="round" stroke-linejoin="round"/>
<path d="M334.531 173.761C335.027 173.59 335.538 173.422 336.057 173.262C336.111 173.246 336.164 173.227 336.218 173.212C337.141 172.93 338.053 172.682 338.953 172.464C343.768 171.297 348.247 171.007 352.112 171.145C356.553 171.297 360.185 172.018 362.581 172.609" stroke="#231F20" stroke-width="0.6" stroke-linecap="round" stroke-linejoin="round"/>
<path d="M361.571 175.73C360.251 175.57 358.259 175.36 355.837 175.226C349.064 174.853 340.125 174.448 330.48 178.041C328.405 178.816 325.467 180.082 322.125 182.168L322.228 180.155C325.143 178.064 329.252 175.596 334.525 173.766" stroke="#231F20" stroke-width="0.6" stroke-linecap="round" stroke-linejoin="round"/>
<path d="M322.125 182.168C325.349 183.938 328.569 185.708 331.789 187.481" stroke="#231F20" stroke-width="0.6" stroke-linecap="round" stroke-linejoin="round"/>
<path d="M322.125 182.168C321.801 182.068 320.977 181.866 320.015 182.168C319.122 182.442 318.02 183.175 317.902 183.976C317.677 185.494 320.965 187.305 322.93 188C325.879 189.045 328.714 188.602 331.789 187.481C335.066 186.287 338.611 184.327 342.853 182.568C347.382 180.692 354.013 178.517 362.777 177.537" stroke="#231F20" stroke-width="0.6" stroke-linecap="round" stroke-linejoin="round"/>
<path d="M324.742 190.994C330.412 191.738 334.834 188.988 340.244 186.592C345.554 184.239 353.227 181.603 363.486 180.455" stroke="#231F20" stroke-width="0.6" stroke-linecap="round" stroke-linejoin="round"/>
<path d="M322.231 180.155C321.693 180.022 320.526 179.808 319.194 180.193C319.034 180.239 318.874 180.293 318.71 180.357C316.703 181.147 315.143 183.149 315.188 184.885C315.265 187.929 320.301 190.172 323.838 190.851C324.143 190.908 324.44 190.957 324.738 190.995" stroke="#231F20" stroke-width="0.6" stroke-linecap="round" stroke-linejoin="round"/>
<path d="M324.734 190.994H324.738C329.179 192.733 332.521 194.602 334.704 195.949C341.945 200.408 355.867 211.076 361.166 214.559C361.563 214.818 362.444 215.383 363.684 215.566C366.794 216.02 369.483 213.674 370.021 213.25C370.632 212.774 371.517 212.385 372.795 212.148C376.725 211.412 384.332 212.106 398.823 216.062C399.311 216.191 399.807 216.329 400.311 216.47C400.025 215.65 399.586 214.631 398.903 213.552C398.048 212.213 397.11 211.24 396.366 210.584" stroke="#231F20" stroke-width="0.6" stroke-linecap="round" stroke-linejoin="round"/>
<path d="M399.5 210.412C400.13 211.297 400.763 212.182 401.396 213.067C401.77 213.597 402.152 214.127 402.529 214.657C401.793 215.26 401.053 215.867 400.316 216.469" stroke="#231F20" stroke-width="0.6" stroke-linecap="round" stroke-linejoin="round"/>
<path d="M401.681 210.291C401.997 210.573 402.31 210.856 402.623 211.138C402.211 211.782 401.803 212.427 401.391 213.068" stroke="#231F20" stroke-width="0.6" stroke-linecap="round" stroke-linejoin="round"/>
<path d="M338.836 163.154C338.802 163.28 338.767 163.421 338.729 163.578C338.653 163.925 338.577 164.344 338.538 164.821C338.474 165.584 338.5 166.492 338.733 167.48C338.977 168.521 339.191 169.421 339.942 169.993C341.675 171.317 345.452 170.234 346.383 167.88C346.714 167.041 346.611 166.213 346.482 165.668" stroke="#231F20" stroke-width="0.6" stroke-miterlimit="10"/>
<path d="M338.898 159.18C339.818 156.987 341.417 155.286 342.962 155.309C345.045 155.339 347.578 158.517 347.189 163.254C347.979 163.746 349.303 164.715 350.405 166.374C351.695 168.308 352.019 170.188 352.114 171.146" stroke="#231F20" stroke-width="0.6" stroke-miterlimit="10"/>
<path d="M336.072 170.603C336.087 170.317 336.072 170.012 336.019 169.692C335.687 167.762 334.138 166.812 333.905 166.675C334.176 166.762 335.145 167.064 336.026 166.82C336.271 166.751 336.511 166.64 336.725 166.472C337.259 166.049 337.469 165.397 337.526 164.741C337.591 164.058 337.488 163.375 337.427 162.952C337.228 161.598 336.648 160.228 335.813 158.962C333.341 155.217 328.655 152.352 325.153 153.294C324.771 153.397 323.333 153.786 322.738 155.007C322.059 156.391 322.7 158.394 324.348 160.137C322.81 159.569 321.155 159.725 320.22 160.64C318.854 161.979 318.953 165.046 321.33 166.976C319.663 167.163 318.221 168.151 317.606 169.593C316.79 171.5 317.542 173.918 319.518 175.226C319.251 175.547 318.789 176.199 318.61 177.137C318.32 178.674 319.003 179.876 319.197 180.192" stroke="#231F20" stroke-width="0.6" stroke-miterlimit="10"/>
<path d="M334.531 173.766C334.531 173.766 334.535 173.766 334.535 173.762C334.65 173.663 335.962 172.458 336.073 170.635" stroke="#231F20" stroke-width="0.6" stroke-miterlimit="10"/>
<path d="M332.695 163.657C332.936 163.298 333.203 162.928 333.5 162.55C333.874 162.07 334.244 161.635 334.607 161.242" stroke="#231F20" stroke-width="0.6" stroke-miterlimit="10"/>
<path d="M333.505 169.49C333.303 169.753 333.097 170.051 332.899 170.398C332.475 171.138 332.235 171.844 332.094 172.408" stroke="#231F20" stroke-width="0.6" stroke-miterlimit="10"/>
<path d="M340.641 166.275C340.992 166.137 341.556 165.97 342.251 165.97C343.666 165.977 344.456 166.698 344.868 166.374C345.07 166.214 345.211 165.779 344.769 164.463" stroke="#231F20" stroke-width="0.6" stroke-miterlimit="10"/>
<path d="M335.812 158.963L335.446 143.252C335.43 142.455 336.041 141.787 336.838 141.734C336.846 141.734 336.857 141.734 336.865 141.73C337.719 141.673 338.444 142.344 338.456 143.195L338.669 159.184L338.731 163.578" stroke="#231F20" stroke-width="0.6" stroke-miterlimit="10"/>
<path d="M338.956 172.464C338.883 170.801 338.807 169.142 338.734 167.479" stroke="#231F20" stroke-width="0.6" stroke-miterlimit="10"/>
<path d="M336.023 166.816C336.019 167.781 336.019 168.735 336.016 169.692" stroke="#231F20" stroke-width="0.6" stroke-miterlimit="10"/>
<path d="M336.055 173.262C336.059 172.389 336.062 171.508 336.066 170.634V170.604" stroke="#231F20" stroke-width="0.6" stroke-miterlimit="10"/>
<path d="M370.325 148.768C369.951 150.396 369.565 153.047 370.126 156.213C370.95 160.889 373.362 164.021 374.563 165.39" stroke="#231F20" stroke-width="0.6" stroke-miterlimit="10"/>
<path d="M376.766 154C376.251 156.041 375.778 158.188 375.358 160.438C375.046 162.124 374.782 163.78 374.565 165.389C374.065 169.047 373.794 172.503 373.68 175.715" stroke="#231F20" stroke-width="0.6" stroke-miterlimit="10"/>
<path d="M374.566 119.877C372.349 121.265 369.698 123.249 367.111 126.033C363.566 129.847 361.377 133.833 360.018 137.102C359.419 138.54 358.981 139.837 358.656 140.92" stroke="#231F20" stroke-width="0.6" stroke-miterlimit="10"/>
<path d="M360.019 137.104C359.595 137.443 357.363 139.308 357.15 142.432C357.089 143.302 357.199 144.076 357.367 144.717C357.543 145.388 357.779 145.914 357.955 146.254" stroke="#231F20" stroke-width="0.6" stroke-linecap="round" stroke-linejoin="round"/>
<path d="M357.369 144.717C356.354 146.532 355.355 148.55 354.431 150.781C352.028 156.598 350.914 161.995 350.406 166.374" stroke="#231F20" stroke-width="0.6" stroke-linecap="round" stroke-linejoin="round"/>
<path d="M346.609 222.896C347.59 223.892 348.67 224.579 349.952 224.971C351.951 225.582 353.828 225.299 355.083 224.971" stroke="#231F20" stroke-width="0.6" stroke-linecap="round" stroke-linejoin="round"/>
<path d="M334.711 195.949C337.084 203.368 339.522 209.429 341.502 213.956C343.318 218.099 344.791 221.036 346.615 222.893" stroke="#231F20" stroke-width="0.6" stroke-linecap="round" stroke-linejoin="round"/>
<path d="M346.609 222.893C348.059 227.29 352.046 229.957 355.838 229.495C357.437 229.301 358.723 228.583 359.692 227.79C360.989 226.73 361.718 225.536 361.874 225.273" stroke="#231F20" stroke-width="0.6" stroke-linecap="round" stroke-linejoin="round"/>
<path d="M359.695 227.791C360.813 228.012 363.961 228.485 367.463 226.933C370.718 225.487 372.438 223.103 373.068 222.131" stroke="#231F20" stroke-width="0.6" stroke-linecap="round" stroke-linejoin="round"/>
<path d="M353.57 217.877C354.223 217.587 355.295 217.011 356.287 215.916C357.103 215.016 357.55 214.112 357.798 213.502" stroke="#231F20" stroke-width="0.6" stroke-linecap="round" stroke-linejoin="round"/>
<path d="M372.799 212.148C373.081 214.7 373.295 218.114 373.066 222.13C372.947 224.232 372.707 226.498 372.291 228.893C371.25 234.874 370.097 236.625 370.326 239.455C370.509 241.698 371.78 244.333 375.542 247.198C376.061 247.595 376.625 247.995 377.243 248.399C378.117 248.968 379.09 249.547 380.177 250.131C383.279 251.802 387.296 253.53 392.47 255.284C392.783 255.387 393.099 255.494 393.42 255.601C394.938 256.57 396.583 257.538 398.357 258.48" stroke="#231F20" stroke-width="0.6" stroke-linecap="round" stroke-linejoin="round"/>
<path d="M398.826 216.059C399.971 222.844 399.349 228.047 398.502 231.659C397.594 235.534 395.435 241.816 395.08 248.16C395.011 249.43 394.962 251.638 395.885 254.194C396.595 256.15 397.613 257.585 398.357 258.481H398.361" stroke="#231F20" stroke-width="0.6" stroke-linecap="round" stroke-linejoin="round"/>
<path d="M420.211 128.623C421.413 127.289 422.637 125.782 423.835 124.096C427.399 119.076 429.52 114.129 430.817 110.094" stroke="#231F20" stroke-width="0.6" stroke-linecap="round" stroke-linejoin="round"/>
<path d="M392.138 127.266C391.615 126.583 390.982 125.576 390.554 124.249C389.688 121.567 390.211 119.229 390.508 118.207" stroke="#231F20" stroke-width="0.6" stroke-linecap="round" stroke-linejoin="round"/>
<path d="M425.195 132.85C425.871 131.702 426.87 130.119 428.213 128.322C429.743 126.278 430.506 125.256 430.853 125.381C431.387 125.568 431.353 128.078 428.591 138.884" stroke="#231F20" stroke-width="0.6" stroke-linecap="round" stroke-linejoin="round"/>
<path d="M409.971 133.277C407.403 132.289 404.553 133.655 403.733 136.092C402.973 138.343 404.122 140.94 406.449 141.928" stroke="#231F20" stroke-width="0.6" stroke-linecap="round" stroke-linejoin="round"/>
<path d="M408.563 172.007C406.354 171.908 404.469 172.636 404.137 173.716C403.736 175.009 405.396 177.339 408.765 178.243" stroke="#231F20" stroke-width="0.6" stroke-linecap="round" stroke-linejoin="round"/>
<path d="M396.391 173.617C398.184 174.094 399.977 174.571 401.77 175.044" stroke="#231F20" stroke-width="0.6" stroke-linecap="round" stroke-linejoin="round"/>
<path d="M396.891 144.04C397.455 143.968 398.806 143.716 400.012 142.633C400.679 142.03 401.065 141.386 401.286 140.932H401.29" stroke="#231F20" stroke-width="0.6" stroke-linecap="round" stroke-linejoin="round"/>
<path d="M412.287 151.586C410.749 151.105 408.681 150.236 406.652 148.569C405.69 147.775 405.015 147.032 404.843 147.161C404.645 147.302 405.137 148.553 408.162 153.398" stroke="#231F20" stroke-width="0.6" stroke-linecap="round" stroke-linejoin="round"/>
<path d="M404.812 224.744C403.686 224.5 402.984 224.565 402.698 224.946C402.126 225.713 403.267 227.761 406.12 231.083" stroke="#231F20" stroke-width="0.6" stroke-linecap="round" stroke-linejoin="round"/>
<path d="M402.513 224.801C402.513 225.747 402.009 226.509 401.391 226.509C400.773 226.509 400.266 225.747 400.266 224.801C400.266 223.855 400.769 223.096 401.391 223.096C402.013 223.096 402.513 223.859 402.513 224.801Z" stroke="#231F20" stroke-width="0.6" stroke-linecap="round" stroke-linejoin="round"/>
<path d="M405.461 176.039C406.083 176.039 406.587 175.274 406.587 174.33C406.587 173.386 406.083 172.621 405.461 172.621C404.84 172.621 404.336 173.386 404.336 174.33C404.336 175.274 404.84 176.039 405.461 176.039Z" stroke="#231F20" stroke-width="0.6" stroke-linecap="round" stroke-linejoin="round"/>
<path d="M405.931 137.441C405.931 138.383 405.423 139.146 404.805 139.146C404.187 139.146 403.68 138.383 403.68 137.441C403.68 136.499 404.183 135.732 404.805 135.732C405.427 135.732 405.931 136.495 405.931 137.441Z" stroke="#231F20" stroke-width="0.6" stroke-linecap="round" stroke-linejoin="round"/>
<path d="M415.818 44.3737L420.03 42.0852L417.272 37.1075C417.047 37.1724 416.814 37.2067 416.585 37.2067C415.757 37.2067 414.963 36.7795 414.509 36.051L407.619 24.9324C397.184 8.08854 374.938 3.10709 358.311 13.8901C347.975 20.5917 342.188 31.9011 342.188 43.5651C342.188 48.4855 343.218 53.467 345.369 58.1929L348.994 66.1609C350.325 69.0864 349.486 72.546 346.953 74.5332L346.205 75.1206L349.364 80.5178L360.707 74.3501L396.116 55.0919L415.818 44.3737Z" stroke="#231F20" stroke-width="0.6" stroke-linecap="round" stroke-linejoin="round"/>
<path d="M362.176 20.207C354.248 32.2182 357.278 46.4721 365.648 51.7435C373.981 56.9919 384.828 51.5947 385.423 51.2896" stroke="#231F20" stroke-width="0.6" stroke-linecap="round" stroke-linejoin="round"/>
<path d="M346.18 49.4805C348.736 53.0697 350.106 56.3233 350.857 58.5317C352.048 62.0294 352.185 64.3447 352.215 65.0198C352.299 66.8888 352.112 68.4489 351.914 69.5474" stroke="#231F20" stroke-width="0.6" stroke-linecap="round" stroke-linejoin="round"/>
</g>
</g>
<defs>
<clipPath id="clip0_9500_23818">
<rect width="536" height="227" rx="16" fill="white"/>
</clipPath>
<clipPath id="clip1_9500_23818">
<rect width="198" height="370" fill="white" transform="translate(315 8)"/>
</clipPath>
</defs>
</svg>
