<svg width="536" height="227" viewBox="0 0 536 227" fill="none" xmlns="http://www.w3.org/2000/svg">
<g clip-path="url(#clip0_9500_23689)">
<rect width="536" height="227" rx="16" fill="#7099ED"/>
<path d="M49.0898 42H46.4336V32.4785C46.4336 32.2702 46.4368 32.0423 46.4434 31.7949C46.4499 31.541 46.4596 31.3132 46.4727 31.1113H46.3555C46.2578 31.3066 46.1602 31.4987 46.0625 31.6875C45.9714 31.8763 45.8411 32.0814 45.6719 32.3027L38.6699 42H35.7988V27.7812H38.4648V37.293C38.4648 37.4948 38.4583 37.7194 38.4453 37.9668C38.4388 38.2142 38.4323 38.4421 38.4258 38.6504H38.5625C38.6341 38.4876 38.722 38.3021 38.8262 38.0938C38.9368 37.8854 39.0638 37.6803 39.207 37.4785L46.2188 27.7812H49.0898V42ZM51.6777 35.1641V34.6172C51.6777 32.2279 52.3581 30.444 53.7188 29.2656C55.0794 28.0807 56.834 27.4883 58.9824 27.4883C60.9681 27.4883 62.5501 27.9082 63.7285 28.748C64.9069 29.5814 65.5579 30.8216 65.6816 32.4688L65.7012 32.6738H62.957L62.9473 32.459C62.8561 31.4759 62.4688 30.7533 61.7852 30.291C61.1081 29.8223 60.1641 29.5879 58.9531 29.5879C57.612 29.5879 56.528 29.985 55.7012 30.7793C54.8809 31.5736 54.4707 32.791 54.4707 34.4316V35.3496C54.4707 37.0618 54.8809 38.2988 55.7012 39.0605C56.528 39.8223 57.612 40.2031 58.9531 40.2031C60.3073 40.2031 61.2904 39.9395 61.9023 39.4121C62.5143 38.8783 62.8626 38.1816 62.9473 37.3223L62.957 37.1172H65.7012L65.6914 37.332C65.5807 38.8555 64.9557 40.0632 63.8164 40.9551C62.6836 41.847 61.0755 42.293 58.9922 42.293C56.8307 42.293 55.0697 41.7135 53.709 40.5547C52.3548 39.3893 51.6777 37.5924 51.6777 35.1641ZM67.7129 42V27.7812H80.7695V42H78.0547V29.8711H70.4277V42H67.7129ZM83.3574 35.1445V34.6074C83.3574 32.2376 84.0475 30.4603 85.4277 29.2754C86.8079 28.084 88.5723 27.4883 90.7207 27.4883C92.8626 27.4883 94.627 28.084 96.0137 29.2754C97.4069 30.4603 98.1035 32.2376 98.1035 34.6074V35.1445C98.1035 37.5339 97.4069 39.3242 96.0137 40.5156C94.627 41.7005 92.8626 42.293 90.7207 42.293C88.5723 42.293 86.8079 41.7005 85.4277 40.5156C84.0475 39.3242 83.3574 37.5339 83.3574 35.1445ZM86.1406 35.3105C86.1406 36.9902 86.5573 38.2272 87.3906 39.0215C88.2305 39.8092 89.3405 40.2031 90.7207 40.2031C92.1009 40.2031 93.2142 39.8092 94.0605 39.0215C94.9069 38.2272 95.3301 36.9902 95.3301 35.3105V34.4609C95.3301 32.7812 94.9069 31.5508 94.0605 30.7695C93.2207 29.9818 92.1074 29.5879 90.7207 29.5879C89.3405 29.5879 88.2305 29.9818 87.3906 30.7695C86.5573 31.5508 86.1406 32.778 86.1406 34.4512V35.3105ZM102.342 27.7812H113.758V42H111.053V29.8711H104.627L104.266 36.5898C104.174 38.4518 103.872 39.8646 103.357 40.8281C102.843 41.7917 101.867 42.2734 100.428 42.2734C100.206 42.2734 99.9948 42.2572 99.793 42.2246C99.5911 42.1986 99.3926 42.1497 99.1973 42.0781V39.7734C99.347 39.8255 99.487 39.8613 99.6172 39.8809C99.7539 39.9004 99.8939 39.9102 100.037 39.9102C100.682 39.9102 101.134 39.6367 101.395 39.0898C101.655 38.543 101.821 37.5924 101.893 36.2383L102.342 27.7812ZM117.068 42V27.7812H119.783V33.6113H127.518V27.7812H130.223V42H127.518V35.7207H119.783V42H117.068ZM146.746 42H144.09V32.4785C144.09 32.2702 144.093 32.0423 144.1 31.7949C144.106 31.541 144.116 31.3132 144.129 31.1113H144.012C143.914 31.3066 143.816 31.4987 143.719 31.6875C143.628 31.8763 143.497 32.0814 143.328 32.3027L136.326 42H133.455V27.7812H136.121V37.293C136.121 37.4948 136.115 37.7194 136.102 37.9668C136.095 38.2142 136.089 38.4421 136.082 38.6504H136.219C136.29 38.4876 136.378 38.3021 136.482 38.0938C136.593 37.8854 136.72 37.6803 136.863 37.4785L143.875 27.7812H146.746V42ZM148.592 29.8906V27.7812H161.668V29.8906H156.492V42H153.777V29.8906H148.592ZM163.514 42V27.7812H174.324V29.8809H166.199V33.6699H173.328V35.7109H166.199V39.9102H174.441V42H163.514ZM178.396 27.7812H189.812V42H187.107V29.8711H180.682L180.32 36.5898C180.229 38.4518 179.926 39.8646 179.412 40.8281C178.898 41.7917 177.921 42.2734 176.482 42.2734C176.261 42.2734 176.049 42.2572 175.848 42.2246C175.646 42.1986 175.447 42.1497 175.252 42.0781V39.7734C175.402 39.8255 175.542 39.8613 175.672 39.8809C175.809 39.9004 175.949 39.9102 176.092 39.9102C176.736 39.9102 177.189 39.6367 177.449 39.0898C177.71 38.543 177.876 37.5924 177.947 36.2383L178.396 27.7812ZM204.412 42H201.697V36.6582H196.98L196.492 36.4043C195.255 36.2415 194.308 35.7793 193.65 35.0176C192.993 34.2559 192.664 33.3021 192.664 32.1562C192.664 30.8151 193.143 29.7507 194.1 28.9629C195.063 28.1751 196.421 27.7812 198.172 27.7812H204.412V42ZM201.697 34.6562V29.8125H198.396C197.257 29.8125 196.469 30.0273 196.033 30.457C195.597 30.8802 195.379 31.4564 195.379 32.1855C195.379 32.9212 195.597 33.5169 196.033 33.9727C196.469 34.4284 197.257 34.6562 198.396 34.6562H201.697ZM194.891 42H192L196.131 35.4668H198.885L194.891 42ZM207.654 42V27.7812H210.867L215.643 38.0352C215.74 38.2435 215.838 38.4551 215.936 38.6699C216.033 38.8783 216.108 39.0573 216.16 39.207H216.219C216.271 39.0573 216.339 38.8783 216.424 38.6699C216.508 38.4551 216.596 38.2435 216.688 38.0352L221.521 27.7812H224.803V42H222.127L222.137 32.3516C222.137 32.1497 222.143 31.9349 222.156 31.707C222.169 31.4727 222.182 31.2578 222.195 31.0625H222.127C222.081 31.2578 222.023 31.4727 221.951 31.707C221.886 31.9349 221.808 32.1497 221.717 32.3516L217.205 42H214.9L210.408 32.3516C210.311 32.1562 210.226 31.9447 210.154 31.7168C210.083 31.4824 210.024 31.2643 209.979 31.0625H209.91C209.923 31.2643 209.936 31.4824 209.949 31.7168C209.969 31.9447 209.979 32.1595 209.979 32.3613V42H207.654Z" fill="white"/>
<g clip-path="url(#clip1_9500_23689)">
<path d="M428.952 242.655C427.782 243.404 426.652 244.108 425.555 244.776L425.607 244.858C425.818 248.369 426.775 255.52 431.839 262.206C433.741 264.717 435.784 266.59 437.575 267.958C438.494 266.729 439.416 265.506 440.334 264.277C437.669 261.945 433.336 257.458 430.838 250.518C429.815 247.686 429.327 245.066 429.099 242.88L428.952 242.655ZM351.836 208.603L351.816 208.599C350.393 207.675 348.511 206.088 347.603 203.627C346.583 200.863 347.175 198.042 348.342 195.504C349.603 192.764 351.544 190.361 352.865 188.725C357.565 182.898 364.414 178.849 367.232 179.88C367.384 179.934 367.527 180.007 367.657 180.094C367.722 180.142 368.229 180.595 369.233 181.5C370.591 182.725 371.688 183.72 372.4 184.368C373.263 183.897 374.18 183.562 375.113 183.367C377.043 182.944 379.055 183.102 380.879 183.889C381.789 184.28 382.557 184.791 383.205 185.354L382.996 185.818L384.205 186.368C385.809 188.25 386.342 190.308 386.43 190.653L386.183 190.896C387.112 191.839 388.05 192.789 389 193.736C392.121 196.852 395.231 199.861 398.315 202.755L398.354 202.799C398.919 202.248 399.478 201.989 400.015 202.019C400.8 202.063 401.551 202.723 402.264 203.998C403.139 202.829 404.846 202.256 407.963 201.36C408.186 200.679 408.558 199.67 409.162 198.504L409.019 198.431C408.6 192.827 408.902 187.961 409.53 183.887C410.364 178.48 411.765 174.457 412.805 171.928C415.568 165.188 419.973 158.717 421.313 156.744C423.411 153.654 425.348 151.183 426.789 149.432C426.652 148.842 426.568 148.1 426.694 147.266C426.921 145.759 427.72 144.671 428.42 143.977C428.936 143.465 429.403 143.168 429.544 143.079L429.779 143.111C429.561 144.818 429.344 146.525 429.127 148.232C435.8 146.096 442.687 143.696 449.753 141.009C462.919 135.999 475.017 130.61 486.045 125.137L486.05 125.138C486.631 125.102 489.692 124.97 490.499 126.471C490.989 127.387 490.63 128.875 489.433 130.461L489.761 130.521C490.409 131.088 491.362 131.958 492.422 133.097C494.928 135.787 497.578 139.455 500.082 145.475C507.585 163.525 508.137 181.458 508.137 181.458C508.238 184.708 508.446 196.653 505.729 206.12C505.504 206.9 504.97 208.685 504.219 211.059L504.807 211.182C504.887 213.665 505.042 217.537 505.395 222.271C506.117 231.998 506.89 235.031 507.354 243.023C507.891 252.246 508.232 256.905 506.928 259.679C505.658 262.376 503.641 264.456 501.32 266.052C498.89 267.732 496.127 268.886 493.565 269.685L493.602 269.801C492.578 270.577 491.003 271.718 488.96 272.961C483.624 276.214 475.092 280.16 464.794 280.171C463.593 280.172 462.366 280.116 461.119 280.004C460.723 279.968 460.33 279.923 459.931 279.876C455.469 279.335 451.627 278.106 448.499 276.747C441.499 276.898 435.116 276.525 429.566 275.681C428.408 275.506 427.291 275.308 426.208 275.095C422.773 274.411 419.723 273.536 417.119 272.476C411.56 270.218 408.017 267.152 407.085 263.447C406.623 261.6 406.654 258.97 408.561 255.348L408.524 255.295C405.491 257.278 401.747 257.83 398.411 256.636C395.882 256.709 392.062 256.541 387.712 255.209C374.811 251.258 368.38 240.443 366.463 237.217C365.141 234.994 363.41 231.63 362.095 227.191C361.506 226.733 360.226 225.595 359.57 223.666C359.302 223.476 358.981 223.235 358.621 222.944C358.636 222.921 358.647 222.891 358.661 222.868L358.323 222.691C358.115 222.517 357.894 222.325 357.671 222.117C356.277 220.833 353.079 217.876 352.061 213.152C351.709 211.508 351.687 209.967 351.836 208.603Z" fill="#7099ED"/>
<path d="M480.626 111.42C481.618 110.963 482.599 110.504 483.575 110.043C485.166 114.689 486.75 119.34 488.341 123.986C487.582 124.37 486.819 124.749 486.049 125.137L486.044 125.136C475.016 130.609 462.918 135.998 449.751 141.008C442.686 143.695 435.798 146.095 429.125 148.231C429.343 146.524 429.56 144.817 429.777 143.11C430.338 138.683 430.9 134.257 431.461 129.831C431.492 129.664 431.508 129.489 431.528 129.32C435.386 128.255 439.279 127.108 443.206 125.863C454.531 122.284 466.13 117.94 477.879 112.666C478.799 112.253 479.716 111.835 480.626 111.42Z" fill="#7099ED"/>
<path d="M480.625 111.421C479.714 111.835 478.798 112.254 477.877 112.667C466.129 117.941 454.529 122.285 443.204 125.864L443.148 125.686C443.012 124.83 442.833 123.924 442.599 122.972C442.128 121.061 441.52 119.386 440.904 117.956L440.842 117.751C441.119 117.666 441.34 117.596 441.501 117.542C443.043 117.044 449.105 114.964 452.53 108.57C455.101 103.768 454.774 99.1792 454.559 97.4353C455.821 96.7291 457.817 95.3985 459.523 93.1104C462.311 93.7911 465.462 94.7419 468.846 96.075C472.204 97.4036 475.139 98.8537 477.634 100.255C478.571 104.165 479.583 107.889 480.625 111.421Z" fill="white"/>
<path d="M473.585 78.9398C474.651 86.5495 476.047 93.665 477.633 100.255C475.138 98.8542 472.203 97.4042 468.844 96.0756C465.46 94.7424 462.309 93.7916 459.521 93.111C460.066 92.384 464.995 85.5845 461.919 79.9515C460.742 77.7916 457.797 74.7081 454.391 75.4418C451.35 76.0955 448.902 79.5872 449.245 83.8071C447.77 85.1437 446.3 86.4812 444.829 87.8187C444.311 84.9369 443.793 82.05 443.275 79.1682C440.969 77.9322 439.583 76.5448 438.737 75.486C437.789 74.3039 437.097 73.0063 435.376 71.6258C434.602 71.0037 433.89 70.5863 433.409 70.3314L471.547 59.5385L471.762 60.3046C472.089 66.1584 472.666 72.3871 473.585 78.9398Z" fill="#231F20"/>
<path d="M474.562 52.2268L475.555 58.4059L471.549 59.5376L433.411 70.3305L412.358 76.2884L394.674 81.2912L392.988 74.3897L395.485 73.5165C399.226 72.2058 401.517 68.4242 400.954 64.4988L399.518 54.4841C398.961 50.5808 399.055 46.7438 399.723 43.0743C402.446 28.1383 414.625 16.0344 430.531 14.2008C447.77 12.2177 463.899 23.0537 468.599 39.7869L471.25 49.2073C471.469 49.9844 471.903 50.665 472.475 51.1928C473.048 51.7155 473.769 52.0823 474.562 52.2268Z" fill="#FF8B63"/>
<path d="M461.921 79.9507C464.996 85.5838 460.067 92.3832 459.523 93.1102C457.817 95.3983 455.821 96.7289 454.559 97.4351C454.774 99.179 455.101 103.767 452.53 108.57C449.105 114.964 443.043 117.044 441.501 117.542C441.34 117.596 441.119 117.666 440.842 117.751C438.784 118.364 433.677 119.552 428.505 117.265C421.946 114.365 417.752 106.97 417.819 98.5833C414.896 98.9867 413.838 98.3807 413.412 97.7645C412.437 96.3579 414.406 94.4052 414.657 90.1628C414.727 89.0042 414.694 87.5548 414.064 84.8253C413.603 82.8325 412.978 79.9314 412.358 76.2885L433.411 70.3306C433.892 70.5855 434.603 71.0029 435.377 71.625C437.098 73.0055 437.791 74.3031 438.739 75.4852C439.585 76.544 440.971 77.9314 443.276 79.1674C443.795 82.0492 444.312 84.9361 444.831 87.8179C446.301 86.4804 447.771 85.1429 449.247 83.8063C448.904 79.5865 451.351 76.0947 454.393 75.441C457.799 74.7073 460.744 77.7908 461.921 79.9507ZM425.455 90.6769C426.313 90.5196 426.822 89.3887 426.599 88.1505C426.376 86.9122 425.497 86.0357 424.638 86.193C423.785 86.3512 423.271 87.4812 423.494 88.7195C423.723 89.9586 424.596 90.8343 425.455 90.6769Z" fill="white"/>
<path d="M429.156 136.243C429.752 133.716 430.599 131.564 431.432 129.828L431.457 129.832C430.895 134.259 430.334 138.685 429.773 143.111L429.538 143.079C429.397 143.168 428.93 143.465 428.414 143.978L428.344 143.907C428.32 142.779 428.359 141.562 428.484 140.272C428.625 138.839 428.86 137.496 429.156 136.243Z" fill="#7099ED"/>
<path d="M398.627 178.626L398.513 178.736C397.758 178.865 396.166 179.014 394.977 178.092C393.83 177.197 393.258 175.467 393.504 173.488C392.621 172.605 391.133 171.037 389.541 168.859L389.548 168.824L389.03 168.144C387.007 165.239 384.905 161.368 383.733 156.688C383.259 156.225 378.595 151.521 379.939 146.066C380.163 145.15 380.529 144.343 380.948 143.651L380.905 143.627C380.426 143.247 379.76 142.639 379.161 141.741C379.161 141.741 378.01 140.014 377.787 137.829C377.678 136.764 377.882 135.676 378.304 134.619C379.446 131.762 382.209 129.113 384.867 127.615C386.292 126.813 390.06 124.692 394.007 126.143C394.168 126.204 394.319 126.263 394.469 126.332C395.759 126.896 396.682 127.703 397.266 128.306L397.385 128.542C397.82 128.302 398.322 128.127 398.874 128.076C401.018 127.876 402.811 129.693 407.043 134.794C408.849 136.969 410.991 139.619 413.36 142.681C414.451 142.054 415.351 141.726 415.717 141.605L415.763 141.639C416.897 140.256 418.299 139.236 419.899 138.706C420.792 138.414 422.225 138.11 424.124 138.43L424.202 138.544C426.133 137.201 427.993 136.557 429.157 136.241C428.861 137.495 428.626 138.838 428.485 140.271C428.36 141.561 428.321 142.777 428.345 143.906L428.415 143.976C427.715 144.67 426.916 145.758 426.689 147.265C426.563 148.099 426.647 148.842 426.784 149.432C425.343 151.182 423.406 153.653 421.308 156.743C419.968 158.716 415.563 165.188 412.8 171.927C411.76 174.457 410.359 178.479 409.525 183.886C407.55 183.667 403.178 182.886 399.431 179.426C399.145 179.16 398.875 178.896 398.627 178.626Z" fill="#7099ED"/>
<path d="M426.598 88.1507C426.821 89.3889 426.312 90.5199 425.454 90.6772C424.595 90.8345 423.722 89.9588 423.493 88.7197C423.27 87.4815 423.784 86.3514 424.637 86.1932C425.496 86.0359 426.375 86.9125 426.598 88.1507Z" fill="#231F20"/>
<path d="M389.54 168.86C388.914 173.897 387.816 178.064 385.999 182.706C385.598 183.731 385.166 184.756 384.713 185.755L384.392 186.455L384.199 186.368C383.902 186.021 383.573 185.679 383.199 185.354L383.311 185.113C383.754 184.143 384.176 183.142 384.567 182.147C386.333 177.61 387.542 172.81 388.152 167.886L388.25 167.119L389.029 168.145C389.203 168.391 389.373 168.631 389.54 168.86Z" fill="#231F20"/>
<path d="M389.549 168.825L389.543 168.86C389.376 168.631 389.206 168.391 389.031 168.145L389.549 168.825Z" fill="#231F20"/>
<path d="M384.199 186.368L382.99 185.818L383.199 185.354C383.573 185.679 383.902 186.021 384.199 186.368Z" fill="#231F20"/>
<path d="M372.77 111.47C373.821 111.143 375.254 110.866 376.936 111.005C377.696 111.07 378.375 111.21 378.956 111.373C379.971 109.728 381.794 107.252 384.793 105.116C385.776 104.417 386.74 103.855 387.636 103.406L385.919 99.2811C389.349 97.8719 392.738 98.5784 393.982 100.515C395.165 102.357 394.281 105.114 394.069 105.761C393.644 107.064 392.989 108.022 392.506 108.613C392.951 108.747 394.401 109.241 395.26 110.684C396.246 112.344 396.052 114.583 394.75 116.344C394.996 116.514 395.775 117.106 395.989 118.138C396.244 119.372 395.589 120.732 394.333 121.497C394.44 121.621 395.186 122.51 394.974 123.706C394.839 124.476 394.374 124.961 394.192 125.132L393.894 125.334C393.964 125.436 394.03 125.536 394.1 125.638C394.235 125.841 394.376 126.039 394.513 126.236L394.469 126.333C394.32 126.264 394.169 126.205 394.008 126.144C390.061 124.693 386.292 126.814 384.867 127.616C382.21 129.114 379.446 131.763 378.304 134.62L378.221 134.589C377.82 133.873 377.413 133.155 377.007 132.433L376.943 132.468C376.539 132.478 375.029 132.464 373.751 131.343C373.022 130.702 372.675 129.97 372.512 129.548L372.591 129.348C370.781 128.652 368.185 127.206 366.684 124.302C364.754 120.572 365.829 116.768 366.232 115.33C366.325 114.991 366.43 114.67 366.544 114.362L366.416 114.317C366.336 113.471 366.211 112.178 366.052 110.59C365.623 106.412 365.499 105.804 365.964 105.345C366.39 104.926 367.165 104.769 368.052 104.857C369.594 105.013 371.458 105.928 372.346 107.554C373.198 109.121 372.848 110.752 372.71 111.281L372.77 111.47Z" fill="white"/>
<path d="M376.661 178.868L376.217 180.874L376.212 180.873C376.13 180.492 375.923 180.141 375.601 179.873L370.989 176.025L370.984 176.025C371.521 175.144 371.886 174.254 372.096 173.393L372.404 173.449L374.988 175.761C375.895 176.569 376.483 177.665 376.661 178.868Z" fill="#FF8B63"/>
<path d="M376.214 180.873C376.333 181.392 376.224 181.963 375.865 182.415L375.113 183.361C374.179 183.562 373.262 183.897 372.399 184.367C371.687 183.72 370.59 182.725 369.232 181.499C368.227 180.595 367.72 180.141 367.656 180.093C367.526 180.007 367.383 179.933 367.231 179.88C368.908 178.752 370.15 177.405 370.986 176.025L370.991 176.026L375.603 179.873C375.924 180.141 376.132 180.493 376.214 180.873Z" fill="#FF8B63"/>
<path d="M385.918 99.2811L387.635 103.406C386.739 103.855 385.775 104.417 384.792 105.116C381.793 107.252 379.97 109.728 378.955 111.373C378.374 111.21 377.695 111.07 376.935 111.005C375.253 110.866 373.82 111.143 372.769 111.47L372.709 111.281C372.847 110.752 373.197 109.121 372.345 107.554C371.457 105.928 369.593 105.013 368.051 104.857L368.067 104.682L356.694 77.9737C356.2 76.8169 356.721 75.4789 357.869 74.9613L370.81 69.1566C371.992 68.6293 373.38 69.1751 373.876 70.3743L385.918 99.2811Z" fill="#7099ED"/>
<path d="M361.96 167.88C362.007 167.737 362.183 167.173 362.608 166.644L362.558 166.603C362.393 166.536 360.836 165.887 359.706 164.499C359.156 163.823 358.709 162.979 358.57 161.939C358.507 161.483 358.509 160.986 358.567 160.495C358.73 159.055 359.393 157.654 360.447 157.313C361.367 157.015 362.039 157.707 363.993 158.785C368.364 161.203 369.979 160.504 371.123 162.156C371.631 162.891 372.431 164.658 370.976 168.462C371.209 168.671 371.418 168.903 371.598 169.171C372.316 170.243 372.5 171.757 372.097 173.393C371.888 174.255 371.522 175.145 370.986 176.025C370.15 177.405 368.907 178.753 367.23 179.88C364.412 178.849 357.563 182.898 352.864 188.725C351.543 190.361 349.602 192.763 348.341 195.504C346.56 194.996 342.994 193.714 339.744 190.47C336.693 187.425 335.303 184.028 334.656 181.766C333.946 181.193 332.686 180.001 331.885 178.071C331.389 176.867 331.233 175.777 331.19 175.011L331.193 174.996C329.689 173.796 329.148 171.925 329.75 170.544C330.38 169.09 332.059 168.669 332.3 168.608C326.925 163.252 325.869 157.276 327.954 154.91C329.988 152.598 334.982 153.775 336.398 154.169L340.726 158.483C342.88 159.492 344.305 160.834 345.097 161.7C349.12 161.79 355.458 162.663 360.946 167.026C361.303 167.305 361.637 167.591 361.96 167.88Z" fill="white"/>
<path d="M358.659 222.868C358.659 222.868 358.633 222.921 358.619 222.944C358.524 222.864 358.424 222.778 358.32 222.691L358.659 222.868Z" fill="#231F20"/>
<path d="M358.319 222.69C358.424 222.777 358.523 222.863 358.618 222.943C356.543 226.969 345.629 246.075 324.746 248.754C320.626 249.284 316.736 249.093 313.134 248.442C300.133 246.072 290.862 237.579 287.844 234.472C263.928 209.865 271.835 160.894 282.991 133.987C288.498 120.693 294.7 112.719 299.575 112.661C301.092 112.639 302.588 113.336 304.031 114.728C303.995 114.753 303.969 114.78 303.943 114.806L303.529 115.249L302.962 115.841C301.826 114.74 300.69 114.187 299.597 114.202C295.48 114.252 289.519 122.249 284.413 134.576C278.043 149.94 274.089 169.002 273.831 185.564C273.606 200.056 276.045 220.121 288.947 233.397C291.603 236.124 305.794 249.63 324.551 247.222C344.802 244.628 355.377 225.893 357.288 222.163L358.319 222.69Z" fill="#231F20"/>
<path d="M336.397 154.169L309.877 127.727C309.378 127.202 309.32 126.402 309.741 125.81L309.93 125.546L313.432 120.62C313.46 120.583 313.487 120.546 313.525 120.511C313.864 120.113 314.376 119.934 314.86 120.002L315.354 120.154L315.374 120.158C315.512 120.235 315.64 120.332 315.754 120.452L359.705 164.499C360.835 165.886 362.392 166.536 362.557 166.603L362.607 166.643C362.182 167.172 362.006 167.737 361.959 167.88C361.636 167.591 361.302 167.305 360.946 167.026C355.457 162.663 349.119 161.79 345.096 161.7C344.304 160.834 342.879 159.492 340.725 158.482L336.397 154.169Z" fill="#FF8B63"/>
<path d="M359.706 164.499L315.755 120.453C315.642 120.333 315.513 120.236 315.375 120.164L318.202 121.03C319.053 121.289 319.826 121.77 320.439 122.415L358.563 160.494L358.568 160.495C358.51 160.987 358.508 161.483 358.571 161.939C358.71 162.979 359.156 163.824 359.706 164.499Z" fill="#FF8B63"/>
<path d="M313.524 120.513C313.486 120.547 313.458 120.584 313.431 120.621L309.929 125.547C309.891 125.441 309.728 124.872 309.781 124.124L309.776 124.123C309.815 123.539 309.989 122.839 310.461 122.167C311.251 121.04 312.386 120.682 313.033 120.57C313.287 120.522 313.466 120.513 313.519 120.512L313.524 120.513Z" fill="white"/>
<path d="M313.012 120.418L313.037 120.569C312.39 120.681 311.255 121.039 310.465 122.166C309.993 122.838 309.818 123.539 309.78 124.122L303.29 117.125C302.866 116.671 302.87 115.965 303.292 115.509L303.532 115.25L304.034 114.729C304.448 114.35 305.08 114.318 305.532 114.673L313.012 120.418Z" fill="#231F20"/>
<path d="M304.035 114.728L303.533 115.248L303.947 114.806C303.973 114.78 303.999 114.753 304.035 114.728Z" fill="#231F20"/>
<path d="M412.366 76.2885C412.986 79.9314 413.611 82.8325 414.072 84.8253C414.702 87.5548 414.735 89.0042 414.665 90.1628C414.413 94.4052 412.445 96.3579 413.42 97.7645C413.845 98.3807 414.904 98.9867 417.827 98.5833C417.76 106.97 421.954 114.365 428.513 117.265C433.685 119.552 438.792 118.364 440.85 117.751C441.126 117.666 441.348 117.596 441.509 117.542C443.051 117.044 449.113 114.964 452.538 108.57C455.109 103.767 454.782 99.179 454.567 97.4351C455.828 96.7289 457.824 95.3983 459.53 93.1102C460.075 92.3832 465.004 85.5838 461.929 79.9507C460.752 77.7908 457.807 74.7073 454.401 75.441C451.359 76.0947 448.912 79.5865 449.254 83.8063C447.779 85.1429 446.309 86.4804 444.839 87.8179C444.32 84.9361 443.803 82.0492 443.284 79.1674C440.978 77.9314 439.592 76.544 438.747 75.4852C437.799 74.3031 437.106 73.0055 435.385 71.625C434.611 71.0029 433.899 70.5855 433.419 70.3306" stroke="#231F20" stroke-width="0.6" stroke-miterlimit="10" stroke-linecap="round"/>
<path d="M471.766 60.3047C472.092 66.1584 472.669 72.3872 473.588 78.9399C474.654 86.5496 476.05 93.6651 477.636 100.256C478.572 104.165 479.584 107.89 480.626 111.422C480.646 111.488 480.661 111.548 480.681 111.609" stroke="#231F20" stroke-width="0.6" stroke-miterlimit="10" stroke-linecap="round"/>
<path d="M440.906 117.957C441.522 119.387 442.13 121.062 442.602 122.973C442.835 123.925 443.014 124.831 443.151 125.687" stroke="#231F20" stroke-width="0.6" stroke-miterlimit="10" stroke-linecap="round"/>
<path d="M486.049 125.139C486.819 124.751 487.582 124.372 488.341 123.988C486.75 119.342 485.166 114.691 483.575 110.045C482.599 110.505 481.618 110.965 480.626 111.422C479.716 111.836 478.799 112.255 477.879 112.668C466.13 117.942 454.531 122.286 443.206 125.865C439.279 127.11 435.386 128.257 431.528 129.322C431.508 129.491 431.487 129.665 431.461 129.833C430.9 134.259 430.338 138.685 429.777 143.112C429.56 144.819 429.343 146.526 429.125 148.233C435.798 146.097 442.686 143.697 449.751 141.01C462.918 136 475.016 130.611 486.044 125.138" stroke="#231F20" stroke-width="0.6" stroke-miterlimit="10" stroke-linecap="round"/>
<path d="M428.205 159.045C426.329 161.265 424.402 163.879 422.596 166.913C417.054 176.22 415.14 185.29 414.448 191.575" stroke="#231F20" stroke-width="0.6" stroke-miterlimit="10" stroke-linecap="round"/>
<path d="M482.963 193.604C482.562 194.692 482.026 195.828 481.307 196.963C477.324 203.271 470.432 205.325 467.661 205.981" stroke="#231F20" stroke-width="0.6" stroke-miterlimit="10" stroke-linecap="round"/>
<path d="M486.048 125.137L486.054 125.138C486.634 125.103 489.695 124.97 490.502 126.472C490.993 127.387 490.633 128.875 489.436 130.461C488.561 131.625 487.244 132.838 485.491 133.926" stroke="#231F20" stroke-width="0.6" stroke-miterlimit="10" stroke-linecap="round"/>
<path d="M489.766 130.521C490.414 131.089 491.367 131.959 492.427 133.098C494.933 135.788 497.583 139.456 500.087 145.476C507.59 163.526 508.142 181.459 508.142 181.459C508.243 184.709 508.451 196.654 505.734 206.121C505.509 206.901 504.974 208.686 504.224 211.06C503.636 212.908 502.926 215.117 502.125 217.476C501.084 220.554 500.27 222.817 499.888 223.882C493.833 240.757 490.803 249.189 491.556 249.556C491.977 249.764 493.546 248.026 498.636 239.342" stroke="#231F20" stroke-width="0.6" stroke-miterlimit="10" stroke-linecap="round"/>
<path d="M504.806 211.182C504.886 213.665 505.042 217.537 505.395 222.271C506.116 231.998 506.889 235.031 507.353 243.023C507.89 252.246 508.231 256.905 506.927 259.679C505.658 262.376 503.64 264.456 501.319 266.052C498.889 267.732 496.127 268.886 493.565 269.685C492.225 270.105 490.941 270.425 489.789 270.675" stroke="#231F20" stroke-width="0.6" stroke-miterlimit="10" stroke-linecap="round"/>
<path d="M407.739 254.152C408.734 253.701 410.103 253.061 411.735 252.266C412.452 251.915 413.221 251.532 414.033 251.116C416.904 249.652 420.901 247.593 425.558 244.776C426.655 244.108 427.786 243.404 428.955 242.655C434.976 238.768 441.832 233.68 448.678 227.099C450.836 225.024 453.375 222.433 456.116 219.303C458.589 216.475 461.225 213.206 463.893 209.477C466.616 207.222 471.023 202.885 473.639 196.088C474.623 193.527 475.153 191.134 475.436 189.094" stroke="#231F20" stroke-width="0.6" stroke-miterlimit="10" stroke-linecap="round"/>
<path d="M398.416 256.637C395.887 256.709 392.066 256.541 387.717 255.21C374.816 251.259 368.385 240.443 366.468 237.218C365.145 234.995 363.415 231.631 362.1 227.192C361.504 225.169 360.994 222.927 360.648 220.469" stroke="#231F20" stroke-width="0.6" stroke-miterlimit="10" stroke-linecap="round"/>
<path d="M358.327 222.691C358.119 222.517 357.898 222.325 357.675 222.117C356.281 220.833 353.083 217.876 352.065 213.152C351.712 211.508 351.691 209.967 351.84 208.603C352.098 206.213 352.874 204.362 353.313 203.443" stroke="#231F20" stroke-width="0.6" stroke-miterlimit="10" stroke-linecap="round"/>
<path d="M359.574 223.667C359.306 223.477 358.984 223.236 358.625 222.945" stroke="#231F20" stroke-width="0.6" stroke-miterlimit="10" stroke-linecap="round"/>
<path d="M375.117 183.366C374.184 183.562 373.267 183.897 372.404 184.367C371.559 184.82 370.764 185.402 370.043 186.096" stroke="#231F20" stroke-width="0.6" stroke-miterlimit="10" stroke-linecap="round"/>
<path d="M383.207 185.354C382.558 184.791 381.79 184.28 380.88 183.889C379.056 183.102 377.044 182.944 375.116 183.362" stroke="#231F20" stroke-width="0.6" stroke-miterlimit="10" stroke-linecap="round"/>
<path d="M386.428 190.653C386.34 190.307 385.807 188.249 384.203 186.367" stroke="#231F20" stroke-width="0.6" stroke-miterlimit="10" stroke-linecap="round"/>
<path d="M384.594 189.273C385.121 189.814 385.649 190.355 386.182 190.896C387.111 191.84 388.05 192.79 388.999 193.737C392.121 196.853 395.231 199.862 398.315 202.756" stroke="#231F20" stroke-width="0.6" stroke-miterlimit="10" stroke-linecap="round"/>
<path d="M402.266 203.999C401.554 202.724 400.803 202.064 400.018 202.02C399.48 201.99 398.922 202.249 398.357 202.8C396.27 204.799 393.978 210.646 391.461 220.333" stroke="#231F20" stroke-width="0.6" stroke-miterlimit="10" stroke-linecap="round"/>
<path d="M416.094 199.72C414.383 199.89 411.927 200.248 409.066 201.054C408.681 201.162 408.313 201.267 407.967 201.361C404.85 202.257 403.143 202.83 402.267 203.999C400.114 206.88 402.918 213.515 408.684 220.334" stroke="#231F20" stroke-width="0.6" stroke-miterlimit="10" stroke-linecap="round"/>
<path d="M417.574 185.871C416.731 188.065 415.787 189.66 415.136 190.656C413.191 193.627 411.5 194.485 409.712 197.511C409.509 197.851 409.328 198.184 409.166 198.505C408.562 199.671 408.19 200.68 407.967 201.361L407.964 201.376" stroke="#231F20" stroke-width="0.6" stroke-miterlimit="10" stroke-linecap="round"/>
<path d="M431.423 212.972C423.654 207.896 416.492 207.479 414.755 209.934C413.146 212.209 415.514 217.885 420.715 223.048" stroke="#231F20" stroke-width="0.6" stroke-miterlimit="10" stroke-linecap="round"/>
<path d="M371.875 187.479C370.59 187.511 369.113 187.713 367.558 188.261C361.083 190.542 358.431 197.014 357.859 198.521" stroke="#231F20" stroke-width="0.6" stroke-miterlimit="10" stroke-linecap="round"/>
<path d="M428.351 143.907C428.328 142.779 428.367 141.562 428.492 140.272C428.633 138.839 428.868 137.496 429.164 136.243C429.76 133.716 430.606 131.564 431.439 129.828" stroke="#231F20" stroke-width="0.6" stroke-miterlimit="10" stroke-linecap="round"/>
<path d="M429.546 143.08C429.405 143.169 428.938 143.466 428.422 143.978C427.722 144.672 426.923 145.76 426.696 147.267C426.57 148.101 426.654 148.843 426.791 149.433C426.902 149.888 427.045 150.248 427.152 150.488" stroke="#231F20" stroke-width="0.6" stroke-miterlimit="10" stroke-linecap="round"/>
<path d="M426.835 149.382C426.835 149.382 426.808 149.413 426.794 149.432C425.353 151.183 423.416 153.653 421.318 156.743C419.977 158.716 415.573 165.188 412.81 171.927C411.77 174.457 410.369 178.479 409.535 183.886C408.907 187.961 408.605 192.826 409.024 198.43" stroke="#231F20" stroke-width="0.6" stroke-miterlimit="10" stroke-linecap="round"/>
<path d="M471.545 233.359C473.804 232.62 477.048 231.37 480.642 229.264C487.192 225.422 489.877 221.66 490.796 222.225C491.731 222.798 490.547 227.66 481.133 246.611" stroke="#231F20" stroke-width="0.6" stroke-miterlimit="10" stroke-linecap="round"/>
<path d="M484.739 149.477C486.321 145.582 487.897 141.686 489.479 137.79" stroke="#231F20" stroke-width="0.6" stroke-miterlimit="10" stroke-linecap="round"/>
<path d="M429.23 136.223L429.164 136.242C428 136.558 426.139 137.202 424.209 138.545C423.557 139.001 422.889 139.544 422.246 140.18C420.931 141.472 420.057 142.803 419.488 143.86" stroke="#231F20" stroke-width="0.6" stroke-miterlimit="10" stroke-linecap="round"/>
<path d="M424.129 138.432C422.23 138.112 420.797 138.416 419.904 138.708C418.304 139.238 416.902 140.258 415.768 141.641C414.134 143.623 413.046 146.354 412.731 149.429" stroke="#231F20" stroke-width="0.6" stroke-miterlimit="10" stroke-linecap="round"/>
<path d="M407.174 154.167C407.087 152.922 407.099 150.597 408.281 148.093C409.585 145.318 411.701 143.644 413.369 142.682C414.459 142.055 415.359 141.727 415.725 141.606" stroke="#231F20" stroke-width="0.6" stroke-miterlimit="10" stroke-linecap="round"/>
<path d="M413.425 142.755C413.425 142.755 413.387 142.706 413.366 142.681C410.996 139.619 408.854 136.97 407.048 134.794C402.816 129.693 401.023 127.876 398.879 128.076C398.327 128.127 397.825 128.302 397.39 128.542C396.822 128.852 396.351 129.263 395.984 129.64" stroke="#231F20" stroke-width="0.6" stroke-miterlimit="10" stroke-linecap="round"/>
<path d="M389.547 168.859C391.138 171.037 392.627 172.605 393.51 173.488" stroke="#231F20" stroke-width="0.6" stroke-miterlimit="10" stroke-linecap="round"/>
<path d="M384.176 140.04C383.367 142.732 382.696 146.218 382.837 150.255C382.916 152.539 383.244 154.691 383.741 156.69C384.913 161.37 387.015 165.241 389.038 168.146" stroke="#231F20" stroke-width="0.6" stroke-miterlimit="10" stroke-linecap="round"/>
<path d="M394.945 169.718C394.125 170.98 393.663 172.282 393.511 173.488C393.265 175.467 393.837 177.198 394.984 178.092C396.173 179.015 397.765 178.866 398.52 178.736" stroke="#231F20" stroke-width="0.6" stroke-miterlimit="10" stroke-linecap="round"/>
<path d="M396.453 175.746C396.981 176.632 397.691 177.629 398.631 178.627C398.88 178.897 399.15 179.161 399.435 179.427C403.183 182.887 407.555 183.668 409.53 183.887C409.551 183.886 409.566 183.888 409.581 183.891" stroke="#231F20" stroke-width="0.6" stroke-miterlimit="10" stroke-linecap="round"/>
<path d="M396.721 131.345C396.071 131.048 394.998 130.691 393.69 130.792C390.317 131.061 388.507 134.178 388.314 134.519" stroke="#231F20" stroke-width="0.6" stroke-miterlimit="10" stroke-linecap="round"/>
<path d="M380.913 143.629C380.434 143.249 379.767 142.641 379.169 141.743C379.169 141.743 378.017 140.016 377.795 137.831C377.686 136.766 377.889 135.678 378.312 134.621C379.453 131.764 382.217 129.115 384.875 127.617C386.3 126.815 390.068 124.694 394.015 126.145C394.176 126.206 394.327 126.265 394.476 126.334C395.767 126.898 396.69 127.705 397.274 128.308" stroke="#231F20" stroke-width="0.6" stroke-miterlimit="10" stroke-linecap="round"/>
<path d="M381.604 142.708C381.379 142.997 381.161 143.307 380.957 143.652C380.538 144.345 380.172 145.151 379.948 146.067C378.604 151.522 383.268 156.227 383.742 156.689C383.747 156.69 383.746 156.695 383.751 156.696" stroke="#231F20" stroke-width="0.6" stroke-miterlimit="10" stroke-linecap="round"/>
<path d="M378.964 111.373C378.383 111.21 377.704 111.07 376.943 111.005C375.262 110.866 373.829 111.143 372.778 111.47C372.539 111.546 372.317 111.621 372.121 111.695" stroke="#231F20" stroke-width="0.6" stroke-miterlimit="10" stroke-linecap="round"/>
<path d="M372.714 111.281C372.852 110.752 373.201 109.121 372.349 107.554C371.461 105.928 369.597 105.013 368.055 104.857C367.168 104.769 366.393 104.926 365.967 105.345C365.503 105.804 365.627 106.412 366.055 110.59C366.215 112.178 366.339 113.471 366.42 114.317" stroke="#231F20" stroke-width="0.6" stroke-miterlimit="10" stroke-linecap="round"/>
<path d="M367.986 111.464C367.549 112.143 367.001 113.12 366.55 114.361C366.437 114.67 366.331 114.991 366.238 115.329C365.835 116.767 364.761 120.572 366.69 124.302C368.191 127.206 370.788 128.652 372.597 129.347C373.558 129.716 374.298 129.866 374.539 129.916" stroke="#231F20" stroke-width="0.6" stroke-miterlimit="10" stroke-linecap="round"/>
<path d="M374.406 127.799C375.065 128.965 375.719 130.13 376.378 131.296L377.017 132.432C377.423 133.154 377.829 133.872 378.231 134.588" stroke="#231F20" stroke-width="0.6" stroke-miterlimit="10" stroke-linecap="round"/>
<path d="M385.927 99.282C389.357 97.8728 392.745 98.5793 393.989 100.516C395.172 102.358 394.289 105.115 394.077 105.761C393.652 107.065 392.997 108.022 392.513 108.614C392.959 108.748 394.408 109.242 395.267 110.685C396.254 112.345 396.06 114.584 394.758 116.344C395.003 116.515 395.782 117.106 395.996 118.139C396.251 119.373 395.596 120.733 394.34 121.498C394.448 121.622 395.194 122.511 394.981 123.706C394.846 124.477 394.382 124.962 394.2 125.133" stroke="#231F20" stroke-width="0.6" stroke-miterlimit="10" stroke-linecap="round"/>
<path d="M378.961 111.373C379.976 109.728 381.8 107.252 384.799 105.116C385.782 104.416 386.745 103.854 387.641 103.406C388.496 102.981 389.287 102.65 389.99 102.401" stroke="#231F20" stroke-width="0.6" stroke-miterlimit="10" stroke-linecap="round"/>
<path d="M390.484 119.748C391.508 121.603 392.639 123.472 393.902 125.334C393.972 125.435 394.038 125.536 394.108 125.638C394.243 125.84 394.384 126.039 394.521 126.236" stroke="#231F20" stroke-width="0.6" stroke-miterlimit="10" stroke-linecap="round"/>
<path d="M372.516 129.549C372.679 129.971 373.025 130.703 373.754 131.343C375.032 132.465 376.543 132.479 376.946 132.469" stroke="#231F20" stroke-width="0.6" stroke-miterlimit="10" stroke-linecap="round"/>
<path d="M368.075 104.682L356.702 77.9737C356.208 76.8169 356.728 75.4789 357.877 74.9613L370.818 69.1566C372 68.6293 373.387 69.1751 373.884 70.3743L385.926 99.2811L387.643 103.406" stroke="#231F20" stroke-width="0.6" stroke-miterlimit="10" stroke-linecap="round"/>
<path d="M372.399 184.368C371.687 183.721 370.59 182.726 369.232 181.5C368.228 180.596 367.721 180.142 367.657 180.094C367.526 180.008 367.383 179.934 367.231 179.881C364.413 178.849 357.564 182.898 352.865 188.725C351.543 190.362 349.603 192.764 348.341 195.505C347.174 198.043 346.582 200.863 347.602 203.627C348.51 206.088 350.392 207.676 351.815 208.599" stroke="#231F20" stroke-width="0.6" stroke-miterlimit="10" stroke-linecap="round"/>
<path d="M363.68 169.591C363.159 169.015 362.59 168.44 361.962 167.881C361.638 167.592 361.304 167.306 360.948 167.027C355.46 162.664 349.122 161.792 345.099 161.702C344.574 161.69 344.089 161.69 343.649 161.699" stroke="#231F20" stroke-width="0.6" stroke-miterlimit="10" stroke-linecap="round"/>
<path d="M345.102 161.701C344.31 160.835 342.884 159.492 340.73 158.483C338.49 157.431 336.468 157.214 335.285 157.176" stroke="#231F20" stroke-width="0.6" stroke-miterlimit="10" stroke-linecap="round"/>
<path d="M336.74 154.268C336.685 154.253 336.567 154.216 336.398 154.169C334.982 153.775 329.988 152.598 327.954 154.91C325.869 157.276 326.925 163.252 332.3 168.609C332.652 168.966 333.027 169.316 333.417 169.665" stroke="#231F20" stroke-width="0.6" stroke-miterlimit="10" stroke-linecap="round"/>
<path d="M334.234 179.947C334.32 180.392 334.452 181.017 334.66 181.766C335.307 184.028 336.697 187.424 339.748 190.47C342.998 193.713 346.563 194.996 348.344 195.504" stroke="#231F20" stroke-width="0.6" stroke-miterlimit="10" stroke-linecap="round"/>
<path d="M370.976 168.466C371.21 168.671 371.418 168.903 371.599 169.171C372.317 170.243 372.5 171.756 372.097 173.393C371.888 174.254 371.522 175.145 370.986 176.025C370.15 177.405 368.908 178.752 367.231 179.88L367.226 179.879" stroke="#231F20" stroke-width="0.6" stroke-miterlimit="10" stroke-linecap="round"/>
<path d="M366.629 167.025C367.293 167.047 369.538 167.184 370.981 168.461" stroke="#231F20" stroke-width="0.6" stroke-miterlimit="10" stroke-linecap="round"/>
<path d="M362.564 166.604C362.399 166.537 360.842 165.887 359.712 164.499C359.162 163.824 358.716 162.979 358.576 161.939C358.513 161.483 358.515 160.987 358.573 160.495C358.737 159.055 359.399 157.654 360.453 157.313C361.373 157.015 362.046 157.708 363.999 158.786C368.37 161.203 369.985 160.504 371.13 162.156C371.638 162.892 372.438 164.659 370.982 168.462" stroke="#231F20" stroke-width="0.6" stroke-miterlimit="10" stroke-linecap="round"/>
<path d="M364.686 165.604C364.419 165.608 364.093 165.648 363.756 165.78C363.256 165.976 362.883 166.306 362.612 166.643C362.187 167.173 362.011 167.737 361.964 167.88" stroke="#231F20" stroke-width="0.6" stroke-miterlimit="10" stroke-linecap="round"/>
<path d="M332.301 168.61C332.06 168.671 330.382 169.092 329.751 170.545C329.15 171.926 329.691 173.798 331.2 174.998C331.426 175.186 331.673 175.351 331.943 175.5" stroke="#231F20" stroke-width="0.6" stroke-miterlimit="10" stroke-linecap="round"/>
<path d="M331.195 175.012C331.238 175.778 331.395 176.868 331.89 178.072C332.692 180.001 333.951 181.193 334.661 181.767" stroke="#231F20" stroke-width="0.6" stroke-miterlimit="10" stroke-linecap="round"/>
<path d="M315.375 120.164C315.513 120.236 315.642 120.333 315.755 120.453L359.706 164.499L359.848 164.64" stroke="#231F20" stroke-width="0.6" stroke-miterlimit="10" stroke-linecap="round"/>
<path d="M340.732 158.483L336.404 154.17L309.884 127.728C309.385 127.203 309.327 126.403 309.748 125.811L309.937 125.547L313.439 120.621C313.467 120.584 313.494 120.547 313.532 120.512C313.871 120.114 314.383 119.935 314.867 120.003C315.036 120.018 315.204 120.069 315.361 120.155" stroke="#231F20" stroke-width="0.6" stroke-miterlimit="10" stroke-linecap="round"/>
<path d="M370.992 176.027L375.604 179.875C375.925 180.143 376.133 180.494 376.215 180.875C376.334 181.394 376.225 181.965 375.866 182.417L375.114 183.362" stroke="#231F20" stroke-width="0.6" stroke-miterlimit="10" stroke-linecap="round"/>
<path d="M314.812 119.988L314.863 119.997L315.356 120.155L315.376 120.159L318.203 121.03C319.053 121.289 319.826 121.77 320.44 122.415L358.563 160.494" stroke="#231F20" stroke-width="0.6" stroke-miterlimit="10" stroke-linecap="round"/>
<path d="M372.406 173.455L374.992 175.762C375.899 176.57 376.487 177.666 376.664 178.87L376.22 180.875" stroke="#231F20" stroke-width="0.6" stroke-miterlimit="10" stroke-linecap="round"/>
<path d="M339.894 165.876C339.5 165.893 337.448 166.011 336.062 167.662C334.651 169.329 334.499 171.885 335.729 174.013" stroke="#231F20" stroke-width="0.6" stroke-miterlimit="10" stroke-linecap="round"/>
<path d="M309.784 124.123C309.822 123.539 309.997 122.839 310.469 122.167C311.259 121.04 312.394 120.682 313.041 120.57C313.295 120.522 313.474 120.513 313.526 120.512" stroke="#231F20" stroke-width="0.6" stroke-miterlimit="10" stroke-linecap="round"/>
<path d="M309.937 125.546C309.899 125.44 309.736 124.872 309.789 124.123" stroke="#231F20" stroke-width="0.6" stroke-miterlimit="10" stroke-linecap="round"/>
<path d="M303.535 115.249L303.295 115.509C302.872 115.965 302.869 116.671 303.292 117.124L309.782 124.122L309.787 124.123" stroke="#231F20" stroke-width="0.6" stroke-miterlimit="10" stroke-linecap="round"/>
<path d="M313.013 120.417L305.533 114.672C305.081 114.318 304.449 114.349 304.035 114.728" stroke="#231F20" stroke-width="0.6" stroke-miterlimit="10" stroke-linecap="round"/>
<path d="M359.195 220.836C359.157 221.504 359.181 222.517 359.572 223.666C360.228 225.595 361.508 226.733 362.097 227.19" stroke="#231F20" stroke-width="0.6" stroke-miterlimit="10" stroke-linecap="round"/>
<path d="M456.107 219.302L456.112 219.302C458.366 220.848 463.892 224.177 471.671 224.444C477.895 224.653 482.679 222.8 485.117 221.65" stroke="#231F20" stroke-width="0.6" stroke-miterlimit="10" stroke-linecap="round"/>
<path d="M459.523 93.1113C462.311 93.792 465.462 94.7428 468.847 96.076C472.205 97.4046 475.14 98.8546 477.635 100.256" stroke="#231F20" stroke-width="0.6" stroke-miterlimit="10" stroke-linecap="round"/>
<path d="M471.557 59.5376L475.562 58.4059L474.57 52.2268C473.777 52.0823 473.056 51.7155 472.483 51.1928C471.911 50.665 471.477 49.9844 471.258 49.2073L468.607 39.7869C463.907 23.0537 447.778 12.2177 430.539 14.2008C414.632 16.0344 402.453 28.1383 399.731 43.0743C399.063 46.7438 398.969 50.5808 399.525 54.4841L400.962 64.4988C401.525 68.4242 399.234 72.2058 395.493 73.5165L392.996 74.3897L394.681 81.2912L412.366 76.2884L433.419 70.3305L471.557 59.5376Z" stroke="#231F20" stroke-width="0.6" stroke-miterlimit="10" stroke-linecap="round"/>
<path d="M407.941 33.773C406.572 35.7303 404.301 39.5419 403.663 44.7859C403.325 47.5899 402.351 55.6541 407.774 60.7424C412.3 64.9768 419.718 65.7065 426.415 62.6912" stroke="#231F20" stroke-width="0.6" stroke-miterlimit="10" stroke-linecap="round"/>
<path d="M442.681 56.1375C442.249 53.9878 441.81 51.8422 441.377 49.6924L450.771 46.8549C451.041 48.0075 451.317 49.1611 451.587 50.3137" stroke="#231F20" stroke-width="0.6" stroke-miterlimit="10" stroke-linecap="round"/>
<path d="M421.32 80.4473C421.443 78.8015 422.453 77.4064 423.811 76.974C425.64 76.387 427.956 77.5936 428.639 79.9195" stroke="#231F20" stroke-width="0.6" stroke-miterlimit="10" stroke-linecap="round"/>
<path d="M423.159 104.001C424.798 104.514 426.556 104.087 427.696 102.899C429.107 101.43 428.88 99.4956 428.847 99.249" stroke="#231F20" stroke-width="0.6" stroke-miterlimit="10" stroke-linecap="round"/>
<path d="M461.488 151.212C463.117 151.263 467.956 151.627 472.31 155.255C478.477 160.39 478.668 167.903 478.676 169.034" stroke="#231F20" stroke-width="0.6" stroke-miterlimit="10" stroke-linecap="round"/>
<path d="M467.451 138.854C469.692 137.84 472.341 136.649 475.323 135.321C479.031 133.675 480.111 133.218 480.388 133.556C480.747 133.993 479.839 135.767 473.916 141.894" stroke="#231F20" stroke-width="0.6" stroke-miterlimit="10" stroke-linecap="round"/>
</g>
</g>
<defs>
<clipPath id="clip0_9500_23689">
<rect width="536" height="227" rx="16" fill="white"/>
</clipPath>
<clipPath id="clip1_9500_23689">
<rect width="255.455" height="351.58" fill="white" transform="translate(306.039 -10.3027) rotate(10.3289)"/>
</clipPath>
</defs>
</svg>
