<svg width="536" height="227" viewBox="0 0 536 227" fill="none" xmlns="http://www.w3.org/2000/svg">
<g clip-path="url(#clip0_9500_24167)">
<rect x="0.296875" width="535.5" height="227" rx="16" fill="#7099ED"/>
<path d="M34.3379 42L40.5195 27.7129H43.1855L49.377 42H46.4277L42.3164 31.9219C42.1927 31.6289 42.0885 31.349 42.0039 31.082C41.9193 30.8086 41.8411 30.5482 41.7695 30.3008H41.6719C41.5938 30.5482 41.5124 30.8086 41.4277 31.082C41.3431 31.3555 41.2422 31.6354 41.125 31.9219L36.9844 42H34.3379ZM37.1992 38.6699L37.9609 36.6484H45.6172L46.3789 38.6699H37.1992ZM50.8613 42V27.7812H57.0625C58.8919 27.7812 60.2917 28.1719 61.2617 28.9531C62.2383 29.7344 62.7266 30.877 62.7266 32.3809C62.7266 33.8522 62.2415 34.9948 61.2715 35.8086C60.3014 36.6224 58.8952 37.0163 57.0527 36.9902H53.5762V42H50.8613ZM53.5762 34.9785H56.8184C57.9902 34.9785 58.8171 34.7539 59.2988 34.3047C59.7806 33.849 60.0215 33.2109 60.0215 32.3906C60.0215 31.5638 59.7806 30.9323 59.2988 30.4961C58.8171 30.0534 57.9902 29.832 56.8184 29.832H53.5762V34.9785ZM64.8262 42V27.7812H75.6367V29.8809H67.5117V33.6699H74.6406V35.7109H67.5117V39.9102H75.7539V42H64.8262ZM78.0488 42V27.7812H80.7637V33.6113H88.498V27.7812H91.2031V42H88.498V35.7207H80.7637V42H78.0488ZM106.643 44.8223V42H95.4512V44.8223H92.9609V39.9102H109.133V44.8223H106.643ZM95.793 27.7812H107.248V41.4922H104.572V29.8711H98.0781L97.7852 35.1445C97.707 36.5443 97.5768 37.6543 97.3945 38.4746C97.2188 39.2949 96.9648 39.9883 96.6328 40.5547H94.0156C94.4453 39.9232 94.7643 39.1908 94.9727 38.3574C95.1875 37.5241 95.3307 36.4173 95.4023 35.0371L95.793 27.7812ZM110.373 35.1445V34.6074C110.373 32.2376 111.063 30.4603 112.443 29.2754C113.824 28.084 115.588 27.4883 117.736 27.4883C119.878 27.4883 121.643 28.084 123.029 29.2754C124.423 30.4603 125.119 32.2376 125.119 34.6074V35.1445C125.119 37.5339 124.423 39.3242 123.029 40.5156C121.643 41.7005 119.878 42.293 117.736 42.293C115.588 42.293 113.824 41.7005 112.443 40.5156C111.063 39.3242 110.373 37.5339 110.373 35.1445ZM113.156 35.3105C113.156 36.9902 113.573 38.2272 114.406 39.0215C115.246 39.8092 116.356 40.2031 117.736 40.2031C119.117 40.2031 120.23 39.8092 121.076 39.0215C121.923 38.2272 122.346 36.9902 122.346 35.3105V34.4609C122.346 32.7812 121.923 31.5508 121.076 30.7695C120.236 29.9818 119.123 29.5879 117.736 29.5879C116.356 29.5879 115.246 29.9818 114.406 30.7695C113.573 31.5508 113.156 32.778 113.156 34.4512V35.3105ZM139.904 44.8223V42H128.713V44.8223H126.223V39.9102H142.395V44.8223H139.904ZM129.055 27.7812H140.51V41.4922H137.834V29.8711H131.34L131.047 35.1445C130.969 36.5443 130.839 37.6543 130.656 38.4746C130.48 39.2949 130.227 39.9883 129.895 40.5547H127.277C127.707 39.9232 128.026 39.1908 128.234 38.3574C128.449 37.5241 128.592 36.4173 128.664 35.0371L129.055 27.7812ZM142.521 42L148.703 27.7129H151.369L157.561 42H154.611L150.5 31.9219C150.376 31.6289 150.272 31.349 150.188 31.082C150.103 30.8086 150.025 30.5482 149.953 30.3008H149.855C149.777 30.5482 149.696 30.8086 149.611 31.082C149.527 31.3555 149.426 31.6354 149.309 31.9219L145.168 42H142.521ZM145.383 38.6699L146.145 36.6484H153.801L154.562 38.6699H145.383ZM157.658 29.8906V27.7812H170.734V29.8906H165.559V42H162.844V29.8906H157.658ZM172.58 42V27.7812H183.391V29.8809H175.266V33.6699H182.395V35.7109H175.266V39.9102H183.508V42H172.58ZM187.463 27.7812H198.879V42H196.174V29.8711H189.748L189.387 36.5898C189.296 38.4518 188.993 39.8646 188.479 40.8281C187.964 41.7917 186.988 42.2734 185.549 42.2734C185.327 42.2734 185.116 42.2572 184.914 42.2246C184.712 42.1986 184.514 42.1497 184.318 42.0781V39.7734C184.468 39.8255 184.608 39.8613 184.738 39.8809C184.875 39.9004 185.015 39.9102 185.158 39.9102C185.803 39.9102 186.255 39.6367 186.516 39.0898C186.776 38.543 186.942 37.5924 187.014 36.2383L187.463 27.7812ZM213.479 42H210.764V36.6582H206.047L205.559 36.4043C204.322 36.2415 203.374 35.7793 202.717 35.0176C202.059 34.2559 201.73 33.3021 201.73 32.1562C201.73 30.8151 202.209 29.7507 203.166 28.9629C204.13 28.1751 205.487 27.7812 207.238 27.7812H213.479V42ZM210.764 34.6562V29.8125H207.463C206.324 29.8125 205.536 30.0273 205.1 30.457C204.663 30.8802 204.445 31.4564 204.445 32.1855C204.445 32.9212 204.663 33.5169 205.1 33.9727C205.536 34.4284 206.324 34.6562 207.463 34.6562H210.764ZM203.957 42H201.066L205.197 35.4668H207.951L203.957 42ZM216.721 42V27.7812H219.934L224.709 38.0352C224.807 38.2435 224.904 38.4551 225.002 38.6699C225.1 38.8783 225.174 39.0573 225.227 39.207H225.285C225.337 39.0573 225.406 38.8783 225.49 38.6699C225.575 38.4551 225.663 38.2435 225.754 38.0352L230.588 27.7812H233.869V42H231.193L231.203 32.3516C231.203 32.1497 231.21 31.9349 231.223 31.707C231.236 31.4727 231.249 31.2578 231.262 31.0625H231.193C231.148 31.2578 231.089 31.4727 231.018 31.707C230.952 31.9349 230.874 32.1497 230.783 32.3516L226.271 42H223.967L219.475 32.3516C219.377 32.1562 219.292 31.9447 219.221 31.7168C219.149 31.4824 219.09 31.2643 219.045 31.0625H218.977C218.99 31.2643 219.003 31.4824 219.016 31.7168C219.035 31.9447 219.045 32.1595 219.045 32.3613V42H216.721Z" fill="white"/>
<g clip-path="url(#clip1_9500_24167)">
<path d="M256.508 47.1728V70.5307H408.67V47.1728C408.67 34.6039 418.793 24.3689 431.29 24.2411L279.373 24.2363C266.763 24.2363 256.508 34.5234 256.508 47.1728Z" fill="#7099ED" stroke="#231F20" stroke-miterlimit="10"/>
<path d="M460.63 123.424H391.312C380.731 123.424 372.156 135.889 372.156 151.27C372.156 166.651 380.731 179.115 391.312 179.115H460.63C471.211 179.115 479.786 166.651 479.786 151.27C479.786 135.889 471.211 123.424 460.63 123.424Z" fill="#7099ED" stroke="#231F20" stroke-miterlimit="10"/>
<path d="M368.078 71.7617H338.308C336.093 71.7617 334.297 73.5633 334.297 75.7857V75.7904C334.297 78.0128 336.093 79.8144 338.308 79.8144H368.078C370.294 79.8144 372.09 78.0128 372.09 75.7904V75.7857C372.09 73.5633 370.294 71.7617 368.078 71.7617Z" fill="#231F20" stroke="#231F20" stroke-miterlimit="10"/>
<path d="M436.975 142.508H429.617V227.385H436.975V142.508Z" fill="#231F20" stroke="#231F20" stroke-miterlimit="10"/>
<path d="M437.973 222.059H428.945V227.763H437.973V222.059Z" fill="#231F20" stroke="#231F20" stroke-miterlimit="10"/>
<path d="M305.796 150.604H297.528C282.114 150.604 269.617 167.793 269.617 188.997C269.617 210.201 282.114 227.39 297.528 227.39H305.796C320.799 227.39 332.961 210.201 332.961 188.997C332.961 167.793 320.799 150.604 305.796 150.604Z" fill="#231F20" stroke="#231F20" stroke-miterlimit="10"/>
<path d="M483.064 142.45L482.521 140.637C483.927 140.216 488.576 138.611 489.227 135.733C490.129 131.77 483.078 127.193 479.099 125.626C464.347 119.803 445.087 136.031 442.94 137.901L441.703 136.471C443.94 134.526 463.997 117.634 479.793 123.864C483.144 125.185 492.408 130.284 491.068 136.154C490.242 139.785 485.697 141.655 483.059 142.45H483.064Z" fill="#231F20"/>
<path d="M305.66 125.3L303.414 123.567C308.001 117.578 310.267 111.675 310.144 106.013C310.092 103.584 309.625 101.587 309.129 99.4753C308.374 96.2372 307.591 92.8855 308.143 87.7159C308.572 83.6967 309.021 79.5449 312.249 76.4394C317.228 71.658 326.393 71.4686 331.858 76.037C335.982 79.4834 336.86 84.4257 337.044 86.3856L334.227 86.6507C334.076 85.0364 333.363 80.9841 330.05 78.2147C325.147 74.1197 317.766 75.0665 314.207 78.4845C311.725 80.8705 311.366 84.1796 310.956 88.0094C310.455 92.6961 311.182 95.8064 311.885 98.8173C312.39 100.981 312.914 103.22 312.971 105.947C313.103 112.271 310.644 118.781 305.656 125.295L305.66 125.3Z" fill="#231F20"/>
<path d="M387.44 82.1621H318.282C315.675 82.1621 313.562 84.2816 313.562 86.8962V126.075C313.562 128.69 315.675 130.809 318.282 130.809H387.44C390.046 130.809 392.159 128.69 392.159 126.075V86.8962C392.159 84.2816 390.046 82.1621 387.44 82.1621Z" fill="#231F20"/>
<path d="M300.846 85.5137H279.132C275.616 85.5137 272.766 88.3729 272.766 91.8999V173.733C272.766 177.26 275.616 180.119 279.132 180.119H300.846C304.362 180.119 307.212 177.26 307.212 173.733V91.8999C307.212 88.3729 304.362 85.5137 300.846 85.5137Z" fill="#231F20" stroke="#231F20" stroke-miterlimit="10"/>
<path d="M295.494 85.5137H273.78C270.264 85.5137 267.414 88.3729 267.414 91.8999V173.733C267.414 177.26 270.264 180.119 273.78 180.119H295.494C299.01 180.119 301.861 177.26 301.861 173.733V91.8999C301.861 88.3729 299.01 85.5137 295.494 85.5137Z" fill="white" stroke="#231F20" stroke-miterlimit="10"/>
<path d="M292.532 87.8633H274.735C271.615 87.8633 269.086 90.4003 269.086 93.5299V170.43C269.086 173.56 271.615 176.097 274.735 176.097H292.532C295.652 176.097 298.181 173.56 298.181 170.43V93.5299C298.181 90.4003 295.652 87.8633 292.532 87.8633Z" fill="white" stroke="#231F20" stroke-miterlimit="10"/>
<path d="M419.699 103.967H324.49C309.959 103.967 298.18 121.09 298.18 142.213C298.18 163.337 309.959 180.46 324.49 180.46H419.699C434.23 180.46 446.009 163.337 446.009 142.213C446.009 121.09 434.23 103.967 419.699 103.967Z" fill="#7099ED" stroke="#231F20" stroke-miterlimit="10"/>
<path d="M320.47 179.093L308.219 174.047V169.725H317.705C317.738 170.941 317.86 172.745 318.299 174.771C318.771 176.958 320.012 178.151 320.475 179.093H320.47Z" fill="#7099ED" stroke="#231F20" stroke-miterlimit="10"/>
<path d="M321.255 179.453L309.594 174.047V169.725H319.08C319.113 170.941 319.235 172.745 319.674 174.771C320.146 176.958 320.798 178.511 321.255 179.453Z" fill="#7099ED" stroke="#231F20" stroke-miterlimit="10"/>
<path d="M321.387 104.977L307.875 109.673V113.697H318.333C318.366 112.565 318.503 110.885 318.989 109.001C319.513 106.965 320.877 105.852 321.387 104.977Z" fill="#7099ED" stroke="#231F20" stroke-miterlimit="10"/>
<path d="M322.262 104.641L309.406 109.673V113.697H319.864C319.897 112.565 320.034 110.885 320.52 109.001C321.044 106.965 321.757 105.516 322.262 104.641Z" fill="#7099ED" stroke="#231F20" stroke-miterlimit="10"/>
<path d="M400.478 141.424C395.32 141.424 389.86 138.834 384.187 133.698C376.117 126.384 374.446 116.646 374.102 112.797L376.452 112.584C376.773 116.153 378.316 125.191 385.768 131.942C392.13 137.708 398.076 139.985 403.432 138.711C411.597 136.77 417.534 126.753 417.241 115.401L419.601 115.339C419.927 127.989 413.357 138.782 403.98 141.012C402.828 141.287 401.663 141.424 400.478 141.424Z" fill="#231F20"/>
<path d="M341.275 86.8594C336.117 86.8594 330.656 84.2699 324.984 79.1334C316.914 71.8193 315.243 62.0814 314.898 58.2326L317.249 58.0195C317.57 61.589 319.113 70.6263 326.565 77.3771C332.926 83.1432 338.873 85.4203 344.229 84.1468C352.394 82.2058 358.331 72.1886 358.038 60.8363L360.398 60.7748C360.724 73.4242 354.154 84.2178 344.777 86.4475C343.625 86.7221 342.46 86.8594 341.275 86.8594Z" fill="#231F20"/>
<path d="M394.084 149.789C388.426 149.789 382.588 148.241 377.609 145.239C364.867 137.56 363.649 123.406 363.555 121.82L365.91 121.678C365.999 123.141 367.118 136.154 378.827 143.213C386.524 147.852 396.411 148.747 404.014 145.485C409.644 143.071 412.589 138.995 415.43 135.056C418.465 130.852 421.329 126.88 426.997 125.948C431.358 125.228 436.058 126.535 440.971 129.82L439.659 131.79C435.261 128.845 431.127 127.666 427.375 128.282C422.665 129.058 420.197 132.481 417.337 136.443C414.448 140.448 411.168 144.988 404.934 147.663C401.607 149.088 397.883 149.789 394.08 149.789H394.084Z" fill="#231F20"/>
<path d="M419.918 140.197H364.688C364.744 144.231 363.999 152.653 362.064 158.651C357.793 171.878 349.147 176.635 345.008 179.788" stroke="#231F20" stroke-miterlimit="10"/>
<path d="M353.695 180.124C364.224 180.124 372.757 163.228 372.757 142.384C372.757 121.54 364.224 104.645 353.695 104.645H361.388C371.917 104.645 380.449 121.54 380.449 142.384C380.449 163.228 371.917 180.124 361.388 180.124H353.695Z" fill="#231F20"/>
<path d="M404.195 180.124C414.724 180.124 423.257 163.228 423.257 142.384C423.257 121.54 414.724 104.645 404.195 104.645H411.888C422.417 104.645 430.949 121.54 430.949 142.384C430.949 163.228 422.417 180.124 411.888 180.124H404.195Z" fill="#231F20"/>
<path d="M465.738 127.117H439.984V136.51H465.738V127.117Z" fill="#231F20" stroke="#231F20" stroke-miterlimit="10"/>
<path d="M486.47 133.152H416.906V183.475H486.47V133.152Z" fill="#231F20" stroke="#231F20" stroke-miterlimit="10"/>
<path d="M293.329 39.2207H420.587V60.0221H280.422V52.1683C280.422 45.0247 286.203 39.2254 293.325 39.2254L293.329 39.2207Z" fill="#231F20"/>
<path d="M504.865 65.0488H351.023V112.688H504.865V65.0488Z" fill="white" stroke="#231F20" stroke-miterlimit="10"/>
<path d="M513.096 47.1728V70.5307H505.068V47.1728C505.068 34.5234 494.813 24.2363 482.203 24.2363H490.231C502.841 24.2363 513.096 34.5234 513.096 47.1728Z" fill="#231F20" stroke="#231F20" stroke-miterlimit="10"/>
<path d="M505.071 47.1728V70.5307H352.909V47.1728C352.909 34.6039 342.786 24.3689 330.289 24.2411L482.206 24.2363C494.816 24.2363 505.071 34.5234 505.071 47.1728Z" fill="#FF8B63" stroke="#231F20" stroke-miterlimit="10"/>
<path d="M508.213 105.645H352.695V122.081H508.213V105.645Z" fill="#231F20" stroke="#231F20" stroke-miterlimit="10"/>
<path d="M512.561 142.508H505.203V227.385H512.561V142.508Z" fill="#231F20" stroke="#231F20" stroke-miterlimit="10"/>
<path d="M513.559 222.059H504.531V227.763H513.559V222.059Z" fill="#231F20" stroke="#231F20" stroke-miterlimit="10"/>
<path d="M367.746 188.579H290.414V180.531H350.364C351.346 181.686 352.445 182.742 353.639 183.679H353.644C354.635 184.465 355.692 185.166 356.806 185.777C357.92 186.387 359.09 186.908 360.308 187.329C360.501 187.396 360.695 187.462 360.888 187.523C360.888 187.523 360.892 187.523 360.898 187.523C361.091 187.585 361.285 187.647 361.483 187.703C361.483 187.703 361.488 187.708 361.492 187.703C361.686 187.76 361.884 187.812 362.082 187.869H362.092C362.29 187.916 362.488 187.968 362.691 188.016H362.701C362.899 188.058 363.102 188.101 363.305 188.144C364.739 188.428 366.226 188.579 367.746 188.579Z" fill="#7099ED" stroke="#231F20" stroke-miterlimit="10"/>
<path d="M513.097 70.5312V165.638C513.097 178.288 502.842 188.58 490.232 188.58H412.891V180.532H490.232C498.415 180.532 505.074 173.852 505.074 165.638V70.5312H513.097Z" fill="#231F20" stroke="#231F20" stroke-miterlimit="10"/>
<path d="M345.098 55.2207H257.945V69.172H345.098V55.2207Z" fill="#231F20"/>
<path d="M344.859 55.4578V68.9356H258.183V55.4578H344.864M345.335 54.9844H257.711V69.409H345.335V54.9844Z" fill="#231F20"/>
<path d="M264.566 65.8212C263.697 65.8212 262.961 64.5477 262.961 63.0375C262.961 61.5274 263.697 60.2539 264.566 60.2539C265.434 60.2539 266.17 61.5274 266.17 63.0375C266.17 64.5477 265.434 65.8212 264.566 65.8212Z" fill="#231F20"/>
<path d="M264.567 60.491C265.214 60.491 265.936 61.5372 265.936 63.0379C265.936 64.5386 265.214 65.5848 264.567 65.5848C263.921 65.5848 263.198 64.5386 263.198 63.0379C263.198 61.5372 263.921 60.491 264.567 60.491ZM264.567 60.0176C263.552 60.0176 262.727 61.3715 262.727 63.0379C262.727 64.7043 263.548 66.0582 264.567 66.0582C265.587 66.0582 266.408 64.7043 266.408 63.0379C266.408 61.3715 265.587 60.0176 264.567 60.0176Z" fill="#231F20"/>
<path d="M264.06 64.7168C264.615 64.7168 265.065 63.9792 265.065 63.0693C265.065 62.1595 264.615 61.4219 264.06 61.4219C263.505 61.4219 263.055 62.1595 263.055 63.0693C263.055 63.9792 263.505 64.7168 264.06 64.7168Z" fill="#7099ED"/>
<path d="M336.137 66.0582C337.154 66.0582 337.978 64.706 337.978 63.0379C337.978 61.3698 337.154 60.0176 336.137 60.0176C335.121 60.0176 334.297 61.3698 334.297 63.0379C334.297 64.706 335.121 66.0582 336.137 66.0582Z" fill="#7099ED"/>
<path d="M280.789 58.0039H269.75V67.7324H280.789V58.0039Z" fill="#7099ED"/>
<path d="M479.647 143.354V154.148H463.87V143.354H479.647ZM480.119 142.881H463.398V154.621H480.119V142.881Z" fill="white"/>
<path d="M457.57 128.93V131.34H450.152V128.93H457.57ZM458.042 128.457H449.68V131.813H458.042V128.457Z" fill="white"/>
<path d="M464.261 128.93V131.34H458.183V128.93H464.261ZM464.733 128.457H457.711V131.813H464.733V128.457Z" fill="white"/>
<path d="M373.096 73.4375H356.375V101.955H373.096V73.4375Z" fill="#231F20" stroke="#231F20" stroke-miterlimit="10"/>
<path d="M365.234 91.2196C367.914 91.2196 370.086 88.6656 370.086 85.5151C370.086 82.3646 367.914 79.8105 365.234 79.8105C362.555 79.8105 360.383 82.3646 360.383 85.5151C360.383 88.6656 362.555 91.2196 365.234 91.2196Z" fill="#7099ED" stroke="#231F20" stroke-miterlimit="10"/>
<path d="M400.518 73.4375H383.797V101.955H400.518V73.4375Z" fill="#231F20" stroke="#231F20" stroke-miterlimit="10"/>
<path d="M392.662 86.8595C394.632 86.8595 396.229 84.9816 396.229 82.6651C396.229 80.3486 394.632 78.4707 392.662 78.4707C390.691 78.4707 389.094 80.3486 389.094 82.6651C389.094 84.9816 390.691 86.8595 392.662 86.8595Z" fill="#7099ED" stroke="#231F20" stroke-miterlimit="10"/>
<path d="M392.662 98.5997C394.632 98.5997 396.229 96.7218 396.229 94.4053C396.229 92.0888 394.632 90.2109 392.662 90.2109C390.691 90.2109 389.094 92.0888 389.094 94.4053C389.094 96.7218 390.691 98.5997 392.662 98.5997Z" fill="#7099ED" stroke="#231F20" stroke-miterlimit="10"/>
<path d="M499.182 73.3535H482.461V101.871H499.182V73.3535Z" fill="#231F20" stroke="#231F20" stroke-miterlimit="10"/>
<path d="M490.82 93.3173C493.5 93.3173 495.672 90.7633 495.672 87.6127C495.672 84.4622 493.5 81.9082 490.82 81.9082C488.141 81.9082 485.969 84.4622 485.969 87.6127C485.969 90.7633 488.141 93.3173 490.82 93.3173Z" stroke="white" stroke-miterlimit="10"/>
<path d="M488.477 86.2734V88.6215" stroke="white" stroke-miterlimit="10"/>
<path d="M493.156 86.2734V88.6215" stroke="white" stroke-miterlimit="10"/>
<path d="M490.82 88.957V91.3051" stroke="white" stroke-miterlimit="10"/>
<path d="M479.447 73.3535H462.727V101.871H479.447V73.3535Z" fill="#231F20" stroke="#231F20" stroke-miterlimit="10"/>
<path d="M471.086 93.3173C473.765 93.3173 475.937 90.7633 475.937 87.6127C475.937 84.4622 473.765 81.9082 471.086 81.9082C468.406 81.9082 466.234 84.4622 466.234 87.6127C466.234 90.7633 468.406 93.3173 471.086 93.3173Z" stroke="white" stroke-miterlimit="10"/>
<path d="M468.742 86.2734V88.6215" stroke="white" stroke-miterlimit="10"/>
<path d="M473.422 86.2734V88.6215" stroke="white" stroke-miterlimit="10"/>
<path d="M471.086 88.957V91.3051" stroke="white" stroke-miterlimit="10"/>
<path d="M459.385 73.3535H442.664V101.871H459.385V73.3535Z" fill="#231F20" stroke="#231F20" stroke-miterlimit="10"/>
<path d="M451.023 93.3173C453.703 93.3173 455.875 90.7633 455.875 87.6127C455.875 84.4622 453.703 81.9082 451.023 81.9082C448.344 81.9082 446.172 84.4622 446.172 87.6127C446.172 90.7633 448.344 93.3173 451.023 93.3173Z" stroke="white" stroke-miterlimit="10"/>
<path d="M448.68 86.2734V88.6215" stroke="white" stroke-miterlimit="10"/>
<path d="M453.359 86.2734V88.6215" stroke="white" stroke-miterlimit="10"/>
<path d="M451.023 88.957V91.3051" stroke="white" stroke-miterlimit="10"/>
<path d="M412.89 180.531V188.579H367.745C366.225 188.579 364.739 188.428 363.304 188.144C363.101 188.101 362.898 188.058 362.7 188.016H362.691C362.488 187.968 362.289 187.916 362.091 187.869H362.082C361.884 187.812 361.685 187.76 361.492 187.703C361.487 187.708 361.482 187.703 361.482 187.703C361.284 187.647 361.091 187.585 360.897 187.523C360.897 187.523 360.894 187.523 360.888 187.523C360.694 187.462 360.501 187.396 360.307 187.329C359.09 186.908 357.919 186.387 356.805 185.777C355.692 185.161 354.635 184.46 353.643 183.679H353.639C352.449 182.737 351.355 181.682 350.373 180.531C346.951 176.521 344.884 171.319 344.884 165.638V47.1728C344.884 39.0445 338.357 32.4168 330.287 32.289C330.207 32.2842 330.122 32.2842 330.042 32.2842H275.897C267.713 32.2842 261.054 38.964 261.054 47.1728V165.638C261.054 173.851 267.713 180.531 275.897 180.531H290.413V188.579H275.897C263.286 188.579 253.031 178.287 253.031 165.638V47.1728C253.031 34.5234 263.286 24.2363 275.897 24.2363H330.042C330.122 24.2363 330.207 24.2363 330.287 24.2411C342.784 24.3689 352.907 34.6039 352.907 47.1728V165.638C352.907 173.851 359.571 180.531 367.754 180.531H412.89Z" fill="#231F20" stroke="#231F20" stroke-miterlimit="10"/>
<path d="M367.746 188.579H290.414V180.531H350.374C351.355 181.682 352.45 182.737 353.639 183.679H353.644C354.635 184.461 355.692 185.161 356.806 185.777C357.92 186.387 359.09 186.908 360.308 187.329C360.501 187.396 360.695 187.462 360.888 187.523C360.888 187.523 360.892 187.523 360.898 187.523C361.091 187.585 361.285 187.647 361.483 187.703C361.483 187.703 361.488 187.708 361.492 187.703C361.686 187.76 361.884 187.812 362.082 187.869H362.092C362.29 187.916 362.488 187.968 362.691 188.016H362.701C362.899 188.058 363.102 188.101 363.305 188.144C364.739 188.428 366.226 188.579 367.746 188.579Z" fill="#231F20" stroke="#231F20" stroke-miterlimit="10"/>
<path d="M400.155 150.604H391.887C376.473 150.604 363.977 167.793 363.977 188.997C363.977 210.201 376.473 227.39 391.887 227.39H400.155C415.158 227.39 427.32 210.201 427.32 188.997C427.32 167.793 415.158 150.604 400.155 150.604Z" fill="#7099ED" stroke="#231F20" stroke-miterlimit="10"/>
<path d="M403.387 213.22C412.389 213.22 419.687 202.907 419.687 190.184C419.687 177.462 412.389 167.148 403.387 167.148C394.384 167.148 387.086 177.462 387.086 190.184C387.086 202.907 394.384 213.22 403.387 213.22Z" fill="#231F20" stroke="#231F20" stroke-miterlimit="10"/>
<path d="M399.114 206.432C405.463 206.432 410.61 199.158 410.61 190.185C410.61 181.212 405.463 173.938 399.114 173.938C392.764 173.938 387.617 181.212 387.617 190.185C387.617 199.158 392.764 206.432 399.114 206.432Z" stroke="white" stroke-miterlimit="10"/>
<path d="M402.848 224.649C416.485 224.649 427.54 209.024 427.54 189.749C427.54 170.475 416.485 154.85 402.848 154.85C389.211 154.85 378.156 170.475 378.156 189.749C378.156 209.024 389.211 224.649 402.848 224.649Z" stroke="#231F20" stroke-miterlimit="10"/>
<path d="M401.579 181.92H398.375C395.057 181.92 392.367 185.617 392.367 190.186C392.367 194.754 395.057 198.451 398.375 198.451H401.579C404.807 198.451 407.427 194.754 407.427 190.186C407.427 185.617 404.807 181.92 401.579 181.92Z" stroke="white" stroke-miterlimit="10"/>
<path d="M403.365 195.557C404.934 195.557 406.206 193.154 406.206 190.189C406.206 187.224 404.934 184.82 403.365 184.82C401.795 184.82 400.523 187.224 400.523 190.189C400.523 193.154 401.795 195.557 403.365 195.557Z" fill="white"/>
<path d="M440.312 134.498V177.777" stroke="white" stroke-miterlimit="10"/>
<path d="M316.907 113.695H309.549C301.054 113.695 294.164 126.463 294.164 142.213C294.164 157.963 301.05 170.731 309.549 170.731H316.907C325.402 170.731 332.292 157.963 332.292 142.213C332.292 126.463 325.406 113.695 316.907 113.695Z" fill="#7099ED" stroke="#231F20" stroke-miterlimit="10"/>
<path d="M308.883 167.376C315.164 167.376 320.252 156.336 320.252 142.716C320.252 129.096 315.16 118.057 308.883 118.057" stroke="#231F20" stroke-miterlimit="10"/>
<path d="M304.242 119.406L306.144 134.64" stroke="#231F20" stroke-miterlimit="10"/>
<path d="M301.555 121.65L305.231 135.308" stroke="#231F20" stroke-miterlimit="10"/>
<path d="M299.234 125.309L304.435 136.457" stroke="#231F20" stroke-miterlimit="10"/>
<path d="M297.43 130.129L303.801 138.011" stroke="#231F20" stroke-miterlimit="10"/>
<path d="M296.273 135.785L303.381 139.866" stroke="#231F20" stroke-miterlimit="10"/>
<path d="M295.836 141.887H303.193" stroke="#231F20" stroke-miterlimit="10"/>
<path d="M296.148 148.028L303.256 143.947" stroke="#231F20" stroke-miterlimit="10"/>
<path d="M297.203 153.779L303.574 145.896" stroke="#231F20" stroke-miterlimit="10"/>
<path d="M298.906 158.754L304.107 147.605" stroke="#231F20" stroke-miterlimit="10"/>
<path d="M301.156 162.619L304.837 148.961" stroke="#231F20" stroke-miterlimit="10"/>
<path d="M303.797 165.099L305.699 149.869" stroke="#231F20" stroke-miterlimit="10"/>
<path d="M306.641 166.031V150.262" stroke="#231F20" stroke-miterlimit="10"/>
<path d="M309.511 165.354L307.609 150.125" stroke="#231F20" stroke-miterlimit="10"/>
<path d="M312.197 163.111L308.516 149.453" stroke="#231F20" stroke-miterlimit="10"/>
<path d="M314.513 159.451L309.312 148.303" stroke="#231F20" stroke-miterlimit="10"/>
<path d="M316.316 154.632L309.945 146.75" stroke="#231F20" stroke-miterlimit="10"/>
<path d="M317.475 148.979L310.367 144.898" stroke="#231F20" stroke-miterlimit="10"/>
<path d="M317.912 142.873H310.555" stroke="#231F20" stroke-miterlimit="10"/>
<path d="M317.592 136.736L310.484 140.817" stroke="#231F20" stroke-miterlimit="10"/>
<path d="M316.548 130.98L310.172 138.867" stroke="#231F20" stroke-miterlimit="10"/>
<path d="M314.841 126.004L309.641 137.153" stroke="#231F20" stroke-miterlimit="10"/>
<path d="M312.59 122.143L308.914 135.8" stroke="#231F20" stroke-miterlimit="10"/>
<path d="M309.949 119.66L308.047 134.89" stroke="#231F20" stroke-miterlimit="10"/>
<path d="M307.109 118.729V134.498" stroke="#231F20" stroke-miterlimit="10"/>
<path d="M341.319 138.521H322.258V144.562H341.319V138.521Z" fill="#7099ED" stroke="#231F20" stroke-miterlimit="10"/>
<path d="M341.324 138.521H324.977V144.562H341.324V138.521Z" fill="#7099ED" stroke="#231F20" stroke-miterlimit="10"/>
<path d="M336.498 112.99L334.563 111.314L317.578 116.721V120.077L319.027 122.757H330.363C330.405 121.625 330.58 119.945 331.194 118.06C331.854 116.025 334.7 114.576 336.503 112.995L336.498 112.99Z" fill="#7099ED" stroke="#231F20" stroke-linejoin="round"/>
<path d="M336.443 113.023L319.023 118.728V122.752H332.294C332.337 121.62 332.511 119.94 333.125 118.056C333.786 116.02 335.801 113.899 336.443 113.023Z" fill="#7099ED" stroke="#231F20" stroke-linejoin="round"/>
<path d="M337.533 170.391L335.561 172.067L318.25 166.661V163.304L319.727 160.625H331.28C331.323 161.756 331.502 163.437 332.125 165.321C332.8 167.357 335.698 168.805 337.533 170.387V170.391Z" fill="#7099ED" stroke="#231F20" stroke-linejoin="round"/>
<path d="M337.473 170.357L319.719 164.653V160.629H333.244C333.287 161.76 333.466 163.441 334.089 165.325C334.764 167.361 336.817 169.482 337.473 170.357Z" fill="#7099ED" stroke="#231F20" stroke-linejoin="round"/>
<path d="M422.094 75.4874C422.301 75.4874 422.816 75.5442 423.122 76.0886L435.445 97.9599C435.747 98.4949 435.539 98.9636 435.435 99.1387C435.331 99.3139 435.029 99.7257 434.416 99.7257H409.776C409.167 99.7257 408.861 99.3139 408.757 99.1387C408.653 98.9636 408.45 98.4949 408.747 97.9599L421.07 76.0886C421.376 75.5442 421.891 75.4874 422.098 75.4874M422.098 73.5938C421.055 73.5938 420.017 74.1145 419.427 75.156L407.105 97.0273C405.949 99.0772 407.426 101.619 409.776 101.619H434.416C436.766 101.619 438.243 99.0819 437.087 97.0273L424.765 75.156C424.18 74.1145 423.137 73.5938 422.094 73.5938H422.098Z" fill="#231F20"/>
<path d="M507.378 62.3691H352.195V70.5875H507.378V62.3691Z" fill="#231F20" stroke="#231F20" stroke-miterlimit="10"/>
</g>
</g>
<defs>
<clipPath id="clip0_9500_24167">
<rect x="0.296875" width="535.5" height="227" rx="16" fill="white"/>
</clipPath>
<clipPath id="clip1_9500_24167">
<rect width="261" height="204" fill="white" transform="translate(252.797 24)"/>
</clipPath>
</defs>
</svg>
