<svg width="536" height="227" viewBox="0 0 536 227" fill="none" xmlns="http://www.w3.org/2000/svg">
<g clip-path="url(#clip0_9500_24103)">
<rect x="0.296875" width="535.5" height="227" rx="16" fill="#7099ED"/>
<g clip-path="url(#clip1_9500_24103)">
<path d="M475.067 54.4592L446.878 47.5842L435.059 39.4682L462.408 45.7667L475.067 54.4592Z" fill="#F4F3F1"/>
<path d="M506.292 75.8993L496.102 90.7396L473.297 75.0801L459.37 65.5168L442.513 53.9419L442.521 53.9299L446.879 47.5835L475.068 54.4585L506.292 75.8993Z" fill="#F4F3F1"/>
<path d="M446.882 47.5847L435.062 39.4688L430.705 45.8152L442.524 53.9311L446.882 47.5847Z" fill="#F4F3F1"/>
<path d="M395.864 189.606C394.891 191.05 392.93 191.429 391.495 190.444L381.081 183.293C379.646 182.307 379.296 180.342 380.294 178.914L459.369 65.5174L473.296 75.0807L395.864 189.606Z" fill="#FF8B63"/>
<path d="M473.296 75.0807L395.864 189.606C394.891 191.05 392.93 191.429 391.495 190.444L381.081 183.293C379.646 182.307 379.296 180.342 380.294 178.914L459.369 65.5174" stroke="#231F20" stroke-miterlimit="10"/>
<path d="M442.521 53.9299L442.513 53.9419L459.37 65.5168L473.297 75.0801L496.102 90.7396L506.292 75.8993L475.068 54.4585L446.879 47.5835L442.521 53.9299Z" stroke="#231F20" stroke-miterlimit="10"/>
<path d="M446.882 47.5847L435.062 39.4688L430.705 45.8152L442.524 53.9311" stroke="#231F20" stroke-miterlimit="10"/>
<path d="M475.067 54.4592L462.408 45.7667L435.059 39.4682" stroke="#231F20" stroke-miterlimit="10"/>
</g>
<path d="M34.3379 42L40.5195 27.7129H43.1855L49.377 42H46.4277L42.3164 31.9219C42.1927 31.6289 42.0885 31.349 42.0039 31.082C41.9193 30.8086 41.8411 30.5482 41.7695 30.3008H41.6719C41.5938 30.5482 41.5124 30.8086 41.4277 31.082C41.3431 31.3555 41.2422 31.6354 41.125 31.9219L36.9844 42H34.3379ZM37.1992 38.6699L37.9609 36.6484H45.6172L46.3789 38.6699H37.1992ZM50.8613 42V27.7812H57.0625C58.8919 27.7812 60.2917 28.1719 61.2617 28.9531C62.2383 29.7344 62.7266 30.877 62.7266 32.3809C62.7266 33.8522 62.2415 34.9948 61.2715 35.8086C60.3014 36.6224 58.8952 37.0163 57.0527 36.9902H53.5762V42H50.8613ZM53.5762 34.9785H56.8184C57.9902 34.9785 58.8171 34.7539 59.2988 34.3047C59.7806 33.849 60.0215 33.2109 60.0215 32.3906C60.0215 31.5638 59.7806 30.9323 59.2988 30.4961C58.8171 30.0534 57.9902 29.832 56.8184 29.832H53.5762V34.9785ZM64.8262 42V27.7812H75.6367V29.8809H67.5117V33.6699H74.6406V35.7109H67.5117V39.9102H75.7539V42H64.8262ZM78.0488 42V27.7812H80.7637V33.6113H88.498V27.7812H91.2031V42H88.498V35.7207H80.7637V42H78.0488ZM106.643 44.8223V42H95.4512V44.8223H92.9609V39.9102H109.133V44.8223H106.643ZM95.793 27.7812H107.248V41.4922H104.572V29.8711H98.0781L97.7852 35.1445C97.707 36.5443 97.5768 37.6543 97.3945 38.4746C97.2188 39.2949 96.9648 39.9883 96.6328 40.5547H94.0156C94.4453 39.9232 94.7643 39.1908 94.9727 38.3574C95.1875 37.5241 95.3307 36.4173 95.4023 35.0371L95.793 27.7812ZM110.373 35.1445V34.6074C110.373 32.2376 111.063 30.4603 112.443 29.2754C113.824 28.084 115.588 27.4883 117.736 27.4883C119.878 27.4883 121.643 28.084 123.029 29.2754C124.423 30.4603 125.119 32.2376 125.119 34.6074V35.1445C125.119 37.5339 124.423 39.3242 123.029 40.5156C121.643 41.7005 119.878 42.293 117.736 42.293C115.588 42.293 113.824 41.7005 112.443 40.5156C111.063 39.3242 110.373 37.5339 110.373 35.1445ZM113.156 35.3105C113.156 36.9902 113.573 38.2272 114.406 39.0215C115.246 39.8092 116.356 40.2031 117.736 40.2031C119.117 40.2031 120.23 39.8092 121.076 39.0215C121.923 38.2272 122.346 36.9902 122.346 35.3105V34.4609C122.346 32.7812 121.923 31.5508 121.076 30.7695C120.236 29.9818 119.123 29.5879 117.736 29.5879C116.356 29.5879 115.246 29.9818 114.406 30.7695C113.573 31.5508 113.156 32.778 113.156 34.4512V35.3105ZM139.904 44.8223V42H128.713V44.8223H126.223V39.9102H142.395V44.8223H139.904ZM129.055 27.7812H140.51V41.4922H137.834V29.8711H131.34L131.047 35.1445C130.969 36.5443 130.839 37.6543 130.656 38.4746C130.48 39.2949 130.227 39.9883 129.895 40.5547H127.277C127.707 39.9232 128.026 39.1908 128.234 38.3574C128.449 37.5241 128.592 36.4173 128.664 35.0371L129.055 27.7812ZM142.521 42L148.703 27.7129H151.369L157.561 42H154.611L150.5 31.9219C150.376 31.6289 150.272 31.349 150.188 31.082C150.103 30.8086 150.025 30.5482 149.953 30.3008H149.855C149.777 30.5482 149.696 30.8086 149.611 31.082C149.527 31.3555 149.426 31.6354 149.309 31.9219L145.168 42H142.521ZM145.383 38.6699L146.145 36.6484H153.801L154.562 38.6699H145.383ZM157.658 29.8906V27.7812H170.734V29.8906H165.559V42H162.844V29.8906H157.658ZM172.58 42V27.7812H183.391V29.8809H175.266V33.6699H182.395V35.7109H175.266V39.9102H183.508V42H172.58ZM187.463 27.7812H198.879V42H196.174V29.8711H189.748L189.387 36.5898C189.296 38.4518 188.993 39.8646 188.479 40.8281C187.964 41.7917 186.988 42.2734 185.549 42.2734C185.327 42.2734 185.116 42.2572 184.914 42.2246C184.712 42.1986 184.514 42.1497 184.318 42.0781V39.7734C184.468 39.8255 184.608 39.8613 184.738 39.8809C184.875 39.9004 185.015 39.9102 185.158 39.9102C185.803 39.9102 186.255 39.6367 186.516 39.0898C186.776 38.543 186.942 37.5924 187.014 36.2383L187.463 27.7812ZM213.479 42H210.764V36.6582H206.047L205.559 36.4043C204.322 36.2415 203.374 35.7793 202.717 35.0176C202.059 34.2559 201.73 33.3021 201.73 32.1562C201.73 30.8151 202.209 29.7507 203.166 28.9629C204.13 28.1751 205.487 27.7812 207.238 27.7812H213.479V42ZM210.764 34.6562V29.8125H207.463C206.324 29.8125 205.536 30.0273 205.1 30.457C204.663 30.8802 204.445 31.4564 204.445 32.1855C204.445 32.9212 204.663 33.5169 205.1 33.9727C205.536 34.4284 206.324 34.6562 207.463 34.6562H210.764ZM203.957 42H201.066L205.197 35.4668H207.951L203.957 42ZM216.721 42V27.7812H219.934L224.709 38.0352C224.807 38.2435 224.904 38.4551 225.002 38.6699C225.1 38.8783 225.174 39.0573 225.227 39.207H225.285C225.337 39.0573 225.406 38.8783 225.49 38.6699C225.575 38.4551 225.663 38.2435 225.754 38.0352L230.588 27.7812H233.869V42H231.193L231.203 32.3516C231.203 32.1497 231.21 31.9349 231.223 31.707C231.236 31.4727 231.249 31.2578 231.262 31.0625H231.193C231.148 31.2578 231.089 31.4727 231.018 31.707C230.952 31.9349 230.874 32.1497 230.783 32.3516L226.271 42H223.967L219.475 32.3516C219.377 32.1562 219.292 31.9447 219.221 31.7168C219.149 31.4824 219.09 31.2643 219.045 31.0625H218.977C218.99 31.2643 219.003 31.4824 219.016 31.7168C219.035 31.9447 219.045 32.1595 219.045 32.3613V42H216.721Z" fill="white"/>
<g clip-path="url(#clip2_9500_24103)">
<path d="M492.072 207.027C490.725 211.095 489.38 215.156 488.033 219.224C486.534 223.746 484.164 227.941 481.019 231.518C473.926 239.567 465.343 247.732 454.98 255.26C400.692 294.696 337.098 287.988 315.717 284.742" stroke="#231F20" stroke-width="6" stroke-miterlimit="10"/>
<path d="M506.931 148.627C509.535 149.568 513.527 151.515 515.047 155.345C516.32 158.552 514.95 160.759 510.631 172.008C506.465 182.869 505.884 185.656 502.84 186.853C499.524 188.151 495.861 186.555 493.721 185.358C489.9 189.908 490.168 195.805 492.801 198.275C495.802 201.08 503.019 200.525 506.989 194.592C512.467 180.891 517.94 167.193 523.421 153.497C520.615 150.199 517.813 146.897 515.007 143.599C512.312 145.277 509.625 146.957 506.93 148.635L506.931 148.627Z" fill="#231F20"/>
<path d="M412.464 109.914L409.479 110.264C408.07 108.634 406.299 107.735 404.491 107.95C402.683 108.164 401.173 109.453 400.179 111.364L369.476 114.995C368.098 113.502 366.405 112.695 364.68 112.904C360.99 113.339 358.539 118.231 359.206 123.834C359.874 129.438 363.4 133.622 367.09 133.187C369.057 132.952 370.668 131.454 371.649 129.262L401.726 125.706C403.168 127.471 405.013 128.466 406.9 128.241C408.787 128.016 410.351 126.628 411.336 124.572L414.166 124.239C418.115 123.771 420.941 120.186 420.471 116.236C420.002 112.286 416.415 109.458 412.466 109.926L412.464 109.914Z" fill="#231F20"/>
<path d="M492.112 215.48L486.979 213.488L490.63 199.703L498.695 202.834L492.112 215.48Z" fill="#231F20"/>
<path d="M482.582 208.437L445.622 194.104C443.915 193.439 442.902 191.672 443.196 189.864L444.196 183.761L490.599 201.757L487.222 206.94C486.223 208.476 484.285 209.097 482.577 208.44L482.582 208.437Z" fill="#231F20"/>
<path d="M442.265 184.64C440.955 182.942 440.623 180.473 441.4 178.206L450.968 150.213C451.652 148.221 451.352 146.049 450.19 144.542C449.69 143.893 449.066 143.406 448.334 143.089L432.559 136.24C431.138 135.624 429.869 134.63 428.88 133.367L416.643 117.729L425.363 96.9242C426.986 96.0941 428.737 95.975 430.314 96.586L480.617 116.097C482.618 116.869 484.389 118.213 485.749 119.975C486.143 120.487 486.505 121.031 486.825 121.607L486.862 121.673L509.727 135.544C512.614 140.768 512.997 147.531 510.751 153.662L499.368 184.709C496.529 192.449 489.98 198.069 482.688 199.018L482.379 199.06L482.728 200.721L444.338 186.261C443.535 185.919 442.837 185.372 442.28 184.65L442.265 184.64ZM504.225 152.083C501.749 148.873 493.474 143.733 487.997 140.332C485.855 138.998 484.165 137.95 483.576 137.479L482.447 136.572C482.038 136.24 481.504 136.134 480.981 136.276C480.359 136.442 479.844 136.926 479.588 137.576L465.142 174.874C464.87 175.579 464.96 176.355 465.382 176.903C465.646 177.246 466.024 177.471 466.445 177.526L467.474 177.671C468.039 177.752 469.254 177.996 470.789 178.297C482.743 180.665 493.949 182.479 495.009 179.747L504.906 154.202C505.121 153.65 504.898 152.955 504.229 152.087L504.225 152.083Z" fill="#7099ED"/>
<path d="M509.494 135.745C512.309 140.886 512.669 147.535 510.458 153.559L499.075 184.606C496.272 192.252 489.816 197.794 482.632 198.731L482.018 198.812L482.145 199.421L482.325 200.258L444.451 185.996C443.68 185.666 443.023 185.154 442.494 184.469C441.244 182.848 440.928 180.484 441.669 178.303L451.237 150.31C451.945 148.227 451.633 145.954 450.411 144.369C449.883 143.684 449.218 143.163 448.443 142.828L432.669 135.979C431.29 135.381 430.058 134.416 429.098 133.19L416.963 117.685L425.575 97.1372C427.094 96.388 428.727 96.2866 430.195 96.8587L480.497 116.37C482.45 117.128 484.181 118.437 485.505 120.154C485.889 120.652 486.244 121.187 486.554 121.749L486.627 121.882L486.761 121.961L509.492 135.753M465.152 177.079C465.462 177.481 465.905 177.744 466.401 177.812L467.431 177.958C467.991 178.043 469.199 178.277 470.73 178.582C484.687 181.348 494.204 182.624 495.272 179.855L505.169 154.31C505.427 153.653 505.191 152.866 504.455 151.911C501.947 148.66 493.642 143.5 488.149 140.089C486.014 138.765 484.332 137.717 483.758 137.256L482.629 136.35C482.149 135.963 481.52 135.836 480.907 135.995C480.201 136.184 479.607 136.736 479.323 137.472L464.878 174.771C464.569 175.569 464.677 176.455 465.156 177.076M509.928 135.336L487.063 121.465C486.732 120.876 486.368 120.319 485.966 119.798C484.579 117.999 482.773 116.631 480.706 115.829L430.404 96.3185C428.732 95.6707 426.835 95.8159 425.123 96.7211L416.297 117.776L428.642 133.542C429.665 134.851 430.961 135.861 432.437 136.5L448.212 143.349C448.912 143.654 449.497 144.128 449.951 144.717C451.025 146.11 451.359 148.147 450.686 150.115L441.119 178.108C440.282 180.553 440.696 183.081 442.031 184.812C442.601 185.552 443.339 186.14 444.215 186.521L483.096 201.163L482.703 199.296C490.112 198.329 496.735 192.653 499.612 184.803L510.996 153.756C513.296 147.488 512.896 140.666 509.917 135.331L509.928 135.336ZM465.613 176.724C465.271 176.281 465.167 175.618 465.414 174.976L479.86 137.677C480.279 136.597 481.475 136.155 482.268 136.796L483.396 137.703C485.483 139.378 500.56 147.807 503.998 152.264C504.569 153.003 504.817 153.627 504.637 154.102L494.739 179.647C493.383 183.155 470.766 177.855 467.516 177.389L466.487 177.244C466.124 177.189 465.819 177.001 465.608 176.727L465.613 176.724Z" fill="#231F20"/>
<path d="M453.048 188.347C451.664 186.553 451.272 184.204 451.992 182.061L461.383 154C462.017 152.113 461.668 150.037 460.445 148.452C459.825 147.648 459.002 147.016 458.067 146.615L439.834 138.815C438.19 138.109 436.692 137.036 435.504 135.694L429.277 124.233C428.482 122.778 428.4 121.057 429.053 119.526L435.62 104.037C436.764 101.349 439.754 100.033 442.427 101.045L512.553 128.237C515.18 129.255 517.471 130.969 519.186 133.193C519.274 133.307 519.362 133.421 519.442 133.535C519.611 133.754 519.76 133.974 519.907 134.203L524.277 140.906C527.853 146.392 528.656 153.341 526.415 159.497L515.118 190.58C512.303 198.323 505.175 203.712 496.956 204.298L493.118 204.57C492.733 204.599 492.354 204.599 492 204.574C491.062 204.518 490.152 204.302 489.29 203.94L483.945 201.682L455.763 190.442C454.694 189.991 453.756 189.265 453.048 188.347ZM518.603 151.757C518.145 151.164 517.605 150.633 516.997 150.185L515.672 149.204C514.966 148.685 514.015 148.669 513.297 149.164C512.964 149.392 512.704 149.716 512.551 150.103L498.105 187.402C497.956 187.794 497.927 188.209 498.024 188.608C498.09 188.892 498.22 189.164 498.399 189.397C498.709 189.799 499.159 190.07 499.662 190.156L500.832 190.361C504.659 191.028 508.455 188.88 509.863 185.259L519.756 159.717C520.781 157.063 520.343 154.013 518.607 151.762L518.603 151.757Z" fill="#FF8B63"/>
<path d="M518.957 133.37C519.042 133.48 519.126 133.589 519.213 133.712C519.354 133.894 519.492 134.101 519.661 134.357L524.03 141.06C527.563 146.471 528.349 153.323 526.14 159.397L514.842 190.479C512.07 198.117 505.035 203.428 496.931 204.012L493.093 204.285C492.72 204.31 492.358 204.313 492.003 204.288C491.102 204.233 490.224 204.029 489.39 203.674L484.033 201.411L455.87 190.177C454.845 189.744 453.944 189.048 453.267 188.171C451.943 186.454 451.563 184.206 452.251 182.153L461.642 154.092C462.304 152.11 461.939 149.937 460.66 148.28C460.012 147.439 459.148 146.773 458.167 146.35L439.933 138.549C438.336 137.866 436.883 136.823 435.726 135.531L429.512 124.096C428.761 122.716 428.679 121.09 429.298 119.637L435.865 104.148C436.949 101.6 439.778 100.35 442.302 101.309L512.444 128.503C515.02 129.502 517.27 131.183 518.954 133.366M498.167 189.569C498.523 190.03 499.038 190.34 499.609 190.438L500.779 190.643C504.739 191.332 508.676 189.111 510.125 185.364L520.018 159.822C521.079 157.073 520.626 153.919 518.826 151.586C518.351 150.969 517.792 150.424 517.17 149.957L515.845 148.976C515.037 148.383 513.954 148.366 513.142 148.927C512.755 149.189 512.46 149.562 512.287 150.009L497.842 187.307C497.669 187.754 497.636 188.23 497.743 188.68C497.82 189.006 497.965 189.317 498.169 189.582M519.414 133.018C517.67 130.758 515.335 129.005 512.657 127.968L442.531 100.776C439.701 99.7027 436.539 101.144 435.359 103.927L428.792 119.415C428.113 121.017 428.198 122.845 429.033 124.371L435.277 135.863C436.508 137.251 438.027 138.352 439.733 139.083L457.967 146.883C458.89 147.278 459.654 147.891 460.228 148.635C461.352 150.092 461.74 152.057 461.118 153.913L451.727 181.974C450.953 184.283 451.436 186.722 452.831 188.53C453.549 189.462 454.511 190.227 455.665 190.714L483.84 201.954L489.185 204.211C490.082 204.59 491.023 204.81 491.986 204.869C492.369 204.894 492.76 204.891 493.146 204.863L496.984 204.59C505.328 203.988 512.542 198.54 515.396 190.679L526.694 159.596C528.974 153.321 528.172 146.336 524.523 140.746L520.153 134.043C520.002 133.809 519.846 133.588 519.682 133.365C519.593 133.251 519.51 133.133 519.422 133.019L519.414 133.018ZM498.627 189.222C498.472 189.021 498.361 188.793 498.307 188.543C498.227 188.212 498.248 187.853 498.383 187.509L512.829 150.21C512.964 149.866 513.188 149.591 513.472 149.401C514.054 148.996 514.88 148.971 515.514 149.435L516.839 150.416C517.432 150.855 517.95 151.366 518.387 151.932C520.042 154.078 520.515 156.984 519.494 159.607L509.601 185.148C508.245 188.656 504.597 190.713 500.89 190.069L499.72 189.865C499.265 189.785 498.89 189.543 498.632 189.21L498.627 189.222Z" fill="#231F20"/>
<path d="M403.636 113.348C401.864 111.051 401.939 106.07 403.812 101.23C404.969 98.2474 406.641 95.6762 408.519 93.9869C410.346 92.3443 412.142 91.746 413.567 92.3002L429.553 98.4986C430.081 98.7026 430.537 99.0576 430.921 99.5553C432.693 101.852 432.618 106.833 430.745 111.673C429.588 114.656 427.916 117.227 426.038 118.916C424.211 120.559 422.415 121.157 420.99 120.603L405.004 114.404C404.476 114.2 404.02 113.845 403.636 113.348Z" fill="#FF8B63"/>
<path d="M430.703 99.7319C432.415 101.951 432.327 106.82 430.486 111.568C428.224 117.414 423.924 121.429 421.106 120.333L405.12 114.135C404.642 113.95 404.224 113.624 403.875 113.172C402.163 110.953 402.252 106.085 404.093 101.336C406.355 95.4904 410.654 91.4747 413.473 92.5709L418.856 94.6605L429.459 98.7693C429.936 98.9544 430.355 99.2798 430.703 99.7319ZM431.16 99.3798C430.751 98.8501 430.251 98.4565 429.668 98.229C427.996 97.5812 415.354 92.6785 413.682 92.0307C410.511 90.7985 405.974 94.8738 403.553 101.126C401.58 106.224 401.619 111.191 403.419 113.524C403.827 114.054 404.327 114.448 404.911 114.675C406.582 115.323 419.225 120.226 420.896 120.873C424.067 122.106 428.605 118.03 431.026 111.778C432.998 106.68 432.96 101.713 431.16 99.3798Z" fill="#231F20"/>
<path d="M426.829 97.1308C425.967 96.7975 422.216 95.3423 418.54 93.9174C421.711 95.1496 422.319 101.214 419.898 107.466C417.477 113.719 412.944 117.79 409.768 116.562C413.445 117.987 417.196 119.442 418.057 119.775C421.228 121.007 425.765 116.932 428.186 110.68C430.608 104.427 430 98.363 426.829 97.1308Z" fill="#231F20"/>
<path d="M389.783 107.707C388.011 105.41 388.086 100.429 389.959 95.5896C391.116 92.6065 392.788 90.0353 394.666 88.346C396.493 86.7035 398.289 86.1052 399.714 86.6594L409.122 90.3054C409.651 90.5094 410.107 90.8643 410.491 91.3621C412.263 93.659 412.188 98.6402 410.315 103.479C409.158 106.462 407.486 109.034 405.608 110.723C403.781 112.365 401.985 112.964 400.56 112.41L391.152 108.764C390.623 108.559 390.167 108.205 389.783 107.707Z" fill="#231F20"/>
<path d="M410.269 91.5402C411.981 93.7596 411.892 98.6279 410.051 103.377C407.789 109.222 403.49 113.238 400.671 112.142L394.904 109.904L391.267 108.492C390.789 108.307 390.371 107.981 390.022 107.529C388.31 105.31 388.399 100.442 390.24 95.693C392.502 89.8476 396.801 85.8319 399.62 86.9281L409.028 90.5741C409.506 90.7592 409.925 91.0846 410.273 91.5367M410.73 91.1846C410.321 90.6549 409.821 90.2614 409.238 90.0339C407.566 89.3861 401.501 87.0356 399.829 86.3878C396.658 85.1557 392.121 89.231 389.7 95.4834C387.727 100.581 387.766 105.548 389.566 107.881C389.974 108.411 390.474 108.805 391.058 109.032C392.73 109.68 398.794 112.03 400.466 112.678C403.637 113.91 408.175 109.835 410.596 103.583C412.568 98.4851 412.53 93.5181 410.73 91.1846Z" fill="white"/>
<path d="M387.78 106.136C387.171 105.346 386.598 104.367 386.133 103.575C385.833 103.064 385.593 102.659 385.424 102.44C385.326 102.312 385.24 102.239 385.155 102.203C384.81 102.068 384.511 101.841 384.257 101.512C383.067 99.9683 383.122 96.6044 384.39 93.3315C385.173 91.3073 386.306 89.5668 387.58 88.4241C388.802 87.3283 389.992 86.9272 390.933 87.2872C391.144 87.372 391.498 87.2658 392.577 86.9365C393.981 86.5015 396.327 85.777 397.302 86.1538C397.803 86.3502 398.245 86.6868 398.615 87.1663C400.313 89.3673 400.24 94.1432 398.446 98.7829C397.338 101.641 395.733 104.11 393.933 105.731C392.181 107.301 390.463 107.876 389.1 107.347C388.736 107.205 388.295 106.803 387.784 106.14L387.78 106.136Z" fill="#231F20"/>
<path d="M398.38 87.3386C400.017 89.462 399.931 94.1251 398.169 98.6744C396 104.273 391.891 108.12 389.198 107.073C388.982 106.991 388.605 106.729 388.01 105.957C387.414 105.185 386.842 104.207 386.379 103.428C386.072 102.907 385.833 102.494 385.654 102.261C385.558 102.138 385.44 102.003 385.26 101.931C384.967 101.815 384.705 101.616 384.486 101.333C383.356 99.8672 383.425 96.6161 384.662 93.4337C386.171 89.5383 388.997 86.8409 390.829 87.5546C391.13 87.6717 391.459 87.5785 392.666 87.2084C393.942 86.8142 396.322 86.0778 397.199 86.4213C397.653 86.5952 398.053 86.9059 398.388 87.3397M398.844 86.9876C398.453 86.4807 397.972 86.1019 397.412 85.8856C395.822 85.269 391.433 87.1764 391.045 87.0235C388.881 86.1804 385.784 88.9621 384.133 93.2297C382.784 96.71 382.811 100.105 384.037 101.694C384.315 102.055 384.655 102.325 385.058 102.48C385.093 102.497 385.144 102.545 385.204 102.622C385.613 103.152 386.546 105.003 387.56 106.318C388.039 106.939 388.534 107.439 388.997 107.614C392.039 108.793 396.394 104.887 398.717 98.885C400.609 93.9949 400.575 89.2216 398.849 86.9841L398.844 86.9876Z" fill="white"/>
<path d="M374.964 97.5587C373.773 96.0152 373.828 92.6513 375.097 89.3785C376.666 85.3346 379.658 82.5682 381.639 83.3341L390.15 86.638C390.495 86.773 390.794 87.0008 391.048 87.3296C392.239 88.8731 392.183 92.237 390.915 95.5099C390.132 97.5341 388.999 99.2746 387.726 100.417C386.503 101.513 385.313 101.914 384.373 101.554L375.861 98.2503C375.517 98.1153 375.217 97.8875 374.964 97.5587Z" fill="#231F20"/>
<path d="M390.816 87.501C391.947 88.9668 391.878 92.2179 390.641 95.4004C389.876 97.3817 388.768 99.0884 387.528 100.198C386.408 101.201 385.296 101.599 384.474 101.279L380.218 99.6315L378.088 98.8052L375.958 97.979C375.665 97.8629 375.402 97.6646 375.184 97.3815C374.053 95.9156 374.123 92.6645 375.359 89.4821C376.124 87.5008 377.232 85.794 378.473 84.6841C379.593 83.6819 380.705 83.283 381.527 83.6031L384.859 84.8931L385.783 85.251L387.913 86.0772L390.042 86.9035C390.336 87.0195 390.593 87.2214 390.812 87.5045M391.268 87.1524C390.99 86.7916 390.651 86.5217 390.247 86.3667C389.46 86.0635 386.778 85.022 385.991 84.7188C385.204 84.4156 382.522 83.3741 381.735 83.0709C379.57 82.2278 376.474 85.0095 374.822 89.277C373.474 92.7574 373.501 96.1525 374.727 97.7417C375.005 98.1024 375.344 98.3724 375.748 98.5273C376.535 98.8305 379.217 99.872 380.004 100.175C380.791 100.478 383.473 101.52 384.26 101.823C386.425 102.666 389.521 99.8846 391.172 95.617C392.521 92.1367 392.494 88.7415 391.268 87.1524Z" fill="white"/>
<path d="M372.573 93.784C371.784 92.7611 371.809 90.5567 372.639 88.4235C373.155 87.0925 373.908 85.9441 374.76 85.1992C375.558 84.4966 376.338 84.244 376.949 84.4792C377.086 84.5339 377.234 84.4996 377.822 84.3453C378.536 84.1581 379.868 83.8082 380.389 84.0112C380.698 84.1293 380.971 84.3414 381.2 84.6382C382.246 85.9944 382.212 88.9048 381.127 91.7162C379.771 95.2162 377.147 97.5902 375.393 96.9112C375.236 96.8499 374.953 96.653 374.499 96.0639C374.206 95.6849 373.935 95.2675 373.72 94.9313C373.576 94.7072 373.459 94.5276 373.378 94.4226C373.311 94.3359 373.249 94.2744 373.167 94.2432C372.94 94.1563 372.742 94.0032 372.573 93.784Z" fill="#231F20"/>
<path d="M380.972 84.8137C381.958 86.0923 381.91 88.8898 380.856 91.6108C380.196 93.322 379.23 94.7881 378.146 95.7414C377.177 96.5905 376.209 96.9217 375.493 96.6441C375.411 96.6129 375.177 96.4799 374.722 95.8908C374.437 95.5209 374.17 95.1081 373.958 94.7765C373.81 94.5478 373.694 94.3682 373.602 94.2495C373.525 94.1491 373.424 94.0374 373.267 93.976C373.091 93.908 372.93 93.7845 372.796 93.6109C372.201 92.8392 371.976 90.9149 372.904 88.5312C373.403 87.2432 374.129 86.1367 374.945 85.4199C375.65 84.8039 376.343 84.5605 376.84 84.7523C377.071 84.8437 377.263 84.7904 377.888 84.6287C378.475 84.4744 379.845 84.1171 380.279 84.2843C380.542 84.388 380.773 84.566 380.967 84.8172M381.424 84.4651C381.17 84.1363 380.856 83.8902 380.489 83.744C379.604 83.3994 377.229 84.2846 377.049 84.212C375.565 83.6378 373.466 85.4754 372.364 88.3216C371.471 90.6276 371.505 92.8808 372.34 93.963C372.537 94.2187 372.776 94.4059 373.058 94.5163C373.078 94.5229 373.107 94.5514 373.149 94.6062C373.346 94.8619 373.78 95.6127 374.27 96.2475C374.604 96.6813 374.962 97.0606 375.283 97.1843C377.217 97.9359 379.952 95.535 381.392 91.8239C382.556 88.8212 382.512 85.8761 381.424 84.4651Z" fill="white"/>
<path d="M496.355 128.496L452.853 111.628C449.509 110.332 445.872 112.657 445.645 116.233L445.136 124.238C444.987 126.545 446.355 128.687 448.513 129.521L489.661 144.366" stroke="#231F20" stroke-miterlimit="10"/>
<path d="M244.405 39.6583C244.109 39.2747 244.038 38.7762 244.21 38.3299C244.474 37.6528 245.224 37.2933 245.917 37.5309L268.15 44.9481L374.209 86.0768C374.671 86.2598 375.076 86.5589 375.376 86.947C375.964 87.7096 376.104 88.6939 375.759 89.5866C375.218 90.9801 373.644 91.677 372.246 91.1386L266.226 50.0232C266.226 50.0232 266.171 49.9997 266.14 49.9874L244.9 40.0634C244.698 39.9715 244.531 39.8307 244.401 39.6618L244.405 39.6583Z" fill="#7099ED"/>
<path d="M375.152 87.1196C375.677 87.8 375.806 88.684 375.497 89.4828C375.263 90.0857 374.808 90.5612 374.218 90.8262C373.626 91.0867 372.966 91.1001 372.363 90.866L266.344 49.7506C266.344 49.7506 266.301 49.7327 266.277 49.7215L245.037 39.7975C244.878 39.7235 244.744 39.6157 244.638 39.4787C244.406 39.1773 244.35 38.7836 244.485 38.4312C244.69 37.8945 245.285 37.6178 245.833 37.7996L268.043 45.2056L374.114 86.3399C374.529 86.5004 374.889 86.769 375.157 87.116M375.613 86.764C375.289 86.3438 374.852 86.0037 374.323 85.7996L268.243 44.6724L246.01 37.2552C245.175 36.9745 244.26 37.4031 243.944 38.2296C243.728 38.7896 243.835 39.3914 244.181 39.8389C244.336 40.0398 244.54 40.2101 244.788 40.3244L266.029 50.2484C266.064 50.2653 266.095 50.2776 266.13 50.2944L372.149 91.4097C373.696 92.0085 375.435 91.2425 376.033 89.696C376.427 88.6781 376.228 87.5793 375.608 86.7756L375.613 86.764Z" fill="#231F20"/>
<path d="M519.67 133.364L491.971 204.864C491.009 204.805 490.059 204.583 489.17 204.205L483.825 201.948L512.509 127.912L512.654 127.968C515.469 129.059 517.904 130.932 519.674 133.369L519.67 133.364Z" fill="#231F20"/>
<path d="M441.458 109.964L437.108 108.277C436.716 108.125 436.275 108.32 436.124 108.712L435.986 109.066C435.834 109.458 436.029 109.899 436.421 110.051L440.77 111.738C441.162 111.89 441.603 111.695 441.755 111.304L441.892 110.949C442.044 110.557 441.85 110.116 441.458 109.964Z" fill="#231F20"/>
<path d="M412.856 112.651L408.507 110.965C408.115 110.813 407.674 111.007 407.522 111.399L407.385 111.754C407.233 112.146 407.427 112.587 407.819 112.739L412.169 114.425C412.561 114.577 413.002 114.383 413.153 113.991L413.291 113.636C413.443 113.244 413.248 112.803 412.856 112.651Z" fill="#231F20"/>
<path d="M417.317 107.745L412.968 106.058C412.576 105.906 412.135 106.101 411.983 106.493L411.845 106.848C411.694 107.24 411.888 107.681 412.28 107.833L416.63 109.519C417.022 109.671 417.463 109.477 417.614 109.085L417.752 108.73C417.904 108.338 417.709 107.897 417.317 107.745Z" fill="#231F20"/>
<path d="M419.372 102.421L415.022 100.734C414.63 100.582 414.189 100.777 414.038 101.169L413.9 101.523C413.748 101.915 413.943 102.356 414.335 102.508L418.685 104.195C419.076 104.347 419.517 104.152 419.669 103.761L419.807 103.406C419.958 103.014 419.764 102.573 419.372 102.421Z" fill="#231F20"/>
<path d="M419.762 97.4599L415.413 95.7732C415.021 95.6213 414.58 95.8158 414.428 96.2077L414.291 96.5625C414.139 96.9545 414.334 97.3954 414.726 97.5474L419.075 99.234C419.467 99.386 419.908 99.1915 420.06 98.7996L420.197 98.4448C420.349 98.0528 420.154 97.6119 419.762 97.4599Z" fill="#231F20"/>
<path d="M441.865 114.199L435.741 111.824C435.349 111.672 434.908 111.867 434.756 112.258L434.619 112.613C434.467 113.005 434.662 113.446 435.054 113.598L441.178 115.973C441.569 116.125 442.01 115.93 442.162 115.538L442.3 115.184C442.451 114.792 442.257 114.351 441.865 114.199Z" fill="#231F20"/>
<path d="M441.651 118.716L434.194 115.824C433.802 115.672 433.361 115.867 433.209 116.258L433.072 116.613C432.92 117.005 433.115 117.446 433.507 117.598L440.964 120.49C441.356 120.642 441.797 120.447 441.949 120.055L442.086 119.701C442.238 119.309 442.043 118.868 441.651 118.716Z" fill="#231F20"/>
<path d="M441.879 123.394L432.647 119.814C432.255 119.662 431.814 119.857 431.663 120.249L431.525 120.604C431.373 120.995 431.568 121.436 431.96 121.588L441.191 125.168C441.583 125.32 442.024 125.126 442.176 124.734L442.313 124.379C442.465 123.987 442.27 123.546 441.879 123.394Z" fill="#231F20"/>
<path d="M449.034 155.777L498.738 175.05" stroke="#231F20" stroke-miterlimit="10"/>
<path d="M445.355 166.599L494.616 185.703" stroke="#231F20" stroke-miterlimit="10"/>
</g>
</g>
<defs>
<clipPath id="clip0_9500_24103">
<rect x="0.296875" width="535.5" height="227" rx="16" fill="white"/>
</clipPath>
<clipPath id="clip1_9500_24103">
<rect width="80.0664" height="160.133" fill="white" transform="translate(440.789 30.4824) rotate(34.476)"/>
</clipPath>
<clipPath id="clip2_9500_24103">
<rect width="302.421" height="232.264" fill="white" transform="translate(370.891 -60) rotate(52.3544)"/>
</clipPath>
</defs>
</svg>
