<svg width="536" height="227" viewBox="0 0 536 227" fill="none" xmlns="http://www.w3.org/2000/svg">
<g clip-path="url(#clip0_9500_22622)">
<rect width="536" height="227" rx="16" fill="#7099ED"/>
<path d="M49.0898 42H46.4336V32.4785C46.4336 32.2702 46.4368 32.0423 46.4434 31.7949C46.4499 31.541 46.4596 31.3132 46.4727 31.1113H46.3555C46.2578 31.3066 46.1602 31.4987 46.0625 31.6875C45.9714 31.8763 45.8411 32.0814 45.6719 32.3027L38.6699 42H35.7988V27.7812H38.4648V37.293C38.4648 37.4948 38.4583 37.7194 38.4453 37.9668C38.4388 38.2142 38.4323 38.4421 38.4258 38.6504H38.5625C38.6341 38.4876 38.722 38.3021 38.8262 38.0938C38.9368 37.8854 39.0638 37.6803 39.207 37.4785L46.2188 27.7812H49.0898V42ZM51.6777 35.1641V34.6172C51.6777 32.2279 52.3581 30.444 53.7188 29.2656C55.0794 28.0807 56.834 27.4883 58.9824 27.4883C60.9681 27.4883 62.5501 27.9082 63.7285 28.748C64.9069 29.5814 65.5579 30.8216 65.6816 32.4688L65.7012 32.6738H62.957L62.9473 32.459C62.8561 31.4759 62.4688 30.7533 61.7852 30.291C61.1081 29.8223 60.1641 29.5879 58.9531 29.5879C57.612 29.5879 56.528 29.985 55.7012 30.7793C54.8809 31.5736 54.4707 32.791 54.4707 34.4316V35.3496C54.4707 37.0618 54.8809 38.2988 55.7012 39.0605C56.528 39.8223 57.612 40.2031 58.9531 40.2031C60.3073 40.2031 61.2904 39.9395 61.9023 39.4121C62.5143 38.8783 62.8626 38.1816 62.9473 37.3223L62.957 37.1172H65.7012L65.6914 37.332C65.5807 38.8555 64.9557 40.0632 63.8164 40.9551C62.6836 41.847 61.0755 42.293 58.9922 42.293C56.8307 42.293 55.0697 41.7135 53.709 40.5547C52.3548 39.3893 51.6777 37.5924 51.6777 35.1641ZM67.7129 42V27.7812H80.7695V42H78.0547V29.8711H70.4277V42H67.7129ZM83.3574 35.1445V34.6074C83.3574 32.2376 84.0475 30.4603 85.4277 29.2754C86.8079 28.084 88.5723 27.4883 90.7207 27.4883C92.8626 27.4883 94.627 28.084 96.0137 29.2754C97.4069 30.4603 98.1035 32.2376 98.1035 34.6074V35.1445C98.1035 37.5339 97.4069 39.3242 96.0137 40.5156C94.627 41.7005 92.8626 42.293 90.7207 42.293C88.5723 42.293 86.8079 41.7005 85.4277 40.5156C84.0475 39.3242 83.3574 37.5339 83.3574 35.1445ZM86.1406 35.3105C86.1406 36.9902 86.5573 38.2272 87.3906 39.0215C88.2305 39.8092 89.3405 40.2031 90.7207 40.2031C92.1009 40.2031 93.2142 39.8092 94.0605 39.0215C94.9069 38.2272 95.3301 36.9902 95.3301 35.3105V34.4609C95.3301 32.7812 94.9069 31.5508 94.0605 30.7695C93.2207 29.9818 92.1074 29.5879 90.7207 29.5879C89.3405 29.5879 88.2305 29.9818 87.3906 30.7695C86.5573 31.5508 86.1406 32.778 86.1406 34.4512V35.3105ZM102.342 27.7812H113.758V42H111.053V29.8711H104.627L104.266 36.5898C104.174 38.4518 103.872 39.8646 103.357 40.8281C102.843 41.7917 101.867 42.2734 100.428 42.2734C100.206 42.2734 99.9948 42.2572 99.793 42.2246C99.5911 42.1986 99.3926 42.1497 99.1973 42.0781V39.7734C99.347 39.8255 99.487 39.8613 99.6172 39.8809C99.7539 39.9004 99.8939 39.9102 100.037 39.9102C100.682 39.9102 101.134 39.6367 101.395 39.0898C101.655 38.543 101.821 37.5924 101.893 36.2383L102.342 27.7812ZM117.068 42V27.7812H119.783V33.6113H127.518V27.7812H130.223V42H127.518V35.7207H119.783V42H117.068ZM146.746 42H144.09V32.4785C144.09 32.2702 144.093 32.0423 144.1 31.7949C144.106 31.541 144.116 31.3132 144.129 31.1113H144.012C143.914 31.3066 143.816 31.4987 143.719 31.6875C143.628 31.8763 143.497 32.0814 143.328 32.3027L136.326 42H133.455V27.7812H136.121V37.293C136.121 37.4948 136.115 37.7194 136.102 37.9668C136.095 38.2142 136.089 38.4421 136.082 38.6504H136.219C136.29 38.4876 136.378 38.3021 136.482 38.0938C136.593 37.8854 136.72 37.6803 136.863 37.4785L143.875 27.7812H146.746V42ZM148.592 29.8906V27.7812H161.668V29.8906H156.492V42H153.777V29.8906H148.592ZM163.514 42V27.7812H174.324V29.8809H166.199V33.6699H173.328V35.7109H166.199V39.9102H174.441V42H163.514ZM178.396 27.7812H189.812V42H187.107V29.8711H180.682L180.32 36.5898C180.229 38.4518 179.926 39.8646 179.412 40.8281C178.898 41.7917 177.921 42.2734 176.482 42.2734C176.261 42.2734 176.049 42.2572 175.848 42.2246C175.646 42.1986 175.447 42.1497 175.252 42.0781V39.7734C175.402 39.8255 175.542 39.8613 175.672 39.8809C175.809 39.9004 175.949 39.9102 176.092 39.9102C176.736 39.9102 177.189 39.6367 177.449 39.0898C177.71 38.543 177.876 37.5924 177.947 36.2383L178.396 27.7812ZM204.412 42H201.697V36.6582H196.98L196.492 36.4043C195.255 36.2415 194.308 35.7793 193.65 35.0176C192.993 34.2559 192.664 33.3021 192.664 32.1562C192.664 30.8151 193.143 29.7507 194.1 28.9629C195.063 28.1751 196.421 27.7812 198.172 27.7812H204.412V42ZM201.697 34.6562V29.8125H198.396C197.257 29.8125 196.469 30.0273 196.033 30.457C195.597 30.8802 195.379 31.4564 195.379 32.1855C195.379 32.9212 195.597 33.5169 196.033 33.9727C196.469 34.4284 197.257 34.6562 198.396 34.6562H201.697ZM194.891 42H192L196.131 35.4668H198.885L194.891 42ZM207.654 42V27.7812H210.867L215.643 38.0352C215.74 38.2435 215.838 38.4551 215.936 38.6699C216.033 38.8783 216.108 39.0573 216.16 39.207H216.219C216.271 39.0573 216.339 38.8783 216.424 38.6699C216.508 38.4551 216.596 38.2435 216.688 38.0352L221.521 27.7812H224.803V42H222.127L222.137 32.3516C222.137 32.1497 222.143 31.9349 222.156 31.707C222.169 31.4727 222.182 31.2578 222.195 31.0625H222.127C222.081 31.2578 222.023 31.4727 221.951 31.707C221.886 31.9349 221.808 32.1497 221.717 32.3516L217.205 42H214.9L210.408 32.3516C210.311 32.1562 210.226 31.9447 210.154 31.7168C210.083 31.4824 210.024 31.2643 209.979 31.0625H209.91C209.923 31.2643 209.936 31.4824 209.949 31.7168C209.969 31.9447 209.979 32.1595 209.979 32.3613V42H207.654Z" fill="white"/>
<g clip-path="url(#clip1_9500_22622)">
<path d="M380.481 190.196L374.422 190.058L373.364 236.766L379.423 236.904L380.481 190.196Z" fill="#FF8B63" stroke="#383940" stroke-width="0.6" stroke-miterlimit="10"/>
<path d="M368.18 121.761L368.516 242.567L384.642 242.935L390.428 122.266L368.18 121.761ZM381.662 236.962L371.76 236.736L371.698 127.747L386.64 128.084L381.662 236.958V236.962Z" fill="#FF8B63" stroke="#383940" stroke-width="0.6" stroke-miterlimit="10"/>
<path d="M366.094 122.323L392.193 122.306L390.924 132.116L366.947 131.575L366.094 122.323Z" fill="#383940" stroke="#383940" stroke-width="0.6" stroke-miterlimit="10"/>
<path d="M367.148 188.327L388.394 188.81L387.788 195.687L367.511 195.231L367.148 188.327Z" fill="#383940" stroke="#383940" stroke-width="0.6" stroke-miterlimit="10"/>
<path d="M374.523 115.478H367.211V125.992H374.523V115.478Z" fill="#FF8B63"/>
<path d="M374.304 115.699V125.771H367.434V115.699H374.304ZM374.746 115.256H366.992V126.214H374.746V115.256Z" fill="#383940"/>
<path d="M367.457 127.977C366.551 127.977 365.812 127.237 365.812 126.329V123.192H375.865V126.329C375.865 127.237 375.127 127.977 374.22 127.977H367.457Z" fill="#FF8B63"/>
<path d="M375.646 123.414V126.329C375.646 127.118 375.01 127.756 374.223 127.756H367.459C366.672 127.756 366.036 127.118 366.036 126.329V123.414H375.646ZM376.088 122.97H365.594V126.329C365.594 127.362 366.429 128.199 367.459 128.199H374.223C375.253 128.199 376.088 127.362 376.088 126.329V122.97Z" fill="#383940"/>
<path d="M354.402 89.4647V86.9719H364.318V89.4647H354.402Z" fill="#F4F3F1" stroke="#383940" stroke-width="0.6"/>
<path d="M357.269 85.7446H376.117V94.6357H353.799L357.269 85.7446Z" fill="#F4F3F1" stroke="#383940" stroke-width="0.6"/>
<path d="M360.691 110.091V95.1469H379.78V110.091H360.691Z" fill="#FF8B63" stroke="#383940" stroke-width="0.6"/>
<path d="M356.816 104.823V100.234H383.698V104.823H356.816Z" fill="#FF8B63" stroke="#383940" stroke-width="0.6"/>
<path d="M383.998 109.234H356.516V112.961H383.998V109.234Z" fill="#383940"/>
<path d="M383.772 109.456V112.739H356.731V109.456H383.772ZM384.214 109.013H356.289V113.182H384.214V109.013Z" fill="#383940"/>
<path d="M354.003 121.239V115.238C354.003 113.844 355.134 112.711 356.523 112.711H383.701C385.091 112.711 386.221 113.844 386.221 115.238V121.239H354.003Z" fill="#FF8B63" stroke="#383940" stroke-width="0.6"/>
<path d="M354.402 77.2219V61.2456H365.949V77.2219H354.402Z" fill="#F4F3F1" stroke="#383940" stroke-width="0.6"/>
<path d="M360.645 54.7763H379.376V94.6356H356.869L360.645 54.7763Z" fill="#FF8B63" stroke="#383940" stroke-width="0.6"/>
<path d="M363.446 105.964H358.031V108.393H363.446V105.964Z" fill="#383940"/>
<path d="M363.228 106.186V108.171H358.255V106.186H363.228ZM363.67 105.743H357.812V108.614H363.67V105.743Z" fill="#383940"/>
<path d="M378.095 105.964H372.68V108.393H378.095V105.964Z" fill="#383940"/>
<path d="M377.876 106.186V108.171H372.903V106.186H377.876ZM378.318 105.743H372.461V108.614H378.318V105.743Z" fill="#383940"/>
<path d="M364.836 95.1571V77.0698H375.388V95.1571" stroke="#383940" stroke-width="0.6" stroke-miterlimit="10"/>
<path d="M310.179 236.896L304.172 236.758L322.707 190.051L328.715 190.189L310.179 236.896Z" fill="#FF8B63" stroke="#383940" stroke-width="0.6" stroke-miterlimit="10"/>
<path d="M342.003 121.761L297.125 242.567L313.114 242.935L364.061 122.266L342.003 121.761ZM312.372 236.958L302.553 236.732L343.28 127.743L358.093 128.079L312.367 236.953L312.372 236.958Z" fill="#FF8B63" stroke="#383940" stroke-width="0.6" stroke-miterlimit="10"/>
<path d="M340.134 121.717L366.923 121.934L364.88 132.169L337.102 131.575L340.134 121.717Z" fill="#383940" stroke="#383940" stroke-width="0.6" stroke-miterlimit="10"/>
<path d="M316.071 188.328L337.13 188.811L333.956 195.687L313.852 195.231L316.071 188.328Z" fill="#383940" stroke="#383940" stroke-width="0.6" stroke-miterlimit="10"/>
<path d="M475.211 293.542C474.212 288.747 473.253 283.829 472.351 278.778C471.511 274.081 470.751 269.468 470.066 264.953C469.186 262.582 468.205 259.636 467.338 256.224C465.022 247.14 465.751 243.689 464.655 229.346C464.606 228.73 464.558 228.118 464.509 227.52C464.16 231.552 463.727 235.708 463.196 239.98C462.714 243.906 462.175 247.716 461.592 251.412V251.421C461.852 251.305 462.038 251.288 462.149 251.372C462.498 251.629 462.158 252.816 461.132 254.934C461.141 260.283 461.15 265.631 461.158 270.975H461.185C461.477 271.329 461.671 271.684 461.799 272.016C462.33 273.381 461.945 274.856 461.322 276.11L461.437 276.141C461.742 289.855 462.047 303.569 462.348 317.278C459.987 316.259 455.434 315.639 447.755 313.485C442.835 312.103 439.383 310.867 437.385 310.982L435.939 280.683C435.219 279.788 434.825 278.751 434.869 277.71C434.9 276.899 435.197 276.212 435.519 275.689C434.98 265.591 434.507 253.029 434.516 239.63C434.529 226.315 435.011 219.775 435.395 215.649C435.656 212.867 435.886 211.006 436.443 205.445C437.208 197.766 437.738 191.509 438.074 187.393C437.027 184.522 438.512 181.881 438.768 181.442C438.035 177.725 437.557 173.254 437.836 168.225C438.004 165.194 438.424 162.451 438.941 160.045C438.919 159.402 438.914 158.72 438.945 158.002C439.007 156.425 439.202 155.025 439.436 153.837C439.803 153.957 440.201 154.063 440.634 154.143C441.036 154.218 441.429 154.262 441.805 154.276C441.584 155.286 441.394 156.412 441.275 157.652C441.2 158.445 441.16 159.199 441.147 159.916C441.593 160.129 442.154 160.355 442.822 160.528C443.525 160.71 444.153 160.785 444.665 160.807C444.701 160.936 444.736 161.051 444.771 161.157C444.962 161.742 445.094 161.924 445.183 162.034C445.554 162.495 446.084 162.699 446.69 162.797C446.867 165.606 447.181 167.923 447.455 169.598C448.423 175.558 449.466 177.029 450.24 177.862C451.38 179.089 452.689 179.718 453.56 180.051C452.874 176.635 452.295 172.908 451.915 168.898C451.69 166.554 451.548 164.303 451.477 162.15C451.707 161.972 451.884 161.835 452.052 161.582C452.216 161.334 452.3 161.073 452.335 160.798C452.967 160.741 453.613 160.665 454.276 160.572C457.379 160.134 460.146 159.363 462.542 158.472C462.303 158.016 462.074 157.528 461.852 157.01C461.026 155.056 460.624 153.279 460.42 151.91C461.773 151.387 463.046 150.815 464.204 150.257C464.505 151.329 464.792 152.432 465.075 153.562C465.424 154.971 465.738 156.345 466.017 157.692C467.723 157.28 469.602 156.717 471.587 155.955C474.871 154.697 477.607 153.208 479.8 151.812C479.455 150.665 479.075 149.495 478.668 148.303C478.239 147.04 477.802 145.821 477.355 144.643C478.575 144.488 479.287 144.222 479.455 143.686C479.601 143.229 479.318 142.671 478.81 142.086C479.261 141.949 479.769 141.772 480.322 141.532C481.144 142.968 482.059 144.9 482.691 147.293C482.965 148.325 483.146 149.295 483.266 150.186H483.27C484.256 149.685 485.317 149.069 486.395 148.303C489.547 146.061 491.629 143.433 492.96 141.351H493.623C493.764 141.515 493.924 141.701 494.1 141.913C494.538 142.454 495.064 143.145 495.603 143.978C497.495 146.894 499.405 151.294 499.573 162.353C499.635 166.501 499.458 171.889 498.561 178.19C498.963 178.704 499.37 179.391 499.608 180.25C500.188 182.337 499.423 184.269 498.724 185.479C498.658 186.95 498.587 188.425 498.517 189.905C497.88 202.919 497.111 215.822 496.218 228.614C496.66 229.306 497.058 230.28 496.943 231.477C496.731 233.661 495.007 234.782 494.803 234.911C494.852 235.837 494.971 236.865 495.192 237.964C496.306 243.48 498.941 245.244 498.95 248.567C498.954 249.879 498.552 251.536 497.04 253.486C496.116 254.691 494.764 256.007 492.832 257.42L492.222 257.411C492.182 259.334 492.509 261.16 493.004 262.804C493.185 263.402 493.389 263.978 493.601 264.523C493.703 264.785 493.809 265.042 493.919 265.294C494.834 267.417 495.886 269.052 496.417 269.955C499.149 274.599 501.514 282.54 499.564 296.949C499.984 297.197 500.926 297.84 501.487 299.054C502.455 301.15 501.452 303.17 501.315 303.436L501.863 304.039C502.407 303.418 502.791 302.838 503.061 302.381C503.189 302.164 503.45 301.717 503.724 301.101C504.047 303.387 504.352 305.714 504.635 308.08C505.01 311.19 505.333 314.243 505.616 317.239C505.037 316.795 504.268 316.494 503.41 316.406H502.186V318.16L501.969 319.046C493.999 317.106 486.391 316.326 485.631 316.29C482.841 316.157 480.985 316.135 479.809 316.525V316.516C479.588 314.057 479.252 311.398 478.752 308.576C478.204 305.479 477.537 302.625 476.825 300.046C476.489 299.772 476.144 299.426 475.839 298.996C474.181 296.657 475.088 293.874 475.203 293.542H475.211Z" fill="#7099ED"/>
<path d="M493.223 140.939C493.139 141.071 493.055 141.209 492.966 141.351C491.636 143.433 489.554 146.061 486.402 148.303C485.323 149.069 484.262 149.685 483.277 150.186H483.272C483.153 149.295 482.972 148.325 482.698 147.293C482.065 144.9 481.15 142.968 480.328 141.532C481.018 141.24 481.778 140.859 482.561 140.367C484.342 139.631 486.627 138.444 488.908 136.499C489.934 135.621 490.796 134.735 491.499 133.907C491.512 133.893 491.521 133.884 491.53 133.871C491.954 135.107 492.361 136.494 492.697 138.019C492.922 139.042 493.095 140.021 493.223 140.939Z" fill="#231F20"/>
<path d="M492.288 133.229C492.871 133.973 493.981 135.604 494.326 137.961C494.573 139.658 494.326 141.063 494.105 141.913C493.928 141.701 493.769 141.515 493.627 141.351H492.964C493.053 141.209 493.137 141.072 493.221 140.939C493.092 140.021 492.92 139.042 492.694 138.019C492.359 136.494 491.952 135.107 491.527 133.871C491.519 133.884 491.51 133.893 491.497 133.907L491.258 133.698C491.488 133.53 491.722 133.357 491.952 133.176L492.288 133.229Z" fill="#7099ED"/>
<path d="M491.262 133.698L491.501 133.907C490.798 134.735 489.936 135.622 488.91 136.499C486.629 138.444 484.344 139.632 482.562 140.367C482.77 140.234 482.982 140.092 483.195 139.946C484.861 138.781 486.046 137.469 486.868 136.357C487.129 136.233 489.114 135.258 491.262 133.698Z" fill="#7099ED"/>
<path d="M478.675 148.303C479.082 149.495 479.462 150.665 479.807 151.812C477.614 153.208 474.878 154.697 471.593 155.955C469.608 156.717 467.73 157.28 466.023 157.692C465.745 156.345 465.431 154.971 465.082 153.562C464.799 152.432 464.512 151.329 464.211 150.257C465.948 149.419 467.425 148.604 468.503 148.01C470.612 146.845 472.274 145.72 473.392 144.904C475.041 144.833 476.372 144.776 477.362 144.643C477.809 145.821 478.246 147.04 478.675 148.303Z" fill="#231F20"/>
<path d="M454.28 160.572C453.616 160.665 452.971 160.741 452.339 160.798C452.441 159.992 452.096 159.07 451.888 158.06C451.724 157.271 451.592 156.155 451.729 154.737L451.689 154.006C454.691 153.811 457.714 152.955 460.424 151.91C460.627 153.279 461.03 155.056 461.856 157.01C462.077 157.528 462.307 158.016 462.546 158.472C460.15 159.363 457.383 160.134 454.28 160.572Z" fill="#231F20"/>
<path d="M444.674 160.807C444.457 160.005 444.263 158.725 444.431 156.305C444.497 155.401 444.528 154.941 444.665 154.728C445.16 153.952 446.292 153.758 447.353 153.766C448.082 153.908 448.825 153.992 449.572 154.028C450.275 154.063 450.982 154.054 451.694 154.006L451.733 154.737C451.596 156.155 451.729 157.271 451.893 158.06C452.1 159.07 452.445 159.992 452.343 160.798C452.308 161.073 452.224 161.335 452.061 161.583C451.893 161.835 451.716 161.973 451.486 162.15C450.372 163.005 449.05 162.961 447.989 162.908C447.543 162.885 447.101 162.863 446.698 162.797C446.093 162.699 445.562 162.495 445.191 162.035C445.103 161.924 444.97 161.742 444.78 161.157C444.745 161.051 444.709 160.936 444.674 160.807Z" fill="white"/>
<path d="M432.887 132.688C428.44 118.62 423.228 104.188 417.119 89.4905C416.138 87.1333 415.147 84.7937 414.148 82.4807C416.275 80.5399 418.41 78.5637 420.554 76.5476C424.859 72.4977 429.2 68.2838 433.559 63.8972C435.464 61.983 437.334 60.0732 439.173 58.1723C440.438 56.8652 441.68 55.5625 442.913 54.2598C444.261 55.0441 445.826 56.1474 447.373 57.6761C448.01 58.3053 448.567 58.9345 449.053 59.5371C448.77 59.8871 448.492 60.2416 448.209 60.5916C448.81 60.8664 449.517 61.2563 450.26 61.7969C450.861 62.2311 451.352 62.6786 451.754 63.0819L451.688 63.3699C452.307 63.5028 452.97 63.6756 453.668 63.8972C462.629 66.7374 467.452 74.434 473.751 85.3742C479.71 95.7161 484.714 105.008 488.803 112.913L489.479 112.895C489.965 112.97 490.633 113.108 491.398 113.387C491.641 113.475 493.002 113.976 493.891 114.734C494.974 115.656 495.261 116.878 495.73 119.027C496.614 123.091 497.052 125.12 497.056 125.257C497.083 128.403 494.519 131.186 491.955 133.176C491.725 133.357 491.491 133.53 491.261 133.698C489.112 135.258 487.127 136.233 486.867 136.357C486.044 137.469 484.86 138.781 483.193 139.946C482.981 140.092 482.769 140.234 482.561 140.367C481.779 140.859 481.018 141.24 480.329 141.532C479.776 141.772 479.268 141.949 478.817 142.086C479.325 142.671 479.608 143.23 479.462 143.686C479.294 144.222 478.583 144.488 477.362 144.643C476.372 144.776 475.042 144.834 473.393 144.904C472.274 145.72 470.612 146.845 468.504 148.011C467.425 148.604 465.949 149.42 464.211 150.257C463.053 150.815 461.78 151.387 460.427 151.91C457.717 152.956 454.694 153.811 451.692 154.006C450.981 154.054 450.273 154.063 449.57 154.028C449.279 153.966 448.341 153.775 447.351 153.766C446.914 153.687 446.48 153.58 446.052 153.456C445.313 153.789 443.766 154.369 441.812 154.28C441.437 154.263 441.043 154.218 440.641 154.143C440.208 154.063 439.81 153.957 439.443 153.833C438.974 154.303 437.233 155.946 435.628 155.49C433.957 155.016 433.462 152.53 432.945 150.23C432.136 146.606 432.494 144.027 432.715 140.296C432.825 138.426 432.927 135.843 432.887 132.693V132.688Z" fill="#7099ED"/>
<path d="M447.986 162.907C449.047 162.961 450.369 163.005 451.483 162.15C451.554 164.303 451.695 166.554 451.92 168.898C452.301 172.908 452.88 176.635 453.565 180.051C452.694 179.719 451.386 179.089 450.245 177.862C449.471 177.029 448.428 175.558 447.46 169.598C447.186 167.923 446.872 165.606 446.695 162.801C447.098 162.863 447.54 162.885 447.986 162.907Z" fill="#7099ED"/>
<path d="M447.354 153.766C446.293 153.757 445.161 153.952 444.666 154.728C444.529 154.94 444.498 155.401 444.432 156.305C444.264 158.724 444.458 160.005 444.675 160.807C444.162 160.785 443.535 160.71 442.832 160.528C442.164 160.355 441.603 160.129 441.156 159.916C441.17 159.199 441.209 158.445 441.284 157.652C441.404 156.412 441.594 155.286 441.815 154.28C443.769 154.369 445.316 153.788 446.054 153.456C446.483 153.58 446.916 153.686 447.354 153.766Z" fill="#231F20"/>
<path d="M438.754 57.6848H438.745L430.59 57.2506C432.508 54.5787 432.079 50.0635 429.878 48.6722C429.135 48.2025 427.875 47.8923 426.73 48.4108C425.683 48.8849 425.214 49.8331 425.068 50.1654V53.759C424.401 53.9318 423.729 54.109 423.057 54.2818C422.911 52.7221 422.535 50.6263 421.572 48.3221C421.015 46.9929 420.382 45.8762 419.781 44.9723L433.122 43.4702C433.29 45.987 433.918 49.873 436.173 53.9318C436.999 55.4117 437.892 56.6568 438.754 57.6848Z" fill="#231F20"/>
<path d="M419.785 44.9723L395.414 47.7195L381.976 49.2305L381.648 46.1421L385.512 45.4199C388.08 44.9457 389.919 42.7657 389.884 40.2533L389.765 32.1624C389.765 32.0604 389.76 31.963 389.76 31.861C389.76 21.0184 398.508 11.9969 409.794 11.2703C421.504 10.5126 431.676 18.9359 432.635 30.1817L433.161 36.3718C433.223 37.0675 433.55 37.6834 434.05 38.122C434.549 38.5651 435.212 38.831 435.942 38.831V43.1556L433.126 43.4702L419.785 44.9723Z" fill="#F4F3F1"/>
<path d="M438.749 57.6892H438.758C438.895 57.8531 439.036 58.017 439.173 58.1721C437.334 60.073 435.464 61.9828 433.559 63.897C429.201 68.2836 424.86 72.4975 420.554 76.5474C420.267 76.1398 419.975 75.7366 419.688 75.3289C421.628 74.487 423.436 73.1976 424.899 71.4607C429.258 66.2897 428.122 60.0066 427.958 59.1913C428.551 58.9786 429.461 58.5576 430.231 57.7025C430.359 57.5607 430.483 57.41 430.593 57.2505L438.749 57.6892Z" fill="#F4F3F1"/>
<path d="M407.543 54.2464C407.844 55.5181 407.561 56.6746 406.92 56.8252C406.279 56.9759 405.519 56.0675 405.223 54.7959C404.922 53.5197 405.2 52.3677 405.846 52.217C406.487 52.0664 407.247 52.9747 407.543 54.2464Z" fill="#383940"/>
<path d="M399.733 54.3351C399.202 54.4636 398.973 55.4162 399.216 56.4753C399.463 57.5298 400.095 58.2831 400.626 58.159C401.161 58.0305 401.391 57.0734 401.143 56.0189C400.896 54.9643 400.268 54.211 399.733 54.3351ZM429.881 48.6723C432.083 50.0636 432.511 54.5788 430.593 57.2507C430.482 57.4102 430.359 57.5608 430.23 57.7026C429.461 58.5578 428.551 58.9788 427.958 59.1914C428.122 60.0067 429.258 66.2899 424.899 71.4608C423.436 73.1978 421.628 74.4872 419.687 75.3291C417.141 76.4413 414.374 76.7913 411.872 76.3837C411.872 76.3837 409.622 76.0159 407.5 74.7929C398.526 69.6264 395.706 49.9395 395.432 47.8836L395.414 47.7196L419.785 44.9724C420.386 45.8763 421.018 46.9929 421.575 48.3222C422.539 50.6264 422.914 52.7222 423.06 54.2819C423.732 54.1091 424.404 53.9319 425.072 53.7591V50.1655C425.217 49.8332 425.686 48.885 426.734 48.4109C427.879 47.8924 429.139 48.2026 429.881 48.6723ZM406.916 56.8253C407.557 56.6746 407.84 55.5182 407.54 54.2465C407.243 52.9748 406.483 52.0664 405.842 52.2171C405.197 52.3677 404.918 53.5198 405.219 54.7959C405.515 56.0676 406.275 56.976 406.916 56.8253Z" fill="#F4F3F1"/>
<path d="M399.214 56.4751C398.971 55.4161 399.201 54.4634 399.731 54.3349C400.266 54.2108 400.894 54.9641 401.141 56.0187C401.389 57.0733 401.159 58.0303 400.624 58.1588C400.094 58.2829 399.462 57.5296 399.214 56.4751Z" fill="#383940"/>
<path d="M419.688 75.3291C419.975 75.7368 420.267 76.14 420.554 76.5476" stroke="#383940" stroke-width="0.6" stroke-miterlimit="10" stroke-linecap="round"/>
<path d="M419.738 44.9058C419.752 44.9279 419.769 44.9501 419.783 44.9722C420.384 45.8761 421.016 46.9928 421.573 48.3221C422.537 50.6262 422.912 52.722 423.058 54.2817C423.73 54.1089 424.402 53.9317 425.07 53.7589V50.1653C425.215 49.833 425.684 48.8848 426.732 48.4107C427.877 47.8922 429.136 48.2024 429.879 48.6721C432.081 50.0634 432.509 54.5786 430.591 57.2505C430.48 57.41 430.357 57.5607 430.228 57.7024C429.459 58.5576 428.549 58.9786 427.956 59.1913C428.12 60.0066 429.256 66.2897 424.897 71.4607C423.434 73.1976 421.626 74.487 419.685 75.3289C417.139 76.4411 414.372 76.7911 411.87 76.3835C411.87 76.3835 409.62 76.0157 407.498 74.7928C398.524 69.6262 395.704 49.9394 395.43 47.8834" stroke="#383940" stroke-width="0.6" stroke-miterlimit="10" stroke-linecap="round"/>
<path d="M433.117 43.3284C433.117 43.3771 433.117 43.4214 433.126 43.4702C433.294 45.987 433.922 49.8729 436.176 53.9317C437.003 55.4117 437.896 56.6568 438.758 57.6848C438.895 57.8531 439.036 58.0171 439.173 58.1722" stroke="#383940" stroke-width="0.6" stroke-miterlimit="10" stroke-linecap="round"/>
<path d="M430.594 57.2505L438.75 57.6892" stroke="#383940" stroke-width="0.6" stroke-miterlimit="10" stroke-linecap="round"/>
<path d="M439.425 71.5628C442.352 67.9028 445.282 64.2472 448.209 60.5916C448.492 60.2416 448.77 59.8871 449.053 59.5371C448.567 58.9345 448.01 58.3053 447.373 57.6761C445.826 56.1474 444.261 55.044 442.913 54.2598C441.68 55.5625 440.438 56.8652 439.173 58.1723C437.334 60.0732 435.464 61.983 433.559 63.8972C429.2 68.2838 424.859 72.4977 420.554 76.5476C418.41 78.5637 416.275 80.5399 414.148 82.4807C416.332 85.547 418.52 88.6132 420.704 91.6839L432.984 78.5238" stroke="#383940" stroke-width="0.6" stroke-miterlimit="10" stroke-linecap="round"/>
<path d="M453.843 71.6114C452.817 71.2658 451.548 70.929 450.081 70.734C448.038 70.4638 446.266 70.5612 444.922 70.734" stroke="#383940" stroke-width="0.6" stroke-miterlimit="10" stroke-linecap="round"/>
<path d="M448.945 62.9355C449.675 63.0064 450.612 63.1305 451.686 63.3698C452.305 63.5027 452.968 63.6755 453.666 63.8971C462.627 66.7373 467.45 74.434 473.749 85.3741C479.708 95.716 484.712 105.008 488.801 112.913C489.071 113.44 489.34 113.958 489.606 114.472" stroke="#383940" stroke-width="0.6" stroke-miterlimit="10" stroke-linecap="round"/>
<path d="M432.887 132.688C428.44 118.62 423.228 104.188 417.119 89.4905C416.138 87.1332 415.147 84.7937 414.148 82.4807" stroke="#383940" stroke-width="0.6" stroke-miterlimit="10" stroke-linecap="round"/>
<path d="M448.211 60.5916C448.812 60.8663 449.519 61.2562 450.262 61.7968C450.863 62.231 451.354 62.6785 451.756 63.0818" stroke="#383940" stroke-width="0.6" stroke-miterlimit="10" stroke-linecap="round"/>
<path d="M489.48 112.895C489.966 112.97 490.634 113.108 491.398 113.387C491.641 113.475 493.003 113.976 493.891 114.734C494.975 115.656 495.262 116.878 495.73 119.028C496.615 123.091 497.052 125.12 497.057 125.257C497.083 128.403 494.519 131.186 491.955 133.176C491.725 133.357 491.491 133.53 491.261 133.698C489.113 135.258 487.128 136.233 486.867 136.357" stroke="#383940" stroke-width="0.6" stroke-miterlimit="10" stroke-linecap="round"/>
<path d="M462.586 122.798C463.797 123.117 465.587 123.6 467.745 124.198C482.775 128.377 483.15 129.276 483.133 129.635C483.102 130.242 481.824 131.057 475.79 131.824" stroke="#383940" stroke-width="0.6" stroke-miterlimit="10" stroke-linecap="round"/>
<path d="M450 122.094C450.579 123.139 451.446 124.424 452.71 125.687C455.008 127.996 457.488 129.099 459.005 129.635" stroke="#383940" stroke-width="0.6" stroke-miterlimit="10" stroke-linecap="round"/>
<path d="M432.842 130.517C432.864 131.27 432.882 131.992 432.89 132.688C432.93 135.843 432.829 138.426 432.718 140.296C432.497 144.027 432.139 146.606 432.948 150.23C433.465 152.53 433.96 155.016 435.631 155.49C437.236 155.946 438.978 154.302 439.446 153.837" stroke="#383940" stroke-width="0.6" stroke-miterlimit="10" stroke-linecap="round"/>
<path d="M460.109 145.906C465.122 145.369 469.198 145.108 472.005 144.971C472.491 144.949 472.951 144.926 473.393 144.904C475.042 144.833 476.373 144.776 477.363 144.643C478.583 144.488 479.295 144.222 479.463 143.686C479.608 143.229 479.326 142.671 478.817 142.086C477.986 141.129 476.532 140.105 475.382 139.361" stroke="#383940" stroke-width="0.6" stroke-miterlimit="10" stroke-linecap="round"/>
<path d="M478.82 142.086C479.271 141.949 479.78 141.772 480.332 141.532C481.022 141.24 481.782 140.859 482.565 140.367C482.772 140.234 482.984 140.092 483.197 139.946C484.863 138.781 486.048 137.469 486.87 136.357C487.228 135.87 487.52 135.418 487.745 135.037" stroke="#383940" stroke-width="0.6" stroke-miterlimit="10" stroke-linecap="round"/>
<path d="M473.393 144.904C472.275 145.72 470.613 146.845 468.504 148.01C467.426 148.604 465.949 149.419 464.212 150.257C463.054 150.815 461.78 151.387 460.428 151.91C457.718 152.955 454.694 153.811 451.693 154.005C450.981 154.054 450.274 154.063 449.571 154.028C448.824 153.992 448.081 153.908 447.352 153.766C446.914 153.686 446.481 153.58 446.052 153.456C445.19 153.203 444.341 152.862 443.528 152.419C443.112 152.198 437.737 149.189 437.145 144.359C436.822 141.745 438.117 140.358 438.63 136.295C439.063 132.852 438.626 129.954 438.192 128.058" stroke="#383940" stroke-width="0.6" stroke-miterlimit="10" stroke-linecap="round"/>
<path d="M460.43 151.91C460.633 153.279 461.035 155.056 461.862 157.01C462.083 157.528 462.313 158.016 462.552 158.472C463.055 159.456 463.586 160.293 464.077 160.98" stroke="#383940" stroke-width="0.6" stroke-miterlimit="10" stroke-linecap="round"/>
<path d="M464.211 150.257C464.512 151.329 464.799 152.433 465.082 153.563C465.431 154.972 465.745 156.345 466.023 157.692C466.121 158.162 466.218 158.623 466.306 159.084" stroke="#383940" stroke-width="0.6" stroke-miterlimit="10" stroke-linecap="round"/>
<path d="M479.812 151.812C479.963 152.313 480.113 152.809 480.255 153.297" stroke="#383940" stroke-width="0.6" stroke-miterlimit="10" stroke-linecap="round"/>
<path d="M477.359 144.643C477.806 145.821 478.243 147.04 478.672 148.303C479.079 149.495 479.459 150.665 479.804 151.812" stroke="#383940" stroke-width="0.6" stroke-miterlimit="10" stroke-linecap="round"/>
<path d="M480.328 141.532C481.15 142.968 482.065 144.9 482.698 147.293C482.972 148.325 483.153 149.296 483.272 150.186C483.33 150.567 483.369 150.931 483.4 151.281" stroke="#383940" stroke-width="0.6" stroke-miterlimit="10" stroke-linecap="round"/>
<path d="M482.562 140.367C484.344 139.631 486.629 138.444 488.91 136.499C489.936 135.621 490.798 134.735 491.501 133.907C491.514 133.893 491.523 133.884 491.532 133.871C491.956 135.107 492.363 136.494 492.699 138.019C492.924 139.042 493.097 140.021 493.225 140.939" stroke="#383940" stroke-width="0.6" stroke-miterlimit="10" stroke-linecap="round"/>
<path d="M492.289 133.229C492.873 133.973 493.982 135.604 494.327 137.961C494.574 139.658 494.327 141.063 494.106 141.913" stroke="#383940" stroke-width="0.6" stroke-miterlimit="10" stroke-linecap="round"/>
<path d="M441.812 154.28C443.766 154.369 445.314 153.788 446.052 153.456" stroke="#383940" stroke-width="0.6" stroke-miterlimit="10" stroke-linecap="round"/>
<path d="M437.898 153.15C438.31 153.381 438.827 153.629 439.441 153.833C439.808 153.957 440.206 154.063 440.639 154.143C441.041 154.218 441.435 154.263 441.811 154.276" stroke="#383940" stroke-width="0.6" stroke-miterlimit="10" stroke-linecap="round"/>
<path d="M441.81 154.276C441.589 155.286 441.399 156.412 441.28 157.652C441.205 158.445 441.165 159.199 441.152 159.917C441.138 160.825 441.169 161.671 441.222 162.442" stroke="#383940" stroke-width="0.6" stroke-miterlimit="10" stroke-linecap="round"/>
<path d="M439.442 153.837C439.208 155.025 439.014 156.425 438.952 158.002C438.921 158.72 438.925 159.402 438.947 160.045C438.969 160.67 439.014 161.255 439.067 161.8" stroke="#383940" stroke-width="0.6" stroke-miterlimit="10" stroke-linecap="round"/>
<path d="M451.778 154.32C451.76 154.462 451.747 154.599 451.733 154.737C451.596 156.155 451.729 157.271 451.893 158.06C452.1 159.07 452.445 159.992 452.343 160.798C452.308 161.073 452.224 161.335 452.061 161.583C451.893 161.835 451.716 161.973 451.486 162.15C450.372 163.005 449.05 162.961 447.989 162.908C447.543 162.885 447.101 162.863 446.698 162.797C446.093 162.699 445.562 162.495 445.191 162.035C445.103 161.924 444.97 161.742 444.78 161.157C444.745 161.051 444.709 160.936 444.674 160.807C444.457 160.005 444.263 158.725 444.431 156.305C444.497 155.401 444.528 154.941 444.665 154.728C445.16 153.952 446.292 153.758 447.353 153.766C448.343 153.775 449.28 153.966 449.572 154.028" stroke="#383940" stroke-width="0.6" stroke-miterlimit="10" stroke-linecap="round"/>
<path d="M452.344 160.798C452.976 160.741 453.621 160.665 454.284 160.572C457.388 160.134 460.155 159.363 462.551 158.472" stroke="#383940" stroke-width="0.6" stroke-miterlimit="10" stroke-linecap="round"/>
<path d="M466.023 157.692C467.73 157.28 469.609 156.717 471.593 155.955C474.878 154.697 477.614 153.208 479.807 151.812H479.811" stroke="#383940" stroke-width="0.6" stroke-miterlimit="10" stroke-linecap="round"/>
<path d="M483.273 150.186C484.259 149.685 485.32 149.07 486.399 148.303C489.551 146.061 491.633 143.433 492.963 141.351C493.052 141.209 493.136 141.072 493.22 140.939" stroke="#383940" stroke-width="0.6" stroke-miterlimit="10" stroke-linecap="round"/>
<path d="M493.633 141.351C493.774 141.515 493.933 141.701 494.11 141.913C494.548 142.454 495.074 143.145 495.613 143.978C497.505 146.894 499.415 151.294 499.583 162.353C499.645 166.501 499.468 171.889 498.571 178.19C498.451 179.018 498.323 179.869 498.177 180.729" stroke="#383940" stroke-width="0.6" stroke-miterlimit="10" stroke-linecap="round"/>
<path d="M441.156 159.917C441.603 160.129 442.164 160.355 442.832 160.528C443.535 160.71 444.162 160.785 444.675 160.807" stroke="#383940" stroke-width="0.6" stroke-miterlimit="10" stroke-linecap="round"/>
<path d="M451.484 162.15C451.555 164.303 451.697 166.554 451.922 168.898C452.302 172.908 452.881 176.635 453.566 180.051C453.628 180.37 453.69 180.684 453.757 180.995" stroke="#383940" stroke-width="0.6" stroke-miterlimit="10" stroke-linecap="round"/>
<path d="M446.695 162.801C446.872 165.606 447.186 167.923 447.46 169.598C448.428 175.558 449.471 177.029 450.245 177.862C451.386 179.089 452.694 179.719 453.565 180.051" stroke="#383940" stroke-width="0.6" stroke-miterlimit="10" stroke-linecap="round"/>
<path d="M469.32 160.395C469.983 161.924 470.952 163.607 472.379 165.216C478.219 171.792 487.104 171.831 489.169 171.792" stroke="#383940" stroke-width="0.6" stroke-miterlimit="10" stroke-linecap="round"/>
<path d="M469.32 163.289C469.926 164.932 471.066 167.29 473.255 169.425C478.807 174.836 486.379 174.202 487.683 174.069" stroke="#383940" stroke-width="0.6" stroke-miterlimit="10" stroke-linecap="round"/>
<path d="M451.836 184.354C452.066 185.346 452.596 187.065 453.936 188.793C455.562 190.894 457.512 191.886 458.48 192.298" stroke="#383940" stroke-width="0.6" stroke-miterlimit="10" stroke-linecap="round"/>
<path d="M457.664 187.978C458.447 190.654 459.189 193.419 459.879 196.273C460.533 198.993 462.093 205.804 463.428 216.846C463.817 220.045 464.189 223.599 464.512 227.511" stroke="#383940" stroke-width="0.6" stroke-miterlimit="10" stroke-linecap="round"/>
<path d="M498.57 178.19C498.972 178.704 499.379 179.391 499.618 180.25C500.197 182.337 499.432 184.269 498.734 185.479C498.349 186.148 497.982 186.596 497.867 186.733" stroke="#383940" stroke-width="0.6" stroke-miterlimit="10" stroke-linecap="round"/>
<path d="M498.733 185.479C498.667 186.95 498.596 188.426 498.525 189.906C497.889 202.919 497.12 215.822 496.227 228.615" stroke="#383940" stroke-width="0.6" stroke-miterlimit="10" stroke-linecap="round"/>
<path d="M438.951 160.045C438.434 162.451 438.014 165.194 437.846 168.225C437.568 173.254 438.045 177.725 438.779 181.442C439.057 182.878 439.38 184.203 439.712 185.403" stroke="#383940" stroke-width="0.6" stroke-miterlimit="10" stroke-linecap="round"/>
<path d="M438.775 181.442C438.518 181.881 437.033 184.522 438.081 187.393C438.479 188.483 439.111 189.25 439.597 189.728" stroke="#383940" stroke-width="0.6" stroke-miterlimit="10" stroke-linecap="round"/>
<path d="M438.074 187.393C437.738 191.509 437.208 197.766 436.443 205.445C435.886 211.006 435.656 212.867 435.395 215.649C435.011 219.775 434.529 226.315 434.516 239.63C434.507 253.029 434.98 265.591 435.519 275.689C435.559 276.394 435.594 277.085 435.634 277.763" stroke="#383940" stroke-width="0.6" stroke-miterlimit="10" stroke-linecap="round"/>
<path d="M489.078 176.174C489.472 178.217 490.13 181.894 490.652 186.516C490.652 186.516 491.982 198.205 490.303 227.883C490.537 228.349 490.798 228.942 491.023 229.651C491.253 230.36 491.439 231.176 491.527 232.093C491.775 234.685 490.966 235.74 490.652 237.875C489.843 243.418 493.95 245.337 493.278 251.722C493.074 253.641 492.703 253.477 492.402 255.404C492.296 256.082 492.239 256.751 492.23 257.412C492.19 259.335 492.517 261.16 493.012 262.804C493.194 263.402 493.397 263.978 493.609 264.523C493.711 264.785 493.817 265.042 493.927 265.294C494.843 267.417 495.895 269.052 496.425 269.956C499.157 274.599 501.522 282.54 499.573 296.949C499.992 297.197 500.934 297.84 501.495 299.054C502.464 301.15 501.46 303.17 501.323 303.436" stroke="#383940" stroke-width="0.6" stroke-miterlimit="10" stroke-linecap="round"/>
<path d="M457.891 249.679C458.134 246.866 458.443 243.981 458.823 241.03C459.951 232.31 461.564 224.232 463.425 216.846C463.425 216.846 463.43 216.837 463.43 216.833" stroke="#383940" stroke-width="0.6" stroke-miterlimit="10" stroke-linecap="round"/>
<path d="M474.922 184.238C473.388 184.447 471.186 184.903 468.742 185.989C465.718 187.336 461.594 189.976 461.978 191.133C462.243 191.913 464.688 192.32 474.687 190.428" stroke="#383940" stroke-width="0.6" stroke-miterlimit="10" stroke-linecap="round"/>
<path d="M444.844 194.522H452.885" stroke="#383940" stroke-width="0.6" stroke-miterlimit="10" stroke-linecap="round"/>
<path d="M433.126 43.4702L435.942 43.1556V38.831C435.212 38.831 434.549 38.5651 434.05 38.122C433.55 37.6834 433.223 37.0675 433.161 36.3718L432.635 30.1817C431.676 18.9359 421.504 10.5126 409.794 11.2703C398.508 11.9969 389.76 21.0184 389.76 31.861C389.76 31.963 389.765 32.0604 389.765 32.1624L389.884 40.2533C389.919 42.7657 388.08 44.9457 385.512 45.4199L381.648 46.1421L381.976 49.2305L395.414 47.7195L419.785 44.9723L433.126 43.4702Z" stroke="#383940" stroke-width="0.6" stroke-miterlimit="10" stroke-linecap="round"/>
<path d="M412.307 18.2359C411.56 18.1915 404.275 17.8991 400.243 23.3182C396.185 28.7683 397.1 37.7278 401.892 40.6832C403.965 41.9682 406.348 41.8619 407.886 41.6093" stroke="#383940" stroke-width="0.6" stroke-miterlimit="10" stroke-linecap="round"/>
<path d="M404.484 50.1389C404.785 49.7002 405.125 49.5141 405.315 49.4388C406.169 49.0799 407.291 49.4432 408.114 50.356" stroke="#383940" stroke-width="0.6" stroke-miterlimit="10" stroke-linecap="round"/>
<path d="M399.282 51.4107C399.212 51.3796 398.765 51.1935 398.363 51.4107C397.921 51.6455 397.7 52.2791 397.925 52.8995" stroke="#383940" stroke-width="0.6" stroke-miterlimit="10" stroke-linecap="round"/>
<path d="M407.891 64.9516C408.297 64.8009 409.097 64.4464 409.774 63.6356C410.813 62.3816 410.795 60.9415 410.777 60.5693" stroke="#383940" stroke-width="0.6" stroke-miterlimit="10"/>
<path d="M428.395 236.896L434.402 236.759L415.867 190.052L409.859 190.189L428.395 236.896Z" fill="#FF8B63" stroke="#383940" stroke-width="0.6" stroke-miterlimit="10"/>
<path d="M374.508 122.266L425.455 242.935L441.444 242.568L396.566 121.761L374.508 122.266ZM380.471 128.089L395.284 127.752L436.011 236.741L426.193 236.967L380.467 128.093L380.471 128.089Z" fill="#FF8B63" stroke="#383940" stroke-width="0.6" stroke-miterlimit="10"/>
<path d="M398.685 121.713L372.75 122.306L377.697 132.117L401.47 131.576L398.685 121.713Z" fill="#383940" stroke="#383940" stroke-width="0.6" stroke-miterlimit="10"/>
<path d="M422.501 188.328L401.438 188.811L404.616 195.688L424.721 195.232L422.501 188.328Z" fill="#383940" stroke="#383940" stroke-width="0.6" stroke-miterlimit="10"/>
<path d="M383.67 85.2235C386.318 88.4138 389.036 92.0428 391.676 96.1548C392.913 98.0734 394.04 99.961 395.07 101.8C393.992 102.394 392.754 103.652 390.889 106.231C390.482 106.794 390.053 107.414 389.607 108.087L389.315 107.897C385.73 110.236 383.475 112.744 382.145 114.472C381.968 114.703 381.8 114.929 381.65 115.142C378.321 110.104 374.67 103.351 372.088 94.9274C371.054 91.5377 370.324 88.3297 369.816 85.3742C369.131 81.8737 367.283 71.9572 367.018 62.7584C367.018 62.7584 366.85 56.8918 369.599 53.1609C369.851 52.8197 370.665 51.7164 372.044 51.3664C372.389 51.2778 373.184 51.0739 373.839 51.4949C374.046 51.6322 374.48 51.9823 374.714 53.2052C375.045 54.9466 374.608 56.5551 374.161 57.6451C374.342 57.6672 374.533 57.6938 374.731 57.7248C375.916 57.9021 377.344 58.23 378.878 58.8503C379.457 59.0851 380.054 59.3643 380.659 59.6922C381.044 59.9004 381.411 60.1176 381.751 60.3391L381.884 60.1309C381.946 60.0467 382.958 58.7573 384.43 58.9478C384.62 58.9699 385.221 59.0541 385.686 59.515C386.428 60.2416 386.313 61.3937 386.167 62.9357C385.991 64.8056 385.858 66.6799 385.641 68.5453C385.628 68.6605 385.615 68.7846 385.602 68.9175C386.455 69.4093 387.502 70.2069 387.83 71.4343C388.188 72.7902 387.357 73.4991 386.256 76.6939C385.58 78.6612 385.774 78.7321 384.771 81.9535C384.329 83.367 383.931 84.5057 383.67 85.2235Z" fill="#F4F3F1"/>
<path d="M486.855 114.455C480.79 117.162 469.027 121.19 456.99 116.923C455.615 116.435 454.32 115.873 453.1 115.248L453.025 115.182C450.956 117.53 448.237 120.082 444.75 122.36C442.575 123.778 440.471 124.85 438.57 125.656C437.699 127.318 436.302 129.073 434.083 130.07C432.399 130.827 430.794 130.898 429.698 130.832C415.813 143.371 402.449 149.017 396.658 145.321C395.841 144.803 393.719 143.168 391.672 140.677C388.679 137.031 387.238 133.238 386.522 130.486C383.839 129.985 382.734 128.949 382.23 128.058C381.571 126.888 382.093 126.241 381.531 124.026C380.89 121.513 379.935 121.239 379.781 119.644C379.728 119.107 379.71 117.84 381.646 115.142C381.796 114.929 381.964 114.703 382.141 114.473C383.472 112.744 385.726 110.237 389.311 107.897L389.603 108.088C390.05 107.414 390.478 106.794 390.885 106.231C392.751 103.652 393.988 102.394 395.067 101.8C395.584 101.512 396.066 101.379 396.57 101.326C399.169 101.047 401.618 102.956 402.865 104.831C404.686 107.565 404.16 110.507 404.032 111.14L404.019 111.3C404.045 111.3 404.067 111.3 404.089 111.313C404.271 111.384 404.368 111.659 404.39 112.137H404.469C404.412 111.53 404.655 111.065 404.965 110.963C405.247 110.87 405.619 111.07 405.906 111.371C405.707 109.802 405.8 108.938 406.189 108.774C406.441 108.668 406.817 108.863 407.321 109.355L407.683 109.2C409.491 106.758 411.295 104.321 413.103 101.884L412.961 101.782C413.045 100.533 413.39 99.5844 413.797 98.871C414.787 97.1164 416.644 95.8668 419.071 95.1623C422.611 91.0548 426.603 86.8143 431.108 82.5695C431.501 82.1973 431.895 81.8295 432.284 81.4661C433.004 75.7812 436.943 71.5762 441.425 71.0843C441.757 71.0489 442.08 71.0356 442.393 71.0356C449.789 66.1615 455.089 66.3831 457.777 66.8793C466.702 68.5232 471.826 77.7796 480.684 94.3116C485.224 102.779 488.385 110.104 490.432 115.257C490.127 115.204 489.826 115.146 489.517 115.084C488.602 114.898 487.717 114.69 486.86 114.455H486.855Z" fill="#7099ED"/>
<path d="M377.25 54.344C378.501 54.4946 378.859 58.5889 378.881 58.8503C377.347 58.23 375.919 57.9021 374.734 57.7248C374.805 57.2463 375.017 56.2848 375.764 55.3986C376.122 54.9732 376.71 54.282 377.25 54.344Z" fill="#F4F3F1"/>
<path d="M448.601 73.4503C447.88 72.861 445.511 71.0708 442.399 71.0354C442.085 71.0354 441.762 71.0487 441.431 71.0841C436.948 71.576 433.01 75.781 432.289 81.4659V81.4792" stroke="#383940" stroke-width="0.6" stroke-linecap="round" stroke-linejoin="round"/>
<path d="M414.712 99.7173L413.107 101.884C411.299 104.321 409.496 106.758 407.688 109.2" stroke="#383940" stroke-width="0.6" stroke-linecap="round" stroke-linejoin="round"/>
<path d="M409.337 111.929C408.528 110.737 407.856 109.878 407.321 109.355C406.817 108.863 406.441 108.668 406.189 108.774C405.8 108.938 405.707 109.802 405.906 111.371C406.092 112.837 406.534 114.924 407.237 117.627" stroke="#383940" stroke-width="0.6" stroke-linecap="round" stroke-linejoin="round"/>
<path d="M386.078 128.492C386.184 129.064 386.326 129.737 386.525 130.486C387.241 133.238 388.682 137.031 391.675 140.677C393.721 143.168 395.843 144.803 396.661 145.321C402.452 149.016 415.815 143.371 429.7 130.832C431.305 129.383 432.914 127.841 434.519 126.215" stroke="#383940" stroke-width="0.6" stroke-linecap="round" stroke-linejoin="round"/>
<path d="M429.703 130.832C430.799 130.898 432.404 130.827 434.088 130.069C436.307 129.072 437.704 127.318 438.575 125.656C439.605 123.702 439.901 121.877 439.946 121.571" stroke="#383940" stroke-width="0.6" stroke-linecap="round" stroke-linejoin="round"/>
<path d="M438.438 125.718C438.482 125.701 438.526 125.679 438.575 125.656C440.475 124.85 442.58 123.778 444.754 122.36C448.242 120.082 450.961 117.53 453.03 115.182C454.073 113.998 454.953 112.86 455.682 111.841" stroke="#383940" stroke-width="0.6" stroke-linecap="round" stroke-linejoin="round"/>
<path d="M442.391 71.04H442.395C449.791 66.1659 455.091 66.3875 457.779 66.8837C466.704 68.5276 471.827 77.784 480.686 94.316C485.226 102.784 488.387 110.108 490.433 115.261" stroke="#383940" stroke-width="0.6" stroke-linecap="round" stroke-linejoin="round"/>
<path d="M462.414 111.579C464.112 111.495 466.198 111.065 468.099 109.736C472.241 106.842 473.947 100.754 472.382 94.4001" stroke="#383940" stroke-width="0.6" stroke-linecap="round" stroke-linejoin="round"/>
<path d="M412.969 101.782C413.053 100.532 413.398 99.5842 413.804 98.8709C414.794 97.1162 416.651 95.8666 419.078 95.1621C422.159 94.2671 426.164 94.2449 430.505 95.1887" stroke="#383940" stroke-width="0.6" stroke-linecap="round" stroke-linejoin="round"/>
<path d="M437.673 103.165C435.565 102.996 432.515 102.877 428.841 103.165C425.614 103.417 424.001 103.541 423.855 104.131C423.651 104.95 426.184 106.842 439.247 111.668" stroke="#383940" stroke-width="0.6" stroke-linecap="round" stroke-linejoin="round"/>
<path d="M405.906 111.371C405.619 111.07 405.247 110.87 404.964 110.963C404.655 111.065 404.412 111.53 404.469 112.137C404.487 112.319 404.536 112.514 404.615 112.718" stroke="#383940" stroke-width="0.6" stroke-linecap="round" stroke-linejoin="round"/>
<path d="M401.205 110.613C399.777 111.419 398.274 112.372 396.745 113.506C391.979 117.042 388.704 121.021 386.516 124.287" stroke="#383940" stroke-width="0.6" stroke-linecap="round" stroke-linejoin="round"/>
<path d="M389.311 107.897C385.726 110.237 383.472 112.744 382.141 114.473C381.964 114.703 381.796 114.929 381.646 115.142C379.71 117.84 379.728 119.107 379.781 119.644C379.935 121.239 380.89 121.513 381.531 124.026C382.093 126.241 381.571 126.888 382.23 128.058C382.734 128.949 383.839 129.985 386.522 130.486" stroke="#383940" stroke-width="0.6" stroke-linecap="round" stroke-linejoin="round"/>
<path d="M384.336 117.889C386.064 113.83 387.952 110.578 389.61 108.087C390.056 107.414 390.485 106.793 390.892 106.231C392.757 103.652 393.995 102.394 395.073 101.8C395.591 101.512 396.073 101.379 396.576 101.326C399.176 101.046 401.625 102.956 402.871 104.831C404.693 107.564 404.167 110.507 404.038 111.14" stroke="#383940" stroke-width="0.6" stroke-linecap="round" stroke-linejoin="round"/>
<path d="M398.672 119.205C401.51 113.861 403.291 111.229 404.021 111.3C404.047 111.3 404.069 111.3 404.091 111.313C404.273 111.384 404.37 111.659 404.392 112.137C404.436 113.095 404.162 114.867 403.565 117.45" stroke="#383940" stroke-width="0.6" stroke-linecap="round" stroke-linejoin="round"/>
<path d="M400.069 125.076C399.472 127.141 398.756 130.185 398.495 133.929C398.345 136.069 397.943 141.86 399.105 142.166C399.923 142.383 401.806 139.977 406.629 127.442" stroke="#383940" stroke-width="0.6" stroke-linecap="round" stroke-linejoin="round"/>
<path d="M395.071 101.8C394.041 99.961 392.914 98.0734 391.676 96.1548C389.037 92.0428 386.318 88.4139 383.67 85.2235C383.538 85.064 383.409 84.9134 383.281 84.7583" stroke="#383940" stroke-width="0.6" stroke-linecap="round" stroke-linejoin="round"/>
<path d="M369.812 85.3743C370.321 88.3297 371.05 91.5378 372.085 94.9275C374.666 103.351 378.318 110.104 381.646 115.142" stroke="#383940" stroke-width="0.6" stroke-linecap="round" stroke-linejoin="round"/>
<path d="M383.672 85.2235C383.933 84.5057 384.331 83.3669 384.773 81.9534C385.776 78.7321 385.582 78.6612 386.258 76.6939C387.359 73.4991 388.19 72.7902 387.832 71.4343C387.504 70.2069 386.457 69.4093 385.604 68.9175" stroke="#383940" stroke-width="0.6" stroke-linecap="round" stroke-linejoin="round"/>
<path d="M385.291 72.9277C385.366 71.2749 385.49 69.9102 385.601 68.9176C385.614 68.7847 385.627 68.6606 385.64 68.5454C385.857 66.68 385.99 64.8057 386.166 62.9358C386.312 61.3938 386.427 60.2417 385.684 59.5151C385.22 59.0542 384.619 58.9701 384.429 58.9479C382.957 58.7574 381.945 60.0468 381.883 60.131" stroke="#383940" stroke-width="0.6" stroke-linecap="round" stroke-linejoin="round"/>
<path d="M383.719 61.7968C383.162 61.3227 382.508 60.822 381.752 60.339C381.411 60.1175 381.044 59.9004 380.66 59.6921C380.054 59.3642 379.457 59.0851 378.878 58.8502C377.344 58.2299 375.917 57.902 374.732 57.7248C374.533 57.6937 374.343 57.6672 374.162 57.645C373.958 57.6228 373.764 57.6051 373.578 57.5874" stroke="#383940" stroke-width="0.6" stroke-linecap="round" stroke-linejoin="round"/>
<path d="M374.161 57.6495C374.608 56.5551 375.045 54.9466 374.714 53.2052C374.48 51.9823 374.046 51.6322 373.839 51.4949C373.184 51.0739 372.389 51.2778 372.044 51.3664C370.665 51.7164 369.851 52.8197 369.599 53.1609C366.85 56.8918 367.018 62.7584 367.018 62.7584C367.283 71.9572 369.131 81.8737 369.816 85.3742" stroke="#383940" stroke-width="0.6" stroke-linecap="round" stroke-linejoin="round"/>
<path d="M374.734 57.7248C374.805 57.2463 375.017 56.2848 375.764 55.3986C376.122 54.9732 376.71 54.282 377.25 54.344C378.501 54.4946 378.859 58.5889 378.881 58.8503" stroke="#383940" stroke-width="0.6" stroke-linecap="round" stroke-linejoin="round"/>
<path d="M436.443 77.7485C435.068 78.9405 433.68 80.1767 432.283 81.4661C431.894 81.8295 431.501 82.1972 431.107 82.5694C426.603 86.8143 422.611 91.0548 419.07 95.1623" stroke="#383940" stroke-width="0.6" stroke-linecap="round" stroke-linejoin="round"/>
<path d="M453.102 115.248C454.322 115.873 455.617 116.435 456.992 116.923C469.029 121.19 480.792 117.162 486.857 114.455" stroke="#383940" stroke-width="0.6" stroke-linecap="round" stroke-linejoin="round"/>
<path d="M477.367 110.613C479.984 112.044 483.158 113.449 486.858 114.455H486.863C487.72 114.69 488.604 114.898 489.519 115.084C489.829 115.146 490.129 115.204 490.434 115.257C491.226 115.403 492.004 115.518 492.755 115.611" stroke="#383940" stroke-width="0.6" stroke-linecap="round" stroke-linejoin="round"/>
</g>
</g>
<defs>
<clipPath id="clip0_9500_22622">
<rect width="536" height="227" rx="16" fill="white"/>
</clipPath>
<clipPath id="clip1_9500_22622">
<rect width="255" height="338" fill="white" transform="translate(253.188 11)"/>
</clipPath>
</defs>
</svg>
