<svg width="536" height="227" viewBox="0 0 536 227" fill="none" xmlns="http://www.w3.org/2000/svg">
<g clip-path="url(#clip0_9500_22833)">
<rect width="536" height="227" rx="16" fill="#7099ED"/>
<path d="M49.0898 42H46.4336V32.4785C46.4336 32.2702 46.4368 32.0423 46.4434 31.7949C46.4499 31.541 46.4596 31.3132 46.4727 31.1113H46.3555C46.2578 31.3066 46.1602 31.4987 46.0625 31.6875C45.9714 31.8763 45.8411 32.0814 45.6719 32.3027L38.6699 42H35.7988V27.7812H38.4648V37.293C38.4648 37.4948 38.4583 37.7194 38.4453 37.9668C38.4388 38.2142 38.4323 38.4421 38.4258 38.6504H38.5625C38.6341 38.4876 38.722 38.3021 38.8262 38.0938C38.9368 37.8854 39.0638 37.6803 39.207 37.4785L46.2188 27.7812H49.0898V42ZM51.6777 35.1641V34.6172C51.6777 32.2279 52.3581 30.444 53.7188 29.2656C55.0794 28.0807 56.834 27.4883 58.9824 27.4883C60.9681 27.4883 62.5501 27.9082 63.7285 28.748C64.9069 29.5814 65.5579 30.8216 65.6816 32.4688L65.7012 32.6738H62.957L62.9473 32.459C62.8561 31.4759 62.4688 30.7533 61.7852 30.291C61.1081 29.8223 60.1641 29.5879 58.9531 29.5879C57.612 29.5879 56.528 29.985 55.7012 30.7793C54.8809 31.5736 54.4707 32.791 54.4707 34.4316V35.3496C54.4707 37.0618 54.8809 38.2988 55.7012 39.0605C56.528 39.8223 57.612 40.2031 58.9531 40.2031C60.3073 40.2031 61.2904 39.9395 61.9023 39.4121C62.5143 38.8783 62.8626 38.1816 62.9473 37.3223L62.957 37.1172H65.7012L65.6914 37.332C65.5807 38.8555 64.9557 40.0632 63.8164 40.9551C62.6836 41.847 61.0755 42.293 58.9922 42.293C56.8307 42.293 55.0697 41.7135 53.709 40.5547C52.3548 39.3893 51.6777 37.5924 51.6777 35.1641ZM67.7129 42V27.7812H80.7695V42H78.0547V29.8711H70.4277V42H67.7129ZM83.3574 35.1445V34.6074C83.3574 32.2376 84.0475 30.4603 85.4277 29.2754C86.8079 28.084 88.5723 27.4883 90.7207 27.4883C92.8626 27.4883 94.627 28.084 96.0137 29.2754C97.4069 30.4603 98.1035 32.2376 98.1035 34.6074V35.1445C98.1035 37.5339 97.4069 39.3242 96.0137 40.5156C94.627 41.7005 92.8626 42.293 90.7207 42.293C88.5723 42.293 86.8079 41.7005 85.4277 40.5156C84.0475 39.3242 83.3574 37.5339 83.3574 35.1445ZM86.1406 35.3105C86.1406 36.9902 86.5573 38.2272 87.3906 39.0215C88.2305 39.8092 89.3405 40.2031 90.7207 40.2031C92.1009 40.2031 93.2142 39.8092 94.0605 39.0215C94.9069 38.2272 95.3301 36.9902 95.3301 35.3105V34.4609C95.3301 32.7812 94.9069 31.5508 94.0605 30.7695C93.2207 29.9818 92.1074 29.5879 90.7207 29.5879C89.3405 29.5879 88.2305 29.9818 87.3906 30.7695C86.5573 31.5508 86.1406 32.778 86.1406 34.4512V35.3105ZM102.342 27.7812H113.758V42H111.053V29.8711H104.627L104.266 36.5898C104.174 38.4518 103.872 39.8646 103.357 40.8281C102.843 41.7917 101.867 42.2734 100.428 42.2734C100.206 42.2734 99.9948 42.2572 99.793 42.2246C99.5911 42.1986 99.3926 42.1497 99.1973 42.0781V39.7734C99.347 39.8255 99.487 39.8613 99.6172 39.8809C99.7539 39.9004 99.8939 39.9102 100.037 39.9102C100.682 39.9102 101.134 39.6367 101.395 39.0898C101.655 38.543 101.821 37.5924 101.893 36.2383L102.342 27.7812ZM117.068 42V27.7812H119.783V33.6113H127.518V27.7812H130.223V42H127.518V35.7207H119.783V42H117.068ZM146.746 42H144.09V32.4785C144.09 32.2702 144.093 32.0423 144.1 31.7949C144.106 31.541 144.116 31.3132 144.129 31.1113H144.012C143.914 31.3066 143.816 31.4987 143.719 31.6875C143.628 31.8763 143.497 32.0814 143.328 32.3027L136.326 42H133.455V27.7812H136.121V37.293C136.121 37.4948 136.115 37.7194 136.102 37.9668C136.095 38.2142 136.089 38.4421 136.082 38.6504H136.219C136.29 38.4876 136.378 38.3021 136.482 38.0938C136.593 37.8854 136.72 37.6803 136.863 37.4785L143.875 27.7812H146.746V42ZM148.592 29.8906V27.7812H161.668V29.8906H156.492V42H153.777V29.8906H148.592ZM163.514 42V27.7812H174.324V29.8809H166.199V33.6699H173.328V35.7109H166.199V39.9102H174.441V42H163.514ZM178.396 27.7812H189.812V42H187.107V29.8711H180.682L180.32 36.5898C180.229 38.4518 179.926 39.8646 179.412 40.8281C178.898 41.7917 177.921 42.2734 176.482 42.2734C176.261 42.2734 176.049 42.2572 175.848 42.2246C175.646 42.1986 175.447 42.1497 175.252 42.0781V39.7734C175.402 39.8255 175.542 39.8613 175.672 39.8809C175.809 39.9004 175.949 39.9102 176.092 39.9102C176.736 39.9102 177.189 39.6367 177.449 39.0898C177.71 38.543 177.876 37.5924 177.947 36.2383L178.396 27.7812ZM204.412 42H201.697V36.6582H196.98L196.492 36.4043C195.255 36.2415 194.308 35.7793 193.65 35.0176C192.993 34.2559 192.664 33.3021 192.664 32.1562C192.664 30.8151 193.143 29.7507 194.1 28.9629C195.063 28.1751 196.421 27.7812 198.172 27.7812H204.412V42ZM201.697 34.6562V29.8125H198.396C197.257 29.8125 196.469 30.0273 196.033 30.457C195.597 30.8802 195.379 31.4564 195.379 32.1855C195.379 32.9212 195.597 33.5169 196.033 33.9727C196.469 34.4284 197.257 34.6562 198.396 34.6562H201.697ZM194.891 42H192L196.131 35.4668H198.885L194.891 42ZM207.654 42V27.7812H210.867L215.643 38.0352C215.74 38.2435 215.838 38.4551 215.936 38.6699C216.033 38.8783 216.108 39.0573 216.16 39.207H216.219C216.271 39.0573 216.339 38.8783 216.424 38.6699C216.508 38.4551 216.596 38.2435 216.688 38.0352L221.521 27.7812H224.803V42H222.127L222.137 32.3516C222.137 32.1497 222.143 31.9349 222.156 31.707C222.169 31.4727 222.182 31.2578 222.195 31.0625H222.127C222.081 31.2578 222.023 31.4727 221.951 31.707C221.886 31.9349 221.808 32.1497 221.717 32.3516L217.205 42H214.9L210.408 32.3516C210.311 32.1562 210.226 31.9447 210.154 31.7168C210.083 31.4824 210.024 31.2643 209.979 31.0625H209.91C209.923 31.2643 209.936 31.4824 209.949 31.7168C209.969 31.9447 209.979 32.1595 209.979 32.3613V42H207.654Z" fill="white"/>
<g clip-path="url(#clip1_9500_22833)">
<path d="M414.733 153.949C402.882 144.072 396.276 133.569 395.102 122.724C394.315 115.441 396.059 109.295 397.745 103.351C399.81 96.0719 401.763 89.1957 399.456 80.3153C397.835 74.0724 394.434 68.2397 389.352 62.9827L390.391 61.9824C395.647 67.4229 399.167 73.4679 400.853 79.9519C403.257 89.2101 401.16 96.5972 399.135 103.74C397.485 109.551 395.781 115.56 396.539 122.565C397.673 133.025 404.106 143.212 415.661 152.841L414.733 153.945V153.949Z" fill="#231F20"/>
<path d="M487.042 183.404H473.046C467.071 183.404 462.227 193.123 462.227 205.112C462.227 217.102 467.071 226.82 473.046 226.82H487.042C493.016 226.82 497.861 217.102 497.861 205.112C497.861 193.123 493.016 183.404 487.042 183.404Z" fill="#231F20" stroke="#231F20" stroke-width="0.6" stroke-miterlimit="10"/>
<path d="M488.969 223.524C484.734 223.524 481.305 215.101 481.305 204.709C481.305 194.317 484.738 185.894 488.969 185.894" fill="#231F20"/>
<path d="M488.969 223.524C484.734 223.524 481.305 215.101 481.305 204.709C481.305 194.317 484.738 185.894 488.969 185.894" stroke="#231F20" stroke-width="0.6" stroke-miterlimit="10"/>
<path d="M490.373 211.093C491.149 211.093 491.777 208.48 491.777 205.256C491.777 202.033 491.149 199.42 490.373 199.42C489.597 199.42 488.969 202.033 488.969 205.256C488.969 208.48 489.597 211.093 490.373 211.093Z" fill="#231F20" stroke="#231F20" stroke-width="0.6" stroke-miterlimit="10"/>
<path d="M486.32 165.942H566.044V193.342C566.044 196.228 563.693 198.57 560.798 198.57H486.32V165.942Z" fill="#231F20" stroke="#231F20" stroke-width="0.6" stroke-miterlimit="10"/>
<path d="M530.59 116.211H553.271C553.405 116.211 553.538 116.215 553.675 116.222C557.033 116.402 559.856 118.82 560.737 122.055L561.26 123.976H530.586V116.208L530.59 116.211Z" fill="#FF8B63" stroke="#231F20" stroke-width="0.6" stroke-miterlimit="10"/>
<path d="M482.219 116.211H532.337C535.117 116.211 537.376 118.46 537.376 121.235V169.699H477.18V121.235C477.18 118.464 479.436 116.211 482.219 116.211Z" fill="#FF8B63" stroke="#231F20" stroke-width="0.6" stroke-miterlimit="10"/>
<path d="M464.833 125.117H455.184C452.502 125.117 450.328 127.283 450.328 129.956V131.097C450.328 133.77 452.502 135.937 455.184 135.937H464.833C467.515 135.937 469.689 133.77 469.689 131.097V129.956C469.689 127.283 467.515 125.117 464.833 125.117Z" fill="#231F20" stroke="#231F20" stroke-width="0.6" stroke-miterlimit="10"/>
<path d="M332.672 165.625V174.563H333.755V171.94H349.762V174.563H350.845V171.94H366.851V174.563H367.934V165.625H332.672ZM333.755 170.861V166.705H349.762V170.861H333.755ZM350.845 170.861V166.705H366.851V170.861H350.845Z" fill="#7099ED" stroke="#231F20" stroke-width="0.6" stroke-miterlimit="10"/>
<path d="M333.398 165.625V174.563H334.481V171.94H350.488V174.563H351.571V171.94H367.578V174.563H368.661V165.625H333.398ZM334.481 170.861V166.705H350.488V170.861H334.481ZM351.571 170.861V166.705H367.578V170.861H351.571Z" fill="#231F20"/>
<path d="M528.483 135.937H441.547V177.298H528.483V135.937Z" fill="#7099ED" stroke="#231F20" stroke-width="0.6" stroke-miterlimit="10"/>
<path d="M501.744 135.937H441.547V177.298H501.744V135.937Z" fill="#7099ED" stroke="#231F20" stroke-width="0.6" stroke-miterlimit="10"/>
<path d="M375.733 104.543L372.867 106.453L396.959 142.364L399.825 140.454L375.733 104.543Z" fill="white"/>
<path d="M375.69 104.783L399.581 140.391L397.014 142.1L373.123 106.492L375.69 104.783ZM375.791 104.283L372.625 106.392L396.917 142.601L400.083 140.492L375.791 104.283Z" fill="#231F20"/>
<path d="M393.58 130.205L389.844 132.695L413.936 168.606L417.672 166.116L393.58 130.205Z" fill="#FF8B63"/>
<path d="M393.536 130.446L417.427 166.054L413.991 168.346L390.1 132.738L393.536 130.446ZM393.638 129.946L389.602 132.637L413.893 168.846L417.929 166.155L393.638 129.946Z" fill="#231F20"/>
<path d="M476.089 167.63H436.859C434.676 167.63 432.906 169.393 432.906 171.568C432.906 173.743 434.676 175.506 436.859 175.506H476.089C478.272 175.506 480.042 173.743 480.042 171.568C480.042 169.393 478.272 167.63 476.089 167.63Z" fill="#231F20" stroke="#231F20" stroke-width="0.6" stroke-miterlimit="10"/>
<path d="M417.128 151.15H362.094V176.032H417.128V151.15Z" fill="#231F20" stroke="#231F20" stroke-width="0.6" stroke-miterlimit="10"/>
<path d="M456.417 145.9H400.477V173.8H456.417V145.9Z" fill="#7099ED" stroke="#231F20" stroke-width="0.6" stroke-miterlimit="10"/>
<path d="M438.596 145.9H423.766V173.8H438.596V145.9Z" fill="white" stroke="#231F20" stroke-width="0.6" stroke-miterlimit="10"/>
<path d="M390.471 183.404H376.475C370.501 183.404 365.656 193.123 365.656 205.112C365.656 217.102 370.501 226.82 376.475 226.82H390.471C396.446 226.82 401.291 217.102 401.291 205.112C401.291 193.123 396.446 183.404 390.471 183.404Z" fill="#231F20" stroke="#231F20" stroke-width="0.6" stroke-miterlimit="10"/>
<path d="M392.398 223.524C388.164 223.524 384.734 215.101 384.734 204.709C384.734 194.317 388.167 185.894 392.398 185.894" fill="#231F20"/>
<path d="M392.398 223.524C388.164 223.524 384.734 215.101 384.734 204.709C384.734 194.317 388.167 185.894 392.398 185.894" stroke="#231F20" stroke-width="0.6" stroke-miterlimit="10"/>
<path d="M393.803 211.093C394.578 211.093 395.207 208.48 395.207 205.256C395.207 202.033 394.578 199.42 393.803 199.42C393.027 199.42 392.398 202.033 392.398 205.256C392.398 208.48 393.027 211.093 393.803 211.093Z" fill="#231F20" stroke="#231F20" stroke-width="0.6" stroke-miterlimit="10"/>
<path d="M369.706 183.404H355.71C349.735 183.404 344.891 193.123 344.891 205.112C344.891 217.102 349.735 226.82 355.71 226.82H369.706C375.68 226.82 380.525 217.102 380.525 205.112C380.525 193.123 375.68 183.404 369.706 183.404Z" fill="#231F20" stroke="#231F20" stroke-width="0.6" stroke-miterlimit="10"/>
<path d="M371.633 223.524C367.398 223.524 363.969 215.101 363.969 204.709C363.969 194.317 367.402 185.894 371.633 185.894" fill="#231F20"/>
<path d="M371.633 223.524C367.398 223.524 363.969 215.101 363.969 204.709C363.969 194.317 367.402 185.894 371.633 185.894" stroke="#231F20" stroke-width="0.6" stroke-miterlimit="10"/>
<path d="M373.037 211.093C373.813 211.093 374.441 208.48 374.441 205.256C374.441 202.033 373.813 199.42 373.037 199.42C372.262 199.42 371.633 202.033 371.633 205.256C371.633 208.48 372.262 211.093 373.037 211.093Z" fill="#231F20" stroke="#231F20" stroke-width="0.6" stroke-miterlimit="10"/>
<path d="M526.589 176.028H356.5V206.681H526.589V176.028Z" fill="#231F20" stroke="#231F20" stroke-width="0.6" stroke-miterlimit="10"/>
<path d="M409.558 215.083C414.134 215.083 417.843 211.386 417.843 206.825C417.843 202.264 414.134 198.567 409.558 198.567C404.983 198.567 401.273 202.264 401.273 206.825C401.273 211.386 404.983 215.083 409.558 215.083Z" fill="#231F20" stroke="#231F20" stroke-width="0.6" stroke-miterlimit="10"/>
<path d="M467.01 183.404H453.014C447.04 183.404 442.195 193.123 442.195 205.112C442.195 217.102 447.04 226.82 453.014 226.82H467.01C472.985 226.82 477.83 217.102 477.83 205.112C477.83 193.123 472.985 183.404 467.01 183.404Z" fill="#7099ED" stroke="#231F20" stroke-width="0.6" stroke-miterlimit="10"/>
<path d="M469.979 215.58C472.12 215.58 473.856 211.001 473.856 205.354C473.856 199.706 472.12 195.127 469.979 195.127C467.837 195.127 466.102 199.706 466.102 205.354C466.102 211.001 467.837 215.58 469.979 215.58Z" fill="#7099ED" stroke="#231F20" stroke-width="0.6" stroke-miterlimit="10"/>
<path d="M468.937 223.524C464.703 223.524 461.273 215.101 461.273 204.709C461.273 194.317 464.707 185.894 468.937 185.894" stroke="#231F20" stroke-width="0.6" stroke-miterlimit="10"/>
<path d="M469.985 214.63C471.927 214.63 473.501 210.476 473.501 205.353C473.501 200.23 471.927 196.077 469.985 196.077C468.043 196.077 466.469 200.23 466.469 205.353C466.469 210.476 468.043 214.63 469.985 214.63Z" fill="#7099ED" stroke="#231F20" stroke-width="0.6" stroke-miterlimit="10"/>
<path d="M468.936 211.093C469.711 211.093 470.34 208.48 470.34 205.256C470.34 202.033 469.711 199.42 468.936 199.42C468.16 199.42 467.531 202.033 467.531 205.256C467.531 208.48 468.16 211.093 468.936 211.093Z" fill="#7099ED" stroke="#231F20" stroke-width="0.6" stroke-miterlimit="10"/>
<path d="M545.51 183.404H531.514C525.54 183.404 520.695 193.123 520.695 205.112C520.695 217.102 525.54 226.82 531.514 226.82H545.51C551.485 226.82 556.33 217.102 556.33 205.112C556.33 193.123 551.485 183.404 545.51 183.404Z" fill="#7099ED" stroke="#231F20" stroke-width="0.6" stroke-miterlimit="10"/>
<path d="M445.596 183.404H431.6C425.626 183.404 420.781 193.123 420.781 205.112C420.781 217.102 425.626 226.82 431.6 226.82H445.596C451.571 226.82 456.416 217.102 456.416 205.112C456.416 193.123 451.571 183.404 445.596 183.404Z" fill="#7099ED" stroke="#231F20" stroke-width="0.6" stroke-miterlimit="10"/>
<path d="M448.565 215.58C450.706 215.58 452.442 211.001 452.442 205.354C452.442 199.706 450.706 195.127 448.565 195.127C446.423 195.127 444.688 199.706 444.688 205.354C444.688 211.001 446.423 215.58 448.565 215.58Z" fill="#7099ED" stroke="#231F20" stroke-width="0.6" stroke-miterlimit="10"/>
<path d="M447.523 223.524C443.289 223.524 439.859 215.101 439.859 204.709C439.859 194.317 443.292 185.894 447.523 185.894" stroke="#231F20" stroke-width="0.6" stroke-miterlimit="10"/>
<path d="M448.563 214.63C450.505 214.63 452.079 210.476 452.079 205.353C452.079 200.23 450.505 196.077 448.563 196.077C446.621 196.077 445.047 200.23 445.047 205.353C445.047 210.476 446.621 214.63 448.563 214.63Z" fill="#7099ED" stroke="#231F20" stroke-width="0.6" stroke-miterlimit="10"/>
<path d="M447.521 211.093C448.297 211.093 448.926 208.48 448.926 205.256C448.926 202.033 448.297 199.42 447.521 199.42C446.746 199.42 446.117 202.033 446.117 205.256C446.117 208.48 446.746 211.093 447.521 211.093Z" fill="#7099ED" stroke="#231F20" stroke-width="0.6" stroke-miterlimit="10"/>
<path d="M428.984 176.539H408.133V201.806H428.984V176.539Z" fill="#7099ED" stroke="#231F20" stroke-width="0.6" stroke-miterlimit="10"/>
<path d="M537.945 201.805H517.094L521.469 178.259H542.32L537.945 201.805Z" fill="#7099ED" stroke="#231F20" stroke-width="0.6" stroke-miterlimit="10"/>
<path d="M477.18 176.859V140.776" stroke="#231F20" stroke-width="0.6" stroke-miterlimit="10"/>
<path d="M356.5 176.539H335.648V201.806H356.5V176.539Z" fill="#7099ED" stroke="#231F20" stroke-width="0.6" stroke-miterlimit="10"/>
<path d="M416.133 176.859H409.562V186.61H416.133V176.859Z" fill="#7099ED" stroke="#231F20" stroke-width="0.6" stroke-miterlimit="10"/>
<path d="M417.165 183.335H408.526C407.757 183.335 407.133 183.957 407.133 184.724V187.07C407.133 187.837 407.757 188.459 408.526 188.459H417.165C417.935 188.459 418.558 187.837 418.558 187.07V184.724C418.558 183.957 417.935 183.335 417.165 183.335Z" fill="#FF8B63" stroke="#231F20" stroke-width="0.6" stroke-miterlimit="10"/>
<path d="M415.735 183.335H407.097C406.327 183.335 405.703 183.957 405.703 184.724V187.07C405.703 187.837 406.327 188.459 407.097 188.459H415.735C416.505 188.459 417.129 187.837 417.129 187.07V184.724C417.129 183.957 416.505 183.335 415.735 183.335Z" fill="#FF8B63" stroke="#231F20" stroke-width="0.6" stroke-miterlimit="10"/>
<path d="M344.508 176.859H337.938V186.61H344.508V176.859Z" fill="#7099ED" stroke="#231F20" stroke-width="0.6" stroke-miterlimit="10"/>
<path d="M345.54 183.335H336.901C336.132 183.335 335.508 183.957 335.508 184.724V187.07C335.508 187.837 336.132 188.459 336.901 188.459H345.54C346.31 188.459 346.933 187.837 346.933 187.07V184.724C346.933 183.957 346.31 183.335 345.54 183.335Z" fill="#FF8B63" stroke="#231F20" stroke-width="0.6" stroke-miterlimit="10"/>
<path d="M344.11 183.335H335.472C334.702 183.335 334.078 183.957 334.078 184.724V187.07C334.078 187.837 334.702 188.459 335.472 188.459H344.11C344.88 188.459 345.504 187.837 345.504 187.07V184.724C345.504 183.957 344.88 183.335 344.11 183.335Z" fill="#FF8B63" stroke="#231F20" stroke-width="0.6" stroke-miterlimit="10"/>
<path d="M528.878 173.801H415.391V178.263H528.878V173.801Z" fill="#7099ED" stroke="#231F20" stroke-width="0.6" stroke-miterlimit="10"/>
<path d="M423.769 173.801H332.367V178.263H423.769V173.801Z" fill="#7099ED" stroke="#231F20" stroke-width="0.6" stroke-miterlimit="10"/>
<path d="M387.27 139.729H364.05C359.63 139.729 356.047 143.301 356.047 147.706V157.375C356.047 161.78 359.63 165.352 364.05 165.352H387.27C391.69 165.352 395.273 161.78 395.273 157.375V147.706C395.273 143.301 391.69 139.729 387.27 139.729Z" fill="#231F20" stroke="#231F20" stroke-width="0.6" stroke-miterlimit="10"/>
<path d="M525.883 138.639H505.602V147.89H525.883V138.639Z" fill="#7099ED" stroke="#231F20" stroke-width="0.6" stroke-miterlimit="10"/>
<path d="M519.879 163.693H511.023V165.403H519.879V163.693Z" fill="#7099ED" stroke="#231F20" stroke-width="0.6" stroke-miterlimit="10"/>
<path d="M460.624 163.693V173.801H461.866V170.832H480.245V173.801H481.487V170.832H499.865V173.801H501.107V163.693H460.617H460.624ZM461.866 169.612V164.913H480.245V169.612H461.866ZM481.49 169.612V164.913H499.869V169.612H481.49Z" fill="#7099ED" stroke="#231F20" stroke-width="0.6" stroke-miterlimit="10"/>
<path d="M461.469 163.693V173.801H462.707V170.832H481.031V173.801H482.27V170.832H500.594V173.801H501.832V163.693H461.469ZM462.707 169.612V164.913H481.031V169.612H462.707ZM482.27 169.612V164.913H500.594V169.612H482.27Z" fill="#231F20"/>
<path d="M427.535 157.573C428.037 157.573 428.444 156.687 428.444 155.594C428.444 154.501 428.037 153.615 427.535 153.615C427.032 153.615 426.625 154.501 426.625 155.594C426.625 156.687 427.032 157.573 427.535 157.573Z" fill="#7099ED" stroke="#231F20" stroke-width="0.6" stroke-miterlimit="10"/>
<path d="M427.535 164.546C428.037 164.546 428.444 163.686 428.444 162.625C428.444 161.563 428.037 160.703 427.535 160.703C427.032 160.703 426.625 161.563 426.625 162.625C426.625 163.686 427.032 164.546 427.535 164.546Z" fill="#7099ED" stroke="#231F20" stroke-width="0.6" stroke-miterlimit="10"/>
<path d="M427.535 171.379C428.037 171.379 428.444 170.626 428.444 169.698C428.444 168.77 428.037 168.018 427.535 168.018C427.032 168.018 426.625 168.77 426.625 169.698C426.625 170.626 427.032 171.379 427.535 171.379Z" fill="#7099ED" stroke="#231F20" stroke-width="0.6" stroke-miterlimit="10"/>
<path d="M537.376 123.976H477.18" stroke="#231F20" stroke-width="0.6" stroke-miterlimit="10"/>
<path d="M501.111 217.216C507.067 217.216 511.894 212.404 511.894 206.469C511.894 200.533 507.067 195.721 501.111 195.721C495.156 195.721 490.328 200.533 490.328 206.469C490.328 212.404 495.156 217.216 501.111 217.216Z" fill="#231F20" stroke="#231F20" stroke-width="0.6" stroke-miterlimit="10"/>
<path d="M376.125 19.6641L376.789 40.7784" stroke="#231F20" stroke-width="0.6" stroke-miterlimit="10"/>
<path d="M521.786 183.336H494.418C492.159 183.336 490.328 185.161 490.328 187.413V204.738C490.328 206.99 492.159 208.815 494.418 208.815H521.786C524.045 208.815 525.876 206.99 525.876 204.738V187.413C525.876 185.161 524.045 183.336 521.786 183.336Z" fill="#7099ED" stroke="#231F20" stroke-width="0.6" stroke-miterlimit="10"/>
<path d="M497.676 183.336H487.059C484.8 183.336 482.969 185.161 482.969 187.413V204.738C482.969 206.99 484.8 208.815 487.059 208.815H497.676C499.935 208.815 501.766 206.99 501.766 204.738V187.413C501.766 185.161 499.935 183.336 497.676 183.336Z" fill="#7099ED" stroke="#231F20" stroke-width="0.6" stroke-miterlimit="10"/>
<path d="M504.508 183.336H502.602C504.861 183.336 506.692 185.16 506.692 187.413V204.738C506.692 206.991 504.861 208.815 502.602 208.815H504.508C506.768 208.815 508.598 206.991 508.598 204.738V187.413C508.598 185.16 506.768 183.336 504.508 183.336Z" fill="#7099ED" stroke="#231F20" stroke-width="0.6" stroke-miterlimit="10"/>
<path d="M517.359 183.336H515.453C517.713 183.336 519.543 185.16 519.543 187.413V204.738C519.543 206.991 517.713 208.815 515.453 208.815H517.359C519.619 208.815 521.449 206.991 521.449 204.738V187.413C521.449 185.16 519.619 183.336 517.359 183.336Z" fill="#7099ED" stroke="#231F20" stroke-width="0.6" stroke-miterlimit="10"/>
<path d="M441.547 140.776H480.044H501.834" stroke="#231F20" stroke-width="0.6" stroke-miterlimit="10"/>
<path d="M393.711 196.566H389.766V226.823H393.711V196.566Z" fill="white"/>
<path d="M393.532 196.746V226.644H389.947V196.746H393.532ZM393.893 196.386H389.586V227.003H393.893V196.386Z" fill="#231F20"/>
<path d="M396.057 225.082H387.422V226.819H396.057V225.082Z" fill="#FF8B63"/>
<path d="M395.877 225.262V226.643H387.603V225.262H395.877ZM396.238 224.902H387.242V227.003H396.238V224.902Z" fill="#231F20"/>
<path d="M357.563 196.566H353.617V226.823H357.563V196.566Z" fill="white"/>
<path d="M357.383 196.746V226.644H353.799V196.746H357.383ZM357.744 196.386H353.438V227.003H357.744V196.386Z" fill="#231F20"/>
<path d="M359.909 225.082H351.273V226.819H359.909V225.082Z" fill="#FF8B63"/>
<path d="M359.729 225.262V226.643H351.455V225.262H359.729ZM360.09 224.902H351.094V227.003H360.09V224.902Z" fill="#231F20"/>
<path d="M394.452 184.512H389.102V210.912H394.452V184.512Z" fill="#FF8B63"/>
<path d="M394.272 184.692V210.732H389.283V184.692H394.272ZM394.633 184.332H388.922V211.092H394.633V184.332Z" fill="#231F20"/>
<path d="M386.931 54.7964H375.242C370.72 54.7964 367.055 58.4501 367.055 62.9571V63.7164C367.055 68.2234 370.72 71.8771 375.242 71.8771H386.931C391.453 71.8771 395.119 68.2234 395.119 63.7164V62.9571C395.119 58.4501 391.453 54.7964 386.931 54.7964Z" fill="#383940" stroke="#231F20" stroke-miterlimit="10"/>
<path d="M392.908 57.0166H390.695C387.567 57.0166 385.031 59.5442 385.031 62.6622V64.0079C385.031 67.1259 387.567 69.6535 390.695 69.6535H392.908C396.036 69.6535 398.572 67.1259 398.572 64.0079V62.6622C398.572 59.5442 396.036 57.0166 392.908 57.0166Z" fill="#383940" stroke="#231F20" stroke-miterlimit="10"/>
<path d="M387.47 103.614H366.164V106.744H387.47V103.614Z" fill="#FF8B63" stroke="#231F20" stroke-miterlimit="10"/>
<path d="M387.47 153.618H366.164V156.748H387.47V153.618Z" fill="#FF8B63" stroke="#231F20" stroke-miterlimit="10"/>
<path d="M383.622 1.17969H373.243C371.12 1.17969 369.398 2.89537 369.398 5.01178V6.83607C369.398 8.95248 371.12 10.6682 373.243 10.6682H383.622C385.745 10.6682 387.466 8.95248 387.466 6.83607V5.01178C387.466 2.89537 385.745 1.17969 383.622 1.17969Z" fill="#FF8B63" stroke="#231F20" stroke-width="0.6" stroke-miterlimit="10"/>
<path d="M388.358 10.8477H383.578V190.934H388.358V10.8477Z" fill="#FF8B63"/>
<path d="M388.178 11.0278V190.755H383.759V11.0278H388.178ZM388.539 10.668H383.398V191.115H388.539V10.668Z" fill="#231F20"/>
<path d="M372.389 10.8477H367.609V190.934H372.389V10.8477Z" fill="#FF8B63"/>
<path d="M372.209 11.0278V190.755H367.791V11.0278H372.209ZM372.57 10.668H367.43V191.115H372.57V10.668Z" fill="#231F20"/>
<path d="M358.264 184.512H352.914V210.912H358.264V184.512Z" fill="#FF8B63"/>
<path d="M358.084 184.692V210.732H353.095V184.692H358.084ZM358.445 184.332H352.734V211.092H358.445V184.332Z" fill="#231F20"/>
<path d="M359.241 187.873H351.938V194.36H359.241V187.873Z" fill="#FF8B63"/>
<path d="M359.061 188.053V194.18H352.119V188.053H359.061ZM359.422 187.693H351.758V194.54H359.422V187.693Z" fill="#231F20"/>
<path d="M371.975 173.8H370V190.312H371.975V173.8Z" fill="#FF8B63" stroke="#231F20" stroke-miterlimit="10"/>
<path d="M379.068 173.8H377.094V190.312H379.068V173.8Z" fill="#FF8B63" stroke="#231F20" stroke-miterlimit="10"/>
<path d="M373.197 19.354C372.45 19.354 371.844 18.7495 371.844 18.0047V11.402C371.844 11.258 371.959 11.1429 372.103 11.1429H374.295C374.439 11.1429 374.555 11.258 374.555 11.402V18.0047C374.555 18.7495 373.948 19.354 373.201 19.354H373.197Z" fill="#FF8B63" stroke="#231F20" stroke-miterlimit="10"/>
<path d="M374.377 20.7288C375.521 20.7288 376.449 19.6977 376.449 18.4259C376.449 17.1541 375.521 16.123 374.377 16.123C373.232 16.123 372.305 17.1541 372.305 18.4259C372.305 19.6977 373.232 20.7288 374.377 20.7288Z" fill="#231F20" stroke="#231F20" stroke-miterlimit="10"/>
<path d="M375.549 19.354C374.802 19.354 374.195 18.7495 374.195 18.0047V11.402C374.195 11.258 374.311 11.1429 374.455 11.1429H376.646C376.791 11.1429 376.906 11.258 376.906 11.402V18.0047C376.906 18.7495 376.3 19.354 375.552 19.354H375.549Z" fill="#FF8B63" stroke="#231F20" stroke-miterlimit="10"/>
<path d="M375.483 48.4419H373.273V136.386H375.483V48.4419Z" fill="white"/>
<path d="M375.303 48.622V136.206H373.455V48.622H375.303ZM375.664 48.2622H373.094V136.566H375.664V48.2622Z" fill="#231F20"/>
<path d="M376.604 81.0742H372.156V169.018H376.604V81.0742Z" fill="#FF8B63"/>
<path d="M376.416 81.2544V168.838H372.33V81.2544H376.416ZM376.777 80.8945H371.969V169.198H376.777V80.8945Z" fill="#231F20"/>
<path d="M376.909 167.809H371.844V170.58H376.909V167.809Z" fill="#FF8B63"/>
<path d="M376.729 167.989V170.4H372.025V167.989H376.729ZM377.09 167.629H371.664V170.76H377.09V167.629Z" fill="#231F20"/>
<path d="M376.909 83.2549H371.844V86.0255H376.909V83.2549Z" fill="#FF8B63"/>
<path d="M376.729 83.435V85.8458H372.025V83.435H376.729ZM377.09 83.0752H371.664V86.2056H377.09V83.0752Z" fill="#231F20"/>
<path d="M373.209 42.4619C373.956 42.4619 374.563 43.0664 374.563 43.8112V50.414C374.563 50.5579 374.447 50.673 374.303 50.673H372.111C371.967 50.673 371.852 50.5579 371.852 50.414V43.8112C371.852 43.0664 372.458 42.4619 373.205 42.4619H373.209Z" fill="#FF8B63" stroke="#231F20" stroke-miterlimit="10"/>
<path d="M374.382 47.2297C376.121 47.2297 377.53 45.4721 377.53 43.3041C377.53 41.136 376.121 39.3784 374.382 39.3784C372.644 39.3784 371.234 41.136 371.234 43.3041C371.234 45.4721 372.644 47.2297 374.382 47.2297Z" fill="#231F20" stroke="#231F20" stroke-miterlimit="10"/>
<path d="M375.56 42.4619C376.308 42.4619 376.914 43.0664 376.914 43.8112V50.414C376.914 50.5579 376.799 50.673 376.654 50.673H374.463C374.319 50.673 374.203 50.5579 374.203 50.414V43.8112C374.203 43.0664 374.81 42.4619 375.557 42.4619H375.56Z" fill="#FF8B63" stroke="#231F20" stroke-miterlimit="10"/>
<path d="M376.909 48.4419H371.844V51.2125H376.909V48.4419Z" fill="#FF8B63"/>
<path d="M376.729 48.622V51.0328H372.025V48.622H376.729ZM377.09 48.2622H371.664V51.3926H377.09V48.2622Z" fill="#231F20"/>
<path d="M376.909 48.4419H371.844V51.2125H376.909V48.4419Z" fill="#FF8B63"/>
<path d="M376.729 48.622V51.0328H372.025V48.622H376.729ZM377.09 48.2622H371.664V51.3926H377.09V48.2622Z" fill="#231F20"/>
<path d="M381.269 190.132V173.98H367.483V190.132H364.703V10.8477H384.049V190.128H381.269V190.132ZM367.483 169.928H381.269V14.9028H367.483V169.925V169.928Z" fill="#FF8B63"/>
<path d="M383.869 11.0278V189.949H381.451V173.796H367.303V189.949H364.884V11.0278H383.869ZM367.303 170.105H381.451V14.7232H367.303V170.108M384.23 10.668H364.523V190.309H367.664V174.156H381.09V190.309H384.23V10.668ZM367.664 169.745V15.083H381.09V169.748H367.664V169.745Z" fill="#231F20"/>
<path d="M371.789 110.346H367.844V226.823H371.789V110.346Z" fill="white"/>
<path d="M371.61 110.526V226.644H368.025V110.526H371.61ZM371.971 110.166H367.664V227.003H371.971V110.166Z" fill="#231F20"/>
<path d="M367.086 90.228V79.2714C367.086 78.3755 367.819 77.645 368.718 77.645H371.281C372.18 77.645 372.912 78.3755 372.912 79.2714V90.228H367.09H367.086Z" fill="#FF8B63"/>
<path d="M371.278 77.8286C372.076 77.8286 372.729 78.4762 372.729 79.275V90.0517H367.267V79.275C367.267 78.4798 367.917 77.8286 368.718 77.8286H371.282M371.282 77.4688H368.718C367.718 77.4688 366.906 78.2783 366.906 79.275V90.4115H373.09V79.275C373.09 78.2783 372.278 77.4688 371.278 77.4688H371.282Z" fill="#231F20"/>
<path d="M367.983 91.1562H366.344V96.1326H367.983V91.1562Z" fill="#FF8B63"/>
<path d="M367.803 91.3364V95.9565H366.525V91.3364H367.803ZM368.164 90.9766H366.164V96.3163H368.164V90.9766Z" fill="#231F20"/>
<path d="M373.647 91.1562H372.008V96.1326H373.647V91.1562Z" fill="#FF8B63"/>
<path d="M373.467 91.3364V95.9565H372.189V91.3364H373.467ZM373.828 90.9766H371.828V96.3163H373.828V90.9766Z" fill="#231F20"/>
<path d="M366.344 92.3509V89.5479C366.344 88.9506 366.831 88.4648 367.43 88.4648H372.56C373.159 88.4648 373.647 88.9506 373.647 89.5479V92.3509H366.344Z" fill="#FF8B63"/>
<path d="M372.561 88.645C373.059 88.645 373.467 89.0516 373.467 89.5481V92.1712H366.525V89.5481C366.525 89.0516 366.933 88.645 367.431 88.645H372.561ZM372.561 88.2852H367.431C366.731 88.2852 366.164 88.8501 366.164 89.5481V92.531H373.828V89.5481C373.828 88.8501 373.261 88.2852 372.561 88.2852Z" fill="#231F20"/>
<path d="M373.647 94.8589H366.344V96.1362H373.647V94.8589Z" fill="#FF8B63"/>
<path d="M373.467 95.039V95.9566H366.525V95.039H373.467ZM373.828 94.6792H366.164V96.3164H373.828V94.6792Z" fill="#231F20"/>
<path d="M375.773 54.2637H378.058C379.061 54.2637 379.877 55.0769 379.877 56.0772V67.4655C379.877 68.4658 379.061 69.279 378.058 69.279H375.773C374.769 69.279 373.953 68.4658 373.953 67.4655V56.0772C373.953 55.0769 374.769 54.2637 375.773 54.2637Z" fill="#231F20"/>
<path d="M378.059 54.4438C378.961 54.4438 379.697 55.1778 379.697 56.0774V67.4657C379.697 68.3653 378.961 69.0993 378.059 69.0993H375.773C374.871 69.0993 374.134 68.3653 374.134 67.4657V56.0774C374.134 55.1778 374.871 54.4438 375.773 54.4438H378.059ZM378.059 54.084H375.773C374.669 54.084 373.773 54.9763 373.773 56.0774V67.4657C373.773 68.5668 374.669 69.4591 375.773 69.4591H378.059C379.163 69.4591 380.058 68.5668 380.058 67.4657V56.0774C380.058 54.9763 379.163 54.084 378.059 54.084Z" fill="#231F20"/>
<path d="M382.215 64.7524H366.537C365.524 64.7524 364.703 65.5708 364.703 66.5803V77.5585C364.703 78.568 365.524 79.3864 366.537 79.3864H382.215C383.228 79.3864 384.049 78.568 384.049 77.5585V66.5803C384.049 65.5708 383.228 64.7524 382.215 64.7524Z" fill="#FF8B63"/>
<path d="M382.22 64.9326C383.129 64.9326 383.873 65.6702 383.873 66.5806V77.5623C383.873 78.469 383.133 79.2103 382.22 79.2103H366.538C365.628 79.2103 364.884 78.4726 364.884 77.5623V66.5806C364.884 65.6738 365.624 64.9326 366.538 64.9326H382.22ZM382.22 64.5728H366.538C365.426 64.5728 364.523 65.4723 364.523 66.5806V77.5623C364.523 78.6705 365.426 79.5701 366.538 79.5701H382.22C383.332 79.5701 384.234 78.6705 384.234 77.5623V66.5806C384.234 65.4723 383.332 64.5728 382.22 64.5728Z" fill="#231F20"/>
<path d="M355.562 103.373C355.06 103.373 354.551 103.311 354.038 103.178C349.428 101.969 347.937 95.6365 347.378 93.2509C345.266 84.2733 349.226 76.1558 351.027 73.0793C353.598 68.6895 356.056 66.894 358.034 65.4511C359.836 64.1378 361.258 63.0979 362.262 60.5144C365.236 52.8574 359.876 43.4373 356.998 38.3746C355.255 35.3125 354.536 34.0423 355.554 33.4054C355.72 33.3011 356.002 33.1968 356.403 33.2903C357.923 33.6573 360.944 37.2231 362.702 40.1953C367.236 47.8523 366.399 55.7611 365.5 59.7911L364.11 59.4817C363.977 60.0034 363.811 60.5216 363.612 61.0325C362.457 64.0082 360.803 65.2136 358.89 66.6133C356.926 68.049 354.699 69.6718 352.277 73.8062C350.562 76.7315 346.793 84.4497 348.786 92.9234C349.291 95.0788 350.638 100.8 354.406 101.786C357.832 102.685 361.413 99.1376 361.565 98.9864C366.045 94.4851 365.818 84.8599 360.995 74.4574L362.305 73.8529C367.464 84.975 367.576 94.9924 362.59 100.001C362.208 100.386 359.117 103.373 355.565 103.373H355.562ZM356.941 35.2873C357.28 35.9602 357.782 36.8453 358.251 37.6657C360.778 42.1095 365.143 49.7773 364.514 57.0457C365.06 52.9293 364.955 46.8412 361.453 40.9257C359.977 38.4321 358.092 36.2876 356.941 35.2837V35.2873Z" fill="#231F20"/>
<path d="M364.093 54.9761H366.378C367.382 54.9761 368.197 55.7893 368.197 56.7896V68.1779C368.197 69.1782 367.382 69.9914 366.378 69.9914H364.093C363.089 69.9914 362.273 69.1782 362.273 68.1779V56.7896C362.273 55.7893 363.089 54.9761 364.093 54.9761Z" fill="#231F20"/>
<path d="M366.379 55.1562C367.281 55.1562 368.018 55.8902 368.018 56.7898V68.1781C368.018 69.0777 367.281 69.8117 366.379 69.8117H364.094C363.191 69.8117 362.455 69.0777 362.455 68.1781V56.7898C362.455 55.8902 363.191 55.1562 364.094 55.1562H366.379ZM366.379 54.7964H364.094C362.989 54.7964 362.094 55.6887 362.094 56.7898V68.1781C362.094 69.2792 362.989 70.1715 364.094 70.1715H366.379C367.483 70.1715 368.379 69.2792 368.379 68.1781V56.7898C368.379 55.6887 367.483 54.7964 366.379 54.7964Z" fill="#231F20"/>
<path d="M375.504 64.7524H359.826C358.813 64.7524 357.992 65.5708 357.992 66.5803V77.5585C357.992 78.568 358.813 79.3864 359.826 79.3864H375.504C376.517 79.3864 377.338 78.568 377.338 77.5585V66.5803C377.338 65.5708 376.517 64.7524 375.504 64.7524Z" fill="#FF8B63"/>
<path d="M375.501 64.9326C376.411 64.9326 377.154 65.6702 377.154 66.5806V77.5623C377.154 78.469 376.414 79.2103 375.501 79.2103H359.819C358.909 79.2103 358.166 78.4726 358.166 77.5623V66.5806C358.166 65.6738 358.906 64.9326 359.819 64.9326H375.501ZM375.501 64.5728H359.819C358.707 64.5728 357.805 65.4723 357.805 66.5806V77.5623C357.805 78.6705 358.707 79.5701 359.819 79.5701H375.501C376.613 79.5701 377.515 78.6705 377.515 77.5623V66.5806C377.515 65.4723 376.613 64.5728 375.501 64.5728Z" fill="#231F20"/>
<path d="M391.778 189.352H349.469V192.881H391.778V189.352Z" fill="#FF8B63"/>
<path d="M391.598 189.532V192.702H349.65V189.532H391.598ZM391.959 189.172H349.289V193.062H391.959V189.172Z" fill="#231F20"/>
<path d="M376.432 187.873H363.367V194.36H376.432V187.873Z" fill="#FF8B63"/>
<path d="M376.252 188.053V194.18H363.549V188.053H376.252ZM376.613 187.693H363.188V194.54H376.613V187.693Z" fill="#231F20"/>
<path d="M395.608 187.873H388.305V194.36H395.608V187.873Z" fill="#FF8B63"/>
<path d="M395.428 188.053V194.18H388.486V188.053H395.428ZM395.789 187.693H388.125V194.54H395.789V187.693Z" fill="#231F20"/>
<path d="M380.387 1.17969H370.009C367.885 1.17969 366.164 2.89537 366.164 5.01178V6.83607C366.164 8.95248 367.885 10.6682 370.009 10.6682H380.387C382.511 10.6682 384.232 8.95248 384.232 6.83607V5.01178C384.232 2.89537 382.511 1.17969 380.387 1.17969Z" fill="#FF8B63" stroke="#231F20" stroke-width="0.6" stroke-miterlimit="10"/>
<path d="M388.368 189.352H370.812V192.881H388.368V189.352Z" fill="#FF8B63"/>
<path d="M388.18 189.532V192.702H370.986V189.532H388.18ZM388.541 189.172H370.625V193.062H388.541V189.172Z" fill="#231F20"/>
<path d="M369.938 97.1834C365.635 97.1834 361.382 96.2587 357.927 94.438C352.79 91.7285 349.133 86.9429 347.354 80.5993C344.993 72.1939 346.249 61.4712 350.411 54.5231C353.732 48.9746 357.09 46.3623 360.122 46.974C362.981 47.5497 365.317 51.0796 366.071 55.9695L364.646 56.189C363.992 51.9683 362.061 48.8343 359.837 48.3881C357.494 47.9203 354.588 50.3599 351.649 55.2643C347.675 61.8994 346.48 72.1579 348.743 80.2143C350.415 86.1693 353.826 90.6491 358.602 93.1678C364.599 96.3307 373.158 96.6185 379.898 93.8839C384.627 91.966 387.926 88.7564 389.186 84.8524C391.533 77.5732 387.009 68.0991 378.425 62.324L379.234 61.1294C388.338 67.2571 393.1 77.4185 390.562 85.2914C389.168 89.6092 385.576 93.1354 380.443 95.2152C377.197 96.5322 373.548 97.1834 369.938 97.1834Z" fill="#231F20"/>
<path d="M370.785 108.687C366.543 108.687 362.207 106.247 359.908 104.419C351.807 97.9823 352.319 86.3204 352.973 71.5606C353.731 54.3504 356.179 45.3081 360.251 44.6892C362.9 44.2862 365.438 47.4706 366.514 49.4172C369.503 54.8217 366.312 60.6724 365.936 61.3201L364.684 60.604C365.016 60.0283 367.857 54.8253 365.25 50.1117C364.319 48.4241 362.196 45.8442 360.471 46.1105C358.98 46.3371 355.402 49.2805 354.417 71.6218C353.785 85.975 353.283 97.313 360.81 103.293C363.55 105.47 369.406 108.622 373.969 106.614C377.181 105.2 379.528 101.3 380.943 95.0209C384.474 79.3723 380.965 55.1204 379.29 49.6835C379.03 50.9464 378.651 53.6235 378.214 59.3123L376.774 59.2043C377.088 55.0808 377.409 52.0439 377.73 50.1836C378.052 48.2982 378.369 47.341 379.21 47.341C379.875 47.341 380.459 47.7009 381.416 52.2238C382.86 59.0352 384.232 71.4419 383.831 82.5855C383.477 92.441 381.582 104.84 374.55 107.935C373.344 108.467 372.07 108.691 370.785 108.691V108.687Z" fill="#231F20"/>
<path d="M399.713 168.741C392.818 168.741 383.558 167.982 379.028 162.39C373.71 155.827 376.169 147.112 379.576 135.055C381.27 129.064 383.186 122.274 384.594 114.365C390.143 83.1612 384.262 52.6772 380.194 47.6037C379.865 47.1935 379.634 47.0748 379.558 47.0712C379.511 47.0748 378.1 47.1252 375.725 56.9591L374.32 56.6208C376.685 46.8301 378.324 45.5635 379.627 45.6319C380.212 45.6607 380.768 46.0097 381.324 46.7006C383.76 49.7375 386.219 59.449 387.443 70.8626C388.984 85.2338 388.479 100.771 386.017 114.613C384.598 122.594 382.67 129.42 380.97 135.443C377.558 147.519 375.306 155.5 380.158 161.483C384.464 166.802 393.811 167.349 400.475 167.298L400.486 168.737C400.237 168.737 399.98 168.737 399.72 168.737L399.713 168.741Z" fill="#231F20"/>
</g>
</g>
<defs>
<clipPath id="clip0_9500_22833">
<rect width="536" height="227" rx="16" fill="white"/>
</clipPath>
<clipPath id="clip1_9500_22833">
<rect width="242" height="226" fill="white" transform="translate(332.188 1)"/>
</clipPath>
</defs>
</svg>
