<svg width="536" height="227" viewBox="0 0 536 227" fill="none" xmlns="http://www.w3.org/2000/svg">
<g clip-path="url(#clip0_9500_23045)">
<rect width="536" height="227" rx="16" fill="#7099ED"/>
<path d="M49.0898 42H46.4336V32.4785C46.4336 32.2702 46.4368 32.0423 46.4434 31.7949C46.4499 31.541 46.4596 31.3132 46.4727 31.1113H46.3555C46.2578 31.3066 46.1602 31.4987 46.0625 31.6875C45.9714 31.8763 45.8411 32.0814 45.6719 32.3027L38.6699 42H35.7988V27.7812H38.4648V37.293C38.4648 37.4948 38.4583 37.7194 38.4453 37.9668C38.4388 38.2142 38.4323 38.4421 38.4258 38.6504H38.5625C38.6341 38.4876 38.722 38.3021 38.8262 38.0938C38.9368 37.8854 39.0638 37.6803 39.207 37.4785L46.2188 27.7812H49.0898V42ZM51.6777 35.1641V34.6172C51.6777 32.2279 52.3581 30.444 53.7188 29.2656C55.0794 28.0807 56.834 27.4883 58.9824 27.4883C60.9681 27.4883 62.5501 27.9082 63.7285 28.748C64.9069 29.5814 65.5579 30.8216 65.6816 32.4688L65.7012 32.6738H62.957L62.9473 32.459C62.8561 31.4759 62.4688 30.7533 61.7852 30.291C61.1081 29.8223 60.1641 29.5879 58.9531 29.5879C57.612 29.5879 56.528 29.985 55.7012 30.7793C54.8809 31.5736 54.4707 32.791 54.4707 34.4316V35.3496C54.4707 37.0618 54.8809 38.2988 55.7012 39.0605C56.528 39.8223 57.612 40.2031 58.9531 40.2031C60.3073 40.2031 61.2904 39.9395 61.9023 39.4121C62.5143 38.8783 62.8626 38.1816 62.9473 37.3223L62.957 37.1172H65.7012L65.6914 37.332C65.5807 38.8555 64.9557 40.0632 63.8164 40.9551C62.6836 41.847 61.0755 42.293 58.9922 42.293C56.8307 42.293 55.0697 41.7135 53.709 40.5547C52.3548 39.3893 51.6777 37.5924 51.6777 35.1641ZM67.7129 42V27.7812H80.7695V42H78.0547V29.8711H70.4277V42H67.7129ZM83.3574 35.1445V34.6074C83.3574 32.2376 84.0475 30.4603 85.4277 29.2754C86.8079 28.084 88.5723 27.4883 90.7207 27.4883C92.8626 27.4883 94.627 28.084 96.0137 29.2754C97.4069 30.4603 98.1035 32.2376 98.1035 34.6074V35.1445C98.1035 37.5339 97.4069 39.3242 96.0137 40.5156C94.627 41.7005 92.8626 42.293 90.7207 42.293C88.5723 42.293 86.8079 41.7005 85.4277 40.5156C84.0475 39.3242 83.3574 37.5339 83.3574 35.1445ZM86.1406 35.3105C86.1406 36.9902 86.5573 38.2272 87.3906 39.0215C88.2305 39.8092 89.3405 40.2031 90.7207 40.2031C92.1009 40.2031 93.2142 39.8092 94.0605 39.0215C94.9069 38.2272 95.3301 36.9902 95.3301 35.3105V34.4609C95.3301 32.7812 94.9069 31.5508 94.0605 30.7695C93.2207 29.9818 92.1074 29.5879 90.7207 29.5879C89.3405 29.5879 88.2305 29.9818 87.3906 30.7695C86.5573 31.5508 86.1406 32.778 86.1406 34.4512V35.3105ZM102.342 27.7812H113.758V42H111.053V29.8711H104.627L104.266 36.5898C104.174 38.4518 103.872 39.8646 103.357 40.8281C102.843 41.7917 101.867 42.2734 100.428 42.2734C100.206 42.2734 99.9948 42.2572 99.793 42.2246C99.5911 42.1986 99.3926 42.1497 99.1973 42.0781V39.7734C99.347 39.8255 99.487 39.8613 99.6172 39.8809C99.7539 39.9004 99.8939 39.9102 100.037 39.9102C100.682 39.9102 101.134 39.6367 101.395 39.0898C101.655 38.543 101.821 37.5924 101.893 36.2383L102.342 27.7812ZM117.068 42V27.7812H119.783V33.6113H127.518V27.7812H130.223V42H127.518V35.7207H119.783V42H117.068ZM146.746 42H144.09V32.4785C144.09 32.2702 144.093 32.0423 144.1 31.7949C144.106 31.541 144.116 31.3132 144.129 31.1113H144.012C143.914 31.3066 143.816 31.4987 143.719 31.6875C143.628 31.8763 143.497 32.0814 143.328 32.3027L136.326 42H133.455V27.7812H136.121V37.293C136.121 37.4948 136.115 37.7194 136.102 37.9668C136.095 38.2142 136.089 38.4421 136.082 38.6504H136.219C136.29 38.4876 136.378 38.3021 136.482 38.0938C136.593 37.8854 136.72 37.6803 136.863 37.4785L143.875 27.7812H146.746V42ZM148.592 29.8906V27.7812H161.668V29.8906H156.492V42H153.777V29.8906H148.592ZM163.514 42V27.7812H174.324V29.8809H166.199V33.6699H173.328V35.7109H166.199V39.9102H174.441V42H163.514ZM178.396 27.7812H189.812V42H187.107V29.8711H180.682L180.32 36.5898C180.229 38.4518 179.926 39.8646 179.412 40.8281C178.898 41.7917 177.921 42.2734 176.482 42.2734C176.261 42.2734 176.049 42.2572 175.848 42.2246C175.646 42.1986 175.447 42.1497 175.252 42.0781V39.7734C175.402 39.8255 175.542 39.8613 175.672 39.8809C175.809 39.9004 175.949 39.9102 176.092 39.9102C176.736 39.9102 177.189 39.6367 177.449 39.0898C177.71 38.543 177.876 37.5924 177.947 36.2383L178.396 27.7812ZM204.412 42H201.697V36.6582H196.98L196.492 36.4043C195.255 36.2415 194.308 35.7793 193.65 35.0176C192.993 34.2559 192.664 33.3021 192.664 32.1562C192.664 30.8151 193.143 29.7507 194.1 28.9629C195.063 28.1751 196.421 27.7812 198.172 27.7812H204.412V42ZM201.697 34.6562V29.8125H198.396C197.257 29.8125 196.469 30.0273 196.033 30.457C195.597 30.8802 195.379 31.4564 195.379 32.1855C195.379 32.9212 195.597 33.5169 196.033 33.9727C196.469 34.4284 197.257 34.6562 198.396 34.6562H201.697ZM194.891 42H192L196.131 35.4668H198.885L194.891 42ZM207.654 42V27.7812H210.867L215.643 38.0352C215.74 38.2435 215.838 38.4551 215.936 38.6699C216.033 38.8783 216.108 39.0573 216.16 39.207H216.219C216.271 39.0573 216.339 38.8783 216.424 38.6699C216.508 38.4551 216.596 38.2435 216.688 38.0352L221.521 27.7812H224.803V42H222.127L222.137 32.3516C222.137 32.1497 222.143 31.9349 222.156 31.707C222.169 31.4727 222.182 31.2578 222.195 31.0625H222.127C222.081 31.2578 222.023 31.4727 221.951 31.707C221.886 31.9349 221.808 32.1497 221.717 32.3516L217.205 42H214.9L210.408 32.3516C210.311 32.1562 210.226 31.9447 210.154 31.7168C210.083 31.4824 210.024 31.2643 209.979 31.0625H209.91C209.923 31.2643 209.936 31.4824 209.949 31.7168C209.969 31.9447 209.979 32.1595 209.979 32.3613V42H207.654Z" fill="white"/>
<g clip-path="url(#clip1_9500_23045)">
<path d="M622.695 40.222L499.658 -15.1187L352.711 70.5809L414.045 106.117L431.683 96.5911L476.937 122.819L479.016 124.018L622.695 40.222Z" fill="#7099ED" stroke="#231F20" stroke-width="0.6" stroke-linecap="round" stroke-linejoin="round"/>
<path d="M622.695 40.2222L479.016 124.018L585.071 189.266L722.121 106.693L622.695 40.2222Z" fill="#7099ED" stroke="#231F20" stroke-width="0.6" stroke-linecap="round" stroke-linejoin="round"/>
<path d="M476.934 122.819L431.68 96.5912L414.042 106.117L352.707 70.5811L268.875 121.691L479.012 251.118L585.068 189.266L476.934 122.819Z" fill="#FF8B63" stroke="#231F20" stroke-width="0.6" stroke-linecap="round" stroke-linejoin="round"/>
<path d="M315.479 88.3224L329.246 87.1294L303.791 101.98L290.023 103.167L315.479 88.3224Z" fill="white"/>
<path d="M327.973 87.5351L303.706 101.686L291.303 102.762L315.57 88.6105L327.973 87.5351ZM330.532 86.7241L315.394 88.0346L288.75 103.573L303.887 102.262L330.532 86.7241Z" fill="#231F20"/>
<path d="M319.264 121.25L345.322 106.059L345.264 125.493L319.211 140.69L319.264 121.25Z" fill="#7099ED"/>
<path d="M345.023 106.57L344.971 125.328L319.498 140.184L319.55 121.426L345.023 106.57ZM345.609 105.547L318.965 121.085L318.906 141.201L345.55 125.663L345.609 105.547Z" fill="#231F20"/>
<path d="M304.328 102.344L330.463 87.106L345.173 105.465L319.038 120.703L304.328 102.344Z" fill="white"/>
<path d="M330.394 87.4881L344.735 105.383L319.116 120.321L304.775 102.427L330.394 87.4881ZM330.535 86.7241L303.891 102.262L318.969 121.079L345.614 105.541L330.535 86.7241Z" fill="#231F20"/>
<path d="M288.984 123.524L289.043 103.843L303.753 102.574L318.674 121.185L318.621 140.69L288.984 123.524Z" fill="#7099ED"/>
<path d="M303.628 102.879L318.385 121.291L318.332 140.184L289.281 123.354L289.334 104.113L303.628 102.879ZM303.891 102.268L288.754 103.579L288.695 123.694L318.912 141.201L318.97 121.085L303.891 102.268Z" fill="#231F20"/>
<path d="M428.93 44.7358L428.906 37.1196L440.366 43.8014L440.39 51.4176L428.93 44.7358Z" fill="#7099ED"/>
<path d="M429.203 37.6309L440.077 43.9719L440.095 50.9064L429.22 44.5654L429.203 37.6309ZM428.617 36.6084L428.641 44.9063L440.686 51.9348L440.663 43.6369L428.617 36.6084Z" fill="#231F20"/>
<path d="M429.195 36.6082L439.642 30.5552L451.108 37.237L440.655 43.2958L429.195 36.6082Z" fill="white"/>
<path d="M439.642 30.8961L450.522 37.2429L440.661 42.9609L429.781 36.6141L439.642 30.8961ZM439.642 30.2144L428.609 36.6082L440.655 43.6367L451.687 37.2429L439.642 30.2144Z" fill="#231F20"/>
<path d="M440.953 43.801L451.406 37.748L451.423 45.3642L440.977 51.4231L440.953 43.801Z" fill="#7099ED"/>
<path d="M451.111 38.2535L451.128 45.1938L441.267 50.9118L441.25 43.9715L451.111 38.2535ZM451.696 37.2368L440.664 43.6306L440.687 51.9285L451.72 45.5347L451.696 37.2368Z" fill="#231F20"/>
<path d="M437.763 36.6139L416.383 24.1436L424.651 27.6813L446.031 40.1516L437.763 36.6139Z" fill="#7099ED"/>
<path d="M420.626 26.2826L424.502 27.9398L441.783 38.0183L437.906 36.3611L420.626 26.2826ZM412.141 22.0161L437.643 36.89L450.268 42.2906L424.766 27.4168L412.141 22.0161Z" fill="#231F20"/>
<path d="M399.916 58.6045L399.875 42.5142L424.792 57.0472L424.839 73.1375L399.916 58.6045Z" fill="#7099ED"/>
<path d="M400.172 43.0255L424.503 57.2176L424.544 72.6263L400.213 58.4341L400.172 43.0255ZM399.586 42.0029L399.633 58.7691L425.135 73.643L425.088 56.8768L399.586 42.0029Z" fill="#231F20"/>
<path d="M399.992 41.9026L412.237 22.4097L437.235 36.9838L424.991 56.4826L399.992 41.9026Z" fill="white"/>
<path d="M412.334 22.8036L436.823 37.0898L424.895 56.0891L400.406 41.8029L412.334 22.8036ZM412.141 22.0103L399.586 42.0027L425.088 56.8766L437.643 36.8841L412.141 22.0103Z" fill="#231F20"/>
<path d="M425.383 56.9648L437.762 37.2544L449.977 42.4788L450.024 58.8864L425.43 73.1374L425.383 56.9648Z" fill="#7099ED"/>
<path d="M437.875 37.6247L449.686 42.6787L449.733 58.722L425.718 72.638L425.672 57.053L437.869 37.6247M437.641 36.8901L425.086 56.8826L425.133 73.6488L450.319 59.057L450.272 42.2908L437.647 36.8901H437.641Z" fill="#231F20"/>
<path d="M438.047 208.158L438 192.25L461.505 205.96L461.546 221.868L438.047 208.158Z" fill="#7099ED"/>
<path d="M438.297 192.761L461.21 206.124L461.251 221.351L438.338 207.987L438.297 192.761ZM437.711 191.738L437.758 208.328L461.849 222.379L461.802 205.789L437.711 191.738Z" fill="#231F20"/>
<path d="M438.289 191.738L459.762 179.297L483.268 193.008L461.794 205.449L438.289 191.738Z" fill="white"/>
<path d="M459.762 179.638L482.682 193.008L461.788 205.114L438.868 191.744L459.762 179.638ZM459.762 178.957L437.703 191.738L461.794 205.789L483.853 193.008L459.762 178.957Z" fill="#231F20"/>
<path d="M462.086 205.96L483.559 193.513L483.606 209.427L462.127 221.868L462.086 205.96Z" fill="#7099ED"/>
<path d="M483.27 194.024L483.311 209.257L462.418 221.363L462.377 206.13L483.27 194.024ZM483.856 193.008L461.797 205.79L461.844 222.379L483.903 209.598L483.856 193.008Z" fill="#231F20"/>
<path d="M470.047 68.4418L470.023 58.5161L490.074 70.2048L490.097 80.1364L470.047 68.4418Z" fill="#7099ED"/>
<path d="M470.32 59.0274L489.785 70.3753L489.808 79.6252L470.343 68.2773L470.32 59.0274ZM469.734 58.0049L469.764 68.6182L490.4 80.6536L490.37 70.0403L469.734 58.0049Z" fill="#231F20"/>
<path d="M470.273 57.9755L485.024 47.4092L505.104 59.1214L490.353 69.6877L470.273 57.9755Z" fill="white"/>
<path d="M485.04 47.7618L504.563 59.1508L490.333 69.3469L470.81 57.9579L485.04 47.7618ZM485.004 47.0625L469.727 58.0049L490.363 70.0403L505.641 59.0979L485.004 47.0625Z" fill="#231F20"/>
<path d="M490.656 70.1872L505.349 59.668L505.384 71.6211L490.68 80.1423L490.656 70.1872Z" fill="#7099ED"/>
<path d="M505.058 60.2324L505.087 71.4509L490.974 79.6313L490.951 70.3402L505.058 60.2324ZM505.637 59.0923L490.359 70.0347L490.389 80.6479L505.672 71.7918L505.637 59.0923Z" fill="#231F20"/>
</g>
</g>
<defs>
<clipPath id="clip0_9500_23045">
<rect width="536" height="227" rx="16" fill="white"/>
</clipPath>
<clipPath id="clip1_9500_23045">
<rect width="455" height="268" fill="white" transform="translate(268 -16)"/>
</clipPath>
</defs>
</svg>
