<svg width="537" height="227" viewBox="0 0 537 227" fill="none" xmlns="http://www.w3.org/2000/svg">
<rect x="0.8125" width="536" height="227" rx="16" fill="#7099ED"/>
<path d="M55.7148 50.7988H53.0586V41.2773C53.0586 41.069 53.0618 40.8411 53.0684 40.5938C53.0749 40.3398 53.0846 40.112 53.0977 39.9102H52.9805C52.8828 40.1055 52.7852 40.2975 52.6875 40.4863C52.5964 40.6751 52.4661 40.8802 52.2969 41.1016L45.2949 50.7988H42.4238V36.5801H45.0898V46.0918C45.0898 46.2936 45.0833 46.5182 45.0703 46.7656C45.0638 47.013 45.0573 47.2409 45.0508 47.4492H45.1875C45.2591 47.2865 45.347 47.1009 45.4512 46.8926C45.5618 46.6842 45.6888 46.4792 45.832 46.2773L52.8438 36.5801H55.7148V50.7988ZM58.3027 43.9629V43.416C58.3027 41.0267 58.9831 39.2428 60.3438 38.0645C61.7044 36.8796 63.459 36.2871 65.6074 36.2871C67.5931 36.2871 69.1751 36.707 70.3535 37.5469C71.5319 38.3802 72.1829 39.6204 72.3066 41.2676L72.3262 41.4727H69.582L69.5723 41.2578C69.4811 40.2747 69.0938 39.5521 68.4102 39.0898C67.7331 38.6211 66.7891 38.3867 65.5781 38.3867C64.237 38.3867 63.153 38.7839 62.3262 39.5781C61.5059 40.3724 61.0957 41.5898 61.0957 43.2305V44.1484C61.0957 45.8607 61.5059 47.0977 62.3262 47.8594C63.153 48.6211 64.237 49.002 65.5781 49.002C66.9323 49.002 67.9154 48.7383 68.5273 48.2109C69.1393 47.6771 69.4876 46.9805 69.5723 46.1211L69.582 45.916H72.3262L72.3164 46.1309C72.2057 47.6543 71.5807 48.862 70.4414 49.7539C69.3086 50.6458 67.7005 51.0918 65.6172 51.0918C63.4557 51.0918 61.6947 50.5124 60.334 49.3535C58.9798 48.1882 58.3027 46.3913 58.3027 43.9629ZM74.3379 50.7988V36.5801H87.3945V50.7988H84.6797V38.6699H77.0527V50.7988H74.3379ZM89.9824 43.9434V43.4062C89.9824 41.0365 90.6725 39.2591 92.0527 38.0742C93.4329 36.8828 95.1973 36.2871 97.3457 36.2871C99.4876 36.2871 101.252 36.8828 102.639 38.0742C104.032 39.2591 104.729 41.0365 104.729 43.4062V43.9434C104.729 46.3327 104.032 48.123 102.639 49.3145C101.252 50.4993 99.4876 51.0918 97.3457 51.0918C95.1973 51.0918 93.4329 50.4993 92.0527 49.3145C90.6725 48.123 89.9824 46.3327 89.9824 43.9434ZM92.7656 44.1094C92.7656 45.7891 93.1823 47.026 94.0156 47.8203C94.8555 48.6081 95.9655 49.002 97.3457 49.002C98.7259 49.002 99.8392 48.6081 100.686 47.8203C101.532 47.026 101.955 45.7891 101.955 44.1094V43.2598C101.955 41.5801 101.532 40.3496 100.686 39.5684C99.8457 38.7806 98.7324 38.3867 97.3457 38.3867C95.9655 38.3867 94.8555 38.7806 94.0156 39.5684C93.1823 40.3496 92.7656 41.5768 92.7656 43.25V44.1094ZM108.967 36.5801H120.383V50.7988H117.678V38.6699H111.252L110.891 45.3887C110.799 47.2507 110.497 48.6634 109.982 49.627C109.468 50.5905 108.492 51.0723 107.053 51.0723C106.831 51.0723 106.62 51.056 106.418 51.0234C106.216 50.9974 106.018 50.9486 105.822 50.877V48.5723C105.972 48.6243 106.112 48.6602 106.242 48.6797C106.379 48.6992 106.519 48.709 106.662 48.709C107.307 48.709 107.759 48.4355 108.02 47.8887C108.28 47.3418 108.446 46.3913 108.518 45.0371L108.967 36.5801ZM123.693 50.7988V36.5801H126.408V42.4102H134.143V36.5801H136.848V50.7988H134.143V44.5195H126.408V50.7988H123.693ZM153.371 50.7988H150.715V41.2773C150.715 41.069 150.718 40.8411 150.725 40.5938C150.731 40.3398 150.741 40.112 150.754 39.9102H150.637C150.539 40.1055 150.441 40.2975 150.344 40.4863C150.253 40.6751 150.122 40.8802 149.953 41.1016L142.951 50.7988H140.08V36.5801H142.746V46.0918C142.746 46.2936 142.74 46.5182 142.727 46.7656C142.72 47.013 142.714 47.2409 142.707 47.4492H142.844C142.915 47.2865 143.003 47.1009 143.107 46.8926C143.218 46.6842 143.345 46.4792 143.488 46.2773L150.5 36.5801H153.371V50.7988ZM155.217 38.6895V36.5801H168.293V38.6895H163.117V50.7988H160.402V38.6895H155.217ZM170.139 50.7988V36.5801H180.949V38.6797H172.824V42.4688H179.953V44.5098H172.824V48.709H181.066V50.7988H170.139ZM185.021 36.5801H196.438V50.7988H193.732V38.6699H187.307L186.945 45.3887C186.854 47.2507 186.551 48.6634 186.037 49.627C185.523 50.5905 184.546 51.0723 183.107 51.0723C182.886 51.0723 182.674 51.056 182.473 51.0234C182.271 50.9974 182.072 50.9486 181.877 50.877V48.5723C182.027 48.6243 182.167 48.6602 182.297 48.6797C182.434 48.6992 182.574 48.709 182.717 48.709C183.361 48.709 183.814 48.4355 184.074 47.8887C184.335 47.3418 184.501 46.3913 184.572 45.0371L185.021 36.5801ZM211.037 50.7988H208.322V45.457H203.605L203.117 45.2031C201.88 45.0404 200.933 44.5781 200.275 43.8164C199.618 43.0547 199.289 42.1009 199.289 40.9551C199.289 39.6139 199.768 38.5495 200.725 37.7617C201.688 36.974 203.046 36.5801 204.797 36.5801H211.037V50.7988ZM208.322 43.4551V38.6113H205.021C203.882 38.6113 203.094 38.8262 202.658 39.2559C202.222 39.679 202.004 40.2552 202.004 40.9844C202.004 41.7201 202.222 42.3158 202.658 42.7715C203.094 43.2272 203.882 43.4551 205.021 43.4551H208.322ZM201.516 50.7988H198.625L202.756 44.2656H205.51L201.516 50.7988ZM214.279 50.7988V36.5801H217.492L222.268 46.834C222.365 47.0423 222.463 47.2539 222.561 47.4688C222.658 47.6771 222.733 47.8561 222.785 48.0059H222.844C222.896 47.8561 222.964 47.6771 223.049 47.4688C223.133 47.2539 223.221 47.0423 223.312 46.834L228.146 36.5801H231.428V50.7988H228.752L228.762 41.1504C228.762 40.9486 228.768 40.7337 228.781 40.5059C228.794 40.2715 228.807 40.0566 228.82 39.8613H228.752C228.706 40.0566 228.648 40.2715 228.576 40.5059C228.511 40.7337 228.433 40.9486 228.342 41.1504L223.83 50.7988H221.525L217.033 41.1504C216.936 40.9551 216.851 40.7435 216.779 40.5156C216.708 40.2812 216.649 40.0632 216.604 39.8613H216.535C216.548 40.0632 216.561 40.2812 216.574 40.5156C216.594 40.7435 216.604 40.9583 216.604 41.1602V50.7988H214.279Z" fill="white"/>
</svg>
