<svg width="536" height="227" viewBox="0 0 536 227" fill="none" xmlns="http://www.w3.org/2000/svg">
<rect x="0.3125" width="535.5" height="227" rx="16" fill="#7099ED"/>
<g clip-path="url(#clip0_8903_21403)">
<path d="M323.79 205.256H318.75C317.568 205.256 316.609 206.209 316.609 207.384V211.619C316.609 212.794 317.568 213.747 318.75 213.747H323.79C324.972 213.747 325.93 212.794 325.93 211.619V207.384C325.93 206.209 324.972 205.256 323.79 205.256Z" fill="#262626" stroke="#262626" stroke-width="0.6" stroke-miterlimit="10"/>
<path d="M425.395 24.1699H329.484V171.505H425.395V24.1699Z" fill="#7099ED" stroke="#262626" stroke-width="0.6" stroke-miterlimit="10"/>
<path d="M507.145 24.1699H411.234V171.505H507.145V24.1699Z" fill="white" stroke="#262626" stroke-width="0.6" stroke-miterlimit="10"/>
<path d="M488.2 144.182H392.289V171.207H488.2V144.182Z" fill="white" stroke="#262626" stroke-width="0.6" stroke-miterlimit="10"/>
<path d="M460.228 202.93H266.883V210.655H460.228V202.93Z" fill="#262626" stroke="#262626" stroke-width="0.6" stroke-miterlimit="10"/>
<path d="M419.832 213.518C425.962 213.518 430.931 208.577 430.931 202.483C430.931 196.389 425.962 191.449 419.832 191.449C413.703 191.449 408.734 196.389 408.734 202.483C408.734 208.577 413.703 213.518 419.832 213.518Z" fill="#262626" stroke="#262626" stroke-width="0.6" stroke-miterlimit="10"/>
<path d="M398.183 180.678H385.722C377.045 180.678 370.008 191.011 370.008 203.754C370.008 216.497 377.045 226.83 385.722 226.83H398.183C406.86 226.83 413.897 216.497 413.897 203.754C413.897 191.011 406.86 180.678 398.183 180.678Z" fill="#262626" stroke="#262626" stroke-width="0.6" stroke-miterlimit="10"/>
<path d="M267.722 180.678H255.261C246.584 180.678 239.547 191.011 239.547 203.754C239.547 216.497 246.584 226.83 255.261 226.83H267.722C276.399 226.83 283.436 216.497 283.436 203.754C283.436 191.011 276.399 180.678 267.722 180.678Z" fill="#262626" stroke="#262626" stroke-width="0.6" stroke-miterlimit="10"/>
<path d="M480.357 178.52C482.511 179.708 488.661 183.48 491.195 190.912C491.63 192.189 491.904 193.414 492.068 194.552C492.27 195.947 491.178 197.197 489.76 197.197H476.902C476.429 191.031 475.957 184.866 475.484 178.7C477.111 178.639 478.734 178.581 480.361 178.52H480.357Z" fill="#262626" stroke="#262626" stroke-width="0.6" stroke-miterlimit="10"/>
<path d="M369.622 201.596H356.931C355.865 201.596 355 202.455 355 203.516V216.133C355 217.194 355.865 218.053 356.931 218.053H369.622C370.688 218.053 371.553 217.194 371.553 216.133V203.516C371.553 202.455 370.688 201.596 369.622 201.596Z" fill="#262626" stroke="#262626" stroke-width="0.6" stroke-miterlimit="10"/>
<path d="M293.997 201.596H281.306C280.24 201.596 279.375 202.455 279.375 203.516V216.133C279.375 217.194 280.24 218.053 281.306 218.053H293.997C295.063 218.053 295.928 217.194 295.928 216.133V203.516C295.928 202.455 295.063 201.596 293.997 201.596Z" fill="#262626" stroke="#262626" stroke-width="0.6" stroke-miterlimit="10"/>
<path d="M490.13 197.465H477.439C476.372 197.465 475.508 198.325 475.508 199.385V212.002C475.508 213.063 476.372 213.922 477.439 213.922H490.13C491.196 213.922 492.061 213.063 492.061 212.002V199.385C492.061 198.325 491.196 197.465 490.13 197.465Z" fill="#262626" stroke="#262626" stroke-width="0.6" stroke-miterlimit="10"/>
<path d="M491.225 175.611H359.914V191.851H491.225V175.611Z" fill="#262626" stroke="#262626" stroke-width="0.6" stroke-miterlimit="10"/>
<path d="M505.905 180.82H374.594V187.704H505.905V180.82Z" fill="#262626" stroke="#262626" stroke-width="0.6" stroke-miterlimit="10"/>
<path d="M473.175 180.678H460.714C452.037 180.678 445 191.011 445 203.754C445 216.497 452.037 226.83 460.714 226.83H473.175C481.852 226.83 488.889 216.497 488.889 203.754C488.889 191.011 481.852 180.678 473.175 180.678Z" fill="#7099ED" stroke="#262626" stroke-width="0.6" stroke-miterlimit="10"/>
<path d="M465.909 180.678C457.232 180.678 450.195 191.011 450.195 203.754C450.195 216.497 457.232 226.83 465.909 226.83" stroke="#262626" stroke-width="0.6" stroke-miterlimit="10"/>
<path d="M463.73 180.678C455.053 180.678 448.016 191.011 448.016 203.754C448.016 216.497 455.053 226.83 463.73 226.83" stroke="#262626" stroke-width="0.6" stroke-miterlimit="10"/>
<path d="M468.089 180.678C459.412 180.678 452.375 191.011 452.375 203.754C452.375 216.497 459.412 226.83 468.089 226.83" stroke="#262626" stroke-width="0.6" stroke-miterlimit="10"/>
<path d="M470.261 180.678C461.584 180.678 454.547 191.011 454.547 203.754C454.547 216.497 461.584 226.83 470.261 226.83" stroke="#262626" stroke-width="0.6" stroke-miterlimit="10"/>
<path d="M473.607 224.931C481.571 224.931 488.027 215.45 488.027 203.754C488.027 192.059 481.571 182.578 473.607 182.578C465.643 182.578 459.188 192.059 459.188 203.754C459.188 215.45 465.643 224.931 473.607 224.931Z" stroke="#262626" stroke-width="0.6" stroke-miterlimit="10"/>
<path d="M474.43 218.747C480.069 218.747 484.641 212.034 484.641 203.753C484.641 195.473 480.069 188.76 474.43 188.76C468.79 188.76 464.219 195.473 464.219 203.753C464.219 212.034 468.79 218.747 474.43 218.747Z" fill="white" stroke="#262626" stroke-width="0.6" stroke-miterlimit="10"/>
<path d="M475.034 216.61C479.868 216.61 483.786 210.854 483.786 203.754C483.786 196.654 479.868 190.898 475.034 190.898C470.2 190.898 466.281 196.654 466.281 203.754C466.281 210.854 470.2 216.61 475.034 216.61Z" stroke="#262626" stroke-width="0.6" stroke-miterlimit="10"/>
<path d="M474.251 213.517C473.868 213.517 473.56 213.211 473.56 212.829C473.56 212.448 473.868 212.138 474.251 212.138C474.631 212.138 475.008 212.077 475.378 211.958C475.741 211.839 476.131 212.039 476.251 212.4C476.371 212.761 476.169 213.149 475.806 213.268C475.299 213.432 474.779 213.514 474.255 213.517H474.251ZM470.625 211.869C470.447 211.869 470.265 211.801 470.132 211.665C469.793 211.324 469.478 210.933 469.194 210.507C468.981 210.191 469.07 209.762 469.389 209.554C469.707 209.343 470.139 209.431 470.348 209.748C470.584 210.102 470.841 210.419 471.118 210.698C471.385 210.97 471.382 211.406 471.111 211.672C470.978 211.804 470.8 211.869 470.625 211.869ZM478.696 210.78C478.563 210.78 478.429 210.742 478.313 210.664C477.994 210.453 477.908 210.024 478.121 209.707C478.347 209.37 478.556 209.003 478.741 208.614C478.905 208.271 479.319 208.124 479.665 208.288C480.011 208.451 480.158 208.863 479.994 209.207C479.782 209.656 479.538 210.082 479.275 210.473C479.141 210.671 478.922 210.78 478.696 210.78ZM468.293 207.052C467.968 207.052 467.68 206.824 467.615 206.493C467.526 206.034 467.458 205.561 467.41 205.087C467.372 204.709 467.653 204.372 468.033 204.335C468.416 204.297 468.752 204.577 468.79 204.955C468.831 205.383 468.892 205.812 468.975 206.228C469.046 206.602 468.803 206.963 468.427 207.035C468.382 207.045 468.338 207.048 468.293 207.048V207.052ZM480.425 205.693C480.401 205.693 480.377 205.693 480.357 205.69C479.977 205.652 479.699 205.315 479.737 204.937C479.778 204.515 479.802 204.083 479.802 203.654V203.62C479.802 203.239 480.114 202.932 480.494 202.932C480.874 202.932 481.186 203.242 481.186 203.62V203.654C481.186 204.131 481.162 204.607 481.114 205.074C481.079 205.428 480.778 205.693 480.425 205.693ZM468.29 201.662C468.245 201.662 468.201 201.659 468.156 201.649C467.779 201.577 467.536 201.216 467.608 200.842C467.701 200.365 467.817 199.899 467.958 199.456C468.071 199.092 468.457 198.888 468.824 199C469.19 199.112 469.396 199.497 469.283 199.861C469.159 200.26 469.053 200.678 468.971 201.104C468.906 201.434 468.618 201.662 468.293 201.662H468.29ZM479.857 200.307C479.566 200.307 479.295 200.123 479.199 199.834C479.062 199.425 478.902 199.031 478.723 198.659C478.559 198.316 478.703 197.904 479.049 197.74C479.395 197.577 479.809 197.72 479.973 198.064C480.175 198.486 480.36 198.935 480.514 199.402C480.634 199.763 480.439 200.154 480.076 200.273C480.004 200.297 479.929 200.307 479.857 200.307ZM470.601 196.835C470.426 196.835 470.252 196.77 470.118 196.641C469.844 196.375 469.837 195.939 470.105 195.667C470.468 195.296 470.861 194.976 471.279 194.71C471.601 194.506 472.029 194.601 472.234 194.921C472.44 195.241 472.344 195.667 472.022 195.871C471.693 196.079 471.382 196.331 471.094 196.627C470.957 196.767 470.779 196.835 470.598 196.835H470.601ZM476.782 195.949C476.652 195.949 476.518 195.912 476.402 195.837C476.063 195.616 475.707 195.446 475.351 195.333C474.984 195.217 474.782 194.833 474.899 194.468C475.015 194.104 475.402 193.903 475.768 194.019C476.248 194.169 476.717 194.394 477.162 194.686C477.48 194.894 477.569 195.323 477.361 195.64C477.227 195.841 477.008 195.949 476.782 195.949Z" fill="#262626"/>
<path d="M474.813 210.957C477.325 210.957 479.361 207.732 479.361 203.753C479.361 199.774 477.325 196.549 474.813 196.549C472.302 196.549 470.266 199.774 470.266 203.753C470.266 207.732 472.302 210.957 474.813 210.957Z" stroke="#262626" stroke-width="0.6" stroke-miterlimit="10"/>
<path d="M474.712 206.034C475.321 206.034 475.815 205.055 475.815 203.848C475.815 202.641 475.321 201.662 474.712 201.662C474.103 201.662 473.609 202.641 473.609 203.848C473.609 205.055 474.103 206.034 474.712 206.034Z" fill="white" stroke="#262626" stroke-width="0.6" stroke-miterlimit="10"/>
<path d="M474.202 205.02C474.529 205.02 474.794 204.496 474.794 203.849C474.794 203.202 474.529 202.678 474.202 202.678C473.875 202.678 473.609 203.202 473.609 203.849C473.609 204.496 473.875 205.02 474.202 205.02Z" fill="#262626" stroke="#262626" stroke-width="0.6" stroke-miterlimit="10"/>
<path d="M262.728 140.389H265.166C267.473 140.389 269.344 138.529 269.344 136.235V123.631C269.344 121.338 267.473 119.478 265.166 119.478H262.728C260.421 119.478 258.55 121.338 258.55 123.631V136.235C258.55 138.529 260.421 140.389 262.728 140.389Z" fill="#7099ED" stroke="#262626" stroke-width="0.6" stroke-miterlimit="10"/>
<path d="M256.094 123.628V136.235C256.094 138.155 257.409 139.773 259.193 140.246C259.535 140.338 259.895 140.385 260.268 140.385H262.706C265.014 140.385 266.884 138.527 266.884 136.235V123.628C266.884 121.337 265.014 119.475 262.706 119.475H260.268C257.963 119.475 256.094 121.337 256.094 123.628Z" fill="#7099ED" stroke="#262626" stroke-width="0.6" stroke-miterlimit="10"/>
<path d="M256.094 131.131V136.234C256.094 138.154 257.409 139.772 259.193 140.245V133.082C259.193 132.009 258.309 131.131 257.227 131.131H256.094Z" fill="white" stroke="#262626" stroke-width="0.6" stroke-miterlimit="10"/>
<path d="M446.161 182.758H403.875C401.605 182.758 399.766 184.587 399.766 186.843V199.845C399.766 202.102 401.605 203.931 403.875 203.931H446.161C448.431 203.931 450.27 202.102 450.27 199.845V186.843C450.27 184.587 448.431 182.758 446.161 182.758Z" fill="#FF8B63" stroke="#262626" stroke-width="0.6" stroke-miterlimit="10"/>
<path d="M413.737 182.758H390.031C387.762 182.758 385.922 184.587 385.922 186.843V199.845C385.922 202.102 387.762 203.931 390.031 203.931H413.737C416.007 203.931 417.846 202.102 417.846 199.845V186.843C417.846 184.587 416.007 182.758 413.737 182.758Z" fill="#262626" stroke="#262626" stroke-width="0.6" stroke-miterlimit="10"/>
<path d="M394.661 204.098H232.371C230.179 204.098 228.398 202.328 228.398 200.145V175.108C228.398 172.235 228.963 169.416 230.035 166.801C230.741 165.085 231.665 163.455 232.792 161.953C233.114 161.521 233.453 161.102 233.809 160.693C233.936 160.547 234.066 160.404 234.196 160.261L257.84 134.543L261.248 130.839L289.508 100.103C290.135 99.4217 290.785 98.7714 291.463 98.1552C292.268 97.4164 293.107 96.7253 293.977 96.0784C299.493 91.9725 306.239 89.7051 313.235 89.7051H384.638L394.661 204.098Z" fill="white" stroke="#262626" stroke-width="0.6" stroke-miterlimit="10"/>
<path d="M377.435 168.646H316.609V204.102H377.435V168.646Z" fill="#262626" stroke="#262626" stroke-width="0.6" stroke-miterlimit="10"/>
<path d="M354.112 180.678H341.652C332.974 180.678 325.938 191.011 325.938 203.754C325.938 216.497 332.974 226.83 341.652 226.83H354.112C362.79 226.83 369.827 216.497 369.827 203.754C369.827 191.011 362.79 180.678 354.112 180.678Z" fill="#7099ED" stroke="#262626" stroke-width="0.6" stroke-miterlimit="10"/>
<path d="M346.855 180.678C338.178 180.678 331.141 191.011 331.141 203.754C331.141 216.497 338.178 226.83 346.855 226.83" stroke="#262626" stroke-width="0.6" stroke-miterlimit="10"/>
<path d="M344.675 180.678C335.998 180.678 328.961 191.011 328.961 203.754C328.961 216.497 335.998 226.83 344.675 226.83" stroke="#262626" stroke-width="0.6" stroke-miterlimit="10"/>
<path d="M349.027 180.678C340.349 180.678 333.312 191.011 333.312 203.754C333.312 216.497 340.349 226.83 349.027 226.83" stroke="#262626" stroke-width="0.6" stroke-miterlimit="10"/>
<path d="M351.206 180.678C342.529 180.678 335.492 191.011 335.492 203.754C335.492 216.497 342.529 226.83 351.206 226.83" stroke="#262626" stroke-width="0.6" stroke-miterlimit="10"/>
<path d="M354.552 224.931C362.516 224.931 368.972 215.45 368.972 203.754C368.972 192.059 362.516 182.578 354.552 182.578C346.589 182.578 340.133 192.059 340.133 203.754C340.133 215.45 346.589 224.931 354.552 224.931Z" stroke="#262626" stroke-width="0.6" stroke-miterlimit="10"/>
<path d="M355.367 218.747C361.007 218.747 365.579 212.034 365.579 203.753C365.579 195.473 361.007 188.76 355.367 188.76C349.728 188.76 345.156 195.473 345.156 203.753C345.156 212.034 349.728 218.747 355.367 218.747Z" fill="white" stroke="#262626" stroke-width="0.6" stroke-miterlimit="10"/>
<path d="M355.971 216.61C360.805 216.61 364.724 210.854 364.724 203.754C364.724 196.654 360.805 190.898 355.971 190.898C351.137 190.898 347.219 196.654 347.219 203.754C347.219 210.854 351.137 216.61 355.971 216.61Z" stroke="#262626" stroke-width="0.6" stroke-miterlimit="10"/>
<path d="M355.189 213.517C354.805 213.517 354.497 213.211 354.497 212.829C354.497 212.448 354.805 212.138 355.189 212.138C355.569 212.138 355.946 212.077 356.315 211.958C356.678 211.839 357.069 212.039 357.189 212.4C357.308 212.761 357.106 213.149 356.743 213.268C356.237 213.432 355.716 213.514 355.192 213.517H355.189ZM351.563 211.869C351.384 211.869 351.203 211.801 351.069 211.665C350.73 211.324 350.415 210.933 350.131 210.507C349.919 210.191 350.008 209.762 350.326 209.554C350.645 209.343 351.076 209.431 351.285 209.748C351.521 210.102 351.778 210.419 352.056 210.698C352.323 210.97 352.319 211.406 352.049 211.672C351.915 211.804 351.737 211.869 351.563 211.869ZM359.634 210.78C359.5 210.78 359.366 210.742 359.25 210.664C358.932 210.453 358.846 210.024 359.058 209.707C359.284 209.37 359.493 209.003 359.678 208.614C359.842 208.271 360.257 208.124 360.603 208.288C360.948 208.451 361.096 208.863 360.931 209.207C360.719 209.656 360.476 210.082 360.212 210.473C360.079 210.671 359.86 210.78 359.634 210.78ZM349.231 207.052C348.905 207.052 348.618 206.824 348.553 206.493C348.464 206.034 348.395 205.561 348.347 205.087C348.309 204.709 348.59 204.372 348.97 204.335C349.354 204.297 349.689 204.577 349.727 204.955C349.768 205.383 349.83 205.812 349.912 206.228C349.984 206.602 349.741 206.963 349.364 207.035C349.32 207.045 349.275 207.048 349.231 207.048V207.052ZM361.363 205.693C361.339 205.693 361.315 205.693 361.294 205.69C360.914 205.652 360.637 205.315 360.675 204.937C360.716 204.515 360.74 204.083 360.74 203.654V203.62C360.74 203.239 361.051 202.932 361.431 202.932C361.811 202.932 362.123 203.242 362.123 203.62V203.654C362.123 204.131 362.099 204.607 362.051 205.074C362.017 205.428 361.716 205.693 361.363 205.693ZM349.227 201.662C349.183 201.662 349.138 201.659 349.094 201.649C348.717 201.577 348.474 201.216 348.546 200.842C348.638 200.365 348.755 199.899 348.895 199.456C349.008 199.092 349.395 198.888 349.761 199C350.128 199.112 350.333 199.497 350.22 199.861C350.097 200.26 349.991 200.678 349.909 201.104C349.844 201.434 349.556 201.662 349.231 201.662H349.227ZM360.794 200.307C360.503 200.307 360.233 200.123 360.137 199.834C360 199.425 359.839 199.031 359.661 198.659C359.497 198.316 359.64 197.904 359.986 197.74C360.332 197.577 360.746 197.72 360.911 198.064C361.113 198.486 361.298 198.935 361.452 199.402C361.572 199.763 361.377 200.154 361.014 200.273C360.942 200.297 360.866 200.307 360.794 200.307ZM351.539 196.835C351.364 196.835 351.189 196.77 351.056 196.641C350.782 196.375 350.775 195.939 351.042 195.667C351.405 195.296 351.799 194.976 352.217 194.71C352.538 194.506 352.966 194.601 353.172 194.921C353.377 195.241 353.282 195.667 352.96 195.871C352.631 196.079 352.319 196.331 352.032 196.627C351.895 196.767 351.717 196.835 351.535 196.835H351.539ZM357.719 195.949C357.589 195.949 357.456 195.912 357.339 195.837C357 195.616 356.644 195.446 356.288 195.333C355.922 195.217 355.72 194.833 355.836 194.468C355.952 194.104 356.339 193.903 356.706 194.019C357.185 194.169 357.654 194.394 358.099 194.686C358.418 194.894 358.507 195.323 358.298 195.64C358.165 195.841 357.945 195.949 357.719 195.949Z" fill="#262626"/>
<path d="M355.751 210.957C358.262 210.957 360.298 207.732 360.298 203.753C360.298 199.774 358.262 196.549 355.751 196.549C353.239 196.549 351.203 199.774 351.203 203.753C351.203 207.732 353.239 210.957 355.751 210.957Z" stroke="#262626" stroke-width="0.6" stroke-miterlimit="10"/>
<path d="M355.649 206.034C356.258 206.034 356.752 205.055 356.752 203.848C356.752 202.641 356.258 201.662 355.649 201.662C355.041 201.662 354.547 202.641 354.547 203.848C354.547 205.055 355.041 206.034 355.649 206.034Z" fill="white" stroke="#262626" stroke-width="0.6" stroke-miterlimit="10"/>
<path d="M355.139 205.02C355.466 205.02 355.732 204.496 355.732 203.849C355.732 203.202 355.466 202.678 355.139 202.678C354.812 202.678 354.547 203.202 354.547 203.849C354.547 204.496 354.812 205.02 355.139 205.02Z" fill="#262626" stroke="#262626" stroke-width="0.6" stroke-miterlimit="10"/>
<path d="M507.145 144.182H411.234V171.207H507.145V144.182Z" fill="white" stroke="#262626" stroke-width="0.6" stroke-miterlimit="10"/>
<path d="M503.719 167.804V147.588H414.657V167.804H503.719Z" fill="white" stroke="#262626" stroke-width="0.6" stroke-miterlimit="10"/>
<path d="M406.466 101.335V193.108C406.466 195.828 405.473 198.317 403.826 200.237C401.799 202.6 398.782 204.098 395.413 204.098H374.463C372.58 204.098 371.001 202.685 370.806 200.823L369.751 190.841C369.203 185.652 366.731 181.087 363.084 177.822C359.434 174.553 354.609 172.582 349.359 172.582C341.727 172.582 334.991 176.753 331.461 183.017C330.132 185.38 329.256 188.046 328.964 190.895L327.944 200.813C327.752 202.678 326.174 204.098 324.287 204.098H297.91C295.715 204.098 293.938 202.331 293.938 200.149V175.108C293.938 169.613 296.006 164.316 299.735 160.261L323.393 134.543L355.081 100.096C355.705 99.4183 356.355 98.7714 357.03 98.1552C362.937 92.7453 370.703 89.7051 378.801 89.7051H394.769C401.231 89.7051 406.466 94.9106 406.466 101.335Z" fill="white" stroke="#262626" stroke-width="0.6" stroke-miterlimit="10"/>
<path d="M308.753 161.953V196.969H228.398V175.108C228.398 172.235 229.073 169.416 230.357 166.801C231.199 165.085 232.306 163.455 233.655 161.953H308.753Z" fill="#7099ED" stroke="#262626" stroke-width="0.6" stroke-miterlimit="10"/>
<path d="M355.106 100.064L355.079 100.095L334.797 122.143L331.277 125.97L326.24 131.444C326.14 131.55 326.041 131.655 325.935 131.757C324.147 133.538 321.713 134.542 319.169 134.542H260.709C259.613 134.542 259.038 133.245 259.778 132.438L261.25 130.838L275.321 115.535L288.439 101.266L289.511 100.102L289.528 100.081C290.661 98.8522 292.257 98.1543 293.932 98.1543H354.261C355.257 98.1543 355.781 99.3323 355.106 100.064Z" fill="#7099ED" stroke="#262626" stroke-width="0.6" stroke-miterlimit="10"/>
<path d="M381.453 98.1543V134.542H326.976C325.599 134.542 324.88 132.918 325.808 131.907L355.072 100.095C356.209 98.859 357.818 98.1543 359.507 98.1543H381.449H381.453Z" fill="#7099ED" stroke="#262626" stroke-width="0.6" stroke-miterlimit="10"/>
<path d="M331.456 183.016C330.127 185.378 329.251 188.044 328.959 190.894L327.939 200.811C327.747 202.677 326.169 204.097 324.282 204.097H228.515C227.395 204.097 226.484 203.191 226.484 202.074V185.038C226.484 183.921 227.395 183.016 228.515 183.016H331.456Z" fill="#7099ED" stroke="#262626" stroke-width="0.6" stroke-miterlimit="10"/>
<path d="M306.727 175.613H295.053C290.667 175.613 287.695 171.17 289.39 167.145L290.588 164.303C291.382 162.42 293.067 161.058 295.081 160.67L308.35 158.11C313.383 157.139 317.325 162.365 314.979 166.897L312.185 172.3C311.134 174.332 309.024 175.613 306.723 175.613H306.727Z" fill="white" stroke="#262626" stroke-width="0.6" stroke-miterlimit="10"/>
<path d="M233.72 175.612H228.398V175.108C228.398 169.807 230.323 164.687 233.809 160.693C235.771 161.109 237.408 162.457 238.182 164.299L239.384 167.145C241.079 171.166 238.106 175.612 233.72 175.612Z" fill="white" stroke="#262626" stroke-width="0.6" stroke-miterlimit="10"/>
<path d="M273.674 198.707H252.594C250.83 198.707 249.334 197.417 249.081 195.681L245.56 171.355C245.252 169.227 246.913 167.324 249.074 167.324H277.194C279.355 167.324 281.012 169.227 280.707 171.355L277.187 195.681C276.937 197.417 275.441 198.707 273.674 198.707Z" fill="#7099ED" stroke="#262626" stroke-width="0.6" stroke-miterlimit="10"/>
<path d="M252.594 196.665C251.858 196.665 251.221 196.117 251.115 195.392L247.595 171.066C247.509 170.48 247.776 170.072 247.944 169.881C248.112 169.691 248.478 169.367 249.074 169.367H277.194C277.787 169.367 278.156 169.687 278.324 169.881C278.492 170.072 278.759 170.48 278.673 171.066L275.153 195.392C275.047 196.117 274.414 196.665 273.674 196.665H252.594Z" fill="#7099ED" stroke="#262626" stroke-width="0.6" stroke-miterlimit="10"/>
<path d="M247.758 172.465H278.374" stroke="#262626" stroke-width="0.6" stroke-miterlimit="10"/>
<path d="M248.281 176.029H277.877" stroke="#262626" stroke-width="0.6" stroke-miterlimit="10"/>
<path d="M248.797 179.59H277.376" stroke="#262626" stroke-width="0.6" stroke-miterlimit="10"/>
<path d="M249.312 183.152H276.871" stroke="#262626" stroke-width="0.6" stroke-miterlimit="10"/>
<path d="M249.836 186.713H276.374" stroke="#262626" stroke-width="0.6" stroke-miterlimit="10"/>
<path d="M250.352 190.273H275.873" stroke="#262626" stroke-width="0.6" stroke-miterlimit="10"/>
<path d="M250.875 193.836H275.376" stroke="#262626" stroke-width="0.6" stroke-miterlimit="10"/>
<path d="M262.663 179.727C264.207 179.727 265.459 177.86 265.459 175.556C265.459 173.252 264.207 171.385 262.663 171.385C261.119 171.385 259.867 173.252 259.867 175.556C259.867 177.86 261.119 179.727 262.663 179.727Z" fill="#F4F3F1" stroke="#262626" stroke-width="0.6" stroke-miterlimit="10"/>
<path d="M365.417 100.939L345.978 122.197C343.321 125.105 341.852 128.853 341.852 132.738V171.424H357.059L365.832 177.62L371.944 187.129L375.091 201.598H391.435C395.4 201.598 398.616 198.401 398.616 194.459V102.264C398.616 99.9962 396.719 98.1543 394.38 98.1543H371.797C369.359 98.1543 367.034 99.1689 365.414 100.939H365.417Z" fill="white" stroke="#262626" stroke-width="0.6" stroke-miterlimit="10"/>
<path d="M403.824 200.237C401.797 202.599 398.78 204.097 395.411 204.097H374.461C372.578 204.097 370.999 202.685 370.804 200.822L369.749 190.84C369.202 185.652 366.729 181.086 363.082 177.821C359.432 174.553 354.607 172.581 349.358 172.581C341.725 172.581 334.99 176.752 331.459 183.016H327.172C327.46 182.376 327.778 181.75 328.124 181.134C332.438 173.477 340.595 168.721 349.409 168.721C355.45 168.721 361.247 170.934 365.733 174.951C370.215 178.965 373.033 184.467 373.663 190.438L374.697 200.237H403.824Z" fill="#7099ED" stroke="#262626" stroke-width="0.6" stroke-miterlimit="10"/>
<path d="M391.255 105.865V130.041C391.255 132.264 389.396 134.072 387.098 134.072H354.571C352.273 134.072 350.414 132.264 350.414 130.041V126.728C350.414 125.731 350.794 124.77 351.479 124.032L352.996 122.397L370.85 103.169C371.641 102.321 372.761 101.834 373.939 101.834H387.098C389.396 101.834 391.255 103.642 391.255 105.865Z" fill="#7099ED" stroke="#262626" stroke-width="0.6" stroke-miterlimit="10"/>
<path d="M398.617 134.543H400.299C401.179 134.543 401.891 135.251 401.891 136.126V142.659C401.891 143.534 401.179 144.243 400.299 144.243H398.617" stroke="#262626" stroke-width="0.6" stroke-miterlimit="10"/>
<path d="M406.461 163.077H325.377C323.378 163.077 321.758 161.94 321.758 160.533C321.758 159.131 323.378 157.99 325.377 157.99H406.461" stroke="#262626" stroke-width="0.6" stroke-miterlimit="10"/>
<path d="M377.438 180.678C377.438 180.678 406.465 181.001 406.465 180.678" stroke="#262626" stroke-width="0.6" stroke-miterlimit="10"/>
<path d="M285.141 160.213C289.438 160.213 293.534 158.385 296.389 155.188L315.682 133.59" stroke="#262626" stroke-width="0.6" stroke-miterlimit="10"/>
<path d="M263.878 134.062L246.938 152.927C244.408 155.746 246.421 160.213 250.219 160.213" stroke="#262626" stroke-width="0.6" stroke-miterlimit="10"/>
<path d="M396.264 159.305H384.344V160.534H396.264V159.305Z" fill="#262626"/>
<path d="M357.793 134.073H354.571C352.273 134.073 350.414 132.265 350.414 130.042V126.729C350.414 125.731 350.794 124.771 351.479 124.033L352.996 122.398L357.793 134.073Z" fill="#7099ED" stroke="#262626" stroke-width="0.6" stroke-miterlimit="10"/>
<path d="M357.976 128.186H354.363C353.291 128.186 352.422 129.05 352.422 130.116V131.015C352.422 132.081 353.291 132.945 354.363 132.945H357.976C359.048 132.945 359.918 132.081 359.918 131.015V130.116C359.918 129.05 359.048 128.186 357.976 128.186Z" fill="#7099ED" stroke="#262626" stroke-width="0.6" stroke-miterlimit="10"/>
<path d="M381.453 98.1543H406.286" stroke="#262626" stroke-width="0.6" stroke-miterlimit="10"/>
<path d="M450.271 192.887H415.727" stroke="#262626" stroke-width="0.6" stroke-miterlimit="10"/>
<path d="M450.271 194.949H415.727" stroke="#262626" stroke-width="0.6" stroke-miterlimit="10"/>
<path d="M423.045 182.758H421.203C423.463 182.758 425.312 184.596 425.312 186.843V199.845C425.312 202.092 423.463 203.931 421.203 203.931H423.045C425.305 203.931 427.155 202.092 427.155 199.845V186.843C427.155 184.596 425.305 182.758 423.045 182.758Z" fill="white" stroke="#262626" stroke-width="0.6" stroke-miterlimit="10"/>
<path d="M441.6 182.758H439.758C442.018 182.758 443.867 184.596 443.867 186.843V199.845C443.867 202.092 442.018 203.931 439.758 203.931H441.6C443.86 203.931 445.709 202.092 445.709 199.845V186.843C445.709 184.596 443.86 182.758 441.6 182.758Z" fill="white" stroke="#262626" stroke-width="0.6" stroke-miterlimit="10"/>
<path d="M365.897 119.479H363.459C361.152 119.479 359.281 121.338 359.281 123.632V136.236C359.281 138.53 361.152 140.389 363.459 140.389H365.897C368.204 140.389 370.075 138.53 370.075 136.236V123.632C370.075 121.338 368.204 119.479 365.897 119.479Z" fill="#7099ED" stroke="#262626" stroke-width="0.6" stroke-miterlimit="10"/>
<path d="M367.141 123.628V136.235C367.141 138.155 365.827 139.773 364.042 140.246C363.7 140.338 363.341 140.385 362.967 140.385H360.529C358.221 140.385 356.352 138.527 356.352 136.235V123.628C356.352 121.337 358.221 119.475 360.529 119.475H362.967C365.272 119.475 367.141 121.337 367.141 123.628Z" fill="#7099ED" stroke="#262626" stroke-width="0.6" stroke-miterlimit="10"/>
<path d="M367.138 131.131V136.234C367.138 138.154 365.823 139.772 364.039 140.245V133.082C364.039 132.009 364.923 131.131 366.005 131.131H367.138Z" fill="white" stroke="#262626" stroke-width="0.6" stroke-miterlimit="10"/>
<path d="M320.796 201.596H288.563C286.08 201.596 284.07 199.597 284.07 197.129C284.07 194.661 286.08 192.662 288.563 192.662H324.73L324.165 198.552C324.001 200.278 322.542 201.599 320.796 201.599V201.596Z" stroke="#262626" stroke-width="0.6" stroke-miterlimit="10"/>
<path d="M287.648 199.889C288.938 199.889 289.983 198.653 289.983 197.128C289.983 195.603 288.938 194.367 287.648 194.367C286.358 194.367 285.312 195.603 285.312 197.128C285.312 198.653 286.358 199.889 287.648 199.889Z" fill="white" stroke="#262626" stroke-width="0.6" stroke-miterlimit="10"/>
<path d="M226.484 201.596H239.089C241.572 201.596 243.582 199.597 243.582 197.129C243.582 194.661 241.572 192.662 239.089 192.662H226.484" stroke="#262626" stroke-width="0.6" stroke-miterlimit="10"/>
<path d="M239.999 199.889C241.289 199.889 242.335 198.653 242.335 197.128C242.335 195.603 241.289 194.367 239.999 194.367C238.71 194.367 237.664 195.603 237.664 197.128C237.664 198.653 238.71 199.889 239.999 199.889Z" fill="white" stroke="#262626" stroke-width="0.6" stroke-miterlimit="10"/>
<path d="M293.118 185.021H292.244C291.747 185.021 291.344 185.422 291.344 185.917V189.379C291.344 189.874 291.747 190.275 292.244 190.275H293.118C293.615 190.275 294.018 189.874 294.018 189.379V185.917C294.018 185.422 293.615 185.021 293.118 185.021Z" fill="#262626" stroke="#262626" stroke-width="0.6" stroke-miterlimit="10"/>
<path d="M293.208 189.757H291.102C290.023 189.757 289.061 188.988 288.924 187.926C288.76 186.639 289.766 185.539 291.026 185.539H293.204C293.649 185.539 294.009 185.897 294.009 186.339C294.009 186.782 293.649 187.139 293.204 187.139H291.054C290.8 187.139 290.564 187.313 290.523 187.561C290.472 187.878 290.718 188.154 291.026 188.154H293.204C293.649 188.154 294.009 188.511 294.009 188.954C294.009 189.396 293.649 189.754 293.204 189.754L293.208 189.757Z" fill="white" stroke="#262626" stroke-width="0.6" stroke-miterlimit="10"/>
<path d="M236.68 185.021H235.807C235.309 185.021 234.906 185.422 234.906 185.917V189.379C234.906 189.874 235.309 190.275 235.807 190.275H236.68C237.177 190.275 237.581 189.874 237.581 189.379V185.917C237.581 185.422 237.177 185.021 236.68 185.021Z" fill="#262626" stroke="#262626" stroke-width="0.6" stroke-miterlimit="10"/>
<path d="M236.778 189.757H234.672C233.593 189.757 232.631 188.988 232.494 187.926C232.33 186.639 233.337 185.539 234.597 185.539H236.775C237.22 185.539 237.579 185.897 237.579 186.339C237.579 186.782 237.22 187.139 236.775 187.139H234.624C234.371 187.139 234.134 187.313 234.093 187.561C234.042 187.878 234.289 188.154 234.597 188.154H236.775C237.22 188.154 237.579 188.511 237.579 188.954C237.579 189.396 237.22 189.754 236.775 189.754L236.778 189.757Z" fill="white" stroke="#262626" stroke-width="0.6" stroke-miterlimit="10"/>
<path d="M497.05 171.209H406.461V176.884H497.05V171.209Z" fill="#7099ED" stroke="#262626" stroke-width="0.6" stroke-miterlimit="10"/>
<path d="M503.718 151.221H414.656V155.081H503.718V151.221Z" fill="white" stroke="#262626" stroke-width="0.6" stroke-miterlimit="10"/>
<path d="M415.954 151.221H414.656V155.081H415.954V151.221Z" fill="white" stroke="#262626" stroke-width="0.6" stroke-miterlimit="10"/>
<path d="M503.718 159.916H414.656V163.777H503.718V159.916Z" fill="white" stroke="#262626" stroke-width="0.6" stroke-miterlimit="10"/>
<path d="M415.954 159.916H414.656V163.777H415.954V159.916Z" fill="white" stroke="#262626" stroke-width="0.6" stroke-miterlimit="10"/>
<path d="M299.133 183.016V185.555C299.133 186.74 300.098 187.7 301.29 187.7H329.342" stroke="#262626" stroke-width="0.6" stroke-miterlimit="10"/>
<path d="M231.487 183.016V185.555C231.487 186.74 230.522 187.7 229.33 187.7H226.484" stroke="#262626" stroke-width="0.6" stroke-miterlimit="10"/>
<path d="M325.935 131.757C324.147 133.537 321.712 134.542 319.168 134.542H296.291L275.32 115.534L288.439 101.266L325.935 131.757Z" fill="white" stroke="#262626" stroke-width="0.6" stroke-miterlimit="10"/>
<path d="M334.797 122.143L331.277 125.97L298.5 98.1543H305.301L334.797 122.143Z" fill="white" stroke="#262626" stroke-width="0.6" stroke-miterlimit="10"/>
<path d="M369.652 104.457L391.252 121.773V130.403L365.039 109.424L369.652 104.457Z" fill="white" stroke="#262626" stroke-width="0.6" stroke-miterlimit="10"/>
<path d="M420.459 171.209H417.312V175.611H420.459V171.209Z" fill="#7099ED" stroke="#262626" stroke-width="0.6" stroke-miterlimit="10"/>
<path d="M421.42 171.209H418.273V175.611H421.42V171.209Z" fill="#7099ED" stroke="#262626" stroke-width="0.6" stroke-miterlimit="10"/>
<path d="M454.655 171.209H451.508V175.611H454.655V171.209Z" fill="#7099ED" stroke="#262626" stroke-width="0.6" stroke-miterlimit="10"/>
<path d="M455.616 171.209H452.469V175.611H455.616V171.209Z" fill="#7099ED" stroke="#262626" stroke-width="0.6" stroke-miterlimit="10"/>
<path d="M484.873 171.209H481.727V175.611H484.873V171.209Z" fill="#7099ED" stroke="#262626" stroke-width="0.6" stroke-miterlimit="10"/>
<path d="M485.834 171.209H482.688V175.611H485.834V171.209Z" fill="#7099ED" stroke="#262626" stroke-width="0.6" stroke-miterlimit="10"/>
<path d="M271.969 141.212L273.181 139.915C274.653 138.338 276.722 137.439 278.889 137.439H289.032C291.059 137.439 292.073 139.874 290.641 141.3L289.683 142.253" stroke="#262626" stroke-width="0.6" stroke-miterlimit="10"/>
<path d="M375.496 101.838H373.688V134.072H375.496V101.838Z" fill="white" stroke="#262626" stroke-width="0.6" stroke-miterlimit="10"/>
</g>
<path d="M41.9238 50.7988V36.5801H54.9805V50.7988H52.2656V38.6699H44.6387V50.7988H41.9238ZM58.2129 50.7988V36.5801H69.0234V38.6797H60.8984V42.4688H68.0273V44.5098H60.8984V48.709H69.1406V50.7988H58.2129ZM71.4355 50.7988V36.5801H77.6367C79.4661 36.5801 80.8659 36.9707 81.8359 37.752C82.8125 38.5332 83.3008 39.6758 83.3008 41.1797C83.3008 42.651 82.8158 43.7936 81.8457 44.6074C80.8757 45.4212 79.4694 45.8151 77.627 45.7891H74.1504V50.7988H71.4355ZM74.1504 43.7773H77.3926C78.5645 43.7773 79.3913 43.5527 79.873 43.1035C80.3548 42.6478 80.5957 42.0098 80.5957 41.1895C80.5957 40.3626 80.3548 39.7311 79.873 39.2949C79.3913 38.8522 78.5645 38.6309 77.3926 38.6309H74.1504V43.7773ZM85.4004 50.7988V36.5801H96.2109V38.6797H88.0859V42.4688H95.2148V44.5098H88.0859V48.709H96.3281V50.7988H85.4004ZM98.623 50.7988V36.5801H104.658C106.351 36.5801 107.673 36.8698 108.623 37.4492C109.574 38.0286 110.049 38.9857 110.049 40.3203C110.049 41.1081 109.844 41.7493 109.434 42.2441C109.03 42.7324 108.516 43.084 107.891 43.2988V43.3379C108.672 43.5462 109.303 43.9271 109.785 44.4805C110.273 45.0339 110.518 45.776 110.518 46.707C110.518 48.0677 110.01 49.0898 108.994 49.7734C107.979 50.457 106.637 50.7988 104.971 50.7988H98.623ZM101.299 48.8457H104.834C105.843 48.8457 106.592 48.6602 107.08 48.2891C107.568 47.9115 107.812 47.3418 107.812 46.5801C107.812 45.8639 107.568 45.3138 107.08 44.9297C106.592 44.5391 105.843 44.3438 104.834 44.3438H101.299V48.8457ZM101.299 42.5078H104.521C105.518 42.5078 106.24 42.3353 106.689 41.9902C107.145 41.6452 107.373 41.1504 107.373 40.5059C107.373 39.8288 107.148 39.334 106.699 39.0215C106.25 38.709 105.524 38.5527 104.521 38.5527H101.299V42.5078ZM112.373 43.9434V43.4062C112.373 41.0365 113.063 39.2591 114.443 38.0742C115.824 36.8828 117.588 36.2871 119.736 36.2871C121.878 36.2871 123.643 36.8828 125.029 38.0742C126.423 39.2591 127.119 41.0365 127.119 43.4062V43.9434C127.119 46.3327 126.423 48.123 125.029 49.3145C123.643 50.4993 121.878 51.0918 119.736 51.0918C117.588 51.0918 115.824 50.4993 114.443 49.3145C113.063 48.123 112.373 46.3327 112.373 43.9434ZM115.156 44.1094C115.156 45.7891 115.573 47.026 116.406 47.8203C117.246 48.6081 118.356 49.002 119.736 49.002C121.117 49.002 122.23 48.6081 123.076 47.8203C123.923 47.026 124.346 45.7891 124.346 44.1094V43.2598C124.346 41.5801 123.923 40.3496 123.076 39.5684C122.236 38.7806 121.123 38.3867 119.736 38.3867C118.356 38.3867 117.246 38.7806 116.406 39.5684C115.573 40.3496 115.156 41.5768 115.156 43.25V44.1094ZM135.244 49.002C136.449 49.002 137.334 48.7936 137.9 48.377C138.467 47.9603 138.753 47.3711 138.76 46.6094C138.76 45.9062 138.519 45.3691 138.037 44.998C137.562 44.627 136.836 44.4414 135.859 44.4414H133.018V42.4395H135.693C136.611 42.4395 137.288 42.2669 137.725 41.9219C138.161 41.5768 138.379 41.0755 138.379 40.418C138.379 39.7604 138.118 39.2559 137.598 38.9043C137.077 38.5527 136.266 38.377 135.166 38.377C134.007 38.377 133.132 38.582 132.539 38.9922C131.947 39.4023 131.647 40.0339 131.641 40.8867V41.0332H128.945V40.8965C128.952 39.4512 129.476 38.3249 130.518 37.5176C131.566 36.7038 133.128 36.2969 135.205 36.2969C137.087 36.2969 138.535 36.6322 139.551 37.3027C140.566 37.9668 141.074 38.9271 141.074 40.1836C141.074 41.0365 140.84 41.7168 140.371 42.2246C139.909 42.7324 139.336 43.0905 138.652 43.2988V43.3379C139.486 43.5332 140.163 43.9141 140.684 44.4805C141.211 45.0404 141.475 45.776 141.475 46.6875C141.475 48.0742 140.931 49.1549 139.844 49.9297C138.763 50.6979 137.243 51.082 135.283 51.082C133.206 51.082 131.602 50.7044 130.469 49.9492C129.342 49.194 128.773 47.9831 128.76 46.3164V46.1797H131.455L131.465 46.3066C131.465 47.2376 131.781 47.9212 132.412 48.3574C133.044 48.7871 133.988 49.002 135.244 49.002ZM146.318 40.4277C146.318 41.5866 146.595 42.3581 147.148 42.7422C147.702 43.1263 148.665 43.3184 150.039 43.3184C150.924 43.3184 151.725 43.2826 152.441 43.2109C153.164 43.1393 153.887 43.0286 154.609 42.8789V44.9297C153.652 45.125 152.816 45.2552 152.1 45.3203C151.39 45.3789 150.609 45.4082 149.756 45.4082C147.477 45.4082 145.882 45.0208 144.971 44.2461C144.059 43.4714 143.604 42.2311 143.604 40.5254V36.5801H146.318V40.4277ZM155.977 36.5801V50.7988H153.262V36.5801H155.977ZM172.5 50.7988H169.844V41.2773C169.844 41.069 169.847 40.8411 169.854 40.5938C169.86 40.3398 169.87 40.112 169.883 39.9102H169.766C169.668 40.1055 169.57 40.2975 169.473 40.4863C169.382 40.6751 169.251 40.8802 169.082 41.1016L162.08 50.7988H159.209V36.5801H161.875V46.0918C161.875 46.2936 161.868 46.5182 161.855 46.7656C161.849 47.013 161.842 47.2409 161.836 47.4492H161.973C162.044 47.2865 162.132 47.1009 162.236 46.8926C162.347 46.6842 162.474 46.4792 162.617 46.2773L169.629 36.5801H172.5V50.7988ZM185.771 50.7988L179.229 43.9824L181.201 42.5762L189.102 50.7988H185.771ZM177.09 42.4199H179.756L185.674 36.5801H188.613L180.322 44.5293H177.09V42.4199ZM175.732 50.7988V36.5801H178.447V50.7988H175.732ZM188.506 50.7988L194.688 36.5117H197.354L203.545 50.7988H200.596L196.484 40.7207C196.361 40.4277 196.257 40.1478 196.172 39.8809C196.087 39.6074 196.009 39.347 195.938 39.0996H195.84C195.762 39.347 195.68 39.6074 195.596 39.8809C195.511 40.1543 195.41 40.4342 195.293 40.7207L191.152 50.7988H188.506ZM191.367 47.4688L192.129 45.4473H199.785L200.547 47.4688H191.367ZM205.029 50.7988V36.5801H208.242L213.018 46.834C213.115 47.0423 213.213 47.2539 213.311 47.4688C213.408 47.6771 213.483 47.8561 213.535 48.0059H213.594C213.646 47.8561 213.714 47.6771 213.799 47.4688C213.883 47.2539 213.971 47.0423 214.062 46.834L218.896 36.5801H222.178V50.7988H219.502L219.512 41.1504C219.512 40.9486 219.518 40.7337 219.531 40.5059C219.544 40.2715 219.557 40.0566 219.57 39.8613H219.502C219.456 40.0566 219.398 40.2715 219.326 40.5059C219.261 40.7337 219.183 40.9486 219.092 41.1504L214.58 50.7988H212.275L207.783 41.1504C207.686 40.9551 207.601 40.7435 207.529 40.5156C207.458 40.2812 207.399 40.0632 207.354 39.8613H207.285C207.298 40.0632 207.311 40.2812 207.324 40.5156C207.344 40.7435 207.354 40.9583 207.354 41.1602V50.7988H205.029Z" fill="white"/>
<defs>
<clipPath id="clip0_8903_21403">
<rect width="281" height="203" fill="white" transform="translate(226.312 24)"/>
</clipPath>
</defs>
</svg>
