<svg width="537" height="227" viewBox="0 0 537 227" fill="none" xmlns="http://www.w3.org/2000/svg">
<rect x="0.8125" width="536" height="227" rx="16" fill="#7099ED"/>
<path d="M42.4238 50.7988V36.5801H55.4805V50.7988H52.7656V38.6699H45.1387V50.7988H42.4238ZM58.7129 50.7988V36.5801H64.9141C66.7435 36.5801 68.1432 36.9707 69.1133 37.752C70.0898 38.5332 70.5781 39.6758 70.5781 41.1797C70.5781 42.651 70.0931 43.7936 69.123 44.6074C68.153 45.4212 66.7467 45.8151 64.9043 45.7891H61.4277V50.7988H58.7129ZM61.4277 43.7773H64.6699C65.8418 43.7773 66.6686 43.5527 67.1504 43.1035C67.6322 42.6478 67.873 42.0098 67.873 41.1895C67.873 40.3626 67.6322 39.7311 67.1504 39.2949C66.6686 38.8522 65.8418 38.6309 64.6699 38.6309H61.4277V43.7773ZM72.0332 43.9434V43.4062C72.0332 41.0365 72.7233 39.2591 74.1035 38.0742C75.4837 36.8828 77.248 36.2871 79.3965 36.2871C81.5384 36.2871 83.3027 36.8828 84.6895 38.0742C86.0827 39.2591 86.7793 41.0365 86.7793 43.4062V43.9434C86.7793 46.3327 86.0827 48.123 84.6895 49.3145C83.3027 50.4993 81.5384 51.0918 79.3965 51.0918C77.248 51.0918 75.4837 50.4993 74.1035 49.3145C72.7233 48.123 72.0332 46.3327 72.0332 43.9434ZM74.8164 44.1094C74.8164 45.7891 75.2331 47.026 76.0664 47.8203C76.9062 48.6081 78.0163 49.002 79.3965 49.002C80.7767 49.002 81.89 48.6081 82.7363 47.8203C83.5827 47.026 84.0059 45.7891 84.0059 44.1094V43.2598C84.0059 41.5801 83.5827 40.3496 82.7363 39.5684C81.8965 38.7806 80.7832 38.3867 79.3965 38.3867C78.0163 38.3867 76.9062 38.7806 76.0664 39.5684C75.2331 40.3496 74.8164 41.5768 74.8164 43.25V44.1094ZM89.3574 50.7988V36.5801H100.168V38.6797H92.043V42.4688H99.1719V44.5098H92.043V48.709H100.285V50.7988H89.3574ZM112.619 50.7988L106.076 43.9824L108.049 42.5762L115.949 50.7988H112.619ZM103.938 42.4199H106.604L112.521 36.5801H115.461L107.17 44.5293H103.938V42.4199ZM102.58 50.7988V36.5801H105.295V50.7988H102.58ZM115.725 38.6895V36.5801H128.801V38.6895H123.625V50.7988H120.91V38.6895H115.725ZM143.938 50.7988H141.281V41.2773C141.281 41.069 141.285 40.8411 141.291 40.5938C141.298 40.3398 141.307 40.112 141.32 39.9102H141.203C141.105 40.1055 141.008 40.2975 140.91 40.4863C140.819 40.6751 140.689 40.8802 140.52 41.1016L133.518 50.7988H130.646V36.5801H133.312V46.0918C133.312 46.2936 133.306 46.5182 133.293 46.7656C133.286 47.013 133.28 47.2409 133.273 47.4492H133.41C133.482 47.2865 133.57 47.1009 133.674 46.8926C133.785 46.6842 133.911 46.4792 134.055 46.2773L141.066 36.5801H143.938V50.7988ZM147.17 50.7988V36.5801H153.371C155.201 36.5801 156.6 36.9707 157.57 37.752C158.547 38.5332 159.035 39.6758 159.035 41.1797C159.035 42.651 158.55 43.7936 157.58 44.6074C156.61 45.4212 155.204 45.8151 153.361 45.7891H149.885V50.7988H147.17ZM149.885 43.7773H153.127C154.299 43.7773 155.126 43.5527 155.607 43.1035C156.089 42.6478 156.33 42.0098 156.33 41.1895C156.33 40.3626 156.089 39.7311 155.607 39.2949C155.126 38.8522 154.299 38.6309 153.127 38.6309H149.885V43.7773ZM160.49 43.9434V43.4062C160.49 41.0365 161.18 39.2591 162.561 38.0742C163.941 36.8828 165.705 36.2871 167.854 36.2871C169.995 36.2871 171.76 36.8828 173.146 38.0742C174.54 39.2591 175.236 41.0365 175.236 43.4062V43.9434C175.236 46.3327 174.54 48.123 173.146 49.3145C171.76 50.4993 169.995 51.0918 167.854 51.0918C165.705 51.0918 163.941 50.4993 162.561 49.3145C161.18 48.123 160.49 46.3327 160.49 43.9434ZM163.273 44.1094C163.273 45.7891 163.69 47.026 164.523 47.8203C165.363 48.6081 166.473 49.002 167.854 49.002C169.234 49.002 170.347 48.6081 171.193 47.8203C172.04 47.026 172.463 45.7891 172.463 44.1094V43.2598C172.463 41.5801 172.04 40.3496 171.193 39.5684C170.354 38.7806 169.24 38.3867 167.854 38.3867C166.473 38.3867 165.363 38.7806 164.523 39.5684C163.69 40.3496 163.273 41.5768 163.273 43.25V44.1094ZM177.814 50.7988V36.5801H183.85C185.542 36.5801 186.864 36.8698 187.814 37.4492C188.765 38.0286 189.24 38.9857 189.24 40.3203C189.24 41.1081 189.035 41.7493 188.625 42.2441C188.221 42.7324 187.707 43.084 187.082 43.2988V43.3379C187.863 43.5462 188.495 43.9271 188.977 44.4805C189.465 45.0339 189.709 45.776 189.709 46.707C189.709 48.0677 189.201 49.0898 188.186 49.7734C187.17 50.457 185.829 50.7988 184.162 50.7988H177.814ZM180.49 48.8457H184.025C185.035 48.8457 185.783 48.6602 186.271 48.2891C186.76 47.9115 187.004 47.3418 187.004 46.5801C187.004 45.8639 186.76 45.3138 186.271 44.9297C185.783 44.5391 185.035 44.3438 184.025 44.3438H180.49V48.8457ZM180.49 42.5078H183.713C184.709 42.5078 185.432 42.3353 185.881 41.9902C186.337 41.6452 186.564 41.1504 186.564 40.5059C186.564 39.8288 186.34 39.334 185.891 39.0215C185.441 38.709 184.715 38.5527 183.713 38.5527H180.49V42.5078ZM192.209 36.5801H194.924V48.709H200.354V36.5801H203.059V48.709H208.498V36.5801H211.203V48.709H213.088V53.6211H210.568V50.7988H192.209V36.5801ZM228.234 50.7988H225.578V41.2773C225.578 41.069 225.581 40.8411 225.588 40.5938C225.594 40.3398 225.604 40.112 225.617 39.9102H225.5C225.402 40.1055 225.305 40.2975 225.207 40.4863C225.116 40.6751 224.986 40.8802 224.816 41.1016L217.814 50.7988H214.943V36.5801H217.609V46.0918C217.609 46.2936 217.603 46.5182 217.59 46.7656C217.583 47.013 217.577 47.2409 217.57 47.4492H217.707C217.779 47.2865 217.867 47.1009 217.971 46.8926C218.081 46.6842 218.208 46.4792 218.352 46.2773L225.363 36.5801H228.234V50.7988ZM241.506 50.7988L234.963 43.9824L236.936 42.5762L244.836 50.7988H241.506ZM232.824 42.4199H235.49L241.408 36.5801H244.348L236.057 44.5293H232.824V42.4199ZM231.467 50.7988V36.5801H234.182V50.7988H231.467ZM244.24 50.7988L250.422 36.5117H253.088L259.279 50.7988H256.33L252.219 40.7207C252.095 40.4277 251.991 40.1478 251.906 39.8809C251.822 39.6074 251.743 39.347 251.672 39.0996H251.574C251.496 39.347 251.415 39.6074 251.33 39.8809C251.245 40.1543 251.145 40.4342 251.027 40.7207L246.887 50.7988H244.24ZM247.102 47.4688L247.863 45.4473H255.52L256.281 47.4688H247.102ZM260.764 50.7988V36.5801H263.977L268.752 46.834C268.85 47.0423 268.947 47.2539 269.045 47.4688C269.143 47.6771 269.217 47.8561 269.27 48.0059H269.328C269.38 47.8561 269.449 47.6771 269.533 47.4688C269.618 47.2539 269.706 47.0423 269.797 46.834L274.631 36.5801H277.912V50.7988H275.236L275.246 41.1504C275.246 40.9486 275.253 40.7337 275.266 40.5059C275.279 40.2715 275.292 40.0566 275.305 39.8613H275.236C275.191 40.0566 275.132 40.2715 275.061 40.5059C274.995 40.7337 274.917 40.9486 274.826 41.1504L270.314 50.7988H268.01L263.518 41.1504C263.42 40.9551 263.335 40.7435 263.264 40.5156C263.192 40.2812 263.133 40.0632 263.088 39.8613H263.02C263.033 40.0632 263.046 40.2812 263.059 40.5156C263.078 40.7435 263.088 40.9583 263.088 41.1602V50.7988H260.764Z" fill="white"/>
</svg>
