<svg width="536" height="227" viewBox="0 0 536 227" fill="none" xmlns="http://www.w3.org/2000/svg">
<g clip-path="url(#clip0_8903_21458)">
<rect x="0.3125" width="535.5" height="227" rx="16" fill="#7099ED"/>
<g clip-path="url(#clip1_8903_21458)">
<path d="M320.563 173.844C320.406 171.999 320.156 170.182 319.813 168.405L321.672 167.334C321.124 164.624 320.374 162 319.446 159.486L317.389 159.865C316.744 158.178 316.009 156.54 315.199 154.959L316.675 153.285C315.425 150.922 314.001 148.689 312.428 146.611L310.576 147.699C309.512 146.33 308.374 145.03 307.172 143.812L308.124 141.693C306.309 139.896 304.353 138.271 302.288 136.84L300.82 138.527C299.44 137.598 298.008 136.763 296.528 136.022L296.863 133.675C294.665 132.611 292.37 131.756 289.998 131.124L289.058 133.251C287.505 132.86 285.916 132.57 284.303 132.395L283.984 130.048C282.794 129.934 281.588 129.869 280.374 129.869C279.16 129.869 277.954 129.934 276.764 130.048L276.607 131.201C274.377 130.586 272.09 130.179 269.762 129.987L269.048 131.038L269.065 130.171L263.676 130.004V129.995C263.676 129.995 263.644 129.995 263.627 130H263.474L263.244 130.04C262.196 130.138 261.143 130.273 260.082 130.464C258.88 130.68 257.698 130.957 256.541 131.283V133.658C256.408 133.699 256.271 133.744 256.133 133.789L256.375 133.654L250.785 133.479H250.777L250.741 133.426C248.486 134.469 246.336 135.724 244.307 137.166L244.957 139.428C244.118 140.043 243.303 140.691 242.513 141.371L239.399 141.273L239.383 141.261L239.37 141.273H239.35L239.229 141.416C237.443 143.156 235.785 145.055 234.28 147.096L235.511 149.019C234.643 150.225 233.829 151.484 233.074 152.784L230.735 152.71L230.727 152.731L230.703 152.723C229.428 155.053 228.331 157.514 227.415 160.073L229.101 161.462C228.517 163.165 228.016 164.913 227.609 166.698L225.528 166.69C224.951 169.338 224.572 172.064 224.398 174.839L226.379 175.568C226.286 177.381 226.282 179.219 226.383 181.072L224.402 181.798C224.491 183.159 224.624 184.528 224.814 185.901C225.003 187.274 225.245 188.622 225.532 189.951H227.609C228.012 191.743 228.508 193.487 229.089 195.178L227.399 196.572C228.315 199.151 229.412 201.608 230.674 203.926L230.699 203.918H233.074C233.825 205.205 234.627 206.452 235.478 207.638L234.252 209.553C235.809 211.667 237.519 213.619 239.358 215.387L239.427 215.469H242.702C243.428 216.08 244.166 216.667 244.925 217.221L244.275 219.478C246.316 220.933 248.466 222.192 250.704 223.235L250.725 223.206H256.307L256.283 223.194H256.5L256.492 225.394C258.812 226.05 261.195 226.486 263.623 226.686V226.678H269.149V225.508C269.234 225.533 269.319 225.545 269.411 225.553H269.383L269.714 226.678C270.904 226.58 272.102 226.425 273.304 226.209C274.421 226.009 275.518 225.757 276.595 225.459L276.752 226.625C277.942 226.739 279.144 226.8 280.362 226.8C281.58 226.8 282.782 226.739 283.972 226.625L284.291 224.278C285.904 224.103 287.493 223.813 289.046 223.422L289.986 225.549C292.358 224.917 294.653 224.062 296.851 222.998L296.516 220.651C297.996 219.91 299.428 219.075 300.808 218.146L302.276 219.833C304.341 218.402 306.297 216.777 308.112 214.98L307.16 212.861C308.362 211.643 309.5 210.343 310.564 208.974L312.416 210.062C313.989 207.984 315.413 205.751 316.663 203.388L315.187 201.709C315.997 200.133 316.731 198.495 317.377 196.808L319.434 197.187C320.362 194.673 321.112 192.049 321.66 189.34L319.801 188.268C320.144 186.491 320.394 184.674 320.551 182.829L322.604 182.466C322.705 181.105 322.757 179.728 322.757 178.339C322.757 176.949 322.705 175.572 322.604 174.211L320.551 173.849L320.563 173.844ZM269.98 225.529L270.472 225.545H269.77C269.839 225.545 269.912 225.537 269.984 225.529H269.98ZM270.569 225.545L270.468 225.508C270.565 225.508 270.658 225.52 270.75 225.545H270.569Z" fill="#231F20"/>
<path d="M447.046 182.462C447.147 181.101 447.199 179.724 447.199 178.334C447.199 176.945 447.147 175.568 447.046 174.207L444.993 173.844C444.836 171.999 444.586 170.182 444.243 168.405L446.102 167.334C445.554 164.624 444.803 162 443.876 159.486L441.819 159.865C441.173 158.178 440.439 156.54 439.628 154.959L441.105 153.285C439.854 150.922 438.431 148.689 436.858 146.611L435.006 147.699C433.941 146.33 432.804 145.03 431.602 143.812L432.554 141.693C430.739 139.896 428.783 138.271 426.717 136.84L425.249 138.527C423.87 137.598 422.438 136.763 420.958 136.022L421.293 133.675C419.094 132.611 416.799 131.756 414.428 131.124L413.488 133.251C411.935 132.86 410.346 132.57 408.732 132.395L408.414 130.048C407.224 129.934 406.018 129.869 404.804 129.869C403.59 129.869 402.384 129.934 401.194 130.048L401.037 131.201C398.806 130.586 396.519 130.179 394.192 129.987L393.478 131.038L393.494 130.171L388.106 130.004V129.995C388.106 129.995 388.073 129.995 388.057 130H387.904L387.674 130.04C386.625 130.138 385.573 130.273 384.512 130.464C383.31 130.68 382.128 130.957 380.97 131.283V133.658C380.837 133.699 380.7 133.744 380.563 133.789L380.805 133.654L375.215 133.479H375.207L375.17 133.426C372.916 134.469 370.766 135.724 368.737 137.166L369.386 139.428C368.548 140.043 367.733 140.691 366.942 141.371L363.828 141.273L363.812 141.261L363.8 141.273H363.78L363.659 141.416C361.872 143.156 360.214 145.055 358.71 147.096L359.94 149.019C359.073 150.225 358.258 151.484 357.504 152.784L355.165 152.71L355.157 152.731L355.132 152.723C353.858 155.053 352.761 157.514 351.845 160.073L353.531 161.462C352.946 163.165 352.446 164.913 352.039 166.698L349.957 166.69C349.381 169.338 349.002 172.064 348.828 174.839L350.809 175.568C350.716 177.381 350.712 179.219 350.813 181.072L348.832 181.798C348.921 183.159 349.054 184.528 349.244 185.901C349.433 187.274 349.675 188.622 349.962 189.951H352.039C352.442 191.743 352.938 193.487 353.519 195.178L351.829 196.572C352.745 199.151 353.842 201.608 355.104 203.926L355.128 203.918H357.504C358.254 205.205 359.057 206.452 359.908 207.638L358.682 209.553C360.239 211.667 361.949 213.619 363.788 215.387L363.857 215.469H367.132C367.858 216.08 368.596 216.667 369.354 217.221L368.705 219.478C370.746 220.933 372.896 222.192 375.134 223.235L375.154 223.206H380.737L380.712 223.194H380.93L380.922 225.394C383.241 226.05 385.625 226.486 388.053 226.686V226.678H393.579V225.508C393.664 225.533 393.748 225.545 393.841 225.553H393.813L394.144 226.678C395.333 226.58 396.531 226.425 397.733 226.209C398.851 226.009 399.948 225.757 401.025 225.459L401.182 226.625C402.372 226.739 403.574 226.8 404.792 226.8C406.01 226.8 407.212 226.739 408.402 226.625L408.72 224.278C410.334 224.103 411.923 223.813 413.476 223.422L414.416 225.549C416.787 224.917 419.082 224.062 421.28 222.998L420.946 220.651C422.426 219.91 423.858 219.075 425.237 218.146L426.705 219.833C428.771 218.402 430.727 216.777 432.542 214.98L431.59 212.861C432.792 211.643 433.929 210.343 434.994 208.974L436.845 210.062C438.418 207.984 439.842 205.751 441.093 203.388L439.616 201.709C440.427 200.133 441.161 198.495 441.807 196.808L443.864 197.187C444.791 194.673 445.541 192.049 446.09 189.34L444.231 188.268C444.573 186.491 444.824 184.674 444.981 182.829L447.034 182.466L447.046 182.462ZM394.41 225.529L394.902 225.545H394.2C394.269 225.545 394.341 225.537 394.414 225.529H394.41ZM394.999 225.545L394.898 225.508C394.995 225.508 395.087 225.52 395.18 225.545H394.999Z" fill="#231F20"/>
<path d="M371.974 47.4512H368.356C365.683 47.4512 363.516 49.6402 363.516 52.3405V70.3943C363.516 73.0946 365.683 75.2836 368.356 75.2836H371.974C374.647 75.2836 376.814 73.0946 376.814 70.3943V52.3405C376.814 49.6402 374.647 47.4512 371.974 47.4512Z" fill="#7099ED" stroke="#231F20" stroke-width="0.99" stroke-linecap="round" stroke-linejoin="round"/>
<path d="M369.099 47.4512H365.481C362.808 47.4512 360.641 49.6402 360.641 52.3405V70.3943C360.641 73.0946 362.808 75.2836 365.481 75.2836H369.099C371.772 75.2836 373.939 73.0946 373.939 70.3943V52.3405C373.939 49.6402 371.772 47.4512 369.099 47.4512Z" fill="#7099ED" stroke="#231F20" stroke-width="0.99" stroke-linecap="round" stroke-linejoin="round"/>
<path d="M526.689 136.148L496.475 57.5685C495.858 55.9225 494.704 54.5372 493.208 53.6367L488.723 50.9435C487.533 50.2305 486.174 49.8516 484.79 49.8516H481.906L521.41 142.158L526.689 136.148Z" fill="#7099ED" stroke="#231F20" stroke-width="0.99" stroke-linecap="round" stroke-linejoin="round"/>
<path d="M460.938 71.0637L474.651 60.7188L480.007 75.2848L465.072 104.034L460.938 71.0637Z" fill="#7099ED" stroke="#231F20" stroke-width="0.99" stroke-linecap="round" stroke-linejoin="round"/>
<path d="M484.396 123.836V79.8359L472.767 72.2656L463.422 102.237L467.834 127.462L484.396 123.836Z" fill="#231F20" stroke="#231F20" stroke-width="0.99" stroke-linecap="round" stroke-linejoin="round"/>
<path d="M536.825 140.378L537.401 135.159C537.462 134.621 537.369 134.075 537.135 133.586L536.522 132.311C535.929 131.068 534.546 130.428 533.227 130.783C531.319 131.296 523.067 134.368 522.812 134.417L529.355 147.875L536.825 140.378Z" fill="#231F20" stroke="#231F20" stroke-width="0.99" stroke-linecap="round" stroke-linejoin="round"/>
<path d="M537.969 149.259L538.796 144.521C538.994 143.38 538.667 142.207 537.909 141.339L537.735 141.143C537.017 140.32 535.985 139.852 534.904 139.852H533.577L531.822 142.716L529.031 151.415C529.031 151.415 532.702 154.002 533.258 153.921C533.815 153.839 537.969 149.259 537.969 149.259Z" fill="#7099ED" stroke="#231F20" stroke-width="0.99" stroke-linecap="round" stroke-linejoin="round"/>
<path d="M516.493 108.585L518.477 107.456L518.55 106.462C518.586 105.985 518.509 105.509 518.332 105.065L501.658 63.7988L499.383 69.4582L501.404 74.8283L514.641 106.67C514.855 107.187 515.206 107.632 515.654 107.966L516.497 108.589" fill="#7099ED"/>
<path d="M516.493 108.585L518.477 107.456L518.55 106.462C518.586 105.985 518.509 105.509 518.332 105.065L501.658 63.7988L499.383 69.4582L501.404 74.8283L514.641 106.67C514.855 107.187 515.206 107.632 515.654 107.966L516.497 108.589" stroke="#231F20" stroke-width="0.99" stroke-linecap="round" stroke-linejoin="round"/>
<path d="M501.217 80.4631L501.713 62.2178C501.745 61.0199 500.975 59.9524 499.838 59.6183L498.273 59.1579L496.05 54.1586C495.691 53.3559 495.171 52.6388 494.521 52.0521L491.363 49.2041C490 47.9736 488.169 47.4154 486.362 47.6762L483.805 48.0469L484.394 63.3301L500.564 87.2674L501.221 80.4631H501.217Z" fill="#7099ED" stroke="#231F20" stroke-width="0.99" stroke-linecap="round" stroke-linejoin="round"/>
<path d="M521.767 133.251L491.553 54.672C490.936 53.026 489.782 51.6407 488.286 50.7402L483.801 48.047C482.611 47.334 481.252 46.9551 479.868 46.9551H476.984L516.488 139.261L521.767 133.251Z" fill="#7099ED" stroke="#231F20" stroke-width="0.99" stroke-linecap="round" stroke-linejoin="round"/>
<path d="M487.197 123.208L467.938 54.4026C467.595 53.1722 468.075 51.8602 469.124 51.1472L473.835 47.9447C475.718 46.6653 478.174 46.6205 480.102 47.8306L487.092 52.2187C488.161 52.891 488.984 53.8974 489.436 55.0831L518.779 132.571L503.9 145.046L487.742 139.843L487.197 123.203V123.208Z" fill="#7099ED" stroke="#231F20" stroke-width="0.99" stroke-linecap="round" stroke-linejoin="round"/>
<path d="M532.42 141.225L518.194 106.999C517.992 106.519 517.484 106.25 516.98 106.351C516.798 106.388 516.629 106.478 516.492 106.604L516.447 106.645C516.113 106.959 516.012 107.448 516.185 107.871L530.419 141.709L532.416 141.225H532.42Z" fill="white" stroke="#231F20" stroke-width="0.99" stroke-linecap="round" stroke-linejoin="round"/>
<path d="M499.875 76.438L500.56 62.2427C500.589 61.6723 500.455 61.1019 500.173 60.6048C499.197 58.8691 496.854 58.5472 495.458 59.961L494.062 61.1997L499.871 76.4421L499.875 76.438Z" stroke="#231F20" stroke-width="0.99" stroke-linecap="round" stroke-linejoin="round"/>
<path d="M529.155 141.136L532.115 139.995C533.176 139.587 534.366 140.089 534.822 141.14L535.281 142.199C535.487 142.672 535.519 143.206 535.366 143.703L533.261 150.548L539.113 148.955V151.212L535.604 155.294L537.52 155.832L535.794 157.336C534.402 158.546 532.809 159.495 531.091 160.139L523.496 162.983L514.836 162.547L518.563 145.997L529.159 141.136H529.155Z" fill="#231F20" stroke="#231F20" stroke-width="0.99" stroke-linecap="round" stroke-linejoin="round"/>
<path d="M519.749 158.542L533.257 150.544L526.674 135.464C525.355 132.445 522.016 130.897 518.89 131.854L504.297 136.194L507.887 149.863L519.749 158.546V158.542Z" fill="#7099ED" stroke="#231F20" stroke-width="0.99" stroke-linecap="round" stroke-linejoin="round"/>
<path d="M418.577 49.5918L374.762 50.1948L364.336 100.371V139.51H410.878L418.577 49.5918Z" fill="#7099ED" stroke="#231F20" stroke-width="0.99" stroke-linecap="round" stroke-linejoin="round"/>
<path d="M396.016 130.171H405.228C406.559 130.171 407.636 129.084 407.636 127.739V107.147L414.654 54.7455C414.824 53.4743 413.848 52.3457 412.577 52.3457H378.37C377.381 52.3457 376.53 53.0424 376.321 54.0162L366.398 100.371" fill="#231F20"/>
<path d="M396.016 130.171H405.228C406.559 130.171 407.636 129.084 407.636 127.739V107.147L414.654 54.7455C414.824 53.4743 413.848 52.3457 412.577 52.3457H378.37C377.381 52.3457 376.53 53.0424 376.321 54.0162L366.398 100.371" stroke="#231F20" stroke-width="0.99" stroke-linecap="round" stroke-linejoin="round"/>
<path d="M471.584 121.439L450.711 126.833V50.1934H462.908" fill="#7099ED"/>
<path d="M471.584 121.439L450.711 126.833V50.1934H462.908" stroke="#231F20" stroke-width="0.99" stroke-linecap="round" stroke-linejoin="round"/>
<path d="M451.879 136.27V50.1934H418.107L410.875 107.093V142.715L445.659 137.195L451.879 136.27Z" fill="#7099ED" stroke="#231F20" stroke-width="0.99" stroke-linecap="round" stroke-linejoin="round"/>
<path d="M422.672 53.258H445.869C447.361 53.258 448.571 54.4803 448.571 55.9878V117.418C448.571 118.229 448.212 118.999 447.595 119.516L431.131 133.349C430.647 133.756 430.033 133.981 429.404 133.981H420.361C419.059 133.981 417.937 133.039 417.703 131.744L413.504 108.634C413.456 108.356 413.448 108.075 413.48 107.798L419.99 55.6415C420.16 54.2766 421.309 53.2539 422.672 53.2539V53.258Z" fill="#231F20" stroke="#231F20" stroke-width="0.99" stroke-linecap="round" stroke-linejoin="round"/>
<path d="M468.451 146.547H364.336V180.972H468.451V146.547Z" fill="#231F20" stroke="#231F20" stroke-width="0.99" stroke-linecap="round" stroke-linejoin="round"/>
<path d="M353.639 109.572L322.824 112.77V93.2863C322.824 91.795 321.698 90.5523 320.226 90.4179C319.895 90.3893 319.573 90.4179 319.27 90.4994C319.125 90.4627 318.976 90.4342 318.823 90.4179C317.334 90.2834 316.011 91.3305 315.761 92.8014L267.15 116.975C266.231 117.431 265.686 118.368 265.682 119.35L265.698 119.399L261.334 121.445H261.092C260.636 121.216 260.124 121.086 259.58 121.086C258.87 121.086 258.208 121.306 257.66 121.681L256.74 121.64C255.752 121.595 254.881 122.3 254.715 123.286L252.715 135.037L252.194 134.911C251.549 134.752 250.9 134.711 250.27 134.764V134.735C248.25 134.572 244.725 135.799 243.652 138.667L222.468 195.42C221.444 198.162 222.734 201.238 225.4 202.399L236.565 207.268C236.968 207.444 245.386 206.885 246.116 203.744L252.965 174.213L262.08 166.752L262.226 163.823C262.141 165.51 263.286 167.009 264.924 167.355L274.991 169.482L339.397 123.119L355.349 118.095C357.136 117.533 358.354 115.859 358.354 113.968V113.878C358.354 111.316 356.16 109.315 353.639 109.58V109.572ZM303.278 114.612C301.588 114.612 299.922 115.027 298.425 115.822L270.26 130.779C268.752 131.582 267.457 132.743 266.497 134.169L263.504 137.84L264.182 124.089C264.194 123.804 264.162 123.527 264.089 123.27L266.638 121.872C267.408 122.74 268.699 123.03 269.796 122.463L315.075 99.0434L313.486 113.744L305.113 114.612H303.282H303.278Z" fill="#231F20"/>
<path d="M363.59 135.339L264.586 164.104L266.974 132.002C267.135 129.838 268.506 127.956 270.503 127.157L312.801 110.285L327.06 104.597L333.864 101.883C336.433 100.873 339.164 100.355 341.919 100.355H372.452C374.287 100.355 375.775 101.847 375.791 103.701C375.864 112.131 375.759 134.874 375.759 134.874" fill="white"/>
<path d="M363.59 135.339L264.586 164.104L266.974 132.002C267.135 129.838 268.506 127.956 270.503 127.157L312.801 110.285L327.06 104.597L333.864 101.883C336.433 100.873 339.164 100.355 341.919 100.355H372.452C374.287 100.355 375.775 101.847 375.791 103.701C375.864 112.131 375.759 134.874 375.759 134.874" stroke="#231F20" stroke-width="0.99" stroke-linecap="round" stroke-linejoin="round"/>
<path d="M395.872 135.338L296.867 164.104L299.521 128.465L345.091 110.289L359.349 104.601L366.153 101.887C368.723 100.877 371.453 100.359 374.208 100.359H392.568C394.403 100.359 395.892 101.851 395.908 103.704C395.98 112.134 395.876 134.878 395.876 134.878" fill="white"/>
<path d="M395.872 135.338L296.867 164.104L299.521 128.465L345.091 110.289L359.349 104.601L366.153 101.887C368.723 100.877 371.453 100.359 374.208 100.359H392.568C394.403 100.359 395.892 101.851 395.908 103.704C395.98 112.134 395.876 134.878 395.876 134.878" stroke="#231F20" stroke-width="0.99" stroke-linecap="round" stroke-linejoin="round"/>
<path d="M341.626 114.611L297.852 155.396L298.207 140.064L303.018 134.169C303.978 132.747 305.273 131.581 306.782 130.779L334.947 115.821C336.443 115.027 338.109 114.611 339.799 114.611H341.63" fill="#7099ED"/>
<path d="M341.626 114.611L297.852 155.396L298.207 140.064L303.018 134.169C303.978 132.747 305.273 131.581 306.782 130.779L334.947 115.821C336.443 115.027 338.109 114.611 339.799 114.611H341.63" stroke="#231F20" stroke-width="0.99" stroke-linecap="round" stroke-linejoin="round"/>
<path d="M299.602 146.425L306.434 137.001C307.233 135.901 308.225 134.955 309.359 134.218L336.758 116.343C338.226 115.386 339.892 114.795 341.63 114.612L390.16 109.572C392.685 109.311 394.875 111.312 394.875 113.87V113.96C394.875 115.85 393.657 117.525 391.87 118.087L375.918 123.111L311.512 169.474L301.445 167.347C299.807 167.001 298.662 165.501 298.747 163.815L299.606 146.421L299.602 146.425Z" fill="#7099ED" stroke="#231F20" stroke-width="0.99" stroke-linecap="round" stroke-linejoin="round"/>
<path d="M267.746 146.546L268.642 133.748C268.767 131.967 270.207 130.578 271.969 130.525L295.5 129.869L293.431 151.904L267.742 146.546H267.746Z" fill="#231F20" stroke="#231F20" stroke-width="0.99" stroke-linecap="round" stroke-linejoin="round"/>
<path d="M289.073 135.948L291.231 123.277C291.401 122.291 292.268 121.586 293.256 121.631L295.119 121.716L293.909 140.781L288.977 138.136L289.073 135.948Z" fill="#7099ED" stroke="#231F20" stroke-width="0.99" stroke-linecap="round" stroke-linejoin="round"/>
<path d="M284.038 174.033L293.476 166.996L297.489 124.476C297.626 123.042 296.541 121.783 295.117 121.717C293.831 121.66 292.713 122.597 292.532 123.885L290.705 136.927L282.969 173.988L284.038 174.037V174.033Z" fill="#7099ED" stroke="#231F20" stroke-width="0.99" stroke-linecap="round" stroke-linejoin="round"/>
<path d="M296.1 127.986C297.989 127.986 299.52 126.439 299.52 124.531C299.52 122.623 297.989 121.076 296.1 121.076C294.211 121.076 292.68 122.623 292.68 124.531C292.68 126.439 294.211 127.986 296.1 127.986Z" fill="white" stroke="#231F20" stroke-width="0.99" stroke-linecap="round" stroke-linejoin="round"/>
<path d="M412.63 162.865H385.453V185.592H412.63V162.865Z" fill="white" stroke="#231F20" stroke-width="0.99" stroke-linecap="round" stroke-linejoin="round"/>
<path d="M499.861 126.92L489.225 128.64L481.001 144.436C481.001 144.436 451.46 133.676 451.887 133.252C452.315 132.828 466.674 125.307 466.674 125.307H498.163L499.865 126.92H499.861Z" fill="#231F20" stroke="#231F20" stroke-width="0.99" stroke-linecap="round" stroke-linejoin="round"/>
<path d="M425.081 156.395H394.875V160.876H425.081V156.395Z" fill="white" stroke="#231F20" stroke-width="0.99" stroke-linecap="round" stroke-linejoin="round"/>
<path d="M411.027 134.873H380.82V146.453H411.027V134.873Z" fill="white" stroke="#231F20" stroke-width="0.99" stroke-linecap="round" stroke-linejoin="round"/>
<path d="M451.883 50.1934H462.914L471.59 121.439" stroke="#231F20" stroke-width="0.99" stroke-linecap="round" stroke-linejoin="round"/>
<path d="M454.733 53.258H460C460.658 53.258 461.21 53.751 461.291 54.411L468.442 112.423C468.543 113.25 467.87 113.963 467.047 113.894L455.927 112.989C455.261 112.936 454.745 112.382 454.729 111.71L453.43 54.5985C453.414 53.861 453.999 53.2539 454.729 53.2539L454.733 53.258Z" fill="#231F20" stroke="#231F20" stroke-width="0.99" stroke-linecap="round" stroke-linejoin="round"/>
<path d="M278.236 144.66H248.385L176.953 161.691L213.496 176.657L276.522 154.977L278.236 144.66Z" fill="#7099ED" stroke="#231F20" stroke-width="0.99" stroke-linecap="round" stroke-linejoin="round"/>
<path d="M265.192 208.348L226.528 208.519C223.047 208.535 219.711 207.097 217.316 204.55L176.953 161.691H221.898L265.192 208.348Z" fill="#231F20" stroke="#231F20" stroke-width="0.99" stroke-linecap="round" stroke-linejoin="round"/>
<path d="M303.155 121.872L302.195 119.35C302.195 118.368 302.744 117.435 303.663 116.974L352.835 92.5195L351.915 98.8716L306.309 122.458C305.212 123.025 303.926 122.74 303.151 121.868" fill="#7099ED"/>
<path d="M303.155 121.872L302.195 119.35C302.195 118.368 302.744 117.435 303.663 116.974L352.835 92.5195L351.915 98.8716L306.309 122.458C305.212 123.025 303.926 122.74 303.151 121.868" stroke="#231F20" stroke-width="0.99" stroke-linecap="round" stroke-linejoin="round"/>
<path d="M300.606 123.266L303.845 121.493C304.438 121.167 304.656 120.413 304.325 119.819L304.253 119.684C303.942 119.126 303.26 118.906 302.688 119.175L297.852 121.44L299.598 123.856L300.606 123.266Z" fill="white" stroke="#231F20" stroke-width="0.99" stroke-linecap="round" stroke-linejoin="round"/>
<path d="M269.582 206.722C267.25 209.024 263.487 208.889 261.321 206.428L221.898 161.691L280.298 145.707L270.291 205.349C270.203 205.87 269.957 206.351 269.582 206.722Z" fill="#7099ED" stroke="#231F20" stroke-width="0.99" stroke-linecap="round" stroke-linejoin="round"/>
<path d="M292.805 135.932L294.394 123.175C294.519 122.181 295.354 121.439 296.342 121.439H298.205L297.85 140.54L292.805 138.124V135.936V135.932Z" fill="#7099ED" stroke="#231F20" stroke-width="0.99" stroke-linecap="round" stroke-linejoin="round"/>
<path d="M289.483 174.207L298.598 166.747L300.7 124.088C300.772 122.645 299.635 121.439 298.207 121.439C296.921 121.439 295.844 122.425 295.723 123.721L294.48 136.833L288.414 174.207H289.483Z" fill="#7099ED" stroke="#231F20" stroke-width="0.99" stroke-linecap="round" stroke-linejoin="round"/>
<path d="M466.059 40.2031H371.939C370.618 40.2031 369.547 41.2849 369.547 42.6193V47.7816C369.547 49.116 370.618 50.1977 371.939 50.1977H466.059C467.38 50.1977 468.45 49.116 468.45 47.7816V42.6193C468.45 41.2849 467.38 40.2031 466.059 40.2031Z" fill="white" stroke="#231F20" stroke-width="0.99" stroke-linecap="round" stroke-linejoin="round"/>
<path d="M387.446 41.9238H381.239C380.68 41.9238 380.227 42.3817 380.227 42.9465V47.4569C380.227 48.0217 380.68 48.4796 381.239 48.4796H387.446C388.006 48.4796 388.459 48.0217 388.459 47.4569V42.9465C388.459 42.3817 388.006 41.9238 387.446 41.9238Z" fill="white" stroke="#231F20" stroke-width="0.99" stroke-linecap="round" stroke-linejoin="round"/>
<path d="M396.978 41.9238H390.77C390.211 41.9238 389.758 42.3817 389.758 42.9465V47.4569C389.758 48.0217 390.211 48.4796 390.77 48.4796H396.978C397.537 48.4796 397.99 48.0217 397.99 47.4569V42.9465C397.99 42.3817 397.537 41.9238 396.978 41.9238Z" fill="white" stroke="#231F20" stroke-width="0.99" stroke-linecap="round" stroke-linejoin="round"/>
<path d="M406.517 41.9238H400.309C399.75 41.9238 399.297 42.3817 399.297 42.9465V47.4569C399.297 48.0217 399.75 48.4796 400.309 48.4796H406.517C407.076 48.4796 407.529 48.0217 407.529 47.4569V42.9465C407.529 42.3817 407.076 41.9238 406.517 41.9238Z" fill="white" stroke="#231F20" stroke-width="0.99" stroke-linecap="round" stroke-linejoin="round"/>
<path d="M374.735 47.9412C375.969 47.9412 376.969 46.7135 376.969 45.1991C376.969 43.6847 375.969 42.457 374.735 42.457C373.5 42.457 372.5 43.6847 372.5 45.1991C372.5 46.7135 373.5 47.9412 374.735 47.9412Z" fill="white" stroke="#231F20" stroke-width="0.99" stroke-linecap="round" stroke-linejoin="round"/>
<path d="M413.461 47.9412C414.695 47.9412 415.696 46.7135 415.696 45.1991C415.696 43.6847 414.695 42.457 413.461 42.457C412.227 42.457 411.227 43.6847 411.227 45.1991C411.227 46.7135 412.227 47.9412 413.461 47.9412Z" fill="white" stroke="#231F20" stroke-width="0.99" stroke-linecap="round" stroke-linejoin="round"/>
<path d="M509.94 140.679L509.601 138.205L504.003 134.872V124.576C504.003 123.399 502.966 122.445 501.687 122.45C496.577 122.47 484.783 122.507 484.759 122.441H471.586V142.72H510.105L509.936 140.683L509.94 140.679Z" fill="#231F20" stroke="#231F20" stroke-width="0.99" stroke-linecap="round" stroke-linejoin="round"/>
<path d="M210.284 155.461H207.359L220.496 171.579H224.114L210.284 155.461Z" fill="#231F20" stroke="#231F20" stroke-width="0.99" stroke-linecap="round" stroke-linejoin="round"/>
<path d="M196.742 155.461L209.879 171.579H213.497L199.666 155.461H196.742Z" fill="#231F20" stroke="#231F20" stroke-width="0.99" stroke-linecap="round" stroke-linejoin="round"/>
<path d="M186.125 155.461L199.262 171.579H202.88L189.053 155.461H186.125Z" fill="#231F20" stroke="#231F20" stroke-width="0.99" stroke-linecap="round" stroke-linejoin="round"/>
<path d="M175.516 155.461L188.652 171.579H192.266L178.44 155.461H175.516Z" fill="#231F20" stroke="#231F20" stroke-width="0.99" stroke-linecap="round" stroke-linejoin="round"/>
<path d="M210.281 155.461L215.63 161.691H218.739L210.281 155.461Z" fill="#7099ED" stroke="#231F20" stroke-width="0.99" stroke-linecap="round" stroke-linejoin="round"/>
<path d="M205.012 161.691H208.122L199.664 155.461L205.012 161.691Z" fill="#7099ED" stroke="#231F20" stroke-width="0.99" stroke-linecap="round" stroke-linejoin="round"/>
<path d="M194.399 161.691H197.509L189.055 155.461L194.399 161.691Z" fill="#7099ED" stroke="#231F20" stroke-width="0.99" stroke-linecap="round" stroke-linejoin="round"/>
<path d="M183.786 161.691H186.896L178.438 155.461L183.786 161.691Z" fill="#7099ED" stroke="#231F20" stroke-width="0.99" stroke-linecap="round" stroke-linejoin="round"/>
<path d="M409.445 93.6203L375.314 58.7188L372.547 71.6388C372.539 71.6795 407.634 108.545 407.634 108.545V107.147L409.445 93.6203Z" fill="white" stroke="#231F20" stroke-width="0.99" stroke-linecap="round" stroke-linejoin="round"/>
<path d="M380.227 52.3459C380.88 52.3459 411.227 80.4635 411.227 80.4635L411.961 74.8245L388.459 52.3418H380.227V52.3459Z" fill="white" stroke="#231F20" stroke-width="0.99" stroke-linecap="round" stroke-linejoin="round"/>
<path d="M448.575 82.1094L413.896 104.494L413.484 107.803L415.138 117.614L448.575 96.1865V82.1094Z" fill="white" stroke="#231F20" stroke-width="0.99" stroke-linecap="round" stroke-linejoin="round"/>
<path d="M391.798 116.331C392.769 116.331 393.556 115.183 393.556 113.768C393.556 112.352 392.769 111.205 391.798 111.205C390.826 111.205 390.039 112.352 390.039 113.768C390.039 115.183 390.826 116.331 391.798 116.331Z" stroke="#231F20" stroke-width="0.99" stroke-linecap="round" stroke-linejoin="round"/>
<path d="M286.786 134.731C284.765 134.568 281.24 135.795 280.167 138.663L258.984 195.416C257.959 198.158 259.25 201.234 261.916 202.395L273.081 207.264C273.484 207.439 273.911 207.549 274.347 207.594L275.726 207.729L287.218 147.822L286.794 134.727L286.786 134.731Z" fill="#7099ED" stroke="#231F20" stroke-width="0.99" stroke-linecap="round" stroke-linejoin="round"/>
<path d="M288.71 134.901L292.263 135.773C295.474 136.56 297.454 139.815 296.7 143.063L282.627 203.739C281.853 207.072 278.288 208.885 275.178 207.528L263.408 202.394C260.742 201.233 259.451 198.157 260.476 195.415L281.659 138.662C282.732 135.79 285.753 134.176 288.706 134.901H288.71Z" fill="#7099ED" stroke="#231F20" stroke-width="0.99" stroke-linecap="round" stroke-linejoin="round"/>
<path d="M293.436 143.845C294.229 143.845 294.872 142.653 294.872 141.184C294.872 139.715 294.229 138.523 293.436 138.523C292.643 138.523 292 139.715 292 141.184C292 142.653 292.643 143.845 293.436 143.845Z" stroke="#231F20" stroke-width="0.99" stroke-linecap="round" stroke-linejoin="round"/>
<path d="M348.258 129.871L348.678 126.012L349.174 121.441L352.259 92.9399C352.445 91.3957 353.808 90.2793 355.345 90.4179C356.813 90.5523 357.942 91.795 357.942 93.2863V134.495H347.75L348.266 129.871H348.258Z" fill="#7099ED" stroke="#231F20" stroke-width="0.99" stroke-linecap="round" stroke-linejoin="round"/>
<path d="M349.664 129.871L350.084 126.012L350.58 121.441L353.666 92.9399C353.851 91.3957 355.214 90.2793 356.751 90.4179C358.219 90.5523 359.349 91.795 359.349 93.2863V134.495H349.156L349.673 129.871H349.664Z" fill="#7099ED" stroke="#231F20" stroke-width="0.99" stroke-linecap="round" stroke-linejoin="round"/>
<path d="M356.832 96.1876C357.451 96.1876 357.954 95.2974 357.954 94.1993C357.954 93.1011 357.451 92.2109 356.832 92.2109C356.213 92.2109 355.711 93.1011 355.711 94.1993C355.711 95.2974 356.213 96.1876 356.832 96.1876Z" stroke="#231F20" stroke-width="0.99" stroke-linecap="round" stroke-linejoin="round"/>
<path d="M345.594 125.094C347.861 125.514 351.091 126.223 354.867 127.457C357.141 128.203 366.438 131.381 376.833 139.118C379.975 141.457 384.065 144.843 388.376 149.488C392.986 149.561 397.597 149.63 402.207 149.704L402.739 147.288C401.945 145.633 400.783 143.511 399.121 141.217C396.58 137.705 394.104 135.504 392.898 134.445C385.92 128.317 377.801 125.551 376.09 124.988C364.902 121.317 355.044 122.564 349.974 123.591C348.514 124.092 347.054 124.593 345.594 125.094Z" fill="#231F20" stroke="#231F20" stroke-width="0.99" stroke-linecap="round" stroke-linejoin="round"/>
<path d="M472.945 123.519L472.627 121.604C468.537 120.915 457.219 119.587 445.341 125.796C438.75 129.239 434.362 133.766 431.74 137.033C431.143 137.775 430.252 138.211 429.308 138.211H419.055C418.119 138.211 417.232 137.787 416.639 137.058L415.804 136.031C415.211 135.302 414.324 134.878 413.388 134.878H410.875V146.551H441.529C441.529 146.551 460.03 130.677 459.784 129.875C459.538 129.072 472.945 123.523 472.945 123.523V123.519Z" fill="white" stroke="#231F20" stroke-width="0.99" stroke-linecap="round" stroke-linejoin="round"/>
<path d="M419.493 40.2031H371.939C370.618 40.2031 369.547 41.2849 369.547 42.6193V47.7816C369.547 49.116 370.618 50.1977 371.939 50.1977H419.493C420.814 50.1977 421.885 49.116 421.885 47.7816V42.6193C421.885 41.2849 420.814 40.2031 419.493 40.2031Z" stroke="#231F20" stroke-width="0.99" stroke-linecap="round" stroke-linejoin="round"/>
<path d="M431.2 47.4512H427.582C424.909 47.4512 422.742 49.6402 422.742 52.3405V70.3943C422.742 73.0946 424.909 75.2836 427.582 75.2836H431.2C433.873 75.2836 436.04 73.0946 436.04 70.3943V52.3405C436.04 49.6402 433.873 47.4512 431.2 47.4512Z" fill="#7099ED" stroke="#231F20" stroke-width="0.99" stroke-linecap="round" stroke-linejoin="round"/>
<path d="M428.325 47.4512H424.707C422.034 47.4512 419.867 49.6402 419.867 52.3405V70.3943C419.867 73.0946 422.034 75.2836 424.707 75.2836H428.325C430.998 75.2836 433.165 73.0946 433.165 70.3943V52.3405C433.165 49.6402 430.998 47.4512 428.325 47.4512Z" fill="#7099ED" stroke="#231F20" stroke-width="0.99" stroke-linecap="round" stroke-linejoin="round"/>
<path d="M401.585 182.462C401.686 181.101 401.738 179.724 401.738 178.334C401.738 176.945 401.686 175.568 401.585 174.207L399.532 173.844C399.375 171.999 399.125 170.182 398.782 168.405L400.641 167.334C400.093 164.624 399.342 162 398.415 159.486L396.358 159.865C395.712 158.178 394.978 156.54 394.168 154.959L395.644 153.285C394.393 150.922 392.97 148.689 391.397 146.611L389.545 147.699C388.48 146.33 387.343 145.03 386.141 143.812L387.093 141.693C385.278 139.896 383.322 138.271 381.257 136.84L379.788 138.527C378.409 137.598 376.977 136.763 375.497 136.022L375.832 133.675C373.633 132.611 371.338 131.756 368.967 131.124L368.027 133.251C366.474 132.86 364.885 132.57 363.272 132.395L362.953 130.048C361.763 129.934 360.557 129.869 359.343 129.869C358.129 129.869 356.923 129.934 355.733 130.048L355.576 131.201C353.345 130.586 351.058 130.179 348.731 129.987L348.017 131.038L348.033 130.171L342.645 130.004V129.995C342.645 129.995 342.612 129.995 342.596 130H342.443L342.213 130.04C341.164 130.138 340.112 130.273 339.051 130.464C337.849 130.68 336.667 130.957 335.51 131.283V133.658C335.376 133.699 335.239 133.744 335.102 133.789L335.344 133.654L329.754 133.479H329.746L329.709 133.426C327.455 134.469 325.305 135.724 323.276 137.166L323.926 139.428C323.087 140.043 322.272 140.691 321.481 141.371L318.367 141.273L318.351 141.261L318.339 141.273H318.319L318.198 141.416C316.411 143.156 314.754 145.055 313.249 147.096L314.479 149.019C313.612 150.225 312.797 151.484 312.043 152.784L309.704 152.71L309.696 152.731L309.671 152.723C308.397 155.053 307.3 157.514 306.384 160.073L308.07 161.462C307.485 163.165 306.985 164.913 306.578 166.698L304.497 166.69C303.92 169.338 303.541 172.064 303.367 174.839L305.348 175.568C305.255 177.381 305.251 179.219 305.352 181.072L303.371 181.798C303.46 183.159 303.593 184.528 303.783 185.901C303.972 187.274 304.214 188.622 304.501 189.951H306.578C306.981 191.743 307.477 193.487 308.058 195.178L306.368 196.572C307.284 199.151 308.381 201.608 309.643 203.926L309.667 203.918H312.043C312.793 205.205 313.596 206.452 314.447 207.638L313.221 209.553C314.778 211.667 316.488 213.619 318.327 215.387L318.396 215.469H321.671C322.397 216.08 323.135 216.667 323.893 217.221L323.244 219.478C325.285 220.933 327.435 222.192 329.673 223.235L329.693 223.206L335.469 223.194L335.461 225.398C337.78 226.054 340.164 226.49 342.592 226.69V226.682H348.118V225.512C348.602 225.663 349.211 225.423 349.703 225.553L350.639 223.426C352.196 223.817 353.781 224.107 355.398 224.282L355.56 225.463L355.717 226.629C356.907 226.743 358.109 226.804 359.327 226.804C360.545 226.804 361.747 226.743 362.937 226.629L363.255 224.282C364.869 224.107 366.458 223.817 368.011 223.426L368.951 225.553C371.322 224.922 373.617 224.066 375.815 223.002L375.481 220.656C376.961 219.914 378.393 219.079 379.772 218.15L381.24 219.837C383.306 218.406 385.262 216.781 387.077 214.984L386.125 212.865C387.327 211.647 388.464 210.347 389.529 208.978L391.38 210.066C392.953 207.988 394.377 205.755 395.628 203.392L394.151 201.714C394.962 200.137 395.696 198.499 396.342 196.812L398.399 197.191C399.326 194.677 400.076 192.053 400.625 189.344L398.766 188.272C399.108 186.496 399.359 184.678 399.516 182.833L401.569 182.47L401.585 182.462Z" fill="#7099ED" stroke="#231F20" stroke-width="0.99" stroke-linecap="round" stroke-linejoin="round"/>
<path d="M362.69 212.832C379.433 212.832 393.005 197.388 393.005 178.338C393.005 159.287 379.433 143.844 362.69 143.844C345.948 143.844 332.375 159.287 332.375 178.338C332.375 197.388 345.948 212.832 362.69 212.832Z" stroke="#231F20" stroke-width="0.99" stroke-linecap="round" stroke-linejoin="round"/>
<path d="M363.314 205.898C376.751 205.898 387.644 193.506 387.644 178.221C387.644 162.935 376.751 150.543 363.314 150.543C349.877 150.543 338.984 162.935 338.984 178.221C338.984 193.506 349.877 205.898 363.314 205.898Z" fill="#FF8B63" stroke="#231F20" stroke-width="0.99" stroke-linecap="round" stroke-linejoin="round"/>
<path d="M361.973 204.611C374.091 204.611 383.915 192.812 383.915 178.258C383.915 163.703 374.091 151.904 361.973 151.904C349.855 151.904 340.031 163.703 340.031 178.258C340.031 192.812 349.855 204.611 361.973 204.611Z" stroke="#231F20" stroke-width="0.99" stroke-linecap="round" stroke-linejoin="round"/>
<path d="M356.79 200.74C366.036 200.74 373.532 190.963 373.532 178.901C373.532 166.84 366.036 157.062 356.79 157.062C347.543 157.062 340.047 166.84 340.047 178.901C340.047 190.963 347.543 200.74 356.79 200.74Z" stroke="#231F20" stroke-width="0.99" stroke-linecap="round" stroke-linejoin="round"/>
<path d="M359.702 169.473H352.652C348.756 169.473 345.602 173.657 345.602 178.823C345.602 183.99 348.76 188.174 352.652 188.174H359.702C363.599 188.174 366.753 183.99 366.753 178.823C366.753 173.657 363.595 169.473 359.702 169.473Z" fill="#7099ED" stroke="#231F20" stroke-width="0.99" stroke-linecap="round" stroke-linejoin="round"/>
<path d="M360.641 186.761C363.86 186.761 366.469 183.207 366.469 178.824C366.469 174.44 363.86 170.887 360.641 170.887C357.422 170.887 354.812 174.44 354.812 178.824C354.812 183.207 357.422 186.761 360.641 186.761Z" stroke="#231F20" stroke-width="0.99" stroke-linecap="round" stroke-linejoin="round"/>
<path d="M399.534 182.825C399.376 184.67 399.126 186.487 398.783 188.264L400.643 189.335C400.094 192.045 399.344 194.669 398.416 197.183L396.359 196.804C395.714 198.491 394.98 200.129 394.169 201.705L395.645 203.384C394.395 205.747 392.971 207.98 391.398 210.058L389.547 208.97C388.482 210.339 387.345 211.639 386.143 212.857L387.095 214.976C385.279 216.773 383.323 218.398 381.258 219.828L379.79 218.142C378.411 219.071 376.979 219.906 375.498 220.647L375.833 222.994C373.635 224.058 371.34 224.913 368.968 225.545L368.029 223.418C366.476 223.809 364.887 224.098 363.273 224.274L362.955 226.621C361.765 226.735 360.559 226.796 359.345 226.796C358.131 226.796 356.925 226.735 355.735 226.621L355.577 225.455L355.416 224.274C353.799 224.098 352.214 223.809 350.657 223.418L349.721 225.545C349.229 225.415 348.745 225.276 348.261 225.125C347.628 224.93 347.002 224.718 346.385 224.49C345.183 224.05 344.006 223.552 342.852 222.994L343.187 220.647C341.706 219.906 340.275 219.071 338.895 218.142L337.431 219.828C335.362 218.398 333.41 216.773 331.591 214.976L332.543 212.857C331.345 211.639 330.207 210.339 329.142 208.97L327.291 210.058C325.714 207.98 324.294 205.747 323.04 203.384L324.516 201.705C323.705 200.129 322.975 198.491 322.326 196.804L320.273 197.183C319.341 194.669 318.595 192.045 318.042 189.335L319.902 188.264C319.563 186.487 319.309 184.67 319.152 182.825L317.099 182.462C317.002 181.101 316.945 179.724 316.945 178.334C316.945 176.945 317.002 175.568 317.099 174.207L319.152 173.844C319.309 171.999 319.563 170.182 319.902 168.405L318.042 167.334C318.595 164.624 319.341 162 320.273 159.486L322.326 159.865C322.975 158.178 323.705 156.54 324.516 154.959L323.04 153.285C324.294 150.922 325.714 148.689 327.291 146.611L329.142 147.699C330.207 146.33 331.345 145.03 332.543 143.812L331.591 141.693C333.41 139.896 335.362 138.271 337.431 136.84L338.895 138.527C340.275 137.598 341.706 136.763 343.187 136.022L342.852 133.675C344.006 133.116 345.183 132.615 346.389 132.179C347.018 131.947 347.652 131.731 348.297 131.536C348.769 131.389 349.241 131.25 349.721 131.124L350.657 133.251C352.214 132.86 353.799 132.57 355.416 132.395L355.577 131.201L355.735 130.048C356.925 129.934 358.127 129.869 359.345 129.869C360.563 129.869 361.765 129.934 362.955 130.048L363.273 132.395C364.887 132.57 366.476 132.86 368.029 133.251L368.968 131.124C371.34 131.756 373.635 132.611 375.833 133.675L375.498 136.022C376.979 136.763 378.411 137.598 379.79 138.527L381.258 136.84C383.323 138.271 385.279 139.896 387.095 141.693L386.143 143.812C387.345 145.03 388.482 146.33 389.547 147.699L391.398 146.611C392.971 148.689 394.395 150.922 395.645 153.285L394.169 154.959C394.98 156.54 395.714 158.178 396.359 159.865L398.416 159.486C399.344 162 400.094 164.624 400.643 167.334L398.783 168.405C399.126 170.182 399.376 171.999 399.534 173.844L401.587 174.207C401.687 175.568 401.74 176.945 401.74 178.334C401.74 179.724 401.687 181.101 401.587 182.462L399.534 182.825Z" stroke="#231F20" stroke-width="0.99" stroke-linecap="round" stroke-linejoin="round"/>
<path d="M355.579 225.455C354.502 225.753 353.405 226.005 352.288 226.205C351.086 226.421 349.888 226.576 348.698 226.673L348.367 225.549H349.722L350.658 223.418C352.215 223.809 353.8 224.098 355.418 224.274L355.579 225.455Z" fill="#7099ED" stroke="#231F20" stroke-width="0.99" stroke-linecap="round" stroke-linejoin="round"/>
<path d="M348.141 226.673V225.549" stroke="#231F20" stroke-width="0.99" stroke-linecap="round" stroke-linejoin="round"/>
<path d="M355.582 131.201L355.421 132.394C353.803 132.57 352.218 132.859 350.661 133.25L349.697 131.054L348.023 131.038L348.737 129.986C351.065 130.178 353.352 130.585 355.582 131.201Z" stroke="#231F20" stroke-width="0.99" stroke-linecap="round" stroke-linejoin="round"/>
<path d="M348.039 130.17V131.058" stroke="#231F20" stroke-width="0.99" stroke-linecap="round" stroke-linejoin="round"/>
<path d="M317.102 174.207H311.516V182.287L317.102 182.462" stroke="#231F20" stroke-width="0.99" stroke-linecap="round" stroke-linejoin="round"/>
<path d="M303.625 174.793H309.215L310.195 166.921L304.609 166.746" stroke="#231F20" stroke-width="0.99" stroke-linecap="round" stroke-linejoin="round"/>
<path d="M304.717 189.941H310.307L309.118 182.074L303.531 181.898" stroke="#231F20" stroke-width="0.99" stroke-linecap="round" stroke-linejoin="round"/>
<path d="M309.679 203.912H315.265L312.071 196.896L306.484 196.721" stroke="#231F20" stroke-width="0.99" stroke-linecap="round" stroke-linejoin="round"/>
<path d="M318.412 215.463H324.003L319.106 209.673L313.516 209.498" stroke="#231F20" stroke-width="0.99" stroke-linecap="round" stroke-linejoin="round"/>
<path d="M329.703 223.202H335.293L329.106 219.759L323.516 219.584" stroke="#231F20" stroke-width="0.99" stroke-linecap="round" stroke-linejoin="round"/>
<path d="M342.553 226.673H348.139L341.395 225.507L335.805 225.332" stroke="#231F20" stroke-width="0.99" stroke-linecap="round" stroke-linejoin="round"/>
<path d="M306.461 160.084H312.047L315.306 152.88L309.716 152.705" stroke="#231F20" stroke-width="0.99" stroke-linecap="round" stroke-linejoin="round"/>
<path d="M313.359 147.147H318.946L323.919 141.443L318.329 141.268" stroke="#231F20" stroke-width="0.99" stroke-linecap="round" stroke-linejoin="round"/>
<path d="M323.438 137.195H329.028L335.356 133.65L329.766 133.475" stroke="#231F20" stroke-width="0.99" stroke-linecap="round" stroke-linejoin="round"/>
<path d="M335.766 131.31H341.352L348.039 130.169L342.449 129.994" stroke="#231F20" stroke-width="0.99" stroke-linecap="round" stroke-linejoin="round"/>
<path d="M318.11 189.258H312.523L314.621 197.04L320.211 197.215" stroke="#231F20" stroke-width="0.99" stroke-linecap="round" stroke-linejoin="round"/>
<path d="M323 203.498H317.414L321.601 209.956L327.191 210.131" stroke="#231F20" stroke-width="0.99" stroke-linecap="round" stroke-linejoin="round"/>
<path d="M331.672 215.039H326.086L331.733 219.631L337.323 219.806" stroke="#231F20" stroke-width="0.99" stroke-linecap="round" stroke-linejoin="round"/>
<path d="M342.907 223.078H337.32L343.963 225.372L349.554 225.547" stroke="#231F20" stroke-width="0.99" stroke-linecap="round" stroke-linejoin="round"/>
<path d="M320.212 159.436H314.621L312.633 167.095L318.219 167.271" stroke="#231F20" stroke-width="0.99" stroke-linecap="round" stroke-linejoin="round"/>
<path d="M327.155 146.545H321.565L317.398 152.995L322.989 153.17" stroke="#231F20" stroke-width="0.99" stroke-linecap="round" stroke-linejoin="round"/>
<path d="M337.373 136.832H331.782L326.047 141.518L331.633 141.693" stroke="#231F20" stroke-width="0.99" stroke-linecap="round" stroke-linejoin="round"/>
<path d="M349.67 131.059H344.079L337.227 133.458L342.813 133.634" stroke="#231F20" stroke-width="0.99" stroke-linecap="round" stroke-linejoin="round"/>
<path d="M526.015 182.462C526.116 181.101 526.168 179.724 526.168 178.334C526.168 176.945 526.116 175.568 526.015 174.207L523.962 173.844C523.804 171.999 523.554 170.182 523.211 168.405L525.071 167.334C524.522 164.624 523.772 162 522.844 159.486L520.787 159.865C520.142 158.178 519.408 156.54 518.597 154.959L520.073 153.285C518.823 150.922 517.399 148.689 515.826 146.611L513.975 147.699C512.91 146.33 511.773 145.03 510.571 143.812L511.523 141.693C509.708 139.896 507.751 138.271 505.686 136.84L504.218 138.527C502.839 137.598 501.407 136.763 499.927 136.022L500.261 133.675C498.063 132.611 495.768 131.756 493.396 131.124L492.457 133.251C490.904 132.86 489.315 132.57 487.701 132.395L487.383 130.048C486.193 129.934 484.987 129.869 483.773 129.869C482.559 129.869 481.353 129.934 480.163 130.048L480.005 131.201C477.775 130.586 475.488 130.179 473.161 129.987L472.447 131.038L472.463 130.171L467.074 130.004V129.995C467.074 129.995 467.042 129.995 467.026 130H466.873L466.643 130.04C465.594 130.138 464.541 130.273 463.481 130.464C462.279 130.68 461.097 130.957 459.939 131.283V133.658C459.806 133.699 459.669 133.744 459.532 133.789L459.774 133.654L454.184 133.479H454.175L454.139 133.426C451.884 134.469 449.735 135.724 447.706 137.166L448.355 139.428C447.516 140.043 446.702 140.691 445.911 141.371L442.797 141.273L442.781 141.261L442.769 141.273H442.749L442.628 141.416C440.841 143.156 439.183 145.055 437.679 147.096L438.909 149.019C438.042 150.225 437.227 151.484 436.473 152.784L434.133 152.71L434.125 152.731L434.101 152.723C432.827 155.053 431.729 157.514 430.814 160.073L432.5 161.462C431.915 163.165 431.415 164.913 431.007 166.698L428.926 166.69C428.349 169.338 427.97 172.064 427.797 174.839L429.777 175.568C429.685 177.381 429.68 179.219 429.781 181.072L427.801 181.798C427.89 183.159 428.023 184.528 428.212 185.901C428.402 187.274 428.644 188.622 428.93 189.951H431.007C431.411 191.743 431.907 193.487 432.488 195.178L430.798 196.572C431.713 199.151 432.81 201.608 434.073 203.926L434.097 203.918H436.473C437.223 205.205 438.026 206.452 438.877 207.638L437.651 209.553C439.207 211.667 440.918 213.619 442.757 215.387L442.825 215.469H446.101C446.827 216.08 447.565 216.667 448.323 217.221L447.674 219.478C449.714 220.933 451.864 222.192 454.103 223.235L454.123 223.206L459.899 223.194L459.891 225.398C462.21 226.054 464.594 226.49 467.022 226.69V226.682H472.548V225.512C473.032 225.663 473.641 225.423 474.133 225.553L475.069 223.426C476.625 223.817 478.211 224.107 479.828 224.282L479.989 225.463L480.147 226.629C481.337 226.743 482.538 226.804 483.757 226.804C484.975 226.804 486.177 226.743 487.366 226.629L487.685 224.282C489.298 224.107 490.888 223.817 492.44 223.426L493.38 225.553C495.752 224.922 498.047 224.066 500.245 223.002L499.91 220.656C501.391 219.914 502.823 219.079 504.202 218.15L505.67 219.837C507.735 218.406 509.691 216.781 511.506 214.984L510.555 212.865C511.757 211.647 512.894 210.347 513.959 208.978L515.81 210.066C517.383 207.988 518.807 205.755 520.057 203.392L518.581 201.714C519.392 200.137 520.126 198.499 520.771 196.812L522.828 197.191C523.756 194.677 524.506 192.053 525.055 189.344L523.195 188.272C523.538 186.496 523.788 184.678 523.946 182.833L525.999 182.47L526.015 182.462Z" fill="#7099ED" stroke="#231F20" stroke-width="0.99" stroke-linecap="round" stroke-linejoin="round"/>
<path d="M487.12 212.832C503.862 212.832 517.435 197.388 517.435 178.338C517.435 159.287 503.862 143.844 487.12 143.844C470.377 143.844 456.805 159.287 456.805 178.338C456.805 197.388 470.377 212.832 487.12 212.832Z" stroke="#231F20" stroke-width="0.99" stroke-linecap="round" stroke-linejoin="round"/>
<path d="M487.744 205.898C501.181 205.898 512.073 193.506 512.073 178.221C512.073 162.935 501.181 150.543 487.744 150.543C474.307 150.543 463.414 162.935 463.414 178.221C463.414 193.506 474.307 205.898 487.744 205.898Z" fill="#FF8B63" stroke="#231F20" stroke-width="0.99" stroke-linecap="round" stroke-linejoin="round"/>
<path d="M486.403 204.611C498.521 204.611 508.345 192.812 508.345 178.258C508.345 163.703 498.521 151.904 486.403 151.904C474.285 151.904 464.461 163.703 464.461 178.258C464.461 192.812 474.285 204.611 486.403 204.611Z" stroke="#231F20" stroke-width="0.99" stroke-linecap="round" stroke-linejoin="round"/>
<path d="M481.227 200.74C490.474 200.74 497.97 190.963 497.97 178.901C497.97 166.84 490.474 157.062 481.227 157.062C471.98 157.062 464.484 166.84 464.484 178.901C464.484 190.963 471.98 200.74 481.227 200.74Z" stroke="#231F20" stroke-width="0.99" stroke-linecap="round" stroke-linejoin="round"/>
<path d="M484.132 169.473H477.082C473.185 169.473 470.031 173.657 470.031 178.823C470.031 183.99 473.189 188.174 477.082 188.174H484.132C488.028 188.174 491.183 183.99 491.183 178.823C491.183 173.657 488.024 169.473 484.132 169.473Z" fill="#7099ED" stroke="#231F20" stroke-width="0.99" stroke-linecap="round" stroke-linejoin="round"/>
<path d="M485.07 186.761C488.289 186.761 490.899 183.207 490.899 178.824C490.899 174.44 488.289 170.887 485.07 170.887C481.852 170.887 479.242 174.44 479.242 178.824C479.242 183.207 481.852 186.761 485.07 186.761Z" stroke="#231F20" stroke-width="0.99" stroke-linecap="round" stroke-linejoin="round"/>
<path d="M523.963 182.825C523.806 184.67 523.556 186.487 523.213 188.264L525.072 189.335C524.524 192.045 523.774 194.669 522.846 197.183L520.789 196.804C520.144 198.491 519.41 200.129 518.599 201.705L520.075 203.384C518.825 205.747 517.401 207.98 515.828 210.058L513.977 208.97C512.912 210.339 511.774 211.639 510.572 212.857L511.524 214.976C509.709 216.773 507.753 218.398 505.688 219.828L504.22 218.142C502.84 219.071 501.408 219.906 499.928 220.647L500.263 222.994C498.065 224.058 495.77 224.913 493.398 225.545L492.458 223.418C490.905 223.809 489.316 224.098 487.703 224.274L487.384 226.621C486.194 226.735 484.988 226.796 483.774 226.796C482.56 226.796 481.354 226.735 480.164 226.621L480.007 225.455L479.846 224.274C478.228 224.098 476.643 223.809 475.086 223.418L474.151 225.545C473.658 225.415 473.174 225.276 472.69 225.125C472.057 224.93 471.432 224.718 470.815 224.49C469.613 224.05 468.435 223.552 467.282 222.994L467.616 220.647C466.136 219.906 464.704 219.071 463.325 218.142L461.861 219.828C459.792 218.398 457.839 216.773 456.02 214.976L456.972 212.857C455.774 211.639 454.637 210.339 453.572 208.97L451.721 210.058C450.144 207.98 448.724 205.747 447.469 203.384L448.946 201.705C448.135 200.129 447.405 198.491 446.756 196.804L444.703 197.183C443.771 194.669 443.025 192.045 442.472 189.335L444.331 188.264C443.993 186.487 443.739 184.67 443.581 182.825L441.528 182.462C441.431 181.101 441.375 179.724 441.375 178.334C441.375 176.945 441.431 175.568 441.528 174.207L443.581 173.844C443.739 171.999 443.993 170.182 444.331 168.405L442.472 167.334C443.025 164.624 443.771 162 444.703 159.486L446.756 159.865C447.405 158.178 448.135 156.54 448.946 154.959L447.469 153.285C448.724 150.922 450.144 148.689 451.721 146.611L453.572 147.699C454.637 146.33 455.774 145.03 456.972 143.812L456.02 141.693C457.839 139.896 459.792 138.271 461.861 136.84L463.325 138.527C464.704 137.598 466.136 136.763 467.616 136.022L467.282 133.675C468.435 133.116 469.613 132.615 470.819 132.179C471.448 131.947 472.081 131.731 472.727 131.536C473.199 131.389 473.671 131.25 474.151 131.124L475.086 133.251C476.643 132.86 478.228 132.57 479.846 132.395L480.007 131.201L480.164 130.048C481.354 129.934 482.556 129.869 483.774 129.869C484.992 129.869 486.194 129.934 487.384 130.048L487.703 132.395C489.316 132.57 490.905 132.86 492.458 133.251L493.398 131.124C495.77 131.756 498.065 132.611 500.263 133.675L499.928 136.022C501.408 136.763 502.84 137.598 504.22 138.527L505.688 136.84C507.753 138.271 509.709 139.896 511.524 141.693L510.572 143.812C511.774 145.03 512.912 146.33 513.977 147.699L515.828 146.611C517.401 148.689 518.825 150.922 520.075 153.285L518.599 154.959C519.41 156.54 520.144 158.178 520.789 159.865L522.846 159.486C523.774 162 524.524 164.624 525.072 167.334L523.213 168.405C523.556 170.182 523.806 171.999 523.963 173.844L526.016 174.207C526.117 175.568 526.17 176.945 526.17 178.334C526.17 179.724 526.117 181.101 526.016 182.462L523.963 182.825Z" stroke="#231F20" stroke-width="0.99" stroke-linecap="round" stroke-linejoin="round"/>
<path d="M480.001 225.455C478.924 225.753 477.827 226.005 476.71 226.205C475.508 226.421 474.31 226.576 473.12 226.673L472.789 225.549H474.144L475.08 223.418C476.637 223.809 478.222 224.098 479.839 224.274L480.001 225.455Z" fill="#7099ED" stroke="#231F20" stroke-width="0.99" stroke-linecap="round" stroke-linejoin="round"/>
<path d="M472.562 226.673V225.549" stroke="#231F20" stroke-width="0.99" stroke-linecap="round" stroke-linejoin="round"/>
<path d="M480.004 131.201L479.843 132.394C478.225 132.57 476.64 132.859 475.083 133.25L474.119 131.054L472.445 131.038L473.159 129.986C475.487 130.178 477.773 130.585 480.004 131.201Z" stroke="#231F20" stroke-width="0.99" stroke-linecap="round" stroke-linejoin="round"/>
<path d="M472.461 130.17V131.058" stroke="#231F20" stroke-width="0.99" stroke-linecap="round" stroke-linejoin="round"/>
<path d="M441.528 174.207H435.938V182.287L441.528 182.462" stroke="#231F20" stroke-width="0.99" stroke-linecap="round" stroke-linejoin="round"/>
<path d="M428.047 174.793H433.633L434.617 166.921L429.027 166.746" stroke="#231F20" stroke-width="0.99" stroke-linecap="round" stroke-linejoin="round"/>
<path d="M429.139 189.941H434.729L433.543 182.074L427.953 181.898" stroke="#231F20" stroke-width="0.99" stroke-linecap="round" stroke-linejoin="round"/>
<path d="M434.101 203.912H439.691L436.493 196.896L430.906 196.721" stroke="#231F20" stroke-width="0.99" stroke-linecap="round" stroke-linejoin="round"/>
<path d="M442.842 215.463H448.428L443.532 209.673L437.945 209.498" stroke="#231F20" stroke-width="0.99" stroke-linecap="round" stroke-linejoin="round"/>
<path d="M454.133 223.202H459.719L453.532 219.759L447.945 219.584" stroke="#231F20" stroke-width="0.99" stroke-linecap="round" stroke-linejoin="round"/>
<path d="M466.97 226.673H472.561L465.813 225.507L460.227 225.332" stroke="#231F20" stroke-width="0.99" stroke-linecap="round" stroke-linejoin="round"/>
<path d="M430.883 160.084H436.473L439.728 152.88L434.138 152.705" stroke="#231F20" stroke-width="0.99" stroke-linecap="round" stroke-linejoin="round"/>
<path d="M437.781 147.147H443.372L448.341 141.443L442.754 141.268" stroke="#231F20" stroke-width="0.99" stroke-linecap="round" stroke-linejoin="round"/>
<path d="M447.859 137.195H453.446L459.774 133.65L454.188 133.475" stroke="#231F20" stroke-width="0.99" stroke-linecap="round" stroke-linejoin="round"/>
<path d="M460.188 131.31H465.774L472.461 130.169L466.875 129.994" stroke="#231F20" stroke-width="0.99" stroke-linecap="round" stroke-linejoin="round"/>
<path d="M442.536 189.258H436.945L439.047 197.04L444.633 197.215" stroke="#231F20" stroke-width="0.99" stroke-linecap="round" stroke-linejoin="round"/>
<path d="M447.426 203.498H441.836L446.027 209.956L451.613 210.131" stroke="#231F20" stroke-width="0.99" stroke-linecap="round" stroke-linejoin="round"/>
<path d="M456.098 215.039H450.508L456.159 219.631L461.745 219.806" stroke="#231F20" stroke-width="0.99" stroke-linecap="round" stroke-linejoin="round"/>
<path d="M467.333 223.078H461.742L468.385 225.372L473.976 225.547" stroke="#231F20" stroke-width="0.99" stroke-linecap="round" stroke-linejoin="round"/>
<path d="M444.633 159.436H439.047L437.055 167.095L442.645 167.271" stroke="#231F20" stroke-width="0.99" stroke-linecap="round" stroke-linejoin="round"/>
<path d="M451.577 146.545H445.991L441.82 152.995L447.411 153.17" stroke="#231F20" stroke-width="0.99" stroke-linecap="round" stroke-linejoin="round"/>
<path d="M461.795 136.832H456.204L450.469 141.518L456.059 141.693" stroke="#231F20" stroke-width="0.99" stroke-linecap="round" stroke-linejoin="round"/>
<path d="M474.092 131.059H468.501L461.648 133.458L467.239 133.634" stroke="#231F20" stroke-width="0.99" stroke-linecap="round" stroke-linejoin="round"/>
<path d="M435.928 162.865H408.484V185.592H435.928V162.865Z" fill="white" stroke="#231F20" stroke-width="0.99" stroke-linecap="round" stroke-linejoin="round"/>
<path d="M365.821 121.439H345.594V125.094H365.821V121.439Z" fill="white" stroke="#231F20" stroke-width="0.99" stroke-linecap="round" stroke-linejoin="round"/>
<path d="M491.607 123.519C484.992 123.107 471.872 122.679 460.183 125.311C456.343 126.175 453.859 127.1 452.043 127.89C445.691 130.657 441.496 134.414 438.721 136.915C435.515 139.808 433.127 142.595 431.461 144.759L448.163 144.437L460.945 133.477L469.093 128.722L483.428 125.067L490.821 124.236L491.607 123.519Z" fill="white" stroke="#231F20" stroke-width="0.99" stroke-linecap="round" stroke-linejoin="round"/>
<path d="M448.16 144.436C450.899 140.696 458.341 131.581 471.615 126.598C484.118 121.904 494.984 123.432 499.538 124.341C499.643 125.2 499.752 126.06 499.857 126.92C495.351 125.914 485.377 124.337 473.793 128.207C458.95 133.17 451.036 143.886 448.568 147.549L448.156 144.432L448.16 144.436Z" fill="white" stroke="#231F20" stroke-width="0.99" stroke-linecap="round" stroke-linejoin="round"/>
<path d="M432.26 147.554H448.575L448.163 144.438L431.461 144.759L432.26 147.554Z" fill="white" stroke="#231F20" stroke-width="0.99" stroke-linecap="round" stroke-linejoin="round"/>
<path d="M365.824 125.094C369.721 125.253 377.481 126.109 385.608 131.006C395.906 137.211 400.576 146.155 402.202 149.704C403.158 149.166 404.118 148.628 405.074 148.09C403.283 144.244 398.39 135.089 387.839 128.427C378.768 122.698 370.035 121.663 365.82 121.443V125.098L365.824 125.094Z" fill="white" stroke="#231F20" stroke-width="0.99" stroke-linecap="round" stroke-linejoin="round"/>
<path d="M248.383 144.66V154.443" stroke="#231F20" stroke-width="0.99" stroke-linecap="round" stroke-linejoin="round"/>
</g>
<path d="M55.2148 50.7988H52.5586V41.2773C52.5586 41.069 52.5618 40.8411 52.5684 40.5938C52.5749 40.3398 52.5846 40.112 52.5977 39.9102H52.4805C52.3828 40.1055 52.2852 40.2975 52.1875 40.4863C52.0964 40.6751 51.9661 40.8802 51.7969 41.1016L44.7949 50.7988H41.9238V36.5801H44.5898V46.0918C44.5898 46.2936 44.5833 46.5182 44.5703 46.7656C44.5638 47.013 44.5573 47.2409 44.5508 47.4492H44.6875C44.7591 47.2865 44.847 47.1009 44.9512 46.8926C45.0618 46.6842 45.1888 46.4792 45.332 46.2773L52.3438 36.5801H55.2148V50.7988ZM57.8027 43.9629V43.416C57.8027 41.0267 58.4831 39.2428 59.8438 38.0645C61.2044 36.8796 62.959 36.2871 65.1074 36.2871C67.0931 36.2871 68.6751 36.707 69.8535 37.5469C71.0319 38.3802 71.6829 39.6204 71.8066 41.2676L71.8262 41.4727H69.082L69.0723 41.2578C68.9811 40.2747 68.5938 39.5521 67.9102 39.0898C67.2331 38.6211 66.2891 38.3867 65.0781 38.3867C63.737 38.3867 62.653 38.7839 61.8262 39.5781C61.0059 40.3724 60.5957 41.5898 60.5957 43.2305V44.1484C60.5957 45.8607 61.0059 47.0977 61.8262 47.8594C62.653 48.6211 63.737 49.002 65.0781 49.002C66.4323 49.002 67.4154 48.7383 68.0273 48.2109C68.6393 47.6771 68.9876 46.9805 69.0723 46.1211L69.082 45.916H71.8262L71.8164 46.1309C71.7057 47.6543 71.0807 48.862 69.9414 49.7539C68.8086 50.6458 67.2005 51.0918 65.1172 51.0918C62.9557 51.0918 61.1947 50.5124 59.834 49.3535C58.4798 48.1882 57.8027 46.3913 57.8027 43.9629ZM73.8379 50.7988V36.5801H86.8945V50.7988H84.1797V38.6699H76.5527V50.7988H73.8379ZM89.4824 43.9434V43.4062C89.4824 41.0365 90.1725 39.2591 91.5527 38.0742C92.9329 36.8828 94.6973 36.2871 96.8457 36.2871C98.9876 36.2871 100.752 36.8828 102.139 38.0742C103.532 39.2591 104.229 41.0365 104.229 43.4062V43.9434C104.229 46.3327 103.532 48.123 102.139 49.3145C100.752 50.4993 98.9876 51.0918 96.8457 51.0918C94.6973 51.0918 92.9329 50.4993 91.5527 49.3145C90.1725 48.123 89.4824 46.3327 89.4824 43.9434ZM92.2656 44.1094C92.2656 45.7891 92.6823 47.026 93.5156 47.8203C94.3555 48.6081 95.4655 49.002 96.8457 49.002C98.2259 49.002 99.3392 48.6081 100.186 47.8203C101.032 47.026 101.455 45.7891 101.455 44.1094V43.2598C101.455 41.5801 101.032 40.3496 100.186 39.5684C99.3457 38.7806 98.2324 38.3867 96.8457 38.3867C95.4655 38.3867 94.3555 38.7806 93.5156 39.5684C92.6823 40.3496 92.2656 41.5768 92.2656 43.25V44.1094ZM108.467 36.5801H119.883V50.7988H117.178V38.6699H110.752L110.391 45.3887C110.299 47.2507 109.997 48.6634 109.482 49.627C108.968 50.5905 107.992 51.0723 106.553 51.0723C106.331 51.0723 106.12 51.056 105.918 51.0234C105.716 50.9974 105.518 50.9486 105.322 50.877V48.5723C105.472 48.6243 105.612 48.6602 105.742 48.6797C105.879 48.6992 106.019 48.709 106.162 48.709C106.807 48.709 107.259 48.4355 107.52 47.8887C107.78 47.3418 107.946 46.3913 108.018 45.0371L108.467 36.5801ZM123.193 50.7988V36.5801H125.908V42.4102H133.643V36.5801H136.348V50.7988H133.643V44.5195H125.908V50.7988H123.193ZM152.871 50.7988H150.215V41.2773C150.215 41.069 150.218 40.8411 150.225 40.5938C150.231 40.3398 150.241 40.112 150.254 39.9102H150.137C150.039 40.1055 149.941 40.2975 149.844 40.4863C149.753 40.6751 149.622 40.8802 149.453 41.1016L142.451 50.7988H139.58V36.5801H142.246V46.0918C142.246 46.2936 142.24 46.5182 142.227 46.7656C142.22 47.013 142.214 47.2409 142.207 47.4492H142.344C142.415 47.2865 142.503 47.1009 142.607 46.8926C142.718 46.6842 142.845 46.4792 142.988 46.2773L150 36.5801H152.871V50.7988ZM154.717 38.6895V36.5801H167.793V38.6895H162.617V50.7988H159.902V38.6895H154.717ZM169.639 50.7988V36.5801H180.449V38.6797H172.324V42.4688H179.453V44.5098H172.324V48.709H180.566V50.7988H169.639ZM184.521 36.5801H195.938V50.7988H193.232V38.6699H186.807L186.445 45.3887C186.354 47.2507 186.051 48.6634 185.537 49.627C185.023 50.5905 184.046 51.0723 182.607 51.0723C182.386 51.0723 182.174 51.056 181.973 51.0234C181.771 50.9974 181.572 50.9486 181.377 50.877V48.5723C181.527 48.6243 181.667 48.6602 181.797 48.6797C181.934 48.6992 182.074 48.709 182.217 48.709C182.861 48.709 183.314 48.4355 183.574 47.8887C183.835 47.3418 184.001 46.3913 184.072 45.0371L184.521 36.5801ZM210.537 50.7988H207.822V45.457H203.105L202.617 45.2031C201.38 45.0404 200.433 44.5781 199.775 43.8164C199.118 43.0547 198.789 42.1009 198.789 40.9551C198.789 39.6139 199.268 38.5495 200.225 37.7617C201.188 36.974 202.546 36.5801 204.297 36.5801H210.537V50.7988ZM207.822 43.4551V38.6113H204.521C203.382 38.6113 202.594 38.8262 202.158 39.2559C201.722 39.679 201.504 40.2552 201.504 40.9844C201.504 41.7201 201.722 42.3158 202.158 42.7715C202.594 43.2272 203.382 43.4551 204.521 43.4551H207.822ZM201.016 50.7988H198.125L202.256 44.2656H205.01L201.016 50.7988ZM213.779 50.7988V36.5801H216.992L221.768 46.834C221.865 47.0423 221.963 47.2539 222.061 47.4688C222.158 47.6771 222.233 47.8561 222.285 48.0059H222.344C222.396 47.8561 222.464 47.6771 222.549 47.4688C222.633 47.2539 222.721 47.0423 222.812 46.834L227.646 36.5801H230.928V50.7988H228.252L228.262 41.1504C228.262 40.9486 228.268 40.7337 228.281 40.5059C228.294 40.2715 228.307 40.0566 228.32 39.8613H228.252C228.206 40.0566 228.148 40.2715 228.076 40.5059C228.011 40.7337 227.933 40.9486 227.842 41.1504L223.33 50.7988H221.025L216.533 41.1504C216.436 40.9551 216.351 40.7435 216.279 40.5156C216.208 40.2812 216.149 40.0632 216.104 39.8613H216.035C216.048 40.0632 216.061 40.2812 216.074 40.5156C216.094 40.7435 216.104 40.9583 216.104 41.1602V50.7988H213.779Z" fill="white"/>
</g>
<defs>
<clipPath id="clip0_8903_21458">
<rect x="0.3125" width="535.5" height="227" rx="16" fill="white"/>
</clipPath>
<clipPath id="clip1_8903_21458">
<rect width="364" height="187" fill="white" transform="translate(175.312 40)"/>
</clipPath>
</defs>
</svg>
