<svg width="536" height="227" viewBox="0 0 536 227" fill="none" xmlns="http://www.w3.org/2000/svg">
<g clip-path="url(#clip0_9500_23136)">
<rect width="536" height="227" rx="16" fill="#7099ED"/>
<g clip-path="url(#clip1_9500_23136)">
<path d="M317.048 147.145H317.041V135.332H317.048C317.517 135.332 317.898 134.963 317.898 134.508C317.898 134.053 317.517 133.684 317.048 133.684H317.041V127.465H287.958V133.678H287.952C287.482 133.678 287.102 134.047 287.102 134.501C287.102 134.956 287.482 135.325 287.952 135.325H287.958V147.138H287.952C287.482 147.138 287.102 147.507 287.102 147.962C287.102 148.417 287.482 148.786 287.952 148.786H287.958V154.083H317.041V148.786H317.048C317.517 148.786 317.898 148.417 317.898 147.962C317.898 147.507 317.517 147.138 317.048 147.138V147.145Z" fill="#7099ED" stroke="#231F20" stroke-miterlimit="10"/>
<path d="M315.193 135.332H311.453" stroke="#231F20" stroke-miterlimit="10"/>
<path d="M316.872 148.793H310.508" stroke="#231F20" stroke-miterlimit="10"/>
<path d="M309.725 148.793H307.93" stroke="#231F20" stroke-miterlimit="10"/>
<path d="M288.142 124.382H316.858C317.436 124.382 317.905 124.836 317.905 125.396V127.472H287.102V125.396C287.102 124.836 287.571 124.382 288.149 124.382H288.142Z" fill="#7099ED" stroke="#231F20" stroke-miterlimit="10"/>
<path d="M303.898 131.379L318.96 142.902C319.552 143.357 319.219 144.279 318.464 144.279H317.015" stroke="#231F20" stroke-miterlimit="10"/>
<path d="M304.245 132.941C304.902 132.941 305.435 132.425 305.435 131.788C305.435 131.151 304.902 130.635 304.245 130.635C303.587 130.635 303.055 131.151 303.055 131.788C303.055 132.425 303.587 132.941 304.245 132.941Z" stroke="#231F20" stroke-miterlimit="10"/>
<path d="M324.454 176.86H324.448V165.047H324.454C324.924 165.047 325.304 164.678 325.304 164.223C325.304 163.769 324.924 163.4 324.454 163.4H324.448V157.187H295.365V163.4H295.358C294.889 163.4 294.508 163.769 294.508 164.223C294.508 164.678 294.889 165.047 295.358 165.047H295.365V176.86H295.358C294.889 176.86 294.508 177.229 294.508 177.684C294.508 178.138 294.889 178.507 295.358 178.507H295.365V183.805H324.448V178.507H324.454C324.924 178.507 325.304 178.138 325.304 177.684C325.304 177.229 324.924 176.86 324.454 176.86Z" fill="#7099ED" stroke="#231F20" stroke-miterlimit="10"/>
<path d="M322.598 165.04H318.852" stroke="#231F20" stroke-miterlimit="10"/>
<path d="M324.279 178.508H317.914" stroke="#231F20" stroke-miterlimit="10"/>
<path d="M317.123 178.508H315.328" stroke="#231F20" stroke-miterlimit="10"/>
<path d="M295.547 154.097H324.263C324.841 154.097 325.31 154.551 325.31 155.111V157.187H294.5V155.111C294.5 154.551 294.969 154.097 295.547 154.097Z" fill="#7099ED" stroke="#231F20" stroke-miterlimit="10"/>
<path d="M311.297 161.087L326.359 172.61C326.95 173.065 326.617 173.987 325.862 173.987H324.414" stroke="#231F20" stroke-miterlimit="10"/>
<path d="M311.643 162.656C312.3 162.656 312.833 162.139 312.833 161.503C312.833 160.866 312.3 160.35 311.643 160.35C310.986 160.35 310.453 160.866 310.453 161.503C310.453 162.139 310.986 162.656 311.643 162.656Z" stroke="#231F20" stroke-miterlimit="10"/>
<path d="M292.29 176.86H292.284V165.047H292.29C292.76 165.047 293.14 164.678 293.14 164.223C293.14 163.769 292.76 163.4 292.29 163.4H292.284V157.187H263.201V163.4H263.194C262.725 163.4 262.344 163.769 262.344 164.223C262.344 164.678 262.725 165.047 263.194 165.047H263.201V176.86H263.194C262.725 176.86 262.344 177.229 262.344 177.684C262.344 178.138 262.725 178.507 263.194 178.507H263.201V183.805H292.284V178.507H292.29C292.76 178.507 293.14 178.138 293.14 177.684C293.14 177.229 292.76 176.86 292.29 176.86Z" fill="#7099ED" stroke="#231F20" stroke-miterlimit="10"/>
<path d="M290.435 165.04H286.695" stroke="#231F20" stroke-miterlimit="10"/>
<path d="M292.121 178.508H285.75" stroke="#231F20" stroke-miterlimit="10"/>
<path d="M284.967 178.508H283.172" stroke="#231F20" stroke-miterlimit="10"/>
<path d="M263.391 154.097H292.1C292.678 154.097 293.147 154.551 293.147 155.111V157.187H262.344V155.111C262.344 154.551 262.813 154.097 263.391 154.097Z" fill="#7099ED" stroke="#231F20" stroke-miterlimit="10"/>
<path d="M279.141 161.087L294.202 172.61C294.794 173.065 294.461 173.987 293.706 173.987H292.258" stroke="#231F20" stroke-miterlimit="10"/>
<path d="M279.487 162.656C280.144 162.656 280.677 162.139 280.677 161.503C280.677 160.866 280.144 160.35 279.487 160.35C278.83 160.35 278.297 160.866 278.297 161.503C278.297 162.139 278.83 162.656 279.487 162.656Z" stroke="#231F20" stroke-miterlimit="10"/>
</g>
<g clip-path="url(#clip2_9500_23136)">
<path d="M444.095 217.662H173.492V227.4H444.095V217.662Z" fill="white" stroke="#231F20" stroke-miterlimit="10"/>
<path d="M414.29 207.552H143.688V217.29H414.29V207.552Z" fill="white" stroke="#231F20" stroke-miterlimit="10"/>
<path d="M449.189 197.936H178.586V207.673H449.189V197.936Z" fill="white" stroke="#231F20" stroke-miterlimit="10"/>
<path d="M455.314 188.38H184.711V198.118H455.314V188.38Z" fill="white" stroke="#231F20" stroke-miterlimit="10"/>
</g>
<g clip-path="url(#clip3_9500_23136)">
<path d="M534.938 85.0925C532.056 85.0925 528.427 84.0108 524.748 81.8779C521.726 80.1258 519.174 77.9282 517.562 75.6924C515.682 73.0872 515.234 70.6305 516.304 68.7718C517.369 66.917 519.713 66.0752 522.902 66.4066C525.64 66.6923 528.81 67.812 531.828 69.5641C538.661 73.5252 542.29 79.1622 540.273 82.6701C539.34 84.2926 537.414 85.0925 534.938 85.0925ZM521.601 69.5755C520.334 69.5755 519.39 69.8688 519.094 70.3906C518.723 71.0343 519.148 72.3673 520.171 73.7918C521.506 75.6429 523.762 77.5663 526.36 79.0746C531.972 82.3273 536.693 82.4187 537.478 81.0552C538.263 79.6878 535.821 75.6277 530.213 72.3712C527.615 70.8629 524.828 69.865 522.564 69.6288C522.227 69.5945 521.904 69.5755 521.601 69.5755Z" fill="#231F20"/>
<path d="M528.971 74.0679L528.968 74.0663C526.28 72.8577 523.126 74.0662 521.923 76.7655L516.837 88.1746C515.634 90.8739 516.837 94.0419 519.524 95.2506L519.528 95.2521C522.215 96.4607 525.369 95.2522 526.573 92.5529L531.659 81.1438C532.862 78.4445 531.659 75.2765 528.971 74.0679Z" fill="#231F20"/>
<path d="M527.388 78.9833L534.821 83.8814C535.522 84.3461 535.871 85.1954 535.693 86.0181L534.309 92.455C534.055 93.6281 532.856 94.3289 531.719 93.9709L531.393 93.868C530.357 93.5443 529.25 94.0928 528.878 95.1173L523.092 111.099L513.688 108.669L527.392 78.9795L527.388 78.9833Z" fill="#231F20"/>
<path d="M516.439 78.9834H527.383L515.56 111.914L501.586 111.103L515.207 79.7947C515.419 79.3033 515.905 78.9834 516.439 78.9834Z" fill="#231F20"/>
<path d="M467.234 163.732L458.781 162.136L461.841 145.8C469.027 107.431 479.232 69.3085 492.166 32.4927L494.794 25.0085C497.18 18.2212 503.596 13.6621 510.759 13.6621H568.227V121.142H559.627V22.3004H510.759C507.232 22.3004 504.073 24.5438 502.902 27.8841L500.274 35.3684C487.483 71.7689 477.396 109.461 470.29 147.4L467.23 163.736L467.234 163.732Z" fill="#231F20"/>
<path d="M592.17 80.061C592.284 75.0715 591.806 70.5695 591.081 66.6883C591.294 66.6655 591.741 66.5893 592.2 66.2618C592.477 66.0637 592.67 65.839 592.799 65.6485C592.913 65.4771 592.966 65.2753 592.955 65.0696C592.905 64.0451 592.856 63.0243 592.807 61.9959C592.788 61.6417 592.587 61.318 592.272 61.1504C591.423 60.6933 590.456 60.2515 589.375 59.8782L589.436 59.7792C589.549 58.0119 589.637 56.1913 589.694 54.3174C589.701 53.9975 589.709 53.6775 589.72 53.3576C589.788 50.2953 589.762 47.3588 589.663 44.5631L589.671 44.4565L591.794 44.5555L591.847 43.4052L591.942 41.4437C592.246 34.9802 587.278 29.4918 580.843 29.187C576.82 28.9966 573.175 30.8781 570.934 33.8909C569.592 35.7001 568.75 37.9168 568.636 40.3354C568.587 41.4209 567.669 42.255 566.589 42.2055L566.027 42.1788L565.971 43.3291L568.488 43.4509L570.912 43.5652C569.615 49.6478 571.662 54.824 575.075 56.2104C575.477 56.3742 576.198 56.6065 577.233 56.5951L577.119 59.6078C575.879 59.943 574.863 60.3277 574.139 60.6324C573.558 61.7217 572.974 62.8072 572.394 63.8965C569.16 65.5838 565.606 68.2499 562.061 71.754C561.632 71.6207 561.318 71.6702 561.139 71.7236C560.635 71.8683 560.214 72.3063 559.96 72.9271C558.841 72.969 557.692 72.9843 556.517 72.9652C550.503 72.8776 545.099 71.9711 540.439 70.7447C540.2 70.4171 539.972 70.3105 539.786 70.2953C539.419 70.2648 538.998 70.5771 538.611 71.0989L538.535 71.038C538.103 70.7866 537.496 70.4933 536.73 70.2953C536.127 70.1391 535.585 70.0858 535.156 70.0744C535.073 69.9829 534.258 69.0879 533.458 69.3012C533.382 69.3202 533.215 69.3697 533.082 69.5145C532.809 69.823 532.851 70.4057 533.188 70.9885C532.76 70.9885 530.568 70.9885 530.109 72.0587C530.083 72.1159 529.874 72.6339 530.132 73.0643C530.246 73.2585 530.416 73.3651 530.526 73.4223C529.707 73.5327 529.108 73.8222 528.881 74.2945C528.854 74.3516 528.695 74.6754 528.808 75.0144C528.964 75.4828 529.59 75.799 530.45 75.8447V75.8675C529.798 75.8523 529.294 76.0808 529.157 76.3703C529.051 76.5988 529.07 76.8197 529.07 76.8197C529.07 76.8197 529.085 76.9797 529.161 77.1358C529.256 77.3263 529.571 77.4939 530.011 77.5815C529.392 77.6348 528.915 77.9128 528.79 78.3128C528.733 78.4918 528.748 78.6898 528.808 78.8231C529.184 79.6496 531.721 79.2002 531.846 79.1812C532.908 79.3449 533.833 79.3526 534.55 79.3183C534.997 79.2954 535.824 79.2307 536.836 79.0021C537.587 78.8346 538.228 78.6251 538.74 78.4232C538.998 78.5946 539.237 78.6898 539.407 78.7393C539.43 78.9069 539.453 79.0707 539.476 79.2231C540.643 79.7829 542.414 80.5904 544.621 81.4322C549.543 83.3061 556.35 85.896 563.316 86.1817L563.422 87.3472L552.076 102.617C551.693 103.199 551.31 103.782 550.924 104.365C551.853 104.692 552.778 105.02 553.703 105.344C550.772 110.291 547.731 115.304 544.58 120.373C541.804 124.829 539.032 129.19 536.267 133.453C535.873 133.578 535.646 133.776 535.513 133.929C535.081 134.431 534.997 135.235 535.259 136.122C534.641 137.117 533.988 138.114 533.298 139.128C529.95 144.014 526.359 148.113 522.844 151.537C522.726 151.441 522.267 151.099 521.763 151.221C521.763 151.221 521.331 151.327 521.001 151.898C520.785 152.279 520.845 152.942 521.054 153.711H521.05C520.553 154.035 520.06 154.355 519.567 154.675C519.192 154.386 517.326 152.999 515.146 153.521C514.619 153.647 514.175 153.86 513.819 154.085C513.064 155.113 512.309 156.141 511.555 157.17C512.469 157.84 513.379 158.518 514.289 159.188C521.277 164.395 528.266 169.598 535.255 174.801C535.646 174.107 536.036 173.414 536.427 172.721C536.65 172.824 536.878 172.923 537.121 173.014C541.629 167.69 546.237 161.283 550.362 153.692C551.383 151.822 552.319 149.975 553.18 148.158C553.745 147.914 554.173 147.499 554.363 146.981C554.56 146.444 554.447 145.93 554.359 145.66C555.978 141.367 557.643 137.817 558.974 135.201L565.239 124.498C565.652 124.258 566.111 123.931 566.558 123.489C567.226 122.83 567.631 122.156 567.87 121.676C568.902 121.245 569.983 120.659 571.052 119.874C574.249 117.524 575.697 114.58 576.262 113.236V113.228C577.957 113.818 579.652 114.405 581.347 114.991C585.53 108.33 591.802 96.0845 592.17 80.0572V80.061Z" fill="#231F20" stroke="#231F20" stroke-miterlimit="10" stroke-linecap="round"/>
<path d="M553.66 206.192C553.66 204.345 553.47 202.563 553.125 200.875C551.563 191.628 545.689 184.749 538.674 184.749H530.536C529.338 184.749 528.173 184.943 527.055 185.305C528.026 184.318 529.11 183.393 530.335 182.559C536 178.701 541.912 178.32 544.737 178.339C546.489 175.322 548.241 172.302 549.997 169.285C550.22 168.901 550.338 168.459 550.338 168.013V123.805C550.338 122.411 549.212 121.279 547.824 121.279H538.025C536.637 121.279 535.511 122.411 535.511 123.805V125.857C535.511 126.417 535.325 126.962 534.984 127.404C532.019 131.239 529.057 135.075 526.092 138.906L480.621 179.744H467.675L467.326 174.522L464.827 167.491L456.026 159.657L445.624 157.196H412.971V158.274L419.069 167.796C411.31 172.656 405.914 183.416 405.914 195.92C405.914 212.98 415.955 226.809 428.34 226.809H440.297C447.577 226.809 454.016 221.763 457.983 214.012C459.135 211.966 460.091 209.689 460.808 207.232L469.495 207.091H515.292C515.785 218.095 522.417 226.809 530.528 226.809H538.666C543.622 226.809 548.006 223.374 550.706 218.099C552.545 214.831 553.648 210.698 553.648 206.196L553.66 206.192Z" fill="#231F20"/>
<path d="M593.444 128.216H463.563C461.634 128.216 460.07 129.786 460.07 131.724V146.909C460.07 148.847 461.634 150.417 463.563 150.417H593.444C595.373 150.417 596.937 148.847 596.937 146.909V131.724C596.937 129.786 595.373 128.216 593.444 128.216Z" fill="#231F20" stroke="#231F20" stroke-miterlimit="10"/>
<path d="M447.531 132.725H539.591C540.986 132.725 542.116 133.863 542.116 135.261V162.079H447.531V132.725Z" fill="white" stroke="#231F20" stroke-miterlimit="10"/>
<path d="M473.267 131.681H466.278C465.501 131.681 464.875 131.049 464.875 130.272V115.547C464.875 115.113 465.076 114.698 465.417 114.431L474.219 107.576C474.655 107.237 475.246 107.183 475.732 107.442H538.991L535.013 131.681H473.267Z" fill="white" stroke="#231F20" stroke-miterlimit="10"/>
<path d="M536.006 131.27L541.6 125.652C541.861 125.39 542.009 125.028 542.009 124.655V110.688C542.009 110.162 541.721 109.682 541.258 109.438L537.474 107.443C536.988 107.187 536.393 107.237 535.961 107.576L527.159 114.432C526.818 114.698 526.617 115.11 526.617 115.548V130.273C526.617 131.053 527.247 131.682 528.02 131.682H535.009C535.381 131.682 535.737 131.533 536.003 131.27H536.006Z" fill="white" stroke="#231F20" stroke-miterlimit="10"/>
<path d="M471.336 114.957H526.62" stroke="#231F20" stroke-miterlimit="10"/>
<path d="M471.228 16.3623H468.539V46.8631H471.228V16.3623Z" fill="#7099ED" stroke="#231F20" stroke-miterlimit="10"/>
<path d="M471.488 11.1904H456.172V16.3171H471.488V11.1904Z" fill="#7099ED" stroke="#231F20" stroke-miterlimit="10"/>
<path d="M470.949 41.7373H455.633V46.8639H470.949V41.7373Z" fill="#7099ED" stroke="#231F20" stroke-miterlimit="10"/>
<path d="M470.151 28.5085H466.389L465.312 16.0957H472.57L470.151 28.5085Z" fill="#7099ED" stroke="#231F20" stroke-miterlimit="10"/>
<path d="M468.271 20.9521H465.852C463.922 20.9521 462.359 22.948 462.359 25.4046C462.359 27.8613 463.922 29.8571 465.852 29.8571H468.271C470.201 29.8571 471.764 27.8613 471.764 25.4046C471.764 22.948 470.201 20.9521 468.271 20.9521Z" fill="#7099ED" stroke="#231F20" stroke-miterlimit="10"/>
<path d="M468.935 28.7796C470.048 28.7796 470.949 27.3302 470.949 25.5422C470.949 23.7542 470.048 22.3047 468.935 22.3047C467.823 22.3047 466.922 23.7542 466.922 25.5422C466.922 27.3302 467.823 28.7796 468.935 28.7796Z" fill="#7099ED" stroke="#231F20" stroke-miterlimit="10"/>
<path d="M465.041 122.441H462.891V26.0826C462.891 23.1079 465.302 20.6855 468.264 20.6855V20.956C466.485 20.956 465.041 22.4071 465.041 24.1934V122.441Z" fill="white" stroke="#231F20" stroke-miterlimit="10"/>
<path d="M493.53 15.2852H458.328V17.9856H493.53V15.2852Z" fill="#7099ED" stroke="#231F20" stroke-miterlimit="10"/>
<path d="M500.705 11.1904H479.633V191.948H500.705V11.1904Z" fill="#7099ED" stroke="#231F20" stroke-miterlimit="10"/>
<path d="M497.551 11.1904H486.938V191.948H497.551V11.1904Z" fill="white" stroke="#231F20" stroke-miterlimit="10"/>
<path d="M481.93 11.1904V191.948" stroke="#231F20" stroke-miterlimit="10"/>
<path d="M484.728 11.1904V32.1349C484.728 33.3842 483.72 34.3935 482.48 34.3935H481.93" stroke="#231F20" stroke-miterlimit="10"/>
<path d="M484.731 12.7979C484.527 12.9197 483.078 13.83 482.832 15.6087C482.623 17.1208 483.366 18.6596 484.731 19.528" stroke="#231F20" stroke-miterlimit="10"/>
<path d="M462.955 11.1904H441.883V191.948H462.955V11.1904Z" fill="#7099ED" stroke="#231F20" stroke-miterlimit="10"/>
<path d="M459.665 11.1904H449.188V191.948H459.665V11.1904Z" fill="white" stroke="#231F20" stroke-miterlimit="10"/>
<path d="M446.977 11.1904V191.948" stroke="#231F20" stroke-miterlimit="10"/>
<path d="M444.18 11.1904V32.1349C444.18 33.3842 445.188 34.3935 446.428 34.3935H446.978" stroke="#231F20" stroke-miterlimit="10"/>
<path d="M446.938 19.5273C446.733 19.4055 445.284 18.4952 445.038 16.7165C444.829 15.2044 445.572 13.6656 446.938 12.7972" stroke="#231F20" stroke-miterlimit="10"/>
<path d="M504.814 13.666H502.125V46.8672H504.814V13.666Z" fill="#7099ED" stroke="#231F20" stroke-miterlimit="10"/>
<path d="M504.808 11.1904H489.492V16.3171H504.808V11.1904Z" fill="#7099ED" stroke="#231F20" stroke-miterlimit="10"/>
<path d="M504.808 41.7373H489.492V46.8639H504.808V41.7373Z" fill="#7099ED" stroke="#231F20" stroke-miterlimit="10"/>
<path d="M529.39 163.874L520.938 162.278L523.998 145.942C531.184 107.572 541.388 69.4501 554.323 32.6343L556.951 25.1501C559.336 18.3628 565.752 13.8037 572.915 13.8037H630.384V121.28H621.783V22.442H572.915C569.388 22.442 566.23 24.6854 565.058 28.0257L562.43 35.51C549.639 71.9105 539.553 109.602 532.446 147.542L529.386 163.877L529.39 163.874Z" fill="#231F20"/>
<path d="M535.583 72.6631L529.133 75.6318L530.476 78.575L536.926 75.6062L535.583 72.6631Z" fill="#231F20"/>
<path d="M519.012 72.1622L517.484 75.0127L524.473 78.792L526.001 75.9415L519.012 72.1622Z" fill="#231F20"/>
<path d="M495.871 83.5898H430.868C428.437 83.5898 426.469 85.5704 426.469 88.008V174.418H500.277V88.008C500.277 85.5666 498.305 83.5898 495.878 83.5898H495.871ZM432.911 111.718H493.819V135.751H432.915V111.718H432.911ZM476.167 109.231V90.0686H483.968V109.231H476.167ZM471.867 109.231H464.268V90.0686H471.867V109.231ZM459.767 109.231H452.365V90.0686H459.767V109.231ZM448.064 109.231H440.465V90.0686H448.064V109.231ZM493.819 109.231H488.067V90.0686H493.819V109.231ZM436.066 90.0686V109.231H432.908V90.0686H436.066ZM432.908 167.943V142.226H493.815V167.943H432.915H432.908Z" fill="#7099ED" stroke="#231F20" stroke-miterlimit="10"/>
<path d="M492.273 83.5898H427.266C424.835 83.5898 422.867 85.5704 422.867 88.008V174.418H496.676V88.008C496.676 85.5666 494.704 83.5898 492.277 83.5898H492.273ZM429.314 111.718H490.222V135.751H429.314V111.718ZM472.57 109.231V90.0686H483.233V109.231H472.57ZM471.333 109.231H460.67V90.0686H471.333V109.231ZM459.434 109.231H448.771V90.0686H459.434V109.231ZM447.534 109.231H436.871V90.0686H447.534V109.231ZM490.225 109.231H484.473V90.0686H490.225V109.231ZM435.631 90.0686V109.231H429.317V90.0686H435.631ZM429.317 167.943V142.226H490.225V167.943H429.314H429.317Z" fill="#231F20"/>
<path d="M351.099 183.297H345.188V189.235H351.099V183.297Z" fill="#7099ED" stroke="#231F20" stroke-miterlimit="10"/>
<path d="M418.546 183.297H350.828V189.235H418.546V183.297Z" fill="#7099ED" stroke="#231F20" stroke-miterlimit="10"/>
<path d="M433.818 129.314H442.198L441.929 184.69C441.929 186.442 363.953 185.456 363.953 185.456L363.999 182.218L430.303 183.414C432.115 183.35 433.556 181.857 433.564 180.032L433.818 129.311V129.314Z" fill="white" stroke="#231F20" stroke-miterlimit="10"/>
<path d="M440.589 129.314H445.158L448.382 135.523H444.889V184.69C444.889 186.442 443.452 187.852 441.707 187.81L368.57 185.456V183.567L437.074 183.414C438.886 183.35 440.327 181.857 440.335 180.032L440.589 129.311V129.314Z" fill="white" stroke="#231F20" stroke-miterlimit="10"/>
<path d="M384.154 183.297H378.242V189.235H384.154V183.297Z" fill="#7099ED" stroke="#231F20" stroke-miterlimit="10"/>
<path d="M451.601 183.297H383.883V189.235H451.601V183.297Z" fill="#7099ED" stroke="#231F20" stroke-miterlimit="10"/>
<path d="M466.329 129.314H474.71L474.441 184.69C474.441 186.442 398.664 185.726 398.664 185.726V183.567L462.81 183.414C464.623 183.35 466.064 181.857 466.071 180.032L466.326 129.311L466.329 129.314Z" fill="white" stroke="#231F20" stroke-miterlimit="10"/>
<path d="M474.715 129.314H479.284L482.508 135.523H479.015V184.938C479.015 186.553 477.692 187.852 476.084 187.814L403.773 185.726V183.567L471.435 183.407C473.119 183.346 474.453 181.959 474.465 180.268L474.719 129.314H474.715Z" fill="white" stroke="#231F20" stroke-miterlimit="10"/>
<path d="M418.818 183.567H412.906V188.964H418.818V183.567Z" fill="#7099ED" stroke="#231F20" stroke-miterlimit="10"/>
<path d="M486.265 183.297H418.547V189.235H486.265V183.297Z" fill="#7099ED" stroke="#231F20" stroke-miterlimit="10"/>
<path d="M486.274 180.329H415.867V183.567H486.274V180.329Z" fill="#7099ED" stroke="#231F20" stroke-miterlimit="10"/>
<path d="M418.818 180.329H345.188V183.567H418.818V180.329Z" fill="#7099ED" stroke="#231F20" stroke-miterlimit="10"/>
<path d="M486.274 188.964H415.867V192.201H486.274V188.964Z" fill="#7099ED" stroke="#231F20" stroke-miterlimit="10"/>
<path d="M418.818 188.964H345.188V192.201H418.818V188.964Z" fill="#7099ED" stroke="#231F20" stroke-miterlimit="10"/>
<path d="M393.381 90.1758H416.133V82.0059H393.381V90.1758Z" fill="#7099ED" stroke="#231F20" stroke-miterlimit="10"/>
<path d="M404.757 98.3496H416.133V90.1798H404.757V98.3496Z" fill="#7099ED" stroke="#231F20" stroke-miterlimit="10"/>
<path d="M393.382 98.3496H404.758V90.1798H393.382V98.3496Z" fill="#7099ED" stroke="#231F20" stroke-miterlimit="10"/>
<path d="M370.631 90.1758H393.383V82.0059H370.631V90.1758Z" fill="#7099ED" stroke="#231F20" stroke-miterlimit="10"/>
<path d="M382.007 98.3496H393.383V90.1798H382.007V98.3496Z" fill="#7099ED" stroke="#231F20" stroke-miterlimit="10"/>
<path d="M370.624 98.3496H382V90.1798H370.624V98.3496Z" fill="#7099ED" stroke="#231F20" stroke-miterlimit="10"/>
<path d="M347.873 90.1758H370.625V82.0059H347.873V90.1758Z" fill="#7099ED" stroke="#231F20" stroke-miterlimit="10"/>
<path d="M359.249 98.3496H370.625V90.1798H359.249V98.3496Z" fill="#7099ED" stroke="#231F20" stroke-miterlimit="10"/>
<path d="M347.874 98.3496H359.25V90.1798H347.874V98.3496Z" fill="#7099ED" stroke="#231F20" stroke-miterlimit="10"/>
<path d="M404.757 82.0781H416.133V73.9083H404.757V82.0781Z" fill="#7099ED" stroke="#231F20" stroke-miterlimit="10"/>
<path d="M393.382 82.0781H404.758V73.9083H393.382V82.0781Z" fill="#7099ED" stroke="#231F20" stroke-miterlimit="10"/>
<path d="M382.007 82.0781H393.383V73.9083H382.007V82.0781Z" fill="#7099ED" stroke="#231F20" stroke-miterlimit="10"/>
<path d="M370.624 82.0781H382V73.9083H370.624V82.0781Z" fill="#7099ED" stroke="#231F20" stroke-miterlimit="10"/>
<path d="M359.249 82.0781H370.625V73.9083H359.249V82.0781Z" fill="#7099ED" stroke="#231F20" stroke-miterlimit="10"/>
<path d="M347.874 82.0781H359.25V73.9083H347.874V82.0781Z" fill="#7099ED" stroke="#231F20" stroke-miterlimit="10"/>
<path d="M393.381 106.519H416.133V98.3487H393.381V106.519Z" fill="#7099ED" stroke="#231F20" stroke-miterlimit="10"/>
<path d="M404.757 114.688H416.133V106.519H404.757V114.688Z" fill="#7099ED" stroke="#231F20" stroke-miterlimit="10"/>
<path d="M393.382 114.688H404.758V106.519H393.382V114.688Z" fill="#7099ED" stroke="#231F20" stroke-miterlimit="10"/>
<path d="M370.631 106.519H393.383V98.3487H370.631V106.519Z" fill="#7099ED" stroke="#231F20" stroke-miterlimit="10"/>
<path d="M382.007 114.688H393.383V106.519H382.007V114.688Z" fill="#7099ED" stroke="#231F20" stroke-miterlimit="10"/>
<path d="M370.624 114.688H382V106.519H370.624V114.688Z" fill="#7099ED" stroke="#231F20" stroke-miterlimit="10"/>
<path d="M347.873 106.519H370.625V98.3487H347.873V106.519Z" fill="#7099ED" stroke="#231F20" stroke-miterlimit="10"/>
<path d="M359.249 114.688H370.625V106.519H359.249V114.688Z" fill="#7099ED" stroke="#231F20" stroke-miterlimit="10"/>
<path d="M347.874 114.688H359.25V106.519H347.874V114.688Z" fill="#7099ED" stroke="#231F20" stroke-miterlimit="10"/>
<path d="M393.381 122.862H416.133V114.692H393.381V122.862Z" fill="#7099ED" stroke="#231F20" stroke-miterlimit="10"/>
<path d="M404.757 131.032H416.133V122.862H404.757V131.032Z" fill="#7099ED" stroke="#231F20" stroke-miterlimit="10"/>
<path d="M393.382 131.032H404.758V122.862H393.382V131.032Z" fill="#7099ED" stroke="#231F20" stroke-miterlimit="10"/>
<path d="M370.631 122.862H393.383V114.692H370.631V122.862Z" fill="#7099ED" stroke="#231F20" stroke-miterlimit="10"/>
<path d="M382.007 131.032H393.383V122.862H382.007V131.032Z" fill="#7099ED" stroke="#231F20" stroke-miterlimit="10"/>
<path d="M370.624 131.032H382V122.862H370.624V131.032Z" fill="#7099ED" stroke="#231F20" stroke-miterlimit="10"/>
<path d="M347.873 122.862H370.625V114.692H347.873V122.862Z" fill="#7099ED" stroke="#231F20" stroke-miterlimit="10"/>
<path d="M359.249 131.032H370.625V122.862H359.249V131.032Z" fill="#7099ED" stroke="#231F20" stroke-miterlimit="10"/>
<path d="M347.874 131.032H359.25V122.862H347.874V131.032Z" fill="#7099ED" stroke="#231F20" stroke-miterlimit="10"/>
<path d="M393.381 139.202H416.133V131.032H393.381V139.202Z" fill="#7099ED" stroke="#231F20" stroke-miterlimit="10"/>
<path d="M404.757 147.376H416.133V139.206H404.757V147.376Z" fill="#7099ED" stroke="#231F20" stroke-miterlimit="10"/>
<path d="M393.382 147.376H404.758V139.206H393.382V147.376Z" fill="#7099ED" stroke="#231F20" stroke-miterlimit="10"/>
<path d="M370.631 139.202H393.383V131.032H370.631V139.202Z" fill="#7099ED" stroke="#231F20" stroke-miterlimit="10"/>
<path d="M382.007 147.376H393.383V139.206H382.007V147.376Z" fill="#7099ED" stroke="#231F20" stroke-miterlimit="10"/>
<path d="M370.624 147.376H382V139.206H370.624V147.376Z" fill="#7099ED" stroke="#231F20" stroke-miterlimit="10"/>
<path d="M347.873 139.202H370.625V131.032H347.873V139.202Z" fill="#7099ED" stroke="#231F20" stroke-miterlimit="10"/>
<path d="M359.249 147.376H370.625V139.206H359.249V147.376Z" fill="#7099ED" stroke="#231F20" stroke-miterlimit="10"/>
<path d="M347.874 147.376H359.25V139.206H347.874V147.376Z" fill="#7099ED" stroke="#231F20" stroke-miterlimit="10"/>
<path d="M393.381 155.542H416.133V147.372H393.381V155.542Z" fill="#7099ED" stroke="#231F20" stroke-miterlimit="10"/>
<path d="M370.631 155.542H393.383V147.372H370.631V155.542Z" fill="#7099ED" stroke="#231F20" stroke-miterlimit="10"/>
<path d="M347.873 155.542H370.625V147.372H347.873V155.542Z" fill="#7099ED" stroke="#231F20" stroke-miterlimit="10"/>
<path d="M404.757 163.716H416.133V155.546H404.757V163.716Z" fill="#7099ED" stroke="#231F20" stroke-miterlimit="10"/>
<path d="M393.382 163.716H404.758V155.546H393.382V163.716Z" fill="#7099ED" stroke="#231F20" stroke-miterlimit="10"/>
<path d="M382.007 163.716H393.383V155.546H382.007V163.716Z" fill="#7099ED" stroke="#231F20" stroke-miterlimit="10"/>
<path d="M370.624 163.716H382V155.546H370.624V163.716Z" fill="#7099ED" stroke="#231F20" stroke-miterlimit="10"/>
<path d="M359.249 163.716H370.625V155.546H359.249V163.716Z" fill="#7099ED" stroke="#231F20" stroke-miterlimit="10"/>
<path d="M347.874 163.716H359.25V155.546H347.874V163.716Z" fill="#7099ED" stroke="#231F20" stroke-miterlimit="10"/>
<path d="M393.381 171.89H416.133V163.72H393.381V171.89Z" fill="#7099ED" stroke="#231F20" stroke-miterlimit="10"/>
<path d="M370.631 171.89H393.383V163.72H370.631V171.89Z" fill="#7099ED" stroke="#231F20" stroke-miterlimit="10"/>
<path d="M347.873 171.89H370.625V163.72H347.873V171.89Z" fill="#7099ED" stroke="#231F20" stroke-miterlimit="10"/>
<path d="M404.757 180.056H416.133V171.886H404.757V180.056Z" fill="#7099ED" stroke="#231F20" stroke-miterlimit="10"/>
<path d="M393.382 180.056H404.758V171.886H393.382V180.056Z" fill="#7099ED" stroke="#231F20" stroke-miterlimit="10"/>
<path d="M382.007 180.056H393.383V171.886H382.007V180.056Z" fill="#7099ED" stroke="#231F20" stroke-miterlimit="10"/>
<path d="M370.624 180.056H382V171.886H370.624V180.056Z" fill="#7099ED" stroke="#231F20" stroke-miterlimit="10"/>
<path d="M359.249 180.056H370.625V171.886H359.249V180.056Z" fill="#7099ED" stroke="#231F20" stroke-miterlimit="10"/>
<path d="M347.874 180.056H359.25V171.886H347.874V180.056Z" fill="#7099ED" stroke="#231F20" stroke-miterlimit="10"/>
<path d="M439.332 171.89H415.594V180.059H439.332V171.89Z" fill="white" stroke="#231F20" stroke-miterlimit="10"/>
<path d="M427.463 163.716H415.594V171.886H427.463V163.716Z" fill="white" stroke="#231F20" stroke-miterlimit="10"/>
<path d="M439.33 163.716H427.461V171.886H439.33V163.716Z" fill="white" stroke="#231F20" stroke-miterlimit="10"/>
<path d="M463.066 171.89H439.328V180.059H463.066V171.89Z" fill="white" stroke="#231F20" stroke-miterlimit="10"/>
<path d="M451.197 163.716H439.328V171.886H451.197V163.716Z" fill="white" stroke="#231F20" stroke-miterlimit="10"/>
<path d="M463.072 163.716H451.203V171.886H463.072V163.716Z" fill="white" stroke="#231F20" stroke-miterlimit="10"/>
<path d="M486.809 171.89H463.07V180.059H486.809V171.89Z" fill="white" stroke="#231F20" stroke-miterlimit="10"/>
<path d="M474.939 163.716H463.07V171.886H474.939V163.716Z" fill="white" stroke="#231F20" stroke-miterlimit="10"/>
<path d="M486.807 163.716H474.938V171.886H486.807V163.716Z" fill="white" stroke="#231F20" stroke-miterlimit="10"/>
<path d="M439.332 155.546H415.594V163.716H439.332V155.546Z" fill="white" stroke="#231F20" stroke-miterlimit="10"/>
<path d="M427.463 147.376H415.594V155.546H427.463V147.376Z" fill="white" stroke="#231F20" stroke-miterlimit="10"/>
<path d="M439.33 147.376H427.461V155.546H439.33V147.376Z" fill="white" stroke="#231F20" stroke-miterlimit="10"/>
<path d="M463.066 155.546H439.328V163.716H463.066V155.546Z" fill="white" stroke="#231F20" stroke-miterlimit="10"/>
<path d="M451.197 147.376H439.328V155.546H451.197V147.376Z" fill="white" stroke="#231F20" stroke-miterlimit="10"/>
<path d="M463.072 147.376H451.203V155.546H463.072V147.376Z" fill="white" stroke="#231F20" stroke-miterlimit="10"/>
<path d="M486.809 155.546H463.07V163.716H486.809V155.546Z" fill="white" stroke="#231F20" stroke-miterlimit="10"/>
<path d="M474.939 147.376H463.07V155.546H474.939V147.376Z" fill="white" stroke="#231F20" stroke-miterlimit="10"/>
<path d="M486.807 147.376H474.938V155.546H486.807V147.376Z" fill="white" stroke="#231F20" stroke-miterlimit="10"/>
<path d="M439.332 139.202H415.594V147.372H439.332V139.202Z" fill="white" stroke="#231F20" stroke-miterlimit="10"/>
<path d="M427.463 131.032H415.594V139.202H427.463V131.032Z" fill="white" stroke="#231F20" stroke-miterlimit="10"/>
<path d="M439.33 131.032H427.461V139.202H439.33V131.032Z" fill="white" stroke="#231F20" stroke-miterlimit="10"/>
<path d="M463.066 139.202H439.328V147.372H463.066V139.202Z" fill="white" stroke="#231F20" stroke-miterlimit="10"/>
<path d="M451.197 131.032H439.328V139.202H451.197V131.032Z" fill="white" stroke="#231F20" stroke-miterlimit="10"/>
<path d="M463.072 131.032H451.203V139.202H463.072V131.032Z" fill="white" stroke="#231F20" stroke-miterlimit="10"/>
<path d="M486.809 139.202H463.07V147.372H486.809V139.202Z" fill="white" stroke="#231F20" stroke-miterlimit="10"/>
<path d="M474.939 131.032H463.07V139.202H474.939V131.032Z" fill="white" stroke="#231F20" stroke-miterlimit="10"/>
<path d="M486.807 131.032H474.938V139.202H486.807V131.032Z" fill="white" stroke="#231F20" stroke-miterlimit="10"/>
<path d="M439.332 122.862H415.594V131.032H439.332V122.862Z" fill="white" stroke="#231F20" stroke-miterlimit="10"/>
<path d="M427.463 114.689H415.594V122.859H427.463V114.689Z" fill="white" stroke="#231F20" stroke-miterlimit="10"/>
<path d="M439.33 114.689H427.461V122.859H439.33V114.689Z" fill="white" stroke="#231F20" stroke-miterlimit="10"/>
<path d="M463.066 122.862H439.328V131.032H463.066V122.862Z" fill="white" stroke="#231F20" stroke-miterlimit="10"/>
<path d="M451.197 114.689H439.328V122.859H451.197V114.689Z" fill="white" stroke="#231F20" stroke-miterlimit="10"/>
<path d="M463.072 114.689H451.203V122.859H463.072V114.689Z" fill="white" stroke="#231F20" stroke-miterlimit="10"/>
<path d="M486.809 122.862H463.07V131.032H486.809V122.862Z" fill="white" stroke="#231F20" stroke-miterlimit="10"/>
<path d="M474.939 114.689H463.07V122.859H474.939V114.689Z" fill="white" stroke="#231F20" stroke-miterlimit="10"/>
<path d="M486.807 114.689H474.938V122.859H486.807V114.689Z" fill="white" stroke="#231F20" stroke-miterlimit="10"/>
<path d="M439.332 106.52H415.594V114.689H439.332V106.52Z" fill="white" stroke="#231F20" stroke-miterlimit="10"/>
<path d="M463.066 106.52H439.328V114.689H463.066V106.52Z" fill="white" stroke="#231F20" stroke-miterlimit="10"/>
<path d="M486.809 106.52H463.07V114.689H486.809V106.52Z" fill="white" stroke="#231F20" stroke-miterlimit="10"/>
<path d="M427.463 98.3496H415.594V106.519H427.463V98.3496Z" fill="white" stroke="#231F20" stroke-miterlimit="10"/>
<path d="M439.33 98.3496H427.461V106.519H439.33V98.3496Z" fill="white" stroke="#231F20" stroke-miterlimit="10"/>
<path d="M451.197 98.3496H439.328V106.519H451.197V98.3496Z" fill="white" stroke="#231F20" stroke-miterlimit="10"/>
<path d="M463.072 98.3496H451.203V106.519H463.072V98.3496Z" fill="white" stroke="#231F20" stroke-miterlimit="10"/>
<path d="M474.939 98.3496H463.07V106.519H474.939V98.3496Z" fill="white" stroke="#231F20" stroke-miterlimit="10"/>
<path d="M486.807 98.3496H474.938V106.519H486.807V98.3496Z" fill="white" stroke="#231F20" stroke-miterlimit="10"/>
<path d="M439.332 90.1758H415.594V98.3456H439.332V90.1758Z" fill="white" stroke="#231F20" stroke-miterlimit="10"/>
<path d="M463.066 90.1758H439.328V98.3456H463.066V90.1758Z" fill="white" stroke="#231F20" stroke-miterlimit="10"/>
<path d="M486.809 90.1758H463.07V98.3456H486.809V90.1758Z" fill="white" stroke="#231F20" stroke-miterlimit="10"/>
<path d="M427.463 82.0059H415.594V90.1757H427.463V82.0059Z" fill="white" stroke="#231F20" stroke-miterlimit="10"/>
<path d="M439.33 82.0059H427.461V90.1757H439.33V82.0059Z" fill="white" stroke="#231F20" stroke-miterlimit="10"/>
<path d="M451.197 82.0059H439.328V90.1757H451.197V82.0059Z" fill="white" stroke="#231F20" stroke-miterlimit="10"/>
<path d="M463.072 82.0059H451.203V90.1757H463.072V82.0059Z" fill="white" stroke="#231F20" stroke-miterlimit="10"/>
<path d="M474.939 82.0059H463.07V90.1757H474.939V82.0059Z" fill="white" stroke="#231F20" stroke-miterlimit="10"/>
<path d="M486.807 82.0059H474.938V90.1757H486.807V82.0059Z" fill="white" stroke="#231F20" stroke-miterlimit="10"/>
<path d="M439.332 73.8359H415.594V82.0058H439.332V73.8359Z" fill="white" stroke="#231F20" stroke-miterlimit="10"/>
<path d="M463.066 73.8359H439.328V82.0058H463.066V73.8359Z" fill="white" stroke="#231F20" stroke-miterlimit="10"/>
<path d="M486.809 73.8359H463.07V82.0058H486.809V73.8359Z" fill="white" stroke="#231F20" stroke-miterlimit="10"/>
<path d="M497.123 157.196V158.278L528.646 207.495L553.651 207.091L551.478 174.526L548.979 167.491L540.178 159.657L529.776 157.196H496.672" fill="#231F20"/>
<path d="M497.123 157.196V158.278L528.646 207.495L553.651 207.091L551.478 174.526L548.979 167.491L540.178 159.657L529.776 157.196H496.672" stroke="#231F20" stroke-miterlimit="10"/>
<path d="M524.453 165.031H512.496C500.112 165.031 490.07 178.861 490.07 195.92C490.07 212.98 500.112 226.81 512.496 226.81H524.453C536.508 226.81 546.28 212.98 546.28 195.92C546.28 178.861 536.508 165.031 524.453 165.031Z" fill="#7099ED" stroke="#231F20" stroke-miterlimit="10"/>
<path d="M526.615 211.506C532.46 211.506 537.198 204.801 537.198 196.53C537.198 188.259 532.46 181.554 526.615 181.554C520.77 181.554 516.031 188.259 516.031 196.53C516.031 204.801 520.77 211.506 526.615 211.506Z" fill="white" stroke="#231F20" stroke-miterlimit="10"/>
<path d="M528.797 196.53C528.797 199.059 527.349 201.112 525.559 201.112C523.769 201.112 522.32 199.059 522.32 196.53C522.32 194.001 523.769 191.948 525.559 191.948" stroke="#231F20" stroke-miterlimit="10"/>
<path d="M523.846 207.091C527.967 207.091 531.308 202.363 531.308 196.53C531.308 190.696 527.967 185.968 523.846 185.968C519.724 185.968 516.383 190.696 516.383 196.53C516.383 202.363 519.724 207.091 523.846 207.091Z" stroke="#231F20" stroke-miterlimit="10"/>
<path d="M526.621 224.608C537.579 224.608 546.461 212.037 546.461 196.53C546.461 181.022 537.579 168.451 526.621 168.451C515.664 168.451 506.781 181.022 506.781 196.53C506.781 212.037 515.664 224.608 526.621 224.608Z" stroke="#231F20" stroke-miterlimit="10"/>
<path d="M524.571 189.804H521.97C519.274 189.804 517.086 192.816 517.086 196.53C517.086 200.244 519.274 203.256 521.97 203.256H524.571C527.196 203.256 529.323 200.244 529.323 196.53C529.323 192.816 527.196 189.804 524.571 189.804Z" stroke="#231F20" stroke-miterlimit="10"/>
<path d="M553.033 179.748H550.883V179.043C550.883 167.59 541.608 158.274 530.205 158.274H524.953V156.114H530.205C542.791 156.114 553.033 166.398 553.033 179.043V179.748Z" fill="white" stroke="#231F20" stroke-miterlimit="10"/>
<path d="M524.955 156.118H497.125V158.278H524.955V156.118Z" fill="white" stroke="#231F20" stroke-miterlimit="10"/>
</g>
<path d="M35.7988 42V27.7812H48.8555V42H46.1406V29.8711H38.5137V42H35.7988ZM51.4434 35.1445V34.6074C51.4434 32.2376 52.1335 30.4603 53.5137 29.2754C54.8939 28.084 56.6582 27.4883 58.8066 27.4883C60.9486 27.4883 62.7129 28.084 64.0996 29.2754C65.4928 30.4603 66.1895 32.2376 66.1895 34.6074V35.1445C66.1895 37.5339 65.4928 39.3242 64.0996 40.5156C62.7129 41.7005 60.9486 42.293 58.8066 42.293C56.6582 42.293 54.8939 41.7005 53.5137 40.5156C52.1335 39.3242 51.4434 37.5339 51.4434 35.1445ZM54.2266 35.3105C54.2266 36.9902 54.6432 38.2272 55.4766 39.0215C56.3164 39.8092 57.4264 40.2031 58.8066 40.2031C60.1868 40.2031 61.3001 39.8092 62.1465 39.0215C62.9928 38.2272 63.416 36.9902 63.416 35.3105V34.4609C63.416 32.7812 62.9928 31.5508 62.1465 30.7695C61.3066 29.9818 60.1934 29.5879 58.8066 29.5879C57.4264 29.5879 56.3164 29.9818 55.4766 30.7695C54.6432 31.5508 54.2266 32.778 54.2266 34.4512V35.3105ZM68.123 35.1641V34.6172C68.123 32.2279 68.8034 30.444 70.1641 29.2656C71.5247 28.0807 73.2793 27.4883 75.4277 27.4883C77.4134 27.4883 78.9954 27.9082 80.1738 28.748C81.3522 29.5814 82.0033 30.8216 82.127 32.4688L82.1465 32.6738H79.4023L79.3926 32.459C79.3014 31.4759 78.9141 30.7533 78.2305 30.291C77.5534 29.8223 76.6094 29.5879 75.3984 29.5879C74.0573 29.5879 72.9733 29.985 72.1465 30.7793C71.3262 31.5736 70.916 32.791 70.916 34.4316V35.3496C70.916 37.0618 71.3262 38.2988 72.1465 39.0605C72.9733 39.8223 74.0573 40.2031 75.3984 40.2031C76.7526 40.2031 77.7357 39.9395 78.3477 39.4121C78.9596 38.8783 79.3079 38.1816 79.3926 37.3223L79.4023 37.1172H82.1465L82.1367 37.332C82.026 38.8555 81.401 40.0632 80.2617 40.9551C79.1289 41.847 77.5208 42.293 75.4375 42.293C73.276 42.293 71.515 41.7135 70.1543 40.5547C68.8001 39.3893 68.123 37.5924 68.123 35.1641ZM82.7715 29.8906V27.7812H95.8477V29.8906H90.6719V42H87.957V29.8906H82.7715ZM95.9355 42L102.117 27.7129H104.783L110.975 42H108.025L103.914 31.9219C103.79 31.6289 103.686 31.349 103.602 31.082C103.517 30.8086 103.439 30.5482 103.367 30.3008H103.27C103.191 30.5482 103.11 30.8086 103.025 31.082C102.941 31.3555 102.84 31.6354 102.723 31.9219L98.582 42H95.9355ZM98.7969 38.6699L99.5586 36.6484H107.215L107.977 38.6699H98.7969ZM112.459 42V27.7812H118.494C120.187 27.7812 121.508 28.071 122.459 28.6504C123.41 29.2298 123.885 30.1868 123.885 31.5215C123.885 32.3092 123.68 32.9505 123.27 33.4453C122.866 33.9336 122.352 34.2852 121.727 34.5V34.5391C122.508 34.7474 123.139 35.1283 123.621 35.6816C124.109 36.235 124.354 36.9772 124.354 37.9082C124.354 39.2689 123.846 40.291 122.83 40.9746C121.814 41.6582 120.473 42 118.807 42H112.459ZM115.135 40.0469H118.67C119.679 40.0469 120.428 39.8613 120.916 39.4902C121.404 39.1126 121.648 38.543 121.648 37.7812C121.648 37.0651 121.404 36.515 120.916 36.1309C120.428 35.7402 119.679 35.5449 118.67 35.5449H115.135V40.0469ZM115.135 33.709H118.357C119.354 33.709 120.076 33.5365 120.525 33.1914C120.981 32.8464 121.209 32.3516 121.209 31.707C121.209 31.0299 120.984 30.5352 120.535 30.2227C120.086 29.9102 119.36 29.7539 118.357 29.7539H115.135V33.709ZM126.854 27.7812H129.568V39.9102H134.998V27.7812H137.703V39.9102H143.143V27.7812H145.848V39.9102H147.732V44.8223H145.213V42H126.854V27.7812ZM162.879 42H160.223V32.4785C160.223 32.2702 160.226 32.0423 160.232 31.7949C160.239 31.541 160.249 31.3132 160.262 31.1113H160.145C160.047 31.3066 159.949 31.4987 159.852 31.6875C159.76 31.8763 159.63 32.0814 159.461 32.3027L152.459 42H149.588V27.7812H152.254V37.293C152.254 37.4948 152.247 37.7194 152.234 37.9668C152.228 38.2142 152.221 38.4421 152.215 38.6504H152.352C152.423 38.4876 152.511 38.3021 152.615 38.0938C152.726 37.8854 152.853 37.6803 152.996 37.4785L160.008 27.7812H162.879V42ZM176.15 42L169.607 35.1836L171.58 33.7773L179.48 42H176.15ZM167.469 33.6211H170.135L176.053 27.7812H178.992L170.701 35.7305H167.469V33.6211ZM166.111 42V27.7812H168.826V42H166.111ZM178.885 42L185.066 27.7129H187.732L193.924 42H190.975L186.863 31.9219C186.74 31.6289 186.635 31.349 186.551 31.082C186.466 30.8086 186.388 30.5482 186.316 30.3008H186.219C186.141 30.5482 186.059 30.8086 185.975 31.082C185.89 31.3555 185.789 31.6354 185.672 31.9219L181.531 42H178.885ZM181.746 38.6699L182.508 36.6484H190.164L190.926 38.6699H181.746ZM195.408 42V27.7812H198.621L203.396 38.0352C203.494 38.2435 203.592 38.4551 203.689 38.6699C203.787 38.8783 203.862 39.0573 203.914 39.207H203.973C204.025 39.0573 204.093 38.8783 204.178 38.6699C204.262 38.4551 204.35 38.2435 204.441 38.0352L209.275 27.7812H212.557V42H209.881L209.891 32.3516C209.891 32.1497 209.897 31.9349 209.91 31.707C209.923 31.4727 209.936 31.2578 209.949 31.0625H209.881C209.835 31.2578 209.777 31.4727 209.705 31.707C209.64 31.9349 209.562 32.1497 209.471 32.3516L204.959 42H202.654L198.162 32.3516C198.064 32.1562 197.98 31.9447 197.908 31.7168C197.837 31.4824 197.778 31.2643 197.732 31.0625H197.664C197.677 31.2643 197.69 31.4824 197.703 31.7168C197.723 31.9447 197.732 32.1595 197.732 32.3613V42H195.408Z" fill="white"/>
</g>
<defs>
<clipPath id="clip0_9500_23136">
<rect width="536" height="227" rx="16" fill="white"/>
</clipPath>
<clipPath id="clip1_9500_23136">
<rect width="65" height="60.0881" fill="white" transform="translate(262 124.053)"/>
</clipPath>
<clipPath id="clip2_9500_23136">
<rect width="313" height="60" fill="white" transform="translate(143 188)"/>
</clipPath>
<clipPath id="clip3_9500_23136">
<rect width="293" height="216" fill="white" transform="translate(345 11)"/>
</clipPath>
</defs>
</svg>
