<svg width="559" height="220" viewBox="0 0 589 220" fill="none" xmlns="http://www.w3.org/2000/svg">
<g clip-path="url(#clip0_8906_21919)">
<rect width="589" height="220" rx="32" fill="#FF8B63"/>
<path d="M44.1582 53.2031C45.3626 53.2031 46.248 52.9948 46.8145 52.5781C47.3809 52.1615 47.6673 51.5723 47.6738 50.8105C47.6738 50.1074 47.4329 49.5703 46.9512 49.1992C46.4759 48.8281 45.75 48.6426 44.7734 48.6426H41.9316V46.6406H44.6074C45.5254 46.6406 46.2025 46.4681 46.6387 46.123C47.0749 45.778 47.293 45.2767 47.293 44.6191C47.293 43.9616 47.0326 43.457 46.5117 43.1055C45.9909 42.7539 45.1803 42.5781 44.0801 42.5781C42.9212 42.5781 42.0456 42.7832 41.4531 43.1934C40.8607 43.6035 40.5612 44.235 40.5547 45.0879V45.2344H37.8594V45.0977C37.8659 43.6523 38.39 42.526 39.4316 41.7188C40.4798 40.9049 42.0423 40.498 44.1191 40.498C46.0007 40.498 47.4492 40.8333 48.4648 41.5039C49.4805 42.168 49.9883 43.1283 49.9883 44.3848C49.9883 45.2376 49.7539 45.918 49.2852 46.4258C48.8229 46.9336 48.25 47.2917 47.5664 47.5V47.5391C48.3997 47.7344 49.0768 48.1152 49.5977 48.6816C50.125 49.2415 50.3887 49.9772 50.3887 50.8887C50.3887 52.2754 49.8451 53.3561 48.7578 54.1309C47.6771 54.8991 46.1569 55.2832 44.1973 55.2832C42.1204 55.2832 40.5156 54.9056 39.3828 54.1504C38.2565 53.3952 37.6868 52.1842 37.6738 50.5176V50.3809H40.3691L40.3789 50.5078C40.3789 51.4388 40.6947 52.1224 41.3262 52.5586C41.9577 52.9883 42.9017 53.2031 44.1582 53.2031ZM51.0527 55L57.2344 40.7129H59.9004L66.0918 55H63.1426L59.0312 44.9219C58.9076 44.6289 58.8034 44.349 58.7188 44.082C58.6341 43.8086 58.556 43.5482 58.4844 43.3008H58.3867C58.3086 43.5482 58.2272 43.8086 58.1426 44.082C58.0579 44.3555 57.957 44.6354 57.8398 44.9219L53.6992 55H51.0527ZM53.9141 51.6699L54.6758 49.6484H62.332L63.0938 51.6699H53.9141ZM77.6152 55L71.0723 48.1836L73.0449 46.7773L80.9453 55H77.6152ZM68.9336 46.6211H71.5996L77.5176 40.7812H80.457L72.166 48.7305H68.9336V46.6211ZM67.5762 55V40.7812H70.291V55H67.5762ZM80.3496 55L86.5312 40.7129H89.1973L95.3887 55H92.4395L88.3281 44.9219C88.2044 44.6289 88.1003 44.349 88.0156 44.082C87.931 43.8086 87.8529 43.5482 87.7812 43.3008H87.6836C87.6055 43.5482 87.5241 43.8086 87.4395 44.082C87.3548 44.3555 87.2539 44.6354 87.1367 44.9219L82.9961 55H80.3496ZM83.2109 51.6699L83.9727 49.6484H91.6289L92.3906 51.6699H83.2109ZM102.42 53.2031C103.624 53.2031 104.51 52.9948 105.076 52.5781C105.643 52.1615 105.929 51.5723 105.936 50.8105C105.936 50.1074 105.695 49.5703 105.213 49.1992C104.738 48.8281 104.012 48.6426 103.035 48.6426H100.193V46.6406H102.869C103.787 46.6406 104.464 46.4681 104.9 46.123C105.337 45.778 105.555 45.2767 105.555 44.6191C105.555 43.9616 105.294 43.457 104.773 43.1055C104.253 42.7539 103.442 42.5781 102.342 42.5781C101.183 42.5781 100.307 42.7832 99.7148 43.1934C99.1224 43.6035 98.8229 44.235 98.8164 45.0879V45.2344H96.1211V45.0977C96.1276 43.6523 96.6517 42.526 97.6934 41.7188C98.7415 40.9049 100.304 40.498 102.381 40.498C104.262 40.498 105.711 40.8333 106.727 41.5039C107.742 42.168 108.25 43.1283 108.25 44.3848C108.25 45.2376 108.016 45.918 107.547 46.4258C107.085 46.9336 106.512 47.2917 105.828 47.5V47.5391C106.661 47.7344 107.339 48.1152 107.859 48.6816C108.387 49.2415 108.65 49.9772 108.65 50.8887C108.65 52.2754 108.107 53.3561 107.02 54.1309C105.939 54.8991 104.419 55.2832 102.459 55.2832C100.382 55.2832 98.7773 54.9056 97.6445 54.1504C96.5182 53.3952 95.9486 52.1842 95.9355 50.5176V50.3809H98.6309L98.6406 50.5078C98.6406 51.4388 98.9564 52.1224 99.5879 52.5586C100.219 52.9883 101.163 53.2031 102.42 53.2031ZM113.494 44.6289C113.494 45.7878 113.771 46.5592 114.324 46.9434C114.878 47.3275 115.841 47.5195 117.215 47.5195C118.1 47.5195 118.901 47.4837 119.617 47.4121C120.34 47.3405 121.062 47.2298 121.785 47.0801V49.1309C120.828 49.3262 119.992 49.4564 119.275 49.5215C118.566 49.5801 117.785 49.6094 116.932 49.6094C114.653 49.6094 113.058 49.222 112.146 48.4473C111.235 47.6725 110.779 46.4323 110.779 44.7266V40.7812H113.494V44.6289ZM123.152 40.7812V55H120.438V40.7812H123.152ZM139.676 55H137.02V45.4785C137.02 45.2702 137.023 45.0423 137.029 44.7949C137.036 44.541 137.046 44.3132 137.059 44.1113H136.941C136.844 44.3066 136.746 44.4987 136.648 44.6875C136.557 44.8763 136.427 45.0814 136.258 45.3027L129.256 55H126.385V40.7812H129.051V50.293C129.051 50.4948 129.044 50.7194 129.031 50.9668C129.025 51.2142 129.018 51.4421 129.012 51.6504H129.148C129.22 51.4876 129.308 51.3021 129.412 51.0938C129.523 50.8854 129.65 50.6803 129.793 50.4785L136.805 40.7812H139.676V55ZM152.947 55L146.404 48.1836L148.377 46.7773L156.277 55H152.947ZM144.266 46.6211H146.932L152.85 40.7812H155.789L147.498 48.7305H144.266V46.6211ZM142.908 55V40.7812H145.623V55H142.908ZM155.682 55L161.863 40.7129H164.529L170.721 55H167.771L163.66 44.9219C163.536 44.6289 163.432 44.349 163.348 44.082C163.263 43.8086 163.185 43.5482 163.113 43.3008H163.016C162.938 43.5482 162.856 43.8086 162.771 44.082C162.687 44.3555 162.586 44.6354 162.469 44.9219L158.328 55H155.682ZM158.543 51.6699L159.305 49.6484H166.961L167.723 51.6699H158.543ZM172.205 55V40.7812H175.418L180.193 51.0352C180.291 51.2435 180.389 51.4551 180.486 51.6699C180.584 51.8783 180.659 52.0573 180.711 52.207H180.77C180.822 52.0573 180.89 51.8783 180.975 51.6699C181.059 51.4551 181.147 51.2435 181.238 51.0352L186.072 40.7812H189.354V55H186.678L186.688 45.3516C186.688 45.1497 186.694 44.9349 186.707 44.707C186.72 44.4727 186.733 44.2578 186.746 44.0625H186.678C186.632 44.2578 186.574 44.4727 186.502 44.707C186.437 44.9349 186.359 45.1497 186.268 45.3516L181.756 55H179.451L174.959 45.3516C174.861 45.1562 174.777 44.9447 174.705 44.7168C174.633 44.4824 174.575 44.2643 174.529 44.0625H174.461C174.474 44.2643 174.487 44.4824 174.5 44.7168C174.52 44.9447 174.529 45.1595 174.529 45.3613V55H172.205Z" fill="white"/>
<g clip-path="url(#clip1_8906_21919)">
<path d="M362.061 139.987C361.602 139.993 361.294 140.438 361.507 140.812L363.264 144.004C363.378 144.206 363.611 144.321 363.859 144.302L365.8 144.152C366.231 144.119 366.494 143.702 366.309 143.343L364.734 140.299C364.634 140.109 364.421 139.981 364.184 139.981L362.061 139.987Z" fill="white"/>
<path d="M358.386 131.599C357.926 131.604 357.625 132.049 357.832 132.424L359.589 135.616C359.703 135.818 359.935 135.932 360.183 135.913L362.124 135.764C362.555 135.731 362.819 135.314 362.64 134.954L361.059 131.911C360.959 131.72 360.745 131.592 360.508 131.592L358.386 131.599Z" fill="white"/>
<path d="M354.147 123.657C353.688 123.663 353.38 124.107 353.593 124.482L355.35 127.674C355.464 127.876 355.697 127.991 355.945 127.972L357.879 127.823C358.317 127.789 358.58 127.372 358.395 127.013L356.82 123.969C356.72 123.778 356.507 123.65 356.27 123.657L354.147 123.657Z" fill="white"/>
<path d="M324.317 100.976C323.294 100.838 322.486 101.79 322.901 102.655C326.785 110.768 341.501 141.531 349.402 158.041C352.653 158.519 355.929 158.984 359.231 159.434C360.154 159.561 361.077 159.683 362 159.804C362.245 159.31 362.556 158.751 362.951 158.155L362.841 158.097C362.591 158.086 356.766 157.818 355.192 154.269C354.358 152.396 354.699 149.56 355.964 149.095C356.558 148.869 357.165 149.244 357.82 149.548C361.097 151.059 362.971 149.525 368.791 150.251C371.353 150.566 372.634 150.726 373.963 151.52C375.017 152.149 375.513 152.791 376.021 153.666C368.14 138.701 353.092 110.111 350.444 105.086C350.191 104.606 349.698 104.271 349.12 104.189L341.866 103.104C341.201 103.005 340.594 103.491 340.622 104.114C340.646 104.684 340.159 105.095 339.623 105.136C339.361 105.156 339.093 105.086 338.862 104.906L337.526 103.859C336.442 103.01 335.111 102.456 333.69 102.259L324.31 100.976L324.317 100.976ZM353.599 124.482C353.386 124.107 353.693 123.663 354.153 123.657L356.276 123.657C356.512 123.65 356.726 123.778 356.826 123.969L358.401 127.013C358.586 127.372 358.322 127.789 357.885 127.823L355.951 127.972C355.702 127.991 355.47 127.876 355.356 127.674L353.599 124.482ZM357.837 132.423C357.631 132.048 357.932 131.604 358.392 131.598L360.514 131.592C360.751 131.592 360.965 131.72 361.065 131.91L362.646 134.954C362.825 135.313 362.561 135.73 362.13 135.763L360.189 135.913C359.941 135.932 359.709 135.817 359.595 135.615L357.837 132.423ZM361.512 140.811C361.3 140.436 361.607 139.991 362.067 139.986L364.189 139.979C364.426 139.979 364.64 140.107 364.74 140.298L366.315 143.342C366.5 143.701 366.236 144.118 365.805 144.151L363.864 144.3C363.616 144.319 363.384 144.205 363.27 144.003L361.512 140.811Z" fill="white"/>
<path d="M487.976 210.311L487.991 210.328C489.372 211.022 490.753 211.716 492.14 212.409C492.038 211.25 491.882 209.812 491.603 208.161L491.551 208.165C490.348 208.925 489.153 209.637 487.976 210.311Z" fill="#FF8B63"/>
<path d="M468.547 119.273L468.43 123.903C470 121.153 471.577 118.408 473.147 115.658C471.749 113.046 470.248 110.785 468.812 108.862C468.724 112.334 468.635 115.801 468.547 119.273Z" fill="#FF8B63"/>
<path d="M377.744 152.734C377.004 153.026 376.426 153.377 376.021 153.667C376.536 154.548 377.056 155.669 378.171 157.262C381.066 161.408 382.842 161.422 384.472 164.756C384.582 164.982 384.684 165.203 384.773 165.425C385.601 167.389 385.779 169.18 385.81 170.363C386.545 170.776 387.781 171.457 389.333 172.234C392.252 173.694 405.382 180.158 426.061 183.165C428.966 183.585 433.239 184.117 438.489 184.429C439.431 177.022 440.881 171.008 442.052 166.833C442.398 165.603 442.807 164.164 443.295 162.556L443.275 162.557C441.383 166.078 439.485 169.6 437.594 173.126C430.214 171.353 422.144 168.977 413.628 165.763C409.16 164.079 404.983 162.325 401.093 160.542C399.492 157.494 395.47 151.017 387.246 147.323C384.938 146.285 382.721 145.661 380.759 145.276C378.054 144.54 375.355 143.809 372.644 143.079L377.751 152.734L377.744 152.734Z" fill="white"/>
<path d="M374.407 194.315C375.179 194.791 376.07 195.258 377.094 195.673C379.055 196.473 380.91 196.835 382.434 196.995C385.742 198.816 390.601 201.403 396.607 204.287C411.539 211.448 422.93 216.914 433.966 219.651C437.296 220.478 440.594 221.055 443.943 221.357C450.581 221.947 467.022 222.314 487.98 210.312C489.157 209.637 490.351 208.926 491.555 208.172L491.608 208.168C490.574 201.899 487.921 192.531 480.793 183.175C473.716 173.882 465.279 168.61 460.23 165.954C458.669 167.277 457.115 168.606 455.553 169.923C449.865 174.765 444.17 179.595 438.488 184.43C433.238 184.118 428.965 183.586 426.06 183.166C405.381 180.159 392.251 173.695 389.332 172.235C387.78 171.458 386.544 170.777 385.809 170.364C385.778 169.181 385.6 167.39 384.772 165.426C384.683 165.204 384.581 164.983 384.471 164.757C382.841 161.423 381.065 161.409 378.17 157.263C377.055 155.67 376.535 154.549 376.02 153.668C375.513 152.792 375.016 152.151 373.962 151.522C372.633 150.728 371.352 150.567 368.791 150.253C362.97 149.527 361.097 151.061 357.819 149.55C357.165 149.245 356.557 148.871 355.963 149.097C354.698 149.561 354.357 152.397 355.191 154.271C356.766 157.82 362.59 158.088 362.841 158.099L362.95 158.157C362.556 158.752 362.244 159.312 361.999 159.806C361.076 159.685 360.153 159.563 359.23 159.435C355.928 158.985 352.652 158.521 349.401 158.043C348.305 157.887 347.214 157.724 346.123 157.555C344.083 157.255 342.054 156.941 340.031 156.628L336.95 150.066L336.549 150.229C335.908 150.874 335.03 151.85 334.17 153.149C333.022 154.886 331.244 157.574 331.576 160.015C331.991 163.022 335.593 165.585 340.273 166.609C342.009 169.183 343.743 171.902 345.456 174.778C346.331 176.245 347.173 177.703 347.967 179.14C347.849 180.936 348.145 182.399 348.604 183.579C351.217 190.382 361.55 194.407 374.388 194.334L374.407 194.315Z" fill="white"/>
<path d="M483.203 108.977C482.564 109.646 481.95 110.379 481.368 111.188C477.189 117.027 477.427 123.531 477.907 127.044L478.155 127.187C480.624 123.658 483.141 120.318 485.659 117.164C498.071 112.058 510.8 107.162 523.864 102.506C524.299 102.352 524.728 102.199 525.163 102.045L525.009 101.666C524.962 99.7739 524.945 97.8438 524.964 95.8629C524.991 91.7754 525.156 87.5029 525.491 83.0608C525.762 79.3998 526.136 75.8814 526.586 72.5015C531.86 71.4281 535.942 67.9314 536.997 63.6085C537.925 59.7826 536.433 55.4992 533.819 52.9625C532.476 51.6518 530.833 50.8094 529.072 50.7282C524.554 50.528 519.034 55.3266 518.703 62.4759C516.709 62.0998 514.721 61.7231 512.727 61.347C513.214 60.2446 513.85 58.511 514.07 56.3281C514.262 54.4662 514.866 48.5594 510.39 44.5474C507.355 41.8265 503.505 41.3463 501.815 41.2417C502.096 40.1972 502.304 38.8876 502.216 37.4022C501.949 32.8139 499.073 29.6837 497.893 28.5349C492.682 28.719 485.301 29.6656 477.443 33.1217C474.925 34.2298 472.711 35.4409 470.779 36.6484C469.38 36.064 467.982 35.4796 466.589 34.8948L466.497 35.0703C466.208 39.5148 464.077 77.3617 479.805 88.4627C481.014 89.3203 482.268 89.988 483.372 90.4868C483.474 92.2539 483.541 94.0598 483.571 95.9046C483.587 96.7037 483.595 97.4972 483.596 98.2853C483.605 101.991 483.465 105.558 483.209 108.977L483.203 108.977ZM469.292 55.6072C469.106 53.1847 469.844 51.1605 470.942 51.0761C472.04 50.9917 473.079 52.8793 473.265 55.3017C473.451 57.7242 472.713 59.7425 471.615 59.8269C470.517 59.9113 469.478 58.0237 469.292 55.6072ZM479.006 69.1803C480.135 69.1596 482.126 68.9825 484.283 67.9803C485.756 67.2955 486.815 66.4619 487.503 65.8254C488.607 68.9836 486.454 71.9348 484.01 72.2852C482.137 72.5555 479.946 71.3221 479.006 69.1803ZM486.791 54.2618C486.605 51.8393 487.435 49.808 488.65 49.7146C489.865 49.6212 490.989 51.5022 491.176 53.9247C491.362 56.3472 490.532 58.3724 489.323 58.4654C488.114 58.5583 486.977 56.6783 486.791 54.2618Z" fill="white"/>
<path d="M433.962 219.651C434.097 220.561 434.407 222.017 435.208 223.635C436.894 227.019 439.992 229.518 443.983 231.335C443.97 228.003 443.958 224.683 443.939 221.357C440.59 221.055 437.292 220.478 433.962 219.651Z" fill="#FF8B63"/>
<path d="M316.755 101.655C315.715 102.74 315.445 104.271 316.058 105.583L336.949 150.065L340.03 156.627C342.053 156.941 344.081 157.255 346.122 157.555L319.062 101.478C318.602 100.532 318.833 99.5276 319.463 98.8234L316.755 101.655Z" fill="#231F20"/>
<path d="M319.465 98.8226C318.835 99.5268 318.604 100.531 319.064 101.477L346.124 157.554C347.215 157.723 348.306 157.886 349.402 158.042C341.501 141.532 326.785 110.769 322.901 102.656C322.486 101.791 323.294 100.839 324.317 100.977L333.696 102.259C335.118 102.457 336.449 103.01 337.533 103.859L338.869 104.906C339.1 105.087 339.368 105.156 339.629 105.136C340.165 105.095 340.653 104.684 340.629 104.115C340.601 103.491 341.207 103.005 341.872 103.105L349.127 104.189C349.705 104.271 350.197 104.606 350.451 105.086C353.098 110.111 368.147 138.701 376.028 153.667C376.433 153.377 377.01 153.025 377.75 152.734L372.644 143.079L372.637 143.079L352.712 105.424C351.535 103.204 349.248 101.665 346.577 101.293L322.062 97.9009C321.006 97.7535 320.064 98.1568 319.465 98.8226Z" fill="white"/>
<path d="M438.488 184.428C444.17 179.593 449.866 174.763 455.554 169.922C460.388 157.137 467.343 142.794 477.531 128.082C477.602 127.98 477.679 127.872 477.75 127.77C477.322 125.974 476.768 124.067 476.03 122.072C475.174 119.744 474.194 117.599 473.151 115.657C471.581 118.407 470.004 121.152 468.434 123.902L468.552 119.272C467.15 120.709 464.957 123.044 462.495 126.067C451.129 139.991 445.963 153.836 443.294 162.555C442.806 164.163 442.398 165.602 442.052 166.832C440.881 171.008 439.431 177.022 438.488 184.428Z" fill="#FF8B63"/>
<path d="M527.506 219.757C528.234 219.142 528.709 218.564 528.903 218.092C529.332 217.084 529.393 216.092 529.393 216.092C529.441 215.337 529.326 214.708 529.222 214.289C535.357 209.455 542.457 202.375 547.82 192.54C547.82 192.54 561.214 167.979 551.474 138.584C550.235 134.864 548.125 128.703 542.403 122.934C541.026 119.899 538.826 116.073 535.28 112.278C533.777 110.679 532.273 109.326 530.831 108.18C527.375 113.842 513.7 122.938 494.428 132.26C491.511 127.226 488.587 122.198 485.663 117.164C483.145 120.318 480.628 123.658 478.158 127.187C478.022 127.378 477.886 127.575 477.75 127.772C477.679 127.874 477.601 127.982 477.53 128.084C467.343 142.796 460.388 157.139 455.553 169.923C457.115 168.606 458.669 167.277 460.23 165.954C465.279 168.61 473.716 173.882 480.793 183.175C487.921 192.531 490.574 201.899 491.608 208.161C491.886 209.813 492.042 211.251 492.145 212.41C490.757 211.717 489.376 211.023 487.995 210.329L487.98 210.312C467.022 222.314 450.581 221.947 443.943 221.357C443.962 224.683 443.975 228.003 443.987 231.329C459.19 238.253 487.436 235.293 500.946 233.875C500.946 233.875 525.606 231.287 528.652 223.887C529.598 221.576 528.734 220.511 528.734 220.511C528.385 220.075 527.876 219.867 527.506 219.757Z" fill="#FF8B63"/>
<path d="M528.853 23.1388C529.628 22.1045 530.405 20.6789 530.274 19.0585C529.73 12.0667 512.828 7.24115 502.635 6.74331C478.785 5.5807 460.582 26.5828 456.995 30.8838L466.591 34.8932C467.984 35.4781 469.383 36.0625 470.781 36.6468C472.713 35.4394 474.927 34.2282 477.445 33.1201C485.303 29.664 492.684 28.7175 497.895 28.5334C499.075 29.6822 501.951 32.8123 502.218 37.4006C502.306 38.886 502.098 40.1956 501.817 41.2401C503.508 41.3448 507.357 41.825 510.392 44.5458C514.868 48.5578 514.264 54.4646 514.072 56.3265C513.852 58.5094 513.216 60.243 512.729 61.3454C514.723 61.7216 516.711 62.0982 518.705 62.4744C519.036 55.3251 524.556 50.5265 529.074 50.7266C530.835 50.8078 532.478 51.6503 533.821 52.9609C534.174 52.6028 542.71 43.7638 539.207 33.7625C538.676 32.251 536.459 26.6634 530.11 23.6739C529.687 23.4718 529.266 23.2936 528.853 23.1388Z" fill="#FF8B63"/>
<path d="M475.025 103.108C472.314 105.109 470.282 107.154 468.816 108.862C470.252 110.785 471.754 113.046 473.151 115.658C474.194 117.6 475.174 119.744 476.03 122.073C476.768 124.068 477.323 125.975 477.75 127.771C477.886 127.574 478.022 127.377 478.158 127.186L477.911 127.043C477.43 123.53 477.193 117.026 481.372 111.187C481.954 110.379 482.568 109.645 483.206 108.977C483.463 105.557 483.603 101.991 483.594 98.2852C481.217 99.2621 478.179 100.777 475.025 103.108Z" fill="#FF8B63"/>
<path d="M470.943 51.0746C469.846 51.159 469.107 53.1832 469.294 55.6057C469.48 58.0282 470.518 59.9098 471.616 59.8254C472.714 59.741 473.452 57.7167 473.266 55.3003C473.081 52.8838 472.041 50.9902 470.943 51.0746Z" fill="#231F20"/>
<path d="M525.163 102.044C524.728 102.198 524.299 102.351 523.864 102.505C510.8 107.161 498.07 112.057 485.659 117.163C488.583 122.196 491.507 127.224 494.425 132.259C513.696 122.937 527.371 113.841 530.827 108.179C531.253 107.478 531.519 106.838 531.626 106.252C532.198 103.097 531.052 100.761 531.052 100.761C529.563 97.7223 526.356 96.3624 524.964 95.8618C524.945 97.8427 524.962 99.7728 525.009 101.664L525.163 102.044Z" fill="#FF8B63"/>
<path d="M488.647 49.7132C487.432 49.8067 486.602 51.8379 486.788 54.2604C486.974 56.6829 488.104 58.5574 489.32 58.464C490.535 58.3706 491.358 56.3398 491.173 53.9233C490.987 51.5068 489.856 49.6203 488.647 49.7132Z" fill="#231F20"/>
<path d="M466.495 35.0698C466.206 39.5143 464.074 77.3611 479.802 88.4622C481.012 89.3198 482.266 89.9875 483.369 90.4863C485.317 91.3714 486.805 91.7444 486.805 91.7444C500.041 95.0648 513.047 84.0951 515.358 82.0943" stroke="#231F20" stroke-width="0.99" stroke-miterlimit="10" stroke-linecap="round"/>
<path d="M501.627 23.0061C499.612 23.5582 498.09 24.8725 497.734 26.4823C497.548 27.3149 497.716 28.048 497.891 28.5339C499.071 29.6827 501.947 32.8129 502.214 37.4012C502.302 38.8866 502.094 40.1962 501.813 41.2407C503.504 41.3453 507.353 41.8255 510.388 44.5464C514.864 48.5584 514.26 54.4651 514.068 56.3271C513.848 58.51 513.212 60.2436 512.725 61.346C514.719 61.7221 516.707 62.0988 518.701 62.4749C519.032 55.3256 524.553 50.527 529.07 50.7272C530.832 50.8084 532.474 51.6508 533.817 52.9615C536.431 55.4982 537.924 59.7816 536.995 63.6075C535.941 67.9304 531.858 71.4271 526.584 72.5005C526.134 75.8804 525.76 79.3988 525.49 83.0598C525.154 87.5019 524.99 91.7744 524.962 95.8619C524.944 97.8428 524.96 99.7729 525.007 101.665" stroke="#231F20" stroke-width="0.99" stroke-miterlimit="10" stroke-linecap="round"/>
<path d="M522.518 21.8753C524.001 21.9297 526.313 22.1671 528.852 23.1391C529.265 23.2939 529.687 23.4721 530.11 23.6742C536.459 26.6637 538.676 32.2513 539.207 33.7628C542.71 43.7641 534.174 52.6031 533.821 52.9612" stroke="#231F20" stroke-width="0.99" stroke-miterlimit="10" stroke-linecap="round"/>
<path d="M528.854 23.1405C529.629 22.1062 530.407 20.6806 530.276 19.0602C529.732 12.0684 512.83 7.24285 502.637 6.745C478.786 5.5824 460.584 26.5845 456.997 30.8855L466.593 34.8949C467.985 35.4798 469.384 36.0641 470.783 36.6485C472.715 35.4411 474.929 34.2299 477.446 33.1218C485.305 29.6657 492.685 28.7191 497.897 28.5351" stroke="#231F20" stroke-width="0.99" stroke-miterlimit="10" stroke-linecap="round"/>
<path d="M535.305 16.7715C535.139 17.5243 534.782 18.6107 533.968 19.7262C532.261 22.0716 529.722 22.8986 528.853 23.1398" stroke="#231F20" stroke-width="0.99" stroke-miterlimit="10" stroke-linecap="round"/>
<path d="M539.365 24.5509C538.799 24.3718 538.208 24.2007 537.591 24.0495C534.388 23.2489 531.402 23.0572 528.852 23.139" stroke="#231F20" stroke-width="0.99" stroke-miterlimit="10" stroke-linecap="round"/>
<path d="M487.501 65.8243C486.814 66.4608 485.754 67.2943 484.282 67.9791C482.124 68.9814 480.133 69.1585 479.004 69.1791C479.944 71.321 482.136 72.5544 484.008 72.2841C486.452 71.9337 488.605 68.9824 487.501 65.8243Z" fill="white" stroke="#231F20" stroke-width="0.99" stroke-miterlimit="10" stroke-linecap="round"/>
<path d="M483.094 70.5312C482.264 70.7635 481.428 71.0023 480.598 71.2346" stroke="#231F20" stroke-width="0.99" stroke-miterlimit="10" stroke-linecap="round"/>
<path d="M475.465 60.4087C475.188 60.8211 474.771 61.3887 474.201 62.0101C473.529 62.7537 473.203 62.9653 473.254 63.196C473.331 63.515 474.134 63.7902 477.105 63.6942" stroke="#231F20" stroke-width="0.99" stroke-miterlimit="10" stroke-linecap="round"/>
<path d="M494.326 46.4198C493.881 45.8523 493.057 44.965 491.733 44.2365C490.545 43.5817 489.427 43.3187 488.708 43.1995" stroke="#231F20" stroke-width="0.99" stroke-miterlimit="10" stroke-linecap="round"/>
<path d="M471.039 43.373C470.771 43.3936 470.396 43.4706 470.025 43.6857C468.924 44.3299 468.885 45.6205 468.883 45.759" stroke="#231F20" stroke-width="0.99" stroke-miterlimit="10" stroke-linecap="round"/>
<path d="M483.594 98.2852C483.603 101.991 483.463 105.557 483.206 108.977C483.141 109.92 483.062 110.859 482.975 111.78" stroke="#231F20" stroke-width="0.99" stroke-miterlimit="10" stroke-linecap="round"/>
<path d="M483.375 90.4863C483.478 92.2534 483.545 94.0593 483.575 95.9041C483.59 96.7031 483.598 97.4967 483.6 98.2848" stroke="#231F20" stroke-width="0.99" stroke-miterlimit="10" stroke-linecap="round"/>
<path d="M526.648 101.516C526.156 101.692 525.657 101.869 525.164 102.045C524.729 102.199 524.3 102.352 523.865 102.506C510.802 107.162 498.072 112.058 485.66 117.164C483.142 120.318 480.625 123.658 478.156 127.187C478.019 127.378 477.883 127.575 477.747 127.772C477.676 127.874 477.599 127.982 477.528 128.084C467.341 142.796 460.385 157.139 455.551 169.923" stroke="#231F20" stroke-width="0.99" stroke-miterlimit="10" stroke-linecap="round"/>
<path d="M530.828 108.18C527.372 113.842 513.697 122.938 494.425 132.26C491.508 127.225 488.584 122.198 485.66 117.164" stroke="#231F20" stroke-width="0.99" stroke-miterlimit="10" stroke-linecap="round"/>
<path d="M524.964 95.8618C526.356 96.3624 529.563 97.7223 531.052 100.761C531.052 100.761 532.198 103.097 531.626 106.252C531.519 106.838 531.253 107.478 530.827 108.173" stroke="#231F20" stroke-width="0.99" stroke-miterlimit="10" stroke-linecap="round"/>
<path d="M483.594 98.2852C481.217 99.2621 478.179 100.777 475.025 103.108C472.314 105.109 470.282 107.154 468.816 108.862C468.728 112.334 468.64 115.8 468.552 119.273L468.434 123.903C470.004 121.153 471.581 118.408 473.151 115.658" stroke="#231F20" stroke-width="0.99" stroke-miterlimit="10" stroke-linecap="round"/>
<path d="M477.748 127.77C477.321 125.974 476.766 124.067 476.028 122.072C475.172 119.744 474.192 117.599 473.149 115.657C471.752 113.045 470.25 110.784 468.814 108.861" stroke="#231F20" stroke-width="0.99" stroke-miterlimit="10" stroke-linecap="round"/>
<path d="M483.203 108.977C482.564 109.645 481.95 110.379 481.368 111.187C477.19 117.026 477.427 123.53 477.908 127.043" stroke="#231F20" stroke-width="0.99" stroke-miterlimit="10" stroke-linecap="round"/>
<path d="M530.827 108.173C532.269 109.325 533.773 110.678 535.277 112.277C538.822 116.072 541.022 119.898 542.399 122.933" stroke="#231F20" stroke-width="0.99" stroke-miterlimit="10" stroke-linecap="round"/>
<path d="M529.219 214.287C525.909 216.894 522.884 218.841 520.565 220.223" stroke="#231F20" stroke-width="0.99" stroke-miterlimit="10" stroke-linecap="round"/>
<path d="M535.276 117.337C537.316 118.576 539.564 120.196 541.771 122.313C541.984 122.519 542.197 122.726 542.403 122.932C548.125 128.702 550.235 134.863 551.474 138.582C561.214 167.978 547.821 192.539 547.821 192.539C542.458 202.373 535.358 209.453 529.222 214.281" stroke="#231F20" stroke-width="0.99" stroke-miterlimit="10" stroke-linecap="round"/>
<path d="M529.217 214.282C529.322 214.707 529.437 215.336 529.389 216.092C529.389 216.092 529.328 217.083 528.899 218.091C528.705 218.563 528.23 219.141 527.502 219.757C526.047 221.006 523.58 222.429 520.339 223.533" stroke="#231F20" stroke-width="0.99" stroke-miterlimit="10" stroke-linecap="round"/>
<path d="M433.966 219.649C434.102 220.559 434.411 222.016 435.212 223.633C436.899 227.017 439.996 229.516 443.988 231.333C459.19 238.251 487.436 235.291 500.946 233.873C500.946 233.873 525.606 231.286 528.652 223.885C529.598 221.574 528.734 220.51 528.734 220.51C528.385 220.073 527.876 219.866 527.506 219.756" stroke="#231F20" stroke-width="0.99" stroke-miterlimit="10" stroke-linecap="round"/>
<path d="M544.945 185.619C543.996 187.208 542.633 189.058 540.666 190.828C534.63 196.274 527.138 197.223 524.27 197.449C521.675 199.261 518.786 201.096 515.59 202.876C507.106 207.596 498.978 210.537 492.141 212.41" stroke="#231F20" stroke-width="0.99" stroke-miterlimit="10" stroke-linecap="round"/>
<path d="M494.132 140.253C489.974 142.347 485.465 144.914 480.817 148.063C471.921 154.096 465.181 160.469 460.226 165.952C458.665 167.275 457.111 168.604 455.549 169.922C449.861 174.763 444.166 179.593 438.484 184.428C433.235 184.116 428.961 183.584 426.056 183.164C405.377 180.157 392.247 173.694 389.328 172.233C387.776 171.456 386.54 170.775 385.805 170.362C385.774 169.179 385.597 167.388 384.768 165.424C384.679 165.202 384.577 164.981 384.467 164.755C382.837 161.421 381.061 161.407 378.166 157.261C377.051 155.669 376.531 154.547 376.017 153.666C375.509 152.791 375.013 152.149 373.959 151.52C372.629 150.726 371.348 150.566 368.787 150.251C362.966 149.525 361.093 151.059 357.815 149.548C357.161 149.244 356.553 148.869 355.96 149.095C354.694 149.56 354.353 152.396 355.187 154.269C356.762 157.818 362.586 158.086 362.837 158.097" stroke="#231F20" stroke-width="0.99" stroke-miterlimit="10" stroke-linecap="round"/>
<path d="M366.023 154.869C365.521 155.263 364.979 155.738 364.444 156.296C363.848 156.926 363.358 157.559 362.95 158.156C362.556 158.752 362.244 159.311 361.999 159.805" stroke="#231F20" stroke-width="0.99" stroke-miterlimit="10" stroke-linecap="round"/>
<path d="M364.872 160.191C363.916 160.066 362.959 159.941 361.996 159.805C361.073 159.683 360.15 159.561 359.226 159.434C355.925 158.984 352.649 158.52 349.398 158.042C348.302 157.885 347.211 157.722 346.12 157.553C344.079 157.253 342.05 156.94 340.028 156.626" stroke="#231F20" stroke-width="0.99" stroke-miterlimit="10" stroke-linecap="round"/>
<path d="M336.55 150.227C335.909 150.872 335.031 151.848 334.171 153.148C333.023 154.885 331.245 157.572 331.577 160.014C331.992 163.02 335.594 165.583 340.274 166.607C342.01 169.181 343.744 171.9 345.457 174.777C346.332 176.244 347.174 177.701 347.968 179.138C348.135 179.432 348.296 179.727 348.457 180.021" stroke="#231F20" stroke-width="0.99" stroke-miterlimit="10" stroke-linecap="round"/>
<path d="M347.966 179.139C347.848 180.935 348.144 182.399 348.603 183.579C351.216 190.381 361.549 194.406 374.387 194.334" stroke="#231F20" stroke-width="0.99" stroke-miterlimit="10" stroke-linecap="round"/>
<path d="M372.181 192.715C372.757 193.2 373.49 193.758 374.401 194.313C375.173 194.79 376.064 195.257 377.088 195.671C379.049 196.471 380.904 196.834 382.428 196.993C383.329 197.087 384.113 197.111 384.737 197.105" stroke="#231F20" stroke-width="0.99" stroke-miterlimit="10" stroke-linecap="round"/>
<path d="M382.429 196.994C385.737 198.815 390.596 201.402 396.602 204.285C411.534 211.446 422.925 216.912 433.961 219.65C437.291 220.477 440.589 221.053 443.938 221.355C450.576 221.946 467.017 222.313 487.975 210.31C489.152 209.636 490.346 208.925 491.55 208.17" stroke="#231F20" stroke-width="0.99" stroke-miterlimit="10" stroke-linecap="round"/>
<path d="M460.231 165.953C465.279 168.61 473.716 173.882 480.793 183.175C487.921 192.53 490.574 201.899 491.608 208.161C491.886 209.812 492.042 211.25 492.145 212.41C490.757 211.716 489.376 211.022 487.995 210.328" stroke="#231F20" stroke-width="0.99" stroke-miterlimit="10" stroke-linecap="round"/>
<path d="M468.547 119.273C467.146 120.711 464.952 123.046 462.49 126.069C451.125 139.993 445.958 153.838 443.289 162.557C442.802 164.164 442.393 165.604 442.047 166.834C440.876 171.009 439.426 177.023 438.484 184.43" stroke="#231F20" stroke-width="0.99" stroke-miterlimit="10" stroke-linecap="round"/>
<path d="M502.091 137.264C503.712 136.544 506.055 135.726 508.97 135.424C514.774 134.827 519.278 136.647 521.229 137.574" stroke="#231F20" stroke-width="0.99" stroke-miterlimit="10" stroke-linecap="round"/>
<path d="M380.25 152.169C379.818 152.196 379.318 152.264 378.776 152.396C378.408 152.491 378.062 152.608 377.75 152.734C377.01 153.026 376.432 153.377 376.027 153.667" stroke="#231F20" stroke-width="0.99" stroke-miterlimit="10" stroke-linecap="round"/>
<path d="M389.687 160.01C389.732 160.512 389.764 161.701 389.003 162.914C387.674 165.032 385.085 165.388 384.766 165.424" stroke="#231F20" stroke-width="0.99" stroke-miterlimit="10" stroke-linecap="round"/>
<path d="M372.631 143.079L352.705 105.424C351.529 103.204 349.242 101.665 346.571 101.293L322.056 97.9008C321 97.7534 320.058 98.1567 319.458 98.8225C318.829 99.5267 318.597 100.531 319.058 101.477L346.118 157.554" stroke="#231F20" stroke-width="0.99" stroke-miterlimit="10" stroke-linecap="round"/>
<path d="M377.745 152.733L372.638 143.078" stroke="#231F20" stroke-width="0.99" stroke-miterlimit="10" stroke-linecap="round"/>
<path d="M319.464 98.8222L316.756 101.654C315.716 102.738 315.446 104.269 316.059 105.582L336.95 150.064L340.031 156.626" stroke="#231F20" stroke-width="0.99" stroke-miterlimit="10" stroke-linecap="round"/>
<path d="M372.633 143.08L372.64 143.079C375.352 143.809 378.05 144.54 380.756 145.277C382.718 145.662 384.935 146.285 387.243 147.323C395.467 151.017 399.488 157.495 401.089 160.542C404.979 162.325 409.157 164.08 413.624 165.764C422.14 168.978 430.21 171.354 437.59 173.127C439.481 169.6 441.379 166.079 443.271 162.552" stroke="#231F20" stroke-width="0.99" stroke-miterlimit="10" stroke-linecap="round"/>
<path d="M514.798 144.658C518.056 146.08 522.771 148.666 526.732 153.259C532.03 159.41 534.169 167.067 533.199 167.52C532.666 167.772 530.797 166.027 524.964 157.366" stroke="#231F20" stroke-width="0.99" stroke-miterlimit="10" stroke-linecap="round"/>
<path d="M376.021 153.666C368.14 138.701 353.092 110.111 350.444 105.086C350.191 104.606 349.698 104.271 349.12 104.189L341.866 103.104C341.201 103.005 340.594 103.491 340.622 104.114C340.646 104.684 340.159 105.095 339.623 105.136C339.361 105.156 339.093 105.086 338.862 104.906L337.526 103.859C336.442 103.01 335.111 102.456 333.69 102.259L324.31 100.976C323.287 100.838 322.48 101.791 322.895 102.656C326.779 110.768 341.494 141.532 349.396 158.042" stroke="#231F20" stroke-width="0.99" stroke-miterlimit="10" stroke-linecap="round"/>
<path d="M349.615 108.882L329.117 107.72" stroke="#FF8B63" stroke-width="0.99" stroke-miterlimit="10" stroke-linecap="round"/>
<path d="M352.337 114.712L332.211 114.207" stroke="#FF8B63" stroke-width="0.99" stroke-miterlimit="10" stroke-linecap="round"/>
<path d="M355.058 120.549L335.318 120.695" stroke="#FF8B63" stroke-width="0.99" stroke-miterlimit="10" stroke-linecap="round"/>
<path d="M356.27 123.657L354.147 123.657C353.688 123.663 353.38 124.107 353.593 124.482L355.35 127.674C355.464 127.876 355.697 127.991 355.945 127.972L357.879 127.823C358.317 127.789 358.58 127.372 358.395 127.013L356.82 123.969C356.72 123.778 356.507 123.65 356.27 123.657Z" stroke="#FF8B63" stroke-width="0.99" stroke-miterlimit="10" stroke-linecap="round"/>
<path d="M352.742 126.258L339.957 126.94" stroke="#FF8B63" stroke-width="0.99" stroke-miterlimit="10" stroke-linecap="round"/>
<path d="M360.508 131.592L358.386 131.599C357.926 131.604 357.625 132.049 357.832 132.424L359.589 135.616C359.703 135.818 359.935 135.932 360.183 135.913L362.124 135.764C362.555 135.731 362.819 135.314 362.64 134.954L361.059 131.911C360.959 131.72 360.745 131.592 360.508 131.592Z" stroke="#FF8B63" stroke-width="0.99" stroke-miterlimit="10" stroke-linecap="round"/>
<path d="M356.977 134.199L345.058 135.116" stroke="#FF8B63" stroke-width="0.99" stroke-miterlimit="10" stroke-linecap="round"/>
<path d="M364.184 139.981L362.061 139.987C361.602 139.993 361.294 140.438 361.507 140.812L363.264 144.004C363.378 144.206 363.611 144.321 363.859 144.302L365.8 144.152C366.231 144.119 366.494 143.702 366.309 143.343L364.734 140.299C364.634 140.109 364.421 139.981 364.184 139.981Z" stroke="#FF8B63" stroke-width="0.99" stroke-miterlimit="10" stroke-linecap="round"/>
<path d="M360.656 142.586L349.635 144.228" stroke="#FF8B63" stroke-width="0.99" stroke-miterlimit="10" stroke-linecap="round"/>
<path d="M531.648 56.5645C530.912 56.7294 529.845 57.0461 528.692 57.6883C528.502 57.7871 528.313 57.8979 528.119 58.0211C526.427 59.0958 525.46 60.3675 524.979 61.1205" stroke="#231F20" stroke-width="0.99" stroke-miterlimit="10" stroke-linecap="round"/>
<path d="M532.793 60.796C532.528 60.4313 532.202 60.0412 531.797 59.6451C530.712 58.6035 529.536 58.014 528.689 57.688" stroke="#231F20" stroke-width="0.99" stroke-miterlimit="10" stroke-linecap="round"/>
</g>
</g>
<defs>
<clipPath id="clip0_8906_21919">
<rect width="589" height="220" rx="32" fill="white"/>
</clipPath>
<clipPath id="clip1_8906_21919">
<rect width="235.121" height="227.454" fill="white" transform="matrix(-0.997057 0.0766591 0.0766591 0.997057 543.43 3)"/>
</clipPath>
</defs>
</svg>
