<svg width="537" height="227" viewBox="0 0 537 227" fill="none" xmlns="http://www.w3.org/2000/svg">
<g clip-path="url(#clip0_8903_20828)">
<rect x="0.8125" width="536" height="227" rx="16" fill="#FF8B63"/>
<g clip-path="url(#clip1_8903_20828)">
<path d="M309.444 139.987C308.985 139.993 308.677 140.438 308.89 140.812L310.647 144.004C310.761 144.206 310.993 144.321 311.242 144.302L313.182 144.152C313.614 144.119 313.877 143.702 313.692 143.343L312.117 140.299C312.017 140.109 311.803 139.981 311.567 139.981L309.444 139.987Z" fill="white"/>
<path d="M305.769 131.6C305.309 131.605 305.008 132.05 305.214 132.425L306.972 135.617C307.086 135.819 307.318 135.933 307.566 135.914L309.507 135.765C309.938 135.732 310.202 135.315 310.023 134.955L308.442 131.912C308.342 131.721 308.128 131.593 307.891 131.593L305.769 131.6Z" fill="white"/>
<path d="M301.53 123.659C301.071 123.664 300.763 124.109 300.976 124.484L302.733 127.676C302.847 127.878 303.079 127.992 303.328 127.973L305.262 127.824C305.7 127.791 305.963 127.373 305.778 127.015L304.203 123.971C304.103 123.78 303.889 123.652 303.653 123.658L301.53 123.659Z" fill="white"/>
<path d="M271.7 100.977C270.677 100.839 269.869 101.792 270.284 102.656C274.168 110.769 288.884 141.533 296.785 158.043C300.036 158.521 303.312 158.985 306.613 159.435C307.537 159.563 308.46 159.684 309.383 159.806C309.627 159.312 309.939 158.752 310.334 158.156L310.224 158.099C309.974 158.088 304.149 157.82 302.575 154.27C301.741 152.397 302.081 149.561 303.347 149.097C303.941 148.871 304.548 149.245 305.203 149.55C308.48 151.061 310.354 149.527 316.174 150.253C318.735 150.567 320.016 150.727 321.346 151.522C322.4 152.151 322.896 152.792 323.404 153.668C315.523 138.702 300.475 110.112 297.827 105.087C297.573 104.608 297.081 104.272 296.503 104.191L289.248 103.106C288.584 103.006 287.977 103.492 288.005 104.116C288.029 104.686 287.541 105.096 287.006 105.137C286.744 105.157 286.476 105.088 286.245 104.907L284.909 103.86C283.825 103.011 282.494 102.458 281.073 102.26L271.693 100.978L271.7 100.977ZM300.981 124.484C300.769 124.109 301.076 123.664 301.536 123.659L303.659 123.658C303.895 123.652 304.109 123.78 304.209 123.971L305.784 127.015C305.969 127.373 305.705 127.791 305.267 127.824L303.333 127.973C303.085 127.992 302.853 127.878 302.739 127.676L300.981 124.484ZM305.22 132.425C305.014 132.05 305.315 131.605 305.775 131.6L307.897 131.593C308.134 131.593 308.347 131.721 308.448 131.912L310.029 134.955C310.208 135.314 309.944 135.732 309.513 135.765L307.572 135.914C307.324 135.933 307.092 135.819 306.977 135.617L305.22 132.425ZM308.895 140.812C308.682 140.438 308.99 139.993 309.45 139.988L311.572 139.981C311.809 139.981 312.022 140.109 312.122 140.299L313.697 143.343C313.883 143.702 313.619 144.119 313.188 144.153L311.247 144.302C310.999 144.321 310.766 144.206 310.652 144.005L308.895 140.812Z" fill="white"/>
<path d="M435.359 210.311L435.373 210.328C436.755 211.022 438.136 211.716 439.523 212.41C439.421 211.25 439.264 209.812 438.986 208.161L438.934 208.165C437.73 208.926 436.536 209.637 435.359 210.311Z" fill="#FF8B63"/>
<path d="M415.93 119.273L415.813 123.903C417.383 121.153 418.96 118.409 420.529 115.659C419.132 113.047 417.631 110.785 416.195 108.862C416.107 112.335 416.018 115.801 415.93 119.273Z" fill="#FF8B63"/>
<path d="M325.127 152.734C324.387 153.026 323.809 153.377 323.404 153.667C323.919 154.548 324.439 155.669 325.554 157.262C328.449 161.408 330.225 161.422 331.855 164.756C331.964 164.982 332.067 165.203 332.156 165.425C332.984 167.389 333.161 169.18 333.193 170.363C333.928 170.776 335.164 171.457 336.715 172.234C339.634 173.694 352.764 180.158 373.444 183.165C376.348 183.585 380.622 184.117 385.872 184.429C386.814 177.022 388.264 171.008 389.435 166.833C389.781 165.603 390.19 164.164 390.677 162.556L390.658 162.557C388.766 166.078 386.868 169.6 384.976 173.126C377.597 171.353 369.527 168.977 361.011 165.763C356.543 164.079 352.366 162.325 348.476 160.542C346.874 157.494 342.853 151.017 334.629 147.323C332.321 146.285 330.104 145.661 328.142 145.276C325.437 144.54 322.738 143.809 320.027 143.079L325.133 152.734L325.127 152.734Z" fill="white"/>
<path d="M321.789 194.314C322.562 194.79 323.452 195.258 324.477 195.672C326.438 196.472 328.293 196.835 329.817 196.994C333.125 198.816 337.984 201.402 343.99 204.286C358.922 211.447 370.313 216.913 381.349 219.65C384.679 220.477 387.977 221.054 391.326 221.356C397.964 221.947 414.404 222.313 435.363 210.311C436.54 209.637 437.734 208.925 438.938 208.171L438.99 208.167C437.956 201.899 435.304 192.53 428.176 183.175C421.099 173.881 412.661 168.61 407.613 165.953C406.052 167.277 404.498 168.605 402.936 169.923C397.248 174.764 391.553 179.595 385.871 184.43C380.621 184.117 376.347 183.586 373.443 183.165C352.763 180.158 339.633 173.695 336.715 172.235C335.163 171.457 333.927 170.776 333.192 170.363C333.16 169.181 332.983 167.389 332.155 165.425C332.066 165.203 331.963 164.983 331.854 164.756C330.224 161.422 328.448 161.408 325.553 157.263C324.438 155.67 323.918 154.548 323.403 153.667C322.896 152.792 322.399 152.15 321.345 151.521C320.016 150.727 318.735 150.567 316.173 150.252C310.353 149.527 308.48 151.06 305.202 149.55C304.547 149.245 303.94 148.87 303.346 149.097C302.081 149.561 301.74 152.397 302.574 154.27C304.148 157.819 309.973 158.088 310.223 158.098L310.333 158.156C309.939 158.752 309.627 159.311 309.382 159.806C308.459 159.684 307.536 159.562 306.613 159.435C303.311 158.985 300.035 158.521 296.784 158.043C295.688 157.886 294.597 157.723 293.506 157.555C291.465 157.254 289.437 156.941 287.414 156.627L284.333 150.065L283.932 150.228C283.291 150.873 282.413 151.849 281.553 153.149C280.405 154.886 278.627 157.573 278.959 160.015C279.374 163.021 282.976 165.584 287.656 166.608C289.392 169.182 291.126 171.901 292.839 174.778C293.714 176.245 294.556 177.702 295.35 179.139C295.232 180.935 295.528 182.399 295.987 183.579C298.6 190.381 308.933 194.406 321.771 194.334L321.789 194.314Z" fill="white"/>
<path d="M430.585 108.977C429.947 109.646 429.333 110.379 428.751 111.188C424.572 117.027 424.809 123.531 425.29 127.044L425.537 127.187C428.007 123.658 430.524 120.318 433.042 117.164C445.453 112.058 458.183 107.162 471.247 102.506C471.682 102.352 472.111 102.199 472.546 102.045L472.392 101.666C472.345 99.7739 472.328 97.8438 472.347 95.8629C472.374 91.7754 472.539 87.5029 472.874 83.0608C473.145 79.3998 473.518 75.8814 473.968 72.5015C479.243 71.4281 483.325 67.9314 484.38 63.6085C485.308 59.7826 483.815 55.4992 481.202 52.9625C479.858 51.6518 478.216 50.8094 476.455 50.7282C471.937 50.528 466.417 55.3266 466.086 62.4759C464.092 62.0998 462.104 61.7231 460.11 61.347C460.597 60.2446 461.232 58.511 461.452 56.3281C461.645 54.4662 462.249 48.5594 457.773 44.5474C454.737 41.8265 450.888 41.3463 449.198 41.2417C449.479 40.1972 449.687 38.8876 449.599 37.4022C449.332 32.8139 446.455 29.6837 445.276 28.5349C440.065 28.719 432.684 29.6656 424.825 33.1217C422.308 34.2298 420.094 35.4409 418.162 36.6484C416.763 36.064 415.364 35.4796 413.972 34.8948L413.88 35.0703C413.591 39.5148 411.459 77.3617 427.187 88.4627C428.397 89.3203 429.651 89.988 430.754 90.4868C430.857 92.2539 430.924 94.0598 430.954 95.9046C430.969 96.7037 430.978 97.4972 430.979 98.2853C430.988 101.991 430.848 105.558 430.592 108.977L430.585 108.977ZM416.675 55.6072C416.489 53.1847 417.227 51.1605 418.325 51.0761C419.423 50.9917 420.462 52.8793 420.648 55.3017C420.834 57.7242 420.096 59.7425 418.998 59.8269C417.9 59.9113 416.861 58.0237 416.675 55.6072ZM426.388 69.1803C427.517 69.1596 429.508 68.9825 431.666 67.9803C433.138 67.2955 434.198 66.4619 434.886 65.8254C435.989 68.9836 433.837 71.9348 431.392 72.2852C429.52 72.5555 427.329 71.3221 426.388 69.1803ZM434.174 54.2618C433.988 51.8393 434.817 49.808 436.033 49.7146C437.248 49.6212 438.372 51.5022 438.558 53.9247C438.745 56.3472 437.914 58.3724 436.706 58.4654C435.497 58.5583 434.36 56.6783 434.174 54.2618Z" fill="white"/>
<path d="M381.345 219.651C381.48 220.561 381.789 222.017 382.591 223.634C384.277 227.018 387.375 229.518 391.366 231.335C391.353 228.002 391.341 224.682 391.322 221.356C387.973 221.054 384.675 220.477 381.345 219.651Z" fill="#FF8B63"/>
<path d="M264.138 101.655C263.098 102.74 262.828 104.271 263.441 105.583L284.332 150.065L287.413 156.627C289.435 156.941 291.464 157.255 293.505 157.555L266.445 101.478C265.984 100.532 266.216 99.5276 266.846 98.8234L264.138 101.655Z" fill="#231F20"/>
<path d="M266.848 98.8231C266.218 99.5273 265.986 100.532 266.447 101.477L293.507 157.555C294.598 157.723 295.689 157.886 296.785 158.043C288.884 141.532 274.168 110.769 270.284 102.656C269.869 101.792 270.677 100.839 271.7 100.977L281.079 102.26C282.501 102.457 283.832 103.011 284.916 103.86L286.252 104.906C286.483 105.087 286.751 105.157 287.012 105.137C287.548 105.095 288.036 104.685 288.012 104.115C287.983 103.492 288.59 103.006 289.255 103.105L296.509 104.19C297.088 104.272 297.58 104.607 297.834 105.087C300.481 110.112 315.529 138.702 323.411 153.667C323.816 153.377 324.393 153.026 325.133 152.734L320.027 143.079L320.02 143.08L300.095 105.424C298.918 103.204 296.631 101.665 293.96 101.293L269.445 97.9014C268.389 97.7539 267.447 98.1573 266.848 98.8231Z" fill="white"/>
<path d="M385.871 184.43C391.553 179.595 397.248 174.765 402.936 169.923C407.77 157.139 414.726 142.796 424.913 128.084C424.984 127.982 425.062 127.874 425.133 127.772C424.705 125.976 424.151 124.069 423.413 122.074C422.557 119.745 421.577 117.6 420.534 115.659C418.964 118.409 417.387 121.153 415.817 123.903L415.934 119.273C414.533 120.711 412.34 123.046 409.877 126.069C398.512 139.993 393.346 153.838 390.677 162.556C390.189 164.164 389.781 165.604 389.435 166.834C388.264 171.009 386.813 177.023 385.871 184.43Z" fill="#FF8B63"/>
<path d="M474.889 219.757C475.617 219.141 476.092 218.563 476.286 218.091C476.714 217.083 476.776 216.092 476.776 216.092C476.823 215.336 476.709 214.707 476.605 214.288C482.74 209.454 489.84 202.374 495.203 192.54C495.203 192.54 508.597 167.978 498.857 138.583C497.618 134.864 495.507 128.702 489.786 122.933C488.409 119.898 486.209 116.072 482.663 112.278C481.16 110.678 479.656 109.326 478.214 108.179C474.758 113.842 461.082 122.938 441.811 132.259C438.893 127.225 435.97 122.197 433.046 117.163C430.527 120.317 428.011 123.658 425.541 127.187C425.405 127.378 425.268 127.575 425.132 127.772C425.061 127.873 424.984 127.982 424.913 128.083C414.726 142.795 407.77 157.139 402.936 169.923C404.498 168.605 406.052 167.277 407.613 165.953C412.662 168.61 421.099 173.881 428.176 183.175C435.304 192.53 437.957 201.899 438.99 208.161C439.268 209.812 439.425 211.25 439.527 212.41C438.14 211.716 436.759 211.022 435.378 210.328L435.363 210.311C414.405 222.313 397.964 221.947 391.326 221.356C391.345 224.682 391.357 228.002 391.37 231.329C406.573 238.252 434.819 235.292 448.329 233.875C448.329 233.875 472.989 231.287 476.035 223.887C476.981 221.576 476.117 220.511 476.117 220.511C475.768 220.074 475.259 219.867 474.889 219.757Z" fill="#FF8B63"/>
<path d="M476.236 23.1403C477.011 22.106 477.788 20.6804 477.657 19.0599C477.113 12.0682 460.211 7.24262 450.018 6.74477C426.167 5.58217 407.965 26.5843 404.378 30.8852L413.974 34.8947C415.366 35.4795 416.765 36.0639 418.164 36.6483C420.096 35.4408 422.31 34.2297 424.828 33.1216C432.686 29.6655 440.067 28.7189 445.278 28.5349C446.457 29.6836 449.334 32.8138 449.601 37.4021C449.689 38.8875 449.481 40.1971 449.2 41.2416C450.89 41.3462 454.74 41.8264 457.775 44.5473C462.251 48.5593 461.647 54.4661 461.455 56.328C461.235 58.5109 460.599 60.2445 460.112 61.3469C462.106 61.723 464.094 62.0997 466.088 62.4758C466.419 55.3266 471.939 50.5279 476.457 50.7281C478.218 50.8093 479.861 51.6517 481.204 52.9624C481.557 52.6043 490.093 43.7652 486.59 33.764C486.059 32.2525 483.842 26.6649 477.493 23.6754C477.07 23.4733 476.648 23.2951 476.236 23.1403Z" fill="#FF8B63"/>
<path d="M422.408 103.108C419.696 105.11 417.665 107.155 416.199 108.862C417.635 110.785 419.137 113.047 420.534 115.659C421.577 117.6 422.557 119.745 423.413 122.074C424.151 124.069 424.705 125.976 425.133 127.772C425.269 127.575 425.405 127.378 425.541 127.187L425.294 127.043C424.813 123.53 424.576 117.027 428.754 111.188C429.336 110.379 429.95 109.646 430.589 108.977C430.846 105.558 430.985 101.991 430.977 98.2856C428.6 99.2626 425.562 100.778 422.408 103.108Z" fill="#FF8B63"/>
<path d="M418.326 51.0761C417.228 51.1605 416.49 53.1847 416.676 55.6072C416.863 58.0296 417.901 59.9112 418.999 59.8268C420.097 59.7424 420.835 57.7182 420.649 55.3017C420.463 52.8852 419.424 50.9917 418.326 51.0761Z" fill="#231F20"/>
<path d="M472.546 102.045C472.111 102.198 471.682 102.352 471.247 102.506C458.183 107.162 445.453 112.058 433.042 117.164C435.966 122.197 438.89 127.225 441.807 132.26C461.079 122.938 474.754 113.842 478.21 108.179C478.636 107.479 478.902 106.839 479.008 106.253C479.581 103.098 478.435 100.762 478.435 100.762C476.946 97.7233 473.739 96.3634 472.347 95.8628C472.328 97.8437 472.345 99.7738 472.392 101.665L472.546 102.045Z" fill="#FF8B63"/>
<path d="M436.03 49.7147C434.814 49.8081 433.985 51.8394 434.171 54.2619C434.357 56.6843 435.487 58.5589 436.703 58.4655C437.918 58.372 438.741 56.3413 438.555 53.9248C438.37 51.5083 437.239 49.6217 436.03 49.7147Z" fill="#231F20"/>
<path d="M413.878 35.0703C413.588 39.5148 411.457 77.3616 427.185 88.4627C428.394 89.3203 429.649 89.988 430.752 90.4868C432.7 91.3719 434.187 91.7449 434.187 91.7449C447.424 95.0653 460.43 84.0956 462.741 82.0948" stroke="#231F20" stroke-width="0.99" stroke-miterlimit="10" stroke-linecap="round"/>
<path d="M449.01 23.0071C446.995 23.5591 445.472 24.8735 445.116 26.4833C444.931 27.3159 445.099 28.049 445.274 28.5349C446.454 29.6837 449.33 32.8139 449.597 37.4022C449.685 38.8875 449.477 40.1972 449.196 41.2416C450.886 41.3463 454.736 41.8265 457.771 44.5473C462.247 48.5594 461.643 54.4661 461.451 56.328C461.231 58.511 460.595 60.2445 460.108 61.347C462.102 61.7231 464.09 62.0998 466.084 62.4759C466.415 55.3266 471.935 50.528 476.453 50.7282C478.214 50.8094 479.857 51.6518 481.2 52.9625C483.814 55.4991 485.306 59.7826 484.378 63.6084C483.323 67.9313 479.241 71.4281 473.967 72.5015C473.517 75.8814 473.143 79.3998 472.872 83.0608C472.537 87.5029 472.372 91.7754 472.345 95.8628C472.326 97.8438 472.343 99.7739 472.39 101.666" stroke="#231F20" stroke-width="0.99" stroke-miterlimit="10" stroke-linecap="round"/>
<path d="M469.9 21.8763C471.384 21.9307 473.696 22.1681 476.235 23.1401C476.648 23.2949 477.069 23.4731 477.492 23.6752C483.842 26.6647 486.059 32.2523 486.589 33.7638C490.093 43.7651 481.557 52.6041 481.203 52.9622" stroke="#231F20" stroke-width="0.99" stroke-miterlimit="10" stroke-linecap="round"/>
<path d="M476.237 23.14C477.012 22.1057 477.79 20.6801 477.659 19.0597C477.114 12.0679 460.213 7.24236 450.019 6.74451C426.169 5.58191 407.967 26.584 404.38 30.885L413.976 34.8944C415.368 35.4793 416.767 36.0637 418.166 36.648C420.097 35.4406 422.311 34.2294 424.829 33.1213C432.687 29.6652 440.068 28.7187 445.28 28.5346" stroke="#231F20" stroke-width="0.99" stroke-miterlimit="10" stroke-linecap="round"/>
<path d="M482.688 16.772C482.522 17.5248 482.165 18.6112 481.35 19.7267C479.644 22.0721 477.105 22.8991 476.236 23.1403" stroke="#231F20" stroke-width="0.99" stroke-miterlimit="10" stroke-linecap="round"/>
<path d="M486.748 24.5519C486.182 24.3727 485.59 24.2016 484.974 24.0505C481.771 23.2498 478.785 23.0582 476.234 23.14" stroke="#231F20" stroke-width="0.99" stroke-miterlimit="10" stroke-linecap="round"/>
<path d="M434.884 65.8253C434.197 66.4617 433.137 67.2953 431.664 67.9801C429.507 68.9823 427.516 69.1595 426.387 69.1801C427.327 71.322 429.518 72.5554 431.391 72.2851C433.835 71.9347 435.988 68.9834 434.884 65.8253Z" fill="white" stroke="#231F20" stroke-width="0.99" stroke-miterlimit="10" stroke-linecap="round"/>
<path d="M430.477 70.5327C429.647 70.765 428.81 71.0038 427.98 71.2361" stroke="#231F20" stroke-width="0.99" stroke-miterlimit="10" stroke-linecap="round"/>
<path d="M422.848 60.4092C422.571 60.8216 422.154 61.3891 421.584 62.0106C420.912 62.7542 420.586 62.9658 420.637 63.1965C420.714 63.5155 421.517 63.7907 424.487 63.6947" stroke="#231F20" stroke-width="0.99" stroke-miterlimit="10" stroke-linecap="round"/>
<path d="M441.709 46.4203C441.264 45.8528 440.44 44.9655 439.116 44.237C437.928 43.5822 436.81 43.3192 436.091 43.2" stroke="#231F20" stroke-width="0.99" stroke-miterlimit="10" stroke-linecap="round"/>
<path d="M418.422 43.373C418.154 43.3936 417.779 43.4706 417.407 43.6857C416.307 44.3299 416.268 45.6205 416.265 45.759" stroke="#231F20" stroke-width="0.99" stroke-miterlimit="10" stroke-linecap="round"/>
<path d="M430.977 98.2856C430.985 101.991 430.846 105.558 430.589 108.977C430.524 109.921 430.445 110.859 430.358 111.781" stroke="#231F20" stroke-width="0.99" stroke-miterlimit="10" stroke-linecap="round"/>
<path d="M430.758 90.4868C430.861 92.2538 430.927 94.0598 430.957 95.9046C430.973 96.7036 430.981 97.4972 430.983 98.2853" stroke="#231F20" stroke-width="0.99" stroke-miterlimit="10" stroke-linecap="round"/>
<path d="M474.031 101.516C473.539 101.692 473.04 101.869 472.547 102.045C472.112 102.199 471.683 102.352 471.248 102.506C458.184 107.162 445.455 112.058 433.043 117.164C430.525 120.318 428.008 123.658 425.539 127.187C425.402 127.378 425.266 127.575 425.13 127.772C425.059 127.874 424.982 127.982 424.911 128.084C414.723 142.796 407.768 157.139 402.934 169.923" stroke="#231F20" stroke-width="0.99" stroke-miterlimit="10" stroke-linecap="round"/>
<path d="M478.211 108.18C474.755 113.842 461.08 122.938 441.808 132.26C438.891 127.225 435.967 122.198 433.043 117.164" stroke="#231F20" stroke-width="0.99" stroke-miterlimit="10" stroke-linecap="round"/>
<path d="M472.347 95.8628C473.739 96.3634 476.946 97.7233 478.435 100.762C478.435 100.762 479.581 103.098 479.008 106.253C478.902 106.839 478.636 107.479 478.21 108.174" stroke="#231F20" stroke-width="0.99" stroke-miterlimit="10" stroke-linecap="round"/>
<path d="M430.977 98.2852C428.6 99.2621 425.562 100.777 422.408 103.108C419.696 105.109 417.665 107.154 416.199 108.862C416.111 112.334 416.023 115.8 415.935 119.273L415.817 123.903C417.387 121.153 418.964 118.408 420.534 115.658" stroke="#231F20" stroke-width="0.99" stroke-miterlimit="10" stroke-linecap="round"/>
<path d="M425.131 127.772C424.703 125.976 424.149 124.069 423.411 122.074C422.555 119.745 421.575 117.6 420.532 115.659C419.135 113.047 417.633 110.785 416.197 108.862" stroke="#231F20" stroke-width="0.99" stroke-miterlimit="10" stroke-linecap="round"/>
<path d="M430.586 108.977C429.947 109.646 429.333 110.379 428.751 111.188C424.573 117.027 424.81 123.53 425.29 127.043" stroke="#231F20" stroke-width="0.99" stroke-miterlimit="10" stroke-linecap="round"/>
<path d="M478.21 108.173C479.652 109.326 481.156 110.678 482.659 112.278C486.205 116.072 488.405 119.898 489.782 122.933" stroke="#231F20" stroke-width="0.99" stroke-miterlimit="10" stroke-linecap="round"/>
<path d="M476.602 214.289C473.292 216.896 470.267 218.843 467.948 220.225" stroke="#231F20" stroke-width="0.99" stroke-miterlimit="10" stroke-linecap="round"/>
<path d="M482.658 117.338C484.699 118.577 486.947 120.197 489.154 122.314C489.367 122.52 489.58 122.727 489.786 122.933C495.508 128.703 497.618 134.864 498.857 138.583C508.597 167.978 495.204 192.54 495.204 192.54C489.84 202.374 482.741 209.454 476.605 214.282" stroke="#231F20" stroke-width="0.99" stroke-miterlimit="10" stroke-linecap="round"/>
<path d="M476.6 214.282C476.705 214.707 476.819 215.336 476.772 216.092C476.772 216.092 476.71 217.083 476.282 218.091C476.088 218.563 475.613 219.141 474.885 219.757C473.43 221.006 470.963 222.429 467.722 223.533" stroke="#231F20" stroke-width="0.99" stroke-miterlimit="10" stroke-linecap="round"/>
<path d="M381.349 219.651C381.485 220.561 381.794 222.017 382.595 223.634C384.282 227.018 387.379 229.518 391.371 231.335C406.573 238.253 434.819 235.293 448.329 233.875C448.329 233.875 472.989 231.287 476.035 223.887C476.981 221.576 476.117 220.511 476.117 220.511C475.768 220.075 475.259 219.867 474.889 219.757" stroke="#231F20" stroke-width="0.99" stroke-miterlimit="10" stroke-linecap="round"/>
<path d="M492.328 185.619C491.379 187.208 490.016 189.058 488.049 190.827C482.013 196.273 474.52 197.222 471.652 197.449C469.057 199.261 466.168 201.095 462.973 202.875C454.489 207.595 446.361 210.536 439.524 212.41" stroke="#231F20" stroke-width="0.99" stroke-miterlimit="10" stroke-linecap="round"/>
<path d="M441.514 140.254C437.357 142.349 432.848 144.916 428.2 148.065C419.304 154.098 412.564 160.47 407.609 165.954C406.048 167.277 404.494 168.606 402.932 169.923C397.244 174.765 391.549 179.595 385.867 184.43C380.617 184.118 376.344 183.586 373.439 183.165C352.759 180.158 339.629 173.695 336.711 172.235C335.159 171.458 333.923 170.776 333.188 170.364C333.156 169.181 332.979 167.389 332.151 165.425C332.062 165.204 331.96 164.983 331.85 164.757C330.22 161.422 328.444 161.409 325.549 157.263C324.434 155.67 323.914 154.549 323.399 153.668C322.892 152.792 322.395 152.151 321.341 151.522C320.012 150.727 318.731 150.567 316.17 150.253C310.349 149.527 308.476 151.061 305.198 149.55C304.544 149.245 303.936 148.871 303.342 149.097C302.077 149.561 301.736 152.397 302.57 154.27C304.145 157.82 309.969 158.088 310.22 158.099" stroke="#231F20" stroke-width="0.99" stroke-miterlimit="10" stroke-linecap="round"/>
<path d="M313.406 154.87C312.904 155.263 312.362 155.738 311.827 156.297C311.231 156.926 310.741 157.559 310.333 158.156C309.939 158.752 309.627 159.312 309.382 159.806" stroke="#231F20" stroke-width="0.99" stroke-miterlimit="10" stroke-linecap="round"/>
<path d="M312.254 160.192C311.298 160.067 310.342 159.942 309.379 159.806C308.456 159.684 307.533 159.562 306.609 159.435C303.308 158.985 300.032 158.521 296.781 158.042C295.684 157.886 294.594 157.723 293.503 157.554C291.462 157.254 289.433 156.941 287.411 156.627" stroke="#231F20" stroke-width="0.99" stroke-miterlimit="10" stroke-linecap="round"/>
<path d="M283.933 150.229C283.292 150.874 282.414 151.85 281.554 153.149C280.406 154.886 278.628 157.574 278.96 160.015C279.375 163.022 282.977 165.585 287.657 166.609C289.393 169.183 291.127 171.901 292.84 174.778C293.715 176.245 294.557 177.703 295.351 179.14C295.518 179.434 295.679 179.728 295.839 180.023" stroke="#231F20" stroke-width="0.99" stroke-miterlimit="10" stroke-linecap="round"/>
<path d="M295.349 179.14C295.23 180.936 295.527 182.399 295.986 183.579C298.599 190.382 308.932 194.407 321.77 194.334" stroke="#231F20" stroke-width="0.99" stroke-miterlimit="10" stroke-linecap="round"/>
<path d="M319.564 192.716C320.14 193.201 320.873 193.759 321.783 194.314C322.556 194.791 323.447 195.258 324.471 195.672C326.432 196.472 328.287 196.835 329.811 196.994C330.712 197.088 331.496 197.112 332.12 197.106" stroke="#231F20" stroke-width="0.99" stroke-miterlimit="10" stroke-linecap="round"/>
<path d="M329.812 196.995C333.12 198.816 337.979 201.403 343.985 204.286C358.917 211.447 370.307 216.913 381.343 219.651C384.674 220.478 387.972 221.054 391.321 221.356C397.959 221.947 414.399 222.314 435.358 210.311C436.535 209.637 437.729 208.926 438.933 208.171" stroke="#231F20" stroke-width="0.99" stroke-miterlimit="10" stroke-linecap="round"/>
<path d="M407.613 165.953C412.662 168.61 421.099 173.882 428.176 183.175C435.304 192.53 437.957 201.899 438.99 208.161C439.269 209.812 439.425 211.25 439.527 212.41C438.14 211.716 436.759 211.022 435.378 210.328" stroke="#231F20" stroke-width="0.99" stroke-miterlimit="10" stroke-linecap="round"/>
<path d="M415.93 119.273C414.528 120.711 412.335 123.046 409.873 126.069C398.507 139.993 393.341 153.838 390.672 162.557C390.184 164.164 389.776 165.604 389.43 166.834C388.259 171.009 386.809 177.023 385.866 184.43" stroke="#231F20" stroke-width="0.99" stroke-miterlimit="10" stroke-linecap="round"/>
<path d="M449.474 137.265C451.095 136.545 453.438 135.727 456.353 135.425C462.157 134.828 466.661 136.648 468.612 137.575" stroke="#231F20" stroke-width="0.99" stroke-miterlimit="10" stroke-linecap="round"/>
<path d="M327.633 152.169C327.201 152.196 326.7 152.265 326.158 152.397C325.791 152.491 325.445 152.608 325.133 152.734C324.393 153.026 323.815 153.377 323.41 153.667" stroke="#231F20" stroke-width="0.99" stroke-miterlimit="10" stroke-linecap="round"/>
<path d="M337.07 160.011C337.115 160.513 337.147 161.702 336.386 162.915C335.057 165.033 332.468 165.389 332.149 165.425" stroke="#231F20" stroke-width="0.99" stroke-miterlimit="10" stroke-linecap="round"/>
<path d="M320.014 143.079L300.088 105.424C298.912 103.204 296.625 101.665 293.954 101.293L269.439 97.9013C268.383 97.7538 267.441 98.1572 266.841 98.823C266.212 99.5272 265.98 100.532 266.441 101.477L293.501 157.555" stroke="#231F20" stroke-width="0.99" stroke-miterlimit="10" stroke-linecap="round"/>
<path d="M325.127 152.735L320.021 143.079" stroke="#231F20" stroke-width="0.99" stroke-miterlimit="10" stroke-linecap="round"/>
<path d="M266.847 98.8232L264.139 101.655C263.099 102.739 262.829 104.27 263.442 105.583L284.333 150.065L287.414 156.627" stroke="#231F20" stroke-width="0.99" stroke-miterlimit="10" stroke-linecap="round"/>
<path d="M320.016 143.08L320.023 143.079C322.734 143.809 325.433 144.54 328.138 145.277C330.1 145.662 332.317 146.285 334.625 147.323C342.849 151.017 346.871 157.495 348.472 160.542C352.362 162.325 356.539 164.08 361.007 165.764C369.523 168.978 377.593 171.354 384.973 173.127C386.864 169.6 388.762 166.079 390.653 162.552" stroke="#231F20" stroke-width="0.99" stroke-miterlimit="10" stroke-linecap="round"/>
<path d="M391.32 221.356C391.339 224.682 391.351 228.003 391.364 231.329" stroke="#231F20" stroke-width="0.99" stroke-miterlimit="10" stroke-linecap="round"/>
<path d="M462.181 144.659C465.439 146.081 470.153 148.667 474.115 153.26C479.412 159.411 481.552 167.068 480.582 167.521C480.049 167.773 478.179 166.027 472.347 157.367" stroke="#231F20" stroke-width="0.99" stroke-miterlimit="10" stroke-linecap="round"/>
<path d="M323.404 153.667C315.523 138.702 300.475 110.112 297.827 105.087C297.573 104.607 297.081 104.272 296.503 104.19L289.248 103.105C288.584 103.006 287.977 103.492 288.005 104.115C288.029 104.685 287.541 105.096 287.006 105.137C286.744 105.157 286.476 105.087 286.245 104.906L284.909 103.86C283.825 103.011 282.494 102.457 281.073 102.26L271.693 100.977C270.67 100.839 269.863 101.792 270.278 102.656C274.161 110.769 288.877 141.533 296.779 158.043" stroke="#231F20" stroke-width="0.99" stroke-miterlimit="10" stroke-linecap="round"/>
<path d="M296.998 108.881L276.5 107.72" stroke="#FF8B63" stroke-width="0.99" stroke-miterlimit="10" stroke-linecap="round"/>
<path d="M299.719 114.713L279.594 114.208" stroke="#FF8B63" stroke-width="0.99" stroke-miterlimit="10" stroke-linecap="round"/>
<path d="M302.441 120.551L282.701 120.697" stroke="#FF8B63" stroke-width="0.99" stroke-miterlimit="10" stroke-linecap="round"/>
<path d="M303.653 123.658L301.53 123.659C301.071 123.664 300.763 124.109 300.976 124.484L302.733 127.676C302.847 127.878 303.079 127.992 303.328 127.973L305.262 127.824C305.7 127.791 305.963 127.373 305.778 127.015L304.203 123.971C304.103 123.78 303.889 123.652 303.653 123.658Z" stroke="#FF8B63" stroke-width="0.99" stroke-miterlimit="10" stroke-linecap="round"/>
<path d="M300.125 126.258L287.34 126.94" stroke="#FF8B63" stroke-width="0.99" stroke-miterlimit="10" stroke-linecap="round"/>
<path d="M307.891 131.593L305.769 131.6C305.309 131.605 305.008 132.05 305.214 132.425L306.972 135.617C307.086 135.819 307.318 135.933 307.566 135.914L309.507 135.765C309.938 135.732 310.202 135.315 310.023 134.955L308.442 131.912C308.342 131.721 308.128 131.593 307.891 131.593Z" stroke="#FF8B63" stroke-width="0.99" stroke-miterlimit="10" stroke-linecap="round"/>
<path d="M304.359 134.199L292.441 135.116" stroke="#FF8B63" stroke-width="0.99" stroke-miterlimit="10" stroke-linecap="round"/>
<path d="M311.567 139.981L309.444 139.987C308.985 139.993 308.677 140.438 308.89 140.812L310.647 144.004C310.761 144.206 310.993 144.321 311.242 144.302L313.182 144.152C313.614 144.119 313.877 143.702 313.692 143.343L312.117 140.299C312.017 140.109 311.803 139.981 311.567 139.981Z" stroke="#FF8B63" stroke-width="0.99" stroke-miterlimit="10" stroke-linecap="round"/>
<path d="M308.039 142.587L297.018 144.229" stroke="#FF8B63" stroke-width="0.99" stroke-miterlimit="10" stroke-linecap="round"/>
<path d="M479.031 56.5649C478.295 56.7299 477.228 57.0466 476.074 57.6888C475.885 57.7876 475.696 57.8984 475.502 58.0216C473.81 59.0963 472.843 60.368 472.362 61.121" stroke="#231F20" stroke-width="0.99" stroke-miterlimit="10" stroke-linecap="round"/>
<path d="M480.176 60.797C479.911 60.4322 479.585 60.0421 479.18 59.6461C478.094 58.6044 476.919 58.015 476.072 57.689" stroke="#231F20" stroke-width="0.99" stroke-miterlimit="10" stroke-linecap="round"/>
</g>
<path d="M47.9707 49.002C49.1751 49.002 50.0605 48.7936 50.627 48.377C51.1934 47.9603 51.4798 47.3711 51.4863 46.6094C51.4863 45.9062 51.2454 45.3691 50.7637 44.998C50.2884 44.627 49.5625 44.4414 48.5859 44.4414H45.7441V42.4395H48.4199C49.3379 42.4395 50.015 42.2669 50.4512 41.9219C50.8874 41.5768 51.1055 41.0755 51.1055 40.418C51.1055 39.7604 50.8451 39.2559 50.3242 38.9043C49.8034 38.5527 48.9928 38.377 47.8926 38.377C46.7337 38.377 45.8581 38.582 45.2656 38.9922C44.6732 39.4023 44.3737 40.0339 44.3672 40.8867V41.0332H41.6719V40.8965C41.6784 39.4512 42.2025 38.3249 43.2441 37.5176C44.2923 36.7038 45.8548 36.2969 47.9316 36.2969C49.8132 36.2969 51.2617 36.6322 52.2773 37.3027C53.293 37.9668 53.8008 38.9271 53.8008 40.1836C53.8008 41.0365 53.5664 41.7168 53.0977 42.2246C52.6354 42.7324 52.0625 43.0905 51.3789 43.2988V43.3379C52.2122 43.5332 52.8893 43.9141 53.4102 44.4805C53.9375 45.0404 54.2012 45.776 54.2012 46.6875C54.2012 48.0742 53.6576 49.1549 52.5703 49.9297C51.4896 50.6979 49.9694 51.082 48.0098 51.082C45.9329 51.082 44.3281 50.7044 43.1953 49.9492C42.069 49.194 41.4993 47.9831 41.4863 46.3164V46.1797H44.1816L44.1914 46.3066C44.1914 47.2376 44.5072 47.9212 45.1387 48.3574C45.7702 48.7871 46.7142 49.002 47.9707 49.002ZM54.8652 50.7988L61.0469 36.5117H63.7129L69.9043 50.7988H66.9551L62.8438 40.7207C62.7201 40.4277 62.6159 40.1478 62.5312 39.8809C62.4466 39.6074 62.3685 39.347 62.2969 39.0996H62.1992C62.1211 39.347 62.0397 39.6074 61.9551 39.8809C61.8704 40.1543 61.7695 40.4342 61.6523 40.7207L57.5117 50.7988H54.8652ZM57.7266 47.4688L58.4883 45.4473H66.1445L66.9062 47.4688H57.7266ZM81.4277 50.7988L74.8848 43.9824L76.8574 42.5762L84.7578 50.7988H81.4277ZM72.7461 42.4199H75.4121L81.3301 36.5801H84.2695L75.9785 44.5293H72.7461V42.4199ZM71.3887 50.7988V36.5801H74.1035V50.7988H71.3887ZM84.1621 50.7988L90.3438 36.5117H93.0098L99.2012 50.7988H96.252L92.1406 40.7207C92.0169 40.4277 91.9128 40.1478 91.8281 39.8809C91.7435 39.6074 91.6654 39.347 91.5938 39.0996H91.4961C91.418 39.347 91.3366 39.6074 91.252 39.8809C91.1673 40.1543 91.0664 40.4342 90.9492 40.7207L86.8086 50.7988H84.1621ZM87.0234 47.4688L87.7852 45.4473H95.4414L96.2031 47.4688H87.0234ZM106.232 49.002C107.437 49.002 108.322 48.7936 108.889 48.377C109.455 47.9603 109.742 47.3711 109.748 46.6094C109.748 45.9062 109.507 45.3691 109.025 44.998C108.55 44.627 107.824 44.4414 106.848 44.4414H104.006V42.4395H106.682C107.6 42.4395 108.277 42.2669 108.713 41.9219C109.149 41.5768 109.367 41.0755 109.367 40.418C109.367 39.7604 109.107 39.2559 108.586 38.9043C108.065 38.5527 107.255 38.377 106.154 38.377C104.995 38.377 104.12 38.582 103.527 38.9922C102.935 39.4023 102.635 40.0339 102.629 40.8867V41.0332H99.9336V40.8965C99.9401 39.4512 100.464 38.3249 101.506 37.5176C102.554 36.7038 104.117 36.2969 106.193 36.2969C108.075 36.2969 109.523 36.6322 110.539 37.3027C111.555 37.9668 112.062 38.9271 112.062 40.1836C112.062 41.0365 111.828 41.7168 111.359 42.2246C110.897 42.7324 110.324 43.0905 109.641 43.2988V43.3379C110.474 43.5332 111.151 43.9141 111.672 44.4805C112.199 45.0404 112.463 45.776 112.463 46.6875C112.463 48.0742 111.919 49.1549 110.832 49.9297C109.751 50.6979 108.231 51.082 106.271 51.082C104.195 51.082 102.59 50.7044 101.457 49.9492C100.331 49.194 99.7611 47.9831 99.748 46.3164V46.1797H102.443L102.453 46.3066C102.453 47.2376 102.769 47.9212 103.4 48.3574C104.032 48.7871 104.976 49.002 106.232 49.002ZM117.307 40.4277C117.307 41.5866 117.583 42.3581 118.137 42.7422C118.69 43.1263 119.654 43.3184 121.027 43.3184C121.913 43.3184 122.714 43.2826 123.43 43.2109C124.152 43.1393 124.875 43.0286 125.598 42.8789V44.9297C124.641 45.125 123.804 45.2552 123.088 45.3203C122.378 45.3789 121.597 45.4082 120.744 45.4082C118.465 45.4082 116.87 45.0208 115.959 44.2461C115.048 43.4714 114.592 42.2311 114.592 40.5254V36.5801H117.307V40.4277ZM126.965 36.5801V50.7988H124.25V36.5801H126.965ZM143.488 50.7988H140.832V41.2773C140.832 41.069 140.835 40.8411 140.842 40.5938C140.848 40.3398 140.858 40.112 140.871 39.9102H140.754C140.656 40.1055 140.559 40.2975 140.461 40.4863C140.37 40.6751 140.24 40.8802 140.07 41.1016L133.068 50.7988H130.197V36.5801H132.863V46.0918C132.863 46.2936 132.857 46.5182 132.844 46.7656C132.837 47.013 132.831 47.2409 132.824 47.4492H132.961C133.033 47.2865 133.12 47.1009 133.225 46.8926C133.335 46.6842 133.462 46.4792 133.605 46.2773L140.617 36.5801H143.488V50.7988ZM156.76 50.7988L150.217 43.9824L152.189 42.5762L160.09 50.7988H156.76ZM148.078 42.4199H150.744L156.662 36.5801H159.602L151.311 44.5293H148.078V42.4199ZM146.721 50.7988V36.5801H149.436V50.7988H146.721ZM159.494 50.7988L165.676 36.5117H168.342L174.533 50.7988H171.584L167.473 40.7207C167.349 40.4277 167.245 40.1478 167.16 39.8809C167.076 39.6074 166.997 39.347 166.926 39.0996H166.828C166.75 39.347 166.669 39.6074 166.584 39.8809C166.499 40.1543 166.398 40.4342 166.281 40.7207L162.141 50.7988H159.494ZM162.355 47.4688L163.117 45.4473H170.773L171.535 47.4688H162.355ZM176.018 50.7988V36.5801H179.23L184.006 46.834C184.104 47.0423 184.201 47.2539 184.299 47.4688C184.396 47.6771 184.471 47.8561 184.523 48.0059H184.582C184.634 47.8561 184.702 47.6771 184.787 47.4688C184.872 47.2539 184.96 47.0423 185.051 46.834L189.885 36.5801H193.166V50.7988H190.49L190.5 41.1504C190.5 40.9486 190.507 40.7337 190.52 40.5059C190.533 40.2715 190.546 40.0566 190.559 39.8613H190.49C190.445 40.0566 190.386 40.2715 190.314 40.5059C190.249 40.7337 190.171 40.9486 190.08 41.1504L185.568 50.7988H183.264L178.771 41.1504C178.674 40.9551 178.589 40.7435 178.518 40.5156C178.446 40.2812 178.387 40.0632 178.342 39.8613H178.273C178.286 40.0632 178.299 40.2812 178.312 40.5156C178.332 40.7435 178.342 40.9583 178.342 41.1602V50.7988H176.018Z" fill="white"/>
</g>
<defs>
<clipPath id="clip0_8903_20828">
<rect x="0.8125" width="536" height="227" rx="16" fill="white"/>
</clipPath>
<clipPath id="clip1_8903_20828">
<rect width="235.121" height="227.454" fill="white" transform="matrix(-0.997057 0.0766591 0.0766591 0.997057 490.812 3)"/>
</clipPath>
</defs>
</svg>
