<svg width="302" height="227" viewBox="0 0 302 227" fill="none" xmlns="http://www.w3.org/2000/svg">
<g clip-path="url(#clip0_9185_21136)">
<path d="M37.6644 168.41L5.77344 148.308" stroke="#231F20" stroke-width="0.5" stroke-linejoin="round"/>
<path d="M3.59375 156.574L86.559 109.604" stroke="#231F20" stroke-width="0.5" stroke-linejoin="round"/>
<path d="M11.4141 146.44V156.574" stroke="#231F20" stroke-width="0.5" stroke-linejoin="round"/>
<path d="M34.1629 162.22L0.648438 180.389" stroke="#231F20" stroke-width="0.5" stroke-linejoin="round"/>
<path d="M0.117188 171.306L235.386 306.676" stroke="#231F20" stroke-width="0.5" stroke-linejoin="round"/>
<path d="M8.61719 184.003L8.61719 168.739" stroke="#231F20" stroke-width="0.5" stroke-linejoin="round"/>
<path d="M160.888 91.7582C160.846 91.7582 160.809 91.749 160.773 91.7259L157.185 89.6503C157.112 89.6087 157.07 89.5303 157.07 89.4519L157.217 37.5651C157.217 37.4821 157.263 37.4083 157.332 37.3668C157.369 37.3483 157.406 37.3345 157.447 37.3345C157.489 37.3345 157.526 37.3437 157.562 37.3668L161.15 39.4424C161.223 39.4839 161.265 39.5623 161.265 39.6408L161.118 91.5276C161.118 91.6106 161.072 91.6844 161.003 91.7259C160.966 91.7444 160.929 91.7582 160.888 91.7582Z" fill="#7099ED"/>
<path d="M157.451 37.5604L161.038 39.636L160.891 91.5229L157.304 89.4472L157.451 37.5604ZM157.451 37.0991C157.373 37.0991 157.294 37.1176 157.221 37.1591C157.078 37.2421 156.991 37.3943 156.991 37.5558L156.844 89.4426C156.844 89.6086 156.931 89.7609 157.074 89.8439L160.661 91.9195C160.73 91.9611 160.813 91.9795 160.891 91.9795C160.969 91.9795 161.047 91.9611 161.121 91.9195C161.264 91.8365 161.351 91.6843 161.351 91.5229L161.498 39.636C161.498 39.47 161.411 39.3178 161.268 39.2347L157.681 37.1591C157.612 37.1176 157.529 37.0991 157.451 37.0991Z" fill="#231F20"/>
<path d="M164.802 88.4461C164.76 88.4461 164.724 88.4368 164.687 88.4138L161.099 86.3381C161.026 86.2966 160.984 86.2182 160.984 86.1398L161.132 39.7096C161.132 39.6266 161.178 39.5528 161.247 39.5113C161.283 39.4928 161.32 39.479 161.362 39.479C161.403 39.479 161.44 39.4882 161.476 39.5113L165.064 41.5869C165.137 41.6285 165.179 41.7069 165.179 41.7853L165.032 88.2154C165.032 88.2985 164.986 88.3723 164.917 88.4138C164.88 88.4322 164.843 88.4461 164.802 88.4461Z" fill="#7099ED"/>
<path d="M161.365 39.7049L164.952 41.7806L164.805 88.2107L161.218 86.1351L161.365 39.7049ZM161.365 39.2437C161.287 39.2437 161.209 39.2621 161.135 39.3036C160.992 39.3866 160.905 39.5389 160.905 39.7003L160.758 86.1305C160.758 86.2965 160.845 86.4487 160.988 86.5317L164.575 88.6074C164.644 88.6489 164.727 88.6674 164.805 88.6674C164.883 88.6674 164.961 88.6489 165.035 88.6074C165.178 88.5244 165.265 88.3722 165.265 88.2107L165.412 41.7806C165.412 41.6145 165.325 41.4623 165.182 41.3793L161.595 39.3036C161.526 39.2621 161.443 39.2437 161.365 39.2437Z" fill="#231F20"/>
<path d="M116.457 112.45C116.415 112.45 116.378 112.441 116.342 112.418C116.268 112.376 116.227 112.298 116.227 112.219L116.374 65.909C116.374 65.8259 116.42 65.7521 116.489 65.7106L161.239 39.6265C161.276 39.6035 161.313 39.5942 161.354 39.5942C161.395 39.5942 161.432 39.6035 161.469 39.6265C161.543 39.668 161.584 39.7465 161.584 39.8249L161.437 86.1351C161.437 86.2181 161.391 86.2919 161.322 86.3334L116.572 112.418C116.535 112.441 116.498 112.45 116.457 112.45Z" fill="white"/>
<path d="M161.357 39.825L161.21 86.1352L116.46 112.219L116.607 65.9091L161.357 39.825ZM161.357 39.3638C161.279 39.3638 161.197 39.3868 161.128 39.4283L116.377 65.5124C116.235 65.5955 116.147 65.7477 116.147 65.9091L116 112.219C116 112.385 116.087 112.538 116.23 112.621C116.299 112.662 116.382 112.681 116.46 112.681C116.538 112.681 116.621 112.658 116.69 112.616L161.44 86.5319C161.583 86.4489 161.67 86.2967 161.67 86.1352L161.817 39.825C161.817 39.659 161.73 39.5068 161.587 39.4237C161.518 39.3822 161.436 39.3638 161.357 39.3638Z" fill="#231F20"/>
<path d="M164.949 41.9051L164.816 88.22L143.82 101.523L145.37 106.283L173.724 88.589L173.872 36.7021L164.949 41.9051Z" fill="white" stroke="#231F20" stroke-linejoin="round"/>
<path d="M137.3 104.973C137.254 104.973 137.208 104.959 137.166 104.931L133.363 102.252C133.298 102.205 133.261 102.132 133.266 102.053C133.271 101.975 133.312 101.901 133.381 101.864L161.096 85.9415C161.133 85.923 161.169 85.9092 161.211 85.9092C161.252 85.9092 161.289 85.9184 161.326 85.9415L164.913 88.0171C164.982 88.0586 165.028 88.1324 165.028 88.2155C165.028 88.2985 164.987 88.3723 164.918 88.4138L137.419 104.941C137.382 104.964 137.341 104.973 137.3 104.973Z" fill="white"/>
<path d="M161.215 86.1353L164.802 88.211L137.303 104.738L133.5 102.058L161.215 86.1353ZM161.215 85.674C161.136 85.674 161.058 85.6925 160.985 85.734L133.27 101.657C133.132 101.735 133.044 101.878 133.04 102.035C133.031 102.192 133.104 102.344 133.233 102.432L137.037 105.111C137.115 105.167 137.207 105.194 137.303 105.194C137.386 105.194 137.469 105.171 137.538 105.13L165.037 88.603C165.175 88.52 165.262 88.3678 165.262 88.2017C165.262 88.0403 165.175 87.8881 165.032 87.8051L161.445 85.7294C161.376 85.6879 161.293 85.6694 161.215 85.6694V85.674Z" fill="#231F20"/>
<path d="M285.972 62.6803C285.931 62.6803 285.894 62.671 285.857 62.648C285.784 62.6065 285.742 62.5281 285.742 62.4496L285.889 10.5628C285.889 10.4798 285.935 10.406 286.004 10.3645L288.028 9.18366C288.065 9.16059 288.102 9.15137 288.143 9.15137C288.184 9.15137 288.221 9.16059 288.258 9.18366C288.332 9.22517 288.373 9.30358 288.373 9.382L288.226 61.2688C288.226 61.3518 288.18 61.4256 288.111 61.4672L286.087 62.648C286.05 62.671 286.014 62.6803 285.972 62.6803Z" fill="white"/>
<path d="M288.146 9.38216L287.999 61.269L285.976 62.4498L286.123 10.563L288.146 9.38216ZM288.146 8.9209C288.068 8.9209 287.985 8.94396 287.916 8.98547L285.893 10.1663C285.75 10.2493 285.663 10.4015 285.663 10.563L285.516 62.4498C285.516 62.6159 285.603 62.7681 285.746 62.8511C285.815 62.8926 285.897 62.9111 285.976 62.9111C286.054 62.9111 286.137 62.888 286.206 62.8465L288.229 61.6657C288.372 61.5826 288.459 61.4304 288.459 61.269L288.606 9.38216C288.606 9.2161 288.519 9.06389 288.376 8.98086C288.307 8.93935 288.225 8.9209 288.146 8.9209Z" fill="#231F20"/>
<path d="M280.55 56.3794C280.509 56.3794 280.472 56.3702 280.435 56.3471C280.362 56.3056 280.32 56.2272 280.32 56.1442L280.467 13.7223C280.467 13.6393 280.513 13.5655 280.582 13.524L285.688 10.5489C285.724 10.5258 285.761 10.5166 285.803 10.5166C285.844 10.5166 285.881 10.5258 285.918 10.5489C285.991 10.5904 286.033 10.6688 286.033 10.7518L285.885 53.1737C285.885 53.2567 285.839 53.3305 285.77 53.372L280.665 56.3471C280.628 56.3702 280.592 56.3794 280.55 56.3794Z" fill="white"/>
<path d="M285.806 10.7518L285.659 53.1736L280.554 56.1487L280.701 13.7269L285.806 10.7518ZM285.806 10.2905C285.728 10.2905 285.645 10.3136 285.576 10.3551L280.471 13.3302C280.328 13.4132 280.241 13.5655 280.241 13.7269L280.094 56.1487C280.094 56.3148 280.181 56.467 280.324 56.55C280.393 56.5915 280.475 56.61 280.554 56.61C280.632 56.61 280.715 56.5869 280.784 56.5454L285.889 53.5703C286.031 53.4873 286.119 53.335 286.119 53.1736L286.266 10.7518C286.266 10.5857 286.179 10.4335 286.036 10.3505C285.967 10.309 285.884 10.2905 285.806 10.2905Z" fill="#231F20"/>
<path d="M328.632 78.2891C328.59 78.2891 328.553 78.2799 328.517 78.2568L285.537 53.372C285.463 53.3305 285.422 53.2521 285.422 53.1691L285.569 10.7472C285.569 10.6642 285.615 10.5904 285.684 10.5489C285.721 10.5304 285.758 10.5166 285.799 10.5166C285.84 10.5166 285.877 10.5258 285.914 10.5489L328.894 35.4337C328.967 35.4752 329.009 35.5536 329.009 35.6367L328.861 78.0585C328.861 78.1415 328.815 78.2153 328.746 78.2568C328.71 78.2753 328.673 78.2891 328.632 78.2891Z" fill="white"/>
<path d="M285.802 10.7518L328.782 35.6366L328.635 78.0584L285.655 53.1736L285.802 10.7518ZM285.802 10.2905C285.724 10.2905 285.646 10.309 285.572 10.3505C285.43 10.4335 285.342 10.5857 285.342 10.7472L285.195 53.169C285.195 53.335 285.283 53.4873 285.425 53.5703L328.405 78.4551C328.474 78.4966 328.557 78.5151 328.635 78.5151C328.713 78.5151 328.791 78.4966 328.865 78.4551C329.007 78.3721 329.095 78.2199 329.095 78.0584L329.242 35.6366C329.242 35.4706 329.155 35.3183 329.012 35.2353L286.032 10.3505C285.963 10.309 285.881 10.2905 285.802 10.2905Z" fill="#231F20"/>
<path d="M324.422 81.3658C324.381 81.3658 324.344 81.3565 324.307 81.3335L280.435 56.3426C280.362 56.301 280.32 56.2272 280.32 56.1442C280.32 56.0612 280.362 55.9874 280.435 55.9459L285.54 52.9708C285.577 52.9477 285.614 52.9385 285.655 52.9385C285.697 52.9385 285.734 52.9477 285.766 52.9662L331.606 78.589C331.684 78.6351 331.73 78.7228 331.721 78.8104C331.712 78.9027 331.652 78.9811 331.565 79.0087L324.491 81.3519C324.468 81.3612 324.445 81.3658 324.418 81.3658H324.422Z" fill="white"/>
<path d="M285.659 53.1737L331.499 78.7965L324.426 81.1397L280.554 56.1488L285.659 53.1737ZM285.659 52.7124C285.581 52.7124 285.498 52.7355 285.429 52.777L280.324 55.7521C280.181 55.8351 280.094 55.9873 280.094 56.1534C280.094 56.3194 280.181 56.4716 280.328 56.5501L324.2 81.541C324.269 81.5825 324.347 81.6009 324.426 81.6009C324.476 81.6009 324.522 81.5917 324.568 81.5779L331.642 79.2347C331.817 79.1793 331.936 79.0225 331.955 78.8426C331.973 78.6581 331.881 78.4875 331.72 78.3952L285.88 52.7724C285.811 52.7355 285.732 52.7124 285.654 52.7124H285.659Z" fill="#231F20"/>
<path d="M177.933 86.3658C177.892 86.3658 177.855 86.3566 177.818 86.3335C177.745 86.292 177.703 86.2136 177.703 86.1352L177.85 34.2483C177.85 34.1653 177.896 34.0915 177.965 34.05L246.765 -6.0517C246.802 -6.07476 246.839 -6.08398 246.88 -6.08398C246.921 -6.08398 246.958 -6.07476 246.995 -6.0517C247.069 -6.01018 247.11 -5.93177 247.11 -5.85336L246.963 46.0335C246.963 46.1165 246.917 46.1903 246.848 46.2318L178.048 86.3289C178.011 86.352 177.974 86.3612 177.933 86.3612V86.3658Z" fill="white"/>
<path d="M246.883 -5.8488L246.736 46.038L177.936 86.1351L178.084 34.2483L246.883 -5.8488ZM246.883 -6.31006C246.805 -6.31006 246.722 -6.287 246.653 -6.24548L177.854 33.8516C177.711 33.9346 177.624 34.0868 177.624 34.2483L177.477 86.1351C177.477 86.3012 177.564 86.4534 177.707 86.5364C177.776 86.5779 177.858 86.5964 177.936 86.5964C178.015 86.5964 178.097 86.5733 178.166 86.5318L246.966 46.4347C247.109 46.3517 247.196 46.1995 247.196 46.038L247.343 -5.8488C247.343 -6.01485 247.256 -6.16707 247.113 -6.2501C247.044 -6.29161 246.962 -6.31006 246.883 -6.31006Z" fill="#231F20"/>
<path d="M110.863 125.457C110.821 125.457 110.785 125.448 110.748 125.425C110.674 125.384 110.633 125.305 110.633 125.227L110.78 73.34C110.78 73.257 110.826 73.1832 110.895 73.1417L120.08 67.7911C120.116 67.768 120.153 67.7588 120.195 67.7588C120.236 67.7588 120.273 67.768 120.31 67.7911C120.383 67.8326 120.425 67.911 120.425 67.9894L120.277 119.876C120.277 119.959 120.231 120.033 120.162 120.075L110.978 125.425C110.941 125.448 110.904 125.457 110.863 125.457Z" fill="white"/>
<path d="M120.198 67.9896L120.051 119.876L110.866 125.227L111.013 73.3402L120.198 67.9896ZM120.198 67.5283C120.12 67.5283 120.037 67.5514 119.968 67.5929L110.783 72.9435C110.641 73.0265 110.553 73.1787 110.553 73.3402L110.406 125.227C110.406 125.393 110.494 125.545 110.636 125.628C110.705 125.67 110.788 125.688 110.866 125.688C110.944 125.688 111.027 125.665 111.096 125.624L120.281 120.273C120.423 120.19 120.511 120.038 120.511 119.876L120.658 67.9896C120.658 67.8235 120.571 67.6713 120.428 67.5883C120.359 67.5468 120.276 67.5283 120.198 67.5283Z" fill="#231F20"/>
<path d="M242.973 128.922C242.931 128.922 242.894 128.913 242.858 128.889L173.607 88.7924C173.534 88.7509 173.492 88.6724 173.492 88.594L173.639 36.7072C173.639 36.6242 173.685 36.5504 173.754 36.5089C173.791 36.4904 173.828 36.4766 173.869 36.4766C173.911 36.4766 173.947 36.4858 173.984 36.5089L243.235 76.6059C243.308 76.6475 243.35 76.7259 243.35 76.8043L243.203 128.691C243.203 128.774 243.157 128.848 243.088 128.889C243.051 128.908 243.014 128.922 242.973 128.922Z" fill="#7099ED"/>
<path d="M173.873 36.7025L243.123 76.7996L242.976 128.686L173.726 88.5893L173.873 36.7025ZM173.873 36.2412C173.795 36.2412 173.716 36.2597 173.643 36.3012C173.5 36.3842 173.413 36.5364 173.413 36.6979L173.266 88.5847C173.266 88.7507 173.353 88.9029 173.496 88.986L242.746 129.083C242.815 129.125 242.898 129.143 242.976 129.143C243.054 129.143 243.132 129.125 243.206 129.083C243.349 129 243.436 128.848 243.436 128.686L243.583 76.7996C243.583 76.6335 243.496 76.4813 243.353 76.3983L174.103 36.3012C174.034 36.2597 173.951 36.2412 173.873 36.2412Z" fill="#231F20"/>
<path d="M250.8 131.62C250.759 131.62 250.722 131.611 250.685 131.588C250.612 131.546 250.57 131.468 250.57 131.389L250.717 79.5025C250.717 79.4194 250.763 79.3456 250.832 79.3041L253.468 77.7681C253.505 77.7451 253.541 77.7358 253.583 77.7358C253.624 77.7358 253.661 77.7451 253.698 77.7681C253.771 77.8096 253.813 77.8881 253.813 77.9665L253.666 129.853C253.666 129.936 253.62 130.01 253.551 130.052L250.915 131.588C250.878 131.611 250.842 131.62 250.8 131.62Z" fill="white"/>
<path d="M253.586 77.9617L253.439 129.849L250.804 131.385L250.951 79.4977L253.586 77.9617ZM253.586 77.5005C253.508 77.5005 253.425 77.5236 253.356 77.5651L250.721 79.1011C250.578 79.1841 250.491 79.3363 250.491 79.4977L250.344 131.385C250.344 131.551 250.431 131.703 250.574 131.786C250.643 131.827 250.725 131.846 250.804 131.846C250.882 131.846 250.965 131.823 251.034 131.781L253.669 130.245C253.812 130.162 253.899 130.01 253.899 129.849L254.046 77.9617C254.046 77.7957 253.959 77.6435 253.816 77.5605C253.747 77.5189 253.664 77.5005 253.586 77.5005Z" fill="#231F20"/>
<path d="M249.224 132.538C249.183 132.538 249.146 132.529 249.109 132.506L247.099 131.343C247.026 131.302 246.984 131.223 246.984 131.145L247.132 79.258C247.132 79.1749 247.178 79.1011 247.247 79.0596C247.283 79.0412 247.32 79.0273 247.362 79.0273C247.403 79.0273 247.44 79.0366 247.476 79.0596L249.486 80.222C249.56 80.2635 249.601 80.3419 249.601 80.4203L249.454 132.307C249.454 132.39 249.408 132.464 249.339 132.506C249.302 132.524 249.266 132.538 249.224 132.538Z" fill="#7099ED"/>
<path d="M247.365 79.2581L249.375 80.4205L249.228 132.307L247.218 131.145L247.365 79.2581ZM247.365 78.7969C247.287 78.7969 247.209 78.8153 247.135 78.8568C246.992 78.9399 246.905 79.0921 246.905 79.2535L246.758 131.14C246.758 131.306 246.845 131.459 246.988 131.542L248.998 132.704C249.067 132.746 249.149 132.764 249.228 132.764C249.306 132.764 249.384 132.746 249.458 132.704C249.6 132.621 249.688 132.469 249.688 132.307L249.835 80.4205C249.835 80.2544 249.747 80.1022 249.605 80.0192L247.595 78.8568C247.526 78.8153 247.443 78.7969 247.365 78.7969Z" fill="#231F20"/>
<path d="M249.222 132.537C249.181 132.537 249.144 132.528 249.107 132.505C249.034 132.464 248.992 132.385 248.992 132.307L249.139 80.42C249.139 80.337 249.185 80.2632 249.254 80.2217L250.459 79.5206C250.496 79.4975 250.533 79.4883 250.574 79.4883C250.616 79.4883 250.653 79.4975 250.689 79.5206C250.763 79.5621 250.804 79.6405 250.804 79.7189L250.657 131.606C250.657 131.689 250.611 131.763 250.542 131.804L249.337 132.505C249.3 132.528 249.264 132.537 249.222 132.537Z" fill="white"/>
<path d="M250.578 79.7191L250.431 131.606L249.226 132.307L249.373 80.4202L250.578 79.7191ZM250.578 79.2578C250.5 79.2578 250.417 79.2809 250.348 79.3224L249.143 80.0235C249 80.1065 248.913 80.2587 248.913 80.4202L248.766 132.307C248.766 132.473 248.853 132.625 248.996 132.708C249.065 132.75 249.147 132.768 249.226 132.768C249.304 132.768 249.387 132.745 249.456 132.704L250.661 132.003C250.803 131.92 250.89 131.767 250.89 131.606L251.038 79.7191C251.038 79.553 250.95 79.4008 250.808 79.3178C250.739 79.2763 250.656 79.2578 250.578 79.2578Z" fill="#231F20"/>
<path d="M268.404 143.644C268.363 143.644 268.326 143.635 268.289 143.612L265.24 141.846C265.166 141.804 265.125 141.726 265.125 141.647L265.272 89.7604C265.272 89.6774 265.318 89.6036 265.387 89.5621C265.424 89.5436 265.461 89.5298 265.502 89.5298C265.544 89.5298 265.58 89.539 265.617 89.5621L268.666 91.3287C268.74 91.3702 268.781 91.4486 268.781 91.527L268.634 143.414C268.634 143.497 268.588 143.571 268.519 143.612C268.482 143.631 268.446 143.644 268.404 143.644Z" fill="white"/>
<path d="M265.506 89.7606L268.555 91.5272L268.408 143.414L265.358 141.647L265.506 89.7606ZM265.506 89.2993C265.427 89.2993 265.349 89.3178 265.276 89.3593C265.133 89.4423 265.046 89.5945 265.046 89.756L264.898 141.643C264.898 141.809 264.986 141.961 265.128 142.044L268.178 143.811C268.247 143.852 268.329 143.871 268.408 143.871C268.486 143.871 268.564 143.852 268.638 143.811C268.78 143.728 268.868 143.575 268.868 143.414L269.015 91.5272C269.015 91.3611 268.927 91.2089 268.785 91.1259L265.735 89.3593C265.667 89.3178 265.584 89.2993 265.506 89.2993Z" fill="#231F20"/>
<path d="M256.643 144.207C256.556 144.207 256.478 144.161 256.436 144.083L250.218 131.712C250.2 131.68 250.195 131.643 250.195 131.606L250.342 79.7189C250.342 79.6128 250.416 79.5206 250.522 79.4929C250.54 79.4929 250.559 79.4883 250.572 79.4883C250.66 79.4883 250.738 79.5344 250.779 79.6128L256.998 91.9837C257.016 92.016 257.021 92.0529 257.021 92.0898L256.873 143.977C256.873 144.083 256.8 144.175 256.694 144.203C256.676 144.203 256.657 144.207 256.643 144.207Z" fill="white"/>
<path d="M250.576 79.7191L256.794 92.09L256.647 143.977L250.429 131.606L250.576 79.7191ZM250.576 79.2578C250.539 79.2578 250.507 79.2578 250.47 79.2716C250.263 79.3224 250.116 79.5069 250.116 79.7191L249.969 131.606C249.969 131.68 249.987 131.749 250.019 131.813L256.237 144.184C256.316 144.341 256.477 144.438 256.647 144.438C256.684 144.438 256.716 144.438 256.753 144.424C256.96 144.373 257.107 144.189 257.107 143.977L257.254 92.09C257.254 92.0162 257.236 91.947 257.203 91.8824L250.985 79.5115C250.907 79.3547 250.746 79.2578 250.576 79.2578Z" fill="#231F20"/>
<path d="M249.486 156.168C249.445 156.168 249.408 156.158 249.372 156.135L248.084 155.388C248.01 155.347 247.969 155.268 247.969 155.19L248.116 103.303C248.116 103.22 248.162 103.146 248.231 103.105C248.268 103.086 248.304 103.072 248.346 103.072C248.387 103.072 248.424 103.081 248.461 103.105L249.749 103.852C249.822 103.893 249.864 103.972 249.864 104.05L249.716 155.937C249.716 156.02 249.67 156.094 249.601 156.135C249.565 156.154 249.528 156.168 249.486 156.168Z" fill="white"/>
<path d="M248.349 103.303L249.637 104.05L249.49 155.937L248.202 155.19L248.349 103.303ZM248.349 102.842C248.271 102.842 248.193 102.86 248.119 102.902C247.977 102.985 247.889 103.137 247.889 103.298L247.742 155.185C247.742 155.351 247.83 155.504 247.972 155.587L249.26 156.334C249.329 156.375 249.412 156.394 249.49 156.394C249.568 156.394 249.646 156.375 249.72 156.334C249.862 156.251 249.95 156.099 249.95 155.937L250.097 104.05C250.097 103.884 250.01 103.732 249.867 103.649L248.579 102.902C248.51 102.86 248.427 102.842 248.349 102.842Z" fill="#231F20"/>
<path d="M200.301 156.089C200.26 156.089 200.219 156.075 200.177 156.052L198.278 154.858C198.209 154.816 198.172 154.742 198.172 154.664L198.319 102.777C198.319 102.694 198.365 102.616 198.439 102.574C198.475 102.556 198.512 102.546 198.549 102.546C198.59 102.546 198.632 102.56 198.673 102.583L200.573 103.778C200.642 103.819 200.678 103.893 200.678 103.972L200.531 155.859C200.531 155.942 200.485 156.02 200.412 156.061C200.375 156.08 200.338 156.089 200.301 156.089Z" fill="#7099ED"/>
<path d="M198.552 102.777L200.452 103.972L200.305 155.859L198.405 154.664L198.552 102.777ZM198.552 102.316C198.474 102.316 198.401 102.334 198.332 102.371C198.184 102.454 198.092 102.607 198.092 102.773L197.945 154.659C197.945 154.821 198.028 154.968 198.161 155.051L200.061 156.246C200.135 156.292 200.222 156.315 200.305 156.315C200.383 156.315 200.456 156.297 200.525 156.26C200.673 156.177 200.765 156.025 200.765 155.859L200.912 103.972C200.912 103.81 200.829 103.663 200.696 103.58L198.796 102.385C198.723 102.339 198.635 102.316 198.552 102.316Z" fill="#231F20"/>
<path d="M251.135 157.123C251.093 157.123 251.056 157.114 251.02 157.091L249.552 156.242C249.479 156.201 249.438 156.122 249.438 156.044L249.585 104.157C249.585 104.074 249.631 104 249.7 103.959C249.736 103.94 249.773 103.926 249.815 103.926C249.856 103.926 249.893 103.935 249.93 103.959L251.397 104.807C251.47 104.849 251.512 104.927 251.512 105.006L251.365 156.892C251.365 156.975 251.319 157.049 251.25 157.091C251.213 157.109 251.176 157.123 251.135 157.123Z" fill="white"/>
<path d="M249.818 104.152L251.285 105.001L251.138 156.888L249.671 156.039L249.818 104.152ZM249.818 103.691C249.74 103.691 249.662 103.709 249.588 103.751C249.446 103.834 249.358 103.986 249.358 104.148L249.211 156.034C249.211 156.2 249.298 156.353 249.441 156.436L250.908 157.284C250.977 157.326 251.06 157.344 251.138 157.344C251.216 157.344 251.294 157.326 251.368 157.284C251.511 157.201 251.598 157.049 251.598 156.888L251.745 105.001C251.745 104.835 251.658 104.683 251.515 104.6L250.048 103.751C249.979 103.709 249.896 103.691 249.818 103.691Z" fill="#231F20"/>
<path d="M251.136 157.123C251.095 157.123 251.058 157.113 251.021 157.09C250.948 157.049 250.906 156.97 250.906 156.892L251.053 105.005C251.053 104.922 251.099 104.848 251.168 104.807L271.373 93.0308C271.41 93.0078 271.446 92.9985 271.488 92.9985C271.529 92.9985 271.566 93.0078 271.603 93.0308C271.676 93.0723 271.718 93.1508 271.718 93.2292L271.571 145.116C271.571 145.199 271.525 145.273 271.456 145.314L251.251 157.09C251.214 157.113 251.178 157.123 251.136 157.123Z" fill="white"/>
<path d="M271.491 93.2293L271.344 145.116L251.14 156.892L251.287 105.005L271.491 93.2293ZM271.491 92.7681C271.413 92.7681 271.33 92.7911 271.261 92.8326L251.057 104.609C250.914 104.692 250.827 104.844 250.827 105.005L250.68 156.892C250.68 157.058 250.767 157.21 250.91 157.293C250.979 157.335 251.061 157.353 251.14 157.353C251.218 157.353 251.301 157.33 251.37 157.289L271.574 145.513C271.717 145.43 271.804 145.278 271.804 145.116L271.951 93.2293C271.951 93.0633 271.864 92.9111 271.721 92.828C271.652 92.7865 271.569 92.7681 271.491 92.7681Z" fill="#231F20"/>
<path d="M202.644 157.353C202.603 157.353 202.566 157.344 202.529 157.321C202.455 157.28 202.414 157.201 202.414 157.123L202.561 105.236C202.561 105.153 202.607 105.079 202.676 105.038L247.247 79.0596C247.284 79.0366 247.321 79.0273 247.362 79.0273C247.404 79.0273 247.44 79.0366 247.477 79.0596C247.551 79.1011 247.592 79.1796 247.592 79.258L247.445 131.145C247.445 131.228 247.399 131.302 247.33 131.343L202.759 157.321C202.722 157.344 202.685 157.353 202.644 157.353Z" fill="white"/>
<path d="M247.366 79.2581L247.218 131.145L202.647 157.123L202.795 105.236L247.366 79.2581ZM247.366 78.7969C247.287 78.7969 247.205 78.8199 247.136 78.8615L202.565 104.839C202.422 104.922 202.335 105.075 202.335 105.236L202.188 157.123C202.188 157.289 202.275 157.441 202.417 157.524C202.486 157.566 202.569 157.584 202.647 157.584C202.726 157.584 202.808 157.561 202.877 157.52L247.448 131.542C247.591 131.459 247.678 131.306 247.678 131.145L247.826 79.2581C247.826 79.0921 247.738 78.9399 247.596 78.8568C247.527 78.8153 247.444 78.7969 247.366 78.7969Z" fill="#231F20"/>
<path d="M202.638 157.353C202.597 157.353 202.56 157.344 202.523 157.321L200.592 156.2C200.518 156.159 200.477 156.08 200.477 156.002L200.624 104.115C200.624 104.032 200.67 103.958 200.739 103.917C200.776 103.898 200.812 103.884 200.854 103.884C200.895 103.884 200.932 103.894 200.969 103.917L202.9 105.037C202.974 105.079 203.015 105.157 203.015 105.236L202.868 157.123C202.868 157.206 202.822 157.279 202.753 157.321C202.716 157.339 202.68 157.353 202.638 157.353Z" fill="#7099ED"/>
<path d="M200.857 104.115L202.789 105.236L202.642 157.123L200.71 156.002L200.857 104.115ZM200.857 103.654C200.779 103.654 200.701 103.672 200.627 103.714C200.485 103.797 200.397 103.949 200.397 104.11L200.25 155.997C200.25 156.163 200.337 156.316 200.48 156.399L202.412 157.519C202.481 157.561 202.563 157.579 202.642 157.579C202.72 157.579 202.798 157.561 202.872 157.519C203.014 157.436 203.102 157.284 203.102 157.123L203.249 105.236C203.249 105.07 203.161 104.918 203.019 104.835L201.087 103.714C201.018 103.672 200.935 103.654 200.857 103.654Z" fill="#231F20"/>
<path d="M231.16 159.881C231.104 159.881 231.054 159.863 231.012 159.831C230.957 159.785 230.93 159.72 230.93 159.651L231.077 107.764C231.077 107.653 231.155 107.561 231.261 107.538L249.768 103.926C249.768 103.926 249.796 103.926 249.814 103.926C249.869 103.926 249.92 103.945 249.961 103.977C250.016 104.023 250.044 104.088 250.044 104.157L249.897 156.044C249.897 156.154 249.819 156.247 249.713 156.27L231.206 159.881C231.206 159.881 231.178 159.881 231.16 159.881Z" fill="white"/>
<path d="M249.817 104.152L249.67 156.039L231.163 159.651L231.31 107.764L249.817 104.152ZM249.817 103.691C249.79 103.691 249.758 103.691 249.73 103.7L231.223 107.312C231.007 107.353 230.85 107.542 230.85 107.764L230.703 159.651C230.703 159.789 230.763 159.918 230.869 160.006C230.951 160.075 231.057 160.112 231.163 160.112C231.191 160.112 231.223 160.112 231.25 160.103L249.758 156.491C249.974 156.45 250.13 156.26 250.13 156.039L250.277 104.152C250.277 104.014 250.218 103.885 250.112 103.797C250.029 103.728 249.923 103.691 249.817 103.691Z" fill="#231F20"/>
<path d="M44.6753 164.037C44.6339 164.037 44.5971 164.027 44.5603 164.004C44.4867 163.963 44.4453 163.884 44.4453 163.806L44.5925 111.919C44.5925 111.836 44.6385 111.762 44.7075 111.721L107.984 74.8433C108.02 74.8203 108.057 74.811 108.098 74.811C108.14 74.811 108.177 74.8203 108.213 74.8433C108.287 74.8848 108.328 74.9633 108.328 75.0417L108.181 126.928C108.181 127.012 108.135 127.085 108.066 127.127L44.7903 164.004C44.7535 164.027 44.7167 164.037 44.6753 164.037Z" fill="white"/>
<path d="M108.094 75.0418L107.947 126.929L44.6709 163.806L44.818 111.919L108.094 75.0418ZM108.094 74.5806C108.016 74.5806 107.933 74.6036 107.864 74.6451L44.5881 111.523C44.4455 111.606 44.3581 111.758 44.3581 111.919L44.2109 163.806C44.2109 163.972 44.2983 164.124 44.4409 164.207C44.5099 164.249 44.5927 164.267 44.6709 164.267C44.749 164.267 44.8318 164.244 44.9008 164.203L108.177 127.325C108.319 127.242 108.407 127.09 108.407 126.929L108.554 75.0418C108.554 74.8758 108.467 74.7236 108.324 74.6405C108.255 74.599 108.172 74.5806 108.094 74.5806Z" fill="#231F20"/>
<path d="M304.927 164.793C304.886 164.793 304.849 164.784 304.812 164.761L271.224 145.314C271.151 145.273 271.109 145.194 271.109 145.116L271.257 93.2292C271.257 93.1461 271.303 93.0723 271.372 93.0308C271.408 93.0124 271.445 92.9985 271.487 92.9985C271.528 92.9985 271.565 93.0078 271.601 93.0308L305.19 112.477C305.263 112.519 305.305 112.597 305.305 112.676L305.157 164.563C305.157 164.646 305.111 164.719 305.042 164.761C305.006 164.779 304.969 164.793 304.927 164.793Z" fill="#7099ED"/>
<path d="M271.49 93.2293L305.078 112.676L304.931 164.563L271.343 145.116L271.49 93.2293ZM271.49 92.7681C271.412 92.7681 271.334 92.7865 271.26 92.828C271.117 92.9111 271.03 93.0633 271.03 93.2247L270.883 145.112C270.883 145.278 270.97 145.43 271.113 145.513L304.701 164.959C304.77 165.001 304.853 165.019 304.931 165.019C305.009 165.019 305.087 165.001 305.161 164.959C305.303 164.876 305.391 164.724 305.391 164.563L305.538 112.676C305.538 112.51 305.451 112.358 305.308 112.275L271.72 92.828C271.651 92.7865 271.568 92.7681 271.49 92.7681Z" fill="#231F20"/>
<path d="M177.191 167.256C177.15 167.256 177.113 167.247 177.076 167.224L107.826 127.127C107.752 127.085 107.711 127.007 107.711 126.928L107.858 75.0417C107.858 74.9586 107.904 74.8848 107.973 74.8433C108.01 74.8249 108.047 74.811 108.088 74.811C108.129 74.811 108.166 74.8203 108.203 74.8433L177.453 114.94C177.527 114.982 177.568 115.06 177.568 115.139L177.421 167.026C177.421 167.109 177.375 167.182 177.306 167.224C177.27 167.242 177.233 167.256 177.191 167.256Z" fill="#7099ED"/>
<path d="M108.091 75.0418L177.342 115.139L177.195 167.026L107.944 126.929L108.091 75.0418ZM108.091 74.5806C108.013 74.5806 107.935 74.599 107.862 74.6405C107.719 74.7236 107.632 74.8758 107.632 75.0372L107.484 126.924C107.484 127.09 107.572 127.242 107.714 127.325L176.965 167.422C177.034 167.464 177.117 167.482 177.195 167.482C177.273 167.482 177.351 167.464 177.425 167.422C177.567 167.339 177.655 167.187 177.655 167.026L177.802 115.139C177.802 114.973 177.714 114.821 177.572 114.738L108.321 74.6405C108.252 74.599 108.17 74.5806 108.091 74.5806Z" fill="#231F20"/>
<path d="M195.285 168.64C195.285 168.64 195.252 168.64 195.239 168.636C195.133 168.613 195.055 168.521 195.055 168.41L195.202 116.523C195.202 116.491 195.206 116.458 195.22 116.431L200.647 104.028C200.684 103.945 200.767 103.889 200.859 103.889C200.873 103.889 200.891 103.889 200.905 103.894C201.011 103.917 201.089 104.009 201.089 104.12L200.942 156.007C200.942 156.039 200.937 156.071 200.923 156.099L195.496 168.502C195.459 168.585 195.377 168.64 195.285 168.64Z" fill="white"/>
<path d="M200.862 104.115L200.715 156.002L195.288 168.405L195.435 116.518L200.862 104.115ZM200.862 103.654C200.683 103.654 200.517 103.76 200.439 103.931L195.012 116.334C194.985 116.394 194.975 116.454 194.975 116.518L194.828 168.405C194.828 168.622 194.98 168.811 195.191 168.857C195.224 168.862 195.256 168.866 195.288 168.866C195.467 168.866 195.633 168.76 195.711 168.59L201.138 156.186C201.166 156.126 201.175 156.066 201.175 156.002L201.322 104.115C201.322 103.898 201.17 103.709 200.959 103.663C200.927 103.658 200.895 103.654 200.862 103.654Z" fill="#231F20"/>
<path d="M179.814 170.656C179.773 170.656 179.736 170.647 179.699 170.624L175.459 168.17C175.385 168.128 175.344 168.05 175.344 167.971L175.491 116.085C175.491 116.002 175.537 115.928 175.606 115.886C175.643 115.868 175.679 115.854 175.721 115.854C175.762 115.854 175.799 115.863 175.836 115.886L180.076 118.34C180.15 118.382 180.191 118.46 180.191 118.539L180.044 170.425C180.044 170.508 179.998 170.582 179.929 170.624C179.892 170.642 179.856 170.656 179.814 170.656Z" fill="#7099ED"/>
<path d="M175.724 116.08L179.965 118.534L179.818 170.421L175.577 167.967L175.724 116.08ZM175.724 115.619C175.646 115.619 175.568 115.637 175.494 115.679C175.352 115.762 175.264 115.914 175.264 116.075L175.117 167.962C175.117 168.128 175.205 168.28 175.347 168.363L179.588 170.817C179.657 170.859 179.739 170.877 179.818 170.877C179.896 170.877 179.974 170.859 180.048 170.817C180.19 170.734 180.278 170.582 180.278 170.421L180.425 118.534C180.425 118.368 180.337 118.216 180.195 118.133L175.954 115.679C175.885 115.637 175.802 115.619 175.724 115.619Z" fill="#231F20"/>
<path d="M179.816 170.656C179.775 170.656 179.738 170.647 179.701 170.624C179.627 170.582 179.586 170.504 179.586 170.425L179.733 118.538C179.733 118.455 179.779 118.382 179.848 118.34L186.002 114.752C186.039 114.728 186.075 114.719 186.117 114.719C186.158 114.719 186.195 114.728 186.232 114.752C186.305 114.793 186.347 114.871 186.347 114.95L186.2 166.837C186.2 166.92 186.154 166.994 186.085 167.035L179.931 170.624C179.894 170.647 179.857 170.656 179.816 170.656Z" fill="white"/>
<path d="M186.12 114.95L185.973 166.837L179.819 170.425L179.966 118.539L186.12 114.95ZM186.12 114.489C186.042 114.489 185.959 114.512 185.89 114.553L179.737 118.142C179.594 118.225 179.507 118.377 179.507 118.539L179.359 170.425C179.359 170.591 179.447 170.744 179.589 170.827C179.658 170.868 179.741 170.887 179.819 170.887C179.897 170.887 179.98 170.864 180.049 170.822L186.203 167.234C186.346 167.15 186.433 166.998 186.433 166.837L186.58 114.95C186.58 114.784 186.493 114.632 186.35 114.549C186.281 114.507 186.198 114.489 186.12 114.489Z" fill="#231F20"/>
<path d="M52.3081 164.235C52.2667 164.235 52.2299 164.226 52.1931 164.203C52.1195 164.161 52.0781 164.083 52.0781 164L52.2253 121.098C52.2253 121.015 52.2713 120.942 52.3403 120.9L56.4382 118.511C56.475 118.488 56.5118 118.479 56.5532 118.479C56.5946 118.479 56.6314 118.488 56.6681 118.511C56.7417 118.552 56.7831 118.631 56.7831 118.714L56.636 161.615C56.636 161.698 56.59 161.772 56.521 161.814L52.4231 164.203C52.3863 164.226 52.3495 164.235 52.3081 164.235Z" fill="white"/>
<path d="M56.5566 118.714L56.4094 161.615L52.3115 164.005L52.4587 121.103L56.5566 118.714ZM56.5566 118.252C56.4784 118.252 56.3956 118.275 56.3266 118.317L52.2287 120.706C52.0861 120.789 51.9987 120.942 51.9987 121.103L51.8516 164.005C51.8516 164.171 51.9389 164.323 52.0815 164.406C52.1505 164.447 52.2333 164.466 52.3115 164.466C52.3897 164.466 52.4725 164.443 52.5414 164.401L56.6394 162.012C56.7819 161.929 56.8693 161.777 56.8693 161.615L57.0165 118.714C57.0165 118.548 56.9291 118.395 56.7865 118.312C56.7175 118.271 56.6348 118.252 56.5566 118.252Z" fill="#231F20"/>
<path d="M219.503 174.36C219.462 174.36 219.425 174.351 219.388 174.328C219.315 174.286 219.273 174.208 219.273 174.129L219.421 122.242C219.421 122.159 219.467 122.086 219.536 122.044L235.26 112.879C235.297 112.856 235.334 112.847 235.375 112.847C235.417 112.847 235.453 112.856 235.49 112.879C235.564 112.92 235.605 112.999 235.605 113.077L235.458 164.964C235.458 165.047 235.412 165.121 235.343 165.162L219.618 174.328C219.582 174.351 219.545 174.36 219.503 174.36Z" fill="white"/>
<path d="M235.379 113.077L235.232 164.964L219.507 174.129L219.654 122.243L235.379 113.077ZM235.379 112.616C235.301 112.616 235.218 112.639 235.149 112.681L219.424 121.846C219.281 121.929 219.194 122.081 219.194 122.243L219.047 174.129C219.047 174.296 219.134 174.448 219.277 174.531C219.346 174.572 219.429 174.591 219.507 174.591C219.585 174.591 219.668 174.568 219.737 174.526L235.461 165.361C235.604 165.278 235.691 165.126 235.691 164.964L235.839 113.077C235.839 112.911 235.751 112.759 235.609 112.676C235.54 112.635 235.457 112.616 235.379 112.616Z" fill="#231F20"/>
<path d="M48.9565 166.353C48.9151 166.353 48.8783 166.343 48.8415 166.32C48.768 166.279 48.7266 166.2 48.7266 166.122L48.8737 123.059C48.8737 122.976 48.9197 122.902 48.9887 122.861L52.0242 121.089C52.061 121.066 52.0978 121.057 52.1392 121.057C52.1806 121.057 52.2174 121.066 52.2542 121.089C52.3277 121.131 52.3691 121.209 52.3691 121.288L52.222 164.351C52.222 164.434 52.176 164.508 52.107 164.549L49.0715 166.32C49.0347 166.343 48.9979 166.353 48.9565 166.353Z" fill="white"/>
<path d="M52.1426 121.292L51.9954 164.355L48.9599 166.127L49.1071 123.064L52.1426 121.292ZM52.1426 120.831C52.0644 120.831 51.9816 120.854 51.9126 120.896L48.8771 122.667C48.7346 122.75 48.6472 122.902 48.6472 123.064L48.5 166.127C48.5 166.293 48.5874 166.445 48.73 166.528C48.7989 166.569 48.8817 166.588 48.9599 166.588C49.0381 166.588 49.1209 166.565 49.1899 166.523L52.2254 164.752C52.3679 164.669 52.4553 164.517 52.4553 164.355L52.6025 121.292C52.6025 121.126 52.5151 120.974 52.3725 120.891C52.3036 120.849 52.2208 120.831 52.1426 120.831Z" fill="#231F20"/>
<path d="M160.957 179.402C160.901 179.402 160.851 179.383 160.809 179.346C160.759 179.3 160.727 179.235 160.727 179.171L160.874 127.284C160.874 127.173 160.957 127.077 161.067 127.058L182.669 123.382C182.669 123.382 182.697 123.382 182.706 123.382C182.761 123.382 182.812 123.4 182.853 123.437C182.904 123.483 182.936 123.548 182.936 123.612L182.789 175.499C182.789 175.61 182.706 175.707 182.596 175.725L160.993 179.402C160.993 179.402 160.966 179.402 160.957 179.402Z" fill="white"/>
<path d="M182.71 123.608L182.562 175.495L160.96 179.171L161.107 127.284L182.71 123.608ZM182.71 123.146C182.682 123.146 182.659 123.146 182.631 123.151L161.029 126.827C160.808 126.864 160.647 127.058 160.647 127.279L160.5 179.166C160.5 179.3 160.56 179.434 160.661 179.521C160.744 179.591 160.85 179.632 160.96 179.632C160.988 179.632 161.011 179.632 161.038 179.627L182.641 175.951C182.861 175.914 183.022 175.721 183.022 175.499L183.17 123.612C183.17 123.479 183.11 123.345 183.009 123.257C182.926 123.188 182.82 123.146 182.71 123.146Z" fill="#231F20"/>
<path d="M161.011 181.616C160.97 181.616 160.933 181.606 160.896 181.583C160.823 181.542 160.781 181.463 160.781 181.385L160.928 129.498C160.928 129.415 160.974 129.341 161.043 129.3L162.92 128.207C162.957 128.184 162.993 128.174 163.035 128.174C163.076 128.174 163.113 128.184 163.15 128.207C163.223 128.248 163.265 128.327 163.265 128.405L163.118 180.292C163.118 180.375 163.072 180.449 163.003 180.49L161.126 181.583C161.089 181.606 161.053 181.616 161.011 181.616Z" fill="white"/>
<path d="M163.038 128.4L162.891 180.287L161.015 181.38L161.162 129.493L163.038 128.4ZM163.038 127.939C162.96 127.939 162.877 127.962 162.808 128.004L160.932 129.097C160.789 129.18 160.702 129.332 160.702 129.493L160.555 181.38C160.555 181.546 160.642 181.698 160.785 181.782C160.854 181.823 160.936 181.841 161.015 181.841C161.093 181.841 161.176 181.818 161.245 181.777L163.121 180.684C163.264 180.601 163.351 180.448 163.351 180.287L163.498 128.4C163.498 128.234 163.411 128.082 163.268 127.999C163.199 127.957 163.116 127.939 163.038 127.939Z" fill="#231F20"/>
<path d="M180.8 194.014C180.759 194.014 180.722 194.005 180.685 193.982C180.612 193.94 180.57 193.862 180.57 193.783L180.717 141.897C180.717 141.814 180.763 141.74 180.832 141.698L181.651 141.223C181.688 141.2 181.725 141.191 181.766 141.191C181.808 141.191 181.844 141.2 181.881 141.223C181.955 141.265 181.996 141.343 181.996 141.422L181.849 193.308C181.849 193.391 181.803 193.465 181.734 193.507L180.915 193.982C180.878 194.005 180.842 194.014 180.8 194.014Z" fill="white"/>
<path d="M181.762 141.422L181.615 193.309L180.796 193.784L180.943 141.897L181.762 141.422ZM181.762 140.96C181.684 140.96 181.601 140.984 181.532 141.025L180.713 141.5C180.571 141.583 180.483 141.735 180.483 141.897L180.336 193.784C180.336 193.95 180.423 194.102 180.566 194.185C180.635 194.226 180.718 194.245 180.796 194.245C180.874 194.245 180.957 194.222 181.026 194.18L181.844 193.705C181.987 193.622 182.074 193.47 182.074 193.309L182.222 141.422C182.222 141.256 182.134 141.103 181.992 141.02C181.923 140.979 181.84 140.96 181.762 140.96Z" fill="#231F20"/>
<path d="M178.691 195.241C178.65 195.241 178.613 195.232 178.576 195.209C178.502 195.167 178.461 195.089 178.461 195.011L178.608 143.124C178.608 143.041 178.654 142.967 178.723 142.925L180.641 141.809C180.678 141.786 180.715 141.777 180.756 141.777C180.797 141.777 180.834 141.786 180.871 141.809C180.945 141.851 180.986 141.929 180.986 142.007L180.839 193.894C180.839 193.977 180.793 194.051 180.724 194.093L178.806 195.209C178.769 195.232 178.732 195.241 178.691 195.241Z" fill="white"/>
<path d="M180.759 142.003L180.612 193.89L178.694 195.006L178.841 143.119L180.759 142.003ZM180.759 141.542C180.681 141.542 180.598 141.565 180.529 141.606L178.612 142.722C178.469 142.805 178.382 142.958 178.382 143.119L178.234 195.006C178.234 195.172 178.322 195.324 178.464 195.407C178.533 195.449 178.616 195.467 178.694 195.467C178.772 195.467 178.855 195.444 178.924 195.403L180.842 194.286C180.985 194.203 181.072 194.051 181.072 193.89L181.219 142.003C181.219 141.837 181.132 141.684 180.989 141.601C180.92 141.56 180.838 141.542 180.759 141.542Z" fill="#231F20"/>
<path d="M178.692 195.241C178.651 195.241 178.614 195.232 178.577 195.209L157.982 183.286C157.909 183.244 157.867 183.166 157.867 183.087L158.014 131.2C158.014 131.117 158.06 131.044 158.129 131.002C158.166 130.984 158.203 130.97 158.244 130.97C158.286 130.97 158.322 130.979 158.359 131.002L178.955 142.926C179.028 142.967 179.07 143.045 179.07 143.124L178.922 195.011C178.922 195.094 178.876 195.168 178.807 195.209C178.771 195.227 178.734 195.241 178.692 195.241Z" fill="#7099ED"/>
<path d="M158.248 131.196L178.843 143.119L178.696 195.006L158.101 183.082L158.248 131.196ZM158.248 130.734C158.17 130.734 158.091 130.753 158.018 130.794C157.875 130.877 157.788 131.03 157.788 131.191L157.641 183.078C157.641 183.244 157.728 183.396 157.871 183.479L178.466 195.403C178.535 195.444 178.618 195.463 178.696 195.463C178.774 195.463 178.852 195.444 178.926 195.403C179.068 195.32 179.156 195.167 179.156 195.006L179.303 143.119C179.303 142.953 179.216 142.801 179.073 142.718L158.478 130.794C158.409 130.753 158.326 130.734 158.248 130.734Z" fill="#231F20"/>
<path d="M251.212 196.103C251.171 196.103 251.134 196.094 251.097 196.071L213.545 174.328C213.471 174.286 213.43 174.208 213.43 174.129L213.577 122.242C213.577 122.159 213.623 122.086 213.692 122.044C213.729 122.026 213.765 122.012 213.807 122.012C213.848 122.012 213.885 122.021 213.922 122.044L251.474 143.788C251.548 143.829 251.589 143.908 251.589 143.986L251.442 195.873C251.442 195.956 251.396 196.03 251.327 196.071C251.29 196.09 251.254 196.103 251.212 196.103Z" fill="#7099ED"/>
<path d="M213.802 122.243L251.355 143.986L251.208 195.873L213.655 174.129L213.802 122.243ZM213.802 121.781C213.724 121.781 213.646 121.8 213.572 121.841C213.43 121.924 213.342 122.076 213.342 122.238L213.195 174.125C213.195 174.291 213.283 174.443 213.425 174.526L250.978 196.27C251.047 196.311 251.13 196.33 251.208 196.33C251.286 196.33 251.364 196.311 251.438 196.27C251.58 196.187 251.668 196.034 251.668 195.873L251.815 143.986C251.815 143.82 251.728 143.668 251.585 143.585L214.032 121.841C213.963 121.8 213.881 121.781 213.802 121.781Z" fill="#231F20"/>
<path d="M258.363 196.86C258.321 196.86 258.285 196.851 258.248 196.828C258.174 196.786 258.133 196.708 258.133 196.629L258.28 144.743C258.28 144.66 258.326 144.586 258.395 144.544L309.198 114.936C309.235 114.913 309.271 114.904 309.313 114.904C309.354 114.904 309.391 114.913 309.428 114.936C309.501 114.978 309.543 115.056 309.543 115.134L309.396 167.021C309.396 167.104 309.35 167.178 309.281 167.22L258.478 196.832C258.441 196.855 258.404 196.865 258.363 196.865V196.86Z" fill="white"/>
<path d="M309.316 115.13L309.169 167.017L258.366 196.625L258.513 144.738L309.316 115.13ZM309.316 114.668C309.238 114.668 309.155 114.692 309.086 114.733L258.283 144.341C258.141 144.424 258.053 144.576 258.053 144.738L257.906 196.625C257.906 196.791 257.994 196.943 258.136 197.026C258.205 197.067 258.288 197.086 258.366 197.086C258.444 197.086 258.527 197.063 258.596 197.021L309.399 167.413C309.542 167.33 309.629 167.178 309.629 167.017L309.776 115.13C309.776 114.964 309.689 114.811 309.546 114.728C309.477 114.687 309.394 114.668 309.316 114.668Z" fill="#231F20"/>
<path d="M260.082 199.549C260.04 199.549 260.003 199.54 259.967 199.517C259.893 199.476 259.852 199.397 259.852 199.319L259.999 147.432C259.999 147.349 260.045 147.275 260.114 147.234L261.572 146.385C261.608 146.362 261.645 146.353 261.687 146.353C261.728 146.353 261.765 146.362 261.802 146.385C261.875 146.426 261.917 146.505 261.917 146.583L261.769 198.47C261.769 198.553 261.723 198.627 261.654 198.668L260.197 199.517C260.16 199.54 260.123 199.549 260.082 199.549Z" fill="white"/>
<path d="M261.69 146.578L261.543 198.465L260.085 199.314L260.232 147.427L261.69 146.578ZM261.69 146.117C261.612 146.117 261.529 146.14 261.46 146.182L260.002 147.03C259.86 147.114 259.772 147.266 259.772 147.427L259.625 199.314C259.625 199.48 259.712 199.632 259.855 199.715C259.924 199.757 260.007 199.775 260.085 199.775C260.163 199.775 260.246 199.752 260.315 199.711L261.773 198.862C261.915 198.779 262.003 198.627 262.003 198.465L262.15 146.578C262.15 146.412 262.063 146.26 261.92 146.177C261.851 146.136 261.768 146.117 261.69 146.117Z" fill="#231F20"/>
<path d="M130.23 199.554C130.189 199.554 130.152 199.545 130.115 199.521C130.041 199.48 130 199.402 130 199.323L130.147 147.436C130.147 147.353 130.193 147.28 130.262 147.238L158.129 130.997C158.166 130.974 158.202 130.965 158.244 130.965C158.285 130.965 158.322 130.974 158.359 130.997C158.432 131.039 158.474 131.117 158.474 131.195L158.327 183.082C158.327 183.165 158.281 183.239 158.212 183.281L130.345 199.521C130.308 199.545 130.271 199.554 130.23 199.554Z" fill="white"/>
<path d="M158.247 131.196L158.1 183.082L130.233 199.323L130.381 147.436L158.247 131.196ZM158.247 130.734C158.169 130.734 158.086 130.757 158.017 130.799L130.151 147.04C130.008 147.123 129.921 147.275 129.921 147.436L129.773 199.323C129.773 199.489 129.861 199.642 130.003 199.725C130.072 199.766 130.155 199.785 130.233 199.785C130.312 199.785 130.394 199.762 130.463 199.72L158.33 183.479C158.473 183.396 158.56 183.244 158.56 183.082L158.707 131.196C158.707 131.03 158.62 130.877 158.477 130.794C158.408 130.753 158.325 130.734 158.247 130.734Z" fill="#231F20"/>
<path d="M97.0279 190.647C96.9865 190.647 96.9497 190.638 96.9129 190.615L51.8728 164.535C51.7992 164.494 51.7578 164.415 51.7578 164.332L51.905 121.288C51.905 121.205 51.951 121.131 52.02 121.089C52.0568 121.071 52.0936 121.057 52.1349 121.057C52.1763 121.057 52.2131 121.066 52.2499 121.089L97.2901 147.169C97.3637 147.21 97.4051 147.289 97.4051 147.367L97.2579 190.412C97.2579 190.495 97.2119 190.569 97.1429 190.61C97.1061 190.629 97.0693 190.642 97.0279 190.642V190.647Z" fill="white"/>
<path d="M52.1383 121.292L97.1785 147.372L97.0313 190.416L51.9912 164.337L52.1383 121.292ZM52.1383 120.831C52.0602 120.831 51.982 120.849 51.9084 120.891C51.7658 120.974 51.6784 121.126 51.6784 121.288L51.5312 164.332C51.5312 164.498 51.6186 164.65 51.7612 164.734L96.8013 190.813C96.8703 190.855 96.9531 190.873 97.0313 190.873C97.1095 190.873 97.1877 190.855 97.2613 190.813C97.4038 190.73 97.4912 190.578 97.4912 190.416L97.6384 147.372C97.6384 147.206 97.551 147.054 97.4084 146.97L52.3683 120.891C52.2993 120.849 52.2165 120.831 52.1383 120.831Z" fill="#231F20"/>
<path d="M258.628 200.398C258.587 200.398 258.55 200.389 258.513 200.366C258.44 200.324 258.398 200.246 258.398 200.167L258.546 148.28C258.546 148.197 258.592 148.124 258.661 148.082L259.935 147.339C259.971 147.316 260.008 147.307 260.05 147.307C260.091 147.307 260.128 147.316 260.165 147.339C260.238 147.381 260.28 147.459 260.28 147.538L260.132 199.425C260.132 199.508 260.086 199.581 260.017 199.623L258.743 200.366C258.707 200.389 258.67 200.398 258.628 200.398Z" fill="white"/>
<path d="M260.045 147.538L259.898 199.425L258.624 200.167L258.771 148.281L260.045 147.538ZM260.045 147.077C259.967 147.077 259.884 147.1 259.815 147.141L258.541 147.884C258.399 147.967 258.311 148.119 258.311 148.281L258.164 200.167C258.164 200.333 258.251 200.486 258.394 200.569C258.463 200.61 258.546 200.629 258.624 200.629C258.702 200.629 258.785 200.606 258.854 200.564L260.128 199.821C260.271 199.738 260.358 199.586 260.358 199.425L260.505 147.538C260.505 147.372 260.418 147.22 260.275 147.137C260.206 147.095 260.123 147.077 260.045 147.077Z" fill="#231F20"/>
<path d="M258.622 200.398C258.581 200.398 258.544 200.389 258.507 200.366L255.334 198.525C255.26 198.484 255.219 198.405 255.219 198.327L255.366 146.44C255.366 146.357 255.412 146.283 255.481 146.242C255.518 146.223 255.554 146.209 255.596 146.209C255.637 146.209 255.674 146.219 255.711 146.242L258.884 148.078C258.958 148.119 258.999 148.197 258.999 148.276L258.852 200.163C258.852 200.246 258.806 200.32 258.737 200.361C258.7 200.38 258.664 200.393 258.622 200.393V200.398Z" fill="#7099ED"/>
<path d="M255.591 146.44L258.765 148.28L258.618 200.167L255.444 198.327L255.591 146.44ZM255.591 145.979C255.513 145.979 255.435 145.997 255.362 146.039C255.219 146.122 255.132 146.274 255.132 146.435L254.984 198.322C254.984 198.488 255.072 198.64 255.214 198.724L258.388 200.559C258.457 200.601 258.54 200.619 258.618 200.619C258.696 200.619 258.774 200.601 258.848 200.559C258.99 200.476 259.078 200.324 259.078 200.163L259.225 148.276C259.225 148.11 259.137 147.958 258.995 147.874L255.821 146.034C255.752 145.993 255.67 145.974 255.591 145.974V145.979Z" fill="#231F20"/>
<path d="M187.245 205.795C187.162 205.795 187.088 205.753 187.047 205.679L180.415 194.01C180.397 193.973 180.383 193.936 180.383 193.894L180.53 142.007C180.53 141.901 180.599 141.814 180.7 141.786C180.719 141.781 180.742 141.777 180.76 141.777C180.843 141.777 180.916 141.818 180.958 141.892L187.59 153.562C187.608 153.599 187.622 153.636 187.622 153.677L187.475 205.564C187.475 205.67 187.406 205.758 187.305 205.786C187.286 205.79 187.263 205.795 187.245 205.795Z" fill="white"/>
<path d="M180.763 142.003L187.395 153.673L187.248 205.559L180.616 193.89L180.763 142.003ZM180.763 141.542C180.727 141.542 180.685 141.546 180.648 141.555C180.446 141.611 180.308 141.791 180.303 141.998L180.156 193.885C180.156 193.963 180.175 194.046 180.216 194.116L186.848 205.785C186.931 205.933 187.087 206.016 187.248 206.016C187.285 206.016 187.326 206.011 187.363 206.002C187.566 205.947 187.704 205.767 187.708 205.559L187.855 153.673C187.855 153.594 187.837 153.511 187.796 153.442L181.163 141.772C181.081 141.625 180.924 141.542 180.763 141.542Z" fill="#231F20"/>
<path d="M241.769 206.528C241.728 206.528 241.691 206.519 241.654 206.496C241.58 206.454 241.539 206.376 241.539 206.297L241.686 154.411C241.686 154.328 241.732 154.254 241.801 154.212L255.475 146.242C255.511 146.219 255.548 146.209 255.59 146.209C255.631 146.209 255.668 146.219 255.705 146.242C255.778 146.283 255.82 146.362 255.82 146.44L255.672 198.327C255.672 198.41 255.626 198.484 255.557 198.525L241.884 206.496C241.847 206.519 241.81 206.528 241.769 206.528Z" fill="white"/>
<path d="M255.593 146.44L255.446 198.327L241.772 206.298L241.92 154.411L255.593 146.44ZM255.593 145.979C255.515 145.979 255.432 146.002 255.363 146.044L241.69 154.014C241.547 154.097 241.46 154.249 241.46 154.411L241.312 206.298C241.312 206.464 241.4 206.616 241.542 206.699C241.611 206.74 241.694 206.759 241.772 206.759C241.851 206.759 241.933 206.736 242.002 206.694L255.676 198.724C255.818 198.641 255.906 198.489 255.906 198.327L256.053 146.44C256.053 146.274 255.966 146.122 255.823 146.039C255.754 145.997 255.671 145.979 255.593 145.979Z" fill="#231F20"/>
<path d="M241.767 206.528C241.726 206.528 241.689 206.519 241.652 206.496L237.412 204.042C237.338 204 237.297 203.922 237.297 203.844L237.444 151.957C237.444 151.874 237.49 151.8 237.559 151.758C237.596 151.74 237.633 151.726 237.674 151.726C237.715 151.726 237.752 151.735 237.789 151.758L242.029 154.212C242.103 154.254 242.144 154.332 242.144 154.411L241.997 206.297C241.997 206.38 241.951 206.454 241.882 206.496C241.846 206.514 241.809 206.528 241.767 206.528Z" fill="#7099ED"/>
<path d="M237.677 151.957L241.918 154.411L241.771 206.298L237.53 203.844L237.677 151.957ZM237.677 151.496C237.599 151.496 237.521 151.514 237.447 151.556C237.305 151.639 237.217 151.791 237.217 151.952L237.07 203.839C237.07 204.005 237.158 204.157 237.3 204.24L241.541 206.694C241.61 206.736 241.693 206.754 241.771 206.754C241.849 206.754 241.927 206.736 242.001 206.694C242.143 206.611 242.231 206.459 242.231 206.298L242.378 154.411C242.378 154.245 242.29 154.092 242.148 154.009L237.907 151.556C237.838 151.514 237.756 151.496 237.677 151.496Z" fill="#231F20"/>
<path d="M265.634 210.195C265.551 210.195 265.473 210.149 265.431 210.075L259.692 199.535C259.673 199.503 259.664 199.461 259.664 199.425L259.811 147.538C259.811 147.432 259.885 147.339 259.986 147.316C260.004 147.312 260.023 147.307 260.041 147.307C260.124 147.307 260.202 147.353 260.244 147.427L265.983 157.967C266.002 157.999 266.011 158.041 266.011 158.077L265.864 209.964C265.864 210.07 265.79 210.163 265.689 210.186C265.671 210.19 265.652 210.195 265.634 210.195Z" fill="white"/>
<path d="M260.045 147.538L265.784 158.078L265.637 209.964L259.897 199.425L260.045 147.538ZM260.045 147.077C260.008 147.077 259.971 147.081 259.93 147.09C259.727 147.141 259.585 147.326 259.585 147.538L259.438 199.425C259.438 199.503 259.456 199.577 259.493 199.646L265.233 210.186C265.315 210.338 265.472 210.426 265.637 210.426C265.674 210.426 265.711 210.421 265.752 210.412C265.955 210.361 266.097 210.177 266.097 209.964L266.244 158.078C266.244 157.999 266.226 157.925 266.189 157.856L260.449 147.317C260.367 147.164 260.21 147.077 260.045 147.077Z" fill="#231F20"/>
<path d="M146.082 211.865C146.04 211.865 146.003 211.856 145.967 211.833C145.893 211.791 145.852 211.713 145.852 211.634L145.999 159.747C145.999 159.664 146.045 159.591 146.114 159.549L148.813 157.976C148.85 157.953 148.887 157.944 148.928 157.944C148.97 157.944 149.007 157.953 149.043 157.976C149.117 158.018 149.158 158.096 149.158 158.174L149.011 210.061C149.011 210.144 148.965 210.218 148.896 210.26L146.197 211.833C146.16 211.856 146.123 211.865 146.082 211.865Z" fill="white"/>
<path d="M148.924 158.175L148.777 210.061L146.077 211.634L146.224 159.748L148.924 158.175ZM148.924 157.713C148.846 157.713 148.763 157.736 148.694 157.778L145.994 159.351C145.852 159.434 145.764 159.586 145.764 159.748L145.617 211.634C145.617 211.8 145.705 211.953 145.847 212.036C145.916 212.077 145.999 212.096 146.077 212.096C146.155 212.096 146.238 212.073 146.307 212.031L149.007 210.458C149.149 210.375 149.237 210.223 149.237 210.061L149.384 158.175C149.384 158.009 149.297 157.856 149.154 157.773C149.085 157.732 149.002 157.713 148.924 157.713Z" fill="#231F20"/>
<path d="M113.839 212.75C113.798 212.75 113.761 212.741 113.724 212.718C113.651 212.677 113.609 212.598 113.609 212.52L113.757 160.633C113.757 160.55 113.803 160.476 113.872 160.435L125.944 153.4C125.981 153.377 126.018 153.368 126.059 153.368C126.101 153.368 126.138 153.377 126.174 153.4C126.248 153.442 126.289 153.52 126.289 153.599L126.142 205.486C126.142 205.569 126.096 205.642 126.027 205.684L113.954 212.718C113.918 212.741 113.881 212.75 113.839 212.75Z" fill="white"/>
<path d="M126.063 153.599L125.916 205.486L113.843 212.52L113.99 160.633L126.063 153.599ZM126.063 153.138C125.985 153.138 125.902 153.161 125.833 153.202L113.76 160.236C113.617 160.319 113.53 160.472 113.53 160.633L113.383 212.52C113.383 212.686 113.47 212.838 113.613 212.921C113.682 212.963 113.765 212.981 113.843 212.981C113.921 212.981 114.004 212.958 114.073 212.917L126.146 205.882C126.288 205.799 126.376 205.647 126.376 205.486L126.523 153.599C126.523 153.433 126.435 153.281 126.293 153.198C126.224 153.156 126.141 153.138 126.063 153.138Z" fill="#231F20"/>
<path d="M141.322 214.637C141.28 214.637 141.243 214.628 141.207 214.605L125.795 205.68C125.721 205.638 125.68 205.56 125.68 205.481L125.827 153.594C125.827 153.511 125.873 153.438 125.942 153.396C125.979 153.378 126.015 153.364 126.057 153.364C126.098 153.364 126.135 153.373 126.172 153.396L141.584 162.321C141.657 162.363 141.699 162.441 141.699 162.52L141.552 214.407C141.552 214.49 141.506 214.563 141.437 214.605C141.4 214.623 141.363 214.637 141.322 214.637Z" fill="#7099ED"/>
<path d="M126.06 153.599L141.472 162.524L141.325 214.411L125.913 205.486L126.06 153.599ZM126.06 153.138C125.982 153.138 125.904 153.156 125.83 153.198C125.688 153.281 125.6 153.433 125.6 153.594L125.453 205.481C125.453 205.647 125.541 205.799 125.683 205.882L141.095 214.808C141.164 214.849 141.247 214.868 141.325 214.868C141.403 214.868 141.481 214.849 141.555 214.808C141.698 214.725 141.785 214.573 141.785 214.411L141.932 162.524C141.932 162.358 141.845 162.206 141.702 162.123L126.29 153.198C126.221 153.156 126.138 153.138 126.06 153.138Z" fill="#231F20"/>
<path d="M141.324 214.637C141.282 214.637 141.246 214.628 141.209 214.605C141.135 214.563 141.094 214.485 141.094 214.406L141.241 162.52C141.241 162.436 141.287 162.363 141.356 162.321L145.923 159.66C145.96 159.637 145.997 159.627 146.038 159.627C146.079 159.627 146.116 159.637 146.153 159.66C146.226 159.701 146.268 159.78 146.268 159.858L146.121 211.745C146.121 211.828 146.075 211.902 146.006 211.943L141.439 214.605C141.402 214.628 141.365 214.637 141.324 214.637Z" fill="white"/>
<path d="M146.041 159.858L145.894 211.745L141.327 214.407L141.474 162.52L146.041 159.858ZM146.041 159.397C145.963 159.397 145.88 159.42 145.811 159.462L141.244 162.123C141.102 162.206 141.014 162.358 141.014 162.52L140.867 214.407C140.867 214.573 140.955 214.725 141.097 214.808C141.166 214.849 141.249 214.868 141.327 214.868C141.405 214.868 141.488 214.845 141.557 214.803L146.124 212.142C146.267 212.059 146.354 211.906 146.354 211.745L146.501 159.858C146.501 159.692 146.414 159.54 146.271 159.457C146.202 159.415 146.119 159.397 146.041 159.397Z" fill="#231F20"/>
<path d="M222.907 215.195C222.797 215.176 222.719 215.079 222.719 214.969L222.866 163.082C222.866 163.054 222.871 163.027 222.88 162.999L227.516 150.826C227.553 150.734 227.635 150.679 227.732 150.679C227.746 150.679 227.759 150.679 227.773 150.679C227.884 150.697 227.962 150.794 227.962 150.905L227.815 202.792C227.815 202.819 227.81 202.847 227.801 202.875L223.165 215.047C223.128 215.139 223.045 215.195 222.949 215.195C222.935 215.195 222.921 215.195 222.907 215.195Z" fill="white"/>
<path d="M227.735 150.909L227.588 202.796L222.952 214.969L223.099 163.082L227.735 150.909ZM227.735 150.448C227.547 150.448 227.377 150.564 227.308 150.743L222.672 162.916C222.653 162.967 222.639 163.022 222.639 163.077L222.492 214.964C222.492 215.186 222.649 215.379 222.869 215.421C222.897 215.426 222.925 215.43 222.952 215.43C223.141 215.43 223.311 215.315 223.38 215.135L228.016 202.962C228.034 202.912 228.048 202.856 228.048 202.801L228.195 150.914C228.195 150.693 228.039 150.499 227.818 150.457C227.79 150.453 227.763 150.448 227.735 150.448Z" fill="#231F20"/>
<path d="M215.813 216.731C215.772 216.731 215.735 216.722 215.698 216.699L194.068 204.176C193.995 204.134 193.953 204.056 193.953 203.977L194.1 152.09C194.1 152.007 194.146 151.934 194.215 151.892C194.252 151.874 194.289 151.86 194.33 151.86C194.372 151.86 194.408 151.869 194.445 151.892L216.075 164.415C216.149 164.457 216.19 164.535 216.19 164.614L216.043 216.5C216.043 216.583 215.997 216.657 215.928 216.699C215.891 216.717 215.855 216.731 215.813 216.731Z" fill="#7099ED"/>
<path d="M194.334 152.091L215.964 164.614L215.817 216.501L194.186 203.977L194.334 152.091ZM194.334 151.629C194.255 151.629 194.177 151.648 194.104 151.689C193.961 151.772 193.874 151.925 193.874 152.086L193.727 203.973C193.727 204.139 193.814 204.291 193.957 204.374L215.587 216.897C215.656 216.939 215.738 216.957 215.817 216.957C215.895 216.957 215.973 216.939 216.047 216.897C216.189 216.814 216.277 216.662 216.277 216.501L216.424 164.614C216.424 164.448 216.336 164.296 216.194 164.212L194.564 151.689C194.495 151.648 194.412 151.629 194.334 151.629Z" fill="#231F20"/>
<path d="M295.66 218.456C295.618 218.456 295.581 218.447 295.545 218.424C295.471 218.382 295.43 218.304 295.43 218.225L295.577 166.339C295.577 166.256 295.623 166.182 295.692 166.14L320.114 151.906C320.151 151.883 320.187 151.874 320.229 151.874C320.27 151.874 320.307 151.883 320.344 151.906C320.417 151.947 320.459 152.026 320.459 152.104L320.311 203.991C320.311 204.074 320.265 204.148 320.196 204.189L295.775 218.424C295.738 218.447 295.701 218.456 295.66 218.456Z" fill="white"/>
<path d="M320.232 152.104L320.085 203.991L295.663 218.226L295.81 166.339L320.232 152.104ZM320.232 151.643C320.154 151.643 320.071 151.666 320.002 151.708L295.58 165.942C295.438 166.025 295.35 166.177 295.35 166.339L295.203 218.226C295.203 218.392 295.291 218.544 295.433 218.627C295.502 218.668 295.585 218.687 295.663 218.687C295.741 218.687 295.824 218.664 295.893 218.622L320.315 204.388C320.457 204.305 320.545 204.153 320.545 203.991L320.692 152.104C320.692 151.938 320.605 151.786 320.462 151.703C320.393 151.662 320.31 151.643 320.232 151.643Z" fill="#231F20"/>
<path d="M153.414 226.865C153.326 226.865 153.248 226.819 153.207 226.741L145.687 211.851C145.669 211.819 145.664 211.782 145.664 211.745L145.811 159.858C145.811 159.752 145.885 159.66 145.986 159.637C146.004 159.637 146.023 159.632 146.041 159.632C146.129 159.632 146.207 159.678 146.248 159.757L153.768 174.646C153.786 174.679 153.791 174.715 153.791 174.752L153.644 226.639C153.644 226.745 153.57 226.837 153.469 226.861C153.451 226.861 153.432 226.865 153.414 226.865Z" fill="white"/>
<path d="M146.045 159.858L153.564 174.748L153.417 226.634L145.897 211.745L146.045 159.858ZM146.045 159.397C146.008 159.397 145.976 159.397 145.939 159.411C145.732 159.462 145.585 159.646 145.585 159.858L145.438 211.745C145.438 211.819 145.456 211.888 145.488 211.953L153.008 226.842C153.086 226.999 153.247 227.096 153.417 227.096C153.454 227.096 153.486 227.096 153.523 227.082C153.73 227.031 153.877 226.847 153.877 226.634L154.024 174.748C154.024 174.674 154.006 174.605 153.974 174.54L146.454 159.651C146.376 159.494 146.215 159.397 146.045 159.397Z" fill="#231F20"/>
<path d="M192.183 235.43C192.142 235.43 192.105 235.421 192.068 235.398C191.995 235.356 191.953 235.278 191.953 235.199L192.1 183.313C192.1 183.23 192.146 183.156 192.215 183.114L224.874 164.078C224.911 164.055 224.948 164.046 224.989 164.046C225.031 164.046 225.067 164.055 225.104 164.078C225.178 164.12 225.219 164.198 225.219 164.277L225.072 216.163C225.072 216.246 225.026 216.32 224.957 216.362L192.298 235.398C192.261 235.421 192.224 235.43 192.183 235.43Z" fill="white"/>
<path d="M224.993 164.277L224.846 216.164L192.186 235.2L192.334 183.313L224.993 164.277ZM224.993 163.815C224.915 163.815 224.832 163.838 224.763 163.88L192.104 182.916C191.961 182.999 191.874 183.151 191.874 183.313L191.727 235.2C191.727 235.366 191.814 235.518 191.957 235.601C192.026 235.642 192.108 235.661 192.186 235.661C192.265 235.661 192.347 235.638 192.416 235.596L225.076 216.56C225.218 216.477 225.305 216.325 225.305 216.164L225.453 164.277C225.453 164.111 225.365 163.958 225.223 163.875C225.154 163.834 225.071 163.815 224.993 163.815Z" fill="#231F20"/>
<path d="M177.478 235.573C177.437 235.573 177.4 235.564 177.363 235.541L161.974 226.629C161.901 226.588 161.859 226.509 161.859 226.431L162.007 174.544C162.007 174.461 162.053 174.387 162.122 174.346C162.158 174.327 162.195 174.313 162.237 174.313C162.278 174.313 162.315 174.323 162.351 174.346L177.74 183.257C177.814 183.299 177.855 183.377 177.855 183.456L177.708 235.342C177.708 235.425 177.662 235.499 177.593 235.541C177.557 235.559 177.52 235.573 177.478 235.573Z" fill="#7099ED"/>
<path d="M162.24 174.544L177.629 183.456L177.482 235.343L162.093 226.431L162.24 174.544ZM162.24 174.083C162.162 174.083 162.084 174.101 162.01 174.143C161.867 174.226 161.78 174.378 161.78 174.54L161.633 226.426C161.633 226.593 161.72 226.745 161.863 226.828L177.252 235.739C177.321 235.781 177.404 235.799 177.482 235.799C177.56 235.799 177.638 235.781 177.712 235.739C177.854 235.656 177.942 235.504 177.942 235.343L178.089 183.456C178.089 183.29 178.001 183.137 177.859 183.054L162.47 174.143C162.401 174.101 162.318 174.083 162.24 174.083Z" fill="#231F20"/>
<path d="M324.691 238.655C324.65 238.655 324.613 238.645 324.576 238.622L272.826 208.659C272.752 208.618 272.711 208.539 272.711 208.461L272.858 156.574C272.858 156.491 272.904 156.417 272.973 156.376C273.01 156.357 273.047 156.343 273.088 156.343C273.129 156.343 273.166 156.352 273.203 156.376L324.953 186.339C325.027 186.38 325.068 186.459 325.068 186.537L324.921 238.424C324.921 238.507 324.875 238.581 324.806 238.622C324.769 238.641 324.733 238.655 324.691 238.655Z" fill="#7099ED"/>
<path d="M273.091 156.574L324.842 186.537L324.695 238.424L272.944 208.461L273.091 156.574ZM273.091 156.113C273.013 156.113 272.935 156.131 272.862 156.173C272.719 156.256 272.632 156.408 272.632 156.569L272.484 208.456C272.484 208.622 272.572 208.775 272.714 208.858L324.465 238.821C324.534 238.862 324.617 238.881 324.695 238.881C324.773 238.881 324.851 238.862 324.925 238.821C325.067 238.738 325.155 238.586 325.155 238.424L325.302 186.537C325.302 186.371 325.214 186.219 325.072 186.136L273.321 156.173C273.252 156.131 273.17 156.113 273.091 156.113Z" fill="#231F20"/>
<path d="M180.363 242.607C180.326 242.607 180.285 242.598 180.248 242.58C180.174 242.538 180.133 242.46 180.133 242.377L180.28 190.49C180.28 190.411 180.321 190.333 180.39 190.291L192.21 183.114C192.247 183.091 192.289 183.082 192.33 183.082C192.367 183.082 192.408 183.091 192.445 183.11C192.519 183.151 192.56 183.23 192.56 183.313L192.413 235.199C192.413 235.278 192.371 235.356 192.302 235.398L180.482 242.575C180.446 242.598 180.404 242.607 180.363 242.607Z" fill="white"/>
<path d="M192.333 183.313L192.186 235.2L180.366 242.377L180.513 190.49L192.333 183.313ZM192.333 182.852C192.251 182.852 192.168 182.875 192.094 182.916L180.274 190.093C180.136 190.176 180.053 190.324 180.053 190.485L179.906 242.372C179.906 242.538 179.994 242.695 180.141 242.773C180.21 242.815 180.288 242.833 180.366 242.833C180.449 242.833 180.532 242.81 180.605 242.769L192.425 235.592C192.563 235.509 192.646 235.361 192.646 235.2L192.793 183.313C192.793 183.147 192.706 182.99 192.559 182.912C192.49 182.87 192.412 182.852 192.333 182.852Z" fill="#231F20"/>
<path d="M188.035 243.498C187.993 243.498 187.956 243.489 187.92 243.466C187.846 243.424 187.805 243.346 187.805 243.267L187.952 199.688C187.952 199.605 187.998 199.531 188.067 199.489L192.165 197.105C192.202 197.081 192.238 197.072 192.28 197.072C192.321 197.072 192.358 197.081 192.395 197.105C192.468 197.146 192.51 197.224 192.51 197.303L192.363 240.878C192.363 240.961 192.317 241.035 192.248 241.076L188.15 243.466C188.113 243.489 188.076 243.498 188.035 243.498Z" fill="white"/>
<path d="M192.283 197.303L192.136 240.878L188.038 243.267L188.185 199.692L192.283 197.303ZM192.283 196.842C192.205 196.842 192.122 196.865 192.053 196.906L187.955 199.296C187.813 199.379 187.725 199.531 187.725 199.692L187.578 243.267C187.578 243.433 187.666 243.586 187.808 243.669C187.877 243.71 187.96 243.729 188.038 243.729C188.116 243.729 188.199 243.706 188.268 243.664L192.366 241.275C192.508 241.192 192.596 241.039 192.596 240.878L192.743 197.303C192.743 197.137 192.656 196.985 192.513 196.902C192.444 196.86 192.361 196.842 192.283 196.842Z" fill="#231F20"/>
<path d="M184.675 244.655C184.634 244.655 184.597 244.646 184.56 244.623C184.487 244.582 184.445 244.503 184.445 244.42L184.592 201.639C184.592 201.556 184.638 201.482 184.707 201.44L187.743 199.669C187.78 199.646 187.817 199.637 187.858 199.637C187.899 199.637 187.936 199.646 187.973 199.669C188.046 199.711 188.088 199.789 188.088 199.872L187.941 242.654C187.941 242.737 187.895 242.81 187.826 242.852L184.79 244.623C184.753 244.646 184.717 244.655 184.675 244.655Z" fill="white"/>
<path d="M187.861 199.877L187.714 242.658L184.679 244.43L184.826 201.648L187.861 199.877ZM187.861 199.416C187.783 199.416 187.7 199.439 187.631 199.48L184.596 201.251C184.453 201.334 184.366 201.487 184.366 201.648L184.219 244.43C184.219 244.596 184.306 244.748 184.449 244.831C184.518 244.872 184.6 244.891 184.679 244.891C184.757 244.891 184.84 244.868 184.909 244.826L187.944 243.055C188.087 242.972 188.174 242.82 188.174 242.658L188.321 199.877C188.321 199.711 188.234 199.559 188.091 199.475C188.022 199.434 187.94 199.416 187.861 199.416Z" fill="#231F20"/>
<path d="M232.754 269.217C232.713 269.217 232.676 269.208 232.639 269.185L187.599 243.106C187.526 243.064 187.484 242.986 187.484 242.907L187.632 199.877C187.632 199.794 187.678 199.72 187.747 199.678C187.783 199.66 187.82 199.646 187.862 199.646C187.903 199.646 187.94 199.655 187.976 199.678L233.017 225.758C233.09 225.799 233.132 225.878 233.132 225.956L232.984 268.987C232.984 269.07 232.938 269.144 232.869 269.185C232.833 269.204 232.796 269.217 232.754 269.217Z" fill="white"/>
<path d="M187.865 199.877L232.905 225.956L232.758 268.987L187.718 242.907L187.865 199.877ZM187.865 199.416C187.787 199.416 187.709 199.434 187.635 199.475C187.492 199.559 187.405 199.711 187.405 199.872L187.258 242.903C187.258 243.069 187.345 243.221 187.488 243.304L232.528 269.384C232.597 269.425 232.68 269.444 232.758 269.444C232.836 269.444 232.914 269.425 232.988 269.384C233.13 269.301 233.218 269.148 233.218 268.987L233.365 225.956C233.365 225.79 233.278 225.638 233.135 225.555L188.095 199.475C188.026 199.434 187.943 199.416 187.865 199.416Z" fill="#231F20"/>
<path d="M153.563 174.978C153.481 174.978 153.398 174.932 153.356 174.853L145.947 160.181L141.587 162.722C141.55 162.741 141.513 162.755 141.472 162.755C141.431 162.755 141.394 162.745 141.357 162.722L126.06 153.866L114.102 160.836C114.065 160.859 114.028 160.868 113.987 160.868C113.946 160.868 113.909 160.859 113.872 160.836L94.0265 149.341C93.9575 149.3 93.9115 149.226 93.9115 149.143C93.9115 149.06 93.9529 148.986 94.0265 148.944L96.7216 147.376L52.1368 121.56L49.2163 123.262C49.1795 123.285 49.1427 123.294 49.1013 123.294C49.0599 123.294 49.0231 123.285 48.9863 123.262L29.7478 112.122C29.6788 112.081 29.6328 112.007 29.6328 111.924C29.6328 111.841 29.6742 111.767 29.7478 111.726L112.58 63.4505C112.617 63.4274 112.653 63.4182 112.695 63.4182C112.736 63.4182 112.773 63.4274 112.81 63.4505L116.282 65.4615L160.577 39.645L157.335 37.7677C157.266 37.7262 157.22 37.6524 157.22 37.5693C157.22 37.4863 157.261 37.4125 157.335 37.371L246.725 -14.7372C246.762 -14.7603 246.799 -14.7695 246.84 -14.7695C246.881 -14.7695 246.918 -14.7603 246.955 -14.7372L288.27 9.18356C288.339 9.22507 288.385 9.29887 288.385 9.3819C288.385 9.46492 288.343 9.53872 288.27 9.58024L286.587 10.5581L329.106 35.1754L331.015 34.0638C331.052 34.0407 331.089 34.0315 331.13 34.0315C331.171 34.0315 331.208 34.0407 331.245 34.0638L380.424 62.5418C380.493 62.5833 380.539 62.6571 380.539 62.7401C380.539 62.8232 380.498 62.897 380.424 62.9385L378.741 63.9163L409.956 81.9884C410.066 82.053 410.103 82.1913 410.039 82.302C409.997 82.3758 409.919 82.4174 409.841 82.4174C409.804 82.4174 409.763 82.4081 409.726 82.3897L377.959 64.3684L372.969 67.2789C372.932 67.302 372.895 67.3112 372.854 67.3112C372.813 67.3112 372.776 67.302 372.739 67.2789L323.56 38.8009C323.491 38.7594 323.445 38.6856 323.445 38.6025C323.445 38.5195 323.486 38.4457 323.56 38.4042L328.32 35.6274L285.8 11.0101L280.81 13.9207C280.773 13.9437 280.736 13.953 280.695 13.953C280.654 13.953 280.617 13.9437 280.58 13.9207L246.886 -5.59051L178.546 34.239L253.702 77.7541C253.771 77.7956 253.817 77.8694 253.817 77.9524C253.817 78.0354 253.776 78.1092 253.702 78.1507L251.251 79.5806L257.004 91.9792C257.06 92.0945 257.009 92.2283 256.894 92.2837C256.862 92.2975 256.83 92.3067 256.793 92.3067C256.71 92.3067 256.627 92.2606 256.586 92.1822L250.478 80.0281L249.485 80.6092C249.448 80.6323 249.411 80.6415 249.37 80.6415C249.328 80.6415 249.291 80.6323 249.255 80.6092L247.36 79.5114L202.904 105.42C202.867 105.443 202.83 105.453 202.789 105.453C202.747 105.453 202.711 105.443 202.674 105.42L200.963 104.429L195.637 116.597C195.6 116.684 195.513 116.735 195.425 116.735C195.398 116.735 195.366 116.73 195.338 116.716C195.223 116.666 195.168 116.537 195.214 116.417L200.158 104.046L198.424 102.953C198.355 102.911 198.314 102.833 198.318 102.754C198.318 102.671 198.364 102.597 198.433 102.56L242.664 76.7854L173.873 36.9559L165.066 42.0896C165.029 42.1081 164.992 42.1219 164.951 42.1219C164.91 42.1219 164.873 42.1127 164.836 42.0896L161.364 40.0786L117.069 65.8951L120.311 67.7724C120.38 67.814 120.426 67.8878 120.426 67.9708C120.426 68.0538 120.385 68.1276 120.311 68.1691L111.471 73.3214L180.262 113.151L181.766 112.275C181.803 112.251 181.839 112.242 181.881 112.242C181.922 112.242 181.959 112.251 181.996 112.275L186.236 114.728C186.305 114.77 186.351 114.844 186.351 114.927C186.351 115.01 186.31 115.084 186.236 115.125L180.082 118.714C180.046 118.737 180.009 118.746 179.967 118.746C179.926 118.746 179.889 118.737 179.852 118.714L175.612 116.26C175.543 116.218 175.497 116.145 175.497 116.061C175.497 115.978 175.538 115.905 175.612 115.863L176.886 115.12L108.095 75.2909L45.2794 111.901L56.6716 118.497C56.7406 118.538 56.7866 118.612 56.7866 118.695C56.7866 118.778 56.7452 118.852 56.6716 118.894L52.9187 121.08L97.5035 146.896L101.486 144.576C101.523 144.553 101.56 144.544 101.601 144.544C101.643 144.544 101.68 144.553 101.716 144.576L113.941 151.657L125.894 144.692L158.682 125.729C158.719 125.711 158.756 125.697 158.797 125.697C158.839 125.697 158.875 125.706 158.912 125.729L160.963 126.915L182.672 123.359C182.672 123.359 182.695 123.359 182.709 123.359C182.819 123.359 182.916 123.437 182.934 123.552C182.957 123.677 182.87 123.797 182.745 123.82L161.773 127.39L163.153 128.188C163.222 128.229 163.268 128.303 163.268 128.386C163.268 128.469 163.226 128.543 163.153 128.585L161.621 129.479L181.872 141.205C181.941 141.246 181.987 141.32 181.987 141.403C181.987 141.486 181.945 141.56 181.872 141.601L181.251 141.966L187.593 153.548C187.653 153.659 187.616 153.797 187.506 153.861C187.469 153.88 187.432 153.889 187.395 153.889C187.317 153.889 187.239 153.848 187.197 153.774L180.68 142.307L178.965 143.308C178.928 143.331 178.891 143.34 178.85 143.34C178.808 143.34 178.772 143.331 178.735 143.308L158.255 131.449L130.848 147.422L149.051 157.962C149.12 158.004 149.166 158.077 149.166 158.16C149.166 158.243 149.125 158.317 149.051 158.359L146.54 159.826L153.779 174.632C153.835 174.747 153.789 174.886 153.674 174.941C153.642 174.959 153.605 174.964 153.573 174.964L153.563 174.978Z" fill="#FF8B63"/>
<path d="M246.839 -14.5387L288.154 9.38206L286.13 10.5629L329.11 35.4477L331.133 34.2669L380.313 62.7449L378.289 63.9257L409.849 82.2007L377.967 64.1149L372.862 67.09L323.683 38.6119L328.788 35.6368L285.808 10.752L280.703 13.7271L246.894 -5.84866L178.094 34.2484L253.595 77.9664L250.96 79.5024L256.801 92.0901L250.583 79.7192L249.378 80.4203L247.368 79.2579L202.797 105.236L200.865 104.115L195.438 116.518L200.456 103.972L198.556 102.777L243.127 76.7994L173.877 36.7023L164.954 41.9053L161.367 39.8297L116.617 65.9137L120.204 67.9894L111.019 73.34L180.27 113.437L181.889 112.492L186.129 114.945L179.975 118.534L175.735 116.08L177.354 115.135L108.103 75.0374L44.8274 111.915L56.5646 118.709L52.4667 121.099L97.5069 147.178L101.605 144.789L113.944 151.934L126.013 144.899L158.801 125.937L160.921 127.164L182.712 123.599L161.109 127.275L163.041 128.396L161.165 129.489L181.76 141.412L180.941 141.887L187.389 153.663L180.757 141.994L178.839 143.11L158.244 131.186L130.377 147.427L148.926 158.165L146.226 159.738L153.558 174.738L146.038 159.849L141.471 162.51L126.059 153.59L113.986 160.624L94.1402 149.129L97.1757 147.358L52.1356 121.278L49.1001 123.05L29.8616 111.91L112.693 63.6351L116.281 65.7108L161.031 39.6267L157.444 37.551L246.839 -14.5387ZM246.839 -15C246.761 -15 246.678 -14.9769 246.609 -14.9354L157.219 37.1636C157.076 37.2466 156.989 37.3988 156.989 37.5649C156.989 37.7309 157.076 37.8831 157.219 37.9616L160.121 39.6405L116.285 65.1896L112.928 63.2477C112.859 63.2062 112.776 63.1877 112.698 63.1877C112.62 63.1877 112.537 63.2108 112.468 63.2523L29.6362 111.527C29.4936 111.611 29.4062 111.763 29.4062 111.929C29.4062 112.095 29.4936 112.247 29.6362 112.325L48.8747 123.465C48.9437 123.506 49.0265 123.525 49.1047 123.525C49.1829 123.525 49.2657 123.502 49.3347 123.46L52.1402 121.823L96.2651 147.372L93.9149 148.742C93.7723 148.825 93.6849 148.977 93.6849 149.143C93.6849 149.309 93.7723 149.461 93.9149 149.54L113.761 161.03C113.829 161.071 113.912 161.09 113.99 161.09C114.069 161.09 114.151 161.067 114.22 161.025L126.063 154.125L141.245 162.916C141.314 162.958 141.397 162.976 141.475 162.976C141.554 162.976 141.636 162.953 141.705 162.912L145.854 160.495L153.153 174.95C153.236 175.112 153.397 175.204 153.562 175.204C153.631 175.204 153.7 175.19 153.769 175.153C153.994 175.038 154.086 174.766 153.976 174.535L146.833 159.923L149.161 158.566C149.303 158.483 149.391 158.331 149.391 158.165C149.391 157.999 149.303 157.847 149.161 157.769L131.302 147.427L158.253 131.721L178.619 143.516C178.688 143.557 178.77 143.576 178.849 143.576C178.927 143.576 179.01 143.553 179.079 143.511L180.596 142.625L186.998 153.894C187.081 154.042 187.238 154.125 187.399 154.125C187.477 154.125 187.55 154.106 187.624 154.065C187.845 153.94 187.923 153.663 187.803 153.442L181.571 142.058L181.999 141.809C182.142 141.726 182.229 141.574 182.229 141.408C182.229 141.242 182.142 141.089 181.999 141.011L162.089 129.484L163.28 128.792C163.423 128.709 163.51 128.557 163.51 128.391C163.51 128.225 163.423 128.073 163.28 127.994L162.452 127.515L182.799 124.051C183.048 124.009 183.218 123.769 183.176 123.52C183.14 123.294 182.947 123.133 182.721 123.133C182.698 123.133 182.671 123.133 182.648 123.137L161.017 126.68L159.04 125.536C158.971 125.494 158.888 125.476 158.81 125.476C158.732 125.476 158.653 125.494 158.58 125.536L125.792 144.498L113.954 151.399L101.844 144.387C101.775 144.346 101.692 144.327 101.614 144.327C101.536 144.327 101.453 144.351 101.384 144.392L97.5161 146.643L53.3912 121.094L56.7992 119.106C56.9418 119.023 57.0292 118.871 57.0292 118.705C57.0292 118.539 56.9418 118.386 56.7992 118.308L45.7519 111.91L108.108 75.5679L176.439 115.135L175.505 115.679C175.362 115.762 175.275 115.914 175.275 116.08C175.275 116.246 175.362 116.398 175.505 116.477L179.745 118.931C179.814 118.972 179.897 118.991 179.975 118.991C180.054 118.991 180.136 118.968 180.205 118.926L186.359 115.337C186.502 115.254 186.589 115.102 186.589 114.936C186.589 114.77 186.502 114.618 186.359 114.539L182.119 112.086C182.05 112.044 181.967 112.026 181.889 112.026C181.811 112.026 181.728 112.049 181.659 112.09L180.27 112.897L111.939 73.3308L120.439 68.3769C120.581 68.2938 120.669 68.1416 120.669 67.9756C120.669 67.8095 120.581 67.6573 120.439 67.5789L117.536 65.8999L161.372 40.3509L164.729 42.2928C164.798 42.3343 164.881 42.3527 164.959 42.3527C165.037 42.3527 165.12 42.3297 165.189 42.2882L173.881 37.2189L242.212 76.7856L198.326 102.362C198.188 102.445 198.101 102.593 198.096 102.754C198.096 102.916 198.175 103.068 198.313 103.151L199.885 104.138L195.01 116.329C194.918 116.564 195.029 116.827 195.259 116.924C195.318 116.947 195.378 116.961 195.438 116.961C195.617 116.961 195.783 116.86 195.861 116.684L201.081 104.752L202.567 105.614C202.636 105.656 202.719 105.674 202.797 105.674C202.875 105.674 202.958 105.651 203.027 105.61L247.368 79.7653L249.148 80.7939C249.217 80.8354 249.299 80.8539 249.378 80.8539C249.456 80.8539 249.539 80.8308 249.608 80.7893L250.389 80.3326L256.387 92.2654C256.47 92.4268 256.631 92.5191 256.796 92.5191C256.865 92.5191 256.93 92.5052 256.999 92.4729C257.224 92.3622 257.321 92.0901 257.215 91.8641L251.548 79.6592L253.82 78.3354C253.963 78.2524 254.05 78.1002 254.05 77.9341C254.05 77.7681 253.963 77.6158 253.82 77.5374L179.01 34.2208L246.889 -5.31821L280.468 14.1238C280.537 14.1653 280.62 14.1837 280.698 14.1837C280.777 14.1837 280.859 14.1607 280.928 14.1192L285.803 11.2778L327.863 35.6322L323.443 38.206C323.301 38.2891 323.214 38.4413 323.214 38.6073C323.214 38.7734 323.301 38.9256 323.443 39.004L372.623 67.482C372.692 67.5235 372.775 67.542 372.853 67.542C372.931 67.542 373.014 67.5189 373.083 67.4774L377.958 64.6361L409.61 82.5882C409.683 82.6297 409.757 82.6482 409.835 82.6482C409.996 82.6482 410.148 82.5651 410.235 82.4175C410.359 82.1961 410.286 81.9148 410.065 81.7902L379.195 63.9165L380.534 63.137C380.676 63.054 380.764 62.9017 380.764 62.7357C380.764 62.5696 380.676 62.4174 380.534 62.339L331.354 33.861C331.285 33.8195 331.202 33.801 331.124 33.801C331.046 33.801 330.963 33.8241 330.894 33.8656L329.1 34.9127L287.041 10.5583L288.379 9.77874C288.522 9.69571 288.609 9.5435 288.609 9.37745C288.609 9.21139 288.522 9.05918 288.379 8.98077L247.069 -14.94C247 -14.9815 246.917 -15 246.839 -15Z" fill="#231F20"/>
<path d="M249.563 239.365C249.522 239.365 249.485 239.356 249.448 239.333L229.75 227.926C229.681 227.884 229.635 227.81 229.635 227.727C229.635 227.644 229.676 227.571 229.75 227.529L232.445 225.961L187.86 200.144L184.94 201.846C184.903 201.869 184.866 201.879 184.825 201.879C184.783 201.879 184.746 201.869 184.71 201.846L165.439 190.688C165.37 190.647 165.324 190.573 165.324 190.49C165.324 190.407 165.365 190.333 165.439 190.292L177.167 183.456L162.123 174.747C162.054 174.706 162.008 174.632 162.008 174.549C162.008 174.466 162.049 174.392 162.123 174.351L169.578 170.006C169.615 169.983 169.652 169.973 169.693 169.973C169.734 169.973 169.771 169.983 169.808 170.006L188.095 180.596L215.501 164.623L194.216 152.298C194.147 152.257 194.101 152.183 194.101 152.1C194.101 152.017 194.143 151.943 194.216 151.901L197.132 150.199C197.169 150.176 197.206 150.167 197.247 150.167C197.288 150.167 197.325 150.176 197.362 150.199L218.877 162.658L220.639 161.629C220.675 161.606 220.712 161.597 220.754 161.597C220.795 161.597 220.832 161.606 220.869 161.629L222.57 162.616L227.514 150.827C227.551 150.739 227.639 150.684 227.726 150.684C227.754 150.684 227.781 150.688 227.813 150.702C227.928 150.748 227.988 150.882 227.942 150.997L223.375 162.995L225.114 164.088C225.183 164.129 225.224 164.208 225.219 164.286C225.219 164.369 225.173 164.443 225.104 164.48L192.445 183.516L180.961 190.49L192.386 197.105C192.455 197.146 192.501 197.22 192.501 197.303C192.501 197.386 192.459 197.46 192.386 197.501L188.633 199.688L233.217 225.504L237.196 223.184C237.233 223.161 237.269 223.152 237.311 223.152C237.352 223.152 237.389 223.161 237.426 223.184L249.503 230.177L324.374 186.542L272.969 156.777C272.9 156.735 272.854 156.662 272.854 156.578C272.854 156.495 272.895 156.422 272.969 156.38L275.884 154.678C275.921 154.655 275.958 154.646 275.999 154.646C276.041 154.646 276.078 154.655 276.114 154.678L292.86 164.374L343.208 135.029L309.307 115.397L258.959 144.743L261.788 146.38C261.857 146.422 261.903 146.495 261.903 146.578C261.903 146.661 261.861 146.735 261.788 146.777L260.518 147.515L265.969 157.967C266.028 158.078 265.982 158.216 265.872 158.276C265.835 158.294 265.798 158.304 265.762 158.304C265.679 158.304 265.601 158.262 265.559 158.184L259.934 147.851L258.867 148.474C258.831 148.497 258.794 148.506 258.752 148.506C258.711 148.506 258.674 148.497 258.637 148.474L255.579 146.703L242.02 154.604C241.984 154.627 241.947 154.637 241.905 154.637C241.864 154.637 241.827 154.627 241.79 154.604L237.55 152.15C237.481 152.109 237.435 152.035 237.435 151.952C237.435 151.869 237.476 151.795 237.55 151.754L250.878 143.986L213.666 122.441C213.597 122.399 213.551 122.326 213.551 122.242C213.551 122.159 213.593 122.086 213.666 122.044L232.307 111.182C232.344 111.158 232.38 111.149 232.422 111.149C232.463 111.149 232.5 111.158 232.537 111.182L235.471 112.884C235.54 112.925 235.586 112.999 235.586 113.082C235.586 113.165 235.545 113.239 235.471 113.28L220.091 122.247L254.25 142.026L304.597 112.681L271.469 93.4969L251.38 105.208C251.343 105.231 251.306 105.241 251.265 105.241C251.223 105.241 251.187 105.231 251.15 105.208L249.756 104.401L231.332 107.994C231.332 107.994 231.304 107.994 231.286 107.994C231.18 107.994 231.083 107.92 231.06 107.81C231.037 107.685 231.116 107.565 231.24 107.538L248.97 103.944L248.211 103.506C248.142 103.465 248.096 103.391 248.096 103.308C248.096 103.225 248.137 103.151 248.211 103.11L268.075 91.532L265.371 89.9683C265.302 89.9268 265.256 89.853 265.256 89.77C265.256 89.6869 265.297 89.6131 265.371 89.5716L269.583 87.1177C269.62 87.0947 269.657 87.0854 269.698 87.0854C269.74 87.0854 269.777 87.0947 269.813 87.1177L356.251 137.169C356.32 137.21 356.366 137.284 356.366 137.367C356.366 137.45 356.325 137.524 356.251 137.565L354.315 138.691L358.293 148.594C358.339 148.709 358.284 148.843 358.169 148.894C358.141 148.908 358.109 148.912 358.082 148.912C357.994 148.912 357.907 148.862 357.87 148.774L353.731 139.037L352.043 140.019C352.006 140.042 351.969 140.052 351.928 140.052C351.887 140.052 351.85 140.042 351.813 140.019L350.985 139.54L324.714 154.849C324.678 154.872 324.641 154.881 324.599 154.881C324.558 154.881 324.521 154.872 324.484 154.849L320.212 152.376L296.25 166.343L327.741 184.577L345.144 174.434C345.181 174.411 345.218 174.401 345.259 174.401C345.3 174.401 345.337 174.411 345.374 174.434L348.846 176.445L376.98 160.047L373.737 158.17C373.668 158.128 373.622 158.054 373.622 157.971C373.622 157.888 373.664 157.815 373.737 157.773L378.088 155.236L364.889 147.593C364.82 147.552 364.774 147.478 364.774 147.395C364.774 147.312 364.815 147.238 364.889 147.197L369.101 144.743C369.138 144.72 369.175 144.71 369.216 144.71C369.258 144.71 369.295 144.72 369.331 144.743L382.761 152.519L451.101 112.69L415.701 92.1916C415.632 92.1501 415.586 92.0763 415.586 91.9932C415.586 91.9102 415.627 91.8364 415.701 91.7949L423.156 87.4498C423.193 87.4268 423.23 87.4175 423.271 87.4175C423.312 87.4175 423.349 87.4268 423.386 87.4498L466.632 112.491C466.701 112.533 466.747 112.607 466.747 112.69C466.747 112.773 466.706 112.847 466.632 112.888L381.473 162.524C381.436 162.547 381.4 162.556 381.358 162.556C381.317 162.556 381.28 162.547 381.243 162.524L377.771 160.513L349.637 176.911L352.88 178.788C352.949 178.83 352.995 178.903 352.995 178.986C352.995 179.069 352.954 179.143 352.88 179.185L249.66 239.346C249.623 239.365 249.586 239.379 249.545 239.379L249.563 239.365ZM324.599 150.979L327.736 149.148L326.747 148.576L323.611 150.407L324.599 150.979ZM331.112 147.183L332.864 146.163L331.875 145.591L330.123 146.615L331.112 147.187V147.183ZM336.24 144.194L337.279 143.589L336.291 143.018L335.251 143.622L336.24 144.194ZM340.655 141.62L342.099 140.78L341.111 140.208L339.666 141.048L340.655 141.62ZM345.475 138.811L347.609 137.57L346.62 136.998L344.486 138.239L345.475 138.811Z" fill="#FF8B63"/>
<path d="M269.718 87.307L356.156 137.358L354.05 138.585L358.102 148.673L353.857 138.696L351.943 139.812L351 139.268L324.615 154.646L320.227 152.104L295.805 166.339L327.756 184.84L345.274 174.628L348.862 176.703L377.455 160.038L373.868 157.962L378.564 155.227L365.019 147.386L369.232 144.932L382.776 152.773L451.576 112.676L415.836 91.9795L423.291 87.6345L466.537 112.676L381.378 162.312L377.791 160.236L349.198 176.902L352.785 178.977L249.565 239.139L229.866 227.732L232.902 225.961L187.862 199.881L184.826 201.653L165.555 190.495L177.628 183.461L162.239 174.549L169.695 170.204L188.096 180.859L215.963 164.618L194.333 152.095L197.249 150.393L218.879 162.916L220.755 161.823L222.682 162.939L227.728 150.91L223.092 163.082L224.991 164.277L192.332 183.313L180.512 190.49L192.277 197.303L188.179 199.692L233.219 225.772L237.317 223.383L249.51 230.444L324.84 186.542L273.09 156.579L276.006 154.877L292.866 164.641L343.669 135.033L309.309 115.139L258.506 144.747L261.679 146.588L260.221 147.437L265.772 158.087L260.033 147.547L258.759 148.29L255.585 146.449L241.912 154.42L237.671 151.966L251.345 143.996L213.792 122.252L232.433 111.389L235.367 113.091L219.642 122.256L254.261 142.303L305.063 112.695L271.475 93.248L251.271 105.024L249.804 104.175L231.297 107.787L249.624 104.074L248.337 103.326L268.541 91.5506L265.492 89.784L269.705 87.3301M345.458 139.097L348.048 137.589L346.599 136.749L344.01 138.257L345.458 139.097ZM340.638 141.906L342.542 140.799L341.094 139.96L339.19 141.067L340.638 141.906ZM336.223 144.48L337.718 143.608L336.269 142.769L334.774 143.64L336.223 144.48ZM331.095 147.469L333.307 146.182L331.859 145.342L329.646 146.629L331.095 147.469ZM324.583 151.265L328.179 149.166L326.73 148.327L323.134 150.425L324.583 151.265ZM269.705 86.8688C269.626 86.8688 269.544 86.8919 269.475 86.9334L265.262 89.3873C265.119 89.4703 265.032 89.6225 265.032 89.7886C265.032 89.9546 265.119 90.1068 265.262 90.1853L267.621 91.5506L248.102 102.925C247.96 103.008 247.872 103.16 247.872 103.326C247.872 103.493 247.96 103.645 248.102 103.723L248.337 103.857L231.2 107.33C230.952 107.381 230.791 107.621 230.841 107.87C230.883 108.091 231.076 108.243 231.292 108.243C231.32 108.243 231.352 108.243 231.379 108.234L249.721 104.66L251.041 105.425C251.11 105.467 251.193 105.485 251.271 105.485C251.349 105.485 251.432 105.462 251.501 105.421L271.475 93.7784L304.144 112.695L254.256 141.772L220.557 122.261L235.597 113.497C235.739 113.414 235.827 113.262 235.827 113.096C235.827 112.93 235.739 112.778 235.597 112.699L232.663 110.997C232.594 110.956 232.511 110.937 232.433 110.937C232.354 110.937 232.272 110.96 232.203 111.002L213.562 121.864C213.419 121.947 213.332 122.1 213.332 122.266C213.332 122.432 213.419 122.584 213.562 122.662L250.429 144.009L237.441 151.579C237.299 151.662 237.211 151.814 237.211 151.98C237.211 152.146 237.299 152.298 237.441 152.377L241.682 154.83C241.751 154.872 241.833 154.89 241.912 154.89C241.99 154.89 242.073 154.867 242.142 154.826L255.585 146.989L258.529 148.696C258.598 148.737 258.68 148.756 258.759 148.756C258.837 148.756 258.92 148.733 258.989 148.691L259.853 148.188L265.368 158.313C265.45 158.465 265.607 158.553 265.772 158.553C265.846 158.553 265.92 158.534 265.989 158.497C266.209 158.378 266.297 158.101 266.177 157.875L260.828 147.616L261.904 146.989C262.047 146.906 262.134 146.754 262.134 146.588C262.134 146.422 262.047 146.27 261.904 146.191L259.416 144.752L309.304 115.674L342.745 135.038L292.857 164.116L276.226 154.485C276.157 154.443 276.075 154.425 275.996 154.425C275.918 154.425 275.835 154.448 275.766 154.489L272.851 156.191C272.708 156.274 272.621 156.426 272.621 156.592C272.621 156.759 272.708 156.911 272.851 156.989L323.911 186.556L249.5 229.923L237.538 222.995C237.469 222.954 237.386 222.935 237.308 222.935C237.23 222.935 237.147 222.958 237.078 223L233.214 225.251L189.09 199.702L192.498 197.714C192.64 197.631 192.728 197.478 192.728 197.312C192.728 197.146 192.64 196.994 192.498 196.916L181.409 190.495L192.562 183.719L225.216 164.688C225.354 164.604 225.442 164.457 225.446 164.295C225.446 164.134 225.368 163.982 225.23 163.899L223.648 162.907L228.146 151.09C228.234 150.854 228.119 150.591 227.889 150.499C227.833 150.476 227.774 150.467 227.718 150.467C227.539 150.467 227.369 150.573 227.295 150.748L222.452 162.294L220.976 161.44C220.907 161.399 220.824 161.38 220.746 161.38C220.668 161.38 220.585 161.403 220.516 161.445L218.87 162.404L197.469 150.015C197.4 149.973 197.318 149.955 197.239 149.955C197.161 149.955 197.078 149.978 197.009 150.02L194.094 151.722C193.951 151.805 193.864 151.957 193.864 152.123C193.864 152.289 193.951 152.441 194.094 152.52L215.034 164.646L188.082 180.352L169.911 169.831C169.842 169.789 169.759 169.771 169.681 169.771C169.603 169.771 169.52 169.794 169.451 169.835L161.996 174.18C161.853 174.263 161.766 174.415 161.766 174.581C161.766 174.748 161.853 174.9 161.996 174.978L176.695 183.488L165.307 190.126C165.164 190.209 165.077 190.361 165.077 190.527C165.077 190.693 165.164 190.845 165.307 190.924L184.578 202.082C184.647 202.123 184.73 202.142 184.808 202.142C184.886 202.142 184.969 202.119 185.038 202.077L187.843 200.44L231.968 225.989L229.618 227.359C229.475 227.442 229.388 227.594 229.388 227.76C229.388 227.926 229.475 228.078 229.618 228.157L249.316 239.563C249.385 239.605 249.468 239.623 249.546 239.623C249.625 239.623 249.707 239.6 249.776 239.559L352.997 179.397C353.139 179.314 353.227 179.162 353.227 178.996C353.227 178.83 353.139 178.677 352.997 178.599L350.094 176.92L377.768 160.79L381.125 162.736C381.194 162.778 381.277 162.796 381.355 162.796C381.434 162.796 381.516 162.773 381.585 162.732L466.744 113.096C466.887 113.013 466.974 112.861 466.974 112.695C466.974 112.529 466.887 112.376 466.744 112.298L423.498 87.2563C423.429 87.2148 423.346 87.1963 423.268 87.1963C423.19 87.1963 423.107 87.2194 423.038 87.2609L415.583 91.6059C415.44 91.689 415.353 91.8412 415.353 92.0072C415.353 92.1733 415.44 92.3255 415.583 92.4039L450.638 112.699L382.753 152.261L369.443 144.554C369.374 144.512 369.292 144.494 369.213 144.494C369.135 144.494 369.052 144.517 368.983 144.558L364.771 147.012C364.628 147.095 364.541 147.247 364.541 147.413C364.541 147.579 364.628 147.732 364.771 147.81L377.625 155.255L373.619 157.589C373.477 157.672 373.389 157.824 373.389 157.99C373.389 158.156 373.477 158.308 373.619 158.387L376.522 160.066L348.848 176.196L345.491 174.249C345.422 174.208 345.339 174.189 345.261 174.189C345.182 174.189 345.1 174.212 345.031 174.254L327.742 184.328L296.711 166.357L320.213 152.658L324.371 155.066C324.44 155.107 324.523 155.126 324.601 155.126C324.679 155.126 324.762 155.103 324.831 155.061L350.987 139.817L351.7 140.227C351.769 140.269 351.851 140.287 351.93 140.287C352.008 140.287 352.09 140.264 352.159 140.222L353.622 139.369L357.66 148.866C357.734 149.042 357.904 149.148 358.083 149.148C358.143 149.148 358.203 149.139 358.258 149.111C358.493 149.014 358.603 148.746 358.506 148.511L354.606 138.793L356.368 137.764C356.51 137.681 356.598 137.529 356.598 137.363C356.598 137.197 356.51 137.044 356.368 136.966L269.93 86.9149C269.861 86.8734 269.778 86.855 269.7 86.855L269.705 86.8688ZM344.925 138.257L346.599 137.284L347.133 137.593L345.458 138.571L344.925 138.262V138.257ZM340.105 141.067L341.089 140.495L341.623 140.804L340.638 141.376L340.105 141.067ZM335.69 143.64L336.269 143.304L336.803 143.613L336.223 143.949L335.69 143.64ZM330.562 146.629L331.854 145.873L332.387 146.182L331.095 146.938L330.562 146.629ZM324.049 150.425L326.73 148.862L327.264 149.171L324.583 150.734L324.049 150.425Z" fill="#231F20"/>
<path d="M94.0197 193.479C93.9783 193.479 93.9369 193.47 93.9001 193.447L48.8369 166.32C48.768 166.279 48.7266 166.205 48.7266 166.122C48.7266 166.039 48.768 165.965 48.8415 165.924L51.877 164.134C51.9138 164.111 51.9552 164.102 51.992 164.102C52.0288 164.102 52.0702 164.111 52.107 164.134L97.1471 190.213C97.2115 190.25 97.2529 190.315 97.2621 190.389C97.2713 190.462 97.2437 190.532 97.1931 190.582L94.176 193.414C94.1301 193.456 94.0749 193.479 94.0197 193.479Z" fill="white"/>
<path d="M51.9922 164.332L97.0323 190.412L94.0153 193.244L48.9521 166.117L51.9876 164.327M51.9876 163.866C51.9048 163.866 51.8266 163.889 51.753 163.931L48.7175 165.72C48.5796 165.803 48.4922 165.951 48.4922 166.117C48.4922 166.279 48.575 166.431 48.7175 166.514L93.7807 193.64C93.8543 193.686 93.9371 193.705 94.0153 193.705C94.1302 193.705 94.2406 193.663 94.328 193.58L97.3451 190.748C97.4509 190.647 97.5061 190.504 97.4877 190.361C97.4693 190.218 97.3865 190.089 97.2623 190.015L52.2222 163.935C52.1532 163.894 52.0704 163.875 51.9922 163.875L51.9876 163.866Z" fill="#231F20"/>
<path d="M113.843 212.75C113.802 212.75 113.765 212.741 113.728 212.718L29.5994 164.005C29.5258 163.963 29.4844 163.885 29.4844 163.806L29.6315 111.92C29.6315 111.837 29.6775 111.763 29.7465 111.721C29.7833 111.703 29.8201 111.689 29.8615 111.689C29.9029 111.689 29.9397 111.698 29.9765 111.721L49.215 122.861C49.2886 122.902 49.33 122.981 49.33 123.059L49.2104 166.007L93.7906 192.838L93.9148 149.138C93.9148 149.055 93.9608 148.982 94.0298 148.94C94.0666 148.922 94.1034 148.908 94.1448 148.908C94.1862 148.908 94.223 148.917 94.2598 148.94L114.105 160.435C114.179 160.476 114.22 160.555 114.22 160.633L114.073 212.52C114.073 212.603 114.027 212.677 113.958 212.718C113.921 212.737 113.885 212.75 113.843 212.75Z" fill="#7099ED"/>
<path d="M29.8603 111.92L49.0988 123.059L48.9793 166.136L94.0194 193.244L94.1436 149.139L113.989 160.629L113.842 212.515L93.9964 201.025L48.9563 174.946L29.7177 163.807L29.8649 111.92M29.8649 111.458C29.7867 111.458 29.7085 111.477 29.6349 111.518C29.4924 111.601 29.405 111.754 29.405 111.915L29.2578 163.802C29.2578 163.968 29.3452 164.12 29.4878 164.203L48.7263 175.343L93.7664 201.422L113.612 212.917C113.681 212.958 113.764 212.977 113.842 212.977C113.92 212.977 113.998 212.958 114.072 212.917C114.215 212.834 114.302 212.681 114.302 212.52L114.449 160.633C114.449 160.467 114.362 160.315 114.219 160.232L94.3735 148.742C94.3046 148.7 94.2218 148.682 94.1436 148.682C94.0654 148.682 93.9872 148.7 93.9136 148.742C93.771 148.825 93.6837 148.977 93.6837 149.139L93.5595 192.432L49.4392 165.878L49.5588 123.064C49.5588 122.898 49.4714 122.745 49.3288 122.662L30.0903 111.523C30.0213 111.482 29.9385 111.463 29.8603 111.463L29.8649 111.458Z" fill="#231F20"/>
<path d="M249.411 291.252C249.37 291.252 249.333 291.243 249.296 291.22L165.287 242.576C165.213 242.534 165.172 242.456 165.172 242.377L165.319 190.49C165.319 190.407 165.365 190.334 165.434 190.292C165.471 190.274 165.508 190.26 165.549 190.26C165.59 190.26 165.627 190.269 165.664 190.292L184.935 201.45C185.008 201.491 185.05 201.57 185.05 201.648L184.93 244.31L229.51 270.186L229.63 227.728C229.63 227.645 229.676 227.571 229.745 227.529C229.782 227.511 229.818 227.497 229.86 227.497C229.901 227.497 229.938 227.506 229.975 227.529L249.673 238.936C249.747 238.978 249.788 239.056 249.788 239.135L249.641 291.021C249.641 291.104 249.595 291.178 249.526 291.22C249.489 291.238 249.453 291.252 249.411 291.252Z" fill="#7099ED"/>
<path d="M165.552 190.49L184.823 201.648L184.704 244.444L229.744 270.588L229.863 227.728L249.562 239.134L249.415 291.021L229.716 279.614L184.676 253.535L165.405 242.377L165.552 190.49ZM165.552 190.029C165.474 190.029 165.396 190.047 165.322 190.089C165.18 190.172 165.092 190.324 165.092 190.486L164.945 242.372C164.945 242.539 165.033 242.691 165.175 242.774L184.446 253.932L229.486 280.011L249.185 291.418C249.254 291.46 249.336 291.478 249.415 291.478C249.493 291.478 249.571 291.46 249.645 291.418C249.787 291.335 249.874 291.183 249.874 291.021L250.022 239.134C250.022 238.968 249.934 238.816 249.792 238.733L230.093 227.326C230.024 227.285 229.941 227.266 229.863 227.266C229.785 227.266 229.707 227.285 229.633 227.326C229.491 227.409 229.403 227.562 229.403 227.723L229.284 269.785L185.159 244.171L185.278 201.643C185.278 201.477 185.191 201.325 185.048 201.242L165.778 190.084C165.709 190.043 165.626 190.024 165.548 190.024L165.552 190.029Z" fill="#231F20"/>
<path d="M372.701 119.207C372.66 119.207 372.623 119.198 372.586 119.175L323.407 90.6971C323.333 90.6555 323.292 90.5771 323.292 90.4987V90.3972L280.51 65.8399C280.482 65.8399 280.455 65.8307 280.432 65.8168L246.623 46.2411C246.549 46.1996 246.508 46.1212 246.508 46.0427L246.655 -5.84408C246.655 -5.9271 246.701 -6.00091 246.77 -6.04242C246.807 -6.06087 246.844 -6.07471 246.885 -6.07471C246.926 -6.07471 246.963 -6.06548 247 -6.04242L280.809 13.5333C280.882 13.5749 280.924 13.6533 280.924 13.7317L280.804 56.0336L323.324 79.8667L323.439 38.6165C323.439 38.5335 323.485 38.4597 323.554 38.4182C323.591 38.3997 323.628 38.3859 323.669 38.3859C323.71 38.3859 323.747 38.3951 323.784 38.4182L372.963 66.8962C373.037 66.9377 373.078 67.0161 373.078 67.0945L372.931 118.981C372.931 119.064 372.885 119.138 372.816 119.18C372.779 119.198 372.743 119.212 372.701 119.212V119.207Z" fill="#7099ED"/>
<path d="M246.881 -5.84858L280.689 13.7272L280.57 56.1628L323.55 80.2543L323.669 38.612L372.849 67.09L372.701 118.977L323.522 90.4988V90.2636L280.542 65.5909V65.6094L246.733 46.0336L246.881 -5.8532M246.881 -6.31445C246.802 -6.31445 246.724 -6.296 246.651 -6.25449C246.508 -6.17146 246.421 -6.01925 246.421 -5.85781L246.273 46.029C246.273 46.1951 246.361 46.3473 246.503 46.4303L280.312 66.0061C280.349 66.0291 280.39 66.043 280.432 66.0568L323.062 90.5265C323.071 90.6787 323.159 90.8171 323.292 90.8955L372.471 119.374C372.54 119.415 372.623 119.433 372.701 119.433C372.78 119.433 372.858 119.415 372.931 119.374C373.074 119.291 373.161 119.138 373.161 118.977L373.308 67.09C373.308 66.924 373.221 66.7718 373.078 66.6887L323.899 38.2107C323.83 38.1692 323.747 38.1507 323.669 38.1507C323.591 38.1507 323.513 38.1692 323.439 38.2107C323.297 38.2937 323.209 38.4459 323.209 38.6074L323.094 79.4655L281.034 55.8907L281.154 13.7272C281.154 13.5611 281.067 13.4089 280.924 13.3259L247.115 -6.24988C247.046 -6.29139 246.963 -6.30984 246.885 -6.30984L246.881 -6.31445Z" fill="#231F20"/>
<path d="M466.534 112.676L381.375 162.307L381.241 205.116L352.648 221.975L352.781 178.972L249.561 239.134L249.414 291.021L352.634 230.859L466.387 164.563L466.534 112.676Z" fill="white" stroke="#231F20" stroke-linejoin="round"/>
</g>
<defs>
<clipPath id="clip0_9185_21136">
<rect width="467" height="323" fill="white" transform="translate(0 -15)"/>
</clipPath>
</defs>
</svg>
