<svg width="281" height="111" viewBox="0 0 281 111" fill="none" xmlns="http://www.w3.org/2000/svg">
<path d="M23.3714 34.5942V30H4.30611V34.5942H0.22411V26.5263H27.4534V34.5942H23.3714ZM5.09049 6.69259H24.2519V29.4397H19.8817V10.1663H8.83633L8.34008 18.7945C8.21202 21.0783 7.99325 22.8658 7.68376 24.1571C7.37428 25.4484 6.95274 26.5476 6.41914 27.4548H2.11303C2.83872 26.3982 3.37232 25.203 3.71382 23.869C4.06599 22.5243 4.30077 20.7635 4.41816 18.5864L5.09049 6.69259ZM29.3264 18.6024V17.9461C29.3264 14.0829 30.5536 11.1641 33.0082 9.18981C35.4627 7.20484 38.5629 6.21235 42.3087 6.21235C46.0545 6.21235 49.1601 7.20484 51.6253 9.18981C54.1012 11.1641 55.3391 14.0829 55.3391 17.9461V18.6024C55.3391 22.5403 54.1012 25.5071 51.6253 27.5028C49.1601 29.4877 46.0545 30.4802 42.3087 30.4802C38.5629 30.4802 35.4627 29.4877 33.0082 27.5028C30.5536 25.5071 29.3264 22.5403 29.3264 18.6024ZM33.8886 18.8105C33.8886 21.6172 34.6676 23.7089 36.2257 25.0856C37.7838 26.4623 39.8168 27.1559 42.3247 27.1666C44.8219 27.1666 46.8549 26.4783 48.4237 25.1016C49.9925 23.7143 50.7769 21.6226 50.7769 18.8265V17.786C50.7769 15.0327 49.9925 12.9783 48.4237 11.623C46.8656 10.2677 44.8326 9.59001 42.3247 9.59001C39.8062 9.57934 37.7678 10.257 36.2097 11.623C34.6623 12.9783 33.8886 15.0327 33.8886 17.786V18.8105ZM59.5972 30V6.69259H78.0862V10.1023H64.0153V15.721H71.3789C74.1323 15.721 76.2026 16.34 77.59 17.5779C78.988 18.8052 79.687 20.5447 79.687 22.7965C79.687 25.1016 78.988 26.8785 77.59 28.1271C76.192 29.3757 74.1163 30 71.3629 30H59.5972ZM64.0153 18.8746V26.7664H70.8347C72.4675 26.7664 73.6254 26.4303 74.3084 25.7579C75.0021 25.0749 75.3489 24.0931 75.3489 22.8125C75.3489 21.5745 75.0021 20.6087 74.3084 19.9151C73.6254 19.2214 72.4675 18.8746 70.8347 18.8746H64.0153ZM83.705 30V6.69259H95.0065C97.9626 6.69259 100.198 7.35425 101.714 8.67756C103.24 9.9902 104.003 11.8845 104.003 14.3603C104.003 16.7615 103.245 18.6504 101.73 20.0271C100.225 21.4038 97.9733 22.0815 94.9745 22.0601H88.1231V30H83.705ZM88.1231 18.8265H94.3982C96.2978 18.8265 97.6371 18.437 98.4162 17.658C99.1952 16.8682 99.5848 15.785 99.5848 14.4084C99.5848 12.9997 99.1952 11.9218 98.4162 11.1748C97.6371 10.4171 96.2978 10.0382 94.3982 10.0382H88.1231V18.8265ZM106.196 18.6024V17.9461C106.196 14.0829 107.423 11.1641 109.878 9.18981C112.332 7.20484 115.433 6.21235 119.178 6.21235C122.924 6.21235 126.03 7.20484 128.495 9.18981C130.971 11.1641 132.209 14.0829 132.209 17.9461V18.6024C132.209 22.5403 130.971 25.5071 128.495 27.5028C126.03 29.4877 122.924 30.4802 119.178 30.4802C115.433 30.4802 112.332 29.4877 109.878 27.5028C107.423 25.5071 106.196 22.5403 106.196 18.6024ZM110.758 18.8105C110.758 21.6172 111.537 23.7089 113.095 25.0856C114.653 26.4623 116.686 27.1559 119.194 27.1666C121.692 27.1666 123.725 26.4783 125.293 25.1016C126.862 23.7143 127.646 21.6226 127.646 18.8265V17.786C127.646 15.0327 126.862 12.9783 125.293 11.623C123.735 10.2677 121.702 9.59001 119.194 9.59001C116.676 9.57934 114.637 10.257 113.079 11.623C111.532 12.9783 110.758 15.0327 110.758 17.786V18.8105ZM2.83339 68V44.6926H24.7321V68H20.3139V48.1663H7.25155V68H2.83339ZM28.9742 56.6024V55.9461C28.9742 52.0829 30.2015 49.1641 32.656 47.1898C35.1105 45.2048 38.2107 44.2124 41.9565 44.2124C45.7024 44.2124 48.8079 45.2048 51.2731 47.1898C53.749 49.1641 54.9869 52.0829 54.9869 55.9461V56.6024C54.9869 60.5403 53.749 63.5071 51.2731 65.5028C48.8079 67.4877 45.7024 68.4802 41.9565 68.4802C38.2107 68.4802 35.1105 67.4877 32.656 65.5028C30.2015 63.5071 28.9742 60.5403 28.9742 56.6024ZM33.5364 56.8105C33.5364 59.6172 34.3155 61.7089 35.8736 63.0856C37.4317 64.4623 39.4647 65.1559 41.9725 65.1666C44.4698 65.1666 46.5028 64.4783 48.0715 63.1016C49.6403 61.7143 50.4247 59.6226 50.4247 56.8265V55.786C50.4247 53.0327 49.6403 50.9783 48.0715 49.623C46.5134 48.2677 44.4804 47.59 41.9725 47.59C39.454 47.5793 37.4157 48.257 35.8576 49.623C34.3101 50.9783 33.5364 53.0327 33.5364 55.786V56.8105ZM71.9072 68V44.6926H76.2934V68H71.9072ZM87.3067 68L77.638 56.8746L81.1277 54.4414L92.8134 68H87.3067ZM74.1003 54.2493H78.6145L87.1947 44.6926H92.1571L80.4234 57.739H74.1003V54.2493ZM55.5472 68L67.2649 54.4894L70.5625 56.8746L60.8938 68H55.5472ZM74.1003 54.2493V57.739H67.5531L55.9154 44.6926H61.0699L69.5861 54.2493H74.1003ZM91.6129 68L102.29 44.5965H106.676L117.369 68H112.503L105.188 51.0797C105.006 50.6528 104.851 50.2633 104.723 49.9111C104.595 49.559 104.472 49.2068 104.355 48.8546H104.243C104.115 49.2068 103.992 49.559 103.875 49.9111C103.757 50.2633 103.608 50.6528 103.427 51.0797L96.079 68H91.6129ZM96.4952 62.3812L97.7919 59.1477H110.998L112.295 62.3812H96.4952ZM122.636 44.6926H141.653V68H137.219V48.1663H126.366L125.758 59.0676C125.587 62.0664 125.08 64.3769 124.237 65.999C123.404 67.6105 121.82 68.4162 119.482 68.4162C119.056 68.4162 118.666 68.3895 118.314 68.3362C117.972 68.2935 117.647 68.2134 117.337 68.096V64.2222C117.583 64.2969 117.818 64.3502 118.042 64.3822C118.277 64.4142 118.527 64.4303 118.794 64.4303C119.851 64.4303 120.592 63.9874 121.019 63.1016C121.457 62.2158 121.74 60.6898 121.868 58.5234L122.636 44.6926ZM145.991 56.6024V55.9461C145.991 52.0829 147.219 49.1641 149.673 47.1898C152.128 45.2048 155.228 44.2124 158.974 44.2124C162.72 44.2124 165.825 45.2048 168.29 47.1898C170.766 49.1641 172.004 52.0829 172.004 55.9461V56.6024C172.004 60.5403 170.766 63.5071 168.29 65.5028C165.825 67.4877 162.72 68.4802 158.974 68.4802C155.228 68.4802 152.128 67.4877 149.673 65.5028C147.219 63.5071 145.991 60.5403 145.991 56.6024ZM150.554 56.8105C150.554 59.6172 151.333 61.7089 152.891 63.0856C154.449 64.4623 156.482 65.1559 158.99 65.1666C161.487 65.1666 163.52 64.4783 165.089 63.1016C166.658 61.7143 167.442 59.6226 167.442 56.8265V55.786C167.442 53.0327 166.658 50.9783 165.089 49.623C163.531 48.2677 161.498 47.59 158.99 47.59C156.471 47.5793 154.433 48.257 152.875 49.623C151.327 50.9783 150.554 53.0327 150.554 55.786V56.8105ZM176.262 68V44.6926H187.164C189.768 44.6926 191.795 45.1782 193.247 46.1493C194.709 47.1204 195.44 48.6465 195.44 50.7275C195.44 52.0402 195.104 53.1127 194.431 53.9451C193.759 54.7775 192.921 55.3645 191.918 55.706V55.77C193.209 56.0688 194.266 56.6771 195.088 57.5949C195.909 58.502 196.32 59.7453 196.32 61.3247C196.32 63.5338 195.514 65.1986 193.903 66.3192C192.291 67.4397 190.205 68 187.644 68H176.262ZM180.6 64.8625H187.164C188.7 64.8625 189.869 64.553 190.669 63.934C191.48 63.3044 191.886 62.3439 191.886 61.0526C191.886 59.868 191.48 58.9609 190.669 58.3313C189.869 57.7016 188.7 57.3868 187.164 57.3868H180.6V64.8625ZM180.6 54.5534H186.699C188.215 54.5534 189.33 54.2599 190.045 53.673C190.76 53.086 191.118 52.2536 191.118 51.1758C191.118 50.0552 190.76 49.2281 190.045 48.6945C189.33 48.161 188.215 47.8942 186.699 47.8942H180.6V54.5534ZM197.457 68L208.134 44.5965H212.52L223.213 68H218.347L211.031 51.0797C210.85 50.6528 210.695 50.2633 210.567 49.9111C210.439 49.559 210.316 49.2068 210.199 48.8546H210.087C209.959 49.2068 209.836 49.559 209.719 49.9111C209.601 50.2633 209.452 50.6528 209.27 51.0797L201.923 68H197.457ZM202.339 62.3812L203.636 59.1477H216.842L218.139 62.3812H202.339ZM223.245 48.1663V44.6926H245.544V48.1663H236.612V68H232.178V48.1663H223.245ZM248.746 44.6926H253.164V52.9366H260.303C263.217 52.9366 265.362 53.6356 266.739 55.0337C268.115 56.4317 268.804 58.2406 268.804 60.4603C268.804 62.7975 268.11 64.6384 266.723 65.983C265.346 67.3277 263.212 68 260.319 68H248.746V44.6926ZM253.164 56.2823V64.6544H259.807C261.472 64.6544 262.651 64.2915 263.345 63.5658C264.039 62.8295 264.385 61.7943 264.385 60.4603C264.385 59.2437 264.039 58.2459 263.345 57.4668C262.651 56.6771 261.472 56.2823 259.807 56.2823H253.164ZM272.341 65.8229C272.341 65.1506 272.571 64.5797 273.03 64.1101C273.499 63.6299 274.172 63.3897 275.047 63.3897C275.922 63.3897 276.594 63.6299 277.064 64.1101C277.533 64.5797 277.768 65.1559 277.768 65.8389C277.768 66.5113 277.533 67.0876 277.064 67.5678C276.594 68.0374 275.927 68.2721 275.063 68.2721C274.188 68.2721 273.515 68.032 273.046 67.5518C272.576 67.0715 272.341 66.4953 272.341 65.8229ZM273.078 60.7805L272.822 44.6926H277.304L277.048 60.7805H273.078Z" fill="white"/>
<path d="M3.125 100.172V110.25H0.875V98.5469H2.96094L3.125 100.172ZM8.47656 102.68V102.844C8.47656 103.458 8.40365 104.029 8.25781 104.555C8.11719 105.081 7.90885 105.539 7.63281 105.93C7.35677 106.315 7.01302 106.617 6.60156 106.836C6.19531 107.049 5.72656 107.156 5.19531 107.156C4.67969 107.156 4.23177 107.052 3.85156 106.844C3.47135 106.635 3.15104 106.344 2.89062 105.969C2.63542 105.589 2.42969 105.148 2.27344 104.648C2.11719 104.148 1.9974 103.612 1.91406 103.039V102.609C1.9974 101.995 2.11719 101.432 2.27344 100.922C2.42969 100.406 2.63542 99.9609 2.89062 99.5859C3.15104 99.2057 3.46875 98.9115 3.84375 98.7031C4.22396 98.4948 4.66927 98.3906 5.17969 98.3906C5.71615 98.3906 6.1875 98.4922 6.59375 98.6953C7.00521 98.8984 7.34896 99.1901 7.625 99.5703C7.90625 99.9505 8.11719 100.404 8.25781 100.93C8.40365 101.456 8.47656 102.039 8.47656 102.68ZM6.21875 102.844V102.68C6.21875 102.32 6.1875 101.99 6.125 101.688C6.06771 101.38 5.97396 101.112 5.84375 100.883C5.71875 100.654 5.55208 100.477 5.34375 100.352C5.14062 100.221 4.89323 100.156 4.60156 100.156C4.29427 100.156 4.03125 100.206 3.8125 100.305C3.59896 100.404 3.42448 100.547 3.28906 100.734C3.15365 100.922 3.05208 101.146 2.98438 101.406C2.91667 101.667 2.875 101.961 2.85938 102.289V103.375C2.88542 103.76 2.95833 104.107 3.07812 104.414C3.19792 104.716 3.38281 104.956 3.63281 105.133C3.88281 105.31 4.21094 105.398 4.61719 105.398C4.91406 105.398 5.16406 105.333 5.36719 105.203C5.57031 105.068 5.73438 104.883 5.85938 104.648C5.98958 104.414 6.08073 104.143 6.13281 103.836C6.1901 103.529 6.21875 103.198 6.21875 102.844ZM13.7656 107.156C13.1094 107.156 12.5208 107.052 12 106.844C11.4792 106.63 11.0365 106.336 10.6719 105.961C10.3125 105.586 10.0365 105.151 9.84375 104.656C9.65104 104.156 9.55469 103.625 9.55469 103.062V102.75C9.55469 102.109 9.64583 101.523 9.82812 100.992C10.0104 100.461 10.2708 100 10.6094 99.6094C10.9531 99.2188 11.3698 98.9193 11.8594 98.7109C12.349 98.4974 12.901 98.3906 13.5156 98.3906C14.1146 98.3906 14.6458 98.4896 15.1094 98.6875C15.5729 98.8854 15.9609 99.1667 16.2734 99.5312C16.5911 99.8958 16.8307 100.333 16.9922 100.844C17.1536 101.349 17.2344 101.911 17.2344 102.531V103.469H10.5156V101.969H15.0234V101.797C15.0234 101.484 14.9661 101.206 14.8516 100.961C14.7422 100.711 14.5755 100.513 14.3516 100.367C14.1276 100.221 13.8411 100.148 13.4922 100.148C13.1953 100.148 12.9401 100.214 12.7266 100.344C12.513 100.474 12.3385 100.656 12.2031 100.891C12.0729 101.125 11.974 101.401 11.9062 101.719C11.8438 102.031 11.8125 102.375 11.8125 102.75V103.062C11.8125 103.401 11.8594 103.714 11.9531 104C12.0521 104.286 12.1901 104.534 12.3672 104.742C12.5495 104.951 12.7682 105.112 13.0234 105.227C13.2839 105.341 13.5781 105.398 13.9062 105.398C14.3125 105.398 14.6901 105.32 15.0391 105.164C15.3932 105.003 15.6979 104.76 15.9531 104.438L17.0469 105.625C16.8698 105.88 16.6276 106.125 16.3203 106.359C16.0182 106.594 15.6536 106.786 15.2266 106.938C14.7995 107.083 14.3125 107.156 13.7656 107.156ZM24.2656 98.5469V100.312H20.75V107H18.5V98.5469H24.2656ZM27.4766 103.859L30.3125 98.5469H32.5625V107H30.3125V101.68L27.4766 107H25.2266V98.5469H27.4766V103.859ZM37.7891 105.398C38.0651 105.398 38.3099 105.346 38.5234 105.242C38.737 105.133 38.9036 104.982 39.0234 104.789C39.1484 104.591 39.2135 104.359 39.2188 104.094H41.3359C41.3307 104.688 41.1719 105.216 40.8594 105.68C40.5469 106.138 40.1276 106.5 39.6016 106.766C39.0755 107.026 38.487 107.156 37.8359 107.156C37.1797 107.156 36.6068 107.047 36.1172 106.828C35.6328 106.609 35.2292 106.307 34.9062 105.922C34.5833 105.531 34.3411 105.078 34.1797 104.562C34.0182 104.042 33.9375 103.484 33.9375 102.891V102.664C33.9375 102.065 34.0182 101.508 34.1797 100.992C34.3411 100.471 34.5833 100.018 34.9062 99.6328C35.2292 99.2422 35.6328 98.9375 36.1172 98.7188C36.6016 98.5 37.1693 98.3906 37.8203 98.3906C38.513 98.3906 39.1198 98.5234 39.6406 98.7891C40.1667 99.0547 40.5781 99.4349 40.875 99.9297C41.1771 100.419 41.3307 101 41.3359 101.672H39.2188C39.2135 101.391 39.1536 101.135 39.0391 100.906C38.9297 100.677 38.7682 100.495 38.5547 100.359C38.3464 100.219 38.0885 100.148 37.7812 100.148C37.4531 100.148 37.1849 100.219 36.9766 100.359C36.7682 100.495 36.6068 100.682 36.4922 100.922C36.3776 101.156 36.2969 101.424 36.25 101.727C36.2083 102.023 36.1875 102.336 36.1875 102.664V102.891C36.1875 103.219 36.2083 103.534 36.25 103.836C36.2917 104.138 36.3698 104.406 36.4844 104.641C36.6042 104.875 36.7682 105.06 36.9766 105.195C37.1849 105.331 37.4557 105.398 37.7891 105.398ZM46.9453 98.5469V107H44.6875V98.5469H46.9453ZM49.6641 98.5469V100.289H42.0078V98.5469H49.6641ZM53.0625 100.172V110.25H50.8125V98.5469H52.8984L53.0625 100.172ZM58.4141 102.68V102.844C58.4141 103.458 58.3411 104.029 58.1953 104.555C58.0547 105.081 57.8464 105.539 57.5703 105.93C57.2943 106.315 56.9505 106.617 56.5391 106.836C56.1328 107.049 55.6641 107.156 55.1328 107.156C54.6172 107.156 54.1693 107.052 53.7891 106.844C53.4089 106.635 53.0885 106.344 52.8281 105.969C52.5729 105.589 52.3672 105.148 52.2109 104.648C52.0547 104.148 51.9349 103.612 51.8516 103.039V102.609C51.9349 101.995 52.0547 101.432 52.2109 100.922C52.3672 100.406 52.5729 99.9609 52.8281 99.5859C53.0885 99.2057 53.4062 98.9115 53.7812 98.7031C54.1615 98.4948 54.6068 98.3906 55.1172 98.3906C55.6536 98.3906 56.125 98.4922 56.5312 98.6953C56.9427 98.8984 57.2865 99.1901 57.5625 99.5703C57.8438 99.9505 58.0547 100.404 58.1953 100.93C58.3411 101.456 58.4141 102.039 58.4141 102.68ZM56.1562 102.844V102.68C56.1562 102.32 56.125 101.99 56.0625 101.688C56.0052 101.38 55.9115 101.112 55.7812 100.883C55.6562 100.654 55.4896 100.477 55.2812 100.352C55.0781 100.221 54.8307 100.156 54.5391 100.156C54.2318 100.156 53.9688 100.206 53.75 100.305C53.5365 100.404 53.362 100.547 53.2266 100.734C53.0911 100.922 52.9896 101.146 52.9219 101.406C52.8542 101.667 52.8125 101.961 52.7969 102.289V103.375C52.8229 103.76 52.8958 104.107 53.0156 104.414C53.1354 104.716 53.3203 104.956 53.5703 105.133C53.8203 105.31 54.1484 105.398 54.5547 105.398C54.8516 105.398 55.1016 105.333 55.3047 105.203C55.5078 105.068 55.6719 104.883 55.7969 104.648C55.9271 104.414 56.0182 104.143 56.0703 103.836C56.1276 103.529 56.1562 103.198 56.1562 102.844ZM64.375 105.094V101.328C64.375 101.057 64.3307 100.826 64.2422 100.633C64.1536 100.435 64.0156 100.281 63.8281 100.172C63.6458 100.062 63.4089 100.008 63.1172 100.008C62.8672 100.008 62.651 100.052 62.4688 100.141C62.2865 100.224 62.1458 100.346 62.0469 100.508C61.9479 100.664 61.8984 100.849 61.8984 101.062H59.6484C59.6484 100.703 59.7318 100.362 59.8984 100.039C60.0651 99.7161 60.3073 99.4323 60.625 99.1875C60.9427 98.9375 61.3203 98.7422 61.7578 98.6016C62.2005 98.4609 62.6953 98.3906 63.2422 98.3906C63.8984 98.3906 64.4818 98.5 64.9922 98.7188C65.5026 98.9375 65.9036 99.2656 66.1953 99.7031C66.4922 100.141 66.6406 100.688 66.6406 101.344V104.961C66.6406 105.424 66.6693 105.805 66.7266 106.102C66.7839 106.393 66.8672 106.648 66.9766 106.867V107H64.7031C64.5938 106.771 64.5104 106.484 64.4531 106.141C64.401 105.792 64.375 105.443 64.375 105.094ZM64.6719 101.852L64.6875 103.125H63.4297C63.1328 103.125 62.875 103.159 62.6562 103.227C62.4375 103.294 62.2578 103.391 62.1172 103.516C61.9766 103.635 61.8724 103.776 61.8047 103.938C61.7422 104.099 61.7109 104.276 61.7109 104.469C61.7109 104.661 61.7552 104.836 61.8438 104.992C61.9323 105.143 62.0599 105.263 62.2266 105.352C62.3932 105.435 62.5885 105.477 62.8125 105.477C63.151 105.477 63.4453 105.409 63.6953 105.273C63.9453 105.138 64.138 104.971 64.2734 104.773C64.4141 104.576 64.487 104.388 64.4922 104.211L65.0859 105.164C65.0026 105.378 64.888 105.599 64.7422 105.828C64.6016 106.057 64.4219 106.273 64.2031 106.477C63.9844 106.674 63.7214 106.839 63.4141 106.969C63.1068 107.094 62.7422 107.156 62.3203 107.156C61.7839 107.156 61.2969 107.049 60.8594 106.836C60.4271 106.617 60.0833 106.318 59.8281 105.938C59.5781 105.552 59.4531 105.115 59.4531 104.625C59.4531 104.182 59.5365 103.789 59.7031 103.445C59.8698 103.102 60.1146 102.812 60.4375 102.578C60.7656 102.339 61.1745 102.159 61.6641 102.039C62.1536 101.914 62.7214 101.852 63.3672 101.852H64.6719ZM68.3672 107V98.5469H70.6172V105.242H73.4453V98.5469H75.7031V107H68.3672ZM76.9688 105.25L76.8203 109.508H74.7266V107H73.7812V105.25H76.9688ZM80.3516 103.859L83.1875 98.5469H85.4375V107H83.1875V101.68L80.3516 107H78.1016V98.5469H80.3516V103.859ZM88.9922 102.781H91.2734L88.9219 107H86.6484L88.9922 102.781ZM90.5078 98.5469H94.2188V107H91.9688V100.289H90.5078C90.2005 100.289 89.9453 100.346 89.7422 100.461C89.5391 100.57 89.388 100.714 89.2891 100.891C89.1953 101.062 89.1484 101.24 89.1484 101.422C89.1484 101.599 89.1953 101.771 89.2891 101.938C89.3828 102.104 89.5286 102.242 89.7266 102.352C89.9245 102.461 90.1719 102.516 90.4688 102.516H92.8047V104.047H90.4688C89.9115 104.047 89.4115 103.979 88.9688 103.844C88.5312 103.708 88.1562 103.521 87.8438 103.281C87.5365 103.036 87.2995 102.753 87.1328 102.43C86.9714 102.102 86.8906 101.742 86.8906 101.352C86.8906 100.945 86.974 100.573 87.1406 100.234C87.3073 99.8958 87.5469 99.599 87.8594 99.3438C88.1719 99.0885 88.5495 98.8932 88.9922 98.7578C89.4401 98.6172 89.9453 98.5469 90.5078 98.5469ZM105.797 98.5469V100.312H101.703V98.5469H105.797ZM102.352 98.5469V107H100.102V98.5469H102.352ZM107.438 98.5469V107H105.18V98.5469H107.438ZM111.422 100.172V110.25H109.172V98.5469H111.258L111.422 100.172ZM116.773 102.68V102.844C116.773 103.458 116.701 104.029 116.555 104.555C116.414 105.081 116.206 105.539 115.93 105.93C115.654 106.315 115.31 106.617 114.898 106.836C114.492 107.049 114.023 107.156 113.492 107.156C112.977 107.156 112.529 107.052 112.148 106.844C111.768 106.635 111.448 106.344 111.188 105.969C110.932 105.589 110.727 105.148 110.57 104.648C110.414 104.148 110.294 103.612 110.211 103.039V102.609C110.294 101.995 110.414 101.432 110.57 100.922C110.727 100.406 110.932 99.9609 111.188 99.5859C111.448 99.2057 111.766 98.9115 112.141 98.7031C112.521 98.4948 112.966 98.3906 113.477 98.3906C114.013 98.3906 114.484 98.4922 114.891 98.6953C115.302 98.8984 115.646 99.1901 115.922 99.5703C116.203 99.9505 116.414 100.404 116.555 100.93C116.701 101.456 116.773 102.039 116.773 102.68ZM114.516 102.844V102.68C114.516 102.32 114.484 101.99 114.422 101.688C114.365 101.38 114.271 101.112 114.141 100.883C114.016 100.654 113.849 100.477 113.641 100.352C113.438 100.221 113.19 100.156 112.898 100.156C112.591 100.156 112.328 100.206 112.109 100.305C111.896 100.404 111.721 100.547 111.586 100.734C111.451 100.922 111.349 101.146 111.281 101.406C111.214 101.667 111.172 101.961 111.156 102.289V103.375C111.182 103.76 111.255 104.107 111.375 104.414C111.495 104.716 111.68 104.956 111.93 105.133C112.18 105.31 112.508 105.398 112.914 105.398C113.211 105.398 113.461 105.333 113.664 105.203C113.867 105.068 114.031 104.883 114.156 104.648C114.286 104.414 114.378 104.143 114.43 103.836C114.487 103.529 114.516 103.198 114.516 102.844ZM117.812 102.859V102.695C117.812 102.076 117.901 101.505 118.078 100.984C118.255 100.458 118.513 100.003 118.852 99.6172C119.19 99.2318 119.607 98.9323 120.102 98.7188C120.596 98.5 121.164 98.3906 121.805 98.3906C122.445 98.3906 123.016 98.5 123.516 98.7188C124.016 98.9323 124.435 99.2318 124.773 99.6172C125.117 100.003 125.378 100.458 125.555 100.984C125.732 101.505 125.82 102.076 125.82 102.695V102.859C125.82 103.474 125.732 104.044 125.555 104.57C125.378 105.091 125.117 105.547 124.773 105.938C124.435 106.323 124.018 106.622 123.523 106.836C123.029 107.049 122.461 107.156 121.82 107.156C121.18 107.156 120.609 107.049 120.109 106.836C119.615 106.622 119.195 106.323 118.852 105.938C118.513 105.547 118.255 105.091 118.078 104.57C117.901 104.044 117.812 103.474 117.812 102.859ZM120.062 102.695V102.859C120.062 103.214 120.094 103.544 120.156 103.852C120.219 104.159 120.318 104.43 120.453 104.664C120.594 104.893 120.776 105.073 121 105.203C121.224 105.333 121.497 105.398 121.82 105.398C122.133 105.398 122.401 105.333 122.625 105.203C122.849 105.073 123.029 104.893 123.164 104.664C123.299 104.43 123.398 104.159 123.461 103.852C123.529 103.544 123.562 103.214 123.562 102.859V102.695C123.562 102.352 123.529 102.029 123.461 101.727C123.398 101.419 123.297 101.148 123.156 100.914C123.021 100.674 122.841 100.487 122.617 100.352C122.393 100.216 122.122 100.148 121.805 100.148C121.487 100.148 121.216 100.216 120.992 100.352C120.773 100.487 120.594 100.674 120.453 100.914C120.318 101.148 120.219 101.419 120.156 101.727C120.094 102.029 120.062 102.352 120.062 102.695ZM127.195 98.5469H129.445V105.242H131.781V98.5469H134.047V105.242H136.375V98.5469H138.625V107H127.195V98.5469ZM146.125 98.5469V100.312H141.969V98.5469H146.125ZM147.773 98.5469V107H145.523V98.5469H147.773ZM141.406 98.5469H143.617L143.391 102.812C143.359 103.422 143.294 103.958 143.195 104.422C143.096 104.885 142.964 105.281 142.797 105.609C142.635 105.938 142.44 106.206 142.211 106.414C141.987 106.617 141.724 106.766 141.422 106.859C141.125 106.953 140.797 107 140.438 107H139.75L139.727 105.227L140.016 105.195C140.182 105.18 140.328 105.133 140.453 105.055C140.583 104.971 140.693 104.854 140.781 104.703C140.875 104.547 140.953 104.352 141.016 104.117C141.078 103.878 141.128 103.596 141.164 103.273C141.206 102.951 141.234 102.578 141.25 102.156L141.406 98.5469ZM154.078 105.094V101.328C154.078 101.057 154.034 100.826 153.945 100.633C153.857 100.435 153.719 100.281 153.531 100.172C153.349 100.062 153.112 100.008 152.82 100.008C152.57 100.008 152.354 100.052 152.172 100.141C151.99 100.224 151.849 100.346 151.75 100.508C151.651 100.664 151.602 100.849 151.602 101.062H149.352C149.352 100.703 149.435 100.362 149.602 100.039C149.768 99.7161 150.01 99.4323 150.328 99.1875C150.646 98.9375 151.023 98.7422 151.461 98.6016C151.904 98.4609 152.398 98.3906 152.945 98.3906C153.602 98.3906 154.185 98.5 154.695 98.7188C155.206 98.9375 155.607 99.2656 155.898 99.7031C156.195 100.141 156.344 100.688 156.344 101.344V104.961C156.344 105.424 156.372 105.805 156.43 106.102C156.487 106.393 156.57 106.648 156.68 106.867V107H154.406C154.297 106.771 154.214 106.484 154.156 106.141C154.104 105.792 154.078 105.443 154.078 105.094ZM154.375 101.852L154.391 103.125H153.133C152.836 103.125 152.578 103.159 152.359 103.227C152.141 103.294 151.961 103.391 151.82 103.516C151.68 103.635 151.576 103.776 151.508 103.938C151.445 104.099 151.414 104.276 151.414 104.469C151.414 104.661 151.458 104.836 151.547 104.992C151.635 105.143 151.763 105.263 151.93 105.352C152.096 105.435 152.292 105.477 152.516 105.477C152.854 105.477 153.148 105.409 153.398 105.273C153.648 105.138 153.841 104.971 153.977 104.773C154.117 104.576 154.19 104.388 154.195 104.211L154.789 105.164C154.706 105.378 154.591 105.599 154.445 105.828C154.305 106.057 154.125 106.273 153.906 106.477C153.688 106.674 153.424 106.839 153.117 106.969C152.81 107.094 152.445 107.156 152.023 107.156C151.487 107.156 151 107.049 150.562 106.836C150.13 106.617 149.786 106.318 149.531 105.938C149.281 105.552 149.156 105.115 149.156 104.625C149.156 104.182 149.24 103.789 149.406 103.445C149.573 103.102 149.818 102.812 150.141 102.578C150.469 102.339 150.878 102.159 151.367 102.039C151.857 101.914 152.424 101.852 153.07 101.852H154.375ZM164.57 106.047L166.812 98.5469H169.227L165.828 108.273C165.755 108.487 165.656 108.716 165.531 108.961C165.411 109.206 165.247 109.438 165.039 109.656C164.836 109.88 164.578 110.062 164.266 110.203C163.958 110.344 163.581 110.414 163.133 110.414C162.919 110.414 162.745 110.401 162.609 110.375C162.474 110.349 162.312 110.312 162.125 110.266V108.617C162.182 108.617 162.242 108.617 162.305 108.617C162.367 108.622 162.427 108.625 162.484 108.625C162.781 108.625 163.023 108.591 163.211 108.523C163.398 108.456 163.549 108.352 163.664 108.211C163.779 108.076 163.87 107.898 163.938 107.68L164.57 106.047ZM163.633 98.5469L165.469 104.672L165.789 107.055L164.258 107.219L161.219 98.5469H163.633ZM173.508 105.398C173.784 105.398 174.029 105.346 174.242 105.242C174.456 105.133 174.622 104.982 174.742 104.789C174.867 104.591 174.932 104.359 174.938 104.094H177.055C177.049 104.688 176.891 105.216 176.578 105.68C176.266 106.138 175.846 106.5 175.32 106.766C174.794 107.026 174.206 107.156 173.555 107.156C172.898 107.156 172.326 107.047 171.836 106.828C171.352 106.609 170.948 106.307 170.625 105.922C170.302 105.531 170.06 105.078 169.898 104.562C169.737 104.042 169.656 103.484 169.656 102.891V102.664C169.656 102.065 169.737 101.508 169.898 100.992C170.06 100.471 170.302 100.018 170.625 99.6328C170.948 99.2422 171.352 98.9375 171.836 98.7188C172.32 98.5 172.888 98.3906 173.539 98.3906C174.232 98.3906 174.839 98.5234 175.359 98.7891C175.885 99.0547 176.297 99.4349 176.594 99.9297C176.896 100.419 177.049 101 177.055 101.672H174.938C174.932 101.391 174.872 101.135 174.758 100.906C174.648 100.677 174.487 100.495 174.273 100.359C174.065 100.219 173.807 100.148 173.5 100.148C173.172 100.148 172.904 100.219 172.695 100.359C172.487 100.495 172.326 100.682 172.211 100.922C172.096 101.156 172.016 101.424 171.969 101.727C171.927 102.023 171.906 102.336 171.906 102.664V102.891C171.906 103.219 171.927 103.534 171.969 103.836C172.01 104.138 172.089 104.406 172.203 104.641C172.323 104.875 172.487 105.06 172.695 105.195C172.904 105.331 173.174 105.398 173.508 105.398ZM184.047 98.5469V100.312H179.953V98.5469H184.047ZM180.602 98.5469V107H178.352V98.5469H180.602ZM185.688 98.5469V107H183.43V98.5469H185.688ZM191.312 107.156C190.656 107.156 190.068 107.052 189.547 106.844C189.026 106.63 188.583 106.336 188.219 105.961C187.859 105.586 187.583 105.151 187.391 104.656C187.198 104.156 187.102 103.625 187.102 103.062V102.75C187.102 102.109 187.193 101.523 187.375 100.992C187.557 100.461 187.818 100 188.156 99.6094C188.5 99.2188 188.917 98.9193 189.406 98.7109C189.896 98.4974 190.448 98.3906 191.062 98.3906C191.661 98.3906 192.193 98.4896 192.656 98.6875C193.12 98.8854 193.508 99.1667 193.82 99.5312C194.138 99.8958 194.378 100.333 194.539 100.844C194.701 101.349 194.781 101.911 194.781 102.531V103.469H188.062V101.969H192.57V101.797C192.57 101.484 192.513 101.206 192.398 100.961C192.289 100.711 192.122 100.513 191.898 100.367C191.674 100.221 191.388 100.148 191.039 100.148C190.742 100.148 190.487 100.214 190.273 100.344C190.06 100.474 189.885 100.656 189.75 100.891C189.62 101.125 189.521 101.401 189.453 101.719C189.391 102.031 189.359 102.375 189.359 102.75V103.062C189.359 103.401 189.406 103.714 189.5 104C189.599 104.286 189.737 104.534 189.914 104.742C190.096 104.951 190.315 105.112 190.57 105.227C190.831 105.341 191.125 105.398 191.453 105.398C191.859 105.398 192.237 105.32 192.586 105.164C192.94 105.003 193.245 104.76 193.5 104.438L194.594 105.625C194.417 105.88 194.174 106.125 193.867 106.359C193.565 106.594 193.201 106.786 192.773 106.938C192.346 107.083 191.859 107.156 191.312 107.156ZM196.055 98.5469H198.305V105.242H200.641V98.5469H202.906V105.242H205.234V98.5469H207.484V107H196.055V98.5469ZM215.086 101.961V103.711H210.789V101.961H215.086ZM211.539 98.5469V107H209.289V98.5469H211.539ZM216.609 98.5469V107H214.352V98.5469H216.609ZM218 102.859V102.695C218 102.076 218.089 101.505 218.266 100.984C218.443 100.458 218.701 100.003 219.039 99.6172C219.378 99.2318 219.794 98.9323 220.289 98.7188C220.784 98.5 221.352 98.3906 221.992 98.3906C222.633 98.3906 223.203 98.5 223.703 98.7188C224.203 98.9323 224.622 99.2318 224.961 99.6172C225.305 100.003 225.565 100.458 225.742 100.984C225.919 101.505 226.008 102.076 226.008 102.695V102.859C226.008 103.474 225.919 104.044 225.742 104.57C225.565 105.091 225.305 105.547 224.961 105.938C224.622 106.323 224.206 106.622 223.711 106.836C223.216 107.049 222.648 107.156 222.008 107.156C221.367 107.156 220.797 107.049 220.297 106.836C219.802 106.622 219.383 106.323 219.039 105.938C218.701 105.547 218.443 105.091 218.266 104.57C218.089 104.044 218 103.474 218 102.859ZM220.25 102.695V102.859C220.25 103.214 220.281 103.544 220.344 103.852C220.406 104.159 220.505 104.43 220.641 104.664C220.781 104.893 220.964 105.073 221.188 105.203C221.411 105.333 221.685 105.398 222.008 105.398C222.32 105.398 222.589 105.333 222.812 105.203C223.036 105.073 223.216 104.893 223.352 104.664C223.487 104.43 223.586 104.159 223.648 103.852C223.716 103.544 223.75 103.214 223.75 102.859V102.695C223.75 102.352 223.716 102.029 223.648 101.727C223.586 101.419 223.484 101.148 223.344 100.914C223.208 100.674 223.029 100.487 222.805 100.352C222.581 100.216 222.31 100.148 221.992 100.148C221.674 100.148 221.404 100.216 221.18 100.352C220.961 100.487 220.781 100.674 220.641 100.914C220.505 101.148 220.406 101.419 220.344 101.727C220.281 102.029 220.25 102.352 220.25 102.695Z" fill="white"/>
</svg>
