<svg width="333" height="301" viewBox="0 0 333 301" fill="none" xmlns="http://www.w3.org/2000/svg">
<path d="M73.6613 243.348C154.428 314.677 246.027 314.296 285.036 266.46C324.046 218.624 310.859 131.015 246.969 68.2096C174.807 -2.72724 60.1622 -19.9377 22.2516 24.1359C-15.659 68.2095 -5.45721 173.476 73.6613 243.348Z" fill="#40B889"/>
<g clip-path="url(#clip0_4373_17349)">
<path d="M290.16 57.6039C290.16 60.7494 289.784 63.9361 289.01 67.1158L284.302 86.448C284.077 87.3732 284.432 88.3463 285.219 88.9425L283.597 93.2941L276.104 90.738L252.495 82.6926L203.622 66.0331L188.307 60.8111L189.388 55.3082C190.127 55.4795 190.873 55.5618 191.605 55.5618C195.348 55.5618 198.831 53.4373 200.31 50.0451L203.991 41.5612C213.024 20.7967 237.659 10.3185 260.105 17.6992C278.41 23.7161 290.16 39.9713 290.16 57.6039Z" fill="#FF8B63"/>
<path d="M278.48 85L258.98 77.5" stroke="white"/>
<path d="M170.904 244.348V244.485C171.219 244.635 172.28 245.19 172.738 246.376C173.21 247.596 172.731 248.692 172.601 248.994C172.328 249.624 171.589 250.789 168.153 251.913C168.454 252.016 169.043 252.27 169.419 252.832C169.919 253.579 169.748 254.408 169.693 254.689C169.255 256.847 165.368 258.177 160.489 259.801C157.95 260.644 157.019 260.802 156.479 260.822C156.356 260.829 156.26 260.829 156.226 260.822C155.432 260.822 154.426 260.692 153.256 260.24C152.879 260.096 152.482 259.917 152.072 259.698C151.531 259.664 150.881 259.602 150.149 259.499C147.507 259.123 143.819 258.143 140.384 255.58C134.971 251.536 131.166 244.272 132.877 237.872C132.952 237.584 133.034 237.323 133.123 237.07C133.404 236.288 133.773 235.596 134.341 234.52C138.173 227.311 144.291 223.316 148.192 221.054C148.561 220.842 148.91 220.643 149.232 220.458C151.997 218.889 156.102 216.915 161.365 216.065C166.059 215.312 167.811 216.065 168.79 216.929C169.618 217.662 170.637 219.129 170.343 220.629C169.761 223.59 164.602 223.734 159.243 227.188C156.999 228.647 154.268 230.971 151.846 234.849C153.071 234.836 154.549 234.843 156.226 234.863C160.386 234.925 164.177 234.986 168.543 235.5C177.809 236.611 179.164 237.947 179.643 238.954C179.725 239.139 180.252 240.297 179.773 241.449C179.294 242.607 177.747 243.854 170.904 244.348Z" fill="white"/>
<path d="M150.149 259.498C149.855 260.553 149.273 262.047 148.055 263.507C145.42 266.68 140.541 268.798 135.511 267.687C128.921 266.235 126.677 260.231 126.465 259.621C126.465 259.615 126.465 259.608 126.458 259.608C125.185 252.611 126.17 244.84 130.372 239.72C131.433 238.425 132.507 237.541 133.123 237.068C133.034 237.322 132.952 237.582 132.877 237.87C131.166 244.271 134.971 251.535 140.384 255.578C143.819 258.141 147.507 259.121 150.149 259.498Z" fill="white"/>
<path d="M235.272 243.01H235.265C234.581 242.736 228.703 240.29 228.436 236.205C228.361 235.006 228.792 233.957 229.387 232.498C229.736 231.648 230.598 229.736 233.11 226.872C235.21 224.459 237.188 222.856 238.776 221.629L238.735 221.581C237.127 221.917 235.258 222.184 233.178 222.266C228.34 222.451 224.33 221.547 221.572 220.67L220.799 209.842L221.333 209.801C223.892 209.828 228.621 209.89 234.595 209.924C248.226 210.013 251.066 209.883 254.768 211.843C260.263 214.749 262.823 219.683 263.767 221.499C264.376 222.664 264.855 223.836 265.238 224.98C266.463 228.694 266.655 232.176 266.723 234.533C266.723 234.787 266.737 235.027 266.744 235.246C266.757 235.76 266.757 236.246 266.751 236.699C268.01 239.097 270.097 242.311 273.512 245.347C275.065 246.731 276.605 247.821 278.001 248.678C279.034 250.857 281.983 257.826 279.198 265.556C277.72 269.661 274.435 274.527 270.542 277.056C268.79 276.041 266.997 274.856 265.19 273.485C260.838 270.182 257.458 266.557 254.837 263.062C253.229 260.924 251.908 258.834 250.82 256.894C247.083 259.019 243.135 259.005 241.321 257.203C239.953 255.839 239.994 253.653 240.014 252.7C240.035 251.501 240.309 250.487 240.699 249.575C237.619 249.466 236.408 248.287 236.018 247.842C234.916 246.587 234.834 244.826 235.272 243.01Z" fill="white"/>
<path d="M207.906 120.679C206.941 119.767 205.908 118.684 204.956 117.458C192.126 100.949 202.205 70.1998 203.513 66.3553L203.622 66.0332L252.496 82.6927C253.283 83.4945 257.662 88.1271 257.067 94.8293C256.691 99.0096 254.562 101.922 253.55 103.142C256.212 103.82 258.874 104.506 261.536 105.184C261.515 104.622 261.44 100.223 265.06 97.5911C265.607 97.1936 267.352 95.9669 269.788 95.9806C271.15 95.9943 272.457 96.385 273.607 97.036C275.359 98.0297 276.741 99.6195 277.371 101.346C278.917 105.588 275.817 110.255 271.958 112.222C268.817 113.819 265.594 113.421 263.657 112.914C261.932 116.971 260.119 122.92 260.318 130.122C260.379 132.404 260.632 134.508 260.995 136.393C258.744 139.723 255.986 143.328 252.598 147.008C245.926 154.251 239.001 159.418 233.253 163.016L233.321 163.14C230.776 164.64 227.156 167.519 219.437 172.069C216.706 173.679 214.421 174.94 212.942 175.735C212.634 175.283 212.313 174.803 211.991 174.296C210.116 171.336 208.111 167.347 206.914 162.413C206.701 161.55 206.53 160.707 206.4 159.891C207.954 154.08 209.357 146.528 209.418 137.667C209.425 136.756 209.418 135.858 209.398 134.981C209.274 129.588 208.672 124.784 207.899 120.692V120.679H207.906ZM236.25 96.803L239.679 93.2943L237.509 92.3417C237.605 92.0882 237.68 91.8277 237.742 91.5605C238.283 89.2031 237.489 87.0375 235.963 86.7291C234.444 86.4139 232.774 88.0723 232.226 90.4229C231.686 92.7803 232.48 94.9458 233.999 95.2542C234.601 95.3776 235.224 95.1925 235.792 94.7882L236.25 96.803ZM231.549 105.218L231.809 103.176H215.926V104.341C215.926 108.432 219.437 111.749 223.761 111.749C225.746 111.749 227.58 111.05 228.969 109.878C230.057 108.967 230.878 107.775 231.289 106.404C231.412 106.02 231.501 105.63 231.549 105.218ZM211.389 90.7039L214.954 87.1335L213.257 86.2631C213.38 85.9616 213.483 85.6395 213.558 85.3037C214.099 82.9532 213.305 80.7876 211.786 80.4792C210.267 80.164 208.59 81.8156 208.05 84.173C207.502 86.5304 208.296 88.6891 209.822 89.0043C210.26 89.0934 210.705 89.0249 211.136 88.8193L211.389 90.7039Z" fill="white"/>
<path d="M287.026 160.351C288.162 161.584 289.38 162.907 290.673 164.332C289.907 164.01 289.175 163.873 288.47 163.887C280.997 164.01 274.968 180.924 270.773 197.85H270.767C268.481 196.678 266.079 195.52 263.561 194.39C257.641 191.731 251.955 189.613 246.645 187.914C247.213 186.536 247.828 185.131 248.492 183.713C249.765 180.978 251.099 178.443 252.441 176.099C253.159 177.49 253.631 178.552 253.816 178.977C255.281 176.551 256.697 173.913 258.011 171.048C261.309 163.873 263.198 156.952 264.231 150.702C264.984 149.516 266.291 147.817 268.433 146.364C269.425 145.692 270.39 145.22 271.225 144.877C276.07 149.153 281.469 154.307 287.026 160.351Z" fill="#7099ED"/>
<path d="M276.105 90.7387L276.016 90.9923C275.694 91.938 275.332 92.9248 274.935 93.9322C274.524 94.9739 274.1 95.9675 273.676 96.9064L273.607 97.0366C272.458 96.3856 271.151 95.995 269.789 95.9812C267.353 95.9675 265.608 97.1942 265.06 97.5917C261.44 100.223 261.515 104.623 261.536 105.185C258.874 104.506 256.212 103.821 253.55 103.143C254.563 101.923 256.691 99.0103 257.067 94.8299C257.663 88.1278 253.283 83.4952 252.496 82.6934L276.105 90.7387Z" fill="#262626"/>
<path d="M270.767 197.849H270.774C270.404 199.315 270.055 200.782 269.72 202.235C269.289 202.105 265.881 201.063 265.327 201.933C264.882 202.619 266.319 204.387 268.81 206.326C268.454 207.95 268.119 209.554 267.804 211.109C263.876 208.807 259.517 206.504 254.72 204.339C250.6 202.475 246.556 200.892 242.635 199.548L242.717 199.309C243.045 198.144 243.401 196.937 243.798 195.711C246.508 196.3 248.629 196.04 248.876 195.348C249.122 194.649 247.589 193.216 245.009 192.147C245.509 190.763 246.056 189.351 246.645 187.912C251.955 189.612 257.642 191.729 263.561 194.388C266.079 195.519 268.481 196.677 270.767 197.849Z" fill="#F4F3F1"/>
<path d="M269.72 202.235C269.405 203.612 269.097 204.976 268.81 206.326C266.319 204.387 264.882 202.619 265.326 201.933C265.881 201.063 269.289 202.105 269.72 202.235Z" fill="#7099ED"/>
<path d="M271.226 144.877C270.391 145.219 269.426 145.692 268.434 146.364C266.292 147.817 264.985 149.516 264.232 150.702C264.883 146.782 265.19 143.122 265.307 139.84C267.154 141.354 269.139 143.033 271.226 144.877Z" fill="#7099ED"/>
<path d="M267.805 211.111C266.717 216.476 265.854 221.328 265.238 224.981C264.855 223.836 264.376 222.665 263.767 221.5C262.823 219.684 260.264 214.749 254.768 211.844C251.066 209.884 248.226 210.014 234.595 209.925C228.621 209.891 223.892 209.829 221.333 209.802L220.799 209.843L219.656 193.752C226.465 194.89 234.273 196.685 242.636 199.55C246.557 200.893 250.601 202.476 254.721 204.34C259.518 206.505 263.877 208.808 267.805 211.111Z" fill="#7099ED"/>
<path d="M270.54 277.055C274.434 274.527 277.719 269.661 279.197 265.556C281.982 257.826 279.033 250.857 277.999 248.677C276.603 247.821 275.064 246.731 273.51 245.347C270.095 242.311 268.008 239.097 266.749 236.698C266.749 236.246 266.749 235.76 266.742 235.246C266.735 235.026 266.729 234.786 266.722 234.54C266.653 232.175 266.462 228.694 265.237 224.98C265.853 221.327 266.715 216.475 267.803 211.109C268.118 209.554 268.453 207.95 268.809 206.326C269.096 204.976 269.404 203.612 269.719 202.235C270.054 200.782 270.403 199.315 270.773 197.849C274.968 180.922 280.997 164.009 288.469 163.886C289.174 163.872 289.906 164.009 290.673 164.331C302.012 176.845 318.463 196.615 326.011 223.267C331.376 242.242 338.698 287.664 317.163 297.957C304.694 303.919 285.705 296.58 268.248 283.237C265.832 281.393 263.451 279.433 261.117 277.371C262.02 278.029 263.013 278.495 264.101 278.686C266.297 279.084 268.508 278.392 270.54 277.055Z" fill="#F4F3F1"/>
<path d="M255.444 268.627C254.76 266.366 254.719 264.392 254.787 263.097L254.835 263.062C257.456 266.558 260.837 270.183 265.189 273.486C266.996 274.856 268.788 276.042 270.54 277.056C268.508 278.393 266.298 279.085 264.101 278.687C263.013 278.495 262.021 278.029 261.117 277.371H261.11C258.147 275.254 256.218 271.211 255.444 268.627Z" fill="#262626"/>
<path d="M252.44 176.092C251.099 178.442 249.764 180.978 248.492 183.712C247.828 185.131 247.212 186.536 246.644 187.913C246.055 189.352 245.508 190.764 245.008 192.148C244.571 193.361 244.167 194.554 243.797 195.712C243.4 196.938 243.045 198.144 242.716 199.309L242.634 199.549C234.272 196.685 226.464 194.889 219.655 193.752L218.806 181.855C218.683 180.121 217.116 178.792 215.282 178.86L185.062 179.95C185.268 178.682 185.521 177.325 185.843 175.893C186.349 173.666 187.026 171.247 187.943 168.704C189.162 165.305 190.551 162.338 191.912 159.836L191.83 159.638C194.588 158.459 197.353 157.287 200.111 156.102C204.073 162.166 208.035 168.231 211.99 174.296C212.312 174.803 212.634 175.283 212.941 175.735C214.42 174.94 216.705 173.679 219.436 172.069C227.155 167.519 230.775 164.64 233.32 163.14C234.764 162.283 235.859 161.865 237.166 161.837C244.126 161.694 249.86 171.062 252.44 176.092Z" fill="#F4F3F1"/>
<path d="M245.01 192.148C247.59 193.217 249.123 194.65 248.876 195.349C248.63 196.041 246.509 196.301 243.799 195.712C244.168 194.554 244.572 193.361 245.01 192.148Z" fill="#7099ED"/>
<path d="M239.672 93.2944L236.244 96.8031L235.785 94.7883C236.497 94.2743 237.12 93.4109 237.503 92.3418L239.672 93.2944Z" fill="white"/>
<path d="M235.955 86.7298C237.481 87.0382 238.275 89.2038 237.734 91.5612C237.673 91.8285 237.597 92.0889 237.501 92.3424L234.976 91.2391L235.784 94.7821C235.216 95.1933 234.593 95.3783 233.991 95.2549C232.472 94.9465 231.678 92.781 232.219 90.4236C232.766 88.073 234.436 86.4146 235.955 86.7298Z" fill="#262626"/>
<path d="M234.977 91.2383L237.502 92.3416C237.118 93.4107 236.496 94.2741 235.784 94.7813L234.977 91.2383Z" fill="white"/>
<path d="M233.252 163.016C239 159.419 245.925 154.251 252.598 147.008C255.985 143.328 258.743 139.723 260.994 136.393C262.328 137.434 263.772 138.579 265.305 139.84C265.189 143.122 264.881 146.782 264.231 150.702C263.198 156.951 261.309 163.873 258.01 171.048C256.697 173.913 255.28 176.551 253.816 178.977C253.631 178.552 253.159 177.49 252.44 176.099C249.86 171.062 244.126 161.694 237.166 161.838C235.859 161.865 234.764 162.283 233.32 163.14L233.252 163.016Z" fill="#F4F3F1"/>
<path d="M235.272 243.011C234.834 244.827 234.916 246.588 236.018 247.842C236.408 248.287 237.619 249.466 240.699 249.576C240.308 250.487 240.035 251.501 240.014 252.701C239.994 253.653 239.953 255.839 241.321 257.203C243.135 259.005 247.083 259.019 250.82 256.895C251.908 258.834 253.228 260.924 254.836 263.062L254.789 263.097C254.72 264.392 254.761 266.365 255.445 268.627C256.219 271.21 258.149 275.254 261.112 277.371H261.118C263.452 279.434 265.833 281.394 268.249 283.237C225.938 299.595 187.069 297.985 171.521 279.201C168.613 275.692 165.8 270.703 164.473 263.515L220.977 262.398C222.92 262.356 224.432 260.794 224.302 258.964L221.572 220.67C224.33 221.547 228.34 222.452 233.178 222.267C235.258 222.184 237.126 221.917 238.735 221.581L238.776 221.629C237.188 222.856 235.21 224.46 233.109 226.872C230.598 229.736 229.736 231.648 229.387 232.498C228.791 233.958 228.36 235.006 228.436 236.206C228.702 240.29 234.581 242.736 235.265 243.011H235.272Z" fill="#7099ED"/>
<path d="M231.283 106.404C230.872 107.774 230.051 108.967 228.963 109.878C227.574 111.05 225.74 111.749 223.755 111.749C219.43 111.749 215.92 108.432 215.92 104.341V103.176H231.803L231.543 105.218C231.495 105.629 231.406 106.02 231.283 106.404Z" fill="white"/>
<path d="M214.947 87.134L211.382 90.7044L211.129 88.8198C211.984 88.4155 212.771 87.4835 213.25 86.2637L214.947 87.134Z" fill="white"/>
<path d="M210.615 84.9199L213.25 86.2631C212.771 87.4829 211.984 88.4149 211.128 88.8193L210.615 84.9199Z" fill="white"/>
<path d="M210.615 84.9207L211.129 88.82C210.697 89.0256 210.253 89.0941 209.815 89.0051C208.289 88.6898 207.495 86.5311 208.042 84.1737C208.583 81.8163 210.259 80.1647 211.779 80.48C213.298 80.7884 214.092 82.9539 213.551 85.3045C213.476 85.6402 213.373 85.9623 213.25 86.2639L210.615 84.9207Z" fill="#262626"/>
<path d="M206.913 162.413C208.111 167.347 210.116 171.335 211.991 174.296C208.035 168.231 204.073 162.166 200.111 156.101C198.4 153.483 196.689 150.859 194.979 148.241C196.333 146.219 198.208 143.814 200.754 141.381C201.261 140.895 201.767 140.435 202.266 140.004C204.839 137.77 207.337 136.145 209.397 134.98C209.418 135.858 209.424 136.755 209.418 137.667C209.356 146.528 207.953 154.08 206.4 159.891C206.53 160.706 206.701 161.549 206.913 162.413Z" fill="#F4F3F1"/>
<path d="M202.267 140.004C201.767 140.436 201.261 140.895 200.754 141.381C198.209 143.814 196.334 146.22 194.979 148.241C193.679 149.673 192.173 151.579 190.811 153.977C189.217 156.766 188.307 159.35 187.759 161.371C189.114 160.796 190.476 160.213 191.831 159.638L191.913 159.836C190.551 162.338 189.162 165.305 187.944 168.704C187.027 171.247 186.35 173.666 185.843 175.893C183.701 175.674 181.354 175.523 178.829 175.482C176.228 175.441 173.813 175.523 171.609 175.687C174.039 169.999 177.467 163.489 182.346 156.766C185.959 151.798 189.682 147.645 193.152 144.232C196.724 142.437 199.824 141.039 202.267 140.004Z" fill="#7099ED"/>
<path d="M194.979 148.24C196.69 150.858 198.401 153.483 200.112 156.101C197.354 157.286 194.589 158.458 191.831 159.637C190.476 160.212 189.115 160.795 187.76 161.371C188.307 159.349 189.217 156.765 190.812 153.976C192.174 151.578 193.679 149.673 194.979 148.24Z" fill="#F4F3F1"/>
<path d="M180.32 151.483C184.96 148.557 189.319 146.165 193.151 144.232C189.682 147.645 185.959 151.798 182.346 156.766C177.467 163.489 174.038 170 171.609 175.687C170.884 177.373 170.247 178.984 169.693 180.505L148.274 181.28C147.466 181.307 146.741 181.602 146.173 182.061L145.188 180.67C156.472 168.485 169.392 158.363 180.32 151.483Z" fill="#F4F3F1"/>
<path d="M185.843 175.892C185.522 177.325 185.268 178.682 185.063 179.949L169.693 180.504C170.248 178.983 170.884 177.373 171.609 175.687C173.813 175.522 176.229 175.44 178.829 175.481C181.354 175.522 183.701 175.673 185.843 175.892Z" fill="#F4F3F1"/>
<path d="M153.256 260.24L152.996 260.898C153.229 262.494 154.7 263.707 156.438 263.673L164.472 263.515C163.87 264.975 158.519 277.365 146.591 279.579C145.756 279.729 140.925 280.566 135.943 278.674C120.97 272.979 117.905 247.678 117.644 245.348C115.058 221.781 128.292 198.912 145.188 180.67L146.174 182.061C145.387 182.712 144.921 183.692 145.01 184.761L148.192 221.054C144.292 223.316 138.174 227.311 134.342 234.52C133.774 235.596 133.404 236.289 133.124 237.07C132.508 237.543 131.433 238.427 130.373 239.722C126.171 244.841 125.186 252.612 126.458 259.609C126.465 259.609 126.465 259.616 126.465 259.623C127.807 267.003 131.673 273.528 136.956 275.193C140.747 276.378 145.469 275.138 148.507 272.465C153.865 267.75 152.189 260.185 152.072 259.698C152.483 259.918 152.88 260.096 153.256 260.24Z" fill="#F4F3F1"/>
<path d="M152.072 259.697C152.188 260.183 153.865 267.749 148.507 272.464C145.468 275.137 140.746 276.377 136.955 275.191C131.672 273.526 127.806 267.002 126.465 259.621C126.677 260.231 128.922 266.235 135.511 267.687C140.541 268.798 145.42 266.68 148.055 263.507C149.273 262.047 149.855 260.553 150.149 259.498C150.881 259.601 151.531 259.663 152.072 259.697Z" fill="#262626"/>
<path d="M220.977 262.398L164.473 263.515L156.439 263.672C154.701 263.706 153.229 262.493 152.997 260.897L153.257 260.239C154.427 260.691 155.433 260.821 156.227 260.821C156.261 260.828 156.357 260.828 156.48 260.821C157.021 260.801 157.951 260.643 160.49 259.8C165.369 258.176 169.256 256.847 169.694 254.688C169.749 254.407 169.92 253.578 169.42 252.831C169.044 252.269 168.455 252.015 168.154 251.912C171.59 250.789 172.329 249.624 172.602 248.993C172.732 248.692 173.211 247.595 172.739 246.375C172.281 245.19 171.22 244.635 170.912 244.484V244.347C177.748 243.853 179.295 242.606 179.774 241.448C180.253 240.297 179.726 239.139 179.644 238.954C179.165 237.946 177.81 236.61 168.544 235.5C164.178 234.986 160.387 234.924 156.227 234.862C154.55 234.842 153.072 234.835 151.847 234.849C154.27 230.97 157 228.647 159.245 227.187C164.603 223.733 169.763 223.589 170.344 220.629C170.638 219.128 169.619 217.661 168.791 216.928C167.812 216.065 166.06 215.311 161.366 216.065C156.104 216.914 151.998 218.888 149.233 220.457C148.911 220.642 148.562 220.841 148.193 221.054L145.011 184.76C144.922 183.691 145.387 182.711 146.174 182.06C146.742 181.601 147.468 181.306 148.275 181.279L169.694 180.505L185.064 179.95L215.283 178.86C217.117 178.791 218.684 180.121 218.807 181.855L219.656 193.751L220.799 209.842L221.572 220.67L224.302 258.964C224.432 260.794 222.92 262.356 220.977 262.398Z" fill="#7099ED"/>
<path d="M203.513 66.3555C202.205 70.2 192.126 100.949 204.956 117.458C205.908 118.685 206.941 119.767 207.906 120.679C209.959 122.618 211.724 123.776 211.854 123.859C223.734 131.52 237.934 127.326 241.499 126.161" stroke="#262626" stroke-width="0.99" stroke-linecap="round" stroke-linejoin="round"/>
<path d="M252.496 82.6934C253.283 83.4952 257.663 88.1278 257.067 94.8299C256.691 99.0103 254.563 101.923 253.55 103.143C256.212 103.821 258.874 104.506 261.536 105.185C261.515 104.623 261.44 100.223 265.06 97.5917C265.608 97.1942 267.353 95.9675 269.789 95.9812C271.151 95.995 272.458 96.3856 273.607 97.0366C275.359 98.0303 276.741 99.6202 277.371 101.347C278.918 105.589 275.818 110.256 271.958 112.223C268.817 113.819 265.594 113.422 263.657 112.915C262.761 112.689 262.145 112.428 261.94 112.346" stroke="#262626" stroke-width="0.99" stroke-linecap="round" stroke-linejoin="round"/>
<path d="M261.118 277.372C263.452 279.435 265.833 281.395 268.249 283.238C285.706 296.581 304.696 303.921 317.164 297.959C338.699 287.665 331.377 242.244 326.012 223.268C318.464 196.617 302.013 176.846 290.674 164.333C289.381 162.907 288.162 161.585 287.026 160.351C281.47 154.307 276.071 149.153 271.226 144.877C269.138 143.034 267.154 141.355 265.306 139.84C263.773 138.579 262.33 137.435 260.995 136.393C260.632 134.509 260.379 132.405 260.318 130.123C260.119 122.92 261.933 116.972 263.657 112.922" stroke="#262626" stroke-width="0.99" stroke-linecap="round" stroke-linejoin="round"/>
<path d="M276.016 90.9922C275.695 91.9379 275.332 92.9247 274.935 93.9321C274.524 94.9738 274.1 95.9674 273.676 96.9063" stroke="#262626" stroke-width="0.99" stroke-linecap="round" stroke-linejoin="round"/>
<path d="M272.73 100.037C272.71 100.441 272.614 100.997 272.258 101.538C271.142 103.265 268.604 103.176 268.467 103.169" stroke="#262626" stroke-width="0.99" stroke-linecap="round" stroke-linejoin="round"/>
<path d="M272.833 104.513C272.6 104.588 272.203 104.677 271.752 104.581C270.554 104.321 270.157 103.026 270.137 102.971" stroke="#262626" stroke-width="0.99" stroke-linecap="round" stroke-linejoin="round"/>
<path d="M203.622 66.0331L188.307 60.8111L189.388 55.3082C190.127 55.4795 190.873 55.5618 191.605 55.5618C195.348 55.5618 198.831 53.4373 200.31 50.0451L203.991 41.5612C213.024 20.7967 237.659 10.3185 260.105 17.6992C278.41 23.7161 290.16 39.9713 290.16 57.6039C290.16 60.7494 289.784 63.9361 289.01 67.1158L284.302 86.448C284.077 87.3732 284.432 88.3463 285.219 88.9425L283.597 93.2941L276.104 90.738L252.495 82.6926L203.622 66.0331Z" stroke="#262626" stroke-width="0.99" stroke-linecap="round" stroke-linejoin="round"/>
<path d="M245.947 35C244.373 37.3848 240.315 44.2104 241.074 53.4139C242.135 66.1878 251.647 73.6164 253.351 74.8979" stroke="white" stroke-width="0.99" stroke-linecap="round" stroke-linejoin="round"/>
<path d="M230.803 32.8555C230.748 34.5002 230.077 48.2883 218.711 55.0248C215.125 57.1492 211.512 57.9579 208.781 58.2662" stroke="#262626" stroke-width="0.99" stroke-linecap="round" stroke-linejoin="round"/>
<path d="M231.803 103.176H215.92V104.341C215.92 108.432 219.43 111.749 223.755 111.749C225.74 111.749 227.574 111.05 228.963 109.878C230.051 108.967 230.872 107.774 231.283 106.404C231.406 106.02 231.495 105.629 231.543 105.218L231.803 103.176Z" stroke="#262626" stroke-width="0.99" stroke-linecap="round" stroke-linejoin="round"/>
<path d="M237.501 92.3424C237.597 92.0889 237.673 91.8285 237.734 91.5612C238.275 89.2038 237.481 87.0382 235.955 86.7298C234.436 86.4146 232.766 88.073 232.219 90.4236C231.678 92.781 232.472 94.9465 233.991 95.2549C234.593 95.3783 235.216 95.1933 235.784 94.7889" stroke="#262626" stroke-width="0.99" stroke-linecap="round" stroke-linejoin="round"/>
<path d="M213.25 86.2639C213.373 85.9623 213.476 85.6402 213.551 85.3045C214.092 82.9539 213.298 80.7884 211.779 80.48C210.259 80.1647 208.583 81.8163 208.042 84.1737C207.495 86.5311 208.289 88.6898 209.815 89.0051C210.253 89.0941 210.697 89.0256 211.129 88.82" stroke="#262626" stroke-width="0.99" stroke-linecap="round" stroke-linejoin="round"/>
<path d="M312.654 273.404C312.38 271.869 311.894 269.669 311.032 267.092C310.108 264.351 309.205 261.665 307.508 259.506C306.153 257.772 304.504 256.641 302.245 255.634C300.986 255.065 299.542 254.537 297.852 253.962C293.069 252.331 286.39 250.337 278 248.678C276.604 247.822 275.064 246.732 273.511 245.348C270.096 242.312 268.009 239.098 266.75 236.699" stroke="#262626" stroke-width="0.99" stroke-linecap="round" stroke-linejoin="round"/>
<path d="M302.246 255.635C302.602 255.381 305.421 253.428 308.952 254.305C311.847 255.025 314.064 257.355 314.639 260.274" stroke="#262626" stroke-width="0.99" stroke-linecap="round" stroke-linejoin="round"/>
<path d="M277.999 248.678C279.033 250.857 281.982 257.826 279.197 265.557C277.719 269.661 274.434 274.527 270.54 277.056C268.508 278.392 266.298 279.084 264.101 278.687C263.013 278.495 262.021 278.029 261.117 277.371H261.11C258.147 275.254 256.218 271.21 255.444 268.627C254.76 266.365 254.719 264.392 254.787 263.096" stroke="#262626" stroke-width="0.99" stroke-linecap="round" stroke-linejoin="round"/>
<path d="M270.548 277.064C270.548 277.064 270.548 277.064 270.548 277.057C268.796 276.043 267.004 274.857 265.197 273.487C260.845 270.184 257.464 266.558 254.843 263.063C253.235 260.925 251.914 258.835 250.826 256.896C250.429 256.19 250.06 255.505 249.725 254.84" stroke="#262626" stroke-width="0.99" stroke-linecap="round" stroke-linejoin="round"/>
<path d="M254.357 253.537C254.323 253.667 254.008 254.709 252.913 255.154C252.01 255.524 250.935 255.339 250.162 254.682" stroke="#262626" stroke-width="0.99" stroke-linecap="round" stroke-linejoin="round"/>
<path d="M252.194 253.537C251.797 253.852 251.229 254.236 250.476 254.558C250.367 254.606 250.264 254.647 250.162 254.682C249.635 254.887 249.156 255.004 248.766 255.072" stroke="#262626" stroke-width="0.99" stroke-linecap="round" stroke-linejoin="round"/>
<path d="M240.698 249.576C240.308 250.488 240.034 251.502 240.014 252.701C239.993 253.654 239.952 255.84 241.321 257.204C243.134 259.006 247.083 259.02 250.819 256.895" stroke="#262626" stroke-width="0.99" stroke-linecap="round" stroke-linejoin="round"/>
<path d="M247.097 241.641C244.188 243.806 242.601 246.102 241.773 247.527C241.396 248.171 241.006 248.836 240.705 249.576" stroke="#262626" stroke-width="0.99" stroke-linecap="round" stroke-linejoin="round"/>
<path d="M243.866 229.812C243.688 230.662 243.51 231.519 243.325 232.369C242.148 233.054 240.212 234.356 238.521 236.528C237.31 238.084 235.832 240.599 235.271 243.011C234.833 244.827 234.915 246.589 236.017 247.843C236.407 248.288 237.618 249.467 240.698 249.576H240.704" stroke="#262626" stroke-width="0.99" stroke-linecap="round" stroke-linejoin="round"/>
<path d="M246.172 216.703C243.236 218.341 240.93 219.965 239.267 221.247C239.11 221.37 238.945 221.493 238.774 221.63C237.187 222.857 235.209 224.461 233.108 226.873C230.597 229.737 229.735 231.649 229.386 232.499C228.79 233.959 228.359 235.007 228.434 236.207C228.701 240.291 234.579 242.738 235.264 243.012" stroke="#262626" stroke-width="0.99" stroke-linecap="round" stroke-linejoin="round"/>
<path d="M266.723 234.533C266.654 232.176 266.463 228.694 265.238 224.98C264.854 223.836 264.375 222.664 263.766 221.499C262.822 219.683 260.263 214.749 254.768 211.843C251.066 209.883 248.226 210.013 234.594 209.924C228.62 209.89 223.891 209.828 221.332 209.801" stroke="#262626" stroke-width="0.99" stroke-linecap="round" stroke-linejoin="round"/>
<path d="M266.674 238.639C266.708 238.118 266.742 237.46 266.749 236.7C266.749 236.247 266.749 235.761 266.742 235.247C266.735 235.028 266.729 234.788 266.722 234.541" stroke="#262626" stroke-width="0.99" stroke-linecap="round" stroke-linejoin="round"/>
<path d="M238.735 221.581C237.127 221.917 235.259 222.184 233.178 222.267C228.34 222.452 224.33 221.547 221.572 220.67" stroke="#262626" stroke-width="0.99" stroke-linecap="round" stroke-linejoin="round"/>
<path d="M152.072 259.698C151.531 259.664 150.881 259.602 150.149 259.499C147.507 259.123 143.819 258.143 140.384 255.58C134.971 251.536 131.166 244.272 132.877 237.872C132.952 237.584 133.034 237.323 133.123 237.07C133.404 236.288 133.773 235.596 134.341 234.52C138.173 227.311 144.291 223.316 148.192 221.054C148.561 220.842 148.91 220.643 149.232 220.458C151.997 218.889 156.102 216.915 161.365 216.065C166.059 215.312 167.811 216.065 168.79 216.929C169.618 217.662 170.637 219.129 170.343 220.629C169.761 223.59 164.602 223.734 159.243 227.188C156.999 228.647 154.268 230.971 151.846 234.849" stroke="#262626" stroke-width="0.99" stroke-linecap="round" stroke-linejoin="round"/>
<path d="M150.266 234.863C150.731 234.856 151.258 234.849 151.846 234.849C153.071 234.835 154.549 234.842 156.226 234.863C160.387 234.924 164.178 234.986 168.544 235.5C177.809 236.61 179.164 237.946 179.643 238.954C179.725 239.139 180.252 240.297 179.773 241.448C179.294 242.606 177.748 243.854 170.905 244.347C170.254 244.388 169.556 244.423 168.811 244.457C164.896 244.621 159.511 244.573 153.044 243.689" stroke="#262626" stroke-width="0.99" stroke-linecap="round" stroke-linejoin="round"/>
<path d="M170.913 244.484C171.22 244.635 172.281 245.19 172.74 246.376C173.212 247.596 172.733 248.692 172.603 248.994C172.329 249.624 171.59 250.789 168.155 251.913C167.635 252.084 167.046 252.256 166.389 252.42C164.145 252.989 160.819 253.585 156.631 253.469" stroke="#262626" stroke-width="0.99" stroke-linecap="round" stroke-linejoin="round"/>
<path d="M168.154 251.912C168.455 252.015 169.043 252.268 169.42 252.83C169.919 253.577 169.748 254.407 169.693 254.688C169.255 256.846 165.369 258.176 160.489 259.8C157.951 260.643 157.02 260.8 156.479 260.821C156.356 260.828 156.26 260.828 156.226 260.821C155.432 260.821 154.426 260.691 153.256 260.238C152.88 260.095 152.483 259.916 152.072 259.697" stroke="#262626" stroke-width="0.99" stroke-linecap="round" stroke-linejoin="round"/>
<path d="M136.907 240.723C136.798 241.271 136.654 242.402 137.14 243.649C138.07 246.054 140.513 246.794 140.835 246.883" stroke="#262626" stroke-width="0.99" stroke-linecap="round" stroke-linejoin="round"/>
<path d="M238.898 236.055C238.365 236.336 237.591 236.645 236.626 236.761C234.074 237.063 232.13 235.747 231.617 235.377" stroke="#262626" stroke-width="0.99" stroke-linecap="round" stroke-linejoin="round"/>
<path d="M126.465 259.623C127.806 267.004 131.672 273.528 136.955 275.193C140.746 276.379 145.468 275.138 148.507 272.466C153.865 267.751 152.188 260.185 152.072 259.698" stroke="#262626" stroke-width="0.99" stroke-linecap="round" stroke-linejoin="round"/>
<path d="M133.123 237.068C132.507 237.541 131.433 238.425 130.372 239.72C126.17 244.84 125.185 252.611 126.458 259.608" stroke="#262626" stroke-width="0.99" stroke-linecap="round" stroke-linejoin="round"/>
<path d="M150.149 259.498C149.855 260.553 149.273 262.047 148.055 263.507C145.42 266.68 140.541 268.798 135.512 267.687C128.922 266.235 126.677 260.231 126.465 259.621C126.465 259.615 126.465 259.608 126.458 259.608C126.458 259.594 126.451 259.587 126.451 259.58" stroke="#262626" stroke-width="0.99" stroke-linecap="round" stroke-linejoin="round"/>
<path d="M148.193 221.054L145.011 184.76C144.922 183.691 145.387 182.711 146.174 182.06C146.742 181.601 147.468 181.306 148.275 181.279L169.694 180.505L185.064 179.95L215.283 178.86C217.117 178.791 218.684 180.121 218.807 181.855L219.656 193.751L220.799 209.842L221.572 220.67L224.302 258.964C224.432 260.794 222.92 262.356 220.977 262.398L164.473 263.515L156.439 263.672C154.701 263.706 153.229 262.493 152.997 260.897C152.983 260.787 152.976 260.684 152.969 260.575" stroke="#262626" stroke-width="0.99" stroke-linecap="round" stroke-linejoin="round"/>
<path d="M172.943 183.774L212.921 182.245C214.05 182.184 215.022 182.999 215.09 184.068L219.162 243.689" stroke="white" stroke-width="0.99" stroke-linecap="round" stroke-linejoin="round"/>
<path d="M220.381 258.525L220.566 260.239C220.6 260.554 220.347 260.828 220.011 260.835L170.398 261.972" stroke="#262626" stroke-width="0.99" stroke-linecap="round" stroke-linejoin="round"/>
<path d="M153.899 184.48L148.473 184.727C147.665 184.768 147.043 185.426 147.09 186.194L148.48 205.773" stroke="#262626" stroke-width="0.99" stroke-linecap="round" stroke-linejoin="round"/>
<path d="M207.898 120.691C208.671 124.783 209.274 129.587 209.397 134.98C209.417 135.857 209.424 136.755 209.417 137.666C209.356 146.527 207.953 154.079 206.399 159.89C206.399 159.89 206.397 159.895 206.393 159.904" stroke="#262626" stroke-width="0.99" stroke-linecap="round" stroke-linejoin="round"/>
<path d="M212.128 174.501C212.08 174.432 212.039 174.364 211.991 174.295C208.036 168.23 204.074 162.165 200.112 156.101M200.112 156.101C198.401 153.483 196.69 150.858 194.979 148.24C193.679 149.673 192.174 151.578 190.812 153.976C189.217 156.765 188.307 159.349 187.76 161.371C189.115 160.795 190.476 160.212 191.831 159.637C194.589 158.458 197.354 157.286 200.112 156.101ZM200.112 156.101H200.118" stroke="#262626" stroke-width="0.99" stroke-linecap="round" stroke-linejoin="round"/>
<path d="M205.9 155.635C205.983 156.951 206.133 158.376 206.4 159.89C206.53 160.706 206.701 161.549 206.913 162.412C208.111 167.346 210.116 171.335 211.991 174.295C212.312 174.802 212.634 175.282 212.942 175.734" stroke="#262626" stroke-width="0.99" stroke-linecap="round" stroke-linejoin="round"/>
<path d="M209.397 134.98C207.337 136.145 204.839 137.77 202.266 140.004C201.767 140.435 201.261 140.895 200.754 141.381C198.208 143.814 196.333 146.219 194.979 148.241" stroke="#262626" stroke-width="0.99" stroke-linecap="round" stroke-linejoin="round"/>
<path d="M252.441 176.099C253.16 177.49 253.632 178.552 253.817 178.977C255.281 176.551 256.698 173.913 258.012 171.048C261.31 163.873 263.199 156.952 264.232 150.702C264.882 146.782 265.19 143.122 265.307 139.84" stroke="#262626" stroke-width="0.99" stroke-linecap="round" stroke-linejoin="round"/>
<path d="M212.941 175.735C214.42 174.94 216.705 173.679 219.436 172.069C227.155 167.519 230.775 164.64 233.32 163.14C234.764 162.283 235.859 161.865 237.166 161.838C244.126 161.694 249.86 171.062 252.44 176.092" stroke="#262626" stroke-width="0.99" stroke-linecap="round" stroke-linejoin="round"/>
<path d="M260.994 136.393C258.743 139.723 255.985 143.328 252.598 147.008C245.925 154.251 239 159.419 233.252 163.016" stroke="#262626" stroke-width="0.99" stroke-linecap="round" stroke-linejoin="round"/>
<path d="M290.673 164.331C289.907 164.009 289.175 163.872 288.47 163.886C280.997 164.009 274.968 180.922 270.773 197.849C270.404 199.315 270.055 200.782 269.72 202.235C269.405 203.612 269.097 204.976 268.809 206.326C268.454 207.95 268.118 209.554 267.803 211.109C266.715 216.475 265.853 221.327 265.237 224.98C265.23 224.987 265.23 224.994 265.23 225" stroke="#262626" stroke-width="0.99" stroke-linecap="round" stroke-linejoin="round"/>
<path d="M271.226 144.877C270.391 145.22 269.426 145.692 268.434 146.364C266.292 147.817 264.985 149.516 264.232 150.702" stroke="#262626" stroke-width="0.99" stroke-linecap="round" stroke-linejoin="round"/>
<path d="M252.441 176.092C251.1 178.442 249.765 180.978 248.492 183.712C247.829 185.131 247.213 186.536 246.645 187.913C246.056 189.352 245.509 190.764 245.009 192.148C244.571 193.361 244.168 194.554 243.798 195.712C243.401 196.938 243.045 198.145 242.717 199.31" stroke="#262626" stroke-width="0.99" stroke-linecap="round" stroke-linejoin="round"/>
<path d="M202.267 140.004C199.824 141.039 196.724 142.437 193.152 144.232C189.32 146.165 184.961 148.556 180.321 151.483C169.392 158.363 156.473 168.485 145.188 180.669C128.292 198.912 115.058 221.78 117.644 245.348C117.905 247.678 120.97 272.979 135.943 278.674C140.925 280.565 145.756 279.729 146.591 279.578C158.519 277.365 163.87 264.974 164.472 263.515" stroke="#262626" stroke-width="0.99" stroke-linecap="round" stroke-linejoin="round"/>
<path d="M193.152 144.232C189.682 147.645 185.96 151.798 182.346 156.766C177.467 163.489 174.039 170 171.609 175.687C170.884 177.373 170.248 178.984 169.693 180.505" stroke="#262626" stroke-width="0.99" stroke-linecap="round" stroke-linejoin="round"/>
<path d="M191.912 159.836C190.551 162.337 189.162 165.305 187.943 168.704C187.026 171.246 186.349 173.665 185.843 175.892C185.521 177.325 185.268 178.682 185.062 179.949" stroke="#262626" stroke-width="0.99" stroke-linecap="round" stroke-linejoin="round"/>
<path d="M267.805 211.111C263.877 208.808 259.518 206.505 254.721 204.34C250.601 202.476 246.557 200.893 242.636 199.55C234.273 196.685 226.465 194.89 219.656 193.752" stroke="#262626" stroke-width="0.99" stroke-linecap="round" stroke-linejoin="round"/>
<path d="M270.767 197.849C268.481 196.677 266.079 195.519 263.561 194.388C257.641 191.729 251.955 189.612 246.645 187.912" stroke="#262626" stroke-width="0.99" stroke-linecap="round" stroke-linejoin="round"/>
<path d="M269.72 202.235C269.289 202.105 265.881 201.063 265.326 201.933C264.882 202.619 266.319 204.387 268.81 206.326" stroke="#262626" stroke-width="0.99" stroke-linecap="round" stroke-linejoin="round"/>
<path d="M245.01 192.148C247.59 193.217 249.123 194.65 248.876 195.349C248.63 196.041 246.509 196.301 243.799 195.712" stroke="#262626" stroke-width="0.99" stroke-linecap="round" stroke-linejoin="round"/>
<path d="M185.843 175.892C183.701 175.673 181.354 175.522 178.829 175.481C176.228 175.44 173.813 175.522 171.609 175.687" stroke="#262626" stroke-width="0.99" stroke-linecap="round" stroke-linejoin="round"/>
<path d="M268.249 283.238C225.938 299.596 187.069 297.986 171.521 279.202C168.613 275.693 165.8 270.704 164.473 263.516" stroke="#262626" stroke-width="0.99" stroke-linecap="round" stroke-linejoin="round"/>
<path d="M143.579 218.635C141.903 218.738 139.884 219.06 137.715 219.848C130.796 222.37 127.203 227.941 125.938 230.148" stroke="#262626" stroke-width="0.99" stroke-linecap="round" stroke-linejoin="round"/>
<path d="M129.053 217.683C130.606 216.45 134.705 213.551 140.556 213.345C143.526 213.242 145.962 213.866 147.591 214.442" stroke="#262626" stroke-width="0.99" stroke-linecap="round" stroke-linejoin="round"/>
<path d="M278.726 219.004C277.022 220.025 274.948 221.505 272.95 223.609C269.077 227.673 267.448 231.99 266.723 234.533" stroke="#262626" stroke-width="0.99" stroke-linecap="round" stroke-linejoin="round"/>
<path d="M221.605 106.85H216.664" stroke="#262626" stroke-width="0.99" stroke-linecap="round" stroke-linejoin="round"/>
<path d="M229.113 106.404H231.283" stroke="#262626" stroke-width="0.99" stroke-linecap="round" stroke-linejoin="round"/>
<path d="M161.215 217.943C161.235 218.389 161.331 219.225 161.844 220.116C162.228 220.78 162.7 221.219 163.015 221.466" stroke="#262626" stroke-width="0.5" stroke-linecap="round" stroke-linejoin="round"/>
<path d="M267.256 25.2109C281.291 34.0581 288.36 51.1425 284.131 67.6856L281.989 79.4041" stroke="white" stroke-width="0.99" stroke-linecap="round" stroke-linejoin="round"/>
<path d="M257.629 20.9746L261.707 22.3109" stroke="white" stroke-width="0.99" stroke-linecap="round" stroke-linejoin="round"/>
</g>
<path d="M38.6113 74V59.7812H51.668V74H48.9531V61.8711H41.3262V74H38.6113ZM53.1426 74L59.3242 59.7129H61.9902L68.1816 74H65.2324L61.1211 63.9219C60.9974 63.6289 60.8932 63.349 60.8086 63.082C60.724 62.8086 60.6458 62.5482 60.5742 62.3008H60.4766C60.3984 62.5482 60.3171 62.8086 60.2324 63.082C60.1478 63.3555 60.0469 63.6354 59.9297 63.9219L55.7891 74H53.1426ZM56.0039 70.6699L56.7656 68.6484H64.4219L65.1836 70.6699H56.0039ZM69.666 74V59.7812H75.8672C77.6966 59.7812 79.0964 60.1719 80.0664 60.9531C81.043 61.7344 81.5312 62.877 81.5312 64.3809C81.5312 65.8522 81.0462 66.9948 80.0762 67.8086C79.1061 68.6224 77.6999 69.0163 75.8574 68.9902H72.3809V74H69.666ZM72.3809 66.9785H75.623C76.7949 66.9785 77.6217 66.7539 78.1035 66.3047C78.5853 65.849 78.8262 65.2109 78.8262 64.3906C78.8262 63.5638 78.5853 62.9323 78.1035 62.4961C77.6217 62.0534 76.7949 61.832 75.623 61.832H72.3809V66.9785ZM82.9863 67.1445V66.6074C82.9863 64.2376 83.6764 62.4603 85.0566 61.2754C86.4368 60.084 88.2012 59.4883 90.3496 59.4883C92.4915 59.4883 94.2559 60.084 95.6426 61.2754C97.0358 62.4603 97.7324 64.2376 97.7324 66.6074V67.1445C97.7324 69.5339 97.0358 71.3242 95.6426 72.5156C94.2559 73.7005 92.4915 74.293 90.3496 74.293C88.2012 74.293 86.4368 73.7005 85.0566 72.5156C83.6764 71.3242 82.9863 69.5339 82.9863 67.1445ZM85.7695 67.3105C85.7695 68.9902 86.1862 70.2272 87.0195 71.0215C87.8594 71.8092 88.9694 72.2031 90.3496 72.2031C91.7298 72.2031 92.8431 71.8092 93.6895 71.0215C94.5358 70.2272 94.959 68.9902 94.959 67.3105V66.4609C94.959 64.7812 94.5358 63.5508 93.6895 62.7695C92.8496 61.9818 91.7363 61.5879 90.3496 61.5879C88.9694 61.5879 87.8594 61.9818 87.0195 62.7695C86.1862 63.5508 85.7695 64.778 85.7695 66.4512V67.3105ZM101.971 59.7812H113.387V74H110.682V61.8711H104.256L103.895 68.5898C103.803 70.4518 103.501 71.8646 102.986 72.8281C102.472 73.7917 101.495 74.2734 100.057 74.2734C99.8353 74.2734 99.6237 74.2572 99.4219 74.2246C99.2201 74.1986 99.0215 74.1497 98.8262 74.0781V71.7734C98.9759 71.8255 99.1159 71.8613 99.2461 71.8809C99.3828 71.9004 99.5228 71.9102 99.666 71.9102C100.311 71.9102 100.763 71.6367 101.023 71.0898C101.284 70.543 101.45 69.5924 101.521 68.2383L101.971 59.7812ZM116.697 59.7812H119.412V64.918H123.338C125.096 64.918 126.398 65.3411 127.244 66.1875C128.09 67.0339 128.514 68.1211 128.514 69.4492C128.514 70.8555 128.09 71.9655 127.244 72.7793C126.398 73.5931 125.096 74 123.338 74H116.697V59.7812ZM119.412 66.9688V71.9492H123.143C124.106 71.9492 124.79 71.7311 125.193 71.2949C125.597 70.8522 125.799 70.237 125.799 69.4492C125.799 68.7396 125.597 68.1504 125.193 67.6816C124.79 67.2064 124.106 66.9688 123.143 66.9688H119.412ZM39.5488 94.832C39.7311 94.8841 39.9297 94.9264 40.1445 94.959C40.3594 94.9915 40.5775 95.0078 40.7988 95.0078C41.3587 95.0078 41.8307 94.8809 42.2148 94.627C42.6055 94.373 42.9896 93.9108 43.3672 93.2402L43.3379 93.3184L37.0684 82.7812H40.1836L44.041 89.5977C44.2233 89.9362 44.3503 90.1901 44.4219 90.3594C44.5 90.5221 44.5814 90.7142 44.666 90.9355H44.7246C44.8092 90.7207 44.8874 90.5319 44.959 90.3691C45.0371 90.1999 45.1641 89.946 45.3398 89.6074L48.9141 82.7812H51.6582L45.9746 93.1816C45.1413 94.7116 44.4023 95.7793 43.7578 96.3848C43.1133 96.9837 42.2409 97.2832 41.1406 97.2832C40.737 97.2832 40.418 97.2669 40.1836 97.2344C39.9557 97.2018 39.7441 97.153 39.5488 97.0879V94.832ZM52.5957 90.1641V89.6172C52.5957 87.2279 53.276 85.444 54.6367 84.2656C55.9974 83.0807 57.752 82.4883 59.9004 82.4883C61.8861 82.4883 63.4681 82.9082 64.6465 83.748C65.8249 84.5814 66.4759 85.8216 66.5996 87.4688L66.6191 87.6738H63.875L63.8652 87.459C63.7741 86.4759 63.3867 85.7533 62.7031 85.291C62.026 84.8223 61.082 84.5879 59.8711 84.5879C58.5299 84.5879 57.446 84.985 56.6191 85.7793C55.7988 86.5736 55.3887 87.791 55.3887 89.4316V90.3496C55.3887 92.0618 55.7988 93.2988 56.6191 94.0605C57.446 94.8223 58.5299 95.2031 59.8711 95.2031C61.2253 95.2031 62.2083 94.9395 62.8203 94.4121C63.4323 93.8783 63.7806 93.1816 63.8652 92.3223L63.875 92.1172H66.6191L66.6094 92.332C66.4987 93.8555 65.8737 95.0632 64.7344 95.9551C63.6016 96.847 61.9935 97.293 59.9102 97.293C57.7487 97.293 55.9876 96.7135 54.627 95.5547C53.2728 94.3893 52.5957 92.5924 52.5957 90.1641ZM68.6309 97V82.7812H81.6875V97H78.9727V84.8711H71.3457V97H68.6309ZM84.9199 97V82.7812H95.7305V84.8809H87.6055V88.6699H94.7344V90.7109H87.6055V94.9102H95.8477V97H84.9199ZM98.1426 82.7812H100.857V94.9102H106.287V82.7812H108.992V94.9102H114.432V82.7812H117.137V97H98.1426V82.7812ZM120.369 97V82.7812H123.084V88.6113H130.818V82.7812H133.523V97H130.818V90.7207H123.084V97H120.369ZM136.111 90.1445V89.6074C136.111 87.2376 136.801 85.4603 138.182 84.2754C139.562 83.084 141.326 82.4883 143.475 82.4883C145.617 82.4883 147.381 83.084 148.768 84.2754C150.161 85.4603 150.857 87.2376 150.857 89.6074V90.1445C150.857 92.5339 150.161 94.3242 148.768 95.5156C147.381 96.7005 145.617 97.293 143.475 97.293C141.326 97.293 139.562 96.7005 138.182 95.5156C136.801 94.3242 136.111 92.5339 136.111 90.1445ZM138.895 90.3105C138.895 91.9902 139.311 93.2272 140.145 94.0215C140.984 94.8092 142.094 95.2031 143.475 95.2031C144.855 95.2031 145.968 94.8092 146.814 94.0215C147.661 93.2272 148.084 91.9902 148.084 90.3105V89.4609C148.084 87.7812 147.661 86.5508 146.814 85.7695C145.975 84.9818 144.861 84.5879 143.475 84.5879C142.094 84.5879 140.984 84.9818 140.145 85.7695C139.311 86.5508 138.895 87.778 138.895 89.4512V90.3105ZM51.9023 120H49.2461V110.479C49.2461 110.27 49.2493 110.042 49.2559 109.795C49.2624 109.541 49.2721 109.313 49.2852 109.111H49.168C49.0703 109.307 48.9727 109.499 48.875 109.688C48.7839 109.876 48.6536 110.081 48.4844 110.303L41.4824 120H38.6113V105.781H41.2773V115.293C41.2773 115.495 41.2708 115.719 41.2578 115.967C41.2513 116.214 41.2448 116.442 41.2383 116.65H41.375C41.4466 116.488 41.5345 116.302 41.6387 116.094C41.7493 115.885 41.8763 115.68 42.0195 115.479L49.0312 105.781H51.9023V120ZM60.6816 118.203C61.8861 118.203 62.7715 117.995 63.3379 117.578C63.9043 117.161 64.1908 116.572 64.1973 115.811C64.1973 115.107 63.9564 114.57 63.4746 114.199C62.9993 113.828 62.2734 113.643 61.2969 113.643H58.4551V111.641H61.1309C62.0488 111.641 62.7259 111.468 63.1621 111.123C63.5983 110.778 63.8164 110.277 63.8164 109.619C63.8164 108.962 63.556 108.457 63.0352 108.105C62.5143 107.754 61.7038 107.578 60.6035 107.578C59.4447 107.578 58.569 107.783 57.9766 108.193C57.3841 108.604 57.0846 109.235 57.0781 110.088V110.234H54.3828V110.098C54.3893 108.652 54.9134 107.526 55.9551 106.719C57.0033 105.905 58.5658 105.498 60.6426 105.498C62.5241 105.498 63.9727 105.833 64.9883 106.504C66.0039 107.168 66.5117 108.128 66.5117 109.385C66.5117 110.238 66.2773 110.918 65.8086 111.426C65.3464 111.934 64.7734 112.292 64.0898 112.5V112.539C64.9232 112.734 65.6003 113.115 66.1211 113.682C66.6484 114.242 66.9121 114.977 66.9121 115.889C66.9121 117.275 66.3685 118.356 65.2812 119.131C64.2005 119.899 62.6803 120.283 60.7207 120.283C58.6439 120.283 57.0391 119.906 55.9062 119.15C54.7799 118.395 54.2103 117.184 54.1973 115.518V115.381H56.8926L56.9023 115.508C56.9023 116.439 57.2181 117.122 57.8496 117.559C58.4811 117.988 59.4251 118.203 60.6816 118.203ZM69.334 120V105.781H72.5469L77.3223 116.035C77.4199 116.243 77.5176 116.455 77.6152 116.67C77.7129 116.878 77.7878 117.057 77.8398 117.207H77.8984C77.9505 117.057 78.0189 116.878 78.1035 116.67C78.1882 116.455 78.276 116.243 78.3672 116.035L83.2012 105.781H86.4824V120H83.8066L83.8164 110.352C83.8164 110.15 83.8229 109.935 83.8359 109.707C83.849 109.473 83.862 109.258 83.875 109.062H83.8066C83.7611 109.258 83.7025 109.473 83.6309 109.707C83.5658 109.935 83.4876 110.15 83.3965 110.352L78.8848 120H76.5801L72.0879 110.352C71.9902 110.156 71.9056 109.945 71.834 109.717C71.7624 109.482 71.7038 109.264 71.6582 109.062H71.5898C71.6029 109.264 71.6159 109.482 71.6289 109.717C71.6484 109.945 71.6582 110.16 71.6582 110.361V120H69.334ZM89.7051 120V105.781H100.516V107.881H92.3906V111.67H99.5195V113.711H92.3906V117.91H100.633V120H89.7051ZM102.928 120V105.781H105.643V111.611H113.377V105.781H116.082V120H113.377V113.721H105.643V120H102.928ZM119.314 120V105.781H130.125V107.881H122V111.67H129.129V113.711H122V117.91H130.242V120H119.314ZM132.537 120V105.781H135.252V111.611H142.986V105.781H145.691V120H142.986V113.721H135.252V120H132.537Z" fill="white"/>
<defs>
<clipPath id="clip0_4373_17349">
<rect width="215.039" height="285.391" fill="white" transform="translate(116.98 15)"/>
</clipPath>
</defs>
</svg>
