<svg width="285" height="358" viewBox="0 0 285 358" fill="none" xmlns="http://www.w3.org/2000/svg">
<g clip-path="url(#clip0_4285_17643)">
<path d="M283.441 310.915C285.709 316.943 284.42 326.35 278.624 330.337C277.874 330.85 277.065 331.268 276.165 331.581C274.776 332.065 273.297 332.255 271.828 332.198V332.065C273.887 329.749 276.025 326.853 277.844 323.313C280.513 318.111 281.732 312.966 282.172 308.371H282.182C282.541 308.96 283.031 309.823 283.441 310.915Z" fill="#262626"/>
<path d="M281.383 294.295C282.003 297.314 282.762 302.373 282.172 308.373C281.733 312.967 280.513 318.112 277.845 323.314C276.026 326.855 273.888 329.75 271.829 332.067V332.199C268.501 332.076 265.173 330.69 262.735 328.583C258.697 325.099 257.088 319.65 258.587 314.505C261.506 314.325 267.082 313.575 272.179 309.967C277.346 306.303 281.253 300.256 281.383 294.295Z" fill="white"/>
<path d="M239.899 305.922C235.911 304.678 235.042 303.397 234.722 302.704C234.572 302.372 234.013 301.156 234.572 299.808C235.102 298.498 236.341 297.891 236.691 297.73V297.559C228.746 297.037 226.947 295.651 226.387 294.379C225.828 293.116 226.447 291.825 226.547 291.635C227.097 290.515 228.666 289.044 239.449 287.829C244.516 287.25 248.923 287.183 253.77 287.117C255.709 287.088 257.428 287.088 258.847 287.107C256.039 282.826 252.871 280.263 250.252 278.659C244.026 274.852 238.03 274.691 237.351 271.416C237.011 269.764 238.19 268.15 239.159 267.343C240.289 266.394 242.337 265.559 247.784 266.394C253.9 267.324 258.677 269.498 261.895 271.235C262.275 271.435 262.675 271.653 263.104 271.89C267.641 274.387 274.747 278.792 279.204 286.746C280.084 288.303 280.543 289.129 280.913 290.43C281.273 291.692 281.423 292.983 281.383 294.274V294.293C281.253 300.255 277.345 306.302 272.179 309.966C267.082 313.573 261.505 314.323 258.587 314.503C258.167 314.722 257.758 314.902 257.358 315.035C255.939 315.585 254.72 315.737 253.77 315.747C253.73 315.747 253.61 315.747 253.47 315.747C252.841 315.728 251.761 315.557 248.813 314.627C243.127 312.833 238.62 311.371 238.11 308.988C238.04 308.684 237.85 307.763 238.42 306.938C238.86 306.32 239.539 306.045 239.899 305.931V305.922Z" fill="white"/>
<path d="M278.625 330.338L278.735 330.471C273.528 334.087 249.933 349.57 220.971 343.713C210.847 341.672 202.962 337.6 197.496 334.03L197.166 333.841C201.273 327.575 203.042 321.557 203.862 317.95L253.51 318.88C255.669 318.928 257.468 317.409 257.548 315.472L257.358 315.035C257.758 314.903 258.167 314.722 258.587 314.504C257.088 319.649 258.697 325.098 262.735 328.582C265.173 330.689 268.501 332.075 271.829 332.198C273.298 332.255 274.777 332.065 276.166 331.581C277.066 331.268 277.875 330.85 278.625 330.338Z" fill="#F4F3F1"/>
<path d="M263.004 228.035C265.263 228.111 266.982 229.858 266.802 231.87L263.104 271.892C262.674 271.654 262.275 271.436 261.895 271.237C258.677 269.5 253.9 267.326 247.784 266.395C242.337 265.56 240.289 266.395 239.159 267.345C238.19 268.152 237.011 269.765 237.35 271.417C238.03 274.692 244.026 274.853 250.252 278.66C252.871 280.264 256.039 282.827 258.847 287.099C257.428 287.09 255.709 287.09 253.77 287.118C248.923 287.185 244.516 287.251 239.449 287.83C228.666 289.045 227.097 290.517 226.547 291.637C226.447 291.826 225.828 293.118 226.387 294.38C226.947 295.652 228.746 297.038 236.701 297.56V297.731C236.341 297.892 235.102 298.5 234.572 299.81C234.013 301.158 234.572 302.373 234.722 302.705C235.042 303.398 235.911 304.68 239.899 305.923C239.539 306.037 238.859 306.312 238.42 306.929C237.85 307.755 238.04 308.676 238.11 308.98C238.62 311.363 243.127 312.824 248.813 314.619C251.761 315.549 252.841 315.72 253.47 315.739C253.61 315.739 253.73 315.739 253.77 315.739C254.719 315.739 255.939 315.577 257.358 315.027L257.548 315.463C257.468 317.4 255.669 318.919 253.51 318.871L203.862 317.941L191.469 317.713L178.498 317.466C176.239 317.428 174.48 315.71 174.63 313.688L177.378 277.141L178.398 263.567L179.007 255.46L180.326 237.794L181.016 228.662C181.156 226.754 182.975 225.282 185.113 225.358L190.66 225.548L200.034 225.871L263.004 228.026V228.035Z" fill="#7099ED"/>
<path d="M88.524 322.621C86.1255 319.023 83.857 314.694 82.208 309.606C79.7096 301.898 79.4897 295.101 79.7695 290.469C79.7895 290.649 79.8095 290.83 79.8295 291.019C80.1093 293.241 80.9388 295.462 82.1181 297.513C85.3061 303.047 91.0324 307.366 95.3797 307.167C105.573 306.692 116.486 281.014 116.436 256.276C123.182 255.317 130.667 254.539 138.812 254.131C142.44 253.95 146.198 253.846 150.075 253.836C154.223 253.817 158.22 253.912 162.068 254.102C168.104 254.377 173.76 254.862 178.997 255.469L178.387 263.576C171.731 262.93 164.556 262.484 156.921 262.351C147.517 262.18 138.782 262.494 130.827 263.101C131.387 269.395 131.757 275.992 131.877 282.875C132.196 300.882 130.737 317.276 128.449 331.696C136.764 333.148 147.547 334.278 160.079 333.699C171.572 333.177 181.405 331.364 189.12 329.408C189.9 325.507 190.68 321.615 191.459 317.723L203.851 317.95C203.032 321.558 201.263 327.576 197.155 333.841C195.437 336.471 193.298 339.148 190.65 341.711C180.556 351.469 168.783 353.899 159.289 355.732C124.761 362.405 93.6208 348.992 88.3941 339.205C84.8463 332.588 86.2854 327.196 86.2854 327.196C86.8451 325.079 87.8444 323.513 88.514 322.621H88.524Z" fill="#7099ED"/>
<path d="M200.033 225.88L190.659 225.558C188.271 223.564 185.892 221.561 183.504 219.568L183.584 219.34C184.393 219.606 185.223 219.881 186.052 220.166C191.229 221.941 195.896 223.906 200.033 225.88Z" fill="#F4F3F1"/>
<path d="M194.547 133.459V136.961H96.2988V133.459H97.9178C101.615 133.459 104.614 130.611 104.614 127.098V115.005C104.614 104.297 109.181 94.6048 116.566 87.5897C123.951 80.5745 134.145 76.2363 145.418 76.2363C167.964 76.2363 186.232 93.5891 186.232 115.005V127.098C186.232 130.611 189.23 133.459 192.928 133.459H194.547Z" fill="#FF8B63"/>
<path d="M191.469 317.723C190.69 321.615 189.91 325.507 189.131 329.408C181.416 331.364 171.582 333.177 160.089 333.699C147.557 334.278 136.774 333.149 128.459 331.696C130.748 317.277 132.207 300.883 131.887 282.875C131.767 275.993 131.397 269.395 130.837 263.102C132.317 265.209 133.826 267.544 135.315 270.107C136.734 272.556 137.953 274.901 139.002 277.122C142.71 276.771 146.578 276.515 150.605 276.372C160.319 276.021 169.293 276.382 177.378 277.151L174.63 313.698C174.48 315.72 176.239 317.438 178.497 317.476L191.469 317.723Z" fill="#7099ED"/>
<path d="M190.659 225.557L185.113 225.367C182.974 225.291 181.155 226.762 181.015 228.67L180.326 237.802C179.276 235.239 177.917 232.429 176.148 229.496C175.279 228.044 174.389 226.696 173.5 225.452C175.998 226.183 177.927 227.113 179.196 227.797C179.196 225.604 178.937 221.873 177.268 217.611L177.487 217.535C179.456 218.067 181.495 218.665 183.584 219.339L183.504 219.567C185.892 221.56 188.271 223.563 190.659 225.557Z" fill="#7099ED"/>
<path d="M187.103 146.805C190.051 149.833 187.532 154.959 187.103 155.823C184.954 160.199 180.467 161.803 179.277 162.192L178.588 162.126L180.497 145.058L180.747 145.087C181.316 145.011 184.944 144.593 187.103 146.805Z" fill="white"/>
<path d="M183.314 136.961C183.554 137.502 184.204 139.192 183.614 141.271C182.965 143.577 181.216 144.783 180.746 145.087L180.496 145.058L181.406 136.961H183.314Z" fill="#262626"/>
<path d="M181.405 136.961L180.496 145.058L178.587 162.126L178.427 163.569C177.848 168.714 175.839 173.432 172.781 177.41C171.422 179.194 169.843 180.827 168.084 182.279C162.417 186.978 154.912 189.807 146.757 189.807C135.484 189.807 125.501 184.406 119.834 176.175C117.166 172.302 115.457 167.812 115.027 162.952L114.877 161.253L113.358 144.147L112.719 136.961H181.405ZM160.938 145.761C160.938 143.312 159.579 141.328 157.91 141.328C156.241 141.328 154.872 143.312 154.872 145.761C154.872 146.549 155.012 147.289 155.272 147.935C154.852 148.058 154.432 148.191 154.023 148.314C154.322 149.207 154.632 150.108 154.942 151.001C155.352 150.46 155.762 149.928 156.181 149.387C156.671 149.89 157.261 150.184 157.91 150.184C159.579 150.184 160.938 148.2 160.938 145.761ZM151.924 160.949C149.905 160.949 147.267 160.778 144.279 160.076C141.131 159.345 138.592 158.263 136.764 157.323C136.454 158.604 136.374 159.829 136.474 160.987C136.883 165.714 140.331 169.141 143.489 169.341C146.837 169.55 150.995 166.18 151.924 160.949ZM135.964 145.761C135.964 143.312 134.615 141.328 132.936 141.328C131.257 141.328 129.908 143.312 129.908 145.761C129.908 146.416 130.008 147.052 130.188 147.612C129.768 147.745 129.338 147.868 128.919 148.001C129.228 148.893 129.538 149.795 129.848 150.687C130.238 150.175 130.627 149.672 131.007 149.159C131.527 149.805 132.206 150.184 132.936 150.184C134.615 150.184 135.964 148.2 135.964 145.761Z" fill="white"/>
<path d="M180.326 237.804L179.006 255.47C173.77 254.862 168.113 254.378 162.077 254.103V254.074C160.288 248.35 157.52 241.563 153.113 234.434C151.214 231.368 149.255 228.615 147.316 226.175C148.716 226.355 151.644 226.612 155.161 225.805C155.991 225.625 156.84 225.378 157.72 225.064C160.158 224.466 163.466 223.982 167.344 224.296C169.662 224.476 171.731 224.913 173.51 225.454C174.399 226.697 175.289 228.045 176.158 229.498C177.927 232.431 179.286 235.241 180.336 237.804H180.326Z" fill="#F4F3F1"/>
<path d="M167.575 217.64C167.954 213.796 168.374 209.894 168.844 205.936C170.833 207.606 173.971 210.682 176.299 215.409C176.669 216.15 176.989 216.89 177.269 217.612C178.938 221.874 179.197 225.605 179.197 227.797C177.928 227.114 175.999 226.184 173.501 225.453C171.722 224.912 169.653 224.475 167.335 224.295C163.457 223.981 160.149 224.465 157.711 225.063C158.231 224.874 158.76 224.665 159.3 224.418C163.417 222.548 166.036 219.776 167.575 217.64Z" fill="#F4F3F1"/>
<path d="M178.398 263.576L177.379 277.15C169.294 276.381 160.319 276.021 150.605 276.372C146.578 276.514 142.71 276.771 139.003 277.122C137.953 274.9 136.734 272.556 135.315 270.107C133.826 267.544 132.317 265.208 130.838 263.101C138.793 262.493 147.527 262.18 156.931 262.351C164.567 262.484 171.742 262.93 178.398 263.576Z" fill="#7099ED"/>
<path d="M168.843 205.936C168.373 209.894 167.954 213.796 167.574 217.64C166.035 219.776 163.416 222.548 159.299 224.418C158.759 224.665 158.23 224.874 157.71 225.063C156.701 225.31 155.841 225.567 155.152 225.804C151.634 226.611 148.706 226.354 147.307 226.174C141.37 221.874 134.215 215.732 127.539 207.274C124.111 202.936 121.403 198.721 119.234 194.876C119.284 193.813 119.324 192.75 119.364 191.687C119.574 186.466 119.724 181.302 119.834 176.176C125.5 184.406 135.484 189.807 146.757 189.807C154.912 189.807 162.417 186.979 168.084 182.28C169.842 180.827 171.421 179.194 172.781 177.41C171.701 184.169 170.692 191.117 169.772 198.256C169.443 200.838 169.133 203.401 168.843 205.936Z" fill="white"/>
<path d="M162.067 254.073V254.102C158.219 253.912 154.222 253.817 150.074 253.836C146.197 253.845 142.439 253.95 138.811 254.13C138.292 252.336 137.742 250.513 137.172 248.672C136.773 247.39 136.363 246.099 135.933 244.799C135.434 243.27 134.914 241.723 134.374 240.157C134.294 239.92 134.204 239.682 134.124 239.445C131.376 231.575 128.428 224.266 125.42 217.526C130.637 217.203 138.672 220.118 147.306 226.174C149.245 228.614 151.204 231.367 153.102 234.433C157.51 241.562 160.278 248.349 162.067 254.073Z" fill="#F4F3F1"/>
<path d="M157.909 141.328C159.578 141.328 160.937 143.312 160.937 145.761C160.937 148.21 159.578 150.185 157.909 150.185C157.26 150.185 156.67 149.891 156.18 149.387C156.75 148.638 157.33 147.878 157.909 147.119C157.03 147.394 156.15 147.66 155.271 147.935C155.011 147.29 154.871 146.549 154.871 145.761C154.871 143.312 156.23 141.328 157.909 141.328Z" fill="#262626"/>
<path d="M157.91 147.119C157.33 147.879 156.751 148.638 156.181 149.388C155.801 149.018 155.491 148.515 155.271 147.936C156.151 147.66 157.03 147.394 157.91 147.119Z" fill="white"/>
<path d="M156.182 149.388C155.762 149.929 155.353 150.461 154.943 151.002C154.633 150.109 154.323 149.208 154.023 148.315C154.433 148.192 154.853 148.059 155.273 147.936C155.493 148.515 155.802 149.018 156.182 149.388Z" fill="white"/>
<path d="M136.474 160.988C136.374 159.83 136.454 158.606 136.764 157.324C138.593 158.264 141.131 159.346 144.279 160.077C147.267 160.78 149.906 160.96 151.924 160.95C150.995 166.181 146.838 169.551 143.49 169.342C140.332 169.143 136.884 165.716 136.474 160.988Z" fill="white"/>
<path d="M127.539 207.274C134.214 215.733 141.37 221.874 147.306 226.175C138.672 220.118 130.637 217.204 125.42 217.527C123.521 217.641 121.992 218.182 120.953 219.159C120.123 219.938 118.844 221.694 119.234 225.795L113.777 198.37C115.596 197.212 117.415 196.045 119.234 194.877C121.403 198.722 124.111 202.936 127.539 207.274Z" fill="#F4F3F1"/>
<path d="M137.173 248.671C137.742 250.513 138.292 252.335 138.812 254.13C130.667 254.538 123.182 255.316 116.436 256.275C116.436 254.804 116.396 253.332 116.306 251.87C121.113 249.953 124.381 247.988 124.081 246.925C123.661 245.444 116.446 246.089 115.776 246.165C115.596 244.656 115.387 243.156 115.137 241.666C117.465 241.106 120.164 240.612 123.182 240.318C127.329 239.909 131.007 239.995 134.055 240.251L134.365 240.156C134.904 241.723 135.424 243.27 135.924 244.798L135.704 244.865C135.434 244.922 131.356 245.795 131.376 246.858C131.396 247.637 133.655 248.396 136.903 248.747L137.163 248.671H137.173Z" fill="#F4F3F1"/>
<path d="M137.173 248.672L136.913 248.748C133.665 248.397 131.407 247.637 131.387 246.859C131.367 245.796 135.444 244.922 135.714 244.865L135.934 244.799C136.364 246.099 136.773 247.39 137.173 248.672Z" fill="#7099ED"/>
<path d="M132.936 141.328C134.615 141.328 135.964 143.312 135.964 145.761C135.964 148.21 134.615 150.185 132.936 150.185C132.207 150.185 131.527 149.805 131.007 149.16C131.617 148.381 132.217 147.593 132.806 146.805C131.937 147.071 131.067 147.347 130.188 147.612C130.008 147.052 129.908 146.416 129.908 145.761C129.908 143.312 131.267 141.328 132.936 141.328Z" fill="#262626"/>
<path d="M134.375 240.156L134.066 240.251C131.017 239.995 127.34 239.909 123.192 240.317C120.174 240.612 117.476 241.105 115.147 241.665C113.209 229.866 109.591 218.702 107.702 213.092C105.024 205.099 102.246 198.578 100.127 193.945C103.115 194.695 106.243 195.616 109.481 196.755C110.97 197.277 112.399 197.818 113.778 198.369L119.235 225.793C118.845 221.693 120.124 219.936 120.954 219.158C121.993 218.18 123.522 217.639 125.421 217.525C128.429 224.265 131.377 231.575 134.125 239.444C134.205 239.681 134.295 239.919 134.375 240.156Z" fill="#7099ED"/>
<path d="M132.806 146.805C132.216 147.593 131.617 148.38 131.007 149.159C130.657 148.741 130.377 148.219 130.188 147.612C131.067 147.346 131.936 147.07 132.806 146.805Z" fill="white"/>
<path d="M131.007 149.159C130.627 149.671 130.237 150.174 129.847 150.687C129.538 149.795 129.228 148.893 128.918 148.001C129.338 147.868 129.767 147.744 130.187 147.611C130.377 148.219 130.657 148.741 131.007 149.159Z" fill="white"/>
<path d="M124.092 246.925C124.391 247.988 121.124 249.953 116.317 251.871C116.297 251.33 116.257 250.798 116.217 250.267C116.107 248.9 115.967 247.533 115.797 246.166C116.466 246.09 123.682 245.444 124.102 246.925H124.092Z" fill="#7099ED"/>
<path d="M54.1656 151.495C56.1844 153.754 59.5622 158.064 61.6709 164.281H61.7009C62.9601 164.851 67.9369 167.281 70.6452 172.702C75.4722 174.866 82.5877 178.701 89.5233 185.298C92.1516 187.805 94.76 190.292 96.9586 193.206C97.9979 193.434 99.0473 193.681 100.127 193.946C102.245 198.579 105.024 205.1 107.702 213.093C109.591 218.703 113.208 229.867 115.147 241.666C115.397 243.157 115.607 244.657 115.787 246.166C115.957 247.533 116.097 248.9 116.206 250.267C116.246 250.798 116.286 251.33 116.306 251.871C116.396 253.333 116.436 254.804 116.436 256.276C116.486 281.014 105.573 306.692 95.3796 307.166C91.0323 307.366 85.306 303.046 82.118 297.512C82.138 295.414 82.158 293.335 82.1779 291.247C81.3784 290.07 80.5889 288.826 79.8194 287.507C73.8432 277.226 72.0643 267.392 71.5347 260.823C69.2261 258.212 67.2274 255.032 66.1081 251.207C65.3985 248.767 65.1587 246.432 65.1887 244.324C49.1588 232.496 39.5049 218.646 33.8185 208.347C29.2614 206.429 18.0285 200.098 6.67562 149.815C5.68624 145.41 4.81679 141.29 4.08725 137.512C3.08789 132.376 2.30838 127.877 1.71875 124.175C2.83804 128.209 5.17657 131.902 8.31458 134.028C9.50383 134.844 10.813 135.433 12.2121 135.727C16.4594 136.629 20.267 134.55 22.1059 133.506C35.4674 125.969 36.3669 107.268 36.4768 103.955C42.7728 128.048 47.24 140.198 50.458 145.942C52.1969 146.302 52.9964 147.052 53.3761 147.508C54.1656 148.486 54.4155 149.881 54.1456 151.495H54.1656Z" fill="#F4F3F1"/>
<path d="M113.357 144.147L114.876 161.253L114.107 161.31C112.918 160.93 108.431 159.316 106.272 154.94C105.852 154.076 103.324 148.95 106.272 145.931C107.661 144.498 109.68 144.166 111.079 144.137C111.848 144.109 112.428 144.185 112.628 144.204L113.357 144.147Z" fill="white"/>
<path d="M112.718 136.961L113.358 144.147L112.628 144.204C112.429 144.185 111.849 144.109 111.079 144.137V143.805C110.75 143.055 110.44 142.21 110.18 141.271C109.73 139.647 109.54 138.186 109.48 136.961H112.718Z" fill="#262626"/>
<path d="M79.7696 290.468C79.6797 289.309 79.7296 288.303 79.8296 287.506C80.5991 288.825 81.3886 290.069 82.1881 291.237C82.1681 293.334 82.1481 295.413 82.1281 297.502C80.9489 295.461 80.1194 293.239 79.8396 291.018C79.8196 290.828 79.7996 290.648 79.7796 290.468H79.7696Z" fill="#262626"/>
<path d="M44.4417 45.1285C45.4911 43.6001 46.6303 42.0338 47.8496 40.4296C50.6078 36.8603 53.3761 33.7182 56.0344 30.9748C56.8539 27.377 58.183 24.7096 59.2324 22.9534C60.3617 21.0833 62.5403 17.4761 64.539 17.7988C65.4385 17.9507 65.9681 18.8336 66.168 19.1563C69.8956 25.0988 62.3104 36.9837 57.6334 44.3216C55.6247 47.4542 52.4866 52.0582 48.0295 57.3267C48.1194 58.4848 48.1494 59.7853 48.0295 61.2092C47.7696 64.4747 46.8902 67.1706 46.0407 69.1356L45.2512 69.3919C47.3899 69.3919 49.0488 70.1419 49.7684 70.5026C53.9157 66.0505 59.4023 64.038 64.0194 65.2626C67.9369 66.2973 71.8944 69.8191 71.3148 72.3537C70.6252 75.3724 64.2192 73.844 57.8033 79.1125C53.6459 82.5204 54.1356 84.96 49.9782 86.8776C46.6703 88.4059 45.601 87.2098 40.5542 88.5673C36.7666 89.583 35.2175 90.9689 33.4487 91.9847C32.5892 92.4878 31.6698 92.896 30.4206 93.1238C27.7323 93.6269 23.7248 93.3421 18.1483 89.583H15.3101C13.6212 90.6937 10.0434 92.6871 6.77551 91.605C5.94603 91.3297 5.22649 90.893 4.60688 90.3234C1.06911 87.1244 0.669366 79.9479 0.529455 77.2614C-0.140122 64.9683 7.14528 55.1813 11.3926 50.3969C10.2133 48.6123 8.98412 46.5239 7.83484 44.1507C6.88544 42.1762 6.12592 40.2967 5.5263 38.5785C4.36703 37.0406 2.78803 34.5251 1.96855 31.1457C1.01915 27.2062 0.979171 21.5959 2.85798 21.0074C4.42699 20.5233 6.89543 23.6749 9.97349 27.5954C11.9622 30.1299 13.3614 32.3607 14.2408 33.8416C16.3695 37.4488 18.5081 41.0561 20.6368 44.6538L21.1864 44.6728C21.2264 43.3154 21.4263 41.4833 22.0659 39.4233C22.7154 37.297 23.3151 36.585 24.0146 34.6864C25.1539 31.6108 24.8841 29.9021 25.2638 26.7505C25.5437 24.4343 26.2032 21.1308 27.9321 17.1249C27.9122 16.4129 27.8322 6.45502 32.919 4.56596C33.2688 4.43306 35.2076 3.75908 36.4668 4.63241C37.8859 5.61016 37.5561 7.96436 37.3562 10.7078C37.1663 13.3088 37.0464 16.9065 37.3562 21.3491C38.3256 18.3874 39.285 15.4162 40.2544 12.4544C39.9346 7.129 41.6435 2.63893 45.0014 1.08212C45.561 0.816324 47.0501 0.123354 48.3193 0.683426C51.4373 2.06937 50.378 9.73951 50.1581 11.3818C49.6185 15.2738 48.729 15.8149 47.6697 20.5043C46.8302 24.197 46.9002 25.9721 46.4804 30.633C46.1706 34.0979 45.591 39.0531 44.4217 45.1285H44.4417Z" fill="white"/>
<path d="M36.4963 103.935C36.4963 103.935 36.4963 103.945 36.4963 103.954C36.3864 107.267 35.4869 125.968 22.1254 133.505C20.2865 134.549 16.4789 136.628 12.2316 135.726C10.8325 135.432 9.52334 134.843 8.33409 134.027V134.008C6.84503 126.575 5.60582 118.203 4.97621 109.004C4.95623 108.672 4.93624 108.349 4.91625 108.026C4.5165 101.723 4.45654 95.8093 4.60645 90.332H4.61644C5.23605 90.892 5.95559 91.3287 6.78507 91.604C10.053 92.6862 13.6307 90.6927 15.3197 89.582H18.1579C23.7344 93.3412 27.7418 93.6259 30.4301 93.1228C31.6793 92.895 32.5988 92.4868 33.4582 91.9837C34.5076 96.2649 35.5169 100.242 36.4963 103.935Z" fill="white"/>
<path d="M1.7386 124.175C1.04904 121.678 0.81918 119.048 1.15897 116.58C1.70862 112.565 3.66738 109.613 4.91659 108.027C4.93658 108.35 4.95657 108.673 4.97655 109.005C5.60616 118.204 6.84537 126.576 8.34443 134.009V134.028C5.19642 131.902 2.85789 128.209 1.7386 124.175Z" fill="#262626"/>
<path d="M183.314 136.961H194.547V133.459H192.928C189.23 133.459 186.232 130.611 186.232 127.098V115.005C186.232 93.5891 167.964 76.2363 145.418 76.2363C134.145 76.2363 123.951 80.5745 116.566 87.5897C109.181 94.6048 104.614 104.297 104.614 115.005V127.098C104.614 130.611 101.615 133.459 97.9178 133.459H96.2988V136.961H183.314Z" stroke="#262626" stroke-linecap="round" stroke-linejoin="round"/>
<path d="M131.006 96C131.386 98.2688 132.735 107.837 126.319 117.235C120.383 125.931 111.638 128.845 109.17 129.585" stroke="#262626" stroke-linecap="round" stroke-linejoin="round"/>
<path d="M160.499 96C160.119 98.2593 158.76 107.837 165.176 117.226C171.112 125.921 179.866 128.835 182.335 129.576" stroke="white" stroke-linecap="round" stroke-linejoin="round"/>
<path d="M112.719 136.961L113.358 144.147L114.877 161.253L115.027 162.952C115.457 167.812 117.166 172.302 119.834 176.175C125.501 184.406 135.484 189.807 146.757 189.807C154.912 189.807 162.417 186.978 168.084 182.279C169.843 180.827 171.422 179.194 172.781 177.41C175.839 173.432 177.848 168.714 178.427 163.569L178.587 162.126L180.496 145.058L181.405 136.961" stroke="#262626" stroke-linecap="round" stroke-linejoin="round"/>
<path d="M172.781 177.41C171.702 184.169 170.692 191.118 169.773 198.256C169.443 200.838 169.133 203.401 168.843 205.936C168.374 209.894 167.954 213.796 167.574 217.64" stroke="#262626" stroke-linecap="round" stroke-linejoin="round"/>
<path d="M119.834 176.176C119.724 181.302 119.574 186.466 119.364 191.687C119.324 192.75 119.284 193.813 119.234 194.876" stroke="#262626" stroke-linecap="round" stroke-linejoin="round"/>
<path d="M96.959 193.205C97.9983 193.433 99.0477 193.68 100.127 193.946C103.115 194.695 106.243 195.616 109.481 196.755C110.97 197.277 112.399 197.819 113.778 198.369" stroke="#262626" stroke-linecap="round" stroke-linejoin="round"/>
<path d="M125.42 217.525C128.428 224.265 131.376 231.575 134.124 239.444C134.204 239.681 134.294 239.919 134.374 240.156C134.914 241.722 135.434 243.27 135.933 244.798C136.363 246.099 136.773 247.39 137.172 248.671C137.742 250.513 138.292 252.335 138.811 254.129" stroke="#262626" stroke-linecap="round" stroke-linejoin="round"/>
<path d="M100.127 193.945C102.245 198.578 105.024 205.099 107.702 213.092C109.591 218.702 113.208 229.866 115.147 241.665C115.397 243.156 115.607 244.656 115.787 246.165C115.957 247.532 116.097 248.899 116.207 250.266C116.247 250.797 116.287 251.329 116.307 251.87C116.396 253.332 116.436 254.803 116.436 256.275C116.486 281.013 105.573 306.691 95.3797 307.165C91.0325 307.365 85.3061 303.045 82.1181 297.511C80.9389 295.461 80.1094 293.239 79.8296 291.018C79.8096 290.828 79.7896 290.648 79.7696 290.468C79.6797 289.309 79.7296 288.303 79.8296 287.506" stroke="#262626" stroke-linecap="round" stroke-linejoin="round"/>
<path d="M65.2075 244.324C65.1776 246.432 65.4174 248.767 66.127 251.206C67.2463 255.032 69.245 258.212 71.5535 260.813C76.4105 266.319 82.6365 269.205 84.7052 270.107" stroke="#262626" stroke-linecap="round" stroke-linejoin="round"/>
<path d="M82.1875 291.246C83.7665 293.562 85.3855 295.603 86.9445 297.397" stroke="#262626" stroke-linecap="round" stroke-linejoin="round"/>
<path d="M71.5449 260.822C72.0746 267.391 73.8535 277.226 79.8297 287.506C80.5992 288.826 81.3887 290.069 82.1882 291.237" stroke="#262626" stroke-linecap="round" stroke-linejoin="round"/>
<path d="M98.417 225.861C100.346 222.187 104.723 212.514 101.405 201.768C100.376 198.427 98.8167 195.655 96.9579 193.206C94.7593 190.291 92.1509 187.804 89.5226 185.298C82.587 178.701 75.4715 174.866 70.6445 172.701" stroke="#262626" stroke-linecap="round" stroke-linejoin="round"/>
<path d="M99.7969 238.249C101.116 236.73 102.995 234.157 104.144 230.55C105.793 225.415 105.054 221.01 104.544 218.912" stroke="#262626" stroke-linecap="round" stroke-linejoin="round"/>
<path d="M36.4971 103.936C35.5177 100.243 34.5083 96.2656 33.459 91.9844" stroke="#262626" stroke-linecap="round" stroke-linejoin="round"/>
<path d="M52.2561 148.656C51.7065 147.973 51.1169 147.081 50.4773 145.942C47.2593 140.198 42.7921 128.048 36.4961 103.955" stroke="#262626" stroke-linecap="round" stroke-linejoin="round"/>
<path d="M61.2516 188.308C62.4709 185.061 64.8694 177.258 62.6408 167.652C62.3709 166.475 62.0411 165.345 61.6714 164.282C59.5627 158.064 56.1848 153.754 54.1661 151.495C54.1361 151.457 54.1062 151.429 54.0762 151.391" stroke="#262626" stroke-linecap="round" stroke-linejoin="round"/>
<path d="M4.60645 90.332C4.45654 95.8093 4.5165 101.723 4.91625 108.027C4.93624 108.349 4.95623 108.672 4.97621 109.004C5.60582 118.203 6.84503 126.575 8.34409 134.008" stroke="#262626" stroke-linecap="round" stroke-linejoin="round"/>
<path d="M4.91659 108.027C3.66738 109.612 1.70862 112.564 1.15897 116.58C0.81918 119.048 1.04904 121.677 1.7386 124.174C2.85789 128.209 5.19642 131.901 8.33443 134.028C9.52368 134.844 10.8329 135.432 12.232 135.727C16.4793 136.629 20.2869 134.55 22.1257 133.505C35.4873 125.968 36.3867 107.268 36.4966 103.955C36.4966 103.955 36.4867 103.955 36.4966 103.936" stroke="#262626" stroke-linecap="round" stroke-linejoin="round"/>
<path d="M1.39844 122.02C1.50837 122.703 1.6183 123.424 1.73822 124.174C2.32785 127.877 3.10736 132.376 4.10673 137.512C4.83627 141.29 5.70572 145.41 6.69509 149.814C18.0479 200.097 29.2808 206.429 33.8379 208.347C37.0159 209.676 41.4931 210.786 47.6092 210.274" stroke="#262626" stroke-linecap="round" stroke-linejoin="round"/>
<path d="M33.8379 208.348C39.5243 218.647 49.1782 232.497 65.2081 244.325C69.7952 247.714 74.3323 250.505 78.6296 252.821" stroke="#262626" stroke-linecap="round" stroke-linejoin="round"/>
<path d="M18.1582 89.5835C23.7347 93.3427 27.7422 93.6274 30.4305 93.1243C31.6797 92.8965 32.5991 92.4883 33.4585 91.9852C35.2274 90.9695 36.7764 89.5835 40.5641 88.5678C45.6109 87.2104 46.6802 88.4064 49.9881 86.8781C54.1455 84.9606 53.6558 82.5209 57.8132 79.113C64.2291 73.8446 70.6351 75.3729 71.3246 72.3542C71.9043 69.8196 67.9468 66.2978 64.0292 65.2631C59.4121 64.0386 53.9256 66.051 49.7782 70.5126C48.9488 71.3764 48.1892 72.3257 47.4997 73.3699" stroke="#262626" stroke-linecap="round" stroke-linejoin="round"/>
<path d="M49.7682 70.5032C49.0486 70.1425 47.3897 69.3926 45.251 69.3926C44.8313 69.3926 44.3916 69.4211 43.9418 69.4875C38.8651 70.209 36.6365 74.8794 36.4766 75.2211" stroke="#262626" stroke-linecap="round" stroke-linejoin="round"/>
<path d="M20.6465 44.6547C18.5179 41.0569 16.3792 37.4497 14.2506 33.8424C13.3711 32.3615 11.972 30.1307 9.98326 27.5962C6.9052 23.6757 4.43676 20.5241 2.86775 21.0082C0.988936 21.5968 1.02891 27.207 1.97831 31.1465C2.79779 34.5259 4.3768 37.0415 5.53606 38.5793C6.13569 40.2975 6.89521 42.177 7.84461 44.1515C8.99388 46.5247 10.2231 48.6131 11.4024 50.3978C7.15504 55.1821 -0.130357 64.9691 0.53922 77.2622C0.679132 79.9487 1.07888 87.1252 4.61665 90.3243C5.23625 90.8938 5.9558 91.3305 6.78528 91.6058C10.0532 92.688 13.631 90.6945 15.3199 89.5838" stroke="#262626" stroke-linecap="round" stroke-linejoin="round"/>
<path d="M46.041 69.1364C46.8905 67.1714 47.7699 64.4754 48.0298 61.2099C48.1497 59.786 48.1197 58.4855 48.0298 57.3274C52.4869 52.0589 55.625 47.4549 57.6337 44.3223C62.3107 36.9844 69.8959 25.0995 66.1683 19.1571C65.9684 18.8343 65.4388 17.9515 64.5393 17.7996C62.5406 17.4768 60.362 21.0841 59.2327 22.9541C58.1833 24.7103 56.8542 27.3778 56.0347 30.9755" stroke="#262626" stroke-linecap="round" stroke-linejoin="round"/>
<path d="M43.0527 47.1882C43.4925 46.5142 43.9522 45.8213 44.4419 45.1283C45.4912 43.6 46.6305 42.0337 47.8497 40.4294C50.608 36.8601 53.3762 33.718 56.0345 30.9746" stroke="#262626" stroke-linecap="round" stroke-linejoin="round"/>
<path d="M44.4309 45.1285C45.6001 39.0531 46.1798 34.0979 46.4896 30.633C46.9093 25.9721 46.8393 24.197 47.6788 20.5043C48.7381 15.8149 49.6276 15.2738 50.1672 11.3818C50.3871 9.73951 51.4464 2.06937 48.3284 0.683426C47.0592 0.123354 45.5701 0.816324 45.0105 1.08212C41.6526 2.63893 39.9437 7.129 40.2635 12.4544C39.2941 15.4162 38.3347 18.3874 37.3653 21.3491C37.0555 16.9065 37.1754 13.3088 37.3653 10.7078C37.5652 7.96436 37.895 5.61016 36.4759 4.63241C35.2167 3.75908 33.2779 4.43306 32.9281 4.56596C27.8413 6.45502 27.9213 16.4129 27.9413 17.1249C26.2124 21.1308 25.5528 24.4343 25.273 26.7505C24.8932 29.9021 25.163 31.6108 24.0238 34.6865C23.3242 36.585 22.7246 37.297 22.075 39.4233C21.4354 41.4833 21.2355 43.3154 21.1955 44.6728C21.1855 44.9006 21.1855 45.1285 21.1855 45.3278" stroke="#262626" stroke-linecap="round" stroke-linejoin="round"/>
<path d="M35.5865 27.2637C35.0968 29.1243 34.6171 31.0418 34.1574 33.0068C33.6377 35.2471 33.168 37.4399 32.7383 39.5853" stroke="#262626" stroke-linecap="round" stroke-linejoin="round"/>
<path d="M16.918 47.6916C20.086 46.9227 23.9835 46.2392 28.4707 46.0019C31.7086 45.8405 34.6368 45.9449 37.1852 46.1727" stroke="#262626" stroke-linecap="round" stroke-linejoin="round"/>
<path d="M9.80273 66.6113C10.7321 66.8392 16.3086 68.2915 18.3373 73.0284C18.827 74.1771 19.0169 75.2782 19.0469 76.237C19.4966 75.4965 20.3661 74.3005 21.8951 73.3702C24.9831 71.4906 28.311 72.1931 29.0006 72.3544" stroke="#262626" stroke-linecap="round" stroke-linejoin="round"/>
<path d="M112.628 144.204C112.428 144.185 111.848 144.109 111.079 144.137C109.68 144.166 107.661 144.498 106.272 145.931C103.324 148.95 105.852 154.076 106.272 154.94C108.431 159.316 112.918 160.93 114.107 161.31" stroke="#262626" stroke-linecap="round" stroke-linejoin="round"/>
<path d="M180.744 145.087C181.314 145.011 184.942 144.593 187.1 146.805C190.049 149.833 187.53 154.959 187.1 155.823C184.952 160.199 180.465 161.803 179.275 162.192" stroke="#262626" stroke-linecap="round" stroke-linejoin="round"/>
<path d="M136.764 157.324C138.593 158.264 141.131 159.346 144.279 160.077C147.267 160.78 149.906 160.96 151.924 160.95C150.995 166.181 146.838 169.551 143.49 169.342C140.332 169.143 136.884 165.716 136.474 160.988C136.374 159.83 136.454 158.606 136.764 157.324Z" stroke="#262626" stroke-linecap="round" stroke-linejoin="round"/>
<path d="M109.48 136.961C109.54 138.186 109.73 139.647 110.18 141.271C110.44 142.21 110.75 143.055 111.069 143.805" stroke="#262626" stroke-linecap="round" stroke-linejoin="round"/>
<path d="M183.314 136.961C183.554 137.502 184.204 139.192 183.614 141.271C182.965 143.577 181.216 144.783 180.746 145.087" stroke="#262626" stroke-linecap="round" stroke-linejoin="round"/>
<path d="M115.107 241.675C115.107 241.675 115.137 241.666 115.147 241.666C117.476 241.106 120.174 240.612 123.192 240.318C127.34 239.909 131.017 239.995 134.065 240.251" stroke="#262626" stroke-linecap="round" stroke-linejoin="round"/>
<path d="M135.714 244.865C135.444 244.922 131.367 245.796 131.387 246.859C131.407 247.637 133.665 248.397 136.913 248.748" stroke="#262626" stroke-linecap="round" stroke-linejoin="round"/>
<path d="M115.777 246.166H115.787C116.457 246.09 123.672 245.444 124.092 246.925C124.392 247.988 121.124 249.953 116.317 251.871" stroke="#262626" stroke-linecap="round" stroke-linejoin="round"/>
<path d="M17.2383 58.3047C18.1677 59.3394 19.6268 60.6494 21.7155 61.5607C27.8116 64.2282 33.9577 61.2759 34.8971 60.8108" stroke="#262626" stroke-linecap="round" stroke-linejoin="round"/>
<path d="M88.5234 322.621C92.0012 327.861 95.7489 331.544 98.2173 333.737" stroke="#262626" stroke-linecap="round" stroke-linejoin="round"/>
<path d="M79.7795 290.363C79.7795 290.363 79.7795 290.43 79.7695 290.468C79.4897 295.1 79.7096 301.897 82.208 309.605C83.857 314.693 86.1255 319.022 88.524 322.61" stroke="#262626" stroke-linecap="round" stroke-linejoin="round"/>
<path d="M281.381 294.274C281.421 292.983 281.271 291.692 280.911 290.43C280.541 289.129 280.082 288.303 279.202 286.746C274.745 278.792 267.64 274.387 263.102 271.89C262.673 271.653 262.273 271.435 261.893 271.235C258.675 269.498 253.898 267.324 247.782 266.394C242.336 265.559 240.287 266.394 239.158 267.343C238.188 268.15 237.009 269.764 237.349 271.416C238.028 274.691 244.025 274.852 250.251 278.659C252.869 280.263 256.037 282.826 258.845 287.098" stroke="#262626" stroke-linecap="round" stroke-linejoin="round"/>
<path d="M258.586 314.505C261.504 314.325 267.081 313.575 272.177 309.967C277.344 306.303 281.252 300.256 281.382 294.295" stroke="#262626" stroke-linecap="round" stroke-linejoin="round"/>
<path d="M260.686 287.118C260.146 287.109 259.537 287.109 258.847 287.109C257.428 287.09 255.709 287.09 253.77 287.118C248.923 287.185 244.516 287.251 239.449 287.83C228.666 289.045 227.097 290.517 226.547 291.637C226.447 291.827 225.828 293.118 226.387 294.38C226.947 295.652 228.746 297.038 236.701 297.56C237.45 297.617 238.26 297.655 239.129 297.693C243.677 297.874 249.943 297.826 257.468 296.848" stroke="#262626" stroke-linecap="round" stroke-linejoin="round"/>
<path d="M236.69 297.73C236.341 297.892 235.101 298.499 234.572 299.809C234.012 301.157 234.572 302.372 234.722 302.705C235.041 303.398 235.911 304.679 239.898 305.923C240.508 306.113 241.187 306.302 241.947 306.483C244.565 307.109 248.423 307.764 253.29 307.641" stroke="#262626" stroke-linecap="round" stroke-linejoin="round"/>
<path d="M239.898 305.922C239.538 306.036 238.858 306.311 238.418 306.928C237.849 307.754 238.039 308.675 238.109 308.979C238.618 311.361 243.125 312.823 248.812 314.617C251.76 315.548 252.839 315.718 253.469 315.737C253.609 315.737 253.729 315.737 253.769 315.737C254.718 315.737 255.937 315.576 257.356 315.025C257.756 314.893 258.166 314.712 258.586 314.494" stroke="#262626" stroke-linecap="round" stroke-linejoin="round"/>
<path d="M276.226 293.572C276.345 294.18 276.515 295.423 275.956 296.8C274.866 299.458 272.028 300.274 271.648 300.379" stroke="#262626" stroke-linecap="round" stroke-linejoin="round"/>
<path d="M282.18 308.371C282.54 308.96 283.03 309.823 283.44 310.915C285.708 316.943 284.419 326.35 278.623 330.337C277.873 330.85 277.064 331.268 276.164 331.581C274.775 332.065 273.296 332.255 271.827 332.198C268.499 332.074 265.171 330.689 262.733 328.581C258.695 325.097 257.086 319.648 258.585 314.503" stroke="#262626" stroke-linecap="round" stroke-linejoin="round"/>
<path d="M271.828 332.066C273.887 329.75 276.025 326.854 277.844 323.314C280.513 318.112 281.732 312.967 282.172 308.372C282.761 302.373 282.002 297.313 281.382 294.294V294.275" stroke="#262626" stroke-linecap="round" stroke-linejoin="round"/>
<path d="M263.104 271.892L266.802 231.871C266.982 229.858 265.263 228.111 263.004 228.036L200.034 225.881L190.66 225.558L185.113 225.368C182.975 225.292 181.156 226.763 181.016 228.672L180.326 237.804L179.007 255.47L178.398 263.576L177.378 277.151L174.63 313.698C174.48 315.72 176.239 317.438 178.498 317.476L191.469 317.723L203.862 317.951L253.51 318.881C255.669 318.929 257.468 317.41 257.548 315.473" stroke="#262626" stroke-linecap="round" stroke-linejoin="round"/>
<path d="M234.332 230.788L187.861 229.098C186.542 229.041 185.413 229.934 185.333 231.111L180.596 296.848" stroke="#262626" stroke-linecap="round" stroke-linejoin="round"/>
<path d="M179.176 313.203L178.966 315.102C178.926 315.443 179.226 315.747 179.616 315.757L237.29 317.01" stroke="#262626" stroke-linecap="round" stroke-linejoin="round"/>
<path d="M256.467 231.566L262.773 231.842C263.712 231.88 264.442 232.611 264.382 233.455L262.499 253" stroke="white" stroke-linecap="round" stroke-linejoin="round"/>
<path d="M247.964 268.465C247.944 268.949 247.824 269.879 247.234 270.857C246.785 271.588 246.235 272.072 245.865 272.347" stroke="#262626" stroke-linecap="round" stroke-linejoin="round"/>
<path d="M139.271 161.957C138.331 161.634 137.402 161.311 136.473 160.988" stroke="#262626" stroke-linecap="round" stroke-linejoin="round"/>
<path d="M146.258 163.711C147.807 163.815 149.356 163.929 150.905 164.043" stroke="#262626" stroke-linecap="round" stroke-linejoin="round"/>
<path d="M177.488 217.535C179.457 218.067 181.496 218.665 183.584 219.339C184.394 219.605 185.223 219.88 186.053 220.165C191.23 221.94 195.897 223.905 200.034 225.879" stroke="#262626" stroke-linecap="round" stroke-linejoin="round"/>
<path d="M173.43 225.348C173.43 225.348 173.48 225.414 173.5 225.452C174.389 226.696 175.279 228.044 176.148 229.496C177.917 232.429 179.276 235.239 180.325 237.802" stroke="#262626" stroke-linecap="round" stroke-linejoin="round"/>
<path d="M183.504 219.566C185.892 221.56 188.271 223.563 190.659 225.556" stroke="#262626" stroke-linecap="round" stroke-linejoin="round"/>
<path d="M116.436 256.276C123.181 255.317 130.667 254.539 138.811 254.131C142.439 253.95 146.197 253.846 150.074 253.836C154.222 253.817 158.219 253.912 162.067 254.102C168.103 254.377 173.759 254.862 178.996 255.469" stroke="#262626" stroke-linecap="round" stroke-linejoin="round"/>
<path d="M178.398 263.576C171.742 262.93 164.567 262.484 156.931 262.351C147.527 262.18 138.793 262.493 130.838 263.101C132.317 265.208 133.826 267.544 135.315 270.107C136.734 272.556 137.953 274.9 139.003 277.122C142.71 276.771 146.578 276.514 150.605 276.372C160.319 276.021 169.294 276.381 177.379 277.15" stroke="#262626" stroke-linecap="round" stroke-linejoin="round"/>
<path d="M130.837 263.102C131.397 269.395 131.767 275.993 131.887 282.875C132.207 300.883 130.748 317.277 128.459 331.696C136.774 333.149 147.557 334.278 160.089 333.699C171.582 333.177 181.416 331.364 189.131 329.408C189.91 325.507 190.69 321.615 191.469 317.723" stroke="#262626" stroke-linecap="round" stroke-linejoin="round"/>
<path d="M88.5232 322.61C87.8536 323.512 86.8542 325.078 86.2946 327.195C86.2946 327.195 84.8555 332.587 88.4032 339.203C93.6299 348.99 124.77 362.404 159.298 355.73C168.792 353.898 180.565 351.468 190.659 341.71C193.307 339.147 195.446 336.47 197.165 333.84C201.272 327.575 203.041 321.556 203.86 317.949" stroke="#262626" stroke-linecap="round" stroke-linejoin="round"/>
<path d="M197.494 334.03C202.961 337.6 210.846 341.672 220.969 343.713C249.931 349.57 273.526 334.087 278.733 330.47C278.773 330.442 278.803 330.423 278.843 330.395" stroke="#262626" stroke-linecap="round" stroke-linejoin="round"/>
<path d="M255.368 329.692C254.579 328.809 253.619 327.518 252.87 325.81C251.59 322.924 251.57 320.313 251.68 318.852" stroke="#262626" stroke-linecap="round" stroke-linejoin="round"/>
<path d="M30.4102 140.046C31.4695 139.486 32.5488 138.793 33.5782 137.92C39.6143 132.812 40.134 125.123 40.174 122.484" stroke="#262626" stroke-linecap="round" stroke-linejoin="round"/>
<path d="M9.98371 143.426C9.06429 142.904 7.87504 142.097 6.69579 140.929C5.43658 139.686 4.62709 138.442 4.10742 137.512" stroke="#262626" stroke-linecap="round" stroke-linejoin="round"/>
<path d="M113.777 198.37C115.596 197.212 117.415 196.045 119.234 194.877C121.403 198.722 124.111 202.936 127.539 207.274C134.214 215.733 141.37 221.874 147.306 226.175C138.672 220.118 130.637 217.204 125.42 217.527C123.521 217.641 121.992 218.182 120.953 219.159C120.123 219.938 118.844 221.694 119.234 225.795L113.777 198.37Z" stroke="#262626" stroke-linecap="round" stroke-linejoin="round"/>
<path d="M147.307 226.174C149.245 228.613 151.204 231.366 153.103 234.433C157.51 241.562 160.278 248.349 162.067 254.073" stroke="#262626" stroke-linecap="round" stroke-linejoin="round"/>
<path d="M147.307 226.174C148.706 226.354 151.634 226.61 155.152 225.804C155.981 225.623 156.831 225.376 157.71 225.063C158.23 224.873 158.759 224.664 159.299 224.418C163.416 222.548 166.035 219.776 167.574 217.64C168.393 216.51 168.903 215.561 169.183 215.029" stroke="#262626" stroke-linecap="round" stroke-linejoin="round"/>
<path d="M155.152 225.804C155.842 225.566 156.701 225.31 157.711 225.063C160.149 224.465 163.457 223.981 167.335 224.294C169.653 224.475 171.722 224.911 173.501 225.452C175.999 226.183 177.928 227.114 179.197 227.797C179.197 225.604 178.937 221.874 177.268 217.611C176.989 216.89 176.669 216.15 176.299 215.409C173.97 210.682 170.832 207.606 168.844 205.935C168.814 205.907 168.784 205.888 168.754 205.859" stroke="#262626" stroke-linecap="round" stroke-linejoin="round"/>
<path d="M61.7012 164.271C62.9604 164.851 67.9372 167.281 70.6455 172.701C70.8654 173.147 71.0752 173.612 71.2651 174.096C72.8241 178.102 72.3944 181.653 72.0546 183.361" stroke="#262626" stroke-linecap="round" stroke-linejoin="round"/>
<path d="M50.4786 145.941C52.2175 146.302 53.017 147.052 53.3967 147.508C54.1862 148.485 54.4361 149.881 54.1662 151.495C53.7965 153.687 52.4273 156.279 50.0488 158.7" stroke="#262626" stroke-linecap="round" stroke-linejoin="round"/>
<path d="M20.2363 168.781C21.7254 169.389 24.2738 170.215 27.5517 170.281C30.8396 170.348 33.438 169.607 34.957 169.057" stroke="#262626" stroke-linecap="round" stroke-linejoin="round"/>
<path d="M82.127 297.502C82.1469 295.413 82.1669 293.334 82.1869 291.246" stroke="#262626" stroke-linecap="round" stroke-linejoin="round"/>
<path d="M147 78C151.222 78.4555 157.804 79.7013 164.439 83.5224C179.54 92.215 182.492 107.09 183 110" stroke="white" stroke-linecap="round" stroke-linejoin="round"/>
<path d="M146 132L151 132" stroke="white" stroke-linecap="round" stroke-linejoin="round"/>
<path d="M157.422 132L167.5 132" stroke="white" stroke-linecap="round" stroke-linejoin="round"/>
</g>
<defs>
<clipPath id="clip0_4285_17643">
<rect width="285" height="358" fill="white"/>
</clipPath>
</defs>
</svg>
