<svg width="139" height="16" viewBox="0 0 139 16" fill="none" xmlns="http://www.w3.org/2000/svg">
<path d="M126.89 13.0106C127.068 13.0594 127.242 13.0919 127.41 13.1081C127.578 13.119 127.819 13.1244 128.133 13.1244C128.507 13.1244 128.835 13.0431 129.117 12.8806C129.399 12.7181 129.727 12.4012 130.1 11.9299L129.914 12.3524L124.256 3.92578H127.751L131.23 9.32142C131.36 9.52186 131.45 9.67084 131.499 9.76835C131.553 9.86044 131.623 9.98233 131.71 10.134H131.759C131.835 9.98233 131.9 9.85773 131.954 9.76022C132.013 9.65729 132.103 9.50832 132.222 9.31329L135.482 3.92578H138.75L133.328 12.4012C132.607 13.5009 131.897 14.3731 131.198 15.0177C130.504 15.6624 129.542 15.9847 128.312 15.9847C127.976 15.9847 127.692 15.963 127.459 15.9197C127.231 15.8818 127.041 15.833 126.89 15.7734V13.0106Z" fill="white"/>
<path d="M111.836 15.7572V3.92578H119.623C121.135 3.92578 122.262 4.30499 123.005 5.06342C123.747 5.81642 124.119 6.88634 124.119 8.27317C124.119 9.57332 123.753 10.6189 123.021 11.4098C122.295 12.2007 121.141 12.5962 119.558 12.5962H115.096V15.7572H111.836ZM115.096 10.4184H118.737C119.518 10.4184 120.068 10.2342 120.387 9.86586C120.707 9.49748 120.867 8.98555 120.867 8.33005C120.867 7.65831 120.707 7.14908 120.387 6.80237C120.068 6.45025 119.518 6.27418 118.737 6.27418H115.096V10.4184Z" fill="white"/>
<path d="M105.998 14.2287C105.998 13.7682 106.15 13.3836 106.453 13.0748C106.762 12.7606 107.207 12.6035 107.786 12.6035C108.372 12.6035 108.816 12.7606 109.12 13.0748C109.428 13.3836 109.583 13.7709 109.583 14.2368C109.583 14.6973 109.428 15.0846 109.12 15.3988C108.811 15.7076 108.369 15.862 107.795 15.862C107.209 15.862 106.762 15.7022 106.453 15.3826C106.15 15.063 105.998 14.6783 105.998 14.2287Z" fill="#262626"/>
<path d="M103.756 15.7562H100.505V8.61352C100.505 8.44016 100.508 8.31015 100.513 8.22347C100.519 8.1368 100.521 8.05012 100.521 7.96344H100.481C100.443 8.0447 100.391 8.13138 100.326 8.22347C100.267 8.31557 100.172 8.43204 100.042 8.57289L94.8067 15.7562H91.0918V3.92484H94.3433V10.8969C94.3433 11.0378 94.3433 11.1515 94.3433 11.2382C94.3433 11.3249 94.3433 11.4359 94.3433 11.5714H94.384C94.4273 11.4684 94.4761 11.3872 94.5303 11.3276C94.5845 11.268 94.6739 11.1624 94.7985 11.0107L100.033 3.92484H103.756V15.7562ZM97.416 1.30828C97.8008 1.30828 98.1395 1.19993 98.4321 0.983241C98.7247 0.761132 98.9469 0.433385 99.0987 0L101.025 0.715085C100.695 1.59811 100.22 2.23464 99.6027 2.62469C98.9849 3.01473 98.256 3.20975 97.416 3.20975C96.5706 3.20975 95.839 3.01473 95.2212 2.62469C94.6034 2.23464 94.1293 1.59811 93.7987 0.715085L95.7333 0C95.8797 0.427967 96.0991 0.753006 96.3918 0.975115C96.6844 1.19722 97.0258 1.30828 97.416 1.30828Z" fill="#262626"/>
<path d="M73.5977 9.83299V9.70298C73.5977 7.72024 74.3455 6.22236 75.8412 5.20932C77.3423 4.19087 79.1984 3.68164 81.4094 3.68164C83.6151 3.68164 85.4711 4.19087 86.9777 5.20932C88.4896 6.22236 89.2456 7.72024 89.2456 9.70298V9.83299C89.2456 11.8862 88.4896 13.4274 86.9777 14.4567C85.4711 15.486 83.6151 16.0006 81.4094 16.0006C79.2038 16.0006 77.3505 15.486 75.8493 14.4567C74.3482 13.4274 73.5977 11.8862 73.5977 9.83299ZM77.0036 9.88987C77.0036 11.1792 77.4101 12.1489 78.2229 12.799C79.0412 13.449 80.1088 13.7822 81.4257 13.7985C82.7317 13.8147 83.7939 13.4897 84.6122 12.8233C85.4305 12.157 85.8396 11.1846 85.8396 9.90613V9.68673C85.8396 8.457 85.4332 7.53335 84.6203 6.91577C83.8074 6.29278 82.7426 5.97587 81.4257 5.96504C80.098 5.94878 79.0277 6.25757 78.2148 6.8914C77.4074 7.52522 77.0036 8.45429 77.0036 9.6786V9.88987Z" fill="#262626"/>
<path d="M60.5762 15.7572V3.92578H68.3636C69.8755 3.92578 71.0027 4.30499 71.7452 5.06342C72.4876 5.81642 72.8588 6.88634 72.8588 8.27317C72.8588 9.57332 72.493 10.6189 71.7614 11.4098C71.0352 12.2007 69.8809 12.5962 68.2985 12.5962H63.8358V15.7572H60.5762ZM63.8358 10.4184H67.4775C68.2579 10.4184 68.8079 10.2342 69.1277 9.86586C69.4474 9.49748 69.6073 8.98555 69.6073 8.33005C69.6073 7.65831 69.4474 7.14908 69.1277 6.80237C68.8079 6.45025 68.2579 6.27418 67.4775 6.27418H63.8358V10.4184Z" fill="#262626"/>
<path d="M46.1641 6.48546V3.92578H58.9994V6.48546H54.236V15.7572H50.9275V6.48546H46.1641Z" fill="#262626"/>
<path d="M30.7109 9.92238V9.73548C30.7109 7.72566 31.4263 6.21423 32.8569 5.2012C34.2876 4.18816 36.1545 3.68164 38.4577 3.68164C40.7392 3.68164 42.4625 4.06085 43.6276 4.81928C44.7982 5.5777 45.4918 6.72888 45.7086 8.27281L45.7492 8.60597H42.4896L42.4489 8.33782C42.2972 7.56314 41.9206 6.96724 41.319 6.5501C40.7175 6.13297 39.7908 5.92441 38.539 5.92441C37.1679 5.92441 36.1003 6.24674 35.3362 6.8914C34.5775 7.53064 34.1982 8.46783 34.1982 9.70298V9.93863C34.1982 11.2009 34.5857 12.1597 35.3606 12.8152C36.141 13.4707 37.1977 13.7985 38.5308 13.7985C39.8044 13.7985 40.7446 13.6007 41.3515 13.2053C41.9585 12.8098 42.3297 12.2139 42.4652 11.4176L42.5058 11.125H45.7492L45.7167 11.4744C45.5433 12.9804 44.8822 14.1127 43.7333 14.8711C42.5898 15.6241 40.8394 16.0006 38.4821 16.0006C36.0976 16.0006 34.2063 15.4832 32.8082 14.4485C31.41 13.4138 30.7109 11.9051 30.7109 9.92238Z" fill="#262626"/>
<path d="M14.209 9.83299V9.70298C14.209 7.72024 14.9568 6.22236 16.4525 5.20932C17.9537 4.19087 19.8097 3.68164 22.0208 3.68164C24.2264 3.68164 26.0825 4.19087 27.589 5.20932C29.101 6.22236 29.8569 7.72024 29.8569 9.70298V9.83299C29.8569 11.8862 29.101 13.4274 27.589 14.4567C26.0825 15.486 24.2264 16.0006 22.0208 16.0006C19.8152 16.0006 17.9618 15.486 16.4607 14.4567C14.9595 13.4274 14.209 11.8862 14.209 9.83299ZM17.615 9.88987C17.615 11.1792 18.0214 12.1489 18.8343 12.799C19.6526 13.449 20.7202 13.7822 22.037 13.7985C23.3431 13.8147 24.4052 13.4897 25.2235 12.8233C26.0418 12.157 26.451 11.1846 26.451 9.90613V9.68673C26.451 8.457 26.0445 7.53335 25.2316 6.91577C24.4188 6.29278 23.3539 5.97587 22.037 5.96504C20.7093 5.94878 19.639 6.25757 18.8261 6.8914C18.0187 7.52522 17.615 8.45429 17.615 9.6786V9.88987Z" fill="#262626"/>
<path d="M0 15.7572V3.92578H12.3639V15.7572H9.10426V6.50171H3.25965V15.7572H0Z" fill="#262626"/>
</svg>
