<svg width="21" height="20" viewBox="0 0 21 20" fill="none" xmlns="http://www.w3.org/2000/svg">
<path d="M13.832 11.667C13.832 12.3573 14.3917 12.917 15.082 12.917C15.7724 12.917 16.332 12.3573 16.332 11.667C16.332 10.9767 15.7724 10.417 15.082 10.417C14.3917 10.417 13.832 10.9767 13.832 11.667Z" stroke="#8E8E93" stroke-width="1.5"/>
<path d="M8.83464 5.83333H13.8346C16.1916 5.83333 17.3701 5.83333 18.1024 6.56557C18.8346 7.2978 18.8346 8.47633 18.8346 10.8333V12.5C18.8346 14.857 18.8346 16.0355 18.1024 16.7677C17.3701 17.5 16.1916 17.5 13.8346 17.5H8.83464C5.69194 17.5 4.12059 17.5 3.14428 16.5237C2.16797 15.5474 2.16797 13.976 2.16797 10.8333V9.16667C2.16797 6.02397 2.16797 4.45262 3.14428 3.47631C4.12059 2.5 5.69194 2.5 8.83464 2.5H12.168C12.943 2.5 13.3305 2.5 13.6484 2.58518C14.5111 2.81635 15.185 3.49022 15.4161 4.35295C15.5013 4.67087 15.5013 5.05836 15.5013 5.83333" stroke="#8E8E93" stroke-width="1.5" stroke-linecap="round"/>
</svg>
