<svg width="239" height="176" viewBox="0 0 239 176" fill="none" xmlns="http://www.w3.org/2000/svg">
<g clip-path="url(#clip0_8626_23872)">
<path d="M42.2597 122.271H26.8789V330.699H42.2597V122.271Z" fill="#FF8B63" stroke="#231F20" stroke-miterlimit="10"/>
<path d="M1.04297 122.271H16.4238H42.2549H26.8801H1.04297Z" fill="white" stroke="#231F20" stroke-miterlimit="10"/>
<path d="M26.8801 122.271H1.04297V330.699H26.8801V122.271Z" fill="white" stroke="#231F20" stroke-miterlimit="10"/>
<path d="M81.4941 38.3301H66.1133V283.955H81.4941V38.3301Z" fill="#FF8B63" stroke="#231F20" stroke-miterlimit="10"/>
<path d="M40.2812 38.3301H55.6621H81.4932H66.1124H40.2812Z" fill="white" stroke="#231F20" stroke-miterlimit="10"/>
<path d="M66.1124 38.3301H40.2812V283.955H66.1124V38.3301Z" fill="white" stroke="#231F20" stroke-miterlimit="10"/>
<path d="M120.732 125.363H105.352V339.426H120.732V125.363Z" fill="#FF8B63" stroke="#231F20" stroke-miterlimit="10"/>
<path d="M79.5156 125.363H94.8965H120.734H105.353H79.5156Z" fill="white" stroke="#231F20" stroke-miterlimit="10"/>
<path d="M105.353 125.363H79.5156V339.426H105.353V125.363Z" fill="white" stroke="#231F20" stroke-miterlimit="10"/>
<path d="M159.971 78.3477H144.59V305.933H159.971V78.3477Z" fill="#FF8B63" stroke="#231F20" stroke-miterlimit="10"/>
<path d="M118.758 78.3477H134.139H159.97H144.589H118.758Z" fill="white" stroke="#231F20" stroke-miterlimit="10"/>
<path d="M144.589 78.3477H118.758V305.933H144.589V78.3477Z" fill="white" stroke="#231F20" stroke-miterlimit="10"/>
<path d="M199.209 126.705H183.828V390.364H199.209V126.705Z" fill="#FF8B63" stroke="#231F20" stroke-miterlimit="10"/>
<path d="M157.996 126.705H173.371H199.208H183.827H157.996Z" fill="white" stroke="#231F20" stroke-miterlimit="10"/>
<path d="M183.833 126.705H157.996V390.364H183.833V126.705Z" fill="white" stroke="#231F20" stroke-miterlimit="10"/>
</g>
<defs>
<clipPath id="clip0_8626_23872">
<rect width="238" height="331" fill="white" transform="translate(0.742188)"/>
</clipPath>
</defs>
</svg>
