<svg width="203" height="172" viewBox="0 0 203 172" fill="none" xmlns="http://www.w3.org/2000/svg">
<path d="M291.914 75.0531C291.784 74.6301 291.548 74.2 291.215 73.7856C290.883 73.3726 290.461 72.9822 289.965 72.6441C289.47 72.3061 288.905 72.0221 288.289 71.8144L125.064 17.0159C125.064 17.0159 125.064 17.0159 125.064 17.0158C124.579 16.8537 124.061 16.7619 123.54 16.7403C123.016 16.7186 122.494 16.7639 122.003 16.8716L122.002 16.8718C121.508 16.9794 121.048 17.1483 120.651 17.3675C120.253 17.5868 119.923 17.8538 119.681 18.1548L119.681 18.1549L98.8485 44.078C98.8484 44.078 98.8484 44.0781 98.8484 44.0781C98.5543 44.4444 98.3852 44.8146 98.3148 45.1701C98.2464 45.5257 98.2755 45.8753 98.3944 46.2077C98.5154 46.5407 98.732 46.8642 99.0491 47.1521L99.0496 47.1525C99.3694 47.4437 99.7884 47.6985 100.31 47.8881L278.712 112.809C279.393 113.057 280.063 113.181 280.686 113.198L280.686 113.198C281.312 113.214 281.887 113.124 282.388 112.943L291.914 75.0531ZM291.914 75.0531L291.914 75.0535C292.044 75.4769 292.069 75.8885 291.984 76.2674L291.984 76.2681L284.273 110.931L284.273 110.932C284.167 111.413 283.942 111.823 283.626 112.156L283.625 112.157C283.307 112.494 282.888 112.762 282.389 112.943L291.914 75.0531Z" fill="#7099ED" stroke="#231F20"/>
<mask id="path-2-inside-1_8626_23906" fill="white">
<path d="M157.286 32.017L125.148 21.1256C125.053 21.094 124.952 21.0755 124.849 21.0713C124.747 21.0671 124.646 21.0757 124.551 21.0977C124.455 21.1197 124.364 21.1529 124.285 21.1968C124.206 21.2407 124.137 21.2969 124.086 21.3631L106.179 44.319C106.121 44.3939 106.086 44.4716 106.072 44.5514C106.058 44.6312 106.068 44.7075 106.096 44.7814C106.125 44.8553 106.173 44.9229 106.239 44.9818C106.306 45.0407 106.391 45.0909 106.493 45.1281L140.626 57.4168C140.732 57.4547 140.844 57.4752 140.957 57.4794C141.069 57.4836 141.179 57.4708 141.282 57.444C141.384 57.4172 141.482 57.3749 141.567 57.3199C141.653 57.2649 141.722 57.1964 141.773 57.1179L157.684 32.7648C157.729 32.6954 157.752 32.6235 157.754 32.5497C157.757 32.4758 157.738 32.4059 157.702 32.3387C157.666 32.2715 157.613 32.2091 157.541 32.1533C157.47 32.0976 157.386 32.0518 157.285 32.019"/>
</mask>
<path d="M157.286 32.017L125.148 21.1256C125.053 21.094 124.952 21.0755 124.849 21.0713C124.747 21.0671 124.646 21.0757 124.551 21.0977C124.455 21.1197 124.364 21.1529 124.285 21.1968C124.206 21.2407 124.137 21.2969 124.086 21.3631L106.179 44.319C106.121 44.3939 106.086 44.4716 106.072 44.5514C106.058 44.6312 106.068 44.7075 106.096 44.7814C106.125 44.8553 106.173 44.9229 106.239 44.9818C106.306 45.0407 106.391 45.0909 106.493 45.1281L140.626 57.4168C140.732 57.4547 140.844 57.4752 140.957 57.4794C141.069 57.4836 141.179 57.4708 141.282 57.444C141.384 57.4172 141.482 57.3749 141.567 57.3199C141.653 57.2649 141.722 57.1964 141.773 57.1179L157.684 32.7648C157.729 32.6954 157.752 32.6235 157.754 32.5497C157.757 32.4758 157.738 32.4059 157.702 32.3387C157.666 32.2715 157.613 32.2091 157.541 32.1533C157.47 32.0976 157.386 32.0518 157.285 32.019" fill="#7099ED"/>
<path d="M125.148 21.1256L125.469 20.1785L125.464 20.1768L125.148 21.1256ZM124.086 21.3631L124.874 21.9782L124.881 21.9702L124.086 21.3631ZM106.179 44.319L106.967 44.9346L106.968 44.934L106.179 44.319ZM106.493 45.1281L106.151 46.0677L106.154 46.069L106.493 45.1281ZM140.626 57.4168L140.288 58.3576L140.289 58.3582L140.626 57.4168ZM141.773 57.1179L140.936 56.5709L140.935 56.5731L141.773 57.1179ZM157.684 32.7648L158.521 33.3117L158.523 33.309L157.684 32.7648ZM157.607 31.0699L125.469 20.1785L124.827 22.0727L156.965 32.9641L157.607 31.0699ZM125.464 20.1768C125.279 20.115 125.084 20.0801 124.89 20.0722L124.808 22.0705C124.819 22.0709 124.828 22.073 124.832 22.0744L125.464 20.1768ZM124.89 20.0722C124.707 20.0647 124.516 20.0794 124.326 20.1234L124.776 22.072C124.776 22.072 124.779 22.0714 124.784 22.0709C124.79 22.0704 124.798 22.0701 124.808 22.0705L124.89 20.0722ZM124.326 20.1234C124.156 20.1625 123.974 20.2255 123.8 20.3224L124.77 22.0712C124.761 22.0764 124.757 22.0777 124.759 22.0768C124.761 22.0761 124.767 22.0741 124.776 22.072L124.326 20.1234ZM123.8 20.3224C123.625 20.4195 123.441 20.5601 123.291 20.7561L124.881 21.9702C124.832 22.0338 124.787 22.0619 124.77 22.0712L123.8 20.3224ZM123.297 20.7481L105.391 43.7039L106.968 44.934L124.874 21.9782L123.297 20.7481ZM105.391 43.7033C105.239 43.898 105.132 44.1256 105.088 44.3777L107.057 44.7251C107.041 44.8177 107.002 44.8898 106.967 44.9346L105.391 43.7033ZM105.088 44.3777C105.039 44.6516 105.075 44.9118 105.163 45.1404L107.029 44.4224C107.06 44.5031 107.077 44.6108 107.057 44.7251L105.088 44.3777ZM105.163 45.1404C105.255 45.3813 105.405 45.5784 105.577 45.7308L106.902 44.2329C106.941 44.2674 106.994 44.3293 107.029 44.4224L105.163 45.1404ZM105.577 45.7308C105.748 45.882 105.945 45.9927 106.151 46.0677L106.835 44.1885C106.837 44.1892 106.864 44.1994 106.902 44.2329L105.577 45.7308ZM106.154 46.069L140.288 58.3576L140.965 56.4759L106.832 44.1872L106.154 46.069ZM140.289 58.3582C140.497 58.4327 140.71 58.4709 140.919 58.4787L140.994 56.4801C140.977 56.4795 140.967 56.4767 140.964 56.4753L140.289 58.3582ZM140.919 58.4787C141.132 58.4867 141.339 58.4625 141.535 58.4115L141.029 56.4765C141.019 56.479 141.007 56.4806 140.994 56.4801L140.919 58.4787ZM141.535 58.4115C141.734 58.3593 141.93 58.2757 142.108 58.1609L141.026 56.479C141.028 56.4775 141.03 56.4766 141.031 56.4761C141.031 56.4759 141.032 56.4757 141.032 56.4756C141.032 56.4755 141.032 56.4754 141.032 56.4754C141.032 56.4754 141.032 56.4754 141.032 56.4755C141.032 56.4756 141.032 56.4757 141.031 56.4758C141.031 56.476 141.03 56.4762 141.029 56.4765L141.535 58.4115ZM142.108 58.1609C142.304 58.0347 142.479 57.8679 142.612 57.6626L140.935 56.5731C140.966 56.5248 141.001 56.4951 141.026 56.479L142.108 58.1609ZM142.61 57.6648L158.521 33.3117L156.847 32.2178L140.936 56.5709L142.61 57.6648ZM158.523 33.309C158.66 33.098 158.745 32.8515 158.754 32.5841L156.755 32.5153C156.759 32.3956 156.798 32.2928 156.845 32.2205L158.523 33.309ZM158.754 32.5841C158.763 32.3076 158.689 32.0642 158.584 31.8665L156.821 32.8109C156.787 32.7476 156.751 32.6441 156.755 32.5153L158.754 32.5841ZM158.584 31.8665C158.474 31.6614 158.323 31.4953 158.157 31.3653L156.926 32.9414C156.902 32.9229 156.858 32.8817 156.821 32.8109L158.584 31.8665ZM158.157 31.3653C157.993 31.2371 157.805 31.1365 157.595 31.068L156.976 32.9699C156.973 32.969 156.966 32.9662 156.956 32.9608C156.945 32.9554 156.935 32.9487 156.926 32.9414L158.157 31.3653Z" fill="#231F20" mask="url(#path-2-inside-1_8626_23906)"/>
<path d="M200.875 50.2818L163.291 37.4448L164.777 35.085L202.135 47.7458L200.875 50.2818Z" fill="#7099ED" stroke="#231F20"/>
<path d="M159.888 42.849L161.439 40.3858L179.649 46.6357L178.213 49.1872L159.888 42.849Z" fill="#7099ED" stroke="#231F20"/>
<path d="M186.966 73.5695L149.125 59.9455L150.165 58.2936L187.861 71.7871L186.966 73.5695Z" fill="#7099ED" stroke="#231F20"/>
<path d="M224.154 82.3006L151.398 56.3259L152.406 54.7239L224.885 80.4527L224.154 82.3006Z" fill="#7099ED" stroke="#231F20"/>
<path d="M241.126 83.7531L153.642 52.7753L158.365 45.2721L244.166 75.0633L241.126 83.7531Z" fill="#7099ED" stroke="#231F20"/>
<path d="M265.533 193.322L265.494 193.114C265.349 192.336 265.057 191.564 264.643 190.845L265.533 193.322ZM265.533 193.322C265.642 194.035 265.628 194.75 265.475 195.435L251.757 257.098C251.539 258.078 251.15 258.921 250.637 259.607C250.122 260.295 249.482 260.83 248.761 261.194C248.039 261.557 247.232 261.751 246.38 261.749C245.525 261.747 244.624 261.551 243.72 261.128L243.719 261.128L15.9838 154.927L265.533 193.322ZM261.108 187.08L260.917 187.542L57.1429 103.117C56.561 102.876 55.9166 102.748 55.2453 102.729C54.574 102.71 53.8795 102.8 53.1996 102.99C52.5208 103.18 51.8647 103.469 51.2672 103.846C50.6699 104.223 50.1369 104.686 49.708 105.221L49.7075 105.222L15.2572 148.092L15.2572 148.092C14.7172 148.764 14.3406 149.459 14.1184 150.137L14.1181 150.138C13.8932 150.819 13.8231 151.482 13.8935 152.092L13.8936 152.093C13.9635 152.704 14.1745 153.264 14.5185 153.742L14.5185 153.742C14.8638 154.222 15.3483 154.629 15.9832 154.926L261.108 187.08ZM261.108 187.08L260.917 187.542C261.71 187.87 262.434 188.336 263.064 188.901C263.694 189.465 264.229 190.127 264.643 190.844L261.108 187.08Z" fill="#7099ED" stroke="#231F20"/>
<mask id="path-10-inside-2_8626_23906" fill="white">
<path d="M95.3329 126.446L56.0823 109.962C55.966 109.914 55.839 109.888 55.7072 109.886C55.5754 109.885 55.4419 109.901 55.3104 109.938C55.1789 109.976 55.0537 110.033 54.9395 110.107C54.8254 110.181 54.7224 110.272 54.6388 110.379L24.9587 148.425C24.8607 148.552 24.7906 148.685 24.7518 148.815C24.713 148.946 24.6992 149.075 24.718 149.197C24.7368 149.318 24.7802 149.43 24.8519 149.525C24.9235 149.62 25.0226 149.702 25.1476 149.759L67.338 169.122C67.4705 169.182 67.615 169.213 67.7631 169.216C67.9112 169.219 68.0609 169.194 68.2076 169.143C68.3542 169.092 68.4929 169.019 68.6198 168.923C68.7467 168.827 68.8573 168.708 68.947 168.572L95.6873 127.646C95.7622 127.531 95.8089 127.412 95.8263 127.296C95.8436 127.18 95.8383 127.063 95.8068 126.953C95.7752 126.844 95.7187 126.745 95.639 126.659C95.5594 126.573 95.4583 126.501 95.3345 126.449"/>
</mask>
<path d="M95.3329 126.446L56.0823 109.962C55.966 109.914 55.839 109.888 55.7072 109.886C55.5754 109.885 55.4419 109.901 55.3104 109.938C55.1789 109.976 55.0537 110.033 54.9395 110.107C54.8254 110.181 54.7224 110.272 54.6388 110.379L24.9587 148.425C24.8607 148.552 24.7906 148.685 24.7518 148.815C24.713 148.946 24.6992 149.075 24.718 149.197C24.7368 149.318 24.7802 149.43 24.8519 149.525C24.9235 149.62 25.0226 149.702 25.1476 149.759L67.338 169.122C67.4705 169.182 67.615 169.213 67.7631 169.216C67.9112 169.219 68.0609 169.194 68.2076 169.143C68.3542 169.092 68.4929 169.019 68.6198 168.923C68.7467 168.827 68.8573 168.708 68.947 168.572L95.6873 127.646C95.7622 127.531 95.8089 127.412 95.8263 127.296C95.8436 127.18 95.8383 127.063 95.8068 126.953C95.7752 126.844 95.7187 126.745 95.639 126.659C95.5594 126.573 95.4583 126.501 95.3345 126.449" fill="#7099ED"/>
<path d="M56.0823 109.962L56.4695 109.04L56.466 109.039L56.0823 109.962ZM54.6388 110.379L53.8507 109.763L53.8503 109.764L54.6388 110.379ZM24.9587 148.425L24.1702 147.81L24.1672 147.814L24.9587 148.425ZM25.1476 149.759L25.5647 148.85L25.5581 148.847L25.1476 149.759ZM67.338 169.122L66.9209 170.031L66.9264 170.033L67.338 169.122ZM68.947 168.572L69.7834 169.12L69.7841 169.119L68.947 168.572ZM95.6873 127.646L96.5245 128.193L96.5253 128.192L95.6873 127.646ZM95.7202 125.524L56.4695 109.04L55.695 110.884L94.9457 127.368L95.7202 125.524ZM56.466 109.039C56.227 108.94 55.974 108.89 55.7214 108.887L55.693 110.886C55.704 110.886 55.705 110.888 55.6986 110.886L56.466 109.039ZM55.7214 108.887C55.4968 108.883 55.2661 108.911 55.0366 108.977L55.5842 110.9C55.6177 110.891 55.6539 110.886 55.693 110.886L55.7214 108.887ZM55.0366 108.977C54.8077 109.042 54.5916 109.141 54.3954 109.268L55.4836 110.946C55.5157 110.925 55.55 110.91 55.5842 110.9L55.0366 108.977ZM54.3954 109.268C54.1998 109.395 54.0108 109.558 53.8507 109.763L55.4268 110.995C55.434 110.985 55.451 110.967 55.4836 110.946L54.3954 109.268ZM53.8503 109.764L24.1702 147.81L25.7472 149.04L55.4272 110.994L53.8503 109.764ZM24.1672 147.814C24.0064 148.022 23.8725 148.263 23.7932 148.53L25.7103 149.1C25.7086 149.106 25.715 149.082 25.7502 149.036L24.1672 147.814ZM23.7932 148.53C23.7225 148.768 23.6834 149.05 23.7297 149.35L25.7062 149.044C25.7107 149.073 25.7098 149.093 25.709 149.102C25.7081 149.111 25.7073 149.11 25.7103 149.1L23.7932 148.53ZM23.7297 149.35C23.77 149.61 23.8686 149.882 24.0534 150.127L25.6504 148.923C25.6918 148.978 25.7035 149.027 25.7062 149.044L23.7297 149.35ZM24.0534 150.127C24.2263 150.357 24.4588 150.545 24.7371 150.671L25.5581 148.847C25.5865 148.86 25.6208 148.884 25.6504 148.923L24.0534 150.127ZM24.7305 150.668L66.9209 170.031L67.7551 168.213L25.5647 148.85L24.7305 150.668ZM66.9264 170.033C67.1887 170.152 67.467 170.21 67.7421 170.216L67.784 168.217C67.763 168.216 67.7523 168.212 67.7497 168.211L66.9264 170.033ZM67.7421 170.216C68.0197 170.222 68.2874 170.174 68.5355 170.088L67.8796 168.198C67.8344 168.214 67.8027 168.217 67.784 168.217L67.7421 170.216ZM68.5355 170.088C68.7787 170.003 69.0112 169.881 69.2241 169.72L68.0156 168.126C67.9747 168.157 67.9297 168.181 67.8796 168.198L68.5355 170.088ZM69.2241 169.72C69.4422 169.554 69.6313 169.352 69.7834 169.12L68.1105 168.024C68.0834 168.065 68.0512 168.099 68.0156 168.126L69.2241 169.72ZM69.7841 169.119L96.5245 128.193L94.8502 127.099L68.1098 168.025L69.7841 169.119ZM96.5253 128.192C96.6673 127.974 96.774 127.721 96.8154 127.443L94.8372 127.149C94.8439 127.104 94.8571 127.088 94.8494 127.1L96.5253 128.192ZM96.8154 127.443C96.8513 127.202 96.8433 126.94 96.7678 126.677L94.8457 127.23C94.8332 127.186 94.8359 127.157 94.8372 127.149L96.8154 127.443ZM96.7678 126.677C96.6907 126.409 96.5529 126.175 96.3741 125.981L94.9039 127.337C94.8954 127.328 94.884 127.313 94.8728 127.294C94.8614 127.274 94.8521 127.252 94.8457 127.23L96.7678 126.677ZM96.3741 125.981C96.1943 125.786 95.9733 125.632 95.7211 125.527L94.9479 127.371C94.9467 127.371 94.9408 127.368 94.9319 127.362C94.923 127.356 94.9133 127.347 94.9039 127.337L96.3741 125.981Z" fill="#231F20" mask="url(#path-10-inside-2_8626_23906)"/>
<path d="M148.693 155.287L101.669 135.316L104.492 130.834L151.114 150.414L148.693 155.287Z" fill="#7099ED" stroke="#231F20"/>
<path d="M96.0015 144.315L98.9623 139.614L121.811 149.388L119.053 154.289L96.0015 144.315Z" fill="#7099ED" stroke="#231F20"/>
<path d="M125.69 195.348L77.7292 173.336L79.9158 169.864L127.596 191.558L125.69 195.348Z" fill="#7099ED" stroke="#231F20"/>
<path d="M174.085 209.024L81.6453 167.123L83.7619 163.762L175.651 205.059L174.085 209.024Z" fill="#7099ED" stroke="#231F20"/>
<path d="M196.659 210.857L85.4538 161.062L93.8194 147.776L202.228 194.936L196.659 210.857Z" fill="#7099ED" stroke="#231F20"/>
<path d="M297.948 141.262C297.806 140.697 297.543 140.13 297.173 139.597L297.172 139.596C296.804 139.062 296.331 138.564 295.774 138.135C295.218 137.706 294.584 137.348 293.889 137.092L293.889 137.092L112.504 70.0805C112.503 70.0805 112.503 70.0805 112.503 70.0805C111.973 69.8853 111.399 69.7795 110.813 69.7584L110.812 69.7584C110.225 69.7369 109.629 69.8003 109.056 69.9414C108.484 70.0829 107.939 70.3012 107.458 70.5838C106.977 70.8688 106.561 71.2162 106.243 71.6136L106.242 71.6138L79.8952 104.447L79.5053 104.134L79.8952 104.447C79.5013 104.938 79.25 105.441 79.1222 105.932C78.9947 106.421 78.9912 106.898 79.0979 107.342C79.2043 107.785 79.4247 108.203 79.7566 108.565L79.7568 108.566C80.091 108.931 80.5434 109.249 81.1169 109.483C81.1169 109.483 81.117 109.483 81.117 109.483L281.367 190.945L297.948 141.262ZM297.948 141.262C298.09 141.829 298.108 142.39 297.99 142.923L297.99 142.923L287.957 188.238C287.807 188.916 287.515 189.495 287.117 189.966L287.116 189.967C286.718 190.44 286.208 190.81 285.62 191.059L285.618 191.06M297.948 141.262L285.618 191.06M285.618 191.06C285.03 191.31 284.357 191.44 283.635 191.428M285.618 191.06L283.635 191.428M283.635 191.428C282.914 191.415 282.145 191.261 281.367 190.945L283.635 191.428Z" fill="#7099ED" stroke="#231F20"/>
<mask id="path-18-inside-3_8626_23906" fill="white">
<path d="M147.521 88.5341L112.145 75.3188C112.04 75.2789 111.926 75.258 111.811 75.2533C111.697 75.2487 111.58 75.2624 111.471 75.2899C111.363 75.3175 111.254 75.3617 111.161 75.4171C111.067 75.4725 110.984 75.5446 110.92 75.6267L88.2521 104.73C88.1769 104.826 88.1298 104.926 88.1058 105.024C88.0817 105.123 88.0823 105.222 88.1071 105.314C88.1319 105.406 88.1786 105.492 88.2503 105.566C88.322 105.64 88.4128 105.702 88.5235 105.747L126.308 120.923C126.426 120.969 126.551 120.995 126.679 120.998C126.806 121.001 126.934 120.983 127.055 120.948C127.175 120.912 127.29 120.857 127.391 120.784C127.493 120.712 127.581 120.624 127.647 120.522L147.906 89.459C147.963 89.3714 147.996 89.2789 148.004 89.1896C148.011 89.1003 147.999 89.0089 147.964 88.9254C147.929 88.842 147.873 88.7624 147.798 88.6956C147.723 88.6287 147.629 88.5705 147.52 88.5298"/>
</mask>
<path d="M147.521 88.5341L112.145 75.3188C112.04 75.2789 111.926 75.258 111.811 75.2533C111.697 75.2487 111.58 75.2624 111.471 75.2899C111.363 75.3175 111.254 75.3617 111.161 75.4171C111.067 75.4725 110.984 75.5446 110.92 75.6267L88.2521 104.73C88.1769 104.826 88.1298 104.926 88.1058 105.024C88.0817 105.123 88.0823 105.222 88.1071 105.314C88.1319 105.406 88.1786 105.492 88.2503 105.566C88.322 105.64 88.4128 105.702 88.5235 105.747L126.308 120.923C126.426 120.969 126.551 120.995 126.679 120.998C126.806 121.001 126.934 120.983 127.055 120.948C127.175 120.912 127.29 120.857 127.391 120.784C127.493 120.712 127.581 120.624 127.647 120.522L147.906 89.459C147.963 89.3714 147.996 89.2789 148.004 89.1896C148.011 89.1003 147.999 89.0089 147.964 88.9254C147.929 88.842 147.873 88.7624 147.798 88.6956C147.723 88.6287 147.629 88.5705 147.52 88.5298" fill="#7099ED"/>
<path d="M112.145 75.3188L111.791 76.2541L111.795 76.2556L112.145 75.3188ZM110.92 75.6267L110.132 75.011L110.131 75.0122L110.92 75.6267ZM88.2521 104.73L89.0402 105.345L89.0411 105.344L88.2521 104.73ZM88.5235 105.747L88.1461 106.673L88.1508 106.675L88.5235 105.747ZM126.308 120.923L125.935 121.851L125.941 121.853L126.308 120.923ZM127.647 120.522L126.809 119.976L126.807 119.979L127.647 120.522ZM147.906 89.459L148.743 90.0053L148.744 90.004L147.906 89.459ZM147.871 87.5974L112.495 74.382L111.795 76.2556L147.171 89.4709L147.871 87.5974ZM112.499 74.3835C112.28 74.3008 112.059 74.2625 111.852 74.2542L111.771 76.2525C111.781 76.253 111.788 76.254 111.792 76.2547C111.796 76.2554 111.795 76.2556 111.791 76.2541L112.499 74.3835ZM111.852 74.2542C111.633 74.2454 111.42 74.2713 111.226 74.3205L111.717 76.2594C111.74 76.2535 111.76 76.2521 111.771 76.2525L111.852 74.2542ZM111.226 74.3205C111.028 74.3707 110.831 74.4507 110.652 74.556L111.669 76.2783C111.678 76.2728 111.697 76.2643 111.717 76.2594L111.226 74.3205ZM110.652 74.556C110.455 74.6722 110.276 74.8261 110.132 75.011L111.708 76.2423C111.699 76.2535 111.692 76.2611 111.686 76.2661C111.68 76.2711 111.674 76.275 111.669 76.2783L110.652 74.556ZM110.131 75.0122L87.4632 104.115L89.0411 105.344L111.709 76.2411L110.131 75.0122ZM87.4641 104.114C87.3053 104.317 87.1934 104.545 87.1343 104.787L89.0772 105.262C89.0662 105.307 89.0485 105.335 89.0402 105.345L87.4641 104.114ZM87.1343 104.787C87.0727 105.04 87.0703 105.311 87.1418 105.575L89.0725 105.053C89.0943 105.134 89.0908 105.206 89.0772 105.262L87.1343 104.787ZM87.1418 105.575C87.2093 105.825 87.3382 106.061 87.5303 106.26L88.9704 104.872C89.019 104.923 89.0546 104.987 89.0725 105.053L87.1418 105.575ZM87.5303 106.26C87.7051 106.441 87.915 106.579 88.1461 106.673L88.9009 104.821C88.9107 104.825 88.939 104.839 88.9704 104.872L87.5303 106.26ZM88.1508 106.675L125.935 121.851L126.681 119.995L88.8962 104.819L88.1508 106.675ZM125.941 121.853C126.169 121.943 126.41 121.992 126.655 121.997L126.703 119.998C126.693 119.998 126.684 119.996 126.674 119.992L125.941 121.853ZM126.655 121.997C126.889 122.003 127.12 121.971 127.336 121.907L126.773 119.988C126.748 119.996 126.723 119.998 126.703 119.998L126.655 121.997ZM127.336 121.907C127.562 121.841 127.778 121.737 127.973 121.598L126.81 119.971C126.802 119.977 126.789 119.984 126.773 119.988L127.336 121.907ZM127.973 121.598C128.161 121.464 128.342 121.288 128.487 121.065L126.807 119.979C126.819 119.96 126.825 119.96 126.81 119.971L127.973 121.598ZM128.484 121.068L148.743 90.0053L147.068 88.9127L126.809 119.976L128.484 121.068ZM148.744 90.004C148.878 89.7978 148.976 89.55 149 89.2759L147.007 89.1033C147.016 89.0078 147.047 88.9449 147.067 88.9139L148.744 90.004ZM149 89.2759C149.021 89.0382 148.989 88.784 148.887 88.5409L147.041 89.3099C147.009 89.2338 147.002 89.1623 147.007 89.1033L149 89.2759ZM148.887 88.5409C148.793 88.3137 148.646 88.1113 148.462 87.9478L147.134 89.4433C147.1 89.4136 147.066 89.3702 147.041 89.3099L148.887 88.5409ZM148.462 87.9478C148.295 87.7995 148.095 87.6768 147.868 87.5925L147.171 89.467C147.163 89.4643 147.15 89.4578 147.134 89.4433L148.462 87.9478Z" fill="#231F20" mask="url(#path-18-inside-3_8626_23906)"/>
<path d="M222.308 121.225L153.744 95.3747L155.77 92.1485L223.834 117.575L222.308 121.225Z" fill="#7099ED" stroke="#231F20"/>
<path d="M149.43 102.241L151.549 98.8697L171.849 106.567L169.881 110.071L149.43 102.241Z" fill="#7099ED" stroke="#231F20"/>
<path d="M197.728 149.071L135.665 124.147L137.162 121.766L198.926 146.398L197.728 149.071Z" fill="#7099ED" stroke="#231F20"/>
<path d="M172.711 133.049L138.592 119.484L140.043 117.175L174.005 130.583L172.711 133.049Z" fill="#7099ED" stroke="#231F20"/>
<path d="M239.487 153.517L141.456 114.925L147.641 105.086L243.519 141.954L239.487 153.517Z" fill="#7099ED" stroke="#231F20"/>
</svg>
