<svg width="134" height="226" viewBox="0 0 134 226" fill="none" xmlns="http://www.w3.org/2000/svg">
<g clip-path="url(#clip0_8626_22728)">
<path d="M65.3151 172.89C65.2407 175.563 65.1664 178.238 65.0947 180.911C62.3756 180.385 58.8697 179.336 55.2588 177.138C54.144 176.46 53.1496 175.751 52.268 175.048C52.2039 173.403 52.2091 171.63 52.3193 169.746C52.3731 168.826 52.45 167.937 52.5422 167.084C52.7524 167.154 52.9651 167.226 53.1804 167.298C54.2003 167.953 55.3049 168.607 56.4966 169.244H56.4991C58.3341 170.228 60.3689 171.166 62.6088 171.988C63.5186 172.321 64.4207 172.622 65.3151 172.89Z" fill="white"/>
<path d="M42.3141 162.431C42.0347 163.395 41.7708 164.601 41.658 166.006C41.4504 165.521 41.2274 164.854 41.1173 164.034C40.9814 163.039 41.066 162.196 41.1711 161.619C41.5196 161.887 41.8989 162.158 42.3141 162.431Z" fill="#231F20"/>
<path d="M52.5405 167.083C52.4483 167.936 52.3714 168.826 52.3176 169.746C52.2074 171.63 52.2023 173.403 52.2663 175.047C50.5749 174.48 48.212 173.439 45.8799 171.478C44.8112 170.581 43.9578 169.663 43.2812 168.826C43.3299 168.135 43.4145 167.398 43.5478 166.619C43.7426 165.488 44.004 164.478 44.2833 163.602C46.3668 164.73 49.0654 165.898 52.5405 167.083Z" fill="#231F20"/>
<path d="M73.1537 180.009C73.21 180.692 73.2792 181.318 73.3536 181.877C72.1388 181.821 70.8497 181.723 69.5017 181.573C67.9359 181.398 66.4623 181.169 65.0938 180.911C65.1655 178.238 65.2398 175.563 65.3141 172.891C67.9871 173.697 70.5883 174.223 73.0717 174.543C73.0717 174.537 72.9025 177.027 73.1537 180.009Z" fill="#231F20"/>
<path d="M98.8961 174.68C99.2446 176.141 99.5393 177.721 99.729 179.417C96.2 180.268 92.1509 181.028 87.6507 181.502C83.6502 181.925 79.9623 182.054 76.6641 182.012C76.6641 179.536 76.7666 177.159 76.9485 174.892C82.766 175.188 87.6968 174.446 91.0233 173.734C91.4692 173.884 91.769 173.982 91.9074 174.026C93.7834 174.626 96.2436 174.835 98.8961 174.68Z" fill="#231F20"/>
<path d="M107.419 174.911C107.498 175.586 107.537 175.926 107.485 176.135C107.291 176.926 106.473 177.354 105.661 177.766C105.038 178.081 104.003 178.506 102.588 178.653C102.465 177.091 102.247 175.65 101.988 174.349C103.746 174.076 105.52 173.658 107.204 173.102C107.227 173.295 107.409 174.831 107.419 174.911Z" fill="#231F20"/>
<path d="M16.3151 105.96C16.2715 106.476 16.2895 107.089 16.4458 107.757C16.4945 108.88 16.5457 110.001 16.5944 111.125C15.9896 111.272 15.3771 111.44 14.7569 111.63C14.721 111.641 14.6852 111.653 14.6493 111.664C14.6518 111.074 14.6544 110.478 14.657 109.888V109.867C14.6672 109.674 14.657 109.468 14.6211 109.251C14.6237 108.605 14.6237 107.96 14.6262 107.311C14.7902 107.264 14.9517 107.19 15.0952 107.076C15.454 106.79 15.5949 106.35 15.6334 105.906L16.3151 105.96Z" fill="#FF8B63"/>
<path d="M16.4411 105.12C16.3899 105.355 16.3386 105.638 16.313 105.96L15.6313 105.906C15.6748 105.445 15.6056 104.983 15.5646 104.697C15.4314 103.782 15.0418 102.857 14.4806 102.002L14.2346 91.3861C14.2243 90.8474 14.6344 90.3964 15.17 90.3603C15.1751 90.3603 15.1828 90.3603 15.1879 90.3578C15.762 90.3191 16.2489 90.7727 16.2566 91.3474L16.4001 102.151L16.4411 105.12Z" fill="#FF8B63"/>
<path d="M16.5928 111.124C16.5441 110 16.4929 108.879 16.4442 107.755C16.2879 107.088 16.2699 106.474 16.3135 105.959C16.3391 105.637 16.3904 105.353 16.4416 105.119L16.4006 102.15H16.5544C17.172 100.665 18.2458 99.5159 19.2837 99.5314C20.683 99.552 22.3847 101.699 22.1233 104.9C22.6538 105.232 23.5431 105.887 24.2837 107.008C25.1499 108.315 25.3678 109.585 25.4318 110.232C22.8357 110.139 19.8271 110.335 16.5928 111.124Z" fill="#F4F3F1"/>
<path d="M14.6539 109.887C14.6513 110.477 14.6488 111.072 14.6462 111.662C14.2977 111.771 13.9543 111.884 13.6211 112C13.698 111.933 14.5796 111.119 14.6539 109.887Z" fill="#F4F3F1"/>
<path d="M14.6241 107.311C14.6216 107.96 14.6216 108.605 14.619 109.251C14.396 107.947 13.3555 107.306 13.1992 107.213C13.3812 107.272 14.0321 107.476 14.6241 107.311Z" fill="#F4F3F1"/>
<path d="M14.6266 107.31C14.0346 107.475 13.3837 107.271 13.2017 107.212C13.3581 107.305 14.3985 107.946 14.6215 109.25C14.6574 109.467 14.6676 109.673 14.6574 109.866V109.887C14.5831 111.119 13.7015 111.933 13.6246 112C13.6246 112.003 13.622 112.003 13.622 112.003C10.0803 113.24 7.32017 114.907 5.36222 116.32C5.00087 116.23 4.21666 116.085 3.32225 116.346C3.19155 116.132 2.73282 115.32 2.92759 114.281C3.04804 113.647 3.35813 113.206 3.53753 112.99C2.21001 112.106 1.70515 110.472 2.25358 109.183C2.66619 108.209 3.63491 107.542 4.75484 107.415C3.15824 106.111 3.09161 104.039 4.00908 103.135C4.63695 102.516 5.7492 102.411 6.78199 102.795C5.67488 101.617 5.24433 100.264 5.7005 99.3282C6.1003 98.5035 7.06646 98.2406 7.32274 98.171C9.67536 97.5345 12.8224 99.4699 14.4831 102.001C15.0444 102.856 15.4339 103.782 15.5672 104.697C15.6082 104.983 15.6774 105.444 15.6338 105.905C15.5954 106.349 15.4544 106.789 15.0956 107.075C14.9521 107.189 14.7906 107.263 14.6266 107.31Z" fill="#F4F3F1"/>
<path d="M5.28967 117.682C7.45521 118.877 9.61819 120.073 11.7812 121.272C9.71558 122.029 7.81144 122.328 5.83042 121.622C4.51059 121.153 2.30148 119.929 2.45269 118.903C2.53213 118.362 3.27277 117.867 3.87246 117.682C4.51828 117.478 5.07184 117.615 5.28967 117.682Z" fill="#F4F3F1"/>
<path d="M42.8298 116.415C41.5408 115.905 39.9416 115.389 38.0759 115.028C35.9744 114.624 34.1062 114.526 32.5993 114.552C26.7126 115.214 22.2585 116.683 19.2165 117.951C16.3667 119.139 13.9859 120.464 11.7845 121.27C9.62149 120.072 7.45851 118.876 5.29297 117.68C7.53795 116.271 9.51129 115.415 10.9054 114.892C17.3841 112.464 23.3887 112.737 27.9376 112.99C29.565 113.08 30.9027 113.222 31.7894 113.33C34.2728 113.498 37.7504 114.057 41.5228 115.776C41.9764 115.985 42.4121 116.198 42.8298 116.415Z" fill="#7099ED"/>
<path d="M32.466 111.222C32.2405 111.925 32.015 112.626 31.7894 113.33C30.9027 113.222 29.565 113.08 27.9376 112.99C23.3887 112.737 17.3841 112.464 10.9054 114.892C9.51129 115.415 7.53795 116.271 5.29297 117.68L5.36216 116.32C7.32012 114.907 10.0802 113.24 13.622 112.003C13.622 112.003 13.6245 112.003 13.6245 112C13.9577 111.884 14.3011 111.771 14.6496 111.663C14.6855 111.652 14.7214 111.639 14.7573 111.629C15.3775 111.438 15.99 111.271 16.5948 111.124C19.829 110.335 22.8377 110.139 25.4338 110.232C28.4168 110.335 30.8566 110.822 32.466 111.222Z" fill="#F4F3F1"/>
<path d="M51.4609 119.524C51.1841 119.431 50.8894 119.338 50.5793 119.243C48.8366 118.712 47.8397 118.565 45.9612 118.323C45.0616 117.689 44.016 117.037 42.8295 116.416C42.4117 116.199 41.9761 115.985 41.5225 115.777C37.7501 114.058 34.2724 113.498 31.7891 113.331C32.0146 112.627 32.2401 111.926 32.4656 111.223C34.5979 111.64 37.1376 112.287 39.9207 113.321C40.9407 113.699 41.9966 114.13 43.0755 114.622C44.8951 115.449 46.5352 116.333 47.996 117.217C49.2902 118.001 50.446 118.782 51.4609 119.524Z" fill="#F4F3F1"/>
<path d="M32.5977 114.553C34.1046 114.527 35.9728 114.625 38.0743 115.029C39.94 115.39 41.5392 115.906 42.8282 116.416C44.0148 117.037 45.0604 117.689 45.9599 118.323C44.9143 118.189 43.5945 118.024 41.7237 117.748C41.3931 117.699 39.758 117.457 37.7283 117.4C37.0979 117.15 36.306 116.898 35.3731 116.728C34.5018 116.571 33.7227 116.522 33.0743 116.524C32.918 115.867 32.7591 115.21 32.6002 114.553H32.5977Z" fill="#F4F3F1"/>
<path d="M32.5975 114.553C32.7564 115.21 32.9153 115.867 33.0717 116.524C26.1804 117.3 21.0266 119.081 17.4593 120.671C13.8253 122.29 10.855 124.148 7.04674 123.645H7.04418C6.84428 123.619 6.64438 123.586 6.43936 123.547C4.06368 123.088 0.680821 121.573 0.629566 119.516C0.598813 118.344 1.64698 116.991 2.995 116.457C3.1052 116.413 3.21284 116.377 3.32047 116.346C4.21488 116.086 4.99909 116.23 5.36044 116.321L5.29124 117.681C5.07341 117.614 4.51985 117.478 3.87403 117.681C3.27434 117.867 2.5337 118.362 2.45426 118.903C2.30305 119.929 4.51216 121.153 5.83199 121.622C7.81301 122.328 9.71714 122.029 11.7827 121.272C13.9842 120.465 16.365 119.14 19.2148 117.952C22.2568 116.684 26.7109 115.215 32.5975 114.553Z" fill="#F4F3F1"/>
<path d="M43.2449 122.998C44.4136 123.289 46.0076 123.789 47.8733 124.715L47.7733 124.918C46.9071 124.684 45.9358 124.467 44.8672 124.307C43.309 124.073 41.8918 124.014 40.677 124.034C40.6258 123.779 40.5181 123.449 40.2721 123.153C39.9851 122.805 39.5571 122.568 39.0625 122.441L39.1881 122.014C40.7924 122.496 42.0507 122.702 43.2449 122.998Z" fill="#F4F3F1"/>
<path d="M42.1286 130.237C42.1158 130.461 42.1286 130.781 42.2798 131.103C42.7667 132.131 44.2352 132.275 45.1194 132.479C48.679 133.299 48.6201 136.391 52.1157 137.018C52.2336 137.038 53.2151 136.987 55.1603 136.878C55.66 137.324 56.2905 137.981 56.8645 138.886C57.3233 139.615 57.618 140.303 57.8102 140.858C57.4719 140.762 57.1387 140.669 56.8107 140.582C47.0773 137.909 41.9672 137.44 39.3275 137.938C38.469 138.097 37.8744 138.36 37.4644 138.682C37.103 138.968 35.2963 140.553 33.2076 140.247C32.3747 140.123 31.7827 139.742 31.5162 139.566C27.9565 137.213 18.605 130.005 13.7408 126.992C12.2749 126.082 10.0299 124.82 7.04688 123.644C10.8551 124.147 13.8254 122.289 17.4594 120.67C21.0268 119.08 26.1805 117.299 33.0718 116.524C33.7202 116.521 34.4993 116.57 35.3706 116.727C36.3034 116.897 37.0953 117.15 37.7258 117.4C36.7904 117.371 35.7729 117.384 34.7607 117.475C34.12 117.531 33.0538 117.658 32.5977 118.428C32.2568 119.005 32.385 119.753 32.5977 120.193C33.1769 121.387 35.1656 121.918 37.5438 121.459C38.1307 121.678 38.6766 121.861 39.1866 122.013L39.061 122.441C37.7847 122.108 36.0677 122.498 35.1681 123.559C34.9887 123.771 34.4249 124.436 34.5582 125.224C34.7273 126.222 35.9549 127.069 37.6412 127.129C37.6668 127.216 37.6976 127.307 37.736 127.399C37.736 127.399 38.0564 128.193 38.9533 128.827C39.4608 129.185 40.591 129.556 42.2004 129.881L42.1286 130.237Z" fill="#7099ED"/>
<path d="M47.8711 124.714C46.0054 123.789 44.4114 123.289 43.2428 122.998C42.0485 122.701 40.7902 122.495 39.1859 122.013C38.6759 121.861 38.13 121.678 37.5432 121.459C35.1649 121.918 33.1762 121.387 32.597 120.194C32.3843 119.753 32.2562 119.006 32.597 118.428C33.0532 117.658 34.1193 117.532 34.76 117.475C35.7723 117.385 36.7897 117.372 37.7251 117.4C39.7548 117.457 41.3899 117.699 41.7205 117.748C43.5913 118.024 44.9111 118.189 45.9567 118.323C47.8352 118.565 48.8322 118.712 50.5748 119.243C50.8849 119.338 51.1797 119.431 51.4564 119.524C50.4416 118.781 49.2858 118.001 47.9916 117.217C51.1233 115.003 53.7322 114.756 55.0341 114.756C56.0412 114.756 57.0458 114.916 58.0017 115.16C60.4466 115.782 62.5814 116.957 63.686 117.475C65.4415 118.302 66.5716 119.001 68.9576 119.854C69.4189 120.019 69.8545 120.165 70.2646 120.292C71.1513 120.573 71.9073 120.771 72.4711 120.908C72.4481 122.774 72.1944 125.232 71.8304 127.333C71.4025 129.812 70.7259 132.381 70.0878 134.18C69.647 134.196 69.0678 134.227 68.3835 134.309C67.9786 134.361 67.5352 134.428 67.0663 134.521C64.0396 135.108 63.627 135.956 60.9822 136.508C60.7644 136.554 60.0391 136.605 58.727 136.683C58.3016 136.709 57.8121 136.734 57.2585 136.765C56.7204 136.796 56.1207 136.827 55.4569 136.863C55.3544 136.868 55.2545 136.874 55.1571 136.879C53.2119 136.987 52.2304 137.038 52.1125 137.018C48.6169 136.392 48.6758 133.299 45.1161 132.479C44.232 132.276 42.7635 132.131 42.2766 131.103C42.1254 130.781 42.1126 130.461 42.1254 130.237L42.1971 129.882C40.5877 129.557 39.4575 129.186 38.9501 128.827C38.0531 128.193 37.7328 127.4 37.7328 127.4C37.6944 127.307 37.6636 127.217 37.638 127.129C35.9517 127.07 34.7241 126.222 34.555 125.225C34.4217 124.436 34.9855 123.771 35.1649 123.56C36.0644 122.498 37.7815 122.109 39.0578 122.441C39.5524 122.567 39.9804 122.805 40.2674 123.152C40.5134 123.449 40.621 123.779 40.6723 124.034C41.8871 124.013 43.3043 124.072 44.8624 124.307C45.9311 124.467 46.9024 124.683 47.7686 124.918L47.8686 124.714H47.8711Z" fill="#F4F3F1"/>
<path d="M56.3975 66.234C56.1002 65.5794 55.7876 65.0201 55.498 64.5562C60.8696 63.8681 66.6537 60.193 68.6245 54.0592C70.3902 48.5594 68.2375 43.7272 67.6096 42.436C68.1683 42.1422 69.0781 41.5778 69.8111 40.6165C71.3564 40.4876 73.0914 40.4438 74.9776 40.5675C75.7951 40.619 76.5768 40.6989 77.3174 40.7995H77.32C78.3963 42.4386 79.4753 43.9978 80.5388 45.4719C80.8258 45.8714 81.1129 46.2631 81.3973 46.6497C80.6849 50.2681 79.1677 55.6854 75.6875 61.4687C72.6839 66.453 69.2754 69.9632 66.705 72.2208C64.6958 73.9888 63.1504 75.682 62.9121 75.9449C62.1356 76.8083 61.746 77.2387 61.4923 77.5763C60.5108 78.8855 59.8291 80.2824 59.3626 81.723C59.0936 81.4292 58.8245 81.1432 58.5554 80.8622C58.5554 80.8571 58.5477 80.8519 58.5451 80.8493C57.1254 79.1999 54.6702 75.6614 55.0034 71.0508C55.152 69.0122 55.803 67.3705 56.395 66.234H56.3975Z" fill="#F4F3F1"/>
<path d="M54.2937 64.6623C53.7145 64.6881 52.2896 64.7164 50.2317 64.1984C49.1758 63.933 47.9508 63.5232 46.59 62.8943C37.0027 58.4693 32.7023 48.7893 31.2031 44.8307L54.9882 31.8183C55.2598 31.8467 58.1276 32.1972 59.432 34.6867C60.1112 35.9882 60.042 37.2485 59.9728 37.8155C61.167 37.5191 62.3613 37.2253 63.5555 36.9315L62.8789 35.3001C62.8123 35.0656 62.31 33.2048 63.4197 31.8338C64.5524 30.4266 66.6334 30.4498 67.8789 30.9498C70.6646 32.0683 71.9306 36.6428 70.3802 39.7175C70.2136 40.0499 70.0214 40.3489 69.8112 40.6169C69.0783 41.5782 68.1685 42.1426 67.6098 42.4364C68.2377 43.7276 70.3904 48.5599 68.6247 54.0597C66.6539 60.1934 60.8697 63.8685 55.4982 64.5541C55.0933 64.6082 54.6909 64.6443 54.2937 64.6623ZM49.0912 46.7868C49.9267 46.3357 50.3368 44.7971 49.427 43.591C48.3916 44.225 47.3563 44.8616 46.3183 45.4956C46.8975 46.7842 48.2968 47.2146 49.0912 46.7868ZM40.0344 50.851C40.8699 50.4 41.2799 48.8614 40.3701 47.6553C39.3348 48.2919 38.2994 48.9258 37.2615 49.5598C37.8407 50.8484 39.24 51.2788 40.0344 50.851Z" fill="#F4F3F1"/>
<path d="M59.4321 34.6866C58.1277 32.197 55.2599 31.8465 54.9883 31.8181L68.2224 24.5762L68.2865 24.6947C69.7601 27.8209 71.4694 31.1249 73.4556 34.5526C74.7344 36.7561 76.0286 38.8359 77.3202 40.7997H77.3177C76.577 40.6992 75.7954 40.6193 74.9779 40.5678C73.0917 40.4441 71.3567 40.4879 69.8113 40.6167C70.0215 40.3487 70.2137 40.0498 70.3803 39.7173C71.9307 36.6427 70.6647 32.0681 67.879 30.9496C66.6335 30.4496 64.5525 30.4264 63.4198 31.8336C62.3101 33.2047 62.8124 35.0654 62.879 35.3L63.5556 36.9313C62.3614 37.2251 61.1671 37.5189 59.9729 37.8153C60.0421 37.2483 60.1113 35.9881 59.4321 34.6866Z" fill="#231F20"/>
<path d="M43.2808 168.826C43.9574 169.663 44.8108 170.581 45.8794 171.478C48.2116 173.439 50.5744 174.48 52.2659 175.047C53.1475 175.751 54.1418 176.459 55.2566 177.137C58.8675 179.336 62.3734 180.385 65.0925 180.91C66.461 181.168 67.9346 181.397 69.5005 181.573C70.8485 181.722 72.1376 181.82 73.3523 181.877C73.278 181.317 73.2088 180.691 73.1524 180.008C72.9013 177.026 73.0704 174.537 73.0704 174.542C74.4005 174.715 75.6947 174.828 76.9479 174.89C76.7659 177.16 76.6609 179.537 76.6634 182.013C79.9617 182.055 83.6495 181.926 87.65 181.503C92.1502 181.029 96.1994 180.269 99.7283 179.418C99.5387 177.722 99.244 176.142 98.8954 174.681C99.9052 174.622 100.946 174.511 101.989 174.349C102.248 175.65 102.465 177.091 102.588 178.653C104.003 178.506 105.038 178.08 105.661 177.766C106.474 177.354 107.291 176.926 107.486 176.135C107.537 175.926 107.499 175.586 107.419 174.911C107.906 175.05 108.77 175.39 109.244 176.202C109.769 177.101 109.695 178.377 109.031 179.573C109.113 180.493 109.246 182.178 109.313 184.292C109.457 188.972 109.167 192.441 109.108 193.263C108.416 203.043 113.898 213.069 112.893 227.045C112.452 233.194 112.235 236.57 110.259 239.686C98.4854 258.255 35.9923 250.119 28.2373 225.924C26.3716 220.097 28.0759 211.638 31.4818 194.724C32.3788 190.278 33.7575 184.668 36.6535 178.207C37.7221 175.818 38.7498 173.877 39.5161 172.506C39.5161 171.632 39.6724 170.589 40.2003 169.542C40.6232 168.707 41.1588 168.109 41.5996 167.705C41.5919 167.171 41.6073 166.604 41.656 166.006C41.7688 164.602 42.0327 163.396 42.3121 162.432C42.8989 162.816 43.5524 163.207 44.2828 163.602C44.0035 164.478 43.7421 165.488 43.5473 166.62C43.4141 167.398 43.3295 168.135 43.2808 168.826Z" fill="#383940"/>
<path d="M89.121 50.3297C89.8078 50.9483 90.0641 52.0771 90.0205 53.51C89.8437 59.5716 84.3414 71.1253 83.3932 73.0891C82.5885 72.285 80.7869 70.5608 78.6803 69.2155C78.5547 69.1356 78.4266 69.0558 78.301 68.981C77.5322 68.5223 76.7556 68.164 75.7895 67.9914C75.7895 67.9914 75.095 67.8677 74.3697 67.8909C72.0863 67.9604 69.0725 70.1433 66.707 72.2206C69.2775 69.9629 72.686 66.4528 75.6895 61.4684C79.1698 55.6852 80.6869 50.2679 81.3994 46.6495C81.1149 46.2629 80.8279 45.8711 80.5409 45.4717C80.7818 45.4098 81.2123 45.3274 81.7377 45.3583C83.4214 45.4588 84.4286 46.6443 86.7402 48.5179C88.2317 49.7292 88.793 50.0333 89.121 50.3297Z" fill="#7099ED"/>
<path d="M71.9276 117.994C72.3428 118.087 72.4991 119.27 72.4761 120.907C71.9123 120.77 71.1562 120.572 70.2695 120.291C71.1793 118.314 71.656 117.933 71.9276 117.994Z" fill="#7099ED"/>
<path d="M69.2009 19.6668L71.0538 23.0301L68.2245 24.5764L54.9904 31.8184L31.2053 44.8282L23.5862 48.9981L21.4642 45.3513L21.9665 44.9544C23.6682 43.6117 24.232 41.2742 23.3376 39.2975L20.903 33.9137C19.4576 30.7205 18.7656 27.3547 18.7656 24.0301C18.7656 16.1489 22.6533 8.50751 29.5959 3.97934C40.7644 -3.30644 55.7079 0.059401 62.7171 11.4404L67.3455 18.9529C67.6504 19.4452 68.1835 19.7338 68.7396 19.7338C68.8934 19.7338 69.0497 19.7106 69.2009 19.6668Z" fill="#FF8B63"/>
<path d="M68.3867 134.309C69.071 134.226 69.6502 134.195 70.091 134.18C69.563 135.669 69.0633 136.631 68.7583 136.574C68.5764 136.54 68.3842 136.12 68.3893 134.339V134.309H68.3867Z" fill="#7099ED"/>
<path d="M61.2716 113.54C61.6892 113.54 62.0277 113.023 62.0277 112.385C62.0277 111.747 61.6892 111.23 61.2716 111.23C60.8541 111.23 60.5156 111.747 60.5156 112.385C60.5156 113.023 60.8541 113.54 61.2716 113.54Z" fill="#7099ED"/>
<path d="M60.8263 86.3066C61.2415 86.3066 61.5823 86.8221 61.5823 87.4612C61.5823 88.1004 61.2415 88.6132 60.8263 88.6132C60.4112 88.6132 60.0703 88.0978 60.0703 87.4612C60.0703 86.8247 60.4086 86.3066 60.8263 86.3066Z" fill="#7099ED"/>
<path d="M61.2689 111.231C60.8511 111.231 60.5129 111.749 60.5129 112.386C60.5129 113.022 60.8511 113.54 61.2689 113.54C61.6866 113.54 62.0249 113.022 62.0249 112.386C62.0249 111.749 61.6866 111.231 61.2689 111.231ZM60.8255 86.3068C60.4078 86.3068 60.0695 86.8222 60.0695 87.4613C60.0695 88.1005 60.4078 88.6134 60.8255 88.6134C61.2432 88.6134 61.5815 88.0979 61.5815 87.4613C61.5815 86.8248 61.2407 86.3068 60.8255 86.3068ZM58.4626 89.8195C58.3755 87.1315 58.5113 84.3532 59.3622 81.727C59.8286 80.2838 60.5103 78.887 61.4918 77.5777C61.7455 77.2401 62.1351 76.8097 62.9116 75.9464C63.1499 75.6835 64.6953 73.9903 66.7045 72.2223C69.0699 70.1451 72.0838 67.9621 74.3672 67.8926C75.0924 67.8694 75.787 67.9931 75.787 67.9931C76.7531 68.1658 77.5296 68.524 78.2985 68.9827C78.424 69.0575 78.5522 69.1374 78.6778 69.2173C80.7844 70.5626 82.586 72.2867 83.3907 73.0908C84.3389 71.127 89.8412 59.5733 90.018 53.5117C90.5331 53.6457 91.1431 53.9009 91.671 54.4009C92.1759 54.8776 92.5244 55.5013 92.7115 56.2101C93.4572 56.692 94.5644 57.3956 95.9303 58.2074C102.445 62.0758 107.119 63.8103 109.177 64.7999C112.945 66.6117 117.668 70.6089 121.589 80.2967C122.903 81.0003 123.601 82.7992 123.208 84.745C123.867 86.817 124.492 89.0051 125.061 91.3091C126.742 98.1181 127.56 104.396 127.898 109.865C130.087 112.78 130.159 115.952 130.13 117.068L129.526 117.313C129.664 117.674 129.797 118.048 129.925 118.429C131.955 124.424 131.74 129.818 131.279 133.246L130.792 133.532C131.004 133.895 131.212 134.276 131.414 134.673C132.78 137.348 133.734 139.225 133.239 141.199C132.214 145.289 125.797 146.441 125.507 146.487C125.366 146.57 125.241 146.642 125.128 146.704C122.053 148.407 117.64 148.825 114.818 148.902C113.183 148.948 112.083 148.879 112.083 148.879C108.188 148.634 102.691 147.925 96.2583 145.848C95.592 145.943 94.8437 145.959 94.0364 145.82C91.9503 145.462 90.6254 144.279 90.1436 143.802C89.0647 143.552 87.8935 143.196 86.6685 142.694C85.4742 142.204 84.4363 141.658 83.547 141.121H83.5445C83.1729 141.155 82.7936 141.173 82.4066 141.183C81.5019 141.207 80.5563 141.173 79.5722 141.062C74.0699 140.446 70.3078 137.807 68.7573 136.575C69.0623 136.632 69.562 135.671 70.0899 134.181C70.7281 132.382 71.4046 129.813 71.8326 127.333C72.1965 125.233 72.4502 122.774 72.4733 120.908C72.4964 119.272 72.34 118.089 71.9249 117.996C71.6532 117.934 71.1765 118.316 70.2668 120.292C69.8567 120.166 69.421 120.019 68.9597 119.854C66.5738 119.001 65.4436 118.303 63.6881 117.476C62.5836 116.958 60.4488 115.782 58.0039 115.161L58.6523 114.893C58.701 114.208 58.7471 113.532 58.7855 112.868C59.2392 105.267 59.0623 99.167 58.7548 94.6054C58.6523 93.0797 58.5165 91.4663 58.4626 89.8195Z" fill="#7099ED"/>
<path d="M59.2907 146.486C59.2907 147.125 58.9524 147.641 58.5373 147.641C58.1221 147.641 57.7812 147.125 57.7812 146.486C57.7812 145.847 58.1195 145.334 58.5373 145.334C58.955 145.334 59.2907 145.849 59.2907 146.486Z" fill="#7099ED"/>
<path d="M56.7808 165.898C57.1985 165.898 57.5368 166.416 57.5368 167.053C57.5368 167.69 57.1985 168.208 56.7808 168.208C56.6552 168.208 56.5348 168.159 56.4297 168.074C56.4271 168.074 56.4246 168.071 56.422 168.068C56.3272 167.963 56.2426 167.849 56.1734 167.733C56.0812 167.543 56.0273 167.308 56.0273 167.053C56.0273 166.416 56.3656 165.898 56.7808 165.898Z" fill="#7099ED"/>
<path d="M58.537 147.641C58.9522 147.641 59.2905 147.125 59.2905 146.486C59.2905 145.847 58.9522 145.334 58.537 145.334C58.1218 145.334 57.781 145.849 57.781 146.486C57.781 147.122 58.1193 147.641 58.537 147.641ZM56.433 168.073C56.538 168.158 56.6585 168.207 56.7841 168.207C57.2018 168.207 57.5401 167.689 57.5401 167.052C57.5401 166.416 57.2018 165.897 56.7841 165.897C56.3663 165.897 56.0306 166.416 56.0306 167.052C56.0306 167.307 56.0844 167.542 56.1767 167.732C56.2433 167.872 56.3279 167.985 56.4253 168.068C56.4278 168.068 56.4304 168.073 56.433 168.073ZM56.5944 151.12C57.1634 148.679 57.5811 145.164 56.8123 140.582C57.1403 140.669 57.4735 140.762 57.8117 140.857C58.3064 140.45 58.8035 140.04 59.2981 139.633C59.0444 139.275 58.7882 138.917 58.537 138.558C58.8138 138.125 59.088 137.69 59.3648 137.254C59.1546 137.064 58.9445 136.873 58.7318 136.682C60.0439 136.605 60.7692 136.553 60.987 136.507C63.6318 135.955 64.0444 135.108 67.071 134.52C67.54 134.427 67.9834 134.36 68.3883 134.309V134.34C68.3857 136.12 68.5779 136.54 68.7599 136.574C70.3104 137.806 74.0725 140.445 79.5748 141.061C80.5589 141.172 81.5045 141.205 82.4092 141.182C82.7962 141.172 83.1755 141.154 83.5471 141.12H83.5496C84.4389 141.656 85.4768 142.203 86.6711 142.692C87.8961 143.195 89.0673 143.55 90.1462 143.8C90.628 144.277 91.9529 145.46 94.039 145.818C94.8463 145.958 95.5946 145.942 96.261 145.847C102.694 147.924 108.191 148.633 112.086 148.878C112.086 148.878 113.185 148.947 114.821 148.901C115.302 150.911 115.953 153.955 116.445 157.715C117.007 162.014 117.288 164.166 116.953 165.361C115.956 168.905 111.932 171.542 107.207 173.101C105.523 173.657 103.749 174.075 101.991 174.348C100.948 174.511 99.9078 174.621 98.898 174.681C96.2456 174.835 93.7853 174.627 91.9094 174.026C91.771 173.982 91.4711 173.884 91.0252 173.735C87.6987 174.446 82.768 175.188 76.9505 174.889C75.6973 174.828 74.4031 174.714 73.073 174.541C70.5897 174.222 67.9885 173.696 65.3155 172.889C64.4211 172.621 63.519 172.32 62.6092 171.987C60.3694 171.165 58.3345 170.227 56.4996 169.245H56.497C55.9973 168.637 55.313 167.668 54.8364 166.346C54.2162 164.619 54.2495 163.127 54.2956 162.269C54.534 157.983 55.9845 153.738 56.5944 151.12Z" fill="#7099ED"/>
<path d="M56.4968 169.244C55.3051 168.607 54.2006 167.953 53.1806 167.298C52.9653 167.226 52.7526 167.154 52.5425 167.084C49.0674 165.899 46.3688 164.731 44.2852 163.602C43.5548 163.208 42.9013 162.816 42.3145 162.432C41.8993 162.159 41.52 161.889 41.1715 161.621C38.6446 159.685 37.7912 157.904 37.6682 156.389C37.5144 154.477 38.2884 153.294 38.988 149.253C39.2673 147.634 39.4288 146.103 39.5082 144.683C39.662 141.969 39.5185 139.663 39.3288 137.939C41.9685 137.441 47.0786 137.91 56.812 140.583C57.5809 145.165 57.1631 148.68 56.5942 151.121C55.9843 153.739 54.5337 157.984 54.2954 162.27C54.2493 163.128 54.216 164.62 54.8361 166.347C55.3128 167.669 55.9971 168.638 56.4968 169.244Z" fill="#7099ED"/>
<path d="M49.429 43.5918C50.3387 44.7979 49.9287 46.3365 49.0932 46.7875C48.2988 47.2154 46.8995 46.785 46.3203 45.4964C47.3582 44.8624 48.3936 44.2258 49.429 43.5918Z" fill="#231F20"/>
<path d="M48.9516 73.1019C48.1776 73.4601 47.3575 73.9112 46.5246 74.4781C43.2853 76.6894 41.4734 79.5656 40.5072 81.501C40.2407 80.4289 39.8973 78.4367 40.4073 76.0477C40.4406 75.8905 40.4765 75.7384 40.5149 75.5915C40.6943 74.8776 40.9199 74.2694 41.1274 73.79L41.5221 73.9575C41.927 73.1251 42.4293 72.6277 42.9419 72.3262C44.3668 71.486 46.4631 71.8159 48.9516 73.1019Z" fill="#7099ED"/>
<path d="M51.2223 74.4643C50.4355 73.9308 49.6744 73.4772 48.9491 73.1035C46.4607 71.8175 44.3643 71.4876 42.9394 72.3278C42.4269 72.6293 41.9246 73.1267 41.5197 73.9591L41.125 73.7916C41.3223 73.3303 41.5069 72.9901 41.6196 72.7865C42.5678 71.0984 43.5955 70.3046 45.6252 68.5032C46.7016 67.547 48.3008 66.0935 50.2305 64.2044V64.1992C52.2884 64.7172 53.7133 64.6889 54.2925 64.6631C54.6897 64.6451 55.0921 64.609 55.497 64.5549C55.7866 65.0213 56.0993 65.5806 56.3965 66.2352C55.8045 67.3718 55.1536 69.0135 55.005 71.052C54.6718 75.6627 57.1269 79.2012 58.5467 80.8506C55.9967 78.1729 53.5006 76.0003 51.2249 74.4643H51.2223Z" fill="#7099ED"/>
<path d="M40.3704 47.6562C41.2801 48.8624 40.8701 50.401 40.0346 50.852C39.2402 51.2798 37.8409 50.8494 37.2617 49.5608C38.2996 48.9268 39.335 48.2928 40.3704 47.6562Z" fill="#231F20"/>
<path d="M13.7422 126.992C18.6063 130.005 27.9579 137.213 31.5176 139.566C31.7841 139.742 32.3761 140.123 33.209 140.247C35.2976 140.553 37.1044 138.968 37.4657 138.682C37.8758 138.36 38.4703 138.097 39.3289 137.938C39.5185 139.662 39.662 141.968 39.5083 144.682C39.0854 145.339 37.9296 146.95 35.7436 147.927C33.3909 148.976 31.2767 148.656 30.5258 148.507C29.8748 149.043 29.0112 149.527 27.9374 149.659C25.39 149.971 22.7119 148.169 21.738 145.2C20.513 143.943 19.5238 141.958 18.3039 139.159C16.9738 136.1 15.3362 132.005 13.7422 126.992Z" fill="#7099ED"/>
<path d="M51.225 74.4643C53.5007 76.0003 55.9969 78.1729 58.5468 80.8506C58.5494 80.8532 58.5545 80.8584 58.5571 80.8635C58.9133 81.2733 59.2029 81.5671 59.3643 81.7269C58.5135 84.353 58.3777 87.1313 58.4648 89.8193C58.5186 91.4662 58.6544 93.0795 58.757 94.6052C59.0645 99.1669 59.2413 105.267 58.7877 112.867C58.7493 113.532 58.7031 114.207 58.6544 114.893L58.0061 115.161C57.0502 114.916 56.0455 114.759 55.0384 114.756C53.7365 114.756 51.1276 115.004 47.9959 117.218C46.5351 116.334 44.8949 115.45 43.0754 114.622C41.9964 114.13 40.9406 113.7 39.9206 113.321C37.1374 112.287 34.5977 111.641 32.4655 111.223C30.8561 110.824 28.4163 110.337 25.4333 110.233C25.3692 109.587 25.1514 108.316 24.2852 107.009C24.626 104.051 25.3743 100.404 26.9889 96.4737C27.6091 94.966 28.2805 93.6027 28.9622 92.3759C28.8494 91.9429 28.7751 91.4198 28.8161 90.8322C28.9596 88.7214 30.4589 87.4612 30.7433 87.2318C31.6557 85.0231 33.1267 82.3299 35.5075 79.7527C37.2451 77.8714 39.0262 76.5312 40.5152 75.5931C40.4767 75.74 40.4408 75.8921 40.4075 76.0493C39.8975 78.4383 40.241 80.4305 40.5075 81.5027C41.4736 79.5672 43.2855 76.691 46.5249 74.4797C47.3578 73.9128 48.1778 73.4617 48.9518 73.1035C49.6771 73.4772 50.4382 73.9308 51.225 74.4643Z" fill="#7099ED"/>
<path d="M31.2031 44.8307C32.7023 48.7893 37.0027 58.4693 46.59 62.8943C47.9508 63.5232 49.1758 63.933 50.2317 64.1984C52.2896 64.7164 53.7145 64.6881 54.2937 64.6623C54.6909 64.6443 55.0933 64.6082 55.4982 64.5541C60.8697 63.8685 66.6539 60.1934 68.6247 54.0597C70.3904 48.5599 68.2377 43.7276 67.6098 42.4364C68.1685 42.1426 69.0783 41.5782 69.8112 40.6169C70.0214 40.3489 70.2136 40.0499 70.3802 39.7175C71.9306 36.6428 70.6646 32.0683 67.8789 30.9498C66.6334 30.4498 64.5524 30.4266 63.4197 31.8338C62.31 33.2048 62.8123 35.0656 62.8789 35.3001L63.5555 36.9315C62.3613 37.2253 61.167 37.5191 59.9728 37.8155C60.042 37.2485 60.1112 35.9882 59.432 34.6867C58.1276 32.1972 55.2598 31.8467 54.9882 31.8183" stroke="#231F20" stroke-width="0.6" stroke-linecap="round" stroke-linejoin="round"/>
<path d="M68.2852 24.6953C69.7587 27.8215 71.4681 31.1255 73.4543 34.5532C74.7331 36.7567 76.0273 38.8365 77.3189 40.8003C78.3953 42.4394 79.4742 43.9986 80.5378 45.4728C80.8248 45.8723 81.1118 46.264 81.3963 46.6506" stroke="#231F20" stroke-width="0.6" stroke-linecap="round" stroke-linejoin="round"/>
<path d="M55.5 64.5566C55.7896 65.0205 56.1022 65.5798 56.3995 66.2344C56.6122 66.7035 56.8173 67.2215 56.9992 67.7885C57.3452 68.8632 57.5195 69.8399 57.6092 70.644" stroke="#231F20" stroke-width="0.6" stroke-linecap="round" stroke-linejoin="round"/>
<path d="M69.8125 40.6165C71.3578 40.4876 73.0928 40.4438 74.979 40.5675C75.7966 40.619 76.5782 40.6989 77.3188 40.7995" stroke="#231F20" stroke-width="0.6" stroke-linecap="round" stroke-linejoin="round"/>
<path d="M65.6484 36.6929C65.8842 36.479 66.2968 36.046 66.5608 35.3682C66.5787 35.3244 66.5941 35.278 66.6095 35.2342C66.8683 34.4868 66.8094 33.8373 66.7632 33.5332" stroke="#231F20" stroke-width="0.6" stroke-linecap="round" stroke-linejoin="round"/>
<path d="M68.5878 35.7736C68.3905 35.8046 68.1214 35.8252 67.8113 35.7736C67.2219 35.6809 66.8118 35.3948 66.6094 35.2324" stroke="#231F20" stroke-width="0.6" stroke-linecap="round" stroke-linejoin="round"/>
<path d="M50.5781 54.8743C50.919 54.6862 51.3649 54.3847 51.7954 53.9233C52.5028 53.1605 52.8077 52.3487 52.9436 51.8848" stroke="#231F20" stroke-width="0.6" stroke-linecap="round" stroke-linejoin="round"/>
<path d="M46.5195 39.3767C46.6015 39.1731 46.9552 38.3638 47.806 38.0185C48.7748 37.6216 49.9998 37.9901 50.7789 38.9695" stroke="#231F20" stroke-width="0.6" stroke-linecap="round" stroke-linejoin="round"/>
<path d="M38.1412 44.4082C37.9285 44.3618 37.2724 44.2458 36.6548 44.6118C35.8834 45.0654 35.4887 46.0782 35.7091 47.1271" stroke="#231F20" stroke-width="0.6" stroke-linecap="round" stroke-linejoin="round"/>
<path d="M66.707 72.2215C69.2775 69.9639 72.686 66.4537 75.6895 61.4694C79.1698 55.6861 80.6869 50.2688 81.3994 46.6504" stroke="#231F20" stroke-width="0.6" stroke-linecap="round" stroke-linejoin="round"/>
<path d="M59.3636 81.7266C58.5128 84.3527 58.377 87.131 58.4641 89.819C58.5179 91.4659 58.6538 93.0792 58.7563 94.6049C59.0638 99.1666 59.2406 105.267 58.787 112.867C58.7486 113.532 58.7025 114.207 58.6538 114.893" stroke="#231F20" stroke-width="0.6" stroke-linecap="round" stroke-linejoin="round"/>
<path d="M80.5394 45.4717C80.7803 45.4098 81.2109 45.3274 81.7363 45.3583C83.42 45.4588 84.4272 46.6443 86.7388 48.5179C88.2303 49.7292 88.7916 50.0333 89.1196 50.3297C89.8064 50.9483 90.0627 52.0771 90.0191 53.51C89.8423 59.5716 84.34 71.1253 83.3918 73.0891C82.5871 72.285 80.7855 70.5608 78.6789 69.2155C78.5533 69.1356 78.4252 69.0558 78.2996 68.981C77.5308 68.5223 76.7542 68.164 75.7881 67.9914C75.7881 67.9914 75.0936 67.8677 74.3683 67.8909C72.0849 67.9604 69.071 70.1433 66.7056 72.2206C64.6964 73.9885 63.1511 75.6818 62.9127 75.9446C62.1362 76.808 61.7467 77.2384 61.4929 77.576C60.5114 78.8852 59.8297 80.2821 59.3633 81.7228" stroke="#231F20" stroke-width="0.6" stroke-linecap="round" stroke-linejoin="round"/>
<path d="M58.5547 80.8633C58.9109 81.2731 59.2005 81.5669 59.362 81.7266" stroke="#231F20" stroke-width="0.6" stroke-linecap="round" stroke-linejoin="round"/>
<path d="M56.395 66.2344C55.803 67.3709 55.152 69.0126 55.0034 71.0512C54.6702 75.6618 57.1254 79.2003 58.5451 80.8497" stroke="#231F20" stroke-width="0.6" stroke-linecap="round" stroke-linejoin="round"/>
<path d="M50.233 64.2031C48.3032 66.0922 46.704 67.5458 45.6277 68.5019C43.5979 70.3034 42.5703 71.0972 41.6221 72.7853C41.5093 72.9889 41.3248 73.329 41.1274 73.7904C40.9199 74.2697 40.6943 74.8779 40.5149 75.5918C40.4765 75.7387 40.4406 75.8908 40.4073 76.048C39.8973 78.4371 40.2407 80.4293 40.5072 81.5014C41.4734 79.5659 43.2853 76.6897 46.5246 74.4785C47.3575 73.9115 48.1776 73.4605 48.9516 73.1022" stroke="#231F20" stroke-width="0.6" stroke-linecap="round" stroke-linejoin="round"/>
<path d="M41.5195 73.9575C41.9244 73.1251 42.4268 72.6277 42.9393 72.3262C44.3642 71.486 46.4606 71.8159 48.949 73.1019C49.6743 73.4756 50.4354 73.9292 51.2222 74.4627C53.4979 75.9987 55.9941 78.1713 58.544 80.849C58.5466 80.8516 58.5517 80.8568 58.5543 80.8619C58.8233 81.1428 59.0924 81.4289 59.3615 81.7227L59.3846 81.7485" stroke="#231F20" stroke-width="0.6" stroke-linecap="round" stroke-linejoin="round"/>
<path d="M90.0195 53.5117C90.5346 53.6457 91.1446 53.9009 91.6725 54.4009C92.1774 54.8776 92.5259 55.5013 92.713 56.2101C92.9795 57.1997 92.9308 58.3543 92.5515 59.4986" stroke="#231F20" stroke-width="0.6" stroke-linecap="round" stroke-linejoin="round"/>
<path d="M92.7109 56.209C93.4567 56.6909 94.5638 57.3945 95.9298 58.2063C102.444 62.0747 107.119 63.8092 109.177 64.7988C112.944 66.6106 117.667 70.6079 121.588 80.2956" stroke="#231F20" stroke-width="0.6" stroke-linecap="round" stroke-linejoin="round"/>
<path d="M119.586 80.0243C120.045 79.9444 120.834 79.8928 121.59 80.2949C122.905 80.9984 123.602 82.7973 123.21 84.7431" stroke="#231F20" stroke-width="0.6" stroke-linecap="round" stroke-linejoin="round"/>
<path d="M122.48 82.5352C122.726 83.2568 122.97 83.9913 123.208 84.7438C123.867 86.8159 124.492 89.004 125.061 91.308C126.742 98.117 127.56 104.395 127.898 109.864" stroke="#231F20" stroke-width="0.6" stroke-linecap="round" stroke-linejoin="round"/>
<path d="M98.2968 88.4863C98.0559 90.7981 97.9201 93.3985 97.9918 96.236C98.0969 100.457 98.63 104.182 99.2886 107.292C99.2988 107.349 99.3116 107.408 99.3245 107.465" stroke="#231F20" stroke-width="0.6" stroke-miterlimit="10"/>
<path d="M90.793 91.5449C91.3388 92.5243 92.3409 94.0371 94.0374 95.4185C95.5418 96.6452 97.0154 97.2998 98.0174 97.6529" stroke="#231F20" stroke-width="0.6" stroke-miterlimit="10"/>
<path d="M103.433 103.201C103.102 103.312 100.306 104.307 99.2888 107.291C98.1304 110.693 100.363 113.497 100.552 113.727C100.555 113.732 100.557 113.734 100.56 113.737" stroke="#231F20" stroke-width="0.6" stroke-miterlimit="10"/>
<path d="M102.046 108.674C101.587 109.372 101.016 110.439 100.729 111.833C100.593 112.496 100.542 113.132 100.552 113.728C100.58 115.833 101.347 117.457 101.682 118.099" stroke="#231F20" stroke-width="0.6" stroke-miterlimit="10"/>
<path d="M124.59 106.941C125.487 107.457 126.776 108.364 127.901 109.864C130.09 112.779 130.161 115.951 130.133 117.067" stroke="#231F20" stroke-width="0.6" stroke-miterlimit="10"/>
<path d="M127.562 113.127C128.247 114.343 128.928 115.738 129.528 117.312C129.667 117.673 129.8 118.047 129.928 118.428C131.958 124.423 131.742 129.817 131.281 133.245" stroke="#231F20" stroke-width="0.6" stroke-miterlimit="10"/>
<path d="M127.089 128.623C128.142 129.716 129.526 131.339 130.792 133.53C131.005 133.893 131.213 134.275 131.415 134.672C132.781 137.347 133.734 139.223 133.24 141.197C132.215 145.287 125.797 146.439 125.508 146.486" stroke="#231F20" stroke-width="0.6" stroke-miterlimit="10"/>
<path d="M123.031 129.371C125.297 131.979 126.98 134.317 128.17 136.1C130.54 139.657 130.93 141.072 130.399 141.945C130.038 142.541 129.307 142.778 128.69 142.881" stroke="#231F20" stroke-width="0.6" stroke-miterlimit="10"/>
<path d="M129.116 141.129C129.065 141.582 128.952 142.198 128.691 142.881C128.586 143.152 128.46 143.43 128.304 143.714C127.491 145.191 126.305 146.018 125.508 146.487C125.367 146.569 125.241 146.642 125.129 146.703C122.053 148.407 117.64 148.824 114.819 148.902C113.184 148.948 112.084 148.879 112.084 148.879C108.189 148.634 102.692 147.925 96.259 145.848C96.259 145.848 96.2573 145.847 96.2539 145.845" stroke="#231F20" stroke-width="0.6" stroke-miterlimit="10"/>
<path d="M118.236 123.933C117.101 123.469 115.93 123.015 114.72 122.572C114.72 122.572 113.882 122.247 112.245 121.711C109.702 120.879 107.609 120.111 104.989 119.583C103.106 119.204 101.983 119.132 101.122 119.802C100.687 120.139 100.443 120.567 100.305 120.882" stroke="#231F20" stroke-width="0.6" stroke-miterlimit="10"/>
<path d="M107.963 133.992C106.164 128.781 103.993 125.353 102.555 123.389C101.712 122.235 101.002 121.425 100.305 120.882C99.6774 120.387 99.0597 120.111 98.3652 119.99C95.823 119.547 93.6472 121.459 93.0859 121.982" stroke="#231F20" stroke-width="0.6" stroke-miterlimit="10"/>
<path d="M83.5469 141.121C88.2675 140.742 91.6862 138.845 92.9548 138.072" stroke="#231F20" stroke-width="0.6" stroke-miterlimit="10"/>
<path d="M68.7578 136.574C70.3083 137.806 74.0704 140.445 79.5727 141.061C80.5568 141.172 81.5025 141.205 82.4071 141.182C82.7941 141.172 83.1734 141.154 83.545 141.12" stroke="#231F20" stroke-width="0.6" stroke-miterlimit="10"/>
<path d="M96.606 121.351C96.032 121.523 95.1427 121.755 94.0382 121.894C93.7127 121.936 93.3949 121.964 93.0848 121.982C90.7194 122.131 88.8921 121.701 87.9541 121.485C87.3647 121.351 86.6958 121.198 85.9501 121.036C82.639 120.309 77.8312 119.299 71.9266 117.995C71.8625 117.98 71.7984 117.967 71.7344 117.951" stroke="#231F20" stroke-width="0.6" stroke-miterlimit="10"/>
<path d="M83.5469 141.121H83.5494C84.4387 141.657 85.4766 142.204 86.6709 142.693C87.8959 143.196 89.0671 143.551 90.146 143.801C91.0968 144.026 91.9758 144.167 92.7549 144.258" stroke="#231F20" stroke-width="0.6" stroke-miterlimit="10"/>
<path d="M90.1445 143.801C90.6263 144.278 91.9513 145.461 94.0374 145.819C94.8447 145.958 95.593 145.942 96.2593 145.847C97.8021 145.62 98.899 144.953 99.2424 144.731" stroke="#231F20" stroke-width="0.6" stroke-miterlimit="10"/>
<path d="M106.54 115.506C105.825 115.771 100.774 117.689 101 119.446C101.012 119.562 101.051 119.681 101.12 119.802" stroke="#231F20" stroke-width="0.6" stroke-miterlimit="10"/>
<path d="M100.121 81.1123C100.67 79.6897 101.582 77.7852 103.094 75.8084C104.798 73.5817 106.625 72.105 107.961 71.1875" stroke="#231F20" stroke-width="0.6" stroke-miterlimit="10"/>
<path d="M86.1286 128.895C86.3131 127.947 86.4592 126.8 86.4669 125.498C86.4797 123.717 86.2311 122.202 85.9492 121.037" stroke="#231F20" stroke-width="0.6" stroke-miterlimit="10"/>
<path d="M84.9126 135.486C84.8153 136.066 84.6666 136.708 84.4385 137.391C83.8875 139.045 83.0828 140.308 82.4062 141.182" stroke="#231F20" stroke-width="0.6" stroke-miterlimit="10"/>
<path d="M90.3196 129.575C89.2535 129.072 88.1387 129.32 87.7491 129.915C87.2827 130.626 87.6748 132.124 89.1023 132.768" stroke="#231F20" stroke-width="0.6" stroke-miterlimit="10"/>
<path d="M72.4782 120.908H72.4757C71.9118 120.771 71.1558 120.573 70.2691 120.292C69.8591 120.165 69.4234 120.019 68.9621 119.854C66.5762 119.001 65.446 118.302 63.6905 117.475C62.5859 116.957 60.4511 115.782 58.0063 115.16C57.0504 114.916 56.0457 114.758 55.0386 114.756C53.7367 114.756 51.1278 115.003 47.9961 117.217" stroke="#231F20" stroke-width="0.6" stroke-miterlimit="10"/>
<path d="M37.7251 117.4C36.7897 117.372 35.7723 117.385 34.76 117.475C34.1193 117.532 33.0532 117.658 32.597 118.428C32.2562 119.006 32.3843 119.753 32.597 120.194C33.1762 121.387 35.1649 121.918 37.5432 121.459C37.5508 121.457 37.5585 121.457 37.5662 121.454" stroke="#231F20" stroke-width="0.6" stroke-miterlimit="10"/>
<path d="M53.28 120.194C52.811 120.006 52.1934 119.771 51.4579 119.524C51.1811 119.431 50.8864 119.338 50.5763 119.243C48.8336 118.712 47.8367 118.565 45.9582 118.323C44.9126 118.189 43.5927 118.024 41.7219 117.748C41.3913 117.699 39.7563 117.457 37.7266 117.4" stroke="#231F20" stroke-width="0.6" stroke-miterlimit="10"/>
<path d="M36.1133 120.873C36.3772 120.989 36.7745 121.159 37.2614 121.35C37.3562 121.386 37.451 121.422 37.5433 121.458C38.1302 121.677 38.676 121.86 39.186 122.012C40.7903 122.494 42.0487 122.7 43.2429 122.997C44.4115 123.288 46.0056 123.788 47.8713 124.713C48.0173 124.783 48.1634 124.857 48.3121 124.935" stroke="#231F20" stroke-width="0.6" stroke-miterlimit="10"/>
<path d="M47.7729 124.918C46.9067 124.684 45.9354 124.467 44.8667 124.308C43.3085 124.073 41.8913 124.014 40.6766 124.034C40.6253 123.779 40.5177 123.449 40.2716 123.153C39.9846 122.805 39.5566 122.568 39.062 122.442C37.7858 122.109 36.0687 122.498 35.1692 123.56C34.9898 123.771 34.426 124.436 34.5592 125.225C34.7284 126.222 35.9559 127.07 37.6422 127.13H37.6448" stroke="#231F20" stroke-width="0.6" stroke-miterlimit="10"/>
<path d="M37.5336 126.107C37.5182 126.352 37.5233 126.716 37.6412 127.128C37.6669 127.216 37.6976 127.306 37.7361 127.399C37.7361 127.399 38.0564 128.192 38.9534 128.826C39.4608 129.185 40.591 129.556 42.2004 129.88C44.0353 130.249 46.4905 130.561 49.3608 130.728" stroke="#231F20" stroke-width="0.6" stroke-miterlimit="10"/>
<path d="M42.1288 130.236C42.116 130.461 42.1288 130.78 42.28 131.102C42.7669 132.131 44.2354 132.275 45.1195 132.478C48.6792 133.298 48.6203 136.391 52.1159 137.017C52.2338 137.038 53.2153 136.986 55.1604 136.878C55.2578 136.873 55.3578 136.867 55.4603 136.862C56.1241 136.826 56.7237 136.795 57.2619 136.764C57.8155 136.733 58.305 136.708 58.7304 136.682C60.0425 136.605 60.7678 136.553 60.9856 136.507C63.6304 135.955 64.043 135.107 67.0696 134.52C67.5386 134.427 67.982 134.36 68.3869 134.308C69.0712 134.226 69.6503 134.195 70.0911 134.179" stroke="#231F20" stroke-width="0.6" stroke-miterlimit="10"/>
<path d="M70.2564 120.316C70.2564 120.316 70.2641 120.298 70.2692 120.291C71.179 118.314 71.6557 117.933 71.9274 117.994C72.3425 118.087 72.4988 119.27 72.4758 120.907C72.4527 122.773 72.199 125.231 71.8351 127.332C71.4071 129.811 70.7305 132.38 70.0924 134.179C69.5645 135.669 69.0647 136.63 68.7598 136.574C68.5778 136.54 68.3856 136.12 68.3907 134.339" stroke="#231F20" stroke-width="0.6" stroke-miterlimit="10"/>
<path d="M51.4609 119.524C50.446 118.782 49.2902 118.001 47.996 117.217C46.5352 116.333 44.8951 115.449 43.0755 114.622C41.9966 114.13 40.9407 113.699 39.9207 113.321C37.1376 112.287 34.5979 111.64 32.4656 111.223C32.2401 111.926 32.0146 112.627 31.7891 113.331C34.2724 113.498 37.7501 114.058 41.5225 115.777C41.9761 115.985 42.4117 116.199 42.8295 116.416C44.016 117.037 45.0616 117.689 45.9612 118.323" stroke="#231F20" stroke-width="0.6" stroke-linecap="round" stroke-linejoin="round"/>
<path d="M42.8282 116.416C41.5392 115.906 39.94 115.39 38.0743 115.029C35.9728 114.625 34.1046 114.527 32.5977 114.553C32.7565 115.21 32.9154 115.867 33.0718 116.524C33.7201 116.522 34.4992 116.571 35.3706 116.728C36.3034 116.898 37.0953 117.15 37.7258 117.4" stroke="#231F20" stroke-width="0.6" stroke-linecap="round" stroke-linejoin="round"/>
<path d="M13.6211 112C13.9543 111.884 14.2977 111.771 14.6462 111.663C14.6821 111.652 14.718 111.639 14.7538 111.629C15.374 111.438 15.9865 111.271 16.5913 111.124C19.8256 110.335 22.8342 110.139 25.4303 110.232C28.4134 110.335 30.8532 110.822 32.4626 111.222" stroke="#231F20" stroke-width="0.6" stroke-linecap="round" stroke-linejoin="round"/>
<path d="M31.7894 113.331C30.9027 113.223 29.5649 113.081 27.9376 112.991C23.3887 112.738 17.3841 112.465 10.9054 114.893C9.51129 115.416 7.53795 116.272 5.29297 117.682L5.36216 116.321C7.32012 114.908 10.0802 113.241 13.622 112.004" stroke="#231F20" stroke-width="0.6" stroke-linecap="round" stroke-linejoin="round"/>
<path d="M5.29297 117.682C7.45851 118.877 9.62149 120.073 11.7845 121.272" stroke="#231F20" stroke-width="0.6" stroke-linecap="round" stroke-linejoin="round"/>
<path d="M5.28967 117.681C5.07184 117.614 4.51828 117.478 3.87246 117.681C3.27277 117.867 2.53213 118.362 2.45269 118.903C2.30148 119.929 4.51059 121.153 5.83042 121.622C7.81144 122.328 9.71557 122.029 11.7812 121.272C13.9826 120.465 16.3634 119.14 19.2132 117.952C22.2552 116.684 26.7093 115.215 32.596 114.553" stroke="#231F20" stroke-width="0.6" stroke-linecap="round" stroke-linejoin="round"/>
<path d="M7.04688 123.644C10.8551 124.147 13.8254 122.289 17.4594 120.67C21.0268 119.08 26.1805 117.299 33.0718 116.523" stroke="#231F20" stroke-width="0.6" stroke-linecap="round" stroke-linejoin="round"/>
<path d="M5.36044 116.319C4.99909 116.229 4.21488 116.085 3.32047 116.345C3.21284 116.376 3.1052 116.412 2.995 116.456C1.64698 116.989 0.598813 118.342 0.629566 119.515C0.680821 121.572 4.06368 123.087 6.43936 123.546C6.64438 123.585 6.84428 123.618 7.04418 123.644" stroke="#231F20" stroke-width="0.6" stroke-linecap="round" stroke-linejoin="round"/>
<path d="M7.04297 123.645H7.04553C10.0286 124.82 12.2736 126.083 13.7395 126.992C18.6036 130.005 27.9552 137.214 31.5148 139.567C31.7814 139.742 32.3734 140.123 33.2063 140.247C35.2949 140.554 37.1017 138.969 37.463 138.683C37.8731 138.36 38.4676 138.098 39.3262 137.938C41.9658 137.44 47.076 137.909 56.8094 140.582C57.1374 140.67 57.4706 140.762 57.8089 140.858C57.6166 140.304 57.3219 139.616 56.8632 138.886C56.2891 137.982 55.6587 137.324 55.159 136.881" stroke="#231F20" stroke-width="0.6" stroke-linecap="round" stroke-linejoin="round"/>
<path d="M57.2617 136.766C57.6846 137.364 58.11 137.961 58.5354 138.559C58.7866 138.918 59.0428 139.276 59.2966 139.634C58.8019 140.041 58.3048 140.451 57.8102 140.858" stroke="#231F20" stroke-width="0.6" stroke-linecap="round" stroke-linejoin="round"/>
<path d="M58.7299 136.684C58.9426 136.874 59.1528 137.065 59.3629 137.256C59.0862 137.691 58.8119 138.127 58.5352 138.56" stroke="#231F20" stroke-width="0.6" stroke-linecap="round" stroke-linejoin="round"/>
<path d="M16.5134 104.834C16.4903 104.919 16.4673 105.014 16.4416 105.12C16.3904 105.355 16.3391 105.638 16.3135 105.96C16.2699 106.476 16.2879 107.089 16.4442 107.757C16.6082 108.46 16.7517 109.068 17.2566 109.455C18.4201 110.349 20.9572 109.617 21.5826 108.027C21.8055 107.46 21.7363 106.901 21.6492 106.532" stroke="#231F20" stroke-width="0.6" stroke-miterlimit="10"/>
<path d="M16.5547 102.147C17.1723 100.665 18.2461 99.5159 19.284 99.5314C20.6833 99.552 22.385 101.699 22.1236 104.9C22.6541 105.232 23.5434 105.887 24.284 107.008C25.1502 108.315 25.368 109.585 25.4321 110.232" stroke="#231F20" stroke-width="0.6" stroke-miterlimit="10"/>
<path d="M14.6574 109.866C14.6676 109.673 14.6574 109.467 14.6215 109.25C14.3985 107.946 13.3581 107.305 13.2017 107.212C13.3837 107.271 14.0346 107.475 14.6266 107.31C14.7906 107.263 14.9521 107.189 15.0956 107.075C15.4544 106.789 15.5954 106.349 15.6338 105.905C15.6774 105.444 15.6082 104.983 15.5672 104.697C15.4339 103.782 15.0444 102.856 14.4831 102.001C12.8224 99.4699 9.67536 97.5345 7.32274 98.171C7.06646 98.2406 6.1003 98.5035 5.7005 99.3282C5.24433 100.264 5.67488 101.617 6.78199 102.795C5.7492 102.411 4.63695 102.516 4.00908 103.135C3.09161 104.039 3.15824 106.111 4.75484 107.415C3.63491 107.542 2.66619 108.209 2.25358 109.183C1.70515 110.472 2.21001 112.106 3.53753 112.99C3.35813 113.206 3.04804 113.647 2.92759 114.281C2.73282 115.32 3.19155 116.132 3.32225 116.346" stroke="#231F20" stroke-width="0.6" stroke-miterlimit="10"/>
<path d="M13.6211 112.003C13.6211 112.003 13.6237 112.003 13.6237 112C13.7005 111.933 14.5821 111.119 14.6565 109.887" stroke="#231F20" stroke-width="0.6" stroke-miterlimit="10"/>
<path d="M12.3906 105.174C12.5521 104.932 12.7315 104.682 12.9314 104.427C13.1825 104.102 13.4311 103.808 13.6746 103.543" stroke="#231F20" stroke-width="0.6" stroke-miterlimit="10"/>
<path d="M12.9326 109.113C12.7968 109.291 12.6584 109.492 12.5251 109.727C12.2407 110.227 12.0792 110.703 11.9844 111.085" stroke="#231F20" stroke-width="0.6" stroke-miterlimit="10"/>
<path d="M17.7266 106.941C17.9623 106.848 18.3416 106.735 18.8081 106.735C19.7588 106.74 20.2893 107.227 20.5661 107.008C20.7019 106.9 20.7968 106.606 20.4995 105.717" stroke="#231F20" stroke-width="0.6" stroke-miterlimit="10"/>
<path d="M14.4806 102.002L14.2346 91.3861C14.2243 90.8474 14.6344 90.3964 15.17 90.3603C15.1751 90.3603 15.1828 90.3603 15.1879 90.3578C15.762 90.3191 16.2489 90.7727 16.2566 91.3474L16.4001 102.151L16.4411 105.12" stroke="#231F20" stroke-width="0.6" stroke-miterlimit="10"/>
<path d="M16.594 111.124C16.5453 110.001 16.494 108.88 16.4453 107.756" stroke="#231F20" stroke-width="0.6" stroke-miterlimit="10"/>
<path d="M14.6262 107.307C14.6237 107.959 14.6237 108.603 14.6211 109.25" stroke="#231F20" stroke-width="0.6" stroke-miterlimit="10"/>
<path d="M14.6484 111.664C14.651 111.073 14.6536 110.478 14.6561 109.888V109.867" stroke="#231F20" stroke-width="0.6" stroke-miterlimit="10"/>
<path d="M37.6668 95.1113C37.4156 96.2118 37.1568 98.003 37.5335 100.142C38.0871 103.302 39.7068 105.418 40.514 106.343" stroke="#231F20" stroke-width="0.6" stroke-miterlimit="10"/>
<path d="M41.9912 98.6484C41.6453 100.027 41.3275 101.478 41.0456 102.999C40.8354 104.138 40.6586 105.256 40.5125 106.344C40.1768 108.816 39.9949 111.151 39.918 113.321" stroke="#231F20" stroke-width="0.6" stroke-miterlimit="10"/>
<path d="M40.5149 75.5918C39.0259 76.5299 37.2448 77.8701 35.5072 79.7514C33.1264 82.3286 31.6554 85.0218 30.743 87.2305C30.3407 88.2021 30.046 89.0784 29.8281 89.8103" stroke="#231F20" stroke-width="0.6" stroke-miterlimit="10"/>
<path d="M30.7433 87.2305C30.4588 87.4598 28.9596 88.7201 28.8161 90.8308C28.7751 91.4184 28.8494 91.9416 28.9622 92.3746C29.0801 92.8282 29.239 93.1838 29.3568 93.4132" stroke="#231F20" stroke-width="0.6" stroke-linecap="round" stroke-linejoin="round"/>
<path d="M28.9622 92.375C28.2805 93.6018 27.6091 94.9651 26.9889 96.4728C25.3743 100.403 24.626 104.05 24.2852 107.008" stroke="#231F20" stroke-width="0.6" stroke-linecap="round" stroke-linejoin="round"/>
<path d="M21.7383 145.201C22.3969 145.874 23.1222 146.338 23.9833 146.603C25.3262 147.016 26.587 146.825 27.4302 146.603" stroke="#231F20" stroke-width="0.6" stroke-linecap="round" stroke-linejoin="round"/>
<path d="M13.7422 126.992C15.3362 132.005 16.9738 136.1 18.3039 139.159C19.5238 141.958 20.513 143.943 21.738 145.198" stroke="#231F20" stroke-width="0.6" stroke-linecap="round" stroke-linejoin="round"/>
<path d="M21.7383 145.197C22.7121 148.169 25.3902 149.97 27.9376 149.658C29.0114 149.527 29.8751 149.042 30.526 148.506C31.3974 147.79 31.8868 146.983 31.9919 146.805" stroke="#231F20" stroke-width="0.6" stroke-linecap="round" stroke-linejoin="round"/>
<path d="M30.5234 148.506C31.2743 148.656 33.3886 148.975 35.7412 147.926C37.9273 146.95 39.0831 145.339 39.5059 144.682" stroke="#231F20" stroke-width="0.6" stroke-linecap="round" stroke-linejoin="round"/>
<path d="M26.4141 141.81C26.8523 141.614 27.5724 141.225 28.2388 140.485C28.7872 139.877 29.087 139.266 29.2536 138.854" stroke="#231F20" stroke-width="0.6" stroke-linecap="round" stroke-linejoin="round"/>
<path d="M56.4961 169.246C58.331 170.228 60.3659 171.166 62.6057 171.988C63.5155 172.321 64.4176 172.622 65.312 172.89C67.985 173.697 70.5862 174.223 73.0695 174.542C74.3996 174.715 75.6938 174.828 76.947 174.89C82.7645 175.189 87.6952 174.447 91.0217 173.736" stroke="#231F20" stroke-width="0.6" stroke-linecap="round" stroke-linejoin="round"/>
<path d="M39.3288 137.938C39.5185 139.662 39.662 141.968 39.5082 144.682C39.4288 146.102 39.2673 147.633 38.988 149.251C38.2884 153.293 37.5144 154.475 37.6682 156.388C37.7912 157.903 38.6446 159.684 41.1715 161.62C41.52 161.888 41.8993 162.158 42.3145 162.431C42.9013 162.815 43.5548 163.207 44.2852 163.601C46.3688 164.73 49.0674 165.898 52.5425 167.083C52.7526 167.153 52.9653 167.225 53.1806 167.297C54.2006 167.952 55.3051 168.606 56.4968 169.243" stroke="#231F20" stroke-width="0.6" stroke-linecap="round" stroke-linejoin="round"/>
<path d="M79.9453 170.152C80.7936 170.42 82.1442 170.845 83.7972 171.376C87.262 172.484 89.7479 173.309 91.0242 173.734C91.4701 173.884 91.7699 173.982 91.9083 174.026C93.7843 174.626 96.2445 174.835 98.897 174.68C99.9067 174.621 100.947 174.51 101.99 174.348C103.748 174.075 105.522 173.657 107.205 173.1C111.931 171.541 115.955 168.905 116.952 165.361C117.287 164.165 117.006 162.013 116.444 157.714C115.952 153.954 115.301 150.911 114.819 148.9" stroke="#231F20" stroke-width="0.6" stroke-linecap="round" stroke-linejoin="round"/>
<path d="M56.8123 140.58C57.5811 145.165 57.1634 148.68 56.5944 151.121C55.9845 153.739 54.534 157.984 54.2956 162.27C54.2495 163.128 54.2162 164.62 54.8364 166.347C55.313 167.669 55.9973 168.638 56.497 169.244H56.4996" stroke="#231F20" stroke-width="0.6" stroke-linecap="round" stroke-linejoin="round"/>
<path d="M71.1758 81.5025C71.9831 80.6005 72.8057 79.5825 73.6104 78.4434C76.004 75.0518 77.4289 71.7091 78.3003 68.9824" stroke="#231F20" stroke-width="0.6" stroke-linecap="round" stroke-linejoin="round"/>
<path d="M52.317 80.5838C51.9659 80.1225 51.5405 79.4421 51.2534 78.5452C50.6717 76.7334 51.0228 75.1536 51.2227 74.4629" stroke="#231F20" stroke-width="0.6" stroke-linecap="round" stroke-linejoin="round"/>
<path d="M74.5234 84.3579C74.977 83.5821 75.6485 82.5126 76.5506 81.2987C77.5783 79.9173 78.0908 79.2266 78.324 79.3117C78.6828 79.438 78.6598 81.1338 76.8043 88.435" stroke="#231F20" stroke-width="0.6" stroke-linecap="round" stroke-linejoin="round"/>
<path d="M64.2996 84.6467C62.5748 83.9792 60.6604 84.9018 60.1095 86.5487C59.5995 88.0692 60.3709 89.8243 61.9341 90.4918" stroke="#231F20" stroke-width="0.6" stroke-linecap="round" stroke-linejoin="round"/>
<path d="M63.3521 110.815C61.8683 110.748 60.6023 111.24 60.3793 111.969C60.1102 112.843 61.225 114.418 63.4879 115.028" stroke="#231F20" stroke-width="0.6" stroke-linecap="round" stroke-linejoin="round"/>
<path d="M55.1719 111.902C56.3764 112.224 57.5809 112.547 58.7854 112.866" stroke="#231F20" stroke-width="0.6" stroke-linecap="round" stroke-linejoin="round"/>
<path d="M55.5117 91.9188C55.891 91.8698 56.7982 91.6997 57.6081 90.9678C58.0566 90.5606 58.3154 90.125 58.464 89.8184H58.4666" stroke="#231F20" stroke-width="0.6" stroke-linecap="round" stroke-linejoin="round"/>
<path d="M65.8539 97.0171C64.8211 96.6924 63.4321 96.1048 62.0687 94.9786C61.4229 94.4425 60.9693 93.94 60.8539 94.0276C60.7207 94.1229 61.0513 94.9683 63.0836 98.2413" stroke="#231F20" stroke-width="0.6" stroke-linecap="round" stroke-linejoin="round"/>
<path d="M60.8325 146.447C60.0765 146.282 59.6049 146.326 59.4127 146.584C59.0283 147.102 59.7946 148.486 61.7115 150.73" stroke="#231F20" stroke-width="0.6" stroke-linecap="round" stroke-linejoin="round"/>
<path d="M56.4297 168.072C56.7244 168.402 57.1447 168.67 57.6726 168.794" stroke="#231F20" stroke-width="0.6" stroke-linecap="round" stroke-linejoin="round"/>
<path d="M58.0115 165.325C57.0812 165.225 56.2432 165.65 55.9844 166.279C55.8101 166.701 55.8819 167.248 56.174 167.732C56.2432 167.848 56.3278 167.962 56.4226 168.067" stroke="#231F20" stroke-width="0.6" stroke-linecap="round" stroke-linejoin="round"/>
<path d="M56.1734 167.733C56.0812 167.543 56.0273 167.308 56.0273 167.053C56.0273 166.416 56.3656 165.898 56.7808 165.898C57.196 165.898 57.5368 166.416 57.5368 167.053C57.5368 167.69 57.1985 168.208 56.7808 168.208C56.6552 168.208 56.5348 168.159 56.4297 168.074C56.4271 168.074 56.4246 168.071 56.422 168.068C56.3246 167.986 56.2401 167.873 56.1734 167.733Z" stroke="#231F20" stroke-width="0.6" stroke-linecap="round" stroke-linejoin="round"/>
<path d="M59.2907 146.486C59.2907 147.125 58.9524 147.641 58.5373 147.641C58.1221 147.641 57.7812 147.125 57.7812 146.486C57.7812 145.847 58.1195 145.334 58.5373 145.334C58.955 145.334 59.2907 145.849 59.2907 146.486Z" stroke="#231F20" stroke-width="0.6" stroke-linecap="round" stroke-linejoin="round"/>
<path d="M61.2716 113.54C61.6892 113.54 62.0277 113.023 62.0277 112.385C62.0277 111.747 61.6892 111.23 61.2716 111.23C60.8541 111.23 60.5156 111.747 60.5156 112.385C60.5156 113.023 60.8541 113.54 61.2716 113.54Z" stroke="#231F20" stroke-width="0.6" stroke-linecap="round" stroke-linejoin="round"/>
<path d="M61.5823 87.4612C61.5823 88.0978 61.2415 88.6132 60.8263 88.6132C60.4112 88.6132 60.0703 88.0978 60.0703 87.4612C60.0703 86.8247 60.4086 86.3066 60.8263 86.3066C61.2441 86.3066 61.5823 86.8221 61.5823 87.4612Z" stroke="#231F20" stroke-width="0.6" stroke-linecap="round" stroke-linejoin="round"/>
<path d="M52.5422 167.084C52.45 167.937 52.3731 168.826 52.3193 169.746C52.2091 171.63 52.2039 173.403 52.268 175.048C53.1496 175.751 54.144 176.46 55.2588 177.138C58.8697 179.336 62.3756 180.385 65.0947 180.911C65.1664 178.238 65.2407 175.563 65.3151 172.89" stroke="#231F20" stroke-width="0.6" stroke-linecap="round" stroke-linejoin="round"/>
<path d="M76.7025 184.637C76.6846 184.008 76.6718 183.372 76.6666 182.727C76.6641 182.488 76.6641 182.251 76.6641 182.013C76.6641 179.537 76.7666 177.161 76.9485 174.893" stroke="#231F20" stroke-width="0.6" stroke-linecap="round" stroke-linejoin="round"/>
<path d="M98.8945 174.682C99.2431 176.143 99.5378 177.723 99.7274 179.419C99.7761 179.813 99.8146 180.215 99.8479 180.622C99.8889 181.104 99.9196 181.581 99.9401 182.047" stroke="#231F20" stroke-width="0.6" stroke-linecap="round" stroke-linejoin="round"/>
<path d="M101.988 174.348C102.247 175.649 102.465 177.09 102.588 178.652C102.601 178.786 102.611 178.92 102.621 179.056C102.678 179.884 102.703 180.677 102.708 181.435" stroke="#231F20" stroke-width="0.6" stroke-linecap="round" stroke-linejoin="round"/>
<path d="M73.0303 177.422C73.0457 176.461 73.0585 175.502 73.0713 174.541C73.0713 174.536 72.9022 177.025 73.1533 180.007C73.2097 180.69 73.2789 181.317 73.3532 181.876C73.4532 182.587 73.5557 183.19 73.6428 183.657" stroke="#231F20" stroke-width="0.6" stroke-linecap="round" stroke-linejoin="round"/>
<path d="M44.2835 163.602C44.0041 164.478 43.7427 165.488 43.548 166.619C43.4147 167.398 43.3301 168.135 43.2814 168.826C43.2353 169.485 43.2225 170.101 43.2276 170.663" stroke="#231F20" stroke-width="0.6" stroke-linecap="round" stroke-linejoin="round"/>
<path d="M42.312 162.432C42.0326 163.396 41.7687 164.602 41.6559 166.006C41.6072 166.604 41.5918 167.171 41.5995 167.705C41.6123 168.697 41.7072 169.573 41.8225 170.305" stroke="#231F20" stroke-width="0.6" stroke-linecap="round" stroke-linejoin="round"/>
<path d="M43.2812 168.826C43.9578 169.664 44.8112 170.581 45.8799 171.478C48.212 173.439 50.5749 174.481 52.2663 175.048" stroke="#231F20" stroke-width="0.6" stroke-linecap="round" stroke-linejoin="round"/>
<path d="M41.1711 161.619C41.066 162.196 40.9814 163.039 41.1173 164.034C41.2274 164.854 41.4504 165.521 41.658 166.006" stroke="#231F20" stroke-width="0.6" stroke-linecap="round" stroke-linejoin="round"/>
<path d="M41.5992 167.705C41.1584 168.11 40.6227 168.708 40.1999 169.543C39.672 170.589 39.5156 171.633 39.5156 172.506C39.5156 173.45 39.7001 174.195 39.795 174.537" stroke="#231F20" stroke-width="0.6" stroke-linecap="round" stroke-linejoin="round"/>
<path d="M55.5107 181.98C54.6521 184.571 53.8218 187.395 53.0786 190.444C52.2841 193.694 51.6921 196.766 51.2539 199.619" stroke="#231F20" stroke-width="0.6" stroke-linecap="round" stroke-linejoin="round"/>
<path d="M65.0938 180.91C66.4623 181.168 67.9359 181.397 69.5017 181.573C70.8497 181.722 72.1388 181.82 73.3536 181.877H73.3587" stroke="#231F20" stroke-width="0.6" stroke-linecap="round" stroke-linejoin="round"/>
<path d="M76.6641 182.013C79.9623 182.054 83.6502 181.926 87.6507 181.503C92.1509 181.029 96.2 180.268 99.729 179.418" stroke="#231F20" stroke-width="0.6" stroke-linecap="round" stroke-linejoin="round"/>
<path d="M102.59 178.653C104.004 178.506 105.04 178.081 105.663 177.766C106.475 177.354 107.293 176.926 107.487 176.135C107.539 175.926 107.5 175.586 107.421 174.911C107.41 174.831 107.228 173.295 107.205 173.102" stroke="#231F20" stroke-width="0.6" stroke-linecap="round" stroke-linejoin="round"/>
<path d="M107.422 174.91C107.909 175.049 108.772 175.39 109.247 176.201C109.772 177.101 109.698 178.377 109.034 179.572C108.708 180.163 108.237 180.735 107.624 181.232" stroke="#231F20" stroke-width="0.6" stroke-linecap="round" stroke-linejoin="round"/>
<path d="M109.031 179.572C109.113 180.492 109.246 182.177 109.313 184.291C109.457 188.971 109.167 192.44 109.108 193.262C108.416 203.043 113.898 213.068 112.893 227.044C112.452 233.193 112.235 236.57 110.259 239.685C98.4854 258.254 35.9923 250.118 28.2373 225.923C26.3716 220.096 28.0759 211.638 31.4818 194.723C32.3788 190.278 33.7575 184.667 36.6535 178.206C37.7221 175.817 38.7498 173.876 39.5161 172.505C39.5161 172.503 39.5186 172.503 39.5186 172.5" stroke="#231F20" stroke-width="0.6" stroke-linecap="round" stroke-linejoin="round"/>
<path d="M55.7148 207.265C56.9962 205.912 58.7235 204.423 60.9865 203.188C68.4749 199.103 76.2067 200.889 78.6286 201.557" stroke="#231F20" stroke-width="0.6" stroke-linecap="round" stroke-linejoin="round"/>
<path d="M45.2383 203.051C45.7662 204.334 46.635 206.053 48.0778 207.808C49.1568 209.123 50.2613 210.097 51.1865 210.798" stroke="#231F20" stroke-width="0.6" stroke-linecap="round" stroke-linejoin="round"/>
<path d="M68.2245 24.5764L71.0538 23.0301L69.2009 19.6668C69.0497 19.7106 68.8934 19.7338 68.7396 19.7338C68.1835 19.7338 67.6504 19.4452 67.3455 18.9529L62.7171 11.4404C55.7079 0.059401 40.7644 -3.30644 29.5959 3.97934C22.6533 8.50751 18.7656 16.1489 18.7656 24.0301C18.7656 27.3547 19.4576 30.7205 20.903 33.9137L23.3376 39.2975C24.232 41.2742 23.6682 43.6117 21.9665 44.9544L21.4642 45.3513L23.5862 48.9981L31.2053 44.8307L54.9904 31.8184L68.2245 24.5764Z" stroke="#231F20" stroke-width="0.6" stroke-linecap="round" stroke-linejoin="round"/>
<path d="M32.193 8.24805C26.8676 16.3637 28.9024 25.9947 34.5251 29.5564C40.1222 33.1027 47.4081 29.4559 47.8079 29.2498" stroke="#231F20" stroke-width="0.6" stroke-linecap="round" stroke-linejoin="round"/>
<path d="M21.4453 28.0273C23.1624 30.4525 24.0824 32.6509 24.5873 34.1431C25.3868 36.5064 25.4791 38.0707 25.4996 38.5269C25.556 39.7897 25.4304 40.8438 25.2972 41.5861" stroke="#231F20" stroke-width="0.6" stroke-linecap="round" stroke-linejoin="round"/>
</g>
<defs>
<clipPath id="clip0_8626_22728">
<rect width="133" height="250" fill="white" transform="translate(0.5)"/>
</clipPath>
</defs>
</svg>
