<svg width="175" height="232" viewBox="0 0 175 232" fill="none" xmlns="http://www.w3.org/2000/svg">
<g clip-path="url(#clip0_8626_22015)">
<path d="M80.9591 155.248L80.3008 231.715L85.9283 231.842L88.7224 155.424L80.9591 155.248ZM84.3205 228.068L82.0785 228.016L82.7551 159.028L86.7565 159.12L84.3205 228.068Z" fill="#FF8B63" stroke="#383940" stroke-width="0.6" stroke-miterlimit="10"/>
<path d="M80.1602 222.982L86.5461 223.128L86.082 231.845L80.2512 231.714L80.1602 222.982Z" fill="#383940" stroke="#383940" stroke-width="0.6" stroke-miterlimit="10"/>
<path d="M87.3574 122.999L83.1992 122.904L82.4735 154.964L86.6317 155.059L87.3574 122.999Z" fill="#FF8B63" stroke="#383940" stroke-width="0.6" stroke-miterlimit="10"/>
<path d="M78.9141 76.0254L79.1446 158.946L90.2116 159.198L94.1828 76.3721L78.9141 76.0254ZM88.1669 155.098L81.3714 154.943L81.3289 80.1343L91.5829 80.3654L88.1669 155.095V155.098Z" fill="#FF8B63" stroke="#383940" stroke-width="0.6" stroke-miterlimit="10"/>
<path d="M77.4844 76.4126L95.3954 76.4004L94.5248 83.134L78.0699 82.763L77.4844 76.4126Z" fill="#383940" stroke="#383940" stroke-width="0.6" stroke-miterlimit="10"/>
<path d="M78.6914 149.473L91.248 149.759L90.5077 159.205L79.0433 158.944L78.6914 149.473Z" fill="#383940" stroke="#383940" stroke-width="0.6" stroke-miterlimit="10"/>
<path d="M78.2109 121.717L92.791 122.048L92.3754 126.769L78.4597 126.455L78.2109 121.717Z" fill="#383940" stroke="#383940" stroke-width="0.6" stroke-miterlimit="10"/>
<path d="M83.2678 71.7129H78.25V78.9301H83.2678V71.7129Z" fill="#FF8B63"/>
<path d="M83.1154 71.8647V78.7778H78.401V71.8647H83.1154ZM83.4188 71.5605H78.0977V79.0819H83.4188V71.5605Z" fill="#383940"/>
<path d="M78.4176 80.2925C77.7957 80.2925 77.2891 79.7846 77.2891 79.1611V77.0078H84.1877V79.1611C84.1877 79.7846 83.6811 80.2925 83.0592 80.2925H78.4176Z" fill="#FF8B63"/>
<path d="M84.0354 77.1596V79.1608C84.0354 79.7022 83.5985 80.1402 83.0585 80.1402H78.4169C77.8769 80.1402 77.4401 79.7022 77.4401 79.1608V77.1596H84.0354ZM84.3388 76.8555H77.1367V79.1608C77.1367 79.8695 77.7101 80.4443 78.4169 80.4443H83.0585C83.7654 80.4443 84.3388 79.8695 84.3388 79.1608V76.8555Z" fill="#383940"/>
<path d="M69.55 53.7643V52.2414H76.1672V53.7643H69.55Z" fill="#F4F3F1" stroke="#383940" stroke-width="0.6"/>
<path d="M71.4894 51.3977H84.2661V57.3123H69.1813L71.4894 51.3977Z" fill="#F4F3F1" stroke="#383940" stroke-width="0.6"/>
<path d="M73.8703 67.9219V57.8527H86.7825V67.9219H73.8703Z" fill="#FF8B63" stroke="#383940" stroke-width="0.6"/>
<path d="M71.2102 64.3044V61.343H89.4708V64.3044H71.2102Z" fill="#FF8B63" stroke="#383940" stroke-width="0.6"/>
<path d="M89.7708 67.4277H70.9102V69.9855H89.7708V67.4277Z" fill="#383940"/>
<path d="M89.6145 67.5795V69.8332H71.0573V67.5795H89.6145ZM89.9179 67.2754H70.7539V70.1373H89.9179V67.2754Z" fill="#383940"/>
<path d="M69.2766 75.5727V71.5478C69.2766 70.6422 70.0106 69.9074 70.9121 69.9074H89.5634C90.4648 69.9074 91.1989 70.6422 91.1989 71.5478V75.5727H69.2766Z" fill="#FF8B63" stroke="#383940" stroke-width="0.6"/>
<path d="M69.55 45.3591V34.5813H77.2867V45.3591H69.55Z" fill="#F4F3F1" stroke="#383940" stroke-width="0.6"/>
<path d="M73.8289 30.1418H86.5043V57.3127H71.2555L73.8289 30.1418Z" fill="#FF8B63" stroke="#383940" stroke-width="0.6"/>
<path d="M75.6694 65.1836H71.9531V66.8503H75.6694V65.1836Z" fill="#383940"/>
<path d="M75.5171 65.3354V66.6979H72.1042V65.3354H75.5171ZM75.8205 65.0312H71.8008V67.0021H75.8205V65.0312Z" fill="#383940"/>
<path d="M85.7202 65.1836H82.0039V66.8503H85.7202V65.1836Z" fill="#383940"/>
<path d="M85.5679 65.3354V66.6979H82.1549V65.3354H85.5679ZM85.8712 65.0312H81.8516V67.0021H85.8712V65.0312Z" fill="#383940"/>
<path d="M76.6211 57.7645V45.3496H83.8626V57.7645" stroke="#383940" stroke-width="0.6" stroke-miterlimit="10"/>
<path d="M33.3513 155.246L4.08203 231.713L9.66104 231.84L41.0479 155.422L33.3513 155.246ZM9.46688 228.066L7.24317 228.014L33.7336 159.027L37.6987 159.118L9.46688 228.066Z" fill="#FF8B63" stroke="#383940" stroke-width="0.6" stroke-miterlimit="10"/>
<path d="M7.21146 222.98L13.5398 223.126L9.81439 231.843L4.03516 231.712L7.21146 222.98Z" fill="#383940" stroke="#383940" stroke-width="0.6" stroke-miterlimit="10"/>
<path d="M39.1072 155.052L34.9844 154.958L47.7048 122.898L51.8276 122.993L39.1072 155.052Z" fill="#FF8B63" stroke="#383940" stroke-width="0.6" stroke-miterlimit="10"/>
<path d="M60.9506 76.0254L30.1523 158.946L41.1253 159.198L76.0889 76.3721L60.9506 76.0254ZM40.6156 155.095L33.8777 154.94L61.8274 80.1313L71.9934 80.3624L40.6126 155.092L40.6156 155.095Z" fill="#FF8B63" stroke="#383940" stroke-width="0.6" stroke-miterlimit="10"/>
<path d="M59.6671 75.9941L78.0514 76.1432L76.6498 83.1688L57.5859 82.7612L59.6671 75.9941Z" fill="#383940" stroke="#383940" stroke-width="0.6" stroke-miterlimit="10"/>
<path d="M33.2462 149.471L45.6965 149.757L41.422 159.203L30.0547 158.942L33.2462 149.471Z" fill="#383940" stroke="#383940" stroke-width="0.6" stroke-miterlimit="10"/>
<path d="M43.1518 121.715L57.6045 122.046L55.4263 126.767L41.6289 126.453L43.1518 121.715Z" fill="#383940" stroke="#383940" stroke-width="0.6" stroke-miterlimit="10"/>
<path d="M173.973 211.233C174.085 211.643 174.022 212.03 173.937 212.303L173.7 212.313C173.427 212.154 173.169 212.078 173.011 212.033C172.259 211.82 171.498 211.619 170.742 211.44L170.891 210.831V209.627H171.731C172.32 209.688 172.848 209.895 173.245 210.199C173.606 210.472 173.861 210.828 173.973 211.233Z" fill="#7099ED"/>
<path d="M171.34 192.856C171.637 193.227 172.065 193.85 172.329 194.708C172.878 196.481 172.387 198.127 171.944 199.121C171.756 199.544 171.577 199.851 171.489 200C171.304 200.313 171.04 200.712 170.666 201.138L170.29 200.724C170.384 200.541 171.073 199.155 170.409 197.716C170.023 196.883 169.377 196.442 169.089 196.271C170.427 186.381 168.804 180.931 166.929 177.743C166.565 177.123 165.843 176 165.215 174.544L165.788 174.495C165.946 174.355 167.044 173.351 167.745 171.867C168.34 174.133 168.892 176.514 169.389 179.005C170.366 183.914 170.979 188.555 171.34 192.856Z" fill="#7099ED"/>
<path d="M165.791 174.496L165.218 174.545C165.142 174.371 165.069 174.195 165 174.016C165.033 173.38 164.984 172.884 164.772 172.811C164.72 172.793 164.66 172.802 164.59 172.835C164.25 171.707 164.026 170.454 164.053 169.134L164.472 169.14C165.797 168.17 166.726 167.267 167.36 166.439H167.363C167.733 166.963 168.091 167.644 168.252 168.48C168.494 169.742 168.206 170.907 167.748 171.868C167.047 173.353 165.949 174.356 165.791 174.496Z" fill="#7099ED"/>
<path d="M152.37 193.933C151.684 190.642 151.026 187.266 150.407 183.799C149.831 180.575 149.309 177.409 148.839 174.31C148.235 172.683 147.561 170.661 146.967 168.319C145.377 162.084 145.878 159.715 145.125 149.87C145.092 149.447 145.059 149.027 145.025 148.617C144.786 151.384 144.488 154.237 144.124 157.169C143.794 159.864 143.423 162.479 143.023 165.016V165.022C143.202 164.943 143.329 164.931 143.405 164.988C143.645 165.165 143.411 165.98 142.708 167.434C142.714 171.105 142.72 174.775 142.726 178.443H142.744C142.944 178.687 143.078 178.93 143.166 179.158C143.53 180.095 143.266 181.108 142.838 181.968L142.917 181.99C143.126 191.403 143.335 200.816 143.542 210.226C141.922 209.526 138.797 209.101 133.527 207.622C130.151 206.674 127.782 205.825 126.41 205.904L125.418 185.107C124.924 184.493 124.654 183.781 124.684 183.066C124.705 182.51 124.909 182.038 125.13 181.679C124.76 174.748 124.435 166.126 124.441 156.929C124.451 147.789 124.781 143.3 125.045 140.469C125.224 138.559 125.382 137.281 125.764 133.464C126.289 128.194 126.653 123.899 126.884 121.074C126.165 119.103 127.184 117.29 127.36 116.989C126.856 114.437 126.529 111.369 126.72 107.917C126.835 105.836 127.123 103.954 127.478 102.302C127.463 101.861 127.46 101.393 127.481 100.9C127.524 99.8175 127.657 98.8564 127.818 98.0413C128.07 98.1234 128.343 98.1964 128.64 98.2512C128.916 98.3029 129.186 98.3333 129.444 98.3424C129.292 99.0359 129.162 99.8084 129.08 100.66C129.028 101.204 129.001 101.721 128.992 102.214C129.298 102.36 129.684 102.515 130.142 102.634C130.624 102.759 131.055 102.81 131.407 102.825C131.431 102.914 131.455 102.993 131.48 103.066C131.61 103.467 131.701 103.592 131.762 103.668C132.017 103.984 132.381 104.124 132.796 104.191C132.918 106.119 133.133 107.71 133.321 108.86C133.986 112.95 134.702 113.96 135.232 114.532C136.015 115.374 136.913 115.806 137.511 116.034C137.041 113.689 136.643 111.131 136.382 108.379C136.227 106.77 136.13 105.225 136.082 103.747C136.24 103.625 136.361 103.531 136.476 103.358C136.588 103.187 136.646 103.008 136.67 102.819C137.104 102.78 137.547 102.728 138.002 102.664C140.132 102.363 142.031 101.834 143.675 101.223C143.511 100.909 143.354 100.575 143.202 100.219C142.635 98.8777 142.359 97.6581 142.219 96.7183C143.147 96.3594 144.021 95.9671 144.816 95.5839C145.022 96.3199 145.219 97.0772 145.414 97.8528C145.653 98.8199 145.869 99.7628 146.06 100.687C147.231 100.404 148.52 100.018 149.882 99.4951C152.136 98.6314 154.014 97.6095 155.519 96.6514C155.282 95.8637 155.021 95.0608 154.742 94.2426C154.448 93.3758 154.148 92.5395 153.841 91.7305C154.679 91.624 155.167 91.4415 155.282 91.0735C155.382 90.7603 155.188 90.377 154.839 89.9756C155.149 89.8813 155.498 89.7596 155.877 89.5954C156.441 90.5808 157.069 91.9069 157.503 93.5492C157.691 94.2578 157.815 94.9239 157.897 95.5352H157.9C158.577 95.1916 159.305 94.7688 160.045 94.2426C162.208 92.7037 163.637 90.9002 164.55 89.4707H165.005C165.102 89.5832 165.212 89.711 165.333 89.857C165.633 90.228 165.994 90.7025 166.364 91.2742C167.663 93.2755 168.973 96.2956 169.089 103.887C169.131 106.734 169.01 110.432 168.394 114.757C168.67 115.11 168.949 115.581 169.113 116.171C169.51 117.604 168.986 118.93 168.506 119.76C168.461 120.77 168.412 121.782 168.364 122.798C167.927 131.731 167.399 140.587 166.786 149.368C167.089 149.842 167.363 150.511 167.284 151.333C167.138 152.832 165.955 153.601 165.815 153.69C165.849 154.325 165.931 155.031 166.082 155.785C166.847 159.572 168.655 160.782 168.661 163.063C168.664 163.963 168.388 165.101 167.35 166.439C166.716 167.266 165.788 168.17 164.462 169.14L164.044 169.134C164.016 170.454 164.241 171.707 164.581 172.835C164.705 173.246 164.845 173.641 164.99 174.015C165.06 174.195 165.133 174.371 165.209 174.544C165.837 176.001 166.559 177.123 166.923 177.744C168.797 180.931 170.421 186.381 169.083 196.272C169.371 196.442 170.017 196.883 170.402 197.717C171.067 199.155 170.378 200.542 170.284 200.725L170.66 201.138C171.033 200.712 171.297 200.314 171.482 200.001C171.57 199.852 171.749 199.545 171.937 199.122C172.159 200.691 172.368 202.288 172.562 203.912C172.82 206.047 173.042 208.143 173.236 210.199C172.838 209.894 172.311 209.688 171.722 209.627H170.882V210.831L170.733 211.439C165.263 210.107 160.042 209.572 159.52 209.548C157.606 209.456 156.332 209.441 155.525 209.709V209.703C155.373 208.015 155.143 206.19 154.8 204.253C154.424 202.127 153.966 200.168 153.477 198.398C153.247 198.209 153.01 197.972 152.801 197.677C151.663 196.071 152.285 194.161 152.364 193.933H152.37Z" fill="#7099ED"/>
<path d="M164.732 89.1889C164.675 89.2801 164.617 89.3744 164.556 89.4718C163.643 90.9012 162.214 92.7047 160.051 94.2437C159.311 94.7698 158.583 95.1926 157.906 95.5363H157.903C157.821 94.925 157.697 94.2589 157.509 93.5503C157.075 91.9079 156.447 90.5819 155.883 89.5965C156.356 89.3957 156.878 89.1342 157.415 88.7966C158.637 88.2917 160.206 87.4766 161.771 86.1414C162.475 85.5392 163.067 84.931 163.549 84.3622C163.558 84.3531 163.564 84.347 163.57 84.3379C163.861 85.1864 164.141 86.1384 164.371 87.1846C164.526 87.8872 164.644 88.5593 164.732 89.1889Z" fill="#231F20"/>
<path d="M164.09 83.8959C164.49 84.4068 165.252 85.5261 165.488 87.1441C165.658 88.3089 165.488 89.273 165.337 89.857C165.215 89.711 165.106 89.5833 165.009 89.4707H164.554C164.614 89.3734 164.672 89.2791 164.73 89.1879C164.642 88.5583 164.523 87.8862 164.369 87.1836C164.138 86.1374 163.859 85.1854 163.568 84.3369C163.562 84.346 163.556 84.3521 163.547 84.3612L163.383 84.2183C163.541 84.1027 163.701 83.9841 163.859 83.8594L164.09 83.8959Z" fill="#7099ED"/>
<path d="M163.384 84.2188L163.548 84.3617C163.066 84.9304 162.474 85.5387 161.77 86.1409C160.205 87.4761 158.637 88.2912 157.414 88.796C157.557 88.7048 157.702 88.6075 157.848 88.5071C158.992 87.7072 159.805 86.807 160.369 86.0436C160.548 85.9584 161.91 85.2893 163.384 84.2188Z" fill="#7099ED"/>
<path d="M154.747 94.2427C155.026 95.0608 155.287 95.8637 155.523 96.6514C154.019 97.6095 152.141 98.6314 149.887 99.4951C148.524 100.018 147.235 100.405 146.064 100.687C145.873 99.7628 145.658 98.8199 145.418 97.8528C145.224 97.0772 145.027 96.3199 144.82 95.5839C146.013 95.0091 147.026 94.4495 147.766 94.0419C149.213 93.242 150.354 92.4695 151.121 91.9099C152.253 91.8613 153.166 91.8217 153.846 91.7305C154.152 92.5395 154.452 93.3759 154.747 94.2427Z" fill="#231F20"/>
<path d="M126.404 214.301C126.362 214.654 126.307 215.022 126.24 215.402C124.806 215.031 124.287 214.444 124.09 213.957C123.462 212.427 124.915 211.168 125.185 208.984C125.403 207.239 124.912 206.849 125.355 206.338C125.591 206.062 125.943 205.928 126.41 205.904C127.782 205.824 130.151 206.673 133.527 207.622C138.797 209.1 141.922 209.526 143.542 210.225C144.315 210.557 144.746 210.949 144.904 211.551C145.292 213.039 143.712 214.669 144.312 216.685C144.379 216.907 144.622 217.625 144.312 218.291C144.133 218.674 143.839 218.896 143.639 219.042C143.002 219.511 142.301 219.599 141.873 219.605C141.758 219.188 141.643 218.778 141.524 218.37C141.4 218.325 141.276 218.279 141.151 218.236C138.391 217.245 135.336 216.299 132.005 215.481C130.063 215.006 128.194 214.617 126.404 214.301Z" fill="#F4F3F1"/>
<path d="M143.172 224.714C143.736 227.169 144.203 229.547 144.586 231.847C134.432 231.84 124.278 231.831 114.124 231.825C113.132 226.746 114.282 224.83 115.204 224.006C116.123 223.185 117.088 223.197 121.687 221.658C122.949 221.235 123.978 220.867 124.651 220.618C124.794 220.32 124.948 219.973 125.1 219.59C125.161 219.435 125.358 218.912 125.585 218.169C125.883 217.193 126.095 216.262 126.244 215.402C126.31 215.022 126.365 214.654 126.408 214.301C128.197 214.617 130.066 215.006 132.008 215.481C135.339 216.299 138.394 217.245 141.154 218.236C141.346 218.668 141.531 219.124 141.716 219.602C141.989 220.317 142.25 221.083 142.489 221.898C142.732 222.847 142.959 223.787 143.172 224.714Z" fill="#231F20"/>
<path d="M138.008 102.665C137.553 102.729 137.11 102.78 136.677 102.82C136.746 102.266 136.51 101.634 136.367 100.94C136.255 100.399 136.164 99.6324 136.258 98.6592L136.231 98.1573C138.29 98.0235 140.366 97.4365 142.225 96.7188C142.365 97.6585 142.641 98.8781 143.208 100.219C143.36 100.575 143.518 100.91 143.681 101.223C142.037 101.834 140.138 102.364 138.008 102.665Z" fill="#231F20"/>
<path d="M131.414 102.825C131.265 102.275 131.131 101.396 131.247 99.7351C131.292 99.1146 131.313 98.7983 131.407 98.6524C131.747 98.1201 132.524 97.9863 133.252 97.9924C133.753 98.0897 134.262 98.1475 134.775 98.1718C135.257 98.1962 135.743 98.1901 136.231 98.1566L136.258 98.6584C136.164 99.6317 136.255 100.398 136.368 100.939C136.51 101.633 136.747 102.266 136.677 102.819C136.653 103.008 136.595 103.187 136.483 103.357C136.368 103.531 136.246 103.625 136.089 103.747C135.324 104.334 134.417 104.303 133.689 104.267C133.382 104.252 133.079 104.236 132.803 104.191C132.387 104.124 132.023 103.984 131.769 103.668C131.708 103.592 131.617 103.467 131.486 103.065C131.462 102.992 131.438 102.913 131.414 102.825Z" fill="white"/>
<path d="M123.325 83.5239C120.273 73.8675 116.696 63.9618 112.504 53.8735C111.83 52.2555 111.15 50.6496 110.465 49.062C111.924 47.7299 113.389 46.3734 114.861 44.9896C117.816 42.2098 120.795 39.3174 123.786 36.3064C125.093 34.9925 126.377 33.6817 127.639 32.377C128.506 31.4797 129.359 30.5856 130.205 29.6914C131.131 30.2297 132.204 30.987 133.266 32.0363C133.703 32.4682 134.085 32.9001 134.419 33.3137C134.225 33.554 134.034 33.7973 133.84 34.0375C134.252 34.2261 134.738 34.4938 135.247 34.8648C135.66 35.1629 135.997 35.47 136.273 35.7468L136.227 35.9445C136.652 36.0357 137.107 36.1544 137.586 36.3064C143.736 38.256 147.045 43.5388 151.368 51.048C155.458 58.1466 158.892 64.5244 161.698 69.9502L162.162 69.9381C162.496 69.9898 162.954 70.0841 163.479 70.2757C163.646 70.3365 164.58 70.6802 165.19 71.2003C165.933 71.8329 166.131 72.6723 166.452 74.1474C167.059 76.9363 167.359 78.3293 167.362 78.4235C167.38 80.5829 165.621 82.4929 163.861 83.8585C163.704 83.9832 163.543 84.1018 163.385 84.2174C161.911 85.288 160.548 85.9571 160.369 86.0422C159.805 86.8056 158.992 87.7059 157.848 88.5057C157.703 88.6061 157.557 88.7034 157.415 88.7947C156.878 89.1323 156.356 89.3938 155.883 89.5946C155.503 89.7588 155.155 89.8804 154.845 89.9747C155.194 90.3762 155.388 90.7594 155.288 91.0727C155.173 91.4407 154.684 91.6232 153.847 91.7296C153.167 91.8208 152.254 91.8604 151.123 91.9091C150.355 92.4687 149.215 93.2412 147.767 94.0411C147.027 94.4486 146.014 95.0082 144.822 95.583C144.027 95.9663 143.153 96.3586 142.225 96.7175C140.365 97.4352 138.29 98.0222 136.23 98.1561C135.742 98.1895 135.256 98.1956 134.774 98.1713C134.574 98.1287 133.931 97.9979 133.251 97.9918C132.951 97.9371 132.653 97.8641 132.359 97.7789C131.853 98.007 130.791 98.4054 129.45 98.3446C129.192 98.3325 128.922 98.302 128.646 98.2503C128.349 98.1956 128.076 98.1226 127.824 98.0374C127.502 98.3598 126.307 99.4882 125.206 99.1749C124.059 98.8495 123.719 97.1433 123.364 95.5648C122.809 93.0769 123.055 91.3069 123.206 88.746C123.282 87.4625 123.352 85.6894 123.325 83.527V83.5239Z" fill="#7099ED"/>
<path d="M133.687 104.268C134.415 104.305 135.322 104.335 136.086 103.748C136.135 105.226 136.232 106.771 136.387 108.38C136.648 111.133 137.045 113.69 137.515 116.035C136.918 115.807 136.02 115.375 135.237 114.533C134.706 113.961 133.99 112.951 133.326 108.861C133.138 107.711 132.922 106.12 132.801 104.195C133.077 104.238 133.38 104.253 133.687 104.268Z" fill="#7099ED"/>
<path d="M133.249 97.9922C132.521 97.9861 131.745 98.1199 131.405 98.6522C131.311 98.7982 131.29 99.1145 131.244 99.7349C131.129 101.396 131.262 102.274 131.411 102.825C131.059 102.81 130.628 102.758 130.146 102.633C129.688 102.515 129.302 102.36 128.996 102.214C129.005 101.721 129.033 101.204 129.084 100.659C129.166 99.8079 129.296 99.0354 129.448 98.345C130.789 98.4058 131.851 98.0074 132.357 97.7793C132.652 97.8645 132.949 97.9375 133.249 97.9922Z" fill="#231F20"/>
<path d="M127.353 32.0439H127.347L121.749 31.7458C123.066 29.9119 122.772 26.8127 121.261 25.8577C120.751 25.5353 119.887 25.3224 119.101 25.6783C118.382 26.0037 118.06 26.6545 117.96 26.8826V29.3492C117.502 29.4678 117.041 29.5895 116.58 29.7081C116.48 28.6375 116.222 27.1989 115.561 25.6174C115.178 24.705 114.745 23.9386 114.332 23.3181L123.488 22.2871C123.603 24.0146 124.034 26.6819 125.581 29.4678C126.148 30.4836 126.761 31.3383 127.353 32.0439Z" fill="#231F20"/>
<path d="M114.332 23.3176L97.6071 25.2033L88.3846 26.2404L88.1602 24.1206L90.8116 23.6248C92.5742 23.2994 93.8362 21.803 93.812 20.0786L93.7301 14.525C93.7301 14.455 93.727 14.3881 93.727 14.3182C93.727 6.8759 99.7308 0.683636 107.476 0.184848C115.512 -0.335229 122.493 5.44645 123.151 13.1655L123.512 17.4143C123.555 17.8918 123.779 18.3146 124.122 18.6157C124.465 18.9198 124.92 19.1023 125.42 19.1023V22.0707L123.488 22.2866L114.332 23.3176Z" fill="#F4F3F1"/>
<path d="M127.347 32.0472H127.353C127.447 32.1597 127.544 32.2723 127.638 32.3787C126.376 33.6835 125.093 34.9943 123.785 36.3082C120.794 39.3191 117.815 42.2115 114.86 44.9913C114.663 44.7115 114.463 44.4348 114.266 44.1549C115.597 43.5771 116.838 42.692 117.842 41.4998C120.834 37.9505 120.054 33.6378 119.942 33.0782C120.348 32.9322 120.973 32.6433 121.501 32.0563C121.589 31.959 121.674 31.8556 121.75 31.7461L127.347 32.0472Z" fill="#F4F3F1"/>
<path d="M105.93 29.6835C106.136 30.5563 105.942 31.3501 105.502 31.4536C105.062 31.557 104.54 30.9335 104.337 30.0606C104.131 29.1847 104.322 28.3939 104.765 28.2905C105.205 28.1871 105.726 28.8106 105.93 29.6835Z" fill="#383940"/>
<path d="M100.569 29.7448C100.205 29.833 100.048 30.4869 100.214 31.2138C100.384 31.9376 100.818 32.4547 101.182 32.3695C101.549 32.2813 101.707 31.6244 101.537 30.9005C101.367 30.1767 100.936 29.6597 100.569 29.7448ZM121.259 25.8579C122.77 26.8129 123.064 29.9121 121.748 31.746C121.672 31.8555 121.587 31.9589 121.499 32.0563C120.971 32.6433 120.346 32.9322 119.94 33.0782C120.052 33.6378 120.832 37.9505 117.84 41.4998C116.836 42.692 115.595 43.577 114.264 44.1549C112.516 44.9183 110.617 45.1586 108.9 44.8787C108.9 44.8787 107.356 44.6263 105.9 43.7869C99.7412 40.2406 97.8057 26.7278 97.6176 25.3166L97.6055 25.204L114.33 23.3184C114.743 23.9388 115.177 24.7052 115.559 25.6176C116.22 27.1992 116.478 28.6377 116.578 29.7083C117.039 29.5897 117.501 29.468 117.959 29.3494V26.8829C118.059 26.6548 118.38 26.0039 119.099 25.6785C119.885 25.3226 120.75 25.5355 121.259 25.8579ZM105.499 31.4541C105.939 31.3507 106.133 30.5569 105.927 29.684C105.724 28.8111 105.202 28.1876 104.762 28.291C104.319 28.3944 104.128 29.1852 104.334 30.0611C104.538 30.934 105.059 31.5575 105.499 31.4541Z" fill="#F4F3F1"/>
<path d="M100.215 31.2125C100.048 30.4856 100.206 29.8318 100.57 29.7436C100.937 29.6584 101.368 30.1754 101.538 30.8993C101.708 31.6231 101.55 32.2801 101.183 32.3683C100.819 32.4534 100.385 31.9364 100.215 31.2125Z" fill="#383940"/>
<path d="M114.266 44.1543C114.463 44.4341 114.663 44.7109 114.86 44.9907" stroke="#383940" stroke-width="0.6" stroke-miterlimit="10" stroke-linecap="round"/>
<path d="M114.304 23.2715C114.313 23.2867 114.325 23.3019 114.334 23.3171C114.746 23.9375 115.18 24.704 115.563 25.6164C116.224 27.1979 116.482 28.6365 116.582 29.7071C117.043 29.5884 117.504 29.4668 117.962 29.3482V26.8816C118.062 26.6535 118.384 26.0027 119.103 25.6772C119.889 25.3214 120.753 25.5343 121.263 25.8567C122.774 26.8117 123.068 29.9108 121.751 31.7448C121.675 31.8543 121.59 31.9577 121.503 32.055C120.975 32.642 120.35 32.9309 119.943 33.0769C120.055 33.6365 120.835 37.9492 117.844 41.4985C116.84 42.6907 115.599 43.5758 114.267 44.1536C112.52 44.917 110.621 45.1573 108.903 44.8775C108.903 44.8775 107.359 44.6251 105.903 43.7856C99.7447 40.2394 97.8092 26.7265 97.6211 25.3153" stroke="#383940" stroke-width="0.6" stroke-miterlimit="10" stroke-linecap="round"/>
<path d="M123.48 22.1895C123.48 22.2229 123.48 22.2533 123.487 22.2868C123.602 24.0143 124.033 26.6816 125.58 29.4675C126.147 30.4833 126.76 31.3379 127.351 32.0435C127.446 32.1591 127.543 32.2716 127.637 32.3781" stroke="#383940" stroke-width="0.6" stroke-miterlimit="10" stroke-linecap="round"/>
<path d="M121.75 31.7461L127.347 32.0472" stroke="#383940" stroke-width="0.6" stroke-miterlimit="10" stroke-linecap="round"/>
<path d="M127.812 41.568C129.82 39.0558 131.831 36.5467 133.84 34.0375C134.034 33.7973 134.225 33.554 134.419 33.3137C134.085 32.9001 133.703 32.4682 133.266 32.0363C132.204 30.987 131.131 30.2297 130.205 29.6914C129.359 30.5856 128.506 31.4797 127.639 32.377C126.377 33.6817 125.093 34.9925 123.786 36.3064C120.795 39.3174 117.816 42.2098 114.861 44.9896C113.389 46.3734 111.924 47.7299 110.465 49.062C111.964 51.1666 113.465 53.2713 114.964 55.379L123.392 46.346" stroke="#383940" stroke-width="0.6" stroke-miterlimit="10" stroke-linecap="round"/>
<path d="M137.708 41.6024C137.004 41.3651 136.133 41.134 135.126 41.0002C133.725 40.8146 132.508 40.8816 131.586 41.0002" stroke="#383940" stroke-width="0.6" stroke-miterlimit="10" stroke-linecap="round"/>
<path d="M134.344 35.6465C134.844 35.6951 135.487 35.7803 136.225 35.9445C136.649 36.0358 137.104 36.1544 137.584 36.3065C143.733 38.256 147.043 43.5389 151.366 51.0481C155.455 58.1467 158.89 64.5244 161.696 69.9503C161.881 70.3122 162.066 70.668 162.248 71.0209" stroke="#383940" stroke-width="0.6" stroke-miterlimit="10" stroke-linecap="round"/>
<path d="M123.325 83.5244C120.273 73.868 116.696 63.9622 112.504 53.874C111.83 52.256 111.15 50.6501 110.465 49.0625" stroke="#383940" stroke-width="0.6" stroke-miterlimit="10" stroke-linecap="round"/>
<path d="M133.84 34.0391C134.252 34.2276 134.738 34.4953 135.247 34.8663C135.66 35.1644 135.997 35.4716 136.273 35.7483" stroke="#383940" stroke-width="0.6" stroke-miterlimit="10" stroke-linecap="round"/>
<path d="M162.16 69.9395C162.494 69.9912 162.952 70.0854 163.477 70.277C163.644 70.3379 164.578 70.6815 165.188 71.2016C165.931 71.8342 166.128 72.6737 166.45 74.1487C167.057 76.9377 167.357 78.3306 167.36 78.4249C167.378 80.5843 165.619 82.4943 163.859 83.8599C163.701 83.9846 163.54 84.1032 163.383 84.2188C161.908 85.2893 160.546 85.9584 160.367 86.0436" stroke="#383940" stroke-width="0.6" stroke-miterlimit="10" stroke-linecap="round"/>
<path d="M143.707 76.7363C144.538 76.9553 145.767 77.2868 147.247 77.6974C157.562 80.5654 157.82 81.1828 157.808 81.4292C157.787 81.8459 156.91 82.4055 152.769 82.9316" stroke="#383940" stroke-width="0.6" stroke-miterlimit="10" stroke-linecap="round"/>
<path d="M135.066 76.2539C135.464 76.9717 136.058 77.8537 136.926 78.7205C138.504 80.305 140.206 81.0623 141.246 81.4303" stroke="#383940" stroke-width="0.6" stroke-miterlimit="10" stroke-linecap="round"/>
<path d="M123.292 82.0352C123.307 82.5522 123.319 83.0479 123.325 83.5254C123.352 85.6909 123.283 87.464 123.207 88.7475C123.055 91.3083 122.809 93.0784 123.364 95.5663C123.719 97.1448 124.059 98.851 125.206 99.1764C126.307 99.4897 127.502 98.3613 127.824 98.042" stroke="#383940" stroke-width="0.6" stroke-miterlimit="10" stroke-linecap="round"/>
<path d="M142.004 92.5976C145.444 92.2296 148.241 92.0501 150.168 91.9559C150.501 91.9407 150.817 91.9255 151.12 91.9102C152.252 91.8616 153.165 91.822 153.845 91.7308C154.682 91.6243 155.17 91.4419 155.286 91.0739C155.386 90.7606 155.191 90.3774 154.843 89.9759C154.272 89.319 153.274 88.6164 152.485 88.1055" stroke="#383940" stroke-width="0.6" stroke-miterlimit="10" stroke-linecap="round"/>
<path d="M154.844 89.9756C155.153 89.8813 155.502 89.7596 155.881 89.5954C156.355 89.3947 156.876 89.1331 157.413 88.7955C157.556 88.7043 157.702 88.6069 157.847 88.5066C158.991 87.7067 159.804 86.8064 160.368 86.0431C160.614 85.7085 160.814 85.3983 160.969 85.1367" stroke="#383940" stroke-width="0.6" stroke-miterlimit="10" stroke-linecap="round"/>
<path d="M151.122 91.9091C150.355 92.4687 149.214 93.2412 147.767 94.0411C147.027 94.4486 146.014 95.0082 144.821 95.5831C144.027 95.9663 143.153 96.3586 142.225 96.7175C140.365 97.4353 138.29 98.0222 136.23 98.1561C135.741 98.1895 135.256 98.1956 134.774 98.1713C134.261 98.1469 133.751 98.0892 133.251 97.9918C132.95 97.9371 132.653 97.8641 132.359 97.7789C131.767 97.6056 131.185 97.3714 130.627 97.0673C130.341 96.9152 126.652 94.8501 126.246 91.535C126.024 89.7405 126.913 88.7886 127.265 85.9996C127.563 83.6365 127.262 81.6474 126.965 80.3457" stroke="#383940" stroke-width="0.6" stroke-miterlimit="10" stroke-linecap="round"/>
<path d="M142.223 96.7188C142.362 97.6585 142.638 98.8781 143.206 100.219C143.357 100.575 143.515 100.91 143.679 101.223C144.025 101.898 144.389 102.473 144.725 102.944" stroke="#383940" stroke-width="0.6" stroke-miterlimit="10" stroke-linecap="round"/>
<path d="M144.82 95.584C145.027 96.32 145.224 97.0773 145.418 97.8529C145.658 98.82 145.873 99.7628 146.064 100.687C146.131 101.01 146.198 101.326 146.258 101.642" stroke="#383940" stroke-width="0.6" stroke-miterlimit="10" stroke-linecap="round"/>
<path d="M155.527 96.6523C155.63 96.996 155.734 97.3367 155.831 97.6712" stroke="#383940" stroke-width="0.6" stroke-miterlimit="10" stroke-linecap="round"/>
<path d="M153.848 91.7305C154.154 92.5395 154.454 93.3759 154.749 94.2427C155.028 95.0608 155.289 95.8637 155.525 96.6514" stroke="#383940" stroke-width="0.6" stroke-miterlimit="10" stroke-linecap="round"/>
<path d="M155.883 89.5957C156.447 90.5811 157.075 91.9072 157.509 93.5495C157.697 94.2581 157.821 94.9242 157.903 95.5355C157.943 95.7971 157.97 96.0465 157.991 96.2868" stroke="#383940" stroke-width="0.6" stroke-miterlimit="10" stroke-linecap="round"/>
<path d="M157.414 88.7966C158.637 88.2917 160.205 87.4766 161.77 86.1414C162.474 85.5392 163.066 84.931 163.548 84.3622C163.557 84.3531 163.563 84.347 163.569 84.3379C163.861 85.1864 164.14 86.1384 164.37 87.1846C164.525 87.8872 164.643 88.5593 164.731 89.1889" stroke="#383940" stroke-width="0.6" stroke-miterlimit="10" stroke-linecap="round"/>
<path d="M164.09 83.8965C164.49 84.4074 165.252 85.5267 165.488 87.1447C165.658 88.3095 165.488 89.2737 165.337 89.8576" stroke="#383940" stroke-width="0.6" stroke-miterlimit="10" stroke-linecap="round"/>
<path d="M129.449 98.345C130.79 98.4058 131.852 98.0074 132.359 97.7793" stroke="#383940" stroke-width="0.6" stroke-miterlimit="10" stroke-linecap="round"/>
<path d="M126.766 97.5703C127.048 97.7285 127.403 97.8988 127.824 98.0387C128.076 98.1238 128.349 98.1968 128.647 98.2516C128.923 98.3033 129.193 98.3337 129.45 98.3428" stroke="#383940" stroke-width="0.6" stroke-miterlimit="10" stroke-linecap="round"/>
<path d="M129.45 98.3418C129.299 99.0352 129.168 99.8077 129.086 100.659C129.035 101.204 129.007 101.721 128.998 102.213C128.989 102.837 129.01 103.418 129.047 103.947" stroke="#383940" stroke-width="0.6" stroke-miterlimit="10" stroke-linecap="round"/>
<path d="M127.825 98.041C127.664 98.8561 127.53 99.8172 127.488 100.9C127.467 101.393 127.47 101.861 127.485 102.302C127.5 102.731 127.53 103.132 127.567 103.506" stroke="#383940" stroke-width="0.6" stroke-miterlimit="10" stroke-linecap="round"/>
<path d="M136.289 98.3726C136.277 98.4699 136.268 98.5642 136.258 98.6584C136.164 99.6317 136.255 100.398 136.368 100.939C136.51 101.633 136.747 102.266 136.677 102.819C136.653 103.008 136.595 103.187 136.483 103.357C136.368 103.531 136.246 103.625 136.089 103.747C135.324 104.334 134.417 104.303 133.689 104.267C133.382 104.252 133.079 104.236 132.803 104.191C132.387 104.124 132.023 103.984 131.769 103.668C131.708 103.592 131.617 103.467 131.486 103.065C131.462 102.992 131.438 102.913 131.414 102.825C131.265 102.275 131.131 101.396 131.247 99.7351C131.292 99.1146 131.313 98.7983 131.407 98.6524C131.747 98.1201 132.524 97.9863 133.252 97.9924C133.932 97.9985 134.575 98.1292 134.775 98.1718" stroke="#383940" stroke-width="0.6" stroke-miterlimit="10" stroke-linecap="round"/>
<path d="M136.676 102.819C137.11 102.78 137.553 102.728 138.008 102.664C140.137 102.363 142.036 101.834 143.681 101.223" stroke="#383940" stroke-width="0.6" stroke-miterlimit="10" stroke-linecap="round"/>
<path d="M146.066 100.688C147.237 100.405 148.527 100.019 149.889 99.496C152.143 98.6323 154.021 97.6104 155.526 96.6523H155.529" stroke="#383940" stroke-width="0.6" stroke-miterlimit="10" stroke-linecap="round"/>
<path d="M157.906 95.5349C158.583 95.1912 159.311 94.7684 160.051 94.2423C162.214 92.7033 163.643 90.8998 164.556 89.4703C164.617 89.373 164.674 89.2787 164.732 89.1875" stroke="#383940" stroke-width="0.6" stroke-miterlimit="10" stroke-linecap="round"/>
<path d="M165.012 89.4707C165.109 89.5832 165.218 89.711 165.339 89.857C165.64 90.228 166.001 90.7025 166.371 91.2742C167.669 93.2755 168.98 96.2956 169.095 103.887C169.138 106.734 169.016 110.432 168.4 114.757C168.318 115.326 168.231 115.909 168.13 116.5" stroke="#383940" stroke-width="0.6" stroke-miterlimit="10" stroke-linecap="round"/>
<path d="M128.996 102.215C129.302 102.361 129.688 102.516 130.146 102.635C130.628 102.759 131.059 102.811 131.411 102.826" stroke="#383940" stroke-width="0.6" stroke-miterlimit="10" stroke-linecap="round"/>
<path d="M136.086 103.748C136.134 105.226 136.232 106.771 136.386 108.38C136.647 111.133 137.045 113.69 137.515 116.035C137.557 116.254 137.6 116.47 137.645 116.683" stroke="#383940" stroke-width="0.6" stroke-miterlimit="10" stroke-linecap="round"/>
<path d="M132.801 104.193C132.922 106.119 133.138 107.709 133.326 108.859C133.99 112.95 134.706 113.959 135.237 114.531C136.02 115.373 136.918 115.805 137.515 116.033" stroke="#383940" stroke-width="0.6" stroke-miterlimit="10" stroke-linecap="round"/>
<path d="M148.328 102.543C148.783 103.592 149.448 104.748 150.427 105.852C154.435 110.365 160.533 110.393 161.95 110.365" stroke="#383940" stroke-width="0.6" stroke-miterlimit="10" stroke-linecap="round"/>
<path d="M148.328 104.529C148.744 105.658 149.526 107.276 151.028 108.742C154.838 112.455 160.035 112.02 160.93 111.929" stroke="#383940" stroke-width="0.6" stroke-miterlimit="10" stroke-linecap="round"/>
<path d="M136.328 118.988C136.486 119.67 136.85 120.85 137.769 122.036C138.886 123.477 140.223 124.159 140.888 124.441" stroke="#383940" stroke-width="0.6" stroke-miterlimit="10" stroke-linecap="round"/>
<path d="M145.027 148.617C145.061 149.028 145.094 149.447 145.127 149.87C145.88 159.715 145.379 162.084 146.969 168.319C147.564 170.661 148.237 172.684 148.841 174.311C149.114 175.044 149.375 175.695 149.608 176.26" stroke="#383940" stroke-width="0.6" stroke-miterlimit="10" stroke-linecap="round"/>
<path d="M140.328 121.475C140.865 123.312 141.375 125.209 141.848 127.168C142.297 129.035 143.368 133.71 144.284 141.289C144.551 143.485 144.806 145.924 145.027 148.61" stroke="#383940" stroke-width="0.6" stroke-miterlimit="10" stroke-linecap="round"/>
<path d="M168.4 114.758C168.676 115.111 168.955 115.582 169.119 116.172C169.517 117.605 168.992 118.931 168.513 119.761C168.249 120.22 167.997 120.527 167.918 120.622" stroke="#383940" stroke-width="0.6" stroke-miterlimit="10" stroke-linecap="round"/>
<path d="M168.513 119.76C168.468 120.77 168.419 121.782 168.371 122.798C167.934 131.731 167.406 140.587 166.793 149.368" stroke="#383940" stroke-width="0.6" stroke-miterlimit="10" stroke-linecap="round"/>
<path d="M127.482 102.303C127.127 103.954 126.838 105.837 126.723 107.917C126.532 111.369 126.86 114.438 127.363 116.99C127.554 117.975 127.776 118.884 128.003 119.709" stroke="#383940" stroke-width="0.6" stroke-miterlimit="10" stroke-linecap="round"/>
<path d="M127.363 116.99C127.187 117.291 126.168 119.104 126.887 121.075C127.16 121.823 127.593 122.349 127.927 122.678" stroke="#383940" stroke-width="0.6" stroke-miterlimit="10" stroke-linecap="round"/>
<path d="M148.84 174.311C149.31 177.41 149.832 180.576 150.408 183.8C151.027 187.267 151.685 190.643 152.371 193.934C152.477 194.448 152.586 194.962 152.696 195.473" stroke="#383940" stroke-width="0.6" stroke-miterlimit="10" stroke-linecap="round"/>
<path d="M152.373 193.934C152.294 194.162 151.672 196.072 152.81 197.678C153.019 197.973 153.256 198.21 153.486 198.398C153.835 198.684 154.175 198.858 154.409 198.961" stroke="#383940" stroke-width="0.6" stroke-miterlimit="10" stroke-linecap="round"/>
<path d="M153.484 198.398C153.973 200.169 154.431 202.127 154.807 204.253C155.15 206.19 155.38 208.015 155.529 209.703" stroke="#383940" stroke-width="0.6" stroke-miterlimit="10" stroke-linecap="round"/>
<path d="M166.091 148.564C166.137 148.601 166.483 148.881 166.795 149.367C167.098 149.842 167.371 150.511 167.293 151.332C167.147 152.832 165.964 153.601 165.824 153.689" stroke="#383940" stroke-width="0.6" stroke-miterlimit="10" stroke-linecap="round"/>
<path d="M165.849 151.572C165.804 152.129 165.773 152.85 165.822 153.689C165.855 154.325 165.937 155.03 166.089 155.785C166.853 159.571 168.661 160.782 168.667 163.063C168.67 163.963 168.394 165.1 167.357 166.439C166.723 167.266 165.794 168.169 164.469 169.139" stroke="#383940" stroke-width="0.6" stroke-miterlimit="10" stroke-linecap="round"/>
<path d="M167.361 166.441C167.731 166.961 168.089 167.643 168.249 168.479C168.492 169.741 168.204 170.906 167.746 171.867C167.045 173.351 165.947 174.355 165.789 174.495" stroke="#383940" stroke-width="0.6" stroke-miterlimit="10" stroke-linecap="round"/>
<path d="M167.746 171.867C168.341 174.133 168.893 176.514 169.39 179.005C170.367 183.914 170.98 188.555 171.341 192.856C171.396 193.522 171.447 194.179 171.49 194.827" stroke="#383940" stroke-width="0.6" stroke-miterlimit="10" stroke-linecap="round"/>
<path d="M162.309 176.42C162.482 176.052 163.88 173.169 164.587 172.834C164.657 172.801 164.717 172.792 164.769 172.81C164.981 172.883 165.03 173.379 164.996 174.014C164.936 175.219 164.587 176.922 164.529 177.202" stroke="#383940" stroke-width="0.6" stroke-miterlimit="10" stroke-linecap="round"/>
<path d="M171.342 192.857C171.64 193.228 172.068 193.852 172.331 194.71C172.881 196.483 172.389 198.128 171.946 199.123C171.758 199.545 171.579 199.853 171.491 200.002C171.306 200.315 171.042 200.713 170.669 201.139C170.444 201.395 170.181 201.662 169.871 201.927" stroke="#383940" stroke-width="0.6" stroke-miterlimit="10" stroke-linecap="round"/>
<path d="M171.945 199.121C172.167 200.69 172.376 202.287 172.57 203.911C172.828 206.046 173.05 208.142 173.244 210.198C173.247 210.222 173.247 210.243 173.25 210.268" stroke="#383940" stroke-width="0.6" stroke-miterlimit="10" stroke-linecap="round"/>
<path d="M173.698 212.313C173.861 212.407 174.028 212.532 174.186 212.696C175.032 213.584 174.875 214.959 174.729 216.245C174.59 217.483 174.401 219.147 173.37 219.533C172.924 219.7 172.496 219.563 172.496 219.563C172.49 219.563 172.487 219.56 172.487 219.56C171.932 219.423 159.433 219.141 156.867 218.189C156.678 218.119 155.45 217.662 154.967 216.686C154.964 216.677 154.943 216.644 154.922 216.592C154.852 216.422 154.746 216.029 154.728 214.682C154.679 211.346 154.261 210.968 154.646 210.351C154.837 210.047 155.125 209.843 155.532 209.709C156.339 209.442 157.613 209.457 159.527 209.548C160.049 209.572 165.27 210.108 170.74 211.44C171.495 211.619 172.257 211.82 173.009 212.033C173.167 212.078 173.425 212.155 173.698 212.313Z" fill="white" stroke="#383940" stroke-width="0.6" stroke-miterlimit="10" stroke-linecap="round"/>
<path d="M171.73 209.627C172.319 209.688 172.847 209.895 173.244 210.199C173.605 210.472 173.86 210.828 173.972 211.233C174.085 211.643 174.021 212.03 173.936 212.303" stroke="#383940" stroke-width="0.6" stroke-miterlimit="10" stroke-linecap="round"/>
<path d="M125.422 185.107L126.414 205.901" stroke="#383940" stroke-width="0.6" stroke-miterlimit="10" stroke-linecap="round"/>
<path d="M126.884 121.074C126.653 123.9 126.289 128.194 125.764 133.465C125.382 137.282 125.224 138.559 125.045 140.469C124.781 143.301 124.451 147.79 124.441 156.929C124.435 166.126 124.76 174.749 125.13 181.68C125.157 182.164 125.182 182.638 125.209 183.103" stroke="#383940" stroke-width="0.6" stroke-miterlimit="10" stroke-linecap="round"/>
<path d="M143.023 165.017C143.424 162.48 143.794 159.864 144.125 157.17C144.489 154.238 144.786 151.385 145.026 148.617V148.611" stroke="#383940" stroke-width="0.6" stroke-miterlimit="10" stroke-linecap="round"/>
<path d="M142.71 167.438C142.046 168.815 140.96 170.768 139.449 173.292" stroke="#383940" stroke-width="0.6" stroke-miterlimit="10" stroke-linecap="round"/>
<path d="M140.008 167.638C141.482 166.13 142.489 165.257 143.029 165.023C143.205 164.944 143.333 164.931 143.409 164.989C143.648 165.166 143.415 165.981 142.711 167.434" stroke="#383940" stroke-width="0.6" stroke-miterlimit="10" stroke-linecap="round"/>
<path d="M142.918 181.99C143.127 191.403 143.337 200.816 143.543 210.226" stroke="#383940" stroke-width="0.6" stroke-miterlimit="10" stroke-linecap="round"/>
<path d="M142.711 167.434C142.717 171.105 142.723 174.775 142.729 178.443V179.386" stroke="#383940" stroke-width="0.6" stroke-miterlimit="10" stroke-linecap="round"/>
<path d="M161.887 113.373C162.157 114.775 162.609 117.299 162.967 120.472C162.967 120.472 163.88 128.495 162.727 148.866C162.888 149.185 163.067 149.593 163.222 150.08C163.379 150.566 163.507 151.126 163.567 151.755C163.737 153.535 163.182 154.258 162.967 155.724C162.412 159.529 165.23 160.846 164.769 165.229C164.629 166.546 164.374 166.433 164.168 167.756C164.095 168.221 164.056 168.681 164.05 169.134C164.022 170.454 164.247 171.707 164.587 172.835C164.711 173.246 164.851 173.641 164.996 174.015C165.066 174.195 165.139 174.371 165.215 174.544C165.843 176.001 166.565 177.124 166.929 177.744C168.804 180.931 170.427 186.382 169.089 196.272C169.377 196.442 170.023 196.883 170.408 197.717C171.073 199.155 170.384 200.542 170.29 200.725" stroke="#383940" stroke-width="0.6" stroke-miterlimit="10" stroke-linecap="round"/>
<path d="M170.891 203.252V210.831" stroke="#383940" stroke-width="0.6" stroke-miterlimit="10" stroke-linecap="round"/>
<path d="M141.712 219.603C141.761 219.603 141.816 219.603 141.873 219.603C142.301 219.597 143.002 219.509 143.639 219.04C143.839 218.894 144.133 218.672 144.312 218.289C144.622 217.623 144.379 216.905 144.312 216.683C143.712 214.667 145.292 213.037 144.904 211.549C144.746 210.947 144.315 210.555 143.542 210.223C141.922 209.524 138.797 209.098 133.527 207.62C130.151 206.671 127.782 205.823 126.41 205.902C125.943 205.926 125.591 206.06 125.355 206.337C124.912 206.847 125.403 207.237 125.185 208.983C124.915 211.166 123.462 212.425 124.09 213.955C124.287 214.442 124.806 215.029 126.24 215.4C126.277 215.412 126.316 215.421 126.356 215.43" stroke="#383940" stroke-width="0.6" stroke-miterlimit="10" stroke-linecap="round"/>
<path d="M125.846 214.201C126.031 214.235 126.219 214.265 126.408 214.302C128.197 214.618 130.066 215.007 132.008 215.482C135.339 216.3 138.394 217.246 141.154 218.237C141.279 218.28 141.403 218.325 141.528 218.371C141.646 218.778 141.761 219.189 141.876 219.606C142.086 220.36 142.289 221.123 142.489 221.899C142.732 222.848 142.959 223.788 143.172 224.715C143.736 227.17 144.203 229.548 144.586 231.847C134.432 231.841 124.278 231.832 114.124 231.826C113.132 226.747 114.282 224.831 115.204 224.007C116.123 223.185 117.088 223.198 121.687 221.659C122.949 221.236 123.978 220.868 124.651 220.619" stroke="#383940" stroke-width="0.6" stroke-miterlimit="10" stroke-linecap="round"/>
<path d="M140.487 175.055C139.975 179.507 140.135 181.153 140.408 181.794C140.466 181.925 140.715 182.451 140.684 183.154C140.66 183.78 140.427 184.234 140.396 184.3C140.072 185 140.035 190.779 140.727 207.622" stroke="#383940" stroke-width="0.6" stroke-miterlimit="10" stroke-linecap="round"/>
<path d="M140.484 163.827C140.651 161.896 140.864 159.916 141.124 157.89C141.898 151.905 143.005 146.36 144.283 141.29C144.283 141.29 144.286 141.284 144.286 141.281" stroke="#383940" stroke-width="0.6" stroke-miterlimit="10" stroke-linecap="round"/>
<path d="M152.169 118.908C151.117 119.051 149.606 119.364 147.928 120.11C145.853 121.034 143.023 122.847 143.287 123.641C143.469 124.176 145.146 124.456 152.009 123.157" stroke="#383940" stroke-width="0.6" stroke-miterlimit="10" stroke-linecap="round"/>
<path d="M131.527 125.967H137.046" stroke="#383940" stroke-width="0.6" stroke-miterlimit="10" stroke-linecap="round"/>
<path d="M141.152 218.236C141.343 218.668 141.529 219.124 141.714 219.602C141.987 220.317 142.248 221.083 142.487 221.898C142.772 222.877 142.997 223.817 143.17 224.714C143.419 226.016 143.564 227.221 143.646 228.297" stroke="#383940" stroke-width="0.6" stroke-miterlimit="10" stroke-linecap="round"/>
<path d="M126.407 214.299C126.365 214.655 126.31 215.023 126.243 215.403C126.095 216.264 125.882 217.194 125.585 218.171C125.357 218.913 125.16 219.436 125.099 219.591C124.948 219.974 124.793 220.321 124.65 220.619C124.535 220.865 124.426 221.078 124.329 221.258C124.189 221.519 124.062 221.735 123.965 221.899" stroke="#383940" stroke-width="0.6" stroke-miterlimit="10" stroke-linecap="round"/>
<path d="M125.147 181.652C125.147 181.652 125.135 181.671 125.132 181.68C124.91 182.039 124.707 182.51 124.686 183.067C124.656 183.781 124.926 184.493 125.42 185.107C125.827 185.609 126.382 186.047 127.046 186.366" stroke="#383940" stroke-width="0.6" stroke-miterlimit="10" stroke-linecap="round"/>
<path d="M142.748 178.443C142.948 178.687 143.081 178.93 143.169 179.158C143.533 180.095 143.269 181.108 142.842 181.968C142.296 183.066 141.479 183.915 141.367 184.03" stroke="#383940" stroke-width="0.6" stroke-miterlimit="10" stroke-linecap="round"/>
<path d="M123.488 22.2866L125.42 22.0707V19.1023C124.92 19.1023 124.465 18.9198 124.122 18.6157C123.779 18.3146 123.555 17.8918 123.512 17.4143L123.151 13.1655C122.493 5.44645 115.512 -0.335229 107.476 0.184848C99.7308 0.683636 93.727 6.8759 93.727 14.3182C93.727 14.3881 93.7301 14.455 93.7301 14.525L93.812 20.0786C93.8362 21.803 92.5742 23.2994 90.8116 23.6248L88.1602 24.1206L88.3846 26.2404L97.6071 25.2033L114.332 23.3176L123.488 22.2866Z" stroke="#383940" stroke-width="0.6" stroke-miterlimit="10" stroke-linecap="round"/>
<path d="M109.202 4.96665C108.69 4.93624 103.69 4.7355 100.923 8.45512C98.1384 12.196 98.7664 18.3457 102.055 20.3743C103.478 21.2563 105.113 21.1833 106.169 21.01" stroke="#383940" stroke-width="0.6" stroke-miterlimit="10" stroke-linecap="round"/>
<path d="M103.832 26.8633C104.038 26.5622 104.272 26.4345 104.402 26.3828C104.988 26.1364 105.758 26.3858 106.323 27.0124" stroke="#383940" stroke-width="0.6" stroke-miterlimit="10" stroke-linecap="round"/>
<path d="M100.262 27.7372C100.214 27.716 99.9073 27.5882 99.6312 27.7372C99.3279 27.8984 99.1762 28.3334 99.3309 28.7591" stroke="#383940" stroke-width="0.6" stroke-miterlimit="10" stroke-linecap="round"/>
<path d="M106.172 37.0314C106.451 36.928 107 36.6846 107.464 36.1281C108.177 35.2674 108.165 34.2789 108.153 34.0234" stroke="#383940" stroke-width="0.6" stroke-miterlimit="10"/>
<path d="M118.293 155.424L149.68 231.842L155.259 231.715L125.99 155.248L118.293 155.424ZM121.642 159.12L125.607 159.028L152.098 228.016L149.874 228.068L121.639 159.12H121.642Z" fill="#FF8B63" stroke="#383940" stroke-width="0.6" stroke-miterlimit="10"/>
<path d="M152.133 222.982L145.805 223.128L149.53 231.845L155.309 231.714L152.133 222.982Z" fill="#383940" stroke="#383940" stroke-width="0.6" stroke-miterlimit="10"/>
<path d="M120.24 155.054L124.363 154.96L111.642 122.9L107.52 122.995L120.24 155.054Z" fill="#FF8B63" stroke="#383940" stroke-width="0.6" stroke-miterlimit="10"/>
<path d="M83.2578 76.3721L118.221 159.198L129.194 158.946L98.3961 76.0254L83.2578 76.3721ZM87.3503 80.3685L97.5163 80.1373L125.466 154.946L118.728 155.101L87.3473 80.3715L87.3503 80.3685Z" fill="#FF8B63" stroke="#383940" stroke-width="0.6" stroke-miterlimit="10"/>
<path d="M99.8496 75.9922L82.0508 76.3997L85.4455 83.1334L101.761 82.7623L99.8496 75.9922Z" fill="#383940" stroke="#383940" stroke-width="0.6" stroke-miterlimit="10"/>
<path d="M126.099 149.473L113.648 149.759L117.923 159.205L129.287 158.944L126.099 149.473Z" fill="#383940" stroke="#383940" stroke-width="0.6" stroke-miterlimit="10"/>
<path d="M116.194 121.717L101.738 122.048L103.92 126.769L117.717 126.455L116.194 121.717Z" fill="#383940" stroke="#383940" stroke-width="0.6" stroke-miterlimit="10"/>
<path d="M89.5466 50.9461C91.3638 53.1359 93.2295 55.6268 95.0406 58.4492C95.8901 59.7661 96.6637 61.0618 97.3705 62.324C96.6303 62.7315 95.7809 63.5953 94.5006 65.3653C94.2215 65.7516 93.9273 66.1774 93.6209 66.6397L93.4206 66.5089C90.9603 68.1147 89.4131 69.8362 88.4999 71.0223C88.3786 71.1805 88.2633 71.3356 88.1602 71.4816C85.8758 68.0235 83.3699 63.3884 81.5982 57.6068C80.8883 55.2801 80.3878 53.0781 80.0389 51.0495C79.5687 48.6468 78.3006 41.8402 78.1186 35.5263C78.1186 35.5263 78.0033 31.4995 79.8902 28.9387C80.0632 28.7045 80.6214 27.9472 81.5679 27.7069C81.8045 27.6461 82.3506 27.5062 82.7996 27.7951C82.9422 27.8894 83.2395 28.1296 83.4003 28.9691C83.6278 30.1643 83.3274 31.2684 83.021 32.0165C83.1454 32.0317 83.2759 32.05 83.4124 32.0713C84.2254 32.1929 85.2053 32.418 86.258 32.8438C86.6554 33.005 87.065 33.1966 87.4806 33.4217C87.7445 33.5646 87.9963 33.7136 88.2299 33.8657L88.3209 33.7228C88.3634 33.665 89.0581 32.7799 90.0684 32.9107C90.1988 32.9259 90.6114 32.9837 90.9299 33.3C91.4396 33.7988 91.3607 34.5896 91.2606 35.648C91.1393 36.9314 91.0483 38.2179 90.8996 39.4983C90.8905 39.5774 90.8814 39.6626 90.8723 39.7538C91.4578 40.0914 92.1768 40.6389 92.4013 41.4813C92.647 42.412 92.0767 42.8986 91.3213 45.0915C90.8571 46.4418 90.9906 46.4905 90.302 48.7016C89.9986 49.6718 89.7256 50.4534 89.5466 50.9461Z" fill="#F4F3F1"/>
<path d="M160.364 71.0105C156.202 72.8687 148.129 75.6334 139.868 72.7045C138.925 72.37 138.036 71.9837 137.199 71.5549L137.147 71.5092C135.727 73.1212 133.862 74.873 131.468 76.4363C129.975 77.4095 128.531 78.1456 127.227 78.6991C126.629 79.8396 125.671 81.044 124.148 81.7283C122.992 82.2484 121.89 82.297 121.138 82.2514C111.609 90.8585 102.438 94.7333 98.4641 92.1968C97.9029 91.8409 96.4467 90.7186 95.0421 89.0094C92.9883 86.5063 91.9993 83.9029 91.5078 82.0142C89.6663 81.6705 88.9079 80.9588 88.5621 80.3475C88.1101 79.5446 88.468 79.1005 88.0827 77.5799C87.6429 75.8554 86.9876 75.6668 86.8814 74.5719C86.845 74.2039 86.8329 73.3341 88.1616 71.4819C88.2648 71.3359 88.3801 71.1808 88.5014 71.0226C89.4145 69.8365 90.9617 68.1151 93.4221 66.5092L93.6223 66.64C93.9287 66.1777 94.223 65.7519 94.5021 65.3656C95.7823 63.5956 96.6318 62.7318 97.372 62.3243C97.7269 62.1266 98.0576 62.0353 98.4034 61.9988C100.187 61.8072 101.868 63.1181 102.723 64.4046C103.973 66.2811 103.612 68.3006 103.524 68.7355L103.515 68.845C103.533 68.845 103.549 68.845 103.564 68.8541C103.688 68.9028 103.755 69.0913 103.77 69.4198H103.825C103.785 69.0031 103.952 68.6838 104.164 68.6138C104.359 68.55 104.613 68.6868 104.811 68.8937C104.674 67.817 104.738 67.2239 105.005 67.1114C105.178 67.0384 105.436 67.1722 105.781 67.5098L106.03 67.4034C107.271 65.7276 108.509 64.0548 109.75 62.382L109.652 62.3121C109.71 61.4544 109.947 60.8036 110.226 60.3139C110.905 59.1095 112.18 58.2518 113.845 57.7683C116.275 54.9489 119.015 52.0383 122.106 49.1246C122.376 48.8692 122.646 48.6167 122.913 48.3673C123.407 44.4652 126.11 41.579 129.187 41.2414C129.414 41.217 129.636 41.2079 129.851 41.2079C134.926 37.8624 138.564 38.0145 140.408 38.3551C146.533 39.4834 150.049 45.8369 156.129 57.1843C159.245 62.9964 161.414 68.0238 162.818 71.5609C162.609 71.5244 162.403 71.4849 162.19 71.4423C161.562 71.3146 160.956 71.1716 160.367 71.0105H160.364Z" fill="#7099ED"/>
<path d="M85.1402 29.7507C85.9988 29.8541 86.2445 32.6644 86.2597 32.8438C85.207 32.418 84.2271 32.193 83.4141 32.0713C83.4626 31.7428 83.6082 31.0829 84.1209 30.4746C84.3666 30.1826 84.7701 29.7081 85.1402 29.7507Z" fill="#F4F3F1"/>
<path d="M134.105 42.8646C133.61 42.4601 131.984 41.2314 129.848 41.207C129.633 41.207 129.411 41.2162 129.184 41.2405C126.108 41.5781 123.405 44.4644 122.91 48.3665V48.3756" stroke="#383940" stroke-width="0.6" stroke-linecap="round" stroke-linejoin="round"/>
<path d="M110.848 60.8945L109.747 62.3818C108.506 64.0545 107.268 65.7273 106.027 67.4031" stroke="#383940" stroke-width="0.6" stroke-linecap="round" stroke-linejoin="round"/>
<path d="M107.162 69.2766C106.607 68.4585 106.146 67.8684 105.779 67.5096C105.433 67.172 105.175 67.0381 105.002 67.1111C104.735 67.2237 104.671 67.8167 104.808 68.8934C104.935 69.9001 105.239 71.3326 105.721 73.1878" stroke="#383940" stroke-width="0.6" stroke-linecap="round" stroke-linejoin="round"/>
<path d="M91.1992 80.6453C91.272 81.0376 91.3691 81.4999 91.5056 82.0139C91.9971 83.9026 92.9861 86.5061 95.0399 89.0091C96.4445 90.7184 97.9007 91.8407 98.4619 92.1965C102.436 94.733 111.607 90.8583 121.136 82.2512C122.237 81.2566 123.341 80.1982 124.443 79.082" stroke="#383940" stroke-width="0.6" stroke-linecap="round" stroke-linejoin="round"/>
<path d="M121.137 82.251C121.889 82.2967 122.99 82.248 124.146 81.7279C125.669 81.0436 126.628 79.8392 127.225 78.6987C127.932 77.3574 128.136 76.1044 128.166 75.8945" stroke="#383940" stroke-width="0.6" stroke-linecap="round" stroke-linejoin="round"/>
<path d="M127.133 78.7405C127.163 78.7283 127.193 78.7131 127.227 78.6979C128.531 78.1444 129.975 77.4083 131.468 76.4351C133.862 74.8718 135.727 73.12 137.147 71.508C137.863 70.696 138.467 69.9144 138.967 69.2148" stroke="#383940" stroke-width="0.6" stroke-linecap="round" stroke-linejoin="round"/>
<path d="M129.848 41.2099H129.851C134.926 37.8643 138.564 38.0164 140.408 38.357C146.533 39.4854 150.049 45.8389 156.129 57.1863C159.244 62.9984 161.413 68.0258 162.818 71.5629" stroke="#383940" stroke-width="0.6" stroke-linecap="round" stroke-linejoin="round"/>
<path d="M143.586 69.0356C144.751 68.9778 146.183 68.6828 147.487 67.7704C150.33 65.7844 151.501 61.6055 150.427 57.2441" stroke="#383940" stroke-width="0.6" stroke-linecap="round" stroke-linejoin="round"/>
<path d="M109.652 62.3127C109.71 61.455 109.947 60.8042 110.226 60.3145C110.905 59.1101 112.179 58.2525 113.845 57.7689C115.959 57.1545 118.708 57.1393 121.687 57.7871" stroke="#383940" stroke-width="0.6" stroke-linecap="round" stroke-linejoin="round"/>
<path d="M126.608 63.2601C125.161 63.1445 123.068 63.0624 120.547 63.2601C118.332 63.4334 117.225 63.5186 117.125 63.9231C116.985 64.4857 118.723 65.7844 127.688 69.0965" stroke="#383940" stroke-width="0.6" stroke-linecap="round" stroke-linejoin="round"/>
<path d="M104.808 68.8933C104.611 68.6865 104.356 68.5496 104.162 68.6135C103.95 68.6834 103.783 69.0028 103.822 69.4194C103.834 69.5441 103.868 69.678 103.922 69.8179" stroke="#383940" stroke-width="0.6" stroke-linecap="round" stroke-linejoin="round"/>
<path d="M101.581 68.373C100.601 68.9266 99.5697 69.5805 98.52 70.3591C95.2497 72.7861 93.0017 75.5173 91.5 77.7588" stroke="#383940" stroke-width="0.6" stroke-linecap="round" stroke-linejoin="round"/>
<path d="M93.4221 66.5098C90.9617 68.1156 89.4145 69.837 88.5014 71.0232C88.3801 71.1813 88.2648 71.3364 88.1616 71.4824C86.8329 73.3346 86.845 74.2045 86.8814 74.5725C86.9876 75.6674 87.6429 75.8559 88.0827 77.5804C88.468 79.1011 88.1101 79.5451 88.5621 80.3481C88.9079 80.9594 89.6663 81.6711 91.5078 82.0148" stroke="#383940" stroke-width="0.6" stroke-linecap="round" stroke-linejoin="round"/>
<path d="M90 73.3679C91.1862 70.582 92.4816 68.3496 93.6192 66.6404C93.9256 66.1781 94.2199 65.7523 94.499 65.366C95.7792 63.5959 96.6287 62.7322 97.3689 62.3246C97.7238 62.1269 98.0545 62.0357 98.4004 61.9992C100.184 61.8076 101.865 63.1184 102.72 64.4049C103.97 66.2815 103.609 68.301 103.521 68.7359" stroke="#383940" stroke-width="0.6" stroke-linecap="round" stroke-linejoin="round"/>
<path d="M99.8438 74.2705C101.791 70.6026 103.014 68.796 103.515 68.8447C103.533 68.8447 103.548 68.8447 103.563 68.8538C103.687 68.9025 103.754 69.0911 103.769 69.4195C103.8 70.0765 103.612 71.293 103.202 73.0662" stroke="#383940" stroke-width="0.6" stroke-linecap="round" stroke-linejoin="round"/>
<path d="M100.801 78.3008C100.391 79.7181 99.8996 81.8075 99.7206 84.3775C99.6175 85.8465 99.3414 89.8215 100.139 90.0314C100.7 90.1804 101.993 88.529 105.303 79.9249" stroke="#383940" stroke-width="0.6" stroke-linecap="round" stroke-linejoin="round"/>
<path d="M97.3722 62.3241C96.6653 61.0619 95.8917 59.7663 95.0423 58.4494C93.2311 55.627 91.3654 53.1361 89.5482 50.9463C89.4572 50.8368 89.3692 50.7334 89.2812 50.627" stroke="#383940" stroke-width="0.6" stroke-linecap="round" stroke-linejoin="round"/>
<path d="M80.0391 51.0488C80.3879 53.0774 80.8885 55.2794 81.5984 57.6061C83.3701 63.3877 85.8759 68.0228 88.1603 71.4809" stroke="#383940" stroke-width="0.6" stroke-linecap="round" stroke-linejoin="round"/>
<path d="M89.5469 50.9462C89.7259 50.4535 89.9989 49.6719 90.3023 48.7017C90.9909 46.4906 90.8574 46.4419 91.3216 45.0915C92.077 42.8987 92.6473 42.4121 92.4016 41.4814C92.1771 40.6389 91.4581 40.0915 90.8726 39.7539" stroke="#383940" stroke-width="0.6" stroke-linecap="round" stroke-linejoin="round"/>
<path d="M90.6593 42.5072C90.7109 41.3727 90.7958 40.436 90.8717 39.7547C90.8808 39.6635 90.8899 39.5783 90.899 39.4992C91.0476 38.2188 91.1386 36.9323 91.26 35.6489C91.3601 34.5905 91.439 33.7997 90.9293 33.3009C90.6108 32.9846 90.1982 32.9268 90.0677 32.9116C89.0575 32.7808 88.3628 33.6659 88.3203 33.7237" stroke="#383940" stroke-width="0.6" stroke-linecap="round" stroke-linejoin="round"/>
<path d="M89.5804 34.8659C89.1982 34.5405 88.7492 34.1968 88.2304 33.8653C87.9968 33.7132 87.745 33.5642 87.4811 33.4212C87.0655 33.1962 86.6559 33.0046 86.2585 32.8434C85.2058 32.4176 84.2259 32.1925 83.4129 32.0708C83.2764 32.0496 83.1459 32.0313 83.0215 32.0161C82.882 32.0009 82.7485 31.9887 82.6211 31.9766" stroke="#383940" stroke-width="0.6" stroke-linecap="round" stroke-linejoin="round"/>
<path d="M83.021 32.0196C83.3274 31.2684 83.6278 30.1643 83.4003 28.9691C83.2395 28.1296 82.9422 27.8894 82.7996 27.7951C82.3506 27.5062 81.8045 27.6461 81.5679 27.7069C80.6214 27.9472 80.0632 28.7045 79.8902 28.9387C78.0033 31.4995 78.1186 35.5263 78.1186 35.5263C78.3006 41.8402 79.5687 48.6468 80.0389 51.0495" stroke="#383940" stroke-width="0.6" stroke-linecap="round" stroke-linejoin="round"/>
<path d="M83.4141 32.0713C83.4626 31.7428 83.6082 31.0829 84.1209 30.4746C84.3666 30.1826 84.7701 29.7081 85.1402 29.7507C85.9988 29.8541 86.2445 32.6644 86.2597 32.8438" stroke="#383940" stroke-width="0.6" stroke-linecap="round" stroke-linejoin="round"/>
<path d="M125.766 45.8145C124.823 46.6326 123.87 47.4811 122.912 48.3662C122.645 48.6156 122.375 48.868 122.105 49.1235C119.013 52.0371 116.274 54.9477 113.844 57.7671" stroke="#383940" stroke-width="0.6" stroke-linecap="round" stroke-linejoin="round"/>
<path d="M137.195 71.5542C138.033 71.983 138.922 72.3693 139.865 72.7038C148.126 75.6327 156.199 72.8681 160.361 71.0098" stroke="#383940" stroke-width="0.6" stroke-linecap="round" stroke-linejoin="round"/>
<path d="M153.848 68.373C155.644 69.3554 157.822 70.3195 160.361 71.0099H160.364C160.953 71.1711 161.559 71.3141 162.187 71.4418C162.4 71.4844 162.606 71.5239 162.815 71.5604C163.358 71.6608 163.892 71.7399 164.408 71.8037" stroke="#383940" stroke-width="0.6" stroke-linecap="round" stroke-linejoin="round"/>
<path d="M174.051 227.635C174.106 228.438 174.124 229.211 174.121 229.953C174.115 230.999 173.271 231.848 172.225 231.848H144.584C143.944 231.848 143.426 231.319 143.438 230.677C143.507 226.912 144.548 225.181 145.768 224.387C146.802 223.715 147.181 224.226 149.887 223.466C151.662 222.967 154.693 222.106 156.289 219.533C156.868 218.602 157.102 217.696 157.211 217.088C159.447 217.103 161.883 217.222 164.489 217.489C167.292 217.778 169.867 218.201 172.188 218.685C173.019 221.017 173.814 224.05 174.051 227.635Z" fill="#231F20"/>
<path d="M156.09 217.088C156.457 217.085 156.833 217.085 157.212 217.088C159.448 217.103 161.884 217.222 164.49 217.49C167.293 217.779 169.869 218.201 172.19 218.685C172.454 218.74 172.715 218.794 172.972 218.852" stroke="#383940" stroke-width="0.6" stroke-linecap="round" stroke-linejoin="round"/>
<path d="M157.211 217.088C157.102 217.696 156.868 218.602 156.289 219.533C154.693 222.106 151.662 222.967 149.887 223.466C147.181 224.226 146.802 223.715 145.768 224.387C144.548 225.181 143.507 226.912 143.438 230.677C143.426 231.319 143.944 231.848 144.584 231.848H172.225C173.271 231.848 174.115 230.999 174.121 229.953C174.124 229.211 174.106 228.438 174.051 227.635C173.814 224.05 173.019 221.017 172.188 218.685" stroke="#383940" stroke-width="0.6" stroke-linecap="round" stroke-linejoin="round"/>
<path d="M161.648 225.873C161.266 225.453 160.741 224.975 160.049 224.55C158.366 223.516 156.691 223.415 155.848 223.424" stroke="#383940" stroke-width="0.6" stroke-linecap="round" stroke-linejoin="round"/>
</g>
<defs>
<clipPath id="clip0_8626_22015">
<rect width="175" height="232" fill="white"/>
</clipPath>
</defs>
</svg>
