<svg width="384" height="197" viewBox="0 0 384 197" fill="none" xmlns="http://www.w3.org/2000/svg">
<rect x="-10.5498" y="175.907" width="750.215" height="100.537" transform="rotate(-13.4385 -10.5498 175.907)" fill="white" stroke="#231F20"/>
<path d="M1.31641 173.521L6.28945 194.334" stroke="black" stroke-width="0.6" stroke-linecap="round"/>
<path d="M5.20703 172.592L7.56918 182.478" stroke="black" stroke-width="0.6" stroke-linecap="round"/>
<path d="M9.09766 171.662L11.4598 181.548" stroke="black" stroke-width="0.6" stroke-linecap="round"/>
<path d="M12.9883 170.732L15.3504 180.618" stroke="black" stroke-width="0.6" stroke-linecap="round"/>
<path d="M16.8789 169.803L20.4748 184.852" stroke="black" stroke-width="0.6" stroke-linecap="round"/>
<path d="M20.7695 168.873L23.1317 178.759" stroke="black" stroke-width="0.6" stroke-linecap="round"/>
<path d="M24.6602 167.943L27.0223 177.829" stroke="black" stroke-width="0.6" stroke-linecap="round"/>
<path d="M28.5508 167.014L30.9129 176.899" stroke="black" stroke-width="0.6" stroke-linecap="round"/>
<path d="M32.4414 166.084L37.4145 186.897" stroke="black" stroke-width="0.6" stroke-linecap="round"/>
<path d="M36.332 165.154L38.6942 175.04" stroke="black" stroke-width="0.6" stroke-linecap="round"/>
<path d="M40.2227 164.225L42.5848 174.11" stroke="black" stroke-width="0.6" stroke-linecap="round"/>
<path d="M44.1133 163.295L46.4754 173.181" stroke="black" stroke-width="0.6" stroke-linecap="round"/>
<path d="M48.0039 162.365L51.5998 177.414" stroke="black" stroke-width="0.6" stroke-linecap="round"/>
<path d="M51.8945 161.436L54.2567 171.321" stroke="black" stroke-width="0.6" stroke-linecap="round"/>
<path d="M55.7852 160.506L58.1473 170.392" stroke="black" stroke-width="0.6" stroke-linecap="round"/>
<path d="M59.6758 159.576L62.0379 169.462" stroke="black" stroke-width="0.6" stroke-linecap="round"/>
<path d="M63.5664 158.646L68.5395 179.459" stroke="black" stroke-width="0.6" stroke-linecap="round"/>
<path d="M67.4531 157.719L69.8153 167.605" stroke="black" stroke-width="0.6" stroke-linecap="round"/>
<path d="M71.3438 156.789L73.7059 166.675" stroke="black" stroke-width="0.6" stroke-linecap="round"/>
<path d="M75.2344 155.859L77.5965 165.745" stroke="black" stroke-width="0.6" stroke-linecap="round"/>
<path d="M79.125 154.93L82.7209 169.979" stroke="black" stroke-width="0.6" stroke-linecap="round"/>
<path d="M83.0156 154L85.3778 163.886" stroke="black" stroke-width="0.6" stroke-linecap="round"/>
<path d="M86.9062 153.07L89.2684 162.956" stroke="black" stroke-width="0.6" stroke-linecap="round"/>
<path d="M90.7969 152.141L93.159 162.026" stroke="black" stroke-width="0.6" stroke-linecap="round"/>
<path d="M94.6875 151.211L99.6605 172.023" stroke="black" stroke-width="0.6" stroke-linecap="round"/>
<path d="M98.5781 150.281L100.94 160.167" stroke="black" stroke-width="0.6" stroke-linecap="round"/>
<path d="M102.469 149.352L104.831 159.237" stroke="black" stroke-width="0.6" stroke-linecap="round"/>
<path d="M106.359 148.422L108.722 158.308" stroke="black" stroke-width="0.6" stroke-linecap="round"/>
<path d="M110.25 147.492L113.846 162.541" stroke="black" stroke-width="0.6" stroke-linecap="round"/>
<path d="M114.141 146.562L116.503 156.448" stroke="black" stroke-width="0.6" stroke-linecap="round"/>
<path d="M118.031 145.633L120.393 155.519" stroke="black" stroke-width="0.6" stroke-linecap="round"/>
<path d="M121.922 144.703L124.284 154.589" stroke="black" stroke-width="0.6" stroke-linecap="round"/>
<path d="M125.812 143.773L130.786 164.586" stroke="black" stroke-width="0.6" stroke-linecap="round"/>
<path d="M129.703 142.844L132.065 152.73" stroke="black" stroke-width="0.6" stroke-linecap="round"/>
<path d="M133.594 141.914L135.956 151.8" stroke="black" stroke-width="0.6" stroke-linecap="round"/>
<path d="M137.484 140.984L139.847 150.87" stroke="black" stroke-width="0.6" stroke-linecap="round"/>
<path d="M141.375 140.055L144.971 155.104" stroke="black" stroke-width="0.6" stroke-linecap="round"/>
<path d="M145.266 139.125L147.628 149.011" stroke="black" stroke-width="0.6" stroke-linecap="round"/>
<path d="M149.156 138.195L151.518 148.081" stroke="black" stroke-width="0.6" stroke-linecap="round"/>
<path d="M153.047 137.266L155.409 147.151" stroke="black" stroke-width="0.6" stroke-linecap="round"/>
<path d="M156.938 136.336L161.911 157.148" stroke="black" stroke-width="0.6" stroke-linecap="round"/>
<path d="M160.824 135.408L163.186 145.294" stroke="black" stroke-width="0.6" stroke-linecap="round"/>
<path d="M164.715 134.479L167.077 144.364" stroke="black" stroke-width="0.6" stroke-linecap="round"/>
<path d="M168.605 133.549L170.968 143.435" stroke="black" stroke-width="0.6" stroke-linecap="round"/>
<path d="M172.496 132.619L176.092 147.668" stroke="black" stroke-width="0.6" stroke-linecap="round"/>
<path d="M176.387 131.689L178.749 141.575" stroke="black" stroke-width="0.6" stroke-linecap="round"/>
<path d="M180.277 130.76L182.639 140.646" stroke="black" stroke-width="0.6" stroke-linecap="round"/>
<path d="M184.168 129.83L186.53 139.716" stroke="black" stroke-width="0.6" stroke-linecap="round"/>
<path d="M188.059 128.9L193.032 149.713" stroke="black" stroke-width="0.6" stroke-linecap="round"/>
<path d="M191.949 127.971L194.311 137.856" stroke="black" stroke-width="0.6" stroke-linecap="round"/>
<path d="M195.84 127.041L198.202 136.927" stroke="black" stroke-width="0.6" stroke-linecap="round"/>
<path d="M199.73 126.111L202.093 135.997" stroke="black" stroke-width="0.6" stroke-linecap="round"/>
<path d="M203.621 125.182L207.217 140.231" stroke="black" stroke-width="0.6" stroke-linecap="round"/>
<path d="M207.512 124.252L209.874 134.138" stroke="black" stroke-width="0.6" stroke-linecap="round"/>
<path d="M211.402 123.322L213.764 133.208" stroke="black" stroke-width="0.6" stroke-linecap="round"/>
<path d="M215.293 122.393L217.655 132.278" stroke="black" stroke-width="0.6" stroke-linecap="round"/>
<path d="M219.184 121.463L224.157 142.275" stroke="black" stroke-width="0.6" stroke-linecap="round"/>
<path d="M223.074 120.533L225.436 130.419" stroke="black" stroke-width="0.6" stroke-linecap="round"/>
<path d="M226.965 119.604L229.327 129.489" stroke="black" stroke-width="0.6" stroke-linecap="round"/>
<path d="M230.855 118.674L233.218 128.56" stroke="black" stroke-width="0.6" stroke-linecap="round"/>
<path d="M234.746 117.744L238.342 132.793" stroke="black" stroke-width="0.6" stroke-linecap="round"/>
<path d="M238.637 116.814L240.999 126.7" stroke="black" stroke-width="0.6" stroke-linecap="round"/>
<path d="M242.527 115.885L244.889 125.771" stroke="black" stroke-width="0.6" stroke-linecap="round"/>
<path d="M246.418 114.955L248.78 124.841" stroke="black" stroke-width="0.6" stroke-linecap="round"/>
<path d="M250.309 114.025L255.282 134.838" stroke="black" stroke-width="0.6" stroke-linecap="round"/>
<path d="M254.199 113.098L256.561 122.983" stroke="black" stroke-width="0.6" stroke-linecap="round"/>
<path d="M258.09 112.168L260.452 122.054" stroke="black" stroke-width="0.6" stroke-linecap="round"/>
<path d="M261.98 111.238L264.343 121.124" stroke="black" stroke-width="0.6" stroke-linecap="round"/>
<path d="M265.871 110.309L269.467 125.358" stroke="black" stroke-width="0.6" stroke-linecap="round"/>
<path d="M269.762 109.379L272.124 119.265" stroke="black" stroke-width="0.6" stroke-linecap="round"/>
<path d="M273.652 108.449L276.014 118.335" stroke="black" stroke-width="0.6" stroke-linecap="round"/>
<path d="M277.543 107.52L279.905 117.405" stroke="black" stroke-width="0.6" stroke-linecap="round"/>
<path d="M281.434 106.59L286.407 127.402" stroke="black" stroke-width="0.6" stroke-linecap="round"/>
<path d="M285.32 105.66L287.682 115.546" stroke="black" stroke-width="0.6" stroke-linecap="round"/>
<path d="M289.211 104.73L291.573 114.616" stroke="black" stroke-width="0.6" stroke-linecap="round"/>
<path d="M293.102 103.801L295.464 113.687" stroke="black" stroke-width="0.6" stroke-linecap="round"/>
<path d="M296.992 102.871L300.588 117.92" stroke="black" stroke-width="0.6" stroke-linecap="round"/>
<path d="M300.883 101.941L303.245 111.827" stroke="black" stroke-width="0.6" stroke-linecap="round"/>
<path d="M304.773 101.012L307.136 110.897" stroke="black" stroke-width="0.6" stroke-linecap="round"/>
<path d="M308.664 100.082L311.026 109.968" stroke="black" stroke-width="0.6" stroke-linecap="round"/>
<path d="M312.555 99.1523L317.528 119.965" stroke="black" stroke-width="0.6" stroke-linecap="round"/>
<path d="M316.445 98.2227L318.807 108.108" stroke="black" stroke-width="0.6" stroke-linecap="round"/>
<path d="M320.336 97.293L322.698 107.179" stroke="black" stroke-width="0.6" stroke-linecap="round"/>
<path d="M324.227 96.3633L326.589 106.249" stroke="black" stroke-width="0.6" stroke-linecap="round"/>
<path d="M328.117 95.4336L331.713 110.483" stroke="black" stroke-width="0.6" stroke-linecap="round"/>
<path d="M332.008 94.5039L334.37 104.39" stroke="black" stroke-width="0.6" stroke-linecap="round"/>
<path d="M335.898 93.5742L338.261 103.46" stroke="black" stroke-width="0.6" stroke-linecap="round"/>
<path d="M339.789 92.6445L342.151 102.53" stroke="black" stroke-width="0.6" stroke-linecap="round"/>
<path d="M343.68 91.7148L348.653 112.527" stroke="black" stroke-width="0.6" stroke-linecap="round"/>
<path d="M347.57 90.7871L349.932 100.673" stroke="black" stroke-width="0.6" stroke-linecap="round"/>
<path d="M351.461 89.8574L353.823 99.7432" stroke="black" stroke-width="0.6" stroke-linecap="round"/>
<path d="M355.352 88.9277L357.714 98.8135" stroke="black" stroke-width="0.6" stroke-linecap="round"/>
<path d="M359.242 87.998L362.838 103.047" stroke="black" stroke-width="0.6" stroke-linecap="round"/>
<path d="M363.133 87.0684L365.495 96.9541" stroke="black" stroke-width="0.6" stroke-linecap="round"/>
<path d="M367.023 86.1387L369.386 96.0244" stroke="black" stroke-width="0.6" stroke-linecap="round"/>
<path d="M370.914 85.209L373.276 95.0948" stroke="black" stroke-width="0.6" stroke-linecap="round"/>
<path d="M374.805 84.2793L379.778 105.092" stroke="black" stroke-width="0.6" stroke-linecap="round"/>
<path d="M378.691 83.3496L381.054 93.2354" stroke="black" stroke-width="0.6" stroke-linecap="round"/>
<path d="M382.582 82.4199L384.944 92.3057" stroke="black" stroke-width="0.6" stroke-linecap="round"/>
</svg>
