<svg width="239" height="176" viewBox="0 0 239 176" fill="none" xmlns="http://www.w3.org/2000/svg">
<g clip-path="url(#clip0_8626_21229)">
<path d="M42.2597 122.271H26.8789V330.699H42.2597V122.271Z" fill="#FF8B63" stroke="#231F20" stroke-miterlimit="10"/>
<path d="M1.04297 122.271H16.4238H42.2549H26.8801H1.04297Z" fill="#7099ED" stroke="#231F20" stroke-miterlimit="10"/>
<path d="M26.8801 122.271H1.04297V330.699H26.8801V122.271Z" fill="#7099ED" stroke="#231F20" stroke-miterlimit="10"/>
<path d="M81.4941 85.0742H66.1133V330.699H81.4941V85.0742Z" fill="#FF8B63" stroke="#231F20" stroke-miterlimit="10"/>
<path d="M40.2812 85.0742H55.6621H81.4932H66.1124H40.2812Z" fill="#7099ED" stroke="#231F20" stroke-miterlimit="10"/>
<path d="M66.1124 85.0742H40.2812V330.699H66.1124V85.0742Z" fill="#7099ED" stroke="#231F20" stroke-miterlimit="10"/>
<path d="M120.732 116.637H105.352V330.699H120.732V116.637Z" fill="#FF8B63" stroke="#231F20" stroke-miterlimit="10"/>
<path d="M79.5156 116.637H94.8965H120.734H105.353H79.5156Z" fill="#7099ED" stroke="#231F20" stroke-miterlimit="10"/>
<path d="M105.353 116.637H79.5156V330.699H105.353V116.637Z" fill="#7099ED" stroke="#231F20" stroke-miterlimit="10"/>
<path d="M159.971 103.109H144.59V330.694H159.971V103.109Z" fill="#FF8B63" stroke="#231F20" stroke-miterlimit="10"/>
<path d="M118.758 103.109H134.139H159.97H144.589H118.758Z" fill="#7099ED" stroke="#231F20" stroke-miterlimit="10"/>
<path d="M144.589 103.109H118.758V330.694H144.589V103.109Z" fill="#7099ED" stroke="#231F20" stroke-miterlimit="10"/>
<path d="M199.209 67.041H183.828V330.7H199.209V67.041Z" fill="#FF8B63" stroke="#231F20" stroke-miterlimit="10"/>
<path d="M157.996 67.041H173.371H199.208H183.827H157.996Z" fill="#7099ED" stroke="#231F20" stroke-miterlimit="10"/>
<path d="M183.833 67.041H157.996V330.7H183.833V67.041Z" fill="#7099ED" stroke="#231F20" stroke-miterlimit="10"/>
<path d="M238.443 0.300781H223.062V330.7H238.443V0.300781Z" fill="#FF8B63" stroke="#231F20" stroke-miterlimit="10"/>
<path d="M197.23 0.300781H212.611H238.442H223.062H197.23Z" fill="#7099ED" stroke="#231F20" stroke-miterlimit="10"/>
<path d="M223.068 0.300781H197.23V330.7H223.068V0.300781Z" fill="#7099ED" stroke="#231F20" stroke-miterlimit="10"/>
</g>
<defs>
<clipPath id="clip0_8626_21229">
<rect width="238" height="331" fill="white" transform="translate(0.742188)"/>
</clipPath>
</defs>
</svg>
