<svg width="279" height="160" viewBox="0 0 279 160" fill="none" xmlns="http://www.w3.org/2000/svg">
<g clip-path="url(#clip0_8626_22523)">
<path d="M246.299 82.0859H156.098V114.388H246.299V82.0859Z" fill="#231F20" stroke="#231F20" stroke-width="0.6" stroke-miterlimit="10"/>
<path d="M246.635 137.357H38.1562V144.625H246.635V137.357Z" fill="#231F20" stroke="#231F20" stroke-width="0.6" stroke-miterlimit="10"/>
<path d="M275.239 114.447H127.16V140.923H275.239V114.447Z" fill="#231F20" stroke="#231F20" stroke-width="0.6" stroke-miterlimit="10"/>
<path d="M301.509 116.557H139.453V123.033H301.509V116.557Z" fill="#231F20" stroke="#231F20" stroke-width="0.6" stroke-miterlimit="10"/>
<path d="M304.224 82.0859H203.617V114.388H304.224V82.0859Z" fill="white" stroke="#231F20" stroke-width="0.6" stroke-miterlimit="10"/>
<path d="M277.29 82.0859H176.684V88.0339H277.29V82.0859Z" fill="white" stroke="#231F20" stroke-width="0.6" stroke-miterlimit="10"/>
<path d="M298.903 108.121H176.684V114.069H298.903V108.121Z" fill="white" stroke="#231F20" stroke-width="0.6" stroke-miterlimit="10"/>
<path d="M201.941 100.281H198.26V65.797C198.26 65.3038 198.231 64.8073 198.173 64.3172L194.724 35.0801C194.356 31.97 191.613 29.6222 188.344 29.6222H111.646C108.461 29.6222 105.727 31.8996 105.289 34.92L102.2 56.1463L98.5547 55.6595L101.643 34.4331C102.335 29.6799 106.635 26.0957 111.646 26.0957H188.344C193.487 26.0957 197.802 29.7856 198.379 34.6798L201.828 63.9201C201.902 64.5414 201.937 65.1724 201.937 65.797V100.281H201.941Z" fill="white" stroke="#231F20" stroke-width="0.6" stroke-miterlimit="10"/>
<path d="M200.011 100.281H196.33V65.797C196.33 65.3038 196.301 64.8073 196.243 64.3172L192.794 35.0801C192.427 31.97 189.683 29.6222 186.414 29.6222H109.716C106.531 29.6222 103.797 31.8996 103.359 34.92L100.271 56.1463L96.625 55.6595L99.7134 34.4331C100.406 29.6799 104.705 26.0957 109.716 26.0957H186.414C191.557 26.0957 195.873 29.7856 196.449 34.6798L199.898 63.9201C199.972 64.5414 200.008 65.1724 200.008 65.797V100.281H200.011Z" fill="white" stroke="#231F20" stroke-width="0.6" stroke-miterlimit="10"/>
<path d="M177.989 29.6191H175V70.8002H177.989V29.6191Z" fill="white" stroke="#231F20" stroke-width="0.6" stroke-miterlimit="10"/>
<path d="M125.461 29.6191H122.473V70.8002H125.461V29.6191Z" fill="white" stroke="#231F20" stroke-width="0.6" stroke-miterlimit="10"/>
<path d="M175.195 26.0957H170.883V70.8001H175.195V26.0957Z" fill="white" stroke="#231F20" stroke-width="0.6" stroke-miterlimit="10"/>
<path d="M122.468 26.0957H118.156V70.8001H122.468V26.0957Z" fill="white" stroke="#231F20" stroke-width="0.6" stroke-miterlimit="10"/>
<path d="M203.425 85.5938H193.992V114.389H203.425V85.5938Z" fill="white" stroke="#231F20" stroke-width="0.6" stroke-miterlimit="10"/>
<path d="M200.516 85.5938H193.82V114.389H200.516V85.5938Z" fill="white" stroke="#231F20" stroke-width="0.6" stroke-miterlimit="10"/>
<path d="M185.396 116.424H173.677C165.516 116.424 158.898 126.145 158.898 138.134C158.898 150.123 165.516 159.844 173.677 159.844H185.396C193.557 159.844 200.175 150.123 200.175 138.134C200.175 126.145 193.557 116.424 185.396 116.424Z" fill="#231F20" stroke="#231F20" stroke-width="0.6" stroke-miterlimit="10"/>
<path d="M190.244 132.506H186.934V146.08H190.244V132.506Z" fill="white" stroke="#231F20" stroke-width="0.6" stroke-miterlimit="10"/>
<path d="M191.082 122.756H186.09V143.752H191.082V122.756Z" fill="white" stroke="#231F20" stroke-width="0.6" stroke-miterlimit="10"/>
<path d="M192.654 145.42H184.52V146.736H192.654V145.42Z" fill="white" stroke="#231F20" stroke-width="0.6" stroke-miterlimit="10"/>
<path d="M160.82 105.473H194.941V111.145H192.394L187.302 117.023V119.857H160.82V105.473Z" fill="#7099ED" stroke="#231F20" stroke-width="0.6" stroke-miterlimit="10"/>
<path d="M179.459 72.2441H155.219V93.3167H179.459V72.2441Z" fill="#7099ED" stroke="#231F20" stroke-width="0.6" stroke-miterlimit="10"/>
<path d="M172.126 72.2441H155.219V93.3167H172.126V72.2441Z" fill="#231F20" stroke="#231F20" stroke-width="0.6" stroke-miterlimit="10"/>
<path d="M183.636 60.3926H155.219V81.4652H183.636V60.3926Z" fill="#7099ED" stroke="#231F20" stroke-width="0.6" stroke-miterlimit="10"/>
<path d="M173.962 60.3926H155.219V81.4652H173.962V60.3926Z" fill="#231F20" stroke="#231F20" stroke-width="0.6" stroke-miterlimit="10"/>
<path d="M154.402 93.3164H184.703C186.362 93.3164 187.708 94.6553 187.708 96.3048V105.472H154.402V93.3164Z" fill="#7099ED" stroke="#231F20" stroke-width="0.6" stroke-miterlimit="10"/>
<path d="M183.791 93.3164H185.317C186.637 93.3164 187.71 94.383 187.71 95.6962V105.472H181.395V95.6962C181.395 94.383 182.467 93.3164 183.787 93.3164H183.791Z" fill="#7099ED" stroke="#231F20" stroke-width="0.6" stroke-miterlimit="10"/>
<path d="M154.402 105.473H188.523V111.145H185.979L180.884 117.023V119.857H154.402V105.473Z" fill="#7099ED" stroke="#231F20" stroke-width="0.6" stroke-miterlimit="10"/>
<path d="M194.942 105.473H188.523V111.145H194.942V105.473Z" fill="#7099ED" stroke="#231F20" stroke-width="0.6" stroke-miterlimit="10"/>
<path d="M193.821 109.627H189.645V125.937H193.821V109.627Z" fill="#7099ED" stroke="#231F20" stroke-width="0.6" stroke-miterlimit="10"/>
<path d="M183.633 125.936V117.224L188.521 111.145H189.642V125.936H183.633Z" fill="#7099ED" stroke="#231F20" stroke-width="0.6" stroke-miterlimit="10"/>
<path d="M183.638 77.1562H173.961V81.4611H183.638V77.1562Z" fill="#7099ED" stroke="#231F20" stroke-width="0.6" stroke-miterlimit="10"/>
<path d="M183.634 67.0781H180.172V74.7782H183.634V67.0781Z" fill="#231F20"/>
<path d="M183.636 60.3926H155.219V65.559H183.636V60.3926Z" fill="#231F20"/>
<path d="M177.118 61.6074H175.488V64.2403H177.118V61.6074Z" fill="white"/>
<path d="M176.047 85.5918H160.589C159.998 85.5918 159.52 86.0679 159.52 86.6552C159.52 87.2425 159.998 87.7186 160.589 87.7186H176.047C176.637 87.7186 177.116 87.2425 177.116 86.6552C177.116 86.0679 176.637 85.5918 176.047 85.5918Z" fill="#231F20"/>
<path d="M176.93 85.0371H175.449C174.627 85.0371 173.961 85.6996 173.961 86.5169V86.7924C173.961 87.6096 174.627 88.2722 175.449 88.2722H176.93C177.752 88.2722 178.418 87.6096 178.418 86.7924V86.5169C178.418 85.6996 177.752 85.0371 176.93 85.0371Z" fill="#231F20"/>
<path d="M175.02 79.8918L159.868 82.9359C159.29 83.0522 158.915 83.6132 159.032 84.1888C159.149 84.7645 159.713 85.1369 160.292 85.0206L175.444 81.9765C176.023 81.8602 176.397 81.2993 176.28 80.7236C176.163 80.1479 175.599 79.7755 175.02 79.8918Z" fill="white"/>
<path d="M175.774 79.175L174.322 79.4668C173.516 79.6286 172.995 80.4092 173.158 81.2103L173.213 81.4803C173.375 82.2814 174.16 82.7996 174.966 82.6378L176.418 82.346C177.223 82.1842 177.744 81.4036 177.582 80.6025L177.527 80.3325C177.364 79.5315 176.579 79.0132 175.774 79.175Z" fill="#231F20"/>
<path d="M173.423 74.7679L159.177 80.7357C158.633 80.9636 158.377 81.5872 158.606 82.1285C158.836 82.6697 159.463 82.9237 160.007 82.6957L174.253 76.728C174.797 76.5 175.052 75.8764 174.823 75.3352C174.594 74.7939 173.967 74.54 173.423 74.7679Z" fill="white"/>
<path d="M174.022 73.9201L172.656 74.492C171.899 74.8092 171.544 75.677 171.863 76.4302L171.97 76.684C172.289 77.4372 173.162 77.7906 173.919 77.4734L175.284 76.9015C176.041 76.5843 176.397 75.7165 176.078 74.9633L175.97 74.7095C175.651 73.9563 174.779 73.6029 174.022 73.9201Z" fill="#231F20"/>
<path d="M176.93 88.7578H175.449C174.627 88.7578 173.961 89.4203 173.961 90.2376V90.5131C173.961 91.3303 174.627 91.9929 175.449 91.9929H176.93C177.752 91.9929 178.418 91.3303 178.418 90.5131V90.2376C178.418 89.4203 177.752 88.7578 176.93 88.7578Z" fill="#231F20"/>
<path d="M176.047 89.3125H160.589C159.998 89.3125 159.52 89.7886 159.52 90.3759C159.52 90.9632 159.998 91.4393 160.589 91.4393H176.047C176.637 91.4393 177.116 90.9632 177.116 90.3759C177.116 89.7886 176.637 89.3125 176.047 89.3125Z" fill="#231F20"/>
<path d="M177.326 95.1327L174.789 94.5894C174.286 94.4818 173.791 94.7997 173.683 95.2995L173.625 95.5656C173.517 96.0654 173.837 96.5578 174.339 96.6654L176.877 97.2087C177.379 97.3163 177.874 96.9984 177.983 96.4986L178.04 96.2325C178.148 95.7327 177.829 95.2403 177.326 95.1327Z" fill="#231F20"/>
<path d="M176.332 95.4661L160.175 92.0064C159.886 91.9446 159.602 92.1273 159.54 92.4143C159.478 92.7014 159.661 92.9842 159.95 93.046L176.107 96.5057C176.396 96.5675 176.68 96.3849 176.742 96.0978C176.804 95.8108 176.621 95.5279 176.332 95.4661Z" fill="#231F20"/>
<path d="M176.193 98.5604L173.656 98.0171C173.153 97.9095 172.658 98.2274 172.55 98.7272L172.493 98.9934C172.384 99.4931 172.704 99.9855 173.207 100.093L175.744 100.636C176.247 100.744 176.742 100.426 176.85 99.9264L176.907 99.6602C177.016 99.1604 176.696 98.668 176.193 98.5604Z" fill="#231F20"/>
<path d="M175.199 98.8958L159.042 95.4361C158.754 95.3743 158.469 95.5569 158.407 95.844C158.345 96.1311 158.528 96.4139 158.817 96.4757L174.974 99.9354C175.263 99.9972 175.547 99.8146 175.609 99.5275C175.671 99.2405 175.488 98.9576 175.199 98.8958Z" fill="#231F20"/>
<path d="M220.48 147.317C226.245 147.317 230.918 142.669 230.918 136.936C230.918 131.202 226.245 126.555 220.48 126.555C214.716 126.555 210.043 131.202 210.043 136.936C210.043 142.669 214.716 147.317 220.48 147.317Z" fill="#231F20" stroke="#231F20" stroke-width="0.6" stroke-miterlimit="10"/>
<path d="M91.6751 139.545H86.9347C85.823 139.545 84.9219 140.441 84.9219 141.547V145.531C84.9219 146.637 85.823 147.533 86.9347 147.533H91.6751C92.7868 147.533 93.6879 146.637 93.6879 145.531V141.547C93.6879 140.441 92.7868 139.545 91.6751 139.545Z" fill="#231F20" stroke="#231F20" stroke-width="0.6" stroke-miterlimit="10"/>
<path d="M38.9431 116.424H27.2239C19.0633 116.424 12.4453 126.145 12.4453 138.134C12.4453 150.123 19.0633 159.844 27.2239 159.844H38.9431C47.1037 159.844 53.7217 150.123 53.7217 138.134C53.7217 126.145 47.1037 116.424 38.9431 116.424Z" fill="#231F20" stroke="#231F20" stroke-width="0.6" stroke-miterlimit="10"/>
<path d="M272.95 114.393C274.976 115.51 280.759 119.059 283.143 126.052C283.552 127.253 283.809 128.406 283.964 129.476C284.154 130.789 283.126 131.964 281.793 131.964H269.7C269.256 126.164 268.812 120.363 268.367 114.562C269.897 114.505 271.423 114.45 272.953 114.393H272.95Z" fill="#231F20" stroke="#231F20" stroke-width="0.6" stroke-miterlimit="10"/>
<path d="M134.775 136.102H122.84C121.837 136.102 121.023 136.91 121.023 137.908V149.778C121.023 150.776 121.837 151.585 122.84 151.585H134.775C135.778 151.585 136.591 150.776 136.591 149.778V137.908C136.591 136.91 135.778 136.102 134.775 136.102Z" fill="#231F20" stroke="#231F20" stroke-width="0.6" stroke-miterlimit="10"/>
<path d="M63.6536 136.102H51.7187C50.7155 136.102 49.9023 136.91 49.9023 137.908V149.778C49.9023 150.776 50.7155 151.585 51.7187 151.585H63.6536C64.6568 151.585 65.47 150.776 65.47 149.778V137.908C65.47 136.91 64.6568 136.102 63.6536 136.102Z" fill="#231F20" stroke="#231F20" stroke-width="0.6" stroke-miterlimit="10"/>
<path d="M282.146 132.215H270.211C269.208 132.215 268.395 133.024 268.395 134.021V145.892C268.395 146.889 269.208 147.698 270.211 147.698H282.146C283.149 147.698 283.962 146.889 283.962 145.892V134.021C283.962 133.024 283.149 132.215 282.146 132.215Z" fill="#231F20" stroke="#231F20" stroke-width="0.6" stroke-miterlimit="10"/>
<path d="M266.197 116.424H254.478C246.317 116.424 239.699 126.145 239.699 138.134C239.699 150.123 246.317 159.844 254.478 159.844H266.197C274.358 159.844 280.976 150.123 280.976 138.134C280.976 126.145 274.358 116.424 266.197 116.424Z" fill="#7099ED" stroke="#231F20" stroke-width="0.6" stroke-miterlimit="10"/>
<path d="M259.361 116.424C251.2 116.424 244.582 126.145 244.582 138.134C244.582 150.123 251.2 159.844 259.361 159.844" stroke="#231F20" stroke-width="0.6" stroke-miterlimit="10"/>
<path d="M257.314 116.424C249.153 116.424 242.535 126.145 242.535 138.134C242.535 150.123 249.153 159.844 257.314 159.844" stroke="#231F20" stroke-width="0.6" stroke-miterlimit="10"/>
<path d="M261.411 116.424C253.251 116.424 246.633 126.145 246.633 138.134C246.633 150.123 253.251 159.844 261.411 159.844" stroke="#231F20" stroke-width="0.6" stroke-miterlimit="10"/>
<path d="M263.458 116.424C255.298 116.424 248.68 126.145 248.68 138.134C248.68 150.123 255.298 159.844 263.458 159.844" stroke="#231F20" stroke-width="0.6" stroke-miterlimit="10"/>
<path d="M266.604 158.056C274.094 158.056 280.166 149.137 280.166 138.134C280.166 127.131 274.094 118.211 266.604 118.211C259.115 118.211 253.043 127.131 253.043 138.134C253.043 149.137 259.115 158.056 266.604 158.056Z" stroke="#231F20" stroke-width="0.6" stroke-miterlimit="10"/>
<path d="M267.381 152.239C272.684 152.239 276.984 145.924 276.984 138.133C276.984 130.343 272.684 124.027 267.381 124.027C262.077 124.027 257.777 130.343 257.777 138.133C257.777 145.924 262.077 152.239 267.381 152.239Z" fill="white" stroke="#231F20" stroke-width="0.6" stroke-miterlimit="10"/>
<path d="M267.942 150.228C272.488 150.228 276.174 144.813 276.174 138.134C276.174 131.454 272.488 126.039 267.942 126.039C263.396 126.039 259.711 131.454 259.711 138.134C259.711 144.813 263.396 150.228 267.942 150.228Z" stroke="#231F20" stroke-width="0.6" stroke-miterlimit="10"/>
<path d="M267.211 147.316C266.85 147.316 266.561 147.028 266.561 146.669C266.561 146.31 266.85 146.019 267.211 146.019C267.569 146.019 267.923 145.961 268.271 145.849C268.612 145.737 268.979 145.926 269.092 146.265C269.205 146.605 269.015 146.97 268.673 147.082C268.197 147.236 267.707 147.313 267.214 147.316H267.211ZM263.801 145.766C263.633 145.766 263.462 145.702 263.337 145.573C263.018 145.253 262.722 144.885 262.454 144.484C262.255 144.187 262.339 143.783 262.638 143.588C262.938 143.389 263.343 143.472 263.54 143.77C263.762 144.103 264.004 144.401 264.264 144.664C264.516 144.92 264.512 145.33 264.258 145.58C264.132 145.705 263.965 145.766 263.801 145.766ZM271.391 144.741C271.266 144.741 271.14 144.705 271.031 144.632C270.731 144.433 270.651 144.03 270.85 143.732C271.063 143.415 271.259 143.069 271.433 142.704C271.588 142.38 271.977 142.242 272.303 142.396C272.628 142.55 272.766 142.937 272.612 143.261C272.412 143.684 272.183 144.084 271.935 144.452C271.81 144.638 271.604 144.741 271.391 144.741ZM261.608 141.233C261.302 141.233 261.031 141.019 260.97 140.708C260.886 140.276 260.822 139.83 260.777 139.385C260.741 139.03 261.005 138.713 261.363 138.677C261.723 138.642 262.039 138.905 262.074 139.26C262.113 139.664 262.171 140.067 262.248 140.458C262.316 140.811 262.087 141.15 261.733 141.217C261.691 141.227 261.649 141.23 261.608 141.23V141.233ZM273.018 139.955C272.995 139.955 272.972 139.955 272.953 139.952C272.596 139.917 272.335 139.6 272.37 139.244C272.409 138.847 272.431 138.44 272.431 138.037V138.005C272.431 137.646 272.724 137.358 273.082 137.358C273.439 137.358 273.732 137.649 273.732 138.005V138.037C273.732 138.485 273.71 138.934 273.665 139.372C273.633 139.705 273.349 139.955 273.018 139.955ZM261.604 136.163C261.562 136.163 261.521 136.16 261.479 136.15C261.124 136.083 260.896 135.743 260.963 135.391C261.05 134.943 261.16 134.504 261.292 134.087C261.398 133.745 261.762 133.553 262.107 133.658C262.451 133.764 262.644 134.126 262.538 134.469C262.422 134.843 262.322 135.237 262.245 135.638C262.184 135.948 261.913 136.163 261.608 136.163H261.604ZM272.483 134.888C272.209 134.888 271.955 134.715 271.865 134.443C271.736 134.059 271.584 133.687 271.417 133.338C271.262 133.014 271.398 132.627 271.723 132.473C272.048 132.319 272.438 132.454 272.592 132.777C272.782 133.175 272.956 133.597 273.101 134.036C273.214 134.376 273.03 134.744 272.689 134.856C272.621 134.879 272.551 134.888 272.483 134.888ZM263.778 131.621C263.614 131.621 263.45 131.56 263.324 131.439C263.066 131.189 263.06 130.779 263.311 130.522C263.652 130.173 264.023 129.872 264.416 129.622C264.718 129.43 265.121 129.52 265.314 129.821C265.507 130.122 265.417 130.522 265.115 130.715C264.805 130.91 264.512 131.147 264.242 131.426C264.113 131.557 263.946 131.621 263.775 131.621H263.778ZM269.591 130.788C269.469 130.788 269.343 130.753 269.234 130.683C268.915 130.474 268.58 130.314 268.245 130.209C267.9 130.1 267.71 129.738 267.82 129.395C267.929 129.052 268.293 128.863 268.638 128.972C269.089 129.113 269.53 129.325 269.948 129.6C270.248 129.795 270.332 130.199 270.135 130.497C270.01 130.686 269.804 130.788 269.591 130.788Z" fill="#231F20"/>
<path d="M267.738 144.911C270.1 144.911 272.014 141.876 272.014 138.133C272.014 134.39 270.1 131.355 267.738 131.355C265.376 131.355 263.461 134.39 263.461 138.133C263.461 141.876 265.376 144.911 267.738 144.911Z" stroke="#231F20" stroke-width="0.6" stroke-miterlimit="10"/>
<path d="M267.646 140.279C268.219 140.279 268.683 139.358 268.683 138.222C268.683 137.087 268.219 136.166 267.646 136.166C267.074 136.166 266.609 137.087 266.609 138.222C266.609 139.358 267.074 140.279 267.646 140.279Z" fill="white" stroke="#231F20" stroke-width="0.6" stroke-miterlimit="10"/>
<path d="M267.163 139.325C267.47 139.325 267.72 138.831 267.72 138.223C267.72 137.614 267.47 137.121 267.163 137.121C266.855 137.121 266.605 137.614 266.605 138.223C266.605 138.831 266.855 139.325 267.163 139.325Z" fill="#231F20" stroke="#231F20" stroke-width="0.6" stroke-miterlimit="10"/>
<path d="M146.975 5.68215H146.009V1.98587C146.009 1.50862 145.62 1.12106 145.136 1.12106C144.653 1.12106 144.267 1.50862 144.267 1.98587V5.42911H143.301V1.98587C143.301 0.976924 144.125 0.160156 145.136 0.160156C146.148 0.160156 146.975 0.980127 146.975 1.98587V5.68215Z" fill="#FF8B63" stroke="#231F20" stroke-width="0.6" stroke-miterlimit="10"/>
<path d="M215.522 5.68215H214.556V1.98587C214.556 1.50862 214.166 1.12106 213.683 1.12106C213.2 1.12106 212.814 1.50862 212.814 1.98587V5.42911H211.848V1.98587C211.848 0.976924 212.672 0.160156 213.683 0.160156C214.695 0.160156 215.522 0.980127 215.522 1.98587V5.68215Z" fill="#FF8B63" stroke="#231F20" stroke-width="0.6" stroke-miterlimit="10"/>
<path d="M147.277 22.1775L227.296 21.7227" stroke="#231F20" stroke-width="0.6" stroke-miterlimit="10"/>
<path d="M228.008 27.0977C228.517 34.0386 229.096 37.5171 229.75 37.5299C230.356 37.5427 231.025 34.5703 231.756 28.6191" stroke="#231F20" stroke-width="0.6" stroke-miterlimit="10"/>
<path d="M231.18 29.7584C231.296 30.6104 231.679 33.0735 232.365 33.1152C233.202 33.1664 234.02 29.5694 234.149 28.9961" stroke="#231F20" stroke-width="0.6" stroke-miterlimit="10"/>
<path d="M235.124 22.4941H228.59V29.6336H235.124V22.4941Z" fill="#231F20" stroke="#231F20" stroke-width="0.6" stroke-miterlimit="10"/>
<path d="M236.668 23.0203V13.4849C236.671 12.7322 235.908 12.1236 234.965 12.1236H233.973V10C233.973 9.31779 233.28 8.76367 232.424 8.76367H224.984L225.306 22.6327C225.313 22.8473 225.487 23.0171 225.703 23.0171H232.92C232.485 23.7377 232.214 24.7051 232.214 25.7717C232.214 27.9945 233.37 29.7946 234.794 29.7946C236.217 29.7946 237.373 27.9945 237.373 25.7717C237.373 24.7051 237.106 23.7345 236.668 23.0171V23.0203Z" fill="#FF8B63" stroke="#231F20" stroke-width="0.6" stroke-miterlimit="10"/>
<path d="M228.712 17.4023H147.789V20.426H228.712V17.4023Z" fill="#231F20" stroke="#231F20" stroke-width="0.6" stroke-miterlimit="10"/>
<path d="M225.312 16.4824H230.233V23.0198H225.544C225.416 23.0198 225.312 22.9173 225.312 22.7892V16.4824Z" fill="#231F20" stroke="#231F20" stroke-width="0.6" stroke-miterlimit="10"/>
<path d="M155.633 5.35477H227.194C227.452 5.35477 227.681 5.52453 227.758 5.76795L230.798 15.7261C230.914 16.1009 230.63 16.4788 230.234 16.4788H156.164L155.633 5.35156V5.35477Z" fill="#FF8B63" stroke="#231F20" stroke-width="0.6" stroke-miterlimit="10"/>
<path d="M225.566 5.35547L229.028 16.4827" stroke="#231F20" stroke-width="0.6" stroke-miterlimit="10"/>
<path d="M143.785 4.43945H223.961C224.264 4.43945 224.528 4.63484 224.615 4.92311L228.154 16.5244C228.286 16.96 227.958 17.402 227.501 17.402H144.407L143.785 4.43945Z" fill="#FF8B63" stroke="#231F20" stroke-width="0.6" stroke-miterlimit="10"/>
<path d="M222.062 4.43945L226.094 17.402" stroke="#231F20" stroke-width="0.6" stroke-miterlimit="10"/>
<path d="M134.793 3.82422H221.04C221.194 3.82422 221.329 3.92351 221.375 4.07085L225.493 17.5683C225.561 17.7925 225.394 18.0168 225.159 18.0168H135.472L134.793 3.82422Z" fill="#FF8B63" stroke="#231F20" stroke-width="0.6" stroke-miterlimit="10"/>
<path d="M133.135 2.9375H136.613C137.724 2.9375 138.812 3.25139 139.756 3.84075L152.751 11.9764C153.759 12.6074 154.37 13.7092 154.37 14.8943V15.631C154.37 16.6848 153.887 17.6778 153.056 18.3344L143.328 25.9992L127.531 19.9167L133.138 2.9375H133.135Z" fill="#FF8B63" stroke="#231F20" stroke-width="0.6" stroke-miterlimit="10"/>
<path d="M122.404 14.5742H133.138V36.3899H120.652V16.3167C120.652 15.3558 121.438 14.5742 122.404 14.5742Z" fill="#FF8B63" stroke="#231F20" stroke-width="0.6" stroke-miterlimit="10"/>
<path d="M145.538 36.3888H131.098V16.812C131.098 15.297 132.579 14.2208 134.031 14.6788L143.97 17.8273C144.904 18.122 145.538 18.9868 145.538 19.9606V36.3888Z" fill="#FF8B63" stroke="#231F20" stroke-width="0.6" stroke-miterlimit="10"/>
<path d="M127.339 2.9368H134.913C134.005 2.92719 133.206 3.52615 132.965 4.39737L129.767 16.0051C129.664 16.3574 129.612 16.7226 129.612 17.0877V19.9128H122.18V16.4535C122.18 16.114 122.225 15.7777 122.312 15.4478L125.229 4.54471C125.484 3.59662 126.347 2.93359 127.336 2.93359L127.339 2.9368Z" fill="#FF8B63" stroke="#231F20" stroke-width="0.6" stroke-miterlimit="10"/>
<path d="M135.449 23.594C136.493 23.594 137.339 22.0051 137.339 20.045C137.339 18.085 136.493 16.4961 135.449 16.4961C134.405 16.4961 133.559 18.085 133.559 20.045C133.559 22.0051 134.405 23.594 135.449 23.594Z" fill="#FF8B63" stroke="#231F20" stroke-width="0.6" stroke-miterlimit="10"/>
<path d="M137.224 10.5381C138.204 10.5381 138.998 9.29047 138.998 7.75146C138.998 6.21246 138.204 4.96484 137.224 4.96484C136.244 4.96484 135.449 6.21246 135.449 7.75146C135.449 9.29047 136.244 10.5381 137.224 10.5381Z" fill="#FF8B63" stroke="#231F20" stroke-width="0.6" stroke-miterlimit="10"/>
<path d="M149.379 17.13C150.26 17.13 150.973 16.251 150.973 15.1666C150.973 14.0822 150.26 13.2031 149.379 13.2031C148.499 13.2031 147.785 14.0822 147.785 15.1666C147.785 16.251 148.499 17.13 149.379 17.13Z" fill="#FF8B63" stroke="#231F20" stroke-width="0.6" stroke-miterlimit="10"/>
<path d="M218.668 3.82422L223.083 18.0168" stroke="#231F20" stroke-width="0.6" stroke-miterlimit="10"/>
<path d="M228.589 29.6304C229.877 29.6304 230.921 28.0329 230.921 26.0623C230.921 24.0917 229.877 22.4941 228.589 22.4941C227.302 22.4941 226.258 24.0917 226.258 26.0623C226.258 28.0329 227.302 29.6304 228.589 29.6304Z" fill="#231F20" stroke="#231F20" stroke-width="0.6" stroke-miterlimit="10"/>
<path d="M234.975 27.8574C235.537 27.8574 235.992 27.007 235.992 25.958C235.992 24.909 235.537 24.0586 234.975 24.0586C234.413 24.0586 233.957 24.909 233.957 25.958C233.957 27.007 234.413 27.8574 234.975 27.8574Z" fill="#FF8B63" stroke="#231F20" stroke-width="0.6" stroke-miterlimit="10"/>
<path d="M238.839 20.4219H230.234V23.0195H238.839V20.4219Z" fill="#FF8B63" stroke="#231F20" stroke-width="0.6" stroke-miterlimit="10"/>
<path d="M238.838 20.4219H232.719V23.0195H238.838V20.4219Z" fill="#FF8B63" stroke="#231F20" stroke-width="0.6" stroke-miterlimit="10"/>
<path d="M234.73 14.5312C235.309 14.5312 235.779 14.9989 235.779 15.5754V20.4216H233.68V15.5754C233.68 14.9989 234.15 14.5312 234.73 14.5312Z" fill="#FF8B63" stroke="#231F20" stroke-width="0.6" stroke-miterlimit="10"/>
<path d="M229.793 25.5762H222.531V31.4473H229.793V25.5762Z" fill="#231F20" stroke="#231F20" stroke-width="0.6" stroke-miterlimit="10"/>
<path d="M229.031 29.2812H221.895V30.7386H229.031V29.2812Z" fill="#FF8B63" stroke="#231F20" stroke-width="0.6" stroke-miterlimit="10"/>
<path d="M229.031 26.0625H221.895V27.5199H229.031V26.0625Z" fill="#FF8B63" stroke="#231F20" stroke-width="0.6" stroke-miterlimit="10"/>
<path d="M220.875 23.8457V25.9565H229.029V30.6873H221.171V33.2626H229.238L231.177 31.5746V24.0571L220.875 23.8457Z" fill="#FF8B63" stroke="#231F20" stroke-width="0.6" stroke-miterlimit="10"/>
<path d="M221.857 25.5188C221.719 25.3618 221.503 25.3042 221.306 25.3714C220.669 25.5956 219.368 26.201 218.675 27.6135C217.986 29.0165 218.025 30.9543 219.152 32.1746C219.806 32.8825 220.601 33.1067 220.904 33.1868C222.067 33.4975 223.661 33.3469 224.566 32.3956C225.644 31.2618 225.194 29.5642 226.128 29.2791C226.598 29.135 227.097 29.4521 227.464 29.0997C227.702 28.8691 227.718 28.52 227.718 28.4655C227.722 28.3534 227.706 28.2509 227.68 28.1613C227.606 27.9082 227.371 27.7353 227.107 27.7321L225.281 27.7128C224.814 27.7064 224.405 28.0363 224.321 28.4944C224.144 29.4681 223.58 30.24 222.817 30.5219C222.72 30.5571 221.741 30.903 220.955 30.3393C220.398 29.9389 220.266 29.3143 220.241 29.199C220.038 28.2445 220.65 27.1235 221.78 26.2683C222.018 26.0857 222.06 25.7462 221.864 25.522L221.857 25.5156V25.5188Z" fill="white" stroke="#231F20" stroke-width="0.6" stroke-miterlimit="10"/>
<path d="M213.184 20.4219H211.848V23.9292H213.184V20.4219Z" fill="#FF8B63" stroke="#231F20" stroke-width="0.6" stroke-miterlimit="10"/>
<path d="M208.133 20.4219H206.797V23.9292H208.133V20.4219Z" fill="#231F20" stroke="#231F20" stroke-width="0.6" stroke-miterlimit="10"/>
<path d="M210.308 20.4355H209.439C208.904 20.4355 208.473 21.358 208.473 22.4951C208.473 23.6322 208.904 24.5546 209.439 24.5546H210.308C210.843 24.5546 211.274 23.6322 211.274 22.4951C211.274 21.358 210.843 20.4355 210.308 20.4355Z" fill="#231F20" stroke="#231F20" stroke-width="0.6" stroke-miterlimit="10"/>
<path d="M34.2508 78.5176H36.5437C38.7136 78.5176 40.4727 76.7681 40.4727 74.6099V62.7524C40.4727 60.5942 38.7136 58.8447 36.5437 58.8447H34.2508C32.0809 58.8447 30.3218 60.5942 30.3218 62.7524V74.6099C30.3218 76.7681 32.0809 78.5176 34.2508 78.5176Z" fill="#7099ED" stroke="#231F20" stroke-width="0.6" stroke-miterlimit="10"/>
<path d="M28.0078 62.7495V74.6102C28.0078 76.4167 29.2445 77.9381 30.9223 78.3834C31.2444 78.4698 31.5825 78.5147 31.9335 78.5147H34.2265C36.3971 78.5147 38.1554 76.7658 38.1554 74.6102V62.7495C38.1554 60.5938 36.3971 58.8418 34.2265 58.8418H31.9335C29.7662 58.8418 28.0078 60.5938 28.0078 62.7495Z" fill="#7099ED" stroke="#231F20" stroke-width="0.6" stroke-miterlimit="10"/>
<path d="M28.0078 69.8086V74.6099C28.0078 76.4164 29.2445 77.9378 30.9223 78.3831V71.6439C30.9223 70.635 30.0914 69.8086 29.0738 69.8086H28.0078Z" fill="white" stroke="#231F20" stroke-width="0.6" stroke-miterlimit="10"/>
<path d="M158.33 138.457H5.70056C3.63947 138.457 1.96484 136.792 1.96484 134.738V111.183C1.96484 108.48 2.49622 105.828 3.50422 103.368C4.16763 101.754 5.03715 100.22 6.09667 98.807C6.39939 98.4003 6.71822 98.0063 7.05314 97.6219C7.1723 97.4842 7.29468 97.3497 7.41705 97.2151L29.6542 73.0196L32.8585 69.5347L59.4369 40.6179C60.0262 39.9773 60.6381 39.3656 61.2757 38.7858C62.0325 38.0908 62.8215 37.4405 63.6395 36.832C68.8277 32.9691 75.1719 30.8359 81.7513 30.8359H148.904L158.33 138.457Z" fill="white" stroke="#231F20" stroke-width="0.6" stroke-miterlimit="10"/>
<path d="M142.127 105.1H84.9219V138.456H142.127V105.1Z" fill="#231F20" stroke="#231F20" stroke-width="0.6" stroke-miterlimit="10"/>
<path d="M114.834 116.424H103.115C94.954 116.424 88.3359 126.145 88.3359 138.134C88.3359 150.123 94.954 159.844 103.115 159.844H114.834C122.994 159.844 129.612 150.123 129.612 138.134C129.612 126.145 122.994 116.424 114.834 116.424Z" fill="#7099ED" stroke="#231F20" stroke-width="0.6" stroke-miterlimit="10"/>
<path d="M108.001 116.424C99.8407 116.424 93.2227 126.145 93.2227 138.134C93.2227 150.123 99.8407 159.844 108.001 159.844" stroke="#231F20" stroke-width="0.6" stroke-miterlimit="10"/>
<path d="M105.954 116.424C97.7938 116.424 91.1758 126.145 91.1758 138.134C91.1758 150.123 97.7938 159.844 105.954 159.844" stroke="#231F20" stroke-width="0.6" stroke-miterlimit="10"/>
<path d="M110.048 116.424C101.888 116.424 95.2695 126.145 95.2695 138.134C95.2695 150.123 101.888 159.844 110.048 159.844" stroke="#231F20" stroke-width="0.6" stroke-miterlimit="10"/>
<path d="M112.095 116.424C103.934 116.424 97.3164 126.145 97.3164 138.134C97.3164 150.123 103.934 159.844 112.095 159.844" stroke="#231F20" stroke-width="0.6" stroke-miterlimit="10"/>
<path d="M115.245 158.056C122.735 158.056 128.806 149.137 128.806 138.134C128.806 127.131 122.735 118.211 115.245 118.211C107.755 118.211 101.684 127.131 101.684 138.134C101.684 149.137 107.755 158.056 115.245 158.056Z" stroke="#231F20" stroke-width="0.6" stroke-miterlimit="10"/>
<path d="M116.017 152.239C121.321 152.239 125.621 145.924 125.621 138.133C125.621 130.343 121.321 124.027 116.017 124.027C110.714 124.027 106.414 130.343 106.414 138.133C106.414 145.924 110.714 152.239 116.017 152.239Z" fill="white" stroke="#231F20" stroke-width="0.6" stroke-miterlimit="10"/>
<path d="M116.583 150.228C121.129 150.228 124.814 144.813 124.814 138.134C124.814 131.454 121.129 126.039 116.583 126.039C112.037 126.039 108.352 131.454 108.352 138.134C108.352 144.813 112.037 150.228 116.583 150.228Z" stroke="#231F20" stroke-width="0.6" stroke-miterlimit="10"/>
<path d="M115.852 147.316C115.491 147.316 115.201 147.028 115.201 146.669C115.201 146.31 115.491 146.019 115.852 146.019C116.209 146.019 116.563 145.961 116.911 145.849C117.253 145.737 117.62 145.926 117.732 146.265C117.845 146.605 117.655 146.97 117.314 147.082C116.837 147.236 116.348 147.313 115.855 147.316H115.852ZM112.441 145.766C112.274 145.766 112.103 145.702 111.978 145.573C111.659 145.253 111.362 144.885 111.095 144.484C110.895 144.187 110.979 143.783 111.279 143.588C111.578 143.389 111.984 143.472 112.18 143.77C112.403 144.103 112.644 144.401 112.905 144.664C113.156 144.92 113.153 145.33 112.899 145.58C112.773 145.705 112.605 145.766 112.441 145.766ZM120.032 144.741C119.906 144.741 119.781 144.705 119.671 144.632C119.372 144.433 119.291 144.03 119.491 143.732C119.703 143.415 119.9 143.069 120.074 142.704C120.228 142.38 120.618 142.242 120.943 142.396C121.268 142.55 121.407 142.937 121.252 143.261C121.053 143.684 120.824 144.084 120.576 144.452C120.45 144.638 120.244 144.741 120.032 144.741ZM110.248 141.233C109.942 141.233 109.672 141.019 109.61 140.708C109.527 140.276 109.462 139.83 109.417 139.385C109.382 139.03 109.646 138.713 110.003 138.677C110.364 138.642 110.68 138.905 110.715 139.26C110.754 139.664 110.812 140.067 110.889 140.458C110.957 140.811 110.728 141.15 110.374 141.217C110.332 141.227 110.29 141.23 110.248 141.23V141.233ZM121.658 139.955C121.636 139.955 121.613 139.955 121.594 139.952C121.236 139.917 120.975 139.6 121.011 139.244C121.049 138.847 121.072 138.44 121.072 138.037V138.005C121.072 137.646 121.365 137.358 121.723 137.358C122.08 137.358 122.373 137.649 122.373 138.005V138.037C122.373 138.485 122.351 138.934 122.305 139.372C122.273 139.705 121.99 139.955 121.658 139.955ZM110.245 136.163C110.203 136.163 110.161 136.16 110.119 136.15C109.765 136.083 109.536 135.743 109.604 135.391C109.691 134.943 109.8 134.504 109.933 134.087C110.039 133.745 110.403 133.553 110.747 133.658C111.092 133.764 111.285 134.126 111.179 134.469C111.063 134.843 110.963 135.237 110.886 135.638C110.825 135.948 110.554 136.163 110.248 136.163H110.245ZM121.124 134.888C120.85 134.888 120.595 134.715 120.505 134.443C120.376 134.059 120.225 133.687 120.058 133.338C119.903 133.014 120.038 132.627 120.364 132.473C120.689 132.319 121.078 132.454 121.233 132.777C121.423 133.175 121.597 133.597 121.742 134.036C121.855 134.376 121.671 134.744 121.33 134.856C121.262 134.879 121.191 134.888 121.124 134.888ZM112.419 131.621C112.254 131.621 112.09 131.56 111.965 131.439C111.707 131.189 111.701 130.779 111.952 130.522C112.293 130.173 112.663 129.872 113.056 129.622C113.359 129.43 113.762 129.52 113.955 129.821C114.148 130.122 114.058 130.522 113.755 130.715C113.446 130.91 113.153 131.147 112.882 131.426C112.754 131.557 112.586 131.621 112.415 131.621H112.419ZM118.232 130.788C118.109 130.788 117.984 130.753 117.874 130.683C117.555 130.474 117.22 130.314 116.885 130.209C116.541 130.1 116.351 129.738 116.46 129.395C116.57 129.052 116.934 128.863 117.278 128.972C117.729 129.113 118.17 129.325 118.589 129.6C118.889 129.795 118.972 130.199 118.776 130.497C118.65 130.686 118.444 130.788 118.232 130.788Z" fill="#231F20"/>
<path d="M116.378 144.911C118.74 144.911 120.655 141.876 120.655 138.133C120.655 134.39 118.74 131.355 116.378 131.355C114.016 131.355 112.102 134.39 112.102 138.133C112.102 141.876 114.016 144.911 116.378 144.911Z" stroke="#231F20" stroke-width="0.6" stroke-miterlimit="10"/>
<path d="M116.283 140.279C116.856 140.279 117.32 139.358 117.32 138.222C117.32 137.087 116.856 136.166 116.283 136.166C115.71 136.166 115.246 137.087 115.246 138.222C115.246 139.358 115.71 140.279 116.283 140.279Z" fill="white" stroke="#231F20" stroke-width="0.6" stroke-miterlimit="10"/>
<path d="M115.803 139.325C116.111 139.325 116.36 138.831 116.36 138.223C116.36 137.614 116.111 137.121 115.803 137.121C115.496 137.121 115.246 137.614 115.246 138.223C115.246 138.831 115.496 139.325 115.803 139.325Z" fill="#231F20" stroke="#231F20" stroke-width="0.6" stroke-miterlimit="10"/>
<path d="M169.428 41.7774V128.118C169.428 130.677 168.494 133.018 166.945 134.825C165.038 137.048 162.201 138.457 159.032 138.457H139.33C137.558 138.457 136.074 137.128 135.89 135.376L134.898 125.985C134.383 121.103 132.058 116.808 128.628 113.736C125.195 110.661 120.657 108.807 115.721 108.807C108.542 108.807 102.208 112.731 98.8873 118.624C97.6377 120.847 96.8133 123.355 96.5396 126.036L95.5799 135.366C95.3995 137.121 93.9149 138.457 92.1404 138.457H67.3334C65.2691 138.457 63.5977 136.795 63.5977 134.742V111.183C63.5977 106.014 65.5428 101.03 69.0499 97.2151L91.2999 73.0196L121.102 40.6115C121.688 39.9741 122.3 39.3656 122.934 38.7858C128.49 33.6962 135.794 30.8359 143.41 30.8359H158.427C164.504 30.8359 169.428 35.7333 169.428 41.7774Z" fill="white" stroke="#231F20" stroke-width="0.6" stroke-miterlimit="10"/>
<path d="M77.5357 98.8066V131.75H1.96484V111.183C1.96484 108.48 2.59927 105.828 3.80694 103.368C4.59917 101.753 5.63937 100.219 6.90822 98.8066H77.5357Z" fill="#7099ED" stroke="#231F20" stroke-width="0.6" stroke-miterlimit="10"/>
<path d="M121.127 40.582L121.101 40.6109L102.026 61.3536L98.7157 64.9538L93.9784 70.1042C93.885 70.2035 93.7916 70.3028 93.6918 70.3989C92.0107 72.074 89.721 73.0189 87.3282 73.0189H32.3488C31.3182 73.0189 30.7772 71.7986 31.4728 71.0395L32.8576 69.5341L46.0904 55.1365L58.4279 41.7127L59.4359 40.6173L59.452 40.5981C60.518 39.4418 62.0187 38.7852 63.5935 38.7852H120.331C121.268 38.7852 121.761 39.8934 121.127 40.582Z" fill="#231F20" stroke="#231F20" stroke-width="0.6" stroke-miterlimit="10"/>
<path d="M145.909 38.7852V73.0189H94.6746C93.3799 73.0189 92.7036 71.4911 93.5764 70.5398L121.098 40.6109C122.167 39.4482 123.681 38.7852 125.269 38.7852H145.905H145.909Z" fill="#7099ED" stroke="#231F20" stroke-width="0.6" stroke-miterlimit="10"/>
<path d="M98.8828 118.623C97.6333 120.846 96.8089 123.354 96.5351 126.035L95.5754 135.365C95.3951 137.12 93.9105 138.456 92.136 138.456H2.06988C1.01679 138.456 0.160156 137.604 0.160156 136.553V120.526C0.160156 119.475 1.01679 118.623 2.06988 118.623H98.8828Z" fill="#7099ED" stroke="#231F20" stroke-width="0.6" stroke-miterlimit="10"/>
<path d="M75.6307 111.657H64.6522C60.5268 111.657 57.7315 107.477 59.3256 103.691L60.4528 101.017C61.1999 99.2456 62.7844 97.9644 64.678 97.5993L77.1572 95.1906C81.8913 94.2778 85.598 99.1944 83.392 103.458L80.7641 108.541C79.7754 110.453 77.7916 111.657 75.6275 111.657H75.6307Z" fill="white" stroke="#231F20" stroke-width="0.6" stroke-miterlimit="10"/>
<path d="M6.96941 111.657H1.96484V111.183C1.96484 106.196 3.77473 101.378 7.05314 97.6211C8.89846 98.0119 10.4378 99.2803 11.1656 101.013L12.296 103.691C13.8901 107.474 11.0948 111.657 6.96941 111.657Z" fill="white" stroke="#231F20" stroke-width="0.6" stroke-miterlimit="10"/>
<path d="M44.5449 133.387H24.7198C23.0613 133.387 21.654 132.173 21.4156 130.539L18.105 107.654C17.8152 105.652 19.3771 103.861 21.4092 103.861H47.8555C49.8876 103.861 51.4463 105.652 51.1596 107.654L47.849 130.539C47.6139 132.173 46.2066 133.387 44.5449 133.387Z" fill="#7099ED" stroke="#231F20" stroke-width="0.6" stroke-miterlimit="10"/>
<path d="M24.7174 131.465C24.025 131.465 23.426 130.949 23.3261 130.267L20.0155 107.382C19.935 106.831 20.1862 106.446 20.344 106.267C20.5018 106.087 20.8464 105.783 21.4068 105.783H47.853C48.4102 105.783 48.758 106.084 48.9158 106.267C49.0736 106.446 49.3248 106.831 49.2443 107.382L45.9336 130.267C45.8338 130.949 45.238 131.465 44.5424 131.465H24.7174Z" fill="#7099ED" stroke="#231F20" stroke-width="0.6" stroke-miterlimit="10"/>
<path d="M20.1719 108.697H48.9659" stroke="#231F20" stroke-width="0.6" stroke-miterlimit="10"/>
<path d="M20.6602 112.047H48.4944" stroke="#231F20" stroke-width="0.6" stroke-miterlimit="10"/>
<path d="M21.1484 115.398H48.0263" stroke="#231F20" stroke-width="0.6" stroke-miterlimit="10"/>
<path d="M21.6367 118.748H47.5548" stroke="#231F20" stroke-width="0.6" stroke-miterlimit="10"/>
<path d="M22.125 122.102H47.0834" stroke="#231F20" stroke-width="0.6" stroke-miterlimit="10"/>
<path d="M22.6133 125.453H46.6152" stroke="#231F20" stroke-width="0.6" stroke-miterlimit="10"/>
<path d="M23.1016 128.803H46.1438" stroke="#231F20" stroke-width="0.6" stroke-miterlimit="10"/>
<path d="M34.6334 115.822C35.9691 115.822 37.0519 113.958 37.0519 111.658C37.0519 109.358 35.9691 107.494 34.6334 107.494C33.2977 107.494 32.2148 109.358 32.2148 111.658C32.2148 113.958 33.2977 115.822 34.6334 115.822Z" fill="white" stroke="#231F20" stroke-width="0.6" stroke-miterlimit="10"/>
<path d="M130.819 41.402L112.537 61.4016C110.038 64.137 108.656 67.6635 108.656 71.3181V107.714H122.958L131.209 113.543L136.958 122.489L139.917 136.102H155.288C159.018 136.102 162.042 133.095 162.042 129.386V42.6512C162.042 40.518 160.257 38.7852 158.058 38.7852H136.819C134.526 38.7852 132.339 39.7397 130.816 41.4052L130.819 41.402Z" fill="white" stroke="#231F20" stroke-width="0.6" stroke-miterlimit="10"/>
<path d="M166.945 134.824C165.039 137.047 162.201 138.456 159.032 138.456H139.33C137.559 138.456 136.074 137.127 135.89 135.375L134.898 125.984C134.383 121.102 132.058 116.807 128.628 113.735C125.195 110.661 120.658 108.806 115.721 108.806C108.542 108.806 102.208 112.73 98.8875 118.623H94.8555C95.126 118.021 95.4255 117.432 95.7508 116.852C99.8085 109.648 107.48 105.174 115.769 105.174C121.45 105.174 126.902 107.256 131.121 111.035C135.336 114.812 137.987 119.988 138.579 125.606L139.552 134.824H166.945Z" fill="#7099ED" stroke="#231F20" stroke-width="0.6" stroke-miterlimit="10"/>
<path d="M155.121 46.0404V68.785C155.121 70.8766 153.372 72.5774 151.212 72.5774H120.621C118.46 72.5774 116.711 70.8766 116.711 68.785V65.6685C116.711 64.73 117.068 63.8267 117.712 63.1317L119.139 61.5942L135.931 43.5036C136.674 42.7061 137.728 42.248 138.835 42.248H151.212C153.372 42.248 155.121 43.9488 155.121 46.0404Z" fill="#231F20" stroke="#231F20" stroke-width="0.6" stroke-miterlimit="10"/>
<path d="M162.047 73.0195H163.628C164.456 73.0195 165.126 73.6858 165.126 74.5089V80.6555C165.126 81.4787 164.456 82.1449 163.628 82.1449H162.047" stroke="#231F20" stroke-width="0.6" stroke-miterlimit="10"/>
<path d="M169.426 99.8595H93.1696C91.2889 99.8595 89.7656 98.7897 89.7656 97.4669C89.7656 96.1472 91.2889 95.0742 93.1696 95.0742H169.426" stroke="#231F20" stroke-width="0.6" stroke-miterlimit="10"/>
<path d="M142.129 116.424C142.129 116.424 169.429 116.728 169.429 116.424" stroke="#231F20" stroke-width="0.6" stroke-miterlimit="10"/>
<path d="M55.3242 97.1706C59.3659 97.1706 63.2175 95.4506 65.9034 92.4429L84.0473 72.123" stroke="#231F20" stroke-width="0.6" stroke-miterlimit="10"/>
<path d="M35.33 72.5684L19.3985 90.3162C17.0186 92.9683 18.9122 97.1707 22.4837 97.1707" stroke="#231F20" stroke-width="0.6" stroke-miterlimit="10"/>
<path d="M159.835 96.3145H148.625V97.4707H159.835V96.3145Z" fill="#231F20"/>
<path d="M123.651 72.5769H120.621C118.46 72.5769 116.711 70.8761 116.711 68.7845V65.668C116.711 64.7295 117.068 63.8262 117.712 63.1312L119.139 61.5938L123.651 72.5769Z" fill="#7099ED" stroke="#231F20" stroke-width="0.6" stroke-miterlimit="10"/>
<path d="M123.825 67.0391H120.428C119.419 67.0391 118.602 67.8522 118.602 68.8552V69.7008C118.602 70.7038 119.419 71.5169 120.428 71.5169H123.825C124.834 71.5169 125.651 70.7038 125.651 69.7008V68.8552C125.651 67.8522 124.834 67.0391 123.825 67.0391Z" fill="#7099ED" stroke="#231F20" stroke-width="0.6" stroke-miterlimit="10"/>
<path d="M145.91 38.7852H169.265" stroke="#231F20" stroke-width="0.6" stroke-miterlimit="10"/>
<path d="M131.28 58.8418H128.988C126.818 58.8418 125.059 60.5913 125.059 62.7495V74.607C125.059 76.7652 126.818 78.5147 128.988 78.5147H131.28C133.45 78.5147 135.209 76.7652 135.209 74.607V62.7495C135.209 60.5913 133.45 58.8418 131.28 58.8418Z" fill="#7099ED" stroke="#231F20" stroke-width="0.6" stroke-miterlimit="10"/>
<path d="M132.448 62.7495V74.6102C132.448 76.4167 131.212 77.9381 129.534 78.3834C129.212 78.4698 128.874 78.5147 128.523 78.5147H126.23C124.059 78.5147 122.301 76.7658 122.301 74.6102V62.7495C122.301 60.5938 124.059 58.8418 126.23 58.8418H128.523C130.69 58.8418 132.448 60.5938 132.448 62.7495Z" fill="#7099ED" stroke="#231F20" stroke-width="0.6" stroke-miterlimit="10"/>
<path d="M132.45 69.8086V74.6099C132.45 76.4164 131.213 77.9378 129.535 78.3831V71.6439C129.535 70.635 130.366 69.8086 131.384 69.8086H132.45Z" fill="white" stroke="#231F20" stroke-width="0.6" stroke-miterlimit="10"/>
<path d="M88.8635 136.102H58.5494C56.2146 136.102 54.3242 134.222 54.3242 131.9C54.3242 129.577 56.2146 127.697 58.5494 127.697H92.5638L92.0324 133.238C91.8778 134.862 90.5059 136.105 88.8635 136.105V136.102Z" stroke="#231F20" stroke-width="0.6" stroke-miterlimit="10"/>
<path d="M57.6885 134.498C58.9015 134.498 59.8849 133.335 59.8849 131.9C59.8849 130.466 58.9015 129.303 57.6885 129.303C56.4755 129.303 55.4922 130.466 55.4922 131.9C55.4922 133.335 56.4755 134.498 57.6885 134.498Z" fill="white" stroke="#231F20" stroke-width="0.6" stroke-miterlimit="10"/>
<path d="M0.160156 136.102H12.0146C14.3494 136.102 16.2398 134.222 16.2398 131.9C16.2398 129.577 14.3494 127.697 12.0146 127.697H0.160156" stroke="#231F20" stroke-width="0.6" stroke-miterlimit="10"/>
<path d="M12.8721 134.498C14.0851 134.498 15.0685 133.335 15.0685 131.9C15.0685 130.466 14.0851 129.303 12.8721 129.303C11.6591 129.303 10.6758 130.466 10.6758 131.9C10.6758 133.335 11.6591 134.498 12.8721 134.498Z" fill="white" stroke="#231F20" stroke-width="0.6" stroke-miterlimit="10"/>
<path d="M62.8244 120.508H62.0032C61.5355 120.508 61.1562 120.885 61.1562 121.35V124.608C61.1562 125.073 61.5355 125.45 62.0032 125.45H62.8244C63.2922 125.45 63.6714 125.073 63.6714 124.608V121.35C63.6714 120.885 63.2922 120.508 62.8244 120.508Z" fill="#231F20" stroke="#231F20" stroke-width="0.6" stroke-miterlimit="10"/>
<path d="M62.9125 124.967H60.932C59.9175 124.967 59.0126 124.243 58.8838 123.243C58.7292 122.033 59.676 120.998 60.8611 120.998H62.9093C63.328 120.998 63.6661 121.334 63.6661 121.751C63.6661 122.167 63.328 122.503 62.9093 122.503H60.8869C60.6486 122.503 60.4264 122.667 60.3877 122.901C60.3394 123.199 60.5713 123.458 60.8611 123.458H62.9093C63.328 123.458 63.6661 123.794 63.6661 124.211C63.6661 124.627 63.328 124.963 62.9093 124.963L62.9125 124.967Z" fill="white" stroke="#231F20" stroke-width="0.6" stroke-miterlimit="10"/>
<path d="M9.75413 120.508H8.93291C8.46514 120.508 8.08594 120.885 8.08594 121.35V124.608C8.08594 125.073 8.46514 125.45 8.93291 125.45H9.75413C10.2219 125.45 10.6011 125.073 10.6011 124.608V121.35C10.6011 120.885 10.2219 120.508 9.75413 120.508Z" fill="#231F20" stroke="#231F20" stroke-width="0.6" stroke-miterlimit="10"/>
<path d="M9.84614 124.967H7.86557C6.85113 124.967 5.94618 124.243 5.81736 123.243C5.66278 122.033 6.60959 120.998 7.79472 120.998H9.84292C10.2616 120.998 10.5997 121.334 10.5997 121.751C10.5997 122.167 10.2616 122.503 9.84292 122.503H7.82048C7.58217 122.503 7.35996 122.667 7.32131 122.901C7.273 123.199 7.50488 123.458 7.79472 123.458H9.84292C10.2616 123.458 10.5997 123.794 10.5997 124.211C10.5997 124.627 10.2616 124.963 9.84292 124.963L9.84614 124.967Z" fill="white" stroke="#231F20" stroke-width="0.6" stroke-miterlimit="10"/>
<path d="M68.4883 118.623V121.012C68.4883 122.127 69.3964 123.03 70.5172 123.03H96.899" stroke="#231F20" stroke-width="0.6" stroke-miterlimit="10"/>
<path d="M4.86522 118.623V121.012C4.86522 122.127 3.95706 123.03 2.83634 123.03H0.160156" stroke="#231F20" stroke-width="0.6" stroke-miterlimit="10"/>
<path d="M93.6912 70.3991C92.0101 72.0742 89.7204 73.0191 87.3276 73.0191H65.8118L46.0898 55.1367L58.4274 41.7129L93.6912 70.3991Z" fill="white" stroke="#231F20" stroke-width="0.6" stroke-miterlimit="10"/>
<path d="M102.027 61.3536L98.7167 64.9538L67.8906 38.7852H74.2864L102.027 61.3536Z" fill="white" stroke="#231F20" stroke-width="0.6" stroke-miterlimit="10"/>
<path d="M134.807 44.7148L155.121 61.0022V69.125L130.469 49.388L134.807 44.7148Z" fill="white" stroke="#231F20" stroke-width="0.6" stroke-miterlimit="10"/>
<path d="M42.9375 79.2911L44.0775 78.0708C45.4623 76.5878 47.4075 75.7422 49.446 75.7422H58.985C60.8915 75.7422 61.8447 78.0323 60.4986 79.3744L59.5968 80.2712" stroke="#231F20" stroke-width="0.6" stroke-miterlimit="10"/>
<path d="M140.302 42.248H138.602V72.5742H140.302V42.248Z" fill="white" stroke="#231F20" stroke-width="0.6" stroke-miterlimit="10"/>
<path d="M304.224 82.0859H203.617V88.0339H304.224V82.0859Z" fill="white" stroke="#231F20" stroke-width="0.6" stroke-miterlimit="10"/>
<path d="M305.839 82.0859H205.02V88.0339H305.839V82.0859Z" fill="white" stroke="#231F20" stroke-width="0.6" stroke-miterlimit="10"/>
<path d="M304.224 111.096H203.617V114.629H304.224V111.096Z" fill="white" stroke="#231F20" stroke-width="0.6" stroke-miterlimit="10"/>
<path d="M305.839 111.096H205.02V114.629H305.839V111.096Z" fill="white" stroke="#231F20" stroke-width="0.6" stroke-miterlimit="10"/>
<path d="M208.831 88.0352H203.617V111.097H208.831V88.0352Z" fill="white" stroke="#231F20" stroke-width="0.6" stroke-miterlimit="10"/>
<path d="M240.548 109.703H237.234V118.21H240.548V109.703Z" fill="white" stroke="#231F20" stroke-width="0.6" stroke-miterlimit="10"/>
<path d="M243.687 138.787H197.168V141.808H243.687V138.787Z" fill="white" stroke="#231F20" stroke-width="0.6" stroke-miterlimit="10"/>
<path d="M244.582 135.711H198.062V138.731H244.582V135.711Z" fill="white" stroke="#231F20" stroke-width="0.6" stroke-miterlimit="10"/>
<path d="M244.582 141.857H198.062V144.878H244.582V141.857Z" fill="white" stroke="#231F20" stroke-width="0.6" stroke-miterlimit="10"/>
</g>
<defs>
<clipPath id="clip0_8626_22523">
<rect width="306" height="160" fill="white"/>
</clipPath>
</defs>
</svg>
