<svg width="304" height="240" viewBox="0 0 304 240" fill="none" xmlns="http://www.w3.org/2000/svg">
<g clip-path="url(#clip0_8626_21652)">
<path d="M39.5202 192.496L6.05859 171.398" stroke="#231F20" stroke-width="0.5" stroke-linejoin="round"/>
<path d="M3.76953 180.074L90.8209 130.777" stroke="#231F20" stroke-width="0.5" stroke-linejoin="round"/>
<path d="M11.9766 169.438V180.073" stroke="#231F20" stroke-width="0.5" stroke-linejoin="round"/>
<path d="M35.8409 186L0.675781 205.069" stroke="#231F20" stroke-width="0.5" stroke-linejoin="round"/>
<path d="M0.121094 195.537L246.977 337.613" stroke="#231F20" stroke-width="0.5" stroke-linejoin="round"/>
<path d="M9.04297 208.863L9.04297 192.842" stroke="#231F20" stroke-width="0.5" stroke-linejoin="round"/>
<path d="M168.818 112.045C168.774 112.045 168.736 112.036 168.697 112.012L164.933 109.833C164.856 109.789 164.812 109.707 164.812 109.625L164.967 55.1678C164.967 55.0807 165.015 55.0032 165.088 54.9597C165.126 54.9403 165.165 54.9258 165.208 54.9258C165.252 54.9258 165.29 54.9355 165.329 54.9597L169.093 57.1381C169.17 57.1817 169.214 57.264 169.214 57.3463L169.059 111.803C169.059 111.891 169.011 111.968 168.939 112.012C168.9 112.031 168.861 112.045 168.818 112.045Z" fill="#7099ED"/>
<path d="M165.207 55.1638L168.971 57.3423L168.817 111.799L165.053 109.621L165.207 55.1638ZM165.207 54.6797C165.125 54.6797 165.043 54.6991 164.966 54.7426C164.816 54.8298 164.725 54.9895 164.725 55.159L164.57 109.616C164.57 109.79 164.662 109.95 164.812 110.037L168.576 112.216C168.648 112.259 168.735 112.279 168.817 112.279C168.899 112.279 168.981 112.259 169.058 112.216C169.208 112.129 169.3 111.969 169.3 111.799L169.454 57.3423C169.454 57.168 169.362 57.0082 169.213 56.9211L165.449 54.7426C165.376 54.6991 165.289 54.6797 165.207 54.6797Z" fill="#231F20"/>
<path d="M172.923 108.57C172.88 108.57 172.841 108.561 172.803 108.537L169.039 106.358C168.961 106.314 168.918 106.232 168.918 106.15L169.072 57.4198C169.072 57.3326 169.121 57.2552 169.193 57.2116C169.232 57.1923 169.27 57.1777 169.314 57.1777C169.357 57.1777 169.396 57.1874 169.434 57.2116L173.198 59.3901C173.276 59.4337 173.319 59.516 173.319 59.5983L173.165 108.328C173.165 108.416 173.116 108.493 173.044 108.537C173.005 108.556 172.967 108.57 172.923 108.57Z" fill="#7099ED"/>
<path d="M169.313 57.4157L173.077 59.5942L172.922 108.324L169.158 106.146L169.313 57.4157ZM169.313 56.9316C169.231 56.9316 169.149 56.951 169.071 56.9946C168.922 57.0817 168.83 57.2415 168.83 57.4109L168.676 106.141C168.676 106.315 168.767 106.475 168.917 106.562L172.681 108.741C172.754 108.784 172.84 108.804 172.922 108.804C173.004 108.804 173.086 108.784 173.164 108.741C173.313 108.654 173.405 108.494 173.405 108.324L173.559 59.5942C173.559 59.4199 173.468 59.2602 173.318 59.1731L169.554 56.9946C169.482 56.951 169.395 56.9316 169.313 56.9316Z" fill="#231F20"/>
<path d="M122.202 133.763C122.159 133.763 122.12 133.754 122.082 133.729C122.004 133.686 121.961 133.604 121.961 133.521L122.115 84.9171C122.115 84.8299 122.164 84.7525 122.236 84.7089L169.19 57.3327C169.229 57.3085 169.268 57.2988 169.311 57.2988C169.354 57.2988 169.393 57.3085 169.432 57.3327C169.509 57.3763 169.552 57.4586 169.552 57.5409L169.398 106.145C169.398 106.232 169.35 106.31 169.277 106.353L122.323 133.729C122.284 133.754 122.246 133.763 122.202 133.763Z" fill="white"/>
<path d="M169.314 57.5407L169.16 106.145L122.205 133.521L122.36 84.9169L169.314 57.5407ZM169.314 57.0566C169.232 57.0566 169.145 57.0808 169.073 57.1244L122.118 84.5006C121.969 84.5877 121.877 84.7475 121.877 84.9169L121.723 133.521C121.723 133.695 121.814 133.855 121.964 133.942C122.036 133.986 122.123 134.005 122.205 134.005C122.287 134.005 122.374 133.981 122.447 133.937L169.401 106.561C169.55 106.474 169.642 106.314 169.642 106.145L169.797 57.5407C169.797 57.3665 169.705 57.2067 169.555 57.1196C169.483 57.076 169.396 57.0566 169.314 57.0566Z" fill="#231F20"/>
<path d="M173.076 59.7244L172.936 108.333L150.906 122.295L152.533 127.291L182.283 108.721L182.438 54.2637L173.076 59.7244Z" fill="white" stroke="#231F20" stroke-linejoin="round"/>
<path d="M144.069 125.916C144.02 125.916 143.972 125.902 143.929 125.873L139.938 123.06C139.87 123.012 139.832 122.934 139.836 122.852C139.841 122.77 139.885 122.692 139.957 122.653L169.037 105.942C169.075 105.923 169.114 105.908 169.157 105.908C169.201 105.908 169.24 105.918 169.278 105.942L173.042 108.121C173.115 108.164 173.163 108.242 173.163 108.329C173.163 108.416 173.119 108.493 173.047 108.537L144.194 125.882C144.155 125.907 144.112 125.916 144.069 125.916Z" fill="white"/>
<path d="M169.157 106.145L172.921 108.324L144.068 125.669L140.077 122.857L169.157 106.145ZM169.157 105.661C169.075 105.661 168.993 105.68 168.916 105.724L139.836 122.435C139.691 122.518 139.599 122.668 139.595 122.832C139.585 122.997 139.662 123.157 139.797 123.249L143.788 126.061C143.87 126.119 143.967 126.148 144.068 126.148C144.155 126.148 144.242 126.124 144.314 126.081L173.167 108.735C173.312 108.648 173.404 108.488 173.404 108.314C173.404 108.145 173.312 107.985 173.162 107.898L169.398 105.719C169.326 105.676 169.239 105.656 169.157 105.656V105.661Z" fill="#231F20"/>
<path d="M300.066 81.5281C300.022 81.5281 299.983 81.5185 299.945 81.4943C299.868 81.4507 299.824 81.3684 299.824 81.2861L299.979 26.829C299.979 26.7419 300.027 26.6644 300.099 26.6209L302.223 25.3815C302.261 25.3573 302.3 25.3477 302.343 25.3477C302.387 25.3477 302.425 25.3573 302.464 25.3815C302.541 25.4251 302.585 25.5074 302.585 25.5897L302.43 80.0468C302.43 80.1339 302.382 80.2114 302.309 80.2549L300.186 81.4943C300.148 81.5185 300.109 81.5281 300.066 81.5281Z" fill="white"/>
<path d="M302.342 25.5896L302.188 80.0466L300.065 81.286L300.219 26.8289L302.342 25.5896ZM302.342 25.1055C302.26 25.1055 302.173 25.1297 302.101 25.1732L299.978 26.4126C299.828 26.4997 299.736 26.6594 299.736 26.8289L299.582 81.286C299.582 81.4602 299.674 81.62 299.823 81.7071C299.896 81.7507 299.983 81.7701 300.065 81.7701C300.147 81.7701 300.234 81.7459 300.306 81.7023L302.429 80.463C302.579 80.3758 302.671 80.2161 302.671 80.0466L302.825 25.5896C302.825 25.4153 302.733 25.2555 302.584 25.1684C302.511 25.1248 302.424 25.1055 302.342 25.1055Z" fill="#231F20"/>
<path d="M294.374 74.9139C294.331 74.9139 294.292 74.9043 294.253 74.8801C294.176 74.8365 294.133 74.7542 294.133 74.6671L294.287 30.1438C294.287 30.0567 294.335 29.9792 294.408 29.9357L299.764 26.8132C299.803 26.789 299.842 26.7793 299.885 26.7793C299.929 26.7793 299.967 26.789 300.006 26.8132C300.083 26.8568 300.126 26.9391 300.126 27.0262L299.972 71.5494C299.972 71.6366 299.924 71.714 299.851 71.7576L294.495 74.8801C294.456 74.9043 294.418 74.9139 294.374 74.9139Z" fill="white"/>
<path d="M299.884 27.0271L299.73 71.5503L294.373 74.6728L294.528 30.1496L299.884 27.0271ZM299.884 26.543C299.802 26.543 299.715 26.5672 299.643 26.6107L294.286 29.7332C294.137 29.8204 294.045 29.9801 294.045 30.1496L293.891 74.6728C293.891 74.847 293.982 75.0068 294.132 75.0939C294.204 75.1375 294.291 75.1569 294.373 75.1569C294.455 75.1569 294.542 75.1327 294.614 75.0891L299.971 71.9666C300.121 71.8795 300.212 71.7197 300.212 71.5503L300.367 27.0271C300.367 26.8528 300.275 26.693 300.125 26.6059C300.053 26.5623 299.966 26.543 299.884 26.543Z" fill="#231F20"/>
<path d="M344.822 97.909C344.779 97.909 344.74 97.8993 344.701 97.8751L299.605 71.7576C299.528 71.714 299.484 71.6317 299.484 71.5446L299.639 27.0213C299.639 26.9342 299.687 26.8568 299.759 26.8132C299.798 26.7938 299.837 26.7793 299.88 26.7793C299.923 26.7793 299.962 26.789 300.001 26.8132L345.097 52.9307C345.174 52.9743 345.218 53.0566 345.218 53.1437L345.063 97.6669C345.063 97.7541 345.015 97.8315 344.943 97.8751C344.904 97.8945 344.866 97.909 344.822 97.909Z" fill="white"/>
<path d="M299.883 27.0271L344.98 53.1446L344.825 97.6678L299.729 71.5503L299.883 27.0271ZM299.883 26.543C299.801 26.543 299.719 26.5623 299.642 26.6059C299.492 26.693 299.401 26.8528 299.401 27.0222L299.246 71.5455C299.246 71.7197 299.338 71.8795 299.487 71.9666L344.584 98.0841C344.656 98.1277 344.743 98.1471 344.825 98.1471C344.907 98.1471 344.989 98.1277 345.066 98.0841C345.216 97.997 345.308 97.8372 345.308 97.6678L345.462 53.1446C345.462 52.9703 345.37 52.8106 345.221 52.7234L300.124 26.6059C300.052 26.5623 299.965 26.543 299.883 26.543Z" fill="#231F20"/>
<path d="M340.407 101.138C340.363 101.138 340.325 101.129 340.286 101.104L294.253 74.8754C294.176 74.8319 294.133 74.7544 294.133 74.6673C294.133 74.5801 294.176 74.5027 294.253 74.4591L299.61 71.3366C299.649 71.3124 299.687 71.3027 299.731 71.3027C299.774 71.3027 299.813 71.3124 299.846 71.3318L347.945 98.2239C348.027 98.2723 348.075 98.3643 348.065 98.4562C348.056 98.5531 347.993 98.6354 347.901 98.6644L340.479 101.124C340.455 101.133 340.431 101.138 340.402 101.138H340.407Z" fill="white"/>
<path d="M299.73 71.5505L347.828 98.4426L340.406 100.902L294.373 74.673L299.73 71.5505ZM299.73 71.0664C299.648 71.0664 299.561 71.0906 299.488 71.1342L294.132 74.2567C293.982 74.3438 293.891 74.5036 293.891 74.6778C293.891 74.8521 293.982 75.0119 294.137 75.0942L340.169 101.323C340.242 101.367 340.324 101.386 340.406 101.386C340.459 101.386 340.507 101.376 340.555 101.362L347.977 98.9025C348.161 98.8444 348.286 98.6798 348.306 98.491C348.325 98.2974 348.228 98.1182 348.059 98.0214L299.961 71.1293C299.889 71.0906 299.807 71.0664 299.725 71.0664H299.73Z" fill="#231F20"/>
<path d="M186.706 106.387C186.663 106.387 186.624 106.377 186.585 106.353C186.508 106.309 186.465 106.227 186.465 106.145L186.619 51.6876C186.619 51.6005 186.668 51.523 186.74 51.4795L258.928 9.39131C258.967 9.3671 259.005 9.35742 259.049 9.35742C259.092 9.35742 259.131 9.3671 259.169 9.39131C259.247 9.43488 259.29 9.51718 259.29 9.59947L259.136 64.0566C259.136 64.1437 259.087 64.2211 259.015 64.2647L186.827 106.348C186.788 106.372 186.75 106.382 186.706 106.382V106.387Z" fill="white"/>
<path d="M259.048 9.6052L258.893 64.0623L186.705 106.146L186.86 51.6885L259.048 9.6052ZM259.048 9.12109C258.966 9.12109 258.879 9.1453 258.806 9.18887L186.618 51.2722C186.469 51.3593 186.377 51.5191 186.377 51.6885L186.223 106.146C186.223 106.32 186.314 106.48 186.464 106.567C186.536 106.61 186.623 106.63 186.705 106.63C186.787 106.63 186.874 106.605 186.947 106.562L259.135 64.4786C259.284 64.3915 259.376 64.2317 259.376 64.0623L259.53 9.6052C259.53 9.43092 259.439 9.27117 259.289 9.18403C259.217 9.14046 259.13 9.12109 259.048 9.12109Z" fill="#231F20"/>
<path d="M116.331 147.416C116.288 147.416 116.249 147.407 116.21 147.382C116.133 147.339 116.09 147.256 116.09 147.174L116.244 92.7171C116.244 92.6299 116.293 92.5525 116.365 92.5089L126.002 86.8933C126.041 86.8691 126.079 86.8594 126.123 86.8594C126.166 86.8594 126.205 86.8691 126.243 86.8933C126.32 86.9368 126.364 87.0191 126.364 87.1014L126.209 141.559C126.209 141.646 126.161 141.723 126.089 141.767L116.452 147.382C116.413 147.407 116.375 147.416 116.331 147.416Z" fill="white"/>
<path d="M126.122 87.1013L125.967 141.558L116.33 147.174L116.485 92.7169L126.122 87.1013ZM126.122 86.6172C126.04 86.6172 125.953 86.6414 125.88 86.685L116.243 92.3006C116.094 92.3877 116.002 92.5475 116.002 92.7169L115.848 147.174C115.848 147.348 115.939 147.508 116.089 147.595C116.161 147.639 116.248 147.658 116.33 147.658C116.412 147.658 116.499 147.634 116.572 147.59L126.209 141.975C126.358 141.888 126.45 141.728 126.45 141.558L126.604 87.1013C126.604 86.927 126.513 86.7673 126.363 86.6801C126.291 86.6366 126.204 86.6172 126.122 86.6172Z" fill="#231F20"/>
<path d="M254.945 151.05C254.902 151.05 254.863 151.04 254.825 151.016L182.164 108.933C182.086 108.889 182.043 108.807 182.043 108.725L182.197 54.2674C182.197 54.1803 182.246 54.1028 182.318 54.0593C182.357 54.0399 182.395 54.0254 182.439 54.0254C182.482 54.0254 182.521 54.0351 182.559 54.0593L255.22 96.1426C255.298 96.1862 255.341 96.2685 255.341 96.3508L255.187 150.808C255.187 150.895 255.138 150.972 255.066 151.016C255.027 151.035 254.989 151.05 254.945 151.05Z" fill="#7099ED"/>
<path d="M182.438 54.2634L255.099 96.3467L254.944 150.804L182.283 108.72L182.438 54.2634ZM182.438 53.7793C182.356 53.7793 182.274 53.7987 182.196 53.8422C182.047 53.9294 181.955 54.0891 181.955 54.2586L181.801 108.716C181.801 108.89 181.892 109.05 182.042 109.137L254.703 151.22C254.775 151.264 254.862 151.283 254.944 151.283C255.026 151.283 255.108 151.264 255.186 151.22C255.335 151.133 255.427 150.973 255.427 150.804L255.581 96.3467C255.581 96.1724 255.49 96.0127 255.34 95.9255L182.679 53.8422C182.607 53.7987 182.52 53.7793 182.438 53.7793Z" fill="#231F20"/>
<path d="M263.159 153.881C263.116 153.881 263.077 153.872 263.039 153.847C262.961 153.804 262.918 153.722 262.918 153.639L263.072 99.1823C263.072 99.0951 263.121 99.0177 263.193 98.9741L265.958 97.362C265.997 97.3378 266.035 97.3281 266.079 97.3281C266.122 97.3281 266.161 97.3378 266.199 97.362C266.277 97.4056 266.32 97.4879 266.32 97.5702L266.166 152.027C266.166 152.114 266.117 152.192 266.045 152.235L263.28 153.847C263.241 153.872 263.203 153.881 263.159 153.881Z" fill="white"/>
<path d="M266.078 97.5661L265.923 152.023L263.158 153.635L263.313 99.1782L266.078 97.5661ZM266.078 97.082C265.996 97.082 265.909 97.1062 265.837 97.1498L263.071 98.7619C262.922 98.849 262.83 99.0088 262.83 99.1782L262.676 153.635C262.676 153.81 262.767 153.969 262.917 154.056C262.989 154.1 263.076 154.119 263.158 154.119C263.24 154.119 263.327 154.095 263.4 154.052L266.165 152.44C266.314 152.352 266.406 152.193 266.406 152.023L266.56 97.5661C266.56 97.3919 266.469 97.2321 266.319 97.145C266.247 97.1014 266.16 97.082 266.078 97.082Z" fill="#231F20"/>
<path d="M261.502 154.847C261.459 154.847 261.42 154.837 261.382 154.813L259.273 153.593C259.196 153.549 259.152 153.467 259.152 153.385L259.307 98.9276C259.307 98.8405 259.355 98.763 259.427 98.7194C259.466 98.7001 259.505 98.6855 259.548 98.6855C259.591 98.6855 259.63 98.6952 259.669 98.7194L261.778 99.9394C261.855 99.9829 261.898 100.065 261.898 100.148L261.744 154.605C261.744 154.692 261.696 154.769 261.623 154.813C261.585 154.832 261.546 154.847 261.502 154.847Z" fill="#7099ED"/>
<path d="M259.547 98.9275L261.656 100.147L261.502 154.604L259.393 153.385L259.547 98.9275ZM259.547 98.4434C259.465 98.4434 259.383 98.4627 259.306 98.5063C259.156 98.5934 259.065 98.7532 259.065 98.9226L258.91 153.38C258.91 153.554 259.002 153.714 259.151 153.801L261.26 155.021C261.333 155.064 261.42 155.084 261.502 155.084C261.584 155.084 261.666 155.064 261.743 155.021C261.892 154.934 261.984 154.774 261.984 154.604L262.139 100.147C262.139 99.9731 262.047 99.8134 261.897 99.7262L259.788 98.5063C259.716 98.4627 259.629 98.4434 259.547 98.4434Z" fill="#231F20"/>
<path d="M261.503 154.847C261.46 154.847 261.421 154.837 261.382 154.813C261.305 154.769 261.262 154.687 261.262 154.605L261.416 100.148C261.416 100.061 261.464 99.9832 261.537 99.9396L262.801 99.2038C262.84 99.1796 262.878 99.1699 262.922 99.1699C262.965 99.1699 263.004 99.1796 263.042 99.2038C263.12 99.2474 263.163 99.3297 263.163 99.412L263.009 153.869C263.009 153.956 262.96 154.034 262.888 154.077L261.624 154.813C261.585 154.837 261.546 154.847 261.503 154.847Z" fill="white"/>
<path d="M262.921 99.4118L262.766 153.869L261.502 154.605L261.657 100.148L262.921 99.4118ZM262.921 98.9277C262.839 98.9277 262.752 98.9519 262.68 98.9955L261.415 99.7313C261.266 99.8185 261.174 99.9782 261.174 100.148L261.02 154.605C261.02 154.779 261.111 154.939 261.261 155.026C261.333 155.069 261.42 155.089 261.502 155.089C261.584 155.089 261.671 155.065 261.743 155.021L263.008 154.285C263.157 154.198 263.249 154.038 263.249 153.869L263.403 99.4118C263.403 99.2376 263.312 99.0778 263.162 98.9907C263.09 98.9471 263.003 98.9277 262.921 98.9277Z" fill="#231F20"/>
<path d="M281.632 166.504C281.589 166.504 281.55 166.495 281.512 166.47L278.312 164.616C278.235 164.573 278.191 164.49 278.191 164.408L278.346 109.951C278.346 109.864 278.394 109.786 278.466 109.743C278.505 109.724 278.544 109.709 278.587 109.709C278.631 109.709 278.669 109.719 278.708 109.743L281.907 111.597C281.984 111.641 282.028 111.723 282.028 111.805L281.873 166.262C281.873 166.349 281.825 166.427 281.753 166.47C281.714 166.49 281.676 166.504 281.632 166.504Z" fill="white"/>
<path d="M278.586 109.951L281.786 111.805L281.631 166.262L278.432 164.408L278.586 109.951ZM278.586 109.467C278.504 109.467 278.422 109.486 278.345 109.53C278.195 109.617 278.104 109.777 278.104 109.946L277.949 164.403C277.949 164.577 278.041 164.737 278.191 164.824L281.39 166.678C281.462 166.722 281.549 166.741 281.631 166.741C281.713 166.741 281.795 166.722 281.873 166.678C282.022 166.591 282.114 166.432 282.114 166.262L282.268 111.805C282.268 111.631 282.177 111.471 282.027 111.384L278.828 109.53C278.755 109.486 278.668 109.467 278.586 109.467Z" fill="#231F20"/>
<path d="M269.293 167.095C269.201 167.095 269.119 167.046 269.076 166.964L262.551 153.98C262.532 153.947 262.527 153.908 262.527 153.869L262.682 99.412C262.682 99.3006 262.759 99.2038 262.87 99.1748C262.889 99.1748 262.909 99.1699 262.923 99.1699C263.015 99.1699 263.097 99.2183 263.14 99.3006L269.665 112.284C269.684 112.318 269.689 112.357 269.689 112.396L269.534 166.853C269.534 166.964 269.457 167.061 269.346 167.09C269.327 167.09 269.308 167.095 269.293 167.095Z" fill="white"/>
<path d="M262.922 99.4118L269.447 112.396L269.292 166.853L262.768 153.869L262.922 99.4118ZM262.922 98.9277C262.884 98.9277 262.85 98.9277 262.811 98.9423C262.594 98.9955 262.44 99.1892 262.44 99.4118L262.285 153.869C262.285 153.946 262.304 154.019 262.338 154.087L268.863 167.07C268.945 167.235 269.114 167.337 269.292 167.337C269.331 167.337 269.365 167.337 269.403 167.322C269.62 167.269 269.775 167.075 269.775 166.853L269.929 112.396C269.929 112.318 269.91 112.245 269.876 112.178L263.352 99.194C263.27 99.0294 263.101 98.9277 262.922 98.9277Z" fill="#231F20"/>
<path d="M261.784 179.647C261.74 179.647 261.702 179.638 261.663 179.613L260.312 178.829C260.235 178.786 260.191 178.703 260.191 178.621L260.346 124.164C260.346 124.077 260.394 123.999 260.466 123.956C260.505 123.936 260.544 123.922 260.587 123.922C260.631 123.922 260.669 123.932 260.708 123.956L262.059 124.74C262.136 124.784 262.18 124.866 262.18 124.948L262.025 179.405C262.025 179.492 261.977 179.57 261.905 179.613C261.866 179.633 261.827 179.647 261.784 179.647Z" fill="white"/>
<path d="M260.586 124.164L261.937 124.948L261.783 179.405L260.432 178.621L260.586 124.164ZM260.586 123.68C260.504 123.68 260.422 123.699 260.345 123.743C260.195 123.83 260.104 123.99 260.104 124.159L259.949 178.616C259.949 178.79 260.041 178.95 260.191 179.037L261.542 179.821C261.614 179.865 261.701 179.884 261.783 179.884C261.865 179.884 261.947 179.865 262.024 179.821C262.174 179.734 262.266 179.575 262.266 179.405L262.42 124.948C262.42 124.774 262.328 124.614 262.179 124.527L260.828 123.743C260.755 123.699 260.668 123.68 260.586 123.68Z" fill="#231F20"/>
<path d="M210.172 179.564C210.128 179.564 210.085 179.55 210.042 179.525L208.048 178.272C207.976 178.228 207.938 178.151 207.938 178.068L208.092 123.611C208.092 123.524 208.14 123.442 208.217 123.398C208.256 123.379 208.295 123.369 208.333 123.369C208.377 123.369 208.42 123.384 208.464 123.408L210.457 124.662C210.529 124.705 210.568 124.783 210.568 124.865L210.413 179.322C210.413 179.409 210.365 179.492 210.288 179.535C210.249 179.554 210.21 179.564 210.172 179.564Z" fill="#7099ED"/>
<path d="M208.332 123.611L210.325 124.865L210.171 179.322L208.178 178.068L208.332 123.611ZM208.332 123.127C208.25 123.127 208.173 123.146 208.101 123.185C207.946 123.272 207.85 123.432 207.85 123.606L207.695 178.063C207.695 178.233 207.782 178.388 207.922 178.475L209.915 179.729C209.992 179.777 210.084 179.801 210.171 179.801C210.253 179.801 210.33 179.782 210.403 179.743C210.557 179.656 210.653 179.496 210.653 179.322L210.808 124.865C210.808 124.695 210.721 124.541 210.581 124.453L208.588 123.2C208.511 123.151 208.419 123.127 208.332 123.127Z" fill="#231F20"/>
<path d="M263.511 180.648C263.468 180.648 263.429 180.639 263.391 180.614L261.851 179.724C261.774 179.68 261.73 179.598 261.73 179.516L261.885 125.058C261.885 124.971 261.933 124.894 262.006 124.85C262.044 124.831 262.083 124.816 262.126 124.816C262.17 124.816 262.208 124.826 262.247 124.85L263.786 125.741C263.863 125.785 263.907 125.867 263.907 125.949L263.752 180.406C263.752 180.493 263.704 180.571 263.632 180.614C263.593 180.634 263.555 180.648 263.511 180.648Z" fill="white"/>
<path d="M262.125 125.054L263.665 125.945L263.51 180.402L261.971 179.511L262.125 125.054ZM262.125 124.57C262.043 124.57 261.961 124.59 261.884 124.633C261.734 124.72 261.643 124.88 261.643 125.05L261.488 179.507C261.488 179.681 261.58 179.841 261.73 179.928L263.269 180.819C263.341 180.862 263.428 180.882 263.51 180.882C263.592 180.882 263.674 180.862 263.752 180.819C263.901 180.731 263.993 180.572 263.993 180.402L264.147 125.945C264.147 125.771 264.056 125.611 263.906 125.524L262.367 124.633C262.294 124.59 262.207 124.57 262.125 124.57Z" fill="#231F20"/>
<path d="M263.511 180.65C263.467 180.65 263.429 180.64 263.39 180.616C263.313 180.573 263.27 180.49 263.27 180.408L263.424 125.951C263.424 125.864 263.472 125.786 263.545 125.743L284.744 113.384C284.783 113.359 284.821 113.35 284.865 113.35C284.908 113.35 284.947 113.359 284.985 113.384C285.063 113.427 285.106 113.509 285.106 113.592L284.952 168.049C284.952 168.136 284.903 168.213 284.831 168.257L263.631 180.616C263.593 180.64 263.554 180.65 263.511 180.65Z" fill="white"/>
<path d="M284.864 113.592L284.709 168.049L263.51 180.408L263.664 125.951L284.864 113.592ZM284.864 113.107C284.782 113.107 284.695 113.132 284.622 113.175L263.423 125.534C263.273 125.622 263.182 125.781 263.182 125.951L263.027 180.408C263.027 180.582 263.119 180.742 263.269 180.829C263.341 180.873 263.428 180.892 263.51 180.892C263.592 180.892 263.679 180.868 263.751 180.824L284.951 168.465C285.1 168.378 285.192 168.218 285.192 168.049L285.346 113.592C285.346 113.417 285.255 113.257 285.105 113.17C285.033 113.127 284.946 113.107 284.864 113.107Z" fill="#231F20"/>
<path d="M212.628 180.892C212.585 180.892 212.546 180.882 212.507 180.858C212.43 180.814 212.387 180.732 212.387 180.65L212.541 126.192C212.541 126.105 212.589 126.028 212.662 125.984L259.428 98.7194C259.467 98.6952 259.505 98.6855 259.549 98.6855C259.592 98.6855 259.631 98.6952 259.669 98.7194C259.746 98.763 259.79 98.8453 259.79 98.9276L259.635 153.385C259.635 153.472 259.587 153.549 259.515 153.593L212.749 180.858C212.71 180.882 212.671 180.892 212.628 180.892Z" fill="white"/>
<path d="M259.548 98.9275L259.393 153.385L212.627 180.649L212.782 126.192L259.548 98.9275ZM259.548 98.4434C259.466 98.4434 259.379 98.4676 259.306 98.5111L212.54 125.776C212.391 125.863 212.299 126.023 212.299 126.192L212.145 180.649C212.145 180.824 212.236 180.983 212.386 181.071C212.458 181.114 212.545 181.133 212.627 181.133C212.709 181.133 212.796 181.109 212.868 181.066L259.635 153.801C259.784 153.714 259.876 153.554 259.876 153.385L260.03 98.9275C260.03 98.7532 259.939 98.5934 259.789 98.5063C259.717 98.4627 259.63 98.4434 259.548 98.4434Z" fill="#231F20"/>
<path d="M212.627 180.891C212.584 180.891 212.545 180.881 212.507 180.857L210.48 179.681C210.403 179.637 210.359 179.555 210.359 179.473L210.514 125.015C210.514 124.928 210.562 124.851 210.634 124.807C210.673 124.788 210.712 124.773 210.755 124.773C210.799 124.773 210.837 124.783 210.876 124.807L212.903 125.984C212.98 126.027 213.023 126.11 213.023 126.192L212.869 180.649C212.869 180.736 212.82 180.814 212.748 180.857C212.709 180.876 212.671 180.891 212.627 180.891Z" fill="#7099ED"/>
<path d="M210.754 125.015L212.781 126.192L212.627 180.649L210.6 179.472L210.754 125.015ZM210.754 124.531C210.672 124.531 210.59 124.551 210.513 124.594C210.363 124.681 210.272 124.841 210.272 125.011L210.117 179.468C210.117 179.642 210.209 179.802 210.358 179.889L212.385 181.065C212.458 181.109 212.545 181.128 212.627 181.128C212.709 181.128 212.791 181.109 212.868 181.065C213.017 180.978 213.109 180.818 213.109 180.649L213.264 126.192C213.264 126.017 213.172 125.858 213.022 125.771L210.995 124.594C210.923 124.551 210.836 124.531 210.754 124.531Z" fill="#231F20"/>
<path d="M242.554 183.543C242.496 183.543 242.443 183.524 242.399 183.49C242.341 183.442 242.312 183.374 242.312 183.301L242.467 128.844C242.467 128.728 242.549 128.631 242.66 128.607L262.079 124.816C262.079 124.816 262.108 124.816 262.127 124.816C262.185 124.816 262.238 124.836 262.281 124.87C262.339 124.918 262.368 124.986 262.368 125.058L262.214 179.516C262.214 179.632 262.132 179.729 262.021 179.753L242.602 183.543C242.602 183.543 242.573 183.543 242.554 183.543Z" fill="white"/>
<path d="M262.126 125.054L261.972 179.511L242.553 183.302L242.707 128.845L262.126 125.054ZM262.126 124.57C262.097 124.57 262.063 124.57 262.034 124.58L242.616 128.371C242.389 128.414 242.225 128.613 242.225 128.845L242.07 183.302C242.07 183.447 242.133 183.583 242.244 183.675C242.331 183.747 242.442 183.786 242.553 183.786C242.582 183.786 242.616 183.786 242.645 183.776L262.063 179.986C262.29 179.942 262.454 179.744 262.454 179.511L262.609 125.054C262.609 124.909 262.546 124.774 262.435 124.682C262.348 124.609 262.237 124.57 262.126 124.57Z" fill="#231F20"/>
<path d="M46.878 187.905C46.8346 187.905 46.796 187.896 46.7574 187.871C46.6802 187.828 46.6367 187.745 46.6367 187.663L46.7911 133.206C46.7911 133.119 46.8394 133.041 46.9118 132.998L113.304 94.2936C113.343 94.2694 113.381 94.2598 113.425 94.2598C113.468 94.2598 113.507 94.2694 113.545 94.2936C113.623 94.3372 113.666 94.4195 113.666 94.5018L113.512 148.959C113.512 149.046 113.463 149.123 113.391 149.167L46.9986 187.871C46.96 187.896 46.9214 187.905 46.878 187.905Z" fill="white"/>
<path d="M113.42 94.5017L113.266 148.959L46.8732 187.663L47.0276 133.206L113.42 94.5017ZM113.42 94.0176C113.338 94.0176 113.251 94.0418 113.179 94.0854L46.7863 132.79C46.6367 132.877 46.545 133.037 46.545 133.206L46.3906 187.663C46.3906 187.837 46.4823 187.997 46.6319 188.084C46.7043 188.128 46.7912 188.147 46.8732 188.147C46.9552 188.147 47.0421 188.123 47.1145 188.079L113.507 149.375C113.657 149.288 113.748 149.128 113.748 148.959L113.903 94.5017C113.903 94.3274 113.811 94.1676 113.661 94.0805C113.589 94.0369 113.502 94.0176 113.42 94.0176Z" fill="#231F20"/>
<path d="M319.952 188.701C319.909 188.701 319.87 188.691 319.832 188.667L284.589 168.257C284.512 168.213 284.469 168.131 284.469 168.049L284.623 113.592C284.623 113.505 284.671 113.427 284.744 113.384C284.782 113.364 284.821 113.35 284.864 113.35C284.908 113.35 284.947 113.359 284.985 113.384L320.227 133.793C320.305 133.837 320.348 133.919 320.348 134.002L320.194 188.459C320.194 188.546 320.145 188.623 320.073 188.667C320.034 188.686 319.996 188.701 319.952 188.701Z" fill="#7099ED"/>
<path d="M284.864 113.592L320.106 134.001L319.951 188.458L284.709 168.049L284.864 113.592ZM284.864 113.107C284.782 113.107 284.699 113.127 284.622 113.17C284.473 113.257 284.381 113.417 284.381 113.587L284.227 168.044C284.227 168.218 284.318 168.378 284.468 168.465L319.71 188.875C319.783 188.918 319.869 188.938 319.951 188.938C320.034 188.938 320.116 188.918 320.193 188.875C320.342 188.788 320.434 188.628 320.434 188.458L320.588 134.001C320.588 133.827 320.497 133.667 320.347 133.58L285.105 113.17C285.032 113.127 284.946 113.107 284.864 113.107Z" fill="#231F20"/>
<path d="M185.93 191.284C185.886 191.284 185.848 191.275 185.809 191.25L113.148 149.167C113.071 149.123 113.027 149.041 113.027 148.959L113.182 94.5018C113.182 94.4147 113.23 94.3372 113.302 94.2936C113.341 94.2743 113.38 94.2598 113.423 94.2598C113.466 94.2598 113.505 94.2694 113.544 94.2936L186.205 136.377C186.282 136.421 186.325 136.503 186.325 136.585L186.171 191.042C186.171 191.129 186.123 191.207 186.05 191.25C186.012 191.27 185.973 191.284 185.93 191.284Z" fill="#7099ED"/>
<path d="M113.422 94.5017L186.083 136.585L185.929 191.042L113.268 148.959L113.422 94.5017ZM113.422 94.0176C113.34 94.0176 113.258 94.0369 113.181 94.0805C113.031 94.1676 112.94 94.3274 112.94 94.4968L112.785 148.954C112.785 149.128 112.877 149.288 113.026 149.375L185.687 191.458C185.76 191.502 185.847 191.521 185.929 191.521C186.011 191.521 186.093 191.502 186.17 191.458C186.32 191.371 186.411 191.212 186.411 191.042L186.566 136.585C186.566 136.411 186.474 136.251 186.324 136.164L113.663 94.0805C113.591 94.0369 113.504 94.0176 113.422 94.0176Z" fill="#231F20"/>
<path d="M204.909 192.736C204.909 192.736 204.875 192.736 204.861 192.731C204.75 192.707 204.668 192.61 204.668 192.494L204.822 138.037C204.822 138.003 204.827 137.969 204.842 137.94L210.536 124.923C210.575 124.835 210.662 124.777 210.758 124.777C210.773 124.777 210.792 124.777 210.806 124.782C210.917 124.806 210.999 124.903 210.999 125.019L210.845 179.476C210.845 179.51 210.84 179.544 210.826 179.573L205.131 192.591C205.093 192.678 205.006 192.736 204.909 192.736Z" fill="white"/>
<path d="M210.757 125.015L210.603 179.472L204.908 192.49L205.063 138.033L210.757 125.015ZM210.757 124.531C210.569 124.531 210.395 124.643 210.313 124.822L204.619 137.839C204.59 137.902 204.58 137.965 204.58 138.033L204.426 192.49C204.426 192.718 204.585 192.916 204.807 192.964C204.841 192.969 204.875 192.974 204.908 192.974C205.097 192.974 205.27 192.863 205.352 192.684L211.047 179.666C211.076 179.603 211.085 179.54 211.085 179.472L211.24 125.015C211.24 124.788 211.08 124.589 210.858 124.541C210.825 124.536 210.791 124.531 210.757 124.531Z" fill="#231F20"/>
<path d="M188.679 194.853C188.635 194.853 188.597 194.843 188.558 194.819L184.109 192.243C184.032 192.2 183.988 192.117 183.988 192.035L184.143 137.578C184.143 137.491 184.191 137.413 184.263 137.37C184.302 137.35 184.341 137.336 184.384 137.336C184.427 137.336 184.466 137.346 184.505 137.37L188.954 139.945C189.031 139.989 189.075 140.071 189.075 140.153L188.92 194.611C188.92 194.698 188.872 194.775 188.8 194.819C188.761 194.838 188.722 194.853 188.679 194.853Z" fill="#7099ED"/>
<path d="M184.383 137.574L188.832 140.149L188.678 194.606L184.229 192.031L184.383 137.574ZM184.383 137.09C184.301 137.09 184.219 137.109 184.142 137.153C183.992 137.24 183.901 137.4 183.901 137.569L183.746 192.026C183.746 192.2 183.838 192.36 183.987 192.447L188.437 195.023C188.509 195.066 188.596 195.086 188.678 195.086C188.76 195.086 188.842 195.066 188.919 195.023C189.069 194.936 189.161 194.776 189.161 194.606L189.315 140.149C189.315 139.975 189.223 139.815 189.074 139.728L184.624 137.153C184.552 137.109 184.465 137.09 184.383 137.09Z" fill="#231F20"/>
<path d="M188.679 194.852C188.635 194.852 188.597 194.842 188.558 194.818C188.481 194.775 188.438 194.692 188.438 194.61L188.592 140.153C188.592 140.066 188.64 139.988 188.713 139.945L195.169 136.178C195.208 136.154 195.247 136.145 195.29 136.145C195.333 136.145 195.372 136.154 195.411 136.178C195.488 136.222 195.531 136.304 195.531 136.387L195.377 190.844C195.377 190.931 195.329 191.008 195.256 191.052L188.799 194.818C188.761 194.842 188.722 194.852 188.679 194.852Z" fill="white"/>
<path d="M195.293 136.386L195.139 190.844L188.682 194.61L188.836 140.153L195.293 136.386ZM195.293 135.902C195.211 135.902 195.124 135.927 195.052 135.97L188.595 139.736C188.445 139.824 188.354 139.983 188.354 140.153L188.199 194.61C188.199 194.784 188.291 194.944 188.441 195.031C188.513 195.075 188.6 195.094 188.682 195.094C188.764 195.094 188.851 195.07 188.923 195.026L195.38 191.26C195.53 191.173 195.621 191.013 195.621 190.844L195.776 136.386C195.776 136.212 195.684 136.052 195.534 135.965C195.462 135.922 195.375 135.902 195.293 135.902Z" fill="#231F20"/>
<path d="M54.8936 188.113C54.8502 188.113 54.8116 188.103 54.773 188.079C54.6958 188.036 54.6523 187.953 54.6523 187.866L54.8068 142.84C54.8068 142.752 54.855 142.675 54.9274 142.631L59.2271 140.124C59.2657 140.1 59.3044 140.09 59.3478 140.09C59.3912 140.09 59.4298 140.1 59.4684 140.124C59.5456 140.167 59.5891 140.25 59.5891 140.337L59.4346 185.363C59.4346 185.451 59.3864 185.528 59.314 185.572L55.0143 188.079C54.9757 188.103 54.9371 188.113 54.8936 188.113Z" fill="white"/>
<path d="M59.3469 140.338L59.1925 185.364L54.8927 187.872L55.0472 142.845L59.3469 140.338ZM59.3469 139.854C59.2648 139.854 59.178 139.878 59.1056 139.921L54.8059 142.429C54.6563 142.516 54.5646 142.676 54.5646 142.845L54.4102 187.872C54.4102 188.046 54.5018 188.206 54.6514 188.293C54.7238 188.337 54.8107 188.356 54.8927 188.356C54.9748 188.356 55.0616 188.332 55.134 188.288L59.4337 185.781C59.5833 185.694 59.675 185.534 59.675 185.364L59.8295 140.338C59.8295 140.163 59.7378 140.004 59.5882 139.916C59.5158 139.873 59.4289 139.854 59.3469 139.854Z" fill="#231F20"/>
<path d="M230.323 198.74C230.28 198.74 230.241 198.73 230.203 198.706C230.125 198.663 230.082 198.58 230.082 198.498L230.236 144.041C230.236 143.954 230.285 143.876 230.357 143.833L246.856 134.214C246.895 134.189 246.933 134.18 246.977 134.18C247.02 134.18 247.059 134.189 247.098 134.214C247.175 134.257 247.218 134.339 247.218 134.422L247.064 188.879C247.064 188.966 247.016 189.043 246.943 189.087L230.444 198.706C230.405 198.73 230.367 198.74 230.323 198.74Z" fill="white"/>
<path d="M246.976 134.422L246.822 188.879L230.322 198.498L230.477 144.041L246.976 134.422ZM246.976 133.938C246.894 133.938 246.807 133.962 246.735 134.005L230.236 143.624C230.086 143.712 229.994 143.871 229.994 144.041L229.84 198.498C229.84 198.672 229.932 198.832 230.081 198.919C230.154 198.963 230.24 198.982 230.322 198.982C230.404 198.982 230.491 198.958 230.564 198.914L247.063 189.295C247.212 189.208 247.304 189.048 247.304 188.879L247.459 134.422C247.459 134.247 247.367 134.088 247.217 134C247.145 133.957 247.058 133.938 246.976 133.938Z" fill="#231F20"/>
<path d="M51.3702 190.334C51.3268 190.334 51.2882 190.324 51.2495 190.3C51.1723 190.257 51.1289 190.174 51.1289 190.092L51.2833 144.896C51.2833 144.809 51.3316 144.731 51.404 144.688L54.589 142.829C54.6276 142.805 54.6662 142.795 54.7096 142.795C54.753 142.795 54.7916 142.805 54.8302 142.829C54.9075 142.872 54.9509 142.955 54.9509 143.037L54.7965 188.233C54.7965 188.32 54.7482 188.398 54.6758 188.441L51.4908 190.3C51.4522 190.324 51.4136 190.334 51.3702 190.334Z" fill="white"/>
<path d="M54.7126 143.043L54.5582 188.239L51.3732 190.098L51.5276 144.902L54.7126 143.043ZM54.7126 142.559C54.6306 142.559 54.5437 142.583 54.4713 142.626L51.2863 144.485C51.1367 144.572 51.045 144.732 51.045 144.902L50.8906 190.098C50.8906 190.272 50.9823 190.432 51.1319 190.519C51.2043 190.563 51.2912 190.582 51.3732 190.582C51.4552 190.582 51.5421 190.558 51.6145 190.514L54.7995 188.655C54.9491 188.568 55.0408 188.408 55.0408 188.239L55.1952 143.043C55.1952 142.868 55.1035 142.709 54.9539 142.622C54.8815 142.578 54.7946 142.559 54.7126 142.559Z" fill="#231F20"/>
<path d="M168.894 204.031C168.836 204.031 168.783 204.012 168.739 203.973C168.686 203.924 168.652 203.857 168.652 203.789L168.807 149.332C168.807 149.216 168.894 149.114 169.009 149.095L191.676 145.236C191.676 145.236 191.705 145.236 191.715 145.236C191.772 145.236 191.826 145.256 191.869 145.294C191.922 145.343 191.956 145.411 191.956 145.478L191.801 199.935C191.801 200.052 191.715 200.153 191.599 200.173L168.932 204.031C168.932 204.031 168.903 204.031 168.894 204.031Z" fill="white"/>
<path d="M191.714 145.474L191.559 199.931L168.893 203.79L169.047 149.333L191.714 145.474ZM191.714 144.99C191.685 144.99 191.661 144.99 191.632 144.995L168.965 148.853C168.733 148.892 168.565 149.095 168.565 149.328L168.41 203.785C168.41 203.925 168.473 204.066 168.579 204.158C168.666 204.23 168.777 204.274 168.893 204.274C168.922 204.274 168.946 204.274 168.975 204.269L191.641 200.411C191.873 200.372 192.042 200.169 192.042 199.936L192.196 145.479C192.196 145.339 192.133 145.198 192.027 145.106C191.94 145.034 191.829 144.99 191.714 144.99Z" fill="#231F20"/>
<path d="M168.952 206.354C168.909 206.354 168.87 206.344 168.832 206.32C168.754 206.277 168.711 206.194 168.711 206.112L168.865 151.655C168.865 151.568 168.914 151.49 168.986 151.447L170.955 150.3C170.994 150.275 171.032 150.266 171.076 150.266C171.119 150.266 171.158 150.275 171.196 150.3C171.273 150.343 171.317 150.425 171.317 150.508L171.162 204.965C171.162 205.052 171.114 205.129 171.042 205.173L169.073 206.32C169.034 206.344 168.996 206.354 168.952 206.354Z" fill="white"/>
<path d="M171.075 150.504L170.92 204.961L168.951 206.108L169.106 151.651L171.075 150.504ZM171.075 150.02C170.993 150.02 170.906 150.044 170.833 150.087L168.864 151.235C168.715 151.322 168.623 151.482 168.623 151.651L168.469 206.108C168.469 206.282 168.56 206.442 168.71 206.529C168.782 206.573 168.869 206.592 168.951 206.592C169.033 206.592 169.12 206.568 169.193 206.524L171.162 205.377C171.311 205.29 171.403 205.13 171.403 204.961L171.557 150.504C171.557 150.329 171.466 150.17 171.316 150.082C171.244 150.039 171.157 150.02 171.075 150.02Z" fill="#231F20"/>
<path d="M189.706 219.368C189.663 219.368 189.624 219.358 189.585 219.334C189.508 219.29 189.465 219.208 189.465 219.125L189.619 164.668C189.619 164.581 189.668 164.504 189.74 164.46L190.599 163.962C190.637 163.937 190.676 163.928 190.72 163.928C190.763 163.928 190.802 163.937 190.84 163.962C190.917 164.005 190.961 164.087 190.961 164.17L190.806 218.627C190.806 218.714 190.758 218.791 190.686 218.835L189.827 219.334C189.788 219.358 189.75 219.368 189.706 219.368Z" fill="white"/>
<path d="M190.715 164.17L190.56 218.627L189.701 219.125L189.856 164.668L190.715 164.17ZM190.715 163.686C190.633 163.686 190.546 163.71 190.473 163.753L189.614 164.252C189.465 164.339 189.373 164.499 189.373 164.668L189.219 219.125C189.219 219.3 189.31 219.459 189.46 219.547C189.532 219.59 189.619 219.609 189.701 219.609C189.783 219.609 189.87 219.585 189.943 219.542L190.802 219.043C190.951 218.956 191.043 218.796 191.043 218.627L191.197 164.17C191.197 163.995 191.106 163.836 190.956 163.748C190.884 163.705 190.797 163.686 190.715 163.686Z" fill="#231F20"/>
<path d="M187.503 220.654C187.46 220.654 187.421 220.644 187.382 220.62C187.305 220.576 187.262 220.494 187.262 220.412L187.416 165.955C187.416 165.867 187.464 165.79 187.537 165.746L189.549 164.575C189.588 164.551 189.626 164.541 189.67 164.541C189.713 164.541 189.752 164.551 189.79 164.575C189.868 164.618 189.911 164.701 189.911 164.783L189.757 219.24C189.757 219.327 189.708 219.405 189.636 219.448L187.624 220.62C187.585 220.644 187.546 220.654 187.503 220.654Z" fill="white"/>
<path d="M189.669 164.779L189.514 219.236L187.502 220.408L187.657 165.951L189.669 164.779ZM189.669 164.295C189.587 164.295 189.5 164.319 189.428 164.363L187.415 165.534C187.266 165.621 187.174 165.781 187.174 165.951L187.02 220.408C187.02 220.582 187.111 220.742 187.261 220.829C187.333 220.872 187.42 220.892 187.502 220.892C187.584 220.892 187.671 220.868 187.743 220.824L189.756 219.652C189.905 219.565 189.997 219.406 189.997 219.236L190.151 164.779C190.151 164.605 190.06 164.445 189.91 164.358C189.838 164.314 189.751 164.295 189.669 164.295Z" fill="#231F20"/>
<path d="M187.503 220.655C187.46 220.655 187.421 220.645 187.383 220.621L165.773 208.107C165.696 208.063 165.652 207.981 165.652 207.898L165.807 153.441C165.807 153.354 165.855 153.277 165.927 153.233C165.966 153.214 166.005 153.199 166.048 153.199C166.091 153.199 166.13 153.209 166.169 153.233L187.778 165.747C187.856 165.791 187.899 165.873 187.899 165.955L187.745 220.412C187.745 220.5 187.696 220.577 187.624 220.621C187.585 220.64 187.547 220.655 187.503 220.655Z" fill="#7099ED"/>
<path d="M166.047 153.437L187.657 165.951L187.502 220.408L165.893 207.894L166.047 153.437ZM166.047 152.953C165.965 152.953 165.883 152.972 165.806 153.016C165.656 153.103 165.565 153.263 165.565 153.432L165.41 207.889C165.41 208.064 165.502 208.223 165.651 208.311L187.261 220.825C187.333 220.868 187.42 220.888 187.502 220.888C187.584 220.888 187.666 220.868 187.744 220.825C187.893 220.738 187.985 220.578 187.985 220.408L188.139 165.951C188.139 165.777 188.048 165.617 187.898 165.53L166.288 153.016C166.216 152.972 166.129 152.953 166.047 152.953Z" fill="#231F20"/>
<path d="M263.589 221.561C263.545 221.561 263.507 221.551 263.468 221.527L224.066 198.706C223.989 198.663 223.945 198.58 223.945 198.498L224.1 144.041C224.1 143.954 224.148 143.876 224.22 143.833C224.259 143.813 224.298 143.799 224.341 143.799C224.384 143.799 224.423 143.808 224.462 143.833L263.864 166.653C263.941 166.697 263.984 166.779 263.984 166.862L263.83 221.319C263.83 221.406 263.782 221.483 263.709 221.527C263.671 221.546 263.632 221.561 263.589 221.561Z" fill="#7099ED"/>
<path d="M224.336 144.041L263.738 166.861L263.584 221.319L224.182 198.498L224.336 144.041ZM224.336 143.557C224.254 143.557 224.172 143.576 224.095 143.62C223.945 143.707 223.854 143.866 223.854 144.036L223.699 198.493C223.699 198.667 223.791 198.827 223.941 198.914L263.343 221.735C263.415 221.778 263.502 221.798 263.584 221.798C263.666 221.798 263.748 221.778 263.825 221.735C263.975 221.648 264.066 221.488 264.066 221.319L264.221 166.861C264.221 166.687 264.129 166.527 263.98 166.44L224.578 143.62C224.505 143.576 224.418 143.557 224.336 143.557Z" fill="#231F20"/>
<path d="M271.097 222.354C271.053 222.354 271.015 222.344 270.976 222.32C270.899 222.276 270.855 222.194 270.855 222.112L271.01 167.655C271.01 167.568 271.058 167.49 271.131 167.447L324.436 136.372C324.474 136.348 324.513 136.338 324.556 136.338C324.6 136.338 324.638 136.348 324.677 136.372C324.754 136.415 324.797 136.498 324.797 136.58L324.643 191.037C324.643 191.124 324.595 191.202 324.522 191.245L271.217 222.325C271.179 222.349 271.14 222.359 271.097 222.359V222.354Z" fill="white"/>
<path d="M324.555 136.576L324.401 191.033L271.096 222.108L271.25 167.651L324.555 136.576ZM324.555 136.092C324.473 136.092 324.386 136.116 324.314 136.16L271.009 167.234C270.859 167.321 270.768 167.481 270.768 167.651L270.613 222.108C270.613 222.282 270.705 222.442 270.855 222.529C270.927 222.572 271.014 222.592 271.096 222.592C271.178 222.592 271.265 222.568 271.337 222.524L324.642 191.449C324.792 191.362 324.883 191.202 324.883 191.033L325.038 136.576C325.038 136.402 324.946 136.242 324.797 136.155C324.724 136.111 324.637 136.092 324.555 136.092Z" fill="#231F20"/>
<path d="M272.898 225.176C272.854 225.176 272.815 225.166 272.777 225.142C272.7 225.098 272.656 225.016 272.656 224.934L272.811 170.477C272.811 170.389 272.859 170.312 272.931 170.268L274.461 169.378C274.5 169.353 274.538 169.344 274.582 169.344C274.625 169.344 274.664 169.353 274.702 169.378C274.78 169.421 274.823 169.504 274.823 169.586L274.669 224.043C274.669 224.13 274.62 224.207 274.548 224.251L273.018 225.142C272.98 225.166 272.941 225.176 272.898 225.176Z" fill="white"/>
<path d="M274.581 169.582L274.426 224.039L272.897 224.93L273.051 170.473L274.581 169.582ZM274.581 169.098C274.499 169.098 274.412 169.122 274.34 169.165L272.81 170.056C272.66 170.143 272.568 170.303 272.568 170.473L272.414 224.93C272.414 225.104 272.506 225.264 272.655 225.351C272.728 225.394 272.815 225.414 272.897 225.414C272.979 225.414 273.066 225.389 273.138 225.346L274.668 224.455C274.817 224.368 274.909 224.208 274.909 224.039L275.063 169.582C275.063 169.407 274.972 169.248 274.822 169.161C274.75 169.117 274.663 169.098 274.581 169.098Z" fill="#231F20"/>
<path d="M136.651 225.182C136.608 225.182 136.569 225.172 136.531 225.148C136.454 225.104 136.41 225.022 136.41 224.94L136.565 170.483C136.565 170.396 136.613 170.318 136.685 170.275L165.924 153.229C165.963 153.205 166.002 153.195 166.045 153.195C166.088 153.195 166.127 153.205 166.166 153.229C166.243 153.273 166.286 153.355 166.286 153.437L166.132 207.894C166.132 207.982 166.084 208.059 166.011 208.103L136.772 225.148C136.733 225.172 136.695 225.182 136.651 225.182Z" fill="white"/>
<path d="M166.044 153.437L165.89 207.894L136.651 224.94L136.805 170.483L166.044 153.437ZM166.044 152.953C165.962 152.953 165.875 152.977 165.803 153.021L136.564 170.066C136.414 170.153 136.322 170.313 136.322 170.483L136.168 224.94C136.168 225.114 136.26 225.274 136.409 225.361C136.482 225.404 136.569 225.424 136.651 225.424C136.733 225.424 136.819 225.4 136.892 225.356L166.131 208.311C166.281 208.223 166.372 208.064 166.372 207.894L166.527 153.437C166.527 153.263 166.435 153.103 166.285 153.016C166.213 152.972 166.126 152.953 166.044 152.953Z" fill="#231F20"/>
<path d="M101.816 215.832C101.773 215.832 101.734 215.822 101.695 215.798L54.437 188.427C54.3598 188.383 54.3164 188.301 54.3164 188.214L54.4708 143.037C54.4708 142.95 54.5191 142.872 54.5915 142.829C54.6301 142.809 54.6687 142.795 54.7121 142.795C54.7555 142.795 54.7942 142.805 54.8328 142.829L102.091 170.2C102.168 170.244 102.212 170.326 102.212 170.408L102.057 215.585C102.057 215.672 102.009 215.75 101.937 215.793C101.898 215.813 101.86 215.827 101.816 215.827V215.832Z" fill="white"/>
<path d="M54.7112 143.043L101.97 170.414L101.815 215.591L54.5568 188.219L54.7112 143.043ZM54.7112 142.559C54.6292 142.559 54.5471 142.578 54.4699 142.622C54.3203 142.709 54.2286 142.868 54.2286 143.038L54.0742 188.215C54.0742 188.389 54.1659 188.549 54.3155 188.636L101.574 216.007C101.646 216.051 101.733 216.07 101.815 216.07C101.897 216.07 101.979 216.051 102.056 216.007C102.206 215.92 102.298 215.76 102.298 215.591L102.452 170.414C102.452 170.24 102.36 170.08 102.211 169.993L54.9525 142.622C54.8801 142.578 54.7933 142.559 54.7112 142.559Z" fill="#231F20"/>
<path d="M271.366 226.068C271.323 226.068 271.284 226.059 271.246 226.034C271.168 225.991 271.125 225.908 271.125 225.826L271.279 171.369C271.279 171.282 271.328 171.205 271.4 171.161L272.737 170.382C272.775 170.357 272.814 170.348 272.857 170.348C272.901 170.348 272.939 170.357 272.978 170.382C273.055 170.425 273.099 170.507 273.099 170.59L272.944 225.047C272.944 225.134 272.896 225.211 272.824 225.255L271.487 226.034C271.448 226.059 271.41 226.068 271.366 226.068Z" fill="white"/>
<path d="M272.853 170.59L272.698 225.047L271.361 225.826L271.516 171.369L272.853 170.59ZM272.853 170.105C272.771 170.105 272.684 170.13 272.611 170.173L271.275 170.953C271.125 171.04 271.033 171.2 271.033 171.369L270.879 225.826C270.879 226 270.971 226.16 271.12 226.247C271.193 226.291 271.279 226.31 271.361 226.31C271.444 226.31 271.53 226.286 271.603 226.242L272.94 225.463C273.089 225.376 273.181 225.216 273.181 225.047L273.335 170.59C273.335 170.415 273.243 170.256 273.094 170.168C273.022 170.125 272.935 170.105 272.853 170.105Z" fill="#231F20"/>
<path d="M271.368 226.066C271.324 226.066 271.286 226.056 271.247 226.032L267.918 224.101C267.84 224.057 267.797 223.975 267.797 223.892L267.951 169.435C267.951 169.348 268 169.271 268.072 169.227C268.111 169.208 268.149 169.193 268.193 169.193C268.236 169.193 268.275 169.203 268.313 169.227L271.643 171.154C271.72 171.198 271.764 171.28 271.764 171.362L271.609 225.819C271.609 225.906 271.561 225.984 271.489 226.027C271.45 226.047 271.411 226.061 271.368 226.061V226.066Z" fill="#7099ED"/>
<path d="M268.188 169.436L271.518 171.368L271.363 225.825L268.033 223.893L268.188 169.436ZM268.188 168.952C268.106 168.952 268.024 168.971 267.946 169.015C267.797 169.102 267.705 169.262 267.705 169.431L267.551 223.888C267.551 224.063 267.642 224.222 267.792 224.31L271.122 226.236C271.194 226.28 271.281 226.299 271.363 226.299C271.445 226.299 271.527 226.28 271.604 226.236C271.754 226.149 271.846 225.989 271.846 225.82L272 171.363C272 171.189 271.908 171.029 271.759 170.942L268.429 169.01C268.357 168.967 268.27 168.947 268.188 168.947V168.952Z" fill="#231F20"/>
<path d="M196.473 231.73C196.387 231.73 196.309 231.686 196.266 231.609L189.307 219.361C189.288 219.322 189.273 219.284 189.273 219.24L189.428 164.783C189.428 164.672 189.5 164.58 189.606 164.551C189.626 164.546 189.65 164.541 189.669 164.541C189.756 164.541 189.833 164.585 189.877 164.662L196.835 176.91C196.855 176.949 196.869 176.987 196.869 177.031L196.715 231.488C196.715 231.599 196.642 231.691 196.536 231.72C196.517 231.725 196.493 231.73 196.473 231.73Z" fill="white"/>
<path d="M189.668 164.779L196.627 177.027L196.473 231.484L189.514 219.236L189.668 164.779ZM189.668 164.295C189.63 164.295 189.586 164.3 189.548 164.309C189.335 164.368 189.191 164.556 189.186 164.774L189.031 219.231C189.031 219.314 189.051 219.401 189.094 219.473L196.053 231.721C196.14 231.876 196.304 231.963 196.473 231.963C196.511 231.963 196.555 231.958 196.593 231.949C196.806 231.891 196.95 231.702 196.955 231.484L197.11 177.027C197.11 176.945 197.09 176.857 197.047 176.785L190.088 164.537C190.001 164.382 189.837 164.295 189.668 164.295Z" fill="#231F20"/>
<path d="M253.687 232.502C253.643 232.502 253.605 232.492 253.566 232.468C253.489 232.424 253.445 232.342 253.445 232.26L253.6 177.803C253.6 177.716 253.648 177.638 253.72 177.595L268.067 169.229C268.106 169.205 268.144 169.195 268.188 169.195C268.231 169.195 268.27 169.205 268.309 169.229C268.386 169.273 268.429 169.355 268.429 169.437L268.275 223.894C268.275 223.982 268.227 224.059 268.154 224.103L253.807 232.468C253.769 232.492 253.73 232.502 253.687 232.502Z" fill="white"/>
<path d="M268.187 169.437L268.033 223.894L253.686 232.26L253.84 177.803L268.187 169.437ZM268.187 168.953C268.105 168.953 268.018 168.977 267.946 169.021L253.599 177.386C253.449 177.473 253.358 177.633 253.358 177.803L253.203 232.26C253.203 232.434 253.295 232.594 253.444 232.681C253.517 232.724 253.604 232.744 253.686 232.744C253.768 232.744 253.855 232.72 253.927 232.676L268.274 224.311C268.423 224.223 268.515 224.064 268.515 223.894L268.67 169.437C268.67 169.263 268.578 169.103 268.428 169.016C268.356 168.972 268.269 168.953 268.187 168.953Z" fill="#231F20"/>
<path d="M253.687 232.501C253.643 232.501 253.605 232.491 253.566 232.467L249.117 229.892C249.04 229.848 248.996 229.766 248.996 229.684L249.151 175.226C249.151 175.139 249.199 175.062 249.271 175.018C249.31 174.999 249.348 174.984 249.392 174.984C249.435 174.984 249.474 174.994 249.512 175.018L253.962 177.594C254.039 177.637 254.082 177.72 254.082 177.802L253.928 232.259C253.928 232.346 253.88 232.424 253.807 232.467C253.769 232.486 253.73 232.501 253.687 232.501Z" fill="#7099ED"/>
<path d="M249.391 175.226L253.84 177.802L253.686 232.259L249.236 229.683L249.391 175.226ZM249.391 174.742C249.309 174.742 249.227 174.762 249.15 174.805C249 174.892 248.908 175.052 248.908 175.221L248.754 229.679C248.754 229.853 248.846 230.013 248.995 230.1L253.445 232.675C253.517 232.719 253.604 232.738 253.686 232.738C253.768 232.738 253.85 232.719 253.927 232.675C254.077 232.588 254.168 232.428 254.168 232.259L254.323 177.802C254.323 177.627 254.231 177.468 254.082 177.381L249.632 174.805C249.56 174.762 249.473 174.742 249.391 174.742Z" fill="#231F20"/>
<path d="M278.721 236.351C278.634 236.351 278.552 236.302 278.508 236.225L272.486 225.163C272.467 225.129 272.457 225.086 272.457 225.047L272.611 170.59C272.611 170.478 272.689 170.382 272.795 170.357C272.814 170.352 272.833 170.348 272.853 170.348C272.94 170.348 273.022 170.396 273.065 170.474L279.088 181.535C279.107 181.569 279.117 181.613 279.117 181.652L278.962 236.109C278.962 236.22 278.885 236.317 278.779 236.341C278.759 236.346 278.74 236.351 278.721 236.351Z" fill="white"/>
<path d="M272.852 170.59L278.874 181.651L278.72 236.108L272.697 225.047L272.852 170.59ZM272.852 170.105C272.813 170.105 272.775 170.11 272.731 170.12C272.519 170.173 272.369 170.367 272.369 170.59L272.215 225.047C272.215 225.129 272.234 225.206 272.273 225.279L278.295 236.341C278.382 236.501 278.546 236.593 278.72 236.593C278.759 236.593 278.797 236.588 278.841 236.578C279.053 236.525 279.202 236.331 279.202 236.108L279.357 181.651C279.357 181.569 279.338 181.492 279.299 181.419L273.276 170.357C273.19 170.197 273.026 170.105 272.852 170.105Z" fill="#231F20"/>
<path d="M153.28 238.104C153.237 238.104 153.198 238.094 153.16 238.07C153.082 238.026 153.039 237.944 153.039 237.862L153.193 183.405C153.193 183.317 153.242 183.24 153.314 183.196L156.147 181.546C156.185 181.521 156.224 181.512 156.267 181.512C156.311 181.512 156.35 181.521 156.388 181.546C156.465 181.589 156.509 181.671 156.509 181.754L156.354 236.211C156.354 236.298 156.306 236.375 156.234 236.419L153.401 238.07C153.362 238.094 153.324 238.104 153.28 238.104Z" fill="white"/>
<path d="M156.263 181.754L156.108 236.211L153.276 237.862L153.43 183.404L156.263 181.754ZM156.263 181.27C156.181 181.27 156.094 181.294 156.021 181.337L153.189 182.988C153.039 183.075 152.947 183.235 152.947 183.404L152.793 237.862C152.793 238.036 152.885 238.196 153.034 238.283C153.107 238.326 153.194 238.346 153.276 238.346C153.358 238.346 153.444 238.321 153.517 238.278L156.35 236.627C156.499 236.54 156.591 236.38 156.591 236.211L156.745 181.754C156.745 181.579 156.654 181.42 156.504 181.332C156.432 181.289 156.345 181.27 156.263 181.27Z" fill="#231F20"/>
<path d="M119.452 239.033C119.409 239.033 119.37 239.023 119.332 238.999C119.254 238.955 119.211 238.873 119.211 238.791L119.365 184.334C119.365 184.247 119.414 184.169 119.486 184.125L132.154 176.743C132.192 176.719 132.231 176.709 132.274 176.709C132.318 176.709 132.356 176.719 132.395 176.743C132.472 176.786 132.515 176.869 132.515 176.951L132.361 231.408C132.361 231.495 132.313 231.573 132.24 231.616L119.573 238.999C119.534 239.023 119.496 239.033 119.452 239.033Z" fill="white"/>
<path d="M132.273 176.951L132.119 231.408L119.451 238.791L119.606 184.334L132.273 176.951ZM132.273 176.467C132.191 176.467 132.104 176.491 132.032 176.535L119.364 183.917C119.215 184.004 119.123 184.164 119.123 184.334L118.969 238.791C118.969 238.965 119.06 239.125 119.21 239.212C119.282 239.255 119.369 239.275 119.451 239.275C119.533 239.275 119.62 239.25 119.693 239.207L132.36 231.824C132.51 231.737 132.601 231.577 132.601 231.408L132.756 176.951C132.756 176.777 132.664 176.617 132.515 176.53C132.442 176.486 132.355 176.467 132.273 176.467Z" fill="#231F20"/>
<path d="M148.291 241.012C148.248 241.012 148.209 241.002 148.171 240.978L132 231.61C131.922 231.567 131.879 231.485 131.879 231.402L132.033 176.945C132.033 176.858 132.082 176.781 132.154 176.737C132.193 176.718 132.231 176.703 132.275 176.703C132.318 176.703 132.357 176.713 132.395 176.737L148.566 186.104C148.643 186.148 148.687 186.23 148.687 186.313L148.533 240.77C148.533 240.857 148.484 240.934 148.412 240.978C148.373 240.997 148.335 241.012 148.291 241.012Z" fill="#7099ED"/>
<path d="M132.274 176.951L148.445 186.318L148.29 240.775L132.119 231.408L132.274 176.951ZM132.274 176.467C132.192 176.467 132.11 176.486 132.032 176.53C131.883 176.617 131.791 176.777 131.791 176.946L131.637 231.403C131.637 231.577 131.728 231.737 131.878 231.824L148.049 241.192C148.121 241.235 148.208 241.255 148.29 241.255C148.372 241.255 148.454 241.235 148.532 241.192C148.681 241.105 148.773 240.945 148.773 240.775L148.927 186.318C148.927 186.144 148.836 185.984 148.686 185.897L132.515 176.53C132.443 176.486 132.356 176.467 132.274 176.467Z" fill="#231F20"/>
<path d="M148.292 241.012C148.249 241.012 148.21 241.002 148.171 240.978C148.094 240.934 148.051 240.852 148.051 240.77L148.205 186.313C148.205 186.226 148.253 186.148 148.326 186.105L153.118 183.311C153.156 183.287 153.195 183.277 153.238 183.277C153.282 183.277 153.32 183.287 153.359 183.311C153.436 183.355 153.48 183.437 153.48 183.519L153.325 237.976C153.325 238.064 153.277 238.141 153.205 238.185L148.413 240.978C148.374 241.002 148.335 241.012 148.292 241.012Z" fill="white"/>
<path d="M153.238 183.519L153.083 237.976L148.291 240.77L148.446 186.313L153.238 183.519ZM153.238 183.035C153.156 183.035 153.069 183.059 152.996 183.103L148.204 185.896C148.055 185.983 147.963 186.143 147.963 186.313L147.809 240.77C147.809 240.944 147.9 241.104 148.05 241.191C148.122 241.234 148.209 241.254 148.291 241.254C148.373 241.254 148.46 241.23 148.532 241.186L153.324 238.393C153.474 238.306 153.566 238.146 153.566 237.976L153.72 183.519C153.72 183.345 153.628 183.185 153.479 183.098C153.406 183.055 153.32 183.035 153.238 183.035Z" fill="#231F20"/>
<path d="M233.893 241.599C233.777 241.579 233.695 241.478 233.695 241.361L233.85 186.904C233.85 186.875 233.855 186.846 233.864 186.817L238.729 174.042C238.767 173.945 238.854 173.887 238.955 173.887C238.97 173.887 238.984 173.887 238.999 173.887C239.115 173.906 239.197 174.008 239.197 174.124L239.042 228.581C239.042 228.61 239.037 228.639 239.028 228.668L234.163 241.444C234.125 241.541 234.038 241.599 233.937 241.599C233.922 241.599 233.908 241.599 233.893 241.599Z" fill="white"/>
<path d="M238.954 174.129L238.8 228.586L233.936 241.361L234.09 186.904L238.954 174.129ZM238.954 173.645C238.757 173.645 238.578 173.766 238.506 173.954L233.641 186.73C233.622 186.783 233.608 186.841 233.608 186.899L233.453 241.356C233.453 241.589 233.617 241.792 233.849 241.836C233.878 241.841 233.907 241.845 233.936 241.845C234.134 241.845 234.312 241.724 234.384 241.536L239.249 228.76C239.268 228.707 239.283 228.649 239.283 228.591L239.437 174.133C239.437 173.901 239.273 173.698 239.041 173.654C239.012 173.649 238.983 173.645 238.954 173.645Z" fill="#231F20"/>
<path d="M226.448 243.21C226.405 243.21 226.366 243.2 226.328 243.176L203.632 230.032C203.555 229.989 203.512 229.906 203.512 229.824L203.666 175.367C203.666 175.28 203.714 175.202 203.787 175.159C203.825 175.14 203.864 175.125 203.907 175.125C203.951 175.125 203.989 175.135 204.028 175.159L226.723 188.302C226.801 188.346 226.844 188.428 226.844 188.511L226.69 242.968C226.69 243.055 226.641 243.132 226.569 243.176C226.53 243.195 226.492 243.21 226.448 243.21Z" fill="#7099ED"/>
<path d="M203.907 175.367L226.602 188.51L226.448 242.967L203.752 229.824L203.907 175.367ZM203.907 174.883C203.824 174.883 203.742 174.902 203.665 174.946C203.516 175.033 203.424 175.193 203.424 175.362L203.27 229.819C203.27 229.993 203.361 230.153 203.511 230.24L226.206 243.384C226.279 243.427 226.365 243.447 226.448 243.447C226.53 243.447 226.612 243.427 226.689 243.384C226.838 243.297 226.93 243.137 226.93 242.967L227.085 188.51C227.085 188.336 226.993 188.176 226.843 188.089L204.148 174.946C204.075 174.902 203.989 174.883 203.907 174.883Z" fill="#231F20"/>
<path d="M160.975 253.845C160.883 253.845 160.801 253.796 160.758 253.714L152.868 238.087C152.849 238.053 152.844 238.014 152.844 237.976L152.998 183.518C152.998 183.407 153.075 183.31 153.182 183.286C153.201 183.286 153.22 183.281 153.239 183.281C153.331 183.281 153.413 183.33 153.457 183.412L161.347 199.039C161.366 199.073 161.371 199.112 161.371 199.15L161.216 253.607C161.216 253.719 161.139 253.815 161.033 253.84C161.014 253.84 160.994 253.845 160.975 253.845Z" fill="white"/>
<path d="M153.239 183.519L161.129 199.146L160.974 253.603L153.084 237.976L153.239 183.519ZM153.239 183.035C153.2 183.035 153.166 183.035 153.128 183.05C152.91 183.103 152.756 183.297 152.756 183.519L152.602 237.976C152.602 238.054 152.621 238.126 152.655 238.194L160.545 253.821C160.627 253.986 160.796 254.087 160.974 254.087C161.013 254.087 161.047 254.087 161.085 254.073C161.302 254.02 161.457 253.826 161.457 253.603L161.611 199.146C161.611 199.069 161.592 198.996 161.558 198.928L153.668 183.301C153.586 183.137 153.417 183.035 153.239 183.035Z" fill="#231F20"/>
<path d="M201.659 262.836C201.616 262.836 201.577 262.827 201.539 262.802C201.461 262.759 201.418 262.676 201.418 262.594L201.572 208.137C201.572 208.05 201.621 207.973 201.693 207.929L235.961 187.95C235.999 187.926 236.038 187.916 236.081 187.916C236.125 187.916 236.163 187.926 236.202 187.95C236.279 187.993 236.322 188.076 236.322 188.158L236.168 242.615C236.168 242.702 236.12 242.78 236.047 242.823L201.78 262.802C201.741 262.827 201.703 262.836 201.659 262.836Z" fill="white"/>
<path d="M236.08 188.158L235.926 242.615L201.658 262.594L201.813 208.137L236.08 188.158ZM236.08 187.674C235.998 187.674 235.911 187.698 235.839 187.742L201.571 207.721C201.422 207.808 201.33 207.968 201.33 208.137L201.176 262.594C201.176 262.768 201.267 262.928 201.417 263.015C201.489 263.059 201.576 263.078 201.658 263.078C201.74 263.078 201.827 263.054 201.9 263.01L236.167 243.031C236.317 242.944 236.408 242.784 236.408 242.615L236.563 188.158C236.563 187.984 236.471 187.824 236.322 187.737C236.249 187.693 236.162 187.674 236.08 187.674Z" fill="#231F20"/>
<path d="M186.228 262.986C186.185 262.986 186.146 262.976 186.107 262.952L169.96 253.599C169.883 253.555 169.84 253.473 169.84 253.391L169.994 198.933C169.994 198.846 170.043 198.769 170.115 198.725C170.154 198.706 170.192 198.691 170.236 198.691C170.279 198.691 170.318 198.701 170.356 198.725L186.503 208.078C186.58 208.122 186.624 208.204 186.624 208.286L186.469 262.743C186.469 262.831 186.421 262.908 186.349 262.952C186.31 262.971 186.271 262.986 186.228 262.986Z" fill="#7099ED"/>
<path d="M170.235 198.933L186.382 208.286L186.227 262.743L170.08 253.39L170.235 198.933ZM170.235 198.449C170.153 198.449 170.071 198.469 169.993 198.512C169.844 198.599 169.752 198.759 169.752 198.928L169.598 253.386C169.598 253.56 169.689 253.72 169.839 253.807L185.986 263.16C186.058 263.203 186.145 263.223 186.227 263.223C186.309 263.223 186.391 263.203 186.468 263.16C186.618 263.073 186.71 262.913 186.71 262.743L186.864 208.286C186.864 208.112 186.772 207.952 186.623 207.865L170.476 198.512C170.404 198.469 170.317 198.449 170.235 198.449Z" fill="#231F20"/>
<path d="M340.693 266.219C340.649 266.219 340.611 266.209 340.572 266.185L286.273 234.737C286.196 234.694 286.152 234.611 286.152 234.529L286.307 180.072C286.307 179.985 286.355 179.908 286.427 179.864C286.466 179.845 286.505 179.83 286.548 179.83C286.591 179.83 286.63 179.84 286.669 179.864L340.968 211.311C341.045 211.355 341.088 211.437 341.088 211.52L340.934 265.977C340.934 266.064 340.886 266.141 340.813 266.185C340.775 266.204 340.736 266.219 340.693 266.219Z" fill="#7099ED"/>
<path d="M286.547 180.072L340.846 211.52L340.692 265.977L286.393 234.529L286.547 180.072ZM286.547 179.588C286.465 179.588 286.383 179.607 286.306 179.651C286.156 179.738 286.065 179.898 286.065 180.067L285.91 234.524C285.91 234.699 286.002 234.858 286.151 234.945L340.451 266.393C340.523 266.436 340.61 266.456 340.692 266.456C340.774 266.456 340.856 266.436 340.933 266.393C341.083 266.306 341.174 266.146 341.174 265.977L341.329 211.52C341.329 211.345 341.237 211.185 341.088 211.098L286.788 179.651C286.716 179.607 286.629 179.588 286.547 179.588Z" fill="#231F20"/>
<path d="M189.257 270.368C189.218 270.368 189.175 270.359 189.136 270.339C189.059 270.296 189.016 270.213 189.016 270.126L189.17 215.669C189.17 215.587 189.213 215.505 189.286 215.461L201.688 207.928C201.727 207.904 201.77 207.895 201.813 207.895C201.852 207.895 201.896 207.904 201.934 207.924C202.011 207.967 202.055 208.049 202.055 208.137L201.9 262.594C201.9 262.676 201.857 262.758 201.785 262.802L189.382 270.335C189.344 270.359 189.3 270.368 189.257 270.368Z" fill="white"/>
<path d="M201.813 208.136L201.658 262.594L189.256 270.126L189.41 215.669L201.813 208.136ZM201.813 207.652C201.726 207.652 201.639 207.677 201.562 207.72L189.16 215.253C189.015 215.34 188.928 215.495 188.928 215.664L188.773 270.121C188.773 270.296 188.865 270.46 189.02 270.543C189.092 270.586 189.174 270.605 189.256 270.605C189.343 270.605 189.43 270.581 189.507 270.538L201.909 263.005C202.054 262.918 202.141 262.763 202.141 262.594L202.295 208.136C202.295 207.962 202.203 207.798 202.049 207.715C201.977 207.672 201.895 207.652 201.813 207.652Z" fill="#231F20"/>
<path d="M197.304 271.303C197.26 271.303 197.222 271.294 197.183 271.269C197.106 271.226 197.062 271.144 197.062 271.061L197.217 225.323C197.217 225.236 197.265 225.158 197.338 225.115L201.637 222.612C201.676 222.588 201.714 222.578 201.758 222.578C201.801 222.578 201.84 222.588 201.879 222.612C201.956 222.656 201.999 222.738 201.999 222.82L201.845 268.554C201.845 268.641 201.797 268.718 201.724 268.762L197.424 271.269C197.386 271.294 197.347 271.303 197.304 271.303Z" fill="white"/>
<path d="M201.757 222.82L201.603 268.554L197.303 271.061L197.457 225.328L201.757 222.82ZM201.757 222.336C201.675 222.336 201.588 222.36 201.516 222.404L197.216 224.911C197.066 224.999 196.975 225.158 196.975 225.328L196.82 271.061C196.82 271.235 196.912 271.395 197.062 271.482C197.134 271.526 197.221 271.545 197.303 271.545C197.385 271.545 197.472 271.521 197.544 271.478L201.844 268.97C201.993 268.883 202.085 268.723 202.085 268.554L202.24 222.82C202.24 222.646 202.148 222.486 201.998 222.399C201.926 222.355 201.839 222.336 201.757 222.336Z" fill="#231F20"/>
<path d="M193.776 272.518C193.733 272.518 193.694 272.509 193.656 272.484C193.579 272.441 193.535 272.359 193.535 272.271L193.69 227.371C193.69 227.283 193.738 227.206 193.81 227.162L196.995 225.303C197.034 225.279 197.072 225.27 197.116 225.27C197.159 225.27 197.198 225.279 197.236 225.303C197.314 225.347 197.357 225.429 197.357 225.516L197.203 270.417C197.203 270.504 197.154 270.582 197.082 270.625L193.897 272.484C193.858 272.509 193.82 272.518 193.776 272.518Z" fill="white"/>
<path d="M197.119 225.521L196.964 270.422L193.779 272.281L193.934 227.38L197.119 225.521ZM197.119 225.037C197.037 225.037 196.95 225.061 196.878 225.105L193.693 226.964C193.543 227.051 193.451 227.211 193.451 227.38L193.297 272.281C193.297 272.455 193.389 272.615 193.538 272.702C193.611 272.746 193.697 272.765 193.779 272.765C193.861 272.765 193.948 272.741 194.021 272.697L197.206 270.838C197.355 270.751 197.447 270.591 197.447 270.422L197.601 225.521C197.601 225.347 197.51 225.187 197.36 225.1C197.288 225.056 197.201 225.037 197.119 225.037Z" fill="#231F20"/>
<path d="M244.222 298.297C244.179 298.297 244.14 298.287 244.102 298.263L196.843 270.892C196.766 270.848 196.723 270.766 196.723 270.684L196.877 225.521C196.877 225.434 196.925 225.357 196.998 225.313C197.036 225.294 197.075 225.279 197.118 225.279C197.162 225.279 197.2 225.289 197.239 225.313L244.497 252.685C244.575 252.728 244.618 252.81 244.618 252.893L244.464 298.055C244.464 298.142 244.415 298.22 244.343 298.263C244.304 298.282 244.266 298.297 244.222 298.297Z" fill="white"/>
<path d="M197.117 225.521L244.376 252.893L244.221 298.055L196.963 270.683L197.117 225.521ZM197.117 225.037C197.035 225.037 196.953 225.056 196.876 225.1C196.727 225.187 196.635 225.347 196.635 225.516L196.48 270.679C196.48 270.853 196.572 271.013 196.722 271.1L243.98 298.471C244.053 298.515 244.139 298.534 244.221 298.534C244.303 298.534 244.386 298.515 244.463 298.471C244.612 298.384 244.704 298.224 244.704 298.055L244.858 252.893C244.858 252.718 244.767 252.559 244.617 252.471L197.359 225.1C197.286 225.056 197.2 225.037 197.117 225.037Z" fill="#231F20"/>
<path d="M161.132 199.389C161.045 199.389 160.958 199.34 160.915 199.258L153.14 183.859L148.566 186.526C148.527 186.545 148.488 186.56 148.445 186.56C148.402 186.56 148.363 186.55 148.324 186.526L132.274 177.231L119.727 184.546C119.688 184.57 119.65 184.58 119.606 184.58C119.563 184.58 119.524 184.57 119.486 184.546L98.6627 172.482C98.5903 172.439 98.5421 172.361 98.5421 172.274C98.5421 172.187 98.5855 172.109 98.6627 172.066L101.491 170.42L54.71 143.325L51.6456 145.111C51.607 145.135 51.5684 145.145 51.525 145.145C51.4815 145.145 51.4429 145.135 51.4043 145.111L31.2183 133.42C31.1459 133.376 31.0977 133.299 31.0977 133.212C31.0977 133.124 31.1411 133.047 31.2183 133.003L118.13 82.3369C118.168 82.3127 118.207 82.303 118.25 82.303C118.294 82.303 118.332 82.3127 118.371 82.3369L122.014 84.4476L168.491 57.3522L165.089 55.3818C165.017 55.3383 164.968 55.2608 164.968 55.1737C164.968 55.0865 165.012 55.0091 165.089 54.9655L258.882 0.276075C258.92 0.25187 258.959 0.242188 259.003 0.242188C259.046 0.242188 259.085 0.25187 259.123 0.276075L302.473 25.3818C302.545 25.4254 302.593 25.5028 302.593 25.59C302.593 25.6771 302.55 25.7546 302.473 25.7981L300.706 26.8244L345.32 52.6612L347.323 51.4945C347.362 51.4703 347.4 51.4606 347.444 51.4606C347.487 51.4606 347.526 51.4703 347.564 51.4945L399.166 81.3832C399.238 81.4267 399.287 81.5042 399.287 81.5913C399.287 81.6785 399.243 81.7559 399.166 81.7995L397.4 82.8258L430.152 101.793C430.268 101.861 430.306 102.006 430.239 102.122C430.195 102.2 430.113 102.243 430.031 102.243C429.993 102.243 429.949 102.234 429.911 102.214L396.579 83.3002L391.343 86.3549C391.305 86.3791 391.266 86.3888 391.223 86.3888C391.179 86.3888 391.141 86.3791 391.102 86.3549L339.501 56.4662C339.428 56.4227 339.38 56.3452 339.38 56.2581C339.38 56.1709 339.423 56.0935 339.501 56.0499L344.495 53.1356L299.881 27.2989L294.645 30.3536C294.607 30.3778 294.568 30.3875 294.525 30.3875C294.481 30.3875 294.443 30.3778 294.404 30.3536L259.051 9.87589L187.345 51.6784L266.202 97.349C266.275 97.3925 266.323 97.47 266.323 97.5572C266.323 97.6443 266.28 97.7217 266.202 97.7653L263.63 99.266L269.667 112.279C269.725 112.4 269.672 112.54 269.552 112.598C269.518 112.613 269.484 112.623 269.445 112.623C269.359 112.623 269.272 112.574 269.228 112.492L262.82 99.7356L261.777 100.346C261.739 100.37 261.7 100.379 261.657 100.379C261.613 100.379 261.575 100.37 261.536 100.346L259.548 99.1934L212.902 126.386C212.864 126.41 212.825 126.42 212.782 126.42C212.738 126.42 212.7 126.41 212.661 126.386L210.866 125.345L205.278 138.116C205.239 138.208 205.147 138.261 205.056 138.261C205.027 138.261 204.993 138.256 204.964 138.241C204.843 138.188 204.785 138.053 204.834 137.927L210.021 124.943L208.202 123.796C208.13 123.752 208.086 123.67 208.091 123.588C208.091 123.5 208.139 123.423 208.212 123.384L254.621 96.3324L182.442 54.5298L173.201 59.9179C173.162 59.9373 173.124 59.9518 173.08 59.9518C173.037 59.9518 172.998 59.9421 172.96 59.9179L169.316 57.8072L122.84 84.9026L126.242 86.8729C126.314 86.9165 126.362 86.994 126.362 87.0811C126.362 87.1682 126.319 87.2457 126.242 87.2893L116.967 92.6967L189.145 134.499L190.723 133.579C190.762 133.555 190.8 133.546 190.844 133.546C190.887 133.546 190.926 133.555 190.964 133.579L195.414 136.155C195.486 136.198 195.534 136.276 195.534 136.363C195.534 136.45 195.491 136.528 195.414 136.571L188.957 140.338C188.918 140.362 188.88 140.371 188.836 140.371C188.793 140.371 188.754 140.362 188.716 140.338L184.266 137.762C184.194 137.719 184.146 137.641 184.146 137.554C184.146 137.467 184.189 137.389 184.266 137.346L185.603 136.566L113.425 94.7639L47.5148 133.187L59.4681 140.11C59.5405 140.154 59.5888 140.231 59.5888 140.318C59.5888 140.405 59.5453 140.483 59.4681 140.526L55.5303 142.821L102.311 169.916L106.49 167.481C106.529 167.457 106.567 167.448 106.611 167.448C106.654 167.448 106.693 167.457 106.731 167.481L119.558 174.912L132.1 167.602L166.503 147.701C166.541 147.681 166.58 147.667 166.624 147.667C166.667 147.667 166.706 147.677 166.744 147.701L168.896 148.945L191.674 145.213C191.674 145.213 191.698 145.213 191.712 145.213C191.828 145.213 191.93 145.295 191.949 145.416C191.973 145.547 191.881 145.672 191.751 145.697L169.746 149.444L171.193 150.281C171.266 150.325 171.314 150.402 171.314 150.489C171.314 150.576 171.271 150.654 171.193 150.697L169.587 151.637L190.834 163.943C190.907 163.986 190.955 164.064 190.955 164.151C190.955 164.238 190.911 164.315 190.834 164.359L190.183 164.741L196.837 176.897C196.9 177.013 196.862 177.159 196.746 177.226C196.707 177.246 196.669 177.255 196.63 177.255C196.548 177.255 196.466 177.212 196.422 177.134L189.584 165.1L187.784 166.15C187.746 166.174 187.707 166.184 187.664 166.184C187.62 166.184 187.582 166.174 187.543 166.15L166.054 153.704L137.298 170.468L156.398 181.53C156.47 181.574 156.518 181.651 156.518 181.738C156.518 181.825 156.475 181.903 156.398 181.946L153.763 183.486L161.359 199.026C161.417 199.147 161.368 199.292 161.248 199.35C161.214 199.369 161.175 199.374 161.141 199.374L161.132 199.389Z" fill="#FF8B63"/>
<path d="M259.001 0.484106L302.35 25.5898L300.227 26.8292L345.323 52.9467L347.447 51.7074L399.048 81.5961L396.925 82.8354L430.039 102.016L396.587 83.0339L391.231 86.1563L339.629 56.2676L344.986 53.1451L299.889 27.0276L294.533 30.1501L259.059 9.60466L186.87 51.688L266.09 97.5716L263.325 99.1836L269.453 112.395L262.929 99.4112L261.664 100.147L259.556 98.9271L212.789 126.192L210.763 125.016L205.068 138.033L210.333 124.865L208.34 123.612L255.106 96.3468L182.445 54.2634L173.083 59.7242L169.319 57.5457L122.365 84.9219L126.129 87.1003L116.492 92.716L189.153 134.799L190.852 133.807L195.301 136.382L188.844 140.149L184.395 137.573L186.094 136.581L113.432 94.4975L47.0401 133.202L59.3553 140.333L55.0556 142.84L102.314 170.212L106.614 167.704L119.561 175.203L132.224 167.82L166.627 147.919L168.851 149.206L191.715 145.464L169.049 149.322L171.076 150.499L169.107 151.646L190.717 164.16L189.858 164.659L196.623 177.018L189.665 164.77L187.652 165.942L166.043 153.428L136.804 170.473L156.266 181.743L153.433 183.394L161.125 199.137L153.235 183.51L148.443 186.303L132.272 176.941L119.605 184.323L98.7816 172.259L101.967 170.4L54.7081 143.029L51.5232 144.888L31.3371 133.197L118.249 82.5304L122.013 84.7089L168.967 57.3327L165.203 55.1542L259.001 0.484106ZM259.001 0C258.919 0 258.832 0.0242053 258.759 0.0677748L164.966 54.7475C164.817 54.8347 164.725 54.9944 164.725 55.1687C164.725 55.343 164.817 55.5027 164.966 55.585L168.012 57.3472L122.017 84.1618L118.495 82.1237C118.422 82.0802 118.335 82.0608 118.253 82.0608C118.171 82.0608 118.084 82.085 118.012 82.1286L31.1007 132.795C30.9511 132.882 30.8594 133.042 30.8594 133.216C30.8594 133.391 30.9511 133.55 31.1007 133.633L51.2867 145.324C51.3591 145.367 51.4459 145.387 51.528 145.387C51.61 145.387 51.6969 145.362 51.7693 145.319L54.713 143.6L101.011 170.415L98.5451 171.853C98.3955 171.94 98.3038 172.1 98.3038 172.274C98.3038 172.448 98.3955 172.608 98.5451 172.69L119.368 184.749C119.441 184.793 119.527 184.812 119.609 184.812C119.691 184.812 119.778 184.788 119.851 184.745L132.277 177.502L148.207 186.729C148.279 186.773 148.366 186.792 148.448 186.792C148.53 186.792 148.617 186.768 148.689 186.725L153.042 184.188L160.701 199.36C160.787 199.529 160.956 199.626 161.13 199.626C161.202 199.626 161.275 199.611 161.347 199.573C161.584 199.452 161.68 199.166 161.564 198.924L154.07 183.588L156.512 182.164C156.661 182.077 156.753 181.917 156.753 181.743C156.753 181.569 156.661 181.409 156.512 181.327L137.773 170.473L166.052 153.989L187.421 166.368C187.493 166.411 187.58 166.431 187.662 166.431C187.744 166.431 187.831 166.407 187.903 166.363L189.496 165.434L196.213 177.26C196.3 177.415 196.464 177.502 196.633 177.502C196.715 177.502 196.792 177.483 196.869 177.439C197.101 177.309 197.183 177.018 197.058 176.786L190.519 164.838L190.968 164.577C191.117 164.49 191.209 164.33 191.209 164.155C191.209 163.981 191.117 163.821 190.968 163.739L170.077 151.641L171.327 150.915C171.476 150.828 171.568 150.668 171.568 150.494C171.568 150.32 171.476 150.16 171.327 150.078L170.458 149.574L191.807 145.939C192.068 145.895 192.246 145.643 192.203 145.382C192.164 145.145 191.962 144.975 191.725 144.975C191.701 144.975 191.672 144.975 191.648 144.98L168.953 148.698L166.877 147.497C166.805 147.454 166.718 147.434 166.636 147.434C166.554 147.434 166.472 147.454 166.395 147.497L131.992 167.399L119.571 174.641L106.865 167.283C106.792 167.239 106.705 167.22 106.623 167.22C106.541 167.22 106.454 167.244 106.382 167.288L102.324 169.65L56.0256 142.835L59.6014 140.749C59.751 140.662 59.8427 140.502 59.8427 140.328C59.8427 140.154 59.751 139.994 59.6014 139.911L48.01 133.197L113.437 95.0542L185.133 136.581L184.154 137.152C184.004 137.239 183.912 137.399 183.912 137.573C183.912 137.747 184.004 137.907 184.154 137.99L188.603 140.565C188.675 140.609 188.762 140.628 188.844 140.628C188.926 140.628 189.013 140.604 189.085 140.56L195.542 136.794C195.692 136.707 195.784 136.547 195.784 136.373C195.784 136.198 195.692 136.039 195.542 135.956L191.093 133.381C191.021 133.337 190.934 133.318 190.852 133.318C190.77 133.318 190.683 133.342 190.61 133.386L189.153 134.233L117.457 92.7063L126.375 87.507C126.525 87.4198 126.616 87.2601 126.616 87.0858C126.616 86.9115 126.525 86.7518 126.375 86.6695L123.33 84.9073L169.324 58.0927L172.847 60.1308C172.919 60.1744 173.006 60.1937 173.088 60.1937C173.17 60.1937 173.257 60.1695 173.329 60.126L182.45 54.8056L254.146 96.3322L208.099 123.176C207.954 123.263 207.862 123.418 207.858 123.587C207.858 123.757 207.94 123.917 208.084 124.004L209.735 125.04L204.62 137.835C204.523 138.082 204.639 138.357 204.88 138.459C204.943 138.483 205.006 138.498 205.068 138.498C205.257 138.498 205.43 138.391 205.512 138.207L210.989 125.684L212.548 126.589C212.621 126.632 212.707 126.652 212.789 126.652C212.872 126.652 212.958 126.628 213.031 126.584L259.556 99.4596L261.423 100.539C261.496 100.583 261.582 100.602 261.664 100.602C261.747 100.602 261.833 100.578 261.906 100.534L262.726 100.055L269.019 112.579C269.106 112.748 269.275 112.845 269.448 112.845C269.521 112.845 269.588 112.831 269.661 112.797C269.897 112.68 269.999 112.395 269.888 112.158L263.942 99.3482L266.326 97.9588C266.476 97.8717 266.567 97.7119 266.567 97.5377C266.567 97.3634 266.476 97.2036 266.326 97.1213L187.831 51.6589L259.054 10.1614L294.286 30.5664C294.359 30.61 294.446 30.6294 294.528 30.6294C294.61 30.6294 294.697 30.6052 294.769 30.5616L299.884 27.5795L344.016 53.1403L339.378 55.8416C339.228 55.9288 339.137 56.0885 339.137 56.2628C339.137 56.4371 339.228 56.5968 339.378 56.6791L390.98 86.5678C391.052 86.6114 391.139 86.6308 391.221 86.6308C391.303 86.6308 391.39 86.6066 391.462 86.563L396.577 83.5809L429.788 102.422C429.865 102.466 429.943 102.485 430.025 102.485C430.194 102.485 430.353 102.398 430.444 102.243C430.575 102.011 430.498 101.715 430.266 101.585L397.876 82.8257L399.28 82.0075C399.43 81.9204 399.521 81.7607 399.521 81.5864C399.521 81.4121 399.43 81.2523 399.28 81.17L347.678 51.2813C347.606 51.2378 347.519 51.2184 347.437 51.2184C347.355 51.2184 347.268 51.2426 347.196 51.2862L345.314 52.3851L301.182 26.8243L302.587 26.0062C302.736 25.919 302.828 25.7593 302.828 25.585C302.828 25.4107 302.736 25.251 302.587 25.1687L259.242 0.0629338C259.17 0.0193642 259.083 0 259.001 0Z" fill="#231F20"/>
<path d="M261.86 266.965C261.816 266.965 261.778 266.956 261.739 266.931L241.07 254.959C240.998 254.916 240.95 254.838 240.95 254.751C240.95 254.664 240.993 254.587 241.07 254.543L243.898 252.897L197.118 225.802L194.053 227.588C194.015 227.612 193.976 227.622 193.933 227.622C193.889 227.622 193.851 227.612 193.812 227.588L173.592 215.878C173.52 215.834 173.472 215.757 173.472 215.669C173.472 215.582 173.515 215.505 173.592 215.461L185.898 208.287L170.113 199.147C170.04 199.103 169.992 199.026 169.992 198.939C169.992 198.852 170.036 198.774 170.113 198.731L177.935 194.17C177.974 194.146 178.013 194.136 178.056 194.136C178.099 194.136 178.138 194.146 178.177 194.17L197.364 205.285L226.12 188.521L203.787 175.585C203.714 175.542 203.666 175.464 203.666 175.377C203.666 175.29 203.71 175.213 203.787 175.169L206.846 173.383C206.885 173.359 206.924 173.349 206.967 173.349C207.01 173.349 207.049 173.359 207.088 173.383L229.662 186.458L231.511 185.379C231.549 185.355 231.588 185.345 231.631 185.345C231.675 185.345 231.713 185.355 231.752 185.379L233.537 186.415L238.725 174.041C238.764 173.949 238.855 173.891 238.947 173.891C238.976 173.891 239.005 173.896 239.039 173.91C239.159 173.959 239.222 174.099 239.174 174.22L234.382 186.812L236.206 187.959C236.278 188.003 236.322 188.085 236.317 188.167C236.317 188.255 236.269 188.332 236.196 188.371L201.929 208.35L189.879 215.669L201.866 222.612C201.939 222.655 201.987 222.733 201.987 222.82C201.987 222.907 201.943 222.984 201.866 223.028L197.928 225.323L244.709 252.418L248.883 249.983C248.922 249.959 248.96 249.949 249.004 249.949C249.047 249.949 249.086 249.959 249.125 249.983L261.797 257.322L340.355 211.526L286.418 180.286C286.345 180.243 286.297 180.165 286.297 180.078C286.297 179.991 286.341 179.913 286.418 179.87L289.477 178.083C289.516 178.059 289.555 178.05 289.598 178.05C289.641 178.05 289.68 178.059 289.719 178.083L307.289 188.259L360.116 157.461L324.546 136.857L271.719 167.656L274.686 169.374C274.759 169.418 274.807 169.495 274.807 169.583C274.807 169.67 274.764 169.747 274.686 169.791L273.355 170.565L279.073 181.535C279.136 181.651 279.088 181.797 278.972 181.859C278.933 181.879 278.894 181.889 278.856 181.889C278.769 181.889 278.687 181.845 278.644 181.763L272.742 170.919L271.622 171.572C271.583 171.596 271.545 171.606 271.501 171.606C271.458 171.606 271.419 171.596 271.381 171.572L268.172 169.713L253.945 178.006C253.907 178.03 253.868 178.04 253.825 178.04C253.781 178.04 253.743 178.03 253.704 178.006L249.255 175.431C249.182 175.387 249.134 175.31 249.134 175.222C249.134 175.135 249.178 175.058 249.255 175.014L263.24 166.862L224.195 144.249C224.122 144.206 224.074 144.128 224.074 144.041C224.074 143.954 224.118 143.877 224.195 143.833L243.753 132.432C243.792 132.408 243.831 132.398 243.874 132.398C243.918 132.398 243.956 132.408 243.995 132.432L247.074 134.219C247.146 134.262 247.194 134.34 247.194 134.427C247.194 134.514 247.151 134.591 247.074 134.635L230.936 144.046L266.777 164.804L319.604 134.006L284.845 113.872L263.766 126.163C263.727 126.187 263.689 126.197 263.645 126.197C263.602 126.197 263.563 126.187 263.525 126.163L262.062 125.316L242.73 129.087C242.73 129.087 242.701 129.087 242.682 129.087C242.571 129.087 242.47 129.01 242.446 128.893C242.422 128.763 242.504 128.637 242.634 128.608L261.237 124.837L260.441 124.377C260.368 124.333 260.32 124.256 260.32 124.169C260.32 124.081 260.364 124.004 260.441 123.96L281.283 111.809L278.446 110.168C278.373 110.125 278.325 110.047 278.325 109.96C278.325 109.873 278.368 109.795 278.446 109.752L282.866 107.176C282.905 107.152 282.943 107.143 282.987 107.143C283.03 107.143 283.069 107.152 283.107 107.176L373.802 159.707C373.875 159.75 373.923 159.828 373.923 159.915C373.923 160.002 373.879 160.08 373.802 160.123L371.771 161.304L375.945 171.698C375.993 171.819 375.935 171.96 375.814 172.013C375.786 172.027 375.752 172.032 375.723 172.032C375.631 172.032 375.539 171.979 375.501 171.887L371.158 161.667L369.387 162.699C369.348 162.723 369.309 162.732 369.266 162.732C369.223 162.732 369.184 162.723 369.145 162.699L368.277 162.195L340.712 178.263C340.674 178.287 340.635 178.296 340.591 178.296C340.548 178.296 340.509 178.287 340.471 178.263L335.988 175.668L310.846 190.326L343.887 209.463L362.148 198.818C362.187 198.794 362.225 198.784 362.269 198.784C362.312 198.784 362.351 198.794 362.389 198.818L366.033 200.928L395.552 183.718L392.15 181.748C392.077 181.705 392.029 181.627 392.029 181.54C392.029 181.453 392.072 181.375 392.15 181.332L396.715 178.669L382.865 170.648C382.792 170.604 382.744 170.527 382.744 170.439C382.744 170.352 382.788 170.275 382.865 170.231L387.285 167.656C387.324 167.632 387.362 167.622 387.406 167.622C387.449 167.622 387.488 167.632 387.527 167.656L401.618 175.818L473.323 134.015L436.18 112.502C436.107 112.458 436.059 112.381 436.059 112.293C436.059 112.206 436.102 112.129 436.18 112.085L444.002 107.525C444.041 107.501 444.079 107.491 444.123 107.491C444.166 107.491 444.205 107.501 444.243 107.525L489.62 133.807C489.692 133.851 489.74 133.928 489.74 134.015C489.74 134.102 489.697 134.18 489.62 134.223L400.266 186.318C400.228 186.342 400.189 186.352 400.146 186.352C400.102 186.352 400.064 186.342 400.025 186.318L396.382 184.207L366.863 201.417L370.265 203.388C370.337 203.431 370.386 203.509 370.386 203.596C370.386 203.683 370.342 203.76 370.265 203.804L261.961 266.946C261.922 266.965 261.884 266.98 261.84 266.98L261.86 266.965ZM340.591 174.201L343.883 172.279L342.845 171.679L339.554 173.601L340.591 174.201ZM347.425 170.217L349.263 169.147L348.226 168.547L346.387 169.621L347.425 170.222V170.217ZM352.805 167.08L353.896 166.446L352.858 165.845L351.768 166.479L352.805 167.08ZM357.438 164.378L358.953 163.497L357.916 162.897L356.401 163.778L357.438 164.378ZM362.495 161.43L364.735 160.128L363.697 159.528L361.458 160.83L362.495 161.43Z" fill="#FF8B63"/>
<path d="M283.008 107.375L373.703 159.905L371.493 161.193L375.744 171.78L371.29 161.309L369.282 162.481L368.293 161.909L340.608 178.049L336.004 175.382L310.379 190.322L343.904 209.739L362.285 199.021L366.049 201.199L396.051 183.709L392.287 181.53L397.214 178.659L383.002 170.43L387.422 167.854L401.634 176.084L473.822 134.001L436.321 112.279L444.144 107.719L489.52 134.001L400.167 186.095L396.403 183.917L366.401 201.408L370.165 203.586L261.862 266.728L241.193 254.756L244.378 252.897L197.119 225.526L193.934 227.385L173.715 215.674L186.382 208.292L170.235 198.939L178.058 194.378L197.366 205.561L226.605 188.516L203.909 175.372L206.969 173.586L229.664 186.729L231.633 185.582L233.655 186.754L238.949 174.128L234.085 186.904L236.078 188.158L201.81 208.137L189.408 215.669L201.752 222.82L197.452 225.327L244.711 252.699L249.011 250.191L261.804 257.603L340.844 211.525L286.545 180.078L289.605 178.291L307.296 188.54L360.601 157.465L324.548 136.586L271.243 167.661L274.572 169.592L273.043 170.483L278.867 181.661L272.845 170.599L271.508 171.378L268.178 169.447L253.831 177.812L249.382 175.237L263.729 166.871L224.327 144.051L243.886 132.65L246.964 134.436L230.465 144.056L266.789 165.095L320.094 134.02L284.851 113.61L263.652 125.969L262.112 125.079L242.694 128.869L261.924 124.972L260.573 124.188L281.772 111.829L278.573 109.974L282.993 107.399M362.478 161.73L365.195 160.147L363.675 159.266L360.958 160.849L362.478 161.73ZM357.421 164.678L359.419 163.517L357.898 162.636L355.901 163.797L357.421 164.678ZM352.788 167.38L354.356 166.465L352.836 165.584L351.268 166.499L352.788 167.38ZM347.407 170.517L349.728 169.166L348.208 168.285L345.887 169.636L347.407 170.517ZM340.574 174.501L344.348 172.298L342.828 171.417L339.054 173.62L340.574 174.501ZM282.993 106.915C282.911 106.915 282.824 106.939 282.752 106.983L278.332 109.558C278.182 109.645 278.09 109.805 278.09 109.979C278.09 110.154 278.182 110.313 278.332 110.396L280.807 111.829L260.327 123.767C260.177 123.854 260.086 124.014 260.086 124.188C260.086 124.362 260.177 124.522 260.327 124.604L260.573 124.745L242.592 128.39C242.332 128.443 242.163 128.695 242.216 128.956C242.259 129.189 242.462 129.348 242.689 129.348C242.718 129.348 242.752 129.348 242.781 129.339L262.026 125.587L263.411 126.39C263.483 126.434 263.57 126.453 263.652 126.453C263.734 126.453 263.821 126.429 263.893 126.386L284.851 114.167L319.128 134.02L266.784 164.538L231.426 144.06L247.206 134.862C247.355 134.775 247.447 134.615 247.447 134.441C247.447 134.267 247.355 134.107 247.206 134.025L244.127 132.238C244.055 132.195 243.968 132.176 243.886 132.176C243.804 132.176 243.717 132.2 243.644 132.243L224.086 143.644C223.936 143.731 223.844 143.891 223.844 144.065C223.844 144.239 223.936 144.399 224.086 144.482L262.769 166.886L249.141 174.83C248.991 174.917 248.9 175.077 248.9 175.251C248.9 175.426 248.991 175.585 249.141 175.668L253.59 178.243C253.663 178.287 253.749 178.306 253.831 178.306C253.914 178.306 254 178.282 254.073 178.238L268.178 170.013L271.267 171.804C271.339 171.848 271.426 171.867 271.508 171.867C271.59 171.867 271.677 171.843 271.749 171.8L272.657 171.272L278.443 181.898C278.53 182.058 278.694 182.15 278.867 182.15C278.945 182.15 279.022 182.13 279.094 182.092C279.326 181.966 279.418 181.675 279.292 181.438L273.68 170.672L274.809 170.013C274.959 169.926 275.05 169.766 275.05 169.592C275.05 169.418 274.959 169.258 274.809 169.176L272.198 167.665L324.543 137.147L359.631 157.47L307.286 187.988L289.836 177.88C289.764 177.836 289.677 177.817 289.595 177.817C289.513 177.817 289.426 177.841 289.354 177.885L286.294 179.671C286.145 179.758 286.053 179.918 286.053 180.092C286.053 180.267 286.145 180.426 286.294 180.509L339.869 211.54L261.794 257.056L249.242 249.784C249.17 249.741 249.083 249.721 249.001 249.721C248.919 249.721 248.832 249.745 248.76 249.789L244.706 252.152L198.408 225.337L201.984 223.25C202.133 223.163 202.225 223.004 202.225 222.829C202.225 222.655 202.133 222.495 201.984 222.413L190.349 215.674L202.051 208.563L236.314 188.588C236.459 188.501 236.551 188.346 236.555 188.177C236.555 188.007 236.473 187.848 236.329 187.761L234.669 186.72L239.388 174.317C239.48 174.07 239.359 173.794 239.118 173.697C239.06 173.673 238.997 173.663 238.939 173.663C238.751 173.663 238.573 173.775 238.495 173.959L233.414 186.076L231.865 185.18C231.792 185.137 231.706 185.117 231.623 185.117C231.541 185.117 231.455 185.142 231.382 185.185L229.655 186.192L207.2 173.189C207.128 173.145 207.041 173.126 206.959 173.126C206.877 173.126 206.79 173.15 206.718 173.194L203.658 174.98C203.509 175.067 203.417 175.227 203.417 175.401C203.417 175.576 203.509 175.735 203.658 175.818L225.63 188.545L197.351 205.029L178.285 193.986C178.212 193.943 178.125 193.923 178.043 193.923C177.961 193.923 177.874 193.947 177.802 193.991L169.98 198.551C169.83 198.638 169.738 198.798 169.738 198.972C169.738 199.147 169.83 199.307 169.98 199.389L185.403 208.321L173.454 215.287C173.304 215.374 173.213 215.534 173.213 215.708C173.213 215.882 173.304 216.042 173.454 216.124L193.674 227.835C193.746 227.878 193.833 227.898 193.915 227.898C193.997 227.898 194.084 227.874 194.156 227.83L197.1 226.111L243.398 252.926L240.932 254.364C240.783 254.451 240.691 254.611 240.691 254.785C240.691 254.959 240.783 255.119 240.932 255.201L261.601 267.173C261.673 267.217 261.76 267.236 261.842 267.236C261.924 267.236 262.011 267.212 262.084 267.168L370.387 204.027C370.537 203.939 370.629 203.78 370.629 203.605C370.629 203.431 370.537 203.271 370.387 203.189L367.342 201.427L396.379 184.498L399.902 186.541C399.974 186.584 400.061 186.604 400.143 186.604C400.225 186.604 400.312 186.579 400.384 186.536L489.737 134.441C489.887 134.354 489.979 134.194 489.979 134.02C489.979 133.846 489.887 133.686 489.737 133.604L444.361 107.322C444.289 107.278 444.202 107.259 444.12 107.259C444.038 107.259 443.951 107.283 443.878 107.326L436.056 111.887C435.906 111.974 435.815 112.134 435.815 112.308C435.815 112.482 435.906 112.642 436.056 112.724L472.838 134.025L401.61 175.547L387.644 167.457C387.572 167.414 387.485 167.394 387.403 167.394C387.321 167.394 387.234 167.418 387.162 167.462L382.741 170.037C382.592 170.125 382.5 170.284 382.5 170.459C382.5 170.633 382.592 170.793 382.741 170.875L396.229 178.688L392.026 181.138C391.876 181.225 391.785 181.385 391.785 181.559C391.785 181.733 391.876 181.893 392.026 181.976L395.071 183.738L366.035 200.667L362.512 198.624C362.439 198.58 362.353 198.561 362.271 198.561C362.189 198.561 362.102 198.585 362.029 198.629L343.889 209.202L311.33 190.341L335.99 175.963L340.352 178.49C340.424 178.534 340.511 178.553 340.593 178.553C340.675 178.553 340.762 178.529 340.835 178.485L368.279 162.485L369.027 162.916C369.099 162.96 369.186 162.979 369.268 162.979C369.35 162.979 369.437 162.955 369.509 162.911L371.044 162.016L375.281 171.984C375.358 172.168 375.536 172.279 375.725 172.279C375.787 172.279 375.85 172.269 375.908 172.24C376.154 172.139 376.27 171.858 376.169 171.611L372.076 161.411L373.925 160.331C374.074 160.244 374.166 160.084 374.166 159.91C374.166 159.736 374.074 159.576 373.925 159.494L283.23 106.963C283.157 106.92 283.071 106.9 282.989 106.9L282.993 106.915ZM361.918 160.849L363.675 159.828L364.235 160.152L362.478 161.178L361.918 160.854V160.849ZM356.861 163.797L357.894 163.197L358.453 163.521L357.421 164.122L356.861 163.797ZM352.228 166.499L352.836 166.145L353.396 166.47L352.788 166.823L352.228 166.499ZM346.847 169.636L348.204 168.842L348.763 169.166L347.407 169.96L346.847 169.636ZM340.014 173.62L342.828 171.979L343.387 172.303L340.574 173.944L340.014 173.62Z" fill="#231F20"/>
<path d="M98.6527 218.805C98.6093 218.805 98.5659 218.796 98.5272 218.771L51.2447 190.301C51.1723 190.258 51.1289 190.18 51.1289 190.093C51.1289 190.006 51.1723 189.928 51.2495 189.885L54.4345 188.007C54.4731 187.982 54.5166 187.973 54.5552 187.973C54.5938 187.973 54.6372 187.982 54.6758 188.007L101.934 215.378C102.002 215.417 102.045 215.484 102.055 215.562C102.065 215.639 102.036 215.712 101.982 215.765L98.8168 218.738C98.7685 218.781 98.7106 218.805 98.6527 218.805Z" fill="white"/>
<path d="M54.5552 188.216L101.814 215.587L98.6479 218.559L51.3654 190.089L54.5504 188.211M54.5504 187.727C54.4635 187.727 54.3815 187.751 54.3043 187.794L51.1193 189.673C50.9745 189.76 50.8828 189.915 50.8828 190.089C50.8828 190.258 50.9697 190.418 51.1193 190.505L98.4018 218.976C98.479 219.024 98.5659 219.043 98.6479 219.043C98.7686 219.043 98.8844 219 98.9761 218.913L102.142 215.94C102.253 215.834 102.311 215.684 102.291 215.534C102.272 215.384 102.185 215.248 102.055 215.171L54.7965 187.799C54.7241 187.756 54.6372 187.736 54.5552 187.736L54.5504 187.727Z" fill="#231F20"/>
<path d="M119.455 239.032C119.412 239.032 119.373 239.023 119.334 238.999L31.062 187.872C30.9848 187.829 30.9414 187.746 30.9414 187.664L31.0958 133.207C31.0958 133.12 31.1441 133.042 31.2165 132.999C31.2551 132.979 31.2937 132.965 31.3371 132.965C31.3805 132.965 31.4192 132.975 31.4578 132.999L51.6438 144.69C51.721 144.733 51.7644 144.816 51.7644 144.898L51.639 189.973L98.4148 218.134L98.5451 172.269C98.5451 172.182 98.5933 172.105 98.6657 172.061C98.7043 172.042 98.7429 172.027 98.7864 172.027C98.8298 172.027 98.8684 172.037 98.907 172.061L119.73 184.125C119.807 184.169 119.851 184.251 119.851 184.333L119.696 238.79C119.696 238.878 119.648 238.955 119.576 238.999C119.537 239.018 119.498 239.032 119.455 239.032Z" fill="#7099ED"/>
<path d="M31.3353 133.207L51.5213 144.898L51.3959 190.109L98.6543 218.559L98.7845 172.269L119.608 184.328L119.453 238.785L98.6301 226.726L51.3717 199.355L31.1857 187.664L31.3401 133.207M31.3401 132.723C31.2581 132.723 31.176 132.742 31.0988 132.786C30.9492 132.873 30.8575 133.032 30.8575 133.202L30.7031 187.659C30.7031 187.833 30.7948 187.993 30.9444 188.08L51.1304 199.771L98.3888 227.143L119.212 239.207C119.284 239.25 119.371 239.27 119.453 239.27C119.535 239.27 119.617 239.25 119.694 239.207C119.844 239.119 119.936 238.96 119.936 238.79L120.09 184.333C120.09 184.159 119.998 183.999 119.849 183.912L99.0258 171.853C98.9534 171.809 98.8666 171.79 98.7845 171.79C98.7025 171.79 98.6205 171.809 98.5433 171.853C98.3937 171.94 98.302 172.1 98.302 172.269L98.1717 217.707L51.8784 189.837L52.0039 144.903C52.0039 144.728 51.9122 144.569 51.7626 144.482L31.5766 132.79C31.5042 132.747 31.4173 132.728 31.3353 132.728L31.3401 132.723Z" fill="#231F20"/>
<path d="M261.708 321.421C261.665 321.421 261.626 321.411 261.588 321.387L173.441 270.333C173.364 270.29 173.32 270.207 173.32 270.125L173.475 215.668C173.475 215.581 173.523 215.503 173.595 215.46C173.634 215.44 173.673 215.426 173.716 215.426C173.759 215.426 173.798 215.435 173.837 215.46L194.056 227.17C194.134 227.214 194.177 227.296 194.177 227.378L194.052 272.153L240.827 299.312L240.953 254.75C240.953 254.663 241.001 254.585 241.074 254.542C241.112 254.522 241.151 254.508 241.194 254.508C241.238 254.508 241.276 254.517 241.315 254.542L261.983 266.513C262.061 266.557 262.104 266.639 262.104 266.722L261.95 321.179C261.95 321.266 261.901 321.343 261.829 321.387C261.79 321.406 261.752 321.421 261.708 321.421Z" fill="#7099ED"/>
<path d="M173.715 215.669L193.935 227.379L193.809 272.294L241.068 299.734L241.193 254.751L261.862 266.722L261.708 321.18L241.039 309.208L193.781 281.836L173.561 270.126L173.715 215.669ZM173.715 215.185C173.633 215.185 173.551 215.204 173.474 215.247C173.324 215.335 173.233 215.494 173.233 215.664L173.078 270.121C173.078 270.295 173.17 270.455 173.319 270.542L193.539 282.253L240.798 309.624L261.466 321.596C261.539 321.639 261.625 321.659 261.708 321.659C261.79 321.659 261.872 321.639 261.949 321.596C262.098 321.509 262.19 321.349 262.19 321.18L262.345 266.722C262.345 266.548 262.253 266.388 262.103 266.301L241.435 254.329C241.362 254.286 241.275 254.266 241.193 254.266C241.111 254.266 241.029 254.286 240.952 254.329C240.802 254.416 240.711 254.576 240.711 254.746L240.585 298.891L194.287 272.009L194.413 227.374C194.413 227.2 194.321 227.04 194.171 226.953L173.952 215.243C173.879 215.199 173.792 215.18 173.71 215.18L173.715 215.185Z" fill="#231F20"/>
<path d="M391.065 140.855C391.021 140.855 390.983 140.846 390.944 140.821L339.342 110.933C339.265 110.889 339.222 110.807 339.222 110.724V110.618L294.333 84.8441C294.304 84.8441 294.275 84.8345 294.251 84.8199L258.777 64.2745C258.7 64.2309 258.656 64.1486 258.656 64.0663L258.811 9.60924C258.811 9.5221 258.859 9.44464 258.931 9.40107C258.97 9.38171 259.009 9.36719 259.052 9.36719C259.095 9.36719 259.134 9.37687 259.173 9.40107L294.647 29.9465C294.724 29.9901 294.767 30.0724 294.767 30.1547L294.642 74.552L339.256 99.5658L339.376 56.2722C339.376 56.1851 339.425 56.1076 339.497 56.064C339.536 56.0447 339.574 56.0302 339.618 56.0302C339.661 56.0302 339.7 56.0398 339.738 56.064L391.34 85.9527C391.417 85.9963 391.46 86.0786 391.46 86.1609L391.306 140.618C391.306 140.705 391.258 140.783 391.185 140.826C391.147 140.846 391.108 140.86 391.065 140.86V140.855Z" fill="#7099ED"/>
<path d="M259.047 9.60418L294.521 30.1496L294.396 74.6874L339.492 99.9722L339.618 56.2671L391.219 86.1558L391.065 140.613L339.463 110.724V110.477L294.367 84.5825V84.6019L258.893 64.0564L259.047 9.59934M259.047 9.11523C258.965 9.11523 258.883 9.1346 258.806 9.17817C258.656 9.26531 258.565 9.42506 258.565 9.5945L258.41 64.0516C258.41 64.2258 258.502 64.3856 258.651 64.4727L294.125 85.0182C294.164 85.0424 294.207 85.0569 294.251 85.0714L338.981 110.753C338.99 110.913 339.082 111.058 339.222 111.141L390.823 141.029C390.896 141.073 390.983 141.092 391.065 141.092C391.147 141.092 391.229 141.073 391.306 141.029C391.456 140.942 391.547 140.782 391.547 140.613L391.702 86.1558C391.702 85.9816 391.61 85.8218 391.46 85.7347L339.859 55.846C339.786 55.8024 339.7 55.783 339.618 55.783C339.536 55.783 339.454 55.8024 339.376 55.846C339.227 55.9331 339.135 56.0929 339.135 56.2623L339.014 99.1444L294.883 74.4017L295.009 30.1496C295.009 29.9754 294.917 29.8156 294.767 29.7285L259.293 9.18301C259.221 9.13944 259.134 9.12008 259.052 9.12008L259.047 9.11523Z" fill="#231F20"/>
<path d="M489.52 134L400.167 186.09L400.027 231.02L370.025 248.714L370.165 203.581L261.861 266.722L261.707 321.18L370.011 258.038L489.366 188.457L489.52 134Z" fill="white" stroke="#231F20" stroke-linejoin="round"/>
</g>
<defs>
<clipPath id="clip0_8626_21652">
<rect width="490" height="339" fill="white"/>
</clipPath>
</defs>
</svg>
