<svg width="239" height="127" viewBox="0 0 239 127" fill="none" xmlns="http://www.w3.org/2000/svg">
<path d="M62.3555 14.5422V28.9447H157.422V14.5422C157.422 6.79213 163.747 0.481159 171.554 0.402345H76.6411C68.7626 0.399426 62.3555 6.7425 62.3555 14.5422Z" fill="#7099ED" stroke="#231F20" stroke-width="0.6" stroke-miterlimit="10"/>
<path d="M189.882 61.5605H146.574C139.963 61.5605 134.605 69.2464 134.605 78.7304C134.605 88.2143 139.963 95.9002 146.574 95.9002H189.882C196.492 95.9002 201.85 88.2143 201.85 78.7304C201.85 69.2464 196.492 61.5605 189.882 61.5605Z" fill="#7099ED" stroke="#231F20" stroke-width="0.6" stroke-miterlimit="10"/>
<path d="M132.063 29.7051H113.463C112.079 29.7051 110.957 30.8159 110.957 32.1863V32.1892C110.957 33.5595 112.079 34.6704 113.463 34.6704H132.063C133.447 34.6704 134.569 33.5595 134.569 32.1892V32.1863C134.569 30.8159 133.447 29.7051 132.063 29.7051Z" fill="#231F20" stroke="#231F20" stroke-width="0.6" stroke-miterlimit="10"/>
<path d="M175.105 73.3262H170.508V125.662H175.105V73.3262Z" fill="#231F20" stroke="#231F20" stroke-width="0.6" stroke-miterlimit="10"/>
<path d="M175.734 122.377H170.094V125.894H175.734V122.377Z" fill="#231F20" stroke="#231F20" stroke-width="0.6" stroke-miterlimit="10"/>
<path d="M93.1503 78.3164H87.9845C78.3546 78.3164 70.5469 88.9154 70.5469 101.99C70.5469 115.064 78.3546 125.663 87.9845 125.663H93.1503C102.524 125.663 110.122 115.064 110.122 101.99C110.122 88.9154 102.524 78.3164 93.1503 78.3164Z" fill="#231F20" stroke="#231F20" stroke-width="0.6" stroke-miterlimit="10"/>
<path d="M203.9 73.2887L203.56 72.1707C204.439 71.9109 207.343 70.9214 207.75 69.1466C208.313 66.7034 203.908 63.8807 201.423 62.9145C192.206 59.324 180.173 69.3305 178.831 70.4835L178.059 69.602C179.456 68.4023 191.987 57.9871 201.856 61.8286C203.95 62.643 209.738 65.7868 208.9 69.4064C208.384 71.6453 205.545 72.7983 203.897 73.2887H203.9Z" fill="#231F20"/>
<path d="M93.0598 62.7124L91.6562 61.6441C94.5222 57.9515 95.9375 54.3114 95.8609 50.8203C95.8284 49.3228 95.5365 48.091 95.2269 46.7891C94.7552 44.7924 94.2657 42.7258 94.6107 39.5382C94.879 37.0599 95.1591 34.4999 97.1759 32.585C100.287 29.6368 106.013 29.52 109.427 32.3369C112.004 34.462 112.552 37.5094 112.667 38.7179L110.907 38.8814C110.813 37.886 110.368 35.3873 108.298 33.6797C105.234 31.1547 100.623 31.7385 98.3995 33.846C96.8486 35.3172 96.6245 37.3577 96.368 39.7192C96.0555 42.609 96.5095 44.5268 96.9489 46.3833C97.2644 47.7173 97.5916 49.098 97.627 50.7794C97.7096 54.6792 96.1734 58.6929 93.0568 62.7095L93.0598 62.7124Z" fill="#231F20"/>
<path d="M144.16 36.1152H100.952C99.324 36.1152 98.0039 37.4221 98.0039 39.0343V63.1923C98.0039 64.8044 99.324 66.1113 100.952 66.1113H144.16C145.789 66.1113 147.109 64.8044 147.109 63.1923V39.0343C147.109 37.4221 145.789 36.1152 144.16 36.1152Z" fill="#231F20"/>
<path d="M90.0555 38.1836H76.4893C74.2925 38.1836 72.5117 39.9466 72.5117 42.1214V92.5799C72.5117 94.7547 74.2925 96.5177 76.4893 96.5177H90.0555C92.2522 96.5177 94.033 94.7547 94.033 92.5799V42.1214C94.033 39.9466 92.2522 38.1836 90.0555 38.1836Z" fill="#231F20" stroke="#231F20" stroke-width="0.6" stroke-miterlimit="10"/>
<path d="M86.7117 38.1836H73.1455C70.9488 38.1836 69.168 39.9466 69.168 42.1214V92.5799C69.168 94.7547 70.9488 96.5177 73.1455 96.5177H86.7117C88.9085 96.5177 90.6893 94.7547 90.6893 92.5799V42.1214C90.6893 39.9466 88.9085 38.1836 86.7117 38.1836Z" fill="#7099ED" stroke="#231F20" stroke-width="0.6" stroke-miterlimit="10"/>
<path d="M84.8631 39.6328H73.7442C71.795 39.6328 70.2148 41.1972 70.2148 43.1269V90.5438C70.2148 92.4736 71.795 94.0379 73.7442 94.0379H84.8631C86.8124 94.0379 88.3925 92.4736 88.3925 90.5438V43.1269C88.3925 41.1972 86.8124 39.6328 84.8631 39.6328Z" fill="#7099ED" stroke="#231F20" stroke-width="0.6" stroke-miterlimit="10"/>
<path d="M164.308 49.5625H104.825C95.7463 49.5625 88.3867 60.1207 88.3867 73.1454C88.3867 86.1702 95.7463 96.7284 104.825 96.7284H164.308C173.387 96.7284 180.746 86.1702 180.746 73.1454C180.746 60.1207 173.387 49.5625 164.308 49.5625Z" fill="white" stroke="#231F20" stroke-width="0.6" stroke-miterlimit="10"/>
<path d="M102.315 95.8823L94.6602 92.7706V90.1055H100.587C100.607 90.8557 100.684 91.9678 100.958 93.2172C101.253 94.5658 102.029 95.3014 102.317 95.8823H102.315Z" fill="#7099ED" stroke="#231F20" stroke-width="0.6" stroke-miterlimit="10"/>
<path d="M102.809 96.1061L95.5234 92.7725V90.1074H101.45C101.471 90.8576 101.547 91.9698 101.821 93.2191C102.116 94.5677 102.523 95.5252 102.809 96.1061Z" fill="#7099ED" stroke="#231F20" stroke-width="0.6" stroke-miterlimit="10"/>
<path d="M102.891 50.1816L94.4492 53.0773V55.5585H100.983C101.004 54.8609 101.089 53.8246 101.393 52.6628C101.72 51.4076 102.572 50.7217 102.891 50.1816Z" fill="#7099ED" stroke="#231F20" stroke-width="0.6" stroke-miterlimit="10"/>
<path d="M103.434 49.9746L95.4023 53.0776V55.5587H101.936C101.957 54.8611 102.042 53.8248 102.346 52.663C102.673 51.4079 103.119 50.5146 103.434 49.9746Z" fill="#7099ED" stroke="#231F20" stroke-width="0.6" stroke-miterlimit="10"/>
<path d="M152.3 72.6578C149.077 72.6578 145.665 71.0611 142.121 67.8939C137.079 63.384 136.036 57.3795 135.82 55.0064L137.289 54.875C137.489 57.076 138.453 62.6484 143.109 66.811C147.084 70.3664 150.799 71.7704 154.145 70.9852C159.246 69.7884 162.956 63.6117 162.773 56.6118L164.247 56.5739C164.451 64.3736 160.346 71.029 154.487 72.4038C153.768 72.5731 153.04 72.6578 152.3 72.6578Z" fill="#231F20"/>
<path d="M115.315 39.0133C112.093 39.0133 108.681 37.4166 105.137 34.2494C100.095 29.7395 99.0512 23.735 98.8359 21.3618L100.304 21.2305C100.505 23.4314 101.469 29.0039 106.125 33.1664C110.099 36.7218 113.814 38.1259 117.161 37.3407C122.262 36.1439 125.971 29.9672 125.788 22.9673L127.263 22.9294C127.466 30.729 123.362 37.3844 117.503 38.7593C116.784 38.9286 116.055 39.0133 115.315 39.0133Z" fill="#231F20"/>
<path d="M148.308 77.8157C144.773 77.8157 141.126 76.8612 138.015 75.0105C130.054 70.2758 129.293 61.5479 129.234 60.57L130.706 60.4824C130.762 61.3844 131.461 69.4089 138.776 73.7611C143.585 76.6218 149.762 77.1735 154.512 75.1623C158.03 73.6736 159.87 71.1603 161.645 68.7316C163.541 66.1395 165.33 63.6905 168.871 63.1154C171.596 62.6717 174.533 63.4774 177.602 65.5032L176.782 66.7175C174.034 64.9019 171.451 64.175 169.107 64.5545C166.165 65.0332 164.623 67.1437 162.836 69.5869C161.031 72.0564 158.982 74.8558 155.087 76.505C153.008 77.3837 150.682 77.8157 148.305 77.8157H148.308Z" fill="#231F20"/>
<path d="M164.447 71.9023H129.94C129.975 74.3894 129.509 79.5823 128.301 83.2808C125.632 91.4366 120.23 94.3702 117.645 96.3143" stroke="#231F20" stroke-width="0.6" stroke-miterlimit="10"/>
<path d="M123.078 96.5178C129.656 96.5178 134.987 86.0997 134.987 73.2472C134.987 60.3946 129.656 49.9766 123.078 49.9766H127.884C134.462 49.9766 139.793 60.3946 139.793 73.2472C139.793 86.0997 134.462 96.5178 127.884 96.5178H123.078Z" fill="#231F20"/>
<path d="M154.625 96.5178C161.203 96.5178 166.534 86.0997 166.534 73.2472C166.534 60.3946 161.203 49.9766 154.625 49.9766H159.431C166.009 49.9766 171.34 60.3946 171.34 73.2472C171.34 86.0997 166.009 96.5178 159.431 96.5178H154.625Z" fill="#231F20"/>
<path d="M193.075 63.834H176.984V69.6254H193.075V63.834Z" fill="#231F20" stroke="#231F20" stroke-width="0.6" stroke-miterlimit="10"/>
<path d="M206.028 67.5586H162.566V98.588H206.028V67.5586Z" fill="#231F20" stroke="#231F20" stroke-width="0.6" stroke-miterlimit="10"/>
<path d="M85.3582 9.63867H164.865V22.4649H77.2969V17.6223C77.2969 13.2174 80.9088 9.64159 85.3582 9.64159V9.63867Z" fill="#231F20"/>
<path d="M217.522 25.5664H121.406V54.9407H217.522V25.5664Z" fill="#FF8B63" stroke="#231F20" stroke-width="0.6" stroke-miterlimit="10"/>
<path d="M222.668 14.5432V28.9457H217.653V14.5432C217.653 6.74347 211.246 0.400391 203.367 0.400391H208.383C216.261 0.400391 222.668 6.74347 222.668 14.5432Z" fill="#231F20" stroke="#231F20" stroke-width="0.6" stroke-miterlimit="10"/>
<path d="M217.652 14.5422V28.9447H122.585V14.5422C122.585 6.79213 116.261 0.481159 108.453 0.402345H203.366C211.245 0.399426 217.652 6.7425 217.652 14.5422Z" fill="white" stroke="#231F20" stroke-width="0.6" stroke-miterlimit="10"/>
<path d="M219.612 50.5957H122.449V60.7306H219.612V50.5957Z" fill="#231F20" stroke="#231F20" stroke-width="0.6" stroke-miterlimit="10"/>
<path d="M222.327 73.3262H217.73V125.662H222.327V73.3262Z" fill="#231F20" stroke="#231F20" stroke-width="0.6" stroke-miterlimit="10"/>
<path d="M222.953 122.377H217.312V125.894H222.953V122.377Z" fill="#231F20" stroke="#231F20" stroke-width="0.6" stroke-miterlimit="10"/>
<path d="M131.854 101.736H83.5391V96.7734H120.994C121.608 97.4857 122.295 98.1366 123.041 98.7146H123.043C123.663 99.1992 124.323 99.6312 125.019 100.008C125.715 100.384 126.446 100.705 127.207 100.965C127.328 101.006 127.449 101.047 127.569 101.085C127.569 101.085 127.571 101.085 127.575 101.085C127.696 101.123 127.817 101.161 127.941 101.196C127.941 101.196 127.944 101.199 127.947 101.196C128.068 101.231 128.192 101.263 128.315 101.298H128.321C128.445 101.327 128.569 101.359 128.696 101.388H128.702C128.826 101.415 128.952 101.441 129.079 101.467C129.975 101.642 130.904 101.736 131.854 101.736Z" fill="#7099ED" stroke="#231F20" stroke-width="0.6" stroke-miterlimit="10"/>
<path d="M222.669 28.9453V87.5889C222.669 95.3886 216.261 101.735 208.383 101.735H160.062V96.7722H208.383C213.496 96.7722 217.656 92.6534 217.656 87.5889V28.9453H222.669Z" fill="#231F20" stroke="#231F20" stroke-width="0.6" stroke-miterlimit="10"/>
<path d="M117.704 20.6738H63.2539V29.2762H117.704V20.6738Z" fill="#231F20"/>
<path d="M117.556 20.8192V29.1298H63.4003V20.8192H117.556ZM117.851 20.5273H63.1055V29.4217H117.851V20.5273Z" fill="#231F20"/>
<path d="M67.3892 27.2101C66.8467 27.2101 66.3867 26.4249 66.3867 25.4937C66.3867 24.5626 66.8467 23.7773 67.3892 23.7773C67.9317 23.7773 68.3917 24.5626 68.3917 25.4937C68.3917 26.4249 67.9317 27.2101 67.3892 27.2101Z" fill="#231F20"/>
<path d="M67.3882 23.9228C67.7922 23.9228 68.2433 24.5679 68.2433 25.4932C68.2433 26.4185 67.7922 27.0637 67.3882 27.0637C66.9843 27.0637 66.5331 26.4185 66.5331 25.4932C66.5331 24.5679 66.9843 23.9228 67.3882 23.9228ZM67.3882 23.6309C66.7543 23.6309 66.2383 24.4657 66.2383 25.4932C66.2383 26.5207 66.7513 27.3556 67.3882 27.3556C68.0251 27.3556 68.5381 26.5207 68.5381 25.4932C68.5381 24.4657 68.0251 23.6309 67.3882 23.6309Z" fill="#231F20"/>
<path d="M67.0773 26.5297C67.4241 26.5297 67.7053 26.0749 67.7053 25.5139C67.7053 24.9528 67.4241 24.498 67.0773 24.498C66.7304 24.498 66.4492 24.9528 66.4492 25.5139C66.4492 26.0749 66.7304 26.5297 67.0773 26.5297Z" fill="white"/>
<path d="M112.103 27.3556C112.738 27.3556 113.253 26.5218 113.253 25.4932C113.253 24.4647 112.738 23.6309 112.103 23.6309C111.468 23.6309 110.953 24.4647 110.953 25.4932C110.953 26.5218 111.468 27.3556 112.103 27.3556Z" fill="white"/>
<path d="M89.9122 22.3906H83.0156V28.3893H89.9122V22.3906Z" fill="white"/>
<path d="M201.765 73.8485V80.504H191.908V73.8485H201.765ZM202.06 73.5566H191.613V80.7959H202.06V73.5566Z" fill="white"/>
<path d="M187.973 64.956V66.4418H183.338V64.956H187.973ZM188.268 64.6641H183.043V66.7337H188.268V64.6641Z" fill="white"/>
<path d="M192.151 64.956V66.4418H188.353V64.956H192.151ZM192.446 64.6641H188.059V66.7337H192.446V64.6641Z" fill="white"/>
<path d="M135.197 30.7383H124.75V48.3226H135.197V30.7383Z" fill="#231F20" stroke="#231F20" stroke-width="0.6" stroke-miterlimit="10"/>
<path d="M130.285 41.7029C131.959 41.7029 133.316 40.128 133.316 38.1854C133.316 36.2428 131.959 34.668 130.285 34.668C128.611 34.668 127.254 36.2428 127.254 38.1854C127.254 40.128 128.611 41.7029 130.285 41.7029Z" fill="#7099ED" stroke="#231F20" stroke-width="0.6" stroke-miterlimit="10"/>
<path d="M152.329 30.7383H141.883V48.3226H152.329V30.7383Z" fill="#231F20" stroke="#231F20" stroke-width="0.6" stroke-miterlimit="10"/>
<path d="M147.42 39.0143C148.652 39.0143 149.65 37.8564 149.65 36.4281C149.65 34.9997 148.652 33.8418 147.42 33.8418C146.189 33.8418 145.191 34.9997 145.191 36.4281C145.191 37.8564 146.189 39.0143 147.42 39.0143Z" fill="#7099ED" stroke="#231F20" stroke-width="0.6" stroke-miterlimit="10"/>
<path d="M147.42 46.2526C148.652 46.2526 149.65 45.0947 149.65 43.6663C149.65 42.238 148.652 41.0801 147.42 41.0801C146.189 41.0801 145.191 42.238 145.191 43.6663C145.191 45.0947 146.189 46.2526 147.42 46.2526Z" fill="#7099ED" stroke="#231F20" stroke-width="0.6" stroke-miterlimit="10"/>
<path d="M213.97 30.6855H203.523V48.2699H213.97V30.6855Z" fill="#231F20" stroke="#231F20" stroke-width="0.6" stroke-miterlimit="10"/>
<path d="M208.75 42.9958C210.424 42.9958 211.781 41.421 211.781 39.4784C211.781 37.5358 210.424 35.9609 208.75 35.9609C207.076 35.9609 205.719 37.5358 205.719 39.4784C205.719 41.421 207.076 42.9958 208.75 42.9958Z" stroke="white" stroke-width="0.6" stroke-miterlimit="10"/>
<path d="M207.289 38.6523V40.1002" stroke="white" stroke-width="0.6" stroke-miterlimit="10"/>
<path d="M210.215 38.6523V40.1002" stroke="white" stroke-width="0.6" stroke-miterlimit="10"/>
<path d="M208.75 40.3047V41.7554" stroke="white" stroke-width="0.6" stroke-miterlimit="10"/>
<path d="M201.642 30.6855H191.195V48.2699H201.642V30.6855Z" fill="#231F20" stroke="#231F20" stroke-width="0.6" stroke-miterlimit="10"/>
<path d="M196.422 42.9958C198.096 42.9958 199.453 41.421 199.453 39.4784C199.453 37.5358 198.096 35.9609 196.422 35.9609C194.748 35.9609 193.391 37.5358 193.391 39.4784C193.391 41.421 194.748 42.9958 196.422 42.9958Z" stroke="white" stroke-width="0.6" stroke-miterlimit="10"/>
<path d="M194.961 38.6523V40.1002" stroke="white" stroke-width="0.6" stroke-miterlimit="10"/>
<path d="M197.887 38.6523V40.1002" stroke="white" stroke-width="0.6" stroke-miterlimit="10"/>
<path d="M196.422 40.3047V41.7554" stroke="white" stroke-width="0.6" stroke-miterlimit="10"/>
<path d="M189.103 30.6855H178.656V48.2699H189.103V30.6855Z" fill="#231F20" stroke="#231F20" stroke-width="0.6" stroke-miterlimit="10"/>
<path d="M183.883 42.9958C185.557 42.9958 186.914 41.421 186.914 39.4784C186.914 37.5358 185.557 35.9609 183.883 35.9609C182.209 35.9609 180.852 37.5358 180.852 39.4784C180.852 41.421 182.209 42.9958 183.883 42.9958Z" stroke="white" stroke-width="0.6" stroke-miterlimit="10"/>
<path d="M182.422 38.6523V40.1002" stroke="white" stroke-width="0.6" stroke-miterlimit="10"/>
<path d="M185.348 38.6523V40.1002" stroke="white" stroke-width="0.6" stroke-miterlimit="10"/>
<path d="M183.883 40.3047V41.7554" stroke="white" stroke-width="0.6" stroke-miterlimit="10"/>
<path d="M160.059 96.7726V101.735H131.854C130.904 101.735 129.975 101.642 129.079 101.466C128.952 101.44 128.825 101.414 128.702 101.388H128.696C128.569 101.358 128.445 101.326 128.321 101.297H128.315C128.191 101.262 128.068 101.23 127.947 101.195C127.944 101.198 127.941 101.195 127.941 101.195C127.817 101.16 127.696 101.122 127.575 101.084C127.575 101.084 127.573 101.084 127.569 101.084C127.448 101.046 127.328 101.005 127.207 100.964C126.446 100.705 125.715 100.383 125.019 100.007C124.323 99.6274 123.663 99.1954 123.043 98.7137H123.04C122.297 98.1328 121.613 97.4819 121 96.7726C118.862 94.3001 117.571 91.0921 117.571 87.5893V14.5431C117.571 9.53115 113.493 5.44449 108.451 5.36568C108.401 5.36276 108.348 5.36276 108.298 5.36276H74.4692C69.3565 5.36276 65.1961 9.48153 65.1961 14.5431V87.5893C65.1961 92.6538 69.3565 96.7726 74.4692 96.7726H83.5389V101.735H74.4692C66.5908 101.735 60.1836 95.3889 60.1836 87.5893V14.5431C60.1836 6.74347 66.5908 0.400391 74.4692 0.400391H108.298C108.348 0.400391 108.401 0.400391 108.451 0.40331C116.259 0.482124 122.583 6.79309 122.583 14.5431V87.5893C122.583 92.6538 126.747 96.7726 131.859 96.7726H160.059Z" fill="#231F20" stroke="#231F20" stroke-width="0.6" stroke-miterlimit="10"/>
<path d="M131.854 101.736H83.5391V96.7734H121C121.613 97.4828 122.297 98.1337 123.041 98.7146H123.043C123.663 99.1962 124.323 99.6283 125.019 100.008C125.715 100.384 126.446 100.705 127.207 100.965C127.328 101.006 127.449 101.047 127.569 101.085C127.569 101.085 127.571 101.085 127.575 101.085C127.696 101.123 127.817 101.161 127.941 101.196C127.941 101.196 127.944 101.199 127.947 101.196C128.068 101.231 128.192 101.263 128.315 101.298H128.321C128.445 101.327 128.569 101.359 128.696 101.388H128.702C128.826 101.415 128.952 101.441 129.079 101.467C129.975 101.642 130.904 101.736 131.854 101.736Z" fill="#231F20" stroke="#231F20" stroke-width="0.6" stroke-miterlimit="10"/>
<path d="M152.1 78.3164H146.934C137.304 78.3164 129.496 88.9154 129.496 101.99C129.496 115.064 137.304 125.663 146.934 125.663H152.1C161.473 125.663 169.071 115.064 169.071 101.99C169.071 88.9154 161.473 78.3164 152.1 78.3164Z" fill="#7099ED" stroke="#231F20" stroke-width="0.6" stroke-miterlimit="10"/>
<path d="M154.118 116.926C159.742 116.926 164.302 110.566 164.302 102.722C164.302 94.877 159.742 88.5176 154.118 88.5176C148.493 88.5176 143.934 94.877 143.934 102.722C143.934 110.566 148.493 116.926 154.118 116.926Z" fill="#231F20" stroke="#231F20" stroke-width="0.6" stroke-miterlimit="10"/>
<path d="M151.448 112.741C155.415 112.741 158.631 108.256 158.631 102.723C158.631 97.1904 155.415 92.7051 151.448 92.7051C147.481 92.7051 144.266 97.1904 144.266 102.723C144.266 108.256 147.481 112.741 151.448 112.741Z" stroke="white" stroke-width="0.6" stroke-miterlimit="10"/>
<path d="M153.786 123.976C162.306 123.976 169.213 114.341 169.213 102.457C169.213 90.572 162.306 80.9375 153.786 80.9375C145.266 80.9375 138.359 90.572 138.359 102.457C138.359 114.341 145.266 123.976 153.786 123.976Z" stroke="#231F20" stroke-width="0.6" stroke-miterlimit="10"/>
<path d="M152.986 97.6289H150.984C148.911 97.6289 147.23 99.9087 147.23 102.726C147.23 105.542 148.911 107.822 150.984 107.822H152.986C155.003 107.822 156.639 105.542 156.639 102.726C156.639 99.9087 155.003 97.6289 152.986 97.6289Z" stroke="white" stroke-width="0.6" stroke-miterlimit="10"/>
<path d="M154.103 106.036C155.083 106.036 155.878 104.554 155.878 102.726C155.878 100.898 155.083 99.416 154.103 99.416C153.123 99.416 152.328 100.898 152.328 102.726C152.328 104.554 153.123 106.036 154.103 106.036Z" fill="white"/>
<path d="M177.195 68.3887V95.0716" stroke="white" stroke-width="0.6" stroke-miterlimit="10"/>
<path d="M100.092 55.5625H95.495C90.1877 55.5625 85.8828 63.4352 85.8828 73.1468C85.8828 82.8585 90.1847 90.7311 95.495 90.7311H100.092C105.399 90.7311 109.704 82.8585 109.704 73.1468C109.704 63.4352 105.402 55.5625 100.092 55.5625Z" fill="white" stroke="#231F20" stroke-width="0.6" stroke-miterlimit="10"/>
<path d="M95.0781 88.6567C99.0026 88.6567 102.181 81.8495 102.181 73.4514C102.181 65.0533 98.9997 58.2461 95.0781 58.2461" stroke="#231F20" stroke-width="0.6" stroke-miterlimit="10"/>
<path d="M92.1797 59.082L93.3709 68.4726" stroke="#231F20" stroke-width="0.6" stroke-miterlimit="10"/>
<path d="M90.5 60.4648L92.7999 68.8863" stroke="#231F20" stroke-width="0.6" stroke-miterlimit="10"/>
<path d="M89.0508 62.7207L92.303 69.595" stroke="#231F20" stroke-width="0.6" stroke-miterlimit="10"/>
<path d="M87.9219 65.6934L91.9053 70.5536" stroke="#231F20" stroke-width="0.6" stroke-miterlimit="10"/>
<path d="M87.1992 69.1777L91.6397 71.6939" stroke="#231F20" stroke-width="0.6" stroke-miterlimit="10"/>
<path d="M86.9297 72.9434H91.5264" stroke="#231F20" stroke-width="0.6" stroke-miterlimit="10"/>
<path d="M87.1289 76.7272L91.5694 74.2109" stroke="#231F20" stroke-width="0.6" stroke-miterlimit="10"/>
<path d="M87.7812 80.2772L91.7618 75.4141" stroke="#231F20" stroke-width="0.6" stroke-miterlimit="10"/>
<path d="M88.8477 83.345L92.0999 76.4707" stroke="#231F20" stroke-width="0.6" stroke-miterlimit="10"/>
<path d="M90.2539 85.7261L92.5508 77.3047" stroke="#231F20" stroke-width="0.6" stroke-miterlimit="10"/>
<path d="M91.9023 87.2558L93.0936 77.8652" stroke="#231F20" stroke-width="0.6" stroke-miterlimit="10"/>
<path d="M93.6836 87.8308V78.1074" stroke="#231F20" stroke-width="0.6" stroke-miterlimit="10"/>
<path d="M95.4725 87.413L94.2812 78.0195" stroke="#231F20" stroke-width="0.6" stroke-miterlimit="10"/>
<path d="M97.1446 86.0308L94.8477 77.6094" stroke="#231F20" stroke-width="0.6" stroke-miterlimit="10"/>
<path d="M98.5999 83.7728L95.3477 76.8984" stroke="#231F20" stroke-width="0.6" stroke-miterlimit="10"/>
<path d="M99.7227 80.8016L95.7422 75.9414" stroke="#231F20" stroke-width="0.6" stroke-miterlimit="10"/>
<path d="M100.448 77.316L96.0078 74.7969" stroke="#231F20" stroke-width="0.6" stroke-miterlimit="10"/>
<path d="M100.722 73.5508H96.125" stroke="#231F20" stroke-width="0.6" stroke-miterlimit="10"/>
<path d="M100.523 69.7656L96.082 72.2818" stroke="#231F20" stroke-width="0.6" stroke-miterlimit="10"/>
<path d="M99.8672 66.2188L95.8867 71.079" stroke="#231F20" stroke-width="0.6" stroke-miterlimit="10"/>
<path d="M98.8001 63.1504L95.5508 70.0247" stroke="#231F20" stroke-width="0.6" stroke-miterlimit="10"/>
<path d="M97.3975 60.7695L95.0977 69.191" stroke="#231F20" stroke-width="0.6" stroke-miterlimit="10"/>
<path d="M95.7498 59.2383L94.5586 68.6288" stroke="#231F20" stroke-width="0.6" stroke-miterlimit="10"/>
<path d="M93.9688 58.6641V68.3874" stroke="#231F20" stroke-width="0.6" stroke-miterlimit="10"/>
<path d="M115.343 70.8691H103.434V74.5938H115.343V70.8691Z" fill="#7099ED" stroke="#231F20" stroke-width="0.6" stroke-miterlimit="10"/>
<path d="M115.347 70.8691H105.133V74.5938H115.347V70.8691Z" fill="#7099ED" stroke="#231F20" stroke-width="0.6" stroke-miterlimit="10"/>
<path d="M112.332 55.1271L111.123 54.0938L100.512 57.4273V59.4969L101.417 61.1491H108.499C108.526 60.4514 108.635 59.4152 109.018 58.2534C109.431 56.9982 111.209 56.105 112.335 55.13L112.332 55.1271Z" fill="#7099ED" stroke="#231F20" stroke-width="0.6" stroke-linejoin="round"/>
<path d="M112.297 55.1484L101.414 58.6659V61.1471H109.705C109.732 60.4494 109.841 59.4132 110.224 58.2514C110.637 56.9962 111.896 55.6885 112.297 55.1484Z" fill="#7099ED" stroke="#231F20" stroke-width="0.6" stroke-linejoin="round"/>
<path d="M112.977 90.52L111.745 91.5534L100.93 88.2198V86.1502L101.853 84.498H109.071C109.097 85.1957 109.209 86.232 109.598 87.3937C110.02 88.6489 111.83 89.5422 112.977 90.5171V90.52Z" fill="#7099ED" stroke="#231F20" stroke-width="0.6" stroke-linejoin="round"/>
<path d="M112.944 90.4986L101.852 86.9812V84.5H110.302C110.329 85.1977 110.441 86.2339 110.83 87.3957C111.251 88.6509 112.534 89.9586 112.944 90.4986Z" fill="#7099ED" stroke="#231F20" stroke-width="0.6" stroke-linejoin="round"/>
<path d="M165.803 32.0016C165.933 32.0016 166.254 32.0366 166.446 32.3723L174.144 45.8583C174.333 46.1882 174.203 46.4771 174.139 46.5851C174.074 46.6931 173.885 46.9471 173.502 46.9471H158.107C157.727 46.9471 157.535 46.6931 157.471 46.5851C157.406 46.4771 157.279 46.1882 157.465 45.8583L165.163 32.3723C165.355 32.0366 165.676 32.0016 165.806 32.0016M165.806 30.834C165.154 30.834 164.506 31.1551 164.137 31.7973L156.439 45.2832C155.716 46.5472 156.639 48.1147 158.107 48.1147H173.502C174.97 48.1147 175.893 46.5501 175.171 45.2832L167.472 31.7973C167.106 31.1551 166.455 30.834 165.803 30.834H165.806Z" fill="white"/>
<path d="M219.09 23.9102H122.137V28.9776H219.09V23.9102Z" fill="#231F20" stroke="#231F20" stroke-width="0.6" stroke-miterlimit="10"/>
<path d="M49.7593 128C39.2891 128 27.2001 126.058 17.7412 119.029C-0.126859 105.754 -1.34755 79.9375 0.772443 60.6164C3.06935 39.6956 10.3021 18.6756 14.4241 12.1457C16.2286 9.28795 20.4509 2.59459 27.1117 2.08376C29.1609 1.92613 31.2603 2.36982 33.3478 3.40025L32.6903 4.70506C30.8445 3.79432 29.0046 3.40316 27.2267 3.53744C21.309 3.99281 17.3609 10.2483 15.6773 12.9163C12.3277 18.2202 4.70283 38.3237 2.23786 60.774C0.159148 79.7186 1.31497 105 18.6258 117.862C31.3281 127.302 49.0045 127.366 61.5977 125.755C68.8334 124.829 75.1963 123.262 79.8609 121.791C78.8525 121.715 77.8529 121.639 76.8652 121.563C70.1042 121.041 64.7968 120.585 61.0935 120.206C58.9617 119.987 57.3194 119.791 56.2078 119.622C54.7335 119.397 53.7605 119.248 53.8047 118.405C53.846 117.625 54.7276 117.523 55.8421 117.395C56.7179 117.295 57.9562 117.199 59.5278 117.114C62.5766 116.951 66.6603 116.834 70.7352 116.796C75.4971 116.753 79.8402 116.817 82.9657 116.98C88.8067 117.284 89.2785 117.818 89.3345 118.597C89.3758 119.172 88.9394 119.628 87.7217 120.285C87.4062 120.454 87.0464 120.635 86.6454 120.819C93.5214 121.315 101.506 121.867 110.588 122.471C162.597 125.93 175.393 126.438 192.757 123.925C218.536 120.197 231.309 117.903 239.916 106.623C245.955 98.7099 249.136 87.1476 248.425 75.6903C247.682 63.6843 242.8 53.313 235.033 47.2326C229.838 43.1664 223.295 40.8516 215.591 40.3553L215.688 38.8987C223.696 39.4154 230.513 41.8353 235.947 46.0883C244.044 52.4256 249.13 63.1822 249.9 75.5998C250.628 87.3957 247.337 99.32 241.095 107.502C231.743 119.759 217.15 121.87 192.972 125.367C175.464 127.897 162.626 127.392 110.49 123.925C104.348 123.516 93.8693 122.818 83.5996 122.065C77.9119 124.167 68.6122 126.596 58.5371 127.562C55.8274 127.822 52.8641 127.991 49.7564 127.991L49.7593 128ZM59.3981 118.574C63.9654 119.076 71.9795 119.75 83.3903 120.588C85.242 119.896 86.5924 119.286 87.3325 118.848C83.5053 118.075 67.4122 118.148 59.3981 118.574Z" fill="#231F20"/>
<path d="M214.808 36.1152H208.748C207.363 36.1152 206.242 37.5981 206.242 39.4254C206.242 41.2527 207.366 42.7356 208.748 42.7356H214.808C216.193 42.7356 217.314 41.2527 217.314 39.4254C217.314 37.5981 216.191 36.1152 214.808 36.1152Z" fill="#231F20"/>
</svg>
