<svg width="190" height="124" viewBox="0 0 190 124" fill="none" xmlns="http://www.w3.org/2000/svg">
<path d="M264.799 97.9527L264.76 97.7451C264.614 96.9669 264.323 96.1946 263.909 95.4758L264.799 97.9527ZM264.799 97.9527C264.908 98.666 264.893 99.3806 264.741 100.066L251.022 161.729C250.805 162.709 250.415 163.552 249.903 164.238C249.388 164.926 248.748 165.461 248.027 165.825C247.305 166.188 246.497 166.381 245.646 166.38C244.791 166.377 243.889 166.182 242.985 165.759L242.985 165.759L15.2494 59.5575L264.799 97.9527ZM260.374 91.7109L260.183 92.1728L56.4086 7.74773C55.8267 7.50691 55.1822 7.37885 54.5109 7.35975C53.8397 7.34066 53.1451 7.43068 52.4652 7.62068C51.7864 7.81039 51.1304 8.09944 50.5328 8.47671C49.9355 8.85378 49.4026 9.31681 48.9737 9.8523L48.9732 9.85293L14.5229 52.7227L14.5228 52.7228C13.9828 53.3946 13.6062 54.09 13.384 54.7676L13.3837 54.7686C13.1588 55.45 13.0887 56.1126 13.1591 56.7233L13.1592 56.7237C13.2291 57.3352 13.4401 57.8946 13.7841 58.3726L13.7841 58.3727C14.1294 58.8526 14.614 59.2601 15.2489 59.5572L260.374 91.7109ZM260.374 91.7109L260.183 92.1728C260.976 92.5013 261.699 92.9669 262.329 93.5315C262.959 94.0961 263.494 94.7583 263.909 95.4752L260.374 91.7109Z" fill="white" stroke="#231F20"/>
<mask id="path-2-inside-1_8626_23958" fill="white">
<path d="M94.5986 31.0773L55.3479 14.5931C55.2316 14.5448 55.1046 14.5191 54.9728 14.5173C54.841 14.5154 54.7075 14.5318 54.576 14.5692C54.4445 14.6067 54.3193 14.664 54.2052 14.738C54.091 14.812 53.988 14.9027 53.9044 15.0097L24.2243 53.0562C24.1264 53.183 24.0562 53.3155 24.0174 53.4461C23.9786 53.5766 23.9648 53.706 23.9836 53.8276C24.0024 53.9491 24.0458 54.0612 24.1175 54.1563C24.1892 54.2513 24.2883 54.3333 24.4132 54.3896L66.6036 73.7529C66.7361 73.8128 66.8806 73.8441 67.0287 73.8472C67.1768 73.8503 67.3266 73.8248 67.4732 73.7739C67.6198 73.723 67.7586 73.6498 67.8854 73.5536C68.0123 73.4574 68.123 73.3393 68.2126 73.2025L94.953 32.2768C95.0279 32.1618 95.0746 32.0432 95.0919 31.9269C95.1092 31.8106 95.1039 31.6938 95.0724 31.5842C95.0409 31.4745 94.9843 31.3763 94.9047 31.29C94.825 31.2036 94.7239 31.1315 94.6002 31.0797"/>
</mask>
<path d="M94.5986 31.0773L55.3479 14.5931C55.2316 14.5448 55.1046 14.5191 54.9728 14.5173C54.841 14.5154 54.7075 14.5318 54.576 14.5692C54.4445 14.6067 54.3193 14.664 54.2052 14.738C54.091 14.812 53.988 14.9027 53.9044 15.0097L24.2243 53.0562C24.1264 53.183 24.0562 53.3155 24.0174 53.4461C23.9786 53.5766 23.9648 53.706 23.9836 53.8276C24.0024 53.9491 24.0458 54.0612 24.1175 54.1563C24.1892 54.2513 24.2883 54.3333 24.4132 54.3896L66.6036 73.7529C66.7361 73.8128 66.8806 73.8441 67.0287 73.8472C67.1768 73.8503 67.3266 73.8248 67.4732 73.7739C67.6198 73.723 67.7586 73.6498 67.8854 73.5536C68.0123 73.4574 68.123 73.3393 68.2126 73.2025L94.953 32.2768C95.0279 32.1618 95.0746 32.0432 95.0919 31.9269C95.1092 31.8106 95.1039 31.6938 95.0724 31.5842C95.0409 31.4745 94.9843 31.3763 94.9047 31.29C94.825 31.2036 94.7239 31.1315 94.6002 31.0797" fill="#FF8B63"/>
<path d="M55.3479 14.5931L55.7351 13.6711L55.7316 13.6697L55.3479 14.5931ZM53.9044 15.0097L53.1164 14.3941L53.1159 14.3946L53.9044 15.0097ZM24.2243 53.0562L23.4358 52.4411L23.4328 52.445L24.2243 53.0562ZM24.4132 54.3896L24.8304 53.4807L24.8237 53.4777L24.4132 54.3896ZM66.6036 73.7529L66.1865 74.6618L66.192 74.6643L66.6036 73.7529ZM68.2126 73.2025L69.049 73.7506L69.0497 73.7495L68.2126 73.2025ZM94.953 32.2768L95.7901 32.8238L95.7909 32.8226L94.953 32.2768ZM94.9858 30.1553L55.7351 13.6711L54.9607 15.5151L94.2114 31.9993L94.9858 30.1553ZM55.7316 13.6697C55.4926 13.5704 55.2396 13.521 54.987 13.5174L54.9586 15.5172C54.9696 15.5173 54.9707 15.5193 54.9642 15.5166L55.7316 13.6697ZM54.987 13.5174C54.7624 13.5142 54.5317 13.5421 54.3022 13.6074L54.8498 15.531C54.8834 15.5215 54.9195 15.5166 54.9586 15.5172L54.987 13.5174ZM54.3022 13.6074C54.0733 13.6726 53.8572 13.7717 53.6611 13.899L54.7493 15.577C54.7814 15.5562 54.8156 15.5407 54.8498 15.531L54.3022 13.6074ZM53.6611 13.899C53.4655 14.0258 53.2764 14.1892 53.1164 14.3941L54.6924 15.6254C54.6996 15.6161 54.7166 15.5982 54.7493 15.577L53.6611 13.899ZM53.1159 14.3946L23.4358 52.4411L25.0128 53.6712L54.6929 15.6248L53.1159 14.3946ZM23.4328 52.445C23.272 52.6532 23.1381 52.8944 23.0588 53.1612L24.976 53.7309C24.9743 53.7366 24.9807 53.7128 25.0158 53.6673L23.4328 52.445ZM23.0588 53.1612C22.9882 53.3989 22.949 53.6806 22.9954 53.9804L24.9719 53.6747C24.9763 53.7036 24.9754 53.7238 24.9746 53.7329C24.9738 53.7417 24.9729 53.7412 24.976 53.7309L23.0588 53.1612ZM22.9954 53.9804C23.0356 54.2409 23.1343 54.5132 23.319 54.7583L24.916 53.5542C24.9574 53.6092 24.9692 53.6574 24.9719 53.6747L22.9954 53.9804ZM23.319 54.7583C23.4919 54.9875 23.7244 55.1761 24.0027 55.3014L24.8237 53.4777C24.8521 53.4905 24.8865 53.5151 24.916 53.5542L23.319 54.7583ZM23.9961 55.2984L66.1865 74.6618L67.0207 72.8441L24.8303 53.4807L23.9961 55.2984ZM66.192 74.6643C66.4543 74.7828 66.7326 74.8412 67.0078 74.847L67.0496 72.8474C67.0286 72.847 67.0179 72.8428 67.0153 72.8416L66.192 74.6643ZM67.0078 74.847C67.2853 74.8528 67.5531 74.8047 67.8012 74.7186L67.1452 72.8292C67.1 72.8449 67.0683 72.8478 67.0496 72.8474L67.0078 74.847ZM67.8012 74.7186C68.0443 74.6341 68.2768 74.5118 68.4897 74.3504L67.2812 72.7568C67.2403 72.7878 67.1953 72.8118 67.1452 72.8292L67.8012 74.7186ZM68.4897 74.3504C68.7078 74.185 68.8969 73.9827 69.049 73.7506L67.3762 72.6544C67.349 72.6959 67.3168 72.7298 67.2812 72.7568L68.4897 74.3504ZM69.0497 73.7495L95.7901 32.8238L94.1158 31.7298L67.3754 72.6555L69.0497 73.7495ZM95.7909 32.8226C95.9329 32.6045 96.0396 32.3518 96.081 32.0742L94.1028 31.7796C94.1095 31.7346 94.1228 31.7192 94.115 31.731L95.7909 32.8226ZM96.081 32.0742C96.1169 31.8331 96.109 31.5705 96.0335 31.3078L94.1113 31.8605C94.0989 31.8172 94.1015 31.7881 94.1028 31.7796L96.081 32.0742ZM96.0335 31.3078C95.9563 31.0397 95.8185 30.8058 95.6398 30.612L94.1696 31.9679C94.161 31.9587 94.1497 31.9443 94.1384 31.9246C94.127 31.9047 94.1178 31.8829 94.1113 31.8605L96.0335 31.3078ZM95.6398 30.612C95.46 30.4171 95.2389 30.2631 94.9868 30.1574L94.2135 32.0019C94.2124 32.0014 94.2064 31.9987 94.1975 31.9926C94.1887 31.9864 94.179 31.9781 94.1696 31.9679L95.6398 30.612Z" fill="#231F20" mask="url(#path-2-inside-1_8626_23958)"/>
<path d="M147.959 59.9183L100.934 39.9469L103.757 35.4651L150.38 55.0453L147.959 59.9183Z" fill="#7099ED" stroke="#231F20"/>
<path d="M95.2671 48.9461L98.2279 44.2453L121.077 54.0188L118.318 58.9195L95.2671 48.9461Z" fill="#7099ED" stroke="#231F20"/>
<path d="M124.956 99.9787L76.9948 77.9671L79.1814 74.4952L126.862 96.1886L124.956 99.9787Z" fill="#FF8B63" stroke="#231F20"/>
<path d="M173.351 113.655L80.9109 71.7539L83.0275 68.3924L174.917 109.69L173.351 113.655Z" fill="#7099ED" stroke="#231F20"/>
<path d="M195.925 115.488L84.7194 65.6932L93.085 52.4073L201.494 99.5665L195.925 115.488Z" fill="#7099ED" stroke="#231F20"/>
</svg>
