<svg width="176" height="240" viewBox="0 0 176 240" fill="none" xmlns="http://www.w3.org/2000/svg">
<path d="M291.684 73.7074C291.553 73.2844 291.318 72.8543 290.985 72.4399C290.653 72.0269 290.23 71.6365 289.735 71.2984C289.239 70.9603 288.675 70.6764 288.058 70.4687L124.834 15.6702C124.834 15.6702 124.833 15.6702 124.833 15.6701C124.348 15.508 123.831 15.4162 123.309 15.3946C122.786 15.3729 122.263 15.4182 121.773 15.5259L121.772 15.5261C121.278 15.6337 120.818 15.8026 120.42 16.0218C120.023 16.2411 119.693 16.5081 119.451 16.8091L119.451 16.8092L98.618 42.7323C98.618 42.7323 98.6179 42.7324 98.6179 42.7324C98.3238 43.0986 98.1547 43.4689 98.0843 43.8244C98.0159 44.18 98.045 44.5296 98.164 44.862C98.2849 45.195 98.5015 45.5185 98.8186 45.8064L98.8191 45.8068C99.139 46.098 99.5579 46.3528 100.079 46.5424L278.482 111.463C279.163 111.711 279.832 111.836 280.455 111.852L280.456 111.852C281.082 111.868 281.656 111.778 282.158 111.598L291.684 73.7074ZM291.684 73.7074L291.683 73.7077C291.814 74.1312 291.839 74.5428 291.754 74.9217L291.754 74.9224L284.043 109.585L284.043 109.586C283.937 110.067 283.712 110.477 283.395 110.811L283.395 110.811C283.076 111.149 282.658 111.417 282.159 111.597L291.684 73.7074Z" fill="white" stroke="#231F20"/>
<mask id="path-2-inside-1_8626_21297" fill="white">
<path d="M157.055 30.6713L124.918 19.7799C124.823 19.7483 124.721 19.7298 124.619 19.7256C124.516 19.7214 124.416 19.73 124.32 19.752C124.225 19.774 124.133 19.8072 124.054 19.8511C123.975 19.895 123.906 19.9512 123.855 20.0174L105.949 42.9733C105.89 43.0482 105.856 43.1259 105.842 43.2057C105.828 43.2855 105.837 43.3618 105.866 43.4357C105.894 43.5096 105.942 43.5772 106.009 43.6361C106.076 43.695 106.16 43.7452 106.262 43.7824L140.396 56.0711C140.502 56.109 140.613 56.1295 140.726 56.1337C140.839 56.1379 140.949 56.1251 141.051 56.0983C141.154 56.0715 141.251 56.0292 141.337 55.9742C141.422 55.9192 141.492 55.8507 141.543 55.7722L157.454 31.4191C157.499 31.3497 157.521 31.2778 157.524 31.204C157.526 31.1301 157.508 31.0602 157.472 30.993C157.436 30.9258 157.382 30.8634 157.311 30.8076C157.239 30.7519 157.156 30.7061 157.055 30.6733"/>
</mask>
<path d="M157.055 30.6713L124.918 19.7799C124.823 19.7483 124.721 19.7298 124.619 19.7256C124.516 19.7214 124.416 19.73 124.32 19.752C124.225 19.774 124.133 19.8072 124.054 19.8511C123.975 19.895 123.906 19.9512 123.855 20.0174L105.949 42.9733C105.89 43.0482 105.856 43.1259 105.842 43.2057C105.828 43.2855 105.837 43.3618 105.866 43.4357C105.894 43.5096 105.942 43.5772 106.009 43.6361C106.076 43.695 106.16 43.7452 106.262 43.7824L140.396 56.0711C140.502 56.109 140.613 56.1295 140.726 56.1337C140.839 56.1379 140.949 56.1251 141.051 56.0983C141.154 56.0715 141.251 56.0292 141.337 55.9742C141.422 55.9192 141.492 55.8507 141.543 55.7722L157.454 31.4191C157.499 31.3497 157.521 31.2778 157.524 31.204C157.526 31.1301 157.508 31.0602 157.472 30.993C157.436 30.9258 157.382 30.8634 157.311 30.8076C157.239 30.7519 157.156 30.7061 157.055 30.6733" fill="#FF8B63"/>
<path d="M124.918 19.7799L125.239 18.8328L125.234 18.8311L124.918 19.7799ZM123.855 20.0174L124.644 20.6325L124.65 20.6245L123.855 20.0174ZM105.949 42.9733L106.737 43.5889L106.737 43.5883L105.949 42.9733ZM106.262 43.7824L105.92 44.722L105.924 44.7233L106.262 43.7824ZM140.396 56.0711L140.057 57.0119L140.059 57.0125L140.396 56.0711ZM141.543 55.7722L140.706 55.2252L140.704 55.2274L141.543 55.7722ZM157.454 31.4191L158.291 31.966L158.292 31.9633L157.454 31.4191ZM157.376 29.7242L125.239 18.8328L124.597 20.727L156.734 31.6184L157.376 29.7242ZM125.234 18.8311C125.048 18.7693 124.854 18.7344 124.66 18.7265L124.578 20.7248C124.589 20.7252 124.598 20.7273 124.602 20.7287L125.234 18.8311ZM124.66 18.7265C124.476 18.719 124.285 18.7337 124.095 18.7777L124.545 20.7263C124.545 20.7263 124.548 20.7257 124.554 20.7252C124.56 20.7247 124.568 20.7244 124.578 20.7248L124.66 18.7265ZM124.095 18.7777C123.926 18.8168 123.744 18.8798 123.569 18.9767L124.54 20.7255C124.53 20.7307 124.526 20.732 124.528 20.7311C124.531 20.7303 124.536 20.7284 124.545 20.7263L124.095 18.7777ZM123.569 18.9767C123.394 19.0738 123.211 19.2144 123.061 19.4104L124.65 20.6245C124.602 20.6881 124.556 20.7162 124.54 20.7255L123.569 18.9767ZM123.067 19.4024L105.16 42.3582L106.737 43.5883L124.644 20.6325L123.067 19.4024ZM105.161 42.3576C105.009 42.5523 104.902 42.7799 104.857 43.032L106.827 43.3794C106.81 43.472 106.772 43.5441 106.737 43.5889L105.161 42.3576ZM104.857 43.032C104.809 43.3059 104.844 43.5661 104.932 43.7947L106.799 43.0767C106.83 43.1574 106.847 43.2651 106.827 43.3794L104.857 43.032ZM104.932 43.7947C105.025 44.0356 105.174 44.2327 105.346 44.385L106.672 42.8872C106.711 42.9217 106.763 42.9836 106.799 43.0767L104.932 43.7947ZM105.346 44.385C105.517 44.5363 105.714 44.647 105.92 44.722L106.605 42.8428C106.607 42.8435 106.634 42.8537 106.672 42.8872L105.346 44.385ZM105.924 44.7233L140.057 57.0119L140.735 55.1302L106.601 42.8415L105.924 44.7233ZM140.059 57.0125C140.267 57.087 140.48 57.1252 140.689 57.133L140.763 55.1344C140.747 55.1338 140.737 55.131 140.733 55.1296L140.059 57.0125ZM140.689 57.133C140.901 57.141 141.109 57.1168 141.304 57.0658L140.799 55.1308C140.789 55.1333 140.777 55.1349 140.763 55.1344L140.689 57.133ZM141.304 57.0658C141.504 57.0136 141.699 56.93 141.878 56.8152L140.796 55.1333C140.798 55.1318 140.799 55.1309 140.8 55.1304C140.801 55.1302 140.801 55.13 140.801 55.1299C140.802 55.1298 140.802 55.1297 140.802 55.1297C140.802 55.1297 140.802 55.1297 140.802 55.1298C140.801 55.1299 140.801 55.13 140.801 55.1301C140.8 55.1303 140.799 55.1305 140.799 55.1308L141.304 57.0658ZM141.878 56.8152C142.074 56.689 142.248 56.5222 142.381 56.3169L140.704 55.2274C140.736 55.1791 140.771 55.1494 140.796 55.1333L141.878 56.8152ZM142.38 56.3191L158.291 31.966L156.616 30.8721L140.706 55.2252L142.38 56.3191ZM158.292 31.9633C158.429 31.7523 158.514 31.5058 158.523 31.2384L156.525 31.1696C156.529 31.0499 156.568 30.9471 156.615 30.8748L158.292 31.9633ZM158.523 31.2384C158.533 30.9619 158.459 30.7185 158.353 30.5208L156.59 31.4652C156.556 31.4019 156.52 31.2984 156.525 31.1696L158.523 31.2384ZM158.353 30.5208C158.243 30.3157 158.093 30.1496 157.926 30.0196L156.695 31.5957C156.671 31.5772 156.628 31.536 156.59 31.4652L158.353 30.5208ZM157.926 30.0196C157.762 29.8914 157.575 29.7908 157.364 29.7223L156.746 31.6242C156.743 31.6233 156.735 31.6205 156.725 31.6151C156.715 31.6097 156.705 31.603 156.695 31.5957L157.926 30.0196Z" fill="#231F20" mask="url(#path-2-inside-1_8626_21297)"/>
<path d="M200.644 48.9361L163.061 36.0991L164.546 33.7393L201.905 46.4001L200.644 48.9361Z" fill="#7099ED" stroke="#231F20"/>
<path d="M159.658 41.5033L161.208 39.0401L179.418 45.29L177.982 47.8415L159.658 41.5033Z" fill="#7099ED" stroke="#231F20"/>
<path d="M186.735 72.2238L148.894 58.5998L149.935 56.9479L187.631 70.4414L186.735 72.2238Z" fill="#FF8B63" stroke="#231F20"/>
<path d="M223.924 80.9548L151.168 54.9802L152.175 53.3782L224.655 79.107L223.924 80.9548Z" fill="#7099ED" stroke="#231F20"/>
<path d="M240.896 82.4074L153.411 51.4296L158.135 43.9264L243.935 73.7176L240.896 82.4074Z" fill="#7099ED" stroke="#231F20"/>
<path d="M265.303 191.976L265.264 191.769C265.118 190.99 264.827 190.218 264.413 189.499L265.303 191.976ZM265.303 191.976C265.412 192.689 265.397 193.404 265.245 194.09L251.526 255.753C251.309 256.732 250.919 257.575 250.407 258.261C249.892 258.949 249.252 259.484 248.531 259.848C247.809 260.211 247.001 260.405 246.15 260.403C245.295 260.401 244.393 260.205 243.489 259.783L243.489 259.783L15.7533 153.581L265.303 191.976ZM260.878 185.734L260.686 186.196L56.9125 101.771C56.3306 101.53 55.6861 101.402 55.0148 101.383C54.3436 101.364 53.649 101.454 52.9691 101.644C52.2903 101.834 51.6343 102.123 51.0367 102.5C50.4394 102.877 49.9065 103.34 49.4776 103.876L49.4771 103.876L15.0268 146.746L15.0267 146.746C14.4867 147.418 14.1101 148.113 13.8879 148.791L13.8876 148.792C13.6627 149.473 13.5926 150.136 13.663 150.747L13.6631 150.747C13.733 151.359 13.944 151.918 14.288 152.396L14.288 152.396C14.6333 152.876 15.1179 153.284 15.7528 153.581L260.878 185.734ZM260.878 185.734L260.687 186.196C261.48 186.525 262.203 186.99 262.833 187.555C263.463 188.12 263.998 188.782 264.413 189.499L260.878 185.734Z" fill="white" stroke="#231F20"/>
<mask id="path-10-inside-2_8626_21297" fill="white">
<path d="M95.1025 125.101L55.8518 108.617C55.7355 108.568 55.6085 108.543 55.4767 108.541C55.3449 108.539 55.2114 108.555 55.0799 108.593C54.9484 108.63 54.8232 108.687 54.7091 108.761C54.595 108.835 54.4919 108.926 54.4083 109.033L24.7282 147.08C24.6303 147.206 24.5601 147.339 24.5213 147.469C24.4825 147.6 24.4687 147.729 24.4875 147.851C24.5063 147.973 24.5497 148.085 24.6214 148.18C24.6931 148.275 24.7922 148.357 24.9171 148.413L67.1075 167.776C67.24 167.836 67.3845 167.868 67.5326 167.871C67.6807 167.874 67.8305 167.848 67.9771 167.797C68.1237 167.746 68.2625 167.673 68.3893 167.577C68.5162 167.481 68.6269 167.363 68.7165 167.226L95.4569 126.3C95.5318 126.185 95.5785 126.067 95.5958 125.95C95.6131 125.834 95.6078 125.717 95.5763 125.608C95.5448 125.498 95.4882 125.4 95.4086 125.313C95.3289 125.227 95.2278 125.155 95.1041 125.103"/>
</mask>
<path d="M95.1025 125.101L55.8518 108.617C55.7355 108.568 55.6085 108.543 55.4767 108.541C55.3449 108.539 55.2114 108.555 55.0799 108.593C54.9484 108.63 54.8232 108.687 54.7091 108.761C54.595 108.835 54.4919 108.926 54.4083 109.033L24.7282 147.08C24.6303 147.206 24.5601 147.339 24.5213 147.469C24.4825 147.6 24.4687 147.729 24.4875 147.851C24.5063 147.973 24.5497 148.085 24.6214 148.18C24.6931 148.275 24.7922 148.357 24.9171 148.413L67.1075 167.776C67.24 167.836 67.3845 167.868 67.5326 167.871C67.6807 167.874 67.8305 167.848 67.9771 167.797C68.1237 167.746 68.2625 167.673 68.3893 167.577C68.5162 167.481 68.6269 167.363 68.7165 167.226L95.4569 126.3C95.5318 126.185 95.5785 126.067 95.5958 125.95C95.6131 125.834 95.6078 125.717 95.5763 125.608C95.5448 125.498 95.4882 125.4 95.4086 125.313C95.3289 125.227 95.2278 125.155 95.1041 125.103" fill="#FF8B63"/>
<path d="M55.8518 108.617L56.239 107.695L56.2355 107.693L55.8518 108.617ZM54.4083 109.033L53.6203 108.418L53.6198 108.418L54.4083 109.033ZM24.7282 147.08L23.9397 146.465L23.9367 146.468L24.7282 147.08ZM24.9171 148.413L25.3343 147.504L25.3277 147.501L24.9171 148.413ZM67.1075 167.776L66.6904 168.685L66.6959 168.688L67.1075 167.776ZM68.7165 167.226L69.5529 167.774L69.5536 167.773L68.7165 167.226ZM95.4569 126.3L96.294 126.847L96.2948 126.846L95.4569 126.3ZM95.4897 124.179L56.239 107.695L55.4646 109.539L94.7153 126.023L95.4897 124.179ZM56.2355 107.693C55.9965 107.594 55.7435 107.544 55.4909 107.541L55.4625 109.541C55.4735 109.541 55.4746 109.543 55.4681 109.54L56.2355 107.693ZM55.4909 107.541C55.2663 107.538 55.0356 107.566 54.8061 107.631L55.3537 109.554C55.3873 109.545 55.4234 109.54 55.4625 109.541L55.4909 107.541ZM54.8061 107.631C54.5772 107.696 54.3611 107.795 54.165 107.922L55.2532 109.6C55.2853 109.58 55.3195 109.564 55.3537 109.554L54.8061 107.631ZM54.165 107.922C53.9694 108.049 53.7803 108.213 53.6203 108.418L55.1963 109.649C55.2035 109.64 55.2205 109.622 55.2532 109.6L54.165 107.922ZM53.6198 108.418L23.9398 146.465L25.5167 147.695L55.1968 109.648L53.6198 108.418ZM23.9367 146.468C23.776 146.677 23.642 146.918 23.5627 147.185L25.4799 147.754C25.4782 147.76 25.4846 147.736 25.5197 147.691L23.9367 146.468ZM23.5627 147.185C23.4921 147.422 23.4529 147.704 23.4993 148.004L25.4758 147.698C25.4802 147.727 25.4793 147.747 25.4785 147.756C25.4777 147.765 25.4768 147.765 25.4799 147.754L23.5627 147.185ZM23.4993 148.004C23.5395 148.264 23.6382 148.537 23.8229 148.782L25.4199 147.578C25.4613 147.633 25.4731 147.681 25.4758 147.698L23.4993 148.004ZM23.8229 148.782C23.9958 149.011 24.2283 149.2 24.5066 149.325L25.3277 147.501C25.356 147.514 25.3904 147.539 25.4199 147.578L23.8229 148.782ZM24.5 149.322L66.6904 168.685L67.5247 166.868L25.3342 147.504L24.5 149.322ZM66.6959 168.688C66.9582 168.806 67.2365 168.865 67.5117 168.87L67.5535 166.871C67.5325 166.87 67.5218 166.866 67.5192 166.865L66.6959 168.688ZM67.5117 168.87C67.7892 168.876 68.057 168.828 68.3051 168.742L67.6491 166.853C67.6039 166.868 67.5722 166.871 67.5535 166.871L67.5117 168.87ZM68.3051 168.742C68.5482 168.658 68.7807 168.535 68.9936 168.374L67.7851 166.78C67.7442 166.811 67.6992 166.835 67.6491 166.853L68.3051 168.742ZM68.9936 168.374C69.2117 168.208 69.4008 168.006 69.5529 167.774L67.8801 166.678C67.8529 166.719 67.8207 166.753 67.7851 166.78L68.9936 168.374ZM69.5536 167.773L96.294 126.847L94.6197 125.753L67.8794 166.679L69.5536 167.773ZM96.2948 126.846C96.4368 126.628 96.5435 126.375 96.5849 126.098L94.6067 125.803C94.6134 125.758 94.6267 125.743 94.6189 125.754L96.2948 126.846ZM96.5849 126.098C96.6208 125.857 96.6129 125.594 96.5374 125.331L94.6152 125.884C94.6028 125.841 94.6054 125.812 94.6067 125.803L96.5849 126.098ZM96.5374 125.331C96.4603 125.063 96.3224 124.829 96.1437 124.635L94.6735 125.991C94.6649 125.982 94.6536 125.968 94.6423 125.948C94.6309 125.928 94.6217 125.906 94.6152 125.884L96.5374 125.331ZM96.1437 124.635C95.9639 124.44 95.7428 124.287 95.4907 124.181L94.7175 126.025C94.7163 126.025 94.7103 126.022 94.7014 126.016C94.6926 126.01 94.6829 126.002 94.6735 125.991L96.1437 124.635Z" fill="#231F20" mask="url(#path-10-inside-2_8626_21297)"/>
<path d="M148.463 153.942L101.438 133.97L104.261 129.489L150.884 149.069L148.463 153.942Z" fill="#7099ED" stroke="#231F20"/>
<path d="M95.771 142.97L98.7318 138.269L121.581 148.042L118.822 152.943L95.771 142.97Z" fill="#7099ED" stroke="#231F20"/>
<path d="M125.459 194.002L77.4987 171.991L79.6853 168.519L127.366 190.212L125.459 194.002Z" fill="#FF8B63" stroke="#231F20"/>
<path d="M173.855 207.678L81.4148 165.777L83.5314 162.416L175.421 203.714L173.855 207.678Z" fill="#7099ED" stroke="#231F20"/>
<path d="M196.429 209.511L85.2233 159.717L93.5889 146.431L201.998 193.59L196.429 209.511Z" fill="#7099ED" stroke="#231F20"/>
<path d="M250.21 110.926C250.068 110.361 249.805 109.794 249.435 109.261L249.434 109.26C249.065 108.726 248.592 108.228 248.036 107.799C247.48 107.37 246.846 107.012 246.151 106.756L246.151 106.756L64.7652 39.7446C64.7652 39.7446 64.7651 39.7445 64.765 39.7445C64.2351 39.5493 63.6605 39.4436 63.0744 39.4225L63.0742 39.4225C62.4863 39.401 61.891 39.4643 61.3175 39.6054C60.7456 39.747 60.2003 39.9652 59.7199 40.2478C59.2383 40.5328 58.8229 40.8803 58.5043 41.2777L58.5042 41.2779L32.1569 74.1111L31.7671 73.7983L32.1569 74.1111C31.763 74.6019 31.5118 75.1053 31.3839 75.5958C31.2564 76.0847 31.2529 76.5619 31.3596 77.0062C31.466 77.4492 31.6864 77.8667 32.0183 78.2293L32.0185 78.2296C32.3527 78.5953 32.8052 78.9132 33.3786 79.1466C33.3787 79.1466 33.3787 79.1466 33.3787 79.1466L233.628 160.609L250.21 110.926ZM250.21 110.926C250.352 111.493 250.37 112.055 250.251 112.587L250.251 112.587L240.219 157.902C240.069 158.58 239.776 159.159 239.379 159.63L239.378 159.631C238.98 160.104 238.47 160.474 237.881 160.723L237.88 160.724M250.21 110.926L237.88 160.724M237.88 160.724C237.292 160.974 236.619 161.104 235.896 161.093M237.88 160.724L235.896 161.093M235.896 161.093C235.175 161.079 234.407 160.925 233.629 160.609L235.896 161.093Z" fill="white" stroke="#231F20"/>
<mask id="path-18-inside-3_8626_21297" fill="white">
<path d="M99.7824 58.1982L64.4069 44.9829C64.3014 44.9429 64.1878 44.922 64.0731 44.9174C63.9584 44.9128 63.842 44.9264 63.7331 44.954C63.6243 44.9816 63.5162 45.0258 63.4223 45.0812C63.3285 45.1366 63.2457 45.2087 63.1816 45.2907L40.5138 74.3938C40.4386 74.4901 40.3915 74.5901 40.3675 74.6885C40.3434 74.7869 40.344 74.8862 40.3688 74.978C40.3937 75.0698 40.4403 75.1556 40.512 75.23C40.5838 75.3045 40.6745 75.3662 40.7852 75.4113L78.5696 90.5867C78.6882 90.6334 78.8132 90.6587 78.9407 90.6617C79.0681 90.6648 79.1956 90.6472 79.3164 90.6117C79.4372 90.5762 79.5517 90.5209 79.6531 90.4485C79.7545 90.376 79.8424 90.2884 79.9086 90.1861L100.168 59.123C100.225 59.0354 100.258 58.943 100.265 58.8536C100.273 58.7643 100.261 58.673 100.226 58.5895C100.191 58.506 100.135 58.4265 100.06 58.3596C99.9843 58.2928 99.8907 58.2346 99.7812 58.1938"/>
</mask>
<path d="M99.7824 58.1982L64.4069 44.9829C64.3014 44.9429 64.1878 44.922 64.0731 44.9174C63.9584 44.9128 63.842 44.9264 63.7331 44.954C63.6243 44.9816 63.5162 45.0258 63.4223 45.0812C63.3285 45.1366 63.2457 45.2087 63.1816 45.2907L40.5138 74.3938C40.4386 74.4901 40.3915 74.5901 40.3675 74.6885C40.3434 74.7869 40.344 74.8862 40.3688 74.978C40.3937 75.0698 40.4403 75.1556 40.512 75.23C40.5838 75.3045 40.6745 75.3662 40.7852 75.4113L78.5696 90.5867C78.6882 90.6334 78.8132 90.6587 78.9407 90.6617C79.0681 90.6648 79.1956 90.6472 79.3164 90.6117C79.4372 90.5762 79.5517 90.5209 79.6531 90.4485C79.7545 90.376 79.8424 90.2884 79.9086 90.1861L100.168 59.123C100.225 59.0354 100.258 58.943 100.265 58.8536C100.273 58.7643 100.261 58.673 100.226 58.5895C100.191 58.506 100.135 58.4265 100.06 58.3596C99.9843 58.2928 99.8907 58.2346 99.7812 58.1938" fill="#FF8B63"/>
<path d="M64.4069 44.9829L64.053 45.9181L64.0569 45.9196L64.4069 44.9829ZM63.1816 45.2907L62.3936 44.6751L62.3927 44.6762L63.1816 45.2907ZM40.5138 74.3938L41.3019 75.0094L41.3028 75.0083L40.5138 74.3938ZM40.7852 75.4113L40.4078 76.3374L40.4125 76.3393L40.7852 75.4113ZM78.5696 90.5867L78.1969 91.5147L78.2031 91.5171L78.5696 90.5867ZM79.9086 90.1861L79.071 89.6399L79.0688 89.6432L79.9086 90.1861ZM100.168 59.123L101.005 59.6693L101.006 59.6681L100.168 59.123ZM100.132 57.2614L64.7569 44.0461L64.0569 45.9196L99.4325 59.135L100.132 57.2614ZM64.7608 44.0476C64.5422 43.9648 64.321 43.9266 64.1133 43.9182L64.0329 45.9166C64.0432 45.917 64.0502 45.918 64.0539 45.9188C64.0577 45.9195 64.0571 45.9197 64.053 45.9181L64.7608 44.0476ZM64.1133 43.9182C63.8948 43.9094 63.6822 43.9354 63.4877 43.9846L63.9785 45.9234C64.0018 45.9175 64.0219 45.9162 64.0329 45.9166L64.1133 43.9182ZM63.4877 43.9846C63.2893 44.0348 63.0923 44.1147 62.914 44.22L63.9307 45.9423C63.94 45.9369 63.9592 45.9283 63.9785 45.9234L63.4877 43.9846ZM62.914 44.22C62.7171 44.3362 62.5381 44.4902 62.3936 44.6751L63.9697 45.9064C63.9609 45.9176 63.9533 45.9251 63.9475 45.9301C63.9417 45.9352 63.9362 45.9391 63.9307 45.9423L62.914 44.22ZM62.3927 44.6762L39.7249 73.7793L41.3028 75.0083L63.9706 45.9052L62.3927 44.6762ZM39.7258 73.7781C39.567 73.9815 39.4551 74.2094 39.396 74.4513L41.3389 74.9258C41.3279 74.9707 41.3102 74.9988 41.3019 75.0094L39.7258 73.7781ZM39.396 74.4513C39.3344 74.7037 39.3321 74.9748 39.4035 75.239L41.3342 74.7169C41.356 74.7976 41.3525 74.8701 41.3389 74.9258L39.396 74.4513ZM39.4035 75.239C39.471 75.4886 39.5999 75.7247 39.792 75.924L41.2321 74.5361C41.2807 74.5866 41.3163 74.6509 41.3342 74.7169L39.4035 75.239ZM39.792 75.924C39.9668 76.1054 40.1767 76.2432 40.4078 76.3374L41.1626 74.4853C41.1724 74.4892 41.2007 74.5036 41.2321 74.5361L39.792 75.924ZM40.4125 76.3393L78.1969 91.5146L78.9423 89.6587L41.1579 74.4834L40.4125 76.3393ZM78.2031 91.5171C78.431 91.6069 78.6719 91.6556 78.9167 91.6614L78.9646 89.662C78.9545 89.6618 78.9454 89.6599 78.936 89.6562L78.2031 91.5171ZM78.9167 91.6614C79.1511 91.6671 79.3817 91.6348 79.5982 91.5712L79.0346 89.6523C79.0096 89.6596 78.9851 89.6625 78.9646 89.662L78.9167 91.6614ZM79.5982 91.5712C79.824 91.5049 80.04 91.401 80.2344 91.2622L79.0718 89.6348C79.0633 89.6408 79.0504 89.6476 79.0346 89.6523L79.5982 91.5712ZM80.2344 91.2622C80.4223 91.1279 80.604 90.9523 80.7484 90.729L79.0688 89.6432C79.0809 89.6245 79.0867 89.6241 79.0718 89.6348L80.2344 91.2622ZM80.7462 90.7324L101.005 59.6693L99.33 58.5768L79.071 89.6399L80.7462 90.7324ZM101.006 59.6681C101.14 59.4619 101.238 59.214 101.262 58.9399L99.2692 58.7673C99.2774 58.6719 99.309 58.609 99.3292 58.578L101.006 59.6681ZM101.262 58.9399C101.282 58.7023 101.25 58.4481 101.149 58.205L99.3028 58.974C99.271 58.8978 99.264 58.8264 99.2692 58.7673L101.262 58.9399ZM101.149 58.205C101.054 57.9778 100.908 57.7753 100.724 57.6119L99.3956 59.1073C99.3622 59.0777 99.3279 59.0343 99.3028 58.974L101.149 58.205ZM100.724 57.6119C100.557 57.4636 100.356 57.3408 100.13 57.2566L99.4325 59.1311C99.4251 59.1283 99.412 59.1219 99.3956 59.1073L100.724 57.6119Z" fill="#231F20" mask="url(#path-18-inside-3_8626_21297)"/>
<path d="M174.57 90.8895L106.006 65.0387L108.032 61.8126L176.096 87.2391L174.57 90.8895Z" fill="#7099ED" stroke="#231F20"/>
<path d="M101.691 71.9053L103.811 68.5337L124.11 76.2309L122.143 79.7351L101.691 71.9053Z" fill="#7099ED" stroke="#231F20"/>
<path d="M149.99 118.735L87.927 93.8108L89.4238 91.4302L151.188 116.062L149.99 118.735Z" fill="#FF8B63" stroke="#231F20"/>
<path d="M124.973 102.713L90.8538 89.1476L92.305 86.839L126.267 100.247L124.973 102.713Z" fill="#7099ED" stroke="#231F20"/>
<path d="M191.749 123.181L93.7178 84.5893L99.9027 74.7505L195.781 111.618L191.749 123.181Z" fill="#7099ED" stroke="#231F20"/>
</svg>
