<svg width="154" height="129" viewBox="0 0 154 129" fill="none" xmlns="http://www.w3.org/2000/svg">
<path d="M228.21 76.926C228.068 76.3612 227.805 75.7944 227.435 75.2607L227.434 75.2598C227.065 74.7258 226.592 74.2283 226.036 73.7992C225.48 73.3701 224.846 73.0121 224.151 72.7558L224.151 72.7557L42.7652 5.74459C42.7652 5.74457 42.7651 5.74454 42.765 5.74452C42.2351 5.54935 41.6605 5.44357 41.0744 5.42247L41.0742 5.42246C40.4863 5.40099 39.891 5.46433 39.3175 5.60542C38.7456 5.747 38.2003 5.96524 37.7199 6.24782C37.2383 6.53285 36.8229 6.88028 36.5043 7.27768L36.5042 7.27788L10.1569 40.1111L9.76706 39.7983L10.1569 40.1111C9.76299 40.6019 9.51177 41.1053 9.38389 41.5958C9.25641 42.0847 9.25292 42.5619 9.35964 43.0062C9.46603 43.4492 9.6864 43.8667 10.0183 44.2293L10.0185 44.2296C10.3527 44.5953 10.8052 44.9132 11.3786 45.1466C11.3787 45.1466 11.3787 45.1466 11.3787 45.1466L211.628 126.609L228.21 76.926ZM228.21 76.926C228.352 77.4929 228.37 78.0546 228.251 78.5867L228.251 78.5871L218.219 123.902C218.069 124.58 217.776 125.159 217.379 125.63L217.378 125.631C216.98 126.104 216.47 126.474 215.881 126.723L215.88 126.724M228.21 76.926L215.88 126.724M215.88 126.724C215.292 126.974 214.619 127.104 213.896 127.093M215.88 126.724L213.896 127.093M213.896 127.093C213.175 127.079 212.407 126.925 211.629 126.609L213.896 127.093Z" fill="white" stroke="#231F20"/>
<mask id="path-2-inside-1_8626_21323" fill="white">
<path d="M77.7824 24.1982L42.4069 10.9829C42.3014 10.9429 42.1878 10.922 42.0731 10.9174C41.9584 10.9128 41.842 10.9264 41.7331 10.954C41.6243 10.9816 41.5162 11.0258 41.4223 11.0812C41.3285 11.1366 41.2457 11.2087 41.1816 11.2907L18.5138 40.3938C18.4386 40.4901 18.3915 40.5901 18.3675 40.6885C18.3434 40.7869 18.344 40.8862 18.3688 40.978C18.3937 41.0698 18.4403 41.1556 18.512 41.23C18.5838 41.3045 18.6745 41.3662 18.7852 41.4113L56.5696 56.5867C56.6882 56.6334 56.8132 56.6587 56.9407 56.6617C57.0681 56.6648 57.1956 56.6472 57.3164 56.6117C57.4372 56.5762 57.5517 56.5209 57.6531 56.4485C57.7545 56.376 57.8424 56.2884 57.9086 56.1861L78.1676 25.123C78.2245 25.0354 78.2577 24.943 78.2654 24.8536C78.2732 24.7643 78.2607 24.673 78.2259 24.5895C78.1911 24.506 78.1349 24.4265 78.0596 24.3596C77.9843 24.2928 77.8907 24.2346 77.7812 24.1938"/>
</mask>
<path d="M77.7824 24.1982L42.4069 10.9829C42.3014 10.9429 42.1878 10.922 42.0731 10.9174C41.9584 10.9128 41.842 10.9264 41.7331 10.954C41.6243 10.9816 41.5162 11.0258 41.4223 11.0812C41.3285 11.1366 41.2457 11.2087 41.1816 11.2907L18.5138 40.3938C18.4386 40.4901 18.3915 40.5901 18.3675 40.6885C18.3434 40.7869 18.344 40.8862 18.3688 40.978C18.3937 41.0698 18.4403 41.1556 18.512 41.23C18.5838 41.3045 18.6745 41.3662 18.7852 41.4113L56.5696 56.5867C56.6882 56.6334 56.8132 56.6587 56.9407 56.6617C57.0681 56.6648 57.1956 56.6472 57.3164 56.6117C57.4372 56.5762 57.5517 56.5209 57.6531 56.4485C57.7545 56.376 57.8424 56.2884 57.9086 56.1861L78.1676 25.123C78.2245 25.0354 78.2577 24.943 78.2654 24.8536C78.2732 24.7643 78.2607 24.673 78.2259 24.5895C78.1911 24.506 78.1349 24.4265 78.0596 24.3596C77.9843 24.2928 77.8907 24.2346 77.7812 24.1938" fill="#FF8B63"/>
<path d="M42.4069 10.9829L42.053 11.9181L42.0569 11.9196L42.4069 10.9829ZM41.1816 11.2907L40.3936 10.6751L40.3927 10.6762L41.1816 11.2907ZM18.5138 40.3938L19.3019 41.0094L19.3028 41.0083L18.5138 40.3938ZM18.7852 41.4113L18.4078 42.3374L18.4125 42.3393L18.7852 41.4113ZM56.5696 56.5867L56.1969 57.5147L56.2031 57.5171L56.5696 56.5867ZM57.9086 56.1861L57.071 55.6399L57.0688 55.6432L57.9086 56.1861ZM78.1676 25.123L79.0052 25.6693L79.006 25.6681L78.1676 25.123ZM78.1324 23.2614L42.7569 10.0461L42.0569 11.9196L77.4325 25.135L78.1324 23.2614ZM42.7608 10.0476C42.5422 9.96485 42.321 9.92657 42.1133 9.91822L42.0329 11.9166C42.0432 11.917 42.0502 11.918 42.0539 11.9188C42.0577 11.9195 42.0571 11.9197 42.053 11.9181L42.7608 10.0476ZM42.1133 9.91822C41.8948 9.90943 41.6822 9.93535 41.4877 9.98459L41.9785 11.9234C42.0018 11.9175 42.0219 11.9162 42.0329 11.9166L42.1133 9.91822ZM41.4877 9.98459C41.2893 10.0348 41.0923 10.1147 40.914 10.22L41.9307 11.9423C41.94 11.9369 41.9592 11.9283 41.9785 11.9234L41.4877 9.98459ZM40.914 10.22C40.7171 10.3362 40.5381 10.4902 40.3936 10.6751L41.9697 11.9064C41.9609 11.9176 41.9533 11.9251 41.9475 11.9301C41.9417 11.9352 41.9362 11.9391 41.9307 11.9423L40.914 10.22ZM40.3927 10.6762L17.7249 39.7793L19.3028 41.0083L41.9706 11.9052L40.3927 10.6762ZM17.7258 39.7781C17.567 39.9815 17.4551 40.2094 17.396 40.4513L19.3389 40.9258C19.3279 40.9707 19.3102 40.9988 19.3019 41.0094L17.7258 39.7781ZM17.396 40.4513C17.3344 40.7037 17.3321 40.9748 17.4035 41.239L19.3342 40.7169C19.356 40.7976 19.3525 40.8701 19.3389 40.9258L17.396 40.4513ZM17.4035 41.239C17.471 41.4886 17.5999 41.7247 17.792 41.924L19.2321 40.5361C19.2807 40.5866 19.3163 40.6509 19.3342 40.7169L17.4035 41.239ZM17.792 41.924C17.9668 42.1054 18.1767 42.2432 18.4078 42.3374L19.1626 40.4853C19.1724 40.4892 19.2007 40.5036 19.2321 40.5361L17.792 41.924ZM18.4125 42.3393L56.1969 57.5146L56.9423 55.6587L19.1579 40.4834L18.4125 42.3393ZM56.2031 57.5171C56.431 57.6069 56.6719 57.6556 56.9167 57.6614L56.9646 55.662C56.9545 55.6618 56.9454 55.6599 56.936 55.6562L56.2031 57.5171ZM56.9167 57.6614C57.1511 57.6671 57.3817 57.6348 57.5982 57.5712L57.0346 55.6523C57.0096 55.6596 56.9851 55.6625 56.9646 55.662L56.9167 57.6614ZM57.5982 57.5712C57.824 57.5049 58.04 57.401 58.2344 57.2622L57.0718 55.6348C57.0633 55.6408 57.0504 55.6476 57.0346 55.6523L57.5982 57.5712ZM58.2344 57.2622C58.4223 57.1279 58.604 56.9523 58.7484 56.729L57.0688 55.6432C57.0809 55.6245 57.0867 55.6241 57.0718 55.6348L58.2344 57.2622ZM58.7462 56.7324L79.0052 25.6693L77.33 24.5768L57.071 55.6399L58.7462 56.7324ZM79.006 25.6681C79.1401 25.4619 79.238 25.214 79.2617 24.9399L77.2692 24.7673C77.2774 24.6719 77.309 24.609 77.3292 24.578L79.006 25.6681ZM79.2617 24.9399C79.2823 24.7023 79.2503 24.4481 79.149 24.205L77.3028 24.974C77.271 24.8978 77.264 24.8264 77.2692 24.7673L79.2617 24.9399ZM79.149 24.205C79.0544 23.9778 78.9077 23.7753 78.7236 23.6119L77.3956 25.1073C77.3622 25.0777 77.3279 25.0343 77.3028 24.974L79.149 24.205ZM78.7236 23.6119C78.5566 23.4636 78.3563 23.3408 78.1299 23.2566L77.4325 25.1311C77.4251 25.1283 77.412 25.1219 77.3956 25.1073L78.7236 23.6119Z" fill="#231F20" mask="url(#path-2-inside-1_8626_21323)"/>
<path d="M152.57 56.8895L84.0057 31.0387L86.032 27.8126L154.096 53.2391L152.57 56.8895Z" fill="#7099ED" stroke="#231F20"/>
<path d="M79.6913 37.9053L81.811 34.5337L102.11 42.2309L100.143 45.7351L79.6913 37.9053Z" fill="#7099ED" stroke="#231F20"/>
<path d="M127.99 84.735L65.927 59.8108L67.4238 57.4302L129.188 82.0621L127.99 84.735Z" fill="#FF8B63" stroke="#231F20"/>
<path d="M102.973 68.7134L68.8538 55.1476L70.305 52.839L104.267 66.2471L102.973 68.7134Z" fill="#7099ED" stroke="#231F20"/>
<path d="M169.749 89.181L71.7178 50.5893L77.9027 40.7505L173.781 77.6179L169.749 89.181Z" fill="#7099ED" stroke="#231F20"/>
</svg>
