<svg width="365" height="105" viewBox="0 0 365 105" fill="none" xmlns="http://www.w3.org/2000/svg">
<path d="M59.9756 35.125L34.6328 60.4698H57.8105L83.1533 35.125H59.9756Z" fill="#FF8B63" stroke="#383940" stroke-miterlimit="10"/>
<path d="M112.13 2.70117H88.9375V58.6168H105.976V85.5309H88.9375V101.875H112.13V85.5309H129.154V58.6168H112.13V2.70117Z" fill="#FF8B63" stroke="#383940" stroke-miterlimit="10"/>
<path d="M169.885 80.2624C170.152 80.2624 170.434 80.2624 170.716 80.2624H193.894C193.345 80.2624 192.826 80.2327 192.292 80.2031C191.728 80.1735 191.165 80.1439 190.616 80.0847C190.186 80.0403 189.756 79.9959 189.341 79.9367C189 79.8923 188.644 79.833 188.318 79.7738C187.799 79.685 187.295 79.5666 186.805 79.4481C186.612 79.4037 186.42 79.3593 186.227 79.3149C185.574 79.1372 184.937 78.93 184.314 78.6931C184.195 78.6487 184.077 78.5895 183.958 78.5451C183.454 78.3378 182.965 78.1157 182.49 77.8641C182.357 77.7901 182.223 77.7308 182.09 77.6568C181.541 77.3607 181.007 77.035 180.518 76.6797C180.429 76.6205 180.34 76.5465 180.251 76.4725C179.85 76.1764 179.465 75.8655 179.094 75.525C178.887 75.3326 178.679 75.1401 178.486 74.9328C178.13 74.5775 177.76 74.2074 177.433 73.8225C177.048 73.3488 176.677 72.8158 176.321 72.2829C176.232 72.1496 176.143 72.0016 176.054 71.8684C175.861 71.5427 175.684 71.2022 175.506 70.8617C175.283 70.4472 175.076 70.0178 174.868 69.5589C174.645 69.0704 174.438 68.5818 174.245 68.0489C174.215 67.9748 174.186 67.9008 174.156 67.8268C173.919 67.1458 173.696 66.4204 173.504 65.6802C173.459 65.5173 173.415 65.3545 173.37 65.1917C173.177 64.4366 173.014 63.6668 172.866 62.8526C172.822 62.6009 172.792 62.3196 172.747 62.068C172.644 61.4166 172.54 60.7652 172.466 60.0842C172.421 59.7289 172.391 59.344 172.362 58.9739C172.302 58.3225 172.243 57.6563 172.199 56.9753C172.199 56.7532 172.169 56.5164 172.169 56.2943C172.125 55.3172 172.095 54.3105 172.095 53.2594V49.514C172.095 48.5369 172.125 47.619 172.169 46.7012C172.169 46.5087 172.169 46.3163 172.199 46.1238C172.243 45.2504 172.317 44.4065 172.421 43.5775C172.495 42.9853 172.584 42.4227 172.673 41.8454C172.733 41.4753 172.777 41.0756 172.851 40.7203C172.896 40.4538 172.97 40.2169 173.014 39.9652C173.133 39.4027 173.266 38.8549 173.4 38.3368C173.459 38.1147 173.533 37.9075 173.593 37.6854C173.756 37.1672 173.919 36.6491 174.112 36.1606C174.171 35.9829 174.245 35.8201 174.304 35.6424C174.557 35.0354 174.823 34.4433 175.12 33.8807C175.164 33.7919 175.209 33.7179 175.253 33.6438C175.52 33.1701 175.802 32.726 176.099 32.2966C176.188 32.1634 176.291 32.0154 176.395 31.8821C176.751 31.3936 177.122 30.9347 177.537 30.5201C177.804 30.2389 178.115 29.9872 178.397 29.7355C178.62 29.5283 178.842 29.321 179.079 29.1433C179.361 28.9213 179.658 28.7288 179.939 28.5364C180.192 28.3587 180.429 28.1811 180.681 28.0182C180.992 27.8258 181.319 27.6629 181.645 27.5001C181.912 27.352 182.179 27.204 182.46 27.0708C182.801 26.9079 183.172 26.7747 183.543 26.6266C183.839 26.5082 184.106 26.3898 184.403 26.2861C184.789 26.1529 185.204 26.0493 185.604 25.9456C185.916 25.8568 186.197 25.768 186.523 25.694C186.968 25.5903 187.428 25.5163 187.888 25.4275C188.199 25.3683 188.481 25.309 188.807 25.2498C189.326 25.1758 189.875 25.1314 190.424 25.0722C190.705 25.0426 190.972 24.9982 191.254 24.9834C192.099 24.9241 192.974 24.8945 193.864 24.8945H170.686C169.782 24.8945 168.921 24.9241 168.076 24.9834C167.794 24.9982 167.528 25.0426 167.246 25.0722C166.697 25.1166 166.148 25.1758 165.629 25.2498C165.318 25.2942 165.021 25.3683 164.71 25.4275C164.25 25.5163 163.791 25.5903 163.346 25.694C163.034 25.768 162.738 25.8716 162.426 25.9456C162.026 26.0641 161.611 26.1677 161.225 26.2861C160.929 26.3898 160.647 26.5082 160.365 26.6266C160.009 26.7747 159.624 26.9079 159.283 27.0708C159.001 27.204 158.749 27.352 158.467 27.5001C158.141 27.6777 157.8 27.8406 157.503 28.0182C157.236 28.1811 156.999 28.3587 156.762 28.5364C156.465 28.7436 156.169 28.9361 155.902 29.1433C155.664 29.3358 155.442 29.5431 155.219 29.7355C154.997 29.928 154.76 30.1204 154.537 30.3277C154.478 30.3869 154.419 30.4461 154.345 30.5201C154.018 30.8458 153.722 31.2011 153.425 31.5712C153.351 31.6601 153.277 31.7785 153.203 31.8821C153.099 32.0154 153.01 32.1486 152.906 32.2966C152.802 32.4447 152.684 32.5927 152.58 32.7556C152.402 33.0369 152.224 33.3477 152.061 33.6438C152.016 33.7179 151.972 33.8067 151.927 33.8807C151.913 33.9103 151.898 33.9399 151.868 33.9695C151.646 34.3988 151.438 34.843 151.23 35.3019C151.186 35.4055 151.142 35.524 151.097 35.6276C151.023 35.7904 150.964 35.9681 150.904 36.1457C150.815 36.3678 150.726 36.5899 150.637 36.8267C150.548 37.0932 150.474 37.3893 150.385 37.6706C150.326 37.8926 150.252 38.0999 150.192 38.322C150.163 38.4256 150.118 38.5292 150.103 38.6329C150 39.0474 149.911 39.5063 149.807 39.9504C149.748 40.2021 149.688 40.4538 149.644 40.7055C149.644 40.7647 149.614 40.8091 149.614 40.8535C149.555 41.1644 149.525 41.5049 149.466 41.8306C149.377 42.3931 149.288 42.9557 149.214 43.5627C149.214 43.6367 149.184 43.7107 149.184 43.7847C149.11 44.5249 149.051 45.3096 149.006 46.0942C149.006 46.2866 148.991 46.4791 148.976 46.6716C148.962 47.0861 148.932 47.4858 148.917 47.9151C148.917 48.4333 148.902 48.9514 148.902 49.4696V53.215C148.902 54.2661 148.932 55.258 148.976 56.2499C148.976 56.4868 148.991 56.7088 149.006 56.9309C149.006 57.153 149.021 57.375 149.036 57.5823C149.065 58.0412 149.125 58.4853 149.154 58.9295C149.184 59.2996 149.214 59.6845 149.258 60.0398C149.332 60.7208 149.436 61.3722 149.54 62.0235C149.584 62.29 149.614 62.5565 149.659 62.8082C149.659 62.8526 149.659 62.8822 149.673 62.9266C149.822 63.6964 149.985 64.4366 150.163 65.1472C150.207 65.3101 150.252 65.4729 150.296 65.6358C150.489 66.376 150.711 67.1014 150.949 67.7824C150.978 67.8564 151.008 67.9304 151.038 68.0045C151.171 68.3746 151.305 68.7447 151.453 69.0852C151.512 69.2332 151.601 69.3664 151.661 69.4997C151.853 69.9438 152.076 70.3731 152.298 70.8025C152.402 70.9949 152.476 71.2022 152.58 71.3946C152.669 71.5427 152.758 71.6759 152.847 71.8091C152.936 71.9424 153.025 72.0904 153.114 72.2237C153.47 72.7714 153.826 73.2896 154.226 73.7633C154.404 73.9854 154.597 74.1926 154.775 74.3999C154.923 74.5627 155.101 74.7108 155.264 74.8736C155.472 75.0809 155.664 75.2733 155.872 75.4658C155.961 75.5398 156.035 75.6286 156.124 75.7175C156.406 75.9691 156.717 76.1912 157.029 76.4133C157.118 76.4873 157.207 76.5613 157.296 76.6205C157.325 76.6353 157.34 76.6649 157.37 76.6797C157.77 76.961 158.17 77.2127 158.601 77.4644C158.689 77.5088 158.793 77.5532 158.882 77.6124C159.016 77.6864 159.149 77.7604 159.283 77.8197C159.475 77.9233 159.668 78.0269 159.876 78.1306C160.158 78.2638 160.454 78.3822 160.736 78.5007C160.855 78.5451 160.973 78.6043 161.092 78.6487C161.151 78.6635 161.196 78.6931 161.255 78.7227C161.759 78.9152 162.278 79.078 162.812 79.2409C162.871 79.2557 162.931 79.2705 162.99 79.2853C163.183 79.3445 163.375 79.3741 163.568 79.4185C163.924 79.5073 164.265 79.5962 164.636 79.6702C164.784 79.6998 164.932 79.7146 165.081 79.7442C165.422 79.8034 165.763 79.8478 166.104 79.9071C166.371 79.9515 166.623 79.9959 166.89 80.0255C167.053 80.0403 167.231 80.0403 167.394 80.0551C167.943 80.1143 168.506 80.1439 169.07 80.1735C169.337 80.1735 169.574 80.2179 169.841 80.2179L169.885 80.2624Z" fill="#FF8B63" stroke="#383940" stroke-miterlimit="10"/>
<path d="M249.402 46.4635C249.372 45.9453 249.358 45.442 249.328 44.9387C249.328 44.835 249.313 44.7462 249.298 44.6574C249.209 43.5026 249.106 42.3479 248.972 41.2376C248.957 41.0748 248.928 40.9119 248.898 40.7343C248.779 39.7868 248.631 38.8541 248.468 37.9511C248.438 37.8178 248.423 37.6698 248.409 37.5365C248.364 37.2701 248.29 37.0184 248.245 36.7519C248.157 36.2782 248.053 35.8044 247.949 35.3455C247.86 34.931 247.756 34.5165 247.652 34.102C247.534 33.643 247.415 33.1989 247.296 32.7548C247.178 32.3551 247.059 31.9553 246.941 31.5556C246.807 31.1263 246.674 30.697 246.525 30.2677C246.392 29.8827 246.258 29.4978 246.11 29.1129C245.962 28.6984 245.799 28.2839 245.636 27.8842C245.561 27.6917 245.502 27.4993 245.413 27.3216C245.339 27.1292 245.25 26.9515 245.161 26.7739C244.998 26.389 244.82 26.0188 244.642 25.6487C244.464 25.2786 244.286 24.9233 244.108 24.568C243.915 24.1979 243.737 23.8426 243.53 23.4873C243.426 23.3097 243.337 23.1172 243.248 22.9396C243.189 22.8359 243.13 22.7619 243.07 22.6583C242.462 21.6368 241.825 20.6301 241.142 19.6826C241.039 19.5346 240.92 19.3865 240.816 19.2533C240.104 18.291 239.363 17.3732 238.562 16.4849C238.533 16.4553 238.518 16.4257 238.503 16.4109L238.473 16.3813C238.34 16.2332 238.191 16.1 238.058 15.9668C237.672 15.5671 237.287 15.1673 236.887 14.7824C236.679 14.59 236.471 14.3975 236.264 14.2051C235.967 13.9386 235.685 13.6573 235.374 13.3908C235.27 13.302 235.166 13.2132 235.063 13.1244C234.232 12.4286 233.372 11.7772 232.482 11.1406C232.378 11.0666 232.275 10.9777 232.156 10.8889C232.067 10.8297 231.948 10.7705 231.859 10.6965C230.94 10.0599 229.991 9.45291 228.997 8.87554C228.953 8.84593 228.923 8.83113 228.879 8.80152C228.775 8.7423 228.656 8.69789 228.553 8.63867C227.648 8.13533 226.729 7.64679 225.78 7.18786C225.646 7.12864 225.527 7.05462 225.409 6.9954C225.35 6.9658 225.275 6.93619 225.201 6.90658C224.119 6.40323 223.021 5.9443 221.88 5.50018C221.776 5.45576 221.687 5.41135 221.583 5.38174C221.464 5.33733 221.316 5.29292 221.197 5.2485C219.937 4.78957 218.647 4.36025 217.312 3.97534C217.268 3.97534 217.238 3.94573 217.194 3.93093C216.793 3.81249 216.378 3.70886 215.978 3.60523C215.577 3.5016 215.192 3.38317 214.776 3.29434C214.302 3.17591 213.798 3.07228 213.308 2.96865C212.893 2.87983 212.493 2.7762 212.078 2.70218C212.033 2.70218 211.989 2.68737 211.944 2.67257C211.707 2.62815 211.455 2.58374 211.203 2.53933C210.476 2.40609 209.749 2.27285 209.023 2.15442C208.637 2.0952 208.237 2.03598 207.851 1.97677C207.199 1.88794 206.532 1.78431 205.864 1.71029C205.686 1.69549 205.523 1.66588 205.36 1.63627C205.167 1.60666 204.945 1.60666 204.752 1.57705C203.729 1.47342 202.676 1.36979 201.623 1.29577C201.341 1.28097 201.06 1.25136 200.778 1.23656C199.473 1.14773 198.124 1.08851 196.774 1.05891C196.685 1.05891 196.596 1.05891 196.492 1.05891C195.647 1.0441 194.787 1.0293 193.912 1.0293H170.734C171.698 1.0293 172.647 1.0441 173.596 1.07371C174.961 1.10332 176.295 1.16254 177.6 1.25136C177.882 1.26616 178.164 1.29577 178.445 1.31058C179.513 1.3846 180.551 1.48823 181.574 1.59186C181.945 1.63627 182.331 1.66588 182.701 1.71029C183.369 1.78431 184.036 1.88794 184.688 1.97677C185.074 2.03598 185.474 2.0804 185.86 2.15442C186.601 2.27285 187.328 2.40609 188.04 2.53933C188.322 2.59855 188.618 2.64296 188.915 2.70218C189.33 2.791 189.73 2.87983 190.146 2.96865C190.635 3.07228 191.124 3.17591 191.614 3.29434C192.014 3.39797 192.414 3.5016 192.815 3.60523C193.26 3.72367 193.719 3.8421 194.164 3.97534C195.499 4.36025 196.789 4.78957 198.049 5.2485C198.272 5.33733 198.509 5.41135 198.732 5.50018C199.873 5.9295 200.986 6.40323 202.053 6.90658C202.246 6.9954 202.439 7.09903 202.632 7.18786C203.581 7.64679 204.5 8.12052 205.405 8.63867C205.553 8.7275 205.701 8.80152 205.849 8.87554C206.828 9.45291 207.777 10.0599 208.711 10.6965C208.919 10.8445 209.127 10.9777 209.334 11.1258C210.224 11.7624 211.084 12.4138 211.914 13.1096C212.33 13.45 212.715 13.8202 213.116 14.1903C213.323 14.3827 213.546 14.5604 213.738 14.7676C214.139 15.1525 214.524 15.5523 214.91 15.952C215.043 16.1 215.192 16.2332 215.325 16.3665C215.355 16.3961 215.384 16.4405 215.414 16.4701C216.215 17.3436 216.956 18.2762 217.668 19.2385C217.772 19.3865 217.891 19.5198 217.994 19.6678C218.676 20.6153 219.314 21.6072 219.922 22.6435C220.085 22.91 220.234 23.1912 220.397 23.4725C220.589 23.8278 220.782 24.1831 220.975 24.5532C221.153 24.9085 221.331 25.2638 221.509 25.6339C221.687 26.004 221.865 26.3889 222.028 26.7591C222.191 27.1292 222.339 27.4993 222.502 27.8694C222.665 28.2691 222.829 28.6836 222.977 29.0981C223.125 29.483 223.259 29.8679 223.392 30.2529C223.54 30.6822 223.674 31.1115 223.807 31.5408C223.926 31.9405 224.045 32.3403 224.163 32.74C224.282 33.1841 224.4 33.6282 224.519 34.0872C224.623 34.5017 224.727 34.9162 224.816 35.3307C224.919 35.7896 225.023 36.2634 225.112 36.7371C225.186 37.1368 225.275 37.5365 225.335 37.9363C225.498 38.8541 225.631 39.772 225.765 40.7194C225.78 40.8823 225.809 41.0451 225.839 41.2228C225.972 42.3331 226.076 43.473 226.165 44.6426C226.21 45.2347 226.239 45.8417 226.269 46.4635C226.269 46.7744 226.299 47.0705 226.313 47.3962C226.343 48.3584 226.373 49.3355 226.373 50.3126V52.5628C226.373 53.4659 226.358 54.3541 226.328 55.2424C226.313 55.7902 226.284 56.3083 226.254 56.8413C226.224 57.3594 226.195 57.8628 226.165 58.3661C226.121 58.8842 226.076 59.4024 226.032 59.9205C225.987 60.4387 225.943 60.9568 225.883 61.4602C225.839 61.8007 225.794 62.1412 225.75 62.4817C225.676 63.059 225.587 63.6364 225.498 64.199C225.439 64.5395 225.394 64.8652 225.335 65.2057C225.261 65.5906 225.186 65.9607 225.112 66.3308C224.905 67.3819 224.682 68.4182 224.415 69.4249C224.371 69.6173 224.326 69.8098 224.282 69.9874C224 71.0533 223.674 72.0896 223.333 73.1111C223.244 73.3776 223.14 73.6441 223.036 73.9105C222.784 74.6211 222.517 75.3317 222.221 76.0127C222.087 76.3088 221.969 76.6197 221.835 76.9158C221.524 77.6116 221.197 78.2926 220.856 78.944C220.753 79.166 220.649 79.3881 220.53 79.5954C220.056 80.4836 219.566 81.3275 219.032 82.1565C218.929 82.3194 218.81 82.4822 218.706 82.645C218.202 83.4149 217.668 84.1551 217.119 84.8805C216.942 85.1173 216.764 85.369 216.571 85.5911C216.363 85.8576 216.141 86.1092 215.918 86.3757C215.637 86.7162 215.34 87.0419 215.043 87.3676C214.806 87.6193 214.569 87.8709 214.332 88.1078C214.08 88.3595 213.827 88.6111 213.575 88.8628C212.804 89.6178 212.003 90.3432 211.173 91.039C201.074 99.3294 187.595 103.504 170.749 103.534H193.927C210.773 103.489 224.252 99.3294 234.351 91.039C235.196 90.3432 235.982 89.6178 236.753 88.8628C236.857 88.774 236.961 88.6852 237.05 88.5963C237.213 88.4335 237.346 88.2706 237.509 88.1226C237.747 87.8709 237.984 87.6341 238.221 87.3824C238.518 87.0567 238.814 86.731 239.096 86.3905C239.318 86.1388 239.541 85.8724 239.748 85.6059C239.837 85.4875 239.941 85.3838 240.03 85.2654C240.119 85.147 240.208 85.0137 240.297 84.8805C240.846 84.1551 241.38 83.4149 241.884 82.645C241.958 82.5266 242.047 82.423 242.121 82.3045C242.151 82.2601 242.18 82.2009 242.21 82.1565C242.729 81.3275 243.233 80.4688 243.708 79.5954C243.737 79.551 243.767 79.4917 243.797 79.4473C243.886 79.2845 243.96 79.1068 244.034 78.944C244.375 78.2778 244.701 77.5968 245.013 76.9158C245.072 76.7678 245.146 76.6493 245.206 76.5013C245.28 76.3384 245.324 76.1756 245.398 76.0127C245.68 75.3317 245.947 74.6211 246.214 73.9105C246.288 73.7181 246.362 73.5404 246.436 73.348C246.466 73.274 246.481 73.1851 246.511 73.1111C246.852 72.0896 247.178 71.0533 247.46 69.9874C247.46 69.943 247.489 69.8986 247.504 69.8394C247.534 69.7061 247.563 69.5581 247.593 69.4249C247.845 68.4182 248.082 67.3819 248.29 66.3308C248.32 66.1531 248.379 65.9903 248.409 65.8126C248.453 65.6054 248.468 65.3981 248.512 65.1908C248.572 64.8652 248.631 64.5247 248.676 64.1842C248.765 63.6216 248.853 63.0442 248.928 62.4669C248.972 62.1264 249.017 61.7859 249.061 61.4454C249.076 61.2825 249.106 61.1049 249.12 60.942C249.15 60.6015 249.18 60.2462 249.209 59.9057C249.254 59.3876 249.298 58.8842 249.343 58.3513C249.373 57.8479 249.402 57.3298 249.432 56.8265C249.461 56.2935 249.491 55.7606 249.506 55.2276C249.506 55.0499 249.521 54.8871 249.536 54.7243C249.55 54.0137 249.565 53.2882 249.565 52.548V50.2978C249.565 49.3059 249.55 48.3288 249.506 47.3814C249.506 47.0705 249.476 46.7596 249.461 46.4487L249.402 46.4635Z" fill="#FF8B63" stroke="#383940" stroke-miterlimit="10"/>
<path d="M294.823 35.125L269.48 60.4698H292.658L318.001 35.125H294.823Z" fill="#FF8B63" stroke="#383940" stroke-miterlimit="10"/>
<path d="M346.959 58.6168V2.70117H323.781V58.6168H340.82V85.5309H323.781V101.875H346.959V85.5309H363.997V58.6168H346.959Z" fill="#FF8B63" stroke="#383940" stroke-miterlimit="10"/>
<path d="M88.9359 58.6168H105.974V85.5161H88.9359V101.86H58.2844V85.5161H1V60.1712L61.9768 2.70117H88.9359V58.6168ZM60.6125 60.4525V35.1224H59.9601L34.6173 60.4673H60.6125" fill="#F4F3F1"/>
<path d="M60.6125 60.4525V35.1224H59.9601L34.6173 60.4673H60.6125M88.9359 58.6168H105.974V85.5161H88.9359V101.86H58.2844V85.5161H1V60.1712L61.9768 2.70117H88.9359V58.6168Z" stroke="#383940" stroke-miterlimit="10"/>
<path d="M211.895 13.0803C221.504 21.1338 226.324 33.5397 226.324 50.3129V52.5631C226.324 69.9581 221.267 82.7934 211.154 91.0689C201.055 99.3593 187.576 103.519 170.73 103.564C152.713 103.519 138.951 99.2113 129.446 90.6248C119.955 82.0384 115.195 69.3067 115.195 52.4151V50.3129C115.195 33.9246 119.985 21.5927 129.579 13.3615C139.159 5.11558 152.876 1 170.715 1C188.554 1 202.286 5.02675 211.895 13.0803ZM192.365 53.3774V49.5727C192.365 40.6753 190.571 34.3243 186.953 30.5789C183.349 26.8038 177.937 24.9236 170.73 24.9236C163.523 24.9236 158.021 26.8038 154.388 30.5492C150.77 34.2947 148.946 40.6161 148.946 49.5283V53.2737C148.946 62.6596 150.726 69.5288 154.255 73.8516C157.799 78.1597 163.301 80.3063 170.715 80.3063C178.13 80.3063 183.557 78.1449 187.071 73.8516C190.601 69.5288 192.351 62.7188 192.351 53.407" fill="#F4F3F1"/>
<path d="M192.365 53.3774V49.5727C192.365 40.6753 190.571 34.3243 186.953 30.5789C183.349 26.8038 177.937 24.9236 170.73 24.9236C163.523 24.9236 158.021 26.8038 154.388 30.5492C150.77 34.2947 148.946 40.6161 148.946 49.5283V53.2737C148.946 62.6596 150.726 69.5288 154.255 73.8516C157.799 78.1597 163.301 80.3063 170.715 80.3063C178.13 80.3063 183.557 78.1449 187.071 73.8516C190.601 69.5288 192.351 62.7188 192.351 53.407M211.895 13.0803C221.504 21.1338 226.324 33.5397 226.324 50.3129V52.5631C226.324 69.9581 221.267 82.7934 211.154 91.0689C201.055 99.3593 187.576 103.519 170.73 103.564C152.713 103.519 138.951 99.2113 129.446 90.6248C119.955 82.0384 115.195 69.3067 115.195 52.4151V50.3129C115.195 33.9246 119.985 21.5927 129.579 13.3615C139.159 5.11558 152.876 1 170.715 1C188.554 1 202.286 5.02675 211.895 13.0803Z" stroke="#383940" stroke-miterlimit="10"/>
<path d="M323.784 58.6167H340.822V85.516H323.784V101.86H293.132V85.516H235.848V60.1712L296.824 2.70117H323.784V58.6167ZM295.46 60.4525V35.1224H294.808L269.465 60.4673H295.46" fill="#F4F3F1"/>
<path d="M295.46 60.4525V35.1224H294.808L269.465 60.4673H295.46M323.784 58.6168H340.822V85.516H323.784V101.86H293.132V85.516H235.848V60.1712L296.824 2.70117H323.784V58.6168Z" stroke="#383940" stroke-miterlimit="10"/>
</svg>
