<svg width="1200" height="460" viewBox="0 0 1200 460" fill="none" xmlns="http://www.w3.org/2000/svg">
<g clip-path="url(#clip0_6529_18620)">
<rect width="1200" height="460" rx="32" fill="white"/>
<path d="M779.268 40.2858C800.94 99.2884 783.195 166.504 736.842 227.513C690.493 288.517 615.58 343.252 523.079 377.228C430.577 411.204 338.046 417.971 263.23 401.471C188.407 384.969 131.374 345.219 109.702 286.217C88.0308 227.214 105.776 159.998 152.129 98.9893C198.477 37.9855 273.391 -16.7495 365.892 -50.7252C458.393 -84.7009 550.925 -91.4682 625.741 -74.9682C700.564 -58.4668 757.597 -18.7169 779.268 40.2858Z" stroke="black"/>
<path d="M761 162C762 167.5 769.889 175.751 777.751 179.133C785.613 182.515 800 181.5 805 179.133" stroke="black" stroke-linecap="round"/>
<g clip-path="url(#clip1_6529_18620)">
<path d="M1043.26 371.429C1044.32 355.497 1042.23 339.96 1037 325.247C1031.73 310.368 1024.6 300.354 1020.33 294.37C1008.68 277.988 993.769 263.933 976.027 252.634L971.253 249.252C970.426 247.913 968.176 244.893 964.085 243.532C962.784 243.093 961.406 242.884 959.984 242.884C955.121 239.557 950.247 236.23 945.374 232.903C945.484 232.145 945.594 231.41 945.693 230.674C945.715 230.476 945.638 230.279 945.473 230.158C939.486 225.843 933.498 221.527 927.511 217.223C926.474 215.444 925.603 213.567 924.942 211.634C923.365 207.121 922.836 202.356 923.354 197.382C928.68 187.445 929.573 177.661 929.584 172.347C931.833 172.534 938.879 172.654 943.312 167.505C946.223 164.123 947.436 158.973 946.476 154.076C945.771 150.496 944.028 147.751 941.691 146.544C940.555 145.951 939.221 145.731 937.754 145.852C938.074 144.864 938.328 143.985 938.559 143.129C938.945 141.701 939.265 140.285 939.519 138.912L949.575 139.406H949.608C949.883 139.406 950.115 139.198 950.159 138.923L951.295 130.04C951.328 129.777 951.163 129.524 950.909 129.447C948.593 128.756 947.072 126.582 947.193 124.177L948.814 92.6197C949.652 76.4239 944.084 60.8979 933.156 48.8855C922.207 36.8731 907.222 29.8348 890.947 29.0662C875.521 28.3415 860.548 33.4144 848.771 43.3625C836.995 53.2886 829.519 67.1785 827.7 82.452L824.425 110.155C823.609 117.084 817.71 122.409 810.708 122.53L805.416 122.64C805.129 122.64 804.886 122.881 804.875 123.167L804.522 131.665C804.511 131.962 804.743 132.225 805.041 132.236L833.103 133.631C832.629 140.406 829.387 199.205 856.92 217.256C857.372 221.407 857.725 225.612 857.978 229.763C853.05 232.892 848.496 236.581 844.449 240.732C841.571 243.675 838.892 246.925 836.488 250.394V250.416C836.444 250.493 836.411 250.57 836.4 250.669C836.367 251.108 836.345 251.536 836.312 251.965C832.607 254.117 828.99 256.521 825.561 259.135C819.772 263.549 814.446 268.567 809.727 274.057C807.433 274.661 803.376 276.242 800.84 280.272C799.186 282.896 798.513 286.168 798.888 289.517C798.822 289.572 798.756 289.638 798.711 289.726C795.734 296.478 793.033 303.451 790.673 310.434C783.517 331.692 779.305 354.026 778.147 376.832C775.655 377.6 774.112 379.214 773.682 379.708C773.637 379.763 773.604 379.829 773.582 379.895C771.454 379.884 769.073 380.444 766.426 381.597C764.331 380.675 762.865 380.554 761.949 380.576C758.686 380.62 756.161 382.3 754.584 383.749C752.026 383.716 749.225 383.332 746.325 382.574L725.441 288.946C724.559 284.982 720.964 282.336 716.896 282.61L632.61 288.595C630.36 288.759 628.332 289.802 626.898 291.548C625.465 293.283 624.825 295.457 625.101 297.686L633.635 367.367C632.301 366.73 630.989 366.51 629.699 366.741C626.6 367.301 624.086 370.43 623.513 374.361C622.388 375.316 620.856 376.897 619.665 379.203C618.639 381.257 618.033 383.409 617.978 385.264C617.746 391.962 624.219 396.64 625.343 397.409C624.704 400.351 624.935 403.129 626.027 405.457C628.111 409.915 632.764 411.804 635.278 412.517C635.102 413.33 635.047 414.186 635.157 415.032C635.653 418.853 639.093 420.961 640.284 421.576L641.751 433.533C642.026 435.773 643.184 437.739 645.003 439.078C646.426 440.122 648.091 440.671 649.822 440.671C650.318 440.671 650.814 440.627 651.311 440.539L711.217 429.635C712.044 432.688 714.128 434.983 716.554 435.411C716.675 435.433 716.807 435.455 716.918 435.455C717.921 436.037 718.947 436.597 719.994 437.124C720.611 438.98 721.516 440.638 722.718 442.032C726.632 446.633 732.696 447.621 737.14 447.621C739.996 447.621 742.168 447.226 742.708 447.116C744.892 447.676 746.711 448.115 748.376 448.489C761.994 451.618 776.03 453.561 790.111 454.286C790.166 454.736 790.21 455.186 790.287 455.659C790.365 456.12 790.442 456.57 790.541 457.02C788.6 460.182 787.277 463.509 786.593 466.913C785.27 473.545 786.428 480.221 789.13 486.656C776.868 499.14 767.452 518.07 768.091 538.471C768.951 566.273 788.093 584.687 794.841 591.176C817.787 613.247 847.404 619.022 872.379 619.022C895.038 619.022 913.882 614.268 920.465 612.61C951.052 604.891 960.138 592.626 962.343 589.442C973.579 573.18 971.352 553.415 969.4 544.049C974.373 541.425 979.181 538.427 983.768 535.068C985.642 534.332 987.252 533.223 988.542 531.762C992.346 527.447 993.041 520.574 990.439 513.645C992.456 513.953 994.43 514.117 996.338 514.117C1001.63 514.117 1006.47 512.931 1010.76 510.56C1018.41 506.354 1022.3 499.492 1025.14 494.485C1026.26 492.519 1027.28 490.433 1028.14 488.314C1030.32 487.194 1032.21 485.755 1033.73 484.042C1039.3 477.773 1040.48 467.693 1037.07 455.637C1039.31 439.243 1040.81 422.575 1041.52 406.105C1041.72 401.504 1041.85 397.343 1041.93 393.379C1042 393.379 1042.05 393.368 1042.12 393.335C1043.72 392.445 1047.54 389.865 1048.67 385.133C1050.28 378.468 1045.15 373.186 1043.22 371.473L1043.26 371.429Z" fill="#262626"/>
</g>
<rect x="203.5" y="295.5" width="197" height="43" rx="21.5" fill="#262626"/>
<rect x="203.5" y="295.5" width="197" height="43" rx="21.5" stroke="white" stroke-width="3"/>
<path d="M225.704 322V312.047H229.361C230.478 312.047 231.355 312.25 231.993 312.655C232.631 313.061 232.95 313.738 232.95 314.686C232.95 315.232 232.798 315.677 232.492 316.019C232.191 316.36 231.815 316.604 231.364 316.75V316.777C231.916 316.923 232.367 317.192 232.718 317.584C233.069 317.976 233.244 318.491 233.244 319.129C233.244 320.077 232.909 320.792 232.239 321.275C231.569 321.758 230.685 322 229.587 322H225.704ZM227.044 320.899H229.587C230.38 320.899 230.961 320.749 231.33 320.448C231.704 320.143 231.891 319.701 231.891 319.122C231.891 318.58 231.704 318.151 231.33 317.837C230.961 317.522 230.38 317.365 229.587 317.365H227.044V320.899ZM227.044 316.271H229.361C230.154 316.271 230.724 316.132 231.07 315.854C231.421 315.576 231.597 315.189 231.597 314.692C231.597 314.164 231.421 313.774 231.07 313.523C230.724 313.273 230.154 313.147 229.361 313.147H227.044V316.271ZM234.516 318.514V318.295C234.516 317.21 234.86 316.324 235.548 315.636C236.236 314.948 237.147 314.604 238.282 314.604C239.412 314.604 240.283 314.925 240.894 315.567C241.504 316.21 241.81 317.078 241.81 318.172V318.705H235.288V317.666H240.483V317.646C240.483 317.049 240.312 316.572 239.971 316.217C239.633 315.857 239.073 315.677 238.289 315.677C237.469 315.677 236.851 315.921 236.437 316.408C236.022 316.896 235.814 317.525 235.814 318.295V318.514C235.814 319.284 236.033 319.913 236.471 320.4C236.908 320.888 237.587 321.132 238.508 321.132C239.059 321.132 239.533 321.032 239.93 320.831C240.326 320.626 240.645 320.384 240.887 320.106L241.734 320.804C241.479 321.146 241.074 321.465 240.518 321.761C239.966 322.057 239.296 322.205 238.508 322.205C237.223 322.205 236.236 321.861 235.548 321.173C234.86 320.485 234.516 319.598 234.516 318.514ZM243.245 324.844V314.809H244.448L244.51 315.827H244.53C244.763 315.508 245.109 315.237 245.569 315.014C246.03 314.786 246.567 314.672 247.183 314.672C248.235 314.672 249.076 315.014 249.705 315.697C250.339 316.381 250.655 317.247 250.655 318.295V318.514C250.655 319.562 250.339 320.428 249.705 321.111C249.076 321.795 248.235 322.137 247.183 322.137C246.567 322.137 246.043 322.039 245.61 321.843C245.177 321.647 244.829 321.389 244.564 321.07V324.844H243.245ZM244.564 319.758C244.738 320.1 245.022 320.403 245.419 320.667C245.815 320.931 246.294 321.063 246.854 321.063C247.702 321.063 248.322 320.829 248.714 320.359C249.106 319.885 249.302 319.27 249.302 318.514V318.295C249.302 317.538 249.106 316.925 248.714 316.456C248.322 315.982 247.702 315.745 246.854 315.745C246.294 315.745 245.815 315.877 245.419 316.142C245.027 316.406 244.742 316.709 244.564 317.051V319.758ZM252.255 314.809H253.574V317.816H257.505V314.809H258.824V322H257.505V318.835H253.574V322H252.255V314.809ZM260.239 324.844V323.743C260.381 323.78 260.533 323.809 260.697 323.832C260.866 323.855 261.028 323.866 261.183 323.866C261.561 323.866 261.878 323.773 262.133 323.586C262.388 323.399 262.689 322.852 263.035 321.945V321.938L259.911 314.809H261.251L263.268 319.573C263.345 319.756 263.416 319.936 263.479 320.113C263.543 320.291 263.598 320.464 263.644 320.633H263.685C263.735 320.464 263.789 320.291 263.849 320.113C263.912 319.936 263.981 319.756 264.054 319.573L265.988 314.809H267.287L263.828 322.957C263.559 323.586 263.217 324.08 262.803 324.44C262.388 324.8 261.875 324.98 261.265 324.98C261.055 324.98 260.868 324.969 260.704 324.946C260.545 324.924 260.39 324.889 260.239 324.844ZM267.458 315.834V314.809H274.362V315.834H271.566V322H270.247V315.834H267.458ZM276.898 314.809V317.208H279.086C280.007 317.208 280.715 317.413 281.212 317.823C281.709 318.233 281.957 318.821 281.957 319.587C281.957 320.316 281.709 320.902 281.212 321.344C280.715 321.781 280.007 322 279.086 322H275.579V314.809H276.898ZM279.086 318.227H276.898V320.975H279.086C279.656 320.975 280.054 320.849 280.282 320.599C280.515 320.343 280.631 320.006 280.631 319.587C280.631 319.172 280.515 318.842 280.282 318.596C280.054 318.35 279.656 318.227 279.086 318.227ZM282.955 318.514V318.295C282.955 317.21 283.297 316.324 283.98 315.636C284.664 314.948 285.603 314.604 286.797 314.604C287.909 314.604 288.752 314.863 289.326 315.383C289.9 315.902 290.188 316.483 290.188 317.126V317.16H288.841V317.126C288.841 316.707 288.684 316.36 288.369 316.087C288.055 315.809 287.531 315.67 286.797 315.67C285.945 315.67 285.316 315.916 284.91 316.408C284.505 316.896 284.302 317.525 284.302 318.295V318.514C284.302 319.284 284.505 319.915 284.91 320.407C285.316 320.895 285.945 321.139 286.797 321.139C287.531 321.139 288.055 321.002 288.369 320.729C288.684 320.455 288.841 320.109 288.841 319.689V319.648H290.188V319.683C290.188 320.325 289.9 320.906 289.326 321.426C288.752 321.945 287.909 322.205 286.797 322.205C285.603 322.205 284.664 321.861 283.98 321.173C283.297 320.485 282.955 319.598 282.955 318.514ZM292.505 322H291.062L293.455 318.896L294.768 319.013L292.505 322ZM296.415 322V319.389H294.378L294.173 319.307C293.234 319.307 292.519 319.108 292.026 318.712C291.539 318.311 291.295 317.771 291.295 317.092C291.295 316.399 291.539 315.845 292.026 315.431C292.519 315.016 293.234 314.809 294.173 314.809H297.741V322H296.415ZM294.173 318.37H296.415V315.834H294.173C293.599 315.834 293.195 315.955 292.963 316.196C292.73 316.433 292.614 316.732 292.614 317.092C292.614 317.47 292.728 317.778 292.956 318.015C293.188 318.252 293.594 318.37 294.173 318.37ZM303.183 314.809H304.502V317.816H308.433V314.809H309.752V322H308.433V318.835H304.502V322H303.183V314.809ZM311.386 319.881C311.386 319.138 311.698 318.566 312.322 318.165C312.947 317.759 313.822 317.557 314.947 317.557H316.978V317.078C316.978 316.581 316.829 316.217 316.533 315.984C316.242 315.752 315.765 315.636 315.104 315.636C314.476 315.636 313.999 315.736 313.676 315.937C313.352 316.132 313.19 316.399 313.19 316.736V316.777H311.871V316.743C311.871 316.078 312.156 315.556 312.726 315.178C313.295 314.795 314.102 314.604 315.146 314.604C316.157 314.604 316.937 314.818 317.483 315.246C318.03 315.67 318.304 316.281 318.304 317.078V320.359C318.304 320.656 318.329 320.936 318.379 321.2C318.429 321.46 318.502 321.69 318.598 321.891V322H317.319C317.251 321.886 317.185 321.738 317.121 321.556C317.062 321.373 317.025 321.191 317.012 321.009C316.816 321.314 316.483 321.578 316.014 321.802C315.549 322.025 314.952 322.137 314.223 322.137C313.334 322.137 312.639 321.943 312.138 321.556C311.636 321.164 311.386 320.605 311.386 319.881ZM312.705 319.812C312.705 320.245 312.851 320.569 313.143 320.783C313.434 320.997 313.895 321.104 314.523 321.104C315.161 321.104 315.729 320.934 316.226 320.592C316.727 320.245 316.978 319.879 316.978 319.491V318.486H315.104C314.33 318.486 313.735 318.6 313.32 318.828C312.91 319.051 312.705 319.38 312.705 319.812ZM323.759 314.809H329.139V315.834H325.078V322H323.759V314.809ZM332.229 315.834L332.105 318.65C332.051 319.895 331.891 320.79 331.627 321.337C331.367 321.879 330.882 322.15 330.171 322.15C330.016 322.15 329.872 322.139 329.74 322.116C329.613 322.098 329.506 322.068 329.419 322.027V320.927C329.496 320.959 329.576 320.981 329.658 320.995C329.745 321.009 329.838 321.016 329.938 321.016C330.299 321.016 330.538 320.833 330.656 320.469C330.775 320.104 330.854 319.439 330.896 318.473L331.053 314.809H336.713V322H335.394V315.834H332.229ZM338.347 319.881C338.347 319.138 338.659 318.566 339.283 318.165C339.908 317.759 340.783 317.557 341.908 317.557H343.938V317.078C343.938 316.581 343.79 316.217 343.494 315.984C343.202 315.752 342.726 315.636 342.065 315.636C341.437 315.636 340.96 315.736 340.637 315.937C340.313 316.132 340.151 316.399 340.151 316.736V316.777H338.832V316.743C338.832 316.078 339.117 315.556 339.687 315.178C340.256 314.795 341.063 314.604 342.106 314.604C343.118 314.604 343.897 314.818 344.444 315.246C344.991 315.67 345.265 316.281 345.265 317.078V320.359C345.265 320.656 345.29 320.936 345.34 321.2C345.39 321.46 345.463 321.69 345.559 321.891V322H344.28C344.212 321.886 344.146 321.738 344.082 321.556C344.023 321.373 343.986 321.191 343.973 321.009C343.777 321.314 343.444 321.578 342.975 321.802C342.51 322.025 341.913 322.137 341.184 322.137C340.295 322.137 339.6 321.943 339.099 321.556C338.597 321.164 338.347 320.605 338.347 319.881ZM339.666 319.812C339.666 320.245 339.812 320.569 340.104 320.783C340.395 320.997 340.855 321.104 341.484 321.104C342.122 321.104 342.69 320.934 343.187 320.592C343.688 320.245 343.938 319.879 343.938 319.491V318.486H342.065C341.291 318.486 340.696 318.6 340.281 318.828C339.871 319.051 339.666 319.38 339.666 319.812ZM347.302 322V314.809H351.205C352.035 314.809 352.668 314.968 353.105 315.287C353.548 315.606 353.769 316.087 353.769 316.729C353.769 317.121 353.659 317.45 353.44 317.714C353.226 317.978 352.925 318.167 352.538 318.281V318.302C352.966 318.384 353.32 318.566 353.598 318.849C353.88 319.127 354.021 319.487 354.021 319.929C354.021 320.585 353.791 321.095 353.331 321.46C352.871 321.82 352.23 322 351.41 322H347.302ZM348.621 317.837H351.205C351.643 317.837 351.957 317.743 352.148 317.557C352.34 317.37 352.436 317.117 352.436 316.798C352.436 316.488 352.34 316.251 352.148 316.087C351.957 315.918 351.643 315.834 351.205 315.834H348.621V317.837ZM348.621 320.975H351.41C351.852 320.975 352.176 320.877 352.381 320.681C352.59 320.485 352.695 320.227 352.695 319.908C352.695 319.589 352.593 319.334 352.388 319.143C352.183 318.947 351.857 318.849 351.41 318.849H348.621V320.975ZM355.792 314.809H357.111V317.816H361.042V314.809H362.361V322H361.042V318.835H357.111V322H355.792V314.809ZM363.776 324.844V323.743C363.918 323.78 364.07 323.809 364.234 323.832C364.403 323.855 364.565 323.866 364.72 323.866C365.098 323.866 365.415 323.773 365.67 323.586C365.925 323.399 366.226 322.852 366.572 321.945V321.938L363.448 314.809H364.788L366.805 319.573C366.882 319.756 366.953 319.936 367.017 320.113C367.08 320.291 367.135 320.464 367.181 320.633H367.222C367.272 320.464 367.326 320.291 367.386 320.113C367.45 319.936 367.518 319.756 367.591 319.573L369.525 314.809H370.824L367.365 322.957C367.096 323.586 366.755 324.08 366.34 324.44C365.925 324.8 365.412 324.98 364.802 324.98C364.592 324.98 364.405 324.969 364.241 324.946C364.082 324.924 363.927 324.889 363.776 324.844ZM371.802 314.809H373.121V317.816H375.254V318.835H373.121V322H371.802V314.809ZM374.584 318.514V318.295C374.584 317.21 374.933 316.324 375.63 315.636C376.332 314.948 377.266 314.604 378.433 314.604C379.604 314.604 380.538 314.948 381.235 315.636C381.937 316.324 382.288 317.21 382.288 318.295V318.514C382.288 319.598 381.937 320.485 381.235 321.173C380.538 321.861 379.604 322.205 378.433 322.205C377.266 322.205 376.332 321.861 375.63 321.173C374.933 320.485 374.584 319.598 374.584 318.514ZM375.924 318.295V318.514C375.924 319.279 376.136 319.908 376.56 320.4C376.983 320.888 377.608 321.132 378.433 321.132C379.262 321.132 379.889 320.888 380.312 320.4C380.736 319.908 380.948 319.279 380.948 318.514V318.295C380.948 317.529 380.736 316.903 380.312 316.415C379.889 315.923 379.262 315.677 378.433 315.677C377.608 315.677 376.983 315.923 376.56 316.415C376.136 316.903 375.924 317.529 375.924 318.295Z" fill="white"/>
<path d="M217.67 126.375V124.939C217.67 117.635 219.779 112.254 223.998 108.797C228.217 105.34 233.715 103.611 240.492 103.611C247.074 103.611 252.113 104.891 255.609 107.449C259.105 109.988 261.068 113.816 261.498 118.934L261.586 120.721H251.479L251.42 118.611C251.107 116.131 250.111 114.207 248.432 112.84C246.752 111.473 244.184 110.789 240.727 110.789C236.918 110.789 233.959 111.854 231.85 113.982C229.74 116.092 228.686 119.266 228.686 123.504V127.781C228.686 132.078 229.77 135.301 231.938 137.449C234.105 139.598 237.055 140.672 240.785 140.672C244.242 140.672 246.811 140.008 248.49 138.68C250.17 137.352 251.156 135.301 251.449 132.527L251.508 130.74H261.586L261.527 132.82C261.176 137.645 259.281 141.336 255.844 143.895C252.406 146.453 247.299 147.732 240.521 147.732C233.529 147.732 227.973 145.975 223.852 142.459C219.73 138.924 217.67 133.562 217.67 126.375ZM265.98 120.018H296.625V147H286.635V127.371H275.971V147H265.98V120.018ZM301.225 139.002C301.225 136.307 302.279 134.207 304.389 132.703C306.498 131.199 309.555 130.467 313.559 130.506L323.607 130.564V128.484C323.607 127.312 323.207 126.414 322.406 125.789C321.605 125.145 320.189 124.822 318.158 124.822C316.303 124.822 314.926 125.115 314.027 125.701C313.148 126.287 312.709 127.117 312.709 128.191V128.865L303.598 128.836V128.016C303.598 125.418 304.945 123.289 307.641 121.629C310.336 119.949 314.105 119.109 318.949 119.109C324.027 119.109 327.738 119.91 330.082 121.512C332.445 123.094 333.627 125.672 333.627 129.246V140.789C333.627 141.922 333.725 142.996 333.92 144.012C334.115 145.008 334.408 145.867 334.799 146.59V147H324.838C324.525 146.512 324.281 145.945 324.105 145.301C323.949 144.656 323.832 143.875 323.754 142.957C322.953 144.109 321.566 145.135 319.594 146.033C317.621 146.932 315.082 147.381 311.977 147.381C308.52 147.381 305.863 146.648 304.008 145.184C302.152 143.719 301.225 141.658 301.225 139.002ZM311.098 138.27C311.098 139.461 311.498 140.379 312.299 141.023C313.1 141.668 314.35 141.99 316.049 141.99C317.943 141.99 319.672 141.502 321.234 140.525C322.816 139.549 323.607 138.299 323.607 136.775V135.34L316.84 135.311C314.809 135.291 313.344 135.486 312.445 135.896C311.547 136.307 311.098 137.098 311.098 138.27ZM338.285 133.699V133.025C338.285 128.689 339.828 125.271 342.914 122.771C346.02 120.271 350.238 119.021 355.57 119.021C360.648 119.021 364.594 119.988 367.406 121.922C370.219 123.855 371.732 126.629 371.947 130.242L372.006 130.945H362.484L362.455 130.564C362.338 129.139 361.732 128.045 360.639 127.283C359.545 126.502 357.973 126.111 355.922 126.111C353.461 126.111 351.596 126.707 350.326 127.898C349.076 129.07 348.451 130.75 348.451 132.938V133.963C348.451 136.131 349.057 137.83 350.268 139.061C351.479 140.291 353.344 140.906 355.863 140.906C358.031 140.906 359.672 140.525 360.785 139.764C361.918 138.982 362.514 137.898 362.572 136.512L362.602 136.072H372.006L371.977 136.775C371.84 140.311 370.365 143.035 367.553 144.949C364.74 146.844 360.775 147.791 355.658 147.791C350.268 147.791 346.02 146.551 342.914 144.07C339.828 141.59 338.285 138.133 338.285 133.699ZM376.664 147V120.018H386.684V133.172C386.684 133.816 386.674 134.305 386.654 134.637C386.654 134.949 386.635 135.457 386.596 136.16H386.771C387.162 135.516 387.436 135.086 387.592 134.871C387.748 134.656 388.139 134.08 388.764 133.143L397.787 120.018H408.275V147H398.256V133.67C398.256 133.123 398.256 132.674 398.256 132.322C398.275 131.971 398.285 131.453 398.285 130.77H398.139C397.748 131.414 397.475 131.834 397.318 132.029C397.182 132.205 396.791 132.762 396.146 133.699L387.182 147H376.664ZM423.451 133.465V133.816C423.451 136.258 424.096 138.045 425.385 139.178C426.674 140.311 428.549 140.877 431.01 140.877C433.49 140.877 435.375 140.311 436.664 139.178C437.953 138.025 438.598 136.238 438.598 133.816V133.436C438.598 131.17 437.973 129.49 436.723 128.396C435.492 127.283 433.666 126.727 431.244 126.727C428.705 126.727 426.771 127.283 425.443 128.396C424.115 129.49 423.451 131.18 423.451 133.465ZM433.236 119.812C437.924 119.812 441.684 121.014 444.516 123.416C447.367 125.818 448.793 129.109 448.793 133.289V134.021C448.793 138.24 447.143 141.6 443.842 144.1C440.541 146.6 436.264 147.85 431.01 147.85C425.951 147.85 421.742 146.639 418.383 144.217C415.023 141.775 413.344 137.742 413.344 132.117V128.631C413.344 121.678 414.779 116.6 417.65 113.396C420.521 110.174 424.818 108.191 430.541 107.449C434.916 106.824 437.455 106.297 438.158 105.867C438.881 105.438 439.252 104.881 439.271 104.197H447.445C447.504 107.225 446.684 109.549 444.984 111.17C443.305 112.791 439.926 113.885 434.848 114.451C429.809 114.998 426.137 116.014 423.832 117.498C421.527 118.982 420.307 121.531 420.17 125.145H420.463C421.635 123.465 423.295 122.156 425.443 121.219C427.611 120.281 430.209 119.812 433.236 119.812ZM451.898 133.699V133.055C451.898 128.875 453.51 125.496 456.732 122.918C459.955 120.32 464.242 119.021 469.594 119.021C474.984 119.021 479.271 120.32 482.455 122.918C485.658 125.496 487.26 128.875 487.26 133.055V133.699C487.26 137.996 485.658 141.424 482.455 143.982C479.252 146.521 474.965 147.791 469.594 147.791C464.223 147.791 459.926 146.521 456.703 143.982C453.5 141.424 451.898 137.996 451.898 133.699ZM462.006 132.938V133.963C462.006 136.053 462.65 137.732 463.939 139.002C465.229 140.252 467.104 140.877 469.564 140.877C472.064 140.877 473.949 140.252 475.219 139.002C476.508 137.732 477.152 136.043 477.152 133.934V132.938C477.152 130.848 476.508 129.188 475.219 127.957C473.949 126.727 472.064 126.111 469.564 126.111C467.104 126.111 465.229 126.736 463.939 127.986C462.65 129.217 462.006 130.867 462.006 132.938Z" fill="#7099ED"/>
<path d="M232.084 252.85C227.143 252.869 223.314 252.059 220.6 250.418C217.885 248.777 216.518 246.258 216.498 242.859L216.527 242.42H225.287L225.316 242.83C225.336 244.256 225.912 245.291 227.045 245.936C228.178 246.561 229.809 246.873 231.938 246.873C234.203 246.873 235.814 246.609 236.771 246.082C237.748 245.535 238.236 244.793 238.236 243.855C238.236 242.977 237.904 242.283 237.24 241.775C236.596 241.248 235.238 240.984 233.168 240.984H228.744V235.213H233.285C234.77 235.213 235.766 234.979 236.273 234.51C236.781 234.041 237.025 233.436 237.006 232.693C237.006 231.854 236.615 231.209 235.834 230.76C235.072 230.291 233.725 230.057 231.791 230.057C229.877 230.057 228.383 230.33 227.309 230.877C226.254 231.424 225.756 232.439 225.814 233.924L225.785 234.363H216.996V233.895C217.035 230.535 218.451 228.055 221.244 226.453C224.057 224.832 227.758 224.021 232.348 224.021C237.27 224.021 241.01 224.646 243.568 225.896C246.146 227.146 247.436 229.002 247.436 231.463C247.436 233.201 246.898 234.568 245.824 235.564C244.75 236.561 243.109 237.312 240.902 237.82V237.879C243.48 238.152 245.414 238.836 246.703 239.93C247.992 241.023 248.637 242.537 248.637 244.471C248.637 247.146 247.24 249.207 244.447 250.652C241.654 252.098 237.533 252.83 232.084 252.85ZM250.775 244.002C250.775 241.307 251.83 239.207 253.939 237.703C256.049 236.199 259.105 235.467 263.109 235.506L273.158 235.564V233.484C273.158 232.312 272.758 231.414 271.957 230.789C271.156 230.145 269.74 229.822 267.709 229.822C265.854 229.822 264.477 230.115 263.578 230.701C262.699 231.287 262.26 232.117 262.26 233.191V233.865L253.148 233.836V233.016C253.148 230.418 254.496 228.289 257.191 226.629C259.887 224.949 263.656 224.109 268.5 224.109C273.578 224.109 277.289 224.91 279.633 226.512C281.996 228.094 283.178 230.672 283.178 234.246V245.789C283.178 246.922 283.275 247.996 283.471 249.012C283.666 250.008 283.959 250.867 284.35 251.59V252H274.389C274.076 251.512 273.832 250.945 273.656 250.301C273.5 249.656 273.383 248.875 273.305 247.957C272.504 249.109 271.117 250.135 269.145 251.033C267.172 251.932 264.633 252.381 261.527 252.381C258.07 252.381 255.414 251.648 253.559 250.184C251.703 248.719 250.775 246.658 250.775 244.002ZM260.648 243.27C260.648 244.461 261.049 245.379 261.85 246.023C262.65 246.668 263.9 246.99 265.6 246.99C267.494 246.99 269.223 246.502 270.785 245.525C272.367 244.549 273.158 243.299 273.158 241.775V240.34L266.391 240.311C264.359 240.291 262.895 240.486 261.996 240.896C261.098 241.307 260.648 242.098 260.648 243.27ZM311.508 252L301.195 239.314L308.549 233.982L323.607 252H311.508ZM294.604 234.861H303.363L310.717 225.018H321.674L307.816 241.951H294.604V234.861ZM299.613 225.018V252H289.594V225.018H299.613ZM324.252 244.002C324.252 241.307 325.307 239.207 327.416 237.703C329.525 236.199 332.582 235.467 336.586 235.506L346.635 235.564V233.484C346.635 232.312 346.234 231.414 345.434 230.789C344.633 230.145 343.217 229.822 341.186 229.822C339.33 229.822 337.953 230.115 337.055 230.701C336.176 231.287 335.736 232.117 335.736 233.191V233.865L326.625 233.836V233.016C326.625 230.418 327.973 228.289 330.668 226.629C333.363 224.949 337.133 224.109 341.977 224.109C347.055 224.109 350.766 224.91 353.109 226.512C355.473 228.094 356.654 230.672 356.654 234.246V245.789C356.654 246.922 356.752 247.996 356.947 249.012C357.143 250.008 357.436 250.867 357.826 251.59V252H347.865C347.553 251.512 347.309 250.945 347.133 250.301C346.977 249.656 346.859 248.875 346.781 247.957C345.98 249.109 344.594 250.135 342.621 251.033C340.648 251.932 338.109 252.381 335.004 252.381C331.547 252.381 328.891 251.648 327.035 250.184C325.18 248.719 324.252 246.658 324.252 244.002ZM334.125 243.27C334.125 244.461 334.525 245.379 335.326 246.023C336.127 246.668 337.377 246.99 339.076 246.99C340.971 246.99 342.699 246.502 344.262 245.525C345.844 244.549 346.635 243.299 346.635 241.775V240.34L339.867 240.311C337.836 240.291 336.371 240.486 335.473 240.896C334.574 241.307 334.125 242.098 334.125 243.27ZM375.873 252.85C370.932 252.869 367.104 252.059 364.389 250.418C361.674 248.777 360.307 246.258 360.287 242.859L360.316 242.42H369.076L369.105 242.83C369.125 244.256 369.701 245.291 370.834 245.936C371.967 246.561 373.598 246.873 375.727 246.873C377.992 246.873 379.604 246.609 380.561 246.082C381.537 245.535 382.025 244.793 382.025 243.855C382.025 242.977 381.693 242.283 381.029 241.775C380.385 241.248 379.027 240.984 376.957 240.984H372.533V235.213H377.074C378.559 235.213 379.555 234.979 380.062 234.51C380.57 234.041 380.814 233.436 380.795 232.693C380.795 231.854 380.404 231.209 379.623 230.76C378.861 230.291 377.514 230.057 375.58 230.057C373.666 230.057 372.172 230.33 371.098 230.877C370.043 231.424 369.545 232.439 369.604 233.924L369.574 234.363H360.785V233.895C360.824 230.535 362.24 228.055 365.033 226.453C367.846 224.832 371.547 224.021 376.137 224.021C381.059 224.021 384.799 224.646 387.357 225.896C389.936 227.146 391.225 229.002 391.225 231.463C391.225 233.201 390.688 234.568 389.613 235.564C388.539 236.561 386.898 237.312 384.691 237.82V237.879C387.27 238.152 389.203 238.836 390.492 239.93C391.781 241.023 392.426 242.537 392.426 244.471C392.426 247.146 391.029 249.207 388.236 250.652C385.443 252.098 381.322 252.83 375.873 252.85ZM394.564 244.002C394.564 241.307 395.619 239.207 397.729 237.703C399.838 236.199 402.895 235.467 406.898 235.506L416.947 235.564V233.484C416.947 232.312 416.547 231.414 415.746 230.789C414.945 230.145 413.529 229.822 411.498 229.822C409.643 229.822 408.266 230.115 407.367 230.701C406.488 231.287 406.049 232.117 406.049 233.191V233.865L396.938 233.836V233.016C396.938 230.418 398.285 228.289 400.98 226.629C403.676 224.949 407.445 224.109 412.289 224.109C417.367 224.109 421.078 224.91 423.422 226.512C425.785 228.094 426.967 230.672 426.967 234.246V245.789C426.967 246.922 427.064 247.996 427.26 249.012C427.455 250.008 427.748 250.867 428.139 251.59V252H418.178C417.865 251.512 417.621 250.945 417.445 250.301C417.289 249.656 417.172 248.875 417.094 247.957C416.293 249.109 414.906 250.135 412.934 251.033C410.961 251.932 408.422 252.381 405.316 252.381C401.859 252.381 399.203 251.648 397.348 250.184C395.492 248.719 394.564 246.658 394.564 244.002ZM404.438 243.27C404.438 244.461 404.838 245.379 405.639 246.023C406.439 246.668 407.689 246.99 409.389 246.99C411.283 246.99 413.012 246.502 414.574 245.525C416.156 244.549 416.947 243.299 416.947 241.775V240.34L410.18 240.311C408.148 240.291 406.684 240.486 405.785 240.896C404.887 241.307 404.438 242.098 404.438 243.27Z" fill="#7099ED"/>
<path d="M232.084 197.85C227.143 197.869 223.314 197.059 220.6 195.418C217.885 193.777 216.518 191.258 216.498 187.859L216.527 187.42H225.287L225.316 187.83C225.336 189.256 225.912 190.291 227.045 190.936C228.178 191.561 229.809 191.873 231.938 191.873C234.203 191.873 235.814 191.609 236.771 191.082C237.748 190.535 238.236 189.793 238.236 188.855C238.236 187.977 237.904 187.283 237.24 186.775C236.596 186.248 235.238 185.984 233.168 185.984H228.744V180.213H233.285C234.77 180.213 235.766 179.979 236.273 179.51C236.781 179.041 237.025 178.436 237.006 177.693C237.006 176.854 236.615 176.209 235.834 175.76C235.072 175.291 233.725 175.057 231.791 175.057C229.877 175.057 228.383 175.33 227.309 175.877C226.254 176.424 225.756 177.439 225.814 178.924L225.785 179.363H216.996V178.895C217.035 175.535 218.451 173.055 221.244 171.453C224.057 169.832 227.758 169.021 232.348 169.021C237.27 169.021 241.01 169.646 243.568 170.896C246.146 172.146 247.436 174.002 247.436 176.463C247.436 178.201 246.898 179.568 245.824 180.564C244.75 181.561 243.109 182.312 240.902 182.82V182.879C243.48 183.152 245.414 183.836 246.703 184.93C247.992 186.023 248.637 187.537 248.637 189.471C248.637 192.146 247.24 194.207 244.447 195.652C241.654 197.098 237.533 197.83 232.084 197.85ZM250.775 189.002C250.775 186.307 251.83 184.207 253.939 182.703C256.049 181.199 259.105 180.467 263.109 180.506L273.158 180.564V178.484C273.158 177.312 272.758 176.414 271.957 175.789C271.156 175.145 269.74 174.822 267.709 174.822C265.854 174.822 264.477 175.115 263.578 175.701C262.699 176.287 262.26 177.117 262.26 178.191V178.865L253.148 178.836V178.016C253.148 175.418 254.496 173.289 257.191 171.629C259.887 169.949 263.656 169.109 268.5 169.109C273.578 169.109 277.289 169.91 279.633 171.512C281.996 173.094 283.178 175.672 283.178 179.246V190.789C283.178 191.922 283.275 192.996 283.471 194.012C283.666 195.008 283.959 195.867 284.35 196.59V197H274.389C274.076 196.512 273.832 195.945 273.656 195.301C273.5 194.656 273.383 193.875 273.305 192.957C272.504 194.109 271.117 195.135 269.145 196.033C267.172 196.932 264.633 197.381 261.527 197.381C258.07 197.381 255.414 196.648 253.559 195.184C251.703 193.719 250.775 191.658 250.775 189.002ZM260.648 188.27C260.648 189.461 261.049 190.379 261.85 191.023C262.65 191.668 263.9 191.99 265.6 191.99C267.494 191.99 269.223 191.502 270.785 190.525C272.367 189.549 273.158 188.299 273.158 186.775V185.34L266.391 185.311C264.359 185.291 262.895 185.486 261.996 185.896C261.098 186.307 260.648 187.098 260.648 188.27ZM306.527 209.158V170.018H316.312V173.357L316.371 173.328C317.172 172.273 318.461 171.326 320.238 170.486C322.035 169.646 324.252 169.227 326.889 169.227C331.146 169.227 334.525 170.418 337.025 172.801C339.545 175.184 340.805 178.602 340.805 183.055V183.67C340.805 188.064 339.496 191.512 336.879 194.012C334.281 196.492 330.922 197.732 326.801 197.732C324.242 197.732 322.104 197.371 320.385 196.648C318.666 195.906 317.377 195.105 316.518 194.246L316.488 209.158H306.527ZM316.518 187.625C316.947 188.406 317.777 189.168 319.008 189.91C320.258 190.652 321.801 191.023 323.637 191.023C326.078 191.023 327.875 190.379 329.027 189.09C330.199 187.801 330.785 186.043 330.785 183.816V182.908C330.785 180.779 330.199 179.119 329.027 177.928C327.875 176.717 326.088 176.111 323.666 176.111C321.908 176.111 320.395 176.453 319.125 177.137C317.855 177.82 316.986 178.582 316.518 179.422V187.625ZM343.588 189.002C343.588 186.307 344.643 184.207 346.752 182.703C348.861 181.199 351.918 180.467 355.922 180.506L365.971 180.564V178.484C365.971 177.312 365.57 176.414 364.77 175.789C363.969 175.145 362.553 174.822 360.521 174.822C358.666 174.822 357.289 175.115 356.391 175.701C355.512 176.287 355.072 177.117 355.072 178.191V178.865L345.961 178.836V178.016C345.961 175.418 347.309 173.289 350.004 171.629C352.699 169.949 356.469 169.109 361.312 169.109C366.391 169.109 370.102 169.91 372.445 171.512C374.809 173.094 375.99 175.672 375.99 179.246V190.789C375.99 191.922 376.088 192.996 376.283 194.012C376.479 195.008 376.771 195.867 377.162 196.59V197H367.201C366.889 196.512 366.645 195.945 366.469 195.301C366.312 194.656 366.195 193.875 366.117 192.957C365.316 194.109 363.93 195.135 361.957 196.033C359.984 196.932 357.445 197.381 354.34 197.381C350.883 197.381 348.227 196.648 346.371 195.184C344.516 193.719 343.588 191.658 343.588 189.002ZM353.461 188.27C353.461 189.461 353.861 190.379 354.662 191.023C355.463 191.668 356.713 191.99 358.412 191.99C360.307 191.99 362.035 191.502 363.598 190.525C365.18 189.549 365.971 188.299 365.971 186.775V185.34L359.203 185.311C357.172 185.291 355.707 185.486 354.809 185.896C353.91 186.307 353.461 187.098 353.461 188.27ZM395.209 197.85C390.268 197.869 386.439 197.059 383.725 195.418C381.01 193.777 379.643 191.258 379.623 187.859L379.652 187.42H388.412L388.441 187.83C388.461 189.256 389.037 190.291 390.17 190.936C391.303 191.561 392.934 191.873 395.062 191.873C397.328 191.873 398.939 191.609 399.896 191.082C400.873 190.535 401.361 189.793 401.361 188.855C401.361 187.977 401.029 187.283 400.365 186.775C399.721 186.248 398.363 185.984 396.293 185.984H391.869V180.213H396.41C397.895 180.213 398.891 179.979 399.398 179.51C399.906 179.041 400.15 178.436 400.131 177.693C400.131 176.854 399.74 176.209 398.959 175.76C398.197 175.291 396.85 175.057 394.916 175.057C393.002 175.057 391.508 175.33 390.434 175.877C389.379 176.424 388.881 177.439 388.939 178.924L388.91 179.363H380.121V178.895C380.16 175.535 381.576 173.055 384.369 171.453C387.182 169.832 390.883 169.021 395.473 169.021C400.395 169.021 404.135 169.646 406.693 170.896C409.271 172.146 410.561 174.002 410.561 176.463C410.561 178.201 410.023 179.568 408.949 180.564C407.875 181.561 406.234 182.312 404.027 182.82V182.879C406.605 183.152 408.539 183.836 409.828 184.93C411.117 186.023 411.762 187.537 411.762 189.471C411.762 192.146 410.365 194.207 407.572 195.652C404.779 197.098 400.658 197.83 395.209 197.85ZM415.951 197V170.018H430.512L435.873 181.707C436.205 182.391 436.449 182.928 436.605 183.318C436.762 183.709 436.918 184.119 437.074 184.549H437.133C437.367 184.119 437.582 183.699 437.777 183.289C437.973 182.879 438.207 182.352 438.48 181.707L443.754 170.018H458.109V197H448.295V183.318C448.295 182.518 448.314 181.746 448.354 181.004C448.393 180.262 448.432 179.559 448.471 178.895H448.266C448.09 179.52 447.885 180.174 447.65 180.857C447.416 181.541 447.123 182.283 446.771 183.084L440.678 197H432.709L426.527 183.113C426.254 182.469 425.99 181.785 425.736 181.062C425.502 180.32 425.287 179.598 425.092 178.895H424.916C424.955 179.52 424.994 180.193 425.033 180.916C425.072 181.619 425.092 182.4 425.092 183.26V197H415.951ZM462.914 183.67V183.055C462.914 178.777 464.506 175.379 467.689 172.859C470.893 170.32 475.18 169.051 480.551 169.051C485.824 169.051 489.887 170.281 492.738 172.742C495.59 175.203 497.016 178.504 497.016 182.645V185.311H468.275V180.359H487.377V180.213C487.377 179.002 486.83 177.996 485.736 177.195C484.643 176.395 482.895 175.994 480.492 175.994C477.992 175.994 476.098 176.58 474.809 177.752C473.539 178.924 472.904 180.34 472.904 182V183.816C472.904 186.102 473.568 187.859 474.896 189.09C476.225 190.301 478.1 190.906 480.521 190.906C482.787 190.906 484.545 190.613 485.795 190.027C487.045 189.422 487.953 188.699 488.52 187.859L496.752 190.057C495.697 192.459 493.9 194.354 491.361 195.74C488.842 197.107 485.258 197.791 480.609 197.791C475.102 197.791 470.775 196.541 467.631 194.041C464.486 191.541 462.914 188.084 462.914 183.67ZM501.41 197V170.018H511.4V189.676H520.893V170.018H530.883V189.676H540.346V170.018H550.365V189.676H555.082V204.91H545.619V197H501.41ZM556.957 183.67V183.055C556.957 178.777 558.549 175.379 561.732 172.859C564.936 170.32 569.223 169.051 574.594 169.051C579.867 169.051 583.93 170.281 586.781 172.742C589.633 175.203 591.059 178.504 591.059 182.645V185.311H562.318V180.359H581.42V180.213C581.42 179.002 580.873 177.996 579.779 177.195C578.686 176.395 576.938 175.994 574.535 175.994C572.035 175.994 570.141 176.58 568.852 177.752C567.582 178.924 566.947 180.34 566.947 182V183.816C566.947 186.102 567.611 187.859 568.939 189.09C570.268 190.301 572.143 190.906 574.564 190.906C576.83 190.906 578.588 190.613 579.838 190.027C581.088 189.422 581.996 188.699 582.562 187.859L590.795 190.057C589.74 192.459 587.943 194.354 585.404 195.74C582.885 197.107 579.301 197.791 574.652 197.791C569.145 197.791 564.818 196.541 561.674 194.041C558.529 191.541 556.957 188.084 556.957 183.67ZM595.453 170.018H605.443V179.861H616.84V170.018H626.859V197H616.84V186.951H605.443V197H595.453V170.018ZM633.422 197V170.018H643.441V183.172C643.441 183.816 643.432 184.305 643.412 184.637C643.412 184.949 643.393 185.457 643.354 186.16H643.529C643.92 185.516 644.193 185.086 644.35 184.871C644.506 184.656 644.896 184.08 645.521 183.143L654.545 170.018H665.033V197H655.014V183.67C655.014 183.123 655.014 182.674 655.014 182.322C655.033 181.971 655.043 181.453 655.043 180.77H654.896C654.506 181.414 654.232 181.834 654.076 182.029C653.939 182.205 653.549 182.762 652.904 183.699L643.939 197H633.422ZM669.867 183.67V183.055C669.867 178.777 671.459 175.379 674.643 172.859C677.846 170.32 682.133 169.051 687.504 169.051C692.777 169.051 696.84 170.281 699.691 172.742C702.543 175.203 703.969 178.504 703.969 182.645V185.311H675.229V180.359H694.33V180.213C694.33 179.002 693.783 177.996 692.689 177.195C691.596 176.395 689.848 175.994 687.445 175.994C684.945 175.994 683.051 176.58 681.762 177.752C680.492 178.924 679.857 180.34 679.857 182V183.816C679.857 186.102 680.521 187.859 681.85 189.09C683.178 190.301 685.053 190.906 687.475 190.906C689.74 190.906 691.498 190.613 692.748 190.027C693.998 189.422 694.906 188.699 695.473 187.859L703.705 190.057C702.65 192.459 700.854 194.354 698.314 195.74C695.795 197.107 692.211 197.791 687.562 197.791C682.055 197.791 677.729 196.541 674.584 194.041C671.439 191.541 669.867 188.084 669.867 183.67Z" fill="#7099ED"/>
<g clip-path="url(#clip2_6529_18620)">
<path d="M853.221 586.465C821.272 586.465 795.436 577.38 776.416 559.477C769.414 552.885 750.8 535.357 749.955 508.476C749.142 482.986 764.299 462.376 777.524 452.477C789.981 443.146 807.048 438.224 826.88 438.224C851.388 438.224 878.683 445.725 901.742 458.823C925.91 472.542 942.351 490.434 948.025 509.225C949.462 513.966 955.916 538.61 942.307 557.872C938.432 563.362 927.896 573.571 900.941 580.237C894.696 581.778 875.698 586.476 853.21 586.476L853.221 586.465Z" fill="#7099ED"/>
<path d="M826.891 438.748C851.311 438.748 878.496 446.228 901.479 459.272C925.525 472.916 941.867 490.701 947.509 509.353C948.924 514.051 955.334 538.482 941.867 557.551C938.037 562.987 927.6 573.078 900.82 579.702C894.597 581.243 875.643 585.92 853.22 585.92C821.425 585.92 795.71 576.888 776.8 559.081C769.842 552.521 751.348 535.111 750.503 508.455C749.702 483.168 764.738 462.718 777.864 452.895C790.223 443.638 807.168 438.748 826.88 438.748M826.88 437.678C808.057 437.678 790.508 442.076 777.195 452.049C761.852 463.542 748.659 485.019 749.406 508.497C750.262 535.592 769.315 553.538 776.032 559.862C798.871 581.372 828.351 587 853.209 587C875.764 587 894.52 582.367 901.072 580.751C931.518 573.228 940.561 561.275 942.756 558.172C956.914 538.129 949.605 512.585 948.54 509.064C936.446 469.01 877.125 437.688 826.869 437.688L826.88 437.678Z" fill="#262626"/>
<path d="M943.327 400.577C945.149 401.946 946.96 402.728 947.311 402.877C945.983 402.053 944.644 401.283 943.327 400.577ZM863.899 442.15C857.632 440.609 850.246 438.234 842.344 434.499C837.603 432.252 833.41 429.876 829.777 427.543C830.205 425.82 830.666 424.055 831.16 422.278C833.399 414.135 836.297 405.36 840.028 396.168C842.201 390.785 844.495 385.734 846.822 381.015C847.195 380.245 847.557 379.496 847.941 378.746C852.847 380.994 858.115 383.241 863.735 385.424C869.266 387.553 874.578 389.415 879.66 391.031C881.032 390.978 882.59 391.085 884.324 391.288C885.718 391.459 887.244 391.695 888.879 391.984C889.823 392.144 890.822 392.315 891.853 392.497C896.946 393.396 901.687 394.68 906.088 396.178C905.408 391.106 904.925 385.317 904.925 378.928C904.925 371.994 905.485 365.745 906.264 360.351C906.834 349.661 907.855 339.87 909.095 331.063C909.589 327.478 910.127 324.043 910.687 320.79C911.225 317.643 911.784 314.669 912.355 311.843C912.915 309.093 913.474 306.504 914.023 304.074C914.078 303.828 914.133 303.593 914.188 303.336C920.169 276.851 930.069 233.94 951.767 230.526C953.545 230.248 955.06 230.291 956.08 230.366C978.854 244.577 992.54 260.585 1000.05 270.923C1004.69 277.3 1011.47 286.782 1016.58 300.875C1023.31 319.463 1023.47 335.91 1022.75 345.937C1023.93 346.922 1029.86 352.186 1028.2 358.896C1027.06 363.604 1022.92 366.012 1021.94 366.547H1021.49C1021.42 370.774 1021.27 375.076 1021.08 379.442C1020.32 396.574 1018.74 412.722 1016.63 427.768C1019.86 438.897 1019.03 448.903 1013.45 455.066C1012.13 456.511 1010.35 457.977 1007.88 459.197C1007.07 461.177 1006.06 463.242 1004.84 465.339C1002.02 470.208 998.203 476.79 990.74 480.802C983.54 484.687 975.814 484.612 969.931 483.606C969.064 483.456 968.23 483.285 967.451 483.103C963.983 482.29 961.436 481.284 960.481 480.877C957.847 483.082 952.404 483.745 947.772 482.376C944.282 481.338 941.999 479.358 940.902 478.245C938.816 477.945 927.435 476.169 910.588 469.427C902.598 466.228 893.379 461.926 883.347 456.137C878.529 453.354 873.525 450.24 868.377 446.741C867.378 446.067 865.238 444.579 863.921 442.118L863.899 442.15Z" fill="#7099ED"/>
<path d="M772.344 429.224C772.234 428.731 772.146 428.218 772.059 427.704C771.96 427.105 771.883 426.516 771.828 425.938C771.005 417.891 773.507 411.663 774.682 409.116C775.34 410.55 776.24 411.995 777.436 413.236C780.059 415.933 783.407 416.939 787.632 417.356C786.919 423.787 786.469 430.893 786.48 438.587C786.513 449.641 787.512 459.572 788.905 468.133C796.687 475.195 807.98 483.831 823.115 490.872C849.664 503.253 874.172 504.302 887.759 503.863C886.168 493.729 884.895 482.889 884.094 471.439C883.721 466.217 883.468 461.123 883.314 456.158C893.346 461.947 902.565 466.249 910.555 469.449C912.223 473.676 915.23 479.968 920.597 486.431C924.483 491.108 934.602 503.275 950.417 505.287C951.087 505.372 951.811 505.469 952.579 505.543C955.96 505.918 960.163 506.1 963.829 504.698C959.011 508.155 951.613 512.916 941.9 517.047C897.209 536.031 845.362 523.821 810.955 500.086C803.996 495.292 762.686 466.806 768.371 438.844C769.216 434.67 770.928 431.417 772.333 429.202L772.344 429.224Z" fill="#7099ED"/>
<path d="M951.208 227.037L956.048 230.387C955.027 230.301 953.512 230.269 951.734 230.547C930.036 233.961 920.148 276.862 914.155 303.357C910.852 302.501 907.065 301.742 902.851 301.239C896.847 300.532 891.502 300.543 887.024 300.853C891.173 288.569 897.177 274.186 906.077 258.948C909.304 253.426 912.344 248.761 915.198 244.833L916.01 245.326C916.416 244.266 916.833 243.185 917.228 242.083C917.228 242.083 917.239 242.083 917.239 242.062C919.796 238.134 928.851 225.283 942.823 224.33C942.888 224.33 942.965 224.33 943.031 224.319C945.588 224.17 948.135 224.929 950.231 226.374L951.197 227.037H951.208Z" fill="#7099ED"/>
<path d="M940.199 220.98C941.483 220.959 942.866 221.119 944.293 221.59C948.486 222.96 950.615 226.085 951.207 227.037L950.242 226.373C948.145 224.929 945.599 224.158 943.042 224.319C942.976 224.319 942.899 224.319 942.833 224.33C928.862 225.282 919.807 238.134 917.25 242.061C918.369 239.001 919.445 235.78 920.455 232.398C922.716 224.747 924.252 217.545 925.262 210.985C930.245 214.313 935.227 217.652 940.21 220.98H940.199Z" fill="#7099ED"/>
<path d="M925.624 208.482C925.514 209.295 925.394 210.13 925.251 210.975C924.241 217.535 922.705 224.736 920.444 232.388C919.434 235.769 918.358 238.99 917.239 242.051C917.239 242.051 917.228 242.051 917.228 242.072C916.822 243.174 916.416 244.255 916.01 245.315L915.198 244.822C910.489 242.008 904.925 239.14 898.515 236.625C895.267 235.352 891.787 234.175 888.1 233.148C884.533 232.152 881.109 231.382 877.86 230.804L907.647 195.812C913.639 200.028 919.632 204.255 925.624 208.482Z" fill="#7099ED"/>
<path d="M914.155 303.347C914.1 303.603 914.045 303.839 913.99 304.085C913.441 306.514 912.882 309.104 912.322 311.854C907.581 310.805 903.805 312.838 903.41 314.765C903.004 316.723 905.748 320.062 910.654 320.789C910.094 324.042 909.556 327.467 909.062 331.062L908.733 331.02C902.378 330.699 895.256 329.864 887.573 328.12C884.906 327.51 882.36 326.846 879.956 326.119C880.56 323.475 881.218 320.757 881.932 317.964C882.019 317.622 882.107 317.269 882.206 316.916C886.794 317.237 889.889 314.989 889.933 313.234C889.965 311.704 887.672 309.821 884.368 309.157C885.158 306.514 886.047 303.732 887.024 300.843C891.491 300.543 896.847 300.532 902.85 301.228C907.065 301.731 910.851 302.491 914.155 303.347Z" fill="#383940"/>
<path d="M931.178 110.417L930.047 119.074L919.566 118.571L901.852 117.705L814.709 113.478L786.217 112.087L786.568 103.804L791.836 103.697C799.113 103.569 805.182 98.2073 806.027 91.1553L809.287 64.1565C811.131 48.9075 818.857 35.6596 830.063 26.4032C841.258 17.1468 855.932 11.8712 871.659 12.5988C904.837 14.1291 930.409 41.6415 928.708 73.9801L927.095 104.735C926.963 107.325 928.642 109.668 931.189 110.417H931.178Z" fill="#FF8B63"/>
<path d="M861 15.5C855.5 15.5 844.8 20.9 842 22.5C833 27.6429 824.5 38 820.5 47.5" stroke="white"/>
<path d="M912.323 311.854C911.752 314.669 911.192 317.654 910.654 320.8C905.748 320.062 903.005 316.734 903.411 314.776C903.806 312.849 907.581 310.816 912.323 311.865V311.854Z" fill="#383940"/>
<path d="M904.892 378.939C904.892 385.328 905.375 391.117 906.055 396.189C901.654 394.681 896.913 393.407 891.821 392.508C890.789 392.326 889.79 392.155 888.846 391.995C889.362 385.296 889.878 378.597 890.405 371.898C875.478 370.293 859.992 368.217 844.023 365.574C837.471 364.493 831.04 363.348 824.718 362.149C819.933 356.563 817.266 353.214 815.477 349.49C815.137 348.784 814.829 348.088 814.566 347.403C820.58 348.152 826.628 348.923 832.675 349.715C834.047 349.886 835.408 350.068 836.78 350.25C849.676 351.951 862.451 353.738 875.094 355.6C885.565 357.141 895.947 358.725 906.242 360.362C905.463 365.766 904.903 372.005 904.903 378.939H904.892Z" fill="#7099ED"/>
<path d="M908.734 331.03L909.063 331.073C907.812 339.88 906.791 349.671 906.231 360.362C895.936 358.724 885.554 357.141 875.083 355.6C875.896 347.97 877.322 337.879 879.946 326.129C882.349 326.857 884.895 327.52 887.562 328.13C895.245 329.874 902.368 330.72 908.723 331.03H908.734Z" fill="#7099ED"/>
<path d="M903.389 175.961C901.611 179.182 899.339 182.457 896.408 185.549C885.488 197.149 867.972 204.03 851.761 200.638C851.761 200.638 844.616 199.14 838.338 195.18C810.187 177.448 814.325 118.132 814.698 113.478L901.841 117.704C902.181 118.421 902.587 119.534 902.39 120.808C902.05 123.044 900.184 123.622 899.767 125.345C899.207 127.656 902.137 129.422 903.246 131.691C904.651 134.591 905.617 139.246 903.092 146.694C904.442 146.405 905.792 146.126 907.142 145.827C905.979 137.373 908.953 130.075 914.408 127.485C914.825 127.293 916.01 126.758 917.481 126.511C918.842 126.287 920.455 126.308 921.926 127.057C927.205 129.722 928.72 140.594 923.375 146.662C918.534 152.162 910.358 151.231 909.579 151.135C909.612 154.484 909.381 165.078 903.389 175.982V175.961Z" fill="white"/>
<path d="M898.526 236.625C904.936 239.14 910.5 242.008 915.209 244.822C912.355 248.749 909.304 253.415 906.088 258.937C897.188 274.175 891.173 288.557 887.035 300.842C886.059 303.731 885.17 306.514 884.379 309.157C883.567 311.896 882.843 314.486 882.217 316.926C882.119 317.279 882.031 317.632 881.943 317.975C881.23 320.767 880.571 323.486 879.967 326.129C877.344 337.878 875.917 347.97 875.105 355.589C862.462 353.737 849.698 351.961 836.791 350.249C835.419 350.067 834.058 349.885 832.686 349.714C834.091 337.846 835.77 325.626 837.79 313.052C840.435 296.54 843.42 280.735 846.668 265.678C857.073 254.057 867.489 242.425 877.893 230.804C881.142 231.392 884.566 232.152 888.133 233.147C891.821 234.175 895.3 235.352 898.548 236.625H898.526Z" fill="#7099ED"/>
<path d="M901.852 117.705L919.566 118.572C919.313 119.984 918.962 121.504 918.523 123.098C918.194 124.308 917.843 125.431 917.469 126.512C915.999 126.758 914.813 127.293 914.396 127.486C908.931 130.076 905.956 137.374 907.131 145.827C905.781 146.127 904.431 146.405 903.081 146.694C905.594 139.246 904.639 134.591 903.235 131.691C902.126 129.423 899.196 127.657 899.755 125.346C900.172 123.623 902.038 123.045 902.379 120.808C902.576 119.535 902.181 118.422 901.83 117.716L901.852 117.705Z" fill="#383940"/>
<path d="M884.105 471.45C884.906 482.9 886.179 493.729 887.77 503.874C874.183 504.323 849.675 503.264 823.126 490.883C807.991 483.842 796.698 475.206 788.917 468.143C787.523 459.582 786.524 449.641 786.491 438.598C786.469 430.903 786.93 423.798 787.643 417.367C789.838 417.591 792.264 417.645 794.942 417.698C800.012 417.805 807.805 417.367 817.123 414.435C819.954 415.537 821.337 416.714 825.475 419.154C827.923 420.598 829.942 421.668 831.149 422.278C830.655 424.066 830.194 425.82 829.766 427.543C833.399 429.876 837.581 432.252 842.333 434.499C850.246 438.234 857.621 440.599 863.888 442.15C865.205 444.612 867.346 446.11 868.344 446.773C873.492 450.272 878.496 453.386 883.315 456.169C883.468 461.123 883.721 466.217 884.094 471.45H884.105Z" fill="#7099ED"/>
<path d="M839.82 233.907C839.973 229.466 840.028 224.822 839.94 220.006C839.864 215.908 839.71 211.927 839.469 208.085C839.194 203.602 838.81 199.289 838.349 195.169C844.627 199.129 851.772 200.627 851.772 200.627C867.982 204.019 885.488 197.138 896.419 185.538C899.349 182.435 901.621 179.171 903.399 175.95C903.026 179.278 902.96 184.436 905.002 190.161C905.77 192.344 906.725 194.228 907.658 195.801L877.871 230.793C867.466 242.414 857.051 254.047 846.646 265.668C841.894 258.894 836.834 252.003 831.457 245.015C831.325 244.844 831.204 244.683 831.062 244.512L831.533 244.169C831.94 242.928 832.576 241.419 833.608 239.825C835.649 236.721 838.184 234.892 839.82 233.896V233.907Z" fill="white"/>
<path d="M888.857 391.973C887.222 391.694 885.696 391.459 884.302 391.288L890.415 371.887C889.889 378.586 889.373 385.284 888.857 391.973Z" fill="#7099ED"/>
<path d="M890.416 371.887L884.302 391.288C882.568 391.074 881.01 390.967 879.638 391.032C874.556 389.416 869.244 387.554 863.713 385.424C858.104 383.252 852.836 381.005 847.919 378.747C847.535 379.496 847.173 380.245 846.8 381.015C844.341 379.795 841.005 377.923 837.438 375.173C834.365 372.808 831.709 370.261 827.802 365.724C826.682 364.429 825.662 363.241 824.718 362.139C831.04 363.337 837.471 364.482 844.023 365.563C859.992 368.217 875.489 370.282 890.405 371.887H890.416Z" fill="#7099ED"/>
<path d="M889.922 313.234C889.878 314.989 886.783 317.236 882.195 316.915C882.821 314.476 883.545 311.886 884.357 309.146C887.661 309.81 889.955 311.693 889.922 313.224V313.234Z" fill="#383940"/>
<path d="M880.988 134.248C880.792 137.554 878.411 140.13 875.646 139.995C872.892 139.86 870.816 137.067 871.013 133.761C871.21 130.446 873.6 127.87 876.345 128.005C879.09 128.14 881.175 130.933 880.988 134.248Z" fill="#262626"/>
<path d="M876.763 156.421C877.125 160.851 875.369 165.099 872.021 167.143C867.159 170.14 859.213 168.342 855.13 161.804C857.457 161.921 860.289 161.846 863.439 161.322C869.354 160.327 873.865 158.154 876.774 156.421H876.763Z" fill="white"/>
<path d="M772.542 399.207L772.037 399.229C768.964 397.816 767.35 394.552 768.086 391.535C768.722 388.966 770.972 386.987 773.793 386.526C766.933 384.814 762.192 381.015 761.753 376.724C761.511 374.456 762.532 372.669 762.839 372.144C765.43 367.746 771.642 366.408 780.641 365.606C782.331 365.445 784.131 365.317 786.03 365.188C786.656 365.146 787.292 365.103 787.94 365.06C792.89 364.728 797.016 364.675 799.936 364.707C800.309 364.546 800.693 364.397 801.099 364.268C800.463 362.556 799.848 360.491 799.431 358.094C799.387 357.933 799.365 357.751 799.332 357.58C799.058 355.911 798.937 354.37 798.904 352.989C798.015 352.197 797.62 351.031 797.916 349.982C798.015 349.618 798.191 349.308 798.399 349.062C797.675 347.863 797.071 346.644 796.621 345.402C794.492 339.666 795.194 333.642 798.575 329.361C799.771 327.842 801.67 326.076 803.678 324.91C805.577 323.818 807.607 323.251 809.265 323.947C813.918 325.894 809.605 335.183 814.555 347.403C814.818 348.088 815.125 348.773 815.466 349.49C817.266 353.214 819.933 356.563 824.707 362.149C825.651 363.252 826.671 364.45 827.791 365.745C831.698 370.282 834.354 372.829 837.427 375.194C841.005 377.944 844.331 379.817 846.789 381.037C844.462 385.756 842.179 390.807 839.995 396.189C836.264 405.371 833.366 414.146 831.127 422.3C829.92 421.69 827.901 420.62 825.453 419.175C821.305 416.735 819.922 415.558 817.101 414.456C807.783 417.388 799.991 417.816 794.92 417.72C792.242 417.667 789.817 417.613 787.622 417.388C783.396 416.971 780.038 415.976 777.426 413.268C776.218 412.027 775.318 410.582 774.671 409.148C773.299 406.184 772.893 403.241 772.728 402.075C772.596 401.058 772.531 400.117 772.52 399.229L772.542 399.207Z" fill="white"/>
<path d="M846.636 265.678C843.398 280.735 840.402 296.54 837.757 313.052C835.748 325.626 834.058 337.846 832.653 349.703C826.606 348.922 820.558 348.141 814.544 347.402C809.594 335.182 813.907 325.893 809.254 323.946C807.597 323.261 805.577 323.817 803.667 324.909C803.92 323.571 804.183 322.212 804.458 320.842C804.93 318.52 805.445 316.145 805.994 313.748C806.762 310.398 807.608 306.984 808.551 303.496C809.122 301.366 809.715 299.216 810.362 297.054C813.512 286.321 817.507 275.074 822.567 263.495C825.409 256.978 828.395 250.825 831.446 245.015C836.824 252.002 841.872 258.894 846.636 265.668V265.678Z" fill="#7099ED"/>
<path d="M839.941 220.007C840.017 224.822 839.974 229.456 839.82 233.908C838.196 234.903 835.649 236.733 833.608 239.836C832.576 241.43 831.94 242.939 831.534 244.181L831.062 244.523C830.348 243.581 829.613 242.618 828.867 241.666C828.263 240.895 827.659 240.125 827.067 239.365C824.016 235.502 820.964 231.746 817.946 228.076C819.988 225.197 822.556 221.976 825.816 218.733C830.535 214.004 835.254 210.558 839.194 208.107L839.469 208.086C839.71 211.928 839.875 215.908 839.941 220.007Z" fill="#7099ED"/>
<path d="M843.987 132.239C843.8 135.554 841.398 138.13 838.65 137.995C835.903 137.86 833.816 135.067 834.013 131.752C834.2 128.446 836.593 125.87 839.35 126.005C842.106 126.14 844.184 128.933 843.987 132.239Z" fill="#262626"/>
<path d="M839 132L833 135V131L839 132Z" fill="white"/>
<path d="M875 134L869 137V133L875 134Z" fill="white"/>
<path d="M831.062 244.523C831.204 244.684 831.325 244.844 831.457 245.026C828.406 250.837 825.42 256.99 822.578 263.507C817.518 275.085 813.523 286.332 810.373 297.065C808.058 296.488 805.314 295.974 802.219 295.685C799.431 295.417 796.918 295.396 794.723 295.503C799.519 278.039 804.041 266.289 809.901 254.721C812.623 249.349 815.148 244.962 817.002 241.912C816.915 243.068 816.838 244.234 816.761 245.379C820.196 243.389 823.631 241.388 827.078 239.387C827.67 240.146 828.274 240.917 828.878 241.687C829.624 242.64 830.359 243.592 831.073 244.545L831.062 244.523Z" fill="#7099ED"/>
<path d="M827.067 239.365C823.62 241.366 820.185 243.367 816.75 245.357C816.827 244.202 816.904 243.035 816.991 241.89C817.266 237.792 817.562 233.704 817.837 229.616C817.858 229.102 817.902 228.589 817.935 228.075C820.954 231.746 824.005 235.502 827.056 239.365H827.067Z" fill="#7099ED"/>
<path d="M747.76 356.21C748.462 355.91 751.908 354.348 755.388 354.519L755.409 354.144C755.728 353.781 757.33 352.058 759.964 351.384C760.908 332.828 764.146 310.548 772.432 286.45C774.901 279.269 777.601 272.549 780.411 266.31L780.663 266.267C780.192 263.025 780.784 259.804 782.474 257.171C785.174 252.966 789.751 251.65 791.145 251.307C795.315 246.545 800.518 241.505 806.938 236.711C810.692 233.918 814.357 231.575 817.837 229.616C817.562 233.693 817.266 237.781 816.992 241.88C815.137 244.951 812.612 249.328 809.891 254.699C804.03 266.267 799.497 278.028 794.712 295.481C794.097 297.718 793.483 300.04 792.857 302.469C792.209 304.962 791.562 307.573 790.903 310.324C790.519 311.886 790.135 313.502 789.762 315.15C789.542 316.113 789.312 317.097 789.092 318.093C787.435 325.487 785.767 333.663 784.208 342.587C782.935 349.789 781.739 357.472 780.663 365.605C771.664 366.397 765.452 367.745 762.862 372.144C762.554 372.668 761.545 374.455 761.775 376.724C762.214 381.015 766.955 384.814 773.815 386.526C770.994 386.975 768.744 388.966 768.108 391.534C767.372 394.552 768.986 397.815 772.059 399.228L772.564 399.207C772.564 400.084 772.63 401.036 772.772 402.053C772.937 403.219 773.343 406.162 774.715 409.126C773.541 411.673 771.038 417.901 771.861 425.949C758.68 425.317 744.632 423.594 729.958 420.288C728.015 419.849 726.095 419.389 724.207 418.918C723.285 419.111 711.07 421.486 704.704 414.177C703.782 413.118 702.739 411.566 702.026 409.351C700.852 408.773 699.732 408.174 698.689 407.575C701.96 407.832 705.988 404.6 706.207 399.496L728.081 395.6C732.296 394.851 735.039 390.828 734.107 386.74L727.335 357.023C730.759 357.933 733.722 358.275 736.225 358.275C737.202 357.365 739.792 355.215 743.37 355.172C744.401 355.161 745.817 355.311 747.815 356.21H747.76Z" fill="#7099ED"/>
<path d="M810.363 297.055C809.715 299.227 809.111 301.367 808.552 303.497C806.313 303.679 804.37 305.016 803.602 306.953C802.636 309.329 803.602 312.207 805.994 313.748C805.446 316.145 804.93 318.521 804.458 320.843C802.263 320.822 799.684 320.629 796.808 320.126C793.856 319.602 791.299 318.874 789.191 318.125L789.06 318.093C789.279 317.098 789.499 316.124 789.729 315.15C790.102 313.502 790.486 311.886 790.87 310.324H790.914C793.976 310.142 795.985 307.777 795.754 305.712C795.59 304.31 794.405 303.079 792.824 302.469C793.45 300.04 794.075 297.718 794.679 295.482C796.885 295.385 799.398 295.407 802.175 295.663C805.281 295.952 808.014 296.477 810.33 297.044L810.363 297.055Z" fill="#383940"/>
<path d="M808.562 303.496C807.629 306.974 806.784 310.398 806.005 313.748C803.601 312.207 802.647 309.328 803.612 306.953C804.381 305.026 806.312 303.678 808.562 303.496Z" fill="#383940"/>
<path d="M804.469 320.843C804.194 322.213 803.92 323.561 803.679 324.909C801.659 326.065 799.76 327.841 798.575 329.361C795.195 333.641 794.481 339.666 796.621 345.402C792.747 344.514 788.873 343.615 785.01 342.727L784.208 342.587C785.778 333.673 787.446 325.487 789.092 318.093L789.224 318.125C791.32 318.874 793.889 319.602 796.841 320.126C799.717 320.618 802.296 320.811 804.491 320.843H804.469Z" fill="#7099ED"/>
<path d="M801.099 364.268C800.693 364.407 800.298 364.546 799.936 364.706C797.016 364.674 792.89 364.728 787.94 365.059C787.292 365.102 786.656 365.145 786.03 365.188C787.731 362.17 789.422 359.163 791.123 356.146C793.889 356.798 796.654 357.44 799.409 358.093C799.837 360.49 800.441 362.555 801.077 364.268H801.099Z" fill="#7099ED"/>
<path d="M799.332 357.579C799.365 357.75 799.387 357.932 799.431 358.093C796.676 357.44 793.91 356.798 791.144 356.145C789.443 359.163 787.753 362.17 786.052 365.188C784.153 365.316 782.353 365.444 780.663 365.605C781.75 357.472 782.946 349.789 784.208 342.587L785.009 342.726C788.884 343.614 792.758 344.513 796.621 345.401C797.071 346.643 797.675 347.873 798.399 349.061C798.191 349.307 798.015 349.618 797.916 349.981C797.631 351.03 798.026 352.196 798.904 352.988C798.937 354.379 799.069 355.92 799.332 357.579Z" fill="#7099ED"/>
<path d="M795.776 305.711C796.007 307.776 793.998 310.141 790.936 310.334H790.892C791.551 307.573 792.198 304.951 792.846 302.469C794.426 303.079 795.611 304.309 795.776 305.711Z" fill="#383940"/>
<path d="M734.062 386.74C734.995 390.817 732.251 394.851 728.037 395.6L706.163 399.495L693.202 401.807L633.079 412.518C628.799 413.278 624.727 410.378 624.2 406.162L622.708 394.23L622.302 390.988C622.938 390.228 624.442 388.238 624.387 385.498C624.387 385.081 624.321 381.871 622.675 381.314C622.203 381.154 621.665 381.239 621.149 381.485L620.622 376.017C621.511 375.172 622.444 374.027 623.147 372.518C623.64 371.469 625.32 367.874 623.619 364.107C623.542 363.914 621.478 359.473 618.317 359.302C618.186 359.291 618.065 359.302 617.933 359.302L617.846 358.906C618.559 358.061 619.645 356.552 620.227 354.444C620.414 353.738 621.906 348.066 618.142 344.256C617.933 344.042 617.242 343.347 616.243 342.715L607.617 273.769C607.09 269.584 610.273 265.818 614.586 265.507L698.481 259.675C702.223 259.408 705.593 261.858 706.405 265.432L727.258 357.001L734.029 386.718L734.062 386.74ZM726.533 388.248L698.953 267.166L615.277 272.987L631.817 405.124L726.533 388.248Z" fill="#7099ED"/>
<path d="M681.809 299.119C675.619 295.706 668.419 294.357 661.187 295.781C644.065 299.141 633.277 316.776 637.074 335.161C640.883 353.534 657.839 365.701 674.961 362.331C692.082 358.96 702.871 341.335 699.073 322.951C696.878 312.335 690.282 303.785 681.809 299.119ZM698.953 267.177L726.533 388.259L631.817 405.135L615.277 272.998L698.953 267.177Z" fill="white"/>
<path d="M706.164 399.496C705.944 404.6 701.916 407.832 698.646 407.575C698.503 407.575 698.349 407.554 698.207 407.522C695.869 407.115 693.849 404.772 693.191 401.808L706.153 399.496H706.164Z" fill="#7099ED"/>
<path d="M681.809 299.12C690.282 303.786 696.878 312.336 699.073 322.951C702.882 341.325 692.082 358.96 674.961 362.331C657.839 365.702 640.883 353.535 637.074 335.161C633.266 316.788 644.065 299.142 661.187 295.781C668.419 294.358 675.619 295.707 681.809 299.12Z" fill="white"/>
<path d="M622.291 390.977L622.697 394.22C622.291 394.038 618.153 392.069 617.637 388.12C617.582 387.671 617.483 386.601 617.879 385.37C617.988 385.038 618.131 384.685 618.328 384.321C618.921 383.23 620.041 381.988 621.16 381.485C621.676 381.239 622.214 381.154 622.686 381.314C624.332 381.871 624.387 385.081 624.398 385.498C624.442 388.238 622.949 390.228 622.312 390.988L622.291 390.977Z" fill="white"/>
<path d="M620.633 376.018L621.16 381.486C620.041 382 618.921 383.23 618.328 384.322C618.131 384.675 617.988 385.028 617.878 385.37C616.452 385.017 610.799 383.423 608.517 378.629C607.331 376.157 607.298 373.375 607.968 370.689C609.438 364.814 614.344 359.485 617.944 359.292C618.076 359.292 618.197 359.292 618.328 359.292C621.489 359.463 623.542 363.904 623.629 364.097C625.331 367.874 623.651 371.459 623.158 372.508C622.455 374.017 621.511 375.162 620.633 376.007V376.018Z" fill="white"/>
<path d="M606.015 348.858C606.508 345.027 608.934 342.17 611.766 341.667C613.511 341.367 615.091 341.999 616.265 342.726C617.275 343.358 617.956 344.053 618.164 344.267C621.929 348.066 620.436 353.749 620.249 354.455C619.668 356.563 618.57 358.061 617.868 358.917L617.956 359.313C614.356 359.506 609.45 364.835 607.979 370.71L607.76 370.656C607.222 370.303 600.329 365.755 600.56 359.217C600.648 356.509 601.965 353.973 602.195 353.513C603.402 351.202 604.994 349.693 606.015 348.869V348.858Z" fill="white"/>
<path d="M814.719 113.478C814.346 118.132 810.208 177.448 838.36 195.18C844.638 199.14 851.783 200.638 851.783 200.638C867.993 204.03 885.499 197.149 896.43 185.549C899.36 182.446 901.632 179.182 903.41 175.961C909.414 165.057 909.633 154.463 909.6 151.113C910.379 151.22 918.556 152.151 923.396 146.64C928.741 140.573 927.226 129.69 921.947 127.036C920.477 126.287 918.863 126.276 917.502 126.49C916.032 126.736 914.846 127.271 914.429 127.464C908.964 130.053 905.989 137.352 907.164 145.805C905.814 146.105 904.464 146.383 903.114 146.672C905.627 139.224 904.672 134.569 903.267 131.669C902.159 129.401 899.229 127.635 899.788 125.324C900.205 123.601 902.071 123.023 902.411 120.786C902.609 119.513 902.214 118.4 901.863 117.694" stroke="#262626" stroke-linecap="round" stroke-linejoin="round"/>
<path d="M844.458 158.255C846.704 158.873 849.485 159.412 852.674 159.581C858.665 159.888 863.538 158.741 866.753 157.677C866.149 162.081 863.516 165.85 859.806 167.122C854.412 168.997 847.042 165.524 844.469 158.258L844.458 158.255Z" stroke="#262626" stroke-linecap="round" stroke-linejoin="round"/>
<path d="M838.349 195.181C838.81 199.29 839.194 203.602 839.469 208.097C839.71 211.939 839.875 215.919 839.941 220.018C840.017 224.833 839.973 229.467 839.82 233.919C839.765 235.534 839.688 237.129 839.611 238.691" stroke="#262626" stroke-linecap="round" stroke-linejoin="round"/>
<path d="M839.194 208.107C835.254 210.558 830.535 213.993 825.816 218.734C822.567 221.987 819.988 225.197 817.946 228.076C820.964 231.746 824.016 235.502 827.067 239.365C827.659 240.125 828.263 240.895 828.867 241.666C829.613 242.618 830.348 243.571 831.062 244.523C831.204 244.684 831.325 244.844 831.457 245.026C836.835 252.014 841.883 258.905 846.647 265.679" stroke="#262626" stroke-linecap="round" stroke-linejoin="round"/>
<path d="M917.239 242.072C916.833 243.174 916.427 244.255 916.021 245.314L915.209 244.822C910.5 242.008 904.936 239.14 898.526 236.625C895.278 235.352 891.799 234.175 888.111 233.147C884.544 232.152 881.12 231.382 877.871 230.804C867.467 242.425 857.051 254.057 846.647 265.678C843.409 280.735 840.413 296.54 837.768 313.052C835.759 325.626 834.069 337.846 832.664 349.703" stroke="#262626" stroke-linecap="round" stroke-linejoin="round"/>
<path d="M903.399 175.854V175.962C903.015 179.29 902.949 184.447 904.991 190.173C905.759 192.356 906.714 194.239 907.647 195.812C913.639 200.028 919.632 204.255 925.624 208.482C925.514 209.295 925.394 210.13 925.251 210.975C924.241 217.535 922.705 224.737 920.444 232.388C919.434 235.77 918.359 238.991 917.239 242.051" stroke="#262626" stroke-linecap="round" stroke-linejoin="round"/>
<path d="M877.871 230.804L907.657 195.812" stroke="#262626" stroke-linecap="round" stroke-linejoin="round"/>
<path d="M925.262 210.975C930.244 214.303 935.227 217.641 940.21 220.969" stroke="#262626" stroke-linecap="round" stroke-linejoin="round"/>
<path d="M1011.46 342.095C1013.13 342.074 1018.31 342.245 1022.72 345.948C1023.9 346.932 1029.82 352.197 1028.17 358.907C1027.02 363.615 1022.89 366.023 1021.91 366.558" stroke="#262626" stroke-linecap="round" stroke-linejoin="round"/>
<path d="M1011.52 445.35C1011.1 448.71 1010.18 453.654 1007.85 459.218C1007.04 461.198 1006.03 463.263 1004.81 465.361C1001.99 470.23 998.171 476.811 990.707 480.824C983.508 484.708 975.781 484.633 969.898 483.627C969.031 483.477 968.197 483.306 967.418 483.124C963.95 482.311 961.404 481.305 960.449 480.899" stroke="#262626" stroke-linecap="round" stroke-linejoin="round"/>
<path d="M1021.57 358.04C1021.56 360.854 1021.53 363.69 1021.46 366.569C1021.38 370.806 1021.24 375.108 1021.04 379.474C1020.29 396.607 1018.7 412.755 1016.6 427.8" stroke="#262626" stroke-linecap="round" stroke-linejoin="round"/>
<path d="M940.869 478.266C941.966 479.379 944.249 481.359 947.739 482.397C952.371 483.777 957.814 483.103 960.449 480.898C965.409 476.779 964.542 463.948 954.247 451.428" stroke="#262626" stroke-linecap="round" stroke-linejoin="round"/>
<path d="M873.173 429.64C869.606 429.009 866.061 430.208 864.152 432.786C861.825 435.933 862.933 439.667 863.131 440.341C863.317 440.994 863.581 441.583 863.888 442.139C865.205 444.6 867.345 446.099 868.344 446.762C873.492 450.261 878.496 453.375 883.314 456.158C893.346 461.947 902.565 466.249 910.555 469.448C927.391 476.19 938.772 477.966 940.868 478.266C941.099 478.298 941.22 478.309 941.22 478.309C944.71 478.715 947.508 478.908 949.001 479.015" stroke="#262626" stroke-linecap="round" stroke-linejoin="round"/>
<path d="M880.604 437.11C878.99 432.979 876.74 426.655 874.809 418.726C871.56 405.446 869.53 397.152 873.755 393.129C875.226 391.716 877.168 391.117 879.649 391.031C881.021 390.978 882.579 391.085 884.313 391.288C885.707 391.459 887.233 391.695 888.868 391.984C889.812 392.144 890.811 392.315 891.842 392.497C896.935 393.396 901.676 394.68 906.077 396.178C910.873 397.816 915.23 399.742 919.171 401.764" stroke="#262626" stroke-linecap="round" stroke-linejoin="round"/>
<path d="M917.228 400.801C918.084 399.827 918.962 399.314 919.774 399.068C922.397 398.254 925.756 399.688 929.323 402.845C932.538 405.702 935.919 409.94 939.091 415.194" stroke="#262626" stroke-linecap="round" stroke-linejoin="round"/>
<path d="M965.058 415.633C960.328 411.491 955.806 408.249 951.833 405.724C950.362 404.782 948.826 403.808 947.3 402.888C945.972 402.064 944.633 401.293 943.316 400.587C938.52 398.019 934.097 396.467 931.496 398.265C930.014 399.282 929.476 401.154 929.301 402.856" stroke="#262626" stroke-linecap="round" stroke-linejoin="round"/>
<path d="M956.025 381.229C949.912 381.571 945.16 384.011 942.284 387.061C940.056 389.436 938.97 392.176 939.266 394.594C939.595 397.162 941.461 399.174 943.327 400.587C945.149 401.956 946.96 402.738 947.311 402.887" stroke="#262626" stroke-linecap="round" stroke-linejoin="round"/>
<path d="M957.54 293.148C951.998 299.023 945.358 307.638 940.66 319.248C934.975 333.299 934.097 346.889 935.14 358.296C936.38 371.994 940.408 382.577 942.285 387.061" stroke="#262626" stroke-linecap="round" stroke-linejoin="round"/>
<path d="M933.241 304.449C930.782 308.73 921.772 325.552 927.797 344.45C929.652 350.293 932.505 354.905 935.128 358.297" stroke="#262626" stroke-linecap="round" stroke-linejoin="round"/>
<path d="M879.638 391.031C874.556 389.415 869.244 387.553 863.713 385.424C858.104 383.251 852.836 381.004 847.919 378.746C847.535 379.495 847.173 380.244 846.8 381.015C844.473 385.734 842.19 390.785 840.006 396.167C836.275 405.349 833.377 414.124 831.138 422.278C830.644 424.065 830.183 425.82 829.755 427.543C833.388 429.876 837.57 432.251 842.322 434.499C850.235 438.233 857.611 440.598 863.877 442.15" stroke="#262626" stroke-linecap="round" stroke-linejoin="round"/>
<path d="M824.718 362.138C819.933 356.552 817.266 353.202 815.477 349.478C815.137 348.772 814.829 348.077 814.566 347.392C809.616 335.171 813.929 325.883 809.276 323.935C807.619 323.25 805.599 323.807 803.689 324.898C801.67 326.054 799.771 327.83 798.586 329.35C795.206 333.63 794.492 339.655 796.632 345.391C797.082 346.632 797.686 347.863 798.41 349.05" stroke="#262626" stroke-linecap="round" stroke-linejoin="round"/>
<path d="M846.811 381.015C844.352 379.795 841.016 377.923 837.449 375.173C834.376 372.808 831.72 370.261 827.813 365.724C826.693 364.429 825.672 363.241 824.729 362.139" stroke="#262626" stroke-linecap="round" stroke-linejoin="round"/>
<path d="M800.144 347.916C800.089 347.937 799.058 348.226 798.388 349.061C798.18 349.307 798.004 349.617 797.905 349.981C797.62 351.03 798.015 352.196 798.893 352.988C799.134 353.213 799.431 353.406 799.738 353.545" stroke="#262626" stroke-linecap="round" stroke-linejoin="round"/>
<path d="M801.099 364.267C800.462 362.555 799.848 360.49 799.431 358.093C799.387 357.932 799.365 357.75 799.332 357.579C799.057 355.91 798.937 354.369 798.904 352.988" stroke="#262626" stroke-linecap="round" stroke-linejoin="round"/>
<path d="M808.244 363.594C807.048 363.433 805.511 363.358 803.777 363.615C802.811 363.754 801.922 363.99 801.099 364.257C800.693 364.396 800.298 364.535 799.936 364.696C797.675 365.648 796.073 366.943 795.206 367.724" stroke="#262626" stroke-linecap="round" stroke-linejoin="round"/>
<path d="M799.935 364.706C797.016 364.674 792.889 364.728 787.94 365.059C787.292 365.102 786.655 365.145 786.03 365.188C784.131 365.316 782.331 365.445 780.641 365.605C771.641 366.397 765.429 367.745 762.839 372.144C762.532 372.668 761.522 374.455 761.753 376.724C762.192 381.015 766.933 384.814 773.792 386.526" stroke="#262626" stroke-linecap="round" stroke-linejoin="round"/>
<path d="M773.793 386.525C770.972 386.975 768.722 388.965 768.085 391.534C767.35 394.551 768.963 397.815 772.037 399.228" stroke="#262626" stroke-linecap="round" stroke-linejoin="round"/>
<path d="M772.893 394.83C772.695 395.954 772.519 397.441 772.541 399.207C772.541 400.084 772.607 401.037 772.75 402.053C772.915 403.22 773.321 406.162 774.693 409.127C775.351 410.561 776.251 412.005 777.447 413.247C780.07 415.943 783.418 416.949 787.643 417.367C789.838 417.591 792.264 417.645 794.942 417.698C800.012 417.805 807.805 417.367 817.123 414.434" stroke="#262626" stroke-linecap="round" stroke-linejoin="round"/>
<path d="M810.516 412.904C813.501 413.183 815.718 413.889 817.112 414.424C819.943 415.526 821.326 416.703 825.464 419.143C827.911 420.588 829.931 421.658 831.138 422.268" stroke="#262626" stroke-linecap="round" stroke-linejoin="round"/>
<path d="M1011.15 414.702C1013.54 419.122 1015.36 423.541 1016.6 427.79C1019.82 438.919 1019 448.924 1013.42 455.088C1012.1 456.533 1010.32 457.999 1007.85 459.219" stroke="#262626" stroke-linecap="round" stroke-linejoin="round"/>
<path d="M1000.15 424.975C1001.44 425.949 1004.17 428.292 1005.78 432.284C1007.08 435.547 1008.28 441.519 1006.28 442.963C1004.25 444.408 997.863 441.915 977.91 422.749" stroke="#262626" stroke-linecap="round" stroke-linejoin="round"/>
<path d="M816.991 241.891C816.904 243.046 816.827 244.213 816.75 245.358C820.185 243.367 823.62 241.366 827.067 239.365" stroke="#262626" stroke-linecap="round" stroke-linejoin="round"/>
<path d="M817.946 228.075C817.913 228.589 817.869 229.102 817.847 229.616C817.573 233.693 817.276 237.781 817.002 241.88" stroke="#262626" stroke-linecap="round" stroke-linejoin="round"/>
<path d="M883.095 261.323C885.63 259.686 889.768 256.55 893.203 251.318C897.111 245.378 898.175 239.664 898.515 236.625" stroke="#262626" stroke-linecap="round" stroke-linejoin="round"/>
<path d="M853.001 264.555C855.745 264.576 859.29 264.341 863.285 263.356C869.036 261.944 873.393 259.557 876.181 257.717" stroke="#262626" stroke-linecap="round" stroke-linejoin="round"/>
<path d="M830.743 258.562C832.214 260.103 834.156 261.901 836.67 263.635C839.073 265.315 841.367 266.513 843.288 267.359" stroke="#262626" stroke-linecap="round" stroke-linejoin="round"/>
<path d="M919.577 118.561C919.324 119.973 918.973 121.493 918.534 123.087C918.205 124.296 917.854 125.42 917.48 126.501" stroke="#262626" stroke-linecap="round" stroke-linejoin="round"/>
<path d="M919.577 118.561L930.058 119.064L931.189 110.406C928.642 109.657 926.963 107.314 927.095 104.724L928.708 73.9694C930.409 41.6308 904.837 14.1183 871.659 12.5881C855.932 11.8604 841.258 17.136 830.063 26.3925C818.857 35.6489 811.131 48.9075 809.287 64.1458L806.027 91.1446C805.182 98.1966 799.113 103.558 791.836 103.686L786.568 103.793L786.217 112.076L814.709 113.467L901.852 117.694L919.566 118.561H919.577Z" stroke="#262626" stroke-linecap="round" stroke-linejoin="round"/>
<path d="M860.892 37.7568C852.364 53.8512 853.846 72.5995 864.558 85.1518C874.82 97.1905 889.592 98.9134 893.137 99.2344" stroke="#262626" stroke-linecap="round" stroke-linejoin="round"/>
<path d="M834.321 40.4854C834.584 46.6813 834.211 56.965 829.777 68.6398C824.718 81.9734 816.805 90.7482 812.096 95.2641" stroke="white" stroke-linecap="round" stroke-linejoin="round"/>
<path d="M913.047 140.037C912.992 139.727 912.586 137.041 914.638 134.912C915.231 134.302 915.856 133.895 916.493 133.606C918.062 132.9 919.533 133.007 919.763 133.028" stroke="#262626" stroke-linecap="round" stroke-linejoin="round"/>
<path d="M853.242 140.776C851.947 140.038 850.334 140.22 849.368 141.183C848.238 142.306 848.227 144.275 849.489 145.538" stroke="#262626" stroke-miterlimit="10" stroke-linecap="round"/>
<path d="M814.555 347.393C820.569 348.142 826.616 348.912 832.664 349.704C834.036 349.875 835.397 350.057 836.769 350.239C849.664 351.94 862.44 353.728 875.083 355.59C885.553 357.131 895.936 358.714 906.231 360.352C905.452 365.756 904.892 371.994 904.892 378.929C904.892 385.317 905.375 391.106 906.055 396.179" stroke="#262626" stroke-miterlimit="10" stroke-linecap="round"/>
<path d="M906.231 360.351C906.802 349.661 907.822 339.87 909.063 331.063C909.556 327.478 910.094 324.043 910.654 320.79C911.192 317.643 911.752 314.669 912.322 311.843C912.882 309.093 913.442 306.504 913.99 304.075C914.045 303.828 914.1 303.593 914.155 303.336C920.137 276.851 930.036 233.94 951.734 230.526C953.512 230.248 955.027 230.291 956.048 230.366" stroke="#262626" stroke-linecap="round" stroke-linejoin="round"/>
<path d="M917.239 242.072C917.239 242.072 917.25 242.072 917.25 242.051C919.807 238.124 928.862 225.272 942.834 224.319C942.899 224.319 942.976 224.319 943.042 224.309C945.599 224.159 948.146 224.919 950.242 226.363L951.208 227.027L956.048 230.376C978.821 244.587 992.507 260.596 1000.01 270.933C1004.66 277.311 1011.44 286.792 1016.54 300.885C1023.28 319.473 1023.44 335.921 1022.72 345.948" stroke="#262626" stroke-linecap="round" stroke-linejoin="round"/>
<path d="M875.083 355.578C875.895 347.959 877.322 337.868 879.945 326.118C880.549 323.475 881.207 320.757 881.921 317.964C882.008 317.622 882.096 317.268 882.195 316.915C882.821 314.475 883.545 311.886 884.357 309.146C885.147 306.503 886.036 303.721 887.013 300.832C891.162 288.547 897.165 274.165 906.066 258.926C909.293 253.404 912.333 248.739 915.187 244.812" stroke="#262626" stroke-linecap="round" stroke-linejoin="round"/>
<path d="M951.207 227.037C950.615 226.085 948.486 222.949 944.293 221.59C942.866 221.12 941.472 220.959 940.199 220.98C936.16 221.034 933.142 222.992 932.681 223.303" stroke="#262626" stroke-linecap="round" stroke-linejoin="round"/>
<path d="M616.265 342.726L607.639 273.779C607.112 269.595 610.295 265.828 614.608 265.518L698.503 259.686C702.245 259.418 705.615 261.869 706.427 265.443L727.28 357.012L734.051 386.729C734.984 390.806 732.24 394.84 728.026 395.589L706.152 399.485L693.191 401.796L633.068 412.508C628.788 413.268 624.716 410.368 624.189 406.151L622.697 394.22L622.291 390.977L622.17 390.014" stroke="#262626" stroke-linecap="round" stroke-linejoin="round"/>
<path d="M615.277 272.987L698.953 267.166L726.533 388.249L631.817 405.124L615.277 272.987Z" stroke="#262626" stroke-linecap="round" stroke-linejoin="round"/>
<path d="M887.002 300.843C891.469 300.543 896.825 300.533 902.829 301.239C907.043 301.742 910.83 302.502 914.133 303.358" stroke="#262626" stroke-linecap="round" stroke-linejoin="round"/>
<path d="M879.956 326.129C882.36 326.857 884.906 327.52 887.573 328.13C895.256 329.874 902.378 330.72 908.733 331.03" stroke="#262626" stroke-linecap="round" stroke-linejoin="round"/>
<path d="M884.357 309.157C887.661 309.821 889.955 311.704 889.922 313.234C889.878 314.989 886.783 317.237 882.195 316.915" stroke="#F4F3F1" stroke-linecap="round" stroke-linejoin="round"/>
<path d="M912.322 311.854C907.581 310.806 903.805 312.839 903.41 314.765C903.004 316.723 905.748 320.062 910.654 320.79" stroke="#F4F3F1" stroke-linecap="round" stroke-linejoin="round"/>
<path d="M831.457 245.025C828.405 250.836 825.42 256.989 822.578 263.506C817.518 275.085 813.523 286.331 810.373 297.065C809.726 299.226 809.122 301.377 808.562 303.507C807.629 306.985 806.784 310.409 806.005 313.758C805.456 316.155 804.94 318.531 804.468 320.853C804.194 322.223 803.92 323.571 803.678 324.92" stroke="#262626" stroke-linecap="round" stroke-linejoin="round"/>
<path d="M794.701 295.481C794.086 297.718 793.471 300.04 792.846 302.469C792.198 304.963 791.551 307.574 790.892 310.324C790.508 311.886 790.124 313.502 789.751 315.15C789.531 316.113 789.301 317.098 789.081 318.093C787.424 325.487 785.756 333.663 784.197 342.587C782.924 349.789 781.728 357.473 780.652 365.605" stroke="#262626" stroke-linecap="round" stroke-linejoin="round"/>
<path d="M816.991 241.88C815.136 244.951 812.612 249.328 809.89 254.7C804.029 266.268 799.497 278.028 794.711 295.481" stroke="#262626" stroke-linecap="round" stroke-linejoin="round"/>
<path d="M784.999 342.716C788.873 343.604 792.747 344.503 796.61 345.391" stroke="#262626" stroke-linecap="round" stroke-linejoin="round"/>
<path d="M794.701 295.482C796.907 295.385 799.42 295.407 802.197 295.663C805.303 295.952 808.036 296.477 810.351 297.044" stroke="#262626" stroke-linecap="round" stroke-linejoin="round"/>
<path d="M789.213 318.125C791.309 318.874 793.877 319.602 796.83 320.126C799.705 320.618 802.284 320.811 804.479 320.843" stroke="#262626" stroke-linecap="round" stroke-linejoin="round"/>
<path d="M808.562 303.496C806.323 303.678 804.38 305.016 803.612 306.953C802.646 309.328 803.612 312.207 806.005 313.748" stroke="#F4F3F1" stroke-linecap="round" stroke-linejoin="round"/>
<path d="M792.846 302.469C794.426 303.079 795.611 304.309 795.776 305.711C796.007 307.776 793.998 310.141 790.936 310.334" stroke="#F4F3F1" stroke-linecap="round" stroke-linejoin="round"/>
<path d="M791.144 251.308C789.18 253.544 787.446 255.727 785.909 257.782" stroke="#262626" stroke-linecap="round" stroke-linejoin="round"/>
<path d="M817.847 229.616C814.379 231.585 810.702 233.929 806.949 236.711C800.528 241.505 795.326 246.545 791.155 251.307" stroke="#262626" stroke-linecap="round" stroke-linejoin="round"/>
<path d="M791.155 251.308C789.751 251.65 785.185 252.966 782.485 257.172C780.795 259.815 780.202 263.025 780.674 266.268C781.102 269.221 782.408 272.207 784.592 274.786" stroke="#262626" stroke-linecap="round" stroke-linejoin="round"/>
<path d="M780.4 266.311C777.59 272.549 774.89 279.27 772.421 286.45C764.146 310.549 760.897 332.828 759.953 351.384" stroke="#262626" stroke-linecap="round" stroke-linejoin="round"/>
<path d="M769.315 354.551C769.041 354.22 766.297 350.913 761.786 351.106C761.128 351.127 760.513 351.234 759.953 351.384C757.319 352.058 755.728 353.77 755.398 354.145" stroke="#262626" stroke-linecap="round" stroke-linejoin="round"/>
<path d="M742.118 357.623C740.516 358.008 738.54 358.286 736.17 358.275C733.667 358.275 730.715 357.933 727.28 357.023" stroke="#262626" stroke-linecap="round" stroke-linejoin="round"/>
<path d="M765.605 359.217C764.211 358.233 762.071 356.852 759.195 355.557C758.932 355.44 758.438 355.204 758.076 355.065C757.209 354.733 756.298 354.573 755.387 354.519C751.908 354.359 748.462 355.911 747.759 356.21" stroke="#262626" stroke-linecap="round" stroke-linejoin="round"/>
<path d="M693.202 401.807C693.86 404.781 695.869 407.125 698.217 407.521C698.36 407.542 698.514 407.564 698.656 407.574C701.927 407.831 705.955 404.6 706.174 399.495" stroke="#262626" stroke-linecap="round" stroke-linejoin="round"/>
<path d="M698.646 407.575C699.688 408.174 700.808 408.774 701.982 409.352C702.904 409.812 703.881 410.25 704.89 410.689C705.703 411.032 706.515 411.353 707.316 411.652" stroke="#262626" stroke-linecap="round" stroke-linejoin="round"/>
<path d="M701.982 409.352C702.695 411.567 703.738 413.108 704.66 414.178C711.015 421.487 723.241 419.111 724.163 418.918" stroke="#262626" stroke-linecap="round" stroke-linejoin="round"/>
<path d="M717.182 402.866C716.491 402.898 713.989 403.112 712.408 404.985C710.411 407.361 710.674 411.523 713.561 414.659" stroke="#262626" stroke-linecap="round" stroke-linejoin="round"/>
<path d="M724.163 418.907C726.061 419.378 727.971 419.838 729.914 420.277C744.588 423.584 758.647 425.306 771.817 425.938" stroke="#262626" stroke-linecap="round" stroke-linejoin="round"/>
<path d="M774.682 409.127C773.507 411.674 771.005 417.902 771.828 425.949C771.883 426.527 771.96 427.115 772.059 427.715C772.146 428.228 772.234 428.742 772.344 429.234C774.265 438.544 779.84 444.333 781.848 446.249" stroke="#262626" stroke-linecap="round" stroke-linejoin="round"/>
<path d="M772.333 429.223C770.928 431.427 769.227 434.691 768.371 438.864C762.675 466.826 803.986 495.323 810.955 500.106C845.351 523.831 897.198 536.051 941.9 517.068C951.613 512.937 959.022 508.175 963.829 504.719" stroke="#262626" stroke-linecap="round" stroke-linejoin="round"/>
<path d="M786.03 365.188C787.731 362.17 789.422 359.163 791.123 356.146C793.889 356.798 796.654 357.44 799.409 358.093" stroke="#262626" stroke-linecap="round" stroke-linejoin="round"/>
<path d="M824.718 362.139C831.04 363.337 837.471 364.482 844.023 365.563C859.992 368.217 875.489 370.282 890.405 371.887L884.291 391.288" stroke="#262626" stroke-linecap="round" stroke-linejoin="round"/>
<path d="M890.415 371.887C889.889 378.586 889.373 385.284 888.857 391.973" stroke="#262626" stroke-linecap="round" stroke-linejoin="round"/>
<path d="M787.643 417.366C786.93 423.798 786.48 430.903 786.491 438.597C786.524 449.651 787.523 459.582 788.916 468.143C796.698 475.205 807.991 483.841 823.126 490.883C849.675 503.264 874.183 504.312 887.77 503.874C886.179 493.74 884.906 482.9 884.105 471.449C883.731 466.227 883.479 461.134 883.325 456.168" stroke="#262626" stroke-linecap="round" stroke-linejoin="round"/>
<path d="M779.137 378.394C778.995 378.907 778.238 381.657 779.873 384.418C781.201 386.655 783.286 387.522 783.923 387.757" stroke="#262626" stroke-linecap="round" stroke-linejoin="round"/>
<path d="M778.15 393.396C777.217 395.054 777.184 396.927 778.117 398.286C778.688 399.11 779.467 399.527 779.939 399.731" stroke="#262626" stroke-linecap="round" stroke-linejoin="round"/>
<path d="M812.162 337.879C810.977 338.35 809.671 338.286 808.804 337.612C807.52 336.616 807.289 334.326 808.738 332.604" stroke="#262626" stroke-linecap="round" stroke-linejoin="round"/>
<path d="M759.975 367.948C758.504 365.701 753.895 358.981 747.76 356.209C745.762 355.311 744.346 355.161 743.315 355.171C739.737 355.214 737.157 357.365 736.17 358.275H736.159" stroke="#262626" stroke-linecap="round" stroke-linejoin="round"/>
<path d="M749.823 366.922C751.688 369.693 754.268 374.199 755.749 380.213C756.715 384.172 759.031 393.567 755.233 395.9C752.325 397.677 746.376 395.001 740.999 389.726" stroke="#262626" stroke-linecap="round" stroke-linejoin="round"/>
<path d="M786.908 290.023C786.282 293.244 785.745 297.974 786.491 303.592C787.128 308.44 788.521 312.378 789.751 315.15" stroke="#262626" stroke-linecap="round" stroke-linejoin="round"/>
<path d="M920.653 137.437C920.257 137.395 918.831 137.191 917.7 136.004C916.8 135.073 916.57 134.045 916.482 133.617" stroke="#262626" stroke-linecap="round" stroke-linejoin="round"/>
<path d="M622.708 394.22C622.302 394.038 618.164 392.069 617.648 388.12C617.593 387.671 617.495 386.601 617.89 385.37C617.999 385.038 618.142 384.685 618.34 384.321C618.932 383.23 620.052 381.988 621.171 381.485C621.687 381.239 622.225 381.154 622.697 381.314C624.343 381.871 624.398 385.081 624.409 385.498C624.453 388.238 622.96 390.228 622.324 390.988" stroke="#262626" stroke-linecap="round" stroke-linejoin="round"/>
<path d="M618.581 377.634C619.064 377.334 619.832 376.799 620.633 376.028C621.522 375.183 622.455 374.038 623.158 372.529C623.651 371.48 625.331 367.885 623.629 364.118C623.553 363.925 621.489 359.485 618.328 359.313C618.197 359.303 618.076 359.313 617.944 359.313C614.344 359.506 609.438 364.835 607.968 370.71C607.298 373.385 607.331 376.178 608.517 378.65C610.81 383.434 616.452 385.028 617.878 385.392" stroke="#262626" stroke-linecap="round" stroke-linejoin="round"/>
<path d="M612.095 366.836C612.556 367.703 613.302 368.901 614.443 370.132C615.508 371.277 616.134 371.94 616.924 372.058C618.526 372.304 620.447 370.335 621.797 367.35" stroke="#262626" stroke-linecap="round" stroke-linejoin="round"/>
<path d="M617.868 358.906C618.581 358.061 619.668 356.552 620.249 354.444C620.436 353.738 621.929 348.066 618.164 344.257C617.956 344.043 617.264 343.347 616.265 342.716C615.102 341.988 613.522 341.346 611.765 341.656C608.934 342.159 606.508 345.016 606.014 348.847C605.927 349.372 605.905 349.917 605.916 350.485" stroke="#262626" stroke-linecap="round" stroke-linejoin="round"/>
<path d="M606.003 348.858C604.994 349.682 603.402 351.191 602.184 353.503C601.953 353.952 600.647 356.488 600.549 359.206C600.318 365.745 607.211 370.303 607.748 370.646" stroke="#262626" stroke-linecap="round" stroke-linejoin="round"/>
<path d="M607.573 351.919C607.704 352.315 607.869 352.754 608.1 353.192C608.901 354.744 610.031 355.761 610.854 356.36C611.271 356.328 612.885 356.124 614.169 354.798C615.179 353.749 615.442 352.561 615.519 352.101" stroke="#262626" stroke-linecap="round" stroke-linejoin="round"/>
<path d="M620.633 376.018L621.16 381.486" stroke="#262626" stroke-linecap="round" stroke-linejoin="round"/>
<path d="M699.073 322.95C702.882 341.324 692.082 358.96 674.961 362.33C657.839 365.701 640.883 353.534 637.074 335.16C633.266 316.787 644.065 299.141 661.187 295.78C668.419 294.357 675.619 295.706 681.809 299.119C690.282 303.785 696.878 312.335 699.073 322.95Z" stroke="#7099ED" stroke-width="6" stroke-miterlimit="10"/>
<path d="M652.582 326.632L667.518 339.284C668.628 340.224 670.34 339.702 670.735 338.302L681.809 299.12L684.037 291.212" stroke="#7099ED" stroke-width="6" stroke-miterlimit="10" stroke-linecap="round"/>
<path d="M840.094 121.214C839.227 120.968 837.35 120.562 835.254 121.246C830.765 122.723 829.711 127.763 829.667 127.999" stroke="#262626" stroke-linecap="round" stroke-linejoin="round"/>
<path d="M873.744 122.926C874.161 122.755 876.883 121.642 879.473 123.001C880.483 123.536 881.13 124.264 881.493 124.788" stroke="#262626" stroke-linecap="round" stroke-linejoin="round"/>
<path d="M831.533 244.18C831.939 242.939 832.576 241.43 833.608 239.835C835.649 236.732 838.184 234.902 839.819 233.907C839.83 233.907 839.852 233.886 839.863 233.875" stroke="#262626" stroke-linecap="round" stroke-linejoin="round"/>
</g>
</g>
<defs>
<clipPath id="clip0_6529_18620">
<rect width="1200" height="460" rx="32" fill="white"/>
</clipPath>
<clipPath id="clip1_6529_18620">
<rect width="431" height="590" fill="white" transform="translate(618 29)"/>
</clipPath>
<clipPath id="clip2_6529_18620">
<rect width="429" height="575" fill="white" transform="translate(600 12)"/>
</clipPath>
</defs>
</svg>
