<svg width="24" height="23" viewBox="0 0 24 23" fill="none" xmlns="http://www.w3.org/2000/svg">
<rect width="24" height="24" rx="4" fill="#F4F3F1"/>
<path d="M18.8501 6.15039L18.2924 15.173C18.1498 17.4782 18.0786 18.6308 17.5008 19.4595C17.2151 19.8692 16.8473 20.215 16.4207 20.4748C15.558 21.0004 14.4032 21.0004 12.0935 21.0004C9.78091 21.0004 8.62457 21.0004 7.76124 20.4738C7.33442 20.2135 6.9665 19.8671 6.68091 19.4567C6.10329 18.6267 6.0336 17.4725 5.89425 15.1641L5.3501 6.15039" fill="#7099ED"/>
<path d="M18.8501 6.15039L18.2924 15.173C18.1498 17.4782 18.0786 18.6308 17.5008 19.4595C17.2151 19.8692 16.8473 20.215 16.4207 20.4748C15.558 21.0004 14.4032 21.0004 12.0935 21.0004C9.78091 21.0004 8.62457 21.0004 7.76124 20.4738C7.33442 20.2135 6.9665 19.8671 6.68091 19.4567C6.10329 18.6267 6.0336 17.4725 5.89425 15.1641L5.3501 6.15039" stroke="#7099ED" stroke-width="1.5" stroke-linecap="round"/>
<path d="M4 6.15H20.2M15.7501 6.15L15.1358 4.88256C14.7276 4.04063 14.5235 3.61967 14.1715 3.35713C14.0935 3.29889 14.0108 3.24709 13.9243 3.20223C13.5345 3 13.0667 3 12.1311 3C11.1719 3 10.6924 3 10.2961 3.21071C10.2083 3.25741 10.1245 3.31131 10.0456 3.37185C9.68948 3.64503 9.49057 4.08139 9.09275 4.95413L8.54763 6.15" stroke="#7099ED" stroke-width="1.5" stroke-linecap="round"/>
<path d="M9.8501 16.0504V10.6504" stroke="white" stroke-width="1.5" stroke-linecap="round"/>
<path d="M14.3501 16.0504V10.6504" stroke="white" stroke-width="1.5" stroke-linecap="round"/>
</svg>
