<svg width="192" height="255" viewBox="0 0 192 255" fill="none" xmlns="http://www.w3.org/2000/svg">
<g clip-path="url(#clip0_6822_19907)">
<path d="M37.2685 39.1212C37.2932 41.9096 37.6503 44.7315 38.3576 47.5442L42.6635 64.6448C42.87 65.4631 42.5637 66.3286 41.874 66.8632L43.3392 70.7081L49.9306 68.3836L70.6981 61.0671L113.69 45.917L127.162 41.1682L126.165 36.2985C125.514 36.4561 124.856 36.5348 124.21 36.5405C120.908 36.5698 117.818 34.7138 116.487 31.7183L113.172 24.2263C105.039 5.8899 83.2199 -3.20609 63.4736 3.51204C47.3695 8.98891 37.1301 23.4905 37.2685 39.1212Z" fill="#F4F3F1"/>
<path d="M44.702 64.4732L64.1348 56.8008" stroke="white"/>
<path d="M143.958 203.73L143.959 203.852C143.683 203.988 142.751 204.488 142.356 205.543C141.949 206.628 142.38 207.596 142.497 207.862C142.744 208.419 143.405 209.446 146.445 210.415C146.18 210.509 145.663 210.738 145.335 211.239C144.9 211.905 145.058 212.639 145.108 212.888C145.511 214.798 148.951 215.946 153.269 217.348C155.516 218.075 156.338 218.207 156.815 218.221C156.924 218.227 157.009 218.226 157.039 218.219C157.739 218.213 158.626 218.09 159.655 217.68C159.986 217.549 160.334 217.388 160.695 217.191C161.172 217.156 161.745 217.096 162.39 216.999C164.718 216.645 167.964 215.747 170.975 213.448C175.72 209.822 179.02 203.353 177.46 197.692C177.391 197.437 177.317 197.207 177.236 196.983C176.982 196.293 176.651 195.682 176.141 194.733C172.704 188.372 167.274 184.878 163.815 182.904C163.487 182.718 163.178 182.545 162.893 182.383C160.441 181.014 156.803 179.296 152.153 178.584C148.005 177.953 146.465 178.635 145.608 179.408C144.884 180.064 143.996 181.372 144.267 182.7C144.803 185.32 149.357 185.407 154.112 188.427C156.104 189.704 158.531 191.742 160.699 195.161C159.618 195.159 158.314 195.176 156.835 195.208C153.164 195.295 149.82 195.379 145.972 195.869C137.805 196.925 136.62 198.121 136.205 199.017C136.134 199.182 135.679 200.213 136.11 201.23C136.542 202.253 137.916 203.346 143.958 203.73Z" fill="white"/>
<path d="M162.39 217C162.658 217.933 163.183 219.253 164.269 220.538C166.618 223.33 170.94 225.169 175.369 224.145C181.172 222.806 183.106 217.467 183.288 216.924C183.288 216.918 183.288 216.912 183.294 216.912C184.362 210.7 183.431 203.819 179.684 199.313C178.738 198.174 177.783 197.398 177.236 196.984C177.316 197.208 177.391 197.438 177.46 197.693C179.019 203.353 175.719 209.822 170.975 213.449C167.964 215.748 164.717 216.645 162.39 217Z" fill="white"/>
<path d="M87.1547 203.05L87.1607 203.05C87.7624 202.802 92.9297 200.587 93.1331 196.964C93.1901 195.901 92.8015 194.975 92.2648 193.685C91.9501 192.935 91.1744 191.247 88.9359 188.727C87.0634 186.605 85.3058 185.199 83.8954 184.124L83.9313 184.081C85.3528 184.366 87.0032 184.588 88.8394 184.645C93.1096 184.771 96.6408 183.938 99.0671 183.139L99.6644 173.534L99.1931 173.502C96.9351 173.547 92.7635 173.638 87.4926 173.715C75.4658 173.901 72.9591 173.808 69.708 175.574C64.8824 178.193 62.6629 182.587 61.844 184.204C61.3158 185.241 60.9023 186.284 60.5732 187.301C59.5216 190.604 59.3798 193.691 59.338 195.781C59.3399 196.006 59.3298 196.219 59.3254 196.413C59.3174 196.869 59.3212 197.3 59.3308 197.701C58.2387 199.837 56.4224 202.703 53.4333 205.421C52.0736 206.66 50.7236 207.638 49.4986 208.408C48.604 210.348 46.0564 216.549 48.5745 223.38C49.9109 227.007 52.8473 231.295 56.3028 233.506C57.8405 232.593 59.4131 231.528 60.9963 230.299C64.8105 227.337 67.7648 224.097 70.0498 220.978C71.4519 219.07 72.6008 217.207 73.5456 215.48C76.859 217.334 80.3428 217.291 81.9287 215.679C83.1255 214.459 83.0721 212.521 83.0465 211.677C83.019 210.614 82.7695 209.717 82.4182 208.912C85.1344 208.791 86.1939 207.737 86.5345 207.339C87.4968 206.219 87.5554 204.657 87.1547 203.05Z" fill="white"/>
<path d="M110.34 94.3918C111.184 93.5763 112.088 92.6083 112.917 91.5135C124.109 76.7787 114.973 49.5993 113.79 46.2015L113.691 45.9169L70.6989 61.067C70.0109 61.7839 66.183 65.9248 66.7609 71.8614C67.1258 75.5642 69.0265 78.1294 69.9297 79.2028C67.5863 79.825 65.2429 80.4533 62.8995 81.0756C62.9132 80.5773 62.9451 76.6766 59.7304 74.3721C59.2442 74.024 57.6949 72.9503 55.5455 72.9815C54.3441 73.0042 53.1939 73.3607 52.1847 73.9468C50.6468 74.8414 49.4396 76.2616 48.8977 77.7974C47.5664 81.5698 50.3382 85.6826 53.7591 87.396C56.543 88.7869 59.3837 88.4093 61.0885 87.9447C62.6419 91.5275 64.2886 96.7864 64.1701 103.173C64.1337 105.196 63.9268 107.063 63.6216 108.737C65.6342 111.671 68.0958 114.845 71.1135 118.081C77.0573 124.45 83.2082 128.976 88.3083 132.121L88.2489 132.231C90.5068 133.541 93.7234 136.064 100.57 140.038C102.992 141.444 105.018 142.544 106.329 143.237C106.597 142.834 106.877 142.406 107.157 141.954C108.788 139.315 110.526 135.764 111.543 131.38C111.724 130.613 111.868 129.865 111.976 129.141C110.56 124.001 109.263 117.318 109.139 109.463C109.126 108.655 109.125 107.86 109.136 107.082C109.203 102.3 109.696 98.0366 110.346 94.4039L110.346 94.3917L110.34 94.3918ZM85.1437 73.4483L82.0912 70.3647L83.9977 69.5034C83.9112 69.2793 83.8427 69.0491 83.7863 68.8126C83.2908 66.7271 83.9742 64.8012 85.3182 64.5159C86.6561 64.2246 88.1424 65.6817 88.6439 67.7611C89.1394 69.8466 88.456 71.7725 87.118 72.0578C86.5877 72.1718 86.0368 72.0127 85.5324 71.6587L85.1437 73.4483ZM89.3578 80.8715L89.1124 79.0633L103.126 78.9391L103.135 79.9718C103.168 83.5986 100.096 86.5663 96.2803 86.6001C94.5293 86.6156 92.9056 86.0103 91.6707 84.9823C90.7036 84.1829 89.9696 83.1323 89.5966 81.9205C89.4849 81.5813 89.4033 81.2357 89.3578 80.8715ZM107.032 67.8473L103.858 64.7101L105.348 63.9253C105.237 63.659 105.144 63.3743 105.075 63.0772C104.58 60.9977 105.263 59.0719 106.601 58.7866C107.939 58.4953 109.431 59.9462 109.927 62.0318C110.428 64.1173 109.745 66.0371 108.401 66.3285C108.015 66.4109 107.622 66.3536 107.24 66.1747L107.032 67.8473Z" fill="white"/>
<path d="M40.8415 130.177C39.8489 131.28 38.7845 132.462 37.6546 133.735C38.3283 133.444 38.9733 133.317 39.5953 133.323C46.1896 133.374 51.6418 148.32 55.476 163.292L55.482 163.292C57.4895 162.236 59.5997 161.19 61.8128 160.168C67.0147 157.765 72.0155 155.843 76.6876 154.295C76.1756 153.078 75.6212 151.838 75.0244 150.586C73.8798 148.172 72.6825 145.934 71.4807 143.867C70.8576 145.106 70.4494 146.051 70.2897 146.429C68.9785 144.29 67.708 141.963 66.5262 139.433C63.5596 133.099 61.8388 126.978 60.878 121.446C60.2045 120.401 59.0379 118.904 57.1366 117.633C56.2558 117.046 55.4008 116.634 54.6615 116.337C50.4202 120.165 45.6968 124.776 40.8415 130.177Z" fill="#7099ED"/>
<path d="M49.9307 68.3829L50.0112 68.607C50.3024 69.4428 50.6301 70.3148 50.9882 71.2047C51.3587 72.1248 51.7408 73.0024 52.1226 73.8313L52.184 73.9462C53.1932 73.3601 54.3434 73.0036 55.5448 72.9808C57.6942 72.9497 59.2435 74.0234 59.7297 74.3715C62.9444 76.676 62.9125 80.5767 62.8988 81.075C65.2422 80.4527 67.5856 79.8244 69.929 79.2022C69.0258 78.1288 67.1251 75.5636 66.7602 71.8608C66.1823 65.9242 70.0102 61.7833 70.6982 61.0664L49.9307 68.3829Z" fill="#231F20"/>
<path d="M55.4818 163.292L55.4758 163.292C55.8133 164.589 56.1328 165.887 56.4401 167.172C56.8194 167.053 59.8181 166.103 60.314 166.87C60.7119 167.474 59.4578 169.053 57.2752 170.792C57.602 172.229 57.9104 173.647 58.2004 175.024C61.648 172.952 65.4761 170.877 69.6917 168.92C73.3118 167.235 76.8678 165.8 80.317 164.579L80.2426 164.367C79.9437 163.337 79.6202 162.27 79.2604 161.186C76.874 161.73 75.0002 161.515 74.7774 160.904C74.5546 160.286 75.8958 159.004 78.1637 158.037C77.7121 156.813 77.2179 155.566 76.6874 154.295C72.0153 155.843 67.0145 157.765 61.8126 160.168C59.5995 161.19 57.4893 162.236 55.4818 163.292Z" fill="#F4F3F1"/>
<path d="M56.4397 167.173C56.7283 168.392 57.0107 169.598 57.2749 170.793C59.4575 169.054 60.7116 167.476 60.3137 166.872C59.8178 166.104 56.8191 167.055 56.4397 167.173Z" fill="#7099ED"/>
<path d="M54.6608 116.338C55.4001 116.635 56.2552 117.047 57.1359 117.635C59.0372 118.906 60.2038 120.402 60.8773 121.447C60.2729 117.977 59.9725 114.736 59.844 111.827C58.2257 113.184 56.4879 114.688 54.6608 116.338Z" fill="#7099ED"/>
<path d="M58.2005 175.026C59.2027 179.774 60.0016 184.068 60.5737 187.301C60.9028 186.284 61.3163 185.241 61.8445 184.204C62.6635 182.587 64.8829 178.193 69.7085 175.574C72.9596 173.808 75.4664 173.901 87.4932 173.715C92.764 173.638 96.9357 173.547 99.1936 173.502L99.6649 173.535L100.547 159.262C94.5481 160.323 87.673 161.976 80.3171 164.581C76.868 165.802 73.312 167.237 69.6918 168.922C65.4763 170.879 61.6482 172.954 58.2005 175.026Z" fill="#7099ED"/>
<path d="M56.3031 233.505C52.8477 231.294 49.9113 227.006 48.5748 223.379C46.0567 216.548 48.6043 210.347 49.4989 208.407C50.7239 207.637 52.0739 206.659 53.4336 205.42C56.4227 202.702 58.239 199.836 59.3311 197.7C59.3276 197.299 59.3238 196.868 59.3258 196.412C59.3301 196.218 59.3342 196.005 59.3383 195.786C59.3801 193.69 59.5219 190.603 60.5735 187.3C60.0014 184.067 59.2025 179.773 58.2004 175.025C57.9104 173.648 57.6019 172.229 57.2752 170.792C57.011 169.598 56.7286 168.391 56.4401 167.173C56.1328 165.887 55.8133 164.59 55.4758 163.293C51.6416 148.321 46.1894 133.375 39.595 133.324C38.973 133.317 38.3281 133.445 37.6543 133.736C27.7478 144.918 13.388 162.572 6.93747 186.257C2.35278 203.12 -3.75108 243.442 15.331 252.398C26.3789 257.586 43.0764 250.931 58.3743 238.967C60.4912 237.314 62.577 235.558 64.6197 233.711C63.8279 234.301 62.9561 234.722 61.9975 234.901C60.0625 235.27 58.1068 234.674 56.3031 233.505Z" fill="#7099ED"/>
<path d="M69.5564 225.915C70.1425 223.905 70.1632 222.155 70.0926 221.007L70.0501 220.977C67.7651 224.096 64.8108 227.336 60.9966 230.298C59.4134 231.527 57.8408 232.592 56.303 233.505C58.1068 234.674 60.0625 235.27 61.9975 234.9C62.956 234.722 63.8279 234.301 64.6197 233.711L64.6257 233.711C67.2235 231.81 68.8945 228.211 69.5564 225.915Z" fill="#231F20"/>
<path d="M71.4803 143.862C72.6822 145.936 73.8795 148.173 75.024 150.587C75.6208 151.839 76.1753 153.08 76.6872 154.296C77.2178 155.568 77.7119 156.815 78.1636 158.038C78.5595 159.11 78.9251 160.164 79.2602 161.187C79.6201 162.272 79.9435 163.338 80.2425 164.368L80.3168 164.58C87.6726 161.976 94.5478 160.323 100.547 159.261L101.202 148.709C101.297 147.171 102.669 145.98 104.288 146.026L130.96 146.756C130.769 145.634 130.535 144.433 130.24 143.166C129.775 141.195 129.159 139.056 128.329 136.81C127.228 133.806 125.979 131.186 124.758 128.98L124.829 128.803C122.386 127.779 119.938 126.762 117.495 125.733C114.047 131.14 110.598 136.547 107.156 141.955C106.876 142.407 106.596 142.834 106.328 143.238C105.018 142.545 102.991 141.445 100.569 140.038C93.723 136.065 90.5064 133.542 88.2485 132.231C86.9678 131.483 85.9984 131.121 84.8449 131.107C78.7033 131.034 73.7171 139.383 71.4803 143.862Z" fill="#7099ED"/>
<path d="M78.1637 158.037C75.8958 159.005 74.5546 160.286 74.7774 160.904C75.0002 161.516 76.874 161.73 79.2604 161.186C78.9253 160.163 78.5597 159.109 78.1637 158.037Z" fill="#7099ED"/>
<path d="M82.0965 70.365L85.1491 73.4486L85.5378 71.659C84.9058 71.2089 84.3496 70.4484 84.003 69.5037L82.0965 70.365Z" fill="white"/>
<path d="M85.3234 64.5158C83.9794 64.8011 83.296 66.727 83.7915 68.8125C83.8479 69.049 83.9164 69.2792 84.0029 69.5032L86.2222 68.5054L85.5376 71.6525C86.042 72.0125 86.5929 72.1717 87.1232 72.0576C88.4612 71.7724 89.1446 69.8465 88.6491 67.761C88.1476 65.6815 86.6613 64.2245 85.3234 64.5158Z" fill="#231F20"/>
<path d="M86.2227 68.5059L84.0033 69.5037C84.3499 70.4484 84.9061 71.2089 85.538 71.6529L86.2227 68.5059Z" fill="white"/>
<path d="M88.3077 132.121C83.2076 128.976 77.0567 124.45 71.1129 118.081C68.0952 114.845 65.6336 111.671 63.621 108.736C62.4518 109.67 61.1868 110.696 59.8442 111.826C59.9726 114.735 60.2731 117.976 60.8774 121.446C61.8382 126.978 63.5591 133.099 66.5257 139.434C67.7074 141.963 68.978 144.291 70.2892 146.43C70.4489 146.052 70.8571 145.106 71.4802 143.868C73.7169 139.382 78.7031 131.033 84.8448 131.106C85.9982 131.12 86.9676 131.482 88.2483 132.23L88.3077 132.121Z" fill="#7099ED"/>
<path d="M87.1546 203.049C87.5553 204.655 87.4967 206.217 86.5344 207.338C86.1938 207.736 85.1343 208.79 82.4181 208.911C82.7694 209.716 83.0189 210.613 83.0465 211.676C83.072 212.52 83.1254 214.458 81.9286 215.677C80.3427 217.289 76.8589 217.332 73.5455 215.478C72.6007 217.206 71.4519 219.069 70.0497 220.977L70.0923 221.007C70.1628 222.155 70.1421 223.905 69.5561 225.915C68.8941 228.211 67.2231 231.81 64.6253 233.711L64.6193 233.711C62.5766 235.558 60.4908 237.314 58.3739 238.967C95.8347 253.137 130.117 251.405 143.688 234.632C146.226 231.499 148.669 227.055 149.784 220.672L99.92 220.123C98.2049 220.102 96.8583 218.729 96.9586 217.106L99.067 183.138C96.6407 183.937 93.1096 184.77 88.8393 184.644C87.0031 184.587 85.3527 184.365 83.9312 184.08L83.8953 184.123C85.3057 185.198 87.0633 186.604 88.9359 188.726C91.1743 191.245 91.95 192.934 92.2647 193.684C92.8014 194.973 93.19 195.9 93.133 196.963C92.9296 200.586 87.7623 202.801 87.1606 203.049L87.1546 203.049Z" fill="#7099ED"/>
<path d="M89.6021 81.9208C89.9751 83.1326 90.7091 84.1832 91.6762 84.9827C92.9111 86.0106 94.5348 86.6159 96.2858 86.6004C100.102 86.5666 103.173 83.5989 103.141 79.9722L103.132 78.9395L89.1179 79.0636L89.3634 80.8719C89.4088 81.236 89.4904 81.5816 89.6021 81.9208Z" fill="white"/>
<path d="M103.863 64.7096L107.037 67.8467L107.246 66.1742C106.488 65.8224 105.786 65.0024 105.354 63.9248L103.863 64.7096Z" fill="white"/>
<path d="M107.668 62.7148L105.354 63.9261C105.786 65.0037 106.488 65.8238 107.246 66.1755L107.668 62.7148Z" fill="white"/>
<path d="M107.668 62.7149L107.246 66.1755C107.628 66.3544 108.021 66.4116 108.406 66.3293C109.75 66.0379 110.434 64.1181 109.932 62.0326C109.437 59.947 107.944 58.4961 106.606 58.7874C105.269 59.0727 104.585 60.9985 105.081 63.078C105.15 63.3751 105.243 63.6598 105.354 63.9261L107.668 62.7149Z" fill="#231F20"/>
<path d="M111.543 131.38C110.525 135.763 108.787 139.315 107.156 141.954C110.598 136.546 114.047 131.139 117.495 125.732C118.984 123.398 120.473 121.058 121.962 118.724C120.75 116.942 119.077 114.825 116.812 112.688C116.361 112.261 115.911 111.857 115.467 111.479C113.179 109.518 110.962 108.098 109.136 107.081C109.124 107.859 109.125 108.655 109.139 109.463C109.262 117.317 110.56 124.001 111.976 129.14C111.867 129.864 111.723 130.613 111.543 131.38Z" fill="#7099ED"/>
<path d="M115.467 111.48C115.911 111.859 116.361 112.262 116.812 112.689C119.077 114.826 120.75 116.943 121.962 118.725C123.12 119.984 124.464 121.662 125.684 123.777C127.113 126.237 127.936 128.52 128.435 130.308C127.235 129.808 126.029 129.303 124.829 128.803L124.758 128.98C125.979 131.186 127.228 133.806 128.33 136.81C129.159 139.056 129.775 141.195 130.24 143.166C132.128 142.955 134.198 142.803 136.425 142.747C138.719 142.69 140.851 142.744 142.797 142.872C140.609 137.849 137.533 132.105 133.175 126.183C129.948 121.807 126.631 118.155 123.543 115.157C120.377 113.593 117.63 112.378 115.467 111.48Z" fill="#7099ED"/>
<path d="M121.962 118.724C120.473 121.058 118.984 123.398 117.495 125.732C119.938 126.762 122.386 127.779 124.829 128.802C126.029 129.302 127.235 129.808 128.435 130.308C127.936 128.52 127.113 126.237 125.684 123.777C124.464 121.661 123.12 119.984 121.962 118.724Z" fill="#231F20"/>
<path d="M134.921 121.483C130.804 118.925 126.939 116.839 123.543 115.156C126.631 118.154 129.948 121.807 133.175 126.183C137.533 132.104 140.609 137.848 142.797 142.872C143.45 144.36 144.024 145.783 144.525 147.127L163.43 147.646C164.143 147.664 164.785 147.92 165.29 148.323L166.148 147.082C156.096 136.369 144.617 127.497 134.921 121.483Z" fill="#7099ED"/>
<path d="M130.239 143.166C130.534 144.433 130.768 145.634 130.959 146.756L144.525 147.128C144.024 145.784 143.45 144.361 142.796 142.873C140.851 142.744 138.719 142.69 136.425 142.747C134.197 142.803 132.127 142.955 130.239 143.166Z" fill="#F4F3F1"/>
<path d="M159.655 217.68L159.89 218.261C159.697 219.679 158.408 220.765 156.874 220.748L149.785 220.672C150.327 221.961 155.146 232.902 165.688 234.771C166.426 234.899 170.695 235.602 175.076 233.886C188.242 228.721 190.748 206.268 190.959 204.201C193.056 183.289 181.2 163.12 166.149 147.081L165.29 148.322C165.99 148.893 166.408 149.758 166.338 150.706L163.815 182.904C167.275 184.878 172.704 188.372 176.142 194.733C176.651 195.682 176.983 196.293 177.236 196.983C177.784 197.398 178.738 198.173 179.685 199.313C183.432 203.818 184.362 210.699 183.294 216.912C183.288 216.912 183.288 216.918 183.288 216.924C182.163 223.477 178.803 229.291 174.155 230.808C170.819 231.889 166.643 230.826 163.941 228.481C159.177 224.343 160.596 217.623 160.695 217.191C160.335 217.389 159.986 217.55 159.655 217.68Z" fill="#7099ED"/>
<path d="M160.695 217.191C160.596 217.623 159.176 224.343 163.941 228.481C166.643 230.826 170.819 231.889 174.154 230.808C178.802 229.291 182.163 223.477 183.288 216.924C183.106 217.466 181.172 222.805 175.369 224.145C170.94 225.168 166.619 223.329 164.269 220.537C163.183 219.253 162.658 217.933 162.39 217C161.745 217.096 161.172 217.156 160.695 217.191Z" fill="#231F20"/>
<path d="M99.9206 220.124L149.784 220.673L156.874 220.749C158.408 220.766 159.697 219.68 159.889 218.262L159.655 217.681C158.626 218.091 157.739 218.214 157.039 218.221C157.009 218.227 156.924 218.228 156.815 218.223C156.338 218.209 155.516 218.076 153.269 217.349C148.951 215.947 145.511 214.799 145.108 212.889C145.058 212.64 144.9 211.906 145.335 211.24C145.663 210.739 146.18 210.51 146.445 210.416C143.405 209.447 142.744 208.42 142.497 207.863C142.38 207.597 141.949 206.629 142.356 205.544C142.751 204.489 143.683 203.989 143.953 203.853L143.952 203.731C137.916 203.347 136.542 202.254 136.11 201.231C135.679 200.214 136.134 199.183 136.205 199.019C136.62 198.122 137.805 196.927 145.972 195.87C149.82 195.38 153.164 195.296 156.835 195.209C158.314 195.178 159.618 195.16 160.699 195.162C158.531 191.743 156.104 189.705 154.112 188.429C149.357 185.409 144.803 185.321 144.267 182.702C143.996 181.373 144.884 180.065 145.609 179.409C146.465 178.636 148.005 177.954 152.153 178.586C156.803 179.298 160.441 181.015 162.893 182.385C163.178 182.546 163.487 182.72 163.815 182.905L166.338 150.707C166.408 149.759 165.989 148.894 165.29 148.323C164.785 147.92 164.143 147.665 163.43 147.647L144.525 147.128L130.96 146.756L104.288 146.026C102.669 145.98 101.297 147.171 101.202 148.709L100.547 159.261L99.6648 173.534L99.0676 183.138L96.9592 217.106C96.8588 218.729 98.2055 220.103 99.9206 220.124Z" fill="#7099ED"/>
<path d="M113.789 46.2012C114.973 49.599 124.108 76.7784 112.917 91.5131C112.087 92.608 111.184 93.5759 110.34 94.3914C108.543 96.1267 106.995 97.1671 106.881 97.241C96.4591 104.126 83.8975 100.519 80.7426 99.5139" stroke="#231F20" stroke-width="0.99" stroke-linecap="round" stroke-linejoin="round"/>
<path d="M70.6982 61.0664C70.0102 61.7833 66.1823 65.9242 66.7602 71.8608C67.1251 75.5636 69.0258 78.1288 69.929 79.2022C67.5856 79.8244 65.2422 80.4527 62.8988 81.075C62.9125 80.5767 62.9444 76.676 59.7297 74.3715C59.2435 74.0234 57.6942 72.9497 55.5448 72.9808C54.3434 73.0036 53.1932 73.3601 52.184 73.9462C50.6461 74.8408 49.4389 76.261 48.897 77.7968C47.5657 81.5692 50.3375 85.682 53.7584 87.3954C56.5423 88.7863 59.383 88.4087 61.0878 87.944C61.877 87.7366 62.4183 87.5009 62.5988 87.4264" stroke="#231F20" stroke-width="0.99" stroke-linecap="round" stroke-linejoin="round"/>
<path d="M64.6197 233.71C62.577 235.557 60.4912 237.313 58.3743 238.966C43.0764 250.93 26.3788 257.585 15.331 252.397C-3.75113 243.441 2.35273 203.119 6.93742 186.256C13.3879 162.571 27.7478 144.917 37.6543 133.735C38.7843 132.462 39.8486 131.28 40.8412 130.177C45.6965 124.776 50.42 120.165 54.6612 116.337C56.4883 114.686 58.2261 113.182 59.8444 111.825C61.187 110.695 62.452 109.67 63.6212 108.736C63.9265 107.062 64.1333 105.195 64.1697 103.172C64.2883 96.7857 62.6415 91.5268 61.0882 87.95" stroke="#231F20" stroke-width="0.99" stroke-linecap="round" stroke-linejoin="round"/>
<path d="M50.0112 68.6081C50.3024 69.444 50.6302 70.3159 50.9883 71.2058C51.3587 72.126 51.7409 73.0036 52.1226 73.8325" stroke="#231F20" stroke-width="0.99" stroke-linecap="round" stroke-linejoin="round"/>
<path d="M52.9806 76.6017C53.0019 76.9599 53.0908 77.4513 53.409 77.9284C54.4067 79.4506 56.6461 79.3517 56.7668 79.3446" stroke="#231F20" stroke-width="0.99" stroke-linecap="round" stroke-linejoin="round"/>
<path d="M52.9252 80.5696C53.131 80.6346 53.4819 80.7105 53.8797 80.6219C54.9343 80.3817 55.2743 79.2304 55.292 79.1816" stroke="#231F20" stroke-width="0.99" stroke-linecap="round" stroke-linejoin="round"/>
<path d="M113.69 45.917L127.162 41.1682L126.165 36.2984C125.514 36.4561 124.856 36.5348 124.21 36.5406C120.908 36.5698 117.818 34.7138 116.487 31.7183L113.172 24.2263C105.039 5.8899 83.2199 -3.20609 63.4736 3.51204C47.3695 8.98891 37.1301 23.4905 37.2685 39.1212C37.2932 41.9096 37.6503 44.7315 38.3576 47.5442L42.6635 64.6448C42.87 65.4631 42.5637 66.3286 41.874 66.8632L43.3392 70.7081L49.9306 68.3836L70.6981 61.0671L113.69 45.917Z" stroke="#231F20" stroke-width="0.99" stroke-linecap="round" stroke-linejoin="round"/>
<path d="M76.1027 18.738C77.5101 20.8398 81.1442 26.8587 80.5462 35.0233C79.7107 46.3552 71.3763 53.0148 69.883 54.1641" stroke="white" stroke-width="0.99" stroke-linecap="round" stroke-linejoin="round"/>
<path d="M89.448 16.719C89.5092 18.1766 90.2092 30.3941 100.291 36.2769C103.472 38.1321 106.666 38.8207 109.077 39.0727" stroke="#231F20" stroke-width="0.99" stroke-linecap="round" stroke-linejoin="round"/>
<path d="M89.1179 79.0636L103.132 78.9395L103.141 79.9722C103.173 83.5989 100.102 86.5666 96.2858 86.6004C94.5348 86.6159 92.9111 86.0106 91.6762 84.9827C90.7091 84.1832 89.9751 83.1326 89.6021 81.9208C89.4904 81.5816 89.4088 81.236 89.3634 80.8719L89.1179 79.0636Z" stroke="#231F20" stroke-width="0.99" stroke-linecap="round" stroke-linejoin="round"/>
<path d="M84.0029 69.5032C83.9164 69.2792 83.8479 69.0489 83.7915 68.8125C83.296 66.727 83.9794 64.8011 85.3234 64.5158C86.6613 64.2245 88.1476 65.6815 88.6491 67.761C89.1446 69.8465 88.4612 71.7724 87.1232 72.0576C86.5929 72.1717 86.042 72.0125 85.5376 71.6586" stroke="#231F20" stroke-width="0.99" stroke-linecap="round" stroke-linejoin="round"/>
<path d="M105.354 63.9261C105.243 63.6598 105.15 63.3751 105.081 63.078C104.585 60.9985 105.269 59.0727 106.606 58.7874C107.944 58.4961 109.437 59.947 109.932 62.0326C110.434 64.1181 109.75 66.0379 108.406 66.3293C108.021 66.4116 107.628 66.3544 107.246 66.1755" stroke="#231F20" stroke-width="0.99" stroke-linecap="round" stroke-linejoin="round"/>
<path d="M19.1171 230.597C19.3465 229.234 19.7579 227.28 20.4985 224.99C21.2921 222.552 22.068 220.164 23.5484 218.237C24.7303 216.69 26.1766 215.674 28.1612 214.764C29.2677 214.25 30.5375 213.771 32.0244 213.247C36.2321 211.764 42.1094 209.944 49.4988 208.408C50.7238 207.638 52.0738 206.66 53.4335 205.421C56.4226 202.703 58.2389 199.837 59.3311 197.701" stroke="#231F20" stroke-width="0.99" stroke-linecap="round" stroke-linejoin="round"/>
<path d="M28.1616 214.763C27.8457 214.541 25.3427 212.831 22.234 213.637C19.6857 214.297 17.7477 216.38 17.2634 218.972" stroke="#231F20" stroke-width="0.99" stroke-linecap="round" stroke-linejoin="round"/>
<path d="M49.4985 208.408C48.6039 210.348 46.0563 216.549 48.5745 223.38C49.9109 227.007 52.8473 231.295 56.3027 233.506C58.1065 234.675 60.0621 235.271 61.9972 234.902C62.9557 234.723 63.8275 234.302 64.6194 233.712L64.6254 233.712C67.2232 231.812 68.8941 228.212 69.5561 225.916C70.1422 223.906 70.1629 222.156 70.0923 221.008" stroke="#231F20" stroke-width="0.99" stroke-linecap="round" stroke-linejoin="round"/>
<path d="M56.2973 233.512C56.2973 233.512 56.2973 233.512 56.2972 233.506C57.835 232.593 59.4076 231.528 60.9908 230.299C64.805 227.337 67.7593 224.097 70.0443 220.978C71.4464 219.07 72.5953 217.207 73.5401 215.48C73.8848 214.851 74.2055 214.24 74.4961 213.648" stroke="#231F20" stroke-width="0.99" stroke-linecap="round" stroke-linejoin="round"/>
<path d="M70.3984 212.529C70.4296 212.644 70.7155 213.565 71.6851 213.951C72.485 214.272 73.4315 214.1 74.1086 213.511" stroke="#231F20" stroke-width="0.99" stroke-linecap="round" stroke-linejoin="round"/>
<path d="M72.3061 212.513C72.6587 212.789 73.1629 213.125 73.8296 213.405C73.9266 213.447 74.0175 213.482 74.1083 213.512C74.5748 213.69 74.9984 213.789 75.3431 213.847" stroke="#231F20" stroke-width="0.99" stroke-linecap="round" stroke-linejoin="round"/>
<path d="M82.4183 208.912C82.7697 209.717 83.0191 210.614 83.0467 211.676C83.0723 212.521 83.1256 214.458 81.9288 215.678C80.3429 217.29 76.8591 217.333 73.5458 215.479" stroke="#231F20" stroke-width="0.99" stroke-linecap="round" stroke-linejoin="round"/>
<path d="M76.7112 201.927C79.2943 203.824 80.7131 205.847 81.4549 207.104C81.792 207.672 82.1414 208.258 82.4129 208.912" stroke="#231F20" stroke-width="0.99" stroke-linecap="round" stroke-linejoin="round"/>
<path d="M79.4676 191.417C79.6312 192.169 79.7949 192.927 79.9646 193.678C81.0085 194.277 82.7275 195.416 84.2359 197.328C85.3168 198.698 86.6408 200.916 87.1548 203.05C87.5555 204.656 87.4969 206.218 86.5346 207.339C86.194 207.736 85.1345 208.791 82.4183 208.912L82.4123 208.912" stroke="#231F20" stroke-width="0.99" stroke-linecap="round" stroke-linejoin="round"/>
<path d="M77.3295 179.813C79.9327 181.241 81.9802 182.663 83.4575 183.786C83.5973 183.894 83.7432 184.002 83.8952 184.123C85.3056 185.198 87.0632 186.604 88.9358 188.726C91.1742 191.245 91.9499 192.933 92.2646 193.684C92.8013 194.973 93.1899 195.899 93.1329 196.963C92.9295 200.586 87.7622 202.801 87.1605 203.049" stroke="#231F20" stroke-width="0.99" stroke-linecap="round" stroke-linejoin="round"/>
<path d="M59.3382 195.781C59.3801 193.691 59.5218 190.603 60.5734 187.301C60.9026 186.284 61.316 185.241 61.8442 184.204C62.6632 182.586 64.8826 178.192 69.7082 175.574C72.9593 173.807 75.4661 173.9 87.4929 173.715C92.7637 173.638 96.9354 173.546 99.1934 173.502" stroke="#231F20" stroke-width="0.99" stroke-linecap="round" stroke-linejoin="round"/>
<path d="M59.413 199.42C59.3789 198.958 59.3438 198.376 59.3318 197.701C59.3282 197.3 59.3244 196.869 59.3264 196.413C59.3307 196.219 59.3348 196.006 59.3388 195.787" stroke="#231F20" stroke-width="0.99" stroke-linecap="round" stroke-linejoin="round"/>
<path d="M83.9315 184.081C85.353 184.366 87.0035 184.588 88.8396 184.645C93.1099 184.771 96.641 183.938 99.0674 183.139" stroke="#231F20" stroke-width="0.99" stroke-linecap="round" stroke-linejoin="round"/>
<path d="M160.695 217.191C161.172 217.156 161.745 217.096 162.39 216.999C164.718 216.645 167.964 215.747 170.975 213.448C175.72 209.822 179.02 203.353 177.46 197.692C177.391 197.437 177.317 197.207 177.236 196.983C176.982 196.293 176.651 195.682 176.141 194.733C172.704 188.372 167.274 184.878 163.815 182.904C163.487 182.718 163.178 182.545 162.893 182.383C160.441 181.014 156.803 179.296 152.153 178.584C148.005 177.953 146.465 178.635 145.608 179.408C144.884 180.064 143.996 181.372 144.267 182.7C144.803 185.32 149.357 185.407 154.112 188.427C156.104 189.704 158.531 191.742 160.699 195.161" stroke="#231F20" stroke-width="0.99" stroke-linecap="round" stroke-linejoin="round"/>
<path d="M162.094 195.161C161.683 195.159 161.218 195.157 160.699 195.161C159.618 195.159 158.314 195.176 156.835 195.208C153.164 195.295 149.82 195.379 145.972 195.869C137.805 196.925 136.62 198.121 136.205 199.017C136.134 199.182 135.679 200.213 136.11 201.23C136.542 202.253 137.916 203.346 143.958 203.73C144.532 203.761 145.148 203.786 145.807 203.811C149.262 203.926 154.013 203.841 159.712 203.007" stroke="#231F20" stroke-width="0.99" stroke-linecap="round" stroke-linejoin="round"/>
<path d="M143.953 203.852C143.682 203.988 142.751 204.488 142.355 205.543C141.948 206.628 142.38 207.596 142.497 207.862C142.743 208.419 143.404 209.446 146.444 210.416C146.904 210.563 147.425 210.711 148.006 210.851C149.991 211.338 152.93 211.84 156.624 211.704" stroke="#231F20" stroke-width="0.99" stroke-linecap="round" stroke-linejoin="round"/>
<path d="M146.445 210.417C146.18 210.51 145.663 210.74 145.335 211.241C144.9 211.907 145.057 212.64 145.108 212.889C145.511 214.799 148.951 215.947 153.269 217.349C155.516 218.076 156.338 218.209 156.815 218.223C156.924 218.228 157.009 218.227 157.039 218.221C157.739 218.215 158.626 218.091 159.655 217.681C159.986 217.551 160.334 217.39 160.695 217.192" stroke="#231F20" stroke-width="0.99" stroke-linecap="round" stroke-linejoin="round"/>
<path d="M173.926 200.251C174.027 200.736 174.163 201.737 173.744 202.847C172.941 204.986 170.792 205.661 170.509 205.743" stroke="#231F20" stroke-width="0.99" stroke-linecap="round" stroke-linejoin="round"/>
<path d="M83.9003 196.912C84.3735 197.157 85.0582 197.424 85.9105 197.52C88.165 197.768 89.8694 196.586 90.3193 196.254" stroke="#231F20" stroke-width="0.99" stroke-linecap="round" stroke-linejoin="round"/>
<path d="M183.288 216.924C182.163 223.477 178.802 229.291 174.154 230.808C170.819 231.889 166.643 230.826 163.941 228.481C159.176 224.343 160.596 217.623 160.695 217.191" stroke="#231F20" stroke-width="0.99" stroke-linecap="round" stroke-linejoin="round"/>
<path d="M177.236 196.984C177.783 197.398 178.738 198.174 179.684 199.313C183.431 203.819 184.362 210.7 183.294 216.912" stroke="#231F20" stroke-width="0.99" stroke-linecap="round" stroke-linejoin="round"/>
<path d="M162.39 217C162.658 217.933 163.182 219.253 164.269 220.537C166.618 223.329 170.94 225.168 175.369 224.145C181.172 222.805 183.105 217.466 183.288 216.924C183.288 216.918 183.288 216.912 183.294 216.912C183.294 216.9 183.3 216.893 183.299 216.887" stroke="#231F20" stroke-width="0.99" stroke-linecap="round" stroke-linejoin="round"/>
<path d="M163.815 182.905L166.338 150.707C166.408 149.759 165.989 148.894 165.29 148.323C164.785 147.92 164.143 147.665 163.43 147.647L144.525 147.128L130.96 146.756L104.288 146.026C102.669 145.98 101.297 147.171 101.202 148.709L100.547 159.261L99.6648 173.534L99.0676 183.138L96.9592 217.106C96.8588 218.729 98.2055 220.103 99.9206 220.124L149.784 220.673L156.874 220.749C158.408 220.766 159.697 219.68 159.889 218.262C159.9 218.165 159.906 218.074 159.911 217.977" stroke="#231F20" stroke-width="0.99" stroke-linecap="round" stroke-linejoin="round"/>
<path d="M141.683 150.051L106.398 149.009C105.401 148.963 104.55 149.693 104.498 150.642L101.373 203.525" stroke="white" stroke-width="0.99" stroke-linecap="round" stroke-linejoin="round"/>
<path d="M100.415 216.686L100.265 218.206C100.238 218.485 100.463 218.727 100.759 218.73L144.543 219.351" stroke="#231F20" stroke-width="0.99" stroke-linecap="round" stroke-linejoin="round"/>
<path d="M158.492 150.528L163.282 150.704C163.995 150.734 164.549 151.313 164.513 151.993L163.441 169.36" stroke="#231F20" stroke-width="0.99" stroke-linecap="round" stroke-linejoin="round"/>
<path d="M110.345 94.4043C109.695 98.0371 109.202 102.3 109.135 107.082C109.124 107.86 109.125 108.656 109.138 109.464C109.262 117.318 110.559 124.002 111.976 129.141C111.976 129.141 111.978 129.145 111.982 129.153" stroke="#231F20" stroke-width="0.99" stroke-linecap="round" stroke-linejoin="round"/>
<path d="M107.037 142.138C107.079 142.076 107.115 142.015 107.156 141.954C110.599 136.547 114.047 131.14 117.495 125.732M117.495 125.732C118.984 123.398 120.473 121.058 121.962 118.724C123.12 119.984 124.464 121.661 125.684 123.777C127.113 126.237 127.936 128.52 128.435 130.308C127.235 129.808 126.029 129.302 124.829 128.802C122.386 127.779 119.938 126.762 117.495 125.732ZM117.495 125.732L117.489 125.733" stroke="#231F20" stroke-width="0.99" stroke-linecap="round" stroke-linejoin="round"/>
<path d="M112.384 125.365C112.322 126.532 112.2 127.797 111.976 129.142C111.868 129.866 111.724 130.614 111.543 131.381C110.526 135.765 108.788 139.316 107.157 141.955C106.877 142.407 106.597 142.835 106.329 143.238" stroke="#231F20" stroke-width="0.99" stroke-linecap="round" stroke-linejoin="round"/>
<path d="M109.136 107.081C110.962 108.098 113.179 109.518 115.467 111.479C115.911 111.857 116.361 112.261 116.812 112.688C119.077 114.825 120.75 116.942 121.962 118.724" stroke="#231F20" stroke-width="0.99" stroke-linecap="round" stroke-linejoin="round"/>
<path d="M71.4801 143.869C70.857 145.108 70.4487 146.053 70.289 146.431C68.9779 144.292 67.7073 141.964 66.5255 139.435C63.5589 133.101 61.8381 126.98 60.8773 121.447C60.2729 117.978 59.9725 114.736 59.8441 111.827" stroke="#231F20" stroke-width="0.99" stroke-linecap="round" stroke-linejoin="round"/>
<path d="M106.328 143.237C105.017 142.544 102.991 141.444 100.569 140.038C93.7227 136.065 90.506 133.542 88.2481 132.231C86.9674 131.483 85.9981 131.121 84.8446 131.107C78.7029 131.034 73.7167 139.383 71.48 143.862" stroke="#231F20" stroke-width="0.99" stroke-linecap="round" stroke-linejoin="round"/>
<path d="M63.621 108.736C65.6336 111.671 68.0952 114.845 71.1129 118.081C77.0567 124.45 83.2076 128.976 88.3077 132.121" stroke="#231F20" stroke-width="0.99" stroke-linecap="round" stroke-linejoin="round"/>
<path d="M37.6542 133.737C38.3279 133.446 38.9729 133.318 39.5949 133.325C46.1893 133.376 51.6415 148.322 55.4756 163.294C55.8132 164.591 56.1327 165.888 56.4399 167.174C56.7285 168.392 57.0109 169.599 57.2751 170.793C57.6018 172.23 57.9103 173.649 58.2002 175.026C59.2024 179.774 60.0013 184.068 60.5734 187.301C60.5795 187.307 60.5795 187.313 60.5796 187.32" stroke="#231F20" stroke-width="0.99" stroke-linecap="round" stroke-linejoin="round"/>
<path d="M54.6613 116.338C55.4006 116.635 56.2557 117.047 57.1364 117.634C59.0377 118.905 60.2043 120.402 60.8778 121.447" stroke="#231F20" stroke-width="0.99" stroke-linecap="round" stroke-linejoin="round"/>
<path d="M71.4807 143.861C72.6826 145.934 73.8799 148.172 75.0244 150.586C75.6212 151.838 76.1757 153.078 76.6876 154.295C77.2182 155.566 77.7123 156.813 78.1639 158.037C78.5599 159.108 78.9255 160.162 79.2606 161.186C79.6205 162.27 79.9439 163.337 80.2429 164.367" stroke="#231F20" stroke-width="0.99" stroke-linecap="round" stroke-linejoin="round"/>
<path d="M115.466 111.478C117.63 112.377 120.376 113.592 123.542 115.155C126.938 116.839 130.803 118.925 134.92 121.482C144.617 127.496 156.096 136.368 166.148 147.081C181.199 163.12 193.055 183.289 190.958 204.201C190.747 206.268 188.241 228.721 175.075 233.886C170.694 235.602 166.425 234.898 165.687 234.771C155.145 232.902 150.326 221.961 149.784 220.671" stroke="#231F20" stroke-width="0.99" stroke-linecap="round" stroke-linejoin="round"/>
<path d="M123.542 115.156C126.63 118.154 129.948 121.807 133.175 126.183C137.532 132.104 140.609 137.848 142.797 142.872C143.45 144.36 144.024 145.783 144.525 147.127" stroke="#231F20" stroke-width="0.99" stroke-linecap="round" stroke-linejoin="round"/>
<path d="M124.758 128.979C125.979 131.186 127.228 133.806 128.329 136.809C129.158 139.056 129.775 141.195 130.24 143.165C130.535 144.433 130.769 145.633 130.96 146.756" stroke="#231F20" stroke-width="0.99" stroke-linecap="round" stroke-linejoin="round"/>
<path d="M58.2005 175.026C61.6482 172.954 65.4763 170.879 69.6918 168.922C73.312 167.237 76.868 165.802 80.3171 164.581C87.673 161.976 94.5481 160.323 100.547 159.262" stroke="#231F20" stroke-width="0.99" stroke-linecap="round" stroke-linejoin="round"/>
<path d="M55.4819 163.292C57.4894 162.235 59.5996 161.19 61.8127 160.168C67.0146 157.765 72.0154 155.843 76.6875 154.295" stroke="#231F20" stroke-width="0.99" stroke-linecap="round" stroke-linejoin="round"/>
<path d="M56.4397 167.173C56.8191 167.055 59.8178 166.104 60.3137 166.872C60.7116 167.476 59.4575 169.054 57.2749 170.793" stroke="#231F20" stroke-width="0.99" stroke-linecap="round" stroke-linejoin="round"/>
<path d="M78.1637 158.037C75.8958 159.005 74.5546 160.286 74.7774 160.904C75.0002 161.516 76.874 161.73 79.2604 161.186" stroke="#231F20" stroke-width="0.99" stroke-linecap="round" stroke-linejoin="round"/>
<path d="M130.239 143.165C132.128 142.954 134.197 142.802 136.425 142.745C138.719 142.689 140.851 142.743 142.797 142.871" stroke="#231F20" stroke-width="0.99" stroke-linecap="round" stroke-linejoin="round"/>
<path d="M58.3743 238.967C95.8351 253.137 130.118 251.405 143.688 234.632C146.227 231.499 148.669 227.055 149.784 220.672" stroke="#231F20" stroke-width="0.99" stroke-linecap="round" stroke-linejoin="round"/>
<path d="M167.865 180.724C169.345 180.802 171.129 181.072 173.049 181.753C179.173 183.935 182.387 188.846 183.521 190.792" stroke="#231F20" stroke-width="0.99" stroke-linecap="round" stroke-linejoin="round"/>
<path d="M180.677 179.766C179.296 178.684 175.657 176.147 170.493 176.01C167.872 175.942 165.727 176.514 164.295 177.037" stroke="#231F20" stroke-width="0.99" stroke-linecap="round" stroke-linejoin="round"/>
<path d="M48.6254 182.109C50.1368 183.001 51.9779 184.297 53.7575 186.147C57.2069 189.719 58.6778 193.533 59.3378 195.781" stroke="#231F20" stroke-width="0.99" stroke-linecap="round" stroke-linejoin="round"/>
<path d="M98.1436 82.2398L102.503 82.2012" stroke="#231F20" stroke-width="0.99" stroke-linecap="round" stroke-linejoin="round"/>
<path d="M91.5166 81.9043L89.6026 81.9213" stroke="#231F20" stroke-width="0.99" stroke-linecap="round" stroke-linejoin="round"/>
<path d="M152.3 180.248C152.285 180.643 152.207 181.385 151.761 182.179C151.428 182.771 151.015 183.163 150.74 183.385" stroke="#231F20" stroke-width="0.5" stroke-linecap="round" stroke-linejoin="round"/>
<path d="M57.2236 10.2266C44.9094 18.179 38.8064 33.379 42.6677 48.0108L44.6496 58.3822" stroke="white" stroke-width="0.99" stroke-linecap="round" stroke-linejoin="round"/>
<path d="M65.6855 6.39648L62.0975 7.61297" stroke="white" stroke-width="0.99" stroke-linecap="round" stroke-linejoin="round"/>
</g>
<defs>
<clipPath id="clip0_6822_19907">
<rect width="189.742" height="253" fill="white" transform="matrix(-0.999961 0.00885855 0.00885855 0.999961 189.735 0)"/>
</clipPath>
</defs>
</svg>
