<svg width="20" height="22" viewBox="0 0 20 22" fill="none" xmlns="http://www.w3.org/2000/svg">
<path d="M15.4674 1V3.00001M4.26746 1V3.00001" stroke="white" stroke-width="1.5" stroke-linecap="round" stroke-linejoin="round"/>
<path d="M9.86376 12H9.87216M9.86376 16H9.87216M13.5929 12H13.6013M6.13464 12H6.14302M6.13464 16H6.14302" stroke="white" stroke-width="2" stroke-linecap="round" stroke-linejoin="round"/>
<path d="M1.93347 7H17.8001" stroke="white" stroke-width="1.5" stroke-linecap="round" stroke-linejoin="round"/>
<path d="M0.999878 11.2432C0.999878 6.88596 0.999878 4.70729 2.16852 3.35365C3.33716 2 5.21805 2 8.97985 2H10.7532C14.515 2 16.3959 2 17.5645 3.35365C18.7331 4.70729 18.7331 6.88596 18.7331 11.2432V11.7568C18.7331 16.1142 18.7331 18.2928 17.5645 19.6465C16.3959 21.0001 14.515 21.0001 10.7532 21.0001H8.97985C5.21805 21.0001 3.33716 21.0001 2.16852 19.6465C0.999878 18.2928 0.999878 16.1142 0.999878 11.7568V11.2432Z" stroke="white" stroke-width="1.5" stroke-linecap="round" stroke-linejoin="round"/>
<path d="M1.46667 7H18.2666" stroke="white" stroke-width="1.5" stroke-linecap="round" stroke-linejoin="round"/>
</svg>
