<svg width="165" height="20" viewBox="0 0 165 20" fill="none" xmlns="http://www.w3.org/2000/svg">
<rect x="109" width="20" height="20" rx="10" fill="#C5C5C5"/>
<path d="M115.438 15V14.0088L119.499 10.1602C119.973 9.70443 120.356 9.27832 120.647 8.88184C120.944 8.48535 121.092 8.06836 121.092 7.63086C121.092 7.17969 120.912 6.78776 120.552 6.45508C120.192 6.1224 119.69 5.95605 119.048 5.95605C118.382 5.95605 117.838 6.14062 117.414 6.50977C116.995 6.87891 116.785 7.36654 116.785 7.97266V8.04102H115.432V7.97266C115.432 7.07943 115.769 6.33431 116.443 5.7373C117.122 5.1403 117.991 4.8418 119.048 4.8418C120.069 4.8418 120.889 5.11296 121.509 5.65527C122.133 6.19759 122.445 6.83333 122.445 7.5625C122.445 8.20964 122.247 8.79525 121.851 9.31934C121.459 9.84342 120.966 10.3835 120.374 10.9395L117.223 13.8857H122.739V15H115.438Z" fill="white"/>
<rect x="145" width="20" height="20" rx="10" fill="#C5C5C5"/>
<path d="M154.727 15V6.47559L151.835 7.56934V6.27734L155.813 4.91016H156.094V15H154.727Z" fill="white"/>
<path d="M90 10H110" stroke="#C5C5C5" stroke-width="6"/>
<path d="M127 10H147" stroke="#C5C5C5" stroke-width="6"/>
<rect width="20" height="20" rx="10" fill="#7099ED"/>
<path d="M6.36328 12.4912V12.4229H7.67578V12.4912C7.67578 12.988 7.88086 13.3799 8.29102 13.667C8.70573 13.9541 9.25716 14.0977 9.94531 14.0977C10.6335 14.0977 11.1963 13.8994 11.6338 13.5029C12.0758 13.1019 12.2969 12.5413 12.2969 11.8213C12.2969 11.1012 12.0758 10.5521 11.6338 10.1738C11.1963 9.79557 10.6312 9.60645 9.93848 9.60645C9.4873 9.60645 9.08854 9.68164 8.74219 9.83203C8.40039 9.98242 8.07227 10.2012 7.75781 10.4883L6.73926 10.0234L7.24512 5.04688H13.0762V6.24316H8.35938L8.05859 9.10059C8.30924 8.94564 8.61686 8.80664 8.98145 8.68359C9.35059 8.55599 9.75391 8.49219 10.1914 8.49219C11.1484 8.49219 11.9642 8.78613 12.6387 9.37402C13.3132 9.95736 13.6504 10.7731 13.6504 11.8213C13.6504 12.8695 13.2995 13.6966 12.5977 14.3027C11.8958 14.9043 11.0117 15.2051 9.94531 15.2051C8.86523 15.2051 7.99707 14.9476 7.34082 14.4326C6.68913 13.9176 6.36328 13.2705 6.36328 12.4912Z" fill="white"/>
<rect x="37" width="20" height="20" rx="10" fill="#7099ED"/>
<path d="M48.2441 15V12.2793V11.9238V7.03613H48.1621L44.6416 11.5615H48.5039H49.085H51.0605V12.6689H43.0352V11.7666L48.2715 5.04688H49.5293V15H48.2441Z" fill="white"/>
<path d="M18 10H38" stroke="#7099ED" stroke-width="6"/>
<path d="M55 10H75" stroke="#7099ED" stroke-width="6"/>
<rect x="72" width="20" height="20" rx="10" fill="#7099ED"/>
<path d="M78.2266 12.3887V12.3203H79.5527V12.3887C79.5527 12.931 79.7646 13.3525 80.1885 13.6533C80.6123 13.9495 81.1729 14.0977 81.8701 14.0977C82.5719 14.0977 83.1302 13.9495 83.5449 13.6533C83.9642 13.3525 84.1738 12.8854 84.1738 12.252C84.1738 11.623 83.9391 11.1491 83.4697 10.8301C83.0003 10.5111 82.3714 10.3516 81.583 10.3516H80.6875V9.27148H81.5078C82.237 9.27148 82.7998 9.12109 83.1963 8.82031C83.5973 8.51953 83.7979 8.09798 83.7979 7.55566C83.7979 7.01335 83.6224 6.61003 83.2715 6.3457C82.9251 6.08138 82.458 5.94922 81.8701 5.94922C81.2777 5.94922 80.7923 6.08366 80.4141 6.35254C80.0404 6.61686 79.8535 6.9974 79.8535 7.49414V7.5625H78.5205V7.49414C78.5205 6.76042 78.835 6.13607 79.4639 5.62109C80.0928 5.10156 80.8949 4.8418 81.8701 4.8418C82.8363 4.8418 83.627 5.09017 84.2422 5.58691C84.8574 6.0791 85.165 6.71029 85.165 7.48047C85.165 7.9362 85.026 8.3737 84.748 8.79297C84.4746 9.21224 84.0462 9.53581 83.4629 9.76367V9.79102C84.0964 9.93685 84.6022 10.2262 84.9805 10.6592C85.3633 11.0921 85.5547 11.623 85.5547 12.252C85.5547 13.1725 85.2061 13.8949 84.5088 14.4189C83.8161 14.943 82.9365 15.2051 81.8701 15.2051C80.79 15.2051 79.9128 14.943 79.2383 14.4189C78.5638 13.8903 78.2266 13.2135 78.2266 12.3887Z" fill="white"/>
</svg>
