<svg width="429" height="448" viewBox="0 0 429 448" fill="none" xmlns="http://www.w3.org/2000/svg">
<g clip-path="url(#clip0_6529_18621)">
<path d="M253.221 574.465C221.272 574.465 195.436 565.38 176.416 547.477C169.414 540.885 150.8 523.357 149.955 496.476C149.142 470.986 164.299 450.376 177.524 440.477C189.981 431.146 207.048 426.224 226.88 426.224C251.388 426.224 278.683 433.725 301.742 446.823C325.91 460.542 342.351 478.434 348.025 497.225C349.462 501.966 355.916 526.61 342.307 545.872C338.432 551.362 327.896 561.571 300.941 568.237C294.696 569.778 275.698 574.476 253.21 574.476L253.221 574.465Z" fill="#7099ED"/>
<path d="M226.891 426.748C251.311 426.748 278.496 434.228 301.479 447.272C325.525 460.916 341.867 478.701 347.509 497.353C348.924 502.051 355.334 526.482 341.867 545.551C338.037 550.987 327.6 561.078 300.82 567.702C294.597 569.243 275.643 573.92 253.22 573.92C221.425 573.92 195.71 564.888 176.8 547.081C169.842 540.521 151.348 523.111 150.503 496.455C149.702 471.168 164.738 450.718 177.864 440.895C190.223 431.638 207.168 426.748 226.88 426.748M226.88 425.678C208.057 425.678 190.508 430.076 177.195 440.049C161.852 451.542 148.659 473.019 149.406 496.497C150.262 523.592 169.315 541.538 176.032 547.862C198.871 569.372 228.351 575 253.209 575C275.764 575 294.52 570.367 301.072 568.751C331.518 561.228 340.561 549.275 342.756 546.172C356.914 526.129 349.605 500.585 348.54 497.064C336.446 457.01 277.125 425.688 226.869 425.688L226.88 425.678Z" fill="#262626"/>
<path d="M343.327 388.577C345.149 389.946 346.96 390.728 347.311 390.877C345.983 390.053 344.644 389.283 343.327 388.577ZM263.899 430.15C257.632 428.609 250.246 426.234 242.344 422.499C237.603 420.252 233.41 417.876 229.777 415.543C230.205 413.82 230.666 412.055 231.16 410.278C233.399 402.135 236.297 393.36 240.028 384.168C242.201 378.785 244.495 373.734 246.822 369.015C247.195 368.245 247.557 367.496 247.941 366.746C252.847 368.994 258.115 371.241 263.735 373.424C269.266 375.553 274.578 377.415 279.66 379.031C281.032 378.978 282.59 379.085 284.324 379.288C285.718 379.459 287.244 379.695 288.879 379.984C289.823 380.144 290.822 380.315 291.853 380.497C296.946 381.396 301.687 382.68 306.088 384.178C305.408 379.106 304.925 373.317 304.925 366.928C304.925 359.994 305.485 353.745 306.264 348.351C306.834 337.661 307.855 327.87 309.095 319.063C309.589 315.478 310.127 312.043 310.687 308.79C311.225 305.643 311.784 302.669 312.355 299.843C312.915 297.093 313.474 294.504 314.023 292.074C314.078 291.828 314.133 291.593 314.188 291.336C320.169 264.851 330.069 221.94 351.767 218.526C353.545 218.248 355.06 218.291 356.08 218.366C378.854 232.577 392.54 248.585 400.047 258.923C404.69 265.3 411.472 274.782 416.576 288.875C423.315 307.463 423.468 323.91 422.755 333.937C423.929 334.922 429.856 340.186 428.199 346.896C427.057 351.604 422.92 354.012 421.943 354.547H421.493C421.416 358.774 421.273 363.076 421.076 367.442C420.318 384.574 418.738 400.722 416.631 415.768C419.857 426.897 419.034 436.903 413.448 443.066C412.131 444.511 410.353 445.977 407.883 447.197C407.071 449.177 406.062 451.242 404.843 453.339C402.023 458.208 398.203 464.79 390.74 468.802C383.54 472.687 375.814 472.612 369.931 471.606C369.064 471.456 368.23 471.285 367.451 471.103C363.983 470.29 361.436 469.284 360.481 468.877C357.847 471.082 352.404 471.745 347.772 470.376C344.282 469.338 341.999 467.358 340.902 466.245C338.816 465.945 327.435 464.169 310.588 457.427C302.598 454.228 293.379 449.926 283.347 444.137C278.529 441.354 273.525 438.24 268.377 434.741C267.378 434.067 265.238 432.579 263.921 430.118L263.899 430.15Z" fill="#7099ED"/>
<path d="M172.344 417.224C172.234 416.731 172.146 416.218 172.059 415.704C171.96 415.105 171.883 414.516 171.828 413.938C171.005 405.891 173.507 399.663 174.682 397.116C175.34 398.55 176.24 399.995 177.436 401.236C180.059 403.933 183.407 404.939 187.632 405.356C186.919 411.787 186.469 418.893 186.48 426.587C186.513 437.641 187.512 447.572 188.905 456.133C196.687 463.195 207.98 471.831 223.115 478.872C249.664 491.253 274.172 492.302 287.759 491.863C286.168 481.729 284.895 470.889 284.094 459.439C283.721 454.217 283.468 449.123 283.314 444.158C293.346 449.947 302.565 454.249 310.555 457.449C312.223 461.676 315.23 467.968 320.597 474.431C324.483 479.108 334.602 491.275 350.417 493.287C351.087 493.372 351.811 493.469 352.579 493.543C355.96 493.918 360.163 494.1 363.829 492.698C359.011 496.155 351.613 500.916 341.9 505.047C297.209 524.031 245.362 511.821 210.955 488.086C203.996 483.292 162.686 454.806 168.371 426.844C169.216 422.67 170.928 419.417 172.333 417.202L172.344 417.224Z" fill="#7099ED"/>
<path d="M351.208 215.037L356.048 218.387C355.027 218.301 353.512 218.269 351.734 218.547C330.036 221.961 320.148 264.862 314.155 291.357C310.852 290.501 307.065 289.742 302.851 289.239C296.847 288.532 291.502 288.543 287.024 288.853C291.173 276.569 297.177 262.186 306.077 246.948C309.304 241.426 312.344 236.761 315.198 232.833L316.01 233.326C316.416 232.266 316.833 231.185 317.228 230.083C317.228 230.083 317.239 230.083 317.239 230.062C319.796 226.134 328.851 213.283 342.823 212.33C342.888 212.33 342.965 212.33 343.031 212.319C345.588 212.17 348.135 212.929 350.231 214.374L351.197 215.037H351.208Z" fill="#7099ED"/>
<path d="M340.199 208.98C341.483 208.959 342.866 209.119 344.293 209.59C348.486 210.96 350.615 214.085 351.207 215.037L350.242 214.373C348.145 212.929 345.599 212.158 343.042 212.319C342.976 212.319 342.899 212.319 342.833 212.33C328.862 213.282 319.807 226.134 317.25 230.061C318.369 227.001 319.445 223.78 320.455 220.398C322.716 212.747 324.252 205.545 325.262 198.985C330.245 202.313 335.227 205.652 340.21 208.98H340.199Z" fill="#7099ED"/>
<path d="M325.624 196.482C325.514 197.295 325.394 198.13 325.251 198.975C324.241 205.535 322.705 212.736 320.444 220.388C319.434 223.769 318.358 226.99 317.239 230.051C317.239 230.051 317.228 230.051 317.228 230.072C316.822 231.174 316.416 232.255 316.01 233.315L315.198 232.822C310.489 230.008 304.925 227.14 298.515 224.625C295.267 223.352 291.787 222.175 288.1 221.148C284.533 220.152 281.109 219.382 277.86 218.804L307.647 183.812C313.639 188.028 319.632 192.255 325.624 196.482Z" fill="#7099ED"/>
<path d="M314.155 291.347C314.1 291.603 314.045 291.839 313.99 292.085C313.441 294.514 312.882 297.104 312.322 299.854C307.581 298.805 303.805 300.838 303.41 302.765C303.004 304.723 305.748 308.062 310.654 308.789C310.094 312.042 309.556 315.467 309.062 319.062L308.733 319.02C302.378 318.699 295.256 317.864 287.573 316.12C284.906 315.51 282.36 314.846 279.956 314.119C280.56 311.475 281.218 308.757 281.932 305.964C282.019 305.622 282.107 305.269 282.206 304.916C286.794 305.237 289.889 302.989 289.933 301.234C289.965 299.704 287.672 297.821 284.368 297.157C285.158 294.514 286.047 291.732 287.024 288.843C291.491 288.543 296.847 288.532 302.85 289.228C307.065 289.731 310.851 290.491 314.155 291.347Z" fill="#383940"/>
<path d="M331.178 98.4172L330.047 107.074L319.566 106.571L301.852 105.705L214.709 101.478L186.217 100.087L186.568 91.804L191.836 91.697C199.113 91.5685 205.182 86.2073 206.027 79.1553L209.287 52.1565C211.131 36.9075 218.857 23.6596 230.063 14.4032C241.258 5.14679 255.932 -0.128836 271.659 0.598836C304.837 2.12909 330.409 29.6415 328.708 61.9801L327.095 92.735C326.963 95.3246 328.642 97.6681 331.189 98.4172H331.178Z" fill="#FF8B63"/>
<path d="M261 3.5C255.5 3.5 244.8 8.9 242 10.5C233 15.6429 224.5 26 220.5 35.5" stroke="white"/>
<path d="M312.323 299.854C311.752 302.669 311.192 305.654 310.654 308.8C305.748 308.062 303.005 304.734 303.411 302.776C303.806 300.849 307.581 298.816 312.323 299.865V299.854Z" fill="#383940"/>
<path d="M304.892 366.939C304.892 373.328 305.375 379.117 306.055 384.189C301.654 382.681 296.913 381.407 291.821 380.508C290.789 380.326 289.79 380.155 288.846 379.995C289.362 373.296 289.878 366.597 290.405 359.898C275.478 358.293 259.992 356.217 244.023 353.574C237.471 352.493 231.04 351.348 224.718 350.149C219.933 344.563 217.266 341.214 215.477 337.49C215.137 336.784 214.829 336.088 214.566 335.403C220.58 336.152 226.628 336.923 232.675 337.715C234.047 337.886 235.408 338.068 236.78 338.25C249.676 339.951 262.451 341.738 275.094 343.6C285.565 345.141 295.947 346.725 306.242 348.362C305.463 353.766 304.903 360.005 304.903 366.939H304.892Z" fill="#7099ED"/>
<path d="M308.734 319.03L309.063 319.073C307.812 327.88 306.791 337.671 306.231 348.362C295.936 346.724 285.554 345.141 275.083 343.6C275.896 335.97 277.322 325.879 279.946 314.129C282.349 314.857 284.895 315.52 287.562 316.13C295.245 317.874 302.368 318.72 308.723 319.03H308.734Z" fill="#7099ED"/>
<path d="M303.389 163.961C301.611 167.182 299.339 170.457 296.408 173.549C285.488 185.149 267.972 192.03 251.761 188.638C251.761 188.638 244.616 187.14 238.338 183.18C210.187 165.448 214.325 106.132 214.698 101.478L301.841 105.704C302.181 106.421 302.587 107.534 302.39 108.808C302.05 111.044 300.184 111.622 299.767 113.345C299.207 115.656 302.137 117.422 303.246 119.691C304.651 122.591 305.617 127.246 303.092 134.694C304.442 134.405 305.792 134.126 307.142 133.827C305.979 125.373 308.953 118.075 314.408 115.485C314.825 115.293 316.01 114.758 317.481 114.511C318.842 114.287 320.455 114.308 321.926 115.057C327.205 117.722 328.72 128.594 323.375 134.662C318.534 140.162 310.358 139.231 309.579 139.135C309.612 142.484 309.381 153.078 303.389 163.982V163.961Z" fill="white"/>
<path d="M298.526 224.625C304.936 227.14 310.5 230.008 315.209 232.822C312.355 236.749 309.304 241.415 306.088 246.937C297.188 262.175 291.173 276.557 287.035 288.842C286.059 291.731 285.17 294.514 284.379 297.157C283.567 299.896 282.843 302.486 282.217 304.926C282.119 305.279 282.031 305.632 281.943 305.975C281.23 308.767 280.571 311.486 279.967 314.129C277.344 325.878 275.917 335.97 275.105 343.589C262.462 341.737 249.698 339.961 236.791 338.249C235.419 338.067 234.058 337.885 232.686 337.714C234.091 325.846 235.77 313.626 237.79 301.052C240.435 284.54 243.42 268.735 246.668 253.678C257.073 242.057 267.489 230.425 277.893 218.804C281.142 219.392 284.566 220.152 288.133 221.147C291.821 222.175 295.3 223.352 298.548 224.625H298.526Z" fill="#7099ED"/>
<path d="M301.852 105.705L319.566 106.572C319.313 107.984 318.962 109.504 318.523 111.098C318.194 112.308 317.843 113.431 317.469 114.512C315.999 114.758 314.813 115.293 314.396 115.486C308.931 118.076 305.956 125.374 307.131 133.827C305.781 134.127 304.431 134.405 303.081 134.694C305.594 127.246 304.639 122.591 303.235 119.691C302.126 117.423 299.196 115.657 299.755 113.346C300.172 111.623 302.038 111.045 302.379 108.808C302.576 107.535 302.181 106.422 301.83 105.716L301.852 105.705Z" fill="#383940"/>
<path d="M284.105 459.45C284.906 470.9 286.179 481.729 287.77 491.874C274.183 492.323 249.675 491.264 223.126 478.883C207.991 471.842 196.698 463.206 188.917 456.143C187.523 447.582 186.524 437.641 186.491 426.598C186.469 418.903 186.93 411.798 187.643 405.367C189.838 405.591 192.264 405.645 194.942 405.698C200.012 405.805 207.805 405.367 217.123 402.435C219.954 403.537 221.337 404.714 225.475 407.154C227.923 408.598 229.942 409.668 231.149 410.278C230.655 412.066 230.194 413.82 229.766 415.543C233.399 417.876 237.581 420.252 242.333 422.499C250.246 426.234 257.621 428.599 263.888 430.15C265.205 432.612 267.346 434.11 268.344 434.773C273.492 438.272 278.496 441.386 283.315 444.169C283.468 449.123 283.721 454.217 284.094 459.45H284.105Z" fill="#7099ED"/>
<path d="M239.82 221.907C239.973 217.466 240.028 212.822 239.94 208.006C239.864 203.908 239.71 199.927 239.469 196.085C239.194 191.602 238.81 187.289 238.349 183.169C244.627 187.129 251.772 188.627 251.772 188.627C267.982 192.019 285.488 185.138 296.419 173.538C299.349 170.435 301.621 167.171 303.399 163.95C303.026 167.278 302.96 172.436 305.002 178.161C305.77 180.344 306.725 182.228 307.658 183.801L277.871 218.793C267.466 230.414 257.051 242.047 246.646 253.668C241.894 246.894 236.834 240.003 231.457 233.015C231.325 232.844 231.204 232.683 231.062 232.512L231.533 232.169C231.94 230.928 232.576 229.419 233.608 227.825C235.649 224.721 238.184 222.892 239.82 221.896V221.907Z" fill="white"/>
<path d="M288.857 379.973C287.222 379.694 285.696 379.459 284.302 379.288L290.415 359.887C289.889 366.586 289.373 373.284 288.857 379.973Z" fill="#7099ED"/>
<path d="M290.416 359.887L284.302 379.288C282.568 379.074 281.01 378.967 279.638 379.032C274.556 377.416 269.244 375.554 263.713 373.424C258.104 371.252 252.836 369.005 247.919 366.747C247.535 367.496 247.173 368.245 246.8 369.015C244.341 367.795 241.005 365.923 237.438 363.173C234.365 360.808 231.709 358.261 227.802 353.724C226.682 352.429 225.662 351.241 224.718 350.139C231.04 351.337 237.471 352.482 244.023 353.563C259.992 356.217 275.489 358.282 290.405 359.887H290.416Z" fill="#7099ED"/>
<path d="M289.922 301.234C289.878 302.989 286.783 305.236 282.195 304.915C282.821 302.476 283.545 299.886 284.357 297.146C287.661 297.81 289.955 299.693 289.922 301.224V301.234Z" fill="#383940"/>
<path d="M280.988 122.248C280.792 125.554 278.411 128.13 275.646 127.995C272.892 127.86 270.816 125.067 271.013 121.761C271.21 118.446 273.6 115.87 276.345 116.005C279.09 116.14 281.175 118.933 280.988 122.248Z" fill="#262626"/>
<path d="M276.763 144.421C277.125 148.851 275.369 153.099 272.021 155.143C267.159 158.14 259.213 156.342 255.13 149.804C257.457 149.921 260.289 149.846 263.439 149.322C269.354 148.327 273.865 146.154 276.774 144.421H276.763Z" fill="white"/>
<path d="M172.542 387.207L172.037 387.229C168.964 385.816 167.35 382.552 168.086 379.535C168.722 376.966 170.972 374.987 173.793 374.526C166.933 372.814 162.192 369.015 161.753 364.724C161.511 362.456 162.532 360.669 162.839 360.144C165.43 355.746 171.642 354.408 180.641 353.606C182.331 353.445 184.131 353.317 186.03 353.188C186.656 353.146 187.292 353.103 187.94 353.06C192.89 352.728 197.016 352.675 199.936 352.707C200.309 352.546 200.693 352.397 201.099 352.268C200.463 350.556 199.848 348.491 199.431 346.094C199.387 345.933 199.365 345.751 199.332 345.58C199.058 343.911 198.937 342.37 198.904 340.989C198.015 340.197 197.62 339.031 197.916 337.982C198.015 337.618 198.191 337.308 198.399 337.062C197.675 335.863 197.071 334.644 196.621 333.402C194.492 327.666 195.194 321.642 198.575 317.361C199.771 315.842 201.67 314.076 203.678 312.91C205.577 311.818 207.607 311.251 209.265 311.947C213.918 313.894 209.605 323.183 214.555 335.403C214.818 336.088 215.125 336.773 215.466 337.49C217.266 341.214 219.933 344.563 224.707 350.149C225.651 351.252 226.671 352.45 227.791 353.745C231.698 358.282 234.354 360.829 237.427 363.194C241.005 365.944 244.331 367.817 246.789 369.037C244.462 373.756 242.179 378.807 239.995 384.189C236.264 393.371 233.366 402.146 231.127 410.3C229.92 409.69 227.901 408.62 225.453 407.175C221.305 404.735 219.922 403.558 217.101 402.456C207.783 405.388 199.991 405.816 194.92 405.72C192.242 405.667 189.817 405.613 187.622 405.388C183.396 404.971 180.038 403.976 177.426 401.268C176.218 400.027 175.318 398.582 174.671 397.148C173.299 394.184 172.893 391.241 172.728 390.075C172.596 389.058 172.531 388.117 172.52 387.229L172.542 387.207Z" fill="white"/>
<path d="M246.636 253.678C243.398 268.735 240.402 284.54 237.757 301.052C235.748 313.626 234.058 325.846 232.653 337.703C226.606 336.922 220.558 336.141 214.544 335.402C209.594 323.182 213.907 313.893 209.254 311.946C207.597 311.261 205.577 311.817 203.667 312.909C203.92 311.571 204.183 310.212 204.458 308.842C204.93 306.52 205.445 304.145 205.994 301.748C206.762 298.398 207.608 294.984 208.551 291.496C209.122 289.366 209.715 287.216 210.362 285.054C213.512 274.321 217.507 263.074 222.567 251.495C225.409 244.978 228.395 238.825 231.446 233.015C236.824 240.002 241.872 246.894 246.636 253.668V253.678Z" fill="#7099ED"/>
<path d="M239.941 208.007C240.017 212.822 239.974 217.456 239.82 221.908C238.196 222.903 235.649 224.733 233.608 227.836C232.576 229.43 231.94 230.939 231.534 232.181L231.062 232.523C230.348 231.581 229.613 230.618 228.867 229.666C228.263 228.895 227.659 228.125 227.067 227.365C224.016 223.502 220.964 219.746 217.946 216.076C219.988 213.197 222.556 209.976 225.816 206.733C230.535 202.004 235.254 198.558 239.194 196.107L239.469 196.086C239.71 199.928 239.875 203.908 239.941 208.007Z" fill="#7099ED"/>
<path d="M243.987 120.239C243.8 123.554 241.398 126.13 238.65 125.995C235.903 125.86 233.816 123.067 234.013 119.752C234.2 116.446 236.593 113.87 239.35 114.005C242.106 114.14 244.184 116.933 243.987 120.239Z" fill="#262626"/>
<path d="M239 120L233 123V119L239 120Z" fill="white"/>
<path d="M275 122L269 125V121L275 122Z" fill="white"/>
<path d="M231.062 232.523C231.204 232.684 231.325 232.844 231.457 233.026C228.406 238.837 225.42 244.99 222.578 251.507C217.518 263.085 213.523 274.332 210.373 285.065C208.058 284.488 205.314 283.974 202.219 283.685C199.431 283.417 196.918 283.396 194.723 283.503C199.519 266.039 204.041 254.289 209.901 242.721C212.623 237.349 215.148 232.962 217.002 229.912C216.915 231.068 216.838 232.234 216.761 233.379C220.196 231.389 223.631 229.388 227.078 227.387C227.67 228.146 228.274 228.917 228.878 229.687C229.624 230.64 230.359 231.592 231.073 232.545L231.062 232.523Z" fill="#7099ED"/>
<path d="M227.067 227.365C223.62 229.366 220.185 231.367 216.75 233.357C216.827 232.202 216.904 231.035 216.991 229.89C217.266 225.792 217.562 221.704 217.837 217.616C217.858 217.102 217.902 216.589 217.935 216.075C220.954 219.746 224.005 223.502 227.056 227.365H227.067Z" fill="#7099ED"/>
<path d="M147.76 344.21C148.462 343.91 151.908 342.348 155.388 342.519L155.409 342.144C155.728 341.781 157.33 340.058 159.964 339.384C160.908 320.828 164.146 298.548 172.432 274.45C174.901 267.269 177.601 260.549 180.411 254.31L180.663 254.267C180.192 251.025 180.784 247.804 182.474 245.171C185.174 240.966 189.751 239.65 191.145 239.307C195.315 234.545 200.518 229.505 206.938 224.711C210.692 221.918 214.357 219.575 217.837 217.616C217.562 221.693 217.266 225.781 216.992 229.88C215.137 232.951 212.612 237.328 209.891 242.699C204.03 254.267 199.497 266.028 194.712 283.481C194.097 285.718 193.483 288.04 192.857 290.469C192.209 292.962 191.562 295.573 190.903 298.324C190.519 299.886 190.135 301.502 189.762 303.15C189.542 304.113 189.312 305.097 189.092 306.093C187.435 313.487 185.767 321.663 184.208 330.587C182.935 337.789 181.739 345.472 180.663 353.605C171.664 354.397 165.452 355.745 162.862 360.144C162.554 360.668 161.545 362.455 161.775 364.724C162.214 369.015 166.955 372.814 173.815 374.526C170.994 374.975 168.744 376.966 168.108 379.534C167.372 382.552 168.986 385.815 172.059 387.228L172.564 387.207C172.564 388.084 172.63 389.036 172.772 390.053C172.937 391.219 173.343 394.162 174.715 397.126C173.541 399.673 171.038 405.901 171.861 413.949C158.68 413.317 144.632 411.594 129.958 408.288C128.015 407.849 126.095 407.389 124.207 406.918C123.285 407.111 111.07 409.486 104.704 402.177C103.782 401.118 102.739 399.566 102.026 397.351C100.852 396.773 99.7321 396.174 98.6895 395.575C101.96 395.832 105.988 392.6 106.207 387.496L128.081 383.6C132.296 382.851 135.039 378.828 134.107 374.74L127.335 345.023C130.759 345.933 133.722 346.275 136.225 346.275C137.202 345.365 139.792 343.215 143.37 343.172C144.401 343.161 145.817 343.311 147.815 344.21H147.76Z" fill="#7099ED"/>
<path d="M210.363 285.055C209.715 287.227 209.111 289.367 208.552 291.497C206.313 291.679 204.37 293.016 203.602 294.953C202.636 297.329 203.602 300.207 205.994 301.748C205.446 304.145 204.93 306.521 204.458 308.843C202.263 308.822 199.684 308.629 196.808 308.126C193.856 307.602 191.299 306.874 189.191 306.125L189.06 306.093C189.279 305.098 189.499 304.124 189.729 303.15C190.102 301.502 190.486 299.886 190.87 298.324H190.914C193.976 298.142 195.985 295.777 195.754 293.712C195.59 292.31 194.405 291.079 192.824 290.469C193.45 288.04 194.075 285.718 194.679 283.482C196.885 283.385 199.398 283.407 202.175 283.663C205.281 283.952 208.014 284.477 210.33 285.044L210.363 285.055Z" fill="#383940"/>
<path d="M208.562 291.496C207.629 294.974 206.784 298.398 206.005 301.748C203.601 300.207 202.647 297.328 203.612 294.953C204.381 293.026 206.312 291.678 208.562 291.496Z" fill="#383940"/>
<path d="M204.469 308.843C204.194 310.213 203.92 311.561 203.679 312.909C201.659 314.065 199.76 315.841 198.575 317.361C195.195 321.641 194.481 327.666 196.621 333.402C192.747 332.514 188.873 331.615 185.01 330.727L184.208 330.587C185.778 321.673 187.446 313.487 189.092 306.093L189.224 306.125C191.32 306.874 193.889 307.602 196.841 308.126C199.717 308.618 202.296 308.811 204.491 308.843H204.469Z" fill="#7099ED"/>
<path d="M201.099 352.268C200.693 352.407 200.298 352.546 199.936 352.706C197.016 352.674 192.89 352.728 187.94 353.059C187.292 353.102 186.656 353.145 186.03 353.188C187.731 350.17 189.422 347.163 191.123 344.146C193.889 344.798 196.654 345.44 199.409 346.093C199.837 348.49 200.441 350.555 201.077 352.268H201.099Z" fill="#7099ED"/>
<path d="M199.332 345.579C199.365 345.75 199.387 345.932 199.431 346.093C196.676 345.44 193.91 344.798 191.144 344.145C189.443 347.163 187.753 350.17 186.052 353.188C184.153 353.316 182.353 353.444 180.663 353.605C181.75 345.472 182.946 337.789 184.208 330.587L185.009 330.726C188.884 331.614 192.758 332.513 196.621 333.401C197.071 334.643 197.675 335.873 198.399 337.061C198.191 337.307 198.015 337.618 197.916 337.981C197.631 339.03 198.026 340.196 198.904 340.988C198.937 342.379 199.069 343.92 199.332 345.579Z" fill="#7099ED"/>
<path d="M195.776 293.711C196.007 295.776 193.998 298.141 190.936 298.334H190.892C191.551 295.573 192.198 292.951 192.846 290.469C194.426 291.079 195.611 292.309 195.776 293.711Z" fill="#383940"/>
<path d="M134.062 374.74C134.995 378.817 132.251 382.851 128.037 383.6L106.163 387.495L93.2015 389.807L33.0792 400.518C28.7988 401.278 24.727 398.378 24.2002 394.162L22.7076 382.23L22.3015 378.988C22.9381 378.228 24.4417 376.238 24.3868 373.498C24.3868 373.081 24.3209 369.871 22.6747 369.314C22.2027 369.154 21.6649 369.239 21.1491 369.485L20.6223 364.017C21.5113 363.172 22.4442 362.027 23.1466 360.518C23.6405 359.469 25.3197 355.874 23.6185 352.107C23.5417 351.914 21.4784 347.473 18.3175 347.302C18.1858 347.291 18.0651 347.302 17.9334 347.302L17.8456 346.906C18.559 346.061 19.6455 344.552 20.2272 342.444C20.4138 341.738 21.9064 336.066 18.1419 332.256C17.9334 332.042 17.2419 331.347 16.2432 330.715L7.61664 261.769C7.08983 257.584 10.2726 253.818 14.5859 253.507L98.4806 247.675C102.223 247.408 105.593 249.858 106.405 253.432L127.258 345.001L134.029 374.718L134.062 374.74ZM126.533 376.248L98.9526 255.166L15.2774 260.987L31.817 393.124L126.533 376.248Z" fill="#7099ED"/>
<path d="M81.8092 287.119C75.6192 283.706 68.4194 282.357 61.1868 283.781C44.0654 287.141 33.2767 304.776 37.0742 323.161C40.8826 341.534 57.8393 353.701 74.9607 350.331C92.082 346.96 102.871 329.335 99.0733 310.951C96.8782 300.335 90.2821 291.785 81.8092 287.119ZM98.9525 255.177L126.533 376.259L31.817 393.135L15.2773 260.998L98.9525 255.177Z" fill="white"/>
<path d="M106.164 387.496C105.944 392.6 101.916 395.832 98.6456 395.575C98.5029 395.575 98.3493 395.554 98.2066 395.522C95.8689 395.115 93.8494 392.772 93.1909 389.808L106.153 387.496H106.164Z" fill="#7099ED"/>
<path d="M81.8092 287.12C90.2821 291.786 96.8782 300.336 99.0733 310.951C102.882 329.325 92.0821 346.96 74.9607 350.331C57.8393 353.702 40.8826 341.535 37.0742 323.161C33.2658 304.788 44.0654 287.142 61.1868 283.781C68.4194 282.358 75.6192 283.707 81.8092 287.12Z" fill="white"/>
<path d="M22.2905 378.977L22.6966 382.22C22.2905 382.038 18.1529 380.069 17.637 376.12C17.5822 375.671 17.4834 374.601 17.8785 373.37C17.9883 373.038 18.1309 372.685 18.3285 372.321C18.9211 371.23 20.0406 369.988 21.1601 369.485C21.6759 369.239 22.2137 369.154 22.6857 369.314C24.3319 369.871 24.3868 373.081 24.3978 373.498C24.4417 376.238 22.9491 378.228 22.3125 378.988L22.2905 378.977Z" fill="white"/>
<path d="M20.6332 364.018L21.16 369.486C20.0406 370 18.9211 371.23 18.3284 372.322C18.1309 372.675 17.9882 373.028 17.8784 373.37C16.4517 373.017 10.7994 371.423 8.51656 366.629C7.33123 364.157 7.29831 361.375 7.9678 358.689C9.43848 352.814 14.3444 347.485 17.9443 347.292C18.076 347.292 18.1967 347.292 18.3284 347.292C21.4893 347.463 23.5417 351.904 23.6295 352.097C25.3306 355.874 23.6514 359.459 23.1575 360.508C22.4551 362.017 21.5112 363.162 20.6332 364.007V364.018Z" fill="white"/>
<path d="M6.01454 336.858C6.50843 333.027 8.93396 330.17 11.7656 329.667C13.5106 329.367 15.0911 329.999 16.2654 330.726C17.2751 331.358 17.9556 332.053 18.1641 332.267C21.9286 336.066 20.436 341.749 20.2494 342.455C19.6677 344.563 18.5702 346.061 17.8678 346.917L17.9556 347.313C14.3557 347.506 9.44979 352.835 7.97911 358.71L7.7596 358.656C7.22182 358.303 0.329371 353.755 0.559851 347.217C0.647653 344.509 1.96468 341.973 2.19516 341.513C3.40244 339.202 4.99385 337.693 6.01454 336.869V336.858Z" fill="white"/>
<path d="M214.719 101.478C214.346 106.132 210.208 165.448 238.36 183.18C244.638 187.14 251.783 188.638 251.783 188.638C267.993 192.03 285.499 185.149 296.43 173.549C299.36 170.446 301.632 167.182 303.41 163.961C309.414 153.057 309.633 142.463 309.6 139.113C310.379 139.22 318.556 140.151 323.396 134.64C328.741 128.573 327.226 117.69 321.947 115.036C320.477 114.287 318.863 114.276 317.502 114.49C316.032 114.736 314.846 115.271 314.429 115.464C308.964 118.053 305.989 125.352 307.164 133.805C305.814 134.105 304.464 134.383 303.114 134.672C305.627 127.224 304.672 122.569 303.267 119.669C302.159 117.401 299.229 115.635 299.788 113.324C300.205 111.601 302.071 111.023 302.411 108.786C302.609 107.513 302.214 106.4 301.863 105.694" stroke="#262626" stroke-linecap="round" stroke-linejoin="round"/>
<path d="M244.458 146.255C246.704 146.873 249.485 147.412 252.674 147.581C258.665 147.888 263.538 146.741 266.753 145.677C266.149 150.081 263.516 153.85 259.806 155.122C254.412 156.997 247.042 153.524 244.469 146.258L244.458 146.255Z" stroke="#262626" stroke-linecap="round" stroke-linejoin="round"/>
<path d="M238.349 183.181C238.81 187.29 239.194 191.602 239.469 196.097C239.71 199.939 239.875 203.919 239.941 208.018C240.017 212.833 239.973 217.467 239.82 221.919C239.765 223.534 239.688 225.129 239.611 226.691" stroke="#262626" stroke-linecap="round" stroke-linejoin="round"/>
<path d="M239.194 196.107C235.254 198.558 230.535 201.993 225.816 206.734C222.567 209.987 219.988 213.197 217.946 216.076C220.964 219.746 224.016 223.502 227.067 227.365C227.659 228.125 228.263 228.895 228.867 229.666C229.613 230.618 230.348 231.571 231.062 232.523C231.204 232.684 231.325 232.844 231.457 233.026C236.835 240.014 241.883 246.905 246.647 253.679" stroke="#262626" stroke-linecap="round" stroke-linejoin="round"/>
<path d="M317.239 230.072C316.833 231.174 316.427 232.255 316.021 233.314L315.209 232.822C310.5 230.008 304.936 227.14 298.526 224.625C295.278 223.352 291.799 222.175 288.111 221.147C284.544 220.152 281.12 219.382 277.871 218.804C267.467 230.425 257.051 242.057 246.647 253.678C243.409 268.735 240.413 284.54 237.768 301.052C235.759 313.626 234.069 325.846 232.664 337.703" stroke="#262626" stroke-linecap="round" stroke-linejoin="round"/>
<path d="M303.399 163.854V163.962C303.015 167.29 302.949 172.447 304.991 178.173C305.759 180.356 306.714 182.239 307.647 183.812C313.639 188.028 319.632 192.255 325.624 196.482C325.514 197.295 325.394 198.13 325.251 198.975C324.241 205.535 322.705 212.737 320.444 220.388C319.434 223.77 318.359 226.991 317.239 230.051" stroke="#262626" stroke-linecap="round" stroke-linejoin="round"/>
<path d="M277.871 218.804L307.657 183.812" stroke="#262626" stroke-linecap="round" stroke-linejoin="round"/>
<path d="M325.262 198.975C330.244 202.303 335.227 205.641 340.21 208.969" stroke="#262626" stroke-linecap="round" stroke-linejoin="round"/>
<path d="M411.461 330.095C413.13 330.074 418.31 330.245 422.722 333.948C423.896 334.932 429.823 340.197 428.166 346.907C427.024 351.615 422.887 354.023 421.91 354.558" stroke="#262626" stroke-linecap="round" stroke-linejoin="round"/>
<path d="M411.517 433.35C411.099 436.71 410.177 441.654 407.851 447.218C407.039 449.198 406.029 451.263 404.811 453.361C401.99 458.23 398.171 464.811 390.707 468.824C383.508 472.708 375.781 472.633 369.898 471.627C369.031 471.477 368.197 471.306 367.418 471.124C363.95 470.311 361.404 469.305 360.449 468.899" stroke="#262626" stroke-linecap="round" stroke-linejoin="round"/>
<path d="M421.569 346.04C421.558 348.854 421.526 351.69 421.46 354.569C421.383 358.806 421.24 363.108 421.043 367.474C420.285 384.607 418.705 400.755 416.598 415.8" stroke="#262626" stroke-linecap="round" stroke-linejoin="round"/>
<path d="M340.869 466.266C341.966 467.379 344.249 469.359 347.739 470.397C352.371 471.777 357.814 471.103 360.449 468.898C365.409 464.779 364.542 451.948 354.247 439.428" stroke="#262626" stroke-linecap="round" stroke-linejoin="round"/>
<path d="M273.173 417.64C269.606 417.009 266.061 418.208 264.152 420.786C261.825 423.933 262.933 427.667 263.131 428.341C263.317 428.994 263.581 429.583 263.888 430.139C265.205 432.6 267.345 434.099 268.344 434.762C273.492 438.261 278.496 441.375 283.314 444.158C293.346 449.947 302.565 454.249 310.555 457.448C327.391 464.19 338.772 465.966 340.868 466.266C341.099 466.298 341.22 466.309 341.22 466.309C344.71 466.715 347.508 466.908 349.001 467.015" stroke="#262626" stroke-linecap="round" stroke-linejoin="round"/>
<path d="M280.604 425.11C278.99 420.979 276.74 414.655 274.809 406.726C271.56 393.446 269.53 385.152 273.755 381.129C275.226 379.716 277.168 379.117 279.649 379.031C281.021 378.978 282.579 379.085 284.313 379.288C285.707 379.459 287.233 379.695 288.868 379.984C289.812 380.144 290.811 380.315 291.842 380.497C296.935 381.396 301.676 382.68 306.077 384.178C310.873 385.816 315.23 387.742 319.171 389.764" stroke="#262626" stroke-linecap="round" stroke-linejoin="round"/>
<path d="M317.228 388.801C318.084 387.827 318.962 387.314 319.774 387.068C322.397 386.254 325.756 387.688 329.323 390.845C332.538 393.702 335.919 397.94 339.091 403.194" stroke="#262626" stroke-linecap="round" stroke-linejoin="round"/>
<path d="M365.058 403.633C360.328 399.491 355.806 396.249 351.833 393.724C350.362 392.782 348.826 391.808 347.3 390.888C345.972 390.064 344.633 389.293 343.316 388.587C338.52 386.019 334.097 384.467 331.496 386.265C330.014 387.282 329.476 389.154 329.301 390.856" stroke="#262626" stroke-linecap="round" stroke-linejoin="round"/>
<path d="M356.025 369.229C349.912 369.571 345.16 372.011 342.284 375.061C340.056 377.436 338.97 380.176 339.266 382.594C339.595 385.162 341.461 387.174 343.327 388.587C345.149 389.956 346.96 390.738 347.311 390.887" stroke="#262626" stroke-linecap="round" stroke-linejoin="round"/>
<path d="M357.54 281.148C351.998 287.023 345.358 295.638 340.66 307.248C334.975 321.299 334.097 334.889 335.14 346.296C336.38 359.994 340.408 370.577 342.285 375.061" stroke="#262626" stroke-linecap="round" stroke-linejoin="round"/>
<path d="M333.241 292.449C330.782 296.73 321.772 313.552 327.797 332.45C329.652 338.293 332.505 342.905 335.128 346.297" stroke="#262626" stroke-linecap="round" stroke-linejoin="round"/>
<path d="M279.638 379.031C274.556 377.415 269.244 375.553 263.713 373.424C258.104 371.251 252.836 369.004 247.919 366.746C247.535 367.495 247.173 368.244 246.8 369.015C244.473 373.734 242.19 378.785 240.006 384.167C236.275 393.349 233.377 402.124 231.138 410.278C230.644 412.065 230.183 413.82 229.755 415.543C233.388 417.876 237.57 420.251 242.322 422.499C250.235 426.233 257.611 428.598 263.877 430.15" stroke="#262626" stroke-linecap="round" stroke-linejoin="round"/>
<path d="M224.718 350.138C219.933 344.552 217.266 341.202 215.477 337.478C215.137 336.772 214.829 336.077 214.566 335.392C209.616 323.171 213.929 313.883 209.276 311.935C207.619 311.25 205.599 311.807 203.689 312.898C201.67 314.054 199.771 315.83 198.586 317.35C195.206 321.63 194.492 327.655 196.632 333.391C197.082 334.632 197.686 335.863 198.41 337.05" stroke="#262626" stroke-linecap="round" stroke-linejoin="round"/>
<path d="M246.811 369.015C244.352 367.795 241.016 365.923 237.449 363.173C234.376 360.808 231.72 358.261 227.813 353.724C226.693 352.429 225.672 351.241 224.729 350.139" stroke="#262626" stroke-linecap="round" stroke-linejoin="round"/>
<path d="M200.144 335.916C200.089 335.937 199.058 336.226 198.388 337.061C198.18 337.307 198.004 337.617 197.905 337.981C197.62 339.03 198.015 340.196 198.893 340.988C199.134 341.213 199.431 341.406 199.738 341.545" stroke="#262626" stroke-linecap="round" stroke-linejoin="round"/>
<path d="M201.099 352.267C200.462 350.555 199.848 348.49 199.431 346.093C199.387 345.932 199.365 345.75 199.332 345.579C199.057 343.91 198.937 342.369 198.904 340.988" stroke="#262626" stroke-linecap="round" stroke-linejoin="round"/>
<path d="M208.244 351.594C207.048 351.433 205.511 351.358 203.777 351.615C202.811 351.754 201.922 351.99 201.099 352.257C200.693 352.396 200.298 352.535 199.936 352.696C197.675 353.648 196.073 354.943 195.206 355.724" stroke="#262626" stroke-linecap="round" stroke-linejoin="round"/>
<path d="M199.935 352.706C197.016 352.674 192.889 352.728 187.94 353.059C187.292 353.102 186.655 353.145 186.03 353.188C184.131 353.316 182.331 353.445 180.641 353.605C171.641 354.397 165.429 355.745 162.839 360.144C162.532 360.668 161.522 362.455 161.753 364.724C162.192 369.015 166.933 372.814 173.792 374.526" stroke="#262626" stroke-linecap="round" stroke-linejoin="round"/>
<path d="M173.793 374.525C170.972 374.975 168.722 376.965 168.085 379.534C167.35 382.551 168.963 385.815 172.037 387.228" stroke="#262626" stroke-linecap="round" stroke-linejoin="round"/>
<path d="M172.893 382.83C172.695 383.954 172.519 385.441 172.541 387.207C172.541 388.084 172.607 389.037 172.75 390.053C172.915 391.22 173.321 394.162 174.693 397.127C175.351 398.561 176.251 400.005 177.447 401.247C180.07 403.943 183.418 404.949 187.643 405.367C189.838 405.591 192.264 405.645 194.942 405.698C200.012 405.805 207.805 405.367 217.123 402.434" stroke="#262626" stroke-linecap="round" stroke-linejoin="round"/>
<path d="M210.516 400.904C213.501 401.183 215.718 401.889 217.112 402.424C219.943 403.526 221.326 404.703 225.464 407.143C227.911 408.588 229.931 409.658 231.138 410.268" stroke="#262626" stroke-linecap="round" stroke-linejoin="round"/>
<path d="M411.154 402.702C413.536 407.122 415.358 411.541 416.598 415.79C419.825 426.919 419.001 436.924 413.415 443.088C412.098 444.533 410.32 445.999 407.851 447.219" stroke="#262626" stroke-linecap="round" stroke-linejoin="round"/>
<path d="M400.146 412.975C401.441 413.949 404.174 416.292 405.776 420.284C407.082 423.547 408.279 429.519 406.281 430.963C404.251 432.408 397.863 429.915 377.91 410.749" stroke="#262626" stroke-linecap="round" stroke-linejoin="round"/>
<path d="M216.991 229.891C216.904 231.046 216.827 232.213 216.75 233.358C220.185 231.367 223.62 229.366 227.067 227.365" stroke="#262626" stroke-linecap="round" stroke-linejoin="round"/>
<path d="M217.946 216.075C217.913 216.589 217.869 217.102 217.847 217.616C217.573 221.693 217.276 225.781 217.002 229.88" stroke="#262626" stroke-linecap="round" stroke-linejoin="round"/>
<path d="M283.095 249.323C285.63 247.686 289.768 244.55 293.203 239.318C297.111 233.378 298.175 227.664 298.515 224.625" stroke="#262626" stroke-linecap="round" stroke-linejoin="round"/>
<path d="M253.001 252.555C255.745 252.576 259.29 252.341 263.285 251.356C269.036 249.944 273.393 247.557 276.181 245.717" stroke="#262626" stroke-linecap="round" stroke-linejoin="round"/>
<path d="M230.743 246.562C232.214 248.103 234.156 249.901 236.67 251.635C239.073 253.315 241.367 254.513 243.288 255.359" stroke="#262626" stroke-linecap="round" stroke-linejoin="round"/>
<path d="M319.577 106.561C319.324 107.973 318.973 109.493 318.534 111.087C318.205 112.296 317.854 113.42 317.48 114.501" stroke="#262626" stroke-linecap="round" stroke-linejoin="round"/>
<path d="M319.577 106.561L330.058 107.064L331.189 98.4065C328.642 97.6574 326.963 95.3139 327.095 92.7242L328.708 61.9694C330.409 29.6308 304.837 2.11835 271.659 0.588094C255.932 -0.139578 241.258 5.13604 230.063 14.3925C218.857 23.6489 211.131 36.9075 209.287 52.1458L206.027 79.1446C205.182 86.1966 199.113 91.5578 191.836 91.6862L186.568 91.7932L186.217 100.076L214.709 101.467L301.852 105.694L319.566 106.561H319.577Z" stroke="#262626" stroke-linecap="round" stroke-linejoin="round"/>
<path d="M260.892 25.7568C252.364 41.8512 253.846 60.5995 264.558 73.1518C274.82 85.1905 289.592 86.9134 293.137 87.2344" stroke="#262626" stroke-linecap="round" stroke-linejoin="round"/>
<path d="M234.321 28.4854C234.584 34.6813 234.211 44.965 229.777 56.6398C224.718 69.9734 216.805 78.7482 212.096 83.2641" stroke="white" stroke-linecap="round" stroke-linejoin="round"/>
<path d="M313.047 128.037C312.992 127.727 312.586 125.041 314.638 122.912C315.231 122.302 315.856 121.895 316.493 121.606C318.062 120.9 319.533 121.007 319.763 121.028" stroke="#262626" stroke-linecap="round" stroke-linejoin="round"/>
<path d="M253.242 128.776C251.947 128.038 250.334 128.22 249.368 129.183C248.238 130.306 248.227 132.275 249.489 133.538" stroke="#262626" stroke-miterlimit="10" stroke-linecap="round"/>
<path d="M214.555 335.393C220.569 336.142 226.616 336.912 232.664 337.704C234.036 337.875 235.397 338.057 236.769 338.239C249.664 339.94 262.44 341.728 275.083 343.59C285.553 345.131 295.936 346.714 306.231 348.352C305.452 353.756 304.892 359.994 304.892 366.929C304.892 373.317 305.375 379.106 306.055 384.179" stroke="#262626" stroke-miterlimit="10" stroke-linecap="round"/>
<path d="M306.231 348.351C306.802 337.661 307.822 327.87 309.063 319.063C309.556 315.478 310.094 312.043 310.654 308.79C311.192 305.643 311.752 302.669 312.322 299.843C312.882 297.093 313.442 294.504 313.99 292.075C314.045 291.828 314.1 291.593 314.155 291.336C320.137 264.851 330.036 221.94 351.734 218.526C353.512 218.248 355.027 218.291 356.048 218.366" stroke="#262626" stroke-linecap="round" stroke-linejoin="round"/>
<path d="M317.239 230.072C317.239 230.072 317.25 230.072 317.25 230.051C319.807 226.124 328.862 213.272 342.834 212.319C342.899 212.319 342.976 212.319 343.042 212.309C345.599 212.159 348.146 212.919 350.242 214.363L351.208 215.027L356.048 218.376C378.821 232.587 392.507 248.596 400.015 258.933C404.657 265.311 411.44 274.792 416.543 288.885C423.282 307.473 423.436 323.921 422.722 333.948" stroke="#262626" stroke-linecap="round" stroke-linejoin="round"/>
<path d="M275.083 343.578C275.895 335.959 277.322 325.868 279.945 314.118C280.549 311.475 281.207 308.757 281.921 305.964C282.008 305.622 282.096 305.268 282.195 304.915C282.821 302.475 283.545 299.886 284.357 297.146C285.147 294.503 286.036 291.721 287.013 288.832C291.162 276.547 297.165 262.165 306.066 246.926C309.293 241.404 312.333 236.739 315.187 232.812" stroke="#262626" stroke-linecap="round" stroke-linejoin="round"/>
<path d="M351.207 215.037C350.615 214.085 348.486 210.949 344.293 209.59C342.866 209.12 341.472 208.959 340.199 208.98C336.16 209.034 333.142 210.992 332.681 211.303" stroke="#262626" stroke-linecap="round" stroke-linejoin="round"/>
<path d="M16.2651 330.726L7.63861 261.779C7.1118 257.595 10.2946 253.828 14.6079 253.518L98.5026 247.686C102.245 247.418 105.615 249.869 106.427 253.443L127.28 345.012L134.051 374.729C134.984 378.806 132.24 382.84 128.026 383.589L106.152 387.485L93.1906 389.796L33.0682 400.508C28.7879 401.268 24.7161 398.368 24.1893 394.151L22.6966 382.22L22.2905 378.977L22.1698 378.014" stroke="#262626" stroke-linecap="round" stroke-linejoin="round"/>
<path d="M15.2773 260.987L98.9525 255.166L126.533 376.249L31.817 393.124L15.2773 260.987Z" stroke="#262626" stroke-linecap="round" stroke-linejoin="round"/>
<path d="M287.002 288.843C291.469 288.543 296.825 288.533 302.829 289.239C307.043 289.742 310.83 290.502 314.133 291.358" stroke="#262626" stroke-linecap="round" stroke-linejoin="round"/>
<path d="M279.956 314.129C282.36 314.857 284.906 315.52 287.573 316.13C295.256 317.874 302.378 318.72 308.733 319.03" stroke="#262626" stroke-linecap="round" stroke-linejoin="round"/>
<path d="M284.357 297.157C287.661 297.821 289.955 299.704 289.922 301.234C289.878 302.989 286.783 305.237 282.195 304.915" stroke="#F4F3F1" stroke-linecap="round" stroke-linejoin="round"/>
<path d="M312.322 299.854C307.581 298.806 303.805 300.839 303.41 302.765C303.004 304.723 305.748 308.062 310.654 308.79" stroke="#F4F3F1" stroke-linecap="round" stroke-linejoin="round"/>
<path d="M231.457 233.025C228.405 238.836 225.42 244.989 222.578 251.506C217.518 263.085 213.523 274.331 210.373 285.065C209.726 287.226 209.122 289.377 208.562 291.507C207.629 294.985 206.784 298.409 206.005 301.758C205.456 304.155 204.94 306.531 204.468 308.853C204.194 310.223 203.92 311.571 203.678 312.92" stroke="#262626" stroke-linecap="round" stroke-linejoin="round"/>
<path d="M194.701 283.481C194.086 285.718 193.471 288.04 192.846 290.469C192.198 292.963 191.551 295.574 190.892 298.324C190.508 299.886 190.124 301.502 189.751 303.15C189.531 304.113 189.301 305.098 189.081 306.093C187.424 313.487 185.756 321.663 184.197 330.587C182.924 337.789 181.728 345.473 180.652 353.605" stroke="#262626" stroke-linecap="round" stroke-linejoin="round"/>
<path d="M216.991 229.88C215.136 232.951 212.612 237.328 209.89 242.7C204.029 254.268 199.497 266.028 194.711 283.481" stroke="#262626" stroke-linecap="round" stroke-linejoin="round"/>
<path d="M184.999 330.716C188.873 331.604 192.747 332.503 196.61 333.391" stroke="#262626" stroke-linecap="round" stroke-linejoin="round"/>
<path d="M194.701 283.482C196.907 283.385 199.42 283.407 202.197 283.663C205.303 283.952 208.036 284.477 210.351 285.044" stroke="#262626" stroke-linecap="round" stroke-linejoin="round"/>
<path d="M189.213 306.125C191.309 306.874 193.877 307.602 196.83 308.126C199.705 308.618 202.284 308.811 204.479 308.843" stroke="#262626" stroke-linecap="round" stroke-linejoin="round"/>
<path d="M208.562 291.496C206.323 291.678 204.38 293.016 203.612 294.953C202.646 297.328 203.612 300.207 206.005 301.748" stroke="#F4F3F1" stroke-linecap="round" stroke-linejoin="round"/>
<path d="M192.846 290.469C194.426 291.079 195.611 292.309 195.776 293.711C196.007 295.776 193.998 298.141 190.936 298.334" stroke="#F4F3F1" stroke-linecap="round" stroke-linejoin="round"/>
<path d="M191.144 239.308C189.18 241.544 187.446 243.727 185.909 245.782" stroke="#262626" stroke-linecap="round" stroke-linejoin="round"/>
<path d="M217.847 217.616C214.379 219.585 210.702 221.929 206.949 224.711C200.528 229.505 195.326 234.545 191.155 239.307" stroke="#262626" stroke-linecap="round" stroke-linejoin="round"/>
<path d="M191.155 239.308C189.751 239.65 185.185 240.966 182.485 245.172C180.795 247.815 180.202 251.025 180.674 254.268C181.102 257.221 182.408 260.207 184.592 262.786" stroke="#262626" stroke-linecap="round" stroke-linejoin="round"/>
<path d="M180.4 254.311C177.59 260.549 174.89 267.27 172.421 274.45C164.146 298.549 160.897 320.828 159.953 339.384" stroke="#262626" stroke-linecap="round" stroke-linejoin="round"/>
<path d="M169.315 342.551C169.041 342.22 166.297 338.913 161.786 339.106C161.128 339.127 160.513 339.234 159.953 339.384C157.319 340.058 155.728 341.77 155.398 342.145" stroke="#262626" stroke-linecap="round" stroke-linejoin="round"/>
<path d="M142.118 345.623C140.516 346.008 138.54 346.286 136.17 346.275C133.667 346.275 130.715 345.933 127.28 345.023" stroke="#262626" stroke-linecap="round" stroke-linejoin="round"/>
<path d="M165.605 347.217C164.211 346.233 162.071 344.852 159.195 343.557C158.932 343.44 158.438 343.204 158.076 343.065C157.209 342.733 156.298 342.573 155.387 342.519C151.908 342.359 148.462 343.911 147.759 344.21" stroke="#262626" stroke-linecap="round" stroke-linejoin="round"/>
<path d="M93.2017 389.807C93.8602 392.781 95.8686 395.125 98.2173 395.521C98.36 395.542 98.5137 395.564 98.6564 395.574C101.927 395.831 105.955 392.6 106.174 387.495" stroke="#262626" stroke-linecap="round" stroke-linejoin="round"/>
<path d="M98.6455 395.575C99.6882 396.174 100.808 396.774 101.982 397.352C102.904 397.812 103.881 398.25 104.89 398.689C105.703 399.032 106.515 399.353 107.316 399.652" stroke="#262626" stroke-linecap="round" stroke-linejoin="round"/>
<path d="M101.982 397.352C102.695 399.567 103.738 401.108 104.66 402.178C111.015 409.487 123.241 407.111 124.163 406.918" stroke="#262626" stroke-linecap="round" stroke-linejoin="round"/>
<path d="M117.182 390.866C116.491 390.898 113.989 391.112 112.408 392.985C110.411 395.361 110.674 399.523 113.561 402.659" stroke="#262626" stroke-linecap="round" stroke-linejoin="round"/>
<path d="M124.163 406.907C126.061 407.378 127.971 407.838 129.914 408.277C144.588 411.584 158.647 413.306 171.817 413.938" stroke="#262626" stroke-linecap="round" stroke-linejoin="round"/>
<path d="M174.682 397.127C173.507 399.674 171.005 405.902 171.828 413.949C171.883 414.527 171.96 415.115 172.059 415.715C172.146 416.228 172.234 416.742 172.344 417.234C174.265 426.544 179.84 432.333 181.848 434.249" stroke="#262626" stroke-linecap="round" stroke-linejoin="round"/>
<path d="M172.333 417.223C170.928 419.427 169.227 422.691 168.371 426.864C162.675 454.826 203.986 483.323 210.955 488.106C245.351 511.831 297.198 524.051 341.9 505.068C351.613 500.937 359.022 496.175 363.829 492.719" stroke="#262626" stroke-linecap="round" stroke-linejoin="round"/>
<path d="M186.03 353.188C187.731 350.17 189.422 347.163 191.123 344.146C193.889 344.798 196.654 345.44 199.409 346.093" stroke="#262626" stroke-linecap="round" stroke-linejoin="round"/>
<path d="M224.718 350.139C231.04 351.337 237.471 352.482 244.023 353.563C259.992 356.217 275.489 358.282 290.405 359.887L284.291 379.288" stroke="#262626" stroke-linecap="round" stroke-linejoin="round"/>
<path d="M290.415 359.887C289.889 366.586 289.373 373.284 288.857 379.973" stroke="#262626" stroke-linecap="round" stroke-linejoin="round"/>
<path d="M187.643 405.366C186.93 411.798 186.48 418.903 186.491 426.597C186.524 437.651 187.523 447.582 188.916 456.143C196.698 463.205 207.991 471.841 223.126 478.883C249.675 491.264 274.183 492.312 287.77 491.874C286.179 481.74 284.906 470.9 284.105 459.449C283.731 454.227 283.479 449.134 283.325 444.168" stroke="#262626" stroke-linecap="round" stroke-linejoin="round"/>
<path d="M179.137 366.394C178.995 366.907 178.238 369.657 179.873 372.418C181.201 374.655 183.286 375.522 183.923 375.757" stroke="#262626" stroke-linecap="round" stroke-linejoin="round"/>
<path d="M178.15 381.396C177.217 383.054 177.184 384.927 178.117 386.286C178.688 387.11 179.467 387.527 179.939 387.731" stroke="#262626" stroke-linecap="round" stroke-linejoin="round"/>
<path d="M212.162 325.879C210.977 326.35 209.671 326.286 208.804 325.612C207.52 324.616 207.289 322.326 208.738 320.604" stroke="#262626" stroke-linecap="round" stroke-linejoin="round"/>
<path d="M159.975 355.948C158.504 353.701 153.895 346.981 147.76 344.209C145.762 343.311 144.346 343.161 143.315 343.171C139.737 343.214 137.157 345.365 136.17 346.275H136.159" stroke="#262626" stroke-linecap="round" stroke-linejoin="round"/>
<path d="M149.823 354.922C151.688 357.693 154.268 362.199 155.749 368.213C156.715 372.172 159.031 381.567 155.233 383.9C152.325 385.677 146.376 383.001 140.999 377.726" stroke="#262626" stroke-linecap="round" stroke-linejoin="round"/>
<path d="M186.908 278.023C186.282 281.244 185.745 285.974 186.491 291.592C187.128 296.44 188.521 300.378 189.751 303.15" stroke="#262626" stroke-linecap="round" stroke-linejoin="round"/>
<path d="M320.653 125.437C320.257 125.395 318.831 125.191 317.7 124.004C316.8 123.073 316.57 122.045 316.482 121.617" stroke="#262626" stroke-linecap="round" stroke-linejoin="round"/>
<path d="M22.7079 382.22C22.3018 382.038 18.1641 380.069 17.6483 376.12C17.5934 375.671 17.4946 374.601 17.8897 373.37C17.9995 373.038 18.1422 372.685 18.3397 372.321C18.9324 371.23 20.0519 369.988 21.1713 369.485C21.6872 369.239 22.2249 369.154 22.6969 369.314C24.3432 369.871 24.398 373.081 24.409 373.498C24.4529 376.238 22.9603 378.228 22.3237 378.988" stroke="#262626" stroke-linecap="round" stroke-linejoin="round"/>
<path d="M18.5808 365.634C19.0638 365.334 19.832 364.799 20.6332 364.028C21.5222 363.183 22.4551 362.038 23.1575 360.529C23.6514 359.48 25.3306 355.885 23.6295 352.118C23.5526 351.925 21.4893 347.485 18.3284 347.313C18.1967 347.303 18.076 347.313 17.9443 347.313C14.3444 347.506 9.43848 352.835 7.9678 358.71C7.29831 361.385 7.33123 364.178 8.51656 366.65C10.8104 371.434 16.4517 373.028 17.8784 373.392" stroke="#262626" stroke-linecap="round" stroke-linejoin="round"/>
<path d="M12.0947 354.836C12.5557 355.703 13.302 356.901 14.4434 358.132C15.508 359.277 16.1336 359.94 16.9238 360.058C18.5262 360.304 20.4469 358.335 21.7968 355.35" stroke="#262626" stroke-linecap="round" stroke-linejoin="round"/>
<path d="M17.8677 346.906C18.5811 346.061 19.6677 344.552 20.2494 342.444C20.4359 341.738 21.9286 336.066 18.1641 332.257C17.9555 332.043 17.2641 331.347 16.2653 330.716C15.102 329.988 13.5215 329.346 11.7655 329.656C8.93388 330.159 6.50836 333.016 6.01447 336.847C5.92667 337.372 5.90472 337.917 5.91569 338.485" stroke="#262626" stroke-linecap="round" stroke-linejoin="round"/>
<path d="M6.00331 336.858C4.99359 337.682 3.40218 339.191 2.18393 341.503C1.95345 341.952 0.647398 344.488 0.54862 347.206C0.318141 353.745 7.21059 358.303 7.74837 358.646" stroke="#262626" stroke-linecap="round" stroke-linejoin="round"/>
<path d="M7.57275 339.919C7.70446 340.315 7.86909 340.754 8.09957 341.192C8.90076 342.744 10.0312 343.761 10.8543 344.36C11.2714 344.328 12.8848 344.124 14.1689 342.798C15.1786 341.749 15.442 340.561 15.5188 340.101" stroke="#262626" stroke-linecap="round" stroke-linejoin="round"/>
<path d="M20.6333 364.018L21.1601 369.486" stroke="#262626" stroke-linecap="round" stroke-linejoin="round"/>
<path d="M99.0733 310.95C102.882 329.324 92.0821 346.96 74.9607 350.33C57.8393 353.701 40.8826 341.534 37.0742 323.16C33.2658 304.787 44.0654 287.141 61.1868 283.78C68.4194 282.357 75.6192 283.706 81.8092 287.119C90.2821 291.785 96.8782 300.335 99.0733 310.95Z" stroke="#7099ED" stroke-width="6" stroke-miterlimit="10"/>
<path d="M52.582 314.632L67.5181 327.284C68.6285 328.224 70.3396 327.702 70.7354 326.302L81.8091 287.12L84.0371 279.212" stroke="#7099ED" stroke-width="6" stroke-miterlimit="10" stroke-linecap="round"/>
<path d="M240.094 109.214C239.227 108.968 237.35 108.562 235.254 109.246C230.765 110.723 229.711 115.763 229.667 115.999" stroke="#262626" stroke-linecap="round" stroke-linejoin="round"/>
<path d="M273.744 110.926C274.161 110.755 276.883 109.642 279.473 111.001C280.483 111.536 281.13 112.264 281.493 112.788" stroke="#262626" stroke-linecap="round" stroke-linejoin="round"/>
<path d="M231.533 232.18C231.939 230.939 232.576 229.43 233.608 227.835C235.649 224.732 238.184 222.902 239.819 221.907C239.83 221.907 239.852 221.886 239.863 221.875" stroke="#262626" stroke-linecap="round" stroke-linejoin="round"/>
</g>
<defs>
<clipPath id="clip0_6529_18621">
<rect width="429" height="575" fill="white"/>
</clipPath>
</defs>
</svg>
