<svg width="234" height="345" viewBox="0 0 234 345" fill="none" xmlns="http://www.w3.org/2000/svg">
<g clip-path="url(#clip0_5563_19105)">
<path d="M62.1014 98.0482L49.6173 101.839L47.4127 96.6236C49.4085 95.0823 50.2436 92.533 49.5338 90.167L41.9515 65.0986C40.5319 60.3999 39.8555 55.6428 39.8555 50.9691C39.8555 30.2579 53.1579 10.963 74.31 3.50666C100.213 -5.61592 129.031 6.1143 140.28 30.3579L149.732 50.7358C152.246 56.1427 158.25 59.2085 164.304 58.1755L167.661 57.6006L170.083 65.2403L150.284 71.2553L82.5854 91.8249L62.1014 98.0482Z" fill="#7099ED"/>
<path d="M75.5001 6.5C72.0004 7.5 61.1669 14.5 56.5001 20.5C47.1667 32.4999 45 40.5 44.5 47.5" stroke="white" stroke-linecap="round"/>
<path d="M67 76L61.5 78L63.5 87M53 81L50 83L53 91" stroke="white"/>
<path d="M84.4143 120.442C83.4289 121.225 82.4352 122 81.4415 122.774C81.4165 121.691 81.2828 119.983 80.6733 118.009C79.2787 113.477 75.2788 107.145 70.21 107.187C69.5586 107.195 68.2142 107.312 66.9115 108.145C65.3165 106.095 63.6631 103.379 62.6109 99.9804C62.4105 99.3139 62.2435 98.6807 62.1016 98.0476L82.5855 91.8242L82.6022 91.8659C81.4081 93.3571 80.5814 94.8234 80.0136 96.1647C75.4291 106.879 82.9697 118.334 84.4143 120.442Z" fill="#262626"/>
<path d="M117.415 218.99C119.185 221.848 119.536 224.672 118.225 226.163C117.816 226.63 117.006 227.246 114.918 227.305C115.586 224.147 116.438 221.39 117.415 218.99Z" fill="#FF8B63"/>
<path d="M88.5319 204.744C87.8305 205.827 87.0873 206.927 86.2856 208.035C83.4715 211.951 80.5822 215.283 77.8432 218.074C77.576 218.016 77.3004 217.991 77.0248 217.991C76.9998 217.624 76.8328 215.966 75.3881 214.717C73.6261 213.192 71.4383 213.5 71.1544 213.55C71.1544 211.834 71.121 210.101 71.0625 208.352C73.9936 207.502 77.2002 206.702 80.674 206.019C83.4297 205.477 86.0518 205.061 88.5319 204.744Z" fill="#383940"/>
<path d="M77.0264 217.991C75.0557 217.975 72.7927 219.125 71.0391 220.141C71.1226 217.975 71.1643 215.784 71.156 213.551C71.4399 213.501 73.6277 213.193 75.3897 214.717C76.8344 215.967 77.0014 217.625 77.0264 217.991Z" fill="#383940"/>
<path d="M173.717 221.59C170.845 221.84 168.423 220.04 167.997 217.899C167.496 215.358 169.834 212.359 173.342 212.275C173.475 215.616 173.592 218.699 173.717 221.59Z" fill="#383940"/>
<path d="M157.791 216.742C158.518 218.533 157.023 221.408 153.699 222.232L153.9 214.609C155.695 214.701 157.29 215.517 157.791 216.742Z" fill="#383940"/>
<path d="M173.717 221.59C173.834 224.289 173.951 226.813 174.076 229.221C168.957 229.054 163.621 229.046 158.084 229.238C156.54 229.296 155.011 229.363 153.5 229.446C153.567 227.038 153.634 224.639 153.7 222.231C157.024 221.406 158.519 218.532 157.792 216.741C157.291 215.516 155.696 214.7 153.901 214.608C153.959 212.592 154.009 210.576 154.059 208.56C155.688 208.243 157.4 207.952 159.187 207.718C164.297 207.035 169.007 206.918 173.149 207.085C173.216 208.885 173.283 210.609 173.341 212.275C169.834 212.359 167.496 215.358 167.997 217.899C168.422 220.04 170.844 221.84 173.717 221.59Z" fill="#383940"/>
<path d="M155.337 155.225C155.529 158.841 155.32 162.04 154.969 164.698C154.635 164.456 154.268 164.264 153.9 164.131C151.646 163.315 148.615 164.398 146.31 167.039C147.512 165.256 148.715 162.673 148.397 159.682C148.272 158.483 147.997 155.892 146.084 155.017C144.606 154.342 142.519 154.85 140.715 156.367C144.748 152.234 146.652 148.094 145.316 145.786C145.207 145.603 145.024 145.328 144.757 145.036C145.508 144.045 146.627 142.462 147.788 140.438L154.126 146.536C154.326 147.411 154.51 148.352 154.677 149.343C154.978 151.126 155.22 153.092 155.337 155.225Z" fill="#FF8B63"/>
<path d="M89.6161 193.915C87.2612 193.873 83.9711 194.065 80.2301 195.098C75.8544 196.297 72.5893 198.172 70.51 199.58C69.5079 188.491 67.2449 176.877 63.1949 165.014C62.5352 163.098 61.8504 161.232 61.1406 159.399C63.7043 158.199 66.5435 156.874 67.3451 156.5C68.1885 156.108 74.535 153.15 75.4034 152.742C69.7501 164.256 72.8231 175.553 73.7333 178.552C75.4034 176.852 77.6831 174.87 80.6726 173.045C82.2759 172.07 83.8542 171.279 85.3657 170.629C86.5932 175.286 87.7205 180.451 88.5973 186.083C89.0232 188.783 89.3572 191.399 89.6161 193.915Z" fill="#7099ED"/>
<path d="M90.0087 198.262C90.1089 199.537 90.1924 200.778 90.2509 201.986C89.7081 202.886 89.1403 203.811 88.5307 204.744C86.0506 205.061 83.4285 205.477 80.6728 206.019C77.1989 206.702 73.9923 207.502 71.0613 208.351C70.9945 206.56 70.9026 204.744 70.7773 202.92L71.9715 202.836C73.9339 201.603 77.0152 199.987 81.1154 199.021C84.6978 198.171 87.8209 198.129 90.0087 198.262Z" fill="#7099ED"/>
<path d="M89.6178 193.915C89.7765 195.398 89.9101 196.848 90.0103 198.264C87.8225 198.131 84.6994 198.173 81.117 199.022C77.0168 199.989 73.9355 201.605 71.9731 202.838L70.7789 202.921C70.7038 201.813 70.6119 200.705 70.5117 199.581C72.591 198.173 75.8561 196.298 80.2318 195.098C83.9729 194.065 87.263 193.874 89.6178 193.915Z" fill="#7099ED"/>
<path d="M181.132 280.45C181.124 282.391 181.082 284.282 181.015 286.107C179.779 286.906 178.836 287.756 178.201 288.398C177.383 288.498 176.548 288.589 175.704 288.681C173.608 288.898 171.571 289.056 169.592 289.164C169.107 284.249 168.715 279.15 168.439 273.885C168.314 271.519 168.222 269.178 168.147 266.878C167.922 259.914 167.93 253.224 168.105 246.842C155.104 246.775 141.659 247.017 127.805 247.642C122.962 247.859 118.177 248.117 113.451 248.408C113.501 247.734 113.518 247.034 113.493 246.317C113.459 245.301 113.342 244.343 113.184 243.451C115.28 243.185 117.401 242.935 119.547 242.71C121.192 242.535 122.837 242.368 124.465 242.227C134.302 241.327 143.88 240.919 153.183 240.91C160.298 240.902 167.254 241.127 174.034 241.552L174.894 241.477C175.395 247.309 176.055 252.841 177.024 259.039C178.468 268.286 180.055 275.751 181.132 280.45Z" fill="#7099ED"/>
<path d="M168.437 273.885C168.713 279.151 169.105 284.249 169.59 289.165C165.197 289.415 161.097 289.431 157.348 289.29C155.803 288.373 154.108 287.782 152.329 287.565C148.338 287.082 145.148 288.69 143.812 289.473C142.542 289.373 141.164 289.273 139.695 289.156C129.348 288.323 121.206 287.323 116.898 286.765C110.651 285.957 103.553 284.907 95.7539 283.533C99.0607 278.068 101.808 273.502 103.921 269.545C109.207 269.22 114.518 268.912 119.87 268.637C136.263 267.787 152.354 267.204 168.137 266.879H168.145C168.22 269.178 168.312 271.519 168.437 273.885Z" fill="#7099ED"/>
<path d="M168.146 266.879H168.138C152.355 267.204 136.264 267.787 119.871 268.637C114.519 268.912 109.208 269.22 103.922 269.545C105.325 266.921 106.452 264.563 107.287 262.38C108.924 260.514 112.957 255.424 113.45 248.409C118.176 248.117 122.961 247.859 127.805 247.643C141.658 247.018 155.103 246.776 168.104 246.843C167.929 253.224 167.921 259.914 168.146 266.879Z" fill="#7099ED"/>
<path d="M174.895 241.477L174.035 241.552C167.254 241.127 160.298 240.902 153.184 240.91C153.292 237.086 153.392 233.271 153.501 229.447C155.012 229.363 156.541 229.297 158.085 229.238C163.622 229.047 168.958 229.055 174.077 229.222C174.302 233.629 174.569 237.619 174.895 241.477Z" fill="#7099ED"/>
<path d="M172.806 197.864C172.923 201.138 173.039 204.204 173.148 207.086C169.006 206.92 164.296 207.036 159.186 207.719C157.399 207.953 155.687 208.244 154.059 208.561C154.142 205.587 154.217 202.612 154.301 199.638L154.894 199.655C156.739 199.038 158.919 198.464 161.39 198.064C165.908 197.347 169.841 197.506 172.797 197.864H172.806Z" fill="#7099ED"/>
<path d="M172.582 192.132C170.068 191.799 165.876 191.583 161.066 192.974C158.269 193.79 156.031 194.915 154.402 195.915C154.603 188.225 154.795 180.552 154.987 172.863C156.473 170.771 157.333 168.772 156.69 166.906C156.381 166.006 155.747 165.231 154.979 164.706C155.329 162.04 155.538 158.841 155.346 155.226C155.229 153.093 154.987 151.127 154.686 149.344C157.517 150.527 160.381 151.785 163.271 153.109C165.96 154.342 168.598 155.6 171.17 156.875C171.83 172.996 172.314 185.351 172.59 192.132H172.582Z" fill="#7099ED"/>
<path d="M172.797 197.863C169.841 197.505 165.908 197.347 161.39 198.063C158.919 198.463 156.739 199.038 154.894 199.654L154.301 199.638C154.309 199.079 154.326 198.521 154.343 197.963L154.393 195.914C156.021 194.914 158.259 193.789 161.056 192.973C165.866 191.581 170.058 191.798 172.572 192.131C172.58 192.54 172.597 192.931 172.614 193.298C172.672 194.864 172.731 196.38 172.797 197.863Z" fill="#7099ED"/>
<path d="M124.608 224.973C124.733 230.996 124.666 236.762 124.466 242.227C122.837 242.368 121.192 242.535 119.547 242.71C117.401 242.935 115.28 243.185 113.184 243.451C112.984 242.318 112.7 241.294 112.391 240.377C112.825 239.028 113.301 237.645 113.819 236.237C115.18 232.571 116.683 229.214 118.228 226.164C119.539 224.673 119.188 221.849 117.418 218.991C119.28 214.401 121.585 211.093 123.856 208.652C124.232 213.834 124.499 219.283 124.608 224.973Z" fill="#FF8B63"/>
<path d="M100.733 161.065C100.575 161.34 100.424 161.624 100.274 161.907C97.4933 167.255 97.9275 171.929 98.3534 176.845C96.7919 174.229 95.2136 171.329 93.7105 168.147C91.2471 162.948 88.9841 157.008 87.2805 150.352C86.4288 147.011 85.8025 143.812 85.3516 140.779L85.4935 140.688C86.8714 142.77 88.6417 144.886 90.9131 146.853C92.4162 148.144 93.9276 149.185 95.3556 150.027C95.2804 152.826 97.0173 156.958 100.733 161.065Z" fill="white"/>
<path d="M85.3673 170.63C83.8559 171.28 82.2776 172.071 80.6743 173.046C77.6848 174.87 75.4051 176.853 73.7349 178.553C72.8247 175.553 69.7517 164.256 75.4051 152.743H75.4134C75.6389 152.26 75.8894 151.785 76.1566 151.302C78.9624 146.253 82.6283 142.862 85.3506 140.779C85.8015 143.812 86.4278 147.011 87.2796 150.352C88.9831 157.008 91.2461 162.948 93.7095 168.147H93.7012C91.53 168.539 88.599 169.238 85.3673 170.63Z" fill="#FF8B63"/>
<path d="M90.0101 198.263C89.9099 196.847 89.7763 195.397 89.6176 193.914C89.3588 191.398 89.0247 188.782 88.5989 186.083C87.722 180.451 86.5947 175.286 85.3672 170.629C88.5989 169.237 91.5299 168.538 93.7011 168.154H93.7094C95.2125 171.328 96.7908 174.228 98.3523 176.844C98.6196 179.951 98.8701 183.167 98.2939 186.716C97.6676 190.548 95.8973 196.13 90.3608 202.52H90.2773C90.2773 202.329 90.2606 202.145 90.2523 201.987C90.1938 200.779 90.1103 199.538 90.0101 198.263Z" fill="#FF8B63"/>
<path d="M153.7 222.232C153.634 224.639 153.567 227.039 153.5 229.446C153.391 233.27 153.291 237.086 153.183 240.91C143.88 240.918 134.302 241.326 124.465 242.226C124.665 236.761 124.732 230.996 124.607 224.972C124.498 219.282 124.231 213.834 123.855 208.652C124.632 207.819 125.4 207.086 126.152 206.444C130.077 203.07 131.864 203.295 136.173 198.913C142.01 192.981 144.724 186.641 146.193 183.117C146.419 182.575 146.619 182.067 146.803 181.592C148.089 180.543 149.851 178.976 151.696 176.86C152.882 175.502 154.051 174.161 154.978 172.861C154.786 180.551 154.594 188.224 154.394 195.914L154.343 197.963C154.327 198.521 154.31 199.079 154.302 199.638C154.218 202.612 154.143 205.586 154.06 208.56C154.009 210.576 153.959 212.592 153.901 214.609L153.7 222.232Z" fill="#FF8B63"/>
<path d="M60.5321 230.164C59.6804 229.747 58.4194 229.147 56.8412 228.498C56.5071 228.356 56.1564 228.214 55.789 228.073C50.3528 225.957 45.3675 224.007 43.4552 225.848C42.3028 226.948 42.4114 229.272 43.2297 230.83C43.9145 232.138 45.0334 232.796 45.5428 233.063L45.5011 233.288C35.614 231.18 27.063 234.329 26.3866 236.029C25.9941 237.02 26.1611 237.937 26.1611 237.937C26.278 238.528 26.5369 238.962 26.7123 239.203C23.7812 239.228 21.4097 239.845 20.2406 241.386C20.0903 241.577 19.3304 242.619 19.4222 243.969C19.6143 246.784 23.3386 248.426 23.8564 248.651V248.709C23.0798 248.767 22.6038 248.976 22.203 249.5C21.2259 250.775 21.5683 252.825 22.4201 254.058C23.7729 256.015 27.063 256.873 30.5619 255.715C31.1297 256.207 31.7894 256.723 32.5493 257.24C33.376 257.798 34.1777 258.248 34.8958 258.606C36.758 256.157 39.0294 253.774 41.8018 251.616C41.9437 251.508 42.0857 251.4 42.2276 251.283C45.5094 248.809 48.8163 247.126 51.739 245.976H51.7473C51.9477 245.893 52.1398 245.818 52.3402 245.743C53.6512 242.744 54.9456 240.07 56.1481 237.745C56.3652 237.337 56.574 236.945 56.7744 236.562C58.052 234.163 59.2795 232.047 60.5321 230.164ZM17.9108 306.36L17.5767 306.444C14.5371 302.261 10.7209 296.038 7.99862 287.882C6.07799 282.142 5.18447 276.901 4.80035 272.594C4.15735 271.853 3.23044 270.545 3.03837 268.795C2.90476 267.537 3.16363 266.463 3.72312 265.28C3.05508 261.439 2.50394 257.34 2.16156 252.999C1.43506 244.035 1.67723 235.804 2.42878 228.498H2.42043C2.11146 227.989 -1.22042 222.383 1.44341 217.734C2.22002 216.376 3.33899 215.401 4.48302 214.668L4.46632 214.643C8.75017 201.038 15.4306 192.116 19.7813 187.2C27.0212 179.011 35.305 173.412 40.0983 170.18C42.0022 168.897 43.7809 167.764 45.3925 166.781C45.643 163.232 48.4405 160.516 51.6555 160.316C53.1168 160.224 54.5615 160.657 55.7723 161.49L56.7744 161.432C57.3923 161.141 59.1877 160.307 61.1417 159.399C61.8515 161.232 62.5363 163.098 63.196 165.015C67.246 176.878 69.509 188.492 70.5111 199.58C70.6113 200.705 70.7031 201.813 70.7783 202.921C70.9036 204.746 70.9954 206.562 71.0622 208.353C71.1207 210.103 71.1541 211.835 71.1541 213.552C71.1624 215.784 71.1207 217.975 71.0372 220.142C72.7908 219.125 75.0538 217.975 77.0245 217.992C77.3001 217.992 77.5757 218.017 77.8429 218.075C80.5819 215.284 83.4712 211.952 86.2853 208.036C87.087 206.928 87.8302 205.829 88.5316 204.746C89.1412 203.813 89.7091 202.888 90.2519 201.988C90.2602 202.146 90.2686 202.33 90.2769 202.53C90.4439 205.687 91.3875 213.71 97.8509 220.125C98.1181 220.383 104.289 226.357 112.94 227.231C113.709 227.306 114.36 227.331 114.919 227.306C117.007 227.248 117.817 226.631 118.226 226.165C116.681 229.214 115.178 232.572 113.817 236.237C113.299 237.645 112.823 239.028 112.389 240.378C112.698 241.294 112.982 242.319 113.183 243.452C113.341 244.343 113.458 245.302 113.492 246.318C113.517 247.034 113.492 247.734 113.45 248.409C112.957 255.424 108.924 260.514 107.287 262.38C106.452 264.563 105.325 266.921 103.922 269.545C101.809 273.502 99.0617 278.068 95.7549 283.533C103.554 284.908 110.652 285.957 116.899 286.765C121.207 287.324 129.349 288.323 139.696 289.157C141.165 289.273 142.543 289.373 143.812 289.473C145.149 288.69 148.338 287.082 152.33 287.565C154.109 287.782 155.804 288.373 157.349 289.29C161.098 289.431 165.198 289.415 169.591 289.165C171.57 289.057 173.607 288.898 175.703 288.682C176.547 288.59 177.382 288.498 178.2 288.398C178.835 287.757 179.778 286.907 181.014 286.107C181.081 284.283 181.123 282.392 181.131 280.459C180.054 275.752 178.467 268.287 177.023 259.04C176.054 252.841 175.394 247.309 174.893 241.478C174.568 237.62 174.3 233.63 174.075 229.222C173.95 226.815 173.833 224.29 173.716 221.591C173.591 218.7 173.474 215.618 173.34 212.277C173.282 210.611 173.215 208.886 173.148 207.087C173.04 204.204 172.923 201.138 172.806 197.864C172.739 196.381 172.68 194.865 172.622 193.299C172.605 192.932 172.589 192.541 172.58 192.132C172.305 185.351 171.82 172.996 171.161 156.875C181.056 161.782 190.125 166.997 198.392 172.296L198.517 172.554C199.503 172.113 200.513 171.904 201.473 171.979C204.446 172.204 207.377 175.128 208.379 179.119C208.571 179.277 208.772 179.444 208.964 179.619C224.93 193.757 229.882 213.093 231.535 226.065L231.494 226.107C232.287 226.965 232.846 227.931 233.105 228.948C233.84 231.855 231.986 234.629 231.243 235.629C231.778 238.703 232.237 241.886 232.604 245.177C234.717 264.013 233.155 280.867 230.383 294.755C230.742 296.205 230.876 297.871 230.375 299.654C230.124 300.562 229.556 302.02 228.17 303.553C228.153 309.668 227.051 318.165 221.732 325.847C204.613 350.565 159.052 344.733 136.614 341.859C136.614 341.859 122.819 340.093 86.6193 322.556C84.0641 321.323 79.5047 318.882 78.9118 314.925C78.7615 313.908 78.9034 313.034 79.0454 312.459C78.1853 312.134 77.2416 311.701 76.2646 311.109C74.7031 310.151 73.5507 309.11 72.7657 308.268C70.5361 310.518 67.5466 313.125 63.7137 315.558C58.0771 319.132 43.9729 328.08 31.3385 322.448C22.3867 318.457 18.846 309.226 18.5705 308.451C18.3032 307.735 18.0861 307.035 17.9108 306.36Z" fill="#FF8B63"/>
<path d="M100.732 161.066C97.0163 156.959 95.2793 152.826 95.3545 150.027C95.3796 148.902 95.7052 147.986 96.3065 147.378C98.1436 145.528 102.753 146.278 105.667 148.019C109.317 150.194 110.31 153.868 110.511 154.726C111.003 153.984 111.546 153.235 112.164 152.468C115.93 147.811 120.39 145.153 123.513 143.67C123.905 142.929 124.498 141.979 125.383 141.021C126.16 140.18 126.936 139.555 127.579 139.113C128.657 138.239 130.318 136.947 132.431 135.506C138.001 131.707 142.151 128.883 145.091 130.199C146.619 130.89 147.487 132.548 147.738 133.806C148.347 136.922 145.809 140.663 141.091 143.862C139.721 144.195 138.778 145.22 138.661 145.345C139.529 144.87 140.339 144.37 141.091 143.862C141.508 143.754 141.967 143.712 142.452 143.779C143.487 143.92 144.256 144.504 144.757 145.037C145.024 145.328 145.207 145.603 145.316 145.787C146.652 148.094 144.748 152.235 140.715 156.367C140.372 156.65 140.038 156.975 139.729 157.333C140.072 157.009 140.398 156.692 140.715 156.367C142.519 154.851 144.606 154.343 146.084 155.017C147.997 155.892 148.272 158.483 148.397 159.683C148.715 162.674 147.512 165.256 146.31 167.039C145.942 167.456 145.6 167.906 145.283 168.397C145.6 168.022 145.959 167.564 146.31 167.039C148.615 164.398 151.646 163.315 153.9 164.132C154.268 164.265 154.635 164.457 154.969 164.698C155.738 165.231 156.372 166.006 156.681 166.906C157.324 168.772 156.464 170.772 154.978 172.854C154.051 174.162 152.882 175.504 151.696 176.862C149.85 178.978 148.088 180.544 146.802 181.594C146.619 182.069 146.418 182.577 146.193 183.118C144.723 186.642 142.009 192.982 136.172 198.914C131.863 203.296 130.076 203.071 126.151 206.445C125.4 207.087 124.632 207.82 123.855 208.653C121.584 211.094 119.279 214.402 117.417 218.984C116.44 221.391 115.588 224.149 114.92 227.307C114.36 227.332 113.709 227.307 112.941 227.232C104.29 226.357 98.1185 220.383 97.8513 220.125C91.388 213.71 90.4444 205.687 90.2773 202.53H90.3608C95.8973 196.131 97.6676 190.55 98.2939 186.717C98.8701 183.168 98.6196 179.952 98.3524 176.845C97.9265 171.93 97.4922 167.256 100.273 161.907C100.423 161.624 100.574 161.341 100.732 161.066Z" fill="white"/>
<path d="M152.139 97.7571C153.525 119.601 153.818 129.865 147.788 140.437C146.628 142.462 145.509 144.045 144.757 145.036C144.256 144.503 143.488 143.92 142.452 143.778C141.968 143.712 141.509 143.753 141.091 143.862C145.809 140.662 148.348 136.922 147.738 133.806C147.488 132.548 146.619 130.89 145.091 130.199C142.152 128.882 138.002 131.706 132.432 135.505C130.319 136.947 128.657 138.238 127.58 139.113C126.937 139.554 126.16 140.179 125.384 141.021C124.499 141.979 123.906 142.928 123.513 143.67C120.39 145.153 115.931 147.811 112.165 152.468C111.547 153.234 111.004 153.984 110.511 154.725C110.311 153.867 109.317 150.193 105.668 148.019C102.754 146.278 98.1443 145.528 96.3072 147.377C95.7059 147.985 95.3802 148.902 95.3552 150.027C93.9272 149.185 92.4158 148.144 90.9127 146.852C88.6413 144.886 86.871 142.77 85.4932 140.687C83.2468 137.322 82.0193 134.056 81.3346 131.731C75.0215 132.365 68.9757 130.024 65.8108 125.433C61.9028 119.768 62.5291 110.945 66.9131 108.146C68.2158 107.313 69.5602 107.196 70.2116 107.188C75.2804 107.146 79.2803 113.478 80.6749 118.01C81.2845 119.985 81.4181 121.692 81.4431 122.775C82.4368 122.001 83.4306 121.226 84.4159 120.443C82.9713 118.335 75.4307 106.88 80.0152 96.1659C80.583 94.8246 81.4097 93.3583 82.6039 91.867L82.5872 91.8254L150.285 71.2559C150.753 77.3626 151.429 86.5268 152.139 97.7571ZM136.674 102.789C138.628 102.464 139.697 99.3401 139.07 95.816C138.436 92.2836 136.331 89.6926 134.377 90.0175C132.423 90.3425 131.355 93.4666 131.989 96.9907C132.615 100.523 134.72 103.114 136.674 102.789ZM106.119 109.229C108.073 108.904 109.142 105.78 108.507 102.256C107.873 98.7319 105.777 96.1326 103.823 96.4575C101.869 96.7824 100.791 99.9066 101.426 103.439C102.061 106.963 104.157 109.562 106.119 109.229Z" fill="white"/>
<path d="M139.069 95.8162C139.695 99.3403 138.626 102.464 136.672 102.789C134.718 103.114 132.614 100.523 131.988 96.9909C131.353 93.4668 132.422 90.3427 134.376 90.0177C136.33 89.6928 138.434 92.2838 139.069 95.8162Z" fill="#262626"/>
<path d="M108.506 102.256C109.14 105.78 108.071 108.904 106.117 109.229C104.155 109.562 102.059 106.963 101.424 103.439C100.79 99.9062 101.867 96.782 103.821 96.4571C105.775 96.1322 107.871 98.7315 108.506 102.256Z" fill="#262626"/>
<path d="M49.8422 234.546C48.3808 234.004 46.9278 233.587 45.4999 233.288L45.5416 233.063C45.0322 232.796 43.9133 232.138 43.2285 230.83C42.4102 229.272 42.3016 226.948 43.454 225.848C45.3663 224.007 50.3516 225.956 55.7878 228.072C56.1552 228.214 56.5059 228.356 56.84 228.497C58.4182 229.147 59.6792 229.747 60.5309 230.163C59.2783 232.046 58.0508 234.162 56.7731 236.562C56.5727 236.945 56.364 237.336 56.1469 237.745C54.8776 236.903 52.7231 235.612 49.8422 234.546Z" fill="white"/>
<path d="M43.7466 242.636C38.753 240.928 31.8721 239.161 26.7114 239.203C26.5361 238.962 26.2772 238.528 26.1603 237.937C26.1603 237.937 25.9933 237.02 26.3858 236.029C27.0622 234.329 35.6132 231.18 45.5003 233.288C46.9282 233.588 48.3812 234.005 49.8426 234.546C52.7235 235.612 54.878 236.904 56.1472 237.745C54.9448 240.07 53.6504 242.744 52.3394 245.743C52.139 245.818 51.9469 245.893 51.7465 245.976H51.7381C50.5273 245.36 48.306 244.31 45.4334 243.244C44.899 243.044 44.3395 242.844 43.7466 242.636Z" fill="white"/>
<path d="M43.747 242.634C44.3399 242.843 44.8994 243.043 45.4338 243.242C48.3064 244.309 50.5277 245.359 51.7385 245.975C48.8158 247.125 45.509 248.808 42.2272 251.282C41.4422 250.557 40.1729 249.582 38.3859 248.966C36.4903 248.308 35.0791 248.349 32.6574 248.541C27.7473 248.924 25.2838 248.574 23.8559 248.708V248.649C23.3382 248.424 19.6138 246.783 19.4217 243.967C19.3299 242.618 20.0898 241.576 20.2401 241.385C21.4092 239.843 23.7807 239.227 26.7118 239.202C31.8725 239.16 38.7533 240.926 43.747 242.634Z" fill="white"/>
<path d="M30.5612 255.714C27.0623 256.872 23.7722 256.014 22.4194 254.057C21.5677 252.823 21.2253 250.774 22.2023 249.499C22.6031 248.975 23.0791 248.766 23.8557 248.708C25.2837 248.575 27.7471 248.925 32.6572 248.541C35.0789 248.35 36.4902 248.308 38.3857 248.966C40.1728 249.583 41.4421 250.557 42.227 251.282C42.085 251.399 41.9431 251.507 41.8011 251.615C39.0287 253.773 36.7574 256.156 34.8952 258.605C34.177 258.247 33.3754 257.797 32.5487 257.239C31.7888 256.722 31.1291 256.206 30.5612 255.723V255.714Z" fill="white"/>
<path d="M106 102.667L100 100L100.667 106L106 102.667Z" fill="white"/>
<path d="M135.5 96L131 94L131.5 98.5L135.5 96Z" fill="white"/>
<path d="M109.301 156.709C109.66 156.067 110.061 155.401 110.512 154.726C111.004 153.984 111.547 153.235 112.165 152.468C115.931 147.811 120.39 145.153 123.513 143.67C123.906 142.929 124.499 141.979 125.384 141.021C126.161 140.18 126.937 139.555 127.58 139.113C128.657 138.239 130.319 136.947 132.432 135.506C138.002 131.707 142.152 128.883 145.091 130.199C146.62 130.89 147.488 132.548 147.739 133.806C148.348 136.922 145.81 140.663 141.091 143.862C140.34 144.37 139.53 144.87 138.661 145.345C137.651 145.911 136.557 146.445 135.405 146.953C134.261 149.002 132.574 151.527 130.119 154.059C128.557 155.676 127.004 156.967 125.601 157.983" stroke="#262626" stroke-miterlimit="10" stroke-linecap="round"/>
<path d="M129.23 149.392C129.899 149.284 130.834 149.042 131.769 148.443C134.241 146.851 134.667 144.094 134.742 143.561" stroke="#262626" stroke-miterlimit="10" stroke-linecap="round"/>
<path d="M138.66 145.344C138.777 145.219 139.721 144.195 141.09 143.861C141.508 143.753 141.967 143.712 142.451 143.778C143.487 143.92 144.255 144.503 144.756 145.036C145.023 145.328 145.207 145.603 145.316 145.786C146.652 148.094 144.748 152.234 140.714 156.367C140.397 156.691 140.071 157.008 139.729 157.333" stroke="#262626" stroke-miterlimit="10" stroke-linecap="round"/>
<path d="M139.722 157.34C138.428 159.964 134.912 163.055 134.52 163.388" stroke="#262626" stroke-miterlimit="10" stroke-linecap="round"/>
<path d="M141.125 151.834C141.058 152.276 140.958 152.892 140.799 153.634C140.465 155.216 140.098 156.399 140.031 156.608C139.956 156.841 139.856 157.091 139.73 157.333" stroke="#262626" stroke-miterlimit="10" stroke-linecap="round"/>
<path d="M145.274 168.404C144.99 168.746 144.731 169.021 144.539 169.221" stroke="#262626" stroke-miterlimit="10" stroke-linecap="round"/>
<path d="M139.711 157.348H139.719V157.332C140.037 156.973 140.371 156.648 140.713 156.365C142.517 154.849 144.604 154.341 146.082 155.016C147.995 155.89 148.27 158.481 148.396 159.681C148.713 162.672 147.51 165.254 146.308 167.037C145.957 167.562 145.598 168.02 145.281 168.395" stroke="#262626" stroke-miterlimit="10" stroke-linecap="round"/>
<path d="M121.201 158.09C121.552 158.415 122.654 159.523 122.846 161.272C122.904 161.797 123.08 163.405 121.969 164.555C120.892 165.671 119.005 165.971 117.234 165.296" stroke="#262626" stroke-miterlimit="10" stroke-linecap="round"/>
<path d="M131.435 167.205C132.212 167.905 132.512 168.946 132.203 169.863C131.828 170.987 130.575 171.729 129.23 171.554" stroke="#262626" stroke-miterlimit="10" stroke-linecap="round"/>
<path d="M110.51 154.726C110.31 153.868 109.316 150.194 105.667 148.019C102.753 146.278 98.143 145.528 96.3059 147.378C95.7046 147.986 95.379 148.902 95.3539 150.027C95.2787 152.826 97.0157 156.958 100.732 161.066" stroke="#262626" stroke-miterlimit="10" stroke-linecap="round"/>
<path d="M103.795 156.607C102.727 157.907 101.674 159.382 100.731 161.065C100.572 161.34 100.422 161.623 100.272 161.906C97.4908 167.255 97.925 171.928 98.3509 176.844C98.6181 179.951 98.8686 183.167 98.2924 186.716C97.6661 190.548 95.8958 196.13 90.3594 202.52" stroke="#262626" stroke-miterlimit="10" stroke-linecap="round"/>
<path d="M117.418 218.984C119.28 214.402 121.585 211.094 123.856 208.653C124.633 207.82 125.401 207.087 126.153 206.445C130.077 203.071 131.864 203.296 136.173 198.914C142.01 192.982 144.724 186.642 146.194 183.118C146.42 182.577 146.62 182.068 146.804 181.594C147.096 180.81 147.338 180.144 147.513 179.619" stroke="#262626" stroke-miterlimit="10" stroke-linecap="round"/>
<path d="M114.918 227.313C115.586 224.147 116.438 221.39 117.415 218.99" stroke="#262626" stroke-miterlimit="10" stroke-linecap="round"/>
<path d="M154.968 164.696C154.634 164.455 154.267 164.263 153.9 164.13C151.645 163.314 148.614 164.397 146.309 167.038C145.941 167.454 145.599 167.904 145.282 168.396C145.273 168.396 145.273 168.396 145.273 168.396" stroke="#262626" stroke-miterlimit="10" stroke-linecap="round"/>
<path d="M154.977 172.853C156.463 170.77 157.324 168.771 156.681 166.904C156.372 166.005 155.737 165.23 154.969 164.705" stroke="#262626" stroke-miterlimit="10" stroke-linecap="round"/>
<path d="M146.801 181.592C148.087 180.543 149.849 178.976 151.694 176.86C152.88 175.502 154.049 174.161 154.976 172.861" stroke="#262626" stroke-miterlimit="10" stroke-linecap="round"/>
<path d="M85.3516 140.779C85.8025 143.812 86.4288 147.011 87.2805 150.352C88.9841 157.008 91.2471 162.948 93.7105 168.147C95.2136 171.33 96.7919 174.229 98.3534 176.845" stroke="#262626" stroke-miterlimit="10" stroke-linecap="round"/>
<path d="M75.4051 152.742C69.7517 164.256 72.8247 175.553 73.7349 178.552C75.4051 176.852 77.6848 174.87 80.6743 173.045C82.2776 172.07 83.8559 171.279 85.3673 170.629C88.599 169.238 91.53 168.538 93.7012 168.155" stroke="#262626" stroke-miterlimit="10" stroke-linecap="round"/>
<path d="M85.3513 140.779C82.629 142.862 78.9631 146.253 76.1573 151.302C75.89 151.785 75.6395 152.26 75.4141 152.743" stroke="#262626" stroke-miterlimit="10" stroke-linecap="round"/>
<path d="M68.0078 113.236C68.3502 114.086 68.9598 115.327 70.1038 116.519C72.133 118.652 74.563 119.36 75.6068 119.601" stroke="#262626" stroke-miterlimit="10" stroke-linecap="round"/>
<path d="M82.6039 91.8672C81.4097 93.3585 80.583 94.8247 80.0152 96.166C75.4307 106.88 82.9713 118.335 84.4159 120.443C83.4306 121.226 82.4368 122.001 81.4431 122.776C81.4181 121.693 81.2845 119.985 80.6749 118.01C79.2803 113.478 75.2804 107.146 70.2116 107.188C69.5602 107.196 68.2158 107.313 66.9131 108.146C62.5291 110.945 61.9028 119.768 65.8108 125.433C68.9757 130.024 75.0215 132.365 81.3346 131.732C82.0193 134.056 83.2468 137.322 85.4932 140.688C86.871 142.77 88.6413 144.886 90.9127 146.853C92.4158 148.144 93.9272 149.185 95.3552 150.027" stroke="#262626" stroke-miterlimit="10" stroke-linecap="round"/>
<path d="M62.1016 98.0391C62.2435 98.6806 62.4105 99.3137 62.6109 99.9802C63.6631 103.379 65.3165 106.095 66.9115 108.145" stroke="#262626" stroke-miterlimit="10" stroke-linecap="round"/>
<path d="M150.283 71.2559C150.75 77.3626 151.427 86.5268 152.136 97.7572C153.523 119.601 153.815 129.865 147.786 140.437C146.625 142.462 145.506 144.045 144.754 145.036C144.746 145.036 144.746 145.036 144.746 145.036" stroke="#262626" stroke-miterlimit="10" stroke-linecap="round"/>
<path d="M61.1408 159.398C59.1868 160.307 57.3914 161.14 56.7734 161.431" stroke="#262626" stroke-miterlimit="10" stroke-linecap="round"/>
<path d="M75.4118 152.742H75.4034C74.535 153.15 68.1885 156.108 67.3451 156.5C66.5435 156.874 63.7043 158.199 61.1406 159.39" stroke="#262626" stroke-miterlimit="10" stroke-linecap="round"/>
<path d="M57.9332 163.814C57.3821 162.872 56.6389 162.081 55.7704 161.49C54.5596 160.656 53.1149 160.223 51.6536 160.315C48.4386 160.515 45.6411 163.231 45.3906 166.78" stroke="#262626" stroke-miterlimit="10" stroke-linecap="round"/>
<path d="M49.6749 164.289C48.4474 164.972 47.0111 165.805 45.391 166.78C43.7794 167.763 42.0007 168.896 40.0968 170.179C35.3035 173.412 27.0198 179.01 19.7798 187.2C15.4292 192.115 8.74869 201.038 4.46484 214.642" stroke="#262626" stroke-miterlimit="10" stroke-linecap="round"/>
<path d="M14.654 211.535C12.9672 211.568 10.1197 211.835 7.06335 213.285C6.2951 213.651 5.37654 214.084 4.48302 214.668C3.339 215.401 2.22002 216.376 1.44341 217.734C-1.22042 222.382 2.11146 227.989 2.42043 228.497" stroke="#262626" stroke-miterlimit="10" stroke-linecap="round"/>
<path d="M3.26568 221.873C2.94835 223.981 2.66443 226.197 2.43062 228.496C1.67906 235.803 1.4369 244.034 2.1634 252.998C2.50577 257.339 3.05691 261.438 3.72496 265.278C3.74166 265.337 3.75001 265.395 3.75836 265.453" stroke="#262626" stroke-miterlimit="10" stroke-linecap="round"/>
<path d="M9.42668 257.238C7.35574 259.438 5.94449 261.471 5.02592 262.962C4.49984 263.812 4.05726 264.57 3.72323 265.278C3.16374 266.461 2.90488 267.536 3.03849 268.794C3.23055 270.543 4.15746 271.851 4.80046 272.593" stroke="#262626" stroke-miterlimit="10" stroke-linecap="round"/>
<path d="M4.58203 269.328C4.62378 270.345 4.69059 271.436 4.79915 272.594C5.18327 276.901 6.07679 282.141 7.99742 287.882C10.7197 296.038 14.5359 302.261 17.5755 306.443" stroke="#262626" stroke-miterlimit="10" stroke-linecap="round"/>
<path d="M17.1342 299.969C17.1175 301.585 17.2428 303.818 17.9108 306.359C18.0862 307.034 18.3033 307.733 18.5705 308.45C18.8461 309.225 22.3867 318.456 31.3386 322.446C43.973 328.078 58.0771 319.13 63.7138 315.556C67.5467 313.124 70.5362 310.516 72.7658 308.267C73.8514 307.158 74.7616 306.142 75.4964 305.276" stroke="#262626" stroke-miterlimit="10" stroke-linecap="round"/>
<path d="M67.7891 302.41C68.4738 303.001 71.3047 305.326 75.4967 305.276C81.317 305.193 84.5737 300.594 84.8577 300.186" stroke="#262626" stroke-miterlimit="10" stroke-linecap="round"/>
<path d="M75.1719 301.244C76.0153 301.17 77.2512 301.003 78.6958 300.603C85.6853 298.67 89.894 293.238 95.7561 283.533C99.0629 278.067 101.81 273.502 103.923 269.545C105.326 266.92 106.453 264.563 107.288 262.38C108.942 258.048 109.443 254.399 108.641 250.766C107.806 246.967 106.136 244.076 104.9 242.285" stroke="#262626" stroke-miterlimit="10" stroke-linecap="round"/>
<path d="M118.224 226.164C116.68 229.213 115.176 232.571 113.815 236.236C113.298 237.644 112.822 239.027 112.387 240.377C112.696 241.293 112.98 242.318 113.181 243.451C113.339 244.343 113.456 245.301 113.49 246.317C113.515 247.034 113.49 247.733 113.448 248.408C112.955 255.423 108.922 260.513 107.285 262.379" stroke="#262626" stroke-miterlimit="10" stroke-linecap="round"/>
<path d="M90.5859 244.51C90.6611 242.044 92.9408 240.203 95.3207 240.486C97.6088 240.752 99.3373 242.91 98.9532 245.251" stroke="#262626" stroke-miterlimit="10" stroke-linecap="round"/>
<path d="M77.8086 218.107L77.842 218.074C80.581 215.283 83.4703 211.95 86.2844 208.035C87.0861 206.927 87.8293 205.827 88.5307 204.744C89.1403 203.811 89.7082 202.886 90.251 201.986C90.2593 202.145 90.2677 202.328 90.276 202.528C90.443 205.685 91.3866 213.708 97.85 220.123C98.1172 220.381 104.288 226.355 112.939 227.23C113.708 227.305 114.359 227.33 114.919 227.305C117.006 227.246 117.816 226.63 118.225 226.163C119.536 224.672 119.186 221.848 117.415 218.99" stroke="#262626" stroke-miterlimit="10" stroke-linecap="round"/>
<path d="M47.4141 258.83C48.9673 253.948 50.6624 249.574 52.3409 245.741C53.6519 242.742 54.9463 240.068 56.1488 237.743C56.3659 237.335 56.5746 236.944 56.7751 236.56C58.0527 234.161 59.2802 232.045 60.5328 230.162C63.2551 226.072 66.1194 223.089 69.994 220.756C70.3114 220.565 70.6621 220.356 71.0379 220.14C72.7915 219.123 75.0545 217.974 77.0252 217.99C77.3008 217.99 77.5764 218.015 77.8436 218.074C78.2528 218.157 78.6536 218.307 79.021 218.532C81.1254 219.848 81.7517 223.456 80.5659 227.438" stroke="#262626" stroke-miterlimit="10" stroke-linecap="round"/>
<path d="M51.7391 245.975C48.8164 247.124 45.5096 248.807 42.2278 251.282C42.0858 251.398 41.9439 251.506 41.8019 251.615C39.0295 253.773 36.7581 256.155 34.896 258.605C33.1924 260.829 31.8313 263.112 30.7457 265.328C27.6811 271.534 26.7291 277.233 26.3867 279.824" stroke="#262626" stroke-miterlimit="10" stroke-linecap="round"/>
<path d="M52.339 245.742C52.1386 245.817 51.9465 245.892 51.7461 245.975" stroke="#262626" stroke-miterlimit="10" stroke-linecap="round"/>
<path d="M30.7452 265.329C29.5677 265.012 27.7306 264.729 25.7265 265.295C21.9604 266.353 19.1629 269.936 18.4531 274.418" stroke="#262626" stroke-miterlimit="10" stroke-linecap="round"/>
<path d="M24.1813 289.364C22.745 286.498 21.8765 285.873 21.317 285.973C19.1208 286.356 17.5259 298.819 23.1876 308.775C24.983 311.924 27.1374 314.182 28.8075 315.665" stroke="#262626" stroke-miterlimit="10" stroke-linecap="round"/>
<path d="M59.4229 257.873C55.5399 269.845 56.6505 279.092 57.7695 284.174C58.6797 288.298 59.3728 291.273 61.8446 292.864C67.2057 296.329 78.2869 291.572 90.1447 280.884" stroke="#262626" stroke-miterlimit="10" stroke-linecap="round"/>
<path d="M60.5309 230.163C59.6792 229.747 58.4182 229.147 56.84 228.497C56.5059 228.356 56.1552 228.214 55.7878 228.072C50.3516 225.956 45.3663 224.007 43.454 225.848C42.3016 226.948 42.4102 229.272 43.2285 230.83C43.9133 232.138 45.0322 232.796 45.5416 233.063" stroke="#262626" stroke-miterlimit="10" stroke-linecap="round"/>
<path d="M56.1556 237.745H56.1472C54.878 236.904 52.7235 235.612 49.8426 234.546C48.3812 234.005 46.9282 233.588 45.5003 233.288C35.6132 231.18 27.0622 234.329 26.3858 236.029C25.9933 237.02 26.1603 237.937 26.1603 237.937C26.2772 238.528 26.5361 238.962 26.7114 239.203" stroke="#262626" stroke-miterlimit="10" stroke-linecap="round"/>
<path d="M51.7468 245.975H51.7385C50.5277 245.359 48.3064 244.309 45.4338 243.242C44.8994 243.043 44.3399 242.843 43.747 242.634C38.7533 240.926 31.8725 239.16 26.7118 239.202C23.7807 239.227 21.4092 239.843 20.2401 241.385C20.0898 241.576 19.3299 242.618 19.4217 243.967C19.6138 246.783 23.3382 248.424 23.8559 248.649" stroke="#262626" stroke-miterlimit="10" stroke-linecap="round"/>
<path d="M47.0883 240.91C46.8378 241.235 46.2867 241.877 45.3264 242.285C44.7001 242.551 44.1322 242.626 43.7481 242.635C43.7147 242.643 43.6897 242.643 43.6562 242.643" stroke="#262626" stroke-miterlimit="10" stroke-linecap="round"/>
<path d="M42.2354 251.291H42.227C41.442 250.557 40.1728 249.583 38.3857 248.966C36.4902 248.308 35.0789 248.35 32.6572 248.541C27.7471 248.925 25.2837 248.575 23.8557 248.708C23.0791 248.766 22.6031 248.975 22.2023 249.499C21.2253 250.774 21.5677 252.823 22.4194 254.057C23.7722 256.014 27.0623 256.872 30.5612 255.714C31.2543 255.498 31.9558 255.19 32.6572 254.798" stroke="#262626" stroke-miterlimit="10" stroke-linecap="round"/>
<path d="M30.5625 255.723C31.1303 256.206 31.79 256.722 32.5499 257.239C33.3766 257.797 34.1783 258.247 34.8965 258.605" stroke="#262626" stroke-miterlimit="10" stroke-linecap="round"/>
<path d="M35.3047 210.893C37.3255 211.542 39.5301 212.426 41.8014 213.65C49.985 218.082 54.5611 224.547 56.8408 228.496" stroke="#262626" stroke-miterlimit="10" stroke-linecap="round"/>
<path d="M51.7157 191.49C51.2815 193.956 50.8807 197.572 51.2731 201.887C51.9662 209.46 54.9724 217.575 56.6676 217.367C57.9703 217.208 58.3127 212.201 58.321 210.052C58.3377 205.353 56.7595 201.696 55.6739 199.655" stroke="#262626" stroke-miterlimit="10" stroke-linecap="round"/>
<path d="M61.1406 159.391C61.8504 161.232 62.5352 163.098 63.1949 165.014C67.2449 176.878 69.5079 188.491 70.51 199.58C70.6102 200.705 70.702 201.813 70.7772 202.921C70.9025 204.745 70.9943 206.561 71.0611 208.353C71.1196 210.102 71.153 211.835 71.153 213.551C71.1613 215.784 71.1196 217.975 71.0361 220.141" stroke="#262626" stroke-miterlimit="10" stroke-linecap="round"/>
<path d="M85.3672 170.621C86.5947 175.287 87.722 180.452 88.5989 186.084C89.0247 188.783 89.3588 191.399 89.6176 193.915C89.7763 195.398 89.9099 196.847 90.0101 198.264C90.1103 199.538 90.1938 200.78 90.2523 201.988" stroke="#262626" stroke-miterlimit="10" stroke-linecap="round"/>
<path d="M147.789 140.438L154.127 146.536C154.328 147.411 154.511 148.352 154.678 149.343C154.979 151.126 155.221 153.092 155.338 155.225C155.53 158.841 155.321 162.04 154.971 164.698" stroke="#262626" stroke-miterlimit="10" stroke-linecap="round"/>
<path d="M154.676 149.344C157.507 150.527 160.371 151.785 163.26 153.109C165.949 154.342 168.588 155.6 171.16 156.875C181.055 161.782 190.124 166.997 198.391 172.296" stroke="#262626" stroke-miterlimit="10" stroke-linecap="round"/>
<path d="M192.99 183.008C192.556 177.893 195.37 173.994 198.518 172.553C199.503 172.111 200.514 171.903 201.474 171.978C204.447 172.203 207.378 175.127 208.38 179.118" stroke="#262626" stroke-miterlimit="10" stroke-linecap="round"/>
<path d="M204.336 175.902C205.697 176.894 207.05 177.96 208.378 179.118C208.57 179.276 208.77 179.443 208.962 179.618C224.928 193.756 229.88 213.092 231.534 226.064" stroke="#262626" stroke-miterlimit="10" stroke-linecap="round"/>
<path d="M171.16 156.875C171.82 172.996 172.304 185.351 172.58 192.132C172.588 192.541 172.605 192.932 172.622 193.299C172.68 194.865 172.738 196.381 172.805 197.864C172.922 201.138 173.039 204.204 173.148 207.087C173.214 208.886 173.281 210.611 173.34 212.277C173.473 215.618 173.59 218.7 173.715 221.591C173.832 224.29 173.949 226.815 174.075 229.222C174.3 233.63 174.567 237.62 174.893 241.478C175.394 247.309 176.054 252.841 177.022 259.04C178.467 268.287 180.054 275.752 181.131 280.451" stroke="#262626" stroke-miterlimit="10" stroke-linecap="round"/>
<path d="M178.566 233.805C178.758 237.162 178.984 240.561 179.226 243.985C179.644 249.784 180.12 255.491 180.646 261.089" stroke="#262626" stroke-miterlimit="10" stroke-linecap="round"/>
<path d="M192.662 222.773C190.649 233.012 188.086 241.11 186.057 246.742C183.936 252.616 181.806 257.431 180.645 261.088C179.568 264.504 179.326 266.903 180.712 268.228C182.516 269.944 186.29 269.103 189.138 268.161" stroke="#262626" stroke-miterlimit="10" stroke-linecap="round"/>
<path d="M180.548 187.783C179.78 193.182 179.27 201.055 180.991 210.261C182.059 216.001 184.565 225.273 186.494 225.107C187.713 225.007 189.057 221.174 189.583 204.537" stroke="#262626" stroke-miterlimit="10" stroke-linecap="round"/>
<path d="M154.979 172.854C154.787 180.551 154.595 188.224 154.394 195.914L154.344 197.964C154.328 198.522 154.311 199.08 154.303 199.638C154.219 202.612 154.144 205.586 154.06 208.561C154.01 210.577 153.96 212.593 153.902 214.609L153.701 222.232C153.635 224.64 153.568 227.039 153.501 229.447C153.392 233.271 153.292 237.086 153.184 240.91" stroke="#262626" stroke-miterlimit="10" stroke-linecap="round"/>
<path d="M113.184 243.451C115.28 243.185 117.401 242.935 119.547 242.71C121.192 242.535 122.837 242.368 124.465 242.227C134.302 241.327 143.88 240.919 153.183 240.91C160.298 240.902 167.254 241.127 174.034 241.552" stroke="#262626" stroke-miterlimit="10" stroke-linecap="round"/>
<path d="M153.5 229.447C155.011 229.363 156.54 229.297 158.084 229.238C163.621 229.047 168.957 229.055 174.076 229.222H174.176" stroke="#262626" stroke-miterlimit="10" stroke-linecap="round"/>
<path d="M154.059 208.56C155.687 208.243 157.399 207.952 159.186 207.718C164.296 207.035 169.006 206.918 173.148 207.085H173.165" stroke="#262626" stroke-miterlimit="10" stroke-linecap="round"/>
<path d="M153.9 214.609C155.696 214.701 157.291 215.517 157.792 216.742C158.518 218.533 157.023 221.408 153.7 222.232H153.691" stroke="white" stroke-miterlimit="10" stroke-linecap="round"/>
<path d="M173.784 221.59H173.717C170.845 221.84 168.423 220.04 167.997 217.899C167.496 215.358 169.834 212.359 173.342 212.275H173.375" stroke="white" stroke-miterlimit="10" stroke-linecap="round"/>
<path d="M154.895 199.655C156.74 199.038 158.92 198.464 161.391 198.064C165.909 197.347 169.842 197.506 172.798 197.864" stroke="#262626" stroke-miterlimit="10" stroke-linecap="round"/>
<path d="M154.344 195.947C154.344 195.947 154.377 195.93 154.394 195.914C156.022 194.914 158.26 193.789 161.058 192.973C165.868 191.581 170.06 191.798 172.573 192.131" stroke="#262626" stroke-miterlimit="10" stroke-linecap="round"/>
<path d="M88.5319 204.744C86.0518 205.061 83.4297 205.477 80.674 206.019C77.2002 206.702 73.9936 207.502 71.0625 208.352" stroke="#262626" stroke-miterlimit="10" stroke-linecap="round"/>
<path d="M71.9727 202.836C73.935 201.603 77.0164 199.987 81.1165 199.021C84.6989 198.171 87.8221 198.129 90.0099 198.262H90.0183" stroke="#262626" stroke-miterlimit="10" stroke-linecap="round"/>
<path d="M70.5117 199.581C72.591 198.173 75.8561 196.298 80.2318 195.098C83.9729 194.065 87.263 193.874 89.6178 193.915H89.6262" stroke="#262626" stroke-miterlimit="10" stroke-linecap="round"/>
<path d="M71.1523 213.551C71.4363 213.501 73.6241 213.193 75.3861 214.717C76.8307 215.967 76.9977 217.625 77.0228 217.991" stroke="white" stroke-miterlimit="10" stroke-linecap="round"/>
<path d="M77.918 233.803C80.039 231.796 82.8949 230.912 85.0243 231.737C88.0973 232.92 89.9929 237.819 87.3374 242.393" stroke="#262626" stroke-miterlimit="10" stroke-linecap="round"/>
<path d="M196.362 285.423C193.155 284.165 189.456 283.132 185.281 284.224C183.594 284.665 182.166 285.365 181.013 286.107C179.777 286.906 178.834 287.756 178.199 288.398" stroke="#262626" stroke-miterlimit="10" stroke-linecap="round"/>
<path d="M209.239 293.771C207.177 291.563 203.786 288.556 198.826 286.448C198.041 286.115 197.223 285.765 196.371 285.432" stroke="#262626" stroke-miterlimit="10" stroke-linecap="round"/>
<path d="M187.435 286.932C184.554 287.49 181.472 287.99 178.199 288.398C177.381 288.498 176.546 288.59 175.702 288.681C173.606 288.898 171.569 289.056 169.59 289.164C165.197 289.414 161.097 289.431 157.348 289.289" stroke="#262626" stroke-miterlimit="10" stroke-linecap="round"/>
<path d="M164.305 298.538C163.127 294.489 160.58 291.198 157.349 289.29C155.804 288.374 154.109 287.782 152.33 287.565C148.339 287.082 145.149 288.69 143.812 289.473" stroke="#262626" stroke-miterlimit="10" stroke-linecap="round"/>
<path d="M148.613 289.79C147.269 289.707 145.649 289.598 143.812 289.473C142.542 289.373 141.164 289.273 139.695 289.157C129.348 288.324 121.206 287.324 116.898 286.766C110.651 285.958 103.553 284.908 95.7539 283.533" stroke="#262626" stroke-miterlimit="10" stroke-linecap="round"/>
<path d="M72.7656 308.26C73.5506 309.11 74.703 310.151 76.2645 311.109C77.2415 311.701 78.1852 312.134 79.0453 312.459C79.8636 312.767 80.6068 312.975 81.2248 313.117" stroke="#262626" stroke-miterlimit="10" stroke-linecap="round"/>
<path d="M88.0482 305.693C84.9418 306.16 83.8478 307.385 83.4303 308.026C81.326 311.259 84.3489 317.94 91.9062 324.039" stroke="#262626" stroke-miterlimit="10" stroke-linecap="round"/>
<path d="M79.0455 312.458C78.9036 313.032 78.7616 313.907 78.9119 314.924C79.5048 318.881 84.0642 321.322 86.6195 322.555C122.819 340.092 136.614 341.858 136.614 341.858C159.052 344.732 204.613 350.564 221.732 325.846C227.051 318.164 228.153 309.667 228.17 303.552C228.179 302.652 228.154 301.81 228.12 301.027" stroke="#262626" stroke-miterlimit="10" stroke-linecap="round"/>
<path d="M226.91 287.639C227.628 288.563 228.555 289.913 229.307 291.696C229.657 292.537 230.092 293.579 230.384 294.753C230.743 296.203 230.877 297.869 230.376 299.652C230.125 300.56 229.557 302.018 228.171 303.551" stroke="#262626" stroke-miterlimit="10" stroke-linecap="round"/>
<path d="M230.792 233.162C230.942 233.979 231.093 234.795 231.243 235.628C231.777 238.702 232.237 241.885 232.604 245.176C234.717 264.012 233.155 280.866 230.383 294.754" stroke="#262626" stroke-miterlimit="10" stroke-linecap="round"/>
<path d="M231.243 235.629C231.986 234.629 233.84 231.855 233.105 228.948C232.846 227.931 232.286 226.965 231.493 226.107C229.005 223.457 224.178 221.825 218.566 222.824" stroke="#262626" stroke-miterlimit="10" stroke-linecap="round"/>
<path d="M228.477 230.538C226.456 230.047 224.753 230.055 223.442 230.222C213.847 231.438 209.388 242.893 209.07 243.743" stroke="#262626" stroke-miterlimit="10" stroke-linecap="round"/>
<path d="M201.641 233.488C205.791 230.505 208.246 229.339 208.989 229.989C209.966 230.839 208.012 234.813 203.127 241.911" stroke="#262626" stroke-miterlimit="10" stroke-linecap="round"/>
<path d="M221.405 289.048C218.841 286.557 215.326 284.041 210.725 282.683C204.27 280.792 196.036 281.275 195.426 283.449C195.243 284.124 195.802 284.866 196.361 285.424H196.37" stroke="#262626" stroke-miterlimit="10" stroke-linecap="round"/>
<path d="M180.715 268.229C180.907 270.944 181.041 273.785 181.099 276.751C181.124 278.009 181.132 279.242 181.132 280.45C181.124 282.391 181.082 284.283 181.015 286.107" stroke="#262626" stroke-miterlimit="10" stroke-linecap="round"/>
<path d="M204.337 190.541C204.262 181.718 203.577 179.994 203.009 179.935C201.999 179.827 200.287 184.926 199.928 189.691C199.569 194.606 200.688 198.697 201.69 201.355" stroke="#262626" stroke-miterlimit="10" stroke-linecap="round"/>
<path d="M173.223 310.309C174.935 313.283 177.665 317.115 181.982 320.489C194.366 330.187 212.437 330.42 213.531 327.329C214.107 325.696 210.308 322.097 193.874 313.966" stroke="#262626" stroke-miterlimit="10" stroke-linecap="round"/>
<path d="M203.621 311.741C212.648 319.172 217.876 322.297 219.312 321.122C220.539 320.122 218.995 315.99 214.686 308.717" stroke="#262626" stroke-miterlimit="10" stroke-linecap="round"/>
<path d="M126.318 316.515C119.955 308.343 110.644 297.079 108.314 298.379C105.851 299.753 112.18 314.566 116.406 323.83" stroke="#262626" stroke-miterlimit="10" stroke-linecap="round"/>
<path d="M113.449 248.409C118.176 248.117 122.961 247.859 127.804 247.643C141.657 247.018 155.102 246.776 168.104 246.843C167.928 253.224 167.92 259.914 168.146 266.879C168.221 269.178 168.313 271.52 168.438 273.886C168.713 279.151 169.106 284.249 169.59 289.165" stroke="#262626" stroke-miterlimit="10" stroke-linecap="round"/>
<path d="M103.922 269.545C109.208 269.22 114.519 268.912 119.871 268.637C136.264 267.787 152.355 267.204 168.138 266.879" stroke="#262626" stroke-miterlimit="10" stroke-linecap="round"/>
<path d="M52.8166 232.93C52.8166 232.93 50.8792 233.979 50.8542 233.996C50.8542 233.996 49.8521 234.538 49.8438 234.546" stroke="#262626" stroke-miterlimit="10" stroke-linecap="round"/>
<path d="M33.3273 234.438C32.893 234.896 32.4504 235.429 31.9995 236.029C31.6571 236.495 31.3565 236.953 31.0977 237.378" stroke="#262626" stroke-miterlimit="10" stroke-linecap="round"/>
<path d="M27.7913 241.518C27.2736 241.892 26.6056 242.459 25.9709 243.267C25.2945 244.125 24.8937 244.958 24.6515 245.575C24.2089 245.5 23.591 245.35 22.9146 245.017C22.138 244.633 21.5952 244.159 21.2695 243.825" stroke="#262626" stroke-miterlimit="10" stroke-linecap="round"/>
<path d="M49.4264 227.197C48.892 227.514 48.3409 227.855 47.773 228.239C47.2135 228.605 46.6958 228.98 46.2031 229.347" stroke="#262626" stroke-miterlimit="10" stroke-linecap="round"/>
<path d="M27.6237 249.625C27.6237 249.7 27.6571 250.941 26.7135 251.541C25.82 252.108 24.4087 251.866 23.582 250.825" stroke="#262626" stroke-miterlimit="10" stroke-linecap="round"/>
<path d="M150.284 71.2553L170.083 65.2403L167.661 57.6006L164.304 58.1755C158.25 59.2085 152.246 56.1427 149.732 50.7358L140.28 30.3579C129.031 6.1143 100.213 -5.61592 74.31 3.50666C53.1579 10.963 39.8555 30.2579 39.8555 50.9691C39.8555 55.6428 40.5319 60.3999 41.9515 65.0986L49.5338 90.167C50.2436 92.533 49.4085 95.0823 47.4127 96.6236L49.6173 101.839L62.1014 98.0482L82.5854 91.8249L150.284 71.2553Z" stroke="#262626" stroke-miterlimit="10" stroke-linecap="round"/>
<path d="M101.15 19.2188C111.505 30.0909 114.912 44.7453 109.734 56.7504C105.784 65.9147 98.0685 70.6717 94.7617 72.4463" stroke="white" stroke-miterlimit="10" stroke-linecap="round"/>
<path d="M119.645 16.6699C120.622 21.4686 122.5 27.7586 126.25 34.4902C132.964 46.5037 142.183 53.6184 147.619 57.1758" stroke="#262626" stroke-miterlimit="10" stroke-linecap="round"/>
<path d="M90.7188 100.114C92.0966 99.1139 93.7417 98.0891 95.679 97.1727C101.19 94.5401 106.393 94.0236 109.8 93.9902" stroke="#262626" stroke-miterlimit="10" stroke-linecap="round"/>
<path d="M130.441 85.16C132.562 79.1699 137.857 76.7706 140.688 78.0036C142.75 78.9033 143.886 81.9109 143.744 85.16" stroke="#262626" stroke-miterlimit="10" stroke-linecap="round"/>
<path d="M114.008 118.727C114.45 118.935 115.469 119.493 115.995 120.634C116.713 122.201 116.204 124.208 114.668 125.641" stroke="#262626" stroke-miterlimit="10" stroke-linecap="round"/>
<path d="M116.312 122.225C118.743 121.609 127.078 119.108 129.5 118.5" stroke="#262626" stroke-miterlimit="10" stroke-linecap="round"/>
<path d="M97.574 153.35C97.7911 152.925 98.0333 152.484 98.3172 152.026C98.9435 151.034 99.6032 150.218 100.221 149.56C100.146 149.451 99.3694 148.318 98.0667 148.318C97.4738 148.318 97.0229 148.56 96.7891 148.702" stroke="#262626" stroke-miterlimit="10" stroke-linecap="round"/>
<path d="M123.855 208.652C124.231 213.834 124.498 219.283 124.607 224.973C124.732 230.996 124.665 236.762 124.465 242.227" stroke="#262626" stroke-miterlimit="10" stroke-linecap="round"/>
</g>
<defs>
<clipPath id="clip0_5563_19105">
<rect width="234" height="345" fill="white"/>
</clipPath>
</defs>
</svg>
