<svg width="40" height="40" viewBox="0 0 40 40" fill="none" xmlns="http://www.w3.org/2000/svg">
<rect width="40" height="40" rx="8" fill="#7099ED"/>
<path d="M22.9168 20.1667C22.9168 21.7775 21.611 23.0833 20.0002 23.0833C18.3893 23.0833 17.0835 21.7775 17.0835 20.1667C17.0835 18.5558 18.3893 17.25 20.0002 17.25C21.611 17.25 22.9168 18.5558 22.9168 20.1667Z" stroke="white" stroke-width="1.5"/>
<path d="M20 12.667C24.0588 12.667 27.5 16.0278 27.5 20.1052C27.5 24.2474 24.0027 27.1542 20.7725 29.1309C20.5371 29.2638 20.2708 29.3337 20 29.3337C19.7292 29.3337 19.4629 29.2638 19.2275 29.1309C16.0032 27.135 12.5 24.2617 12.5 20.1052C12.5 16.0278 15.9412 12.667 20 12.667Z" stroke="white" stroke-width="1.5"/>
</svg>
