<svg width="589" height="227" viewBox="0 0 589 227" fill="none" xmlns="http://www.w3.org/2000/svg">
<g clip-path="url(#clip0_6651_18795)">
<rect width="589" height="227" rx="32" fill="#7099ED"/>
<path d="M38.6113 55V40.7812H51.668V55H48.9531V42.8711H41.3262V55H38.6113ZM54.2559 48.1445V47.6074C54.2559 45.2376 54.946 43.4603 56.3262 42.2754C57.7064 41.084 59.4707 40.4883 61.6191 40.4883C63.7611 40.4883 65.5254 41.084 66.9121 42.2754C68.3053 43.4603 69.002 45.2376 69.002 47.6074V48.1445C69.002 50.5339 68.3053 52.3242 66.9121 53.5156C65.5254 54.7005 63.7611 55.293 61.6191 55.293C59.4707 55.293 57.7064 54.7005 56.3262 53.5156C54.946 52.3242 54.2559 50.5339 54.2559 48.1445ZM57.0391 48.3105C57.0391 49.9902 57.4557 51.2272 58.2891 52.0215C59.1289 52.8092 60.2389 53.2031 61.6191 53.2031C62.9993 53.2031 64.1126 52.8092 64.959 52.0215C65.8053 51.2272 66.2285 49.9902 66.2285 48.3105V47.4609C66.2285 45.7812 65.8053 44.5508 64.959 43.7695C64.1191 42.9818 63.0059 42.5879 61.6191 42.5879C60.2389 42.5879 59.1289 42.9818 58.2891 43.7695C57.4557 44.5508 57.0391 45.778 57.0391 47.4512V48.3105ZM70.9355 48.1641V47.6172C70.9355 45.2279 71.6159 43.444 72.9766 42.2656C74.3372 41.0807 76.0918 40.4883 78.2402 40.4883C80.2259 40.4883 81.8079 40.9082 82.9863 41.748C84.1647 42.5814 84.8158 43.8216 84.9395 45.4688L84.959 45.6738H82.2148L82.2051 45.459C82.1139 44.4759 81.7266 43.7533 81.043 43.291C80.3659 42.8223 79.4219 42.5879 78.2109 42.5879C76.8698 42.5879 75.7858 42.985 74.959 43.7793C74.1387 44.5736 73.7285 45.791 73.7285 47.4316V48.3496C73.7285 50.0618 74.1387 51.2988 74.959 52.0605C75.7858 52.8223 76.8698 53.2031 78.2109 53.2031C79.5651 53.2031 80.5482 52.9395 81.1602 52.4121C81.7721 51.8783 82.1204 51.1816 82.2051 50.3223L82.2148 50.1172H84.959L84.9492 50.332C84.8385 51.8555 84.2135 53.0632 83.0742 53.9551C81.9414 54.847 80.3333 55.293 78.25 55.293C76.0885 55.293 74.3275 54.7135 72.9668 53.5547C71.6126 52.3893 70.9355 50.5924 70.9355 48.1641ZM85.584 42.8906V40.7812H98.6602V42.8906H93.4844V55H90.7695V42.8906H85.584ZM98.748 55L104.93 40.7129H107.596L113.787 55H110.838L106.727 44.9219C106.603 44.6289 106.499 44.349 106.414 44.082C106.329 43.8086 106.251 43.5482 106.18 43.3008H106.082C106.004 43.5482 105.923 43.8086 105.838 44.082C105.753 44.3555 105.652 44.6354 105.535 44.9219L101.395 55H98.748ZM101.609 51.6699L102.371 49.6484H110.027L110.789 51.6699H101.609ZM115.271 55V40.7812H121.307C122.999 40.7812 124.321 41.071 125.271 41.6504C126.222 42.2298 126.697 43.1868 126.697 44.5215C126.697 45.3092 126.492 45.9505 126.082 46.4453C125.678 46.9336 125.164 47.2852 124.539 47.5V47.5391C125.32 47.7474 125.952 48.1283 126.434 48.6816C126.922 49.235 127.166 49.9772 127.166 50.9082C127.166 52.2689 126.658 53.291 125.643 53.9746C124.627 54.6582 123.286 55 121.619 55H115.271ZM117.947 53.0469H121.482C122.492 53.0469 123.24 52.8613 123.729 52.4902C124.217 52.1126 124.461 51.543 124.461 50.7812C124.461 50.0651 124.217 49.515 123.729 49.1309C123.24 48.7402 122.492 48.5449 121.482 48.5449H117.947V53.0469ZM117.947 46.709H121.17C122.166 46.709 122.889 46.5365 123.338 46.1914C123.794 45.8464 124.021 45.3516 124.021 44.707C124.021 44.0299 123.797 43.5352 123.348 43.2227C122.898 42.9102 122.173 42.7539 121.17 42.7539H117.947V46.709ZM129.666 40.7812H132.381V52.9102H137.811V40.7812H140.516V52.9102H145.955V40.7812H148.66V52.9102H150.545V57.8223H148.025V55H129.666V40.7812ZM165.691 55H163.035V45.4785C163.035 45.2702 163.038 45.0423 163.045 44.7949C163.051 44.541 163.061 44.3132 163.074 44.1113H162.957C162.859 44.3066 162.762 44.4987 162.664 44.6875C162.573 44.8763 162.443 45.0814 162.273 45.3027L155.271 55H152.4V40.7812H155.066V50.293C155.066 50.4948 155.06 50.7194 155.047 50.9668C155.04 51.2142 155.034 51.4421 155.027 51.6504H155.164C155.236 51.4876 155.324 51.3021 155.428 51.0938C155.538 50.8854 155.665 50.6803 155.809 50.4785L162.82 40.7812H165.691V55ZM178.963 55L172.42 48.1836L174.393 46.7773L182.293 55H178.963ZM170.281 46.6211H172.947L178.865 40.7812H181.805L173.514 48.7305H170.281V46.6211ZM168.924 55V40.7812H171.639V55H168.924ZM196.746 55H194.09V45.4785C194.09 45.2702 194.093 45.0423 194.1 44.7949C194.106 44.541 194.116 44.3132 194.129 44.1113H194.012C193.914 44.3066 193.816 44.4987 193.719 44.6875C193.628 44.8763 193.497 45.0814 193.328 45.3027L186.326 55H183.455V40.7812H186.121V50.293C186.121 50.4948 186.115 50.7194 186.102 50.9668C186.095 51.2142 186.089 51.4421 186.082 51.6504H186.219C186.29 51.4876 186.378 51.3021 186.482 51.0938C186.593 50.8854 186.72 50.6803 186.863 50.4785L193.875 40.7812H196.746V55Z" fill="white"/>
<g clip-path="url(#clip1_6651_18795)">
<path d="M362.059 143.987C361.6 143.993 361.292 144.437 361.505 144.812L363.262 148.004C363.376 148.206 363.609 148.321 363.857 148.301L365.798 148.152C366.229 148.119 366.493 147.702 366.307 147.343L364.732 144.299C364.632 144.108 364.419 143.98 364.182 143.981L362.059 143.987Z" fill="white"/>
<path d="M358.385 135.6C357.925 135.605 357.624 136.049 357.831 136.425L359.588 139.617C359.702 139.818 359.934 139.933 360.182 139.914L362.123 139.765C362.554 139.732 362.818 139.314 362.639 138.955L361.058 135.912C360.958 135.721 360.744 135.593 360.508 135.593L358.385 135.6Z" fill="white"/>
<path d="M354.145 127.659C353.686 127.664 353.378 128.109 353.591 128.483L355.348 131.676C355.462 131.877 355.695 131.992 355.943 131.973L357.877 131.824C358.315 131.79 358.579 131.373 358.393 131.014L356.818 127.97C356.718 127.78 356.505 127.652 356.268 127.658L354.145 127.659Z" fill="white"/>
<path d="M324.31 104.977C323.287 104.839 322.48 105.792 322.894 106.656C326.778 114.769 341.494 145.532 349.395 162.043C352.646 162.521 355.922 162.985 359.224 163.435C360.147 163.562 361.07 163.684 361.993 163.806C362.238 163.311 362.55 162.752 362.944 162.156L362.835 162.098C362.584 162.088 356.76 161.819 355.185 158.27C354.351 156.397 354.692 153.561 355.957 153.097C356.551 152.87 357.159 153.245 357.813 153.55C361.091 155.06 362.964 153.527 368.785 154.252C371.346 154.567 372.627 154.727 373.956 155.521C375.01 156.15 375.507 156.792 376.014 157.668C368.133 142.702 353.085 114.112 350.438 109.087C350.184 108.607 349.691 108.272 349.113 108.19L341.859 107.105C341.194 107.006 340.587 107.492 340.615 108.116C340.639 108.685 340.152 109.096 339.616 109.137C339.355 109.157 339.086 109.088 338.855 108.907L337.52 107.86C336.435 107.011 335.105 106.457 333.683 106.26L324.303 104.978L324.31 104.977ZM353.592 128.483C353.379 128.109 353.687 127.664 354.146 127.659L356.269 127.658C356.505 127.652 356.719 127.78 356.819 127.971L358.394 131.014C358.579 131.373 358.316 131.79 357.878 131.824L355.944 131.973C355.695 131.992 355.463 131.877 355.349 131.676L353.592 128.483ZM357.831 136.425C357.624 136.049 357.925 135.605 358.385 135.6L360.508 135.593C360.744 135.593 360.958 135.721 361.058 135.912L362.639 138.955C362.818 139.314 362.554 139.732 362.123 139.765L360.182 139.914C359.934 139.933 359.702 139.818 359.588 139.617L357.831 136.425ZM361.506 144.812C361.293 144.437 361.6 143.993 362.06 143.987L364.182 143.981C364.419 143.98 364.633 144.108 364.733 144.299L366.308 147.343C366.493 147.702 366.229 148.119 365.798 148.152L363.857 148.302C363.609 148.321 363.377 148.206 363.263 148.004L361.506 144.812Z" fill="white"/>
<path d="M487.973 214.311L487.988 214.328C489.369 215.022 490.75 215.716 492.137 216.41C492.035 215.25 491.879 213.812 491.6 212.161L491.548 212.165C490.345 212.925 489.151 213.637 487.973 214.311Z" fill="#7099ED"/>
<path d="M468.544 123.273L468.427 127.903C469.997 125.153 471.574 122.409 473.144 119.659C471.746 117.046 470.245 114.785 468.809 112.862C468.721 116.334 468.632 119.801 468.544 123.273Z" fill="#7099ED"/>
<path d="M377.743 156.734C377.003 157.026 376.425 157.377 376.02 157.667C376.535 158.548 377.055 159.669 378.17 161.262C381.065 165.408 382.841 165.422 384.471 168.756C384.581 168.982 384.683 169.203 384.772 169.425C385.6 171.389 385.778 173.18 385.809 174.363C386.544 174.776 387.78 175.457 389.332 176.234C392.251 177.694 405.381 184.158 426.06 187.164C428.965 187.585 433.238 188.117 438.488 188.429C439.43 181.022 440.88 175.008 442.051 170.833C442.397 169.603 442.806 168.164 443.294 166.556L443.274 166.557C441.382 170.078 439.484 173.599 437.593 177.126C430.213 175.353 422.143 172.977 413.627 169.763C409.159 168.079 404.982 166.324 401.092 164.542C399.491 161.494 395.469 155.016 387.245 151.323C384.937 150.285 382.72 149.661 380.758 149.276C378.053 148.54 375.354 147.809 372.643 147.078L377.75 156.734L377.743 156.734Z" fill="white"/>
<path d="M374.4 198.314C375.172 198.79 376.063 199.258 377.087 199.672C379.048 200.472 380.903 200.835 382.427 200.994C385.736 202.816 390.595 205.402 396.6 208.286C411.533 215.447 422.923 220.913 433.959 223.65C437.289 224.477 440.587 225.054 443.936 225.356C450.574 225.947 467.015 226.313 487.973 214.311C489.15 213.637 490.345 212.925 491.549 212.171L491.601 212.167C490.567 205.899 487.914 196.53 480.786 187.175C473.709 177.881 465.272 172.61 460.223 169.953C458.662 171.277 457.108 172.605 455.546 173.923C449.858 178.764 444.163 183.595 438.481 188.43C433.232 188.117 428.958 187.586 426.053 187.165C405.374 184.158 392.244 177.695 389.325 176.235C387.773 175.457 386.538 174.776 385.803 174.363C385.771 173.181 385.594 171.389 384.766 169.425C384.676 169.203 384.574 168.983 384.464 168.756C382.834 165.422 381.059 165.408 378.163 161.263C377.048 159.67 376.528 158.548 376.014 157.667C375.506 156.792 375.01 156.15 373.956 155.521C372.626 154.727 371.345 154.567 368.784 154.252C362.964 153.527 361.09 155.06 357.812 153.55C357.158 153.245 356.551 152.87 355.957 153.097C354.691 153.561 354.35 156.397 355.184 158.27C356.759 161.819 362.583 162.088 362.834 162.098L362.943 162.156C362.549 162.752 362.237 163.311 361.992 163.806C361.069 163.684 360.146 163.562 359.223 163.435C355.922 162.985 352.645 162.521 349.395 162.043C348.298 161.886 347.208 161.723 346.117 161.555C344.076 161.254 342.047 160.941 340.025 160.627L336.944 154.065L336.542 154.228C335.901 154.873 335.023 155.849 334.164 157.149C333.015 158.886 331.237 161.573 331.569 164.015C331.985 167.021 335.586 169.584 340.266 170.608C342.002 173.182 343.736 175.901 345.449 178.778C346.325 180.245 347.166 181.702 347.96 183.139C347.842 184.935 348.139 186.399 348.597 187.579C351.211 194.381 361.544 198.406 374.381 198.334L374.4 198.314Z" fill="white"/>
<path d="M483.2 112.977C482.561 113.646 481.947 114.379 481.365 115.188C477.186 121.026 477.424 127.53 477.904 131.043L478.152 131.187C480.621 127.658 483.138 124.317 485.656 121.163C498.068 116.058 510.798 111.162 523.861 106.505C524.296 106.352 524.725 106.198 525.16 106.045L525.006 105.665C524.959 103.774 524.942 101.844 524.961 99.8626C524.988 95.7751 525.153 91.5026 525.488 87.0605C525.759 83.3995 526.133 79.8811 526.583 76.5012C531.857 75.4278 535.939 71.9311 536.994 67.6082C537.922 63.7823 536.43 59.4989 533.816 56.9622C532.473 55.6515 530.83 54.8091 529.069 54.7279C524.551 54.5277 519.031 59.3263 518.7 66.4756C516.706 66.0995 514.718 65.7228 512.724 65.3467C513.211 64.2443 513.847 62.5107 514.067 60.3278C514.259 58.4658 514.863 52.5591 510.387 48.5471C507.352 45.8262 503.502 45.346 501.812 45.2414C502.093 44.1969 502.301 42.8873 502.213 41.4019C501.946 36.8136 499.07 33.6834 497.89 32.5346C492.679 32.7187 485.298 33.6652 477.44 37.1214C474.922 38.2295 472.708 39.4406 470.776 40.6481C469.378 40.0637 467.979 39.4793 466.586 38.8945L466.495 39.07C466.205 43.5145 464.074 81.3614 479.802 92.4624C481.011 93.32 482.265 93.9877 483.369 94.4865C483.472 96.2536 483.538 98.0595 483.568 99.9043C483.584 100.703 483.592 101.497 483.594 102.285C483.602 105.991 483.462 109.557 483.206 112.976L483.2 112.977ZM469.289 59.6069C469.103 57.1844 469.842 55.1602 470.939 55.0758C472.037 54.9914 473.076 56.879 473.262 59.3014C473.449 61.7239 472.71 63.7422 471.612 63.8266C470.514 63.911 469.475 62.0234 469.289 59.6069ZM479.003 73.18C480.132 73.1593 482.123 72.9822 484.28 71.98C485.753 71.2952 486.813 70.4616 487.5 69.8251C488.604 72.9833 486.451 75.9345 484.007 76.2849C482.135 76.5552 479.943 75.3218 479.003 73.18ZM486.788 58.2615C486.602 55.839 487.432 53.8077 488.647 53.7143C489.862 53.6209 490.986 55.5019 491.173 57.9244C491.359 60.3468 490.529 62.3721 489.32 62.4651C488.111 62.558 486.974 60.678 486.788 58.2615Z" fill="white"/>
<path d="M433.96 223.65C434.095 224.561 434.405 226.017 435.206 227.634C436.892 231.018 439.99 233.518 443.981 235.335C443.968 232.002 443.956 228.682 443.937 225.356C440.588 225.054 437.29 224.477 433.96 223.65Z" fill="#7099ED"/>
<path d="M316.751 105.654C315.71 106.739 315.44 108.27 316.054 109.583L336.944 154.065L340.025 160.627C342.048 160.941 344.076 161.254 346.117 161.555L319.057 105.477C318.597 104.532 318.828 103.527 319.458 102.823L316.751 105.654Z" fill="#262626"/>
<path d="M319.458 102.823C318.828 103.527 318.597 104.532 319.057 105.477L346.117 161.555C347.208 161.723 348.299 161.886 349.395 162.043C341.494 145.532 326.778 114.769 322.894 106.656C322.48 105.792 323.287 104.839 324.31 104.977L333.689 106.259C335.111 106.457 336.442 107.01 337.526 107.86L338.862 108.906C339.093 109.087 339.361 109.157 339.622 109.137C340.158 109.095 340.646 108.685 340.622 108.115C340.594 107.492 341.2 107.006 341.865 107.105L349.12 108.19C349.698 108.272 350.19 108.607 350.444 109.087C353.092 114.112 368.14 142.702 376.021 157.667C376.426 157.377 377.004 157.026 377.744 156.734L372.637 147.079L372.63 147.079L352.705 109.424C351.529 107.204 349.241 105.665 346.57 105.293L322.056 101.901C320.999 101.754 320.057 102.157 319.458 102.823Z" fill="white"/>
<path d="M438.482 188.43C444.163 183.595 449.859 178.764 455.547 173.923C460.381 161.139 467.336 146.795 477.524 132.083C477.595 131.982 477.672 131.873 477.743 131.772C477.316 129.975 476.761 128.069 476.023 126.074C475.167 123.745 474.187 121.6 473.144 119.659C471.574 122.409 469.997 125.153 468.428 127.903L468.545 123.273C467.144 124.711 464.95 127.045 462.488 130.069C451.122 143.993 445.956 157.837 443.287 166.556C442.8 168.164 442.391 169.604 442.045 170.833C440.874 175.009 439.424 181.023 438.482 188.43Z" fill="#7099ED"/>
<path d="M527.499 223.757C528.228 223.141 528.702 222.563 528.896 222.091C529.325 221.084 529.387 220.092 529.387 220.092C529.434 219.336 529.32 218.707 529.215 218.288C535.351 213.454 542.45 206.374 547.814 196.54C547.814 196.54 561.207 171.978 551.467 142.583C550.228 138.864 548.118 132.703 542.396 126.933C541.019 123.898 538.819 120.072 535.274 116.278C533.77 114.678 532.266 113.326 530.824 112.179C527.368 117.842 513.693 126.938 494.421 136.259C491.504 131.225 488.58 126.197 485.656 121.163C483.138 124.317 480.621 127.658 478.151 131.187C478.015 131.378 477.879 131.575 477.743 131.772C477.672 131.873 477.595 131.982 477.524 132.083C467.336 146.795 460.381 161.139 455.547 173.923C457.108 172.605 458.662 171.277 460.224 169.953C465.272 172.61 473.709 177.881 480.786 187.175C487.914 196.53 490.567 205.899 491.601 212.161C491.879 213.812 492.035 215.25 492.138 216.41C490.75 215.716 489.369 215.022 487.988 214.328L487.973 214.311C467.015 226.313 450.575 225.947 443.937 225.356C443.956 228.682 443.968 232.002 443.98 235.329C459.183 242.252 487.429 239.292 500.939 237.875C500.939 237.875 525.599 235.287 528.645 227.887C529.591 225.576 528.727 224.511 528.727 224.511C528.378 224.074 527.869 223.867 527.499 223.757Z" fill="#7099ED"/>
<path d="M528.848 27.14C529.623 26.1057 530.401 24.6801 530.269 23.0597C529.725 16.0679 512.823 11.2424 502.63 10.7445C478.78 9.58192 460.577 30.584 456.991 34.885L466.586 38.8944C467.979 39.4793 469.378 40.0637 470.777 40.648C472.708 39.4406 474.922 38.2295 477.44 37.1213C485.298 33.6652 492.679 32.7187 497.89 32.5346C499.07 33.6834 501.946 36.8136 502.213 41.4018C502.301 42.8872 502.093 44.1968 501.812 45.2413C503.503 45.346 507.352 45.8262 510.387 48.547C514.863 52.559 514.259 58.4658 514.067 60.3277C513.847 62.5107 513.211 64.2442 512.724 65.3467C514.718 65.7228 516.706 66.0995 518.7 66.4756C519.031 59.3263 524.552 54.5277 529.069 54.7279C530.831 54.8091 532.473 55.6515 533.816 56.9622C534.17 56.6041 542.705 47.765 539.202 37.7638C538.672 36.2522 536.454 30.6647 530.105 27.6751C529.682 27.473 529.261 27.2948 528.848 27.14Z" fill="#7099ED"/>
<path d="M475.019 107.108C472.307 109.109 470.275 111.155 468.809 112.862C470.245 114.785 471.747 117.046 473.144 119.659C474.187 121.6 475.167 123.745 476.023 126.074C476.762 128.069 477.316 129.975 477.743 131.772C477.879 131.575 478.015 131.378 478.152 131.187L477.904 131.043C477.424 127.53 477.186 121.026 481.365 115.188C481.947 114.379 482.561 113.646 483.2 112.977C483.456 109.558 483.596 105.991 483.587 102.286C481.21 103.262 478.172 104.778 475.019 107.108Z" fill="#7099ED"/>
<path d="M470.939 55.0758C469.842 55.1602 469.103 57.1844 469.29 59.6069C469.476 62.0293 470.514 63.9109 471.612 63.8265C472.71 63.7421 473.448 61.7179 473.262 59.3014C473.077 56.8849 472.037 54.9914 470.939 55.0758Z" fill="#262626"/>
<path d="M525.16 106.045C524.725 106.198 524.296 106.352 523.861 106.505C510.797 111.162 498.068 116.058 485.656 121.163C488.58 126.197 491.504 131.225 494.422 136.259C513.693 126.938 527.369 117.842 530.824 112.179C531.25 111.479 531.517 110.839 531.623 110.253C532.195 107.098 531.049 104.761 531.049 104.761C529.56 101.723 526.353 100.363 524.961 99.8626C524.942 101.844 524.959 103.774 525.006 105.665L525.16 106.045Z" fill="#7099ED"/>
<path d="M488.647 53.7143C487.432 53.8078 486.602 55.839 486.788 58.2615C486.974 60.684 488.104 62.5585 489.32 62.4651C490.535 62.3717 491.358 60.3409 491.173 57.9244C490.987 55.5079 489.856 53.6214 488.647 53.7143Z" fill="#262626"/>
<path d="M466.494 39.07C466.205 43.5146 464.073 81.3614 479.801 92.4624C481.011 93.3201 482.265 93.9878 483.368 94.4866C485.316 95.3717 486.804 95.7446 486.804 95.7446C500.04 99.065 513.046 88.0953 515.357 86.0946" stroke="#262626" stroke-width="0.99" stroke-miterlimit="10" stroke-linecap="round"/>
<path d="M501.626 27.0068C499.611 27.5588 498.089 28.8732 497.733 30.483C497.547 31.3156 497.715 32.0487 497.89 32.5346C499.07 33.6834 501.946 36.8136 502.213 41.4018C502.301 42.8872 502.093 44.1969 501.812 45.2413C503.503 45.346 507.352 45.8262 510.387 48.547C514.863 52.5591 514.259 58.4658 514.067 60.3277C513.847 62.5107 513.211 64.2442 512.724 65.3467C514.718 65.7228 516.706 66.0995 518.7 66.4756C519.031 59.3263 524.552 54.5277 529.069 54.7279C530.831 54.8091 532.473 55.6515 533.816 56.9622C536.43 59.4988 537.923 63.7823 536.994 67.6081C535.94 71.931 531.857 75.4278 526.583 76.5012C526.133 79.8811 525.759 83.3995 525.489 87.0605C525.153 91.5025 524.989 95.775 524.961 99.8625C524.943 101.843 524.959 103.774 525.006 105.665" stroke="#262626" stroke-width="0.99" stroke-miterlimit="10" stroke-linecap="round"/>
<path d="M522.513 25.8763C523.996 25.9307 526.308 26.1681 528.848 27.1401C529.26 27.2949 529.682 27.4731 530.105 27.6752C536.454 30.6647 538.671 36.2523 539.202 37.7638C542.705 47.7651 534.169 56.6041 533.816 56.9622" stroke="#262626" stroke-width="0.99" stroke-miterlimit="10" stroke-linecap="round"/>
<path d="M528.847 27.1401C529.622 26.1058 530.4 24.6802 530.269 23.0597C529.725 16.068 512.823 11.2424 502.63 10.7446C478.779 9.58197 460.577 30.5841 456.99 34.885L466.586 38.8945C467.978 39.4794 469.377 40.0637 470.776 40.6481C472.708 39.4406 474.922 38.2295 477.439 37.1214C485.298 33.6653 492.679 32.7187 497.89 32.5347" stroke="#262626" stroke-width="0.99" stroke-miterlimit="10" stroke-linecap="round"/>
<path d="M535.299 20.7717C535.133 21.5245 534.776 22.6108 533.962 23.7264C532.256 26.0718 529.716 26.8987 528.848 27.14" stroke="#262626" stroke-width="0.99" stroke-miterlimit="10" stroke-linecap="round"/>
<path d="M539.361 28.5519C538.795 28.3728 538.204 28.2017 537.587 28.0505C534.384 27.2499 531.398 27.0583 528.848 27.1401" stroke="#262626" stroke-width="0.99" stroke-miterlimit="10" stroke-linecap="round"/>
<path d="M487.5 69.8251C486.813 70.4616 485.753 71.2952 484.281 71.98C482.123 72.9822 480.132 73.1594 479.003 73.18C479.943 75.3218 482.135 76.5552 484.007 76.285C486.451 75.9346 488.604 72.9833 487.5 69.8251Z" fill="white" stroke="#262626" stroke-width="0.99" stroke-miterlimit="10" stroke-linecap="round"/>
<path d="M483.09 74.5323C482.26 74.7646 481.424 75.0034 480.594 75.2357" stroke="#262626" stroke-width="0.99" stroke-miterlimit="10" stroke-linecap="round"/>
<path d="M475.462 64.409C475.185 64.8214 474.768 65.3889 474.198 66.0103C473.526 66.754 473.2 66.9655 473.251 67.1963C473.328 67.5152 474.131 67.7904 477.102 67.6944" stroke="#262626" stroke-width="0.99" stroke-miterlimit="10" stroke-linecap="round"/>
<path d="M494.322 50.42C493.878 49.8525 493.053 48.9652 491.729 48.2367C490.541 47.5819 489.424 47.3189 488.704 47.1997" stroke="#262626" stroke-width="0.99" stroke-miterlimit="10" stroke-linecap="round"/>
<path d="M471.037 47.3728C470.769 47.3934 470.394 47.4704 470.023 47.6855C468.922 48.3296 468.883 49.6202 468.881 49.7588" stroke="#262626" stroke-width="0.99" stroke-miterlimit="10" stroke-linecap="round"/>
<path d="M483.587 102.286C483.596 105.991 483.456 109.558 483.2 112.977C483.134 113.921 483.055 114.859 482.968 115.781" stroke="#262626" stroke-width="0.99" stroke-miterlimit="10" stroke-linecap="round"/>
<path d="M483.368 94.4865C483.471 96.2535 483.538 98.0595 483.568 99.9043C483.583 100.703 483.592 101.497 483.593 102.285" stroke="#262626" stroke-width="0.99" stroke-miterlimit="10" stroke-linecap="round"/>
<path d="M526.645 105.515C526.152 105.692 525.653 105.868 525.16 106.045C524.725 106.198 524.297 106.352 523.861 106.505C510.798 111.162 498.068 116.058 485.656 121.163C483.138 124.317 480.621 127.658 478.152 131.187C478.015 131.378 477.879 131.575 477.743 131.772C477.672 131.873 477.595 131.982 477.524 132.083C467.337 146.795 460.381 161.139 455.547 173.923" stroke="#262626" stroke-width="0.99" stroke-miterlimit="10" stroke-linecap="round"/>
<path d="M530.824 112.179C527.368 117.842 513.693 126.938 494.422 136.259C491.504 131.225 488.58 126.197 485.656 121.163" stroke="#262626" stroke-width="0.99" stroke-miterlimit="10" stroke-linecap="round"/>
<path d="M524.961 99.8626C526.353 100.363 529.56 101.723 531.049 104.761C531.049 104.761 532.195 107.098 531.623 110.253C531.517 110.839 531.25 111.479 530.824 112.173" stroke="#262626" stroke-width="0.99" stroke-miterlimit="10" stroke-linecap="round"/>
<path d="M483.593 102.285C481.216 103.262 478.178 104.777 475.024 107.107C472.313 109.109 470.281 111.154 468.815 112.862C468.727 116.334 468.639 119.8 468.551 123.273L468.433 127.903C470.003 125.153 471.58 122.408 473.15 119.658" stroke="#262626" stroke-width="0.99" stroke-miterlimit="10" stroke-linecap="round"/>
<path d="M477.743 131.772C477.316 129.975 476.762 128.069 476.023 126.074C475.167 123.745 474.187 121.6 473.144 119.659C471.747 117.046 470.245 114.785 468.809 112.862" stroke="#262626" stroke-width="0.99" stroke-miterlimit="10" stroke-linecap="round"/>
<path d="M483.199 112.977C482.56 113.646 481.946 114.379 481.364 115.188C477.186 121.026 477.423 127.53 477.904 131.043" stroke="#262626" stroke-width="0.99" stroke-miterlimit="10" stroke-linecap="round"/>
<path d="M530.824 112.173C532.266 113.326 533.77 114.678 535.274 116.278C538.819 120.072 541.019 123.898 542.396 126.933" stroke="#262626" stroke-width="0.99" stroke-miterlimit="10" stroke-linecap="round"/>
<path d="M529.215 218.288C525.905 220.895 522.88 222.842 520.561 224.224" stroke="#262626" stroke-width="0.99" stroke-miterlimit="10" stroke-linecap="round"/>
<path d="M535.269 121.338C537.31 122.577 539.557 124.197 541.764 126.314C541.977 126.52 542.19 126.726 542.397 126.933C548.118 132.703 550.229 138.864 551.468 142.583C561.208 171.978 547.814 196.54 547.814 196.54C542.451 206.374 535.351 213.454 529.215 218.282" stroke="#262626" stroke-width="0.99" stroke-miterlimit="10" stroke-linecap="round"/>
<path d="M529.215 218.282C529.32 218.707 529.434 219.336 529.387 220.092C529.387 220.092 529.325 221.084 528.896 222.091C528.702 222.563 528.228 223.141 527.499 223.757C526.044 225.006 523.577 226.429 520.336 227.533" stroke="#262626" stroke-width="0.99" stroke-miterlimit="10" stroke-linecap="round"/>
<path d="M433.959 223.65C434.095 224.561 434.404 226.017 435.206 227.634C436.892 231.018 439.99 233.518 443.981 235.335C459.183 242.252 487.43 239.292 500.94 237.875C500.94 237.875 525.599 235.287 528.645 227.887C529.592 225.576 528.728 224.511 528.728 224.511C528.378 224.074 527.87 223.867 527.5 223.757" stroke="#262626" stroke-width="0.99" stroke-miterlimit="10" stroke-linecap="round"/>
<path d="M544.941 189.619C543.992 191.208 542.629 193.057 540.662 194.827C534.626 200.273 527.134 201.222 524.266 201.449C521.671 203.261 518.782 205.095 515.586 206.875C507.102 211.595 498.974 214.536 492.138 216.41" stroke="#262626" stroke-width="0.99" stroke-miterlimit="10" stroke-linecap="round"/>
<path d="M494.129 144.254C489.971 146.349 485.463 148.915 480.814 152.065C471.919 158.097 465.178 164.47 460.223 169.953C458.662 171.277 457.108 172.605 455.546 173.923C449.858 178.764 444.163 183.595 438.481 188.43C433.232 188.117 428.958 187.585 426.053 187.165C405.374 184.158 392.244 177.695 389.325 176.235C387.773 175.457 386.538 174.776 385.803 174.363C385.771 173.181 385.594 171.389 384.766 169.425C384.676 169.203 384.574 168.983 384.464 168.756C382.834 165.422 381.059 165.408 378.163 161.263C377.048 159.67 376.528 158.548 376.014 157.667C375.506 156.792 375.01 156.15 373.956 155.521C372.626 154.727 371.345 154.567 368.784 154.252C362.964 153.526 361.09 155.06 357.812 153.55C357.158 153.245 356.551 152.87 355.957 153.097C354.691 153.561 354.35 156.397 355.184 158.27C356.759 161.819 362.583 162.087 362.834 162.098" stroke="#262626" stroke-width="0.99" stroke-miterlimit="10" stroke-linecap="round"/>
<path d="M366.017 158.869C365.514 159.263 364.973 159.738 364.437 160.296C363.841 160.926 363.351 161.559 362.943 162.156C362.549 162.752 362.237 163.311 361.992 163.806" stroke="#262626" stroke-width="0.99" stroke-miterlimit="10" stroke-linecap="round"/>
<path d="M364.869 164.192C363.913 164.067 362.956 163.942 361.993 163.806C361.07 163.684 360.147 163.562 359.224 163.435C355.922 162.985 352.646 162.521 349.395 162.043C348.299 161.886 347.208 161.723 346.117 161.555C344.076 161.254 342.047 160.941 340.025 160.627" stroke="#262626" stroke-width="0.99" stroke-miterlimit="10" stroke-linecap="round"/>
<path d="M336.542 154.228C335.901 154.873 335.023 155.849 334.164 157.149C333.015 158.886 331.237 161.573 331.569 164.015C331.985 167.021 335.586 169.584 340.266 170.608C342.002 173.182 343.736 175.901 345.449 178.778C346.325 180.245 347.166 181.702 347.96 183.139C348.127 183.433 348.288 183.728 348.449 184.022" stroke="#262626" stroke-width="0.99" stroke-miterlimit="10" stroke-linecap="round"/>
<path d="M347.961 183.139C347.843 184.935 348.139 186.399 348.598 187.579C351.211 194.381 361.544 198.406 374.382 198.334" stroke="#262626" stroke-width="0.99" stroke-miterlimit="10" stroke-linecap="round"/>
<path d="M372.18 196.716C372.756 197.201 373.489 197.759 374.4 198.314C375.172 198.79 376.063 199.257 377.087 199.672C379.048 200.472 380.903 200.835 382.427 200.994C383.328 201.088 384.112 201.111 384.736 201.106" stroke="#262626" stroke-width="0.99" stroke-miterlimit="10" stroke-linecap="round"/>
<path d="M382.428 200.994C385.736 202.816 390.595 205.402 396.601 208.286C411.533 215.447 422.924 220.913 433.96 223.65C437.29 224.477 440.588 225.054 443.937 225.356C450.575 225.947 467.016 226.313 487.974 214.311C489.151 213.637 490.345 212.925 491.549 212.171" stroke="#262626" stroke-width="0.99" stroke-miterlimit="10" stroke-linecap="round"/>
<path d="M460.224 169.953C465.272 172.61 473.71 177.881 480.787 187.175C487.914 196.53 490.567 205.899 491.601 212.161C491.879 213.812 492.036 215.25 492.138 216.41C490.75 215.716 489.369 215.022 487.988 214.328" stroke="#262626" stroke-width="0.99" stroke-miterlimit="10" stroke-linecap="round"/>
<path d="M468.545 123.273C467.144 124.711 464.95 127.045 462.488 130.069C451.123 143.993 445.956 157.837 443.287 166.556C442.8 168.164 442.391 169.604 442.045 170.833C440.874 175.009 439.424 181.023 438.482 188.43" stroke="#262626" stroke-width="0.99" stroke-miterlimit="10" stroke-linecap="round"/>
<path d="M502.089 141.265C503.71 140.545 506.053 139.727 508.968 139.425C514.772 138.828 519.276 140.648 521.227 141.575" stroke="#262626" stroke-width="0.99" stroke-miterlimit="10" stroke-linecap="round"/>
<path d="M380.243 156.169C379.812 156.196 379.311 156.265 378.769 156.397C378.401 156.491 378.055 156.608 377.743 156.734C377.003 157.026 376.425 157.377 376.02 157.667" stroke="#262626" stroke-width="0.99" stroke-miterlimit="10" stroke-linecap="round"/>
<path d="M389.687 164.011C389.732 164.513 389.764 165.702 389.003 166.915C387.674 169.033 385.085 169.389 384.766 169.425" stroke="#262626" stroke-width="0.99" stroke-miterlimit="10" stroke-linecap="round"/>
<path d="M372.63 147.079L352.704 109.424C351.528 107.204 349.241 105.665 346.57 105.293L322.055 101.901C320.999 101.754 320.057 102.157 319.457 102.823C318.828 103.527 318.596 104.532 319.057 105.477L346.117 161.555" stroke="#262626" stroke-width="0.99" stroke-miterlimit="10" stroke-linecap="round"/>
<path d="M377.744 156.734L372.637 147.079" stroke="#262626" stroke-width="0.99" stroke-miterlimit="10" stroke-linecap="round"/>
<path d="M319.458 102.823L316.751 105.654C315.71 106.739 315.44 108.27 316.054 109.583L336.944 154.065L340.025 160.627" stroke="#262626" stroke-width="0.99" stroke-miterlimit="10" stroke-linecap="round"/>
<path d="M372.63 147.079L372.636 147.079C375.348 147.809 378.046 148.54 380.752 149.277C382.714 149.661 384.931 150.285 387.239 151.323C395.463 155.017 399.484 161.495 401.085 164.542C404.975 166.325 409.153 168.08 413.62 169.764C422.136 172.978 430.206 175.354 437.586 177.127C439.477 173.6 441.375 170.079 443.267 166.552" stroke="#262626" stroke-width="0.99" stroke-miterlimit="10" stroke-linecap="round"/>
<path d="M443.937 225.356C443.956 228.682 443.968 232.002 443.98 235.329" stroke="#262626" stroke-width="0.99" stroke-miterlimit="10" stroke-linecap="round"/>
<path d="M514.791 148.658C518.048 150.08 522.763 152.666 526.724 157.259C532.022 163.41 534.162 171.067 533.191 171.521C532.658 171.773 530.789 170.027 524.957 161.366" stroke="#262626" stroke-width="0.99" stroke-miterlimit="10" stroke-linecap="round"/>
<path d="M376.02 157.667C368.139 142.702 353.091 114.112 350.443 109.087C350.19 108.607 349.697 108.272 349.119 108.19L341.865 107.105C341.2 107.006 340.593 107.492 340.621 108.115C340.645 108.685 340.158 109.095 339.622 109.137C339.36 109.157 339.092 109.087 338.861 108.906L337.525 107.86C336.441 107.011 335.111 106.457 333.689 106.259L324.309 104.977C323.286 104.839 322.479 105.792 322.894 106.656C326.778 114.769 341.493 145.532 349.395 162.043" stroke="#262626" stroke-width="0.99" stroke-miterlimit="10" stroke-linecap="round"/>
<path d="M349.612 112.881L329.114 111.719" stroke="#7099ED" stroke-width="0.99" stroke-miterlimit="10" stroke-linecap="round"/>
<path d="M352.334 118.713L332.208 118.208" stroke="#7099ED" stroke-width="0.99" stroke-miterlimit="10" stroke-linecap="round"/>
<path d="M355.05 124.551L335.31 124.696" stroke="#7099ED" stroke-width="0.99" stroke-miterlimit="10" stroke-linecap="round"/>
<path d="M356.268 127.658L354.145 127.659C353.686 127.664 353.378 128.109 353.591 128.483L355.348 131.676C355.462 131.877 355.695 131.992 355.943 131.973L357.877 131.824C358.315 131.79 358.579 131.373 358.393 131.014L356.818 127.97C356.718 127.78 356.505 127.652 356.268 127.658Z" stroke="#7099ED" stroke-width="0.99" stroke-miterlimit="10" stroke-linecap="round"/>
<path d="M352.735 130.258L339.951 130.94" stroke="#7099ED" stroke-width="0.99" stroke-miterlimit="10" stroke-linecap="round"/>
<path d="M360.508 135.593L358.385 135.6C357.925 135.605 357.624 136.049 357.831 136.425L359.588 139.617C359.702 139.818 359.934 139.933 360.182 139.914L362.123 139.765C362.554 139.732 362.818 139.314 362.639 138.955L361.058 135.912C360.958 135.721 360.744 135.593 360.508 135.593Z" stroke="#7099ED" stroke-width="0.99" stroke-miterlimit="10" stroke-linecap="round"/>
<path d="M356.975 138.199L345.056 139.115" stroke="#7099ED" stroke-width="0.99" stroke-miterlimit="10" stroke-linecap="round"/>
<path d="M364.182 143.981L362.059 143.987C361.6 143.993 361.292 144.437 361.505 144.812L363.262 148.004C363.376 148.206 363.609 148.321 363.857 148.301L365.798 148.152C366.229 148.119 366.493 147.702 366.307 147.343L364.732 144.299C364.632 144.108 364.419 143.98 364.182 143.981Z" stroke="#7099ED" stroke-width="0.99" stroke-miterlimit="10" stroke-linecap="round"/>
<path d="M360.649 146.587L349.628 148.228" stroke="#7099ED" stroke-width="0.99" stroke-miterlimit="10" stroke-linecap="round"/>
<path d="M531.641 60.5649C530.904 60.7299 529.837 61.0466 528.684 61.6888C528.494 61.7876 528.306 61.8984 528.111 62.0216C526.419 63.0963 525.452 64.368 524.971 65.121" stroke="#262626" stroke-width="0.99" stroke-miterlimit="10" stroke-linecap="round"/>
<path d="M532.788 64.7968C532.523 64.4321 532.198 64.042 531.792 63.6459C530.707 62.6043 529.531 62.0148 528.684 61.6888" stroke="#262626" stroke-width="0.99" stroke-miterlimit="10" stroke-linecap="round"/>
</g>
</g>
<defs>
<clipPath id="clip0_6651_18795">
<rect width="589" height="227" rx="32" fill="white"/>
</clipPath>
<clipPath id="clip1_6651_18795">
<rect width="235.121" height="227.454" fill="white" transform="matrix(-0.997057 0.0766591 0.0766591 0.997057 543.429 7)"/>
</clipPath>
</defs>
</svg>
