<svg width="20" height="21" viewBox="0 0 20 21" fill="none" xmlns="http://www.w3.org/2000/svg">
<path d="M10.417 3H9.58366C5.85171 3 3.98573 3 2.82636 4.15937C1.66699 5.31874 1.66699 7.18472 1.66699 10.9167C1.66699 14.6486 1.66699 16.5146 2.82636 17.674C3.98573 18.8333 5.85171 18.8333 9.58366 18.8333C13.3156 18.8333 15.1816 18.8333 16.341 17.674C17.5003 16.5146 17.5003 14.6486 17.5003 10.9167V10.0833" stroke="white" stroke-width="1.5" stroke-linecap="round"/>
<path d="M18.3333 5.08366C18.3333 6.69449 17.0275 8.00033 15.4167 8.00033C13.8058 8.00033 12.5 6.69449 12.5 5.08366C12.5 3.47283 13.8058 2.16699 15.4167 2.16699C17.0275 2.16699 18.3333 3.47283 18.3333 5.08366Z" stroke="white" stroke-width="1.5"/>
<path d="M5.83301 9.66699H9.16634" stroke="white" stroke-width="1.5" stroke-linecap="round" stroke-linejoin="round"/>
<path d="M5.83301 13.833H12.4997" stroke="white" stroke-width="1.5" stroke-linecap="round" stroke-linejoin="round"/>
</svg>
