<svg width="20" height="21" viewBox="0 0 20 21" fill="none" xmlns="http://www.w3.org/2000/svg">
<path d="M10.418 2.61914H9.58464C5.85269 2.61914 3.98671 2.61914 2.82734 3.77851C1.66797 4.93788 1.66797 6.80386 1.66797 10.5358C1.66797 14.2677 1.66797 16.1337 2.82734 17.2931C3.98671 18.4525 5.85269 18.4525 9.58464 18.4525C13.3166 18.4525 15.1826 18.4525 16.342 17.2931C17.5013 16.1337 17.5013 14.2677 17.5013 10.5358V9.70247" stroke="#8E8E93" stroke-width="1.5" stroke-linecap="round"/>
<path d="M18.3333 4.70182C18.3333 6.31266 17.0275 7.61849 15.4167 7.61849C13.8058 7.61849 12.5 6.31266 12.5 4.70182C12.5 3.09099 13.8058 1.78516 15.4167 1.78516C17.0275 1.78516 18.3333 3.09099 18.3333 4.70182Z" stroke="#8E8E93" stroke-width="1.5"/>
<path d="M5.83203 9.28516H9.16536" stroke="#8E8E93" stroke-width="1.5" stroke-linecap="round" stroke-linejoin="round"/>
<path d="M5.83203 13.4531H12.4987" stroke="#8E8E93" stroke-width="1.5" stroke-linecap="round" stroke-linejoin="round"/>
</svg>
