<svg width="40" height="40" viewBox="0 0 40 40" fill="none" xmlns="http://www.w3.org/2000/svg">
<path d="M32 32V8C32 3.58172 28.4183 0 24 0H16.8337C14.6864 0 12.6292 0.863212 11.1249 2.39549L2.29128 11.3934C0.822754 12.8892 0 14.9017 0 16.9979V32C0 36.4183 3.58172 40 8 40H24C28.4183 40 32 36.4183 32 32Z" fill="#7099ED"/>
<path d="M3.35596 29V21.1797H7.0459C8.24186 21.1797 9.16032 21.3981 9.80127 21.835C10.4422 22.2718 10.7627 22.8805 10.7627 23.6611C10.7627 24.4453 10.4422 25.0594 9.80127 25.5034C9.1639 25.9438 8.24723 26.1641 7.05127 26.1641H5.27881V29H3.35596ZM5.27881 25.1167H7.05127C7.69222 25.1167 8.15234 24.9806 8.43164 24.7085C8.71094 24.4328 8.85059 24.0837 8.85059 23.6611C8.85059 23.2458 8.71094 22.902 8.43164 22.6299C8.15234 22.3577 7.69222 22.2217 7.05127 22.2217H5.27881V25.1167ZM12.0034 29V21.1797H15.3281C16.6816 21.1797 17.8203 21.5199 18.7441 22.2002C19.6715 22.8805 20.1353 23.8241 20.1353 25.0308V25.1489C20.1353 26.3556 19.6715 27.2992 18.7441 27.9795C17.8203 28.6598 16.6816 29 15.3281 29H12.0034ZM13.9263 27.958H15.3228C16.1678 27.958 16.8517 27.7091 17.3745 27.2114C17.8973 26.7137 18.1587 26.0262 18.1587 25.1489V25.0308C18.1587 24.1535 17.8973 23.466 17.3745 22.9683C16.8517 22.4705 16.1678 22.2217 15.3228 22.2217H13.9263V27.958ZM21.564 29V21.1797H28.1919V22.2217H23.4868V24.7515H27.6494V25.7881H23.4868V29H21.564Z" fill="white"/>
<path d="M19 0H15.4522C13.5481 0 11.7262 0.775664 10.4064 2.14818L2.23341 10.6479C0.800406 12.1382 0 14.1254 0 16.1928V17C0 15.3431 1.34315 14 3 14H10.5596C12.7453 14 14.5263 12.2455 14.5592 10.0601L14.6458 4.28932C14.6815 1.91005 16.6205 0 19 0Z" fill="#FFB31D"/>
</svg>
