<svg width="20" height="20" viewBox="0 0 20 20" fill="none" xmlns="http://www.w3.org/2000/svg">
<path d="M12.9163 9.99967C12.9163 11.6105 11.6105 12.9163 9.99967 12.9163C8.38884 12.9163 7.08301 11.6105 7.08301 9.99967C7.08301 8.38884 8.38884 7.08301 9.99967 7.08301C11.6105 7.08301 12.9163 8.38884 12.9163 9.99967Z" stroke="#8E8E93" stroke-width="1.5"/>
<path d="M17.5095 11.7473C17.9444 11.6301 18.1619 11.5714 18.2477 11.4593C18.3337 11.3472 18.3337 11.1668 18.3337 10.806V9.19459C18.3337 8.83384 18.3337 8.65343 18.2477 8.54134C18.1618 8.42918 17.9444 8.37051 17.5095 8.25324C15.8842 7.81492 14.8669 6.11568 15.2864 4.50098C15.4017 4.05692 15.4594 3.83489 15.4043 3.70467C15.3492 3.57444 15.1912 3.48471 14.8751 3.30523L13.4378 2.4892C13.1277 2.31308 12.9726 2.22503 12.8334 2.24378C12.6942 2.26253 12.5372 2.4192 12.223 2.73253C11.007 3.94566 8.99499 3.94561 7.77894 2.73246C7.46485 2.41912 7.30781 2.26245 7.1686 2.24369C7.0294 2.22494 6.8743 2.313 6.5641 2.48912L5.12686 3.30515C4.81077 3.48462 4.65272 3.57435 4.59764 3.70455C4.54256 3.83476 4.60022 4.05682 4.71553 4.50093C5.1348 6.11568 4.11676 7.81495 2.49118 8.25326C2.05626 8.37051 1.8388 8.42918 1.75289 8.54126C1.66699 8.65343 1.66699 8.83384 1.66699 9.19459V10.806C1.66699 11.1668 1.66699 11.3472 1.75289 11.4593C1.83878 11.5714 2.05625 11.6301 2.49118 11.7473C4.11649 12.1857 5.13373 13.8849 4.71426 15.4996C4.5989 15.9437 4.54122 16.1657 4.59629 16.2959C4.65138 16.4262 4.80943 16.5159 5.12553 16.6953L6.56278 17.5114C6.873 17.6875 7.02811 17.7756 7.16733 17.7568C7.30654 17.7381 7.46356 17.5813 7.77758 17.268C8.99424 16.0539 11.0077 16.0538 12.2244 17.2679C12.5384 17.5813 12.6954 17.738 12.8347 17.7568C12.9738 17.7755 13.129 17.6874 13.4392 17.5113L14.8764 16.6953C15.1926 16.5158 15.3507 16.4261 15.4057 16.2958C15.4607 16.1656 15.4031 15.9436 15.2877 15.4995C14.868 13.8849 15.8844 12.1858 17.5095 11.7473Z" stroke="#8E8E93" stroke-width="1.5" stroke-linecap="round"/>
</svg>
