<svg width="194" height="258" viewBox="0 0 194 258" fill="none" xmlns="http://www.w3.org/2000/svg">
<g clip-path="url(#clip0_6822_19789)">
<path d="M37.6117 39.4745C37.6367 42.2886 37.9971 45.1366 38.7109 47.9753L43.0565 65.2337C43.2649 66.0596 42.9558 66.933 42.2597 67.4726L43.7384 71.353L50.3907 69.0071L71.35 61.623L114.739 46.333L128.335 41.5403L127.329 36.6257C126.672 36.7848 126.008 36.8642 125.356 36.87C122.023 36.8995 118.905 35.0264 117.561 32.0032L114.216 24.4421C106.008 5.93635 83.9874 -3.24363 64.0588 3.53653C47.806 9.06397 37.472 23.6994 37.6117 39.4745Z" fill="#F4F3F1"/>
<path d="M46.452 64.4654L65.8848 56.793" stroke="white"/>
<path d="M145.286 205.604L145.287 205.726C145.008 205.864 144.068 206.369 143.669 207.433C143.258 208.528 143.693 209.505 143.811 209.774C144.06 210.336 144.727 211.372 147.795 212.351C147.528 212.445 147.006 212.676 146.675 213.182C146.236 213.854 146.395 214.595 146.446 214.846C146.853 216.774 150.325 217.932 154.683 219.347C156.95 220.081 157.78 220.215 158.262 220.229C158.371 220.234 158.457 220.233 158.487 220.227C159.194 220.22 160.089 220.096 161.127 219.682C161.461 219.55 161.813 219.388 162.177 219.188C162.658 219.154 163.237 219.093 163.888 218.996C166.237 218.637 169.514 217.732 172.552 215.412C177.34 211.752 180.671 205.223 179.097 199.51C179.027 199.253 178.952 199.021 178.871 198.794C178.615 198.098 178.28 197.481 177.766 196.523C174.297 190.104 168.817 186.578 165.326 184.585C164.995 184.398 164.683 184.223 164.395 184.06C161.921 182.678 158.249 180.944 153.556 180.226C149.37 179.588 147.816 180.276 146.951 181.057C146.22 181.719 145.323 183.039 145.597 184.38C146.139 187.024 150.735 187.112 155.533 190.16C157.544 191.448 159.993 193.505 162.181 196.956C161.09 196.953 159.774 196.971 158.281 197.002C154.577 197.09 151.202 197.176 147.318 197.67C139.076 198.736 137.88 199.942 137.461 200.847C137.39 201.014 136.93 202.054 137.365 203.08C137.801 204.112 139.188 205.216 145.286 205.604Z" fill="white"/>
<path d="M163.889 218.996C164.159 219.938 164.689 221.27 165.785 222.566C168.156 225.384 172.518 227.24 176.988 226.207C182.844 224.855 184.796 219.467 184.98 218.92C184.98 218.913 184.98 218.907 184.986 218.907C186.064 212.637 185.125 205.693 181.342 201.146C180.388 199.996 179.424 199.213 178.872 198.795C178.953 199.021 179.028 199.253 179.098 199.51C180.672 205.223 177.341 211.752 172.553 215.412C169.514 217.732 166.238 218.638 163.889 218.996Z" fill="white"/>
<path d="M87.9582 204.915L87.9642 204.915C88.5714 204.664 93.7865 202.429 93.9918 198.773C94.0493 197.699 93.6571 196.765 93.1154 195.463C92.7979 194.706 92.0149 193.002 89.7558 190.459C87.866 188.318 86.0922 186.899 84.6688 185.814L84.7049 185.771C86.1396 186.058 87.8053 186.283 89.6584 186.34C93.9681 186.467 97.5318 185.626 99.9806 184.82L100.583 175.127L100.108 175.094C97.8289 175.139 93.6187 175.231 88.2992 175.309C76.1614 175.496 73.6315 175.402 70.3503 177.185C65.4802 179.828 63.2402 184.262 62.4137 185.894C61.8806 186.942 61.4634 187.994 61.1312 189.021C60.0699 192.353 59.9268 195.469 59.8846 197.579C59.8866 197.806 59.8763 198.02 59.8719 198.217C59.8638 198.677 59.8677 199.112 59.8774 199.517C58.7751 201.672 56.942 204.564 53.9254 207.307C52.5531 208.558 51.1907 209.545 49.9543 210.322C49.0515 212.28 46.4803 218.539 49.0217 225.432C50.3705 229.093 53.334 233.42 56.8213 235.652C58.3733 234.731 59.9604 233.656 61.5583 232.416C65.4076 229.426 68.3892 226.156 70.6953 223.009C72.1104 221.083 73.2699 219.203 74.2234 217.459C77.5674 219.33 81.0833 219.287 82.6839 217.66C83.8918 216.429 83.8379 214.474 83.8121 213.622C83.7843 212.549 83.5325 211.644 83.1779 210.831C85.9192 210.709 86.9884 209.645 87.3322 209.243C88.3034 208.112 88.3625 206.536 87.9582 204.915Z" fill="white"/>
<path d="M111.358 95.2557C112.209 94.4327 113.121 93.4558 113.958 92.3509C125.253 77.4801 116.033 50.0497 114.839 46.6205L114.739 46.3333L71.3502 61.6233C70.6558 62.3468 66.7926 66.5259 67.3759 72.5174C67.7441 76.2543 69.6624 78.8432 70.5739 79.9265C68.2088 80.5545 65.8438 81.1886 63.4788 81.8166C63.4926 81.3137 63.5248 77.377 60.2804 75.0512C59.7897 74.6999 58.2261 73.6162 56.0569 73.6477C54.8444 73.6707 53.6836 74.0305 52.665 74.622C51.1129 75.5248 49.8946 76.9581 49.3477 78.5081C48.0041 82.3154 50.8015 86.4662 54.2539 88.1953C57.0636 89.5991 59.9305 89.2181 61.651 88.7491C63.2188 92.365 64.8807 97.6725 64.7611 104.118C64.7243 106.16 64.5156 108.044 64.2075 109.733C66.2387 112.695 68.7231 115.898 71.7686 119.164C77.7673 125.591 83.975 130.16 89.1222 133.333L89.0622 133.444C91.341 134.767 94.5873 137.313 101.497 141.323C103.941 142.742 105.986 143.852 107.309 144.552C107.58 144.145 107.862 143.713 108.145 143.257C109.791 140.594 111.545 137.01 112.572 132.586C112.754 131.812 112.9 131.056 113.009 130.325C111.58 125.139 110.271 118.393 110.145 110.466C110.132 109.651 110.131 108.848 110.142 108.063C110.209 103.237 110.708 98.9342 111.364 95.2679L111.364 95.2557L111.358 95.2557ZM85.9284 74.1189L82.8477 71.0068L84.7718 70.1375C84.6845 69.9114 84.6154 69.679 84.5584 69.4404C84.0583 67.3356 84.748 65.392 86.1045 65.104C87.4548 64.81 88.9548 66.2805 89.4609 68.3792C89.961 70.484 89.2713 72.4276 87.9209 72.7155C87.3857 72.8306 86.8297 72.67 86.3207 72.3127L85.9284 74.1189ZM90.1814 81.6107L89.9337 79.7857L104.077 79.6604L104.086 80.7027C104.119 84.3629 101.019 87.358 97.1678 87.3921C95.4006 87.4077 93.762 86.7969 92.5157 85.7594C91.5396 84.9526 90.7989 83.8923 90.4224 82.6693C90.3097 82.3269 90.2273 81.9782 90.1814 81.6107ZM108.018 68.4662L104.815 65.3L106.32 64.508C106.207 64.2392 106.113 63.9519 106.044 63.652C105.544 61.5534 106.233 59.6097 107.584 59.3218C108.934 59.0278 110.44 60.4922 110.94 62.597C111.446 64.7017 110.757 66.6392 109.4 66.9333C109.011 67.0165 108.614 66.9587 108.229 66.7781L108.018 68.4662Z" fill="white"/>
<path d="M41.2168 131.371C40.215 132.484 39.1408 133.677 38.0004 134.962C38.6803 134.668 39.3313 134.54 39.959 134.546C46.6143 134.598 52.1168 149.682 55.9864 164.792L55.9925 164.792C58.0185 163.726 60.1482 162.67 62.3817 161.639C67.6316 159.213 72.6786 157.274 77.3938 155.712C76.8771 154.484 76.3176 153.232 75.7152 151.968C74.5602 149.532 73.3518 147.274 72.1389 145.188C71.5101 146.438 71.098 147.392 70.9369 147.773C69.6136 145.615 68.3313 143.265 67.1386 140.713C64.1446 134.32 62.4079 128.142 61.4382 122.559C60.7585 121.504 59.5812 119.994 57.6623 118.711C56.7734 118.118 55.9105 117.703 55.1644 117.403C50.8839 121.267 46.1169 125.92 41.2168 131.371Z" fill="#7099ED"/>
<path d="M50.3913 69.0071L50.4725 69.2332C50.7664 70.0768 51.0972 70.9568 51.4586 71.8549C51.8325 72.7836 52.2182 73.6692 52.6034 74.5058L52.6654 74.6218C53.6839 74.0303 54.8447 73.6705 56.0573 73.6475C58.2265 73.616 59.7901 74.6997 60.2807 75.051C63.5251 77.3767 63.493 81.3134 63.4791 81.8163C65.8442 81.1884 68.2092 80.5543 70.5742 79.9263C69.6627 78.843 67.7445 76.2541 67.3762 72.5171C66.7929 66.5257 70.6562 62.3466 71.3506 61.623L50.3913 69.0071Z" fill="#231F20"/>
<path d="M55.9926 164.792L55.9865 164.792C56.3272 166.101 56.6496 167.41 56.9597 168.707C57.3426 168.587 60.369 167.628 60.8694 168.403C61.271 169.012 60.0053 170.605 57.8026 172.36C58.1323 173.81 58.4436 175.242 58.7363 176.632C62.2158 174.541 66.0792 172.446 70.3337 170.471C73.9873 168.771 77.5761 167.323 81.0571 166.09L80.982 165.876C80.6803 164.837 80.3539 163.76 79.9907 162.666C77.5823 163.215 75.6912 162.998 75.4664 162.381C75.2415 161.758 76.5951 160.464 78.8839 159.487C78.4281 158.253 77.9294 156.994 77.394 155.711C72.6788 157.274 67.6317 159.213 62.3818 161.639C60.1483 162.67 58.0186 163.725 55.9926 164.792Z" fill="#F4F3F1"/>
<path d="M56.9605 168.708C57.2517 169.938 57.5367 171.155 57.8033 172.361C60.0057 170.606 61.2712 169.013 60.8697 168.404C60.3693 167.63 57.3433 168.588 56.9605 168.708Z" fill="#7099ED"/>
<path d="M55.1655 117.403C55.9116 117.703 56.7744 118.118 57.6632 118.711C59.5818 119.994 60.759 121.504 61.4386 122.558C60.8287 119.057 60.5255 115.786 60.396 112.85C58.7629 114.22 57.0093 115.737 55.1655 117.403Z" fill="#7099ED"/>
<path d="M58.7363 176.632C59.7477 181.424 60.554 185.758 61.1314 189.021C61.4635 187.994 61.8808 186.942 62.4139 185.895C63.2404 184.263 65.4803 179.828 70.3505 177.186C73.6316 175.403 76.1615 175.497 88.2994 175.31C93.6189 175.232 97.8291 175.139 100.108 175.095L100.584 175.127L101.474 160.723C95.4195 161.794 88.4809 163.462 81.0571 166.091C77.5761 167.323 73.9873 168.772 70.3337 170.472C66.0792 172.447 62.2158 174.541 58.7363 176.632Z" fill="#7099ED"/>
<path d="M56.8214 235.653C53.3341 233.421 50.3706 229.094 49.0218 225.433C46.4804 218.539 49.0516 212.281 49.9544 210.323C51.1908 209.546 52.5532 208.559 53.9255 207.308C56.9421 204.565 58.7752 201.673 59.8775 199.517C59.8739 199.113 59.87 198.677 59.872 198.218C59.8764 198.021 59.8806 197.807 59.8847 197.586C59.9269 195.47 60.07 192.354 61.1313 189.021C60.5539 185.758 59.7476 181.424 58.7362 176.632C58.4436 175.243 58.1323 173.811 57.8026 172.361C57.5359 171.155 57.2509 169.938 56.9597 168.708C56.6496 167.411 56.3272 166.101 55.9865 164.792C52.1169 149.682 46.6144 134.598 39.9591 134.547C39.3314 134.54 38.6804 134.668 38.0005 134.963C28.0025 146.247 13.5101 164.065 7.00002 187.968C2.373 204.987 -3.78721 245.681 15.4711 254.72C26.6209 259.956 43.4726 253.24 58.9118 241.165C61.0482 239.497 63.1533 237.724 65.2149 235.86C64.4157 236.456 63.5358 236.881 62.5685 237.061C60.6156 237.434 58.6418 236.832 56.8214 235.653Z" fill="#7099ED"/>
<path d="M70.1979 227.991C70.7892 225.963 70.8101 224.197 70.7389 223.039L70.696 223.008C68.3902 226.155 65.409 229.425 61.5601 232.414C59.9625 233.654 58.3755 234.729 56.8238 235.65C58.644 236.83 60.6174 237.431 62.5701 237.058C63.5373 236.878 64.4171 236.453 65.2162 235.858L65.2223 235.858C67.8437 233.94 69.5298 230.308 70.1979 227.991Z" fill="#231F20"/>
<path d="M72.1389 145.181C73.3519 147.274 74.5603 149.532 75.7153 151.968C76.3177 153.232 76.8772 154.484 77.3939 155.712C77.9294 156.994 78.4281 158.253 78.8839 159.488C79.2835 160.569 79.6524 161.633 79.9907 162.666C80.3538 163.761 80.6803 164.837 80.982 165.876L81.057 166.09C88.4808 163.462 95.4194 161.794 101.474 160.722L102.135 150.072C102.231 148.52 103.616 147.318 105.249 147.365L132.168 148.102C131.975 146.969 131.738 145.757 131.441 144.478C130.972 142.49 130.35 140.331 129.513 138.063C128.401 135.032 127.141 132.388 125.908 130.161L125.98 129.983C123.515 128.95 121.044 127.923 118.579 126.884C115.098 132.342 111.618 137.799 108.144 143.256C107.862 143.712 107.579 144.144 107.309 144.551C105.986 143.851 103.941 142.741 101.497 141.322C94.587 137.312 91.3406 134.765 89.0619 133.443C87.7694 132.688 86.7911 132.323 85.6269 132.308C79.4286 132.234 74.3963 140.661 72.1389 145.181Z" fill="#7099ED"/>
<path d="M78.8845 159.488C76.5959 160.465 75.2425 161.758 75.4673 162.381C75.6922 162.999 77.583 163.215 79.9911 162.666C79.6529 161.633 79.284 160.57 78.8845 159.488Z" fill="#7099ED"/>
<path d="M82.8544 71.0058L85.9347 74.1174L86.327 72.3115C85.6893 71.8574 85.128 71.0899 84.7783 70.1366L82.8544 71.0058Z" fill="white"/>
<path d="M86.1114 65.1023C84.7551 65.3902 84.0655 67.3336 84.5655 69.4382C84.6224 69.6768 84.6915 69.9091 84.7788 70.1352L87.0184 69.1283L86.3275 72.304C86.8365 72.6673 87.3924 72.8279 87.9276 72.7128C89.2777 72.425 89.9674 70.4816 89.4673 68.377C88.9613 66.2787 87.4615 64.8083 86.1114 65.1023Z" fill="#231F20"/>
<path d="M87.0176 69.1289L84.7781 70.1358C85.1277 71.0891 85.689 71.8566 86.3267 72.3046L87.0176 69.1289Z" fill="white"/>
<path d="M89.1221 133.333C83.975 130.159 77.7672 125.591 71.7685 119.163C68.723 115.898 66.2387 112.694 64.2075 109.733C63.0275 110.675 61.7508 111.71 60.3958 112.85C60.5254 115.786 60.8286 119.058 61.4386 122.56C62.4083 128.143 64.145 134.32 67.139 140.714C68.3317 143.266 69.614 145.615 70.9372 147.774C71.0984 147.392 71.5104 146.438 72.1392 145.188C74.3966 140.661 79.4289 132.235 85.6272 132.309C86.7913 132.323 87.7696 132.689 89.0622 133.444L89.1221 133.333Z" fill="#7099ED"/>
<path d="M87.9584 204.915C88.3628 206.536 88.3036 208.112 87.3325 209.243C86.9886 209.645 85.9194 210.709 83.1781 210.831C83.5327 211.643 83.7845 212.549 83.8123 213.621C83.8381 214.473 83.892 216.429 82.6841 217.66C81.0835 219.287 77.5676 219.33 74.2236 217.459C73.2701 219.202 72.1106 221.083 70.6956 223.008L70.7385 223.039C70.8097 224.197 70.7888 225.963 70.1973 227.992C69.5292 230.309 67.8428 233.942 65.2211 235.859L65.215 235.86C63.1534 237.723 61.0484 239.496 58.9119 241.164C96.7186 255.465 131.318 253.717 145.014 236.79C147.576 233.628 150.041 229.142 151.166 222.7L100.842 222.147C99.1107 222.125 97.7516 220.739 97.8529 219.101L99.9808 184.82C97.532 185.626 93.9683 186.467 89.6586 186.34C87.8055 186.283 86.1398 186.058 84.7051 185.77L84.669 185.814C86.0924 186.899 87.8662 188.318 89.756 190.459C92.0151 193.002 92.7981 194.706 93.1156 195.463C93.6573 196.765 94.0495 197.699 93.992 198.773C93.7867 202.429 88.5716 204.664 87.9645 204.915L87.9584 204.915Z" fill="#7099ED"/>
<path d="M90.4301 82.6687C90.8065 83.8915 91.5471 84.9517 92.5231 85.7584C93.7692 86.7957 95.4077 87.4065 97.1746 87.3909C101.025 87.3568 104.125 84.362 104.092 80.7023L104.083 79.6602L89.9415 79.7854L90.1892 81.6102C90.2351 81.9776 90.3174 82.3264 90.4301 82.6687Z" fill="white"/>
<path d="M104.822 65.2989L108.025 68.4646L108.235 66.7768C107.47 66.4219 106.762 65.5944 106.326 64.507L104.822 65.2989Z" fill="white"/>
<path d="M108.661 63.2852L106.326 64.5075C106.762 65.5949 107.47 66.4224 108.235 66.7773L108.661 63.2852Z" fill="white"/>
<path d="M108.662 63.2844L108.236 66.7766C108.621 66.9571 109.018 67.0149 109.407 66.9317C110.763 66.6377 111.453 64.7004 110.947 62.5959C110.447 60.4914 108.941 59.0272 107.591 59.3212C106.241 59.609 105.551 61.5525 106.051 63.6509C106.121 63.9506 106.215 64.238 106.327 64.5067L108.662 63.2844Z" fill="#231F20"/>
<path d="M112.572 132.586C111.544 137.01 109.79 140.594 108.144 143.257C111.618 137.8 115.098 132.343 118.579 126.885C120.081 124.53 121.584 122.168 123.087 119.813C121.864 118.015 120.175 115.878 117.889 113.721C117.434 113.29 116.98 112.883 116.532 112.501C114.223 110.522 111.986 109.089 110.142 108.063C110.131 108.848 110.132 109.651 110.145 110.466C110.27 118.393 111.579 125.139 113.009 130.326C112.899 131.056 112.754 131.812 112.572 132.586Z" fill="#7099ED"/>
<path d="M116.532 112.5C116.98 112.882 117.434 113.289 117.889 113.72C120.175 115.876 121.864 118.014 123.087 119.812C124.256 121.083 125.611 122.775 126.843 124.91C128.285 127.393 129.116 129.697 129.619 131.502C128.408 130.997 127.191 130.487 125.98 129.983L125.908 130.161C127.141 132.388 128.401 135.032 129.513 138.063C130.35 140.331 130.972 142.49 131.441 144.478C133.346 144.265 135.435 144.112 137.683 144.055C139.999 143.998 142.15 144.052 144.114 144.182C141.906 139.112 138.801 133.315 134.403 127.339C131.146 122.922 127.798 119.236 124.682 116.211C121.487 114.632 118.715 113.406 116.532 112.5Z" fill="#7099ED"/>
<path d="M123.088 119.813C121.585 122.168 120.083 124.529 118.58 126.885C121.045 127.923 123.516 128.95 125.981 129.983C127.192 130.487 128.409 130.997 129.62 131.501C129.116 129.697 128.285 127.393 126.844 124.911C125.612 122.776 124.257 121.084 123.088 119.813Z" fill="#231F20"/>
<path d="M136.165 122.596C132.011 120.014 128.11 117.909 124.682 116.21C127.799 119.236 131.147 122.922 134.403 127.339C138.801 133.315 141.906 139.112 144.114 144.182C144.774 145.684 145.353 147.12 145.859 148.477L164.938 149.001C165.657 149.019 166.305 149.277 166.815 149.683L167.681 148.431C157.536 137.619 145.951 128.665 136.165 122.596Z" fill="#7099ED"/>
<path d="M131.443 144.479C131.74 145.758 131.976 146.97 132.169 148.102L145.858 148.477C145.353 147.121 144.773 145.685 144.114 144.183C142.151 144.053 139.999 143.999 137.684 144.056C135.437 144.113 133.348 144.266 131.443 144.479Z" fill="#F4F3F1"/>
<path d="M161.128 219.682L161.364 220.268C161.17 221.698 159.869 222.795 158.321 222.778L151.166 222.701C151.714 224.002 156.577 235.044 167.216 236.931C167.961 237.059 172.27 237.769 176.691 236.037C189.979 230.824 192.508 208.165 192.721 206.078C194.838 184.973 182.871 164.618 167.681 148.431L166.815 149.683C167.521 150.259 167.943 151.132 167.872 152.09L165.326 184.585C168.818 186.577 174.297 190.103 177.767 196.523C178.281 197.481 178.616 198.097 178.872 198.794C179.424 199.212 180.387 199.994 181.342 201.145C185.124 205.692 186.063 212.636 184.985 218.906C184.979 218.906 184.979 218.912 184.979 218.918C183.844 225.532 180.452 231.399 175.761 232.931C172.395 234.021 168.18 232.949 165.454 230.582C160.645 226.406 162.078 219.624 162.178 219.188C161.814 219.387 161.462 219.55 161.128 219.682Z" fill="#7099ED"/>
<path d="M162.178 219.188C162.078 219.625 160.645 226.406 165.454 230.582C168.18 232.949 172.395 234.022 175.761 232.931C180.452 231.4 183.844 225.533 184.979 218.919C184.795 219.466 182.844 224.855 176.988 226.207C172.518 227.239 168.156 225.383 165.785 222.566C164.689 221.269 164.159 219.937 163.888 218.995C163.237 219.093 162.659 219.153 162.178 219.188Z" fill="#231F20"/>
<path d="M100.842 222.147L151.166 222.701L158.321 222.778C159.869 222.795 161.17 221.699 161.364 220.268L161.127 219.682C160.089 220.096 159.194 220.22 158.487 220.226C158.457 220.233 158.372 220.233 158.262 220.228C157.78 220.214 156.95 220.081 154.683 219.346C150.325 217.932 146.854 216.773 146.447 214.845C146.396 214.594 146.237 213.854 146.676 213.182C147.006 212.676 147.528 212.444 147.796 212.35C144.728 211.372 144.06 210.335 143.812 209.773C143.693 209.505 143.258 208.527 143.669 207.432C144.068 206.368 145.008 205.863 145.281 205.726L145.28 205.603C139.188 205.216 137.801 204.112 137.366 203.08C136.93 202.053 137.39 201.013 137.462 200.847C137.88 199.942 139.076 198.736 147.318 197.669C151.202 197.175 154.577 197.09 158.282 197.002C159.774 196.97 161.091 196.953 162.182 196.955C159.994 193.504 157.544 191.447 155.534 190.159C150.735 187.111 146.139 187.023 145.598 184.379C145.324 183.039 146.22 181.719 146.952 181.056C147.816 180.276 149.37 179.588 153.556 180.225C158.249 180.944 161.921 182.677 164.395 184.059C164.683 184.222 164.995 184.398 165.326 184.585L167.872 152.09C167.943 151.133 167.521 150.26 166.815 149.683C166.305 149.277 165.657 149.019 164.938 149.001L145.859 148.477L132.168 148.102L105.25 147.365C103.616 147.318 102.231 148.52 102.135 150.072L101.474 160.722L100.584 175.127L99.981 184.82L97.8531 219.102C97.7518 220.74 99.1109 222.126 100.842 222.147Z" fill="#7099ED"/>
<path d="M114.839 46.6195C116.034 50.0487 125.253 77.479 113.959 92.3498C113.121 93.4548 112.21 94.4316 111.358 95.2547C109.545 97.006 107.982 98.056 107.867 98.1306C97.3492 105.079 84.6716 101.439 81.4876 100.424" stroke="#231F20" stroke-width="0.99" stroke-linecap="round" stroke-linejoin="round"/>
<path d="M71.3506 61.623C70.6562 62.3466 66.7929 66.5257 67.3762 72.5171C67.7445 76.2541 69.6627 78.843 70.5742 79.9263C68.2092 80.5543 65.8442 81.1884 63.4791 81.8163C63.493 81.3134 63.5251 77.3767 60.2807 75.051C59.7901 74.6997 58.2265 73.616 56.0573 73.6475C54.8447 73.6705 53.6839 74.0303 52.6654 74.6218C51.1133 75.5246 49.8949 76.9579 49.348 78.5079C48.0045 82.3152 50.8019 86.4659 54.2543 88.1951C57.0639 89.5988 59.9309 89.2178 61.6514 88.7489C62.4478 88.5395 62.9942 88.3016 63.1764 88.2264" stroke="#231F20" stroke-width="0.99" stroke-linecap="round" stroke-linejoin="round"/>
<path d="M65.2148 235.861C63.1532 237.725 61.0482 239.497 58.9117 241.165C43.4726 253.24 26.6209 259.956 15.471 254.721C-3.78728 245.682 2.37293 204.988 6.99996 187.968C13.51 164.065 28.0024 146.248 38.0004 134.963C39.1408 133.678 40.215 132.485 41.2168 131.372C46.1169 125.921 50.884 121.268 55.1644 117.404C57.0083 115.738 58.7622 114.22 60.3955 112.851C61.7505 111.71 63.0271 110.675 64.2071 109.733C64.5152 108.044 64.724 106.16 64.7607 104.117C64.8803 97.6722 63.2184 92.3648 61.6507 88.755" stroke="#231F20" stroke-width="0.99" stroke-linecap="round" stroke-linejoin="round"/>
<path d="M50.4729 69.2333C50.7667 70.0767 51.0975 70.9566 51.4588 71.8546C51.8327 72.7832 52.2183 73.6687 52.6035 74.5052" stroke="#231F20" stroke-width="0.99" stroke-linecap="round" stroke-linejoin="round"/>
<path d="M53.4698 77.2993C53.4912 77.6608 53.5809 78.1566 53.9021 78.6381C54.9089 80.1741 57.1686 80.0744 57.2904 80.0671" stroke="#231F20" stroke-width="0.99" stroke-linecap="round" stroke-linejoin="round"/>
<path d="M53.4134 81.3029C53.6211 81.3685 53.9752 81.4451 54.3766 81.3557C55.4408 81.1133 55.7839 79.9515 55.8018 79.9023" stroke="#231F20" stroke-width="0.99" stroke-linecap="round" stroke-linejoin="round"/>
<path d="M114.739 46.333L128.335 41.5403L127.329 36.6257C126.672 36.7848 126.008 36.8642 125.356 36.87C122.023 36.8995 118.905 35.0264 117.561 32.0032L114.216 24.4421C106.008 5.93635 83.9874 -3.24363 64.0588 3.53653C47.806 9.06397 37.472 23.6994 37.6117 39.4745C37.6367 42.2886 37.9971 45.1366 38.7109 47.9753L43.0565 65.2337C43.2649 66.0596 42.9558 66.933 42.2597 67.4726L43.7384 71.353L50.3907 69.0071L71.35 61.623L114.739 46.333Z" stroke="#231F20" stroke-width="0.99" stroke-linecap="round" stroke-linejoin="round"/>
<path d="M76.8034 18.9025C78.2238 21.0236 81.8915 27.0981 81.288 35.338C80.4448 46.7746 72.0335 53.4957 70.5263 54.6556" stroke="white" stroke-width="0.99" stroke-linecap="round" stroke-linejoin="round"/>
<path d="M90.2725 16.8651C90.3343 18.3361 91.0407 30.6664 101.216 36.6036C104.426 38.4759 107.649 39.1708 110.083 39.4252" stroke="#231F20" stroke-width="0.99" stroke-linecap="round" stroke-linejoin="round"/>
<path d="M89.9415 79.7854L104.083 79.6602L104.092 80.7023C104.125 84.362 101.025 87.3568 97.1746 87.3909C95.4077 87.4065 93.7692 86.7957 92.5231 85.7584C91.5471 84.9517 90.8065 83.8915 90.4301 82.6687C90.3174 82.3264 90.2351 81.9776 90.1892 81.6102L89.9415 79.7854Z" stroke="#231F20" stroke-width="0.99" stroke-linecap="round" stroke-linejoin="round"/>
<path d="M84.7788 70.1352C84.6915 69.9091 84.6224 69.6767 84.5655 69.4382C84.0655 67.3336 84.7551 65.3902 86.1114 65.1023C87.4615 64.8083 88.9613 66.2787 89.4673 68.377C89.9674 70.4816 89.2777 72.425 87.9276 72.7128C87.3924 72.8279 86.8365 72.6673 86.3275 72.3101" stroke="#231F20" stroke-width="0.99" stroke-linecap="round" stroke-linejoin="round"/>
<path d="M106.327 64.5067C106.215 64.238 106.121 63.9506 106.051 63.6509C105.551 61.5525 106.241 59.609 107.591 59.3212C108.941 59.0272 110.447 60.4914 110.947 62.5959C111.453 64.7004 110.763 66.6377 109.407 66.9317C109.018 67.0149 108.621 66.9571 108.236 66.7766" stroke="#231F20" stroke-width="0.99" stroke-linecap="round" stroke-linejoin="round"/>
<path d="M19.2927 232.717C19.5242 231.342 19.9394 229.37 20.6868 227.058C21.4877 224.598 22.2708 222.188 23.7649 220.243C24.9577 218.681 26.4173 217.657 28.4202 216.738C29.537 216.219 30.8186 215.735 32.3191 215.207C36.5657 213.71 42.4972 211.873 49.9549 210.323C51.1912 209.546 52.5537 208.559 53.9259 207.308C56.9426 204.565 58.7757 201.673 59.8779 199.518" stroke="#231F20" stroke-width="0.99" stroke-linecap="round" stroke-linejoin="round"/>
<path d="M28.4205 216.736C28.1017 216.512 25.5759 214.787 22.439 215.6C19.8674 216.266 17.9118 218.368 17.4231 220.984" stroke="#231F20" stroke-width="0.99" stroke-linecap="round" stroke-linejoin="round"/>
<path d="M49.9548 210.322C49.0519 212.28 46.4808 218.538 49.0222 225.432C50.3709 229.093 53.3344 233.42 56.8218 235.652C58.6422 236.831 60.6159 237.433 62.5688 237.06C63.5362 236.88 64.4161 236.455 65.2152 235.859L65.2213 235.859C67.8431 233.941 69.5294 230.309 70.1975 227.991C70.789 225.963 70.8099 224.197 70.7387 223.039" stroke="#231F20" stroke-width="0.99" stroke-linecap="round" stroke-linejoin="round"/>
<path d="M56.8158 235.658C56.8158 235.658 56.8158 235.658 56.8157 235.652C58.3677 234.731 59.9548 233.656 61.5527 232.416C65.4021 229.426 68.3836 226.156 70.6897 223.009C72.1048 221.083 73.2643 219.203 74.2178 217.459C74.5657 216.825 74.8893 216.209 75.1826 215.611" stroke="#231F20" stroke-width="0.99" stroke-linecap="round" stroke-linejoin="round"/>
<path d="M71.0473 214.482C71.0788 214.599 71.3673 215.528 72.3457 215.918C73.1529 216.242 74.108 216.068 74.7913 215.473" stroke="#231F20" stroke-width="0.99" stroke-linecap="round" stroke-linejoin="round"/>
<path d="M72.9729 214.466C73.3287 214.745 73.8375 215.084 74.5103 215.366C74.6081 215.408 74.6999 215.444 74.7915 215.474C75.2623 215.654 75.6897 215.754 76.0376 215.813" stroke="#231F20" stroke-width="0.99" stroke-linecap="round" stroke-linejoin="round"/>
<path d="M83.1784 210.832C83.5329 211.644 83.7847 212.549 83.8125 213.622C83.8383 214.474 83.8922 216.429 82.6844 217.659C81.0841 219.286 77.5686 219.329 74.225 217.459" stroke="#231F20" stroke-width="0.99" stroke-linecap="round" stroke-linejoin="round"/>
<path d="M77.4186 203.783C80.0253 205.697 81.457 207.738 82.2055 209.007C82.5458 209.58 82.8983 210.172 83.1723 210.831" stroke="#231F20" stroke-width="0.99" stroke-linecap="round" stroke-linejoin="round"/>
<path d="M80.2002 193.175C80.3654 193.934 80.5306 194.699 80.7019 195.458C81.7554 196.062 83.4902 197.211 85.0126 199.141C86.1035 200.524 87.4396 202.762 87.9584 204.916C88.3628 206.537 88.3037 208.113 87.3325 209.244C86.9887 209.646 85.9195 210.71 83.1782 210.832L83.1721 210.832" stroke="#231F20" stroke-width="0.99" stroke-linecap="round" stroke-linejoin="round"/>
<path d="M78.0434 181.464C80.6705 182.906 82.737 184.341 84.2279 185.475C84.369 185.584 84.5162 185.693 84.6697 185.814C86.0931 186.899 87.8669 188.318 89.7567 190.46C92.0158 193.003 92.7988 194.706 93.1163 195.464C93.658 196.765 94.0502 197.7 93.9927 198.773C93.7874 202.429 88.5723 204.664 87.9651 204.915" stroke="#231F20" stroke-width="0.99" stroke-linecap="round" stroke-linejoin="round"/>
<path d="M59.8853 197.579C59.9275 195.469 60.0706 192.353 61.1319 189.02C61.4641 187.993 61.8813 186.941 62.4144 185.894C63.2409 184.262 65.4809 179.827 70.351 177.185C73.6322 175.402 76.1621 175.496 88.2999 175.309C93.6194 175.231 97.8296 175.138 100.108 175.094" stroke="#231F20" stroke-width="0.99" stroke-linecap="round" stroke-linejoin="round"/>
<path d="M59.9602 201.252C59.9258 200.786 59.8903 200.198 59.8782 199.518C59.8746 199.113 59.8708 198.678 59.8728 198.218C59.8771 198.022 59.8812 197.807 59.8853 197.586" stroke="#231F20" stroke-width="0.99" stroke-linecap="round" stroke-linejoin="round"/>
<path d="M84.7077 185.771C86.1422 186.059 87.8077 186.283 89.6606 186.34C93.9697 186.468 97.533 185.627 99.9814 184.82" stroke="#231F20" stroke-width="0.99" stroke-linecap="round" stroke-linejoin="round"/>
<path d="M162.177 219.188C162.658 219.154 163.237 219.093 163.888 218.996C166.237 218.637 169.514 217.732 172.552 215.412C177.34 211.752 180.671 205.223 179.097 199.51C179.027 199.253 178.952 199.021 178.871 198.794C178.615 198.098 178.28 197.481 177.766 196.523C174.297 190.104 168.817 186.578 165.326 184.585C164.995 184.398 164.683 184.223 164.395 184.06C161.921 182.678 158.249 180.944 153.556 180.226C149.37 179.588 147.816 180.276 146.951 181.057C146.22 181.719 145.323 183.039 145.597 184.38C146.139 187.024 150.735 187.112 155.533 190.16C157.544 191.448 159.993 193.505 162.181 196.956" stroke="#231F20" stroke-width="0.99" stroke-linecap="round" stroke-linejoin="round"/>
<path d="M163.589 196.954C163.175 196.952 162.705 196.95 162.181 196.954C161.09 196.952 159.774 196.97 158.281 197.001C154.577 197.089 151.202 197.174 147.318 197.669C139.076 198.735 137.88 199.941 137.461 200.846C137.39 201.012 136.93 202.053 137.365 203.079C137.801 204.111 139.188 205.215 145.286 205.602C145.865 205.634 146.487 205.659 147.151 205.684C150.638 205.8 155.433 205.715 161.185 204.873" stroke="#231F20" stroke-width="0.99" stroke-linecap="round" stroke-linejoin="round"/>
<path d="M145.282 205.726C145.009 205.863 144.069 206.368 143.67 207.432C143.26 208.527 143.695 209.504 143.813 209.773C144.062 210.335 144.729 211.371 147.797 212.349C148.261 212.499 148.786 212.647 149.372 212.789C151.375 213.28 154.341 213.787 158.069 213.65" stroke="#231F20" stroke-width="0.99" stroke-linecap="round" stroke-linejoin="round"/>
<path d="M147.797 212.35C147.53 212.444 147.008 212.675 146.677 213.181C146.238 213.853 146.397 214.593 146.448 214.844C146.855 216.772 150.326 217.931 154.684 219.345C156.951 220.079 157.781 220.213 158.262 220.227C158.372 220.232 158.457 220.231 158.487 220.225C159.194 220.218 160.089 220.094 161.127 219.68C161.461 219.549 161.813 219.386 162.177 219.187" stroke="#231F20" stroke-width="0.99" stroke-linecap="round" stroke-linejoin="round"/>
<path d="M175.531 202.093C175.632 202.582 175.769 203.593 175.347 204.712C174.537 206.871 172.368 207.552 172.082 207.635" stroke="#231F20" stroke-width="0.99" stroke-linecap="round" stroke-linejoin="round"/>
<path d="M84.6749 198.721C85.1524 198.968 85.8433 199.238 86.7033 199.334C88.9784 199.584 90.6983 198.392 91.1523 198.057" stroke="#231F20" stroke-width="0.99" stroke-linecap="round" stroke-linejoin="round"/>
<path d="M184.979 218.918C183.844 225.532 180.452 231.399 175.761 232.93C172.395 234.021 168.18 232.949 165.454 230.581C160.645 226.406 162.078 219.624 162.178 219.187" stroke="#231F20" stroke-width="0.99" stroke-linecap="round" stroke-linejoin="round"/>
<path d="M178.872 198.795C179.424 199.213 180.388 199.996 181.342 201.146C185.125 205.693 186.064 212.637 184.986 218.907" stroke="#231F20" stroke-width="0.99" stroke-linecap="round" stroke-linejoin="round"/>
<path d="M163.888 218.996C164.158 219.937 164.688 221.269 165.784 222.566C168.156 225.384 172.517 227.24 176.987 226.207C182.844 224.855 184.795 219.466 184.979 218.919C184.979 218.913 184.979 218.907 184.985 218.907C184.985 218.894 184.991 218.888 184.991 218.882" stroke="#231F20" stroke-width="0.99" stroke-linecap="round" stroke-linejoin="round"/>
<path d="M165.326 184.585L167.872 152.09C167.943 151.133 167.521 150.26 166.815 149.683C166.305 149.277 165.657 149.019 164.938 149.001L145.859 148.477L132.168 148.102L105.25 147.365C103.616 147.318 102.231 148.52 102.135 150.072L101.474 160.722L100.584 175.127L99.981 184.82L97.8531 219.102C97.7518 220.74 99.1109 222.126 100.842 222.147L151.166 222.701L158.321 222.778C159.869 222.795 161.17 221.699 161.364 220.268C161.376 220.17 161.381 220.078 161.386 219.98" stroke="#231F20" stroke-width="0.99" stroke-linecap="round" stroke-linejoin="round"/>
<path d="M142.99 151.427L107.378 150.375C106.373 150.329 105.514 151.066 105.461 152.023L102.308 205.395" stroke="white" stroke-width="0.99" stroke-linecap="round" stroke-linejoin="round"/>
<path d="M101.342 218.679L101.191 220.214C101.163 220.496 101.39 220.739 101.689 220.743L145.877 221.369" stroke="#231F20" stroke-width="0.99" stroke-linecap="round" stroke-linejoin="round"/>
<path d="M159.954 151.909L164.788 152.087C165.508 152.118 166.067 152.701 166.031 153.388L164.949 170.916" stroke="#231F20" stroke-width="0.99" stroke-linecap="round" stroke-linejoin="round"/>
<path d="M111.364 95.2677C110.707 98.934 110.209 103.237 110.142 108.063C110.131 108.848 110.132 109.651 110.145 110.466C110.27 118.393 111.579 125.138 113.009 130.325C113.009 130.325 113.011 130.329 113.015 130.338" stroke="#231F20" stroke-width="0.99" stroke-linecap="round" stroke-linejoin="round"/>
<path d="M108.024 143.442C108.066 143.38 108.102 143.319 108.145 143.257C111.619 137.8 115.099 132.343 118.579 126.886M118.579 126.886C120.082 124.53 121.584 122.168 123.087 119.813C124.256 121.084 125.612 122.776 126.843 124.912C128.285 127.394 129.116 129.699 129.62 131.503C128.409 130.999 127.191 130.488 125.98 129.984C123.515 128.951 121.044 127.924 118.579 126.886ZM118.579 126.886L118.573 126.886" stroke="#231F20" stroke-width="0.99" stroke-linecap="round" stroke-linejoin="round"/>
<path d="M113.42 126.514C113.357 127.691 113.234 128.968 113.009 130.325C112.9 131.056 112.754 131.811 112.572 132.585C111.544 137.009 109.791 140.593 108.144 143.256C107.862 143.713 107.579 144.144 107.309 144.551" stroke="#231F20" stroke-width="0.99" stroke-linecap="round" stroke-linejoin="round"/>
<path d="M110.144 108.063C111.987 109.089 114.224 110.522 116.532 112.5C116.981 112.882 117.435 113.289 117.89 113.72C120.176 115.877 121.864 118.013 123.087 119.811" stroke="#231F20" stroke-width="0.99" stroke-linecap="round" stroke-linejoin="round"/>
<path d="M72.1389 145.187C71.5101 146.437 71.0981 147.392 70.9369 147.773C69.6137 145.614 68.3314 143.265 67.1387 140.713C64.1447 134.319 62.408 128.142 61.4383 122.559C60.8283 119.057 60.5251 115.785 60.3955 112.85" stroke="#231F20" stroke-width="0.99" stroke-linecap="round" stroke-linejoin="round"/>
<path d="M107.309 144.55C105.987 143.851 103.942 142.741 101.497 141.322C94.5877 137.311 91.3414 134.765 89.0627 133.442C87.7701 132.687 86.7918 132.322 85.6277 132.308C79.4293 132.234 74.3971 140.66 72.1397 145.181" stroke="#231F20" stroke-width="0.99" stroke-linecap="round" stroke-linejoin="round"/>
<path d="M64.2075 109.733C66.2387 112.694 68.723 115.898 71.7685 119.163C77.7672 125.591 83.975 130.159 89.1221 133.333" stroke="#231F20" stroke-width="0.99" stroke-linecap="round" stroke-linejoin="round"/>
<path d="M38.0007 134.963C38.6806 134.669 39.3315 134.541 39.9593 134.547C46.6145 134.599 52.1171 149.683 55.9867 164.793C56.3273 166.102 56.6497 167.412 56.9598 168.709C57.2511 169.939 57.5361 171.156 57.8027 172.362C58.1325 173.812 58.4438 175.244 58.7364 176.633C59.7478 181.425 60.5541 185.759 61.1314 189.022C61.1376 189.028 61.1376 189.034 61.1377 189.04" stroke="#231F20" stroke-width="0.99" stroke-linecap="round" stroke-linejoin="round"/>
<path d="M55.1657 117.403C55.9117 117.703 56.7745 118.118 57.6633 118.711C59.5819 119.994 60.7591 121.504 61.4387 122.558" stroke="#231F20" stroke-width="0.99" stroke-linecap="round" stroke-linejoin="round"/>
<path d="M72.1398 145.182C73.3527 147.275 74.5611 149.532 75.7162 151.969C76.3185 153.233 76.8781 154.485 77.3948 155.712C77.9302 156.995 78.4289 158.254 78.8847 159.489C79.2843 160.57 79.6533 161.634 79.9915 162.667C80.3547 163.761 80.6811 164.838 80.9828 165.877" stroke="#231F20" stroke-width="0.99" stroke-linecap="round" stroke-linejoin="round"/>
<path d="M116.532 112.5C118.716 113.407 121.487 114.633 124.682 116.211C128.11 117.91 132.011 120.015 136.165 122.597C145.951 128.666 157.537 137.619 167.682 148.431C182.871 164.619 194.838 184.974 192.721 206.079C192.508 208.165 189.979 230.825 176.691 236.038C172.27 237.769 167.961 237.06 167.216 236.931C156.577 235.045 151.714 224.002 151.166 222.701" stroke="#231F20" stroke-width="0.99" stroke-linecap="round" stroke-linejoin="round"/>
<path d="M124.682 116.21C127.799 119.236 131.147 122.922 134.403 127.339C138.802 133.315 141.906 139.112 144.114 144.182C144.774 145.684 145.353 147.12 145.859 148.477" stroke="#231F20" stroke-width="0.99" stroke-linecap="round" stroke-linejoin="round"/>
<path d="M125.909 130.161C127.142 132.389 128.402 135.032 129.514 138.064C130.35 140.331 130.973 142.49 131.441 144.479C131.739 145.757 131.975 146.969 132.168 148.102" stroke="#231F20" stroke-width="0.99" stroke-linecap="round" stroke-linejoin="round"/>
<path d="M58.7363 176.632C62.2158 174.541 66.0792 172.447 70.3337 170.472C73.9873 168.772 77.5761 167.323 81.0571 166.091C88.4808 163.462 95.4195 161.794 101.474 160.723" stroke="#231F20" stroke-width="0.99" stroke-linecap="round" stroke-linejoin="round"/>
<path d="M55.9932 164.791C58.0192 163.725 60.1489 162.67 62.3824 161.638C67.6323 159.213 72.6793 157.273 77.3945 155.711" stroke="#231F20" stroke-width="0.99" stroke-linecap="round" stroke-linejoin="round"/>
<path d="M56.9605 168.708C57.3433 168.588 60.3693 167.63 60.8697 168.404C61.2712 169.013 60.0057 170.606 57.8033 172.361" stroke="#231F20" stroke-width="0.99" stroke-linecap="round" stroke-linejoin="round"/>
<path d="M78.8845 159.488C76.5959 160.465 75.2425 161.758 75.4673 162.381C75.6922 162.999 77.583 163.215 79.9911 162.666" stroke="#231F20" stroke-width="0.99" stroke-linecap="round" stroke-linejoin="round"/>
<path d="M131.442 144.478C133.348 144.265 135.436 144.111 137.684 144.055C139.999 143.997 142.151 144.052 144.114 144.182" stroke="#231F20" stroke-width="0.99" stroke-linecap="round" stroke-linejoin="round"/>
<path d="M58.9122 241.165C96.7188 255.466 131.318 253.718 145.014 236.791C147.576 233.629 150.041 229.143 151.166 222.701" stroke="#231F20" stroke-width="0.99" stroke-linecap="round" stroke-linejoin="round"/>
<path d="M169.417 182.383C170.91 182.462 172.71 182.734 174.648 183.422C180.828 185.623 184.071 190.579 185.215 192.543" stroke="#231F20" stroke-width="0.99" stroke-linecap="round" stroke-linejoin="round"/>
<path d="M182.343 181.416C180.95 180.325 177.278 177.764 172.067 177.626C169.421 177.558 167.257 178.135 165.812 178.662" stroke="#231F20" stroke-width="0.99" stroke-linecap="round" stroke-linejoin="round"/>
<path d="M49.0748 183.782C50.6 184.682 52.4579 185.99 54.2537 187.856C57.7345 191.461 59.2188 195.31 59.8848 197.579" stroke="#231F20" stroke-width="0.99" stroke-linecap="round" stroke-linejoin="round"/>
<path d="M99.0492 82.9901L103.448 82.9512" stroke="#231F20" stroke-width="0.99" stroke-linecap="round" stroke-linejoin="round"/>
<path d="M92.3604 82.6504L90.4289 82.6675" stroke="#231F20" stroke-width="0.99" stroke-linecap="round" stroke-linejoin="round"/>
<path d="M153.705 181.904C153.69 182.303 153.612 183.052 153.162 183.853C152.826 184.45 152.409 184.846 152.131 185.069" stroke="#231F20" stroke-width="0.5" stroke-linecap="round" stroke-linejoin="round"/>
<path d="M57.751 10.3125C45.323 18.3384 39.1637 33.6787 43.0607 48.4456L45.0609 58.9128" stroke="white" stroke-width="0.99" stroke-linecap="round" stroke-linejoin="round"/>
<path d="M66.291 6.44727L62.6702 7.67483" stroke="white" stroke-width="0.99" stroke-linecap="round" stroke-linejoin="round"/>
</g>
<defs>
<clipPath id="clip0_6822_19789">
<rect width="191.494" height="255.336" fill="white" transform="matrix(-0.999961 0.00885855 0.00885855 0.999961 191.486 -0.0078125)"/>
</clipPath>
</defs>
</svg>
