<svg width="14" height="15" viewBox="0 0 14 15" fill="none" xmlns="http://www.w3.org/2000/svg">
<path d="M1.45801 7.49967C1.45801 4.88731 1.45801 3.58113 2.26956 2.76956C3.08113 1.95801 4.38731 1.95801 6.99967 1.95801C9.61202 1.95801 10.9182 1.95801 11.7298 2.76956C12.5413 3.58113 12.5413 4.88731 12.5413 7.49967C12.5413 10.112 12.5413 11.4182 11.7298 12.2298C10.9182 13.0413 9.61202 13.0413 6.99967 13.0413C4.38731 13.0413 3.08113 13.0413 2.26956 12.2298C1.45801 11.4182 1.45801 10.112 1.45801 7.49967Z" stroke="#8E8E93" stroke-width="1.5" stroke-linejoin="round"/>
<path d="M5.25 5.75033L7.58339 8.08343M9.33333 5.16699L6.41667 8.08366" stroke="#8E8E93" stroke-width="1.5" stroke-linecap="round" stroke-linejoin="round"/>
</svg>
