<svg width="589" height="227" viewBox="0 0 589 227" fill="none" xmlns="http://www.w3.org/2000/svg">
<g clip-path="url(#clip0_6796_23829)">
<rect width="589" height="227" rx="32" fill="#FF8B63"/>
<path d="M37.9668 43.1641V42.6172C37.9668 40.2279 38.6471 38.444 40.0078 37.2656C41.3685 36.0807 43.123 35.4883 45.2715 35.4883C47.2572 35.4883 48.8392 35.9082 50.0176 36.748C51.196 37.5814 51.847 38.8216 51.9707 40.4688L51.9902 40.6738H49.2461L49.2363 40.459C49.1452 39.4759 48.7578 38.7533 48.0742 38.291C47.3971 37.8223 46.4531 37.5879 45.2422 37.5879C43.901 37.5879 42.8171 37.985 41.9902 38.7793C41.1699 39.5736 40.7598 40.791 40.7598 42.4316V43.3496C40.7598 45.0618 41.1699 46.2988 41.9902 47.0605C42.8171 47.8223 43.901 48.2031 45.2422 48.2031C46.5964 48.2031 47.5794 47.9395 48.1914 47.4121C48.8034 46.8783 49.1517 46.1816 49.2363 45.3223L49.2461 45.1172H51.9902L51.9805 45.332C51.8698 46.8555 51.2448 48.0632 50.1055 48.9551C48.9727 49.847 47.3646 50.293 45.2812 50.293C43.1198 50.293 41.3587 49.7135 39.998 48.5547C38.6439 47.3893 37.9668 45.5924 37.9668 43.1641ZM52.6152 37.8906V35.7812H65.6914V37.8906H60.5156V50H57.8008V37.8906H52.6152ZM67.5371 50V35.7812H73.7383C75.5677 35.7812 76.9674 36.1719 77.9375 36.9531C78.9141 37.7344 79.4023 38.877 79.4023 40.3809C79.4023 41.8522 78.9173 42.9948 77.9473 43.8086C76.9772 44.6224 75.571 45.0163 73.7285 44.9902H70.252V50H67.5371ZM70.252 42.9785H73.4941C74.666 42.9785 75.4928 42.7539 75.9746 42.3047C76.4564 41.849 76.6973 41.2109 76.6973 40.3906C76.6973 39.5638 76.4564 38.9323 75.9746 38.4961C75.4928 38.0534 74.666 37.832 73.4941 37.832H70.252V42.9785ZM80.8574 43.1445V42.6074C80.8574 40.2376 81.5475 38.4603 82.9277 37.2754C84.3079 36.084 86.0723 35.4883 88.2207 35.4883C90.3626 35.4883 92.127 36.084 93.5137 37.2754C94.9069 38.4603 95.6035 40.2376 95.6035 42.6074V43.1445C95.6035 45.5339 94.9069 47.3242 93.5137 48.5156C92.127 49.7005 90.3626 50.293 88.2207 50.293C86.0723 50.293 84.3079 49.7005 82.9277 48.5156C81.5475 47.3242 80.8574 45.5339 80.8574 43.1445ZM83.6406 43.3105C83.6406 44.9902 84.0573 46.2272 84.8906 47.0215C85.7305 47.8092 86.8405 48.2031 88.2207 48.2031C89.6009 48.2031 90.7142 47.8092 91.5605 47.0215C92.4069 46.2272 92.8301 44.9902 92.8301 43.3105V42.4609C92.8301 40.7812 92.4069 39.5508 91.5605 38.7695C90.7207 37.9818 89.6074 37.5879 88.2207 37.5879C86.8405 37.5879 85.7305 37.9818 84.8906 38.7695C84.0573 39.5508 83.6406 40.778 83.6406 42.4512V43.3105ZM111.473 50H108.816V40.4785C108.816 40.2702 108.82 40.0423 108.826 39.7949C108.833 39.541 108.842 39.3132 108.855 39.1113H108.738C108.641 39.3066 108.543 39.4987 108.445 39.6875C108.354 39.8763 108.224 40.0814 108.055 40.3027L101.053 50H98.1816V35.7812H100.848V45.293C100.848 45.4948 100.841 45.7194 100.828 45.9668C100.822 46.2142 100.815 46.4421 100.809 46.6504H100.945C101.017 46.4876 101.105 46.3021 101.209 46.0938C101.32 45.8854 101.447 45.6803 101.59 45.4785L108.602 35.7812H111.473V50ZM113.318 37.8906V35.7812H126.395V37.8906H121.219V50H118.504V37.8906H113.318ZM128.24 50V35.7812H139.051V37.8809H130.926V41.6699H138.055V43.7109H130.926V47.9102H139.168V50H128.24ZM143.123 35.7812H154.539V50H151.834V37.8711H145.408L145.047 44.5898C144.956 46.4518 144.653 47.8646 144.139 48.8281C143.624 49.7917 142.648 50.2734 141.209 50.2734C140.988 50.2734 140.776 50.2572 140.574 50.2246C140.372 50.1986 140.174 50.1497 139.979 50.0781V47.7734C140.128 47.8255 140.268 47.8613 140.398 47.8809C140.535 47.9004 140.675 47.9102 140.818 47.9102C141.463 47.9102 141.915 47.6367 142.176 47.0898C142.436 46.543 142.602 45.5924 142.674 44.2383L143.123 35.7812ZM157.85 35.7812H160.564V40.918H164.49C166.248 40.918 167.55 41.3411 168.396 42.1875C169.243 43.0339 169.666 44.1211 169.666 45.4492C169.666 46.8555 169.243 47.9655 168.396 48.7793C167.55 49.5931 166.248 50 164.49 50H157.85V35.7812ZM160.564 42.9688V47.9492H164.295C165.258 47.9492 165.942 47.7311 166.346 47.2949C166.749 46.8522 166.951 46.237 166.951 45.4492C166.951 44.7396 166.749 44.1504 166.346 43.6816C165.942 43.2064 165.258 42.9688 164.295 42.9688H160.564ZM171.814 50V35.7812H174.529V41.6113H182.264V35.7812H184.969V50H182.264V43.7207H174.529V50H171.814ZM188.201 35.7812H190.916V40.918H194.842C196.6 40.918 197.902 41.3411 198.748 42.1875C199.594 43.0339 200.018 44.1211 200.018 45.4492C200.018 46.8555 199.594 47.9655 198.748 48.7793C197.902 49.5931 196.6 50 194.842 50H188.201V35.7812ZM190.916 42.9688V47.9492H194.646C195.61 47.9492 196.294 47.7311 196.697 47.2949C197.101 46.8522 197.303 46.237 197.303 45.4492C197.303 44.7396 197.101 44.1504 196.697 43.6816C196.294 43.2064 195.61 42.9688 194.646 42.9688H190.916ZM201.814 50H204.549V35.7812H201.814V50ZM207.771 50V35.7812H218.582V37.8809H210.457V41.6699H217.586V43.7109H210.457V47.9102H218.699V50H207.771ZM38.6113 73V58.7812H41.8242L46.5996 69.0352C46.6973 69.2435 46.7949 69.4551 46.8926 69.6699C46.9902 69.8783 47.0651 70.0573 47.1172 70.207H47.1758C47.2279 70.0573 47.2962 69.8783 47.3809 69.6699C47.4655 69.4551 47.5534 69.2435 47.6445 69.0352L52.4785 58.7812H55.7598V73H53.084L53.0938 63.3516C53.0938 63.1497 53.1003 62.9349 53.1133 62.707C53.1263 62.4727 53.1393 62.2578 53.1523 62.0625H53.084C53.0384 62.2578 52.9798 62.4727 52.9082 62.707C52.8431 62.9349 52.765 63.1497 52.6738 63.3516L48.1621 73H45.8574L41.3652 63.3516C41.2676 63.1562 41.1829 62.9447 41.1113 62.7168C41.0397 62.4824 40.9811 62.2643 40.9355 62.0625H40.8672C40.8802 62.2643 40.8932 62.4824 40.9062 62.7168C40.9258 62.9447 40.9355 63.1595 40.9355 63.3613V73H38.6113ZM57.2246 73L63.4062 58.7129H66.0723L72.2637 73H69.3145L65.2031 62.9219C65.0794 62.6289 64.9753 62.349 64.8906 62.082C64.806 61.8086 64.7279 61.5482 64.6562 61.3008H64.5586C64.4805 61.5482 64.3991 61.8086 64.3145 62.082C64.2298 62.3555 64.1289 62.6354 64.0117 62.9219L59.8711 73H57.2246ZM60.0859 69.6699L60.8477 67.6484H68.5039L69.2656 69.6699H60.0859ZM72.3613 60.8906V58.7812H85.4375V60.8906H80.2617V73H77.5469V60.8906H72.3613ZM87.2832 73V58.7812H98.0938V60.8809H89.9688V64.6699H97.0977V66.7109H89.9688V70.9102H98.2109V73H87.2832ZM100.506 73V58.7812H106.707C108.536 58.7812 109.936 59.1719 110.906 59.9531C111.883 60.7344 112.371 61.877 112.371 63.3809C112.371 64.8522 111.886 65.9948 110.916 66.8086C109.946 67.6224 108.54 68.0163 106.697 67.9902H103.221V73H100.506ZM103.221 65.9785H106.463C107.635 65.9785 108.462 65.7539 108.943 65.3047C109.425 64.849 109.666 64.2109 109.666 63.3906C109.666 62.5638 109.425 61.9323 108.943 61.4961C108.462 61.0534 107.635 60.832 106.463 60.832H103.221V65.9785ZM127.762 73H125.105V63.4785C125.105 63.2702 125.109 63.0423 125.115 62.7949C125.122 62.541 125.132 62.3132 125.145 62.1113H125.027C124.93 62.3066 124.832 62.4987 124.734 62.6875C124.643 62.8763 124.513 63.0814 124.344 63.3027L117.342 73H114.471V58.7812H117.137V68.293C117.137 68.4948 117.13 68.7194 117.117 68.9668C117.111 69.2142 117.104 69.4421 117.098 69.6504H117.234C117.306 69.4876 117.394 69.3021 117.498 69.0938C117.609 68.8854 117.736 68.6803 117.879 68.4785L124.891 58.7812H127.762V73ZM129.236 73L135.418 58.7129H138.084L144.275 73H141.326L137.215 62.9219C137.091 62.6289 136.987 62.349 136.902 62.082C136.818 61.8086 136.74 61.5482 136.668 61.3008H136.57C136.492 61.5482 136.411 61.8086 136.326 62.082C136.242 62.3555 136.141 62.6354 136.023 62.9219L131.883 73H129.236ZM132.098 69.6699L132.859 67.6484H140.516L141.277 69.6699H132.098ZM147.42 58.7812H158.836V73H156.131V60.8711H149.705L149.344 67.5898C149.253 69.4518 148.95 70.8646 148.436 71.8281C147.921 72.7917 146.945 73.2734 145.506 73.2734C145.285 73.2734 145.073 73.2572 144.871 73.2246C144.669 73.1986 144.471 73.1497 144.275 73.0781V70.7734C144.425 70.8255 144.565 70.8613 144.695 70.8809C144.832 70.9004 144.972 70.9102 145.115 70.9102C145.76 70.9102 146.212 70.6367 146.473 70.0898C146.733 69.543 146.899 68.5924 146.971 67.2383L147.42 58.7812ZM162.146 58.7812H164.861V63.918H168.787C170.545 63.918 171.847 64.3411 172.693 65.1875C173.54 66.0339 173.963 67.1211 173.963 68.4492C173.963 69.8555 173.54 70.9655 172.693 71.7793C171.847 72.5931 170.545 73 168.787 73H162.146V58.7812ZM164.861 65.9688V70.9492H168.592C169.555 70.9492 170.239 70.7311 170.643 70.2949C171.046 69.8522 171.248 69.237 171.248 68.4492C171.248 67.7396 171.046 67.1504 170.643 66.6816C170.239 66.2064 169.555 65.9688 168.592 65.9688H164.861ZM175.76 73H178.494V58.7812H175.76V73Z" fill="white"/>
<g clip-path="url(#clip1_6796_23829)">
<path d="M317.052 151.828H317.045V139.639H317.052C317.521 139.639 317.902 139.258 317.902 138.789C317.902 138.32 317.521 137.939 317.052 137.939H317.045V131.521H287.962V137.932H287.955C287.486 137.932 287.105 138.313 287.105 138.782C287.105 139.251 287.486 139.632 287.955 139.632H287.962V151.821H287.955C287.486 151.821 287.105 152.202 287.105 152.671C287.105 153.14 287.486 153.521 287.955 153.521H287.962V158.986H317.045V153.521H317.052C317.521 153.521 317.902 153.14 317.902 152.671C317.902 152.202 317.521 151.821 317.052 151.821V151.828Z" fill="#FF8B63" stroke="#262626" stroke-miterlimit="10"/>
<path d="M315.196 139.639H311.456" stroke="#262626" stroke-miterlimit="10"/>
<path d="M316.875 153.527H310.511" stroke="#262626" stroke-miterlimit="10"/>
<path d="M309.729 153.527H307.934" stroke="#262626" stroke-miterlimit="10"/>
<path d="M288.146 128.34H316.862C317.44 128.34 317.909 128.809 317.909 129.387V131.528H287.105V129.387C287.105 128.809 287.575 128.34 288.153 128.34H288.146Z" fill="#FF8B63" stroke="#262626" stroke-miterlimit="10"/>
<path d="M303.901 135.56L318.963 147.45C319.555 147.919 319.221 148.871 318.467 148.871H317.018" stroke="#262626" stroke-miterlimit="10"/>
<path d="M304.248 137.171C304.905 137.171 305.438 136.638 305.438 135.981C305.438 135.324 304.905 134.791 304.248 134.791C303.59 134.791 303.058 135.324 303.058 135.981C303.058 136.638 303.59 137.171 304.248 137.171Z" stroke="#262626" stroke-miterlimit="10"/>
<path d="M324.451 182.488H324.444V170.299H324.451C324.92 170.299 325.301 169.918 325.301 169.449C325.301 168.98 324.92 168.599 324.451 168.599H324.444V162.188H295.361V168.599H295.354C294.885 168.599 294.504 168.98 294.504 169.449C294.504 169.918 294.885 170.299 295.354 170.299H295.361V182.488H295.354C294.885 182.488 294.504 182.869 294.504 183.338C294.504 183.807 294.885 184.187 295.354 184.187H295.361V189.653H324.444V184.187H324.451C324.92 184.187 325.301 183.807 325.301 183.338C325.301 182.869 324.92 182.488 324.451 182.488Z" fill="#FF8B63" stroke="#262626" stroke-miterlimit="10"/>
<path d="M322.594 170.292H318.848" stroke="#262626" stroke-miterlimit="10"/>
<path d="M324.274 184.188H317.909" stroke="#262626" stroke-miterlimit="10"/>
<path d="M317.12 184.188H315.325" stroke="#262626" stroke-miterlimit="10"/>
<path d="M295.544 159H324.26C324.838 159 325.307 159.469 325.307 160.047V162.188H294.497V160.047C294.497 159.469 294.966 159 295.544 159Z" fill="#FF8B63" stroke="#262626" stroke-miterlimit="10"/>
<path d="M311.293 166.213L326.355 178.103C326.946 178.572 326.613 179.524 325.858 179.524H324.41" stroke="#262626" stroke-miterlimit="10"/>
<path d="M311.639 167.831C312.296 167.831 312.829 167.298 312.829 166.641C312.829 165.984 312.296 165.452 311.639 165.452C310.982 165.452 310.449 165.984 310.449 166.641C310.449 167.298 310.982 167.831 311.639 167.831Z" stroke="#262626" stroke-miterlimit="10"/>
<path d="M292.286 182.488H292.28V170.299H292.286C292.756 170.299 293.136 169.918 293.136 169.449C293.136 168.98 292.756 168.599 292.286 168.599H292.28V162.188H263.197V168.599H263.19C262.721 168.599 262.34 168.98 262.34 169.449C262.34 169.918 262.721 170.299 263.19 170.299H263.197V182.488H263.19C262.721 182.488 262.34 182.869 262.34 183.338C262.34 183.807 262.721 184.187 263.19 184.187H263.197V189.653H292.28V184.187H292.286C292.756 184.187 293.136 183.807 293.136 183.338C293.136 182.869 292.756 182.488 292.286 182.488Z" fill="#FF8B63" stroke="#262626" stroke-miterlimit="10"/>
<path d="M290.43 170.292H286.69" stroke="#262626" stroke-miterlimit="10"/>
<path d="M292.117 184.188H285.745" stroke="#262626" stroke-miterlimit="10"/>
<path d="M284.963 184.188H283.168" stroke="#262626" stroke-miterlimit="10"/>
<path d="M263.387 159H292.096C292.674 159 293.143 159.469 293.143 160.047V162.188H262.34V160.047C262.34 159.469 262.809 159 263.387 159Z" fill="#FF8B63" stroke="#262626" stroke-miterlimit="10"/>
<path d="M279.136 166.213L294.197 178.103C294.789 178.572 294.456 179.524 293.701 179.524H292.253" stroke="#262626" stroke-miterlimit="10"/>
<path d="M279.482 167.831C280.139 167.831 280.672 167.298 280.672 166.641C280.672 165.984 280.139 165.452 279.482 165.452C278.825 165.452 278.292 165.984 278.292 166.641C278.292 167.298 278.825 167.831 279.482 167.831Z" stroke="#262626" stroke-miterlimit="10"/>
</g>
<g clip-path="url(#clip2_6796_23829)">
<path d="M444.096 217.662H173.493V227.4H444.096V217.662Z" fill="white" stroke="#262626" stroke-miterlimit="10"/>
<path d="M414.287 207.552H143.685V217.29H414.287V207.552Z" fill="white" stroke="#262626" stroke-miterlimit="10"/>
<path d="M449.192 197.935H178.589V207.673H449.192V197.935Z" fill="white" stroke="#262626" stroke-miterlimit="10"/>
<path d="M455.315 188.38H184.712V198.118H455.315V188.38Z" fill="white" stroke="#262626" stroke-miterlimit="10"/>
</g>
<g clip-path="url(#clip3_6796_23829)">
<path d="M579.25 141.874C596.021 141.874 609.616 130.031 609.616 115.422C609.616 100.813 596.021 88.9697 579.25 88.9697C562.478 88.9697 548.883 100.813 548.883 115.422C548.883 130.031 562.478 141.874 579.25 141.874Z" fill="#231F20" stroke="#231F20" stroke-miterlimit="10" stroke-linecap="round"/>
<path d="M534.936 85.0923C532.054 85.0923 528.425 84.0106 524.746 81.8777C521.724 80.1257 519.172 77.928 517.561 75.6922C515.68 73.087 515.232 70.6304 516.302 68.7717C517.367 66.9168 519.711 66.075 522.9 66.4064C525.638 66.6921 528.808 67.8119 531.826 69.5639C538.659 73.525 542.288 79.162 540.271 82.6699C539.338 84.2925 537.412 85.0923 534.936 85.0923ZM521.599 69.5753C520.332 69.5753 519.388 69.8686 519.093 70.3904C518.721 71.0341 519.146 72.3672 520.169 73.7916C521.504 75.6427 523.761 77.5661 526.358 79.0744C531.97 82.3271 536.691 82.4185 537.476 81.055C538.261 79.6876 535.819 75.6275 530.211 72.371C527.613 70.8627 524.826 69.8648 522.562 69.6286C522.225 69.5944 521.902 69.5753 521.599 69.5753Z" fill="#231F20"/>
<path d="M528.97 74.0677L528.967 74.0662C526.279 72.8576 523.125 74.0661 521.922 76.7654L516.836 88.1744C515.633 90.8738 516.836 94.0418 519.523 95.2504L519.527 95.252C522.214 96.4606 525.368 95.2521 526.572 92.5528L531.658 81.1437C532.861 78.4444 531.658 75.2764 528.97 74.0677Z" fill="#231F20"/>
<path d="M623.264 121.089H542.763C541.098 121.089 539.748 122.445 539.748 124.117V140.194C539.748 141.866 541.098 143.222 542.763 143.222H623.264C624.929 143.222 626.279 141.866 626.279 140.194V124.117C626.279 122.445 624.929 121.089 623.264 121.089Z" fill="#231F20"/>
<path d="M527.386 78.983L534.819 83.8811C535.52 84.3458 535.869 85.1951 535.691 86.0178L534.307 92.4547C534.053 93.6278 532.854 94.3286 531.717 93.9706L531.391 93.8677C530.355 93.544 529.248 94.0924 528.876 95.117L523.09 111.099L513.686 108.669L527.39 78.9792L527.386 78.983Z" fill="#231F20"/>
<path d="M516.442 78.983H527.386L515.563 111.914L501.589 111.103L515.21 79.7943C515.422 79.303 515.908 78.983 516.442 78.983Z" fill="#231F20"/>
<path d="M467.237 163.732L458.784 162.136L461.844 145.801C469.03 107.431 479.235 69.3087 492.169 32.493L494.797 25.0087C497.182 18.2215 503.599 13.6624 510.762 13.6624H568.23V121.142H559.63V22.3007H510.762C507.235 22.3007 504.076 24.5441 502.905 27.8844L500.277 35.3686C487.486 71.7692 477.399 109.461 470.293 147.4L467.233 163.736L467.237 163.732Z" fill="#231F20"/>
<path d="M592.17 80.0609C592.284 75.0714 591.806 70.5694 591.081 66.6882C591.294 66.6654 591.741 66.5892 592.2 66.2616C592.477 66.0636 592.67 65.8389 592.799 65.6484C592.913 65.477 592.966 65.2752 592.955 65.0695C592.905 64.0449 592.856 63.0242 592.807 61.9958C592.788 61.6416 592.587 61.3178 592.272 61.1502C591.423 60.6932 590.456 60.2514 589.375 59.8781L589.436 59.7791C589.549 58.0118 589.637 56.1912 589.694 54.3173C589.701 53.9974 589.709 53.6774 589.72 53.3575C589.788 50.2952 589.762 47.3586 589.663 44.563L589.671 44.4563L591.794 44.5554L591.847 43.4051L591.942 41.4436C592.246 34.9801 587.278 29.4916 580.843 29.1869C576.82 28.9965 573.175 30.878 570.934 33.8908C569.592 35.6999 568.75 37.9167 568.636 40.3352C568.587 41.4207 567.669 42.2549 566.589 42.2054L566.027 42.1787L565.971 43.3289L568.488 43.4508L570.912 43.5651C569.615 49.6477 571.662 54.8239 575.075 56.2103C575.477 56.374 576.198 56.6064 577.233 56.5949L577.119 59.6077C575.879 59.9429 574.863 60.3276 574.139 60.6323C573.558 61.7216 572.974 62.8071 572.394 63.8964C569.16 65.5837 565.606 68.2498 562.061 71.7539C561.632 71.6206 561.318 71.6701 561.139 71.7234C560.635 71.8682 560.214 72.3062 559.96 72.927C558.841 72.9689 557.692 72.9841 556.517 72.9651C550.503 72.8775 545.099 71.971 540.439 70.7446C540.2 70.417 539.972 70.3104 539.786 70.2951C539.419 70.2647 538.998 70.577 538.611 71.0988L538.535 71.0379C538.103 70.7865 537.496 70.4932 536.73 70.2951C536.127 70.139 535.585 70.0857 535.156 70.0742C535.073 69.9828 534.258 69.0878 533.458 69.3011C533.382 69.3201 533.215 69.3696 533.082 69.5143C532.809 69.8229 532.851 70.4056 533.188 70.9883C532.76 70.9883 530.568 70.9883 530.109 72.0586C530.083 72.1157 529.874 72.6337 530.132 73.0641C530.246 73.2584 530.416 73.365 530.526 73.4222C529.707 73.5326 529.108 73.8221 528.881 74.2944C528.854 74.3515 528.695 74.6752 528.808 75.0142C528.964 75.4827 529.59 75.7988 530.45 75.8445V75.8674C529.798 75.8522 529.294 76.0807 529.157 76.3702C529.051 76.5987 529.07 76.8196 529.07 76.8196C529.07 76.8196 529.085 76.9796 529.161 77.1357C529.256 77.3262 529.571 77.4937 530.011 77.5813C529.392 77.6347 528.915 77.9127 528.79 78.3126C528.733 78.4916 528.748 78.6897 528.808 78.823C529.184 79.6495 531.721 79.2001 531.846 79.181C532.908 79.3448 533.833 79.3524 534.55 79.3181C534.997 79.2953 535.824 79.2305 536.836 79.002C537.587 78.8344 538.228 78.625 538.74 78.4231C538.998 78.5945 539.237 78.6897 539.407 78.7392C539.43 78.9068 539.453 79.0706 539.476 79.2229C540.643 79.7828 542.414 80.5903 544.621 81.432C549.543 83.306 556.35 85.8959 563.316 86.1816L563.422 87.3471L552.076 102.616C551.693 103.199 551.31 103.782 550.924 104.365C551.853 104.692 552.778 105.02 553.703 105.344C550.772 110.291 547.731 115.304 544.58 120.373C541.804 124.829 539.032 129.19 536.267 133.452C535.873 133.578 535.646 133.776 535.513 133.929C535.081 134.431 534.997 135.235 535.259 136.122C534.641 137.116 533.988 138.114 533.298 139.127C529.95 144.014 526.359 148.112 522.844 151.537C522.726 151.441 522.267 151.099 521.763 151.22C521.763 151.22 521.331 151.327 521.001 151.898C520.785 152.279 520.845 152.942 521.054 153.711H521.05C520.553 154.035 520.06 154.355 519.567 154.675C519.192 154.385 517.326 152.999 515.146 153.521C514.619 153.647 514.175 153.86 513.819 154.085C513.064 155.113 512.309 156.141 511.555 157.17C512.469 157.84 513.379 158.518 514.289 159.188C521.277 164.395 528.266 169.598 535.255 174.801C535.646 174.107 536.036 173.414 536.427 172.721C536.65 172.824 536.878 172.923 537.121 173.014C541.629 167.69 546.237 161.283 550.362 153.692C551.383 151.822 552.319 149.975 553.18 148.158C553.745 147.914 554.173 147.499 554.363 146.981C554.56 146.444 554.447 145.93 554.359 145.66C555.978 141.367 557.643 137.817 558.974 135.201L565.239 124.498C565.652 124.258 566.111 123.93 566.558 123.489C567.226 122.83 567.631 122.156 567.87 121.676C568.902 121.245 569.983 120.659 571.052 119.874C574.249 117.524 575.697 114.58 576.262 113.235V113.228C577.957 113.818 579.652 114.405 581.347 114.991C585.53 108.33 591.802 96.0844 592.17 80.0571V80.0609Z" fill="#231F20" stroke="#231F20" stroke-miterlimit="10" stroke-linecap="round"/>
<path d="M553.661 206.193C553.661 204.345 553.471 202.563 553.126 200.876C551.564 191.628 545.69 184.749 538.675 184.749H530.537C529.339 184.749 528.174 184.943 527.056 185.305C528.027 184.319 529.111 183.393 530.336 182.559C536.001 178.701 541.913 178.32 544.738 178.339C546.49 175.322 548.242 172.302 549.998 169.285C550.221 168.901 550.339 168.459 550.339 168.013V123.805C550.339 122.411 549.213 121.28 547.825 121.28H538.026C536.638 121.28 535.512 122.411 535.512 123.805V125.858C535.512 126.418 535.326 126.962 534.985 127.404C532.02 131.24 529.058 135.075 526.093 138.907L480.622 179.744H467.676L467.327 174.523L464.828 167.492L456.027 159.657L445.625 157.196H412.972V158.274L419.07 167.796C411.311 172.656 405.915 183.416 405.915 195.92C405.915 212.98 415.956 226.81 428.341 226.81H440.298C447.578 226.81 454.017 221.763 457.984 214.012C459.136 211.967 460.092 209.689 460.809 207.232L469.496 207.091H515.293C515.786 218.095 522.418 226.81 530.529 226.81H538.667C543.623 226.81 548.007 223.374 550.707 218.099C552.546 214.831 553.649 210.698 553.649 206.196L553.661 206.193Z" fill="#231F20"/>
<path d="M604.285 150.417H538.993V183.565H604.285V150.417Z" fill="#FF8B63" stroke="#231F20" stroke-miterlimit="10"/>
<path d="M593.447 128.215H463.566C461.637 128.215 460.073 129.786 460.073 131.723V146.909C460.073 148.846 461.637 150.417 463.566 150.417H593.447C595.376 150.417 596.94 148.846 596.94 146.909V131.723C596.94 129.786 595.376 128.215 593.447 128.215Z" fill="#231F20" stroke="#231F20" stroke-miterlimit="10"/>
<path d="M447.533 132.725H539.593C540.988 132.725 542.118 133.864 542.118 135.262V162.079H447.533V132.725Z" fill="white" stroke="#231F20" stroke-miterlimit="10"/>
<path d="M473.27 131.681H466.281C465.504 131.681 464.878 131.049 464.878 130.272V115.547C464.878 115.113 465.079 114.698 465.42 114.431L474.222 107.576C474.658 107.237 475.249 107.183 475.735 107.442H538.993L535.016 131.681H473.27Z" fill="white" stroke="#231F20" stroke-miterlimit="10"/>
<path d="M536.009 131.27L541.602 125.652C541.864 125.389 542.012 125.027 542.012 124.654V110.687C542.012 110.162 541.724 109.682 541.261 109.438L537.477 107.442C536.991 107.187 536.396 107.237 535.964 107.576L527.162 114.431C526.821 114.698 526.62 115.109 526.62 115.547V130.272C526.62 131.053 527.25 131.681 528.023 131.681H535.012C535.384 131.681 535.74 131.533 536.005 131.27H536.009Z" fill="white" stroke="#231F20" stroke-miterlimit="10"/>
<path d="M471.336 114.957H526.62" stroke="#231F20" stroke-miterlimit="10"/>
<path d="M471.226 16.3627H468.537V46.8635H471.226V16.3627Z" fill="#FF8B63" stroke="#231F20" stroke-miterlimit="10"/>
<path d="M471.491 11.1904H456.175V16.3171H471.491V11.1904Z" fill="#FF8B63" stroke="#231F20" stroke-miterlimit="10"/>
<path d="M470.953 41.7369H455.637V46.8635H470.953V41.7369Z" fill="#FF8B63" stroke="#231F20" stroke-miterlimit="10"/>
<path d="M470.149 28.509H466.387L465.311 16.0961H472.569L470.149 28.509Z" fill="#FF8B63" stroke="#231F20" stroke-miterlimit="10"/>
<path d="M468.268 20.9523H465.849C463.919 20.9523 462.356 22.9481 462.356 25.4048C462.356 27.8615 463.919 29.8573 465.849 29.8573H468.268C470.198 29.8573 471.761 27.8615 471.761 25.4048C471.761 22.9481 470.198 20.9523 468.268 20.9523Z" fill="#FF8B63" stroke="#231F20" stroke-miterlimit="10"/>
<path d="M468.939 28.7794C470.051 28.7794 470.953 27.3299 470.953 25.5419C470.953 23.7539 470.051 22.3044 468.939 22.3044C467.827 22.3044 466.926 23.7539 466.926 25.5419C466.926 27.3299 467.827 28.7794 468.939 28.7794Z" fill="#FF8B63" stroke="#231F20" stroke-miterlimit="10"/>
<path d="M465.041 122.441H462.891V26.0828C462.891 23.1081 465.302 20.6857 468.264 20.6857V20.9562C466.485 20.9562 465.041 22.4073 465.041 24.1936V122.441Z" fill="white" stroke="#231F20" stroke-miterlimit="10"/>
<path d="M493.527 15.2849H458.325V17.9853H493.527V15.2849Z" fill="#FF8B63" stroke="#231F20" stroke-miterlimit="10"/>
<path d="M500.709 11.1904H479.637V191.948H500.709V11.1904Z" fill="#FF8B63" stroke="#231F20" stroke-miterlimit="10"/>
<path d="M497.558 11.1904H486.944V191.948H497.558V11.1904Z" fill="white" stroke="#231F20" stroke-miterlimit="10"/>
<path d="M481.935 11.1904V191.948" stroke="#231F20" stroke-miterlimit="10"/>
<path d="M484.733 11.1904V32.1349C484.733 33.3842 483.724 34.3935 482.484 34.3935H481.935" stroke="#231F20" stroke-miterlimit="10"/>
<path d="M484.733 12.7977C484.529 12.9196 483.08 13.8299 482.834 15.6086C482.625 17.1207 483.368 18.6594 484.733 19.5279" stroke="#231F20" stroke-miterlimit="10"/>
<path d="M462.955 11.1904H441.883V191.948H462.955V11.1904Z" fill="#FF8B63" stroke="#231F20" stroke-miterlimit="10"/>
<path d="M459.668 11.1904H449.19V191.948H459.668V11.1904Z" fill="white" stroke="#231F20" stroke-miterlimit="10"/>
<path d="M446.979 11.1904V191.948" stroke="#231F20" stroke-miterlimit="10"/>
<path d="M444.177 11.1904V32.1349C444.177 33.3842 445.185 34.3935 446.425 34.3935H446.975" stroke="#231F20" stroke-miterlimit="10"/>
<path d="M446.935 19.5278C446.73 19.406 445.281 18.4957 445.035 16.7169C444.826 15.2049 445.569 13.6661 446.935 12.7977" stroke="#231F20" stroke-miterlimit="10"/>
<path d="M504.816 13.6661H502.127V46.8673H504.816V13.6661Z" fill="#FF8B63" stroke="#231F20" stroke-miterlimit="10"/>
<path d="M504.812 11.1904H489.496V16.3171H504.812V11.1904Z" fill="#FF8B63" stroke="#231F20" stroke-miterlimit="10"/>
<path d="M504.812 41.7369H489.496V46.8635H504.812V41.7369Z" fill="#FF8B63" stroke="#231F20" stroke-miterlimit="10"/>
<path d="M624 128.215H565.694C563.765 128.215 562.201 129.786 562.201 131.723V146.909C562.201 148.846 563.765 150.417 565.694 150.417H624C625.929 150.417 627.493 148.846 627.493 146.909V131.723C627.493 129.786 625.929 128.215 624 128.215Z" fill="#FF8B63" stroke="#231F20" stroke-miterlimit="10"/>
<path d="M529.392 163.873L520.939 162.277L524 145.941C531.186 107.572 541.39 69.4496 554.325 32.6339L556.953 25.1497C559.338 18.3624 565.754 13.8033 572.917 13.8033H630.385V121.28H621.785V22.4416H572.917C569.39 22.4416 566.232 24.685 565.06 28.0253L562.432 35.5095C549.641 71.9101 539.555 109.602 532.448 147.541L529.388 163.877L529.392 163.873Z" fill="#231F20"/>
<path d="M535.584 72.6626L529.134 75.6314L530.477 78.5746L536.927 75.6058L535.584 72.6626Z" fill="#231F20"/>
<path d="M519.013 72.1618L517.485 75.0123L524.473 78.7917L526.002 75.9411L519.013 72.1618Z" fill="#231F20"/>
<path d="M604.782 13.6661H546.198V21.4932H604.782V13.6661Z" fill="#231F20"/>
<path d="M495.876 83.5903H430.872C428.442 83.5903 426.474 85.5708 426.474 88.0085V174.418H500.282V88.0085C500.282 85.567 498.31 83.5903 495.883 83.5903H495.876ZM432.916 111.718H493.824V135.752H432.92V111.718H432.916ZM476.172 109.231V90.069H483.972V109.231H476.172ZM471.872 109.231H464.273V90.069H471.872V109.231ZM459.772 109.231H452.37V90.069H459.772V109.231ZM448.069 109.231H440.47V90.069H448.069V109.231ZM493.824 109.231H488.072V90.069H493.824V109.231ZM436.071 90.069V109.231H432.913V90.069H436.071ZM432.913 167.943V142.227H493.82V167.943H432.92H432.913Z" fill="#FF8B63" stroke="#231F20" stroke-miterlimit="10"/>
<path d="M492.277 83.5903H427.27C424.839 83.5903 422.871 85.5708 422.871 88.0085V174.418H496.679V88.0085C496.679 85.567 494.708 83.5903 492.281 83.5903H492.277ZM429.318 111.718H490.225V135.752H429.318V111.718ZM472.573 109.231V90.069H483.237V109.231H472.573ZM471.337 109.231H460.674V90.069H471.337V109.231ZM459.438 109.231H448.775V90.069H459.438V109.231ZM447.538 109.231H436.875V90.069H447.538V109.231ZM490.229 109.231H484.477V90.069H490.229V109.231ZM435.635 90.069V109.231H429.321V90.069H435.635ZM429.321 167.943V142.227H490.229V167.943H429.318H429.321Z" fill="#231F20"/>
<path d="M351.103 183.297H345.191V189.235H351.103V183.297Z" fill="#FF8B63" stroke="#231F20" stroke-miterlimit="10"/>
<path d="M418.552 183.297H350.834V189.235H418.552V183.297Z" fill="#FF8B63" stroke="#231F20" stroke-miterlimit="10"/>
<path d="M433.819 129.315H442.199L441.93 184.691C441.93 186.443 363.954 185.456 363.954 185.456L364 182.219L430.304 183.415C432.116 183.35 433.557 181.857 433.565 180.033L433.819 129.311V129.315Z" fill="#F4F3F1" stroke="#231F20" stroke-miterlimit="10"/>
<path d="M440.588 129.315H445.157L448.381 135.523H444.888V184.691C444.888 186.443 443.451 187.852 441.707 187.81L368.569 185.456V183.567L437.073 183.415C438.885 183.35 440.326 181.857 440.334 180.033L440.588 129.311V129.315Z" fill="#F4F3F1" stroke="#231F20" stroke-miterlimit="10"/>
<path d="M384.159 183.297H378.247V189.235H384.159V183.297Z" fill="#FF8B63" stroke="#231F20" stroke-miterlimit="10"/>
<path d="M451.608 183.297H383.89V189.235H451.608V183.297Z" fill="#FF8B63" stroke="#231F20" stroke-miterlimit="10"/>
<path d="M466.332 129.315H474.713L474.443 184.691C474.443 186.443 398.667 185.727 398.667 185.727V183.567L462.813 183.415C464.626 183.35 466.067 181.857 466.074 180.033L466.328 129.311L466.332 129.315Z" fill="#F4F3F1" stroke="#231F20" stroke-miterlimit="10"/>
<path d="M474.716 129.315H479.285L482.509 135.523H479.016V184.938C479.016 186.553 477.693 187.852 476.085 187.814L403.774 185.727V183.567L471.436 183.407C473.12 183.346 474.454 181.96 474.466 180.269L474.72 129.315H474.716Z" fill="#F4F3F1" stroke="#231F20" stroke-miterlimit="10"/>
<path d="M418.822 183.567H412.91V188.964H418.822V183.567Z" fill="#FF8B63" stroke="#231F20" stroke-miterlimit="10"/>
<path d="M486.271 183.297H418.553V189.235H486.271V183.297Z" fill="#FF8B63" stroke="#231F20" stroke-miterlimit="10"/>
<path d="M486.274 180.33H415.867V183.567H486.274V180.33Z" fill="#FF8B63" stroke="#231F20" stroke-miterlimit="10"/>
<path d="M418.822 180.33H345.191V183.567H418.822V180.33Z" fill="#FF8B63" stroke="#231F20" stroke-miterlimit="10"/>
<path d="M486.274 188.964H415.867V192.202H486.274V188.964Z" fill="#FF8B63" stroke="#231F20" stroke-miterlimit="10"/>
<path d="M418.822 188.964H345.191V192.202H418.822V188.964Z" fill="#FF8B63" stroke="#231F20" stroke-miterlimit="10"/>
<path d="M393.381 90.1757H416.133V82.0058H393.381V90.1757Z" fill="#FF8B63" stroke="#231F20" stroke-miterlimit="10"/>
<path d="M404.757 98.3493H416.133V90.1795H404.757V98.3493Z" fill="#FF8B63" stroke="#231F20" stroke-miterlimit="10"/>
<path d="M393.381 98.3493H404.757V90.1795H393.381V98.3493Z" fill="#FF8B63" stroke="#231F20" stroke-miterlimit="10"/>
<path d="M370.629 90.1757H393.381V82.0058H370.629V90.1757Z" fill="#FF8B63" stroke="#231F20" stroke-miterlimit="10"/>
<path d="M382.005 98.3493H393.381V90.1795H382.005V98.3493Z" fill="#FF8B63" stroke="#231F20" stroke-miterlimit="10"/>
<path d="M370.628 98.3493H382.004V90.1795H370.628V98.3493Z" fill="#FF8B63" stroke="#231F20" stroke-miterlimit="10"/>
<path d="M347.876 90.1757H370.628V82.0058H347.876V90.1757Z" fill="#FF8B63" stroke="#231F20" stroke-miterlimit="10"/>
<path d="M359.252 98.3493H370.628V90.1795H359.252V98.3493Z" fill="#FF8B63" stroke="#231F20" stroke-miterlimit="10"/>
<path d="M347.876 98.3493H359.252V90.1795H347.876V98.3493Z" fill="#FF8B63" stroke="#231F20" stroke-miterlimit="10"/>
<path d="M404.757 82.0782H416.133V73.9083H404.757V82.0782Z" fill="#FF8B63" stroke="#231F20" stroke-miterlimit="10"/>
<path d="M393.381 82.0782H404.757V73.9083H393.381V82.0782Z" fill="#FF8B63" stroke="#231F20" stroke-miterlimit="10"/>
<path d="M382.005 82.0782H393.381V73.9083H382.005V82.0782Z" fill="#FF8B63" stroke="#231F20" stroke-miterlimit="10"/>
<path d="M370.628 82.0782H382.004V73.9083H370.628V82.0782Z" fill="#FF8B63" stroke="#231F20" stroke-miterlimit="10"/>
<path d="M359.252 82.0782H370.628V73.9083H359.252V82.0782Z" fill="#FF8B63" stroke="#231F20" stroke-miterlimit="10"/>
<path d="M347.876 82.0782H359.252V73.9083H347.876V82.0782Z" fill="#FF8B63" stroke="#231F20" stroke-miterlimit="10"/>
<path d="M393.381 106.519H416.133V98.3493H393.381V106.519Z" fill="#FF8B63" stroke="#231F20" stroke-miterlimit="10"/>
<path d="M404.757 114.689H416.133V106.519H404.757V114.689Z" fill="#FF8B63" stroke="#231F20" stroke-miterlimit="10"/>
<path d="M393.381 114.689H404.757V106.519H393.381V114.689Z" fill="#FF8B63" stroke="#231F20" stroke-miterlimit="10"/>
<path d="M370.629 106.519H393.381V98.3493H370.629V106.519Z" fill="#FF8B63" stroke="#231F20" stroke-miterlimit="10"/>
<path d="M382.005 114.689H393.381V106.519H382.005V114.689Z" fill="#FF8B63" stroke="#231F20" stroke-miterlimit="10"/>
<path d="M370.628 114.689H382.004V106.519H370.628V114.689Z" fill="#FF8B63" stroke="#231F20" stroke-miterlimit="10"/>
<path d="M347.876 106.519H370.628V98.3493H347.876V106.519Z" fill="#FF8B63" stroke="#231F20" stroke-miterlimit="10"/>
<path d="M359.252 114.689H370.628V106.519H359.252V114.689Z" fill="#FF8B63" stroke="#231F20" stroke-miterlimit="10"/>
<path d="M347.876 114.689H359.252V106.519H347.876V114.689Z" fill="#FF8B63" stroke="#231F20" stroke-miterlimit="10"/>
<path d="M393.381 122.863H416.133V114.693H393.381V122.863Z" fill="#FF8B63" stroke="#231F20" stroke-miterlimit="10"/>
<path d="M404.757 131.032H416.133V122.863H404.757V131.032Z" fill="#FF8B63" stroke="#231F20" stroke-miterlimit="10"/>
<path d="M393.381 131.032H404.757V122.863H393.381V131.032Z" fill="#FF8B63" stroke="#231F20" stroke-miterlimit="10"/>
<path d="M370.629 122.863H393.381V114.693H370.629V122.863Z" fill="#FF8B63" stroke="#231F20" stroke-miterlimit="10"/>
<path d="M382.005 131.032H393.381V122.863H382.005V131.032Z" fill="#FF8B63" stroke="#231F20" stroke-miterlimit="10"/>
<path d="M370.628 131.032H382.004V122.863H370.628V131.032Z" fill="#FF8B63" stroke="#231F20" stroke-miterlimit="10"/>
<path d="M347.876 122.863H370.628V114.693H347.876V122.863Z" fill="#FF8B63" stroke="#231F20" stroke-miterlimit="10"/>
<path d="M359.252 131.032H370.628V122.863H359.252V131.032Z" fill="#FF8B63" stroke="#231F20" stroke-miterlimit="10"/>
<path d="M347.876 131.032H359.252V122.863H347.876V131.032Z" fill="#FF8B63" stroke="#231F20" stroke-miterlimit="10"/>
<path d="M393.381 139.202H416.133V131.032H393.381V139.202Z" fill="#FF8B63" stroke="#231F20" stroke-miterlimit="10"/>
<path d="M404.757 147.376H416.133V139.206H404.757V147.376Z" fill="#FF8B63" stroke="#231F20" stroke-miterlimit="10"/>
<path d="M393.381 147.376H404.757V139.206H393.381V147.376Z" fill="#FF8B63" stroke="#231F20" stroke-miterlimit="10"/>
<path d="M370.629 139.202H393.381V131.032H370.629V139.202Z" fill="#FF8B63" stroke="#231F20" stroke-miterlimit="10"/>
<path d="M382.005 147.376H393.381V139.206H382.005V147.376Z" fill="#FF8B63" stroke="#231F20" stroke-miterlimit="10"/>
<path d="M370.628 147.376H382.004V139.206H370.628V147.376Z" fill="#FF8B63" stroke="#231F20" stroke-miterlimit="10"/>
<path d="M347.876 139.202H370.628V131.032H347.876V139.202Z" fill="#FF8B63" stroke="#231F20" stroke-miterlimit="10"/>
<path d="M359.252 147.376H370.628V139.206H359.252V147.376Z" fill="#FF8B63" stroke="#231F20" stroke-miterlimit="10"/>
<path d="M347.876 147.376H359.252V139.206H347.876V147.376Z" fill="#FF8B63" stroke="#231F20" stroke-miterlimit="10"/>
<path d="M393.381 155.542H416.133V147.372H393.381V155.542Z" fill="#FF8B63" stroke="#231F20" stroke-miterlimit="10"/>
<path d="M370.629 155.542H393.381V147.372H370.629V155.542Z" fill="#FF8B63" stroke="#231F20" stroke-miterlimit="10"/>
<path d="M347.876 155.542H370.628V147.372H347.876V155.542Z" fill="#FF8B63" stroke="#231F20" stroke-miterlimit="10"/>
<path d="M404.757 163.716H416.133V155.546H404.757V163.716Z" fill="#FF8B63" stroke="#231F20" stroke-miterlimit="10"/>
<path d="M393.381 163.716H404.757V155.546H393.381V163.716Z" fill="#FF8B63" stroke="#231F20" stroke-miterlimit="10"/>
<path d="M382.005 163.716H393.381V155.546H382.005V163.716Z" fill="#FF8B63" stroke="#231F20" stroke-miterlimit="10"/>
<path d="M370.628 163.716H382.004V155.546H370.628V163.716Z" fill="#FF8B63" stroke="#231F20" stroke-miterlimit="10"/>
<path d="M359.252 163.716H370.628V155.546H359.252V163.716Z" fill="#FF8B63" stroke="#231F20" stroke-miterlimit="10"/>
<path d="M347.876 163.716H359.252V155.546H347.876V163.716Z" fill="#FF8B63" stroke="#231F20" stroke-miterlimit="10"/>
<path d="M393.381 171.889H416.133V163.72H393.381V171.889Z" fill="#FF8B63" stroke="#231F20" stroke-miterlimit="10"/>
<path d="M370.629 171.889H393.381V163.72H370.629V171.889Z" fill="#FF8B63" stroke="#231F20" stroke-miterlimit="10"/>
<path d="M347.876 171.889H370.628V163.72H347.876V171.889Z" fill="#FF8B63" stroke="#231F20" stroke-miterlimit="10"/>
<path d="M404.757 180.055H416.133V171.886H404.757V180.055Z" fill="#FF8B63" stroke="#231F20" stroke-miterlimit="10"/>
<path d="M393.381 180.055H404.757V171.886H393.381V180.055Z" fill="#FF8B63" stroke="#231F20" stroke-miterlimit="10"/>
<path d="M382.005 180.055H393.381V171.886H382.005V180.055Z" fill="#FF8B63" stroke="#231F20" stroke-miterlimit="10"/>
<path d="M370.628 180.055H382.004V171.886H370.628V180.055Z" fill="#FF8B63" stroke="#231F20" stroke-miterlimit="10"/>
<path d="M359.252 180.055H370.628V171.886H359.252V180.055Z" fill="#FF8B63" stroke="#231F20" stroke-miterlimit="10"/>
<path d="M347.876 180.055H359.252V171.886H347.876V180.055Z" fill="#FF8B63" stroke="#231F20" stroke-miterlimit="10"/>
<path d="M439.337 171.889H415.599V180.059H439.337V171.889Z" fill="white" stroke="#231F20" stroke-miterlimit="10"/>
<path d="M427.468 163.716H415.599V171.885H427.468V163.716Z" fill="white" stroke="#231F20" stroke-miterlimit="10"/>
<path d="M439.337 163.716H427.468V171.885H439.337V163.716Z" fill="white" stroke="#231F20" stroke-miterlimit="10"/>
<path d="M463.075 171.889H439.337V180.059H463.075V171.889Z" fill="white" stroke="#231F20" stroke-miterlimit="10"/>
<path d="M451.206 163.716H439.337V171.885H451.206V163.716Z" fill="white" stroke="#231F20" stroke-miterlimit="10"/>
<path d="M463.075 163.716H451.206V171.885H463.075V163.716Z" fill="white" stroke="#231F20" stroke-miterlimit="10"/>
<path d="M486.813 171.889H463.075V180.059H486.813V171.889Z" fill="white" stroke="#231F20" stroke-miterlimit="10"/>
<path d="M474.944 163.716H463.075V171.885H474.944V163.716Z" fill="white" stroke="#231F20" stroke-miterlimit="10"/>
<path d="M486.813 163.716H474.944V171.885H486.813V163.716Z" fill="white" stroke="#231F20" stroke-miterlimit="10"/>
<path d="M439.337 155.546H415.599V163.716H439.337V155.546Z" fill="white" stroke="#231F20" stroke-miterlimit="10"/>
<path d="M427.468 147.376H415.599V155.546H427.468V147.376Z" fill="white" stroke="#231F20" stroke-miterlimit="10"/>
<path d="M439.337 147.376H427.468V155.546H439.337V147.376Z" fill="white" stroke="#231F20" stroke-miterlimit="10"/>
<path d="M463.075 155.546H439.337V163.716H463.075V155.546Z" fill="white" stroke="#231F20" stroke-miterlimit="10"/>
<path d="M451.206 147.376H439.337V155.546H451.206V147.376Z" fill="white" stroke="#231F20" stroke-miterlimit="10"/>
<path d="M463.075 147.376H451.206V155.546H463.075V147.376Z" fill="white" stroke="#231F20" stroke-miterlimit="10"/>
<path d="M486.813 155.546H463.075V163.716H486.813V155.546Z" fill="white" stroke="#231F20" stroke-miterlimit="10"/>
<path d="M474.944 147.376H463.075V155.546H474.944V147.376Z" fill="white" stroke="#231F20" stroke-miterlimit="10"/>
<path d="M486.813 147.376H474.944V155.546H486.813V147.376Z" fill="white" stroke="#231F20" stroke-miterlimit="10"/>
<path d="M439.337 139.202H415.599V147.372H439.337V139.202Z" fill="white" stroke="#231F20" stroke-miterlimit="10"/>
<path d="M427.468 131.032H415.599V139.202H427.468V131.032Z" fill="white" stroke="#231F20" stroke-miterlimit="10"/>
<path d="M439.337 131.032H427.468V139.202H439.337V131.032Z" fill="white" stroke="#231F20" stroke-miterlimit="10"/>
<path d="M463.075 139.202H439.337V147.372H463.075V139.202Z" fill="white" stroke="#231F20" stroke-miterlimit="10"/>
<path d="M451.206 131.032H439.337V139.202H451.206V131.032Z" fill="white" stroke="#231F20" stroke-miterlimit="10"/>
<path d="M463.075 131.032H451.206V139.202H463.075V131.032Z" fill="white" stroke="#231F20" stroke-miterlimit="10"/>
<path d="M486.813 139.202H463.075V147.372H486.813V139.202Z" fill="white" stroke="#231F20" stroke-miterlimit="10"/>
<path d="M474.944 131.032H463.075V139.202H474.944V131.032Z" fill="white" stroke="#231F20" stroke-miterlimit="10"/>
<path d="M486.813 131.032H474.944V139.202H486.813V131.032Z" fill="white" stroke="#231F20" stroke-miterlimit="10"/>
<path d="M439.337 122.863H415.599V131.032H439.337V122.863Z" fill="white" stroke="#231F20" stroke-miterlimit="10"/>
<path d="M427.468 114.689H415.599V122.859H427.468V114.689Z" fill="white" stroke="#231F20" stroke-miterlimit="10"/>
<path d="M439.337 114.689H427.468V122.859H439.337V114.689Z" fill="white" stroke="#231F20" stroke-miterlimit="10"/>
<path d="M463.075 122.863H439.337V131.032H463.075V122.863Z" fill="white" stroke="#231F20" stroke-miterlimit="10"/>
<path d="M451.206 114.689H439.337V122.859H451.206V114.689Z" fill="white" stroke="#231F20" stroke-miterlimit="10"/>
<path d="M463.075 114.689H451.206V122.859H463.075V114.689Z" fill="white" stroke="#231F20" stroke-miterlimit="10"/>
<path d="M486.813 122.863H463.075V131.032H486.813V122.863Z" fill="white" stroke="#231F20" stroke-miterlimit="10"/>
<path d="M474.944 114.689H463.075V122.859H474.944V114.689Z" fill="white" stroke="#231F20" stroke-miterlimit="10"/>
<path d="M486.813 114.689H474.944V122.859H486.813V114.689Z" fill="white" stroke="#231F20" stroke-miterlimit="10"/>
<path d="M439.337 106.519H415.599V114.689H439.337V106.519Z" fill="white" stroke="#231F20" stroke-miterlimit="10"/>
<path d="M463.075 106.519H439.337V114.689H463.075V106.519Z" fill="white" stroke="#231F20" stroke-miterlimit="10"/>
<path d="M486.813 106.519H463.075V114.689H486.813V106.519Z" fill="white" stroke="#231F20" stroke-miterlimit="10"/>
<path d="M427.468 98.3493H415.599V106.519H427.468V98.3493Z" fill="white" stroke="#231F20" stroke-miterlimit="10"/>
<path d="M439.337 98.3493H427.468V106.519H439.337V98.3493Z" fill="white" stroke="#231F20" stroke-miterlimit="10"/>
<path d="M451.206 98.3493H439.337V106.519H451.206V98.3493Z" fill="white" stroke="#231F20" stroke-miterlimit="10"/>
<path d="M463.075 98.3493H451.206V106.519H463.075V98.3493Z" fill="white" stroke="#231F20" stroke-miterlimit="10"/>
<path d="M474.944 98.3493H463.075V106.519H474.944V98.3493Z" fill="white" stroke="#231F20" stroke-miterlimit="10"/>
<path d="M486.813 98.3493H474.944V106.519H486.813V98.3493Z" fill="white" stroke="#231F20" stroke-miterlimit="10"/>
<path d="M439.337 90.1756H415.599V98.3454H439.337V90.1756Z" fill="white" stroke="#231F20" stroke-miterlimit="10"/>
<path d="M463.075 90.1756H439.337V98.3454H463.075V90.1756Z" fill="white" stroke="#231F20" stroke-miterlimit="10"/>
<path d="M486.813 90.1756H463.075V98.3454H486.813V90.1756Z" fill="white" stroke="#231F20" stroke-miterlimit="10"/>
<path d="M427.468 82.0058H415.599V90.1756H427.468V82.0058Z" fill="white" stroke="#231F20" stroke-miterlimit="10"/>
<path d="M439.337 82.0058H427.468V90.1756H439.337V82.0058Z" fill="white" stroke="#231F20" stroke-miterlimit="10"/>
<path d="M451.206 82.0058H439.337V90.1756H451.206V82.0058Z" fill="white" stroke="#231F20" stroke-miterlimit="10"/>
<path d="M463.075 82.0058H451.206V90.1756H463.075V82.0058Z" fill="white" stroke="#231F20" stroke-miterlimit="10"/>
<path d="M474.944 82.0058H463.075V90.1756H474.944V82.0058Z" fill="white" stroke="#231F20" stroke-miterlimit="10"/>
<path d="M486.813 82.0058H474.944V90.1756H486.813V82.0058Z" fill="white" stroke="#231F20" stroke-miterlimit="10"/>
<path d="M439.337 73.8359H415.599V82.0058H439.337V73.8359Z" fill="white" stroke="#231F20" stroke-miterlimit="10"/>
<path d="M463.075 73.8359H439.337V82.0058H463.075V73.8359Z" fill="white" stroke="#231F20" stroke-miterlimit="10"/>
<path d="M486.813 73.8359H463.075V82.0058H486.813V73.8359Z" fill="white" stroke="#231F20" stroke-miterlimit="10"/>
<path d="M497.125 157.196V158.278L528.648 207.495L553.653 207.091L551.48 174.526L548.981 167.492L540.18 159.657L529.778 157.196H496.674" fill="#231F20"/>
<path d="M497.125 157.196V158.278L528.648 207.495L553.653 207.091L551.48 174.526L548.981 167.492L540.18 159.657L529.778 157.196H496.674" stroke="#231F20" stroke-miterlimit="10"/>
<path d="M524.455 165.031H512.498C500.114 165.031 490.072 178.861 490.072 195.92C490.072 212.98 500.114 226.81 512.498 226.81H524.455C536.51 226.81 546.282 212.98 546.282 195.92C546.282 178.861 536.51 165.031 524.455 165.031Z" fill="#FF8B63" stroke="#262626" stroke-miterlimit="10"/>
<path d="M526.62 211.506C532.465 211.506 537.203 204.801 537.203 196.53C537.203 188.259 532.465 181.554 526.62 181.554C520.775 181.554 516.036 188.259 516.036 196.53C516.036 204.801 520.775 211.506 526.62 211.506Z" fill="white" stroke="#262626" stroke-miterlimit="10"/>
<path d="M528.796 196.53C528.796 199.059 527.348 201.112 525.558 201.112C523.768 201.112 522.319 199.059 522.319 196.53C522.319 194.001 523.768 191.948 525.558 191.948" stroke="#262626" stroke-miterlimit="10"/>
<path d="M523.848 207.091C527.97 207.091 531.311 202.363 531.311 196.53C531.311 190.697 527.97 185.968 523.848 185.968C519.727 185.968 516.386 190.697 516.386 196.53C516.386 202.363 519.727 207.091 523.848 207.091Z" stroke="#262626" stroke-miterlimit="10"/>
<path d="M526.62 224.608C537.578 224.608 546.46 212.037 546.46 196.53C546.46 181.022 537.578 168.451 526.62 168.451C515.663 168.451 506.78 181.022 506.78 196.53C506.78 212.037 515.663 224.608 526.62 224.608Z" stroke="#262626" stroke-miterlimit="10"/>
<path d="M524.576 189.803H521.975C519.279 189.803 517.091 192.816 517.091 196.53C517.091 200.243 519.279 203.256 521.975 203.256H524.576C527.2 203.256 529.328 200.243 529.328 196.53C529.328 192.816 527.2 189.803 524.576 189.803Z" stroke="#262626" stroke-miterlimit="10"/>
<path d="M553.653 207.092H599.806C601.683 207.092 603.253 205.663 603.428 203.785C603.913 198.552 605.976 188.356 614.489 182.563C620.154 178.705 626.066 178.324 628.891 178.343C630.643 175.326 632.395 172.306 634.151 169.289C634.375 168.905 634.492 168.463 634.492 168.017V123.809C634.492 122.415 633.366 121.283 631.978 121.283H622.179C620.792 121.283 619.665 122.415 619.665 123.809V125.862C619.665 126.421 619.479 126.966 619.138 127.408C606.31 144.003 593.485 160.601 580.657 177.196C579.413 178.807 577.494 179.752 575.461 179.752H550.866L551.401 204.882C551.427 206.113 552.429 207.095 553.65 207.095L553.653 207.092Z" fill="#F4F3F1" stroke="#231F20" stroke-miterlimit="10"/>
<path d="M621.235 129.042C621.937 128.135 622.32 127.004 622.32 125.858V123.946H631.834V167.975L627.348 175.703C623.404 175.879 618.08 176.895 612.999 180.354C603.659 186.715 601.338 197.608 600.785 203.538C600.739 204.044 600.318 204.425 599.806 204.425H554.051L553.585 189.803" stroke="#231F20" stroke-miterlimit="10"/>
<path d="M553.031 179.748H550.881V179.044C550.881 167.591 541.606 158.274 530.203 158.274H524.951V156.115H530.203C542.789 156.115 553.031 166.398 553.031 179.044V179.748Z" fill="#F4F3F1" stroke="#231F20" stroke-miterlimit="10"/>
<path d="M524.955 156.119H497.125V158.278H524.955V156.119Z" fill="#F4F3F1" stroke="#231F20" stroke-miterlimit="10"/>
<path d="M587.046 117.044C599.662 117.044 609.89 105.201 609.89 90.5921C609.89 75.9831 599.662 64.1401 587.046 64.1401C574.43 64.1401 564.203 75.9831 564.203 90.5921C564.203 105.201 574.43 117.044 587.046 117.044Z" fill="#231F20" stroke="#231F20" stroke-miterlimit="10" stroke-linecap="round"/>
</g>
</g>
<defs>
<clipPath id="clip0_6796_23829">
<rect width="589" height="227" rx="32" fill="white"/>
</clipPath>
<clipPath id="clip1_6796_23829">
<rect width="65" height="62" fill="white" transform="translate(262 128)"/>
</clipPath>
<clipPath id="clip2_6796_23829">
<rect width="313" height="60" fill="white" transform="translate(143 188)"/>
</clipPath>
<clipPath id="clip3_6796_23829">
<rect width="293" height="216" fill="white" transform="translate(345 11)"/>
</clipPath>
</defs>
</svg>
