<svg width="40" height="40" viewBox="0 0 40 40" fill="none" xmlns="http://www.w3.org/2000/svg">
<g clip-path="url(#clip0_6335_19572)">
<path d="M29.5293 35.0176L27.168 26.4688H29.3418L30.7656 32.1582C30.7969 32.2949 30.8262 32.4277 30.8535 32.5566C30.8848 32.6816 30.9082 32.8105 30.9238 32.9434H30.959C30.9746 32.8105 30.9922 32.6816 31.0117 32.5566C31.0312 32.4277 31.0566 32.2949 31.0879 32.1582L32.4941 26.4688H34.8438L36.3145 32.1465C36.3535 32.2832 36.3809 32.418 36.3965 32.5508C36.416 32.6797 36.4336 32.8105 36.4492 32.9434H36.4902C36.5059 32.8105 36.5234 32.6797 36.543 32.5508C36.5625 32.418 36.5879 32.2832 36.6191 32.1465L37.9961 26.4688H39.8652L37.4746 35.0176H35.084L33.6719 29.5098C33.6406 29.373 33.6094 29.2246 33.5781 29.0645C33.5469 28.9043 33.5293 28.7559 33.5254 28.6191H33.4727C33.4648 28.7559 33.4473 28.9043 33.4199 29.0645C33.3965 29.2246 33.3672 29.373 33.332 29.5098L31.9551 35.0176H29.5293Z" fill="#7099ED"/>
<path d="M5 13.8152V12.4363C5 11.7951 5.30749 11.1927 5.82685 10.8165L18 2V10.8321C18 12.2488 16.2405 12.9044 15.3135 11.8331L14.6436 11.059C12.6571 8.76351 9.2341 8.39409 6.80358 10.2129C5.66836 11.0624 5 12.3973 5 13.8152Z" fill="white"/>
<path d="M31 22.4923V6C31 3.79086 29.2091 2 27 2H18M29.8696 38H9C6.79086 38 5 36.2091 5 34V12.4363C5 11.7951 5.30749 11.1927 5.82685 10.8165L18 2M18 2V10.8321C18 12.2488 16.2405 12.9044 15.3135 11.8331L14.6436 11.059C12.6571 8.76351 9.2341 8.39409 6.80358 10.2129V10.2129C5.66836 11.0624 5 12.3973 5 13.8152V14.375" stroke="#7099ED" stroke-width="2" stroke-linecap="round"/>
</g>
<defs>
<clipPath id="clip0_6335_19572">
<rect width="40" height="40" fill="white"/>
</clipPath>
</defs>
</svg>
