<svg width="40" height="40" viewBox="0 0 40 40" fill="none" xmlns="http://www.w3.org/2000/svg">
<path d="M32 32V8C32 3.58172 28.4183 0 24 0H16.8337C14.6864 0 12.6292 0.863212 11.1249 2.39549L2.29128 11.3934C0.822754 12.8892 0 14.9017 0 16.9979V32C0 36.4183 3.58172 40 8 40H24C28.4183 40 32 36.4183 32 32Z" fill="#7099ED"/>
<path d="M7.35596 29V21.1797H11.0459C12.2419 21.1797 13.1603 21.3981 13.8013 21.835C14.4422 22.2718 14.7627 22.8805 14.7627 23.6611C14.7627 24.4453 14.4422 25.0594 13.8013 25.5034C13.1639 25.9438 12.2472 26.1641 11.0513 26.1641H9.27881V29H7.35596ZM9.27881 25.1167H11.0513C11.6922 25.1167 12.1523 24.9806 12.4316 24.7085C12.7109 24.4328 12.8506 24.0837 12.8506 23.6611C12.8506 23.2458 12.7109 22.902 12.4316 22.6299C12.1523 22.3577 11.6922 22.2217 11.0513 22.2217H9.27881V25.1167ZM16.0034 29V21.1797H19.3281C20.6816 21.1797 21.8203 21.5199 22.7441 22.2002C23.6715 22.8805 24.1353 23.8241 24.1353 25.0308V25.1489C24.1353 26.3556 23.6715 27.2992 22.7441 27.9795C21.8203 28.6598 20.6816 29 19.3281 29H16.0034ZM17.9263 27.958H19.3228C20.1678 27.958 20.8517 27.7091 21.3745 27.2114C21.8973 26.7137 22.1587 26.0262 22.1587 25.1489V25.0308C22.1587 24.1535 21.8973 23.466 21.3745 22.9683C20.8517 22.4705 20.1678 22.2217 19.3228 22.2217H17.9263V27.958ZM25.564 29V21.1797H32.1919V22.2217H27.4868V24.7515H31.6494V25.7881H27.4868V29H25.564Z" fill="white"/>
<path d="M19 0H15.4522C13.5481 0 11.7262 0.775664 10.4064 2.14818L2.23341 10.6479C0.800406 12.1382 0 14.1254 0 16.1928V17C0 15.3431 1.34315 14 3 14H10.5596C12.7453 14 14.5263 12.2455 14.5592 10.0601L14.6458 4.28932C14.6815 1.91005 16.6205 0 19 0Z" fill="#FFB31D"/>
</svg>
