<svg width="226" height="258" viewBox="0 0 226 258" fill="none" xmlns="http://www.w3.org/2000/svg">
<g clip-path="url(#clip0_4830_14720)">
<path d="M165.089 183.465L218.835 173.631L220.431 174.274C223.317 170.334 224.618 166.404 223.565 164.59C223.432 164.359 222.747 163.273 221.624 162.072C221.624 162.072 220.924 161.123 220.028 160.571C218.853 159.85 217.572 159.374 216.453 159.061H216.449C214.742 158.581 213.416 158.485 213.416 158.485C211.572 158.353 210.148 157.985 208.839 157.512C206.831 156.787 205.092 155.821 202.528 155.076C194.789 152.83 180.304 152.864 172.908 160.908C171.572 162.365 170.578 163.961 169.756 165.659C169.084 167.057 168.528 168.524 167.996 170.041C167.786 170.64 167.58 171.246 167.37 171.858C166.915 173.196 166.548 174.485 166.254 175.71C165.512 178.77 165.215 181.437 165.089 183.465Z" fill="white"/>
<path d="M23.434 70.3177C23.9518 70.1747 24.4801 70.0182 25.0189 69.8447C26.016 69.5248 26.9501 69.1811 27.8213 68.8272C24.543 63.6039 21.2613 58.3874 17.9795 53.1676L17.8221 52.9668C17.4652 53.2288 17.1189 53.4942 16.783 53.7528C15.2611 54.5899 13.4243 55.638 11.3391 56.8936C9.25386 58.1493 6.92374 59.6125 4.41869 61.29C4.45717 63.4984 4.64961 65.8736 5.06245 68.3815C6.81878 79.039 11.7554 87.0866 15.6739 92.1636L15.7894 92.3371C17.1958 91.4592 19.2496 90.4316 21.9505 89.0909C23.7978 88.1721 24.9594 87.6583 25.7536 87.4133C25.1588 83.4933 24.9174 80.3321 24.8089 78.1645C24.6375 74.7277 24.711 72.1756 23.434 70.3177Z" fill="white"/>
<path d="M16.503 104.278C16.2686 105.271 16.2021 106.153 16.2056 106.837C17.0628 107.231 17.9199 107.626 18.7806 108.021L18.8506 108C18.6057 107.231 18.3468 106.265 18.0739 105.043C17.7905 103.767 17.5911 102.648 17.4511 101.746C17.1257 102.376 16.7549 103.23 16.503 104.278Z" fill="white"/>
<path d="M27.8211 68.8272C28.7237 70.2632 29.6264 71.7025 30.529 73.1385C32.9396 72.6349 36.6097 71.6175 40.5912 69.4329L40.6087 69.4601C40.1749 72.2776 39.6991 75.1428 39.1813 78.0522C38.4361 82.2206 37.6383 86.2733 36.7987 90.2069C40.9131 85.5825 47.5256 76.6332 52.2908 66.2138C54.9638 60.378 57.0525 54.0829 57.7977 47.8285C57.9971 46.1407 58.235 43.33 58.0216 39.7503C56.3702 39.672 54.6139 39.6652 52.7666 39.7537C51.5456 39.8115 47.0043 40.0736 41.3119 41.5163C31.2778 44.065 23.2973 48.8698 17.8219 52.9667L17.9793 53.1675C21.2611 58.3874 24.5428 63.6039 27.8211 68.8272Z" fill="white"/>
<path d="M16.9649 98.3141C16.9299 98.3515 16.2861 99.0593 16.552 99.927C16.727 100.505 17.1958 100.795 17.3217 100.866C17.3602 101.128 17.4022 101.424 17.4512 101.748C17.5911 102.649 17.7906 103.769 18.074 105.045C18.3469 106.266 18.6057 107.233 18.8507 108.002C19.5679 110.268 20.1452 110.826 20.4321 111.068C21.7895 112.201 23.5074 112.378 24.578 112.381C24.7599 114.069 25.869 115.318 27.139 115.478C27.9437 115.576 28.6119 115.216 28.9268 115.012H28.9303C28.7939 116.029 29.0633 116.989 29.6895 117.649C29.798 117.768 30.7321 118.727 31.7083 118.506C32.8453 118.244 33.4051 116.509 33.692 114.872C33.86 113.933 33.9369 113.024 33.9894 112.446C34.0839 111.374 34.1084 110.023 33.9054 108.451L35.9172 109.377L35.9277 109.353C36.0256 109.251 37.4881 107.648 36.8968 105.514C36.309 103.384 34.2238 102.711 34.0873 102.67C33.769 101.935 33.3736 101.149 32.8838 100.332C32.3485 99.4438 31.7817 98.651 31.215 97.9568C30.5607 97.1537 29.9064 96.4766 29.3012 95.9083C29.3012 95.6973 29.2767 95.4285 29.1927 95.1257C29.0283 94.554 28.7239 94.1559 28.5245 93.9381C29.2067 90.7803 28.8394 88.167 27.4154 87.4081C27.0341 87.204 26.6072 87.1529 25.7535 87.4149C24.9593 87.6599 23.7978 88.1738 21.9505 89.0925C19.2495 90.4332 17.1958 91.4609 15.7893 92.3388C14.2534 93.295 13.4907 94.0708 13.5047 94.8807C13.5152 95.3469 13.7251 96.7216 16.9649 98.3141Z" fill="#7099ED"/>
<path d="M27.8495 248.168C27.7131 247.426 27.5766 246.681 27.4402 245.939C26.3731 244.81 23.9835 242.615 20.2189 241.611C15.4713 240.342 11.5597 241.774 10.0448 242.349C8.18702 243.057 5.25165 244.051 3.47083 246.793C3.33438 247.008 3.17343 247.277 2.93902 247.831C2.75009 248.277 2.51219 248.91 2.20431 249.842C1.58854 251.697 0.804842 254.368 0.171583 257.74C10.6921 257.771 21.2126 257.801 31.7296 257.832C31.8065 256.971 31.824 255.583 31.3622 253.973C31.0333 252.837 30.519 251.054 28.8222 249.665C28.5563 249.448 28.2869 249.26 28.0175 249.1V249.094C27.965 248.784 27.9055 248.478 27.8495 248.168Z" fill="#231F20"/>
<path d="M28.9272 115.011C28.6123 115.215 27.9441 115.575 27.1394 115.477C25.8589 122.133 24.4874 128.874 23.0215 135.696C22.5911 137.697 22.1573 139.691 21.7165 141.675C22.983 141.862 25.8519 142.114 29.0532 140.807C31.5022 139.807 33.0801 138.33 33.9058 137.435C35.4208 130.643 36.9392 123.854 38.4541 117.059L33.6924 114.871C33.4055 116.508 32.8457 118.243 31.7087 118.505C30.7325 118.726 29.7984 117.767 29.6899 117.648C29.0637 116.988 28.7943 116.028 28.9307 115.011H28.9272Z" fill="#7099ED"/>
<path d="M59.6914 68.2395C57.3403 67.5487 55.0696 66.9703 52.9074 66.4803L52.2917 66.2148C47.5265 76.6342 40.914 85.5836 36.7996 90.208C35.708 91.4398 34.7878 92.3619 34.1301 92.9268C33.8257 93.1888 32.8706 93.9749 32.6536 95.2169C32.5452 95.826 32.6362 96.4419 32.8706 97.0544L32.6432 97.1327C32.4577 97.1599 32.1533 97.2279 31.828 97.4219C31.5201 97.6022 31.3242 97.8166 31.2157 97.9561C31.7825 98.6503 32.3493 99.4431 32.8846 100.331C33.3744 101.148 33.7697 101.934 34.0881 102.669C34.2245 102.71 36.3098 103.384 36.8975 105.514C37.4888 107.647 36.0264 109.25 35.9284 109.352L35.9179 109.376L76.0966 127.829C75.9812 126.179 75.8657 124.525 75.7502 122.875C77.818 122.215 79.4379 121.415 80.4455 120.588C81.2432 119.935 81.656 119.268 81.6035 118.638C81.5755 118.284 81.3831 117.75 80.5189 117.141C81.614 116.648 82.7091 115.926 83.6118 114.871C84.1471 114.242 84.5039 113.626 84.7523 113.109C86.3127 109.869 87.5793 105.245 88.5484 100.784C90.0948 93.655 90.8785 86.9379 90.8785 86.9379C91.0149 85.7571 91.1514 84.6478 91.2773 83.6099C89.7729 82.5279 88.1845 81.4458 86.5157 80.3773C85.536 79.7546 84.5319 79.1353 83.4963 78.5228C75.1905 73.6193 67.0316 70.3901 59.6914 68.2395ZM45.6162 101.138C47.362 98.5822 49.1569 95.6695 50.8782 92.3892C53.2608 87.8464 54.9962 83.5691 56.2732 79.7784C56.644 77.8966 57.0114 76.0115 57.3822 74.1263C63.2495 75.5351 70.1629 77.7673 77.4961 81.3947C80.7254 82.9906 83.6433 84.6648 86.2638 86.3322C86.1343 87.2918 85.9139 88.4181 85.5255 89.6533C85.1652 90.8 84.7383 91.7903 84.3255 92.6137C84.0666 92.4232 83.8042 92.2326 83.5348 92.0421C81.8624 97.2381 79.0495 103.36 74.1758 109.216C73.3257 110.24 72.458 111.196 71.5938 112.088C68.1721 111.074 64.523 109.835 60.7025 108.318C54.9927 106.048 49.9616 103.567 45.6162 101.138Z" fill="#7099ED"/>
<path d="M50.8776 92.3881C49.1563 95.6684 47.3614 98.5812 45.6156 101.137C49.9609 103.566 54.992 106.047 60.7019 108.317C64.5224 109.834 68.1715 111.073 71.5932 112.087C72.4574 111.195 73.3251 110.239 74.1752 109.215C79.0489 103.359 81.8618 97.2371 83.5342 92.041C81.316 90.4587 78.818 88.856 76.019 87.3179C68.7488 83.3197 61.8459 81.0806 56.2726 79.7773C54.9955 83.5681 53.2602 87.8454 50.8776 92.3881Z" fill="#7099ED"/>
<path d="M52.2915 66.2155L52.9073 66.4809C55.0694 66.9709 57.3401 67.5494 59.6912 68.2402C61.8569 63.0713 63.9945 56.0786 64.3724 47.6975C64.4879 45.0875 64.4214 42.6477 64.2395 40.3883C62.3887 40.0922 60.3035 39.854 58.0223 39.752C58.2357 43.3317 57.9978 46.1424 57.7984 47.8302C57.0532 54.0845 54.9645 60.3797 52.2915 66.2155Z" fill="#7099ED"/>
<path d="M57.3822 74.127C57.0113 76.0121 56.6439 77.8973 56.2731 79.779C61.8465 81.0823 68.7493 83.3213 76.0196 87.3196C78.8185 88.8577 81.3165 90.4604 83.5347 92.0427C83.8041 92.2332 84.0665 92.4238 84.3254 92.6144C84.7382 91.7909 85.1651 90.8007 85.5254 89.6539C85.9138 88.4187 86.1342 87.2924 86.2637 86.3328C83.6432 84.6654 80.7253 82.9912 77.496 81.3953C70.1628 77.7679 63.2494 75.5357 57.3822 74.127Z" fill="#7099ED"/>
<path d="M59.4567 246.21C58.8969 246.706 58.4736 247.125 58.2532 247.346C58.3126 247.506 58.3651 247.622 58.3966 247.69C58.2846 248.643 58.1902 249.633 58.1202 250.654C57.9628 252.954 57.9488 255.115 58.0292 257.116H100.199C101.199 255.009 101.101 253.42 100.937 252.539C100.188 248.561 95.4755 245.223 89.0029 244.491L89.01 244.437C88.0303 243.651 86.9317 242.606 85.9066 241.255C85.6267 240.888 85.3538 240.496 85.0879 240.085C84.7206 239.513 84.4092 238.955 84.1433 238.414C82.6039 238.359 81.3584 238.404 80.5432 238.448C77.4958 238.615 67.2692 239.305 59.4567 246.21Z" fill="#231F20"/>
<path d="M64.3722 47.6959C63.9943 56.077 61.8566 63.0698 59.691 68.2386C67.0312 70.3892 75.1901 73.6184 83.4959 78.5218C84.5315 79.1343 85.5356 79.7537 86.5153 80.3764L86.5852 80.2709C88.4885 73.7341 89.846 65.5606 89.0098 56.3118C88.9259 55.3794 88.8209 54.4641 88.6949 53.5726C88.2331 54.5049 87.3899 55.849 85.8925 56.8494C81.1203 60.0311 73.2028 57.724 69.0989 53.2153C67.1676 51.0919 64.3652 46.5934 66.111 43.2417C66.6393 42.231 67.451 41.5675 68.1228 41.1455C66.9822 40.8801 65.6807 40.6147 64.2392 40.3867C64.4212 42.6462 64.4876 45.086 64.3722 47.6959Z" fill="white"/>
<path d="M68.1224 41.146C67.4507 41.568 66.639 42.2315 66.1107 43.2421C64.3648 46.5939 67.1673 51.0924 69.0985 53.2157C73.2025 57.7244 81.12 60.0315 85.8922 56.8499C87.3896 55.8495 88.2328 54.5054 88.6946 53.573C88.6106 52.9163 88.5092 52.2732 88.4042 51.6402L88.2747 51.613C88.4007 51.0992 88.5826 50.5343 88.845 49.9388C89.1914 49.1596 89.5902 48.5233 89.9541 48.0299C89.0654 47.6828 88.4112 47.3153 88.0788 47.1145C83.8209 44.5454 81.7532 38.679 82.9078 32.3906C81.0465 32.5846 79.1537 32.8024 77.2329 33.0406C75.3926 33.2685 73.5768 33.5101 71.7995 33.7654C70.5995 36.2392 69.3994 38.7096 68.1924 41.18L68.1224 41.146Z" fill="white"/>
<path d="M73.4437 30.3658C72.8944 31.4989 72.3451 32.6321 71.7994 33.7652C73.5767 33.51 75.3925 33.2684 77.2328 33.0404C79.1536 32.8022 81.0463 32.5844 82.9076 32.3905C82.9181 32.3326 82.9286 32.2714 82.9391 32.2135C82.6697 32.0366 80.588 30.6006 80.497 28.1302C80.4411 26.7146 81.0253 24.5062 82.8027 23.9141C83.7123 23.6113 84.9998 23.7065 85.899 24.5368C86.7562 25.3263 86.8296 26.3709 86.8401 26.6193C86.5427 27.3782 86.2139 28.5011 86.1999 29.8758C86.1929 30.6006 86.2733 31.2369 86.3783 31.7678C87.036 31.9141 87.6903 32.0604 88.3481 32.2101C88.3201 31.9923 87.9247 28.2969 90.7481 26.1906C92.2456 25.0711 93.8864 24.9656 94.5547 24.9622L79.1885 18.4492C77.2783 22.4237 75.3645 26.3947 73.4437 30.3658Z" fill="#231F20"/>
<path d="M56.7831 189.582C56.2478 191.206 57.0036 192.594 57.1505 192.852C58.2911 208.519 58.7214 224.624 58.3051 241.138C58.2771 242.217 58.2456 243.296 58.2106 244.371C57.7593 245.64 58.0392 246.766 58.2526 247.345C58.473 247.124 58.8963 246.705 59.4561 246.208C67.2687 239.304 77.4953 238.613 80.5426 238.447C81.3578 238.402 82.6033 238.358 84.1427 238.413C84.4086 238.954 84.72 239.512 85.0874 240.083C85.3533 240.495 85.6262 240.886 85.9061 241.254C87.2985 240.233 87.9808 238.569 87.6484 237.011C87.2321 235.078 85.3148 233.625 83.0791 233.689C82.9007 230.168 82.6278 224.025 82.4809 216.369C82.019 192.461 83.352 182.164 82.8482 160.727C82.7678 157.232 82.6103 152.369 82.2744 146.445C81.4733 146.346 80.2802 146.105 78.9717 145.472C77.7612 144.883 76.89 144.175 76.3302 143.645C76.3547 140.592 76.3792 137.54 76.4002 134.488L38.4536 117.059C36.9387 123.854 35.4203 130.643 33.9053 137.435C33.0797 138.329 31.5018 139.806 29.0527 140.807C25.8514 142.113 22.9825 141.862 21.716 141.674C18.7421 155.102 15.5548 168.107 12.2066 180.681C11.5558 181.116 11.108 181.736 10.9751 182.43C10.8386 183.141 11.0695 183.75 11.2235 184.063C9.51263 192.451 8.2531 199.491 7.36794 204.704C6.20638 211.571 5.45766 217.216 5.04832 220.521C4.91537 221.613 4.81392 222.484 4.71596 223.301C3.99523 229.46 3.48092 234.571 3.12755 238.348C3.05408 238.447 2.98761 238.545 2.91764 238.647C1.53916 240.716 1.51817 242.785 1.53216 243.428C1.58813 245.616 2.50479 247.182 2.93863 247.831C3.17304 247.277 3.33398 247.008 3.47044 246.794C5.25126 244.051 8.18663 243.057 10.0444 242.35C11.5593 241.774 15.4709 240.342 20.2186 241.611C23.9831 242.615 26.3727 244.81 27.4398 245.939C27.5762 246.681 27.7127 247.427 27.8492 248.168C28.29 247.508 29.4375 245.579 28.9617 243.292C28.7273 242.162 28.1675 241.325 27.5063 240.553C27.6812 240.155 28.2235 238.743 27.6217 237.099C27.5448 236.891 27.4573 236.698 27.3628 236.521C30.5571 215.103 35.7386 191.576 43.957 166.695C46.3746 159.372 48.9251 152.329 51.5666 145.56C51.9865 147.646 52.5428 150.539 53.1375 153.996C53.7883 157.787 55.0653 165.674 56.0904 175.896C56.4333 179.33 56.8181 183.713 57.126 188.827C56.9861 189.065 56.8706 189.317 56.7831 189.582Z" fill="#7099ED"/>
<path d="M75.7503 122.875C75.8657 124.525 75.9812 126.179 76.0966 127.829L81.2852 130.214C81.2012 128.231 81.0577 126.162 80.8408 124.025C80.7254 122.851 80.5924 121.704 80.4455 120.588C79.4379 121.415 77.818 122.214 75.7503 122.875Z" fill="#7099ED"/>
<path d="M77.3658 15.4994L76.5471 17.3301L79.1887 18.4497L94.5548 24.9626L110.292 31.6321L114.847 33.5649L118.986 35.3173L119.805 33.49L118.878 33.0953C117.104 32.3433 116.296 30.3356 117.065 28.6138C118.251 25.9698 118.811 23.2136 118.811 20.5049C118.811 12.6649 114.119 5.19917 106.258 1.86784C95.6814 -2.61705 83.3696 2.08902 78.7618 12.3791L77.3623 15.4994H77.3658Z" fill="#7099ED"/>
<path d="M76.3302 143.645C76.89 144.176 77.7611 144.884 78.9717 145.473C80.2802 146.105 81.4732 146.347 82.2744 146.446C82.11 143.509 81.9036 140.314 81.6377 136.894L76.4001 134.488C76.3792 137.541 76.3547 140.593 76.3302 143.645Z" fill="#7099ED"/>
<path d="M88.4045 51.6406C88.5094 52.2735 88.6109 52.9167 88.6949 53.5734C88.8208 54.4649 88.9258 55.3803 89.0097 56.3127C89.8459 65.5615 88.4884 73.735 86.5852 80.2718L86.5152 80.3772C88.1841 81.4457 89.7724 82.5278 91.2769 83.6099C92.7533 71.7001 93.5965 68.4641 92.6763 61.359C92.274 58.2727 91.7072 55.7444 91.2734 54.0396C90.1888 53.029 89.1987 52.2327 88.4045 51.6406Z" fill="#7099ED"/>
<path d="M92.6767 61.3585C93.5969 68.4635 92.7537 71.6996 91.2773 83.6094C91.1513 84.6472 91.0149 85.7565 90.8784 86.9373C90.8784 86.9373 90.0947 93.6544 88.5483 100.783C90.0982 101.117 91.4347 101.232 92.4668 101.263C92.6907 101.27 92.8971 101.273 93.0931 101.273C97.6763 101.27 101.276 99.7692 104.163 98.5374C105.604 97.9181 106.759 97.3294 107.539 96.9007C107.021 94.0491 106.538 91.4732 106.101 89.2036C105.059 83.7727 101.962 68.9127 97.1515 61.202C95.1363 57.9693 92.6312 55.3696 92.6312 55.3696C92.1694 54.8864 91.7146 54.444 91.2738 54.0391C91.7076 55.7439 92.2744 58.2721 92.6767 61.3585Z" fill="white"/>
<path d="M93.0924 101.273C92.8964 101.273 92.69 101.27 92.4661 101.263C92.9489 103.839 93.7361 107.602 94.9711 112.121C95.5169 114.108 95.9963 115.684 96.1362 116.126C98.106 122.364 103.819 128.948 108.595 133.668L108.605 133.678C109.568 132.439 111.334 131.456 112.283 130.932C113.888 130.04 116.967 128.679 121.54 128.669C120.872 126.91 120.13 124.95 119.318 122.813C116.708 115.949 115.109 111.852 111.429 107.262C110.418 105.999 109.501 105.016 108.868 104.37C108.41 101.712 107.962 99.2143 107.538 96.9004C106.758 97.3291 105.604 97.9178 104.162 98.5371C101.276 99.7689 97.6756 101.27 93.0924 101.273Z" fill="white"/>
<path d="M97.9876 31.5171C97.5677 32.446 97.6097 33.3614 98.075 33.5622C98.5439 33.7629 99.2646 33.1708 99.6844 32.2385C100.101 31.3095 100.062 30.3908 99.5935 30.1934C99.1246 29.9926 98.4074 30.5847 97.9876 31.5171Z" fill="#231F20"/>
<path d="M105.8 34.6644C105.38 35.5967 105.422 36.5121 105.887 36.7128C106.356 36.9102 107.077 36.3181 107.497 35.3892C107.916 34.4568 107.874 33.5414 107.406 33.3407C106.937 33.1433 106.219 33.7354 105.8 34.6644Z" fill="#231F20"/>
<path d="M100.535 46.1936C105.751 41.7734 108.98 34.7908 110.296 31.6364L94.5589 24.9635C93.8906 24.9669 92.2498 25.0724 90.7523 26.1919C87.9289 28.2983 88.3243 31.9937 88.3522 32.2115C87.6945 32.0618 87.0402 31.9155 86.3825 31.7691C86.2775 31.2383 86.1971 30.602 86.2041 29.8772C86.2181 28.5024 86.5469 27.3795 86.8443 26.6207C86.8338 26.3723 86.7604 25.3276 85.9032 24.5382C85.004 23.7079 83.7165 23.6126 82.8069 23.9155C81.0295 24.5076 80.4453 26.716 80.5012 28.1315C80.5922 30.602 82.6739 32.038 82.9433 32.2149C82.9328 32.2727 82.9223 32.334 82.9118 32.3918C81.7573 38.6802 83.825 44.5466 88.0828 47.1157C88.4152 47.3165 89.0695 47.684 89.9581 48.0311C91.4975 48.6232 93.7367 49.1472 96.1613 48.5687C97.9351 48.1468 99.2716 47.2655 100.538 46.1936H100.535ZM107.497 35.3897C107.077 36.3187 106.356 36.9108 105.888 36.7134C105.422 36.5126 105.38 35.5973 105.8 34.6649C106.22 33.7359 106.937 33.1439 107.406 33.3412C107.875 33.542 107.917 34.4573 107.497 35.3897ZM98.075 33.5624C97.6097 33.3616 97.5677 32.4463 97.9876 31.5173C98.4074 30.585 99.1247 29.9929 99.5935 30.1936C100.062 30.391 100.101 31.3098 99.6844 32.2387C99.2646 33.1711 98.5439 33.7632 98.075 33.5624Z" fill="white"/>
<path d="M109.68 149.774C109.337 151.241 109.414 152.987 110.369 153.708C110.684 153.946 111.041 154.031 111.324 154.062C110.768 152.31 111.506 149.356 112.472 148.441L112.423 148.39C111.87 147.614 111.45 147.403 111.132 147.447C110.533 147.532 109.96 148.556 109.68 149.774Z" fill="#7099ED"/>
<path d="M112.777 151.559C112.686 151.889 112.745 152.454 113.161 155.163C113.175 155.255 113.189 155.343 113.203 155.428C113.382 156.606 113.466 157.038 113.669 157.334C113.693 157.368 113.753 157.443 113.83 157.521C114.494 158.202 115.6 158.236 116.216 158.198C116.027 157.582 115.943 156.813 115.838 155.881C115.646 154.179 115.516 153.043 116.258 151.961C116.331 151.852 116.559 151.522 116.937 151.195C116.891 150.28 116.506 149.96 116.373 149.868C115.911 149.538 115.159 149.586 114.456 149.892C113.774 150.185 113.133 150.722 112.843 151.396C112.815 151.457 112.794 151.501 112.78 151.559H112.777Z" fill="#7099ED"/>
<path d="M112.052 155.143C112.409 155.385 112.828 155.439 113.199 155.429C113.185 155.344 113.171 155.255 113.157 155.163C112.741 152.455 112.681 151.89 112.772 151.56C112.786 151.502 112.807 151.458 112.835 151.397C113.126 150.723 113.766 150.185 114.448 149.893L114.382 149.746C114.413 149.569 114.431 149.297 114.312 149.018C114.217 148.804 114.056 148.617 113.871 148.474C113.581 148.249 113.231 148.13 112.972 148.164C112.8 148.188 112.632 148.283 112.468 148.44C111.502 149.355 110.764 152.309 111.32 154.061C111.464 154.527 111.702 154.905 112.048 155.143H112.052Z" fill="#7099ED"/>
<path d="M38.4541 117.06L76.4006 134.489L81.6381 136.895L109.68 149.775C109.96 148.557 110.534 147.532 111.132 147.447C111.45 147.403 111.87 147.614 112.423 148.39L112.472 148.441C112.636 148.284 112.804 148.189 112.976 148.165C113.235 148.131 113.584 148.25 113.875 148.475C113.826 148.335 113.602 147.614 113.99 147.022C114.428 146.355 115.484 146.072 116.506 146.481C116.212 146.345 115.936 146.188 115.687 146.018L115.68 146.011L111.335 144.017L81.2848 130.215L76.0962 127.83L35.9175 109.377L33.9058 108.451C34.1087 110.023 34.0842 111.374 33.9898 112.446C33.9373 113.025 33.8603 113.933 33.6924 114.872L38.4541 117.06Z" fill="white"/>
<path d="M116.215 158.199C116.394 158.791 116.663 159.24 117.129 159.563C117.674 159.941 118.409 160.104 120.218 159.832C121.74 159.601 124.059 159.056 126.757 157.617L120.281 154.643C120.498 154.197 120.858 153.326 120.89 152.469C120.911 151.968 120.82 151.475 120.526 151.067C120.036 150.386 118.843 150.441 118.65 150.454C117.912 150.498 117.338 150.842 116.936 151.196C116.558 151.523 116.331 151.853 116.257 151.962C115.516 153.044 115.645 154.18 115.837 155.882C115.942 156.814 116.026 157.583 116.215 158.199Z" fill="#7099ED"/>
<path d="M112.945 139.46C112.672 139.882 112.392 140.389 112.147 140.985C111.702 142.053 111.524 143.026 111.454 143.768L111.335 144.017L115.68 146.011L115.687 146.017L117.5 146.848C117.213 146.766 116.943 146.671 116.685 146.558C116.625 146.531 116.566 146.504 116.506 146.48C115.485 146.072 114.428 146.354 113.991 147.021C113.602 147.613 113.826 148.335 113.875 148.474C114.061 148.617 114.222 148.804 114.316 149.019C114.435 149.298 114.417 149.57 114.386 149.747L114.452 149.893C115.156 149.587 115.908 149.539 116.37 149.869C116.503 149.961 116.888 150.281 116.933 151.193C117.335 150.843 117.909 150.499 118.647 150.455C118.84 150.441 120.033 150.387 120.523 151.067C120.817 151.475 120.907 151.969 120.886 152.469C121.247 152.53 121.982 152.595 122.615 152.18C123.374 151.683 123.524 150.798 123.654 150.05C123.675 149.931 123.689 149.811 123.699 149.699L128.192 151.761C128.503 150.087 128.832 147.069 127.873 143.499C127.058 140.45 125.634 138.242 124.644 136.946C123.993 135.203 122.937 132.376 121.537 128.67C116.964 128.68 113.886 130.041 112.28 130.933C111.332 131.457 109.565 132.44 108.603 133.679C108.165 134.244 107.896 134.86 107.945 135.51C108.004 136.268 108.477 136.837 108.865 137.306C110.258 138.977 112.241 139.358 112.941 139.46H112.945Z" fill="#7099ED"/>
<path d="M120.281 154.643L126.757 157.618L155.114 170.643C156.016 168.884 156.923 167.128 157.825 165.372L128.195 151.761L123.703 149.699C123.692 149.812 123.678 149.931 123.657 150.05C123.528 150.798 123.377 151.683 122.618 152.18C121.985 152.595 121.25 152.53 120.89 152.469C120.858 153.327 120.498 154.198 120.281 154.643Z" fill="white"/>
<path d="M165.285 168.796L157.825 165.373C156.923 167.129 156.017 168.885 155.114 170.644L164.109 174.775L166.023 175.656L166.254 175.711C166.548 174.486 166.915 173.196 167.37 171.859C167.58 171.246 167.786 170.641 167.996 170.042L165.285 168.796Z" fill="#7099ED"/>
<path d="M164.108 174.777L162.558 183.927L165.088 183.465C165.214 181.437 165.511 178.769 166.253 175.71L166.022 175.655L164.108 174.777Z" fill="#7099ED"/>
<path d="M162.559 183.928L165.953 189.178L221.662 174.774L220.431 174.274L218.835 173.631L165.089 183.465L162.559 183.928Z" fill="#7099ED"/>
<path d="M165.883 166.58L165.285 168.796L167.996 170.041C168.528 168.523 169.084 167.057 169.756 165.658L165.883 166.58Z" fill="#7099ED"/>
<path d="M220.913 156.062L208.84 157.512C210.148 157.985 211.572 158.353 213.416 158.485C213.416 158.485 214.742 158.581 216.449 159.06H216.453L224.982 157.427L220.913 156.062Z" fill="#7099ED"/>
<path d="M220.43 174.273L221.662 174.773C223.002 173.004 225.815 168.757 225.825 162.945C225.829 160.757 225.437 158.882 224.982 157.426L216.452 159.059C217.572 159.372 218.852 159.849 220.028 160.57C220.924 161.121 221.623 162.071 221.623 162.071C222.746 163.272 223.432 164.357 223.565 164.589C224.618 166.402 223.317 170.333 220.43 174.273Z" fill="#7099ED"/>
<path d="M89.9541 48.0293C89.5902 48.5227 89.1914 49.159 88.845 49.9383C88.5826 50.5338 88.4007 51.0986 88.2747 51.6124C88.1523 52.1127 88.0823 52.5618 88.0403 52.9463" stroke="#231F20" stroke-width="0.99" stroke-linecap="round" stroke-linejoin="round"/>
<path d="M79.1895 18.4492C77.2792 22.4237 75.3654 26.3947 73.4446 30.3658C72.8953 31.4989 72.3461 32.6321 71.8003 33.7652C70.6002 36.239 69.4002 38.7095 68.1931 41.1799C68.0672 41.4419 67.9377 41.7005 67.8118 41.9625" stroke="#231F20" stroke-width="0.99" stroke-linecap="round" stroke-linejoin="round"/>
<path d="M94.5554 24.9635C93.8871 24.9669 92.2463 25.0724 90.7488 26.1919C87.9254 28.2983 88.3208 31.9937 88.3487 32.2115C87.691 32.0618 87.0367 31.9155 86.379 31.7691C86.274 31.2383 86.1936 30.602 86.2006 29.8772C86.2146 28.5024 86.5434 27.3795 86.8408 26.6207C86.8303 26.3723 86.7569 25.3276 85.8997 24.5382C85.0005 23.7079 83.713 23.6126 82.8034 23.9155C81.026 24.5076 80.4418 26.716 80.4977 28.1315C80.5887 30.602 82.6704 32.038 82.9398 32.2149C82.9293 32.2727 82.9188 32.334 82.9083 32.3918C81.7538 38.6802 83.8215 44.5466 88.0794 47.1157C88.4117 47.3165 89.066 47.684 89.9546 48.0311C91.494 48.6232 93.7332 49.1472 96.1578 48.5687C97.9316 48.1468 99.2681 47.2655 100.535 46.1936C105.751 41.7734 108.98 34.7908 110.296 31.6364" stroke="#231F20" stroke-width="0.99" stroke-linecap="round" stroke-linejoin="round"/>
<path d="M82.9082 32.3906C81.0469 32.5846 79.1541 32.8024 77.2334 33.0406C75.3931 33.2685 73.5773 33.5101 71.7999 33.7654" stroke="#231F20" stroke-width="0.99" stroke-linecap="round" stroke-linejoin="round"/>
<path d="M79.1891 18.4497L76.5476 17.3301L77.3662 15.4994L78.7657 12.3791C83.3735 2.08902 95.6853 -2.61705 106.262 1.86784C114.123 5.19917 118.815 12.6649 118.815 20.5049C118.815 23.2136 118.255 25.9698 117.069 28.6138C116.299 30.3356 117.108 32.3433 118.881 33.0953L119.809 33.49L118.99 35.3173L114.851 33.5649L110.296 31.6355L94.5587 24.9626L79.1926 18.4497H79.1891Z" stroke="#231F20" stroke-width="0.99" stroke-linecap="round" stroke-linejoin="round"/>
<path d="M109.617 13.166C109.662 14.0099 109.792 18.1069 106.661 21.3191C105.034 22.9865 103.197 23.7249 102.14 24.0584" stroke="#231F20" stroke-width="0.99" stroke-linecap="round" stroke-linejoin="round"/>
<path d="M91.2732 54.0391C91.714 54.444 92.1689 54.8864 92.6307 55.3696C92.6307 55.3696 95.1357 57.9693 97.151 61.2019C101.962 68.9127 105.058 83.7727 106.101 89.2036C106.538 91.4732 107.021 94.0491 107.539 96.9007C107.962 99.2146 108.41 101.712 108.868 104.37C109.501 105.016 110.418 106 111.429 107.262C115.11 111.853 116.709 115.95 119.319 122.813C120.13 124.95 120.872 126.91 121.54 128.669C122.94 132.375 123.996 135.203 124.647 136.945C125.637 138.241 127.061 140.45 127.876 143.499C128.835 147.068 128.506 150.086 128.195 151.761" stroke="#231F20" stroke-width="0.99" stroke-linecap="round" stroke-linejoin="round"/>
<path d="M88.4045 51.6406C89.1987 52.2327 90.1889 53.029 91.2734 54.0362" stroke="#231F20" stroke-width="0.99" stroke-linecap="round" stroke-linejoin="round"/>
<path d="M121.54 128.67C116.967 128.68 113.888 130.041 112.283 130.933C111.334 131.457 109.568 132.44 108.605 133.679C108.168 134.244 107.899 134.86 107.948 135.51C108.007 136.268 108.48 136.837 108.868 137.306C110.26 138.977 112.244 139.358 112.944 139.46" stroke="#231F20" stroke-width="0.99" stroke-linecap="round" stroke-linejoin="round"/>
<path d="M107.542 96.9004H107.538C106.758 97.3291 105.604 97.9178 104.162 98.5371C101.276 99.7689 97.6757 101.27 93.0925 101.273C92.8966 101.273 92.6901 101.27 92.4662 101.263C91.4341 101.232 90.0976 101.116 88.5477 100.783" stroke="#231F20" stroke-width="0.99" stroke-linecap="round" stroke-linejoin="round"/>
<path d="M92.4668 101.264C92.9497 103.84 93.7369 107.603 94.9719 112.122C95.5177 114.109 95.997 115.685 96.1369 116.127C98.1067 122.364 103.82 128.949 108.596 133.669" stroke="#231F20" stroke-width="0.99" stroke-linecap="round" stroke-linejoin="round"/>
<path d="M68.123 41.1454C66.9825 40.88 65.681 40.6146 64.2395 40.3866C62.3887 40.0906 60.3035 39.8524 58.0224 39.7503C56.371 39.672 54.6147 39.6652 52.7674 39.7537C51.5464 39.8115 47.0051 40.0736 41.3127 41.5163C31.2786 44.065 23.2981 48.8698 17.8227 52.9667C17.4658 53.2288 17.1195 53.4942 16.7836 53.7528C15.2617 54.5899 13.4249 55.6379 11.3397 56.8936C9.25446 58.1492 6.92433 59.6124 4.41929 61.29C4.45777 63.4984 4.65021 65.8736 5.06305 68.3814C6.81938 79.039 11.756 87.0866 15.6745 92.1636" stroke="#231F20" stroke-width="0.99" stroke-linecap="round" stroke-linejoin="round"/>
<path d="M20.5654 68.2012C21.1497 68.4087 21.9508 68.7762 22.6856 69.4568C22.976 69.7256 23.2244 70.0115 23.4343 70.3177C24.7113 72.1756 24.6378 74.7277 24.8093 78.1646C24.9177 80.3321 25.1591 83.4933 25.7539 87.4134" stroke="#231F20" stroke-width="0.99" stroke-linecap="round" stroke-linejoin="round"/>
<path d="M27.9229 68.7871C27.8879 68.8007 27.8564 68.8143 27.8214 68.8279C26.9502 69.1818 26.0161 69.5255 25.019 69.8454C24.4802 70.0189 23.9519 70.1755 23.4341 70.3184" stroke="#231F20" stroke-width="0.99" stroke-linecap="round" stroke-linejoin="round"/>
<path d="M52.3994 58.8677C51.0034 60.8583 48.9042 63.4138 45.8814 65.874C45.514 66.1735 45.1362 66.4729 44.7408 66.7655C43.3484 67.8068 41.9524 68.6881 40.5914 69.4333C36.6099 71.6179 32.9398 72.6354 30.5292 73.139C29.6266 71.703 28.7239 70.2636 27.8213 68.8276C24.543 63.6043 21.2613 58.3879 17.9795 53.168" stroke="#231F20" stroke-width="0.99" stroke-linecap="round" stroke-linejoin="round"/>
<path d="M58.0216 39.748C58.235 43.3312 57.9971 46.1419 57.7977 47.8297C57.0525 54.084 54.9638 60.3792 52.2908 66.215C47.5256 76.6344 40.9131 85.5837 36.7987 90.2081C35.7071 91.4399 34.7869 92.3621 34.1292 92.9269C33.8248 93.189 32.8697 93.975 32.6527 95.217C32.5443 95.8261 32.6352 96.442 32.8697 97.0545C33.5239 98.7457 35.3117 100.416 37.2675 101.856" stroke="#231F20" stroke-width="0.99" stroke-linecap="round" stroke-linejoin="round"/>
<path d="M40.6094 69.4609C40.1755 72.2785 39.6997 75.1436 39.1819 78.053C38.4367 82.2214 37.639 86.2742 36.7993 90.2078C36.7923 90.2452 36.7853 90.2792 36.7783 90.3167" stroke="#231F20" stroke-width="0.99" stroke-linecap="round" stroke-linejoin="round"/>
<path d="M64.2395 40.3848C64.4214 42.6476 64.4879 45.0874 64.3724 47.6974C63.9945 56.0785 61.8569 63.0712 59.6912 68.2401C59.6807 68.2571 59.6737 68.2775 59.6667 68.2945" stroke="#231F20" stroke-width="0.99" stroke-linecap="round" stroke-linejoin="round"/>
<path d="M88.4045 51.6406C88.5095 52.2735 88.611 52.9167 88.6949 53.5734C88.8209 54.4649 88.9259 55.3803 89.0098 56.3127C89.846 65.5615 88.4885 73.735 86.5852 80.2718" stroke="#231F20" stroke-width="0.99" stroke-linecap="round" stroke-linejoin="round"/>
<path d="M91.2734 54.0352C91.7072 55.7434 92.274 58.2716 92.6763 61.358C93.5965 68.463 92.7533 71.6991 91.2769 83.6089C91.1509 84.6467 91.0145 85.756 90.878 86.9368C90.878 86.9368 90.0943 93.6539 88.5479 100.783C87.5788 105.244 86.3123 109.868 84.7519 113.108C84.5035 113.625 84.1466 114.241 83.6113 114.87C82.7086 115.925 81.6135 116.647 80.5185 117.14C79.5213 117.596 78.5207 117.861 77.6601 118.032" stroke="#231F20" stroke-width="0.99" stroke-linecap="round" stroke-linejoin="round"/>
<path d="M80.5184 117.141C81.3825 117.75 81.575 118.284 81.603 118.638C81.6554 119.267 81.2426 119.934 80.4449 120.588C79.4373 121.415 77.8174 122.214 75.7497 122.874C75.2984 123.017 74.8261 123.153 74.3362 123.283" stroke="#231F20" stroke-width="0.99" stroke-linecap="round" stroke-linejoin="round"/>
<path d="M80.4455 120.588C80.5924 121.704 80.7254 122.851 80.8408 124.025C81.0577 126.162 81.2012 128.231 81.2852 130.214" stroke="#231F20" stroke-width="0.99" stroke-linecap="round" stroke-linejoin="round"/>
<path d="M35.9277 109.353C36.0256 109.251 37.4881 107.648 36.8968 105.514C36.309 103.384 34.2238 102.711 34.0873 102.67C33.769 101.935 33.3736 101.149 32.8838 100.332C32.3485 99.4438 31.7817 98.651 31.215 97.9568C30.5607 97.1537 29.9064 96.4766 29.3012 95.9083C29.3012 95.6973 29.2767 95.4285 29.1927 95.1257C29.0283 94.554 28.7239 94.1559 28.5245 93.9381C29.2067 90.7803 28.8394 88.167 27.4154 87.4081C27.0341 87.204 26.6072 87.1529 25.7535 87.4149C24.9593 87.6599 23.7978 88.1738 21.9505 89.0925C19.2495 90.4332 17.1958 91.4609 15.7893 92.3388C14.2534 93.295 13.4907 94.0708 13.5047 94.8807C13.5152 95.3469 13.7251 96.7216 16.9649 98.3141" stroke="#231F20" stroke-width="0.99" stroke-linecap="round" stroke-linejoin="round"/>
<path d="M33.577 106.592C33.724 107.238 33.8324 107.861 33.9059 108.45C34.1088 110.022 34.0843 111.373 33.9899 112.445C33.9374 113.023 33.8604 113.932 33.6925 114.871C33.4056 116.508 32.8458 118.243 31.7087 118.505C30.7326 118.726 29.7985 117.767 29.69 117.647C29.0638 116.987 28.7943 116.028 28.9308 115.01C29.0078 114.384 29.2387 113.734 29.6305 113.118" stroke="#231F20" stroke-width="0.99" stroke-linecap="round" stroke-linejoin="round"/>
<path d="M28.9268 115.01C28.6119 115.214 27.9436 115.575 27.1389 115.476C25.8689 115.316 24.7598 114.067 24.5779 112.38C23.5073 112.38 21.7895 112.199 20.432 111.066C20.1451 110.824 19.5678 110.266 18.8506 108C18.6057 107.231 18.3468 106.265 18.0739 105.043C17.7905 103.767 17.5911 102.648 17.4511 101.746C17.4021 101.423 17.3602 101.127 17.3217 100.865C17.1957 100.793 16.7269 100.504 16.552 99.9253C16.2861 99.0576 16.9298 98.3498 16.9648 98.3124C17.3707 97.8394 17.9619 97.2541 18.7666 96.6961C19.5923 96.1244 20.3795 95.7705 20.9813 95.5527" stroke="#231F20" stroke-width="0.99" stroke-linecap="round" stroke-linejoin="round"/>
<path d="M116.685 146.559C116.943 146.671 117.213 146.766 117.5 146.848C117.794 146.929 118.102 146.994 118.42 147.042" stroke="#231F20" stroke-width="0.99" stroke-linecap="round" stroke-linejoin="round"/>
<path d="M115.687 146.018C115.936 146.188 116.212 146.344 116.506 146.48" stroke="#231F20" stroke-width="0.99" stroke-linecap="round" stroke-linejoin="round"/>
<path d="M114.543 141.457C113.951 142.386 113.958 143.138 113.99 143.475C114.081 144.431 114.7 145.34 115.68 146.01" stroke="#231F20" stroke-width="0.99" stroke-linecap="round" stroke-linejoin="round"/>
<path d="M126.757 157.617C124.059 159.056 121.74 159.601 120.218 159.832C118.409 160.104 117.674 159.941 117.129 159.563C116.663 159.24 116.394 158.791 116.215 158.199C116.026 157.583 115.942 156.814 115.837 155.882C115.645 154.18 115.516 153.044 116.257 151.962C116.331 151.853 116.558 151.523 116.936 151.196C117.338 150.842 117.912 150.498 118.65 150.454C118.843 150.441 120.036 150.386 120.526 151.067C120.82 151.475 120.911 151.968 120.89 152.469C120.858 153.326 120.498 154.197 120.281 154.643C120.207 154.8 120.148 154.905 120.127 154.939C119.868 155.375 119.588 155.701 119.364 155.926" stroke="#231F20" stroke-width="0.99" stroke-linecap="round" stroke-linejoin="round"/>
<path d="M125.893 147.178C125.732 147.365 125.371 147.726 124.787 147.94C124.336 148.107 123.919 148.124 123.611 148.103C123.423 148.086 123.276 148.056 123.185 148.032" stroke="#231F20" stroke-width="0.99" stroke-linecap="round" stroke-linejoin="round"/>
<path d="M116.32 158.191C116.289 158.191 116.254 158.198 116.215 158.198C115.6 158.236 114.494 158.202 113.829 157.521C113.752 157.443 113.693 157.368 113.668 157.334C113.465 157.038 113.381 156.606 113.203 155.428C113.189 155.343 113.175 155.255 113.161 155.163C112.745 152.454 112.685 151.889 112.776 151.559C112.79 151.501 112.811 151.457 112.839 151.396C113.13 150.722 113.77 150.185 114.452 149.892C115.155 149.586 115.908 149.538 116.369 149.868C116.502 149.96 116.887 150.28 116.933 151.192" stroke="#231F20" stroke-width="0.99" stroke-linecap="round" stroke-linejoin="round"/>
<path d="M114.386 149.746C114.417 149.569 114.435 149.297 114.316 149.018C114.222 148.804 114.061 148.617 113.875 148.474C113.585 148.249 113.235 148.13 112.976 148.164C112.805 148.188 112.637 148.283 112.472 148.44C111.507 149.355 110.768 152.309 111.325 154.061C111.468 154.527 111.706 154.905 112.052 155.143C112.409 155.385 112.829 155.439 113.2 155.429" stroke="#231F20" stroke-width="0.99" stroke-linecap="round" stroke-linejoin="round"/>
<path d="M112.423 148.39C111.87 147.614 111.45 147.403 111.132 147.447C110.534 147.532 109.96 148.556 109.68 149.774C109.337 151.241 109.414 152.987 110.369 153.708C110.684 153.946 111.041 154.031 111.324 154.062" stroke="#231F20" stroke-width="0.99" stroke-linecap="round" stroke-linejoin="round"/>
<path d="M123.611 148.1C123.692 148.474 123.769 149.032 123.702 149.699C123.692 149.811 123.678 149.93 123.657 150.049C123.527 150.798 123.377 151.683 122.618 152.18C121.984 152.595 121.25 152.53 120.889 152.469" stroke="#231F20" stroke-width="0.99" stroke-linecap="round" stroke-linejoin="round"/>
<path d="M116.685 146.557C116.625 146.53 116.566 146.503 116.506 146.479C115.485 146.071 114.428 146.353 113.991 147.02C113.602 147.612 113.826 148.333 113.875 148.473" stroke="#231F20" stroke-width="0.99" stroke-linecap="round" stroke-linejoin="round"/>
<path d="M114.841 137.436C114.592 137.517 114.082 137.725 113.627 138.208C113.172 138.698 113.004 139.212 112.945 139.46" stroke="#231F20" stroke-width="0.99" stroke-linecap="round" stroke-linejoin="round"/>
<path d="M112.944 139.459C112.671 139.881 112.392 140.388 112.147 140.983C111.702 142.052 111.524 143.025 111.454 143.767" stroke="#231F20" stroke-width="0.99" stroke-linecap="round" stroke-linejoin="round"/>
<path d="M119.459 135.938C119.858 135.839 120.351 135.757 120.911 135.733C121.855 135.699 122.639 135.849 123.195 136.006" stroke="#231F20" stroke-width="0.99" stroke-linecap="round" stroke-linejoin="round"/>
<path d="M32.6426 97.1328C32.4571 97.16 32.1528 97.2281 31.8274 97.422C31.5195 97.6024 31.3236 97.8168 31.2151 97.9563" stroke="#231F20" stroke-width="0.99" stroke-linecap="round" stroke-linejoin="round"/>
<path d="M44.9268 109.89C43.5378 108.951 41.8829 107.617 40.312 105.763C39.5738 104.892 38.965 104.041 38.4647 103.248" stroke="#231F20" stroke-width="0.99" stroke-linecap="round" stroke-linejoin="round"/>
<path d="M57.126 188.827C56.8181 183.713 56.4332 179.33 56.0904 175.896C55.0653 165.674 53.7882 157.787 53.1375 153.996C52.5427 150.539 51.9864 147.646 51.5666 145.561C48.9251 152.329 46.3746 159.373 43.957 166.695C35.7386 191.577 30.5571 215.104 27.3628 236.521" stroke="#231F20" stroke-width="0.99" stroke-linecap="round" stroke-linejoin="round"/>
<path d="M25.1309 234.408C25.3968 234.531 26.6319 235.136 27.3631 236.521C27.4576 236.698 27.545 236.892 27.622 237.1C28.2238 238.743 27.6815 240.156 27.5065 240.554C27.4995 240.571 27.4925 240.588 27.4855 240.601" stroke="#231F20" stroke-width="0.99" stroke-linecap="round" stroke-linejoin="round"/>
<path d="M22.6852 236.742C23.7942 237.263 25.2847 238.144 26.6561 239.614C26.9465 239.924 27.2369 240.233 27.5063 240.553C28.1676 241.326 28.7274 242.163 28.9618 243.293C29.4376 245.579 28.29 247.509 27.8492 248.169" stroke="#231F20" stroke-width="0.99" stroke-linecap="round" stroke-linejoin="round"/>
<path d="M27.1396 115.477C25.8591 122.132 24.4877 128.873 23.0217 135.696C22.5914 137.697 22.1575 139.691 21.7167 141.675C18.7428 155.102 15.5556 168.108 12.2073 180.681C12.1968 180.732 12.1828 180.78 12.1689 180.831" stroke="#231F20" stroke-width="0.99" stroke-linecap="round" stroke-linejoin="round"/>
<path d="M13.6445 180.092C13.1057 180.201 12.6159 180.405 12.2066 180.68C11.5558 181.116 11.108 181.735 10.975 182.43C10.8386 183.141 11.0695 183.75 11.2235 184.063" stroke="#231F20" stroke-width="0.99" stroke-linecap="round" stroke-linejoin="round"/>
<path d="M13.0225 183.523C12.7636 183.574 12.4837 183.643 12.1898 183.728C11.8329 183.83 11.511 183.945 11.2241 184.064C9.51329 192.452 8.25376 199.493 7.3686 204.706C6.20704 211.573 5.45833 217.218 5.04898 220.522C4.91603 221.614 4.81459 222.485 4.71663 223.302C3.9959 229.461 3.48158 234.572 3.12822 238.349" stroke="#231F20" stroke-width="0.99" stroke-linecap="round" stroke-linejoin="round"/>
<path d="M4.7168 236.697C4.27946 237.048 3.68817 237.585 3.12839 238.348C3.05492 238.446 2.98845 238.545 2.91848 238.647C1.54 240.716 1.519 242.785 1.533 243.428C1.58897 245.616 2.50563 247.181 2.93947 247.831" stroke="#231F20" stroke-width="0.99" stroke-linecap="round" stroke-linejoin="round"/>
<path d="M28.021 249.094C27.965 248.784 27.9055 248.478 27.8495 248.168C27.7131 247.426 27.5766 246.681 27.4402 245.939C26.3731 244.81 23.9835 242.615 20.2189 241.611C15.4713 240.342 11.5597 241.774 10.0448 242.349C8.18702 243.057 5.25165 244.051 3.47083 246.793C3.33438 247.008 3.17343 247.277 2.93902 247.831C2.75009 248.277 2.51219 248.91 2.20431 249.842C1.58854 251.697 0.804843 254.368 0.171584 257.74C10.6921 257.771 21.2126 257.801 31.7296 257.832C31.8065 256.971 31.824 255.583 31.3622 253.973C31.0333 252.837 30.519 251.054 28.8222 249.665C28.5563 249.448 28.2869 249.26 28.0175 249.1C26.7824 248.352 25.5404 248.127 24.8092 248.049" stroke="#231F20" stroke-width="0.99" stroke-linecap="round" stroke-linejoin="round"/>
<path d="M81.6377 136.895C81.9036 140.314 82.11 143.51 82.2744 146.446C82.6103 152.37 82.7677 157.233 82.8482 160.728C83.352 182.165 82.019 192.462 82.4808 216.37C82.6278 224.027 82.9007 230.169 83.0791 233.69" stroke="#231F20" stroke-width="0.99" stroke-linecap="round" stroke-linejoin="round"/>
<path d="M80.6336 226.602C80.7035 228.034 81.0184 230.032 82.11 232.121C82.4179 232.706 82.7468 233.23 83.0791 233.69C85.3148 233.625 87.2321 235.078 87.6484 237.011C87.9808 238.569 87.2985 240.233 85.9061 241.254C85.8921 241.261 85.8816 241.271 85.8676 241.281" stroke="#231F20" stroke-width="0.99" stroke-linecap="round" stroke-linejoin="round"/>
<path d="M84.9727 238.448C84.6893 238.431 84.4129 238.421 84.1435 238.414C82.6041 238.359 81.3585 238.404 80.5433 238.448C77.496 238.615 67.2694 239.305 59.4569 246.21C58.8971 246.706 58.4737 247.125 58.2533 247.346" stroke="#231F20" stroke-width="0.99" stroke-linecap="round" stroke-linejoin="round"/>
<path d="M60.2441 186.756C58.9007 186.984 57.7601 187.756 57.1268 188.828C56.9869 189.066 56.8714 189.318 56.784 189.584C56.2487 191.207 57.0044 192.595 57.1513 192.854" stroke="#231F20" stroke-width="0.99" stroke-linecap="round" stroke-linejoin="round"/>
<path d="M59.6875 190.794C59.5336 190.76 58.7359 190.617 57.9801 191.107C57.3854 191.491 57.1685 192.046 57.1055 192.23C57.1195 192.437 57.137 192.645 57.151 192.852C58.2915 208.519 58.7219 224.624 58.3055 241.138C58.2775 242.217 58.246 243.295 58.2111 244.371" stroke="#231F20" stroke-width="0.99" stroke-linecap="round" stroke-linejoin="round"/>
<path d="M59.873 242.217C59.5302 242.455 58.6485 243.139 58.2112 244.371C57.7599 245.64 58.0397 246.766 58.2532 247.345C58.3126 247.505 58.3651 247.62 58.3966 247.688" stroke="#231F20" stroke-width="0.99" stroke-linecap="round" stroke-linejoin="round"/>
<path d="M84.1431 238.41C84.409 238.955 84.7204 239.513 85.0878 240.084C85.3536 240.496 85.6265 240.887 85.9064 241.255C86.9315 242.606 88.0301 243.65 89.0098 244.437" stroke="#231F20" stroke-width="0.99" stroke-linecap="round" stroke-linejoin="round"/>
<path d="M58.3966 247.689C58.2846 248.642 58.1902 249.632 58.1202 250.653C57.9628 252.953 57.9488 255.114 58.0292 257.115H100.199C101.199 255.008 101.101 253.419 100.937 252.538C100.188 248.56 95.4755 245.222 89.0029 244.49C88.5306 244.436 88.0478 244.395 87.5545 244.371" stroke="#231F20" stroke-width="0.99" stroke-linecap="round" stroke-linejoin="round"/>
<path d="M18.998 246.794C17.7455 246.655 16.0592 246.594 14.1069 246.883C12.466 247.128 11.0945 247.553 10.0449 247.962" stroke="#231F20" stroke-width="0.99" stroke-linecap="round" stroke-linejoin="round"/>
<path d="M118.217 147.178L117.5 146.848L115.687 146.018L115.68 146.011L111.335 144.017L81.2849 130.215L76.0963 127.83L35.9176 109.377L33.9059 108.451" stroke="#231F20" stroke-width="0.99" stroke-linecap="round" stroke-linejoin="round"/>
<path d="M167.996 170.041L165.285 168.796L157.825 165.372L128.195 151.761L123.703 149.699" stroke="#231F20" stroke-width="0.99" stroke-linecap="round" stroke-linejoin="round"/>
<path d="M109.68 149.774L81.6379 136.894L76.4004 134.488L38.4538 117.059L33.6921 114.871" stroke="#231F20" stroke-width="0.99" stroke-linecap="round" stroke-linejoin="round"/>
<path d="M164.108 174.774L155.113 170.643L126.757 157.617L120.281 154.643" stroke="#231F20" stroke-width="0.99" stroke-linecap="round" stroke-linejoin="round"/>
<path d="M166.022 175.655L164.109 174.777" stroke="#231F20" stroke-width="0.99" stroke-linecap="round" stroke-linejoin="round"/>
<path d="M17.4588 101.732C17.4588 101.732 17.4553 101.743 17.4518 101.746C17.1264 102.376 16.7555 103.23 16.5036 104.278C16.2692 105.271 16.2027 106.153 16.2062 106.837C17.0634 107.231 17.9206 107.626 18.7812 108.021" stroke="#231F20" stroke-width="0.99" stroke-linecap="round" stroke-linejoin="round"/>
<path d="M91.2773 83.6101C89.7729 82.5281 88.1845 81.446 86.5157 80.3775C85.536 79.7548 84.5319 79.1355 83.4963 78.523C75.1905 73.6195 67.0316 70.3903 59.6914 68.2397C57.3403 67.5489 55.0696 66.9705 52.9075 66.4805" stroke="#231F20" stroke-width="0.99" stroke-linecap="round" stroke-linejoin="round"/>
<path d="M83.5347 92.0427C83.8041 92.2332 84.0665 92.4238 84.3254 92.6144C84.7382 91.7909 85.1651 90.8007 85.5254 89.6539C85.9138 88.4187 86.1342 87.2924 86.2637 86.3328C83.6432 84.6654 80.7253 82.9912 77.496 81.3953C70.1628 77.7679 63.2494 75.5357 57.3822 74.127C57.0113 76.0121 56.6439 77.8973 56.2731 79.779C61.8465 81.0823 68.7493 83.3213 76.0196 87.3196C78.8185 88.8577 81.3165 90.4604 83.5347 92.0427Z" stroke="#231F20" stroke-width="0.99" stroke-linecap="round" stroke-linejoin="round"/>
<path d="M88.6982 53.5701C88.2364 54.5059 87.3932 55.85 85.8958 56.8504C81.1236 60.032 73.2061 57.7249 69.1022 53.2162C67.1709 51.0929 64.3685 46.5944 66.1143 43.2426C66.6426 42.232 67.4543 41.5684 68.1261 41.1465" stroke="#231F20" stroke-width="0.99" stroke-linecap="round" stroke-linejoin="round"/>
<path d="M83.5342 92.041C81.8618 97.2371 79.0489 103.359 74.1752 109.215C73.3251 110.239 72.4574 111.195 71.5932 112.087C68.1715 111.073 64.5224 109.834 60.7019 108.317C54.992 106.047 49.961 103.566 45.6156 101.137C47.3614 98.5812 49.1563 95.6684 50.8776 92.3881C53.2602 87.8454 54.9955 83.5681 56.2726 79.7773" stroke="#231F20" stroke-width="0.99" stroke-linecap="round" stroke-linejoin="round"/>
<path d="M28.2236 95.9785C27.8143 95.9785 27.3315 96.0091 26.7927 96.1112C25.918 96.278 25.2148 96.574 24.718 96.8292" stroke="#231F20" stroke-width="0.99" stroke-linecap="round" stroke-linejoin="round"/>
<path d="M95.0272 73.0039C95.1217 73.5994 95.3526 75.5458 94.1526 77.4922C93.3724 78.758 92.3333 79.4556 91.7665 79.7823" stroke="#231F20" stroke-width="0.99" stroke-linecap="round" stroke-linejoin="round"/>
<path d="M49.4473 68.6507C49.1534 68.6609 48.1563 68.6507 47.2151 67.9633C46.183 67.2045 45.9381 66.1428 45.8821 65.874V65.8672" stroke="#231F20" stroke-width="0.99" stroke-linecap="round" stroke-linejoin="round"/>
<path d="M221.662 174.774L220.431 174.274L218.835 173.631L165.089 183.465L162.559 183.928L165.953 189.178L221.662 174.774Z" stroke="#231F20" stroke-width="0.99" stroke-linecap="round" stroke-linejoin="round"/>
<path d="M169.756 165.658L165.883 166.58L165.285 168.796V168.799" stroke="#231F20" stroke-width="0.99" stroke-linecap="round" stroke-linejoin="round"/>
<path d="M224.982 157.427L220.913 156.062L208.84 157.512" stroke="#231F20" stroke-width="0.99" stroke-linecap="round" stroke-linejoin="round"/>
<path d="M221.662 174.773C223.002 173.004 225.815 168.757 225.825 162.945C225.829 160.757 225.437 158.882 224.982 157.426L216.452 159.059" stroke="#231F20" stroke-width="0.99" stroke-linecap="round" stroke-linejoin="round"/>
<path d="M164.108 174.773V174.777L162.558 183.927" stroke="#231F20" stroke-width="0.99" stroke-linecap="round" stroke-linejoin="round"/>
<path d="M101.396 39.1154C101.133 39.129 100.598 39.1188 100.014 38.8466C99.3418 38.5335 98.9779 38.0503 98.8345 37.8359" stroke="#231F20" stroke-width="0.99" stroke-linecap="round" stroke-linejoin="round"/>
<path d="M84.6957 27.6852C84.7167 27.5729 84.8391 26.8924 84.3703 26.2935C83.786 25.5449 82.8169 25.6129 82.7574 25.6197" stroke="#231F20" stroke-width="0.99" stroke-linecap="round" stroke-linejoin="round"/>
<path d="M157.825 165.373C156.923 167.129 156.016 168.885 155.114 170.644" stroke="#231F20" stroke-width="0.99" stroke-linecap="round" stroke-linejoin="round"/>
<path d="M208.839 157.512C206.831 156.787 205.092 155.821 202.527 155.076C194.788 152.83 180.304 152.864 172.908 160.908C171.571 162.365 170.577 163.961 169.755 165.659C169.084 167.057 168.527 168.524 167.995 170.041C167.785 170.64 167.579 171.246 167.369 171.858C166.914 173.196 166.547 174.485 166.253 175.71C165.511 178.77 165.214 181.437 165.088 183.465" stroke="#231F20" stroke-width="0.99" stroke-linecap="round" stroke-linejoin="round"/>
<path d="M216.449 159.06C214.742 158.58 213.416 158.485 213.416 158.485C211.572 158.352 210.148 157.985 208.84 157.512" stroke="#231F20" stroke-width="0.99" stroke-linecap="round" stroke-linejoin="round"/>
<path d="M220.431 174.274C223.317 170.334 224.618 166.404 223.565 164.59C223.432 164.359 222.747 163.273 221.624 162.072C221.624 162.072 220.924 161.123 220.028 160.571C218.853 159.85 217.572 159.374 216.453 159.061H216.449" stroke="#231F20" stroke-width="0.99" stroke-linecap="round" stroke-linejoin="round"/>
<path d="M176.837 164.229C176.571 164.569 176.424 164.991 176.424 165.416" stroke="#231F20" stroke-width="0.99" stroke-linecap="round" stroke-linejoin="round"/>
<path d="M178.698 166.295C178.516 166.788 178.331 167.282 178.145 167.775" stroke="#231F20" stroke-width="0.99" stroke-linecap="round" stroke-linejoin="round"/>
<path d="M175.588 168.098C175.521 168.081 175.454 168.064 175.388 168.051C175.384 168.248 175.377 168.449 175.374 168.65" stroke="#231F20" stroke-width="0.99" stroke-linecap="round" stroke-linejoin="round"/>
<path d="M174.049 170.521C173.838 170.668 173.782 170.991 173.933 171.199" stroke="#231F20" stroke-width="0.99" stroke-linecap="round" stroke-linejoin="round"/>
<path d="M175.371 173.502C175.714 173.774 176.06 174.043 176.403 174.315" stroke="#231F20" stroke-width="0.99" stroke-linecap="round" stroke-linejoin="round"/>
<path d="M184.996 164.141L184.65 165.284" stroke="#231F20" stroke-width="0.99" stroke-linecap="round" stroke-linejoin="round"/>
<path d="M181.959 161.055L181.266 161.657" stroke="#231F20" stroke-width="0.99" stroke-linecap="round" stroke-linejoin="round"/>
<path d="M179.874 160.033C179.619 160.122 179.367 160.214 179.111 160.302" stroke="#231F20" stroke-width="0.99" stroke-linecap="round" stroke-linejoin="round"/>
<path d="M178.145 161.942C178.324 161.932 178.453 162.177 178.341 162.313" stroke="#231F20" stroke-width="0.99" stroke-linecap="round" stroke-linejoin="round"/>
<path d="M176.253 160.898C176.186 161.011 176.119 161.123 176.053 161.239" stroke="#231F20" stroke-width="0.99" stroke-linecap="round" stroke-linejoin="round"/>
<path d="M173.229 163.668C173.159 163.804 173.092 163.937 173.022 164.073" stroke="#231F20" stroke-width="0.99" stroke-linecap="round" stroke-linejoin="round"/>
<path d="M171.015 168.244C170.924 168.336 170.829 168.424 170.738 168.513" stroke="#231F20" stroke-width="0.99" stroke-linecap="round" stroke-linejoin="round"/>
<path d="M173.506 167.102C173.485 167.169 173.461 167.237 173.436 167.301" stroke="#231F20" stroke-width="0.99" stroke-linecap="round" stroke-linejoin="round"/>
<path d="M170.234 173.219C170.189 173.331 170.147 173.443 170.101 173.556" stroke="#231F20" stroke-width="0.99" stroke-linecap="round" stroke-linejoin="round"/>
<path d="M168.384 176.66V177.266" stroke="#231F20" stroke-width="0.99" stroke-linecap="round" stroke-linejoin="round"/>
<path d="M171.99 176.383C172.061 176.519 172.131 176.655 172.201 176.788" stroke="#231F20" stroke-width="0.99" stroke-linecap="round" stroke-linejoin="round"/>
<path d="M169.493 171.141C169.447 171.208 169.402 171.273 169.353 171.341" stroke="#231F20" stroke-width="0.99" stroke-linecap="round" stroke-linejoin="round"/>
<path d="M172.342 174.033C172.366 174.19 172.387 174.346 172.411 174.503" stroke="#231F20" stroke-width="0.99" stroke-linecap="round" stroke-linejoin="round"/>
<path d="M175.584 177.734C175.721 177.915 175.861 178.095 175.997 178.272" stroke="#231F20" stroke-width="0.99" stroke-linecap="round" stroke-linejoin="round"/>
<path d="M182.403 172.732C182.316 172.848 182.228 172.964 182.137 173.08" stroke="#231F20" stroke-width="0.99" stroke-linecap="round" stroke-linejoin="round"/>
<path d="M182.435 176.523C182.596 176.84 182.757 177.153 182.918 177.466" stroke="#231F20" stroke-width="0.99" stroke-linecap="round" stroke-linejoin="round"/>
<path d="M181.035 178.137C181.014 178.317 180.99 178.497 180.969 178.678" stroke="#231F20" stroke-width="0.99" stroke-linecap="round" stroke-linejoin="round"/>
<path d="M186.724 175.244C186.864 175.537 187.001 175.829 187.141 176.122" stroke="#231F20" stroke-width="0.99" stroke-linecap="round" stroke-linejoin="round"/>
<path d="M189.079 177.601V177.533" stroke="#231F20" stroke-width="0.99" stroke-linecap="round" stroke-linejoin="round"/>
<path d="M184.72 157.41C184.58 157.587 184.44 157.767 184.303 157.948" stroke="#231F20" stroke-width="0.99" stroke-linecap="round" stroke-linejoin="round"/>
<path d="M182.298 163.604C182.224 163.749 182.042 163.834 181.882 163.8" stroke="#231F20" stroke-width="0.99" stroke-linecap="round" stroke-linejoin="round"/>
<path d="M187.378 168.303C187.469 168.585 187.161 168.908 186.864 168.84" stroke="#231F20" stroke-width="0.99" stroke-linecap="round" stroke-linejoin="round"/>
<path d="M185.178 168.084C185.069 168.179 184.961 168.278 184.849 168.373" stroke="#231F20" stroke-width="0.99" stroke-linecap="round" stroke-linejoin="round"/>
<path d="M187.488 157.81C187.508 157.79 187.533 157.766 187.557 157.746" stroke="#231F20" stroke-width="0.99" stroke-linecap="round" stroke-linejoin="round"/>
<path d="M188.525 155.746C188.389 155.766 188.249 155.786 188.109 155.807" stroke="#231F20" stroke-width="0.99" stroke-linecap="round" stroke-linejoin="round"/>
<path d="M185.408 155.656H185.272" stroke="#231F20" stroke-width="0.99" stroke-linecap="round" stroke-linejoin="round"/>
<path d="M186.021 160.83C185.975 160.878 185.929 160.922 185.883 160.966" stroke="#231F20" stroke-width="0.99" stroke-linecap="round" stroke-linejoin="round"/>
<path d="M181.466 156.805C181.326 156.849 181.189 156.893 181.049 156.937" stroke="#231F20" stroke-width="0.99" stroke-linecap="round" stroke-linejoin="round"/>
<path d="M186.312 157.205C186.287 157.185 186.263 157.161 186.243 157.141" stroke="#231F20" stroke-width="0.99" stroke-linecap="round" stroke-linejoin="round"/>
<path d="M180.363 169.795L180.226 170.132" stroke="#231F20" stroke-width="0.99" stroke-linecap="round" stroke-linejoin="round"/>
<path d="M169.647 179.562C169.532 179.743 169.417 179.92 169.301 180.1" stroke="#231F20" stroke-width="0.99" stroke-linecap="round" stroke-linejoin="round"/>
<path d="M172.414 180.988C172.299 181.077 172.183 181.162 172.064 181.25" stroke="#231F20" stroke-width="0.99" stroke-linecap="round" stroke-linejoin="round"/>
<path d="M167.226 180.971L167.163 181.173" stroke="#231F20" stroke-width="0.99" stroke-linecap="round" stroke-linejoin="round"/>
<path d="M168.262 173.025C168.262 173.093 168.257 173.157 168.254 173.225" stroke="#231F20" stroke-width="0.99" stroke-linecap="round" stroke-linejoin="round"/>
<path d="M172.401 178.545L172.467 178.609" stroke="#231F20" stroke-width="0.99" stroke-linecap="round" stroke-linejoin="round"/>
<path d="M219.804 162.656C219.829 162.572 219.986 162.572 220.011 162.66" stroke="#231F20" stroke-width="0.99" stroke-linecap="round" stroke-linejoin="round"/>
<path d="M221.812 165.416V165.619" stroke="#231F20" stroke-width="0.99" stroke-linecap="round" stroke-linejoin="round"/>
<path d="M218.562 165.948C218.45 165.9 218.334 165.856 218.219 165.809" stroke="#231F20" stroke-width="0.99" stroke-linecap="round" stroke-linejoin="round"/>
<path d="M220.979 168.043C221.049 168.111 221.119 168.175 221.189 168.243" stroke="#231F20" stroke-width="0.99" stroke-linecap="round" stroke-linejoin="round"/>
<path d="M218.824 168.68C218.712 168.707 218.597 168.734 218.485 168.761" stroke="#231F20" stroke-width="0.99" stroke-linecap="round" stroke-linejoin="round"/>
<path d="M219.191 169.785L219.475 170.255" stroke="#231F20" stroke-width="0.99" stroke-linecap="round" stroke-linejoin="round"/>
<path d="M219.622 171.953C219.576 172.133 219.531 172.314 219.485 172.491" stroke="#231F20" stroke-width="0.99" stroke-linecap="round" stroke-linejoin="round"/>
<path d="M217.106 172.09L216.76 172.161" stroke="#231F20" stroke-width="0.99" stroke-linecap="round" stroke-linejoin="round"/>
<path d="M215.382 172.76C215.287 172.848 215.196 172.94 215.102 173.029" stroke="#231F20" stroke-width="0.99" stroke-linecap="round" stroke-linejoin="round"/>
<path d="M211.914 173.426C211.844 173.473 211.777 173.517 211.707 173.561" stroke="#231F20" stroke-width="0.99" stroke-linecap="round" stroke-linejoin="round"/>
<path d="M195.307 176.121H195.237" stroke="#231F20" stroke-width="0.99" stroke-linecap="round" stroke-linejoin="round"/>
<path d="M194.532 158.824C194.578 158.981 194.627 159.137 194.673 159.294" stroke="#231F20" stroke-width="0.99" stroke-linecap="round" stroke-linejoin="round"/>
<path d="M193.571 163.684C193.365 163.616 193.155 163.548 192.949 163.48" stroke="#231F20" stroke-width="0.99" stroke-linecap="round" stroke-linejoin="round"/>
<path d="M190.53 163.33V163.599" stroke="#231F20" stroke-width="0.99" stroke-linecap="round" stroke-linejoin="round"/>
<path d="M193.158 166.969C193.204 167.016 193.249 167.06 193.295 167.104" stroke="#231F20" stroke-width="0.99" stroke-linecap="round" stroke-linejoin="round"/>
<path d="M209.007 161.85V161.985" stroke="#231F20" stroke-width="0.99" stroke-linecap="round" stroke-linejoin="round"/>
<path d="M210.187 166.562C210.183 166.63 210.18 166.695 210.176 166.762C210.085 166.745 209.994 166.729 209.907 166.712" stroke="#231F20" stroke-width="0.99" stroke-linecap="round" stroke-linejoin="round"/>
<path d="M206.933 167.639L206.864 167.706" stroke="#231F20" stroke-width="0.99" stroke-linecap="round" stroke-linejoin="round"/>
<path d="M200.565 158.562C200.68 158.583 200.796 158.606 200.911 158.626" stroke="#231F20" stroke-width="0.99" stroke-linecap="round" stroke-linejoin="round"/>
<path d="M197.867 156.668V156.803" stroke="#231F20" stroke-width="0.99" stroke-linecap="round" stroke-linejoin="round"/>
<path d="M200.358 163.6V163.802" stroke="#231F20" stroke-width="0.99" stroke-linecap="round" stroke-linejoin="round"/>
<path d="M199.39 166.631C199.575 166.764 199.757 166.9 199.942 167.032" stroke="#231F20" stroke-width="0.99" stroke-linecap="round" stroke-linejoin="round"/>
<path d="M202.58 170.129C202.601 170.193 202.626 170.261 202.646 170.328" stroke="#231F20" stroke-width="0.99" stroke-linecap="round" stroke-linejoin="round"/>
<path d="M199.9 171.418L199.763 171.755" stroke="#231F20" stroke-width="0.99" stroke-linecap="round" stroke-linejoin="round"/>
<path d="M199.175 172.555C199.245 172.647 199.312 172.735 199.382 172.827" stroke="#231F20" stroke-width="0.99" stroke-linecap="round" stroke-linejoin="round"/>
<path d="M189.495 168.029C189.589 168.046 189.68 168.066 189.774 168.083" stroke="#231F20" stroke-width="0.99" stroke-linecap="round" stroke-linejoin="round"/>
<path d="M189.978 171.34L190.397 172.238C190.327 172.238 190.254 172.235 190.184 172.235" stroke="#231F20" stroke-width="0.99" stroke-linecap="round" stroke-linejoin="round"/>
<path d="M191.224 157.879C191.063 157.967 190.902 158.059 190.737 158.148" stroke="#231F20" stroke-width="0.99" stroke-linecap="round" stroke-linejoin="round"/>
<path d="M196.353 161.561C196.489 161.605 196.629 161.652 196.766 161.699" stroke="#231F20" stroke-width="0.99" stroke-linecap="round" stroke-linejoin="round"/>
<path d="M204.078 163.524L204.151 163.393" stroke="#231F20" stroke-width="0.99" stroke-linecap="round" stroke-linejoin="round"/>
<path d="M204.994 160.102C204.948 159.966 204.903 159.833 204.857 159.697" stroke="#231F20" stroke-width="0.99" stroke-linecap="round" stroke-linejoin="round"/>
<path d="M210.606 162.904C210.792 162.948 210.977 162.996 211.159 163.04" stroke="#231F20" stroke-width="0.99" stroke-linecap="round" stroke-linejoin="round"/>
<path d="M213.576 164.004C213.667 164.048 213.762 164.092 213.853 164.139" stroke="#231F20" stroke-width="0.99" stroke-linecap="round" stroke-linejoin="round"/>
<path d="M205.133 172.355C205.207 172.321 205.302 172.413 205.267 172.484" stroke="#231F20" stroke-width="0.99" stroke-linecap="round" stroke-linejoin="round"/>
<path d="M177.453 170.736C177.474 170.647 177.499 170.555 177.52 170.467" stroke="#231F20" stroke-width="0.99" stroke-linecap="round" stroke-linejoin="round"/>
<path d="M179.045 178.207H179.321" stroke="#231F20" stroke-width="0.99" stroke-linecap="round" stroke-linejoin="round"/>
<path d="M178.142 180.092H177.935" stroke="#231F20" stroke-width="0.99" stroke-linecap="round" stroke-linejoin="round"/>
<path d="M172.05 171.001C172.229 170.956 172.173 170.637 171.991 170.647C171.812 170.66 171.802 170.984 171.984 171.004" stroke="#231F20" stroke-width="0.99" stroke-linecap="round" stroke-linejoin="round"/>
<path d="M175.174 176.121C175.176 176.097 175.179 176.076 175.182 176.053" stroke="#231F20" stroke-width="0.99" stroke-linecap="round" stroke-linejoin="round"/>
<path d="M169.916 175.981C169.86 175.849 169.706 175.768 169.563 175.788" stroke="#231F20" stroke-width="0.99" stroke-linecap="round" stroke-linejoin="round"/>
<path d="M171.018 177.873C171.081 177.829 171.141 177.782 171.2 177.734H170.945" stroke="#231F20" stroke-width="0.99" stroke-linecap="round" stroke-linejoin="round"/>
<path d="M167.698 178.571C167.604 178.561 167.513 178.547 167.418 178.537" stroke="#231F20" stroke-width="0.99" stroke-linecap="round" stroke-linejoin="round"/>
<path d="M168.594 181.504V181.703" stroke="#231F20" stroke-width="0.99" stroke-linecap="round" stroke-linejoin="round"/>
<path d="M166.239 178.14C166.219 178.116 166.194 178.096 166.17 178.072" stroke="#231F20" stroke-width="0.99" stroke-linecap="round" stroke-linejoin="round"/>
<path d="M38.4541 117.057C36.9392 123.855 35.4208 130.644 33.9058 137.436C33.0801 138.331 31.5022 139.808 29.0532 140.808C25.8519 142.115 22.983 141.863 21.7165 141.676" stroke="#231F20" stroke-width="0.99" stroke-linecap="round" stroke-linejoin="round"/>
<path d="M75.7493 122.875C75.8648 124.525 75.9802 126.179 76.0957 127.829" stroke="#231F20" stroke-width="0.99" stroke-linecap="round" stroke-linejoin="round"/>
<path d="M76.4001 134.488C76.3792 137.541 76.3547 140.593 76.3302 143.645C76.89 144.176 77.7611 144.884 78.9717 145.473C80.2802 146.105 81.4732 146.347 82.2744 146.446" stroke="#231F20" stroke-width="0.99" stroke-linecap="round" stroke-linejoin="round"/>
</g>
<defs>
<clipPath id="clip0_4830_14720">
<rect width="226" height="258" fill="white" transform="matrix(-1 0 0 1 226 0)"/>
</clipPath>
</defs>
</svg>
