<svg width="40" height="40" viewBox="0 0 40 40" fill="none" xmlns="http://www.w3.org/2000/svg">
<g clip-path="url(#clip0_6335_7101)">
<path d="M28 32V9C28 4.58172 24.4183 1 20 1H14.5122C12.2093 1 10.018 1.99246 8.49905 3.72348L1.98682 11.1449C0.706163 12.6043 0 14.4797 0 16.4214V32C0 36.4183 3.58172 40 8 40H20C24.4183 40 28 36.4183 28 32Z" fill="#7099ED"/>
<path d="M16 1H13.7393C11.686 1 9.73631 1.90148 8.40631 3.46577L1.90516 11.1122C0.675295 12.5587 0 14.3955 0 16.2941V18.1176C0 16.4608 1.34314 15.1176 3 15.1176H9.38753C11.0444 15.1176 12.3875 13.7745 12.3875 12.1176V4.61247C12.3875 2.61736 14.0049 1 16 1Z" fill="#FFB31D"/>
<rect x="8" y="20" width="24" height="13" rx="3" fill="#383940"/>
<path d="M10.3672 30L13.105 26.3701H13.3818L15.4429 23.6016H16.9722L14.3267 27.0996H14.1069L11.9492 30H10.3672ZM10.3188 23.6016H12.2437L14.3223 26.3438H14.3442L17.2446 30H15.2847L13.1094 27.1567H13.0962L10.3188 23.6016ZM17.8687 30V23.6016H19.4814V28.8003H22.7334V30H17.8687ZM23.2476 28.1411V28.0269H24.8999V28.1191C24.8999 28.4004 25.0156 28.6128 25.2471 28.7563C25.4785 28.8999 25.8198 28.9717 26.271 28.9717C26.6841 28.9717 27.002 28.9087 27.2246 28.7827C27.4502 28.6567 27.563 28.4912 27.563 28.2861C27.563 28.0811 27.4619 27.9111 27.2598 27.7764C27.0576 27.6387 26.561 27.4922 25.77 27.3369C24.9614 27.1787 24.355 26.9502 23.9507 26.6514C23.5493 26.3496 23.3486 25.9292 23.3486 25.3901C23.3486 24.7954 23.6035 24.3281 24.1133 23.9883C24.626 23.6455 25.3145 23.4741 26.1787 23.4741C27.0312 23.4741 27.7153 23.6587 28.231 24.0278C28.7495 24.397 29.0088 24.8657 29.0088 25.4341V25.5396H27.396V25.4561C27.396 25.2129 27.2935 25.0181 27.0884 24.8716C26.8862 24.7222 26.5742 24.6475 26.1523 24.6475C25.7363 24.6475 25.4316 24.7017 25.2383 24.8101C25.0479 24.9185 24.9526 25.0708 24.9526 25.2671C24.9526 25.4458 25.0566 25.5923 25.2646 25.7065C25.4727 25.8208 25.9385 25.9541 26.6621 26.1064C27.4619 26.2822 28.0771 26.5181 28.5078 26.814C28.9385 27.1069 29.1538 27.5742 29.1538 28.2158C29.1538 28.8105 28.8843 29.2778 28.3452 29.6177C27.8091 29.9575 27.1016 30.1274 26.2227 30.1274C25.3467 30.1274 24.6304 29.9619 24.0737 29.6309C23.5171 29.2969 23.2417 28.8003 23.2476 28.1411Z" fill="white"/>
</g>
<defs>
<clipPath id="clip0_6335_7101">
<rect width="40" height="40" fill="white"/>
</clipPath>
</defs>
</svg>
