<svg width="207" height="40" viewBox="0 0 207 40" fill="none" xmlns="http://www.w3.org/2000/svg">
<rect width="207" height="40" rx="20" fill="#749EF2"/>
<path d="M16.584 26V14.8H26.488V26H24.44V16.048L24.92 16.56H18.152L18.632 16.048V26H16.584ZM33.4061 26.112C32.4568 26.112 31.6248 25.9253 30.9101 25.552C30.2061 25.168 29.6568 24.6453 29.2621 23.984C28.8781 23.3227 28.6861 22.5707 28.6861 21.728C28.6861 20.8747 28.8728 20.1227 29.2461 19.472C29.6301 18.8107 30.1528 18.2933 30.8141 17.92C31.4861 17.5467 32.2488 17.36 33.1021 17.36C33.9341 17.36 34.6755 17.5413 35.3261 17.904C35.9768 18.2667 36.4888 18.7787 36.8621 19.44C37.2355 20.1013 37.4221 20.88 37.4221 21.776C37.4221 21.8613 37.4168 21.9573 37.4061 22.064C37.4061 22.1707 37.4008 22.272 37.3901 22.368H30.2701V21.04H36.3341L35.5501 21.456C35.5608 20.9653 35.4595 20.5333 35.2461 20.16C35.0328 19.7867 34.7395 19.4933 34.3661 19.28C34.0035 19.0667 33.5821 18.96 33.1021 18.96C32.6115 18.96 32.1795 19.0667 31.8061 19.28C31.4435 19.4933 31.1555 19.792 30.9421 20.176C30.7395 20.5493 30.6381 20.992 30.6381 21.504V21.824C30.6381 22.336 30.7555 22.7893 30.9901 23.184C31.2248 23.5787 31.5555 23.8827 31.9821 24.096C32.4088 24.3093 32.8995 24.416 33.4541 24.416C33.9341 24.416 34.3661 24.3413 34.7501 24.192C35.1341 24.0427 35.4755 23.808 35.7741 23.488L36.8461 24.72C36.4621 25.168 35.9768 25.5147 35.3901 25.76C34.8141 25.9947 34.1528 26.112 33.4061 26.112ZM44.3456 26.112C43.6523 26.112 43.0176 25.952 42.4416 25.632C41.8763 25.312 41.423 24.832 41.0816 24.192C40.751 23.5413 40.5856 22.72 40.5856 21.728C40.5856 20.7253 40.7456 19.904 41.0656 19.264C41.3963 18.624 41.8443 18.1493 42.4096 17.84C42.975 17.52 43.6203 17.36 44.3456 17.36C45.1883 17.36 45.9296 17.5413 46.5696 17.904C47.2203 18.2667 47.7323 18.7733 48.1056 19.424C48.4896 20.0747 48.6816 20.8427 48.6816 21.728C48.6816 22.6133 48.4896 23.3867 48.1056 24.048C47.7323 24.6987 47.2203 25.2053 46.5696 25.568C45.9296 25.9307 45.1883 26.112 44.3456 26.112ZM39.6096 29.104V17.456H41.5136V19.472L41.4496 21.744L41.6096 24.016V29.104H39.6096ZM44.1216 24.4C44.6016 24.4 45.0283 24.2933 45.4016 24.08C45.7856 23.8667 46.0896 23.5573 46.3136 23.152C46.5376 22.7467 46.6496 22.272 46.6496 21.728C46.6496 21.1733 46.5376 20.6987 46.3136 20.304C46.0896 19.8987 45.7856 19.5893 45.4016 19.376C45.0283 19.1627 44.6016 19.056 44.1216 19.056C43.6416 19.056 43.2096 19.1627 42.8256 19.376C42.4416 19.5893 42.1376 19.8987 41.9136 20.304C41.6896 20.6987 41.5776 21.1733 41.5776 21.728C41.5776 22.272 41.6896 22.7467 41.9136 23.152C42.1376 23.5573 42.4416 23.8667 42.8256 24.08C43.2096 24.2933 43.6416 24.4 44.1216 24.4ZM54.6561 26.112C53.7068 26.112 52.8748 25.9253 52.1601 25.552C51.4561 25.168 50.9068 24.6453 50.5121 23.984C50.1281 23.3227 49.9361 22.5707 49.9361 21.728C49.9361 20.8747 50.1228 20.1227 50.4961 19.472C50.8801 18.8107 51.4028 18.2933 52.0641 17.92C52.7361 17.5467 53.4988 17.36 54.3521 17.36C55.1841 17.36 55.9255 17.5413 56.5761 17.904C57.2268 18.2667 57.7388 18.7787 58.1121 19.44C58.4855 20.1013 58.6721 20.88 58.6721 21.776C58.6721 21.8613 58.6668 21.9573 58.6561 22.064C58.6561 22.1707 58.6508 22.272 58.6401 22.368H51.5201V21.04H57.5841L56.8001 21.456C56.8108 20.9653 56.7095 20.5333 56.4961 20.16C56.2828 19.7867 55.9895 19.4933 55.6161 19.28C55.2535 19.0667 54.8321 18.96 54.3521 18.96C53.8615 18.96 53.4295 19.0667 53.0561 19.28C52.6935 19.4933 52.4055 19.792 52.1921 20.176C51.9895 20.5493 51.8881 20.992 51.8881 21.504V21.824C51.8881 22.336 52.0055 22.7893 52.2401 23.184C52.4748 23.5787 52.8055 23.8827 53.2321 24.096C53.6588 24.3093 54.1495 24.416 54.7041 24.416C55.1841 24.416 55.6161 24.3413 56.0001 24.192C56.3841 24.0427 56.7255 23.808 57.0241 23.488L58.0961 24.72C57.7121 25.168 57.2268 25.5147 56.6401 25.76C56.0641 25.9947 55.4028 26.112 54.6561 26.112ZM60.8596 26V17.456H62.8596V23.088L67.5796 17.456H69.4036V26H67.4036V20.368L62.6996 26H60.8596ZM65.0036 16.448C64.1503 16.448 63.4943 16.2507 63.0356 15.856C62.577 15.4507 62.3423 14.864 62.3316 14.096H63.6596C63.6703 14.48 63.7876 14.784 64.0116 15.008C64.2463 15.232 64.5716 15.344 64.9876 15.344C65.393 15.344 65.713 15.232 65.9476 15.008C66.193 14.784 66.321 14.48 66.3316 14.096H67.6916C67.681 14.864 67.441 15.4507 66.9716 15.856C66.513 16.2507 65.857 16.448 65.0036 16.448ZM73.87 26V18.672L74.334 19.152H70.862V17.456H78.862V19.152H75.406L75.87 18.672V26H73.87ZM80.3128 26V17.456H82.3128V23.088L87.0328 17.456H88.8568V26H86.8568V20.368L82.1528 26H80.3128ZM95.969 26V17.456H97.969V20.928H102.273V17.456H104.273V26H102.273V22.624H97.969V26H95.969ZM112.137 26V24.272L112.025 23.904V20.88C112.025 20.2933 111.849 19.84 111.497 19.52C111.145 19.1893 110.612 19.024 109.897 19.024C109.417 19.024 108.943 19.0987 108.473 19.248C108.015 19.3973 107.625 19.6053 107.305 19.872L106.521 18.416C106.98 18.064 107.524 17.8027 108.153 17.632C108.793 17.4507 109.455 17.36 110.137 17.36C111.375 17.36 112.329 17.6587 113.001 18.256C113.684 18.8427 114.025 19.7547 114.025 20.992V26H112.137ZM109.449 26.112C108.809 26.112 108.249 26.0053 107.769 25.792C107.289 25.568 106.916 25.264 106.649 24.88C106.393 24.4853 106.265 24.0427 106.265 23.552C106.265 23.072 106.377 22.64 106.601 22.256C106.836 21.872 107.215 21.568 107.737 21.344C108.26 21.12 108.953 21.008 109.817 21.008H112.297V22.336H109.961C109.279 22.336 108.82 22.448 108.585 22.672C108.351 22.8853 108.233 23.152 108.233 23.472C108.233 23.8347 108.377 24.1227 108.665 24.336C108.953 24.5493 109.353 24.656 109.865 24.656C110.356 24.656 110.793 24.544 111.177 24.32C111.572 24.096 111.855 23.7653 112.025 23.328L112.361 24.528C112.169 25.0293 111.823 25.4187 111.321 25.696C110.831 25.9733 110.207 26.112 109.449 26.112ZM120.922 26V17.456H127.482V19.152H122.458L122.922 18.704V26H120.922ZM127.112 25.984L127.208 24.304C127.282 24.3147 127.352 24.3253 127.416 24.336C127.48 24.3467 127.538 24.352 127.592 24.352C127.922 24.352 128.178 24.2507 128.36 24.048C128.541 23.8453 128.674 23.5733 128.76 23.232C128.856 22.88 128.92 22.4907 128.952 22.064C128.994 21.6267 129.026 21.1893 129.048 20.752L129.192 17.456H136.104V26H134.104V18.608L134.568 19.152H130.504L130.936 18.592L130.824 20.848C130.792 21.6053 130.728 22.3093 130.632 22.96C130.546 23.6 130.408 24.16 130.216 24.64C130.034 25.12 129.778 25.4933 129.448 25.76C129.128 26.0267 128.717 26.16 128.216 26.16C128.056 26.16 127.88 26.144 127.688 26.112C127.506 26.08 127.314 26.0373 127.112 25.984ZM143.981 26V24.272L143.869 23.904V20.88C143.869 20.2933 143.693 19.84 143.341 19.52C142.989 19.1893 142.456 19.024 141.741 19.024C141.261 19.024 140.786 19.0987 140.317 19.248C139.858 19.3973 139.469 19.6053 139.149 19.872L138.365 18.416C138.824 18.064 139.368 17.8027 139.997 17.632C140.637 17.4507 141.298 17.36 141.981 17.36C143.218 17.36 144.173 17.6587 144.845 18.256C145.528 18.8427 145.869 19.7547 145.869 20.992V26H143.981ZM141.293 26.112C140.653 26.112 140.093 26.0053 139.613 25.792C139.133 25.568 138.76 25.264 138.493 24.88C138.237 24.4853 138.109 24.0427 138.109 23.552C138.109 23.072 138.221 22.64 138.445 22.256C138.68 21.872 139.058 21.568 139.581 21.344C140.104 21.12 140.797 21.008 141.661 21.008H144.141V22.336H141.805C141.122 22.336 140.664 22.448 140.429 22.672C140.194 22.8853 140.077 23.152 140.077 23.472C140.077 23.8347 140.221 24.1227 140.509 24.336C140.797 24.5493 141.197 24.656 141.709 24.656C142.2 24.656 142.637 24.544 143.021 24.32C143.416 24.096 143.698 23.7653 143.869 23.328L144.205 24.528C144.013 25.0293 143.666 25.4187 143.165 25.696C142.674 25.9733 142.05 26.112 141.293 26.112ZM148.344 26V17.456H152.52C153.555 17.456 154.365 17.648 154.952 18.032C155.549 18.416 155.848 18.96 155.848 19.664C155.848 20.3573 155.571 20.9013 155.016 21.296C154.461 21.68 153.725 21.872 152.808 21.872L153.048 21.376C154.083 21.376 154.851 21.568 155.352 21.952C155.864 22.3253 156.12 22.8747 156.12 23.6C156.12 24.3573 155.837 24.9493 155.272 25.376C154.707 25.792 153.848 26 152.696 26H148.344ZM150.248 24.544H152.536C153.08 24.544 153.491 24.4587 153.768 24.288C154.045 24.1067 154.184 23.8347 154.184 23.472C154.184 23.088 154.056 22.8053 153.8 22.624C153.544 22.4427 153.144 22.352 152.6 22.352H150.248V24.544ZM150.248 21.024H152.344C152.856 21.024 153.24 20.9333 153.496 20.752C153.763 20.56 153.896 20.2933 153.896 19.952C153.896 19.6 153.763 19.3387 153.496 19.168C153.24 18.9973 152.856 18.912 152.344 18.912H150.248V21.024ZM158.25 26V17.456H160.25V20.928H164.554V17.456H166.554V26H164.554V22.624H160.25V26H158.25ZM170.003 29.216C169.587 29.216 169.171 29.1467 168.755 29.008C168.339 28.8693 167.992 28.6773 167.715 28.432L168.515 26.96C168.717 27.1413 168.947 27.2853 169.203 27.392C169.459 27.4987 169.72 27.552 169.987 27.552C170.349 27.552 170.643 27.4613 170.867 27.28C171.091 27.0987 171.299 26.7947 171.491 26.368L171.987 25.248L172.147 25.008L175.379 17.456H177.299L173.299 26.688C173.032 27.328 172.733 27.8347 172.403 28.208C172.083 28.5813 171.72 28.8427 171.315 28.992C170.92 29.1413 170.483 29.216 170.003 29.216ZM171.763 26.304L167.907 17.456H169.987L173.123 24.832L171.763 26.304ZM178.688 26V17.456H180.688V20.768H183.232V22.576H180.688V26H178.688ZM186.496 26.112C185.642 26.112 184.88 25.9253 184.208 25.552C183.546 25.168 183.024 24.6453 182.64 23.984C182.256 23.3227 182.064 22.5707 182.064 21.728C182.064 20.8747 182.256 20.1173 182.64 19.456C183.024 18.7947 183.546 18.2827 184.208 17.92C184.88 17.5467 185.642 17.36 186.496 17.36C187.36 17.36 188.122 17.5467 188.784 17.92C189.456 18.2827 189.984 18.7947 190.368 19.456C190.752 20.1173 190.944 20.8747 190.944 21.728C190.944 22.5707 190.752 23.328 190.368 24C189.984 24.6613 189.456 25.1787 188.784 25.552C188.122 25.9253 187.36 26.112 186.496 26.112ZM186.496 24.416C186.976 24.416 187.397 24.304 187.76 24.08C188.133 23.856 188.426 23.5467 188.64 23.152C188.853 22.7573 188.96 22.2827 188.96 21.728C188.96 21.1733 188.853 20.6987 188.64 20.304C188.426 19.8987 188.133 19.5893 187.76 19.376C187.397 19.1627 186.981 19.056 186.512 19.056C186.042 19.056 185.621 19.1627 185.248 19.376C184.874 19.5893 184.581 19.8987 184.368 20.304C184.154 20.6987 184.048 21.1733 184.048 21.728C184.048 22.2827 184.154 22.7573 184.368 23.152C184.581 23.5467 184.874 23.856 185.248 24.08C185.621 24.304 186.037 24.416 186.496 24.416Z" fill="white"/>
</svg>
