<svg width="66" height="62" viewBox="0 0 66 62" fill="none" xmlns="http://www.w3.org/2000/svg">
<g clip-path="url(#clip0_5620_5655)">
<path d="M55.5521 23.8278H55.5453V11.6386H55.5521C56.0213 11.6386 56.4021 11.2579 56.4021 10.7888C56.4021 10.3197 56.0213 9.93903 55.5521 9.93903H55.5453V3.52148H26.4623V9.93223H26.4555C25.9863 9.93223 25.6055 10.3129 25.6055 10.782C25.6055 11.2511 25.9863 11.6318 26.4555 11.6318H26.4623V23.821H26.4555C25.9863 23.821 25.6055 24.2017 25.6055 24.6708C25.6055 25.1399 25.9863 25.5206 26.4555 25.5206H26.4623V30.9864H55.5453V25.5206H55.5521C56.0213 25.5206 56.4021 25.1399 56.4021 24.6708C56.4021 24.2017 56.0213 23.821 55.5521 23.821V23.8278Z" fill="#FF8B63" stroke="#262626" stroke-miterlimit="10"/>
<path d="M53.697 11.6387H49.957" stroke="#262626" stroke-miterlimit="10"/>
<path d="M55.3764 25.5273H49.0117" stroke="#262626" stroke-miterlimit="10"/>
<path d="M48.2288 25.5273H46.4336" stroke="#262626" stroke-miterlimit="10"/>
<path d="M26.6459 0.339844H55.3617C55.9397 0.339844 56.4089 0.808923 56.4089 1.38677V3.52822H25.6055V1.38677C25.6055 0.808923 26.0747 0.339844 26.6527 0.339844H26.6459Z" fill="#FF8B63" stroke="#262626" stroke-miterlimit="10"/>
<path d="M42.4023 7.56055L57.4641 19.4507C58.0557 19.9198 57.7225 20.8715 56.9677 20.8715H55.5193" stroke="#262626" stroke-miterlimit="10"/>
<path d="M42.7486 9.1704C43.4058 9.1704 43.9385 8.63776 43.9385 7.98071C43.9385 7.32366 43.4058 6.79102 42.7486 6.79102C42.0914 6.79102 41.5586 7.32366 41.5586 7.98071C41.5586 8.63776 42.0914 9.1704 42.7486 9.1704Z" stroke="#262626" stroke-miterlimit="10"/>
<path d="M62.9506 54.4871H62.9438V42.2978H62.9506C63.4197 42.2978 63.8005 41.9171 63.8005 41.448C63.8005 40.9789 63.4197 40.5982 62.9506 40.5982H62.9438V34.1875H33.8607V40.5982H33.8539C33.3847 40.5982 33.0039 40.9789 33.0039 41.448C33.0039 41.9171 33.3847 42.2978 33.8539 42.2978H33.8607V54.4871H33.8539C33.3847 54.4871 33.0039 54.8678 33.0039 55.3368C33.0039 55.8059 33.3847 56.1866 33.8539 56.1866H33.8607V61.6524H62.9438V56.1866H62.9506C63.4197 56.1866 63.8005 55.8059 63.8005 55.3368C63.8005 54.8678 63.4197 54.4871 62.9506 54.4871Z" fill="#FF8B63" stroke="#262626" stroke-miterlimit="10"/>
<path d="M61.0944 42.291H57.3477" stroke="#262626" stroke-miterlimit="10"/>
<path d="M62.7709 56.1875H56.4062" stroke="#262626" stroke-miterlimit="10"/>
<path d="M55.6194 56.1875H53.8242" stroke="#262626" stroke-miterlimit="10"/>
<path d="M34.0433 31H62.7591C63.3371 31 63.8063 31.4691 63.8063 32.0469V34.1884H32.9961V32.0469C32.9961 31.4691 33.4653 31 34.0433 31Z" fill="#FF8B63" stroke="#262626" stroke-miterlimit="10"/>
<path d="M49.793 38.2129L64.8547 50.103C65.4463 50.5721 65.1131 51.5239 64.3583 51.5239H62.9099" stroke="#262626" stroke-miterlimit="10"/>
<path d="M50.1392 39.8306C50.7964 39.8306 51.3292 39.2979 51.3292 38.6409C51.3292 37.9838 50.7964 37.4512 50.1392 37.4512C49.482 37.4512 48.9492 37.9838 48.9492 38.6409C48.9492 39.2979 49.482 39.8306 50.1392 39.8306Z" stroke="#262626" stroke-miterlimit="10"/>
<path d="M30.7865 54.4871H30.7797V42.2978H30.7865C31.2557 42.2978 31.6365 41.9171 31.6365 41.448C31.6365 40.9789 31.2557 40.5982 30.7865 40.5982H30.7797V34.1875H1.69663V40.5982H1.68983C1.22064 40.5982 0.839844 40.9789 0.839844 41.448C0.839844 41.9171 1.22064 42.2978 1.68983 42.2978H1.69663V54.4871H1.68983C1.22064 54.4871 0.839844 54.8678 0.839844 55.3368C0.839844 55.8059 1.22064 56.1866 1.68983 56.1866H1.69663V61.6524H30.7797V56.1866H30.7865C31.2557 56.1866 31.6365 55.8059 31.6365 55.3368C31.6365 54.8678 31.2557 54.4871 30.7865 54.4871Z" fill="#FF8B63" stroke="#262626" stroke-miterlimit="10"/>
<path d="M28.9313 42.291H25.1914" stroke="#262626" stroke-miterlimit="10"/>
<path d="M30.6176 56.1875H24.2461" stroke="#262626" stroke-miterlimit="10"/>
<path d="M23.4631 56.1875H21.668" stroke="#262626" stroke-miterlimit="10"/>
<path d="M1.88702 31H30.5961C31.1741 31 31.6433 31.4691 31.6433 32.0469V34.1884H0.839844V32.0469C0.839844 31.4691 1.30904 31 1.88702 31Z" fill="#FF8B63" stroke="#262626" stroke-miterlimit="10"/>
<path d="M17.6367 38.2129L32.6984 50.103C33.29 50.5721 32.9568 51.5239 32.202 51.5239H30.7537" stroke="#262626" stroke-miterlimit="10"/>
<path d="M17.9829 39.8306C18.6402 39.8306 19.1729 39.2979 19.1729 38.6409C19.1729 37.9838 18.6402 37.4512 17.9829 37.4512C17.3257 37.4512 16.793 37.9838 16.793 38.6409C16.793 39.2979 17.3257 39.8306 17.9829 39.8306Z" stroke="#262626" stroke-miterlimit="10"/>
</g>
<defs>
<clipPath id="clip0_5620_5655">
<rect width="65" height="62" fill="white" transform="translate(0.5)"/>
</clipPath>
</defs>
</svg>
