<svg width="157" height="120" viewBox="0 0 157 120" fill="none" xmlns="http://www.w3.org/2000/svg">
<path d="M151.375 10.5898H86.3714C83.9407 10.5898 81.9727 12.5704 81.9727 15.008V101.418H155.781V15.008C155.781 12.5666 153.809 10.5898 151.382 10.5898H151.375ZM88.4153 38.7177H149.323V62.7512H88.4191V38.7177H88.4153ZM131.671 36.2306V17.0686H139.471V36.2306H131.671ZM127.371 36.2306H119.772V17.0686H127.371V36.2306ZM115.271 36.2306H107.869V17.0686H115.271V36.2306ZM103.568 36.2306H95.9691V17.0686H103.568V36.2306ZM149.323 36.2306H143.571V17.0686H149.323V36.2306ZM91.5703 17.0686V36.2306H88.4115V17.0686H91.5703ZM88.4115 94.943V69.2261H149.319V94.943H88.4191H88.4115Z" fill="#7099ED" stroke="#231F20" stroke-miterlimit="10"/>
<path d="M147.777 10.5898H82.7699C80.3392 10.5898 78.3711 12.5704 78.3711 15.008V101.418H152.179V15.008C152.179 12.5666 150.208 10.5898 147.781 10.5898H147.777ZM84.8176 38.7177H145.725V62.7512H84.8176V38.7177ZM128.073 36.2306V17.0686H138.737V36.2306H128.073ZM126.837 36.2306H116.174V17.0686H126.837V36.2306ZM114.938 36.2306H104.275V17.0686H114.938V36.2306ZM103.038 36.2306H92.3751V17.0686H103.038V36.2306ZM145.729 36.2306H139.977V17.0686H145.729V36.2306ZM91.1351 17.0686V36.2306H84.8214V17.0686H91.1351ZM84.8214 94.943V69.2261H145.729V94.943H84.8176H84.8214Z" fill="#231F20"/>
<path d="M6.60321 110.297H0.691406V116.235H6.60321V110.297Z" fill="#7099ED" stroke="#231F20" stroke-miterlimit="10"/>
<path d="M74.0504 110.297H6.33203V116.235H74.0504V110.297Z" fill="#7099ED" stroke="#231F20" stroke-miterlimit="10"/>
<path d="M89.3178 56.3144H97.6982L97.429 111.69C97.429 113.442 19.4531 112.456 19.4531 112.456L19.4986 109.218L85.8025 110.414C87.6151 110.35 89.0561 108.857 89.0637 107.032L89.3178 56.3105V56.3144Z" fill="#F4F3F1" stroke="#231F20" stroke-miterlimit="10"/>
<path d="M96.0849 56.3144H100.654L103.878 62.5227H100.385V111.69C100.385 113.442 98.9479 114.852 97.2036 114.81L24.0664 112.456V110.567L92.5697 110.414C94.3823 110.35 95.8233 108.857 95.8309 107.032L96.0849 56.3105V56.3144Z" fill="#F4F3F1" stroke="#231F20" stroke-miterlimit="10"/>
<path d="M39.6579 110.297H33.7461V116.235H39.6579V110.297Z" fill="#7099ED" stroke="#231F20" stroke-miterlimit="10"/>
<path d="M107.109 110.297H39.3906V116.235H107.109V110.297Z" fill="#7099ED" stroke="#231F20" stroke-miterlimit="10"/>
<path d="M121.833 56.3144H130.214L129.944 111.69C129.944 113.442 54.168 112.726 54.168 112.726V110.567L118.314 110.414C120.127 110.35 121.568 108.857 121.575 107.032L121.829 56.3105L121.833 56.3144Z" fill="#F4F3F1" stroke="#231F20" stroke-miterlimit="10"/>
<path d="M130.219 56.3145H134.788L138.012 62.5228H134.519V111.938C134.519 113.553 133.196 114.852 131.588 114.814L59.2773 112.726V110.567L126.939 110.407C128.622 110.346 129.957 108.959 129.969 107.268L130.223 56.3145H130.219Z" fill="#F4F3F1" stroke="#231F20" stroke-miterlimit="10"/>
<path d="M74.322 110.566H68.4102V115.963H74.322V110.566Z" fill="#7099ED" stroke="#231F20" stroke-miterlimit="10"/>
<path d="M141.769 110.297H74.0508V116.235H141.769V110.297Z" fill="#7099ED" stroke="#231F20" stroke-miterlimit="10"/>
<path d="M141.774 107.33H71.3672V110.568H141.774V107.33Z" fill="#7099ED" stroke="#231F20" stroke-miterlimit="10"/>
<path d="M74.3216 107.33H0.691406V110.568H74.3216V107.33Z" fill="#7099ED" stroke="#231F20" stroke-miterlimit="10"/>
<path d="M141.774 115.965H71.3672V119.202H141.774V115.965Z" fill="#7099ED" stroke="#231F20" stroke-miterlimit="10"/>
<path d="M74.3216 115.965H0.691406V119.202H74.3216V115.965Z" fill="#7099ED" stroke="#231F20" stroke-miterlimit="10"/>
<path d="M48.8805 17.1758L71.6328 17.1758V9.00594L48.8805 9.00594V17.1758Z" fill="#7099ED" stroke="#231F20" stroke-miterlimit="10"/>
<path d="M60.2567 25.3496H71.6328V17.1798H60.2567V25.3496Z" fill="#7099ED" stroke="#231F20" stroke-miterlimit="10"/>
<path d="M48.8778 25.3496H60.2539V17.1798H48.8778V25.3496Z" fill="#7099ED" stroke="#231F20" stroke-miterlimit="10"/>
<path d="M26.1266 17.1758L48.8789 17.1758V9.00594L26.1266 9.00594V17.1758Z" fill="#7099ED" stroke="#231F20" stroke-miterlimit="10"/>
<path d="M37.5028 25.3496H48.8789V17.1798H37.5028V25.3496Z" fill="#7099ED" stroke="#231F20" stroke-miterlimit="10"/>
<path d="M26.1278 25.3496H37.5039V17.1798H26.1278V25.3496Z" fill="#7099ED" stroke="#231F20" stroke-miterlimit="10"/>
<path d="M3.37663 17.1758L26.1289 17.1758V9.00594L3.37663 9.00594V17.1758Z" fill="#7099ED" stroke="#231F20" stroke-miterlimit="10"/>
<path d="M14.7528 25.3496H26.1289V17.1798H14.7528L14.7528 25.3496Z" fill="#7099ED" stroke="#231F20" stroke-miterlimit="10"/>
<path d="M3.37386 25.3496H14.75L14.75 17.1798H3.37386L3.37386 25.3496Z" fill="#7099ED" stroke="#231F20" stroke-miterlimit="10"/>
<path d="M60.2567 9.07813L71.6328 9.07812V0.908277L60.2567 0.908277V9.07813Z" fill="#7099ED" stroke="#231F20" stroke-miterlimit="10"/>
<path d="M48.8778 9.07813L60.2539 9.07812V0.908277L48.8778 0.908277V9.07813Z" fill="#7099ED" stroke="#231F20" stroke-miterlimit="10"/>
<path d="M37.5028 9.07813L48.8789 9.07812V0.908277L37.5028 0.908277V9.07813Z" fill="#7099ED" stroke="#231F20" stroke-miterlimit="10"/>
<path d="M26.1278 9.07813L37.5039 9.07812V0.908277L26.1278 0.908277V9.07813Z" fill="#7099ED" stroke="#231F20" stroke-miterlimit="10"/>
<path d="M14.7528 9.07813L26.1289 9.07812V0.908277L14.7528 0.908277L14.7528 9.07813Z" fill="#7099ED" stroke="#231F20" stroke-miterlimit="10"/>
<path d="M3.37386 9.07813L14.75 9.07812L14.75 0.908277L3.37386 0.908277L3.37386 9.07813Z" fill="#7099ED" stroke="#231F20" stroke-miterlimit="10"/>
<path d="M48.8805 33.5195H71.6328V25.3497L48.8805 25.3497V33.5195Z" fill="#7099ED" stroke="#231F20" stroke-miterlimit="10"/>
<path d="M60.2567 41.6895H71.6328V33.5196H60.2567V41.6895Z" fill="#7099ED" stroke="#231F20" stroke-miterlimit="10"/>
<path d="M48.8778 41.6895H60.2539V33.5196H48.8778V41.6895Z" fill="#7099ED" stroke="#231F20" stroke-miterlimit="10"/>
<path d="M26.1266 33.5195H48.8789V25.3497L26.1266 25.3497V33.5195Z" fill="#7099ED" stroke="#231F20" stroke-miterlimit="10"/>
<path d="M37.5028 41.6895H48.8789V33.5196H37.5028V41.6895Z" fill="#7099ED" stroke="#231F20" stroke-miterlimit="10"/>
<path d="M26.1278 41.6895H37.5039V33.5196H26.1278V41.6895Z" fill="#7099ED" stroke="#231F20" stroke-miterlimit="10"/>
<path d="M3.37663 33.5195H26.1289V25.3497L3.37663 25.3497V33.5195Z" fill="#7099ED" stroke="#231F20" stroke-miterlimit="10"/>
<path d="M14.7528 41.6895H26.1289V33.5196H14.7528L14.7528 41.6895Z" fill="#7099ED" stroke="#231F20" stroke-miterlimit="10"/>
<path d="M3.37386 41.6895H14.75L14.75 33.5196H3.37386L3.37386 41.6895Z" fill="#7099ED" stroke="#231F20" stroke-miterlimit="10"/>
<path d="M48.8805 49.8633H71.6328V41.6934H48.8805V49.8633Z" fill="#7099ED" stroke="#231F20" stroke-miterlimit="10"/>
<path d="M60.2567 58.0332H71.6328V49.8634H60.2567V58.0332Z" fill="#7099ED" stroke="#231F20" stroke-miterlimit="10"/>
<path d="M48.8778 58.0332H60.2539V49.8634H48.8778V58.0332Z" fill="#7099ED" stroke="#231F20" stroke-miterlimit="10"/>
<path d="M26.1266 49.8633H48.8789V41.6934H26.1266V49.8633Z" fill="#7099ED" stroke="#231F20" stroke-miterlimit="10"/>
<path d="M37.5028 58.0332H48.8789V49.8634H37.5028V58.0332Z" fill="#7099ED" stroke="#231F20" stroke-miterlimit="10"/>
<path d="M26.1278 58.0332H37.5039V49.8634H26.1278V58.0332Z" fill="#7099ED" stroke="#231F20" stroke-miterlimit="10"/>
<path d="M3.37663 49.8633H26.1289V41.6934H3.37663V49.8633Z" fill="#7099ED" stroke="#231F20" stroke-miterlimit="10"/>
<path d="M14.7528 58.0332H26.1289V49.8634H14.7528L14.7528 58.0332Z" fill="#7099ED" stroke="#231F20" stroke-miterlimit="10"/>
<path d="M3.37386 58.0332H14.75L14.75 49.8634H3.37386L3.37386 58.0332Z" fill="#7099ED" stroke="#231F20" stroke-miterlimit="10"/>
<path d="M48.8805 66.2031H71.6328V58.0333H48.8805V66.2031Z" fill="#7099ED" stroke="#231F20" stroke-miterlimit="10"/>
<path d="M60.2567 74.375H71.6328V66.2052H60.2567V74.375Z" fill="#7099ED" stroke="#231F20" stroke-miterlimit="10"/>
<path d="M48.8778 74.375H60.2539V66.2052H48.8778V74.375Z" fill="#7099ED" stroke="#231F20" stroke-miterlimit="10"/>
<path d="M26.1266 66.2031H48.8789V58.0333H26.1266V66.2031Z" fill="#7099ED" stroke="#231F20" stroke-miterlimit="10"/>
<path d="M37.5028 74.375H48.8789V66.2052H37.5028V74.375Z" fill="#7099ED" stroke="#231F20" stroke-miterlimit="10"/>
<path d="M26.1278 74.375H37.5039V66.2052H26.1278V74.375Z" fill="#7099ED" stroke="#231F20" stroke-miterlimit="10"/>
<path d="M3.37663 66.2031H26.1289V58.0333H3.37663V66.2031Z" fill="#7099ED" stroke="#231F20" stroke-miterlimit="10"/>
<path d="M14.7528 74.375H26.1289V66.2052H14.7528L14.7528 74.375Z" fill="#7099ED" stroke="#231F20" stroke-miterlimit="10"/>
<path d="M3.37386 74.375H14.75L14.75 66.2052H3.37386L3.37386 74.375Z" fill="#7099ED" stroke="#231F20" stroke-miterlimit="10"/>
<path d="M48.8805 82.541H71.6328V74.3712H48.8805V82.541Z" fill="#7099ED" stroke="#231F20" stroke-miterlimit="10"/>
<path d="M26.1266 82.541H48.8789V74.3712H26.1266V82.541Z" fill="#7099ED" stroke="#231F20" stroke-miterlimit="10"/>
<path d="M3.37663 82.541H26.1289V74.3712H3.37663V82.541Z" fill="#7099ED" stroke="#231F20" stroke-miterlimit="10"/>
<path d="M60.2567 90.7148H71.6328V82.545H60.2567V90.7148Z" fill="#7099ED" stroke="#231F20" stroke-miterlimit="10"/>
<path d="M48.8778 90.7148H60.2539V82.545H48.8778V90.7148Z" fill="#7099ED" stroke="#231F20" stroke-miterlimit="10"/>
<path d="M37.5028 90.7148H48.8789V82.545H37.5028V90.7148Z" fill="#7099ED" stroke="#231F20" stroke-miterlimit="10"/>
<path d="M26.1278 90.7148H37.5039V82.545H26.1278V90.7148Z" fill="#7099ED" stroke="#231F20" stroke-miterlimit="10"/>
<path d="M14.7528 90.7148H26.1289V82.545H14.7528L14.7528 90.7148Z" fill="#7099ED" stroke="#231F20" stroke-miterlimit="10"/>
<path d="M3.37386 90.7148H14.75L14.75 82.545H3.37386L3.37386 90.7148Z" fill="#7099ED" stroke="#231F20" stroke-miterlimit="10"/>
<path d="M48.8805 98.8887H71.6328V90.7188H48.8805V98.8887Z" fill="#7099ED" stroke="#231F20" stroke-miterlimit="10"/>
<path d="M26.1266 98.8887H48.8789V90.7188H26.1266V98.8887Z" fill="#7099ED" stroke="#231F20" stroke-miterlimit="10"/>
<path d="M3.37663 98.8887H26.1289V90.7188H3.37663V98.8887Z" fill="#7099ED" stroke="#231F20" stroke-miterlimit="10"/>
<path d="M60.2567 107.055H71.6328V98.8848H60.2567V107.055Z" fill="#7099ED" stroke="#231F20" stroke-miterlimit="10"/>
<path d="M48.8778 107.055H60.2539V98.8848H48.8778V107.055Z" fill="#7099ED" stroke="#231F20" stroke-miterlimit="10"/>
<path d="M37.5028 107.055H48.8789V98.8848H37.5028V107.055Z" fill="#7099ED" stroke="#231F20" stroke-miterlimit="10"/>
<path d="M26.1278 107.055H37.5039V98.8848H26.1278V107.055Z" fill="#7099ED" stroke="#231F20" stroke-miterlimit="10"/>
<path d="M14.7528 107.055H26.1289V98.8848H14.7528L14.7528 107.055Z" fill="#7099ED" stroke="#231F20" stroke-miterlimit="10"/>
<path d="M3.37386 107.055H14.75L14.75 98.8848H3.37386L3.37386 107.055Z" fill="#7099ED" stroke="#231F20" stroke-miterlimit="10"/>
<path d="M94.8359 98.8887H71.0977V107.059H94.8359V98.8887Z" fill="white" stroke="#231F20" stroke-miterlimit="10"/>
<path d="M82.9668 90.7148H71.0977V98.8847H82.9668V90.7148Z" fill="white" stroke="#231F20" stroke-miterlimit="10"/>
<path d="M94.8339 90.7148H82.9648V98.8847H94.8339V90.7148Z" fill="white" stroke="#231F20" stroke-miterlimit="10"/>
<path d="M118.574 98.8887H94.8359V107.059H118.574V98.8887Z" fill="white" stroke="#231F20" stroke-miterlimit="10"/>
<path d="M106.705 90.7148H94.8359V98.8847H106.705V90.7148Z" fill="white" stroke="#231F20" stroke-miterlimit="10"/>
<path d="M118.572 90.7148H106.703V98.8847H118.572V90.7148Z" fill="white" stroke="#231F20" stroke-miterlimit="10"/>
<path d="M142.312 98.8887H118.574V107.059H142.312V98.8887Z" fill="white" stroke="#231F20" stroke-miterlimit="10"/>
<path d="M130.443 90.7148H118.574V98.8847H130.443V90.7148Z" fill="white" stroke="#231F20" stroke-miterlimit="10"/>
<path d="M142.311 90.7148H130.441V98.8847H142.311V90.7148Z" fill="white" stroke="#231F20" stroke-miterlimit="10"/>
<path d="M94.8359 82.5449H71.0977V90.7148H94.8359V82.5449Z" fill="white" stroke="#231F20" stroke-miterlimit="10"/>
<path d="M82.9668 74.375H71.0977V82.5448H82.9668V74.375Z" fill="white" stroke="#231F20" stroke-miterlimit="10"/>
<path d="M94.8339 74.375H82.9648V82.5448H94.8339V74.375Z" fill="white" stroke="#231F20" stroke-miterlimit="10"/>
<path d="M118.574 82.5449H94.8359V90.7148H118.574V82.5449Z" fill="white" stroke="#231F20" stroke-miterlimit="10"/>
<path d="M106.705 74.375H94.8359V82.5448H106.705V74.375Z" fill="white" stroke="#231F20" stroke-miterlimit="10"/>
<path d="M118.572 74.375H106.703V82.5448H118.572V74.375Z" fill="white" stroke="#231F20" stroke-miterlimit="10"/>
<path d="M142.312 82.5449H118.574V90.7148H142.312V82.5449Z" fill="white" stroke="#231F20" stroke-miterlimit="10"/>
<path d="M130.443 74.375H118.574V82.5448H130.443V74.375Z" fill="white" stroke="#231F20" stroke-miterlimit="10"/>
<path d="M142.311 74.375H130.441V82.5448H142.311V74.375Z" fill="white" stroke="#231F20" stroke-miterlimit="10"/>
<path d="M94.8359 66.2031H71.0977V74.373H94.8359V66.2031Z" fill="white" stroke="#231F20" stroke-miterlimit="10"/>
<path d="M82.9668 58.0332H71.0977V66.203H82.9668V58.0332Z" fill="white" stroke="#231F20" stroke-miterlimit="10"/>
<path d="M94.8339 58.0332H82.9648V66.203H94.8339V58.0332Z" fill="white" stroke="#231F20" stroke-miterlimit="10"/>
<path d="M118.574 66.2031H94.8359V74.373H118.574V66.2031Z" fill="white" stroke="#231F20" stroke-miterlimit="10"/>
<path d="M106.705 58.0332H94.8359V66.203H106.705V58.0332Z" fill="white" stroke="#231F20" stroke-miterlimit="10"/>
<path d="M118.572 58.0332H106.703V66.203H118.572V58.0332Z" fill="white" stroke="#231F20" stroke-miterlimit="10"/>
<path d="M142.312 66.2031H118.574V74.373H142.312V66.2031Z" fill="white" stroke="#231F20" stroke-miterlimit="10"/>
<path d="M130.443 58.0332H118.574V66.203H130.443V58.0332Z" fill="white" stroke="#231F20" stroke-miterlimit="10"/>
<path d="M142.311 58.0332H130.441V66.203H142.311V58.0332Z" fill="white" stroke="#231F20" stroke-miterlimit="10"/>
<path d="M94.8359 49.8633H71.0977V58.0331H94.8359V49.8633Z" fill="white" stroke="#231F20" stroke-miterlimit="10"/>
<path d="M82.9668 41.6895H71.0977V49.8593H82.9668V41.6895Z" fill="white" stroke="#231F20" stroke-miterlimit="10"/>
<path d="M94.8339 41.6895H82.9648V49.8593H94.8339V41.6895Z" fill="white" stroke="#231F20" stroke-miterlimit="10"/>
<path d="M118.574 49.8633H94.8359V58.0331H118.574V49.8633Z" fill="white" stroke="#231F20" stroke-miterlimit="10"/>
<path d="M106.705 41.6895H94.8359V49.8593H106.705V41.6895Z" fill="white" stroke="#231F20" stroke-miterlimit="10"/>
<path d="M118.572 41.6895H106.703V49.8593H118.572V41.6895Z" fill="white" stroke="#231F20" stroke-miterlimit="10"/>
<path d="M142.312 49.8633H118.574V58.0331H142.312V49.8633Z" fill="white" stroke="#231F20" stroke-miterlimit="10"/>
<path d="M130.443 41.6895H118.574V49.8593H130.443V41.6895Z" fill="white" stroke="#231F20" stroke-miterlimit="10"/>
<path d="M142.311 41.6895H130.441V49.8593H142.311V41.6895Z" fill="white" stroke="#231F20" stroke-miterlimit="10"/>
<path d="M94.8359 33.5195H71.0977V41.6894H94.8359V33.5195Z" fill="white" stroke="#231F20" stroke-miterlimit="10"/>
<path d="M118.574 33.5195H94.8359V41.6894H118.574V33.5195Z" fill="white" stroke="#231F20" stroke-miterlimit="10"/>
<path d="M142.312 33.5195H118.574V41.6894H142.312V33.5195Z" fill="white" stroke="#231F20" stroke-miterlimit="10"/>
<path d="M82.9668 25.3496H71.0977V33.5194H82.9668V25.3496Z" fill="white" stroke="#231F20" stroke-miterlimit="10"/>
<path d="M94.8339 25.3496H82.9648V33.5194H94.8339V25.3496Z" fill="white" stroke="#231F20" stroke-miterlimit="10"/>
<path d="M106.705 25.3496H94.8359V33.5194H106.705V25.3496Z" fill="white" stroke="#231F20" stroke-miterlimit="10"/>
<path d="M118.572 25.3496H106.703V33.5194H118.572V25.3496Z" fill="white" stroke="#231F20" stroke-miterlimit="10"/>
<path d="M130.443 25.3496H118.574V33.5194H130.443V25.3496Z" fill="white" stroke="#231F20" stroke-miterlimit="10"/>
<path d="M142.311 25.3496H130.441V33.5194H142.311V25.3496Z" fill="white" stroke="#231F20" stroke-miterlimit="10"/>
<path d="M94.8359 17.1758H71.0977V25.3456H94.8359V17.1758Z" fill="white" stroke="#231F20" stroke-miterlimit="10"/>
<path d="M118.574 17.1758H94.8359V25.3456H118.574V17.1758Z" fill="white" stroke="#231F20" stroke-miterlimit="10"/>
<path d="M142.312 17.1758H118.574V25.3456H142.312V17.1758Z" fill="white" stroke="#231F20" stroke-miterlimit="10"/>
<path d="M82.9668 9.00586H71.0977V17.1757H82.9668V9.00586Z" fill="white" stroke="#231F20" stroke-miterlimit="10"/>
<path d="M94.8339 9.00586H82.9648V17.1757H94.8339V9.00586Z" fill="white" stroke="#231F20" stroke-miterlimit="10"/>
<path d="M106.705 9.00586H94.8359V17.1757H106.705V9.00586Z" fill="white" stroke="#231F20" stroke-miterlimit="10"/>
<path d="M118.572 9.00586H106.703V17.1757H118.572V9.00586Z" fill="white" stroke="#231F20" stroke-miterlimit="10"/>
<path d="M130.443 9.00586H118.574V17.1757H130.443V9.00586Z" fill="white" stroke="#231F20" stroke-miterlimit="10"/>
<path d="M142.311 9.00586H130.441V17.1757H142.311V9.00586Z" fill="white" stroke="#231F20" stroke-miterlimit="10"/>
<path d="M94.8359 0.835938H71.0977V9.00579H94.8359V0.835938Z" fill="white" stroke="#231F20" stroke-miterlimit="10"/>
<path d="M118.574 0.835938H94.8359V9.00579H118.574V0.835938Z" fill="white" stroke="#231F20" stroke-miterlimit="10"/>
<path d="M142.312 0.835938H118.574V9.00579H142.312V0.835938Z" fill="white" stroke="#231F20" stroke-miterlimit="10"/>
</svg>
