<svg width="384" height="240" viewBox="18 10 384 240" fill="none" xmlns="http://www.w3.org/2000/svg">
<g filter="url(#filter0_d_1567_20749)">
<g clip-path="url(#clip0_1567_20749)">
<rect x="19" y="9" width="384" height="240" rx="32" fill="#7099ED"/>
<g clip-path="url(#clip1_1567_20749)">
<path d="M264.881 78.7405C261.103 66.1936 257.326 53.6441 253.548 41.0972C253.401 40.606 253.653 40.1072 254.119 39.9696C264.122 37.0296 278.012 33.2683 294.854 29.7115C294.854 29.7115 305.521 27.4587 315.558 25.7547C318.429 25.2662 321.895 24.8526 325.913 24.5164C326.473 24.4702 326.827 23.9182 326.657 23.3571C325.616 19.8957 324.573 16.4353 323.531 12.9723C323.384 12.4812 323.636 11.9824 324.102 11.8447C331.213 9.75719 340.688 7.17273 352.034 4.63091C352.559 4.51368 352.839 3.95171 352.638 3.42219C350.655 -1.78522 348.672 -6.99262 346.689 -12.2C346.506 -12.6808 346.72 -13.1999 347.172 -13.373C355.158 -16.4283 366.228 -20.3924 379.693 -24.3767C379.693 -24.3767 388.273 -26.9144 396.373 -28.9599C414.629 -33.5689 463.089 -36.7818 527.968 -34.9298C528.82 -34.9055 529.251 -33.8093 528.624 -33.2611C515.52 -21.8114 502.414 -10.3633 489.31 1.08644C488.703 1.61577 489.081 2.67361 489.905 2.75051C495.417 3.26241 501.066 3.82322 506.843 4.43235C507.694 4.52315 508.044 5.64317 507.375 6.13778C496.967 13.8452 486.56 21.5516 476.151 29.259C475.482 29.7536 475.831 30.8746 476.681 30.9639L476.731 30.9689C477.583 31.0597 477.933 32.1797 477.263 32.6754C470.76 37.4906 464.256 42.3068 457.754 47.1219C457.074 47.6239 457.444 48.763 458.309 48.8307C472.217 49.9075 487.011 51.2577 502.566 52.9062C503.417 52.997 503.767 54.117 503.098 54.6116C484.477 68.4001 465.857 82.1875 447.235 95.9759C447.069 96.1001 446.863 96.1565 446.651 96.1393C425.76 94.3741 395.362 92.4977 362.797 93.1376C342.073 93.5447 327.458 94.8339 312.743 97.2294C304.153 98.6269 297.002 100.162 291.85 101.369C291.37 101.481 290.866 101.174 290.717 100.677C288.316 92.7043 285.917 84.7309 283.517 76.7584C283.374 76.2805 282.898 75.9733 282.429 76.0576C275.819 77.2327 270.244 78.4432 266.015 79.4347C265.535 79.5464 265.032 79.2391 264.882 78.7421L264.881 78.7405Z" fill="white"/>
</g>
<g clip-path="url(#clip2_1567_20749)">
<path d="M312.366 168.053C307.677 153.297 302.989 138.538 298.3 123.782C298.117 123.204 298.374 122.652 298.882 122.532C309.792 119.993 324.953 116.837 343.378 114.164C343.378 114.164 355.049 112.472 366.046 111.358C369.193 111.038 372.998 110.854 377.415 110.806C378.03 110.8 378.399 110.195 378.188 109.535C376.895 105.464 375.601 101.394 374.308 97.3216C374.124 96.744 374.382 96.1913 374.89 96.0722C382.646 94.2699 392.987 92.0952 405.393 90.1272C405.967 90.0366 406.254 89.4137 406.01 88.7874C403.606 82.628 401.202 76.4687 398.799 70.3094C398.577 69.7407 398.791 69.1614 399.282 69.0003C407.962 66.1582 420.005 62.5304 434.689 59.0815C434.689 59.0815 444.045 56.8851 452.894 55.2145C472.834 51.4508 526.143 51.841 597.771 59.4443C598.711 59.544 599.232 60.8418 598.564 61.4197C584.589 73.4895 570.612 85.5573 556.637 97.627C555.99 98.185 556.451 99.434 557.363 99.592C563.463 100.646 569.716 101.768 576.112 102.956C577.055 103.132 577.488 104.45 576.771 104.963C565.613 112.954 554.456 120.944 543.298 128.935C542.581 129.448 543.012 130.767 543.954 130.941L544.01 130.951C544.953 131.128 545.385 132.446 544.667 132.96C537.696 137.952 530.724 142.946 523.753 147.938C523.025 148.458 523.48 149.8 524.436 149.951C539.819 152.363 556.191 155.164 573.414 158.373C574.357 158.55 574.789 159.868 574.072 160.381C554.11 174.676 534.149 188.971 514.187 203.266C514.009 203.395 513.785 203.443 513.55 203.405C490.438 199.612 456.836 194.889 420.948 192.878C398.111 191.599 382.047 191.85 365.919 193.365C356.503 194.249 348.68 195.411 343.049 196.367C342.525 196.455 341.957 196.059 341.771 195.474C338.792 186.098 335.814 176.721 332.835 167.344C332.658 166.782 332.119 166.389 331.606 166.446C324.366 167.241 318.268 168.164 313.645 168.948C313.12 169.036 312.552 168.64 312.367 168.055L312.366 168.053Z" fill="white"/>
</g>
<g clip-path="url(#clip3_1567_20749)">
<path d="M361.328 129.112C361.285 129.116 361.241 129.116 361.197 129.124C361.237 129.124 361.285 129.124 361.328 129.112ZM374.171 225.581C372.225 222.941 371.112 220.531 370.429 218.588C368.403 212.844 369.36 208.978 367.299 198.62C366.568 194.945 365.762 191.987 365.209 190.1C363.744 189.232 362.774 187.967 362.588 186.58C362.524 186.116 362.496 185.212 363.076 184.078C362.361 183.123 361.916 182.163 361.571 181.367C358.826 175.012 358.039 168.427 357.833 166.544C357.59 164.367 357.328 161.259 357.285 157.485C356.804 156.573 356.768 155.725 356.764 155.448C355.859 154.571 355.338 153.604 355.044 152.926C354.921 153.35 354.711 153.969 354.361 154.639C354.452 155.245 354.484 155.935 354.389 156.692C354.285 157.521 354.055 158.274 353.753 158.948C353.217 163.808 353.209 167.753 353.308 170.492C353.503 175.856 352.955 181.24 353.36 186.596C353.368 186.679 353.372 186.782 353.38 186.905C353.654 187.468 354.504 189.39 353.9 191.769C353.813 192.114 353.702 192.435 353.574 192.74C353.896 194.893 354.452 198.477 355.251 202.905C357.749 216.792 359.33 220.907 358.989 228.051C358.874 230.533 358.48 234.192 357.157 238.656C357.332 239.127 357.527 240.13 357.368 241.379C357.368 241.379 357.233 242.128 356.772 242.846C356.617 243.084 356.419 243.294 356.184 243.472C354.567 244.709 351.334 244.614 350.432 244.571C344.974 244.301 336.871 241.514 334.614 237.518C334.221 236.82 334.007 236.083 334.015 235.318C334.023 234.501 334.293 233.225 335.778 231.659C334.932 230.656 334.718 229.324 335.234 228.261C335.373 227.972 335.56 227.73 335.754 227.528H335.751C332.457 213.042 329.971 196.09 329.709 177.133C329.617 170.623 329.796 164.391 330.173 158.468C329.875 157.723 329.617 156.839 329.502 155.84C329.415 155.071 329.423 154.373 329.482 153.771C329.025 152.613 328.62 151.281 328.382 149.79C327.838 146.46 328.41 144.224 329.248 138.916C329.649 136.367 330.181 132.684 330.658 128.149C330.412 127.249 330.177 126 330.209 124.514C329.665 124.081 326.59 121.532 326.328 117.227C327.671 116.866 328.878 116.422 329.959 115.935C331.087 115.431 332.084 114.88 332.958 114.321C346.23 105.822 345.507 86.6459 345.376 84.1087C347.628 81.8172 349.88 79.5219 352.132 77.2305C352.176 77.2661 352.22 77.3018 352.264 77.3375C354.575 79.2087 356.887 81.0799 359.203 82.955C359.291 85.9164 359.791 89.9323 361.563 94.3248C364.586 101.837 369.793 106.69 373.543 109.441C374.715 110.301 375.74 110.955 376.515 111.419C376.499 113.001 376.292 115.106 375.541 117.457C375.089 118.868 374.536 120.073 373.996 121.065C374.322 121.616 374.66 122.305 374.918 123.13C375.478 124.906 375.398 126.476 375.255 127.483C374.791 127.273 374.282 127.071 373.726 126.892C371.704 126.242 369.913 126.151 368.689 126.186C368.526 127.205 368.363 128.228 368.201 129.247C369.567 129.386 371.049 129.596 372.618 129.901C373.821 130.135 374.95 130.401 376.002 130.682C377.313 134.195 378.596 138.468 379.442 143.412C380.07 147.095 380.348 150.472 380.419 153.449C381.123 157.287 381.822 160.906 382.509 164.308C381.424 163.915 379.903 163.503 378.06 163.408C375.561 163.281 373.563 163.793 372.372 164.193C372.483 165.343 372.59 166.492 372.697 167.642C374.715 167.198 377.48 166.865 380.662 167.329C381.595 167.467 382.457 167.654 383.24 167.876C384.988 176.245 386.632 183.123 387.971 188.423C389.925 196.154 392.027 203.646 391.951 214.223C391.931 217.288 391.729 220.079 391.455 222.533V222.541C391.478 222.695 391.971 224.55 392.607 227.004C394.136 232.931 394.204 233.514 394.231 234.14C394.259 234.925 394.223 235.912 393.989 237.074C394.287 237.577 395.165 239.203 394.636 241.014C394.513 241.439 394.331 241.811 394.116 242.14C393.477 243.116 392.527 243.71 391.872 244.107C386.144 247.591 377.436 244.828 374.862 241.851C374.564 241.502 373.945 240.773 373.829 239.706C373.647 238.006 374.87 236.662 375.263 236.261C375.267 235.952 375.275 235.639 375.291 235.318C375.331 234.568 375.398 233.859 375.482 233.201C374.858 232.606 374.27 231.829 373.889 230.822C372.9 228.233 373.96 225.993 374.163 225.581H374.171Z" fill="#7099ED"/>
<path d="M394.113 242.145C394.447 243.406 394.713 245.186 394.363 247.235C394.268 247.806 394.137 248.329 393.986 248.805C386.971 248.702 379.951 248.595 372.94 248.492C372.817 248.127 372.67 247.548 372.694 246.843C372.706 246.589 372.761 245.812 373.778 243.786C374.025 243.299 374.382 242.629 374.863 241.852C377.433 244.829 386.144 247.592 391.872 244.107C392.524 243.711 393.473 243.116 394.117 242.145H394.113Z" fill="#262626"/>
<path d="M383.915 89.7773C384.872 96.1481 384.233 101.27 382.453 103.367C381.972 103.934 381.047 105.024 379.529 105.302C378.334 105.52 377.281 105.139 376.876 104.989C375.795 104.584 375.1 103.942 374.759 103.577L374.707 103.569C374.937 102.111 375.14 100.576 375.291 98.9747H375.339C376.653 98.2968 378.592 97.0995 380.451 95.1094C382.318 93.1074 383.355 91.1133 383.919 89.7773H383.915Z" fill="white"/>
<path d="M375.287 98.9756C375.136 100.577 374.934 102.111 374.703 103.57C374.373 105.691 373.972 107.654 373.547 109.442C369.801 106.69 364.59 101.838 361.567 94.3254C359.795 89.9328 359.294 85.9169 359.207 82.9555C360.295 81.6671 370.103 69.8692 366.766 65.5995C366.619 65.4092 366.441 65.2348 366.234 65.0723C367.275 65.7264 368.296 66.432 369.285 67.1932C379.41 74.9594 382.783 85.3857 383.911 89.7782C383.347 91.1142 382.31 93.1083 380.443 95.1103C378.588 97.1004 376.646 98.2977 375.331 98.9795H375.283L375.287 98.9756Z" fill="white"/>
<path d="M382.512 164.308C382.755 165.525 383.001 166.715 383.243 167.876C382.457 167.654 381.595 167.468 380.665 167.329C377.483 166.865 374.719 167.198 372.701 167.642C372.593 166.493 372.486 165.343 372.375 164.193C373.567 163.793 375.569 163.282 378.063 163.408C379.907 163.504 381.428 163.916 382.512 164.308Z" fill="#7099ED"/>
<path d="M375.258 127.483C375.818 127.736 376.311 127.998 376.736 128.252C376.493 129.064 376.247 129.873 376.005 130.682C374.952 130.4 373.824 130.135 372.62 129.901C371.051 129.596 369.574 129.386 368.203 129.247C368.366 128.228 368.529 127.205 368.692 126.186C369.915 126.151 371.707 126.242 373.729 126.892C374.285 127.07 374.793 127.273 375.258 127.483Z" fill="#7099ED"/>
<path d="M366.769 65.599C370.105 69.8687 360.298 81.6666 359.209 82.955C356.897 81.0799 354.585 79.2087 352.27 77.3375C353.235 76.4059 363.321 66.5307 360.754 62.5663C360.603 62.3324 360.401 62.1104 360.139 61.9082C362.22 62.7843 364.262 63.8309 366.228 65.0638L366.236 65.0718C366.447 65.2343 366.622 65.4087 366.769 65.599Z" fill="#7099ED"/>
<path d="M339.353 34.3482C337.974 34.2134 336.6 34.0746 335.237 33.9359C332.949 33.702 330.693 33.472 328.496 33.2381C328.603 32.4294 328.715 31.6167 328.822 30.808C330.895 30.9507 332.754 29.5988 333.195 27.6404C333.235 27.4541 333.283 27.2638 333.322 27.0696C334.943 19.5175 341.819 14.1973 349.661 14.1973C350.205 14.1973 350.745 14.2211 351.297 14.2726C358.241 14.9267 363.405 20.7504 363.008 27.47C362.877 29.7138 362.742 31.8744 362.63 33.5553C362.626 33.587 362.626 33.6187 362.626 33.6504C362.626 34.2728 363.059 34.8279 363.687 35.0023C363.469 36.0885 363.552 35.6842 363.334 36.7664C362.38 36.6673 361.415 36.5642 360.446 36.4651C353.633 35.7595 346.399 35.0578 339.356 34.3482H339.353Z" fill="#FF8B63"/>
<path d="M360.755 62.5671C363.321 66.5315 353.236 76.4067 352.27 77.3383C352.227 77.3026 352.183 77.267 352.139 77.2313C350.411 74.0479 348.024 70.2936 344.743 66.4086C342.069 63.2371 339.38 60.6602 336.965 58.6106C338.196 58.456 339.479 58.3569 340.794 58.3173C345.871 58.1627 351.468 58.8802 356.93 60.6999C358.006 61.0606 359.075 61.461 360.135 61.909C360.398 62.1112 360.6 62.3332 360.751 62.5671H360.755Z" fill="white"/>
<path d="M360.441 36.4646C359.841 39.315 359.015 42.4508 357.871 45.7849C357.112 47.9851 356.294 50.0228 355.463 51.8979C355.44 51.9614 355.412 52.0248 355.38 52.0882C354.248 51.89 352.83 51.7393 351.205 51.783C349.85 51.8186 348.659 51.9812 347.67 52.1754C346.7 49.7017 345.731 47.2319 344.762 44.7581C345.111 44.5916 345.576 44.3101 346.005 43.8621C346.744 43.0891 347.769 41.4161 346.99 40.2427C346.494 39.4894 345.318 39.0415 344.448 39.3824C343.892 39.5965 343.606 40.0722 343.447 40.3497C342.951 41.1783 343.034 42.0148 343.082 42.3359C342.51 41.8364 341.945 41.3408 341.373 40.8453C342.549 39.1525 342.613 37.1069 341.58 35.7471C340.869 34.8155 339.844 34.4745 339.352 34.3477C346.398 35.0573 353.632 35.759 360.441 36.4646Z" fill="#262626"/>
<path d="M344.763 44.7583C345.732 47.232 346.702 49.7019 347.671 52.1756C348.66 51.9814 349.852 51.8188 351.206 51.7831C352.831 51.7395 354.245 51.8902 355.381 52.0884C355.409 52.025 355.437 51.9615 355.465 51.8981H355.472C355.671 53.0517 356.037 55.1687 356.231 56.3184C356.422 57.4165 356.779 59.5176 356.966 60.6158L356.934 60.699C351.472 58.8794 345.875 58.1618 340.799 58.3164V58.2649C340.767 56.6871 340.731 55.1053 340.695 53.5275C339.484 53.3213 337.776 52.8218 336.497 51.47C335.488 50.3996 335.003 49.0517 334.868 45.3133C334.844 44.6393 334.832 43.8861 334.832 43.0417C334.828 40.6631 334.912 37.5669 335.233 33.9355C336.596 34.0743 337.97 34.2131 339.349 34.3478C339.837 34.4747 340.866 34.8156 341.577 35.7473C342.614 37.107 342.546 39.1527 341.371 40.8454C341.943 41.341 342.507 41.8365 343.079 42.3361C343.031 42.0149 342.948 41.1785 343.444 40.3499C343.603 40.0724 343.893 39.5967 344.445 39.3826C345.315 39.0417 346.491 39.4896 346.988 40.2429C347.762 41.4163 346.741 43.0893 346.002 43.8623C345.569 44.3103 345.109 44.5918 344.759 44.7583H344.763ZM337.792 39.3152C337.792 38.558 337.502 37.9435 337.148 37.9435C336.794 37.9435 336.501 38.558 336.501 39.3152C336.501 40.0724 336.791 40.6869 337.148 40.6869C337.506 40.6869 337.792 40.0724 337.792 39.3152Z" fill="white"/>
<path d="M356.447 246.703C356.451 247.409 356.451 248.11 356.447 248.804H326.424C325.518 246.354 325.911 245.046 326.384 244.32C327.353 242.826 329.181 243.004 331.338 241.498C333.093 240.273 334.027 238.659 334.531 237.565L334.623 237.518C336.879 241.514 344.979 244.301 350.441 244.57C351.338 244.614 354.572 244.709 356.193 243.472L356.415 243.5C356.435 244.554 356.447 245.625 356.451 246.703H356.447Z" fill="#262626"/>
<path d="M352.138 77.23C349.885 79.5214 347.633 81.8168 345.381 84.1082C343.649 79.3034 340.721 73.0992 335.644 66.8791C333.615 64.3934 331.549 62.2804 329.583 60.4964L329.547 60.3973C331.708 59.5608 334.226 58.9503 336.971 58.6094C339.386 60.659 342.072 63.2358 344.749 66.4073C348.026 70.2924 350.414 74.0466 352.146 77.23H352.138Z" fill="#7099ED"/>
<path d="M326.054 86.6346C323.07 88.3116 320.095 89.9845 317.12 91.6575C316.397 91.1302 315.543 90.4484 314.629 89.596C313.004 88.0856 311.213 86.0321 309.723 83.3482C308.476 81.1043 307.761 78.9993 307.336 77.2946C308.043 76.7396 308.818 76.1132 309.64 75.4274C313.433 72.2638 314.907 70.5869 317.684 68.2122C317.684 68.2122 321.636 64.8385 326.379 61.9406C327.321 61.3657 328.381 60.8504 329.541 60.3984L329.577 60.4975C331.543 62.2815 333.613 64.3945 335.639 66.8802C340.716 73.1003 343.643 79.3045 345.375 84.1093C345.506 86.6465 346.229 105.822 332.958 114.322C332.084 114.881 331.087 115.432 329.958 115.935C329.355 114.413 328.751 112.72 328.191 110.861C326.912 106.627 325.879 101.549 325.668 95.7884C325.549 92.4424 325.72 89.374 326.046 86.6346H326.054Z" fill="white"/>
<path d="M337.144 37.9434C337.497 37.9434 337.787 38.5578 337.787 39.315C337.787 40.0722 337.497 40.6867 337.144 40.6867C336.79 40.6867 336.496 40.0722 336.496 39.315C336.496 38.5578 336.786 37.9434 337.144 37.9434Z" fill="#262626"/>
<path d="M328.198 110.861C328.758 112.721 329.362 114.413 329.966 115.936C328.885 116.423 327.677 116.867 326.335 117.228C326.132 113.969 327.658 111.615 328.194 110.861H328.198Z" fill="#262626"/>
<path d="M309.723 83.3479C311.209 86.0318 313.004 88.0853 314.629 89.5957C313 90.4838 310.895 91.4312 308.345 92.129C307.391 92.3867 306.49 92.5849 305.632 92.7316C304.861 92.8663 304.063 92.8108 303.312 92.5809C299.411 91.3956 294.422 89.4491 289.162 86.1705C285.822 84.0853 283.057 81.889 280.816 79.8473C280.84 79.4113 280.896 78.9395 280.991 78.44C281.063 78.0753 281.15 77.6987 281.273 77.3101C281.309 77.1793 281.357 77.0485 281.4 76.9177C282.088 74.9712 283.236 73.4964 284.352 72.434H284.356C285.317 71.5063 286.251 70.8879 286.827 70.543C288.229 71.2447 289.627 71.9503 291.029 72.6599C292.586 73.4489 294.148 74.2378 295.709 75.0346C298.632 76.5212 301.548 78.0118 304.444 79.5024C305.183 78.9633 306.172 78.218 307.34 77.2943C307.765 78.999 308.476 81.104 309.727 83.3479H309.723Z" fill="white"/>
<path d="M286.826 70.5432C285.749 69.9961 284.669 69.4569 283.592 68.9178L283.668 68.783C283.267 65.4728 281.63 63.2329 279.946 63.1298C279.231 62.9831 278.214 62.6858 277.141 62.0555C277.121 61.2705 276.951 60.2239 276.327 59.1932C274.599 56.3309 270.031 56.212 268.462 56.1485C267.925 56.1287 267.477 56.1406 267.179 56.1525L265.987 54.5826L257.987 43.9145C257.407 43.1335 256.275 42.9749 255.488 43.5617L253.74 44.8699C252.997 45.421 252.842 46.4398 253.379 47.1772C255.095 49.528 256.811 51.8829 258.527 54.2338L258.551 54.2694L260.604 57.0802C261.141 57.8175 261.681 58.5589 262.217 59.2963C260.465 58.3845 258.447 58.8879 257.629 60.1605C256.807 61.441 257.446 63.1021 258.277 63.9663C259.115 64.8345 260.255 65.001 261.526 65.1794C261.629 66.0634 262.011 68.3231 263.846 70.448C264.815 71.57 265.888 72.3034 266.793 72.787C266.865 73.1398 267.055 73.8257 267.667 74.2895C268.354 74.8128 269.177 74.7613 270.146 74.682C270.869 74.6225 272.033 74.4322 273.364 73.7662C273.658 75.4392 274.647 76.8346 276.081 77.465C277.105 77.9169 278.087 77.8614 278.643 77.7782H278.647C279.302 78.4402 280.025 79.1379 280.812 79.8476C280.808 79.8555 280.808 79.8674 280.808 79.8753H280.8L280.279 80.24L278.655 78.0993L275.242 80.5056L276.867 82.6504L272.752 85.5563L270.996 83.2411L268.013 85.3461L233.199 39.3912L236.21 37.2702L234.594 35.1334L238.713 32.2275L240.326 34.3643L243.738 31.954L242.121 29.8212L246.24 26.9153L247.853 29.0481L251.265 26.6417L249.653 24.5089L253.768 21.603L255.385 23.7358L258.543 21.5039L261.824 25.837L259.631 27.4465L262.189 30.6933L264.323 29.1314L267.139 32.8499L264.994 34.4238L267.552 37.6706L269.634 36.1443L272.45 39.8669L270.356 41.4051L272.915 44.6519L274.949 43.1613L277.765 46.8838L275.719 48.3823L278.277 51.6292L280.256 50.1782L283.076 53.8968L281.078 55.3636L283.636 58.6104L285.567 57.1912L288.387 60.9137L286.441 62.3409L288.999 65.5877L290.882 64.2081L293.734 67.9703L290.544 70.2221L291.906 72.0219L291.009 72.6562H291.005C289.602 71.9505 288.204 71.2449 286.802 70.5432H286.826Z" fill="#7099ED"/>
<path d="M283.591 68.9172C284.668 69.4564 285.748 69.9955 286.825 70.5426C286.249 70.8875 285.315 71.5059 284.354 72.4336H284.35C283.238 73.496 282.086 74.9708 281.399 76.9173C281.355 77.0481 281.307 77.1789 281.272 77.3098C281.148 77.6983 281.057 78.0749 280.99 78.4396C280.89 78.9391 280.839 79.4109 280.815 79.847C280.028 79.1373 279.305 78.4396 278.65 77.7736H278.646C278.086 77.8608 277.105 77.9163 276.084 77.4644C274.65 76.834 273.665 75.4386 273.367 73.7656C272.036 74.4316 270.872 74.6219 270.149 74.6814C269.18 74.7607 268.357 74.8122 267.67 74.2889C267.059 73.8251 266.864 73.1392 266.796 72.7864C265.891 72.3028 264.822 71.5694 263.849 70.4474C262.014 68.3225 261.632 66.0629 261.529 65.1788C260.258 65.0004 259.118 64.8339 258.28 63.9657C257.449 63.1015 256.81 61.4404 257.632 60.1599C258.45 58.8873 260.472 58.3839 262.22 59.2957C262.244 59.3274 262.264 59.3591 262.292 59.3908L262.335 59.486C263.329 59.0816 264.218 58.7843 264.949 58.5662C266.534 58.0945 267.46 57.9795 268.226 58.0746V58.0667C268.25 58.035 268.326 57.9557 268.437 57.8526L265.986 54.582L267.178 56.1519C267.472 56.14 267.921 56.1281 268.461 56.148C270.03 56.2114 274.598 56.3303 276.326 59.1926C276.95 60.2233 277.12 61.2699 277.14 62.0509C278.213 62.6852 279.23 62.9825 279.945 63.1292C281.629 63.2323 283.266 65.4722 283.667 68.7824L283.591 68.9172Z" fill="white"/>
<path d="M262.219 59.2955C261.683 58.5581 261.143 57.8168 260.607 57.0794L258.553 54.2686L258.529 54.233C257.921 53.3568 258.156 52.1675 259.057 51.5729L260.555 50.5818C261.441 49.9951 262.652 50.1972 263.292 51.0337L265.981 54.5818L268.432 57.8524C268.321 57.9555 268.245 58.0348 268.222 58.0665V58.0744C267.455 57.9793 266.529 58.0943 264.944 58.566C264.214 58.7841 263.328 59.0814 262.331 59.4858L262.287 59.3906C262.263 59.3589 262.243 59.3272 262.215 59.2955H262.219Z" fill="white"/>
<path d="M265.981 54.5823L263.292 51.0342C262.656 50.1977 261.445 49.9955 260.555 50.5822L259.057 51.5733C258.152 52.168 257.921 53.3573 258.529 54.2334C256.813 51.8825 255.097 49.5277 253.381 47.1768C252.845 46.4395 253 45.4206 253.742 44.8696L255.49 43.5613C256.277 42.9746 257.409 43.1332 257.989 43.9142L265.989 54.5823H265.981Z" fill="white"/>
<path d="M340.684 52.9609C340.688 53.1512 340.692 53.3376 340.696 53.5278C340.731 55.1057 340.767 56.6874 340.799 58.2653" stroke="#262626" stroke-width="0.99" stroke-linecap="round" stroke-linejoin="round"/>
<path d="M335.237 33.9355C334.912 37.5669 334.832 40.6631 334.836 43.0417C334.836 43.8861 334.848 44.6393 334.872 45.3133C335.003 49.0517 335.488 50.3996 336.5 51.47C337.78 52.8218 339.488 53.3213 340.699 53.5275C340.719 53.5354 340.735 53.5354 340.751 53.5394" stroke="#262626" stroke-width="0.99" stroke-linecap="round" stroke-linejoin="round"/>
<path d="M355.473 51.9023C355.671 53.052 356.037 55.169 356.231 56.3187C356.422 57.4168 356.78 59.5179 356.966 60.616" stroke="#262626" stroke-width="0.99" stroke-linecap="round" stroke-linejoin="round"/>
<path d="M360.441 36.4648C359.841 39.3152 359.014 42.451 357.87 45.7851C357.112 47.9853 356.293 50.023 355.463 51.8981C355.439 51.9616 355.412 52.025 355.38 52.0884C354.248 51.8902 352.83 51.7396 351.205 51.7832C349.85 51.8189 348.659 51.9814 347.669 52.1756C346.7 49.7019 345.731 47.2321 344.762 44.7583" stroke="#262626" stroke-width="0.99" stroke-linecap="round" stroke-linejoin="round"/>
<path d="M334.871 45.3139C334.955 45.3258 335.527 45.4011 336.015 45.0007C336.468 44.6241 336.5 44.1087 336.5 44.0215" stroke="#262626" stroke-width="0.99" stroke-linecap="round" stroke-linejoin="round"/>
<path d="M337.791 39.315C337.791 40.0722 337.501 40.6867 337.147 40.6867C336.794 40.6867 336.5 40.0722 336.5 39.315C336.5 38.5578 336.79 37.9434 337.147 37.9434C337.505 37.9434 337.791 38.5578 337.791 39.315Z" stroke="#262626" stroke-width="0.99" stroke-linecap="round" stroke-linejoin="round"/>
<path d="M339.301 34.3359L339.348 34.3478C339.837 34.4747 340.866 34.8156 341.577 35.7473C342.614 37.107 342.546 39.1526 341.37 40.8454C341.942 41.341 342.506 41.8365 343.078 42.336C343.031 42.0149 342.947 41.1784 343.444 40.3499C343.603 40.0724 343.893 39.5967 344.445 39.3826C345.315 39.0416 346.491 39.4896 346.987 40.2428C347.762 41.4163 346.741 43.0893 346.002 43.8623C345.569 44.3103 345.108 44.5918 344.759 44.7583C344.695 44.7939 344.636 44.8217 344.584 44.8455" stroke="#262626" stroke-width="0.99" stroke-linecap="round" stroke-linejoin="round"/>
<path d="M360.442 36.4651C361.411 36.5642 362.376 36.6673 363.33 36.7664C363.548 35.6842 363.465 36.0885 363.683 35.0023C363.056 34.8279 362.623 34.2728 362.623 33.6504C362.623 33.6187 362.623 33.587 362.627 33.5553C362.738 31.8744 362.873 29.7138 363.004 27.47C363.397 20.7504 358.233 14.9267 351.293 14.2726C350.741 14.2211 350.201 14.1973 349.657 14.1973C341.819 14.1973 334.943 19.5175 333.319 27.0696C333.279 27.2638 333.231 27.4541 333.191 27.6404C332.747 29.5988 330.891 30.9507 328.818 30.808C328.711 31.6167 328.599 32.4294 328.492 33.2381C330.689 33.472 332.945 33.702 335.233 33.9359C336.596 34.0746 337.97 34.2134 339.349 34.3482C346.396 35.0578 353.629 35.7595 360.438 36.4651H360.442Z" stroke="#262626" stroke-width="0.99" stroke-linecap="round" stroke-linejoin="round"/>
<path d="M336.62 22.3398C336.445 22.55 334.932 24.4291 335.563 26.887C336.135 29.115 338.03 30.11 338.324 30.2567" stroke="#262626" stroke-width="0.99" stroke-linecap="round" stroke-linejoin="round"/>
<path d="M278.195 77.3105C278.342 77.4652 278.493 77.6198 278.652 77.7744C279.308 78.4404 280.031 79.1381 280.817 79.8477C283.061 81.8894 285.826 84.0857 289.163 86.1709C294.422 89.4495 299.408 91.396 303.312 92.5813C304.063 92.8112 304.862 92.8667 305.632 92.732C306.486 92.5853 307.392 92.3871 308.345 92.1294C310.896 91.4316 313.005 90.4842 314.63 89.5961" stroke="#262626" stroke-width="0.99" stroke-linecap="round" stroke-linejoin="round"/>
<path d="M307.324 77.2422C307.324 77.2422 307.332 77.2779 307.336 77.2937C307.761 78.9984 308.472 81.1035 309.724 83.3473C311.209 86.0312 313.005 88.0847 314.629 89.5952C315.543 90.4475 316.397 91.1294 317.12 91.6566C320.099 89.9837 323.075 88.3107 326.054 86.6338C326.189 86.5585 326.328 86.4792 326.463 86.4039C326.94 86.3801 329.899 86.1898 331.988 83.7398C333.879 81.5237 333.736 79.0143 333.693 78.483" stroke="#262626" stroke-width="0.99" stroke-linecap="round" stroke-linejoin="round"/>
<path d="M326.465 86.4043C327.406 87.7443 328.967 88.4539 330.445 88.2081C331.712 87.998 332.479 87.1615 332.721 86.8761" stroke="#262626" stroke-width="0.99" stroke-linecap="round" stroke-linejoin="round"/>
<path d="M284.352 72.4336C283.24 73.496 282.088 74.9708 281.4 76.9173C281.357 77.0481 281.309 77.1789 281.273 77.3098C281.15 77.6983 281.059 78.0749 280.991 78.4396C280.892 78.9391 280.84 79.4109 280.816 79.847C280.813 79.8549 280.812 79.8668 280.812 79.8747V79.8827" stroke="#262626" stroke-width="0.99" stroke-linecap="round" stroke-linejoin="round"/>
<path d="M286.83 70.5391C286.83 70.5391 286.826 70.5391 286.826 70.543C286.25 70.8879 285.317 71.5064 284.355 72.434" stroke="#262626" stroke-width="0.99" stroke-linecap="round" stroke-linejoin="round"/>
<path d="M278.234 75.8978C278.35 75.0653 278.596 73.983 279.128 72.7977C279.47 72.0325 279.859 71.3943 280.225 70.8789" stroke="#262626" stroke-width="0.99" stroke-linecap="round" stroke-linejoin="round"/>
<path d="M278.648 77.7783C278.088 77.8615 277.107 77.917 276.086 77.4651C274.652 76.8348 273.667 75.4393 273.369 73.7663C273.321 73.4928 273.289 73.2074 273.277 72.918" stroke="#262626" stroke-width="0.99" stroke-linecap="round" stroke-linejoin="round"/>
<path d="M283.667 68.7835C283.266 65.4732 281.629 63.2334 279.945 63.1303C279.603 63.1105 279.035 63.166 278.316 63.6655" stroke="#262626" stroke-width="0.99" stroke-linecap="round" stroke-linejoin="round"/>
<path d="M277.137 62.0516C276.978 61.9565 276.812 61.8534 276.649 61.7424C276.057 61.338 275.588 60.9099 275.227 60.5293" stroke="#262626" stroke-width="0.99" stroke-linecap="round" stroke-linejoin="round"/>
<path d="M279.945 63.129C279.23 62.9823 278.213 62.685 277.141 62.0547" stroke="#262626" stroke-width="0.99" stroke-linecap="round" stroke-linejoin="round"/>
<path d="M277.138 62.0542C277.119 61.2693 276.948 60.2227 276.324 59.192C274.596 56.3297 270.028 56.2108 268.459 56.1473C267.923 56.1275 267.474 56.1394 267.176 56.1513" stroke="#262626" stroke-width="0.99" stroke-linecap="round" stroke-linejoin="round"/>
<path d="M270.275 58.8408C269.945 58.6268 269.437 58.3453 268.769 58.1748C268.595 58.1312 268.416 58.0955 268.225 58.0757C267.459 57.9806 266.533 58.0955 264.948 58.5673C264.217 58.7853 263.331 59.0827 262.334 59.487C261.774 59.7209 261.178 59.9865 260.559 60.2918" stroke="#262626" stroke-width="0.99" stroke-linecap="round" stroke-linejoin="round"/>
<path d="M262.252 59.3109C262.252 59.3109 262.232 59.299 262.22 59.2951C260.468 58.3833 258.45 58.8867 257.632 60.1593C256.81 61.4398 257.449 63.1009 258.28 63.9651C259.118 64.8333 260.258 64.9998 261.529 65.1782C262.681 65.3447 263.646 65.2694 264.294 65.1782" stroke="#262626" stroke-width="0.99" stroke-linecap="round" stroke-linejoin="round"/>
<path d="M261.531 65.1797C261.635 66.0637 262.016 68.3234 263.851 70.4483C264.82 71.5703 265.893 72.3037 266.799 72.7873C267.462 73.1322 268.034 73.3463 268.403 73.4652" stroke="#262626" stroke-width="0.99" stroke-linecap="round" stroke-linejoin="round"/>
<path d="M266.797 72.7793V72.7872C266.868 73.1401 267.059 73.8259 267.671 74.2897C268.358 74.813 269.18 74.7615 270.15 74.6822C270.872 74.6227 272.036 74.4324 273.367 73.7664" stroke="#262626" stroke-width="0.99" stroke-linecap="round" stroke-linejoin="round"/>
<path d="M326.052 86.6348C325.726 89.3741 325.556 92.4426 325.675 95.7885C325.885 101.549 326.918 106.627 328.197 110.861C328.757 112.72 329.361 114.413 329.965 115.935C329.965 115.939 329.969 115.939 329.969 115.943" stroke="#262626" stroke-width="0.99" stroke-linecap="round" stroke-linejoin="round"/>
<path d="M326.332 117.227C327.675 116.866 328.882 116.422 329.963 115.935C331.091 115.431 332.088 114.88 332.962 114.321C346.233 105.822 345.51 86.6459 345.379 84.1087C347.632 81.8172 349.884 79.5219 352.136 77.2305C352.18 77.2661 352.224 77.3018 352.267 77.3375C354.579 79.2087 356.891 81.0799 359.207 82.955C359.295 85.9164 359.795 89.9323 361.567 94.3248C364.59 101.837 369.797 106.69 373.547 109.441C374.719 110.301 375.744 110.955 376.519 111.419C376.503 113.001 376.296 115.106 375.545 117.457C375.093 118.868 374.54 120.073 374 121.065C374.326 121.616 374.663 122.305 374.922 123.13C375.482 124.906 375.402 126.476 375.259 127.483C375.255 127.515 375.251 127.542 375.247 127.574" stroke="#262626" stroke-width="0.99" stroke-linecap="round" stroke-linejoin="round"/>
<path d="M328.194 110.861C327.658 111.615 326.132 113.969 326.335 117.228C326.597 121.533 329.676 124.083 330.216 124.515" stroke="#262626" stroke-width="0.99" stroke-linecap="round" stroke-linejoin="round"/>
<path d="M349.215 93.0687C349.819 97.1599 352.254 99.8398 354.009 99.7367C355.869 99.6257 358.188 96.3195 357.747 91.582" stroke="#262626" stroke-width="0.99" stroke-linecap="round" stroke-linejoin="round"/>
<path d="M359.26 99.6055C359.236 100.355 359.057 102.254 357.635 103.994C355.22 106.944 351.351 106.836 350.914 106.821" stroke="#262626" stroke-width="0.99" stroke-linecap="round" stroke-linejoin="round"/>
<path d="M329.488 153.771C329.969 154.985 330.513 155.999 330.986 156.796" stroke="#262626" stroke-width="0.99" stroke-linecap="round" stroke-linejoin="round"/>
<path d="M330.717 121.248C330.491 122.017 330.288 122.992 330.228 124.122C330.22 124.257 330.216 124.388 330.216 124.515C330.185 126.001 330.419 127.25 330.665 128.15C330.189 132.685 329.66 136.368 329.255 138.917C328.417 144.226 327.845 146.461 328.389 149.792C328.628 151.282 329.033 152.614 329.49 153.768" stroke="#262626" stroke-width="0.99" stroke-linecap="round" stroke-linejoin="round"/>
<path d="M356.305 122.591C357.194 122.544 358.068 122.484 358.918 122.413C361.389 122.203 363.681 121.901 365.767 121.561" stroke="#262626" stroke-width="0.99" stroke-linecap="round" stroke-linejoin="round"/>
<path d="M338.676 121.77C342.684 122.364 347.471 122.792 352.869 122.709C354.041 122.693 355.181 122.654 356.289 122.594" stroke="#262626" stroke-width="0.99" stroke-linecap="round" stroke-linejoin="round"/>
<path d="M361.195 129.124C361.239 129.116 361.283 129.116 361.326 129.112C363.583 128.922 365.648 128.617 367.499 128.252" stroke="#262626" stroke-width="0.99" stroke-linecap="round" stroke-linejoin="round"/>
<path d="M355.145 129.3C356.718 129.336 358.422 129.312 360.237 129.193C360.559 129.173 360.873 129.149 361.186 129.125" stroke="#262626" stroke-width="0.99" stroke-linecap="round" stroke-linejoin="round"/>
<path d="M341.391 158.155C343.798 158.448 345.832 158.42 347.349 158.313C349.47 158.159 350.567 158.072 351.739 157.421C353.038 156.708 353.852 155.622 354.364 154.638C354.714 153.968 354.924 153.35 355.048 152.926C355.341 153.604 355.866 154.571 356.768 155.447C357.026 155.697 357.32 155.943 357.645 156.169C359.794 157.663 362.253 157.576 364.927 157.485C366.21 157.441 368.025 157.271 370.162 156.692" stroke="#262626" stroke-width="0.99" stroke-linecap="round" stroke-linejoin="round"/>
<path d="M361.374 159.879C361.08 159.875 359.24 159.828 357.906 158.365C357.644 158.076 357.437 157.778 357.282 157.485C356.801 156.573 356.766 155.725 356.762 155.447" stroke="#262626" stroke-width="0.99" stroke-linecap="round" stroke-linejoin="round"/>
<path d="M353.751 158.953C352.845 160.951 351.312 162.248 350.648 162.755" stroke="#262626" stroke-width="0.99" stroke-linecap="round" stroke-linejoin="round"/>
<path d="M354.358 154.639C354.449 155.245 354.481 155.935 354.386 156.692C354.282 157.521 354.052 158.274 353.75 158.948" stroke="#262626" stroke-width="0.99" stroke-linecap="round" stroke-linejoin="round"/>
<path d="M331.135 160.313C330.837 159.845 330.484 159.226 330.178 158.469C329.88 157.724 329.622 156.84 329.507 155.841C329.419 155.072 329.427 154.374 329.487 153.771" stroke="#262626" stroke-width="0.99" stroke-linecap="round" stroke-linejoin="round"/>
<path d="M330.176 158.469C329.798 164.392 329.62 170.624 329.711 177.133C329.973 196.091 332.46 213.042 335.753 227.528" stroke="#262626" stroke-width="0.99" stroke-linecap="round" stroke-linejoin="round"/>
<path d="M337.349 226.611C337.187 226.655 336.388 226.881 335.76 227.527C335.562 227.729 335.379 227.971 335.24 228.26C334.724 229.323 334.934 230.655 335.784 231.658C335.892 231.785 336.007 231.908 336.134 232.023" stroke="#262626" stroke-width="0.99" stroke-linecap="round" stroke-linejoin="round"/>
<path d="M353.751 158.949C353.214 163.81 353.206 167.754 353.306 170.493C353.5 175.857 352.952 181.241 353.357 186.597C353.365 186.68 353.369 186.783 353.377 186.906C353.409 187.54 353.393 188.682 352.813 189.887C352.189 191.187 351.173 192.016 350.43 192.504" stroke="#262626" stroke-width="0.99" stroke-linecap="round" stroke-linejoin="round"/>
<path d="M353.382 186.904C353.656 187.467 354.506 189.39 353.902 191.769C353.815 192.113 353.704 192.435 353.577 192.74C352.635 194.976 350.78 196.09 350.379 196.316" stroke="#262626" stroke-width="0.99" stroke-linecap="round" stroke-linejoin="round"/>
<path d="M345.286 195.167C344.809 195.309 344.074 195.472 343.172 195.428C342.477 195.397 341.901 195.254 341.492 195.115" stroke="#262626" stroke-width="0.99" stroke-linecap="round" stroke-linejoin="round"/>
<path d="M353.578 192.732V192.74C353.9 194.893 354.456 198.477 355.254 202.905C357.753 216.792 359.334 220.907 358.992 228.051C358.877 230.533 358.484 234.192 357.161 238.656C356.994 239.223 356.812 239.797 356.609 240.388" stroke="#262626" stroke-width="0.99" stroke-linecap="round" stroke-linejoin="round"/>
<path d="M357.159 238.655C357.333 239.127 357.528 240.13 357.369 241.379C357.369 241.379 357.234 242.128 356.773 242.846C356.618 243.084 356.42 243.294 356.185 243.472C354.569 244.709 351.335 244.614 350.434 244.57C344.976 244.301 336.872 241.514 334.616 237.518C334.222 236.82 334.008 236.082 334.016 235.317C334.024 234.501 334.294 233.224 335.78 231.658" stroke="#262626" stroke-width="0.99" stroke-linecap="round" stroke-linejoin="round"/>
<path d="M340.355 236.832C341.098 237.605 342.183 238.557 343.656 239.393C346.04 240.745 348.304 241.145 349.671 241.276" stroke="#262626" stroke-width="0.99" stroke-linecap="round" stroke-linejoin="round"/>
<path d="M356.411 243.501C356.431 244.556 356.443 245.626 356.447 246.704C356.451 247.41 356.451 248.112 356.447 248.805H326.424C325.518 246.355 325.911 245.047 326.384 244.322C327.353 242.827 329.181 243.006 331.338 241.499C333.093 240.274 334.027 238.661 334.531 237.566" stroke="#262626" stroke-width="0.99" stroke-linecap="round" stroke-linejoin="round"/>
<path d="M376.005 130.682C374.952 130.4 373.824 130.135 372.62 129.901C371.051 129.596 369.574 129.386 368.203 129.247C368.366 128.228 368.529 127.205 368.692 126.186C369.915 126.151 371.707 126.242 373.729 126.892C374.285 127.07 374.793 127.273 375.258 127.483C375.818 127.736 376.311 127.998 376.736 128.252C376.493 129.064 376.247 129.873 376.005 130.682Z" stroke="#262626" stroke-width="0.99" stroke-linecap="round" stroke-linejoin="round"/>
<path d="M391.457 222.541C391.183 224.991 390.826 227.108 390.492 228.809" stroke="#262626" stroke-width="0.99" stroke-linecap="round" stroke-linejoin="round"/>
<path d="M376.004 130.682C377.315 134.194 378.598 138.468 379.444 143.411C380.072 147.094 380.35 150.472 380.421 153.449C381.124 157.287 381.823 160.906 382.511 164.307C382.753 165.525 382.999 166.714 383.242 167.875" stroke="#262626" stroke-width="0.99" stroke-linecap="round" stroke-linejoin="round"/>
<path d="M383.243 167.876C382.457 167.654 381.595 167.468 380.665 167.329C377.483 166.865 374.719 167.198 372.701 167.642C372.593 166.493 372.486 165.343 372.375 164.193C373.567 163.793 375.569 163.282 378.063 163.408C379.907 163.504 381.428 163.916 382.512 164.308C382.699 164.376 382.866 164.443 383.021 164.507C383.1 165.632 383.18 166.754 383.263 167.88C383.255 167.88 383.251 167.88 383.243 167.88V167.876Z" stroke="#262626" stroke-width="0.99" stroke-linecap="round" stroke-linejoin="round"/>
<path d="M383.242 167.877C384.99 176.246 386.635 183.124 387.973 188.424C389.928 196.155 392.029 203.647 391.954 214.224C391.934 217.289 391.731 220.08 391.457 222.534V222.542C391.481 222.696 391.973 224.552 392.609 227.006C394.138 232.932 394.206 233.515 394.234 234.141C394.261 234.926 394.226 235.914 393.991 237.075C393.789 238.09 393.435 239.236 392.855 240.492" stroke="#262626" stroke-width="0.99" stroke-linecap="round" stroke-linejoin="round"/>
<path d="M392.12 224.809C391.815 223.73 391.501 222.62 391.457 222.537" stroke="#262626" stroke-width="0.99" stroke-linecap="round" stroke-linejoin="round"/>
<path d="M394.114 242.145C393.474 243.116 392.525 243.711 391.869 244.107C386.141 247.592 377.434 244.829 374.86 241.851C374.562 241.503 373.942 240.773 373.827 239.707C373.644 238.006 374.868 236.662 375.261 236.262" stroke="#262626" stroke-width="0.99" stroke-linecap="round" stroke-linejoin="round"/>
<path d="M393.988 237.074C394.286 237.578 395.164 239.203 394.636 241.015C394.513 241.439 394.33 241.812 394.115 242.141" stroke="#262626" stroke-width="0.99" stroke-linecap="round" stroke-linejoin="round"/>
<path d="M357.285 157.473V157.485C357.325 161.259 357.591 164.367 357.833 166.543C358.04 168.426 358.826 175.011 361.571 181.366C361.917 182.163 362.362 183.122 363.077 184.078C363.55 184.708 364.145 185.342 364.904 185.913C366.294 186.968 367.724 187.447 368.678 187.677" stroke="#262626" stroke-width="0.99" stroke-linecap="round" stroke-linejoin="round"/>
<path d="M363.072 184.078C362.492 185.212 362.52 186.116 362.583 186.58C362.77 187.967 363.739 189.232 365.205 190.1C366.003 190.576 366.941 190.933 367.986 191.131" stroke="#262626" stroke-width="0.99" stroke-linecap="round" stroke-linejoin="round"/>
<path d="M365.203 190.1C365.759 191.987 366.562 194.944 367.293 198.619C369.354 208.978 368.397 212.843 370.423 218.588C371.106 220.53 372.218 222.94 374.165 225.581C375.464 227.349 377.136 229.224 379.305 231.135" stroke="#262626" stroke-width="0.99" stroke-linecap="round" stroke-linejoin="round"/>
<path d="M374.165 225.582C373.958 225.994 372.898 228.234 373.891 230.823C374.272 231.83 374.86 232.607 375.484 233.202C376.715 234.371 378.09 234.823 378.332 234.898" stroke="#262626" stroke-width="0.99" stroke-linecap="round" stroke-linejoin="round"/>
<path d="M375.485 233.201C375.401 233.859 375.338 234.569 375.294 235.318C375.278 235.639 375.27 235.952 375.266 236.262C375.254 236.904 375.266 237.514 375.294 238.089" stroke="#262626" stroke-width="0.99" stroke-linecap="round" stroke-linejoin="round"/>
<path d="M381.801 242.322C382.381 242.707 383.457 243.313 384.943 243.527C387.14 243.841 388.856 243.107 389.491 242.794" stroke="#262626" stroke-width="0.99" stroke-linecap="round" stroke-linejoin="round"/>
<path d="M394.113 242.141C394.447 243.406 394.713 245.186 394.363 247.235C394.268 247.806 394.137 248.329 393.986 248.805C386.971 248.702 379.951 248.595 372.94 248.492C372.817 248.127 372.67 247.548 372.694 246.843C372.706 246.589 372.761 245.812 373.778 243.786C374.025 243.299 374.382 242.629 374.863 241.852" stroke="#262626" stroke-width="0.99" stroke-linecap="round" stroke-linejoin="round"/>
<path d="M344.152 41.4203C344.232 41.452 344.526 41.5749 344.883 41.4718C345.173 41.3885 345.34 41.2022 345.396 41.1309" stroke="#262626" stroke-width="0.99" stroke-linecap="round" stroke-linejoin="round"/>
<path d="M344.855 42.6223C344.867 42.2378 344.875 41.8572 344.883 41.4727" stroke="#262626" stroke-width="0.99" stroke-linecap="round" stroke-linejoin="round"/>
<path d="M375.267 84.2246C375.517 86.7975 375.66 89.6003 375.628 92.6013C375.605 94.8293 375.481 96.9582 375.287 98.976C375.136 100.578 374.933 102.112 374.703 103.571C374.373 105.692 373.972 107.654 373.547 109.442" stroke="#262626" stroke-width="0.99" stroke-linecap="round" stroke-linejoin="round"/>
<path d="M374.73 80.0137C374.937 81.3378 375.116 82.7412 375.259 84.2238" stroke="#262626" stroke-width="0.99" stroke-linecap="round" stroke-linejoin="round"/>
<path d="M355.797 125.743C355.928 123.678 356.091 122.627 356.293 122.596C356.293 122.596 356.296 122.594 356.301 122.592H356.305C356.5 122.604 356.718 123.512 356.977 125.319" stroke="#262626" stroke-width="0.99" stroke-linecap="round" stroke-linejoin="round"/>
<path d="M358.355 123.514C358.427 122.844 358.685 122.412 358.92 122.412H358.924C359.174 122.412 359.368 122.92 359.392 122.987" stroke="#262626" stroke-width="0.99" stroke-linecap="round" stroke-linejoin="round"/>
<path d="M360.449 128.321C360.552 128.776 360.878 129.105 361.188 129.125H361.192C361.232 129.125 361.279 129.125 361.323 129.113C361.701 129.034 362.102 128.562 362.03 127.908" stroke="#262626" stroke-width="0.99" stroke-linecap="round" stroke-linejoin="round"/>
<path d="M336.961 58.6055C336.961 58.6055 336.965 58.6094 336.969 58.6094C339.384 60.659 342.069 63.2359 344.747 66.4074C348.024 70.2924 350.411 74.0467 352.143 77.2301" stroke="#262626" stroke-width="0.99" stroke-linecap="round" stroke-linejoin="round"/>
<path d="M329.586 60.498C331.552 62.282 333.622 64.395 335.648 66.8807C340.724 73.1008 343.652 79.305 345.384 84.1098" stroke="#262626" stroke-width="0.99" stroke-linecap="round" stroke-linejoin="round"/>
<path d="M352.27 77.3384C353.235 76.4067 363.321 66.5315 360.754 62.5671C360.603 62.3332 360.401 62.1112 360.139 61.909C360.051 61.8456 359.956 61.7782 359.857 61.7188" stroke="#262626" stroke-width="0.99" stroke-linecap="round" stroke-linejoin="round"/>
<path d="M366.225 65.0645C366.102 64.9694 365.971 64.8782 365.824 64.7949" stroke="#262626" stroke-width="0.99" stroke-linecap="round" stroke-linejoin="round"/>
<path d="M359.211 82.9555C360.299 81.6671 370.107 69.8692 366.77 65.5995C366.623 65.4092 366.445 65.2348 366.238 65.0723" stroke="#262626" stroke-width="0.99" stroke-linecap="round" stroke-linejoin="round"/>
<path d="M375.332 98.9798C376.647 98.298 378.586 97.1007 380.445 95.1106C382.312 93.1086 383.348 91.1145 383.912 89.7785C382.788 85.386 379.416 74.9597 369.286 67.1935C368.297 66.4323 367.272 65.7267 366.236 65.0726L366.228 65.0646C364.265 63.8317 362.223 62.7851 360.138 61.909C359.077 61.461 358.009 61.0606 356.932 60.6999C351.47 58.8802 345.873 58.1627 340.797 58.3173C339.482 58.3569 338.199 58.456 336.967 58.6106C334.222 58.9516 331.704 59.5621 329.543 60.3986C328.379 60.8505 327.323 61.3659 326.381 61.9407C321.638 64.8387 317.686 68.2123 317.686 68.2123C314.909 70.587 313.435 72.2639 309.642 75.4275C308.819 76.1133 308.045 76.7397 307.338 77.2947C306.17 78.2184 305.181 78.9637 304.442 79.5029C301.546 78.0123 298.634 76.5217 295.707 75.035C294.146 74.2382 292.584 73.4493 291.027 72.6604C289.625 71.9507 288.227 71.2451 286.824 70.5434C285.748 69.9963 284.668 69.4572 283.591 68.918C283.253 68.7475 282.916 68.5771 282.582 68.4106" stroke="#262626" stroke-width="0.99" stroke-linecap="round" stroke-linejoin="round"/>
<path d="M383.914 89.7773C384.871 96.1481 384.232 101.27 382.452 103.367C381.972 103.934 381.046 105.024 379.529 105.302C378.333 105.52 377.28 105.139 376.875 104.989C375.795 104.584 375.099 103.942 374.758 103.577" stroke="#262626" stroke-width="0.99" stroke-linecap="round" stroke-linejoin="round"/>
<path d="M376.759 80.4863C376.839 80.7797 377.014 81.6082 376.64 82.5637C376.255 83.5429 375.528 84.0543 375.266 84.2247H375.262" stroke="#262626" stroke-width="0.99" stroke-linecap="round" stroke-linejoin="round"/>
<path d="M333.758 149.74C333.853 147.528 334.028 145.169 334.33 142.679C334.671 139.841 335.12 137.193 335.629 134.763C337.635 134.43 339.863 134.172 342.29 134.057C346.362 133.859 349.985 134.112 353.016 134.525C352.841 136.507 352.674 138.521 352.531 140.563C352.321 143.528 352.162 146.43 352.042 149.268" stroke="#262626" stroke-width="0.99" stroke-linecap="round" stroke-linejoin="round"/>
<path d="M363.437 149.033C362.19 144.407 360.943 139.78 359.699 135.154C360.764 134.63 361.928 134.123 363.191 133.663C367.501 132.093 371.489 131.574 374.647 131.467C375.477 133.921 376.272 136.783 376.84 140.014C377.297 142.567 377.539 144.938 377.654 147.071" stroke="#262626" stroke-width="0.99" stroke-linecap="round" stroke-linejoin="round"/>
<path d="M268.227 58.0668C268.25 58.0351 268.326 57.9558 268.437 57.8528C268.735 57.5832 269.323 57.1669 270.109 57.1947C270.594 57.2105 270.96 57.3889 271.166 57.5079" stroke="#262626" stroke-width="0.99" stroke-linecap="round" stroke-linejoin="round"/>
<path d="M260.609 57.0801C261.146 57.8175 261.686 58.5588 262.222 59.2962C262.246 59.3279 262.266 59.3596 262.294 59.3913" stroke="#262626" stroke-width="0.99" stroke-linecap="round" stroke-linejoin="round"/>
<path d="M268.436 57.8529L265.985 54.5823L257.985 43.9142C257.405 43.1332 256.273 42.9746 255.486 43.5613L253.738 44.8696C252.996 45.4206 252.841 46.4395 253.377 47.1768C255.093 49.5277 256.809 51.8825 258.525 54.2334" stroke="#262626" stroke-width="0.99" stroke-linecap="round" stroke-linejoin="round"/>
<path d="M260.607 57.0794L258.553 54.2686L258.529 54.233C257.921 53.3568 258.156 52.1675 259.057 51.5729L260.555 50.5818C261.441 49.9951 262.652 50.1972 263.292 51.0337L265.981 54.5818L267.173 56.1517L267.284 56.2984" stroke="#262626" stroke-width="0.99" stroke-linecap="round" stroke-linejoin="round"/>
<path d="M278.98 76.7598L280.99 78.4407" stroke="#262626" stroke-width="0.99" stroke-linecap="round" stroke-linejoin="round"/>
<path d="M279.945 76.2363L281.276 77.3107" stroke="#262626" stroke-width="0.99" stroke-linecap="round" stroke-linejoin="round"/>
<path d="M282.578 71.3242L284.35 72.4342H284.354" stroke="#262626" stroke-width="0.99" stroke-linecap="round" stroke-linejoin="round"/>
<path d="M291.033 72.6562L291.93 72.0219L290.568 70.2221L293.754 67.9703L290.905 64.2081L289.023 65.5877L286.464 62.3409L288.411 60.9137L285.586 57.1912L283.656 58.6104L281.098 55.3636L283.096 53.8968L280.271 50.1782L278.293 51.6292L275.735 48.3823L277.781 46.8838L274.96 43.1613L272.927 44.6519L270.368 41.405L272.462 39.8669L269.645 36.1443L267.564 37.6706L265.002 34.4238L267.147 32.8499L264.33 29.1314L262.197 30.6933L259.639 27.4465L261.832 25.837L258.551 21.5039L255.389 23.7358L253.772 21.603L249.657 24.5089L251.269 26.6417L247.857 29.0481L246.24 26.9153L242.121 29.8212L243.738 31.954L240.326 34.3643L238.709 32.2275L234.59 35.1334L236.21 37.2702L233.199 39.3912L268.013 85.3461L270.996 83.2411L272.752 85.5563L276.867 82.6504L275.242 80.5056L278.659 78.0993L280.279 80.24L280.804 79.8753" stroke="#262626" stroke-width="0.99" stroke-linecap="round" stroke-linejoin="round"/>
</g>
<rect x="43" y="33" width="210" height="62" rx="8" fill="#262626"/>
<path d="M51.9668 52.1641V51.6172C51.9668 49.2279 52.6471 47.444 54.0078 46.2656C55.3685 45.0807 57.123 44.4883 59.2715 44.4883C61.2572 44.4883 62.8392 44.9082 64.0176 45.748C65.196 46.5814 65.847 47.8216 65.9707 49.4688L65.9902 49.6738H63.2461L63.2363 49.459C63.1452 48.4759 62.7578 47.7533 62.0742 47.291C61.3971 46.8223 60.4531 46.5879 59.2422 46.5879C57.901 46.5879 56.8171 46.985 55.9902 47.7793C55.1699 48.5736 54.7598 49.791 54.7598 51.4316V52.3496C54.7598 54.0618 55.1699 55.2988 55.9902 56.0605C56.8171 56.8223 57.901 57.2031 59.2422 57.2031C60.5964 57.2031 61.5794 56.9395 62.1914 56.4121C62.8034 55.8783 63.1517 55.1816 63.2363 54.3223L63.2461 54.1172H65.9902L65.9805 54.332C65.8698 55.8555 65.2448 57.0632 64.1055 57.9551C62.9727 58.847 61.3646 59.293 59.2812 59.293C57.1198 59.293 55.3587 58.7135 53.998 57.5547C52.6439 56.3893 51.9668 54.5924 51.9668 52.1641ZM66.6152 46.8906V44.7812H79.6914V46.8906H74.5156V59H71.8008V46.8906H66.6152ZM81.5371 59V44.7812H87.7383C89.5677 44.7812 90.9674 45.1719 91.9375 45.9531C92.9141 46.7344 93.4023 47.877 93.4023 49.3809C93.4023 50.8522 92.9173 51.9948 91.9473 52.8086C90.9772 53.6224 89.571 54.0163 87.7285 53.9902H84.252V59H81.5371ZM84.252 51.9785H87.4941C88.666 51.9785 89.4928 51.7539 89.9746 51.3047C90.4564 50.849 90.6973 50.2109 90.6973 49.3906C90.6973 48.5638 90.4564 47.9323 89.9746 47.4961C89.4928 47.0534 88.666 46.832 87.4941 46.832H84.252V51.9785ZM94.8574 52.1445V51.6074C94.8574 49.2376 95.5475 47.4603 96.9277 46.2754C98.3079 45.084 100.072 44.4883 102.221 44.4883C104.363 44.4883 106.127 45.084 107.514 46.2754C108.907 47.4603 109.604 49.2376 109.604 51.6074V52.1445C109.604 54.5339 108.907 56.3242 107.514 57.5156C106.127 58.7005 104.363 59.293 102.221 59.293C100.072 59.293 98.3079 58.7005 96.9277 57.5156C95.5475 56.3242 94.8574 54.5339 94.8574 52.1445ZM97.6406 52.3105C97.6406 53.9902 98.0573 55.2272 98.8906 56.0215C99.7305 56.8092 100.84 57.2031 102.221 57.2031C103.601 57.2031 104.714 56.8092 105.561 56.0215C106.407 55.2272 106.83 53.9902 106.83 52.3105V51.4609C106.83 49.7812 106.407 48.5508 105.561 47.7695C104.721 46.9818 103.607 46.5879 102.221 46.5879C100.84 46.5879 99.7305 46.9818 98.8906 47.7695C98.0573 48.5508 97.6406 49.778 97.6406 51.4512V52.3105ZM125.473 59H122.816V49.4785C122.816 49.2702 122.82 49.0423 122.826 48.7949C122.833 48.541 122.842 48.3132 122.855 48.1113H122.738C122.641 48.3066 122.543 48.4987 122.445 48.6875C122.354 48.8763 122.224 49.0814 122.055 49.3027L115.053 59H112.182V44.7812H114.848V54.293C114.848 54.4948 114.841 54.7194 114.828 54.9668C114.822 55.2142 114.815 55.4421 114.809 55.6504H114.945C115.017 55.4876 115.105 55.3021 115.209 55.0938C115.32 54.8854 115.447 54.6803 115.59 54.4785L122.602 44.7812H125.473V59ZM127.318 46.8906V44.7812H140.395V46.8906H135.219V59H132.504V46.8906H127.318ZM142.24 59V44.7812H153.051V46.8809H144.926V50.6699H152.055V52.7109H144.926V56.9102H153.168V59H142.24ZM157.123 44.7812H168.539V59H165.834V46.8711H159.408L159.047 53.5898C158.956 55.4518 158.653 56.8646 158.139 57.8281C157.624 58.7917 156.648 59.2734 155.209 59.2734C154.988 59.2734 154.776 59.2572 154.574 59.2246C154.372 59.1986 154.174 59.1497 153.979 59.0781V56.7734C154.128 56.8255 154.268 56.8613 154.398 56.8809C154.535 56.9004 154.675 56.9102 154.818 56.9102C155.463 56.9102 155.915 56.6367 156.176 56.0898C156.436 55.543 156.602 54.5924 156.674 53.2383L157.123 44.7812ZM171.85 44.7812H174.564V49.918H178.49C180.248 49.918 181.55 50.3411 182.396 51.1875C183.243 52.0339 183.666 53.1211 183.666 54.4492C183.666 55.8555 183.243 56.9655 182.396 57.7793C181.55 58.5931 180.248 59 178.49 59H171.85V44.7812ZM174.564 51.9688V56.9492H178.295C179.258 56.9492 179.942 56.7311 180.346 56.2949C180.749 55.8522 180.951 55.237 180.951 54.4492C180.951 53.7396 180.749 53.1504 180.346 52.6816C179.942 52.2064 179.258 51.9688 178.295 51.9688H174.564ZM185.17 52.1641V51.6172C185.17 49.2279 185.85 47.444 187.211 46.2656C188.572 45.0807 190.326 44.4883 192.475 44.4883C194.46 44.4883 196.042 44.9082 197.221 45.748C198.399 46.5814 199.05 47.8216 199.174 49.4688L199.193 49.6738H196.449L196.439 49.459C196.348 48.4759 195.961 47.7533 195.277 47.291C194.6 46.8223 193.656 46.5879 192.445 46.5879C191.104 46.5879 190.02 46.985 189.193 47.7793C188.373 48.5736 187.963 49.791 187.963 51.4316V52.3496C187.963 54.0618 188.373 55.2988 189.193 56.0605C190.02 56.8223 191.104 57.2031 192.445 57.2031C193.799 57.2031 194.783 56.9395 195.395 56.4121C196.007 55.8783 196.355 55.1816 196.439 54.3223L196.449 54.1172H199.193L199.184 54.332C199.073 55.8555 198.448 57.0632 197.309 57.9551C196.176 58.847 194.568 59.293 192.484 59.293C190.323 59.293 188.562 58.7135 187.201 57.5547C185.847 56.3893 185.17 54.5924 185.17 52.1641ZM199.818 46.8906V44.7812H212.895V46.8906H207.719V59H205.004V46.8906H199.818ZM214.74 59V44.7812H220.775C222.468 44.7812 223.79 45.071 224.74 45.6504C225.691 46.2298 226.166 47.1868 226.166 48.5215C226.166 49.3092 225.961 49.9505 225.551 50.4453C225.147 50.9336 224.633 51.2852 224.008 51.5V51.5391C224.789 51.7474 225.421 52.1283 225.902 52.6816C226.391 53.235 226.635 53.9772 226.635 54.9082C226.635 56.2689 226.127 57.291 225.111 57.9746C224.096 58.6582 222.755 59 221.088 59H214.74ZM217.416 57.0469H220.951C221.96 57.0469 222.709 56.8613 223.197 56.4902C223.686 56.1126 223.93 55.543 223.93 54.7812C223.93 54.0651 223.686 53.515 223.197 53.1309C222.709 52.7402 221.96 52.5449 220.951 52.5449H217.416V57.0469ZM217.416 50.709H220.639C221.635 50.709 222.357 50.5365 222.807 50.1914C223.262 49.8464 223.49 49.3516 223.49 48.707C223.49 48.0299 223.266 47.5352 222.816 47.2227C222.367 46.9102 221.641 46.7539 220.639 46.7539H217.416V50.709ZM228.49 52.1445V51.6074C228.49 49.2376 229.18 47.4603 230.561 46.2754C231.941 45.084 233.705 44.4883 235.854 44.4883C237.995 44.4883 239.76 45.084 241.146 46.2754C242.54 47.4603 243.236 49.2376 243.236 51.6074V52.1445C243.236 54.5339 242.54 56.3242 241.146 57.5156C239.76 58.7005 237.995 59.293 235.854 59.293C233.705 59.293 231.941 58.7005 230.561 57.5156C229.18 56.3242 228.49 54.5339 228.49 52.1445ZM231.273 52.3105C231.273 53.9902 231.69 55.2272 232.523 56.0215C233.363 56.8092 234.473 57.2031 235.854 57.2031C237.234 57.2031 238.347 56.8092 239.193 56.0215C240.04 55.2272 240.463 53.9902 240.463 52.3105V51.4609C240.463 49.7812 240.04 48.5508 239.193 47.7695C238.354 46.9818 237.24 46.5879 235.854 46.5879C234.473 46.5879 233.363 46.9818 232.523 47.7695C231.69 48.5508 231.273 49.778 231.273 51.4512V52.3105ZM65.9023 82H63.2461V72.4785C63.2461 72.2702 63.2493 72.0423 63.2559 71.7949C63.2624 71.541 63.2721 71.3132 63.2852 71.1113H63.168C63.0703 71.3066 62.9727 71.4987 62.875 71.6875C62.7839 71.8763 62.6536 72.0814 62.4844 72.3027L55.4824 82H52.6113V67.7812H55.2773V77.293C55.2773 77.4948 55.2708 77.7194 55.2578 77.9668C55.2513 78.2142 55.2448 78.4421 55.2383 78.6504H55.375C55.4466 78.4876 55.5345 78.3021 55.6387 78.0938C55.7493 77.8854 55.8763 77.6803 56.0195 77.4785L63.0312 67.7812H65.9023V82ZM74.2324 82V67.7812H80.4336C82.263 67.7812 83.6628 68.1719 84.6328 68.9531C85.6094 69.7344 86.0977 70.877 86.0977 72.3809C86.0977 73.8522 85.6126 74.9948 84.6426 75.8086C83.6725 76.6224 82.2663 77.0163 80.4238 76.9902H76.9473V82H74.2324ZM76.9473 74.9785H80.1895C81.3613 74.9785 82.1882 74.7539 82.6699 74.3047C83.1517 73.849 83.3926 73.2109 83.3926 72.3906C83.3926 71.5638 83.1517 70.9323 82.6699 70.4961C82.1882 70.0534 81.3613 69.832 80.1895 69.832H76.9473V74.9785ZM88.1973 82V67.7812H99.0078V69.8809H90.8828V73.6699H98.0117V75.7109H90.8828V79.9102H99.125V82H88.1973ZM101.42 82V67.7812H104.633L109.408 78.0352C109.506 78.2435 109.604 78.4551 109.701 78.6699C109.799 78.8783 109.874 79.0573 109.926 79.207H109.984C110.036 79.0573 110.105 78.8783 110.189 78.6699C110.274 78.4551 110.362 78.2435 110.453 78.0352L115.287 67.7812H118.568V82H115.893L115.902 72.3516C115.902 72.1497 115.909 71.9349 115.922 71.707C115.935 71.4727 115.948 71.2578 115.961 71.0625H115.893C115.847 71.2578 115.788 71.4727 115.717 71.707C115.652 71.9349 115.574 72.1497 115.482 72.3516L110.971 82H108.666L104.174 72.3516C104.076 72.1562 103.992 71.9447 103.92 71.7168C103.848 71.4824 103.79 71.2643 103.744 71.0625H103.676C103.689 71.2643 103.702 71.4824 103.715 71.7168C103.734 71.9447 103.744 72.1595 103.744 72.3613V82H101.42ZM121.146 75.1445V74.6074C121.146 72.2376 121.837 70.4603 123.217 69.2754C124.597 68.084 126.361 67.4883 128.51 67.4883C130.652 67.4883 132.416 68.084 133.803 69.2754C135.196 70.4603 135.893 72.2376 135.893 74.6074V75.1445C135.893 77.5339 135.196 79.3242 133.803 80.5156C132.416 81.7005 130.652 82.293 128.51 82.293C126.361 82.293 124.597 81.7005 123.217 80.5156C121.837 79.3242 121.146 77.5339 121.146 75.1445ZM123.93 75.3105C123.93 76.9902 124.346 78.2272 125.18 79.0215C126.02 79.8092 127.13 80.2031 128.51 80.2031C129.89 80.2031 131.003 79.8092 131.85 79.0215C132.696 78.2272 133.119 76.9902 133.119 75.3105V74.4609C133.119 72.7812 132.696 71.5508 131.85 70.7695C131.01 69.9818 129.896 69.5879 128.51 69.5879C127.13 69.5879 126.02 69.9818 125.18 70.7695C124.346 71.5508 123.93 72.778 123.93 74.4512V75.3105ZM138.471 82V67.7812H141.186V73.6113H148.92V67.7812H151.625V82H148.92V75.7207H141.186V82H138.471ZM153.471 69.8906V67.7812H166.547V69.8906H161.371V82H158.656V69.8906H153.471Z" fill="white"/>
</g>
</g>
<defs>
<filter id="filter0_d_1567_20749" x="0.6" y="0.6" width="420.8" height="276.8" filterUnits="userSpaceOnUse" color-interpolation-filters="sRGB">
<feFlood flood-opacity="0" result="BackgroundImageFix"/>
<feColorMatrix in="SourceAlpha" type="matrix" values="0 0 0 0 0 0 0 0 0 0 0 0 0 0 0 0 0 0 127 0" result="hardAlpha"/>
<feOffset dy="10"/>
<feGaussianBlur stdDeviation="9.2"/>
<feComposite in2="hardAlpha" operator="out"/>
<feColorMatrix type="matrix" values="0 0 0 0 0 0 0 0 0 0 0 0 0 0 0 0 0 0 0.15 0"/>
<feBlend mode="normal" in2="BackgroundImageFix" result="effect1_dropShadow_1567_20749"/>
<feBlend mode="normal" in="SourceGraphic" in2="effect1_dropShadow_1567_20749" result="shape"/>
</filter>
<clipPath id="clip0_1567_20749">
<rect x="19" y="9" width="384" height="240" rx="32" fill="white"/>
</clipPath>
<clipPath id="clip1_1567_20749">
<rect width="281" height="157" fill="white" transform="matrix(-0.817734 0.575596 0.575596 0.817734 472.781 -114)"/>
</clipPath>
<clipPath id="clip2_1567_20749">
<rect width="297.74" height="187.511" fill="white" transform="matrix(-0.828493 0.559999 0.559999 0.828493 533.617 -36.1953)"/>
</clipPath>
<clipPath id="clip3_1567_20749">
<rect width="162" height="235" fill="white" transform="translate(233 14)"/>
</clipPath>
</defs>
</svg>
