<svg width="384" height="240" viewBox="0 0 384 240" fill="none" xmlns="http://www.w3.org/2000/svg">
<g clip-path="url(#clip0_1091_23552)">
<rect width="384" height="240" rx="32" fill="white"/>
<g clip-path="url(#clip1_1091_23552)">
<path d="M245.881 69.7405C242.103 57.1936 238.326 44.6441 234.548 32.0972C234.401 31.606 234.653 31.1072 235.119 30.9696C245.122 28.0296 259.012 24.2683 275.854 20.7115C275.854 20.7115 286.521 18.4587 296.558 16.7547C299.429 16.2662 302.895 15.8526 306.913 15.5164C307.473 15.4702 307.827 14.9182 307.657 14.3571C306.616 10.8957 305.573 7.43534 304.531 3.97232C304.384 3.48116 304.636 2.98241 305.102 2.84474C312.213 0.757192 321.688 -1.82727 333.034 -4.36909C333.559 -4.48632 333.839 -5.04829 333.638 -5.57781C331.655 -10.7852 329.672 -15.9926 327.689 -21.2C327.506 -21.6808 327.72 -22.1999 328.172 -22.373C336.158 -25.4283 347.228 -29.3924 360.693 -33.3767C360.693 -33.3767 369.273 -35.9144 377.373 -37.9599C395.629 -42.5689 444.089 -45.7818 508.968 -43.9298C509.82 -43.9055 510.251 -42.8093 509.624 -42.2611C496.52 -30.8114 483.414 -19.3633 470.31 -7.91356C469.703 -7.38423 470.081 -6.32639 470.905 -6.24949C476.417 -5.73759 482.066 -5.17678 487.843 -4.56765C488.694 -4.47685 489.044 -3.35683 488.375 -2.86222C477.967 4.84519 467.56 12.5516 457.151 20.259C456.482 20.7536 456.831 21.8746 457.681 21.9639L457.731 21.9689C458.583 22.0597 458.933 23.1797 458.263 23.6754C451.76 28.4906 445.256 33.3068 438.754 38.1219C438.074 38.6239 438.444 39.763 439.309 39.8307C453.217 40.9075 468.011 42.2577 483.566 43.9062C484.417 43.997 484.767 45.117 484.098 45.6116C465.477 59.4001 446.857 73.1875 428.235 86.9759C428.069 87.1001 427.863 87.1565 427.651 87.1393C406.76 85.3741 376.362 83.4977 343.797 84.1376C323.073 84.5447 308.458 85.8339 293.743 88.2294C285.153 89.6269 278.002 91.1616 272.85 92.3694C272.37 92.4811 271.866 92.1737 271.717 91.6767C269.316 83.7043 266.917 75.7309 264.517 67.7584C264.374 67.2805 263.898 66.9733 263.429 67.0576C256.819 68.2327 251.244 69.4432 247.015 70.4347C246.535 70.5464 246.032 70.2391 245.882 69.7421L245.881 69.7405Z" fill="#7099ED"/>
</g>
<g clip-path="url(#clip2_1091_23552)">
<path d="M293.366 159.053C288.677 144.297 283.989 129.538 279.3 114.782C279.117 114.204 279.374 113.652 279.882 113.532C290.792 110.993 305.953 107.837 324.378 105.164C324.378 105.164 336.049 103.472 347.046 102.358C350.193 102.038 353.998 101.854 358.415 101.806C359.03 101.8 359.399 101.195 359.188 100.535C357.895 96.4641 356.601 92.3944 355.308 88.3216C355.124 87.744 355.382 87.1913 355.89 87.0722C363.646 85.2699 373.987 83.0952 386.393 81.1272C386.967 81.0366 387.254 80.4137 387.01 79.7874C384.606 73.628 382.202 67.4687 379.799 61.3094C379.577 60.7407 379.791 60.1614 380.282 60.0003C388.962 57.1582 401.005 53.5304 415.689 50.0815C415.689 50.0815 425.045 47.8851 433.894 46.2145C453.834 42.4508 507.143 42.841 578.771 50.4443C579.711 50.544 580.232 51.8418 579.564 52.4197C565.589 64.4895 551.612 76.5573 537.637 88.627C536.99 89.185 537.451 90.434 538.363 90.592C544.463 91.646 550.716 92.7677 557.112 93.9559C558.055 94.1322 558.488 95.4505 557.771 95.9632C546.613 103.954 535.456 111.944 524.298 119.935C523.581 120.448 524.012 121.767 524.954 121.941L525.01 121.951C525.953 122.128 526.385 123.446 525.667 123.96C518.696 128.952 511.724 133.946 504.753 138.938C504.025 139.458 504.48 140.8 505.436 140.951C520.819 143.363 537.191 146.164 554.414 149.373C555.357 149.55 555.789 150.868 555.072 151.381C535.11 165.676 515.149 179.971 495.187 194.266C495.009 194.395 494.785 194.443 494.55 194.405C471.438 190.612 437.836 185.889 401.948 183.878C379.111 182.599 363.047 182.85 346.919 184.365C337.503 185.249 329.68 186.411 324.049 187.367C323.525 187.455 322.957 187.059 322.771 186.474C319.792 177.098 316.814 167.721 313.835 158.344C313.658 157.782 313.119 157.389 312.606 157.446C305.366 158.241 299.268 159.164 294.645 159.948C294.12 160.036 293.552 159.64 293.367 159.055L293.366 159.053Z" fill="#7099ED"/>
</g>
<g clip-path="url(#clip3_1091_23552)">
<path d="M362.328 120.112C362.285 120.116 362.241 120.116 362.197 120.124C362.237 120.124 362.285 120.124 362.328 120.112ZM375.171 216.581C373.225 213.941 372.112 211.531 371.429 209.588C369.403 203.844 370.36 199.978 368.299 189.62C367.568 185.945 366.762 182.987 366.209 181.1C364.744 180.232 363.774 178.967 363.588 177.58C363.524 177.116 363.496 176.212 364.076 175.078C363.361 174.123 362.916 173.163 362.571 172.367C359.826 166.012 359.039 159.427 358.833 157.544C358.59 155.367 358.328 152.259 358.285 148.485C357.804 147.573 357.768 146.725 357.764 146.448C356.859 145.571 356.338 144.604 356.044 143.926C355.921 144.35 355.711 144.969 355.361 145.639C355.452 146.245 355.484 146.935 355.389 147.692C355.285 148.521 355.055 149.274 354.753 149.948C354.217 154.808 354.209 158.753 354.308 161.492C354.503 166.856 353.955 172.24 354.36 177.596C354.368 177.679 354.372 177.782 354.38 177.905C354.654 178.468 355.504 180.39 354.9 182.769C354.813 183.114 354.702 183.435 354.574 183.74C354.896 185.893 355.452 189.477 356.251 193.905C358.749 207.792 360.33 211.907 359.989 219.051C359.874 221.533 359.48 225.192 358.157 229.656C358.332 230.127 358.527 231.13 358.368 232.379C358.368 232.379 358.233 233.128 357.772 233.846C357.617 234.084 357.419 234.294 357.184 234.472C355.567 235.709 352.334 235.614 351.432 235.571C345.974 235.301 337.871 232.514 335.614 228.518C335.221 227.82 335.007 227.083 335.015 226.318C335.023 225.501 335.293 224.225 336.778 222.659C335.932 221.656 335.718 220.324 336.234 219.261C336.373 218.972 336.56 218.73 336.754 218.528H336.751C333.457 204.042 330.971 187.09 330.709 168.133C330.617 161.623 330.796 155.391 331.173 149.468C330.875 148.723 330.617 147.839 330.502 146.84C330.415 146.071 330.423 145.373 330.482 144.771C330.025 143.613 329.62 142.281 329.382 140.79C328.838 137.46 329.41 135.224 330.248 129.916C330.649 127.367 331.181 123.684 331.658 119.149C331.412 118.249 331.177 117 331.209 115.514C330.665 115.081 327.59 112.532 327.328 108.227C328.671 107.866 329.878 107.422 330.959 106.935C332.087 106.431 333.084 105.88 333.958 105.321C347.23 96.8215 346.507 77.6459 346.376 75.1087C348.628 72.8172 350.88 70.5219 353.132 68.2305C353.176 68.2661 353.22 68.3018 353.264 68.3375C355.575 70.2087 357.887 72.0799 360.203 73.955C360.291 76.9164 360.791 80.9323 362.563 85.3248C365.586 92.8373 370.793 97.6897 374.543 100.441C375.715 101.301 376.74 101.955 377.515 102.419C377.499 104.001 377.292 106.106 376.541 108.457C376.089 109.868 375.536 111.073 374.996 112.065C375.322 112.616 375.66 113.305 375.918 114.13C376.478 115.906 376.398 117.476 376.255 118.483C375.791 118.273 375.282 118.071 374.726 117.892C372.704 117.242 370.913 117.151 369.689 117.186C369.526 118.205 369.363 119.228 369.201 120.247C370.567 120.386 372.049 120.596 373.618 120.901C374.821 121.135 375.95 121.401 377.002 121.682C378.313 125.195 379.596 129.468 380.442 134.412C381.07 138.095 381.348 141.472 381.419 144.449C382.123 148.287 382.822 151.906 383.509 155.308C382.424 154.915 380.903 154.503 379.06 154.408C376.561 154.281 374.563 154.793 373.372 155.193C373.483 156.343 373.59 157.492 373.697 158.642C375.715 158.198 378.48 157.865 381.662 158.329C382.595 158.467 383.457 158.654 384.24 158.876C385.988 167.245 387.632 174.123 388.971 179.423C390.925 187.154 393.027 194.646 392.951 205.223C392.931 208.288 392.729 211.079 392.455 213.533V213.541C392.478 213.695 392.971 215.55 393.607 218.004C395.136 223.931 395.204 224.514 395.231 225.14C395.259 225.925 395.223 226.912 394.989 228.074C395.287 228.577 396.165 230.203 395.636 232.014C395.513 232.439 395.331 232.811 395.116 233.14C394.477 234.116 393.527 234.71 392.872 235.107C387.144 238.591 378.436 235.828 375.862 232.851C375.564 232.502 374.945 231.773 374.829 230.706C374.647 229.006 375.87 227.662 376.263 227.261C376.267 226.952 376.275 226.639 376.291 226.318C376.331 225.568 376.398 224.859 376.482 224.201C375.858 223.606 375.27 222.829 374.889 221.822C373.9 219.233 374.96 216.993 375.163 216.581H375.171Z" fill="#7099ED"/>
<path d="M395.113 233.145C395.447 234.406 395.713 236.186 395.363 238.235C395.268 238.806 395.137 239.329 394.986 239.805C387.971 239.702 380.951 239.595 373.94 239.492C373.817 239.127 373.67 238.548 373.694 237.843C373.706 237.589 373.761 236.812 374.778 234.786C375.025 234.299 375.382 233.629 375.863 232.852C378.433 235.829 387.144 238.592 392.872 235.107C393.524 234.711 394.473 234.116 395.117 233.145H395.113Z" fill="#262626"/>
<path d="M384.915 80.7773C385.872 87.1481 385.233 92.2701 383.453 94.3672C382.972 94.9341 382.047 96.0243 380.529 96.3018C379.334 96.5199 378.281 96.1393 377.876 95.9886C376.795 95.5843 376.1 94.942 375.759 94.5773L375.707 94.5694C375.937 93.1105 376.14 91.5763 376.291 89.9747H376.339C377.653 89.2968 379.592 88.0995 381.451 86.1094C383.318 84.1074 384.355 82.1133 384.919 80.7773H384.915Z" fill="white"/>
<path d="M376.287 89.9756C376.136 91.5772 375.934 93.1114 375.703 94.5703C375.373 96.6912 374.972 98.6536 374.547 100.442C370.801 97.6902 365.59 92.8378 362.567 85.3254C360.795 80.9328 360.294 76.9169 360.207 73.9555C361.295 72.6671 371.103 60.8692 367.766 56.5995C367.619 56.4092 367.441 56.2348 367.234 56.0723C368.275 56.7264 369.296 57.432 370.285 58.1932C380.41 65.9594 383.783 76.3857 384.911 80.7782C384.347 82.1142 383.31 84.1083 381.443 86.1103C379.588 88.1004 377.646 89.2977 376.331 89.9795H376.283L376.287 89.9756Z" fill="white"/>
<path d="M383.512 155.308C383.755 156.525 384.001 157.715 384.243 158.876C383.457 158.654 382.595 158.468 381.665 158.329C378.483 157.865 375.719 158.198 373.701 158.642C373.593 157.493 373.486 156.343 373.375 155.193C374.567 154.793 376.569 154.282 379.063 154.408C380.907 154.504 382.428 154.916 383.512 155.308Z" fill="#7099ED"/>
<path d="M376.258 118.483C376.818 118.736 377.311 118.998 377.736 119.252C377.493 120.064 377.247 120.873 377.005 121.682C375.952 121.4 374.824 121.135 373.62 120.901C372.051 120.596 370.574 120.386 369.203 120.247C369.366 119.228 369.529 118.205 369.692 117.186C370.915 117.151 372.707 117.242 374.729 117.892C375.285 118.07 375.793 118.273 376.258 118.483Z" fill="#7099ED"/>
<path d="M367.769 56.599C371.105 60.8687 361.298 72.6666 360.209 73.955C357.897 72.0799 355.585 70.2087 353.27 68.3375C354.235 67.4059 364.321 57.5307 361.754 53.5663C361.603 53.3324 361.401 53.1104 361.139 52.9082C363.22 53.7843 365.262 54.8309 367.228 56.0638L367.236 56.0718C367.447 56.2343 367.622 56.4087 367.769 56.599Z" fill="#7099ED"/>
<path d="M340.353 25.3482C338.974 25.2134 337.6 25.0746 336.237 24.9359C333.949 24.702 331.693 24.472 329.496 24.2381C329.603 23.4294 329.715 22.6167 329.822 21.808C331.895 21.9507 333.754 20.5988 334.195 18.6404C334.235 18.4541 334.283 18.2638 334.322 18.0696C335.943 10.5175 342.819 5.19727 350.661 5.19727C351.205 5.19727 351.745 5.22105 352.297 5.27259C359.241 5.92671 364.405 11.7504 364.008 18.47C363.877 20.7138 363.742 22.8744 363.63 24.5553C363.626 24.587 363.626 24.6187 363.626 24.6504C363.626 25.2728 364.059 25.8279 364.687 26.0023C364.469 27.0885 364.552 26.6842 364.334 27.7664C363.38 27.6673 362.415 27.5642 361.446 27.4651C354.633 26.7595 347.399 26.0578 340.356 25.3482H340.353Z" fill="#FF8B63"/>
<path d="M361.755 53.5671C364.321 57.5315 354.236 67.4067 353.27 68.3383C353.227 68.3026 353.183 68.267 353.139 68.2313C351.411 65.0479 349.024 61.2936 345.743 57.4086C343.069 54.2371 340.38 51.6602 337.965 49.6106C339.196 49.456 340.479 49.3569 341.794 49.3173C346.871 49.1627 352.468 49.8802 357.93 51.6999C359.006 52.0606 360.075 52.461 361.135 52.909C361.398 53.1112 361.6 53.3332 361.751 53.5671H361.755Z" fill="white"/>
<path d="M361.441 27.4646C360.841 30.315 360.015 33.4508 358.871 36.7849C358.112 38.9851 357.294 41.0228 356.463 42.8979C356.44 42.9614 356.412 43.0248 356.38 43.0882C355.248 42.89 353.83 42.7393 352.205 42.783C350.85 42.8186 349.659 42.9812 348.67 43.1754C347.7 40.7017 346.731 38.2319 345.762 35.7581C346.111 35.5916 346.576 35.3101 347.005 34.8621C347.744 34.0891 348.769 32.4161 347.99 31.2427C347.494 30.4894 346.318 30.0415 345.448 30.3824C344.892 30.5965 344.606 31.0722 344.447 31.3497C343.951 32.1783 344.034 33.0148 344.082 33.3359C343.51 32.8364 342.945 32.3408 342.373 31.8453C343.549 30.1525 343.613 28.1069 342.58 26.7471C341.869 25.8155 340.844 25.4745 340.352 25.3477C347.398 26.0573 354.632 26.759 361.441 27.4646Z" fill="#262626"/>
<path d="M345.763 35.7583C346.732 38.232 347.702 40.7019 348.671 43.1756C349.66 42.9814 350.852 42.8188 352.206 42.7831C353.831 42.7395 355.245 42.8902 356.381 43.0884C356.409 43.025 356.437 42.9615 356.465 42.8981H356.472C356.671 44.0517 357.037 46.1687 357.231 47.3184C357.422 48.4165 357.779 50.5176 357.966 51.6158L357.934 51.699C352.472 49.8794 346.875 49.1618 341.799 49.3164V49.2649C341.767 47.6871 341.731 46.1053 341.695 44.5275C340.484 44.3213 338.776 43.8218 337.497 42.47C336.488 41.3996 336.003 40.0517 335.868 36.3133C335.844 35.6393 335.832 34.8861 335.832 34.0417C335.828 31.6631 335.912 28.5669 336.233 24.9355C337.596 25.0743 338.97 25.2131 340.349 25.3478C340.837 25.4747 341.866 25.8156 342.577 26.7473C343.614 28.107 343.546 30.1527 342.371 31.8454C342.943 32.341 343.507 32.8365 344.079 33.3361C344.031 33.0149 343.948 32.1785 344.444 31.3499C344.603 31.0724 344.893 30.5967 345.445 30.3826C346.315 30.0417 347.491 30.4896 347.988 31.2429C348.762 32.4163 347.741 34.0893 347.002 34.8623C346.569 35.3103 346.109 35.5918 345.759 35.7583H345.763ZM338.792 30.3152C338.792 29.558 338.502 28.9435 338.148 28.9435C337.794 28.9435 337.501 29.558 337.501 30.3152C337.501 31.0724 337.791 31.6869 338.148 31.6869C338.506 31.6869 338.792 31.0724 338.792 30.3152Z" fill="white"/>
<path d="M357.447 237.703C357.451 238.409 357.451 239.11 357.447 239.804H327.424C326.518 237.354 326.911 236.046 327.384 235.32C328.353 233.826 330.181 234.004 332.338 232.498C334.093 231.273 335.027 229.659 335.531 228.565L335.623 228.518C337.879 232.514 345.979 235.301 351.441 235.57C352.338 235.614 355.572 235.709 357.193 234.472L357.415 234.5C357.435 235.554 357.447 236.625 357.451 237.703H357.447Z" fill="#262626"/>
<path d="M353.138 68.23C350.885 70.5214 348.633 72.8168 346.381 75.1082C344.649 70.3034 341.721 64.0992 336.644 57.8791C334.615 55.3934 332.549 53.2804 330.583 51.4964L330.547 51.3973C332.708 50.5608 335.226 49.9503 337.971 49.6094C340.386 51.659 343.072 54.2358 345.749 57.4073C349.026 61.2924 351.414 65.0466 353.146 68.23H353.138Z" fill="#7099ED"/>
<path d="M327.054 77.6346C324.07 79.3116 321.095 80.9845 318.12 82.6575C317.397 82.1302 316.543 81.4484 315.629 80.596C314.004 79.0856 312.213 77.0321 310.723 74.3482C309.476 72.1043 308.761 69.9993 308.336 68.2946C309.043 67.7396 309.818 67.1132 310.64 66.4274C314.433 63.2638 315.907 61.5869 318.684 59.2122C318.684 59.2122 322.636 55.8385 327.379 52.9406C328.321 52.3657 329.381 51.8504 330.541 51.3984L330.577 51.4975C332.543 53.2815 334.613 55.3945 336.639 57.8802C341.716 64.1003 344.643 70.3045 346.375 75.1093C346.506 77.6465 347.229 96.8222 333.958 105.322C333.084 105.881 332.087 106.432 330.958 106.935C330.355 105.413 329.751 103.72 329.191 101.861C327.912 97.627 326.879 92.5486 326.668 86.7884C326.549 83.4424 326.72 80.374 327.046 77.6346H327.054Z" fill="white"/>
<path d="M338.144 28.9434C338.497 28.9434 338.787 29.5578 338.787 30.315C338.787 31.0722 338.497 31.6867 338.144 31.6867C337.79 31.6867 337.496 31.0722 337.496 30.315C337.496 29.5578 337.786 28.9434 338.144 28.9434Z" fill="#262626"/>
<path d="M329.198 101.861C329.758 103.721 330.362 105.413 330.966 106.936C329.885 107.423 328.677 107.867 327.335 108.228C327.132 104.969 328.658 102.615 329.194 101.861H329.198Z" fill="#262626"/>
<path d="M310.723 74.3479C312.209 77.0318 314.004 79.0853 315.629 80.5957C314 81.4838 311.895 82.4312 309.345 83.129C308.391 83.3867 307.49 83.5849 306.632 83.7316C305.861 83.8663 305.063 83.8108 304.312 83.5809C300.411 82.3956 295.422 80.4491 290.162 77.1705C286.822 75.0853 284.057 72.889 281.816 70.8473C281.84 70.4113 281.896 69.9395 281.991 69.44C282.063 69.0753 282.15 68.6987 282.273 68.3101C282.309 68.1793 282.357 68.0485 282.4 67.9177C283.088 65.9712 284.236 64.4964 285.352 63.434H285.356C286.317 62.5063 287.251 61.8879 287.827 61.543C289.229 62.2447 290.627 62.9503 292.029 63.6599C293.586 64.4489 295.148 65.2378 296.709 66.0346C299.632 67.5212 302.548 69.0118 305.444 70.5024C306.183 69.9633 307.172 69.218 308.34 68.2943C308.765 69.999 309.476 72.104 310.727 74.3479H310.723Z" fill="white"/>
<path d="M287.826 61.5432C286.749 60.9961 285.669 60.4569 284.592 59.9178L284.668 59.783C284.267 56.4728 282.63 54.2329 280.946 54.1298C280.231 53.9831 279.214 53.6858 278.141 53.0555C278.121 52.2705 277.951 51.2239 277.327 50.1932C275.599 47.3309 271.031 47.212 269.462 47.1485C268.925 47.1287 268.477 47.1406 268.179 47.1525L266.987 45.5826L258.987 34.9145C258.407 34.1335 257.275 33.9749 256.488 34.5617L254.74 35.8699C253.997 36.421 253.842 37.4398 254.379 38.1772C256.095 40.528 257.811 42.8829 259.527 45.2338L259.551 45.2694L261.604 48.0802C262.141 48.8175 262.681 49.5589 263.217 50.2963C261.465 49.3845 259.447 49.8879 258.629 51.1605C257.807 52.441 258.446 54.1021 259.277 54.9663C260.115 55.8345 261.255 56.001 262.526 56.1794C262.629 57.0634 263.011 59.3231 264.846 61.448C265.815 62.57 266.888 63.3034 267.793 63.787C267.865 64.1398 268.055 64.8257 268.667 65.2895C269.354 65.8128 270.177 65.7613 271.146 65.682C271.869 65.6225 273.033 65.4322 274.364 64.7662C274.658 66.4392 275.647 67.8346 277.081 68.465C278.105 68.9169 279.087 68.8614 279.643 68.7782H279.647C280.302 69.4402 281.025 70.1379 281.812 70.8476C281.808 70.8555 281.808 70.8674 281.808 70.8753H281.8L281.279 71.24L279.655 69.0993L276.242 71.5056L277.867 73.6504L273.752 76.5563L271.996 74.2411L269.013 76.3461L234.199 30.3912L237.21 28.2702L235.594 26.1334L239.713 23.2275L241.326 25.3643L244.738 22.954L243.121 20.8212L247.24 17.9153L248.853 20.0481L252.265 17.6417L250.653 15.5089L254.768 12.603L256.385 14.7358L259.543 12.5039L262.824 16.837L260.631 18.4465L263.189 21.6933L265.323 20.1314L268.139 23.8499L265.994 25.4238L268.552 28.6706L270.634 27.1443L273.45 30.8669L271.356 32.4051L273.915 35.6519L275.949 34.1613L278.765 37.8838L276.719 39.3823L279.277 42.6292L281.256 41.1782L284.076 44.8968L282.078 46.3636L284.636 49.6104L286.567 48.1912L289.387 51.9137L287.441 53.3409L289.999 56.5877L291.882 55.2081L294.734 58.9703L291.544 61.2221L292.906 63.0219L292.009 63.6562H292.005C290.602 62.9505 289.204 62.2449 287.802 61.5432H287.826Z" fill="#7099ED"/>
<path d="M284.591 59.9172C285.668 60.4564 286.748 60.9955 287.825 61.5426C287.249 61.8875 286.315 62.5059 285.354 63.4336H285.35C284.238 64.496 283.086 65.9708 282.399 67.9173C282.355 68.0481 282.307 68.1789 282.272 68.3098C282.148 68.6983 282.057 69.0749 281.99 69.4396C281.89 69.9391 281.839 70.4109 281.815 70.847C281.028 70.1373 280.305 69.4396 279.65 68.7736H279.646C279.086 68.8608 278.105 68.9163 277.084 68.4644C275.65 67.834 274.665 66.4386 274.367 64.7656C273.036 65.4316 271.872 65.6219 271.149 65.6814C270.18 65.7607 269.357 65.8122 268.67 65.2889C268.059 64.8251 267.864 64.1392 267.796 63.7864C266.891 63.3028 265.822 62.5694 264.849 61.4474C263.014 59.3225 262.632 57.0629 262.529 56.1788C261.258 56.0004 260.118 55.8339 259.28 54.9657C258.449 54.1015 257.81 52.4404 258.632 51.1599C259.45 49.8873 261.472 49.3839 263.22 50.2957C263.244 50.3274 263.264 50.3591 263.292 50.3908L263.335 50.486C264.329 50.0816 265.218 49.7843 265.949 49.5662C267.534 49.0945 268.46 48.9795 269.226 49.0746V49.0667C269.25 49.035 269.326 48.9557 269.437 48.8526L266.986 45.582L268.178 47.1519C268.472 47.14 268.921 47.1281 269.461 47.148C271.03 47.2114 275.598 47.3303 277.326 50.1926C277.95 51.2233 278.12 52.2699 278.14 53.0509C279.213 53.6852 280.23 53.9825 280.945 54.1292C282.629 54.2323 284.266 56.4722 284.667 59.7824L284.591 59.9172Z" fill="white"/>
<path d="M263.219 50.2955C262.683 49.5581 262.143 48.8168 261.607 48.0794L259.553 45.2686L259.529 45.233C258.921 44.3568 259.156 43.1675 260.057 42.5729L261.555 41.5818C262.441 40.9951 263.652 41.1972 264.292 42.0337L266.981 45.5818L269.432 48.8524C269.321 48.9555 269.245 49.0348 269.222 49.0665V49.0744C268.455 48.9793 267.529 49.0943 265.944 49.566C265.214 49.7841 264.328 50.0814 263.331 50.4858L263.287 50.3906C263.263 50.3589 263.243 50.3272 263.215 50.2955H263.219Z" fill="white"/>
<path d="M266.981 45.5823L264.292 42.0342C263.656 41.1977 262.445 40.9955 261.555 41.5822L260.057 42.5733C259.152 43.168 258.921 44.3573 259.529 45.2334C257.813 42.8825 256.097 40.5277 254.381 38.1768C253.845 37.4395 254 36.4206 254.742 35.8696L256.49 34.5613C257.277 33.9746 258.409 34.1332 258.989 34.9142L266.989 45.5823H266.981Z" fill="white"/>
<path d="M341.684 43.9609C341.688 44.1512 341.692 44.3376 341.696 44.5278C341.731 46.1057 341.767 47.6874 341.799 49.2653" stroke="#262626" stroke-width="0.99" stroke-linecap="round" stroke-linejoin="round"/>
<path d="M336.237 24.9355C335.912 28.5669 335.832 31.6631 335.836 34.0417C335.836 34.8861 335.848 35.6393 335.872 36.3133C336.003 40.0517 336.488 41.3996 337.5 42.47C338.78 43.8218 340.488 44.3213 341.699 44.5275C341.719 44.5354 341.735 44.5354 341.751 44.5394" stroke="#262626" stroke-width="0.99" stroke-linecap="round" stroke-linejoin="round"/>
<path d="M356.473 42.9023C356.671 44.052 357.037 46.169 357.231 47.3187C357.422 48.4168 357.78 50.5179 357.966 51.616" stroke="#262626" stroke-width="0.99" stroke-linecap="round" stroke-linejoin="round"/>
<path d="M361.441 27.4648C360.841 30.3152 360.014 33.451 358.87 36.7851C358.112 38.9853 357.293 41.023 356.463 42.8981C356.439 42.9616 356.412 43.025 356.38 43.0884C355.248 42.8902 353.83 42.7396 352.205 42.7832C350.85 42.8189 349.659 42.9814 348.669 43.1756C347.7 40.7019 346.731 38.2321 345.762 35.7583" stroke="#262626" stroke-width="0.99" stroke-linecap="round" stroke-linejoin="round"/>
<path d="M335.871 36.3139C335.955 36.3258 336.527 36.4011 337.015 36.0007C337.468 35.6241 337.5 35.1087 337.5 35.0215" stroke="#262626" stroke-width="0.99" stroke-linecap="round" stroke-linejoin="round"/>
<path d="M338.791 30.315C338.791 31.0722 338.501 31.6867 338.147 31.6867C337.794 31.6867 337.5 31.0722 337.5 30.315C337.5 29.5578 337.79 28.9434 338.147 28.9434C338.505 28.9434 338.791 29.5578 338.791 30.315Z" stroke="#262626" stroke-width="0.99" stroke-linecap="round" stroke-linejoin="round"/>
<path d="M340.301 25.3359L340.348 25.3478C340.837 25.4747 341.866 25.8156 342.577 26.7473C343.614 28.107 343.546 30.1526 342.37 31.8454C342.942 32.341 343.506 32.8365 344.078 33.336C344.031 33.0149 343.947 32.1784 344.444 31.3499C344.603 31.0724 344.893 30.5967 345.445 30.3826C346.315 30.0416 347.491 30.4896 347.987 31.2428C348.762 32.4163 347.741 34.0893 347.002 34.8623C346.569 35.3103 346.108 35.5918 345.759 35.7583C345.695 35.7939 345.636 35.8217 345.584 35.8455" stroke="#262626" stroke-width="0.99" stroke-linecap="round" stroke-linejoin="round"/>
<path d="M361.442 27.4651C362.411 27.5642 363.376 27.6673 364.33 27.7664C364.548 26.6842 364.465 27.0885 364.683 26.0023C364.056 25.8279 363.623 25.2728 363.623 24.6504C363.623 24.6187 363.623 24.587 363.627 24.5553C363.738 22.8744 363.873 20.7138 364.004 18.47C364.397 11.7504 359.233 5.92671 352.293 5.27259C351.741 5.22105 351.201 5.19727 350.657 5.19727C342.819 5.19727 335.943 10.5175 334.319 18.0696C334.279 18.2638 334.231 18.4541 334.191 18.6404C333.747 20.5988 331.891 21.9507 329.818 21.808C329.711 22.6167 329.599 23.4294 329.492 24.2381C331.689 24.472 333.945 24.702 336.233 24.9359C337.596 25.0746 338.97 25.2134 340.349 25.3482C347.396 26.0578 354.629 26.7595 361.438 27.4651H361.442Z" stroke="#262626" stroke-width="0.99" stroke-linecap="round" stroke-linejoin="round"/>
<path d="M337.62 13.3398C337.445 13.55 335.932 15.4291 336.563 17.887C337.135 20.115 339.03 21.11 339.324 21.2567" stroke="#262626" stroke-width="0.99" stroke-linecap="round" stroke-linejoin="round"/>
<path d="M279.195 68.3105C279.342 68.4652 279.493 68.6198 279.652 68.7744C280.308 69.4404 281.031 70.1381 281.817 70.8477C284.061 72.8894 286.826 75.0857 290.163 77.1709C295.422 80.4495 300.408 82.396 304.312 83.5813C305.063 83.8112 305.862 83.8667 306.632 83.732C307.486 83.5853 308.392 83.3871 309.345 83.1294C311.896 82.4316 314.005 81.4842 315.63 80.5961" stroke="#262626" stroke-width="0.99" stroke-linecap="round" stroke-linejoin="round"/>
<path d="M308.324 68.2422C308.324 68.2422 308.332 68.2779 308.336 68.2937C308.761 69.9984 309.472 72.1035 310.724 74.3473C312.209 77.0312 314.005 79.0847 315.629 80.5952C316.543 81.4475 317.397 82.1294 318.12 82.6566C321.099 80.9837 324.075 79.3107 327.054 77.6338C327.189 77.5585 327.328 77.4792 327.463 77.4039C327.94 77.3801 330.899 77.1898 332.988 74.7398C334.879 72.5237 334.736 70.0143 334.693 69.483" stroke="#262626" stroke-width="0.99" stroke-linecap="round" stroke-linejoin="round"/>
<path d="M327.465 77.4043C328.406 78.7443 329.967 79.4539 331.445 79.2081C332.712 78.998 333.479 78.1615 333.721 77.8761" stroke="#262626" stroke-width="0.99" stroke-linecap="round" stroke-linejoin="round"/>
<path d="M285.352 63.4336C284.24 64.496 283.088 65.9708 282.4 67.9173C282.357 68.0481 282.309 68.1789 282.273 68.3098C282.15 68.6983 282.059 69.0749 281.991 69.4396C281.892 69.9391 281.84 70.4109 281.816 70.847C281.813 70.8549 281.812 70.8668 281.812 70.8747V70.8827" stroke="#262626" stroke-width="0.99" stroke-linecap="round" stroke-linejoin="round"/>
<path d="M287.83 61.5391C287.83 61.5391 287.826 61.5391 287.826 61.543C287.25 61.8879 286.317 62.5064 285.355 63.434" stroke="#262626" stroke-width="0.99" stroke-linecap="round" stroke-linejoin="round"/>
<path d="M279.234 66.8978C279.35 66.0653 279.596 64.983 280.128 63.7977C280.47 63.0325 280.859 62.3943 281.225 61.8789" stroke="#262626" stroke-width="0.99" stroke-linecap="round" stroke-linejoin="round"/>
<path d="M279.648 68.7783C279.088 68.8615 278.107 68.917 277.086 68.4651C275.652 67.8348 274.667 66.4393 274.369 64.7663C274.321 64.4928 274.289 64.2074 274.277 63.918" stroke="#262626" stroke-width="0.99" stroke-linecap="round" stroke-linejoin="round"/>
<path d="M284.667 59.7835C284.266 56.4732 282.629 54.2334 280.945 54.1303C280.603 54.1105 280.035 54.166 279.316 54.6655" stroke="#262626" stroke-width="0.99" stroke-linecap="round" stroke-linejoin="round"/>
<path d="M278.137 53.0516C277.978 52.9565 277.812 52.8534 277.649 52.7424C277.057 52.338 276.588 51.9099 276.227 51.5293" stroke="#262626" stroke-width="0.99" stroke-linecap="round" stroke-linejoin="round"/>
<path d="M280.945 54.129C280.23 53.9823 279.213 53.685 278.141 53.0547" stroke="#262626" stroke-width="0.99" stroke-linecap="round" stroke-linejoin="round"/>
<path d="M278.138 53.0542C278.119 52.2693 277.948 51.2227 277.324 50.192C275.596 47.3297 271.028 47.2108 269.459 47.1473C268.923 47.1275 268.474 47.1394 268.176 47.1513" stroke="#262626" stroke-width="0.99" stroke-linecap="round" stroke-linejoin="round"/>
<path d="M271.275 49.8408C270.945 49.6268 270.437 49.3453 269.769 49.1748C269.595 49.1312 269.416 49.0955 269.225 49.0757C268.459 48.9806 267.533 49.0955 265.948 49.5673C265.217 49.7853 264.331 50.0827 263.334 50.487C262.774 50.7209 262.178 50.9865 261.559 51.2918" stroke="#262626" stroke-width="0.99" stroke-linecap="round" stroke-linejoin="round"/>
<path d="M263.252 50.3109C263.252 50.3109 263.232 50.299 263.22 50.2951C261.468 49.3833 259.45 49.8867 258.632 51.1593C257.81 52.4398 258.449 54.1009 259.28 54.9651C260.118 55.8333 261.258 55.9998 262.529 56.1782C263.681 56.3447 264.646 56.2694 265.294 56.1782" stroke="#262626" stroke-width="0.99" stroke-linecap="round" stroke-linejoin="round"/>
<path d="M262.531 56.1797C262.635 57.0637 263.016 59.3234 264.851 61.4483C265.82 62.5703 266.893 63.3037 267.799 63.7873C268.462 64.1322 269.034 64.3463 269.403 64.4652" stroke="#262626" stroke-width="0.99" stroke-linecap="round" stroke-linejoin="round"/>
<path d="M267.797 63.7793V63.7872C267.868 64.1401 268.059 64.8259 268.671 65.2897C269.358 65.813 270.18 65.7615 271.15 65.6822C271.872 65.6227 273.036 65.4324 274.367 64.7664" stroke="#262626" stroke-width="0.99" stroke-linecap="round" stroke-linejoin="round"/>
<path d="M327.052 77.6348C326.726 80.3741 326.556 83.4426 326.675 86.7885C326.885 92.5487 327.918 97.6271 329.197 101.861C329.757 103.72 330.361 105.413 330.965 106.935C330.965 106.939 330.969 106.939 330.969 106.943" stroke="#262626" stroke-width="0.99" stroke-linecap="round" stroke-linejoin="round"/>
<path d="M327.332 108.227C328.675 107.866 329.882 107.422 330.963 106.935C332.091 106.431 333.088 105.88 333.962 105.321C347.233 96.8215 346.51 77.6459 346.379 75.1087C348.632 72.8172 350.884 70.5219 353.136 68.2305C353.18 68.2661 353.224 68.3018 353.267 68.3375C355.579 70.2087 357.891 72.0799 360.207 73.955C360.295 76.9164 360.795 80.9323 362.567 85.3248C365.59 92.8373 370.797 97.6897 374.547 100.441C375.719 101.301 376.744 101.955 377.519 102.419C377.503 104.001 377.296 106.106 376.545 108.457C376.093 109.868 375.54 111.073 375 112.065C375.326 112.616 375.663 113.305 375.922 114.13C376.482 115.906 376.402 117.476 376.259 118.483C376.255 118.515 376.251 118.542 376.247 118.574" stroke="#262626" stroke-width="0.99" stroke-linecap="round" stroke-linejoin="round"/>
<path d="M329.194 101.861C328.658 102.615 327.132 104.969 327.335 108.228C327.597 112.533 330.676 115.083 331.216 115.515" stroke="#262626" stroke-width="0.99" stroke-linecap="round" stroke-linejoin="round"/>
<path d="M350.215 84.0687C350.819 88.1599 353.254 90.8398 355.009 90.7367C356.869 90.6257 359.188 87.3195 358.747 82.582" stroke="#262626" stroke-width="0.99" stroke-linecap="round" stroke-linejoin="round"/>
<path d="M360.26 90.6055C360.236 91.3547 360.057 93.2537 358.635 94.994C356.22 97.9435 352.351 97.8365 351.914 97.8206" stroke="#262626" stroke-width="0.99" stroke-linecap="round" stroke-linejoin="round"/>
<path d="M330.488 144.771C330.969 145.985 331.513 146.999 331.986 147.796" stroke="#262626" stroke-width="0.99" stroke-linecap="round" stroke-linejoin="round"/>
<path d="M331.717 112.248C331.491 113.017 331.288 113.992 331.228 115.122C331.22 115.257 331.216 115.388 331.216 115.515C331.185 117.001 331.419 118.25 331.665 119.15C331.189 123.685 330.66 127.368 330.255 129.917C329.417 135.226 328.845 137.461 329.389 140.792C329.628 142.282 330.033 143.614 330.49 144.768" stroke="#262626" stroke-width="0.99" stroke-linecap="round" stroke-linejoin="round"/>
<path d="M357.305 113.591C358.194 113.544 359.068 113.484 359.918 113.413C362.389 113.203 364.681 112.901 366.767 112.561" stroke="#262626" stroke-width="0.99" stroke-linecap="round" stroke-linejoin="round"/>
<path d="M339.676 112.77C343.684 113.364 348.471 113.792 353.869 113.709C355.041 113.693 356.181 113.654 357.289 113.594" stroke="#262626" stroke-width="0.99" stroke-linecap="round" stroke-linejoin="round"/>
<path d="M362.195 120.124C362.239 120.116 362.283 120.116 362.326 120.112C364.583 119.922 366.648 119.617 368.499 119.252" stroke="#262626" stroke-width="0.99" stroke-linecap="round" stroke-linejoin="round"/>
<path d="M356.145 120.3C357.718 120.336 359.422 120.312 361.237 120.193C361.559 120.173 361.873 120.149 362.186 120.125" stroke="#262626" stroke-width="0.99" stroke-linecap="round" stroke-linejoin="round"/>
<path d="M342.391 149.155C344.798 149.448 346.832 149.42 348.349 149.313C350.47 149.159 351.567 149.072 352.739 148.421C354.038 147.708 354.852 146.622 355.364 145.638C355.714 144.968 355.924 144.35 356.048 143.926C356.341 144.604 356.866 145.571 357.768 146.447C358.026 146.697 358.32 146.943 358.645 147.169C360.794 148.663 363.253 148.576 365.927 148.485C367.21 148.441 369.025 148.271 371.162 147.692" stroke="#262626" stroke-width="0.99" stroke-linecap="round" stroke-linejoin="round"/>
<path d="M362.374 150.879C362.08 150.875 360.24 150.828 358.906 149.365C358.644 149.076 358.437 148.778 358.282 148.485C357.801 147.573 357.766 146.725 357.762 146.447" stroke="#262626" stroke-width="0.99" stroke-linecap="round" stroke-linejoin="round"/>
<path d="M354.751 149.953C353.845 151.951 352.312 153.248 351.648 153.755" stroke="#262626" stroke-width="0.99" stroke-linecap="round" stroke-linejoin="round"/>
<path d="M355.358 145.639C355.449 146.245 355.481 146.935 355.386 147.692C355.282 148.521 355.052 149.274 354.75 149.948" stroke="#262626" stroke-width="0.99" stroke-linecap="round" stroke-linejoin="round"/>
<path d="M332.135 151.313C331.837 150.845 331.484 150.226 331.178 149.469C330.88 148.724 330.622 147.84 330.507 146.841C330.419 146.072 330.427 145.374 330.487 144.771" stroke="#262626" stroke-width="0.99" stroke-linecap="round" stroke-linejoin="round"/>
<path d="M331.176 149.469C330.798 155.392 330.62 161.624 330.711 168.133C330.973 187.091 333.46 204.042 336.753 218.528" stroke="#262626" stroke-width="0.99" stroke-linecap="round" stroke-linejoin="round"/>
<path d="M338.349 217.611C338.187 217.655 337.388 217.881 336.76 218.527C336.562 218.729 336.379 218.971 336.24 219.26C335.724 220.323 335.934 221.655 336.784 222.658C336.892 222.785 337.007 222.908 337.134 223.023" stroke="#262626" stroke-width="0.99" stroke-linecap="round" stroke-linejoin="round"/>
<path d="M354.751 149.949C354.214 154.81 354.206 158.754 354.306 161.493C354.5 166.857 353.952 172.241 354.357 177.597C354.365 177.68 354.369 177.783 354.377 177.906C354.409 178.54 354.393 179.682 353.813 180.887C353.189 182.187 352.173 183.016 351.43 183.504" stroke="#262626" stroke-width="0.99" stroke-linecap="round" stroke-linejoin="round"/>
<path d="M354.382 177.904C354.656 178.467 355.506 180.39 354.902 182.769C354.815 183.113 354.704 183.435 354.577 183.74C353.635 185.976 351.78 187.09 351.379 187.316" stroke="#262626" stroke-width="0.99" stroke-linecap="round" stroke-linejoin="round"/>
<path d="M346.286 186.167C345.809 186.309 345.074 186.472 344.172 186.428C343.477 186.397 342.901 186.254 342.492 186.115" stroke="#262626" stroke-width="0.99" stroke-linecap="round" stroke-linejoin="round"/>
<path d="M354.578 183.732V183.74C354.9 185.893 355.456 189.477 356.254 193.905C358.753 207.792 360.334 211.907 359.992 219.051C359.877 221.533 359.484 225.192 358.161 229.656C357.994 230.223 357.812 230.797 357.609 231.388" stroke="#262626" stroke-width="0.99" stroke-linecap="round" stroke-linejoin="round"/>
<path d="M358.159 229.655C358.333 230.127 358.528 231.13 358.369 232.379C358.369 232.379 358.234 233.128 357.773 233.846C357.618 234.084 357.42 234.294 357.185 234.472C355.569 235.709 352.335 235.614 351.434 235.57C345.976 235.301 337.872 232.514 335.616 228.518C335.222 227.82 335.008 227.082 335.016 226.317C335.024 225.501 335.294 224.224 336.78 222.658" stroke="#262626" stroke-width="0.99" stroke-linecap="round" stroke-linejoin="round"/>
<path d="M341.355 227.832C342.098 228.605 343.183 229.557 344.656 230.393C347.04 231.745 349.304 232.145 350.671 232.276" stroke="#262626" stroke-width="0.99" stroke-linecap="round" stroke-linejoin="round"/>
<path d="M357.411 234.501C357.431 235.556 357.443 236.626 357.447 237.704C357.451 238.41 357.451 239.112 357.447 239.805H327.424C326.518 237.355 326.911 236.047 327.384 235.322C328.353 233.827 330.181 234.006 332.338 232.499C334.093 231.274 335.027 229.661 335.531 228.566" stroke="#262626" stroke-width="0.99" stroke-linecap="round" stroke-linejoin="round"/>
<path d="M377.005 121.682C375.952 121.4 374.824 121.135 373.62 120.901C372.051 120.596 370.574 120.386 369.203 120.247C369.366 119.228 369.529 118.205 369.692 117.186C370.915 117.151 372.707 117.242 374.729 117.892C375.285 118.07 375.793 118.273 376.258 118.483C376.818 118.736 377.311 118.998 377.736 119.252C377.493 120.064 377.247 120.873 377.005 121.682Z" stroke="#262626" stroke-width="0.99" stroke-linecap="round" stroke-linejoin="round"/>
<path d="M377.004 121.682C378.315 125.194 379.598 129.468 380.444 134.411C381.072 138.094 381.35 141.472 381.421 144.449C382.124 148.287 382.823 151.906 383.511 155.307C383.753 156.525 383.999 157.714 384.242 158.875" stroke="#262626" stroke-width="0.99" stroke-linecap="round" stroke-linejoin="round"/>
<path d="M384.243 158.876C383.457 158.654 382.595 158.468 381.665 158.329C378.483 157.865 375.719 158.198 373.701 158.642C373.593 157.493 373.486 156.343 373.375 155.193C374.567 154.793 376.569 154.282 379.063 154.408C380.907 154.504 382.428 154.916 383.512 155.308C383.699 155.376 383.866 155.443 384.021 155.507C384.1 156.632 384.18 157.754 384.263 158.88C384.255 158.88 384.251 158.88 384.243 158.88V158.876Z" stroke="#262626" stroke-width="0.99" stroke-linecap="round" stroke-linejoin="round"/>
<path d="M384.242 158.877C385.99 167.246 387.635 174.124 388.973 179.424C390.928 187.155 393.029 194.647 392.954 205.224C392.934 208.289 392.731 211.08 392.457 213.534V213.542C392.481 213.696 392.973 215.552 393.609 218.006C395.138 223.932 395.206 224.515 395.234 225.141C395.261 225.926 395.226 226.914 394.991 228.075C394.789 229.09 394.435 230.236 393.855 231.492" stroke="#262626" stroke-width="0.99" stroke-linecap="round" stroke-linejoin="round"/>
<path d="M395.114 233.145C394.474 234.116 393.525 234.711 392.869 235.107C387.141 238.592 378.434 235.829 375.86 232.851C375.562 232.503 374.942 231.773 374.827 230.707C374.644 229.006 375.868 227.662 376.261 227.262" stroke="#262626" stroke-width="0.99" stroke-linecap="round" stroke-linejoin="round"/>
<path d="M358.285 148.473V148.485C358.325 152.259 358.591 155.367 358.833 157.543C359.04 159.426 359.826 166.011 362.571 172.366C362.917 173.163 363.362 174.122 364.077 175.078C364.55 175.708 365.145 176.342 365.904 176.913C367.294 177.968 368.724 178.447 369.678 178.677" stroke="#262626" stroke-width="0.99" stroke-linecap="round" stroke-linejoin="round"/>
<path d="M364.072 175.078C363.492 176.212 363.52 177.116 363.583 177.58C363.77 178.967 364.739 180.232 366.205 181.1C367.003 181.576 367.941 181.933 368.986 182.131" stroke="#262626" stroke-width="0.99" stroke-linecap="round" stroke-linejoin="round"/>
<path d="M366.203 181.1C366.759 182.987 367.562 185.944 368.293 189.619C370.354 199.978 369.397 203.843 371.423 209.588C372.106 211.53 373.218 213.94 375.165 216.581C376.464 218.349 378.136 220.224 380.305 222.135" stroke="#262626" stroke-width="0.99" stroke-linecap="round" stroke-linejoin="round"/>
<path d="M375.165 216.582C374.958 216.994 373.898 219.234 374.891 221.823C375.272 222.83 375.86 223.607 376.484 224.202C377.715 225.371 379.09 225.823 379.332 225.898" stroke="#262626" stroke-width="0.99" stroke-linecap="round" stroke-linejoin="round"/>
<path d="M376.485 224.201C376.401 224.859 376.338 225.569 376.294 226.318C376.278 226.639 376.27 226.952 376.266 227.262C376.254 227.904 376.266 228.514 376.294 229.089" stroke="#262626" stroke-width="0.99" stroke-linecap="round" stroke-linejoin="round"/>
<path d="M382.801 233.322C383.381 233.707 384.457 234.313 385.943 234.527C388.14 234.841 389.856 234.107 390.491 233.794" stroke="#262626" stroke-width="0.99" stroke-linecap="round" stroke-linejoin="round"/>
<path d="M395.113 233.141C395.447 234.406 395.713 236.186 395.363 238.235C395.268 238.806 395.137 239.329 394.986 239.805C387.971 239.702 380.951 239.595 373.94 239.492C373.817 239.127 373.67 238.548 373.694 237.843C373.706 237.589 373.761 236.812 374.778 234.786C375.025 234.299 375.382 233.629 375.863 232.852" stroke="#262626" stroke-width="0.99" stroke-linecap="round" stroke-linejoin="round"/>
<path d="M345.152 32.4203C345.232 32.452 345.526 32.5749 345.883 32.4718C346.173 32.3885 346.34 32.2022 346.396 32.1309" stroke="#262626" stroke-width="0.99" stroke-linecap="round" stroke-linejoin="round"/>
<path d="M345.855 33.6223C345.867 33.2378 345.875 32.8572 345.883 32.4727" stroke="#262626" stroke-width="0.99" stroke-linecap="round" stroke-linejoin="round"/>
<path d="M376.267 75.2246C376.517 77.7975 376.66 80.6003 376.628 83.6013C376.605 85.8293 376.481 87.9582 376.287 89.976C376.136 91.5776 375.933 93.1119 375.703 94.5707C375.373 96.6917 374.972 98.654 374.547 100.442" stroke="#262626" stroke-width="0.99" stroke-linecap="round" stroke-linejoin="round"/>
<path d="M375.73 71.0137C375.937 72.3378 376.116 73.7412 376.259 75.2238" stroke="#262626" stroke-width="0.99" stroke-linecap="round" stroke-linejoin="round"/>
<path d="M356.797 116.743C356.928 114.678 357.091 113.627 357.293 113.596C357.293 113.596 357.296 113.594 357.301 113.592H357.305C357.5 113.604 357.718 114.512 357.977 116.319" stroke="#262626" stroke-width="0.99" stroke-linecap="round" stroke-linejoin="round"/>
<path d="M359.355 114.514C359.427 113.844 359.685 113.412 359.92 113.412H359.924C360.174 113.412 360.368 113.92 360.392 113.987" stroke="#262626" stroke-width="0.99" stroke-linecap="round" stroke-linejoin="round"/>
<path d="M361.449 119.321C361.552 119.776 361.878 120.105 362.188 120.125H362.192C362.232 120.125 362.279 120.125 362.323 120.113C362.701 120.034 363.102 119.562 363.03 118.908" stroke="#262626" stroke-width="0.99" stroke-linecap="round" stroke-linejoin="round"/>
<path d="M337.961 49.6055C337.961 49.6055 337.965 49.6094 337.969 49.6094C340.384 51.659 343.069 54.2359 345.747 57.4074C349.024 61.2924 351.411 65.0467 353.143 68.2301" stroke="#262626" stroke-width="0.99" stroke-linecap="round" stroke-linejoin="round"/>
<path d="M330.586 51.498C332.552 53.282 334.622 55.395 336.648 57.8807C341.724 64.1008 344.652 70.305 346.384 75.1098" stroke="#262626" stroke-width="0.99" stroke-linecap="round" stroke-linejoin="round"/>
<path d="M353.27 68.3384C354.235 67.4067 364.321 57.5315 361.754 53.5671C361.603 53.3332 361.401 53.1112 361.139 52.909C361.051 52.8456 360.956 52.7782 360.857 52.7188" stroke="#262626" stroke-width="0.99" stroke-linecap="round" stroke-linejoin="round"/>
<path d="M367.225 56.0645C367.102 55.9694 366.971 55.8782 366.824 55.7949" stroke="#262626" stroke-width="0.99" stroke-linecap="round" stroke-linejoin="round"/>
<path d="M360.211 73.9555C361.299 72.6671 371.107 60.8692 367.77 56.5995C367.623 56.4092 367.445 56.2348 367.238 56.0723" stroke="#262626" stroke-width="0.99" stroke-linecap="round" stroke-linejoin="round"/>
<path d="M376.332 89.9798C377.647 89.298 379.586 88.1007 381.445 86.1106C383.312 84.1086 384.348 82.1145 384.912 80.7785C383.788 76.386 380.416 65.9597 370.286 58.1935C369.297 57.4323 368.272 56.7267 367.236 56.0726L367.228 56.0646C365.265 54.8317 363.223 53.7851 361.138 52.909C360.077 52.461 359.009 52.0606 357.932 51.6999C352.47 49.8802 346.873 49.1627 341.797 49.3173C340.482 49.3569 339.199 49.456 337.967 49.6106C335.222 49.9516 332.704 50.5621 330.543 51.3986C329.379 51.8505 328.323 52.3659 327.381 52.9407C322.638 55.8387 318.686 59.2123 318.686 59.2123C315.909 61.587 314.435 63.2639 310.642 66.4275C309.819 67.1133 309.045 67.7397 308.338 68.2947C307.17 69.2184 306.181 69.9637 305.442 70.5029C302.546 69.0123 299.634 67.5217 296.707 66.035C295.146 65.2382 293.584 64.4493 292.027 63.6604C290.625 62.9507 289.227 62.2451 287.824 61.5434C286.748 60.9963 285.668 60.4572 284.591 59.918C284.253 59.7475 283.916 59.5771 283.582 59.4106" stroke="#262626" stroke-width="0.99" stroke-linecap="round" stroke-linejoin="round"/>
<path d="M384.914 80.7773C385.871 87.1481 385.232 92.2701 383.452 94.3672C382.972 94.9341 382.046 96.0243 380.529 96.3018C379.333 96.5199 378.28 96.1393 377.875 95.9886C376.795 95.5843 376.099 94.942 375.758 94.5773" stroke="#262626" stroke-width="0.99" stroke-linecap="round" stroke-linejoin="round"/>
<path d="M377.759 71.4863C377.839 71.7797 378.014 72.6082 377.64 73.5637C377.255 74.5429 376.528 75.0543 376.266 75.2247H376.262" stroke="#262626" stroke-width="0.99" stroke-linecap="round" stroke-linejoin="round"/>
<path d="M334.758 140.74C334.853 138.528 335.028 136.169 335.33 133.679C335.671 130.841 336.12 128.193 336.629 125.763C338.635 125.43 340.863 125.172 343.29 125.057C347.362 124.859 350.985 125.112 354.016 125.525C353.841 127.507 353.674 129.521 353.531 131.563C353.321 134.528 353.162 137.43 353.042 140.268" stroke="#262626" stroke-width="0.99" stroke-linecap="round" stroke-linejoin="round"/>
<path d="M364.437 140.033C363.19 135.407 361.943 130.78 360.699 126.154C361.764 125.63 362.928 125.123 364.191 124.663C368.501 123.093 372.489 122.574 375.647 122.467C376.477 124.921 377.272 127.783 377.84 131.014C378.297 133.567 378.539 135.938 378.654 138.071" stroke="#262626" stroke-width="0.99" stroke-linecap="round" stroke-linejoin="round"/>
<path d="M269.227 49.0668C269.25 49.0351 269.326 48.9558 269.437 48.8528C269.735 48.5832 270.323 48.1669 271.109 48.1947C271.594 48.2105 271.96 48.3889 272.166 48.5079" stroke="#262626" stroke-width="0.99" stroke-linecap="round" stroke-linejoin="round"/>
<path d="M261.609 48.0801C262.146 48.8175 262.686 49.5588 263.222 50.2962C263.246 50.3279 263.266 50.3596 263.294 50.3913" stroke="#262626" stroke-width="0.99" stroke-linecap="round" stroke-linejoin="round"/>
<path d="M269.436 48.8529L266.985 45.5823L258.985 34.9142C258.405 34.1332 257.273 33.9746 256.486 34.5613L254.738 35.8696C253.996 36.4206 253.841 37.4395 254.377 38.1768C256.093 40.5277 257.809 42.8825 259.525 45.2334" stroke="#262626" stroke-width="0.99" stroke-linecap="round" stroke-linejoin="round"/>
<path d="M261.607 48.0794L259.553 45.2686L259.529 45.233C258.921 44.3568 259.156 43.1675 260.057 42.5729L261.555 41.5818C262.441 40.9951 263.652 41.1972 264.292 42.0337L266.981 45.5818L268.173 47.1517L268.284 47.2984" stroke="#262626" stroke-width="0.99" stroke-linecap="round" stroke-linejoin="round"/>
<path d="M279.98 67.7598L281.99 69.4407" stroke="#262626" stroke-width="0.99" stroke-linecap="round" stroke-linejoin="round"/>
<path d="M280.945 67.2363L282.276 68.3107" stroke="#262626" stroke-width="0.99" stroke-linecap="round" stroke-linejoin="round"/>
<path d="M283.578 62.3242L285.35 63.4342H285.354" stroke="#262626" stroke-width="0.99" stroke-linecap="round" stroke-linejoin="round"/>
<path d="M292.033 63.6562L292.93 63.0219L291.568 61.2221L294.754 58.9703L291.905 55.2081L290.023 56.5877L287.464 53.3409L289.411 51.9137L286.586 48.1912L284.656 49.6104L282.098 46.3636L284.096 44.8968L281.271 41.1782L279.293 42.6292L276.735 39.3823L278.781 37.8838L275.96 34.1613L273.927 35.6519L271.368 32.405L273.462 30.8669L270.645 27.1443L268.564 28.6706L266.002 25.4238L268.147 23.8499L265.33 20.1314L263.197 21.6933L260.639 18.4465L262.832 16.837L259.551 12.5039L256.389 14.7358L254.772 12.603L250.657 15.5089L252.269 17.6417L248.857 20.0481L247.24 17.9153L243.121 20.8212L244.738 22.954L241.326 25.3643L239.709 23.2275L235.59 26.1334L237.21 28.2702L234.199 30.3912L269.013 76.3461L271.996 74.2411L273.752 76.5563L277.867 73.6504L276.242 71.5056L279.659 69.0993L281.279 71.24L281.804 70.8753" stroke="#262626" stroke-width="0.99" stroke-linecap="round" stroke-linejoin="round"/>
</g>
<path d="M32.9668 43.1641V42.6172C32.9668 40.2279 33.6471 38.444 35.0078 37.2656C36.3685 36.0807 38.123 35.4883 40.2715 35.4883C42.2572 35.4883 43.8392 35.9082 45.0176 36.748C46.196 37.5814 46.847 38.8216 46.9707 40.4688L46.9902 40.6738H44.2461L44.2363 40.459C44.1452 39.4759 43.7578 38.7533 43.0742 38.291C42.3971 37.8223 41.4531 37.5879 40.2422 37.5879C38.901 37.5879 37.8171 37.985 36.9902 38.7793C36.1699 39.5736 35.7598 40.791 35.7598 42.4316V43.3496C35.7598 45.0618 36.1699 46.2988 36.9902 47.0605C37.8171 47.8223 38.901 48.2031 40.2422 48.2031C41.5964 48.2031 42.5794 47.9395 43.1914 47.4121C43.8034 46.8783 44.1517 46.1816 44.2363 45.3223L44.2461 45.1172H46.9902L46.9805 45.332C46.8698 46.8555 46.2448 48.0632 45.1055 48.9551C43.9727 49.847 42.3646 50.293 40.2812 50.293C38.1198 50.293 36.3587 49.7135 34.998 48.5547C33.6439 47.3893 32.9668 45.5924 32.9668 43.1641ZM47.6152 37.8906V35.7812H60.6914V37.8906H55.5156V50H52.8008V37.8906H47.6152ZM62.5371 50V35.7812H68.7383C70.5677 35.7812 71.9674 36.1719 72.9375 36.9531C73.9141 37.7344 74.4023 38.877 74.4023 40.3809C74.4023 41.8522 73.9173 42.9948 72.9473 43.8086C71.9772 44.6224 70.571 45.0163 68.7285 44.9902H65.252V50H62.5371ZM65.252 42.9785H68.4941C69.666 42.9785 70.4928 42.7539 70.9746 42.3047C71.4564 41.849 71.6973 41.2109 71.6973 40.3906C71.6973 39.5638 71.4564 38.9323 70.9746 38.4961C70.4928 38.0534 69.666 37.832 68.4941 37.832H65.252V42.9785ZM75.8574 43.1445V42.6074C75.8574 40.2376 76.5475 38.4603 77.9277 37.2754C79.3079 36.084 81.0723 35.4883 83.2207 35.4883C85.3626 35.4883 87.127 36.084 88.5137 37.2754C89.9069 38.4603 90.6035 40.2376 90.6035 42.6074V43.1445C90.6035 45.5339 89.9069 47.3242 88.5137 48.5156C87.127 49.7005 85.3626 50.293 83.2207 50.293C81.0723 50.293 79.3079 49.7005 77.9277 48.5156C76.5475 47.3242 75.8574 45.5339 75.8574 43.1445ZM78.6406 43.3105C78.6406 44.9902 79.0573 46.2272 79.8906 47.0215C80.7305 47.8092 81.8405 48.2031 83.2207 48.2031C84.6009 48.2031 85.7142 47.8092 86.5605 47.0215C87.4069 46.2272 87.8301 44.9902 87.8301 43.3105V42.4609C87.8301 40.7812 87.4069 39.5508 86.5605 38.7695C85.7207 37.9818 84.6074 37.5879 83.2207 37.5879C81.8405 37.5879 80.7305 37.9818 79.8906 38.7695C79.0573 39.5508 78.6406 40.778 78.6406 42.4512V43.3105ZM106.473 50H103.816V40.4785C103.816 40.2702 103.82 40.0423 103.826 39.7949C103.833 39.541 103.842 39.3132 103.855 39.1113H103.738C103.641 39.3066 103.543 39.4987 103.445 39.6875C103.354 39.8763 103.224 40.0814 103.055 40.3027L96.0527 50H93.1816V35.7812H95.8477V45.293C95.8477 45.4948 95.8411 45.7194 95.8281 45.9668C95.8216 46.2142 95.8151 46.4421 95.8086 46.6504H95.9453C96.0169 46.4876 96.1048 46.3021 96.209 46.0938C96.3197 45.8854 96.4466 45.6803 96.5898 45.4785L103.602 35.7812H106.473V50ZM108.318 37.8906V35.7812H121.395V37.8906H116.219V50H113.504V37.8906H108.318ZM123.24 50V35.7812H134.051V37.8809H125.926V41.6699H133.055V43.7109H125.926V47.9102H134.168V50H123.24ZM138.123 35.7812H149.539V50H146.834V37.8711H140.408L140.047 44.5898C139.956 46.4518 139.653 47.8646 139.139 48.8281C138.624 49.7917 137.648 50.2734 136.209 50.2734C135.988 50.2734 135.776 50.2572 135.574 50.2246C135.372 50.1986 135.174 50.1497 134.979 50.0781V47.7734C135.128 47.8255 135.268 47.8613 135.398 47.8809C135.535 47.9004 135.675 47.9102 135.818 47.9102C136.463 47.9102 136.915 47.6367 137.176 47.0898C137.436 46.543 137.602 45.5924 137.674 44.2383L138.123 35.7812ZM152.85 35.7812H155.564V40.918H159.49C161.248 40.918 162.55 41.3411 163.396 42.1875C164.243 43.0339 164.666 44.1211 164.666 45.4492C164.666 46.8555 164.243 47.9655 163.396 48.7793C162.55 49.5931 161.248 50 159.49 50H152.85V35.7812ZM155.564 42.9688V47.9492H159.295C160.258 47.9492 160.942 47.7311 161.346 47.2949C161.749 46.8522 161.951 46.237 161.951 45.4492C161.951 44.7396 161.749 44.1504 161.346 43.6816C160.942 43.2064 160.258 42.9688 159.295 42.9688H155.564ZM166.17 43.1641V42.6172C166.17 40.2279 166.85 38.444 168.211 37.2656C169.572 36.0807 171.326 35.4883 173.475 35.4883C175.46 35.4883 177.042 35.9082 178.221 36.748C179.399 37.5814 180.05 38.8216 180.174 40.4688L180.193 40.6738H177.449L177.439 40.459C177.348 39.4759 176.961 38.7533 176.277 38.291C175.6 37.8223 174.656 37.5879 173.445 37.5879C172.104 37.5879 171.02 37.985 170.193 38.7793C169.373 39.5736 168.963 40.791 168.963 42.4316V43.3496C168.963 45.0618 169.373 46.2988 170.193 47.0605C171.02 47.8223 172.104 48.2031 173.445 48.2031C174.799 48.2031 175.783 47.9395 176.395 47.4121C177.007 46.8783 177.355 46.1816 177.439 45.3223L177.449 45.1172H180.193L180.184 45.332C180.073 46.8555 179.448 48.0632 178.309 48.9551C177.176 49.847 175.568 50.293 173.484 50.293C171.323 50.293 169.562 49.7135 168.201 48.5547C166.847 47.3893 166.17 45.5924 166.17 43.1641ZM180.818 37.8906V35.7812H193.895V37.8906H188.719V50H186.004V37.8906H180.818ZM195.74 50V35.7812H201.775C203.468 35.7812 204.79 36.071 205.74 36.6504C206.691 37.2298 207.166 38.1868 207.166 39.5215C207.166 40.3092 206.961 40.9505 206.551 41.4453C206.147 41.9336 205.633 42.2852 205.008 42.5V42.5391C205.789 42.7474 206.421 43.1283 206.902 43.6816C207.391 44.235 207.635 44.9772 207.635 45.9082C207.635 47.2689 207.127 48.291 206.111 48.9746C205.096 49.6582 203.755 50 202.088 50H195.74ZM198.416 48.0469H201.951C202.96 48.0469 203.709 47.8613 204.197 47.4902C204.686 47.1126 204.93 46.543 204.93 45.7812C204.93 45.0651 204.686 44.515 204.197 44.1309C203.709 43.7402 202.96 43.5449 201.951 43.5449H198.416V48.0469ZM198.416 41.709H201.639C202.635 41.709 203.357 41.5365 203.807 41.1914C204.262 40.8464 204.49 40.3516 204.49 39.707C204.49 39.0299 204.266 38.5352 203.816 38.2227C203.367 37.9102 202.641 37.7539 201.639 37.7539H198.416V41.709ZM209.49 43.1445V42.6074C209.49 40.2376 210.18 38.4603 211.561 37.2754C212.941 36.084 214.705 35.4883 216.854 35.4883C218.995 35.4883 220.76 36.084 222.146 37.2754C223.54 38.4603 224.236 40.2376 224.236 42.6074V43.1445C224.236 45.5339 223.54 47.3242 222.146 48.5156C220.76 49.7005 218.995 50.293 216.854 50.293C214.705 50.293 212.941 49.7005 211.561 48.5156C210.18 47.3242 209.49 45.5339 209.49 43.1445ZM212.273 43.3105C212.273 44.9902 212.69 46.2272 213.523 47.0215C214.363 47.8092 215.473 48.2031 216.854 48.2031C218.234 48.2031 219.347 47.8092 220.193 47.0215C221.04 46.2272 221.463 44.9902 221.463 43.3105V42.4609C221.463 40.7812 221.04 39.5508 220.193 38.7695C219.354 37.9818 218.24 37.5879 216.854 37.5879C215.473 37.5879 214.363 37.9818 213.523 38.7695C212.69 39.5508 212.273 40.778 212.273 42.4512V43.3105ZM46.9023 73H44.2461V63.4785C44.2461 63.2702 44.2493 63.0423 44.2559 62.7949C44.2624 62.541 44.2721 62.3132 44.2852 62.1113H44.168C44.0703 62.3066 43.9727 62.4987 43.875 62.6875C43.7839 62.8763 43.6536 63.0814 43.4844 63.3027L36.4824 73H33.6113V58.7812H36.2773V68.293C36.2773 68.4948 36.2708 68.7194 36.2578 68.9668C36.2513 69.2142 36.2448 69.4421 36.2383 69.6504H36.375C36.4466 69.4876 36.5345 69.3021 36.6387 69.0938C36.7493 68.8854 36.8763 68.6803 37.0195 68.4785L44.0312 58.7812H46.9023V73ZM55.2324 73V58.7812H61.4336C63.263 58.7812 64.6628 59.1719 65.6328 59.9531C66.6094 60.7344 67.0977 61.877 67.0977 63.3809C67.0977 64.8522 66.6126 65.9948 65.6426 66.8086C64.6725 67.6224 63.2663 68.0163 61.4238 67.9902H57.9473V73H55.2324ZM57.9473 65.9785H61.1895C62.3613 65.9785 63.1882 65.7539 63.6699 65.3047C64.1517 64.849 64.3926 64.2109 64.3926 63.3906C64.3926 62.5638 64.1517 61.9323 63.6699 61.4961C63.1882 61.0534 62.3613 60.832 61.1895 60.832H57.9473V65.9785ZM69.1973 73V58.7812H80.0078V60.8809H71.8828V64.6699H79.0117V66.7109H71.8828V70.9102H80.125V73H69.1973ZM82.4199 73V58.7812H85.6328L90.4082 69.0352C90.5059 69.2435 90.6035 69.4551 90.7012 69.6699C90.7988 69.8783 90.8737 70.0573 90.9258 70.207H90.9844C91.0365 70.0573 91.1048 69.8783 91.1895 69.6699C91.2741 69.4551 91.362 69.2435 91.4531 69.0352L96.2871 58.7812H99.5684V73H96.8926L96.9023 63.3516C96.9023 63.1497 96.9089 62.9349 96.9219 62.707C96.9349 62.4727 96.9479 62.2578 96.9609 62.0625H96.8926C96.847 62.2578 96.7884 62.4727 96.7168 62.707C96.6517 62.9349 96.5736 63.1497 96.4824 63.3516L91.9707 73H89.666L85.1738 63.3516C85.0762 63.1562 84.9915 62.9447 84.9199 62.7168C84.8483 62.4824 84.7897 62.2643 84.7441 62.0625H84.6758C84.6888 62.2643 84.7018 62.4824 84.7148 62.7168C84.7344 62.9447 84.7441 63.1595 84.7441 63.3613V73H82.4199ZM102.146 66.1445V65.6074C102.146 63.2376 102.837 61.4603 104.217 60.2754C105.597 59.084 107.361 58.4883 109.51 58.4883C111.652 58.4883 113.416 59.084 114.803 60.2754C116.196 61.4603 116.893 63.2376 116.893 65.6074V66.1445C116.893 68.5339 116.196 70.3242 114.803 71.5156C113.416 72.7005 111.652 73.293 109.51 73.293C107.361 73.293 105.597 72.7005 104.217 71.5156C102.837 70.3242 102.146 68.5339 102.146 66.1445ZM104.93 66.3105C104.93 67.9902 105.346 69.2272 106.18 70.0215C107.02 70.8092 108.13 71.2031 109.51 71.2031C110.89 71.2031 112.003 70.8092 112.85 70.0215C113.696 69.2272 114.119 67.9902 114.119 66.3105V65.4609C114.119 63.7812 113.696 62.5508 112.85 61.7695C112.01 60.9818 110.896 60.5879 109.51 60.5879C108.13 60.5879 107.02 60.9818 106.18 61.7695C105.346 62.5508 104.93 63.778 104.93 65.4512V66.3105ZM119.471 73V58.7812H122.186V64.6113H129.92V58.7812H132.625V73H129.92V66.7207H122.186V73H119.471ZM134.471 60.8906V58.7812H147.547V60.8906H142.371V73H139.656V60.8906H134.471Z" fill="#262626"/>
</g>
<defs>
<clipPath id="clip0_1091_23552">
<rect width="384" height="240" rx="32" fill="white"/>
</clipPath>
<clipPath id="clip1_1091_23552">
<rect width="281" height="157" fill="white" transform="matrix(-0.817734 0.575596 0.575596 0.817734 453.781 -123)"/>
</clipPath>
<clipPath id="clip2_1091_23552">
<rect width="297.74" height="187.511" fill="white" transform="matrix(-0.828493 0.559999 0.559999 0.828493 514.617 -45.1953)"/>
</clipPath>
<clipPath id="clip3_1091_23552">
<rect width="162" height="235" fill="white" transform="translate(234 5)"/>
</clipPath>
</defs>
</svg>
