<svg width="40" height="40" viewBox="0 0 40 40" fill="none" xmlns="http://www.w3.org/2000/svg">
<rect width="40" height="40" rx="8" fill="#7099ED"/>
<path d="M25.4674 10V12M14.2675 10V12" stroke="white" stroke-width="1.5" stroke-linecap="round" stroke-linejoin="round"/>
<path d="M19.8638 21H19.8722M19.8638 25H19.8722M23.5929 21H23.6013M16.1346 21H16.143M16.1346 25H16.143" stroke="white" stroke-width="2" stroke-linecap="round" stroke-linejoin="round"/>
<path d="M11.9335 16.0002H27.8001" stroke="white" stroke-width="1.5" stroke-linecap="round" stroke-linejoin="round"/>
<path d="M10.9999 20.243C10.9999 15.8857 10.9999 13.707 12.1685 12.3534C13.3372 10.9998 15.2181 10.9998 18.9798 10.9998H20.7532C24.515 10.9998 26.3959 10.9998 27.5645 12.3534C28.7331 13.707 28.7331 15.8857 28.7331 20.243V20.7566C28.7331 25.1139 28.7331 27.2925 27.5645 28.6462C26.3959 29.9998 24.515 29.9998 20.7532 29.9998H18.9798C15.2181 29.9998 13.3372 29.9998 12.1685 28.6462C10.9999 27.2925 10.9999 25.1139 10.9999 20.7566V20.243Z" stroke="white" stroke-width="1.5" stroke-linecap="round" stroke-linejoin="round"/>
<path d="M11.4667 16.0002H28.2666" stroke="white" stroke-width="1.5" stroke-linecap="round" stroke-linejoin="round"/>
</svg>
