<svg width="310" height="233" viewBox="0 0 310 233" fill="none" xmlns="http://www.w3.org/2000/svg">
<g clip-path="url(#clip0_1859_20182)">
<path d="M111.355 208.041H105.597C104.247 208.041 103.152 209.134 103.152 210.483V215.344C103.152 216.693 104.247 217.787 105.597 217.787H111.355C112.705 217.787 113.8 216.693 113.8 215.344V210.483C113.8 209.134 112.705 208.041 111.355 208.041Z" fill="#262626" stroke="#262626" stroke-width="0.99" stroke-miterlimit="10"/>
<path d="M227.419 0.195312H117.855V169.305H227.419V0.195312Z" fill="#7099ED" stroke="#262626" stroke-width="0.99" stroke-miterlimit="10"/>
<path d="M320.806 0.195312H211.242V169.305H320.806V0.195312Z" fill="white" stroke="#262626" stroke-width="0.99" stroke-miterlimit="10"/>
<path d="M299.169 137.941H189.605V168.961H299.169V137.941Z" fill="white" stroke="#262626" stroke-width="0.99" stroke-miterlimit="10"/>
<path d="M267.215 205.373H46.3477V214.24H267.215V205.373Z" fill="#262626" stroke="#262626" stroke-width="0.99" stroke-miterlimit="10"/>
<path d="M221.065 217.525C228.066 217.525 233.743 211.855 233.743 204.86C233.743 197.866 228.066 192.195 221.065 192.195C214.063 192.195 208.387 197.866 208.387 204.86C208.387 211.855 214.063 217.525 221.065 217.525Z" fill="#262626" stroke="#262626" stroke-width="0.99" stroke-miterlimit="10"/>
<path d="M196.334 179.832H182.099C172.187 179.832 164.148 191.692 164.148 206.318C164.148 220.945 172.187 232.805 182.099 232.805H196.334C206.246 232.805 214.285 220.945 214.285 206.318C214.285 191.692 206.246 179.832 196.334 179.832Z" fill="#262626" stroke="#262626" stroke-width="0.99" stroke-miterlimit="10"/>
<path d="M47.299 179.832H33.0642C23.1519 179.832 15.1133 191.692 15.1133 206.318C15.1133 220.945 23.1519 232.805 33.0642 232.805H47.299C57.2113 232.805 65.2499 220.945 65.2499 206.318C65.2499 191.692 57.2113 179.832 47.299 179.832Z" fill="#262626" stroke="#262626" stroke-width="0.99" stroke-miterlimit="10"/>
<path d="M290.207 177.354C292.667 178.717 299.693 183.047 302.588 191.578C303.084 193.043 303.397 194.45 303.585 195.755C303.816 197.357 302.568 198.791 300.949 198.791H286.26C285.72 191.714 285.18 184.637 284.641 177.561C286.499 177.49 288.353 177.424 290.211 177.354H290.207Z" fill="#262626" stroke="#262626" stroke-width="0.99" stroke-miterlimit="10"/>
<path d="M163.707 203.84H149.21C147.992 203.84 147.004 204.827 147.004 206.044V220.526C147.004 221.743 147.992 222.73 149.21 222.73H163.707C164.925 222.73 165.913 221.743 165.913 220.526V206.044C165.913 204.827 164.925 203.84 163.707 203.84Z" fill="#262626" stroke="#262626" stroke-width="0.99" stroke-miterlimit="10"/>
<path d="M77.3202 203.84H62.8234C61.6049 203.84 60.6172 204.827 60.6172 206.044V220.526C60.6172 221.743 61.6049 222.73 62.8234 222.73H77.3202C78.5387 222.73 79.5265 221.743 79.5265 220.526V206.044C79.5265 204.827 78.5387 203.84 77.3202 203.84Z" fill="#262626" stroke="#262626" stroke-width="0.99" stroke-miterlimit="10"/>
<path d="M301.371 199.102H286.874C285.656 199.102 284.668 200.088 284.668 201.306V215.787C284.668 217.005 285.656 217.991 286.874 217.991H301.371C302.589 217.991 303.577 217.005 303.577 215.787V201.306C303.577 200.088 302.589 199.102 301.371 199.102Z" fill="#262626" stroke="#262626" stroke-width="0.99" stroke-miterlimit="10"/>
<path d="M302.628 174.018H152.625V192.657H302.628V174.018Z" fill="#262626" stroke="#262626" stroke-width="0.99" stroke-miterlimit="10"/>
<path d="M319.39 179.996H169.387V187.897H319.39V179.996Z" fill="#262626" stroke="#262626" stroke-width="0.99" stroke-miterlimit="10"/>
<path d="M281.998 179.832H267.763C257.851 179.832 249.812 191.692 249.812 206.318C249.812 220.945 257.851 232.805 267.763 232.805H281.998C291.91 232.805 299.949 220.945 299.949 206.318C299.949 191.692 291.91 179.832 281.998 179.832Z" fill="#7099ED" stroke="#262626" stroke-width="0.99" stroke-miterlimit="10"/>
<path d="M273.697 179.832C263.785 179.832 255.746 191.692 255.746 206.318C255.746 220.945 263.785 232.805 273.697 232.805" stroke="#262626" stroke-width="0.99" stroke-miterlimit="10"/>
<path d="M271.209 179.832C261.296 179.832 253.258 191.692 253.258 206.318C253.258 220.945 261.296 232.805 271.209 232.805" stroke="#262626" stroke-width="0.99" stroke-miterlimit="10"/>
<path d="M276.185 179.832C266.273 179.832 258.234 191.692 258.234 206.318C258.234 220.945 266.273 232.805 276.185 232.805" stroke="#262626" stroke-width="0.99" stroke-miterlimit="10"/>
<path d="M278.674 179.832C268.761 179.832 260.723 191.692 260.723 206.318C260.723 220.945 268.761 232.805 278.674 232.805" stroke="#262626" stroke-width="0.99" stroke-miterlimit="10"/>
<path d="M282.496 230.623C291.593 230.623 298.968 219.741 298.968 206.318C298.968 192.894 291.593 182.012 282.496 182.012C273.398 182.012 266.023 192.894 266.023 206.318C266.023 219.741 273.398 230.623 282.496 230.623Z" stroke="#262626" stroke-width="0.99" stroke-miterlimit="10"/>
<path d="M283.434 223.528C289.877 223.528 295.099 215.823 295.099 206.319C295.099 196.814 289.877 189.109 283.434 189.109C276.992 189.109 271.77 196.814 271.77 206.319C271.77 215.823 276.992 223.528 283.434 223.528Z" fill="white" stroke="#262626" stroke-width="0.99" stroke-miterlimit="10"/>
<path d="M284.123 221.073C289.645 221.073 294.122 214.467 294.122 206.318C294.122 198.169 289.645 191.562 284.123 191.562C278.601 191.562 274.125 198.169 274.125 206.318C274.125 214.467 278.601 221.073 284.123 221.073Z" stroke="#262626" stroke-width="0.99" stroke-miterlimit="10"/>
<path d="M283.226 217.526C282.788 217.526 282.436 217.175 282.436 216.737C282.436 216.299 282.788 215.944 283.226 215.944C283.66 215.944 284.09 215.873 284.513 215.737C284.927 215.6 285.373 215.83 285.51 216.245C285.647 216.659 285.416 217.104 285.002 217.241C284.423 217.429 283.828 217.522 283.23 217.526H283.226ZM279.083 215.635C278.88 215.635 278.673 215.557 278.52 215.401C278.133 215.01 277.773 214.56 277.448 214.072C277.206 213.708 277.307 213.216 277.671 212.978C278.035 212.735 278.528 212.837 278.766 213.2C279.036 213.607 279.33 213.97 279.647 214.291C279.952 214.603 279.948 215.104 279.639 215.408C279.486 215.561 279.283 215.635 279.083 215.635ZM288.303 214.385C288.151 214.385 287.998 214.342 287.865 214.252C287.501 214.009 287.403 213.517 287.646 213.154C287.904 212.767 288.143 212.345 288.354 211.899C288.542 211.505 289.015 211.337 289.41 211.524C289.805 211.712 289.973 212.184 289.786 212.579C289.543 213.095 289.265 213.583 288.964 214.033C288.812 214.259 288.561 214.385 288.303 214.385ZM276.419 210.106C276.048 210.106 275.719 209.844 275.645 209.465C275.543 208.937 275.465 208.394 275.41 207.851C275.367 207.417 275.688 207.03 276.122 206.987C276.56 206.944 276.944 207.265 276.987 207.698C277.033 208.191 277.104 208.683 277.198 209.16C277.28 209.59 277.002 210.004 276.572 210.086C276.521 210.098 276.47 210.102 276.419 210.102V210.106ZM290.279 208.546C290.251 208.546 290.224 208.546 290.2 208.543C289.766 208.5 289.449 208.113 289.492 207.679C289.539 207.194 289.567 206.698 289.567 206.206V206.167C289.567 205.729 289.923 205.377 290.357 205.377C290.791 205.377 291.147 205.733 291.147 206.167V206.206C291.147 206.753 291.12 207.3 291.065 207.835C291.026 208.242 290.681 208.546 290.279 208.546ZM276.415 203.92C276.365 203.92 276.314 203.916 276.263 203.904C275.833 203.822 275.555 203.408 275.637 202.978C275.743 202.431 275.876 201.896 276.036 201.388C276.165 200.969 276.607 200.735 277.026 200.864C277.444 200.993 277.679 201.434 277.55 201.853C277.409 202.31 277.288 202.79 277.194 203.279C277.12 203.658 276.791 203.92 276.419 203.92H276.415ZM289.629 202.364C289.297 202.364 288.988 202.153 288.878 201.821C288.722 201.352 288.538 200.899 288.334 200.473C288.147 200.078 288.311 199.606 288.706 199.418C289.101 199.23 289.574 199.395 289.762 199.789C289.993 200.274 290.204 200.79 290.38 201.325C290.517 201.739 290.294 202.189 289.88 202.325C289.797 202.353 289.711 202.364 289.629 202.364ZM279.056 198.379C278.856 198.379 278.657 198.304 278.504 198.156C278.191 197.851 278.184 197.351 278.489 197.038C278.903 196.612 279.353 196.245 279.83 195.94C280.198 195.706 280.687 195.815 280.922 196.182C281.156 196.55 281.047 197.038 280.679 197.273C280.304 197.511 279.948 197.8 279.619 198.14C279.463 198.3 279.259 198.379 279.052 198.379H279.056ZM286.117 197.363C285.968 197.363 285.815 197.32 285.682 197.234C285.295 196.98 284.888 196.784 284.481 196.655C284.063 196.522 283.832 196.081 283.965 195.663C284.098 195.245 284.54 195.014 284.959 195.147C285.506 195.319 286.042 195.577 286.551 195.913C286.914 196.151 287.016 196.644 286.778 197.007C286.625 197.238 286.375 197.363 286.117 197.363Z" fill="#262626"/>
<path d="M283.867 214.588C286.736 214.588 289.061 210.886 289.061 206.319C289.061 201.753 286.736 198.051 283.867 198.051C280.998 198.051 278.672 201.753 278.672 206.319C278.672 210.886 280.998 214.588 283.867 214.588Z" stroke="#262626" stroke-width="0.99" stroke-miterlimit="10"/>
<path d="M283.756 208.937C284.451 208.937 285.015 207.814 285.015 206.429C285.015 205.043 284.451 203.92 283.756 203.92C283.06 203.92 282.496 205.043 282.496 206.429C282.496 207.814 283.06 208.937 283.756 208.937Z" fill="white" stroke="#262626" stroke-width="0.99" stroke-miterlimit="10"/>
<path d="M283.173 207.772C283.547 207.772 283.85 207.171 283.85 206.428C283.85 205.686 283.547 205.084 283.173 205.084C282.799 205.084 282.496 205.686 282.496 206.428C282.496 207.171 282.799 207.772 283.173 207.772Z" fill="#262626" stroke="#262626" stroke-width="0.99" stroke-miterlimit="10"/>
<path d="M41.5988 133.59H44.3839C47.0196 133.59 49.1562 131.455 49.1562 128.822V114.356C49.1562 111.723 47.0196 109.589 44.3839 109.589H41.5988C38.9631 109.589 36.8265 111.723 36.8265 114.356V128.822C36.8265 131.455 38.9631 133.59 41.5988 133.59Z" fill="#7099ED" stroke="#262626" stroke-width="0.99" stroke-miterlimit="10"/>
<path d="M34.0195 114.351V128.822C34.0195 131.025 35.5216 132.882 37.5596 133.425C37.9508 133.53 38.3615 133.585 38.7879 133.585H41.5731C44.2096 133.585 46.3454 131.451 46.3454 128.822V114.351C46.3454 111.721 44.2096 109.584 41.5731 109.584H38.7879C36.1553 109.584 34.0195 111.721 34.0195 114.351Z" fill="#7099ED" stroke="#262626" stroke-width="0.99" stroke-miterlimit="10"/>
<path d="M34.0195 122.965V128.822C34.0195 131.026 35.5216 132.883 37.5596 133.426V125.204C37.5596 123.973 36.5504 122.965 35.3143 122.965H34.0195Z" fill="white" stroke="#262626" stroke-width="0.99" stroke-miterlimit="10"/>
<path d="M251.144 182.219H202.839C200.246 182.219 198.145 184.318 198.145 186.908V201.831C198.145 204.421 200.246 206.521 202.839 206.521H251.144C253.737 206.521 255.839 204.421 255.839 201.831V186.908C255.839 184.318 253.737 182.219 251.144 182.219Z" fill="#7099ED" stroke="#262626" stroke-width="0.99" stroke-miterlimit="10"/>
<path d="M214.107 182.219H187.026C184.434 182.219 182.332 184.318 182.332 186.908V201.831C182.332 204.421 184.434 206.521 187.026 206.521H214.107C216.699 206.521 218.801 204.421 218.801 201.831V186.908C218.801 184.318 216.699 182.219 214.107 182.219Z" fill="#262626" stroke="#262626" stroke-width="0.99" stroke-miterlimit="10"/>
<path d="M192.317 206.712H6.92432C4.42082 206.712 2.38672 204.68 2.38672 202.176V173.438C2.38672 170.14 3.03215 166.905 4.25652 163.904C5.06234 161.934 6.1185 160.062 7.40546 158.339C7.77316 157.843 8.16042 157.362 8.56724 156.893C8.71198 156.725 8.86062 156.561 9.00927 156.397L36.0197 126.878L39.9119 122.627L72.1954 87.3481C72.9112 86.5666 73.6544 85.8202 74.4289 85.1129C75.3482 84.265 76.3066 83.4717 77.3001 82.7293C83.6019 78.0166 91.308 75.4141 99.2997 75.4141H180.867L192.317 206.712Z" fill="white" stroke="#262626" stroke-width="0.99" stroke-miterlimit="10"/>
<path d="M172.636 166.021H103.152V206.716H172.636V166.021Z" fill="#262626" stroke="#262626" stroke-width="0.99" stroke-miterlimit="10"/>
<path d="M145.994 179.832H131.76C121.847 179.832 113.809 191.692 113.809 206.318C113.809 220.945 121.847 232.805 131.76 232.805H145.994C155.907 232.805 163.945 220.945 163.945 206.318C163.945 191.692 155.907 179.832 145.994 179.832Z" fill="#7099ED" stroke="#262626" stroke-width="0.99" stroke-miterlimit="10"/>
<path d="M137.697 179.832C127.785 179.832 119.746 191.692 119.746 206.318C119.746 220.945 127.785 232.805 137.697 232.805" stroke="#262626" stroke-width="0.99" stroke-miterlimit="10"/>
<path d="M135.209 179.832C125.296 179.832 117.258 191.692 117.258 206.318C117.258 220.945 125.296 232.805 135.209 232.805" stroke="#262626" stroke-width="0.99" stroke-miterlimit="10"/>
<path d="M140.181 179.832C130.269 179.832 122.23 191.692 122.23 206.318C122.23 220.945 130.269 232.805 140.181 232.805" stroke="#262626" stroke-width="0.99" stroke-miterlimit="10"/>
<path d="M142.67 179.832C132.757 179.832 124.719 191.692 124.719 206.318C124.719 220.945 132.757 232.805 142.67 232.805" stroke="#262626" stroke-width="0.99" stroke-miterlimit="10"/>
<path d="M146.496 230.623C155.593 230.623 162.968 219.741 162.968 206.318C162.968 192.894 155.593 182.012 146.496 182.012C137.398 182.012 130.023 192.894 130.023 206.318C130.023 219.741 137.398 230.623 146.496 230.623Z" stroke="#262626" stroke-width="0.99" stroke-miterlimit="10"/>
<path d="M147.43 223.528C153.873 223.528 159.095 215.823 159.095 206.319C159.095 196.814 153.873 189.109 147.43 189.109C140.988 189.109 135.766 196.814 135.766 206.319C135.766 215.823 140.988 223.528 147.43 223.528Z" fill="white" stroke="#262626" stroke-width="0.99" stroke-miterlimit="10"/>
<path d="M148.119 221.073C153.641 221.073 158.118 214.467 158.118 206.318C158.118 198.169 153.641 191.562 148.119 191.562C142.598 191.562 138.121 198.169 138.121 206.318C138.121 214.467 142.598 221.073 148.119 221.073Z" stroke="#262626" stroke-width="0.99" stroke-miterlimit="10"/>
<path d="M147.226 217.526C146.788 217.526 146.436 217.175 146.436 216.737C146.436 216.299 146.788 215.944 147.226 215.944C147.66 215.944 148.09 215.873 148.513 215.737C148.927 215.6 149.373 215.83 149.51 216.245C149.647 216.659 149.416 217.104 149.002 217.241C148.423 217.429 147.828 217.522 147.23 217.526H147.226ZM143.083 215.635C142.88 215.635 142.673 215.557 142.52 215.401C142.133 215.01 141.773 214.56 141.448 214.072C141.206 213.708 141.307 213.216 141.671 212.978C142.035 212.735 142.528 212.837 142.766 213.2C143.036 213.607 143.33 213.97 143.647 214.291C143.952 214.603 143.948 215.104 143.639 215.408C143.486 215.561 143.283 215.635 143.083 215.635ZM152.303 214.385C152.151 214.385 151.998 214.342 151.865 214.252C151.501 214.009 151.403 213.517 151.646 213.154C151.904 212.767 152.143 212.345 152.354 211.899C152.542 211.505 153.015 211.337 153.41 211.524C153.805 211.712 153.973 212.184 153.786 212.579C153.543 213.095 153.265 213.583 152.964 214.033C152.812 214.259 152.561 214.385 152.303 214.385ZM140.419 210.106C140.048 210.106 139.719 209.844 139.645 209.465C139.543 208.937 139.465 208.394 139.41 207.851C139.367 207.417 139.688 207.03 140.122 206.987C140.56 206.944 140.944 207.265 140.987 207.698C141.033 208.191 141.104 208.683 141.198 209.16C141.28 209.59 141.002 210.004 140.572 210.086C140.521 210.098 140.47 210.102 140.419 210.102V210.106ZM154.279 208.546C154.251 208.546 154.224 208.546 154.2 208.543C153.766 208.5 153.449 208.113 153.492 207.679C153.539 207.194 153.567 206.698 153.567 206.206V206.167C153.567 205.729 153.923 205.377 154.357 205.377C154.791 205.377 155.147 205.733 155.147 206.167V206.206C155.147 206.753 155.12 207.3 155.065 207.835C155.026 208.242 154.681 208.546 154.279 208.546ZM140.415 203.92C140.365 203.92 140.314 203.916 140.263 203.904C139.833 203.822 139.555 203.408 139.637 202.978C139.743 202.431 139.876 201.896 140.036 201.388C140.165 200.969 140.607 200.735 141.026 200.864C141.444 200.993 141.679 201.434 141.55 201.853C141.409 202.31 141.288 202.79 141.194 203.279C141.12 203.658 140.791 203.92 140.419 203.92H140.415ZM153.629 202.364C153.297 202.364 152.988 202.153 152.878 201.821C152.722 201.352 152.538 200.899 152.334 200.473C152.147 200.078 152.311 199.606 152.706 199.418C153.101 199.23 153.574 199.395 153.762 199.789C153.993 200.274 154.204 200.79 154.38 201.325C154.517 201.739 154.294 202.189 153.88 202.325C153.797 202.353 153.711 202.364 153.629 202.364ZM143.056 198.379C142.856 198.379 142.657 198.304 142.504 198.156C142.191 197.851 142.184 197.351 142.489 197.038C142.903 196.612 143.353 196.245 143.83 195.94C144.198 195.706 144.687 195.815 144.922 196.182C145.156 196.55 145.047 197.038 144.679 197.273C144.304 197.511 143.948 197.8 143.619 198.14C143.463 198.3 143.259 198.379 143.052 198.379H143.056ZM150.117 197.363C149.968 197.363 149.815 197.32 149.682 197.234C149.295 196.98 148.888 196.784 148.481 196.655C148.063 196.522 147.832 196.081 147.965 195.663C148.098 195.245 148.54 195.014 148.959 195.147C149.506 195.319 150.042 195.577 150.551 195.913C150.915 196.151 151.016 196.644 150.778 197.007C150.625 197.238 150.375 197.363 150.117 197.363Z" fill="#262626"/>
<path d="M147.867 214.588C150.736 214.588 153.061 210.886 153.061 206.319C153.061 201.753 150.736 198.051 147.867 198.051C144.998 198.051 142.672 201.753 142.672 206.319C142.672 210.886 144.998 214.588 147.867 214.588Z" stroke="#262626" stroke-width="0.99" stroke-miterlimit="10"/>
<path d="M147.756 208.937C148.451 208.937 149.015 207.814 149.015 206.429C149.015 205.043 148.451 203.92 147.756 203.92C147.06 203.92 146.496 205.043 146.496 206.429C146.496 207.814 147.06 208.937 147.756 208.937Z" fill="white" stroke="#262626" stroke-width="0.99" stroke-miterlimit="10"/>
<path d="M147.169 207.772C147.543 207.772 147.846 207.171 147.846 206.428C147.846 205.686 147.543 205.084 147.169 205.084C146.795 205.084 146.492 205.686 146.492 206.428C146.492 207.171 146.795 207.772 147.169 207.772Z" fill="#262626" stroke="#262626" stroke-width="0.99" stroke-miterlimit="10"/>
<path d="M320.806 137.941H211.242V168.961H320.806V137.941Z" fill="white" stroke="#262626" stroke-width="0.99" stroke-miterlimit="10"/>
<path d="M316.895 165.057V141.854H215.154V165.057H316.895Z" fill="white" stroke="#262626" stroke-width="0.99" stroke-miterlimit="10"/>
<path d="M205.797 88.7627V194.098C205.797 197.221 204.663 200.077 202.781 202.281C200.465 204.993 197.019 206.712 193.17 206.712H169.238C167.087 206.712 165.283 205.091 165.06 202.953L163.856 191.496C163.23 185.541 160.405 180.3 156.239 176.553C152.07 172.802 146.558 170.539 140.561 170.539C131.842 170.539 124.148 175.326 120.115 182.516C118.597 185.228 117.596 188.288 117.263 191.558L116.097 202.942C115.878 205.083 114.075 206.712 111.92 206.712H81.7876C79.2802 206.712 77.25 204.684 77.25 202.18V173.438C77.25 167.131 79.6127 161.051 83.8726 156.397L110.899 126.878L147.098 87.3403C147.81 86.5627 148.553 85.8202 149.324 85.1129C156.071 78.9036 164.943 75.4141 174.194 75.4141H192.435C199.816 75.4141 205.797 81.3889 205.797 88.7627Z" fill="white" stroke="#262626" stroke-width="0.99" stroke-miterlimit="10"/>
<path d="M94.1792 158.34V198.53H2.38672V173.439C2.38672 170.141 3.15733 166.905 4.62422 163.904C5.58651 161.935 6.85 160.063 8.39122 158.34H94.1792Z" fill="#7099ED" stroke="#262626" stroke-width="0.99" stroke-miterlimit="10"/>
<path d="M147.126 87.3055L147.095 87.3407L123.925 112.647L119.904 117.039L114.15 123.323C114.037 123.444 113.923 123.565 113.802 123.682C111.76 125.726 108.979 126.879 106.072 126.879H39.2914C38.0397 126.879 37.3825 125.39 38.2274 124.464L39.9095 122.627L55.9827 105.062L70.9686 88.6849L72.1929 87.3485L72.2125 87.325C73.5073 85.9144 75.3301 85.1133 77.243 85.1133H146.16C147.298 85.1133 147.897 86.4653 147.126 87.3055Z" fill="#262626" stroke="#262626" stroke-width="0.99" stroke-miterlimit="10"/>
<path d="M177.23 85.1133V126.879H114.999C113.426 126.879 112.605 125.015 113.665 123.854L147.094 87.3407C148.393 85.9222 150.231 85.1133 152.16 85.1133H177.226H177.23Z" fill="#7099ED" stroke="#262626" stroke-width="0.99" stroke-miterlimit="10"/>
<path d="M120.109 182.516C118.591 185.228 117.59 188.287 117.258 191.558L116.092 202.941C115.873 205.083 114.07 206.712 111.914 206.712H2.51497C1.23583 206.712 0.195312 205.673 0.195312 204.391V184.837C0.195312 183.555 1.23583 182.516 2.51497 182.516H120.109Z" fill="#7099ED" stroke="#262626" stroke-width="0.99" stroke-miterlimit="10"/>
<path d="M91.861 174.017H78.526C73.5151 174.017 70.1197 168.918 72.056 164.299L73.4251 161.036C74.3326 158.875 76.2572 157.312 78.5573 156.866L93.7152 153.928C99.4654 152.814 103.968 158.812 101.288 164.014L98.0963 170.215C96.8954 172.548 94.4858 174.017 91.8571 174.017H91.861Z" fill="white" stroke="#262626" stroke-width="0.99" stroke-miterlimit="10"/>
<path d="M8.46554 174.018H2.38672V173.44C2.38672 167.355 4.58511 161.478 8.56724 156.895C10.8087 157.371 12.6785 158.919 13.5625 161.033L14.9355 164.3C16.8718 168.915 13.4765 174.018 8.46554 174.018Z" fill="white" stroke="#262626" stroke-width="0.99" stroke-miterlimit="10"/>
<path d="M54.1066 200.527H30.0261C28.0115 200.527 26.3021 199.046 26.0126 197.053L21.9914 169.133C21.6393 166.69 23.5365 164.506 26.0048 164.506H58.1279C60.5962 164.506 62.4895 166.69 62.1413 169.133L58.1201 197.053C57.8345 199.046 56.1251 200.527 54.1066 200.527Z" fill="#7099ED" stroke="#262626" stroke-width="0.99" stroke-miterlimit="10"/>
<path d="M30.0229 198.181C29.1819 198.181 28.4543 197.552 28.3331 196.72L24.3118 168.8C24.214 168.127 24.5191 167.658 24.7108 167.44C24.9025 167.221 25.321 166.85 26.0017 166.85H58.1248C58.8015 166.85 59.224 167.217 59.4156 167.44C59.6073 167.658 59.9124 168.127 59.8146 168.8L55.7934 196.72C55.6721 197.552 54.9484 198.181 54.1035 198.181H30.0229Z" fill="#7099ED" stroke="#262626" stroke-width="0.99" stroke-miterlimit="10"/>
<path d="M24.5039 170.406H59.4786" stroke="#262626" stroke-width="0.99" stroke-miterlimit="10"/>
<path d="M25.0977 174.498H58.9067" stroke="#262626" stroke-width="0.99" stroke-miterlimit="10"/>
<path d="M25.6875 178.586H58.3348" stroke="#262626" stroke-width="0.99" stroke-miterlimit="10"/>
<path d="M26.2852 182.672H57.7667" stroke="#262626" stroke-width="0.99" stroke-miterlimit="10"/>
<path d="M26.8789 186.76H57.1948" stroke="#262626" stroke-width="0.99" stroke-miterlimit="10"/>
<path d="M27.4688 190.848H56.6228" stroke="#262626" stroke-width="0.99" stroke-miterlimit="10"/>
<path d="M28.0625 194.936H56.0509" stroke="#262626" stroke-width="0.99" stroke-miterlimit="10"/>
<path d="M42 185C44.7614 185 47 181.418 47 177C47 172.582 44.7614 169 42 169C39.2386 169 37 172.582 37 177C37 181.418 39.2386 185 42 185Z" fill="#FF8B63" stroke="#262626" stroke-width="0.99" stroke-miterlimit="10"/>
<path d="M158.901 88.3098L136.694 112.709C133.659 116.047 131.98 120.349 131.98 124.808V169.211H149.352L159.374 176.323L166.357 187.237L169.952 203.845H188.622C193.152 203.845 196.825 200.175 196.825 195.65V89.8299C196.825 87.2273 194.658 85.1133 191.986 85.1133H166.188C163.403 85.1133 160.747 86.2778 158.897 88.3098H158.901Z" fill="white" stroke="#262626" stroke-width="0.99" stroke-miterlimit="10"/>
<path d="M202.779 202.281C200.463 204.993 197.017 206.712 193.168 206.712H169.236C167.084 206.712 165.281 205.091 165.058 202.953L163.853 191.496C163.227 185.54 160.403 180.3 156.237 176.553C152.067 172.801 146.556 170.539 140.559 170.539C131.84 170.539 124.145 175.326 120.112 182.516H115.215C115.543 181.781 115.907 181.062 116.302 180.355C121.231 171.566 130.549 166.107 140.618 166.107C147.518 166.107 154.14 168.647 159.265 173.259C164.385 177.866 167.605 184.18 168.324 191.035L169.506 202.281H202.779Z" fill="#7099ED" stroke="#262626" stroke-width="0.99" stroke-miterlimit="10"/>
<path d="M188.421 93.9646V121.713C188.421 124.265 186.297 126.34 183.672 126.34H146.514C143.89 126.34 141.766 124.265 141.766 121.713V117.911C141.766 116.766 142.2 115.664 142.982 114.816L144.715 112.94L165.111 90.8697C166.014 89.8967 167.294 89.3379 168.639 89.3379H183.672C186.297 89.3379 188.421 91.4129 188.421 93.9646Z" fill="#262626" stroke="#262626" stroke-width="0.99" stroke-miterlimit="10"/>
<path d="M196.832 126.879H198.753C199.758 126.879 200.572 127.692 200.572 128.696V136.195C200.572 137.199 199.758 138.012 198.753 138.012H196.832" stroke="#262626" stroke-width="0.99" stroke-miterlimit="10"/>
<path d="M205.796 159.629H113.17C110.885 159.629 109.035 158.324 109.035 156.71C109.035 155.1 110.885 153.791 113.17 153.791H205.796" stroke="#262626" stroke-width="0.99" stroke-miterlimit="10"/>
<path d="M172.637 179.832C172.637 179.832 205.796 180.203 205.796 179.832" stroke="#262626" stroke-width="0.99" stroke-miterlimit="10"/>
<path d="M67.1992 156.343C72.1084 156.343 76.7869 154.245 80.0492 150.576L102.088 125.785" stroke="#262626" stroke-width="0.99" stroke-miterlimit="10"/>
<path d="M42.9107 126.328L23.5594 147.981C20.6686 151.216 22.9687 156.343 27.3068 156.343" stroke="#262626" stroke-width="0.99" stroke-miterlimit="10"/>
<path d="M194.148 155.299H180.531V156.709H194.148V155.299Z" fill="#262626"/>
<path d="M150.195 126.339H146.514C143.89 126.339 141.766 124.264 141.766 121.712V117.91C141.766 116.765 142.2 115.663 142.982 114.815L144.715 112.939L150.195 126.339Z" fill="#7099ED" stroke="#262626" stroke-width="0.99" stroke-miterlimit="10"/>
<path d="M150.407 119.584H146.28C145.056 119.584 144.062 120.576 144.062 121.8V122.831C144.062 124.055 145.056 125.047 146.28 125.047H150.407C151.632 125.047 152.625 124.055 152.625 122.831V121.8C152.625 120.576 151.632 119.584 150.407 119.584Z" fill="#7099ED" stroke="#262626" stroke-width="0.99" stroke-miterlimit="10"/>
<path d="M177.227 85.1133H205.594" stroke="#262626" stroke-width="0.99" stroke-miterlimit="10"/>
<path d="M255.84 193.846H216.379" stroke="#262626" stroke-width="0.99" stroke-miterlimit="10"/>
<path d="M255.84 196.213H216.379" stroke="#262626" stroke-width="0.99" stroke-miterlimit="10"/>
<path d="M224.737 182.219H222.633C225.215 182.219 227.327 184.329 227.327 186.908V201.831C227.327 204.411 225.215 206.521 222.633 206.521H224.737C227.319 206.521 229.431 204.411 229.431 201.831V186.908C229.431 184.329 227.319 182.219 224.737 182.219Z" fill="white" stroke="#262626" stroke-width="0.99" stroke-miterlimit="10"/>
<path d="M245.937 182.219H243.832C246.414 182.219 248.526 184.329 248.526 186.908V201.831C248.526 204.411 246.414 206.521 243.832 206.521H245.937C248.518 206.521 250.631 204.411 250.631 201.831V186.908C250.631 184.329 248.518 182.219 245.937 182.219Z" fill="white" stroke="#262626" stroke-width="0.99" stroke-miterlimit="10"/>
<path d="M159.456 109.588H156.671C154.035 109.588 151.898 111.722 151.898 114.355V128.822C151.898 131.454 154.035 133.589 156.671 133.589H159.456C162.092 133.589 164.228 131.454 164.228 128.822V114.355C164.228 111.722 162.092 109.588 159.456 109.588Z" fill="#7099ED" stroke="#262626" stroke-width="0.99" stroke-miterlimit="10"/>
<path d="M160.877 114.351V128.822C160.877 131.025 159.375 132.882 157.337 133.425C156.945 133.53 156.535 133.585 156.108 133.585H153.323C150.687 133.585 148.551 131.451 148.551 128.822V114.351C148.551 111.721 150.687 109.584 153.323 109.584H156.108C158.741 109.584 160.877 111.721 160.877 114.351Z" fill="#7099ED" stroke="#262626" stroke-width="0.99" stroke-miterlimit="10"/>
<path d="M160.876 122.965V128.822C160.876 131.026 159.374 132.883 157.336 133.426V125.204C157.336 123.973 158.345 122.965 159.581 122.965H160.876Z" fill="white" stroke="#262626" stroke-width="0.99" stroke-miterlimit="10"/>
<path d="M107.938 203.842H71.1166C68.2806 203.842 65.9844 201.548 65.9844 198.715C65.9844 195.882 68.2806 193.588 71.1166 193.588H112.432L111.787 200.348C111.599 202.329 109.933 203.846 107.938 203.846V203.842Z" stroke="#262626" stroke-width="0.99" stroke-miterlimit="10"/>
<path d="M70.0701 201.883C71.5435 201.883 72.7379 200.464 72.7379 198.714C72.7379 196.964 71.5435 195.545 70.0701 195.545C68.5968 195.545 67.4023 196.964 67.4023 198.714C67.4023 200.464 68.5968 201.883 70.0701 201.883Z" fill="white" stroke="#262626" stroke-width="0.99" stroke-miterlimit="10"/>
<path d="M0.195312 203.842H14.5944C17.4304 203.842 19.7266 201.548 19.7266 198.715C19.7266 195.882 17.4304 193.588 14.5944 193.588H0.195312" stroke="#262626" stroke-width="0.99" stroke-miterlimit="10"/>
<path d="M15.6365 201.883C17.1099 201.883 18.3043 200.464 18.3043 198.714C18.3043 196.964 17.1099 195.545 15.6365 195.545C14.1632 195.545 12.9688 196.964 12.9688 198.714C12.9688 200.464 14.1632 201.883 15.6365 201.883Z" fill="white" stroke="#262626" stroke-width="0.99" stroke-miterlimit="10"/>
<path d="M76.3075 184.818H75.31C74.7419 184.818 74.2812 185.278 74.2812 185.846V189.82C74.2812 190.388 74.7419 190.848 75.31 190.848H76.3075C76.8757 190.848 77.3363 190.388 77.3363 189.82V185.846C77.3363 185.278 76.8757 184.818 76.3075 184.818Z" fill="#262626" stroke="#262626" stroke-width="0.99" stroke-miterlimit="10"/>
<path d="M76.4137 190.254H74.008C72.7758 190.254 71.6766 189.371 71.5201 188.151C71.3324 186.674 72.4824 185.412 73.9219 185.412H76.4098C76.9183 185.412 77.3291 185.822 77.3291 186.33C77.3291 186.838 76.9183 187.249 76.4098 187.249H73.9532C73.6638 187.249 73.3939 187.448 73.3469 187.733C73.2882 188.097 73.5699 188.413 73.9219 188.413H76.4098C76.9183 188.413 77.3291 188.824 77.3291 189.332C77.3291 189.84 76.9183 190.25 76.4098 190.25L76.4137 190.254Z" fill="white" stroke="#262626" stroke-width="0.99" stroke-miterlimit="10"/>
<path d="M11.8466 184.818H10.8491C10.2809 184.818 9.82031 185.278 9.82031 185.846V189.82C9.82031 190.388 10.2809 190.848 10.8491 190.848H11.8466C12.4148 190.848 12.8754 190.388 12.8754 189.82V185.846C12.8754 185.278 12.4148 184.818 11.8466 184.818Z" fill="#262626" stroke="#262626" stroke-width="0.99" stroke-miterlimit="10"/>
<path d="M11.9567 190.254H9.55097C8.31878 190.254 7.21958 189.371 7.06311 188.151C6.87535 186.674 8.0254 185.412 9.46491 185.412H11.9528C12.4613 185.412 12.872 185.822 12.872 186.33C12.872 186.838 12.4613 187.249 11.9528 187.249H9.4962C9.20674 187.249 8.93683 187.448 8.88989 187.733C8.83121 188.097 9.11286 188.413 9.46491 188.413H11.9528C12.4613 188.413 12.872 188.824 12.872 189.332C12.872 189.84 12.4613 190.25 11.9528 190.25L11.9567 190.254Z" fill="white" stroke="#262626" stroke-width="0.99" stroke-miterlimit="10"/>
<path d="M309.282 168.965H205.797V175.479H309.282V168.965Z" fill="#7099ED" stroke="#262626" stroke-width="0.99" stroke-miterlimit="10"/>
<path d="M316.892 146.023H215.152V150.455H316.892V146.023Z" fill="white" stroke="#262626" stroke-width="0.99" stroke-miterlimit="10"/>
<path d="M216.635 146.023H215.152V150.455H216.635V146.023Z" fill="white" stroke="#262626" stroke-width="0.99" stroke-miterlimit="10"/>
<path d="M316.892 156.002H215.152V160.433H316.892V156.002Z" fill="white" stroke="#262626" stroke-width="0.99" stroke-miterlimit="10"/>
<path d="M216.635 156.002H215.152V160.433H216.635V156.002Z" fill="white" stroke="#262626" stroke-width="0.99" stroke-miterlimit="10"/>
<path d="M83.1914 182.516V185.431C83.1914 186.791 84.2945 187.893 85.6558 187.893H117.701" stroke="#262626" stroke-width="0.99" stroke-miterlimit="10"/>
<path d="M5.91034 182.516V185.431C5.91034 186.791 4.80724 187.893 3.44596 187.893H0.195312" stroke="#262626" stroke-width="0.99" stroke-miterlimit="10"/>
<path d="M113.804 123.683C111.762 125.727 108.98 126.879 106.074 126.879H79.9398L55.9844 105.063L70.9702 88.6855L113.804 123.683Z" fill="white" stroke="#262626" stroke-width="0.99" stroke-miterlimit="10"/>
<path d="M123.929 112.647L119.908 117.039L82.4648 85.1133H90.2335L123.929 112.647Z" fill="white" stroke="#262626" stroke-width="0.99" stroke-miterlimit="10"/>
<path d="M163.746 92.3457L188.421 112.22V122.126L158.477 98.047L163.746 92.3457Z" fill="white" stroke="#262626" stroke-width="0.99" stroke-miterlimit="10"/>
<path d="M221.778 168.965H218.184V174.017H221.778V168.965Z" fill="#7099ED" stroke="#262626" stroke-width="0.99" stroke-miterlimit="10"/>
<path d="M222.876 168.965H219.281V174.017H222.876V168.965Z" fill="#7099ED" stroke="#262626" stroke-width="0.99" stroke-miterlimit="10"/>
<path d="M260.845 168.965H257.25V174.017H260.845V168.965Z" fill="#7099ED" stroke="#262626" stroke-width="0.99" stroke-miterlimit="10"/>
<path d="M261.943 168.965H258.348V174.017H261.943V168.965Z" fill="#7099ED" stroke="#262626" stroke-width="0.99" stroke-miterlimit="10"/>
<path d="M295.372 168.965H291.777V174.017H295.372V168.965Z" fill="#7099ED" stroke="#262626" stroke-width="0.99" stroke-miterlimit="10"/>
<path d="M296.47 168.965H292.875V174.017H296.47V168.965Z" fill="#7099ED" stroke="#262626" stroke-width="0.99" stroke-miterlimit="10"/>
<path d="M52.1562 134.535L53.541 133.046C55.223 131.237 57.5857 130.205 60.0618 130.205H71.6484C73.9641 130.205 75.122 132.999 73.4869 134.636L72.3916 135.731" stroke="#262626" stroke-width="0.99" stroke-miterlimit="10"/>
<path d="M170.417 89.3418H168.352V126.34H170.417V89.3418Z" fill="white" stroke="#262626" stroke-width="0.99" stroke-miterlimit="10"/>
</g>
<defs>
<clipPath id="clip0_1859_20182">
<rect width="321" height="233" fill="white"/>
</clipPath>
</defs>
</svg>
