<svg width="384" height="240" viewBox="0 0 384 240" fill="none" xmlns="http://www.w3.org/2000/svg">
<g clip-path="url(#clip0_1091_23217)">
<rect width="384" height="240" rx="32" fill="white"/>
<path d="M43.6504 50L37.1074 43.1836L39.0801 41.7773L46.9805 50H43.6504ZM34.9688 41.6211H37.6348L43.5527 35.7812H46.4922L38.2012 43.7305H34.9688V41.6211ZM33.6113 50V35.7812H36.3262V50H33.6113ZM49.8027 35.7812H61.2188V50H58.5137V37.8711H52.0879L51.7266 44.5898C51.6354 46.4518 51.3327 47.8646 50.8184 48.8281C50.304 49.7917 49.3275 50.2734 47.8887 50.2734C47.6673 50.2734 47.4557 50.2572 47.2539 50.2246C47.0521 50.1986 46.8535 50.1497 46.6582 50.0781V47.7734C46.8079 47.8255 46.9479 47.8613 47.0781 47.8809C47.2148 47.9004 47.3548 47.9102 47.498 47.9102C48.1426 47.9102 48.5951 47.6367 48.8555 47.0898C49.1159 46.543 49.2819 45.5924 49.3535 44.2383L49.8027 35.7812ZM77.8203 50H75.1641V40.4785C75.1641 40.2702 75.1673 40.0423 75.1738 39.7949C75.1803 39.541 75.1901 39.3132 75.2031 39.1113H75.0859C74.9883 39.3066 74.8906 39.4987 74.793 39.6875C74.7018 39.8763 74.5716 40.0814 74.4023 40.3027L67.4004 50H64.5293V35.7812H67.1953V45.293C67.1953 45.4948 67.1888 45.7194 67.1758 45.9668C67.1693 46.2142 67.1628 46.4421 67.1562 46.6504H67.293C67.3646 46.4876 67.4525 46.3021 67.5566 46.0938C67.6673 45.8854 67.7943 45.6803 67.9375 45.4785L74.9492 35.7812H77.8203V50ZM81.0527 50V35.7812H83.7676V41.6113H91.502V35.7812H94.207V50H91.502V43.7207H83.7676V50H81.0527ZM110.73 50H108.074V40.4785C108.074 40.2702 108.077 40.0423 108.084 39.7949C108.09 39.541 108.1 39.3132 108.113 39.1113H107.996C107.898 39.3066 107.801 39.4987 107.703 39.6875C107.612 39.8763 107.482 40.0814 107.312 40.3027L100.311 50H97.4395V35.7812H100.105V45.293C100.105 45.4948 100.099 45.7194 100.086 45.9668C100.079 46.2142 100.073 46.4421 100.066 46.6504H100.203C100.275 46.4876 100.363 46.3021 100.467 46.0938C100.577 45.8854 100.704 45.6803 100.848 45.4785L107.859 35.7812H110.73V50ZM113.963 50V35.7812H116.678V41.6113H124.412V35.7812H127.117V50H124.412V43.7207H116.678V50H113.963ZM130.35 50V35.7812H140.506V37.8711H133.064V50H130.35Z" fill="#262626"/>
<g clip-path="url(#clip1_1091_23217)">
<path d="M380.591 232.408H372.121C373.38 231.204 374.39 229.865 375.108 228.418H380.591C380.991 228.418 381.32 228.742 381.32 229.141V231.679C381.32 232.078 380.991 232.408 380.591 232.408Z" fill="#262626"/>
<path d="M370.171 232.408H367.043C368.944 231.301 370.473 229.946 371.553 228.418H375.108C374.389 229.865 373.379 231.204 372.121 232.408C371.699 232.813 371.256 233.196 370.781 233.568L370.171 232.408Z" fill="#262626"/>
<path d="M372.946 228.417H371.552C372.157 227.564 372.622 226.652 372.924 225.702C374.194 221.733 372.557 217.512 371.05 214.774C370.656 214.062 370.877 213.171 371.569 212.734C371.822 212.572 372.103 212.496 372.384 212.496C372.924 212.496 373.448 212.782 373.729 213.295C375.512 216.529 377.451 221.615 375.841 226.63C375.647 227.24 375.404 227.839 375.107 228.417H372.946Z" fill="#262626"/>
<path d="M350.539 228.418V202.865H380.054V228.418H375.106C375.403 227.84 375.647 227.241 375.841 226.631C377.451 221.615 375.512 216.53 373.729 213.296C373.448 212.783 372.924 212.497 372.384 212.497C372.103 212.497 371.822 212.572 371.568 212.734C370.877 213.172 370.655 214.062 371.05 214.775C372.557 217.512 374.193 221.734 372.924 225.702C372.622 226.652 372.157 227.565 371.552 228.418H350.539Z" fill="#7099ED"/>
<path d="M367.042 232.408H350.096C349.697 232.408 349.367 232.078 349.367 231.679V229.141C349.367 228.742 349.697 228.418 350.096 228.418H371.552C370.472 229.946 368.943 231.301 367.042 232.408Z" fill="#262626"/>
<path d="M380.054 232.494C381.534 232.494 382.728 233.687 382.728 235.167C382.728 236.646 381.534 237.844 380.054 237.844C378.574 237.844 377.375 236.646 377.375 235.167C377.375 233.687 378.574 232.494 380.054 232.494Z" fill="#262626"/>
<path d="M349.367 197.347C349.367 189.2 355.974 182.598 364.125 182.598H366.561C374.707 182.598 381.319 189.2 381.319 197.347V198.875H349.367V197.347Z" fill="#7099ED"/>
<path d="M380.055 202.865H350.096C349.697 202.865 349.367 202.541 349.367 202.141V199.604C349.367 199.204 349.697 198.875 350.096 198.875H380.59C380.989 198.875 381.319 199.204 381.319 199.604V202.141C381.319 202.541 380.989 202.865 380.59 202.865H380.055Z" fill="#262626"/>
<path d="M353.792 235.415C351.934 235.296 350.162 234.945 348.574 234.378C348.909 233.282 349.925 232.494 351.129 232.494C352.609 232.494 353.809 233.687 353.809 235.167C353.809 235.248 353.803 235.334 353.792 235.415Z" fill="#262626"/>
<path d="M348.572 234.379C350.16 234.946 351.932 235.297 353.79 235.415C353.671 236.776 352.526 237.845 351.127 237.845C350.943 237.845 350.76 237.823 350.587 237.791C349.366 237.543 348.453 236.463 348.453 235.167C348.453 234.892 348.496 234.627 348.572 234.379Z" fill="#262626"/>
<path d="M351.129 237.845C352.528 237.845 353.674 236.776 353.792 235.415C356.731 235.61 359.891 235.232 362.889 234.255C364.418 233.758 365.806 233.132 367.043 232.408H370.171L370.781 233.569C368.863 235.064 366.519 236.29 363.84 237.165C361.009 238.088 358.081 238.541 355.267 238.541C353.641 238.541 352.048 238.39 350.535 238.088L350.589 237.791C350.762 237.823 350.946 237.845 351.129 237.845Z" fill="#262626"/>
<path d="M332.829 87.8928C331.878 87.8928 330.555 87.7579 329.226 87.0776C323.214 83.9841 323.765 73.111 323.846 71.5345C324.208 64.7105 327.157 59.5384 329.512 55.4084C331.095 52.6334 332.667 50.4739 333.828 49C341.229 53.5026 344.756 69.456 350.871 89.4207C350.914 89.5611 350.968 89.7392 350.99 89.7986C349.845 91.3643 348.37 93.1351 346.501 94.9221C343.994 97.3191 341.515 99.0359 339.462 100.251H339.457C338.971 97.4487 337.053 94.0637 335.389 91.9311C334.179 90.3871 332.937 89.2695 331.97 88.5137C332.267 88.287 332.559 88.0818 332.829 87.8928Z" fill="#7099ED"/>
<path d="M348.457 235.167C348.457 236.463 349.37 237.543 350.591 237.791L350.537 238.088C347.82 237.559 345.351 236.549 343.352 235.091C340.403 232.937 338.35 229.79 337.065 225.46C333.85 214.592 337.994 206.062 342.79 196.188C345.648 190.298 348.889 183.625 350.893 175.608C356.192 154.347 353.81 136.709 344.184 125.95C342.32 123.866 340.181 122.014 337.832 120.411C332.754 116.934 326.709 114.634 320.465 113.754C320.621 113.279 320.811 112.76 321.07 112.221C321.318 111.708 321.605 111.243 321.907 110.822C327.536 111.729 332.948 113.716 337.729 116.653C340.975 118.65 343.93 121.08 346.464 123.909C356.792 135.452 359.417 154.072 353.864 176.347C351.784 184.672 348.473 191.502 345.545 197.521C340.84 207.212 337.124 214.862 340.003 224.591C341.089 228.251 342.774 230.88 345.162 232.619C346.15 233.342 347.306 233.931 348.576 234.379C348.5 234.627 348.457 234.892 348.457 235.167Z" fill="#262626"/>
<path d="M319.456 99.5326C325.118 94.1554 329.655 90.2413 331.967 88.5137C332.934 89.2695 334.176 90.3871 335.386 91.9311C337.05 94.0636 338.968 97.4487 339.454 100.251C339.702 101.649 339.589 102.901 338.908 103.787C338.692 104.073 338.492 104.219 337.417 104.505C336.44 104.764 334.744 105.131 331.643 105.817C327.278 106.783 326.76 106.913 325.874 107.415C325.139 107.836 323.303 108.883 321.903 110.821C321.601 111.243 321.315 111.707 321.066 112.22C320.807 112.76 320.618 113.278 320.461 113.753C320.056 114.946 319.818 115.864 318.997 116.101C318.414 116.269 318.246 115.886 316.901 115.772C315.897 115.686 315.146 115.832 313.909 116.069C313.18 116.209 312.223 116.431 311.132 116.814C310.711 117.64 310.16 118.482 309.636 118.418C308.869 118.326 308.329 116.344 308.156 113.904C308.091 112.911 308.08 111.842 308.145 110.794C308.167 110.411 308.199 110.033 308.242 109.661C308.529 107.161 308.999 103.009 312.094 101.012C313.369 100.18 314.714 99.9699 316.259 99.7269C317.425 99.5434 318.506 99.5002 319.456 99.5326Z" fill="#FF8B63"/>
<path d="M337.42 104.506C337.512 108.544 337.615 112.588 337.728 116.653C332.948 113.716 327.535 111.729 321.906 110.822C323.305 108.884 325.142 107.837 325.877 107.416C326.762 106.914 327.281 106.784 331.646 105.818C334.746 105.132 336.442 104.765 337.42 104.506Z" fill="white"/>
<path d="M335.776 28.793C337.18 29.6676 337.829 32.5721 337.24 35.8114C336.57 39.488 334.555 42.2035 332.735 41.8742C330.914 41.5449 329.985 38.2948 330.655 34.6129C330.941 33.0472 331.471 31.6543 332.124 30.6016C332.384 31.0119 332.713 31.2818 333.107 31.352C334.074 31.5248 335.128 30.4558 335.776 28.793Z" fill="#262626"/>
<path d="M335.161 28.5504C335.382 28.5882 335.588 28.6746 335.777 28.7934C335.128 30.4562 334.075 31.5252 333.108 31.3524C332.714 31.2822 332.384 31.0123 332.125 30.602C333.005 29.1767 334.113 28.3615 335.161 28.5504Z" fill="#262626"/>
<path d="M333.08 11.9707C334.971 12.3162 335.943 15.7013 335.247 19.529C335.079 20.4468 334.831 21.3106 334.523 22.088C333.453 22.1312 332.34 23.5997 331.816 25.6296C331.395 25.8402 330.974 25.9158 330.558 25.8402C330.293 25.7916 330.05 25.689 329.823 25.5325C330.482 22.5361 330.158 19.3886 328.797 16.6245C329.721 13.6713 331.476 11.6846 333.08 11.9707Z" fill="#262626"/>
<path d="M334.788 22.1042C336.052 22.3309 336.7 24.5876 336.235 27.1412C336.127 27.7351 335.971 28.2912 335.776 28.7933C335.587 28.6745 335.382 28.5881 335.16 28.5503C334.112 28.3613 333.005 29.1766 332.125 30.6018C331.547 29.6894 331.341 28.0698 331.665 26.3098C331.709 26.0777 331.757 25.8509 331.817 25.6296C332.843 25.1221 333.831 23.8264 334.523 22.088C334.609 22.0826 334.701 22.088 334.788 22.1042Z" fill="#262626"/>
<path d="M334.523 22.0879C333.831 23.8263 332.843 25.122 331.816 25.6295C332.34 23.5995 333.453 22.1311 334.523 22.0879Z" fill="#262626"/>
<path d="M331.289 240.057C331.77 243.539 331.937 244.246 331.451 245.035C330.511 246.552 328.172 246.622 323.526 246.697C318.297 246.784 315.661 246.795 314.711 245.256C313.836 243.841 314.808 241.563 315.672 239.436C316.023 238.578 316.51 237.622 317.439 235.808C317.638 235.408 317.833 235.036 318.006 234.707C318.578 233.999 320.172 232.256 322.808 231.689C325.568 231.1 329.133 231.872 330.079 233.654C330.214 233.897 330.354 234.28 330.554 234.269H330.56C330.716 235.641 330.954 237.638 331.289 240.057Z" fill="white"/>
<path d="M328.799 16.623C330.16 19.3872 330.485 22.5347 329.826 25.531C328.427 24.5539 327.795 21.5845 328.394 18.2859C328.502 17.7082 328.637 17.1467 328.799 16.623Z" fill="#262626"/>
<path d="M303.754 20.2085C303.63 19.4527 303.543 18.3351 303.851 17.0826C304.953 12.5854 310.166 10.0912 313.764 9.47574C318.539 8.66052 324.983 10.1992 328.273 15.6573C328.462 15.9759 328.64 16.2944 328.797 16.6237C328.635 17.1474 328.5 17.7089 328.392 18.2866C327.792 21.5852 328.424 24.5545 329.823 25.5317C329.24 28.1933 327.884 30.7254 325.783 32.7661C325.448 31.9239 325.118 31.0817 324.783 30.2395C326.328 29.0139 327.09 27.1945 326.69 25.5641C326.431 24.5329 325.534 22.8539 323.989 22.7891C322.725 22.7406 321.834 23.8041 321.693 23.9769C321.531 23.5234 320.046 19.4959 315.708 18.1138C310.884 16.5805 307.022 19.7334 306.785 19.9386C306.757 19.8846 306.358 19.0802 305.515 18.9884C304.775 18.902 304.019 19.3987 303.754 20.2085Z" fill="#262626"/>
<path d="M331.077 231.09C331.644 232.51 330.99 234.243 330.558 234.27H330.553C330.353 234.281 330.213 233.898 330.078 233.655C329.132 231.873 325.567 231.101 322.807 231.69C320.171 232.256 318.577 234 318.005 234.702C318.01 234.427 318.021 234.146 318.026 233.86C318.242 224.855 318.28 209.657 318.113 200.468C318.096 199.437 318.075 198.411 318.048 197.386C317.934 192.543 317.767 187.781 317.551 183.111C318.118 183.155 318.685 183.198 319.252 183.236C323.125 183.505 326.885 183.662 330.504 183.721C330.693 189.655 330.834 195.663 330.931 201.748C331.055 209.414 331.104 223.662 331.077 231.09Z" fill="#7099ED"/>
<path d="M312.085 27.6319C312.242 28.3121 311.988 28.9546 311.518 29.0571C311.048 29.1651 310.54 28.6954 310.384 28.0152C310.232 27.3295 310.486 26.6925 310.956 26.5845C311.426 26.4819 311.934 26.9462 312.085 27.6319Z" fill="#262626"/>
<path d="M311.935 57.1197C313.221 58.6368 319.79 55.6783 331.63 48.2441C330.674 49.0917 329.707 50.0581 328.762 51.1379C324.16 56.3909 322.074 62.1028 321.07 66.1951C317.688 66.3139 313.561 66.7782 308.997 68.0091C306.555 68.6731 304.362 69.456 302.434 70.2604C302.941 68.0793 303.795 65.4501 305.259 62.6697C307.506 58.3993 310.39 55.3004 312.929 53.1408C311.752 55.1816 311.417 56.5097 311.935 57.1197Z" fill="#7099ED"/>
<path d="M329.225 87.0772C330.553 87.7575 331.877 87.8924 332.828 87.8924C332.557 88.0814 332.266 88.2865 331.969 88.5133C329.657 90.2409 325.119 94.155 319.458 99.5322C318.507 99.4998 317.427 99.543 316.26 99.7266C314.715 99.9695 313.37 100.18 312.096 101.011C309 103.009 308.53 107.161 308.244 109.66C308.201 110.033 308.168 110.411 308.147 110.794C307.693 110.87 307.234 110.951 306.78 111.042C304.501 111.485 302.362 112.101 300.368 112.84C300.676 111.809 300.984 110.783 301.297 109.763C302.313 106.421 303.345 103.122 304.393 99.8615C304.031 98.0529 302.037 88.13 301.729 86.5913C300.709 81.5111 299.996 77.9965 299.655 75.6264V75.6156C299.455 74.1957 299.391 73.1861 299.482 72.4951C300.779 62.6963 308.028 56.18 309.422 54.9814C312.058 52.7247 314.629 51.3319 316.466 50.495C315.477 51.1429 314.245 52.0121 312.927 53.1351C310.389 55.3 307.504 58.3989 305.257 62.6693C303.793 65.4497 302.939 68.0789 302.432 70.26C304.36 69.4556 306.553 68.6728 308.995 68.0087C313.559 66.7778 317.686 66.3135 321.068 66.1947C322.073 62.1024 324.158 56.3905 328.76 51.1375C329.705 50.0577 330.672 49.0914 331.628 48.2438C331.709 48.1736 331.785 48.1034 331.866 48.0332C332.25 48.2276 332.574 48.3571 332.822 48.4705C333.162 48.6217 333.497 48.7998 333.827 48.9996C332.666 50.4735 331.094 52.633 329.511 55.4079C327.156 59.538 324.206 64.71 323.844 71.5341C323.763 73.1106 323.212 83.9837 329.225 87.0772Z" fill="white"/>
<path d="M308.159 113.905C308.331 116.345 308.872 118.327 309.639 118.418C310.163 118.483 310.714 117.641 311.135 116.815C312.226 116.432 313.182 116.21 313.911 116.07C315.148 115.832 315.899 115.687 316.904 115.773C318.249 115.886 318.417 116.27 319 116.102C319.821 115.865 320.059 114.947 320.464 113.754C326.708 114.634 332.753 116.934 337.831 120.411C338.128 130.722 338.484 141.131 338.911 151.626C339.348 162.413 339.851 173.092 340.407 183.663C337.231 183.755 333.93 183.782 330.506 183.722C326.887 183.663 323.127 183.506 319.254 183.236C318.687 183.198 318.119 183.155 317.552 183.107C311.805 182.664 306.327 182.011 301.152 181.212C296.588 180.51 292.256 179.689 288.172 178.798C286.821 178.507 285.503 178.205 284.207 177.897C285.741 170.15 287.448 162.246 289.333 154.191C292.077 142.492 295.043 131.208 298.165 120.357C298.527 119.093 298.889 117.835 299.256 116.588C301.698 115.514 304.399 114.623 307.364 114.045C307.613 113.997 307.861 113.954 308.105 113.91H308.159V113.905Z" fill="white"/>
<path d="M306.212 29.2777C306.369 29.9579 306.11 30.6004 305.64 30.7029C305.17 30.8109 304.662 30.3412 304.511 29.661C304.354 28.9753 304.613 28.3383 305.083 28.2303C305.553 28.1223 306.055 28.592 306.212 29.2777Z" fill="#262626"/>
<path d="M305.084 28.2316C304.614 28.3396 304.355 28.9767 304.512 29.6623C304.663 30.3425 305.171 30.8122 305.641 30.7043C306.11 30.6017 306.37 29.9592 306.213 29.279C306.056 28.5933 305.554 28.1236 305.084 28.2316ZM330.791 47.4027C331.191 47.6726 331.553 47.8778 331.866 48.0344C331.785 48.1045 331.71 48.1747 331.629 48.2449C319.788 55.679 313.219 58.6376 311.934 57.1205C311.415 56.5104 311.75 55.1824 312.928 53.1416C314.246 52.0133 315.477 51.1441 316.466 50.4962C316.422 49.2275 316.239 47.6133 315.726 45.7993C315.272 44.2174 314.678 42.9055 314.138 41.8959C314.04 41.9013 313.943 41.8959 313.846 41.8905C307.672 41.518 304.047 32.7342 303.377 26.9899C303.064 24.3013 303.361 21.9636 303.755 20.209C304.02 19.3992 304.776 18.9025 305.516 18.9889C306.359 19.0807 306.759 19.8851 306.786 19.9391C307.023 19.7339 310.886 16.581 315.709 18.1143C320.047 19.4964 321.533 23.5239 321.695 23.9774C321.835 23.8046 322.726 22.7411 323.99 22.7896C325.535 22.8544 326.432 24.5335 326.691 25.5646C327.091 27.1951 326.329 29.0144 324.784 30.24C325.119 31.0822 325.449 31.9244 325.784 32.7666C325.389 34.3161 325.33 35.5902 325.341 36.4054C325.389 40.4059 327.183 44.9517 330.791 47.4027ZM311.518 29.0576C311.988 28.9551 312.242 28.3126 312.085 27.6324C311.934 26.9467 311.426 26.4824 310.956 26.585C310.486 26.693 310.232 27.33 310.383 28.0157C310.54 28.6959 311.048 29.1656 311.518 29.0576Z" fill="white"/>
<path d="M299.653 75.627C299.994 77.997 300.707 81.5116 301.728 86.5919C302.036 88.1305 304.029 98.0535 304.391 99.8621C303.343 103.123 302.311 106.422 301.296 109.763C300.961 110.422 300.453 111.259 299.697 112.117C298.951 112.965 298.195 113.57 297.59 113.98C296.601 114.428 295.651 114.909 294.743 115.4C293.463 113.775 292.177 112.031 290.908 110.168C290.481 109.537 290.065 108.91 289.665 108.29L289.59 108.236C291.567 105.304 293.441 101.957 294.889 98.3396C296.85 93.4375 297.946 88.2925 298.308 86.4839C299.167 82.2027 299.513 78.4829 299.653 75.627Z" fill="#7099ED"/>
<path d="M287.117 124.799C289.343 122.651 292.346 120.216 296.111 118.143C296.343 118.753 296.581 119.357 296.813 119.967C293.583 121.576 290.353 123.185 287.117 124.799Z" fill="#FF8B63"/>
<path d="M290.726 233.643C290.883 235.868 290.769 237.86 290.548 239.55C290.186 239.609 289.657 239.695 289.014 239.782C287.237 240.025 285.875 240.111 285.114 240.154C281.089 240.403 279.08 240.521 277.108 240.559C269.162 240.705 262.026 240.835 261.394 238.562C261.184 237.817 261.74 237.061 261.983 236.737C263.474 234.707 266.883 235.128 268.924 235.031C271.712 234.896 275.623 233.627 280.376 228.434C282.051 228.887 284.514 229.368 287.836 230.437C289.127 230.852 289.883 231.144 290.407 230.976C290.548 231.802 290.656 232.693 290.726 233.643Z" fill="white"/>
<path d="M285.951 128.346C285.789 129.021 285.173 129.307 285.098 129.345L284.93 129.355C284.909 128.837 284.666 128.303 284.223 127.876L284.541 127.514C284.763 127.261 284.995 126.996 285.249 126.721C285.811 127.093 286.092 127.746 285.951 128.346Z" fill="white"/>
<path d="M285.25 126.721C284.997 126.997 284.764 127.261 284.543 127.515L284.224 127.877L283.203 129.054C283.279 128.865 283.349 128.681 283.408 128.508C283.986 126.786 283.9 125.15 283.641 123.892L283.716 123.876C286.207 121.279 289.885 118.062 294.747 115.4C295.654 114.909 296.605 114.428 297.593 113.98C298.485 113.575 299.408 113.197 300.37 112.841C302.363 112.101 304.502 111.486 306.782 111.043C307.236 110.951 307.695 110.871 308.149 110.795C308.084 111.842 308.095 112.911 308.159 113.905H308.105C307.862 113.953 307.614 113.996 307.365 114.045C304.4 114.623 301.699 115.513 299.257 116.588C298.155 117.074 297.107 117.597 296.113 118.143C292.348 120.216 289.345 122.651 287.119 124.799C286.417 125.474 285.796 126.122 285.25 126.721Z" fill="#262626"/>
<path d="M284.222 127.877C284.665 128.303 284.908 128.838 284.93 129.356C284.946 129.669 284.886 129.972 284.741 130.236C284.417 130.819 283.801 131.008 283.633 131.051L283.428 131.041C283.444 130.533 283.325 129.972 283.039 129.426C283.098 129.302 283.153 129.178 283.201 129.054L284.222 127.877Z" fill="#FF8B63"/>
<path d="M294.746 115.401C289.884 118.062 286.206 121.28 283.715 123.877L283.64 123.893C283.899 125.151 283.985 126.787 283.407 128.509C283.348 128.682 283.278 128.865 283.202 129.054C283.154 129.178 283.1 129.302 283.04 129.427C282.576 130.452 281.938 131.435 281.501 131.338C281.382 131.311 281.268 131.203 281.171 130.96C280.966 130.452 280.842 129.351 280.917 127.164H280.798C279.297 128.892 277.8 130.625 276.299 132.358C275.202 130.382 275.11 128.698 275.127 127.866C275.181 124.838 276.915 122.635 278.011 121.247C279.129 119.822 280.204 118.953 280.469 118.737C282.689 116.907 286.276 113.165 289.593 108.236L289.668 108.29C290.068 108.911 290.484 109.537 290.911 110.169C292.18 112.032 293.466 113.775 294.746 115.401Z" fill="#FF8B63"/>
<path d="M283.429 131.04C283.408 131.731 283.138 132.32 282.684 132.649C282.273 132.946 281.787 132.978 281.447 132.957C281.506 132.303 281.382 131.585 281.145 130.97L281.172 130.959C281.269 131.202 281.382 131.31 281.501 131.337C281.939 131.434 282.576 130.452 283.041 129.426C283.327 129.971 283.446 130.533 283.429 131.04Z" fill="#FF8B63"/>
<path d="M281.444 132.957C281.395 133.567 281.179 134.118 280.747 134.469C279.845 135.209 278.37 134.734 278.111 134.647L277.992 134.545C278.441 134.026 278.883 133.508 279.332 132.99C278.549 131.43 278.457 130.118 279.04 129.632C279.283 129.427 279.629 129.378 279.894 129.454C280.396 129.589 280.855 130.204 281.141 130.971C281.379 131.586 281.503 132.304 281.444 132.957Z" fill="#FF8B63"/>
<path d="M279.397 222.106C281.601 216 282.724 210.909 283.351 207.373C284.404 201.38 284.518 196.991 286.343 188.471C286.878 185.961 287.386 183.92 287.732 182.598C287.332 180.848 287.899 179.385 288.169 178.797C292.253 179.688 296.585 180.508 301.15 181.21C300.577 182.36 299.967 183.785 299.48 185.481C299.048 186.992 298.811 188.364 298.681 189.535C299.21 190.302 299.389 190.933 299.162 191.246C298.967 191.511 298.481 191.522 298.006 191.452C297.72 193.698 297.395 195.976 297.028 198.292C295.397 208.479 293.112 217.879 290.487 226.463C291.086 228.196 291.518 230.172 290.686 230.83C290.6 230.901 290.508 230.944 290.405 230.976C289.882 231.143 289.125 230.852 287.834 230.436C284.512 229.367 282.049 228.887 280.374 228.433C278.765 228.001 277.884 227.591 277.684 226.7C277.657 226.565 277.695 226.042 277.792 224.989C277.96 223.196 278.035 222.273 278.327 222.106C278.597 221.955 278.964 221.955 279.397 222.106Z" fill="#7099ED"/>
<path d="M280.918 127.164C280.842 129.35 280.967 130.451 281.172 130.959L281.145 130.97C280.859 130.203 280.399 129.588 279.897 129.453C279.632 129.377 279.287 129.426 279.044 129.631C278.46 130.117 278.552 131.429 279.335 132.989C278.887 133.507 278.444 134.025 277.996 134.544C250.609 166.37 223.216 198.195 195.829 230.016C194.182 231.932 191.778 233.034 189.25 233.034H185.695V232.143C185.695 230.944 186.662 229.978 187.861 229.978C189.125 229.978 190.352 229.703 191.47 229.19C192.593 228.677 193.598 227.932 194.425 226.976C221.714 195.437 249.01 163.897 276.3 132.357C277.801 130.624 279.297 128.891 280.799 127.158H280.918V127.164Z" fill="#262626"/>
<path d="M189.075 233.066V240.236H157.27V236.651L173.172 233.066H189.075Z" fill="#262626"/>
<path d="M303.755 20.209C303.361 21.9636 303.064 24.3013 303.377 26.9899C304.047 32.7342 307.672 41.518 313.846 41.8905C313.943 41.8959 314.04 41.9013 314.138 41.8959C318.475 41.9715 321.889 37.8414 322.802 36.6591" stroke="#262626" stroke-miterlimit="10"/>
<path d="M314.133 41.8906C314.133 41.8906 314.133 41.896 314.138 41.896C314.678 42.9056 315.273 44.2175 315.726 45.7993C316.239 47.6133 316.423 49.2276 316.466 50.4963C316.472 50.5719 316.477 50.6421 316.477 50.7122" stroke="#262626" stroke-miterlimit="10"/>
<path d="M328.797 16.6237C328.64 16.2944 328.462 15.9759 328.273 15.6573C324.983 10.1992 318.539 8.66052 313.764 9.47574C310.166 10.0912 304.953 12.5854 303.851 17.0826C303.543 18.3351 303.63 19.4527 303.754 20.2085C304.019 19.3987 304.775 18.902 305.515 18.9884C306.358 19.0802 306.757 19.8846 306.785 19.9386C307.022 19.7334 310.884 16.5805 315.708 18.1138C320.046 19.4959 321.531 23.5234 321.693 23.9769C321.834 23.8041 322.725 22.7405 323.989 22.7891C325.534 22.8539 326.431 24.5329 326.69 25.5641C327.09 27.1945 326.328 29.0139 324.783 30.2395C325.118 31.0817 325.448 31.9239 325.783 32.7661C327.884 30.7254 329.24 28.1933 329.823 25.5317" stroke="#262626" stroke-miterlimit="10"/>
<path d="M326.945 29.6719C326.389 30.7732 326.022 31.8206 325.784 32.7654C325.39 34.3148 325.33 35.5889 325.341 36.4042C325.39 40.4047 327.183 44.9504 330.791 47.4015C331.191 47.6714 331.553 47.8766 331.866 48.0331C332.25 48.2275 332.574 48.3571 332.822 48.4704C333.163 48.6216 333.498 48.7998 333.827 48.9995C341.228 53.5021 344.755 69.4555 350.87 89.4202C350.913 89.5606 350.967 89.7387 350.989 89.7981C349.843 91.3638 348.369 93.1346 346.5 94.9216C343.993 97.3186 341.514 99.0355 339.461 100.25" stroke="#262626" stroke-miterlimit="10"/>
<path d="M330.471 63.8477C329.644 64.4631 328.542 65.4997 328.013 67.0491C327.138 69.619 328.343 72.0322 329.936 75.3795C331.076 77.7765 332.832 81.5233 335.035 86.5172" stroke="#262626" stroke-miterlimit="10"/>
<path d="M332.826 87.8926C332.556 88.0815 332.265 88.2867 331.968 88.5134C329.656 90.241 325.118 94.1552 319.457 99.5324" stroke="#262626" stroke-miterlimit="10"/>
<path d="M339.017 84.7773C338.169 85.0581 336.921 85.5278 335.49 86.2728C335.376 86.3268 335.225 86.4078 335.036 86.5158C334.534 86.7911 333.761 87.2446 332.832 87.8924" stroke="#262626" stroke-miterlimit="10"/>
<path d="M333.828 49C332.667 50.4739 331.095 52.6334 329.512 55.4084C327.157 59.5384 324.208 64.7105 323.846 71.5345C323.765 73.111 323.214 83.9841 329.226 87.0776C330.555 87.7579 331.878 87.8928 332.829 87.8928H332.834" stroke="#262626" stroke-miterlimit="10"/>
<path d="M322.136 99.8349C321.434 99.7 320.526 99.5704 319.456 99.5326C318.506 99.5002 317.425 99.5434 316.259 99.7269C314.714 99.9699 313.369 100.18 312.094 101.012C308.999 103.009 308.529 107.161 308.242 109.661C308.199 110.033 308.167 110.411 308.145 110.794C308.08 111.842 308.091 112.911 308.156 113.904C308.329 116.344 308.869 118.326 309.636 118.418C310.16 118.482 310.711 117.64 311.132 116.814C312.223 116.431 313.18 116.209 313.909 116.069C315.146 115.832 315.897 115.686 316.901 115.772C318.246 115.886 318.414 116.269 318.997 116.101C319.818 115.864 320.056 114.946 320.461 113.753C320.618 113.278 320.807 112.76 321.066 112.22C321.315 111.707 321.601 111.243 321.903 110.821C323.303 108.883 325.139 107.836 325.874 107.415C326.76 106.913 327.278 106.783 331.643 105.817C334.744 105.131 336.44 104.764 337.417 104.505C338.492 104.219 338.692 104.073 338.908 103.787C339.589 102.901 339.702 101.649 339.454 100.251C338.968 97.4487 337.05 94.0636 335.386 91.9311C334.176 90.3871 332.934 89.2695 331.967 88.5137" stroke="#262626" stroke-miterlimit="10"/>
<path d="M324.27 101.865C324.507 101.989 324.853 102.222 325.128 102.61C325.831 103.604 325.501 104.781 325.447 104.959" stroke="#262626" stroke-miterlimit="10"/>
<path d="M279.47 132.832C279.427 132.886 279.379 132.935 279.335 132.989C278.887 133.507 278.444 134.025 277.996 134.544C250.609 166.37 223.216 198.195 195.829 230.016C194.182 231.932 191.778 233.034 189.25 233.034H185.695V232.143C185.695 230.944 186.662 229.978 187.861 229.978C189.125 229.978 190.352 229.703 191.47 229.19C192.593 228.677 193.598 227.932 194.425 226.976C221.714 195.437 249.01 163.897 276.3 132.357C277.801 130.624 279.297 128.891 280.799 127.158" stroke="#262626" stroke-miterlimit="10"/>
<path d="M308.104 113.91C307.861 113.953 307.612 113.997 307.364 114.045C304.398 114.623 301.697 115.514 299.256 116.588C298.154 117.074 297.106 117.598 296.112 118.143C292.347 120.216 289.343 122.651 287.118 124.8C286.416 125.474 285.794 126.122 285.249 126.721C284.995 126.997 284.763 127.261 284.541 127.515L284.222 127.877L283.202 129.054L283.137 129.129" stroke="#262626" stroke-miterlimit="10"/>
<path d="M321.907 110.822C327.536 111.729 332.948 113.716 337.729 116.653C340.975 118.65 343.93 121.08 346.464 123.909C356.792 135.452 359.417 154.072 353.864 176.347C351.784 184.672 348.473 191.502 345.545 197.521C340.84 207.212 337.124 214.862 340.003 224.591C341.089 228.251 342.774 230.88 345.162 232.619C346.15 233.342 347.306 233.931 348.576 234.379C350.164 234.946 351.936 235.297 353.794 235.415C356.732 235.61 359.892 235.232 362.89 234.255C364.419 233.758 365.807 233.132 367.044 232.408C368.946 231.302 370.475 229.946 371.555 228.419C372.16 227.566 372.625 226.653 372.927 225.703C374.196 221.735 372.56 217.513 371.053 214.776C370.658 214.063 370.88 213.172 371.571 212.735C371.825 212.573 372.106 212.498 372.387 212.498C372.927 212.498 373.451 212.784 373.732 213.297C375.514 216.53 377.454 221.616 375.844 226.632C375.65 227.242 375.406 227.841 375.109 228.419C374.391 229.865 373.381 231.204 372.122 232.408C371.701 232.813 371.258 233.197 370.783 233.569C368.865 235.064 366.52 236.29 363.841 237.165C361.011 238.088 358.083 238.541 355.269 238.541C353.643 238.541 352.049 238.39 350.537 238.088C347.82 237.559 345.351 236.549 343.352 235.091C340.403 232.937 338.35 229.79 337.065 225.46C333.85 214.592 337.994 206.062 342.79 196.188C345.648 190.298 348.889 183.625 350.893 175.608C356.192 154.347 353.81 136.709 344.184 125.95C342.32 123.866 340.181 122.014 337.832 120.411C332.754 116.934 326.709 114.634 320.465 113.754" stroke="#262626" stroke-miterlimit="10"/>
<path d="M283.715 123.876C286.205 121.279 289.884 118.062 294.745 115.4C295.653 114.909 296.604 114.428 297.592 113.98C298.483 113.575 299.407 113.197 300.369 112.841C302.362 112.101 304.501 111.486 306.78 111.043C307.234 110.951 307.693 110.871 308.147 110.795" stroke="#262626" stroke-miterlimit="10"/>
<path d="M312.929 53.1405C310.39 55.3 307.506 58.3989 305.259 62.6693C303.795 65.4497 302.941 68.0789 302.434 70.26C304.362 69.4556 306.555 68.6728 308.997 68.0087C313.561 66.7778 317.688 66.3135 321.07 66.1947C322.074 62.1024 324.16 56.3905 328.762 51.1375C329.707 50.0577 330.674 49.0914 331.63 48.2438C331.711 48.1736 331.787 48.1034 331.868 48.0332" stroke="#262626" stroke-miterlimit="10"/>
<path d="M299.655 75.6166C299.455 74.1968 299.391 73.1872 299.482 72.4961C300.779 62.6973 308.028 56.181 309.422 54.9825C312.058 52.7258 314.629 51.3329 316.466 50.4961C315.477 51.1439 314.245 52.0132 312.927 53.1361" stroke="#262626" stroke-miterlimit="10"/>
<path d="M300.369 112.841C300.677 111.81 300.985 110.784 301.298 109.763C302.314 106.422 303.346 103.123 304.394 99.8621C304.032 98.0535 302.038 88.1305 301.731 86.5919C300.71 81.5116 299.997 77.997 299.656 75.627" stroke="#262626" stroke-miterlimit="10"/>
<path d="M337.831 120.409C338.128 130.721 338.484 141.13 338.911 151.625C339.348 162.412 339.851 173.091 340.407 183.662C337.231 183.753 333.93 183.78 330.506 183.721C326.887 183.662 323.127 183.505 319.254 183.235C318.687 183.197 318.119 183.154 317.552 183.105C311.805 182.663 306.327 182.01 301.152 181.211C296.588 180.509 292.256 179.688 288.172 178.797C286.821 178.506 285.503 178.203 284.207 177.896C285.741 170.148 287.448 162.245 289.333 154.19C292.077 142.49 295.043 131.207 298.165 120.355C298.527 119.092 298.889 117.834 299.256 116.587C299.273 116.544 299.283 116.506 299.294 116.463" stroke="#262626" stroke-miterlimit="10"/>
<path d="M337.418 104.5C337.51 108.544 337.612 112.587 337.726 116.653" stroke="#262626" stroke-miterlimit="10"/>
<path d="M301.152 181.217C300.58 182.361 299.969 183.787 299.483 185.482C299.051 186.994 298.813 188.365 298.684 189.536" stroke="#262626" stroke-miterlimit="10"/>
<path d="M297.455 188.148C297.968 188.634 298.384 189.104 298.682 189.536C299.211 190.303 299.389 190.934 299.162 191.247C298.968 191.512 298.482 191.523 298.006 191.453C297.45 191.366 296.899 191.172 296.812 191.139" stroke="#262626" stroke-miterlimit="10"/>
<path d="M298.008 191.447C297.721 193.699 297.397 195.977 297.03 198.293C295.399 208.48 293.114 217.88 290.488 226.464" stroke="#262626" stroke-miterlimit="10"/>
<path d="M288.17 178.797C287.899 179.385 287.332 180.848 287.732 182.598C287.883 183.262 288.137 183.796 288.369 184.196" stroke="#262626" stroke-miterlimit="10"/>
<path d="M287.733 182.598C287.388 183.92 286.88 185.961 286.345 188.472C284.519 196.991 284.406 201.38 283.353 207.373C282.726 210.909 281.602 216 279.398 222.106" stroke="#262626" stroke-miterlimit="10"/>
<path d="M282.924 225.098C281.644 223.49 280.358 222.442 279.397 222.108C278.964 221.956 278.597 221.956 278.327 222.108C278.035 222.275 277.96 223.198 277.792 224.99C277.695 226.043 277.657 226.567 277.684 226.702C277.884 227.593 278.765 228.003 280.374 228.435C282.049 228.888 284.512 229.369 287.834 230.438C289.125 230.854 289.882 231.145 290.405 230.978C290.508 230.945 290.6 230.902 290.686 230.832C291.518 230.173 291.086 228.197 290.487 226.47C290.206 225.655 289.892 224.899 289.655 224.353" stroke="#262626" stroke-miterlimit="10"/>
<path d="M287.309 220.4C287.562 220.811 287.914 221.297 288.373 221.788C288.902 222.349 289.431 222.77 289.869 223.067" stroke="#262626" stroke-miterlimit="10"/>
<path d="M295.102 183.025C295.782 183.77 296.457 184.521 297.133 185.266" stroke="#262626" stroke-miterlimit="10"/>
<path d="M292.434 187.404C293.357 187.761 294.286 188.117 295.21 188.473" stroke="#262626" stroke-miterlimit="10"/>
<path d="M290.407 230.976C290.548 231.802 290.656 232.693 290.726 233.643C290.883 235.868 290.769 237.86 290.548 239.55C290.186 239.609 289.657 239.695 289.014 239.782C287.237 240.025 285.875 240.111 285.114 240.154C281.089 240.403 279.08 240.521 277.108 240.559C269.162 240.705 262.026 240.835 261.394 238.562C261.184 237.817 261.74 237.061 261.983 236.737C263.474 234.707 266.883 235.128 268.924 235.031C271.712 234.896 275.623 233.627 280.376 228.434" stroke="#262626" stroke-miterlimit="10"/>
<path d="M317.551 183.111C317.767 187.781 317.934 192.543 318.048 197.386C318.075 198.411 318.096 199.437 318.113 200.468C318.28 209.657 318.242 224.855 318.026 233.86C318.021 234.146 318.01 234.427 318.005 234.702" stroke="#262626" stroke-miterlimit="10"/>
<path d="M330.504 183.721C330.693 189.654 330.833 195.663 330.931 201.747C331.055 209.414 331.104 223.661 331.076 231.09" stroke="#262626" stroke-miterlimit="10"/>
<path d="M329.007 229.238C329.272 229.33 330.563 229.805 331.076 231.09C331.643 232.51 330.99 234.243 330.558 234.27H330.552C330.352 234.281 330.212 233.897 330.077 233.654C329.132 231.873 325.566 231.101 322.806 231.689C320.17 232.256 318.576 234 318.004 234.702" stroke="#262626" stroke-miterlimit="10"/>
<path d="M322.171 228.883C321.68 229.099 321.107 229.417 320.535 229.882C318.914 231.199 318.282 232.927 318.028 233.86C318.007 233.947 317.985 234.022 317.969 234.093" stroke="#262626" stroke-miterlimit="10"/>
<path d="M330.516 233.92C330.527 234.033 330.543 234.147 330.56 234.271C330.716 235.642 330.954 237.64 331.289 240.058C331.77 243.541 331.937 244.248 331.451 245.036C330.511 246.553 328.172 246.623 323.526 246.699C318.297 246.785 315.661 246.796 314.711 245.257C313.836 243.843 314.808 241.565 315.672 239.438C316.023 238.579 316.51 237.624 317.439 235.81C317.638 235.41 317.833 235.038 318.006 234.708C318.249 234.233 318.46 233.839 318.627 233.531" stroke="#262626" stroke-miterlimit="10"/>
<path d="M325.238 189.697C325.692 191.085 326.173 192.488 326.681 193.914C327.259 195.555 327.847 197.158 328.442 198.719" stroke="#262626" stroke-miterlimit="10"/>
<path d="M319.36 193.277C318.922 194.643 318.484 196.015 318.047 197.386" stroke="#262626" stroke-miterlimit="10"/>
<path d="M289.668 108.289C290.068 108.91 290.484 109.536 290.91 110.168C292.18 112.03 293.465 113.774 294.746 115.399" stroke="#262626" stroke-miterlimit="10"/>
<path d="M299.656 75.6172V75.628C299.516 78.4839 299.17 82.2037 298.311 86.4849C297.949 88.2935 296.853 93.4386 294.892 98.3407C293.444 101.958 291.57 105.305 289.593 108.237C286.276 113.166 282.689 116.907 280.469 118.737C280.204 118.953 279.129 119.822 278.011 121.248C276.915 122.635 275.181 124.838 275.127 127.867C275.11 128.698 275.202 130.382 276.299 132.358C276.315 132.391 276.331 132.429 276.353 132.461" stroke="#262626" stroke-miterlimit="10"/>
<path d="M297.559 98.7659C297.775 98.7173 299.552 98.3394 300.875 99.5163C301.459 100.035 301.718 100.65 301.837 101.012" stroke="#262626" stroke-miterlimit="10"/>
<path d="M312.926 53.1354C311.748 55.1816 311.413 56.5097 311.932 57.1197C313.218 58.6368 319.786 55.6783 331.627 48.2441" stroke="#262626" stroke-miterlimit="10"/>
<path d="M283.137 122.154C283.299 122.575 283.494 123.169 283.639 123.893C283.899 125.151 283.985 126.786 283.407 128.509C283.348 128.681 283.277 128.865 283.202 129.054C283.153 129.178 283.099 129.302 283.04 129.426C282.575 130.452 281.938 131.435 281.5 131.338C281.381 131.311 281.268 131.203 281.171 130.96C280.965 130.452 280.841 129.351 280.917 127.164C280.933 126.662 280.96 126.095 281.003 125.464" stroke="#262626" stroke-miterlimit="10"/>
<path d="M278.113 134.647C278.373 134.734 279.847 135.209 280.749 134.469C281.181 134.118 281.398 133.567 281.446 132.957C281.506 132.304 281.381 131.586 281.144 130.971C280.857 130.204 280.398 129.589 279.896 129.454C279.631 129.378 279.285 129.427 279.042 129.632C278.459 130.118 278.551 131.43 279.334 132.99C279.361 133.055 279.393 133.119 279.431 133.19" stroke="#262626" stroke-miterlimit="10"/>
<path d="M281.133 132.913C281.203 132.93 281.311 132.946 281.446 132.957C281.786 132.978 282.273 132.946 282.683 132.649C283.137 132.32 283.407 131.731 283.429 131.04C283.445 130.533 283.326 129.971 283.04 129.426C283.023 129.388 283.002 129.35 282.98 129.312" stroke="#262626" stroke-miterlimit="10"/>
<path d="M283.633 131.051C283.8 131.008 284.416 130.819 284.74 130.236C284.886 129.972 284.945 129.669 284.929 129.356C284.908 128.838 284.665 128.303 284.222 127.877" stroke="#262626" stroke-miterlimit="10"/>
<path d="M285.098 129.345C285.173 129.307 285.789 129.021 285.951 128.346C286.092 127.746 285.811 127.093 285.249 126.721H285.244" stroke="#262626" stroke-miterlimit="10"/>
<path d="M287.117 124.799C290.353 123.185 293.583 121.576 296.813 119.967C296.581 119.357 296.343 118.753 296.111 118.143" stroke="#262626" stroke-miterlimit="10"/>
<path d="M297.59 113.98C298.195 113.57 298.951 112.965 299.697 112.118C300.453 111.259 300.961 110.422 301.295 109.764" stroke="#262626" stroke-miterlimit="10"/>
<path d="M310 35.3971C310.2 35.3647 310.918 35.2351 311.491 34.5926C312.074 33.9394 312.123 33.1998 312.128 33" stroke="#262626" stroke-miterlimit="10"/>
<path d="M331.819 25.6296C331.398 25.8402 330.976 25.9158 330.56 25.8402C330.296 25.7916 330.052 25.689 329.826 25.5325C328.427 24.5553 327.795 21.5859 328.394 18.2873C328.502 17.7096 328.637 17.1481 328.799 16.6245C329.723 13.6713 331.479 11.6846 333.083 11.9707C334.973 12.3162 335.946 15.7013 335.249 19.529C335.082 20.4468 334.833 21.3106 334.525 22.088" stroke="#262626" stroke-miterlimit="10"/>
<path d="M332.125 30.6018C331.547 29.6894 331.341 28.0698 331.665 26.3098C331.709 26.0777 331.757 25.8509 331.817 25.6296C332.341 23.5996 333.453 22.1312 334.523 22.088C334.609 22.0826 334.701 22.088 334.788 22.1042C336.052 22.3309 336.7 24.5876 336.235 27.1412C336.127 27.7351 335.971 28.2912 335.776 28.7933" stroke="#262626" stroke-miterlimit="10"/>
<path d="M335.776 28.7934C337.18 29.668 337.829 32.5725 337.24 35.8118C336.57 39.4884 334.555 42.204 332.735 41.8746C330.914 41.5453 329.985 38.2952 330.655 34.6133C330.941 33.0476 331.471 31.6547 332.124 30.602C333.005 29.1767 334.112 28.3615 335.16 28.5504C335.382 28.5882 335.587 28.6746 335.776 28.7934Z" stroke="#262626" stroke-miterlimit="10"/>
<path d="M157.27 240.236H189.075V233.066H173.172L157.27 236.651V240.236Z" stroke="#262626" stroke-miterlimit="10"/>
<path d="M350.096 198.875H349.367V197.347C349.367 189.2 355.974 182.598 364.125 182.598H366.561C374.707 182.598 381.319 189.2 381.319 197.347V198.875H380.59" stroke="#262626" stroke-miterlimit="10"/>
<path d="M350.539 202.865H350.096C349.697 202.865 349.367 202.541 349.367 202.141V199.604C349.367 199.204 349.697 198.875 350.096 198.875H380.59C380.989 198.875 381.319 199.204 381.319 199.604V202.141C381.319 202.541 380.989 202.865 380.59 202.865H380.055" stroke="#262626" stroke-miterlimit="10"/>
<path d="M372.948 228.418H380.591C380.991 228.418 381.32 228.742 381.32 229.141V231.679C381.32 232.078 380.991 232.408 380.591 232.408H371.754" stroke="#262626" stroke-miterlimit="10"/>
<path d="M370.169 232.408H350.096C349.697 232.408 349.367 232.078 349.367 231.679V229.141C349.367 228.742 349.697 228.418 350.096 228.418H372.071" stroke="#262626" stroke-miterlimit="10"/>
<path d="M350.539 228.418V202.865H380.054V228.418" stroke="#262626" stroke-miterlimit="10"/>
<path d="M351.127 232.494C352.607 232.494 353.806 233.687 353.806 235.167C353.806 235.248 353.801 235.334 353.79 235.415C353.671 236.775 352.526 237.844 351.127 237.844C350.943 237.844 350.76 237.823 350.587 237.79C349.366 237.542 348.453 236.462 348.453 235.167C348.453 234.891 348.496 234.627 348.572 234.378C348.907 233.282 349.922 232.494 351.127 232.494Z" stroke="#262626" stroke-miterlimit="10"/>
<path d="M382.728 235.167C382.728 236.646 381.534 237.844 380.054 237.844C378.574 237.844 377.375 236.646 377.375 235.167C377.375 233.687 378.574 232.494 380.054 232.494C381.534 232.494 382.728 233.687 382.728 235.167Z" stroke="#262626" stroke-miterlimit="10"/>
</g>
</g>
<defs>
<clipPath id="clip0_1091_23217">
<rect width="384" height="240" rx="32" fill="white"/>
</clipPath>
<clipPath id="clip1_1091_23217">
<rect width="226" height="238" fill="white" transform="translate(157 9)"/>
</clipPath>
</defs>
</svg>
