<svg width="384" height="240" viewBox="18 10 384 240" fill="none" xmlns="http://www.w3.org/2000/svg">
<g filter="url(#filter0_d_1091_23220)">
<g clip-path="url(#clip0_1091_23220)">
<rect x="19" y="9" width="384" height="240" rx="3" fill="#7099ED"/>
<rect x="43" y="33" width="125" height="39" rx="8" fill="#262626"/>
<path d="M62.6504 59L56.1074 52.1836L58.0801 50.7773L65.9805 59H62.6504ZM53.9688 50.6211H56.6348L62.5527 44.7812H65.4922L57.2012 52.7305H53.9688V50.6211ZM52.6113 59V44.7812H55.3262V59H52.6113ZM68.8027 44.7812H80.2188V59H77.5137V46.8711H71.0879L70.7266 53.5898C70.6354 55.4518 70.3327 56.8646 69.8184 57.8281C69.304 58.7917 68.3275 59.2734 66.8887 59.2734C66.6673 59.2734 66.4557 59.2572 66.2539 59.2246C66.0521 59.1986 65.8535 59.1497 65.6582 59.0781V56.7734C65.8079 56.8255 65.9479 56.8613 66.0781 56.8809C66.2148 56.9004 66.3548 56.9102 66.498 56.9102C67.1426 56.9102 67.5951 56.6367 67.8555 56.0898C68.1159 55.543 68.2819 54.5924 68.3535 53.2383L68.8027 44.7812ZM96.8203 59H94.1641V49.4785C94.1641 49.2702 94.1673 49.0423 94.1738 48.7949C94.1803 48.541 94.1901 48.3132 94.2031 48.1113H94.0859C93.9883 48.3066 93.8906 48.4987 93.793 48.6875C93.7018 48.8763 93.5716 49.0814 93.4023 49.3027L86.4004 59H83.5293V44.7812H86.1953V54.293C86.1953 54.4948 86.1888 54.7194 86.1758 54.9668C86.1693 55.2142 86.1628 55.4421 86.1562 55.6504H86.293C86.3646 55.4876 86.4525 55.3021 86.5566 55.0938C86.6673 54.8854 86.7943 54.6803 86.9375 54.4785L93.9492 44.7812H96.8203V59ZM100.053 59V44.7812H102.768V50.6113H110.502V44.7812H113.207V59H110.502V52.7207H102.768V59H100.053ZM129.73 59H127.074V49.4785C127.074 49.2702 127.077 49.0423 127.084 48.7949C127.09 48.541 127.1 48.3132 127.113 48.1113H126.996C126.898 48.3066 126.801 48.4987 126.703 48.6875C126.612 48.8763 126.482 49.0814 126.312 49.3027L119.311 59H116.439V44.7812H119.105V54.293C119.105 54.4948 119.099 54.7194 119.086 54.9668C119.079 55.2142 119.073 55.4421 119.066 55.6504H119.203C119.275 55.4876 119.363 55.3021 119.467 55.0938C119.577 54.8854 119.704 54.6803 119.848 54.4785L126.859 44.7812H129.73V59ZM132.963 59V44.7812H135.678V50.6113H143.412V44.7812H146.117V59H143.412V52.7207H135.678V59H132.963ZM149.35 59V44.7812H159.506V46.8711H152.064V59H149.35Z" fill="white"/>
<g clip-path="url(#clip1_1091_23220)">
<path d="M369.591 241.408H361.121C362.38 240.204 363.39 238.865 364.108 237.418H369.591C369.991 237.418 370.32 237.742 370.32 238.141V240.679C370.32 241.078 369.991 241.408 369.591 241.408Z" fill="#262626"/>
<path d="M359.171 241.408H356.043C357.944 240.301 359.473 238.946 360.553 237.418H364.108C363.389 238.865 362.379 240.204 361.121 241.408C360.699 241.813 360.256 242.196 359.781 242.568L359.171 241.408Z" fill="#262626"/>
<path d="M361.946 237.417H360.552C361.157 236.564 361.622 235.652 361.924 234.702C363.194 230.733 361.557 226.512 360.05 223.774C359.656 223.062 359.877 222.171 360.569 221.734C360.822 221.572 361.103 221.496 361.384 221.496C361.924 221.496 362.448 221.782 362.729 222.295C364.512 225.529 366.451 230.615 364.841 235.63C364.647 236.24 364.404 236.839 364.107 237.417H361.946Z" fill="#262626"/>
<path d="M339.539 237.418V211.865H369.054V237.418H364.106C364.403 236.84 364.647 236.241 364.841 235.631C366.451 230.615 364.512 225.53 362.729 222.296C362.448 221.783 361.924 221.497 361.384 221.497C361.103 221.497 360.822 221.572 360.568 221.734C359.877 222.172 359.655 223.062 360.05 223.775C361.557 226.512 363.193 230.734 361.924 234.702C361.622 235.652 361.157 236.565 360.552 237.418H339.539Z" fill="#7099ED"/>
<path d="M356.042 241.408H339.096C338.697 241.408 338.367 241.078 338.367 240.679V238.141C338.367 237.742 338.697 237.418 339.096 237.418H360.552C359.472 238.946 357.943 240.301 356.042 241.408Z" fill="#262626"/>
<path d="M369.054 241.494C370.534 241.494 371.728 242.687 371.728 244.167C371.728 245.646 370.534 246.844 369.054 246.844C367.574 246.844 366.375 245.646 366.375 244.167C366.375 242.687 367.574 241.494 369.054 241.494Z" fill="#262626"/>
<path d="M338.367 206.347C338.367 198.2 344.974 191.598 353.125 191.598H355.561C363.707 191.598 370.319 198.2 370.319 206.347V207.875H338.367V206.347Z" fill="#7099ED"/>
<path d="M369.055 211.865H339.096C338.697 211.865 338.367 211.541 338.367 211.141V208.604C338.367 208.204 338.697 207.875 339.096 207.875H369.59C369.989 207.875 370.319 208.204 370.319 208.604V211.141C370.319 211.541 369.989 211.865 369.59 211.865H369.055Z" fill="#262626"/>
<path d="M342.792 244.415C340.934 244.296 339.162 243.945 337.574 243.378C337.909 242.282 338.925 241.494 340.129 241.494C341.609 241.494 342.809 242.687 342.809 244.167C342.809 244.248 342.803 244.334 342.792 244.415Z" fill="#262626"/>
<path d="M337.572 243.379C339.16 243.946 340.932 244.297 342.79 244.415C342.671 245.776 341.526 246.845 340.127 246.845C339.943 246.845 339.76 246.823 339.587 246.791C338.366 246.543 337.453 245.463 337.453 244.167C337.453 243.892 337.496 243.627 337.572 243.379Z" fill="#262626"/>
<path d="M340.129 246.845C341.528 246.845 342.674 245.776 342.792 244.415C345.731 244.61 348.891 244.232 351.889 243.255C353.418 242.758 354.806 242.132 356.043 241.408H359.171L359.781 242.569C357.863 244.064 355.519 245.29 352.84 246.165C350.009 247.088 347.081 247.541 344.267 247.541C342.641 247.541 341.048 247.39 339.535 247.088L339.589 246.791C339.762 246.823 339.946 246.845 340.129 246.845Z" fill="#262626"/>
<path d="M321.829 96.8928C320.878 96.8928 319.555 96.7579 318.226 96.0776C312.214 92.9841 312.765 82.111 312.846 80.5345C313.208 73.7105 316.157 68.5384 318.512 64.4084C320.095 61.6334 321.667 59.4739 322.828 58C330.229 62.5026 333.756 78.456 339.871 98.4207C339.914 98.5611 339.968 98.7392 339.99 98.7986C338.845 100.364 337.37 102.135 335.501 103.922C332.994 106.319 330.515 108.036 328.462 109.251H328.457C327.971 106.449 326.053 103.064 324.389 100.931C323.179 99.3871 321.937 98.2695 320.97 97.5137C321.267 97.287 321.559 97.0818 321.829 96.8928Z" fill="#7099ED"/>
<path d="M337.457 244.167C337.457 245.463 338.37 246.543 339.591 246.791L339.537 247.088C336.82 246.559 334.351 245.549 332.352 244.091C329.403 241.937 327.35 238.79 326.065 234.46C322.85 223.592 326.994 215.062 331.79 205.188C334.648 199.298 337.889 192.625 339.893 184.608C345.192 163.347 342.81 145.709 333.184 134.95C331.32 132.866 329.181 131.014 326.832 129.411C321.754 125.934 315.709 123.634 309.465 122.754C309.621 122.279 309.811 121.76 310.07 121.221C310.318 120.708 310.605 120.243 310.907 119.822C316.536 120.729 321.948 122.716 326.729 125.653C329.975 127.65 332.93 130.08 335.464 132.909C345.792 144.452 348.417 163.072 342.864 185.347C340.784 193.672 337.473 200.502 334.545 206.521C329.84 216.212 326.124 223.862 329.003 233.591C330.089 237.251 331.774 239.88 334.162 241.619C335.15 242.342 336.306 242.931 337.576 243.379C337.5 243.627 337.457 243.892 337.457 244.167Z" fill="#262626"/>
<path d="M308.456 108.533C314.118 103.155 318.655 99.2413 320.967 97.5137C321.934 98.2695 323.176 99.3871 324.386 100.931C326.05 103.064 327.968 106.449 328.454 109.251C328.702 110.649 328.589 111.901 327.908 112.787C327.692 113.073 327.492 113.219 326.417 113.505C325.44 113.764 323.744 114.131 320.643 114.817C316.278 115.783 315.76 115.913 314.874 116.415C314.139 116.836 312.303 117.883 310.903 119.821C310.601 120.243 310.315 120.707 310.066 121.22C309.807 121.76 309.618 122.278 309.461 122.753C309.056 123.946 308.818 124.864 307.997 125.101C307.414 125.269 307.246 124.886 305.901 124.772C304.897 124.686 304.146 124.832 302.909 125.069C302.18 125.209 301.223 125.431 300.132 125.814C299.711 126.64 299.16 127.482 298.636 127.418C297.869 127.326 297.329 125.344 297.156 122.904C297.091 121.911 297.08 120.842 297.145 119.794C297.167 119.411 297.199 119.033 297.242 118.661C297.529 116.161 297.999 112.009 301.094 110.012C302.369 109.18 303.714 108.97 305.259 108.727C306.425 108.543 307.506 108.5 308.456 108.533Z" fill="#FF8B63"/>
<path d="M326.42 113.506C326.512 117.544 326.615 121.588 326.728 125.653C321.948 122.716 316.535 120.729 310.906 119.822C312.305 117.884 314.142 116.837 314.877 116.416C315.762 115.914 316.281 115.784 320.646 114.818C323.746 114.132 325.442 113.765 326.42 113.506Z" fill="white"/>
<path d="M324.776 37.793C326.18 38.6676 326.829 41.5721 326.24 44.8114C325.57 48.488 323.555 51.2035 321.735 50.8742C319.914 50.5449 318.985 47.2948 319.655 43.6129C319.941 42.0472 320.471 40.6543 321.124 39.6016C321.384 40.0119 321.713 40.2818 322.107 40.352C323.074 40.5248 324.128 39.4558 324.776 37.793Z" fill="#262626"/>
<path d="M324.161 37.5504C324.382 37.5882 324.588 37.6746 324.777 37.7934C324.128 39.4562 323.075 40.5252 322.108 40.3524C321.714 40.2822 321.384 40.0123 321.125 39.602C322.005 38.1767 323.113 37.3615 324.161 37.5504Z" fill="#262626"/>
<path d="M322.08 20.9707C323.971 21.3162 324.943 24.7013 324.247 28.529C324.079 29.4468 323.831 30.3106 323.523 31.088C322.453 31.1312 321.34 32.5997 320.816 34.6296C320.395 34.8402 319.974 34.9158 319.558 34.8402C319.293 34.7916 319.05 34.689 318.823 34.5325C319.482 31.5361 319.158 28.3886 317.797 25.6245C318.721 22.6713 320.476 20.6846 322.08 20.9707Z" fill="#262626"/>
<path d="M323.788 31.1042C325.052 31.3309 325.7 33.5876 325.235 36.1412C325.127 36.7351 324.971 37.2912 324.776 37.7933C324.587 37.6745 324.382 37.5881 324.16 37.5503C323.112 37.3613 322.005 38.1766 321.125 39.6018C320.547 38.6894 320.341 37.0698 320.665 35.3098C320.709 35.0777 320.757 34.8509 320.817 34.6296C321.843 34.1221 322.831 32.8264 323.523 31.088C323.609 31.0826 323.701 31.088 323.788 31.1042Z" fill="#262626"/>
<path d="M323.523 31.0879C322.831 32.8263 321.843 34.122 320.816 34.6295C321.34 32.5995 322.453 31.1311 323.523 31.0879Z" fill="#262626"/>
<path d="M320.289 249.057C320.77 252.539 320.937 253.246 320.451 254.035C319.511 255.552 317.172 255.622 312.526 255.697C307.297 255.784 304.661 255.795 303.711 254.256C302.836 252.841 303.808 250.563 304.672 248.436C305.023 247.578 305.51 246.622 306.439 244.808C306.638 244.408 306.833 244.036 307.006 243.707C307.578 242.999 309.172 241.256 311.808 240.689C314.568 240.1 318.133 240.872 319.079 242.654C319.214 242.897 319.354 243.28 319.554 243.269H319.56C319.716 244.641 319.954 246.638 320.289 249.057Z" fill="white"/>
<path d="M317.799 25.623C319.16 28.3872 319.485 31.5347 318.826 34.531C317.427 33.5539 316.795 30.5845 317.394 27.2859C317.502 26.7082 317.637 26.1467 317.799 25.623Z" fill="#262626"/>
<path d="M292.754 29.2085C292.63 28.4527 292.543 27.3351 292.851 26.0826C293.953 21.5854 299.166 19.0912 302.764 18.4757C307.539 17.6605 313.983 19.1992 317.273 24.6573C317.462 24.9759 317.64 25.2944 317.797 25.6237C317.635 26.1474 317.5 26.7089 317.392 27.2866C316.792 30.5852 317.424 33.5545 318.823 34.5317C318.24 37.1933 316.884 39.7254 314.783 41.7661C314.448 40.9239 314.118 40.0817 313.783 39.2395C315.328 38.0139 316.09 36.1945 315.69 34.5641C315.431 33.5329 314.534 31.8539 312.989 31.7891C311.725 31.7406 310.834 32.8041 310.693 32.9769C310.531 32.5234 309.046 28.4959 304.708 27.1138C299.884 25.5805 296.022 28.7334 295.785 28.9386C295.757 28.8846 295.358 28.0802 294.515 27.9884C293.775 27.902 293.019 28.3987 292.754 29.2085Z" fill="#262626"/>
<path d="M320.077 240.09C320.644 241.51 319.99 243.243 319.558 243.27H319.553C319.353 243.281 319.213 242.898 319.078 242.655C318.132 240.873 314.567 240.101 311.807 240.69C309.171 241.256 307.577 243 307.005 243.702C307.01 243.427 307.021 243.146 307.026 242.86C307.242 233.855 307.28 218.657 307.113 209.468C307.096 208.437 307.075 207.411 307.048 206.386C306.934 201.543 306.767 196.781 306.551 192.111C307.118 192.155 307.685 192.198 308.252 192.236C312.125 192.505 315.885 192.662 319.504 192.721C319.693 198.655 319.834 204.663 319.931 210.748C320.055 218.414 320.104 232.662 320.077 240.09Z" fill="#7099ED"/>
<path d="M301.085 36.6319C301.242 37.3121 300.988 37.9546 300.518 38.0571C300.048 38.1651 299.54 37.6954 299.384 37.0152C299.232 36.3295 299.486 35.6925 299.956 35.5845C300.426 35.4819 300.934 35.9462 301.085 36.6319Z" fill="#262626"/>
<path d="M300.935 66.1197C302.221 67.6368 308.79 64.6783 320.63 57.2441C319.674 58.0917 318.707 59.0581 317.762 60.1379C313.16 65.3909 311.074 71.1028 310.07 75.1951C306.688 75.3139 302.561 75.7782 297.997 77.0091C295.555 77.6731 293.362 78.456 291.434 79.2604C291.941 77.0793 292.795 74.4501 294.259 71.6697C296.506 67.3993 299.39 64.3004 301.929 62.1408C300.752 64.1816 300.417 65.5097 300.935 66.1197Z" fill="#7099ED"/>
<path d="M318.225 96.0772C319.553 96.7575 320.877 96.8924 321.828 96.8924C321.557 97.0814 321.266 97.2865 320.969 97.5133C318.657 99.2409 314.119 103.155 308.458 108.532C307.507 108.5 306.427 108.543 305.26 108.727C303.715 108.97 302.37 109.18 301.096 110.011C298 112.009 297.53 116.161 297.244 118.66C297.201 119.033 297.168 119.411 297.147 119.794C296.693 119.87 296.234 119.951 295.78 120.042C293.501 120.485 291.362 121.101 289.368 121.84C289.676 120.809 289.984 119.783 290.297 118.763C291.313 115.421 292.345 112.122 293.393 108.862C293.031 107.053 291.037 97.13 290.729 95.5913C289.709 90.5111 288.996 86.9965 288.655 84.6264V84.6156C288.455 83.1957 288.391 82.1861 288.482 81.4951C289.779 71.6963 297.028 65.18 298.422 63.9814C301.058 61.7247 303.629 60.3319 305.466 59.495C304.477 60.1429 303.245 61.0121 301.927 62.1351C299.389 64.3 296.504 67.3989 294.257 71.6693C292.793 74.4497 291.939 77.0789 291.432 79.26C293.36 78.4556 295.553 77.6728 297.995 77.0087C302.559 75.7778 306.686 75.3135 310.068 75.1947C311.073 71.1024 313.158 65.3905 317.76 60.1375C318.705 59.0577 319.672 58.0914 320.628 57.2438C320.709 57.1736 320.785 57.1034 320.866 57.0332C321.25 57.2276 321.574 57.3571 321.822 57.4705C322.162 57.6217 322.497 57.7998 322.827 57.9996C321.666 59.4735 320.094 61.633 318.511 64.4079C316.156 68.538 313.206 73.71 312.844 80.5341C312.763 82.1106 312.212 92.9837 318.225 96.0772Z" fill="white"/>
<path d="M297.159 122.905C297.331 125.345 297.872 127.327 298.639 127.418C299.163 127.483 299.714 126.641 300.135 125.815C301.226 125.432 302.182 125.21 302.911 125.07C304.148 124.832 304.899 124.687 305.904 124.773C307.249 124.886 307.417 125.27 308 125.102C308.821 124.865 309.059 123.947 309.464 122.754C315.708 123.634 321.753 125.934 326.831 129.411C327.128 139.722 327.484 150.131 327.911 160.626C328.348 171.413 328.851 182.092 329.407 192.663C326.231 192.755 322.93 192.782 319.506 192.722C315.887 192.663 312.127 192.506 308.254 192.236C307.687 192.198 307.119 192.155 306.552 192.107C300.805 191.664 295.327 191.011 290.152 190.212C285.588 189.51 281.256 188.689 277.172 187.798C275.821 187.507 274.503 187.205 273.207 186.897C274.741 179.15 276.448 171.246 278.333 163.191C281.077 151.492 284.043 140.208 287.165 129.357C287.527 128.093 287.889 126.835 288.256 125.588C290.698 124.514 293.399 123.623 296.364 123.045C296.613 122.997 296.861 122.954 297.105 122.91H297.159V122.905Z" fill="white"/>
<path d="M295.212 38.2777C295.369 38.9579 295.11 39.6004 294.64 39.7029C294.17 39.8109 293.662 39.3412 293.511 38.661C293.354 37.9753 293.613 37.3383 294.083 37.2303C294.553 37.1223 295.055 37.592 295.212 38.2777Z" fill="#262626"/>
<path d="M294.084 37.2316C293.614 37.3396 293.355 37.9767 293.512 38.6623C293.663 39.3425 294.171 39.8122 294.641 39.7043C295.11 39.6017 295.37 38.9592 295.213 38.279C295.056 37.5933 294.554 37.1236 294.084 37.2316ZM319.791 56.4027C320.191 56.6726 320.553 56.8778 320.866 57.0344C320.785 57.1045 320.71 57.1747 320.629 57.2449C308.788 64.679 302.219 67.6376 300.934 66.1205C300.415 65.5104 300.75 64.1824 301.928 62.1416C303.246 61.0133 304.477 60.1441 305.466 59.4962C305.422 58.2275 305.239 56.6133 304.726 54.7993C304.272 53.2174 303.678 51.9055 303.138 50.8959C303.04 50.9013 302.943 50.8959 302.846 50.8905C296.672 50.518 293.047 41.7342 292.377 35.9899C292.064 33.3013 292.361 30.9636 292.755 29.209C293.02 28.3992 293.776 27.9025 294.516 27.9889C295.359 28.0807 295.759 28.8851 295.786 28.9391C296.023 28.7339 299.886 25.581 304.709 27.1143C309.047 28.4964 310.533 32.5239 310.695 32.9774C310.835 32.8046 311.726 31.7411 312.99 31.7896C314.535 31.8544 315.432 33.5335 315.691 34.5646C316.091 36.1951 315.329 38.0144 313.784 39.24C314.119 40.0822 314.449 40.9244 314.784 41.7666C314.389 43.3161 314.33 44.5902 314.341 45.4054C314.389 49.4059 316.183 53.9517 319.791 56.4027ZM300.518 38.0576C300.988 37.9551 301.242 37.3126 301.085 36.6324C300.934 35.9467 300.426 35.4824 299.956 35.585C299.486 35.693 299.232 36.33 299.383 37.0157C299.54 37.6959 300.048 38.1656 300.518 38.0576Z" fill="white"/>
<path d="M288.653 84.627C288.994 86.997 289.707 90.5116 290.728 95.5919C291.036 97.1305 293.029 107.054 293.391 108.862C292.343 112.123 291.311 115.422 290.296 118.763C289.961 119.422 289.453 120.259 288.697 121.117C287.951 121.965 287.195 122.57 286.59 122.98C285.601 123.428 284.651 123.909 283.743 124.4C282.463 122.775 281.177 121.031 279.908 119.168C279.481 118.537 279.065 117.91 278.665 117.29L278.59 117.236C280.567 114.304 282.441 110.957 283.889 107.34C285.85 102.438 286.946 97.2925 287.308 95.4839C288.167 91.2027 288.513 87.4829 288.653 84.627Z" fill="#7099ED"/>
<path d="M276.117 133.799C278.343 131.651 281.346 129.216 285.111 127.143C285.343 127.753 285.581 128.357 285.813 128.967C282.583 130.576 279.353 132.185 276.117 133.799Z" fill="#FF8B63"/>
<path d="M279.726 242.643C279.883 244.868 279.769 246.86 279.548 248.55C279.186 248.609 278.657 248.695 278.014 248.782C276.237 249.025 274.875 249.111 274.114 249.154C270.089 249.403 268.08 249.521 266.108 249.559C258.162 249.705 251.026 249.835 250.394 247.562C250.184 246.817 250.74 246.061 250.983 245.737C252.474 243.707 255.883 244.128 257.924 244.031C260.712 243.896 264.623 242.627 269.376 237.434C271.051 237.887 273.514 238.368 276.836 239.437C278.127 239.852 278.883 240.144 279.407 239.976C279.548 240.802 279.656 241.693 279.726 242.643Z" fill="white"/>
<path d="M274.951 137.346C274.789 138.021 274.173 138.307 274.098 138.345L273.93 138.355C273.909 137.837 273.666 137.303 273.223 136.876L273.541 136.514C273.763 136.261 273.995 135.996 274.249 135.721C274.811 136.093 275.092 136.746 274.951 137.346Z" fill="white"/>
<path d="M274.25 135.721C273.997 135.997 273.764 136.261 273.543 136.515L273.224 136.877L272.203 138.054C272.279 137.865 272.349 137.681 272.408 137.508C272.986 135.786 272.9 134.15 272.641 132.892L272.716 132.876C275.207 130.279 278.885 127.062 283.747 124.4C284.654 123.909 285.605 123.428 286.593 122.98C287.485 122.575 288.408 122.197 289.37 121.841C291.363 121.101 293.502 120.486 295.782 120.043C296.236 119.951 296.695 119.871 297.149 119.795C297.084 120.842 297.095 121.911 297.159 122.905H297.105C296.862 122.953 296.614 122.996 296.365 123.045C293.4 123.623 290.699 124.513 288.257 125.588C287.155 126.074 286.107 126.597 285.113 127.143C281.348 129.216 278.345 131.651 276.119 133.799C275.417 134.474 274.796 135.122 274.25 135.721Z" fill="#262626"/>
<path d="M273.222 136.877C273.665 137.303 273.908 137.838 273.93 138.356C273.946 138.669 273.886 138.972 273.741 139.236C273.417 139.819 272.801 140.008 272.633 140.051L272.428 140.041C272.444 139.533 272.325 138.972 272.039 138.426C272.098 138.302 272.153 138.178 272.201 138.054L273.222 136.877Z" fill="#FF8B63"/>
<path d="M283.746 124.401C278.884 127.062 275.206 130.28 272.715 132.877L272.64 132.893C272.899 134.151 272.985 135.787 272.407 137.509C272.348 137.682 272.278 137.865 272.202 138.054C272.154 138.178 272.1 138.302 272.04 138.427C271.576 139.452 270.938 140.435 270.501 140.338C270.382 140.311 270.268 140.203 270.171 139.96C269.966 139.452 269.842 138.351 269.917 136.164H269.798C268.297 137.892 266.8 139.625 265.299 141.358C264.202 139.382 264.11 137.698 264.127 136.866C264.181 133.838 265.915 131.635 267.011 130.247C268.129 128.822 269.204 127.953 269.469 127.737C271.689 125.907 275.276 122.165 278.593 117.236L278.668 117.29C279.068 117.911 279.484 118.537 279.911 119.169C281.18 121.032 282.466 122.775 283.746 124.401Z" fill="#FF8B63"/>
<path d="M272.429 140.04C272.408 140.731 272.138 141.32 271.684 141.649C271.273 141.946 270.787 141.978 270.447 141.957C270.506 141.303 270.382 140.585 270.145 139.97L270.172 139.959C270.269 140.202 270.382 140.31 270.501 140.337C270.939 140.434 271.576 139.452 272.041 138.426C272.327 138.971 272.446 139.533 272.429 140.04Z" fill="#FF8B63"/>
<path d="M270.444 141.957C270.395 142.567 270.179 143.118 269.747 143.469C268.845 144.209 267.37 143.734 267.111 143.647L266.992 143.545C267.441 143.026 267.883 142.508 268.332 141.99C267.549 140.43 267.457 139.118 268.04 138.632C268.283 138.427 268.629 138.378 268.894 138.454C269.396 138.589 269.855 139.204 270.141 139.971C270.379 140.586 270.503 141.304 270.444 141.957Z" fill="#FF8B63"/>
<path d="M268.397 231.106C270.601 225 271.724 219.909 272.351 216.373C273.404 210.38 273.518 205.991 275.343 197.471C275.878 194.961 276.386 192.92 276.732 191.598C276.332 189.848 276.899 188.385 277.169 187.797C281.253 188.688 285.585 189.508 290.15 190.21C289.577 191.36 288.967 192.785 288.48 194.481C288.048 195.992 287.811 197.364 287.681 198.535C288.21 199.302 288.389 199.933 288.162 200.246C287.967 200.511 287.481 200.522 287.006 200.452C286.72 202.698 286.395 204.976 286.028 207.292C284.397 217.479 282.112 226.879 279.487 235.463C280.086 237.196 280.518 239.172 279.686 239.83C279.6 239.901 279.508 239.944 279.405 239.976C278.882 240.143 278.125 239.852 276.834 239.436C273.512 238.367 271.049 237.887 269.374 237.433C267.765 237.001 266.884 236.591 266.684 235.7C266.657 235.565 266.695 235.042 266.792 233.989C266.96 232.196 267.035 231.273 267.327 231.106C267.597 230.955 267.964 230.955 268.397 231.106Z" fill="#7099ED"/>
<path d="M269.918 136.164C269.842 138.35 269.967 139.451 270.172 139.959L270.145 139.97C269.859 139.203 269.399 138.588 268.897 138.453C268.632 138.377 268.287 138.426 268.044 138.631C267.46 139.117 267.552 140.429 268.335 141.989C267.887 142.507 267.444 143.025 266.996 143.544C239.609 175.37 212.216 207.195 184.829 239.016C183.182 240.932 180.778 242.034 178.25 242.034H174.695V241.143C174.695 239.944 175.662 238.978 176.861 238.978C178.125 238.978 179.352 238.703 180.47 238.19C181.593 237.677 182.598 236.932 183.425 235.976C210.714 204.437 238.01 172.897 265.3 141.357C266.801 139.624 268.297 137.891 269.799 136.158H269.918V136.164Z" fill="#262626"/>
<path d="M178.075 242.066V249.236H146.27V245.651L162.172 242.066H178.075Z" fill="#262626"/>
<path d="M292.755 29.209C292.361 30.9636 292.064 33.3013 292.377 35.9899C293.047 41.7342 296.672 50.518 302.846 50.8905C302.943 50.8959 303.04 50.9013 303.138 50.8959C307.475 50.9715 310.889 46.8414 311.802 45.6591" stroke="#262626" stroke-miterlimit="10"/>
<path d="M303.133 50.8906C303.133 50.8906 303.133 50.896 303.138 50.896C303.678 51.9056 304.273 53.2175 304.726 54.7993C305.239 56.6133 305.423 58.2276 305.466 59.4963C305.472 59.5719 305.477 59.6421 305.477 59.7122" stroke="#262626" stroke-miterlimit="10"/>
<path d="M317.797 25.6237C317.64 25.2944 317.462 24.9759 317.273 24.6573C313.983 19.1992 307.539 17.6605 302.764 18.4757C299.166 19.0912 293.953 21.5854 292.851 26.0826C292.543 27.3351 292.63 28.4527 292.754 29.2085C293.019 28.3987 293.775 27.902 294.515 27.9884C295.358 28.0802 295.757 28.8846 295.785 28.9386C296.022 28.7334 299.884 25.5805 304.708 27.1138C309.046 28.4959 310.531 32.5234 310.693 32.9769C310.834 32.8041 311.725 31.7405 312.989 31.7891C314.534 31.8539 315.431 33.5329 315.69 34.5641C316.09 36.1945 315.328 38.0139 313.783 39.2395C314.118 40.0817 314.448 40.9239 314.783 41.7661C316.884 39.7254 318.24 37.1933 318.823 34.5317" stroke="#262626" stroke-miterlimit="10"/>
<path d="M315.945 38.6719C315.389 39.7732 315.022 40.8206 314.784 41.7654C314.39 43.3148 314.33 44.5889 314.341 45.4042C314.39 49.4047 316.183 53.9504 319.791 56.4015C320.191 56.6714 320.553 56.8766 320.866 57.0331C321.25 57.2275 321.574 57.3571 321.822 57.4704C322.163 57.6216 322.498 57.7998 322.827 57.9995C330.228 62.5021 333.755 78.4555 339.87 98.4202C339.913 98.5606 339.967 98.7387 339.989 98.7981C338.843 100.364 337.369 102.135 335.5 103.922C332.993 106.319 330.514 108.035 328.461 109.25" stroke="#262626" stroke-miterlimit="10"/>
<path d="M319.471 72.8477C318.644 73.4631 317.542 74.4997 317.013 76.0491C316.138 78.619 317.343 81.0322 318.936 84.3795C320.076 86.7765 321.832 90.5233 324.035 95.5172" stroke="#262626" stroke-miterlimit="10"/>
<path d="M321.826 96.8926C321.556 97.0815 321.265 97.2867 320.968 97.5134C318.656 99.241 314.118 103.155 308.457 108.532" stroke="#262626" stroke-miterlimit="10"/>
<path d="M328.017 93.7773C327.169 94.0581 325.921 94.5278 324.49 95.2728C324.376 95.3268 324.225 95.4078 324.036 95.5158C323.534 95.7911 322.761 96.2446 321.832 96.8924" stroke="#262626" stroke-miterlimit="10"/>
<path d="M322.828 58C321.667 59.4739 320.095 61.6334 318.512 64.4084C316.157 68.5384 313.208 73.7105 312.846 80.5345C312.765 82.111 312.214 92.9841 318.226 96.0776C319.555 96.7579 320.878 96.8928 321.829 96.8928H321.834" stroke="#262626" stroke-miterlimit="10"/>
<path d="M311.136 108.835C310.434 108.7 309.526 108.57 308.456 108.533C307.506 108.5 306.425 108.543 305.259 108.727C303.714 108.97 302.369 109.18 301.094 110.012C297.999 112.009 297.529 116.161 297.242 118.661C297.199 119.033 297.167 119.411 297.145 119.794C297.08 120.842 297.091 121.911 297.156 122.904C297.329 125.344 297.869 127.326 298.636 127.418C299.16 127.482 299.711 126.64 300.132 125.814C301.223 125.431 302.18 125.209 302.909 125.069C304.146 124.832 304.897 124.686 305.901 124.772C307.246 124.886 307.414 125.269 307.997 125.101C308.818 124.864 309.056 123.946 309.461 122.753C309.618 122.278 309.807 121.76 310.066 121.22C310.315 120.707 310.601 120.243 310.903 119.821C312.303 117.883 314.139 116.836 314.874 116.415C315.76 115.913 316.278 115.783 320.643 114.817C323.744 114.131 325.44 113.764 326.417 113.505C327.492 113.219 327.692 113.073 327.908 112.787C328.589 111.901 328.702 110.649 328.454 109.251C327.968 106.449 326.05 103.064 324.386 100.931C323.176 99.3871 321.934 98.2695 320.967 97.5137" stroke="#262626" stroke-miterlimit="10"/>
<path d="M313.27 110.865C313.507 110.989 313.853 111.222 314.128 111.61C314.831 112.604 314.501 113.781 314.447 113.959" stroke="#262626" stroke-miterlimit="10"/>
<path d="M268.47 141.832C268.427 141.886 268.379 141.935 268.335 141.989C267.887 142.507 267.444 143.025 266.996 143.544C239.609 175.37 212.216 207.195 184.829 239.016C183.182 240.932 180.778 242.034 178.25 242.034H174.695V241.143C174.695 239.944 175.662 238.978 176.861 238.978C178.125 238.978 179.352 238.703 180.47 238.19C181.593 237.677 182.598 236.932 183.425 235.976C210.714 204.437 238.01 172.897 265.3 141.357C266.801 139.624 268.297 137.891 269.799 136.158" stroke="#262626" stroke-miterlimit="10"/>
<path d="M297.104 122.91C296.861 122.953 296.612 122.997 296.364 123.045C293.398 123.623 290.697 124.514 288.256 125.588C287.154 126.074 286.106 126.598 285.112 127.143C281.347 129.216 278.343 131.651 276.118 133.8C275.416 134.474 274.794 135.122 274.249 135.721C273.995 135.997 273.763 136.261 273.541 136.515L273.222 136.877L272.202 138.054L272.137 138.129" stroke="#262626" stroke-miterlimit="10"/>
<path d="M310.907 119.822C316.536 120.729 321.948 122.716 326.729 125.653C329.975 127.65 332.93 130.08 335.464 132.909C345.792 144.452 348.417 163.072 342.864 185.347C340.784 193.672 337.473 200.502 334.545 206.521C329.84 216.212 326.124 223.862 329.003 233.591C330.089 237.251 331.774 239.88 334.162 241.619C335.15 242.342 336.306 242.931 337.576 243.379C339.164 243.946 340.936 244.297 342.794 244.415C345.732 244.61 348.892 244.232 351.89 243.255C353.419 242.758 354.807 242.132 356.044 241.408C357.946 240.302 359.475 238.946 360.555 237.419C361.16 236.566 361.625 235.653 361.927 234.703C363.196 230.735 361.56 226.513 360.053 223.776C359.658 223.063 359.88 222.172 360.571 221.735C360.825 221.573 361.106 221.498 361.387 221.498C361.927 221.498 362.451 221.784 362.732 222.297C364.514 225.53 366.454 230.616 364.844 235.632C364.65 236.242 364.406 236.841 364.109 237.419C363.391 238.865 362.381 240.204 361.122 241.408C360.701 241.813 360.258 242.197 359.783 242.569C357.865 244.064 355.52 245.29 352.841 246.165C350.011 247.088 347.083 247.541 344.269 247.541C342.643 247.541 341.049 247.39 339.537 247.088C336.82 246.559 334.351 245.549 332.352 244.091C329.403 241.937 327.35 238.79 326.065 234.46C322.85 223.592 326.994 215.062 331.79 205.188C334.648 199.298 337.889 192.625 339.893 184.608C345.192 163.347 342.81 145.709 333.184 134.95C331.32 132.866 329.181 131.014 326.832 129.411C321.754 125.934 315.709 123.634 309.465 122.754" stroke="#262626" stroke-miterlimit="10"/>
<path d="M272.715 132.876C275.205 130.279 278.884 127.062 283.745 124.4C284.653 123.909 285.604 123.428 286.592 122.98C287.483 122.575 288.407 122.197 289.369 121.841C291.362 121.101 293.501 120.486 295.78 120.043C296.234 119.951 296.693 119.871 297.147 119.795" stroke="#262626" stroke-miterlimit="10"/>
<path d="M301.929 62.1405C299.39 64.3 296.506 67.3989 294.259 71.6693C292.795 74.4497 291.941 77.0789 291.434 79.26C293.362 78.4556 295.555 77.6728 297.997 77.0087C302.561 75.7778 306.688 75.3135 310.07 75.1947C311.074 71.1024 313.16 65.3905 317.762 60.1375C318.707 59.0577 319.674 58.0914 320.63 57.2438C320.711 57.1736 320.787 57.1034 320.868 57.0332" stroke="#262626" stroke-miterlimit="10"/>
<path d="M288.655 84.6166C288.455 83.1968 288.391 82.1872 288.482 81.4961C289.779 71.6973 297.028 65.181 298.422 63.9825C301.058 61.7258 303.629 60.3329 305.466 59.4961C304.477 60.1439 303.245 61.0132 301.927 62.1361" stroke="#262626" stroke-miterlimit="10"/>
<path d="M289.369 121.841C289.677 120.81 289.985 119.784 290.298 118.763C291.314 115.422 292.346 112.123 293.394 108.862C293.032 107.054 291.038 97.1305 290.731 95.5919C289.71 90.5116 288.997 86.997 288.656 84.627" stroke="#262626" stroke-miterlimit="10"/>
<path d="M326.831 129.409C327.128 139.721 327.484 150.13 327.911 160.625C328.348 171.412 328.851 182.091 329.407 192.662C326.231 192.753 322.93 192.78 319.506 192.721C315.887 192.662 312.127 192.505 308.254 192.235C307.687 192.197 307.119 192.154 306.552 192.105C300.805 191.663 295.327 191.01 290.152 190.211C285.588 189.509 281.256 188.688 277.172 187.797C275.821 187.506 274.503 187.203 273.207 186.896C274.741 179.148 276.448 171.245 278.333 163.19C281.077 151.49 284.043 140.207 287.165 129.355C287.527 128.092 287.889 126.834 288.256 125.587C288.273 125.544 288.283 125.506 288.294 125.463" stroke="#262626" stroke-miterlimit="10"/>
<path d="M326.418 113.5C326.51 117.544 326.612 121.587 326.726 125.653" stroke="#262626" stroke-miterlimit="10"/>
<path d="M290.152 190.217C289.58 191.361 288.969 192.787 288.483 194.482C288.051 195.994 287.813 197.365 287.684 198.536" stroke="#262626" stroke-miterlimit="10"/>
<path d="M286.455 197.148C286.968 197.634 287.384 198.104 287.682 198.536C288.211 199.303 288.389 199.934 288.162 200.247C287.968 200.512 287.482 200.523 287.006 200.453C286.45 200.366 285.899 200.172 285.812 200.139" stroke="#262626" stroke-miterlimit="10"/>
<path d="M287.008 200.447C286.721 202.699 286.397 204.977 286.03 207.293C284.399 217.48 282.114 226.88 279.488 235.464" stroke="#262626" stroke-miterlimit="10"/>
<path d="M277.17 187.797C276.899 188.385 276.332 189.848 276.732 191.598C276.883 192.262 277.137 192.796 277.369 193.196" stroke="#262626" stroke-miterlimit="10"/>
<path d="M276.733 191.598C276.388 192.92 275.88 194.961 275.345 197.472C273.519 205.991 273.406 210.38 272.353 216.373C271.726 219.909 270.602 225 268.398 231.106" stroke="#262626" stroke-miterlimit="10"/>
<path d="M271.924 234.098C270.644 232.49 269.358 231.442 268.397 231.108C267.964 230.956 267.597 230.956 267.327 231.108C267.035 231.275 266.96 232.198 266.792 233.99C266.695 235.043 266.657 235.567 266.684 235.702C266.884 236.593 267.765 237.003 269.374 237.435C271.049 237.888 273.512 238.369 276.834 239.438C278.125 239.854 278.882 240.145 279.405 239.978C279.508 239.945 279.6 239.902 279.686 239.832C280.518 239.173 280.086 237.197 279.487 235.47C279.206 234.655 278.892 233.899 278.655 233.353" stroke="#262626" stroke-miterlimit="10"/>
<path d="M276.309 229.4C276.562 229.811 276.914 230.297 277.373 230.788C277.902 231.349 278.431 231.77 278.869 232.067" stroke="#262626" stroke-miterlimit="10"/>
<path d="M284.102 192.025C284.782 192.77 285.457 193.521 286.133 194.266" stroke="#262626" stroke-miterlimit="10"/>
<path d="M281.434 196.404C282.357 196.761 283.286 197.117 284.21 197.473" stroke="#262626" stroke-miterlimit="10"/>
<path d="M279.407 239.976C279.548 240.802 279.656 241.693 279.726 242.643C279.883 244.868 279.769 246.86 279.548 248.55C279.186 248.609 278.657 248.695 278.014 248.782C276.237 249.025 274.875 249.111 274.114 249.154C270.089 249.403 268.08 249.521 266.108 249.559C258.162 249.705 251.026 249.835 250.394 247.562C250.184 246.817 250.74 246.061 250.983 245.737C252.474 243.707 255.883 244.128 257.924 244.031C260.712 243.896 264.623 242.627 269.376 237.434" stroke="#262626" stroke-miterlimit="10"/>
<path d="M306.551 192.111C306.767 196.781 306.934 201.543 307.048 206.386C307.075 207.411 307.096 208.437 307.113 209.468C307.28 218.657 307.242 233.855 307.026 242.86C307.021 243.146 307.01 243.427 307.005 243.702" stroke="#262626" stroke-miterlimit="10"/>
<path d="M319.504 192.721C319.693 198.654 319.833 204.663 319.931 210.747C320.055 218.414 320.104 232.661 320.076 240.09" stroke="#262626" stroke-miterlimit="10"/>
<path d="M318.007 238.238C318.272 238.33 319.563 238.805 320.076 240.09C320.643 241.51 319.99 243.243 319.558 243.27H319.552C319.352 243.281 319.212 242.897 319.077 242.654C318.132 240.873 314.566 240.101 311.806 240.689C309.17 241.256 307.576 243 307.004 243.702" stroke="#262626" stroke-miterlimit="10"/>
<path d="M311.171 237.883C310.68 238.099 310.107 238.417 309.535 238.882C307.914 240.199 307.282 241.927 307.028 242.86C307.007 242.947 306.985 243.022 306.969 243.093" stroke="#262626" stroke-miterlimit="10"/>
<path d="M319.516 242.92C319.527 243.033 319.543 243.147 319.56 243.271C319.716 244.642 319.954 246.64 320.289 249.058C320.77 252.541 320.937 253.248 320.451 254.036C319.511 255.553 317.172 255.623 312.526 255.699C307.297 255.785 304.661 255.796 303.711 254.257C302.836 252.843 303.808 250.565 304.672 248.438C305.023 247.579 305.51 246.624 306.439 244.81C306.638 244.41 306.833 244.038 307.006 243.708C307.249 243.233 307.46 242.839 307.627 242.531" stroke="#262626" stroke-miterlimit="10"/>
<path d="M314.238 198.697C314.692 200.085 315.173 201.488 315.681 202.914C316.259 204.555 316.847 206.158 317.442 207.719" stroke="#262626" stroke-miterlimit="10"/>
<path d="M308.36 202.277C307.922 203.643 307.484 205.015 307.047 206.386" stroke="#262626" stroke-miterlimit="10"/>
<path d="M278.668 117.289C279.068 117.91 279.484 118.536 279.91 119.168C281.18 121.03 282.465 122.774 283.746 124.399" stroke="#262626" stroke-miterlimit="10"/>
<path d="M288.656 84.6172V84.628C288.516 87.4839 288.17 91.2037 287.311 95.4849C286.949 97.2935 285.853 102.439 283.892 107.341C282.444 110.958 280.57 114.305 278.593 117.237C275.276 122.166 271.689 125.907 269.469 127.737C269.204 127.953 268.129 128.822 267.011 130.248C265.915 131.635 264.181 133.838 264.127 136.867C264.11 137.698 264.202 139.382 265.299 141.358C265.315 141.391 265.331 141.429 265.353 141.461" stroke="#262626" stroke-miterlimit="10"/>
<path d="M286.559 107.766C286.775 107.717 288.552 107.339 289.875 108.516C290.459 109.035 290.718 109.65 290.837 110.012" stroke="#262626" stroke-miterlimit="10"/>
<path d="M301.926 62.1354C300.748 64.1816 300.413 65.5097 300.932 66.1197C302.218 67.6368 308.786 64.6783 320.627 57.2441" stroke="#262626" stroke-miterlimit="10"/>
<path d="M272.137 131.154C272.299 131.575 272.494 132.169 272.639 132.893C272.899 134.151 272.985 135.786 272.407 137.509C272.348 137.681 272.277 137.865 272.202 138.054C272.153 138.178 272.099 138.302 272.04 138.426C271.575 139.452 270.938 140.435 270.5 140.338C270.381 140.311 270.268 140.203 270.171 139.96C269.965 139.452 269.841 138.351 269.917 136.164C269.933 135.662 269.96 135.095 270.003 134.464" stroke="#262626" stroke-miterlimit="10"/>
<path d="M267.113 143.647C267.373 143.734 268.847 144.209 269.749 143.469C270.181 143.118 270.398 142.567 270.446 141.957C270.506 141.304 270.381 140.586 270.144 139.971C269.857 139.204 269.398 138.589 268.896 138.454C268.631 138.378 268.285 138.427 268.042 138.632C267.459 139.118 267.551 140.43 268.334 141.99C268.361 142.055 268.393 142.119 268.431 142.19" stroke="#262626" stroke-miterlimit="10"/>
<path d="M270.133 141.913C270.203 141.93 270.311 141.946 270.446 141.957C270.786 141.978 271.273 141.946 271.683 141.649C272.137 141.32 272.407 140.731 272.429 140.04C272.445 139.533 272.326 138.971 272.04 138.426C272.023 138.388 272.002 138.35 271.98 138.312" stroke="#262626" stroke-miterlimit="10"/>
<path d="M272.633 140.051C272.8 140.008 273.416 139.819 273.74 139.236C273.886 138.972 273.945 138.669 273.929 138.356C273.908 137.838 273.665 137.303 273.222 136.877" stroke="#262626" stroke-miterlimit="10"/>
<path d="M274.098 138.345C274.173 138.307 274.789 138.021 274.951 137.346C275.092 136.746 274.811 136.093 274.249 135.721H274.244" stroke="#262626" stroke-miterlimit="10"/>
<path d="M276.117 133.799C279.353 132.185 282.583 130.576 285.813 128.967C285.581 128.357 285.343 127.753 285.111 127.143" stroke="#262626" stroke-miterlimit="10"/>
<path d="M286.59 122.98C287.195 122.57 287.951 121.965 288.697 121.118C289.453 120.259 289.961 119.422 290.295 118.764" stroke="#262626" stroke-miterlimit="10"/>
<path d="M299 44.3971C299.2 44.3647 299.918 44.2351 300.491 43.5926C301.074 42.9394 301.123 42.1998 301.128 42" stroke="#262626" stroke-miterlimit="10"/>
<path d="M320.819 34.6296C320.398 34.8402 319.976 34.9158 319.56 34.8402C319.296 34.7916 319.052 34.689 318.826 34.5325C317.427 33.5553 316.795 30.5859 317.394 27.2873C317.502 26.7096 317.637 26.1481 317.799 25.6245C318.723 22.6713 320.479 20.6846 322.083 20.9707C323.973 21.3162 324.946 24.7013 324.249 28.529C324.082 29.4468 323.833 30.3106 323.525 31.088" stroke="#262626" stroke-miterlimit="10"/>
<path d="M321.125 39.6018C320.547 38.6894 320.341 37.0698 320.665 35.3098C320.709 35.0777 320.757 34.8509 320.817 34.6296C321.341 32.5996 322.453 31.1312 323.523 31.088C323.609 31.0826 323.701 31.088 323.788 31.1042C325.052 31.3309 325.7 33.5876 325.235 36.1412C325.127 36.7351 324.971 37.2912 324.776 37.7933" stroke="#262626" stroke-miterlimit="10"/>
<path d="M324.776 37.7934C326.18 38.668 326.829 41.5725 326.24 44.8118C325.57 48.4884 323.555 51.204 321.735 50.8746C319.914 50.5453 318.985 47.2952 319.655 43.6133C319.941 42.0476 320.471 40.6547 321.124 39.602C322.005 38.1767 323.112 37.3615 324.16 37.5504C324.382 37.5882 324.587 37.6746 324.776 37.7934Z" stroke="#262626" stroke-miterlimit="10"/>
<path d="M146.27 249.236H178.075V242.066H162.172L146.27 245.651V249.236Z" stroke="#262626" stroke-miterlimit="10"/>
<path d="M339.096 207.875H338.367V206.347C338.367 198.2 344.974 191.598 353.125 191.598H355.561C363.707 191.598 370.319 198.2 370.319 206.347V207.875H369.59" stroke="#262626" stroke-miterlimit="10"/>
<path d="M339.539 211.865H339.096C338.697 211.865 338.367 211.541 338.367 211.141V208.604C338.367 208.204 338.697 207.875 339.096 207.875H369.59C369.989 207.875 370.319 208.204 370.319 208.604V211.141C370.319 211.541 369.989 211.865 369.59 211.865H369.055" stroke="#262626" stroke-miterlimit="10"/>
<path d="M361.948 237.418H369.591C369.991 237.418 370.32 237.742 370.32 238.141V240.679C370.32 241.078 369.991 241.408 369.591 241.408H360.754" stroke="#262626" stroke-miterlimit="10"/>
<path d="M359.169 241.408H339.096C338.697 241.408 338.367 241.078 338.367 240.679V238.141C338.367 237.742 338.697 237.418 339.096 237.418H361.071" stroke="#262626" stroke-miterlimit="10"/>
<path d="M339.539 237.418V211.865H369.054V237.418" stroke="#262626" stroke-miterlimit="10"/>
<path d="M340.127 241.494C341.607 241.494 342.806 242.687 342.806 244.167C342.806 244.248 342.801 244.334 342.79 244.415C342.671 245.775 341.526 246.844 340.127 246.844C339.943 246.844 339.76 246.823 339.587 246.79C338.366 246.542 337.453 245.462 337.453 244.167C337.453 243.891 337.496 243.627 337.572 243.378C337.907 242.282 338.922 241.494 340.127 241.494Z" stroke="#262626" stroke-miterlimit="10"/>
<path d="M371.728 244.167C371.728 245.646 370.534 246.844 369.054 246.844C367.574 246.844 366.375 245.646 366.375 244.167C366.375 242.687 367.574 241.494 369.054 241.494C370.534 241.494 371.728 242.687 371.728 244.167Z" stroke="#262626" stroke-miterlimit="10"/>
</g>
</g>
</g>
<defs>
<filter id="filter0_d_1091_23220" x="0.6" y="0.6" width="420.8" height="276.8" filterUnits="userSpaceOnUse" color-interpolation-filters="sRGB">
<feFlood flood-opacity="0" result="BackgroundImageFix"/>
<feColorMatrix in="SourceAlpha" type="matrix" values="0 0 0 0 0 0 0 0 0 0 0 0 0 0 0 0 0 0 127 0" result="hardAlpha"/>
<feOffset dy="10"/>
<feGaussianBlur stdDeviation="9.2"/>
<feComposite in2="hardAlpha" operator="out"/>
<feColorMatrix type="matrix" values="0 0 0 0 0 0 0 0 0 0 0 0 0 0 0 0 0 0 0.15 0"/>
<feBlend mode="normal" in2="BackgroundImageFix" result="effect1_dropShadow_1091_23220"/>
<feBlend mode="normal" in="SourceGraphic" in2="effect1_dropShadow_1091_23220" result="shape"/>
</filter>
<clipPath id="clip0_1091_23220">
<rect x="19" y="9" width="384" height="240" rx="32" fill="white"/>
</clipPath>
<clipPath id="clip1_1091_23220">
<rect width="226" height="238" fill="white" transform="translate(146 18)"/>
</clipPath>
</defs>
</svg>
