<svg width="260" height="300" viewBox="0 0 227 253" fill="none" xmlns="http://www.w3.org/2000/svg">
<path d="M122.662 100.001C124.205 90.1678 125.7 82.2835 126.821 76.7178C127.792 71.903 128.524 68.635 127.061 67.4443C124.306 65.1982 116.017 72.0059 113.564 74.085C113.583 77.0361 113.238 81.4934 111.325 86.4079C110.361 88.883 109.215 90.9193 108.148 92.5223C112.986 95.0151 117.821 97.5084 122.659 100.001L122.662 100.001Z" fill="#F4F3F1" stroke="#262626" stroke-miterlimit="10"/>
<path d="M133.814 29.8686C137.43 26.4812 142.931 31.1205 140.494 35.5019C144.969 33.4613 148.851 39.6013 145.208 42.9608C150.103 42.4648 151.988 49.5084 147.499 51.5144C152.335 52.6147 152.039 59.8689 147.14 60.325C151.444 62.9127 148.997 69.6674 144.168 68.5313C147.518 72.3504 143.156 77.9493 138.872 75.3298C140.94 80.0101 135.094 83.8987 131.771 80.0527C132.356 85.1341 125.594 86.9348 123.56 82.2408C122.602 87.2273 115.59 86.7638 115.043 81.6785C112.638 86.0811 106.061 83.4003 107.054 78.4224C103.438 81.8097 97.9371 77.1704 100.374 72.789C95.899 74.8297 92.0173 68.6897 95.6597 65.3302C90.765 65.8261 88.8799 58.7825 93.3691 56.7766C88.5327 55.6762 88.8288 48.422 93.7281 47.9659C89.4244 45.3783 91.8711 38.6235 96.6999 39.7597C93.3505 35.9406 97.7119 30.3417 101.996 32.9612C99.9284 28.2809 105.774 24.3923 109.097 28.2383C108.512 23.1568 115.274 21.3561 117.308 26.0502C118.266 21.0636 125.278 21.5271 125.825 26.6125C128.231 22.2099 134.807 24.8907 133.814 29.8686Z" fill="#FF8B63" stroke="#262626" stroke-linecap="round" stroke-linejoin="round"/>
<path d="M146.959 50.2219C146.556 50.4017 146.319 50.8299 146.37 51.2839C146.408 51.6244 146.602 51.9204 146.878 52.0875C146.971 52.1426 147.071 52.1835 147.178 52.2103C147.572 52.3011 147.935 52.4445 148.252 52.636" stroke="white" stroke-linecap="round" stroke-linejoin="round"/>
<path d="M125.463 27.2532C125.554 27.3073 125.653 27.3481 125.76 27.3747C126.19 27.4746 126.629 27.275 126.842 26.8844C127.294 26.0572 127.958 25.5065 128.763 25.2903C129.607 25.0629 130.558 25.2158 131.367 25.7039C132.648 26.4798 133.231 27.8473 132.926 29.3628C132.838 29.8054 133.036 30.2623 133.42 30.4942C133.804 30.7262 134.282 30.6782 134.604 30.3778C135.706 29.3465 137.129 29.1937 138.41 29.9671C139.221 30.4584 139.821 31.2429 140.053 32.1226C140.277 32.9611 140.152 33.8383 139.693 34.6631C139.475 35.0522 139.528 35.5491 139.826 35.8889C139.9 35.973 139.983 36.0437 140.074 36.0979C140.352 36.2651 140.694 36.2926 140.995 36.157C142.282 35.5704 143.304 35.9018 143.932 36.2816C144.885 36.8578 145.552 37.915 145.675 39.0393C145.756 39.7822 145.633 40.8668 144.588 41.8296C144.263 42.1292 144.166 42.615 144.349 43.0316C144.44 43.2386 144.591 43.4077 144.772 43.5159C144.953 43.6242 145.17 43.679 145.389 43.6578C146.143 43.5804 146.825 43.7247 147.415 44.0811C148.463 44.7155 149.128 46.0282 149.073 47.3475" stroke="white" stroke-linecap="round" stroke-linejoin="round"/>
<path d="M111.822 24.8099C112.884 24.1021 114.303 24.0519 115.35 24.6851C115.939 25.0408 116.397 25.5873 116.708 26.3091C116.799 26.5182 116.949 26.6869 117.133 26.7958C117.316 26.9046 117.526 26.957 117.744 26.9358C118.18 26.8935 118.535 26.5635 118.619 26.1209C118.894 24.6937 119.73 24.0427 120.385 23.7457C121.378 23.2979 122.585 23.3744 123.537 23.9495" stroke="white" stroke-linecap="round" stroke-linejoin="round"/>
<path d="M97.6072 34.675C98.4136 33.6338 99.9984 32.8095 101.811 33.9097C102.194 34.142 102.682 34.0995 103.006 33.7976C103.329 33.4958 103.433 33.0126 103.246 32.5957C102.616 31.1659 102.883 29.7128 103.963 28.7036C104.867 27.8588 106.4 27.3815 107.783 28.2203C108.102 28.4127 108.401 28.6719 108.672 28.9854C108.747 29.0699 108.832 29.1418 108.923 29.1987C109.199 29.366 109.542 29.3961 109.842 29.259C110.242 29.0782 110.48 28.6472 110.427 28.1919" stroke="white" stroke-linecap="round" stroke-linejoin="round"/>
<path d="M93.012 43.0594C93.47 41.8056 94.7283 40.5123 96.771 40.9924C97.2033 41.093 97.6432 40.8971 97.8604 40.5021C98.0775 40.1072 98.0205 39.6086 97.7214 39.2666" stroke="white" stroke-linecap="round" stroke-linejoin="round"/>
<path d="M91.1716 51.9031C91.4662 50.4109 92.5433 49.4358 94.047 49.2956C94.4866 49.2553 94.847 48.9225 94.9326 48.475C95.0207 48.0284 94.8181 47.569 94.4329 47.3358L94.428 47.3342" stroke="white" stroke-linecap="round" stroke-linejoin="round"/>
<path d="M113.866 36.6151C114.052 36.677 114.247 36.5735 114.301 36.3839C114.354 36.1943 114.247 35.9904 114.06 35.9285C113.874 35.8666 113.679 35.9701 113.626 36.1597C113.572 36.3493 113.68 36.5532 113.866 36.6151Z" stroke="#262626" stroke-miterlimit="10"/>
<path d="M114.578 36.7343C114.394 37.0656 113.977 37.1736 113.647 36.9749" stroke="white" stroke-miterlimit="10" stroke-linecap="round"/>
<path d="M118.897 39.662C119.084 39.7239 119.278 39.6204 119.332 39.4308C119.386 39.2411 119.278 39.0373 119.091 38.9754C118.905 38.9135 118.71 39.017 118.657 39.2066C118.603 39.3962 118.711 39.6001 118.897 39.662Z" stroke="#262626" stroke-miterlimit="10"/>
<path d="M119.609 39.7812C119.425 40.1125 119.008 40.2205 118.678 40.0218" stroke="white" stroke-miterlimit="10" stroke-linecap="round"/>
<path d="M123.928 42.7089C124.115 42.7708 124.31 42.6672 124.363 42.4776C124.417 42.288 124.309 42.0841 124.123 42.0222C123.936 41.9603 123.742 42.0639 123.688 42.2535C123.634 42.4431 123.742 42.647 123.928 42.7089Z" stroke="#262626" stroke-miterlimit="10"/>
<path d="M124.641 42.8281C124.456 43.1594 124.039 43.2674 123.709 43.0686" stroke="white" stroke-miterlimit="10" stroke-linecap="round"/>
<path d="M128.96 45.7558C129.146 45.8177 129.341 45.7141 129.394 45.5245C129.448 45.3349 129.34 45.131 129.154 45.0691C128.968 45.0072 128.773 45.1107 128.719 45.3004C128.666 45.49 128.773 45.6939 128.96 45.7558Z" stroke="#262626" stroke-miterlimit="10"/>
<path d="M129.672 45.875C129.488 46.2062 129.071 46.3143 128.741 46.1155" stroke="white" stroke-miterlimit="10" stroke-linecap="round"/>
<path d="M133.991 48.8026C134.177 48.8645 134.372 48.761 134.426 48.5714C134.479 48.3818 134.372 48.1779 134.185 48.116C133.999 48.0541 133.804 48.1576 133.751 48.3472C133.697 48.5368 133.805 48.7407 133.991 48.8026Z" stroke="#262626" stroke-miterlimit="10"/>
<path d="M134.707 48.9199C134.523 49.2512 134.106 49.3592 133.776 49.1604" stroke="white" stroke-miterlimit="10" stroke-linecap="round"/>
<path d="M139.022 51.8456C139.209 51.9075 139.403 51.804 139.457 51.6144C139.511 51.4247 139.403 51.2209 139.216 51.159C139.03 51.0971 138.835 51.2006 138.782 51.3902C138.728 51.5798 138.836 51.7837 139.022 51.8456Z" stroke="#262626" stroke-miterlimit="10"/>
<path d="M139.734 51.9648C139.55 52.2961 139.133 52.4041 138.803 52.2054" stroke="white" stroke-miterlimit="10" stroke-linecap="round"/>
<path d="M111.378 41.1249C111.564 41.1868 111.759 41.0833 111.812 40.8936C111.866 40.704 111.758 40.5001 111.572 40.4382C111.386 40.3764 111.191 40.4799 111.137 40.6695C111.084 40.8591 111.191 41.063 111.378 41.1249Z" stroke="#262626" stroke-miterlimit="10"/>
<path d="M112.09 41.2441C111.906 41.5754 111.489 41.6834 111.159 41.4847" stroke="white" stroke-miterlimit="10" stroke-linecap="round"/>
<path d="M116.409 44.1718C116.595 44.2337 116.79 44.1301 116.844 43.9405C116.897 43.7509 116.79 43.547 116.603 43.4851C116.417 43.4232 116.222 43.5268 116.169 43.7164C116.115 43.906 116.223 44.1099 116.409 44.1718Z" stroke="#262626" stroke-miterlimit="10"/>
<path d="M117.121 44.291C116.937 44.6223 116.52 44.7303 116.19 44.5315" stroke="white" stroke-miterlimit="10" stroke-linecap="round"/>
<path d="M121.444 47.2186C121.631 47.2805 121.825 47.177 121.879 46.9874C121.932 46.7978 121.825 46.5939 121.638 46.532C121.452 46.4701 121.257 46.5736 121.204 46.7632C121.15 46.9529 121.258 47.1567 121.444 47.2186Z" stroke="#262626" stroke-miterlimit="10"/>
<path d="M122.156 47.3379C121.972 47.6691 121.555 47.7772 121.225 47.5784" stroke="white" stroke-miterlimit="10" stroke-linecap="round"/>
<path d="M126.471 50.2636C126.658 50.3255 126.853 50.2219 126.906 50.0323C126.96 49.8427 126.852 49.6388 126.666 49.5769C126.479 49.515 126.285 49.6186 126.231 49.8082C126.177 49.9978 126.285 50.2017 126.471 50.2636Z" stroke="#262626" stroke-miterlimit="10"/>
<path d="M127.184 50.3828C126.999 50.7141 126.582 50.8221 126.252 50.6233" stroke="white" stroke-miterlimit="10" stroke-linecap="round"/>
<path d="M131.507 53.3104C131.693 53.3723 131.888 53.2688 131.941 53.0792C131.995 52.8896 131.887 52.6857 131.701 52.6238C131.514 52.5619 131.32 52.6654 131.266 52.855C131.213 53.0447 131.32 53.2485 131.507 53.3104Z" stroke="#262626" stroke-miterlimit="10"/>
<path d="M132.219 53.4297C132.034 53.7609 131.617 53.869 131.287 53.6702" stroke="white" stroke-miterlimit="10" stroke-linecap="round"/>
<path d="M136.534 56.3554C136.72 56.4173 136.915 56.3137 136.969 56.1241C137.022 55.9345 136.915 55.7306 136.728 55.6687C136.542 55.6068 136.347 55.7104 136.294 55.9C136.24 56.0896 136.348 56.2935 136.534 56.3554Z" stroke="#262626" stroke-miterlimit="10"/>
<path d="M137.246 56.4746C137.062 56.8059 136.645 56.9139 136.315 56.7151" stroke="white" stroke-miterlimit="10" stroke-linecap="round"/>
<path d="M108.889 45.6347C109.076 45.6966 109.27 45.593 109.324 45.4034C109.378 45.2138 109.27 45.0099 109.084 44.948C108.897 44.8861 108.703 44.9896 108.649 45.1793C108.595 45.3689 108.703 45.5728 108.889 45.6347Z" stroke="#262626" stroke-miterlimit="10"/>
<path d="M109.602 45.7539C109.417 46.0851 109 46.1932 108.67 45.9944" stroke="white" stroke-miterlimit="10" stroke-linecap="round"/>
<path d="M113.921 48.6815C114.107 48.7434 114.302 48.6399 114.355 48.4503C114.409 48.2607 114.301 48.0568 114.115 47.9949C113.928 47.933 113.734 48.0365 113.68 48.2261C113.627 48.4157 113.734 48.6196 113.921 48.6815Z" stroke="#262626" stroke-miterlimit="10"/>
<path d="M114.633 48.8007C114.448 49.132 114.032 49.2401 113.702 49.0413" stroke="white" stroke-miterlimit="10" stroke-linecap="round"/>
<path d="M118.956 51.7265C119.142 51.7884 119.337 51.6848 119.391 51.4952C119.444 51.3056 119.336 51.1017 119.15 51.0398C118.964 50.9779 118.769 51.0814 118.715 51.2711C118.662 51.4607 118.769 51.6646 118.956 51.7265Z" stroke="#262626" stroke-miterlimit="10"/>
<path d="M119.668 51.8457C119.484 52.1769 119.067 52.285 118.737 52.0862" stroke="white" stroke-miterlimit="10" stroke-linecap="round"/>
<path d="M123.983 54.7733C124.17 54.8352 124.364 54.7317 124.418 54.5421C124.471 54.3525 124.364 54.1486 124.177 54.0867C123.991 54.0248 123.796 54.1283 123.743 54.3179C123.689 54.5075 123.797 54.7114 123.983 54.7733Z" stroke="#262626" stroke-miterlimit="10"/>
<path d="M124.695 54.8925C124.511 55.2238 124.094 55.3318 123.764 55.1331" stroke="white" stroke-miterlimit="10" stroke-linecap="round"/>
<path d="M129.018 57.8202C129.205 57.8821 129.399 57.7786 129.453 57.589C129.507 57.3994 129.399 57.1955 129.213 57.1336C129.026 57.0717 128.832 57.1752 128.778 57.3648C128.724 57.5544 128.832 57.7583 129.018 57.8202Z" stroke="#262626" stroke-miterlimit="10"/>
<path d="M129.731 57.9394C129.546 58.2707 129.129 58.3787 128.799 58.18" stroke="white" stroke-miterlimit="10" stroke-linecap="round"/>
<path d="M134.05 60.8671C134.236 60.929 134.431 60.8254 134.484 60.6358C134.538 60.4462 134.43 60.2423 134.244 60.1804C134.057 60.1185 133.863 60.2221 133.809 60.4117C133.756 60.6013 133.863 60.8052 134.05 60.8671Z" stroke="#262626" stroke-miterlimit="10"/>
<path d="M134.762 60.9863C134.577 61.3176 134.16 61.4256 133.83 61.2268" stroke="white" stroke-miterlimit="10" stroke-linecap="round"/>
<path d="M106.405 50.1444C106.591 50.2063 106.786 50.1028 106.84 49.9132C106.893 49.7236 106.786 49.5197 106.599 49.4578C106.413 49.3959 106.218 49.4994 106.165 49.689C106.111 49.8786 106.219 50.0825 106.405 50.1444Z" stroke="#262626" stroke-miterlimit="10"/>
<path d="M107.117 50.2636C106.933 50.5949 106.516 50.7029 106.186 50.5042" stroke="white" stroke-miterlimit="10" stroke-linecap="round"/>
<path d="M111.436 53.1874C111.623 53.2493 111.817 53.1458 111.871 52.9562C111.925 52.7665 111.817 52.5626 111.631 52.5008C111.444 52.4389 111.249 52.5424 111.196 52.732C111.142 52.9216 111.25 53.1255 111.436 53.1874Z" stroke="#262626" stroke-miterlimit="10"/>
<path d="M112.149 53.3066C111.964 53.6379 111.547 53.7459 111.217 53.5472" stroke="white" stroke-miterlimit="10" stroke-linecap="round"/>
<path d="M116.468 56.2343C116.654 56.2962 116.849 56.1926 116.902 56.003C116.956 55.8134 116.848 55.6095 116.662 55.5476C116.475 55.4857 116.281 55.5893 116.227 55.7789C116.173 55.9685 116.281 56.1724 116.468 56.2343Z" stroke="#262626" stroke-miterlimit="10"/>
<path d="M117.18 56.3535C116.995 56.6848 116.578 56.7928 116.248 56.594" stroke="white" stroke-miterlimit="10" stroke-linecap="round"/>
<path d="M121.499 59.2811C121.685 59.343 121.88 59.2395 121.933 59.0499C121.987 58.8603 121.879 58.6564 121.693 58.5945C121.507 58.5326 121.312 58.6361 121.258 58.8257C121.205 59.0154 121.312 59.2192 121.499 59.2811Z" stroke="#262626" stroke-miterlimit="10"/>
<path d="M122.215 59.4023C122.031 59.7336 121.614 59.8416 121.284 59.6429" stroke="white" stroke-miterlimit="10" stroke-linecap="round"/>
<path d="M126.53 62.328C126.716 62.3899 126.911 62.2864 126.965 62.0968C127.018 61.9072 126.911 61.7033 126.724 61.6414C126.538 61.5795 126.343 61.683 126.29 61.8726C126.236 62.0622 126.344 62.2661 126.53 62.328Z" stroke="#262626" stroke-miterlimit="10"/>
<path d="M127.242 62.4472C127.058 62.7785 126.641 62.8865 126.311 62.6878" stroke="white" stroke-miterlimit="10" stroke-linecap="round"/>
<path d="M131.565 65.3729C131.752 65.4348 131.946 65.3313 132 65.1417C132.054 64.9521 131.946 64.7482 131.759 64.6863C131.573 64.6244 131.378 64.7279 131.325 64.9175C131.271 65.1072 131.379 65.311 131.565 65.3729Z" stroke="#262626" stroke-miterlimit="10"/>
<path d="M132.277 65.4922C132.093 65.8234 131.676 65.9315 131.346 65.7327" stroke="white" stroke-miterlimit="10" stroke-linecap="round"/>
<path d="M103.917 54.6503C104.103 54.7122 104.298 54.6087 104.351 54.419C104.405 54.2294 104.297 54.0255 104.111 53.9636C103.925 53.9017 103.73 54.0053 103.676 54.1949C103.623 54.3845 103.73 54.5884 103.917 54.6503Z" stroke="#262626" stroke-miterlimit="10"/>
<path d="M104.629 54.7695C104.445 55.1008 104.028 55.2088 103.698 55.01" stroke="white" stroke-miterlimit="10" stroke-linecap="round"/>
<path d="M108.948 57.6972C109.134 57.7591 109.329 57.6555 109.383 57.4659C109.436 57.2763 109.329 57.0724 109.142 57.0105C108.956 56.9486 108.761 57.0521 108.708 57.2418C108.654 57.4314 108.762 57.6353 108.948 57.6972Z" stroke="#262626" stroke-miterlimit="10"/>
<path d="M109.66 57.8164C109.476 58.1476 109.059 58.2557 108.729 58.0569" stroke="white" stroke-miterlimit="10" stroke-linecap="round"/>
<path d="M113.979 60.744C114.166 60.8059 114.36 60.7024 114.414 60.5128C114.468 60.3232 114.36 60.1193 114.174 60.0574C113.987 59.9955 113.792 60.099 113.739 60.2886C113.685 60.4782 113.793 60.6821 113.979 60.744Z" stroke="#262626" stroke-miterlimit="10"/>
<path d="M114.691 60.8632C114.507 61.1945 114.09 61.3026 113.76 61.1038" stroke="white" stroke-miterlimit="10" stroke-linecap="round"/>
<path d="M119.011 63.7909C119.197 63.8528 119.392 63.7493 119.445 63.5597C119.499 63.3701 119.391 63.1662 119.205 63.1043C119.018 63.0424 118.824 63.1459 118.77 63.3355C118.716 63.5251 118.824 63.729 119.011 63.7909Z" stroke="#262626" stroke-miterlimit="10"/>
<path d="M119.723 63.9101C119.538 64.2414 119.121 64.3494 118.791 64.1507" stroke="white" stroke-miterlimit="10" stroke-linecap="round"/>
<path d="M124.042 66.8339C124.228 66.8958 124.423 66.7922 124.476 66.6026C124.53 66.413 124.422 66.2091 124.236 66.1472C124.05 66.0853 123.855 66.1889 123.801 66.3785C123.748 66.5681 123.855 66.772 124.042 66.8339Z" stroke="#262626" stroke-miterlimit="10"/>
<path d="M124.754 66.9531C124.57 67.2844 124.153 67.3924 123.823 67.1936" stroke="white" stroke-miterlimit="10" stroke-linecap="round"/>
<path d="M129.073 69.8808C129.259 69.9427 129.454 69.8391 129.508 69.6495C129.561 69.4599 129.454 69.256 129.267 69.1941C129.081 69.1322 128.886 69.2357 128.833 69.4254C128.779 69.615 128.887 69.8189 129.073 69.8808Z" stroke="#262626" stroke-miterlimit="10"/>
<path d="M129.785 70C129.601 70.3312 129.184 70.4393 128.854 70.2405" stroke="white" stroke-miterlimit="10" stroke-linecap="round"/>
<path d="M101.432 59.1601C101.619 59.2219 101.813 59.1184 101.867 58.9288C101.921 58.7392 101.813 58.5353 101.627 58.4734C101.44 58.4115 101.246 58.515 101.192 58.7046C101.138 58.8943 101.246 59.0982 101.432 59.1601Z" stroke="#262626" stroke-miterlimit="10"/>
<path d="M102.145 59.2793C101.96 59.6105 101.543 59.7186 101.213 59.5198" stroke="white" stroke-miterlimit="10" stroke-linecap="round"/>
<path d="M106.464 62.2069C106.65 62.2688 106.845 62.1653 106.898 61.9757C106.952 61.7861 106.844 61.5822 106.658 61.5203C106.471 61.4584 106.277 61.5619 106.223 61.7515C106.17 61.9411 106.277 62.145 106.464 62.2069Z" stroke="#262626" stroke-miterlimit="10"/>
<path d="M107.176 62.3261C106.991 62.6574 106.575 62.7654 106.244 62.5667" stroke="white" stroke-miterlimit="10" stroke-linecap="round"/>
<path d="M111.495 65.2538C111.681 65.3157 111.876 65.2122 111.93 65.0226C111.983 64.8329 111.876 64.6291 111.689 64.5672C111.503 64.5053 111.308 64.6088 111.254 64.7984C111.201 64.988 111.308 65.1919 111.495 65.2538Z" stroke="#262626" stroke-miterlimit="10"/>
<path d="M112.207 65.373C112.023 65.7043 111.606 65.8123 111.276 65.6136" stroke="white" stroke-miterlimit="10" stroke-linecap="round"/>
<path d="M116.526 68.2987C116.713 68.3606 116.907 68.2571 116.961 68.0675C117.014 67.8779 116.907 67.674 116.72 67.6121C116.534 67.5502 116.339 67.6537 116.286 67.8433C116.232 68.0329 116.34 68.2368 116.526 68.2987Z" stroke="#262626" stroke-miterlimit="10"/>
<path d="M117.238 68.4179C117.054 68.7492 116.637 68.8572 116.307 68.6585" stroke="white" stroke-miterlimit="10" stroke-linecap="round"/>
<path d="M121.557 71.3436C121.744 71.4055 121.938 71.302 121.992 71.1124C122.046 70.9228 121.938 70.7189 121.752 70.657C121.565 70.5951 121.371 70.6986 121.317 70.8882C121.263 71.0779 121.371 71.2817 121.557 71.3436Z" stroke="#262626" stroke-miterlimit="10"/>
<path d="M122.27 71.4629C122.085 71.7941 121.668 71.9022 121.338 71.7034" stroke="white" stroke-miterlimit="10" stroke-linecap="round"/>
<path d="M126.589 74.3905C126.775 74.4524 126.97 74.3489 127.023 74.1593C127.077 73.9697 126.969 73.7658 126.783 73.7039C126.596 73.642 126.402 73.7455 126.348 73.9351C126.295 74.1247 126.402 74.3286 126.589 74.3905Z" stroke="#262626" stroke-miterlimit="10"/>
<path d="M127.301 74.5097C127.116 74.841 126.7 74.949 126.369 74.7503" stroke="white" stroke-miterlimit="10" stroke-linecap="round"/>
<path d="M137.307 66.4867C138.076 67.6771 138.296 69.3006 137.826 70.6033C136.989 72.9197 133.868 74.5084 130.424 73.7072C130.232 73.4853 129.998 73.2607 129.701 73.0199C127.821 71.512 125.765 71.3797 123.353 71.1741C112.6 70.2594 113.738 69.5439 111.144 69.7946C105.831 70.3109 101.738 73.761 93.5554 80.6656C90.7325 83.0487 88.3222 85.0955 86.4873 86.9505C86.5405 86.758 86.6276 86.4543 86.754 86.0908C88.268 81.7375 91.238 80.1676 94.9893 76.3267C96.0843 75.2052 98.102 72.4874 100.712 69.3708C104.587 64.7449 105.488 63.9137 106.804 63.1414C108.949 61.8854 110.133 62.417 116.978 62.6554C121.926 62.8278 128.207 62.7908 133.829 64.2826C134.72 64.5196 136.338 64.9893 137.307 66.4867Z" fill="#F4F3F1"/>
<path d="M117.643 128.156C117.658 128.28 117.676 128.403 117.692 128.526C117.689 128.527 117.69 128.529 117.687 128.53C117.675 128.408 117.661 128.282 117.643 128.156Z" fill="#F4F3F1"/>
<path d="M78.3295 217.029C83.8496 194.471 88.2446 170.136 90.8222 144.16C91.2166 140.207 91.5582 136.291 91.8552 132.413C89.1071 124.511 88.2305 121.187 88.2604 120.206C88.2708 119.941 88.3295 118.467 88.0062 116.524C87.9315 116.064 87.8243 115.575 87.6704 115.038C86.6737 111.528 84.9811 110.335 84.3525 106.434C84.2512 105.808 84.2926 105.83 84.2067 104.395C84.191 104.131 84.1702 103.816 84.1441 103.438C84.0415 101.986 83.3271 95.6899 83.2611 94.8679C83.0708 92.5398 84.538 90.2393 87.1883 87.5439C89.0463 85.6545 91.4871 83.5698 94.3457 81.1425C102.632 74.1097 106.776 70.5956 112.156 70.0698C114.784 69.8144 113.631 70.5432 124.52 71.4748C126.962 71.6843 129.045 71.819 130.948 73.3549C131.249 73.6002 131.486 73.829 131.681 74.0549C132.586 75.107 132.616 76.0939 134.459 78.2276C136.972 81.1336 138.781 81.4595 138.833 83.2388C138.883 84.9542 137.249 86.2266 137.058 86.3706C134.251 88.4921 130.293 86.0837 130.106 85.9663C128.258 84.8007 127.394 83.0748 127.023 82.1644C123.469 83.1113 120.57 82.6791 117.716 82.4423C115.805 82.284 113.187 82.1529 109.952 82.2526L109.951 82.4516C109.243 83.7526 108.444 85.1166 107.537 86.5207C107.34 86.8248 107.142 87.1237 106.945 87.4195C106.15 88.6024 105.354 89.7024 104.57 90.7158C104.778 90.9655 105.03 91.3328 105.225 91.8247C105.331 92.0966 105.397 92.349 105.44 92.5668C107.267 91.7786 108.82 91.1039 110.168 90.5418C115.176 88.4449 117.294 87.8911 119.659 88.7646C121.956 89.612 123.3 91.367 125.331 94.0213C127.025 96.2298 128.961 98.7571 128.939 102.339C128.922 104.818 127.977 106.771 127.358 107.827C128.141 108.518 128.603 109.019 128.839 109.522C130.312 112.679 128.738 118.067 125.284 119.556C125.05 119.657 123.834 120.159 122.437 119.981C122.19 121.294 121.665 123.217 120.464 125.271C119.666 126.64 118.787 127.688 118.046 128.447C118.031 128.324 118.013 128.202 117.998 128.08C118.016 128.204 118.029 128.33 118.041 128.45C118.044 128.45 118.043 128.447 118.046 128.447C118.994 135.843 119.817 143.479 120.485 151.345C122.365 173.503 122.747 194.356 122.157 213.622C118.768 213.475 113.98 213.387 108.224 213.67C107.278 213.716 103.716 213.899 96.3659 214.692C91.8198 215.181 85.6765 215.92 78.3295 217.029Z" fill="#F4F3F1"/>
<path d="M104.53 91.5292C104.337 91.0403 104.086 90.6752 103.88 90.4271C104.658 89.4199 105.449 88.3265 106.239 87.1508C106.736 87.7567 107.328 88.4058 108.028 89.0601C108.511 89.5094 108.985 89.9046 109.439 90.2541C108.101 90.8128 106.558 91.4834 104.744 92.2668C104.701 92.0503 104.636 91.7994 104.53 91.5292Z" fill="#F4F3F1"/>
<path d="M92.3859 132.459C92.3859 132.459 92.3844 132.465 92.385 132.468C92.0884 136.343 91.7471 140.257 91.3531 144.208C88.778 170.168 84.3874 194.489 78.8729 217.033C86.2126 215.924 92.3496 215.186 96.8912 214.698C104.234 213.905 107.793 213.722 108.737 213.676C114.488 213.393 119.271 213.481 122.657 213.628C123.246 194.374 122.864 173.534 120.986 151.389C120.319 143.528 119.497 135.896 118.549 128.504C118.534 128.382 118.517 128.26 118.502 128.137" stroke="#262626" stroke-miterlimit="10" stroke-linecap="round"/>
<path d="M111.044 150.252C113.416 149.1 114.85 147.64 115.701 146.547C118.677 142.717 119.299 137.189 117.717 131.588C117.289 130.068 116.696 128.541 115.945 127.042" stroke="#262626" stroke-miterlimit="10" stroke-linecap="round"/>
<path d="M116.182 124.226C116.66 124.953 117.395 126.295 117.657 128.149C117.675 128.274 117.689 128.4 117.701 128.522C117.832 129.813 117.682 130.896 117.528 131.62" stroke="#262626" stroke-miterlimit="10" stroke-linecap="round"/>
<path d="M109.194 123.365C109.568 123.275 110.468 123.004 111.221 122.159C112.418 120.815 112.255 119.125 112.225 118.868" stroke="#262626" stroke-miterlimit="10" stroke-linecap="round"/>
<path d="M121.913 120.039C121.316 119.964 120.683 119.76 120.081 119.345C118.295 118.12 118.09 115.949 118.062 115.61" stroke="#262626" stroke-miterlimit="10" stroke-linecap="round"/>
<path d="M100.434 107.315C101.852 107.284 104.166 107.129 106.917 106.413C113.757 104.632 115.964 101.293 119.555 102.37C120.418 102.628 121.917 103.856 124.917 106.313C125.653 106.916 126.25 107.405 126.726 107.826C127.503 108.51 127.961 109.007 128.195 109.506C129.656 112.637 128.095 117.979 124.671 119.456C124.439 119.556 123.233 120.054 121.848 119.878" stroke="#262626" stroke-miterlimit="10" stroke-linecap="round"/>
<path d="M117.613 128.528C117.613 128.528 117.615 128.525 117.617 128.524C118.356 127.768 119.231 126.723 120.027 125.357C121.223 123.308 121.746 121.391 121.993 120.081" stroke="#262626" stroke-miterlimit="10" stroke-linecap="round"/>
<path d="M126.585 107.605C127.199 106.558 128.135 104.623 128.153 102.166C128.175 98.6168 126.256 96.1124 124.577 93.924C122.564 91.2937 121.232 89.5547 118.956 88.7149C116.612 87.8493 114.513 88.3981 109.55 90.476C108.214 91.033 106.674 91.7016 104.864 92.4826C104.251 92.7461 103.608 93.0225 102.933 93.3121C98.9027 95.0391 95.7073 96.3679 94.0194 97.0626" stroke="#262626" stroke-miterlimit="10" stroke-linecap="round"/>
<path d="M102.719 91.8131C103.09 91.3601 103.468 90.8895 103.846 90.3947C104.625 89.3863 105.417 88.2916 106.207 87.1145C106.402 86.8202 106.599 86.5227 106.795 86.2201C107.696 84.8229 108.491 83.4656 109.194 82.171" stroke="#262626" stroke-miterlimit="10" stroke-linecap="round"/>
<path d="M108.047 82.1348C108.407 82.12 108.762 82.1064 109.107 82.0953C112.297 81.9981 114.879 82.1258 116.763 82.2801C119.576 82.5109 122.435 82.9322 125.939 82.0093C126.236 81.9313 126.537 81.8446 126.843 81.7462C127.139 81.6526 127.383 81.5643 127.544 81.5064" stroke="#262626" stroke-miterlimit="10" stroke-linecap="round"/>
<path d="M126.295 82.0892C126.664 82.9958 127.524 84.7146 129.362 85.8754C129.548 85.9923 133.485 88.3908 136.277 86.278C136.467 86.1346 138.092 84.8675 138.043 83.1591C137.991 81.3873 136.191 81.0627 133.692 78.1688C131.858 76.0438 131.829 75.061 130.928 74.0133C130.735 73.7883 130.499 73.5604 130.2 73.3162C128.306 71.7867 126.235 71.6525 123.806 71.4439C112.975 70.5161 114.121 69.7904 111.508 70.0447C106.157 70.5683 102.035 74.0679 93.793 81.0715C90.9497 83.4888 88.522 85.5649 86.6739 87.4464C84.0379 90.1307 82.5785 92.4217 82.7678 94.7402C82.8334 95.5587 83.544 101.829 83.6461 103.275C83.672 103.651 83.6927 103.964 83.7083 104.228C83.7937 105.657 83.7525 105.635 83.8533 106.258C84.4785 110.143 86.1621 111.332 87.1535 114.827C87.3066 115.361 87.4132 115.849 87.4875 116.307C87.809 118.242 87.7507 119.709 87.7403 119.974C87.7105 120.95 88.5824 124.261 91.3158 132.13C91.6212 133.006 91.9488 133.939 92.302 134.933" stroke="#262626" stroke-miterlimit="10" stroke-linecap="round"/>
<path d="M86.4873 86.9485C86.5405 86.756 86.6276 86.4523 86.754 86.0888C88.268 81.7355 91.238 80.1657 94.9893 76.3248C96.0843 75.2032 98.102 72.4855 100.712 69.3688C104.587 64.743 105.488 63.9118 106.804 63.1394C108.949 61.8835 110.133 62.4151 116.978 62.6534C121.926 62.8258 128.207 62.7889 133.829 64.2806C134.72 64.5176 136.338 64.9873 137.307 66.4848C138.076 67.6752 138.296 69.2986 137.826 70.6014C136.989 72.9177 133.868 74.5065 130.424 73.7052" stroke="#262626" stroke-miterlimit="10" stroke-linecap="round"/>
<path d="M109.427 90.2728C108.97 89.9214 108.493 89.5239 108.007 89.0722C107.303 88.4143 106.707 87.7616 106.207 87.1523" stroke="#262626" stroke-miterlimit="10" stroke-linecap="round"/>
<path d="M129.148 65.4476C129.009 65.8248 128.829 66.3943 128.733 67.1036C128.673 67.5577 128.583 68.22 128.698 68.596C128.999 69.5765 131.105 69.9812 133.756 69.6722" stroke="#262626" stroke-miterlimit="10" stroke-linecap="round"/>
<path d="M134.659 80.9593C134.582 81.0105 133.624 81.6698 133.589 82.8585C133.562 83.7166 134.028 84.5125 134.785 84.9076" stroke="#262626" stroke-miterlimit="10" stroke-linecap="round"/>
<path d="M122.006 116.153C121.821 116.251 120.961 116.687 119.925 116.386C119.01 116.12 118.539 115.448 118.41 115.254" stroke="#262626" stroke-miterlimit="10" stroke-linecap="round"/>
<path d="M107.262 120.754C107.591 120.723 108.023 120.646 108.499 120.45C109.369 120.095 109.933 119.534 110.221 119.198C111.52 119.06 113.861 118.628 116.264 117.022C116.973 116.545 117.579 116.042 118.088 115.555C118.212 115.438 118.33 115.319 118.441 115.205C118.726 114.909 118.978 114.627 119.195 114.364" stroke="#262626" stroke-miterlimit="10" stroke-linecap="round"/>
<path d="M109.485 130.439C109.914 130.316 111.495 129.815 112.603 128.183C113.931 126.227 113.554 124.152 113.486 123.8" stroke="#262626" stroke-miterlimit="10" stroke-linecap="round"/>
<path d="M104.804 92.3182L104.792 92.2643C104.749 92.0454 104.682 91.7918 104.574 91.5186C104.377 91.0243 104.12 90.6552 103.91 90.4043" stroke="#262626" stroke-miterlimit="10" stroke-linecap="round"/>
<path d="M87.5395 99.8683C87.1209 99.9746 86.5805 100.172 86.0323 100.559C84.4891 101.639 84.0678 103.361 83.9676 103.844" stroke="#262626" stroke-miterlimit="10" stroke-linecap="round"/>
<path d="M103.758 123.91C104.123 124.031 104.607 124.149 105.183 124.186C105.959 124.235 106.61 124.12 107.063 124.001" stroke="#262626" stroke-miterlimit="10" stroke-linecap="round"/>
</svg>
