<svg width="226" height="231" viewBox="0 0 226 231" fill="none" xmlns="http://www.w3.org/2000/svg">
<g clip-path="url(#clip0_1091_23112)">
<path d="M223.591 223.408H215.121C216.38 222.204 217.39 220.865 218.108 219.418H223.591C223.991 219.418 224.32 219.742 224.32 220.141V222.679C224.32 223.078 223.991 223.408 223.591 223.408Z" fill="#262626"/>
<path d="M213.171 223.408H210.043C211.944 222.301 213.473 220.946 214.553 219.418H218.108C217.389 220.865 216.379 222.204 215.121 223.408C214.699 223.813 214.256 224.196 213.781 224.568L213.171 223.408Z" fill="#262626"/>
<path d="M215.946 219.417H214.552C215.157 218.564 215.622 217.652 215.924 216.702C217.194 212.733 215.557 208.512 214.05 205.774C213.656 205.062 213.877 204.171 214.569 203.734C214.822 203.572 215.103 203.496 215.384 203.496C215.924 203.496 216.448 203.782 216.729 204.295C218.512 207.529 220.451 212.615 218.841 217.63C218.647 218.24 218.404 218.839 218.107 219.417H215.946Z" fill="#262626"/>
<path d="M193.539 219.418V193.865H223.054V219.418H218.106C218.403 218.84 218.647 218.241 218.841 217.631C220.451 212.615 218.512 207.53 216.729 204.296C216.448 203.783 215.924 203.497 215.384 203.497C215.103 203.497 214.822 203.572 214.568 203.734C213.877 204.172 213.655 205.062 214.05 205.775C215.557 208.512 217.193 212.734 215.924 216.702C215.622 217.652 215.157 218.565 214.552 219.418H193.539Z" fill="#7099ED"/>
<path d="M210.042 223.408H193.096C192.697 223.408 192.367 223.078 192.367 222.679V220.141C192.367 219.742 192.697 219.418 193.096 219.418H214.552C213.472 220.946 211.943 222.301 210.042 223.408Z" fill="#262626"/>
<path d="M223.054 223.494C224.534 223.494 225.728 224.687 225.728 226.167C225.728 227.646 224.534 228.844 223.054 228.844C221.574 228.844 220.375 227.646 220.375 226.167C220.375 224.687 221.574 223.494 223.054 223.494Z" fill="#262626"/>
<path d="M192.367 188.347C192.367 180.2 198.974 173.598 207.125 173.598H209.561C217.707 173.598 224.319 180.2 224.319 188.347V189.875H192.367V188.347Z" fill="#7099ED"/>
<path d="M223.055 193.865H193.096C192.697 193.865 192.367 193.541 192.367 193.141V190.604C192.367 190.204 192.697 189.875 193.096 189.875H223.59C223.989 189.875 224.319 190.204 224.319 190.604V193.141C224.319 193.541 223.989 193.865 223.59 193.865H223.055Z" fill="#262626"/>
<path d="M196.792 226.415C194.934 226.296 193.162 225.945 191.574 225.378C191.909 224.282 192.925 223.494 194.129 223.494C195.609 223.494 196.809 224.687 196.809 226.167C196.809 226.248 196.803 226.334 196.792 226.415Z" fill="#262626"/>
<path d="M191.572 225.379C193.16 225.946 194.932 226.297 196.79 226.415C196.671 227.776 195.526 228.845 194.127 228.845C193.943 228.845 193.76 228.823 193.587 228.791C192.366 228.543 191.453 227.463 191.453 226.167C191.453 225.892 191.496 225.627 191.572 225.379Z" fill="#262626"/>
<path d="M194.129 228.845C195.528 228.845 196.674 227.776 196.792 226.415C199.731 226.61 202.891 226.232 205.889 225.255C207.418 224.758 208.806 224.132 210.043 223.408H213.171L213.781 224.569C211.863 226.064 209.519 227.29 206.84 228.165C204.009 229.088 201.081 229.541 198.267 229.541C196.641 229.541 195.048 229.39 193.535 229.088L193.589 228.791C193.762 228.823 193.946 228.845 194.129 228.845Z" fill="#262626"/>
<path d="M175.829 78.8928C174.878 78.8928 173.555 78.7579 172.226 78.0776C166.214 74.9841 166.765 64.111 166.846 62.5345C167.208 55.7105 170.157 50.5384 172.512 46.4084C174.095 43.6334 175.667 41.4739 176.828 40C184.229 44.5026 187.756 60.456 193.871 80.4207C193.914 80.5611 193.968 80.7392 193.99 80.7986C192.845 82.3643 191.37 84.1351 189.501 85.9221C186.994 88.3191 184.515 90.0359 182.462 91.2507H182.457C181.971 88.4487 180.053 85.0637 178.389 82.9311C177.179 81.3871 175.937 80.2695 174.97 79.5137C175.267 79.287 175.559 79.0818 175.829 78.8928Z" fill="#7099ED"/>
<path d="M191.457 226.167C191.457 227.463 192.37 228.543 193.591 228.791L193.537 229.088C190.82 228.559 188.351 227.549 186.352 226.091C183.403 223.937 181.35 220.79 180.065 216.46C176.85 205.592 180.994 197.062 185.79 187.188C188.648 181.298 191.889 174.625 193.893 166.608C199.192 145.347 196.81 127.709 187.184 116.95C185.32 114.866 183.181 113.014 180.832 111.411C175.754 107.934 169.709 105.634 163.465 104.754C163.621 104.279 163.811 103.76 164.07 103.221C164.318 102.708 164.605 102.243 164.907 101.822C170.536 102.729 175.948 104.716 180.729 107.653C183.975 109.65 186.93 112.08 189.464 114.909C199.792 126.452 202.417 145.072 196.864 167.347C194.784 175.672 191.473 182.502 188.545 188.521C183.84 198.212 180.124 205.862 183.003 215.591C184.089 219.251 185.774 221.88 188.162 223.619C189.15 224.342 190.306 224.931 191.576 225.379C191.5 225.627 191.457 225.892 191.457 226.167Z" fill="#262626"/>
<path d="M162.456 90.5326C168.118 85.1554 172.655 81.2413 174.967 79.5137C175.934 80.2695 177.176 81.3871 178.386 82.9311C180.05 85.0636 181.968 88.4487 182.454 91.2506C182.702 92.6489 182.589 93.9014 181.908 94.7868C181.692 95.073 181.492 95.2187 180.417 95.5049C179.44 95.764 177.744 96.1311 174.643 96.8168C170.278 97.7832 169.76 97.9127 168.874 98.4148C168.139 98.8359 166.303 99.8833 164.903 101.821C164.601 102.243 164.315 102.707 164.066 103.22C163.807 103.76 163.618 104.278 163.461 104.753C163.056 105.946 162.818 106.864 161.997 107.101C161.414 107.269 161.246 106.886 159.901 106.772C158.897 106.686 158.146 106.832 156.909 107.069C156.18 107.209 155.223 107.431 154.132 107.814C153.711 108.64 153.16 109.482 152.636 109.418C151.869 109.326 151.329 107.344 151.156 104.904C151.091 103.911 151.08 102.842 151.145 101.794C151.167 101.411 151.199 101.033 151.242 100.661C151.529 98.1611 151.999 94.0094 155.094 92.0119C156.369 91.1804 157.714 90.9699 159.259 90.7269C160.425 90.5434 161.506 90.5002 162.456 90.5326Z" fill="#FF8B63"/>
<path d="M180.42 95.5059C180.512 99.5441 180.615 103.588 180.728 107.653C175.948 104.716 170.535 102.729 164.906 101.822C166.305 99.8843 168.142 98.8369 168.877 98.4158C169.762 97.9137 170.281 97.7842 174.646 96.8178C177.746 96.1321 179.442 95.765 180.42 95.5059Z" fill="white"/>
<path d="M178.776 19.793C180.18 20.6676 180.829 23.5721 180.24 26.8114C179.57 30.488 177.555 33.2035 175.735 32.8742C173.914 32.5449 172.985 29.2948 173.655 25.6129C173.941 24.0472 174.471 22.6543 175.124 21.6016C175.384 22.0119 175.713 22.2818 176.107 22.352C177.074 22.5248 178.128 21.4558 178.776 19.793Z" fill="#262626"/>
<path d="M178.161 19.5504C178.382 19.5882 178.588 19.6746 178.777 19.7934C178.128 21.4562 177.075 22.5252 176.108 22.3524C175.714 22.2822 175.384 22.0123 175.125 21.602C176.005 20.1767 177.113 19.3615 178.161 19.5504Z" fill="#262626"/>
<path d="M176.08 2.97071C177.971 3.31623 178.943 6.70127 178.247 10.529C178.079 11.4468 177.831 12.3106 177.523 13.088C176.453 13.1312 175.34 14.5997 174.816 16.6296C174.395 16.8402 173.974 16.9158 173.558 16.8402C173.293 16.7916 173.05 16.689 172.823 16.5325C173.482 13.5361 173.158 10.3886 171.797 7.62446C172.721 4.67133 174.476 2.68458 176.08 2.97071Z" fill="#262626"/>
<path d="M177.788 13.1042C179.052 13.3309 179.7 15.5876 179.235 18.1412C179.127 18.7351 178.971 19.2912 178.776 19.7933C178.587 19.6745 178.382 19.5881 178.16 19.5503C177.112 19.3613 176.005 20.1766 175.125 21.6018C174.547 20.6894 174.341 19.0698 174.665 17.3098C174.709 17.0777 174.757 16.8509 174.817 16.6296C175.843 16.1221 176.831 14.8264 177.523 13.088C177.609 13.0826 177.701 13.088 177.788 13.1042Z" fill="#262626"/>
<path d="M177.523 13.0879C176.831 14.8263 175.843 16.122 174.816 16.6295C175.34 14.5995 176.453 13.1311 177.523 13.0879Z" fill="#262626"/>
<path d="M174.289 231.057C174.77 234.539 174.937 235.246 174.451 236.035C173.511 237.552 171.172 237.622 166.526 237.697C161.297 237.784 158.661 237.795 157.711 236.256C156.836 234.841 157.808 232.563 158.672 230.436C159.023 229.578 159.51 228.622 160.439 226.808C160.638 226.408 160.833 226.036 161.006 225.707C161.578 224.999 163.172 223.256 165.808 222.689C168.568 222.1 172.133 222.872 173.079 224.654C173.214 224.897 173.354 225.28 173.554 225.269H173.56C173.716 226.641 173.954 228.638 174.289 231.057Z" fill="white"/>
<path d="M171.799 7.62305C173.16 10.3872 173.485 13.5347 172.826 16.531C171.427 15.5539 170.795 12.5845 171.394 9.28587C171.502 8.7082 171.637 8.14673 171.799 7.62305Z" fill="#262626"/>
<path d="M146.754 11.2085C146.63 10.4527 146.543 9.33514 146.851 8.08262C147.953 3.58544 153.166 1.0912 156.764 0.475736C161.539 -0.33948 167.983 1.19917 171.273 6.65734C171.462 6.97587 171.64 7.2944 171.797 7.62373C171.635 8.14741 171.5 8.70888 171.392 9.28655C170.792 12.5852 171.424 15.5545 172.823 16.5317C172.24 19.1933 170.884 21.7254 168.783 23.7661C168.448 22.9239 168.118 22.0817 167.783 21.2395C169.328 20.0139 170.09 18.1945 169.69 16.5641C169.431 15.5329 168.534 13.8539 166.989 13.7891C165.725 13.7406 164.834 14.8041 164.693 14.9769C164.531 14.5234 163.046 10.4959 158.708 9.11379C153.884 7.58054 150.022 10.7334 149.785 10.9386C149.757 10.8846 149.358 10.0802 148.515 9.98839C147.775 9.90201 147.019 10.3987 146.754 11.2085Z" fill="#262626"/>
<path d="M174.077 222.09C174.644 223.51 173.99 225.243 173.558 225.27H173.553C173.353 225.281 173.213 224.898 173.078 224.655C172.132 222.873 168.567 222.101 165.807 222.69C163.171 223.256 161.577 225 161.005 225.702C161.01 225.427 161.021 225.146 161.026 224.86C161.242 215.855 161.28 200.657 161.113 191.468C161.096 190.437 161.075 189.411 161.048 188.386C160.934 183.543 160.767 178.781 160.551 174.111C161.118 174.155 161.685 174.198 162.252 174.236C166.125 174.505 169.885 174.662 173.504 174.721C173.693 180.655 173.834 186.663 173.931 192.748C174.055 200.414 174.104 214.662 174.077 222.09Z" fill="#7099ED"/>
<path d="M155.085 18.6319C155.242 19.3121 154.988 19.9546 154.518 20.0571C154.048 20.1651 153.54 19.6954 153.384 19.0152C153.232 18.3295 153.486 17.6925 153.956 17.5845C154.426 17.4819 154.934 17.9462 155.085 18.6319Z" fill="#262626"/>
<path d="M154.935 48.1197C156.221 49.6368 162.79 46.6783 174.63 39.2441C173.674 40.0917 172.707 41.0581 171.762 42.1379C167.16 47.3909 165.074 53.1028 164.07 57.1951C160.688 57.3139 156.561 57.7782 151.997 59.0091C149.555 59.6731 147.362 60.456 145.434 61.2604C145.941 59.0793 146.795 56.4501 148.259 53.6697C150.506 49.3993 153.39 46.3004 155.929 44.1408C154.752 46.1816 154.417 47.5097 154.935 48.1197Z" fill="#7099ED"/>
<path d="M172.225 78.0772C173.553 78.7575 174.877 78.8924 175.828 78.8924C175.557 79.0814 175.266 79.2865 174.969 79.5133C172.657 81.2409 168.119 85.155 162.458 90.5322C161.507 90.4998 160.427 90.543 159.26 90.7266C157.715 90.9695 156.37 91.1801 155.096 92.0115C152 94.009 151.53 98.1607 151.244 100.66C151.201 101.033 151.168 101.411 151.147 101.794C150.693 101.87 150.234 101.951 149.78 102.042C147.501 102.485 145.362 103.101 143.368 103.84C143.676 102.809 143.984 101.783 144.297 100.763C145.313 97.4211 146.345 94.1224 147.393 90.8615C147.031 89.0529 145.037 79.13 144.729 77.5913C143.709 72.5111 142.996 68.9965 142.655 66.6264V66.6156C142.455 65.1957 142.391 64.1861 142.482 63.4951C143.779 53.6963 151.028 47.18 152.422 45.9814C155.058 43.7247 157.629 42.3319 159.466 41.495C158.477 42.1429 157.245 43.0121 155.927 44.1351C153.389 46.3 150.504 49.3989 148.257 53.6693C146.793 56.4497 145.939 59.0789 145.432 61.26C147.36 60.4556 149.553 59.6728 151.995 59.0087C156.559 57.7778 160.686 57.3135 164.068 57.1947C165.073 53.1024 167.158 47.3905 171.76 42.1375C172.705 41.0577 173.672 40.0914 174.628 39.2438C174.709 39.1736 174.785 39.1034 174.866 39.0332C175.25 39.2276 175.574 39.3571 175.822 39.4705C176.162 39.6217 176.497 39.7998 176.827 39.9996C175.666 41.4735 174.094 43.633 172.511 46.4079C170.156 50.538 167.206 55.71 166.844 62.5341C166.763 64.1106 166.212 74.9837 172.225 78.0772Z" fill="white"/>
<path d="M151.159 104.905C151.331 107.345 151.872 109.327 152.639 109.418C153.163 109.483 153.714 108.641 154.135 107.815C155.226 107.432 156.182 107.21 156.911 107.07C158.148 106.832 158.899 106.687 159.904 106.773C161.249 106.886 161.417 107.27 162 107.102C162.821 106.865 163.059 105.947 163.464 104.754C169.708 105.634 175.753 107.934 180.831 111.411C181.128 121.722 181.484 132.131 181.911 142.626C182.348 153.413 182.851 164.092 183.407 174.663C180.231 174.755 176.93 174.782 173.506 174.722C169.887 174.663 166.127 174.506 162.254 174.236C161.687 174.198 161.119 174.155 160.552 174.107C154.805 173.664 149.327 173.011 144.152 172.212C139.588 171.51 135.256 170.689 131.172 169.798C129.821 169.507 128.503 169.205 127.207 168.897C128.741 161.15 130.448 153.246 132.333 145.191C135.077 133.492 138.043 122.208 141.165 111.357C141.527 110.093 141.889 108.835 142.256 107.588C144.698 106.514 147.399 105.623 150.364 105.045C150.613 104.997 150.861 104.954 151.105 104.91H151.159V104.905Z" fill="white"/>
<path d="M149.212 20.2777C149.369 20.9579 149.11 21.6004 148.64 21.7029C148.17 21.8109 147.662 21.3412 147.511 20.661C147.354 19.9753 147.613 19.3383 148.083 19.2303C148.553 19.1223 149.055 19.592 149.212 20.2777Z" fill="#262626"/>
<path d="M148.084 19.2316C147.614 19.3396 147.355 19.9767 147.512 20.6623C147.663 21.3425 148.171 21.8122 148.641 21.7043C149.11 21.6017 149.37 20.9592 149.213 20.279C149.056 19.5933 148.554 19.1236 148.084 19.2316ZM173.791 38.4027C174.191 38.6726 174.553 38.8778 174.866 39.0344C174.785 39.1045 174.71 39.1747 174.629 39.2449C162.788 46.679 156.219 49.6376 154.934 48.1205C154.415 47.5104 154.75 46.1824 155.928 44.1416C157.246 43.0133 158.477 42.1441 159.466 41.4962C159.422 40.2275 159.239 38.6133 158.726 36.7993C158.272 35.2174 157.678 33.9055 157.138 32.8959C157.04 32.9013 156.943 32.8959 156.846 32.8905C150.672 32.518 147.047 23.7342 146.377 17.9899C146.064 15.3013 146.361 12.9636 146.755 11.209C147.02 10.3992 147.776 9.90253 148.516 9.98891C149.359 10.0807 149.759 10.8851 149.786 10.9391C150.023 10.7339 153.886 7.58105 158.709 9.1143C163.047 10.4964 164.533 14.5239 164.695 14.9774C164.835 14.8046 165.726 13.7411 166.99 13.7896C168.535 13.8544 169.432 15.5335 169.691 16.5646C170.091 18.1951 169.329 20.0144 167.784 21.24C168.119 22.0822 168.449 22.9244 168.784 23.7666C168.389 25.3161 168.33 26.5902 168.341 27.4054C168.389 31.4059 170.183 35.9517 173.791 38.4027ZM154.518 20.0576C154.988 19.9551 155.242 19.3126 155.085 18.6324C154.934 17.9467 154.426 17.4824 153.956 17.585C153.486 17.693 153.232 18.33 153.383 19.0157C153.54 19.6959 154.048 20.1656 154.518 20.0576Z" fill="white"/>
<path d="M142.653 66.627C142.994 68.997 143.707 72.5116 144.728 77.5919C145.036 79.1305 147.029 89.0535 147.391 90.8621C146.343 94.123 145.311 97.4216 144.296 100.763C143.961 101.422 143.453 102.259 142.697 103.117C141.951 103.965 141.195 104.57 140.59 104.98C139.601 105.428 138.651 105.909 137.743 106.4C136.463 104.775 135.177 103.031 133.908 101.168C133.481 100.537 133.065 99.9105 132.665 99.2896L132.59 99.2356C134.567 96.3041 136.441 92.9568 137.889 89.3396C139.85 84.4375 140.946 79.2925 141.308 77.4839C142.167 73.2027 142.513 69.4829 142.653 66.627Z" fill="#7099ED"/>
<path d="M130.117 115.799C132.343 113.651 135.346 111.216 139.111 109.143C139.343 109.753 139.581 110.357 139.813 110.967C136.583 112.576 133.353 114.185 130.117 115.799Z" fill="#FF8B63"/>
<path d="M133.726 224.643C133.883 226.868 133.769 228.86 133.548 230.55C133.186 230.609 132.657 230.695 132.014 230.782C130.237 231.025 128.875 231.111 128.114 231.154C124.089 231.403 122.08 231.521 120.108 231.559C112.162 231.705 105.026 231.835 104.394 229.562C104.184 228.817 104.74 228.061 104.983 227.737C106.474 225.707 109.883 226.128 111.924 226.031C114.712 225.896 118.623 224.627 123.376 219.434C125.051 219.887 127.514 220.368 130.836 221.437C132.127 221.852 132.883 222.144 133.407 221.976C133.548 222.802 133.656 223.693 133.726 224.643Z" fill="white"/>
<path d="M128.951 119.346C128.789 120.021 128.173 120.307 128.098 120.345L127.93 120.355C127.909 119.837 127.666 119.303 127.223 118.876L127.541 118.514C127.763 118.261 127.995 117.996 128.249 117.721C128.811 118.093 129.092 118.746 128.951 119.346Z" fill="white"/>
<path d="M128.25 117.721C127.997 117.997 127.764 118.261 127.543 118.515L127.224 118.877L126.203 120.054C126.279 119.865 126.349 119.681 126.408 119.508C126.986 117.786 126.9 116.15 126.641 114.892L126.716 114.876C129.207 112.279 132.885 109.062 137.747 106.4C138.654 105.909 139.605 105.428 140.593 104.98C141.485 104.575 142.408 104.197 143.37 103.841C145.363 103.101 147.502 102.486 149.782 102.043C150.236 101.951 150.695 101.871 151.149 101.795C151.084 102.842 151.095 103.911 151.159 104.905H151.105C150.862 104.953 150.614 104.996 150.365 105.045C147.4 105.623 144.699 106.513 142.257 107.588C141.155 108.074 140.107 108.597 139.113 109.143C135.348 111.216 132.345 113.651 130.119 115.799C129.417 116.474 128.796 117.122 128.25 117.721Z" fill="#262626"/>
<path d="M127.222 118.877C127.665 119.303 127.908 119.838 127.93 120.356C127.946 120.669 127.886 120.972 127.741 121.236C127.417 121.819 126.801 122.008 126.633 122.051L126.428 122.041C126.444 121.533 126.325 120.972 126.039 120.426C126.098 120.302 126.153 120.178 126.201 120.054L127.222 118.877Z" fill="#FF8B63"/>
<path d="M137.746 106.401C132.884 109.062 129.206 112.28 126.715 114.877L126.64 114.893C126.899 116.151 126.985 117.787 126.407 119.509C126.348 119.682 126.278 119.865 126.202 120.054C126.154 120.178 126.1 120.302 126.04 120.427C125.576 121.452 124.938 122.435 124.501 122.338C124.382 122.311 124.268 122.203 124.171 121.96C123.966 121.452 123.842 120.351 123.917 118.164H123.798C122.297 119.892 120.8 121.625 119.299 123.358C118.202 121.382 118.11 119.698 118.127 118.866C118.181 115.838 119.915 113.635 121.011 112.247C122.129 110.822 123.204 109.953 123.469 109.737C125.689 107.907 129.276 104.165 132.593 99.2363L132.668 99.2903C133.068 99.9112 133.484 100.537 133.911 101.169C135.18 103.032 136.466 104.775 137.746 106.401Z" fill="#FF8B63"/>
<path d="M126.429 122.04C126.408 122.731 126.138 123.32 125.684 123.649C125.273 123.946 124.787 123.978 124.447 123.957C124.506 123.303 124.382 122.585 124.145 121.97L124.172 121.959C124.269 122.202 124.382 122.31 124.501 122.337C124.939 122.434 125.576 121.452 126.041 120.426C126.327 120.971 126.446 121.533 126.429 122.04Z" fill="#FF8B63"/>
<path d="M124.444 123.957C124.395 124.567 124.179 125.118 123.747 125.469C122.845 126.209 121.37 125.734 121.111 125.647L120.992 125.545C121.441 125.026 121.883 124.508 122.332 123.99C121.549 122.43 121.457 121.118 122.04 120.632C122.283 120.427 122.629 120.378 122.894 120.454C123.396 120.589 123.855 121.204 124.141 121.971C124.379 122.586 124.503 123.304 124.444 123.957Z" fill="#FF8B63"/>
<path d="M122.397 213.106C124.601 207 125.724 201.909 126.351 198.373C127.404 192.38 127.518 187.991 129.343 179.471C129.878 176.961 130.386 174.92 130.732 173.598C130.332 171.848 130.899 170.385 131.169 169.797C135.253 170.688 139.585 171.508 144.15 172.21C143.577 173.36 142.967 174.785 142.48 176.481C142.048 177.992 141.811 179.364 141.681 180.535C142.21 181.302 142.389 181.933 142.162 182.246C141.967 182.511 141.481 182.522 141.006 182.452C140.72 184.698 140.395 186.976 140.028 189.292C138.397 199.479 136.112 208.879 133.487 217.463C134.086 219.196 134.518 221.172 133.686 221.83C133.6 221.901 133.508 221.944 133.405 221.976C132.882 222.143 132.125 221.852 130.834 221.436C127.512 220.367 125.049 219.887 123.374 219.433C121.765 219.001 120.884 218.591 120.684 217.7C120.657 217.565 120.695 217.042 120.792 215.989C120.96 214.196 121.035 213.273 121.327 213.106C121.597 212.955 121.964 212.955 122.397 213.106Z" fill="#7099ED"/>
<path d="M123.918 118.164C123.842 120.35 123.967 121.451 124.172 121.959L124.145 121.97C123.859 121.203 123.399 120.588 122.897 120.453C122.632 120.377 122.287 120.426 122.044 120.631C121.46 121.117 121.552 122.429 122.335 123.989C121.887 124.507 121.444 125.025 120.996 125.544C93.6086 157.37 66.2161 189.195 38.8291 221.016C37.1815 222.932 34.7777 224.034 32.2497 224.034H28.6953V223.143C28.6953 221.944 29.6622 220.978 30.8614 220.978C32.1254 220.978 33.3517 220.703 34.4698 220.19C35.5934 219.677 36.5981 218.932 37.4246 217.976C64.7144 186.437 92.0097 154.897 119.3 123.357C120.801 121.624 122.297 119.891 123.799 118.158H123.918V118.164Z" fill="#262626"/>
<path d="M32.0753 224.066V231.236H0.269531V227.651L16.1724 224.066H32.0753Z" fill="#262626"/>
<path d="M146.755 11.209C146.361 12.9636 146.064 15.3013 146.377 17.9899C147.047 23.7342 150.672 32.518 156.846 32.8905C156.943 32.8959 157.04 32.9013 157.138 32.8959C161.475 32.9715 164.889 28.8414 165.802 27.6591" stroke="#262626" stroke-miterlimit="10"/>
<path d="M157.133 32.8906C157.133 32.8906 157.133 32.896 157.138 32.896C157.678 33.9056 158.273 35.2175 158.726 36.7993C159.239 38.6133 159.423 40.2276 159.466 41.4963C159.472 41.5719 159.477 41.6421 159.477 41.7122" stroke="#262626" stroke-miterlimit="10"/>
<path d="M171.797 7.62373C171.64 7.2944 171.462 6.97587 171.273 6.65734C167.983 1.19917 161.539 -0.33948 156.764 0.475736C153.166 1.0912 147.953 3.58544 146.851 8.08262C146.543 9.33514 146.63 10.4527 146.754 11.2085C147.019 10.3987 147.775 9.90201 148.515 9.98839C149.358 10.0802 149.757 10.8846 149.785 10.9386C150.022 10.7334 153.884 7.58054 158.708 9.11379C163.046 10.4959 164.531 14.5234 164.693 14.9769C164.834 14.8041 165.725 13.7405 166.989 13.7891C168.534 13.8539 169.431 15.5329 169.69 16.5641C170.09 18.1945 169.328 20.0139 167.783 21.2395C168.118 22.0817 168.448 22.9239 168.783 23.7661C170.884 21.7254 172.24 19.1933 172.823 16.5317" stroke="#262626" stroke-miterlimit="10"/>
<path d="M169.945 20.6719C169.389 21.7732 169.022 22.8206 168.784 23.7654C168.39 25.3148 168.33 26.5889 168.341 27.4042C168.39 31.4047 170.183 35.9504 173.791 38.4015C174.191 38.6714 174.553 38.8766 174.866 39.0331C175.25 39.2275 175.574 39.3571 175.822 39.4704C176.163 39.6216 176.498 39.7998 176.827 39.9995C184.228 44.5021 187.755 60.4555 193.87 80.4202C193.913 80.5606 193.967 80.7387 193.989 80.7981C192.843 82.3638 191.369 84.1346 189.5 85.9216C186.993 88.3186 184.514 90.0355 182.461 91.2502" stroke="#262626" stroke-miterlimit="10"/>
<path d="M173.471 54.8477C172.644 55.4631 171.542 56.4997 171.013 58.0491C170.138 60.619 171.343 63.0322 172.936 66.3795C174.076 68.7765 175.832 72.5233 178.035 77.5172" stroke="#262626" stroke-miterlimit="10"/>
<path d="M175.826 78.8926C175.556 79.0815 175.265 79.2867 174.968 79.5134C172.656 81.241 168.118 85.1552 162.457 90.5324" stroke="#262626" stroke-miterlimit="10"/>
<path d="M182.017 75.7773C181.169 76.0581 179.921 76.5278 178.49 77.2728C178.376 77.3268 178.225 77.4078 178.036 77.5158C177.534 77.7911 176.761 78.2446 175.832 78.8924" stroke="#262626" stroke-miterlimit="10"/>
<path d="M176.828 40C175.667 41.4739 174.095 43.6334 172.512 46.4084C170.157 50.5384 167.208 55.7105 166.846 62.5345C166.765 64.111 166.214 74.9841 172.226 78.0776C173.555 78.7579 174.878 78.8928 175.829 78.8928H175.834" stroke="#262626" stroke-miterlimit="10"/>
<path d="M165.136 90.8349C164.434 90.7 163.526 90.5704 162.456 90.5326C161.506 90.5002 160.425 90.5434 159.259 90.7269C157.714 90.9699 156.369 91.1804 155.094 92.0119C151.999 94.0094 151.529 98.1611 151.242 100.661C151.199 101.033 151.167 101.411 151.145 101.794C151.08 102.842 151.091 103.911 151.156 104.904C151.329 107.344 151.869 109.326 152.636 109.418C153.16 109.482 153.711 108.64 154.132 107.814C155.223 107.431 156.18 107.209 156.909 107.069C158.146 106.832 158.897 106.686 159.901 106.772C161.246 106.886 161.414 107.269 161.997 107.101C162.818 106.864 163.056 105.946 163.461 104.753C163.618 104.278 163.807 103.76 164.066 103.22C164.315 102.707 164.601 102.243 164.903 101.821C166.303 99.8833 168.139 98.8359 168.874 98.4148C169.76 97.9127 170.278 97.7832 174.643 96.8168C177.744 96.1311 179.44 95.764 180.417 95.5049C181.492 95.2187 181.692 95.073 181.908 94.7868C182.589 93.9014 182.702 92.6489 182.454 91.2506C181.968 88.4487 180.05 85.0636 178.386 82.9311C177.176 81.3871 175.934 80.2695 174.967 79.5137" stroke="#262626" stroke-miterlimit="10"/>
<path d="M167.27 92.8652C167.507 92.9894 167.853 93.2216 168.128 93.6103C168.831 94.6036 168.501 95.7806 168.447 95.9587" stroke="#262626" stroke-miterlimit="10"/>
<path d="M122.47 123.832C122.427 123.886 122.379 123.935 122.335 123.989C121.887 124.507 121.444 125.025 120.996 125.544C93.6086 157.37 66.2161 189.195 38.8291 221.016C37.1815 222.932 34.7777 224.034 32.2497 224.034H28.6953V223.143C28.6953 221.944 29.6622 220.978 30.8614 220.978C32.1254 220.978 33.3517 220.703 34.4698 220.19C35.5934 219.677 36.5981 218.932 37.4246 217.976C64.7144 186.437 92.0097 154.897 119.3 123.357C120.801 121.624 122.297 119.891 123.799 118.158" stroke="#262626" stroke-miterlimit="10"/>
<path d="M151.104 104.91C150.861 104.953 150.612 104.997 150.364 105.045C147.398 105.623 144.697 106.514 142.256 107.588C141.154 108.074 140.106 108.598 139.112 109.143C135.347 111.216 132.343 113.651 130.118 115.8C129.416 116.474 128.794 117.122 128.249 117.721C127.995 117.997 127.763 118.261 127.541 118.515L127.222 118.877L126.202 120.054L126.137 120.129" stroke="#262626" stroke-miterlimit="10"/>
<path d="M164.907 101.822C170.536 102.729 175.948 104.716 180.729 107.653C183.975 109.65 186.93 112.08 189.464 114.909C199.792 126.452 202.417 145.072 196.864 167.347C194.784 175.672 191.473 182.502 188.545 188.521C183.84 198.212 180.124 205.862 183.003 215.591C184.089 219.251 185.774 221.88 188.162 223.619C189.15 224.342 190.306 224.931 191.576 225.379C193.164 225.946 194.936 226.297 196.794 226.415C199.732 226.61 202.892 226.232 205.89 225.255C207.419 224.758 208.807 224.132 210.044 223.408C211.946 222.302 213.475 220.946 214.555 219.419C215.16 218.566 215.625 217.653 215.927 216.703C217.196 212.735 215.56 208.513 214.053 205.776C213.658 205.063 213.88 204.172 214.571 203.735C214.825 203.573 215.106 203.498 215.387 203.498C215.927 203.498 216.451 203.784 216.732 204.297C218.514 207.53 220.454 212.616 218.844 217.632C218.65 218.242 218.406 218.841 218.109 219.419C217.391 220.865 216.381 222.204 215.122 223.408C214.701 223.813 214.258 224.197 213.783 224.569C211.865 226.064 209.52 227.29 206.841 228.165C204.011 229.088 201.083 229.541 198.269 229.541C196.643 229.541 195.049 229.39 193.537 229.088C190.82 228.559 188.351 227.549 186.352 226.091C183.403 223.937 181.35 220.79 180.065 216.46C176.85 205.592 180.994 197.062 185.79 187.188C188.648 181.298 191.889 174.625 193.893 166.608C199.192 145.347 196.81 127.709 187.184 116.95C185.32 114.866 183.181 113.014 180.832 111.411C175.754 107.934 169.709 105.634 163.465 104.754" stroke="#262626" stroke-miterlimit="10"/>
<path d="M126.715 114.876C129.205 112.279 132.884 109.062 137.745 106.4C138.653 105.909 139.604 105.428 140.592 104.98C141.483 104.575 142.407 104.197 143.369 103.841C145.362 103.101 147.501 102.486 149.78 102.043C150.234 101.951 150.693 101.871 151.147 101.795" stroke="#262626" stroke-miterlimit="10"/>
<path d="M155.929 44.1405C153.39 46.3 150.506 49.3989 148.259 53.6693C146.795 56.4497 145.941 59.0789 145.434 61.26C147.362 60.4556 149.555 59.6728 151.997 59.0087C156.561 57.7778 160.688 57.3135 164.07 57.1947C165.074 53.1024 167.16 47.3905 171.762 42.1375C172.707 41.0577 173.674 40.0914 174.63 39.2438C174.711 39.1736 174.787 39.1034 174.868 39.0332" stroke="#262626" stroke-miterlimit="10"/>
<path d="M142.655 66.6166C142.455 65.1968 142.391 64.1872 142.482 63.4961C143.779 53.6973 151.028 47.181 152.422 45.9825C155.058 43.7258 157.629 42.3329 159.466 41.4961C158.477 42.1439 157.245 43.0132 155.927 44.1361" stroke="#262626" stroke-miterlimit="10"/>
<path d="M143.369 103.841C143.677 102.81 143.985 101.784 144.298 100.763C145.314 97.4216 146.346 94.123 147.394 90.8621C147.032 89.0535 145.038 79.1305 144.731 77.5919C143.71 72.5116 142.997 68.997 142.656 66.627" stroke="#262626" stroke-miterlimit="10"/>
<path d="M180.831 111.409C181.128 121.721 181.484 132.13 181.911 142.625C182.348 153.412 182.851 164.091 183.407 174.662C180.231 174.753 176.93 174.78 173.506 174.721C169.887 174.662 166.127 174.505 162.254 174.235C161.687 174.197 161.119 174.154 160.552 174.105C154.805 173.663 149.327 173.01 144.152 172.211C139.588 171.509 135.256 170.688 131.172 169.797C129.821 169.506 128.503 169.203 127.207 168.896C128.741 161.148 130.448 153.245 132.333 145.19C135.077 133.49 138.043 122.207 141.165 111.355C141.527 110.092 141.889 108.834 142.256 107.587C142.273 107.544 142.283 107.506 142.294 107.463" stroke="#262626" stroke-miterlimit="10"/>
<path d="M180.418 95.5C180.51 99.5437 180.612 103.587 180.726 107.653" stroke="#262626" stroke-miterlimit="10"/>
<path d="M144.152 172.217C143.58 173.361 142.969 174.787 142.483 176.482C142.051 177.994 141.813 179.365 141.684 180.536" stroke="#262626" stroke-miterlimit="10"/>
<path d="M140.455 179.148C140.968 179.634 141.384 180.104 141.682 180.536C142.211 181.303 142.389 181.934 142.162 182.247C141.968 182.512 141.482 182.523 141.006 182.453C140.45 182.366 139.899 182.172 139.812 182.139" stroke="#262626" stroke-miterlimit="10"/>
<path d="M141.008 182.447C140.721 184.699 140.397 186.977 140.03 189.293C138.399 199.48 136.114 208.88 133.488 217.464" stroke="#262626" stroke-miterlimit="10"/>
<path d="M131.17 169.797C130.899 170.385 130.332 171.848 130.732 173.598C130.883 174.262 131.137 174.796 131.369 175.196" stroke="#262626" stroke-miterlimit="10"/>
<path d="M130.733 173.598C130.388 174.92 129.88 176.961 129.345 179.472C127.519 187.991 127.406 192.38 126.353 198.373C125.726 201.909 124.602 207 122.398 213.106" stroke="#262626" stroke-miterlimit="10"/>
<path d="M125.924 216.098C124.644 214.49 123.358 213.442 122.397 213.108C121.964 212.956 121.597 212.956 121.327 213.108C121.035 213.275 120.96 214.198 120.792 215.99C120.695 217.043 120.657 217.567 120.684 217.702C120.884 218.593 121.765 219.003 123.374 219.435C125.049 219.888 127.512 220.369 130.834 221.438C132.125 221.854 132.882 222.145 133.405 221.978C133.508 221.945 133.6 221.902 133.686 221.832C134.518 221.173 134.086 219.197 133.487 217.47C133.206 216.655 132.892 215.899 132.655 215.353" stroke="#262626" stroke-miterlimit="10"/>
<path d="M130.309 211.4C130.562 211.811 130.914 212.297 131.373 212.788C131.902 213.349 132.431 213.77 132.869 214.067" stroke="#262626" stroke-miterlimit="10"/>
<path d="M138.102 174.025C138.782 174.77 139.457 175.521 140.133 176.266" stroke="#262626" stroke-miterlimit="10"/>
<path d="M135.434 178.404C136.357 178.761 137.286 179.117 138.21 179.473" stroke="#262626" stroke-miterlimit="10"/>
<path d="M133.407 221.976C133.548 222.802 133.656 223.693 133.726 224.643C133.883 226.868 133.769 228.86 133.548 230.55C133.186 230.609 132.657 230.695 132.014 230.782C130.237 231.025 128.875 231.111 128.114 231.154C124.089 231.403 122.08 231.521 120.108 231.559C112.162 231.705 105.026 231.835 104.394 229.562C104.184 228.817 104.74 228.061 104.983 227.737C106.474 225.707 109.883 226.128 111.924 226.031C114.712 225.896 118.623 224.627 123.376 219.434" stroke="#262626" stroke-miterlimit="10"/>
<path d="M160.551 174.111C160.767 178.781 160.934 183.543 161.048 188.386C161.075 189.411 161.096 190.437 161.113 191.468C161.28 200.657 161.242 215.855 161.026 224.86C161.021 225.146 161.01 225.427 161.005 225.702" stroke="#262626" stroke-miterlimit="10"/>
<path d="M173.504 174.721C173.693 180.654 173.833 186.663 173.931 192.747C174.055 200.414 174.104 214.661 174.076 222.09" stroke="#262626" stroke-miterlimit="10"/>
<path d="M172.007 220.238C172.272 220.33 173.563 220.805 174.076 222.09C174.643 223.51 173.99 225.243 173.558 225.27H173.552C173.352 225.281 173.212 224.897 173.077 224.654C172.132 222.873 168.566 222.101 165.806 222.689C163.17 223.256 161.576 225 161.004 225.702" stroke="#262626" stroke-miterlimit="10"/>
<path d="M165.171 219.883C164.68 220.099 164.107 220.417 163.535 220.882C161.914 222.199 161.282 223.927 161.028 224.86C161.007 224.947 160.985 225.022 160.969 225.093" stroke="#262626" stroke-miterlimit="10"/>
<path d="M173.516 224.92C173.527 225.033 173.543 225.147 173.56 225.271C173.716 226.642 173.954 228.64 174.289 231.058C174.77 234.541 174.937 235.248 174.451 236.036C173.511 237.553 171.172 237.623 166.526 237.699C161.297 237.785 158.661 237.796 157.711 236.257C156.836 234.843 157.808 232.565 158.672 230.438C159.023 229.579 159.51 228.624 160.439 226.81C160.638 226.41 160.833 226.038 161.006 225.708C161.249 225.233 161.46 224.839 161.627 224.531" stroke="#262626" stroke-miterlimit="10"/>
<path d="M168.238 180.697C168.692 182.085 169.173 183.488 169.681 184.914C170.259 186.555 170.847 188.158 171.442 189.719" stroke="#262626" stroke-miterlimit="10"/>
<path d="M162.36 184.277C161.922 185.643 161.484 187.015 161.047 188.386" stroke="#262626" stroke-miterlimit="10"/>
<path d="M132.668 99.2891C133.068 99.9099 133.484 100.536 133.91 101.168C135.18 103.03 136.465 104.774 137.746 106.399" stroke="#262626" stroke-miterlimit="10"/>
<path d="M142.656 66.6172V66.628C142.516 69.4839 142.17 73.2037 141.311 77.4849C140.949 79.2935 139.853 84.4386 137.892 89.3407C136.444 92.9579 134.57 96.3051 132.593 99.2366C129.276 104.166 125.689 107.907 123.469 109.737C123.204 109.953 122.129 110.822 121.011 112.248C119.915 113.635 118.181 115.838 118.127 118.867C118.11 119.698 118.202 121.382 119.299 123.358C119.315 123.391 119.331 123.429 119.353 123.461" stroke="#262626" stroke-miterlimit="10"/>
<path d="M140.559 89.7659C140.775 89.7173 142.552 89.3394 143.875 90.5163C144.459 91.0346 144.718 91.6501 144.837 92.0118" stroke="#262626" stroke-miterlimit="10"/>
<path d="M155.926 44.1354C154.748 46.1816 154.413 47.5097 154.932 48.1197C156.218 49.6368 162.786 46.6783 174.627 39.2441" stroke="#262626" stroke-miterlimit="10"/>
<path d="M126.137 113.154C126.299 113.575 126.494 114.169 126.639 114.893C126.899 116.151 126.985 117.786 126.407 119.509C126.348 119.681 126.277 119.865 126.202 120.054C126.153 120.178 126.099 120.302 126.04 120.426C125.575 121.452 124.938 122.435 124.5 122.338C124.381 122.311 124.268 122.203 124.171 121.96C123.965 121.452 123.841 120.351 123.917 118.164C123.933 117.662 123.96 117.095 124.003 116.464" stroke="#262626" stroke-miterlimit="10"/>
<path d="M121.113 125.647C121.373 125.734 122.847 126.209 123.749 125.469C124.181 125.118 124.398 124.567 124.446 123.957C124.506 123.304 124.381 122.586 124.144 121.971C123.857 121.204 123.398 120.589 122.896 120.454C122.631 120.378 122.285 120.427 122.042 120.632C121.459 121.118 121.551 122.43 122.334 123.99C122.361 124.055 122.393 124.119 122.431 124.19" stroke="#262626" stroke-miterlimit="10"/>
<path d="M124.133 123.913C124.203 123.93 124.311 123.946 124.446 123.957C124.786 123.978 125.273 123.946 125.683 123.649C126.137 123.32 126.407 122.731 126.429 122.04C126.445 121.533 126.326 120.971 126.04 120.426C126.023 120.388 126.002 120.35 125.98 120.312" stroke="#262626" stroke-miterlimit="10"/>
<path d="M126.633 122.051C126.8 122.008 127.416 121.819 127.74 121.236C127.886 120.972 127.945 120.669 127.929 120.356C127.908 119.838 127.665 119.303 127.222 118.877" stroke="#262626" stroke-miterlimit="10"/>
<path d="M128.098 120.345C128.173 120.307 128.789 120.021 128.951 119.346C129.092 118.746 128.811 118.093 128.249 117.721H128.244" stroke="#262626" stroke-miterlimit="10"/>
<path d="M130.117 115.799C133.353 114.185 136.583 112.576 139.813 110.967C139.581 110.357 139.343 109.753 139.111 109.143" stroke="#262626" stroke-miterlimit="10"/>
<path d="M140.59 104.98C141.195 104.57 141.951 103.965 142.697 103.118C143.453 102.259 143.961 101.422 144.295 100.764" stroke="#262626" stroke-miterlimit="10"/>
<path d="M153 26.3971C153.2 26.3647 153.918 26.2351 154.491 25.5926C155.074 24.9394 155.123 24.1998 155.128 24" stroke="#262626" stroke-miterlimit="10"/>
<path d="M174.819 16.6296C174.398 16.8402 173.976 16.9158 173.56 16.8402C173.296 16.7916 173.052 16.689 172.826 16.5325C171.427 15.5553 170.795 12.5859 171.394 9.28729C171.502 8.70962 171.637 8.14814 171.799 7.62446C172.723 4.67133 174.479 2.68458 176.083 2.97071C177.973 3.31623 178.946 6.70127 178.249 10.529C178.082 11.4468 177.833 12.3106 177.525 13.088" stroke="#262626" stroke-miterlimit="10"/>
<path d="M175.125 21.6018C174.547 20.6894 174.341 19.0698 174.665 17.3098C174.709 17.0777 174.757 16.8509 174.817 16.6296C175.341 14.5996 176.453 13.1312 177.523 13.088C177.609 13.0826 177.701 13.088 177.788 13.1042C179.052 13.3309 179.7 15.5876 179.235 18.1412C179.127 18.7351 178.971 19.2912 178.776 19.7933" stroke="#262626" stroke-miterlimit="10"/>
<path d="M178.776 19.7934C180.18 20.668 180.829 23.5725 180.24 26.8118C179.57 30.4884 177.555 33.204 175.735 32.8746C173.914 32.5453 172.985 29.2952 173.655 25.6133C173.941 24.0476 174.471 22.6547 175.124 21.602C176.005 20.1767 177.112 19.3615 178.16 19.5504C178.382 19.5882 178.587 19.6746 178.776 19.7934Z" stroke="#262626" stroke-miterlimit="10"/>
<path d="M0.269531 231.236H32.0753V224.066H16.1724L0.269531 227.651V231.236Z" stroke="#262626" stroke-miterlimit="10"/>
<path d="M193.096 189.875H192.367V188.347C192.367 180.2 198.974 173.598 207.125 173.598H209.561C217.707 173.598 224.319 180.2 224.319 188.347V189.875H223.59" stroke="#262626" stroke-miterlimit="10"/>
<path d="M193.539 193.865H193.096C192.697 193.865 192.367 193.541 192.367 193.141V190.604C192.367 190.204 192.697 189.875 193.096 189.875H223.59C223.989 189.875 224.319 190.204 224.319 190.604V193.141C224.319 193.541 223.989 193.865 223.59 193.865H223.055" stroke="#262626" stroke-miterlimit="10"/>
<path d="M215.948 219.418H223.591C223.991 219.418 224.32 219.742 224.32 220.141V222.679C224.32 223.078 223.991 223.408 223.591 223.408H214.754" stroke="#262626" stroke-miterlimit="10"/>
<path d="M213.169 223.408H193.096C192.697 223.408 192.367 223.078 192.367 222.679V220.141C192.367 219.742 192.697 219.418 193.096 219.418H215.071" stroke="#262626" stroke-miterlimit="10"/>
<path d="M193.539 219.418V193.865H223.054V219.418" stroke="#262626" stroke-miterlimit="10"/>
<path d="M194.127 223.494C195.607 223.494 196.806 224.687 196.806 226.167C196.806 226.248 196.801 226.334 196.79 226.415C196.671 227.775 195.526 228.844 194.127 228.844C193.943 228.844 193.76 228.823 193.587 228.79C192.366 228.542 191.453 227.462 191.453 226.167C191.453 225.891 191.496 225.627 191.572 225.378C191.907 224.282 192.922 223.494 194.127 223.494Z" stroke="#262626" stroke-miterlimit="10"/>
<path d="M225.728 226.167C225.728 227.646 224.534 228.844 223.054 228.844C221.574 228.844 220.375 227.646 220.375 226.167C220.375 224.687 221.574 223.494 223.054 223.494C224.534 223.494 225.728 224.687 225.728 226.167Z" stroke="#262626" stroke-miterlimit="10"/>
</g>
<defs>
<clipPath id="clip0_1091_23112">
<rect width="226" height="238" fill="white"/>
</clipPath>
</defs>
</svg>
