<svg width="231" height="256" viewBox="0 0 231 256" fill="none" xmlns="http://www.w3.org/2000/svg">
<path d="M124.553 102.001C126.17 92.1678 127.736 84.2835 128.911 78.7178C129.928 73.903 130.695 70.635 129.162 69.4443C126.276 67.1982 117.592 74.0059 115.022 76.085C115.042 79.0361 114.68 83.4934 112.675 88.4079C111.666 90.883 110.465 92.9193 109.347 94.5223C114.416 97.0151 119.482 99.5084 124.551 102.001L124.553 102.001Z" fill="#F4F3F1" stroke="#262626" stroke-miterlimit="10"/>
<path d="M136.421 31.5712C140.225 28.1224 145.907 32.7263 143.32 37.1617C148.005 35.0577 151.984 41.1898 148.153 44.6109C153.258 44.0561 155.146 51.12 150.448 53.1892C155.475 54.2407 155.089 61.5415 149.979 62.0563C154.436 64.6101 151.814 71.433 146.795 70.3453C150.244 74.1488 145.64 79.8309 141.205 77.2448C143.309 81.9293 137.177 85.9079 133.756 82.077C134.311 87.182 127.247 89.0707 125.177 84.372C124.126 89.3992 116.825 89.0131 116.31 83.9038C113.757 88.3601 106.934 85.7386 108.021 80.7197C104.218 84.1686 98.5357 79.5646 101.122 75.1293C96.4373 77.2333 92.4587 71.1011 96.2896 67.6801C91.1846 68.2349 89.2959 61.171 93.9946 59.1018C88.9674 58.0502 89.3535 50.7495 94.4628 50.2346C90.0066 47.6808 92.628 40.8579 97.6469 41.9456C94.1981 38.1421 98.802 32.4601 103.237 35.0462C101.133 30.3617 107.266 26.3831 110.687 30.214C110.132 25.1089 117.196 23.2202 119.265 27.9189C120.316 22.8918 127.617 23.2778 128.132 28.3871C130.686 23.9309 137.509 26.5523 136.421 31.5712Z" fill="#FF8B63" stroke="#262626" stroke-linecap="round" stroke-linejoin="round"/>
<path d="M150.023 52.2189C149.601 52.4046 149.349 52.8386 149.397 53.2954C149.433 53.638 149.633 53.934 149.919 54.0992C150.016 54.1536 150.119 54.1937 150.23 54.2194C150.64 54.3064 151.017 54.4468 151.346 54.636" stroke="white" stroke-linecap="round" stroke-linejoin="round"/>
<path d="M127.608 29.3004C127.702 29.3541 127.805 29.3942 127.916 29.4199C128.365 29.5159 128.826 29.3091 129.053 28.9117C129.535 28.0701 130.235 27.5056 131.079 27.2778C131.965 27.0381 132.957 27.1819 133.798 27.6661C135.129 28.436 135.724 29.812 135.388 31.3478C135.292 31.7964 135.494 32.2561 135.893 32.4862C136.293 32.7163 136.793 32.6624 137.133 32.3549C138.296 31.2995 139.785 31.1286 141.117 31.8959C141.959 32.3834 142.578 33.1698 142.812 34.0566C143.036 34.9018 142.897 35.7902 142.407 36.6295C142.175 37.0254 142.226 37.5272 142.534 37.8674C142.61 37.9516 142.696 38.0222 142.79 38.0759C143.079 38.2418 143.437 38.2657 143.753 38.1251C145.106 37.5172 146.17 37.8406 146.823 38.2174C147.813 38.7891 148.499 39.8504 148.616 40.9858C148.692 41.736 148.552 42.8342 147.449 43.8196C147.106 44.1263 146.999 44.6186 147.186 45.0377C147.28 45.246 147.435 45.4152 147.623 45.5226C147.811 45.63 148.038 45.683 148.267 45.659C149.056 45.5721 149.768 45.7102 150.381 46.0638C151.47 46.6932 152.151 48.0129 152.08 49.3475" stroke="white" stroke-linecap="round" stroke-linejoin="round"/>
<path d="M113.201 26.8814C114.32 26.1521 115.805 26.085 116.894 26.7145C117.507 27.068 117.98 27.6164 118.299 28.3441C118.391 28.5549 118.547 28.7241 118.738 28.8322C118.928 28.9404 119.148 28.9911 119.376 28.9671C119.833 28.9192 120.207 28.5808 120.301 28.1314C120.604 26.6825 121.486 26.0133 122.174 25.7049C123.218 25.2399 124.48 25.3035 125.471 25.8752" stroke="white" stroke-linecap="round" stroke-linejoin="round"/>
<path d="M98.3061 36.7694C99.1578 35.7124 100.818 34.8646 102.696 35.9512C103.093 36.1805 103.602 36.1321 103.942 35.8247C104.282 35.5172 104.396 35.0298 104.206 34.6124C103.564 33.1806 103.859 31.7152 104.994 30.6872C105.946 29.8266 107.549 29.3287 108.981 30.1571C109.312 30.3471 109.62 30.6045 109.9 30.9169C109.977 31.0011 110.066 31.0724 110.159 31.1287C110.445 31.2938 110.802 31.3202 111.116 31.1789C111.535 30.9923 111.788 30.5558 111.737 30.0982" stroke="white" stroke-linecap="round" stroke-linejoin="round"/>
<path d="M93.4936 45.0971C93.9834 43.8324 95.306 42.5191 97.4256 42.978C97.8742 43.074 98.334 42.8723 98.5641 42.4731C98.7942 42.0739 98.7402 41.5738 98.4327 41.2336" stroke="white" stroke-linecap="round" stroke-linejoin="round"/>
<path d="M91.5635 53.9304C91.8847 52.4317 93.0113 51.4424 94.571 51.2848C95.027 51.2394 95.404 50.9018 95.4975 50.4525C95.5936 50.0039 95.3885 49.5459 94.9918 49.3166L94.9868 49.315" stroke="white" stroke-linecap="round" stroke-linejoin="round"/>
<path d="M115.334 38.6204C115.527 38.6794 115.731 38.5711 115.79 38.3786C115.849 38.1861 115.74 37.9822 115.548 37.9232C115.355 37.8642 115.151 37.9725 115.092 38.165C115.033 38.3575 115.142 38.5614 115.334 38.6204Z" stroke="#262626" stroke-miterlimit="10"/>
<path d="M116.088 38.7235C115.89 39.0634 115.453 39.181 115.112 38.9854" stroke="white" stroke-miterlimit="10" stroke-linecap="round"/>
<path d="M120.608 41.6673C120.8 41.7263 121.004 41.618 121.063 41.4255C121.122 41.233 121.014 41.0291 120.821 40.9701C120.629 40.9111 120.425 41.0193 120.366 41.2119C120.307 41.4044 120.415 41.6083 120.608 41.6673Z" stroke="#262626" stroke-miterlimit="10"/>
<path d="M121.361 41.7703C121.163 42.1103 120.727 42.2279 120.386 42.0323" stroke="white" stroke-miterlimit="10" stroke-linecap="round"/>
<path d="M125.877 44.7141C126.07 44.7731 126.274 44.6649 126.333 44.4724C126.392 44.2799 126.283 44.076 126.091 44.017C125.898 43.958 125.694 44.0662 125.635 44.2587C125.576 44.4512 125.685 44.6551 125.877 44.7141Z" stroke="#262626" stroke-miterlimit="10"/>
<path d="M126.631 44.8172C126.433 45.1571 125.996 45.2748 125.655 45.0792" stroke="white" stroke-miterlimit="10" stroke-linecap="round"/>
<path d="M131.147 47.761C131.339 47.82 131.543 47.7118 131.602 47.5193C131.661 47.3267 131.553 47.1229 131.36 47.0639C131.168 47.0049 130.964 47.1131 130.905 47.3056C130.846 47.4981 130.954 47.702 131.147 47.761Z" stroke="#262626" stroke-miterlimit="10"/>
<path d="M131.9 47.8641C131.702 48.204 131.266 48.3216 130.925 48.126" stroke="white" stroke-miterlimit="10" stroke-linecap="round"/>
<path d="M136.42 50.8079C136.613 50.8669 136.816 50.7586 136.875 50.5661C136.934 50.3736 136.826 50.1697 136.634 50.1107C136.441 50.0517 136.237 50.16 136.178 50.3525C136.119 50.545 136.228 50.7489 136.42 50.8079Z" stroke="#262626" stroke-miterlimit="10"/>
<path d="M137.174 50.909C136.976 51.2489 136.539 51.3666 136.198 51.171" stroke="white" stroke-miterlimit="10" stroke-linecap="round"/>
<path d="M141.69 53.8508C141.882 53.9098 142.086 53.8016 142.145 53.6091C142.204 53.4166 142.096 53.2127 141.903 53.1537C141.711 53.0947 141.507 53.2029 141.448 53.3955C141.389 53.588 141.497 53.7919 141.69 53.8508Z" stroke="#262626" stroke-miterlimit="10"/>
<path d="M142.443 53.9539C142.245 54.2939 141.809 54.4115 141.468 54.2159" stroke="white" stroke-miterlimit="10" stroke-linecap="round"/>
<path d="M112.729 43.1301C112.921 43.1891 113.125 43.0809 113.184 42.8884C113.243 42.6959 113.135 42.492 112.942 42.433C112.75 42.374 112.546 42.4822 112.487 42.6747C112.428 42.8673 112.536 43.0711 112.729 43.1301Z" stroke="#262626" stroke-miterlimit="10"/>
<path d="M113.482 43.2332C113.284 43.5732 112.848 43.6908 112.507 43.4952" stroke="white" stroke-miterlimit="10" stroke-linecap="round"/>
<path d="M118.002 46.177C118.195 46.236 118.399 46.1278 118.458 45.9353C118.517 45.7428 118.408 45.5389 118.216 45.4799C118.023 45.4209 117.819 45.5291 117.76 45.7216C117.701 45.9141 117.81 46.118 118.002 46.177Z" stroke="#262626" stroke-miterlimit="10"/>
<path d="M118.756 46.2801C118.558 46.62 118.121 46.7377 117.78 46.5421" stroke="white" stroke-miterlimit="10" stroke-linecap="round"/>
<path d="M123.272 49.2239C123.464 49.2829 123.668 49.1747 123.727 48.9821C123.786 48.7896 123.678 48.5857 123.485 48.5267C123.293 48.4677 123.089 48.576 123.03 48.7685C122.971 48.961 123.079 49.1649 123.272 49.2239Z" stroke="#262626" stroke-miterlimit="10"/>
<path d="M124.025 49.327C123.827 49.6669 123.391 49.7845 123.05 49.5889" stroke="white" stroke-miterlimit="10" stroke-linecap="round"/>
<path d="M128.545 52.2688C128.738 52.3278 128.941 52.2196 129 52.0271C129.059 51.8346 128.951 51.6307 128.759 51.5717C128.566 51.5127 128.362 51.6209 128.303 51.8134C128.244 52.0059 128.353 52.2098 128.545 52.2688Z" stroke="#262626" stroke-miterlimit="10"/>
<path d="M129.299 52.3719C129.101 52.7118 128.664 52.8295 128.323 52.6339" stroke="white" stroke-miterlimit="10" stroke-linecap="round"/>
<path d="M133.815 55.3157C134.007 55.3747 134.211 55.2665 134.27 55.0739C134.329 54.8814 134.221 54.6775 134.028 54.6185C133.836 54.5595 133.632 54.6678 133.573 54.8603C133.514 55.0528 133.622 55.2567 133.815 55.3157Z" stroke="#262626" stroke-miterlimit="10"/>
<path d="M134.568 55.4188C134.37 55.7587 133.934 55.8763 133.593 55.6807" stroke="white" stroke-miterlimit="10" stroke-linecap="round"/>
<path d="M139.084 58.3606C139.277 58.4196 139.481 58.3114 139.54 58.1189C139.599 57.9264 139.49 57.7225 139.298 57.6635C139.105 57.6045 138.901 57.7127 138.842 57.9052C138.783 58.0977 138.892 58.3016 139.084 58.3606Z" stroke="#262626" stroke-miterlimit="10"/>
<path d="M139.838 58.4637C139.64 58.8036 139.203 58.9213 138.862 58.7257" stroke="white" stroke-miterlimit="10" stroke-linecap="round"/>
<path d="M110.119 47.6399C110.312 47.6989 110.516 47.5907 110.575 47.3982C110.634 47.2056 110.525 47.0018 110.333 46.9428C110.14 46.8838 109.937 46.992 109.878 47.1845C109.819 47.377 109.927 47.5809 110.119 47.6399Z" stroke="#262626" stroke-miterlimit="10"/>
<path d="M110.873 47.743C110.675 48.0829 110.238 48.2005 109.898 48.0049" stroke="white" stroke-miterlimit="10" stroke-linecap="round"/>
<path d="M115.393 50.6868C115.585 50.7458 115.789 50.6376 115.848 50.445C115.907 50.2525 115.799 50.0486 115.606 49.9896C115.414 49.9306 115.21 50.0389 115.151 50.2314C115.092 50.4239 115.2 50.6278 115.393 50.6868Z" stroke="#262626" stroke-miterlimit="10"/>
<path d="M116.147 50.7899C115.948 51.1298 115.512 51.2474 115.171 51.0518" stroke="white" stroke-miterlimit="10" stroke-linecap="round"/>
<path d="M120.666 53.7317C120.859 53.7907 121.063 53.6825 121.122 53.49C121.181 53.2974 121.072 53.0936 120.88 53.0346C120.687 52.9756 120.483 53.0838 120.424 53.2763C120.365 53.4688 120.474 53.6727 120.666 53.7317Z" stroke="#262626" stroke-miterlimit="10"/>
<path d="M121.42 53.8348C121.222 54.1747 120.785 54.2923 120.444 54.0967" stroke="white" stroke-miterlimit="10" stroke-linecap="round"/>
<path d="M125.936 56.7786C126.128 56.8376 126.332 56.7293 126.391 56.5368C126.45 56.3443 126.342 56.1404 126.149 56.0814C125.957 56.0224 125.753 56.1307 125.694 56.3232C125.635 56.5157 125.743 56.7196 125.936 56.7786Z" stroke="#262626" stroke-miterlimit="10"/>
<path d="M126.689 56.8817C126.491 57.2216 126.055 57.3392 125.714 57.1436" stroke="white" stroke-miterlimit="10" stroke-linecap="round"/>
<path d="M131.205 59.8255C131.398 59.8845 131.602 59.7762 131.661 59.5837C131.72 59.3912 131.611 59.1873 131.419 59.1283C131.226 59.0693 131.022 59.1775 130.963 59.3701C130.904 59.5626 131.013 59.7665 131.205 59.8255Z" stroke="#262626" stroke-miterlimit="10"/>
<path d="M131.959 59.9285C131.761 60.2685 131.324 60.3861 130.983 60.1905" stroke="white" stroke-miterlimit="10" stroke-linecap="round"/>
<path d="M136.479 62.8723C136.671 62.9313 136.875 62.8231 136.934 62.6306C136.993 62.4381 136.885 62.2342 136.692 62.1752C136.5 62.1162 136.296 62.2244 136.237 62.4169C136.178 62.6094 136.286 62.8133 136.479 62.8723Z" stroke="#262626" stroke-miterlimit="10"/>
<path d="M137.232 62.9754C137.034 63.3154 136.598 63.433 136.257 63.2374" stroke="white" stroke-miterlimit="10" stroke-linecap="round"/>
<path d="M107.518 52.1497C107.71 52.2087 107.914 52.1004 107.973 51.9079C108.032 51.7154 107.924 51.5115 107.731 51.4525C107.539 51.3935 107.335 51.5018 107.276 51.6943C107.217 51.8868 107.325 52.0907 107.518 52.1497Z" stroke="#262626" stroke-miterlimit="10"/>
<path d="M108.272 52.2528C108.073 52.5927 107.637 52.7103 107.296 52.5147" stroke="white" stroke-miterlimit="10" stroke-linecap="round"/>
<path d="M112.787 55.1926C112.98 55.2516 113.184 55.1434 113.243 54.9509C113.302 54.7584 113.193 54.5545 113.001 54.4955C112.808 54.4365 112.605 54.5447 112.546 54.7372C112.487 54.9298 112.595 55.1337 112.787 55.1926Z" stroke="#262626" stroke-miterlimit="10"/>
<path d="M113.541 55.2957C113.343 55.6357 112.906 55.7533 112.566 55.5577" stroke="white" stroke-miterlimit="10" stroke-linecap="round"/>
<path d="M118.061 58.2395C118.253 58.2985 118.457 58.1903 118.516 57.9978C118.575 57.8053 118.467 57.6014 118.274 57.5424C118.082 57.4834 117.878 57.5916 117.819 57.7841C117.76 57.9766 117.868 58.1805 118.061 58.2395Z" stroke="#262626" stroke-miterlimit="10"/>
<path d="M118.814 58.3426C118.616 58.6825 118.18 58.8002 117.839 58.6046" stroke="white" stroke-miterlimit="10" stroke-linecap="round"/>
<path d="M123.33 61.2864C123.523 61.3454 123.727 61.2372 123.786 61.0446C123.845 60.8521 123.736 60.6482 123.544 60.5892C123.351 60.5302 123.147 60.6385 123.088 60.831C123.029 61.0235 123.138 61.2274 123.33 61.2864Z" stroke="#262626" stroke-miterlimit="10"/>
<path d="M124.084 61.3914C123.886 61.7314 123.449 61.849 123.108 61.6534" stroke="white" stroke-miterlimit="10" stroke-linecap="round"/>
<path d="M128.604 64.3333C128.796 64.3923 129 64.284 129.059 64.0915C129.118 63.899 129.01 63.6951 128.817 63.6361C128.625 63.5771 128.421 63.6854 128.362 63.8779C128.303 64.0704 128.411 64.2743 128.604 64.3333Z" stroke="#262626" stroke-miterlimit="10"/>
<path d="M129.357 64.4364C129.159 64.7763 128.723 64.8939 128.382 64.6983" stroke="white" stroke-miterlimit="10" stroke-linecap="round"/>
<path d="M133.877 67.3782C134.07 67.4372 134.274 67.329 134.333 67.1364C134.392 66.9439 134.283 66.74 134.091 66.681C133.898 66.622 133.694 66.7303 133.635 66.9228C133.576 67.1153 133.685 67.3192 133.877 67.3782Z" stroke="#262626" stroke-miterlimit="10"/>
<path d="M134.631 67.4813C134.433 67.8212 133.996 67.9388 133.655 67.7432" stroke="white" stroke-miterlimit="10" stroke-linecap="round"/>
<path d="M104.912 56.6575C105.105 56.7165 105.309 56.6083 105.368 56.4157C105.427 56.2232 105.318 56.0193 105.126 55.9603C104.933 55.9013 104.73 56.0096 104.671 56.2021C104.612 56.3946 104.72 56.5985 104.912 56.6575Z" stroke="#262626" stroke-miterlimit="10"/>
<path d="M105.666 56.7606C105.468 57.1005 105.031 57.2181 104.691 57.0225" stroke="white" stroke-miterlimit="10" stroke-linecap="round"/>
<path d="M110.182 59.7044C110.374 59.7634 110.578 59.6551 110.637 59.4626C110.696 59.2701 110.588 59.0662 110.395 59.0072C110.203 58.9482 109.999 59.0565 109.94 59.249C109.881 59.4415 109.989 59.6454 110.182 59.7044Z" stroke="#262626" stroke-miterlimit="10"/>
<path d="M110.936 59.8074C110.737 60.1474 110.301 60.265 109.96 60.0694" stroke="white" stroke-miterlimit="10" stroke-linecap="round"/>
<path d="M115.455 62.7512C115.648 62.8102 115.852 62.702 115.911 62.5095C115.97 62.317 115.861 62.1131 115.669 62.0541C115.476 61.9951 115.272 62.1033 115.213 62.2958C115.154 62.4884 115.263 62.6922 115.455 62.7512Z" stroke="#262626" stroke-miterlimit="10"/>
<path d="M116.209 62.8543C116.011 63.1943 115.574 63.3119 115.233 63.1163" stroke="white" stroke-miterlimit="10" stroke-linecap="round"/>
<path d="M120.725 65.7981C120.917 65.8571 121.121 65.7489 121.18 65.5564C121.239 65.3639 121.131 65.16 120.938 65.101C120.746 65.042 120.542 65.1502 120.483 65.3427C120.424 65.5352 120.532 65.7391 120.725 65.7981Z" stroke="#262626" stroke-miterlimit="10"/>
<path d="M121.479 65.9012C121.28 66.2411 120.844 66.3587 120.503 66.1632" stroke="white" stroke-miterlimit="10" stroke-linecap="round"/>
<path d="M125.998 68.8411C126.191 68.9001 126.395 68.7918 126.454 68.5993C126.513 68.4068 126.404 68.2029 126.212 68.1439C126.019 68.0849 125.815 68.1932 125.756 68.3857C125.697 68.5782 125.806 68.7821 125.998 68.8411Z" stroke="#262626" stroke-miterlimit="10"/>
<path d="M126.752 68.9442C126.554 69.2841 126.117 69.4017 125.776 69.2061" stroke="white" stroke-miterlimit="10" stroke-linecap="round"/>
<path d="M131.268 71.888C131.46 71.947 131.664 71.8387 131.723 71.6462C131.782 71.4537 131.674 71.2498 131.481 71.1908C131.289 71.1318 131.085 71.24 131.026 71.4326C130.967 71.6251 131.075 71.829 131.268 71.888Z" stroke="#262626" stroke-miterlimit="10"/>
<path d="M132.022 71.991C131.823 72.331 131.387 72.4486 131.046 72.253" stroke="white" stroke-miterlimit="10" stroke-linecap="round"/>
<path d="M102.307 61.1673C102.499 61.2263 102.703 61.118 102.762 60.9255C102.821 60.733 102.713 60.5291 102.52 60.4701C102.328 60.4111 102.124 60.5193 102.065 60.7119C102.006 60.9044 102.114 61.1083 102.307 61.1673Z" stroke="#262626" stroke-miterlimit="10"/>
<path d="M103.061 61.2703C102.862 61.6103 102.426 61.7279 102.085 61.5323" stroke="white" stroke-miterlimit="10" stroke-linecap="round"/>
<path d="M107.58 64.2141C107.773 64.2731 107.977 64.1649 108.036 63.9724C108.095 63.7799 107.986 63.576 107.794 63.517C107.601 63.458 107.397 63.5662 107.338 63.7587C107.279 63.9512 107.388 64.1551 107.58 64.2141Z" stroke="#262626" stroke-miterlimit="10"/>
<path d="M108.334 64.3172C108.136 64.6571 107.699 64.7748 107.358 64.5792" stroke="white" stroke-miterlimit="10" stroke-linecap="round"/>
<path d="M112.85 67.261C113.042 67.32 113.246 67.2118 113.305 67.0193C113.364 66.8267 113.256 66.6229 113.063 66.5639C112.871 66.5049 112.667 66.6131 112.608 66.8056C112.549 66.9981 112.657 67.202 112.85 67.261Z" stroke="#262626" stroke-miterlimit="10"/>
<path d="M113.604 67.3641C113.405 67.704 112.969 67.8216 112.628 67.626" stroke="white" stroke-miterlimit="10" stroke-linecap="round"/>
<path d="M118.123 70.3059C118.316 70.3649 118.52 70.2567 118.579 70.0642C118.638 69.8717 118.529 69.6678 118.337 69.6088C118.144 69.5498 117.94 69.658 117.881 69.8505C117.822 70.043 117.931 70.2469 118.123 70.3059Z" stroke="#262626" stroke-miterlimit="10"/>
<path d="M118.877 70.409C118.679 70.7489 118.242 70.8666 117.901 70.671" stroke="white" stroke-miterlimit="10" stroke-linecap="round"/>
<path d="M123.393 73.3509C123.585 73.4099 123.789 73.3016 123.848 73.1091C123.907 72.9166 123.799 72.7127 123.606 72.6537C123.414 72.5947 123.21 72.7029 123.151 72.8955C123.092 73.088 123.2 73.2919 123.393 73.3509Z" stroke="#262626" stroke-miterlimit="10"/>
<path d="M124.147 73.4539C123.948 73.7939 123.512 73.9115 123.171 73.7159" stroke="white" stroke-miterlimit="10" stroke-linecap="round"/>
<path d="M128.662 76.3977C128.855 76.4567 129.059 76.3485 129.118 76.156C129.177 75.9635 129.068 75.7596 128.876 75.7006C128.683 75.6416 128.48 75.7498 128.421 75.9423C128.362 76.1348 128.47 76.3387 128.662 76.3977Z" stroke="#262626" stroke-miterlimit="10"/>
<path d="M129.416 76.5008C129.218 76.8407 128.781 76.9584 128.441 76.7628" stroke="white" stroke-miterlimit="10" stroke-linecap="round"/>
<path d="M139.793 68.7699C140.614 70.0003 140.867 71.6657 140.394 72.9924C139.551 75.3512 136.306 76.9305 132.692 76.058C132.488 75.828 132.24 75.5945 131.925 75.3435C129.937 73.7712 127.784 73.6046 125.257 73.3576C113.992 72.2583 115.173 71.5431 112.462 71.7605C106.91 72.2086 102.675 75.6788 94.2096 82.624C91.2889 85.021 88.7954 87.08 86.9013 88.9513C86.9543 88.7551 87.0411 88.4455 87.1684 88.0753C88.6918 83.6412 91.7776 82.079 95.6494 78.2035C96.7795 77.0718 98.8528 74.3199 101.54 71.1686C105.53 66.4913 106.462 65.654 107.828 64.8832C110.055 63.6298 111.301 64.192 118.467 64.5396C123.648 64.791 130.219 64.8483 136.123 66.4607C137.059 66.7168 138.758 67.2222 139.793 68.7699Z" fill="#F4F3F1"/>
<path d="M119.295 130.156C119.312 130.28 119.332 130.403 119.349 130.526C119.347 130.527 119.347 130.529 119.345 130.53C119.331 130.408 119.316 130.282 119.295 130.156Z" fill="#F4F3F1"/>
<path d="M79.5235 218.972C84.9183 196.38 89.126 171.985 91.4334 145.914C91.7867 141.946 92.086 138.015 92.3396 134.121C89.3916 126.138 88.4402 122.783 88.4577 121.798C88.4647 121.531 88.5052 120.051 88.1445 118.093C88.061 117.63 87.9435 117.136 87.7771 116.594C86.699 113.052 84.9336 111.827 84.2306 107.896C84.1173 107.266 84.1604 107.289 84.052 105.845C84.0322 105.579 84.0063 105.262 83.9742 104.882C83.8482 103.421 83.0237 97.0816 82.9442 96.2544C82.7156 93.9115 84.2003 91.621 86.9019 88.9513C88.7959 87.08 91.2894 85.021 94.2101 82.6239C102.676 75.6788 106.91 72.2085 112.463 71.7605C115.174 71.543 113.993 72.2583 125.257 73.3575C127.784 73.6046 129.938 73.7712 131.926 75.3435C132.24 75.5945 132.488 75.828 132.692 76.058C133.643 77.1291 133.686 78.1215 135.621 80.2938C138.257 83.2523 140.131 83.607 140.209 85.3961C140.284 87.1211 138.613 88.3756 138.418 88.5175C135.547 90.608 131.424 88.1281 131.228 88.0072C129.303 86.808 128.386 85.0603 127.99 84.1397C124.331 85.0383 121.329 84.5605 118.378 84.2799C116.401 84.0921 113.693 83.9213 110.351 83.9731L110.353 84.1731C109.64 85.4702 108.833 86.8294 107.915 88.2271C107.715 88.5298 107.515 88.8273 107.316 89.1216C106.51 90.2988 105.702 91.3926 104.907 92.3995C105.124 92.6535 105.391 93.0265 105.598 93.5239C105.712 93.7987 105.784 94.0535 105.831 94.273C107.708 93.5081 109.304 92.8531 110.689 92.3083C115.835 90.2754 118.016 89.7504 120.472 90.6638C122.857 91.5499 124.27 93.3341 126.405 96.0324C128.186 98.2776 130.221 100.847 130.247 104.447C130.263 106.938 129.314 108.888 128.688 109.94C129.507 110.645 129.991 111.156 130.242 111.665C131.808 114.861 130.255 120.253 126.707 121.698C126.466 121.796 125.217 122.283 123.771 122.083C123.533 123.399 123.017 125.324 121.805 127.371C120.998 128.735 120.105 129.775 119.349 130.526C119.332 130.403 119.312 130.28 119.295 130.157C119.315 130.282 119.33 130.409 119.344 130.53C119.347 130.529 119.346 130.527 119.349 130.526C120.431 137.975 121.385 145.663 122.183 153.579C124.43 175.88 125.111 196.846 124.766 216.202C121.261 216.004 116.313 215.843 110.368 216.042C109.392 216.074 105.713 216.205 98.129 216.892C93.4381 217.315 87.1002 217.966 79.5235 218.972Z" fill="#F4F3F1"/>
<path d="M105.598 93.524C105.39 93.0267 105.124 92.6536 104.906 92.3996C105.702 91.3927 106.51 90.2989 107.315 89.1218C107.841 89.742 108.466 90.4074 109.204 91.0796C109.712 91.5412 110.211 91.9481 110.688 92.3084C109.303 92.8532 107.707 93.5082 105.83 94.2731C105.783 94.0536 105.712 93.7989 105.598 93.524Z" fill="#F4F3F1"/>
<path d="M92.3415 134.112C92.3415 134.112 92.3401 134.118 92.3407 134.12C92.0871 138.014 91.7878 141.945 91.4345 145.913C89.1271 171.984 84.9194 196.379 79.5247 218.971C87.1014 217.965 93.4392 217.315 98.1301 216.891C105.714 216.204 109.393 216.073 110.369 216.041C116.314 215.842 121.262 216.003 124.767 216.201C125.112 196.845 124.431 175.879 122.185 153.578C121.386 145.662 120.432 137.974 119.35 130.525C119.333 130.402 119.313 130.279 119.296 130.156" stroke="#262626" stroke-miterlimit="10" stroke-linecap="round"/>
<path d="M112.591 152.254C115.019 151.134 116.476 149.69 117.338 148.606C120.352 144.806 120.917 139.267 119.21 133.622C118.748 132.09 118.117 130.548 117.323 129.033" stroke="#262626" stroke-miterlimit="10" stroke-linecap="round"/>
<path d="M117.757 126.217C118.248 126.951 119.008 128.301 119.296 130.156C119.316 130.281 119.332 130.408 119.346 130.53C119.495 131.82 119.358 132.9 119.213 133.621" stroke="#262626" stroke-miterlimit="10" stroke-linecap="round"/>
<path d="M110.488 125.367C110.875 125.282 111.807 125.022 112.578 124.18C113.804 122.84 113.611 121.131 113.576 120.87" stroke="#262626" stroke-miterlimit="10" stroke-linecap="round"/>
<path d="M123.771 122.08C123.153 121.996 122.497 121.782 121.869 121.355C120.01 120.098 119.769 117.915 119.735 117.573" stroke="#262626" stroke-miterlimit="10" stroke-linecap="round"/>
<path d="M101.278 109.025C102.755 109.015 105.165 108.892 108.023 108.208C115.127 106.506 117.381 103.155 121.139 104.301C122.041 104.575 123.621 105.842 126.781 108.378C127.557 109.001 128.186 109.506 128.688 109.939C129.506 110.644 129.991 111.155 130.242 111.664C131.808 114.86 130.255 120.252 126.706 121.697C126.466 121.795 125.216 122.282 123.77 122.082" stroke="#262626" stroke-miterlimit="10" stroke-linecap="round"/>
<path d="M119.345 130.53C119.345 130.53 119.347 130.527 119.35 130.526C120.106 129.775 120.999 128.735 121.806 127.371C123.018 125.324 123.534 123.399 123.772 122.083" stroke="#262626" stroke-miterlimit="10" stroke-linecap="round"/>
<path d="M128.689 109.94C129.314 108.887 130.264 106.938 130.248 104.446C130.222 100.847 128.186 98.2772 126.406 96.032C124.27 93.3337 122.857 91.5495 120.473 90.6634C118.017 89.75 115.836 90.2751 110.689 92.3079C109.304 92.8527 107.708 93.5077 105.831 94.2726C105.196 94.5306 104.529 94.8013 103.829 95.0848C99.6512 96.7759 96.3378 98.0756 94.5875 98.7548" stroke="#262626" stroke-miterlimit="10" stroke-linecap="round"/>
<path d="M103.755 93.8146C104.134 93.3627 104.521 92.8929 104.907 92.3989C105.702 91.3919 106.511 90.2982 107.316 89.121C107.515 88.8266 107.715 88.5291 107.915 88.2265C108.833 86.8287 109.64 85.4696 110.354 84.1725" stroke="#262626" stroke-miterlimit="10" stroke-linecap="round"/>
<path d="M109.242 83.998C109.619 83.9883 109.991 83.9797 110.353 83.9734C113.695 83.9216 116.402 84.0924 118.379 84.2801C121.331 84.5608 124.333 85.0386 127.992 84.14C128.302 84.064 128.616 83.9792 128.936 83.8823C129.245 83.7903 129.499 83.7029 129.668 83.6456" stroke="#262626" stroke-miterlimit="10" stroke-linecap="round"/>
<path d="M127.989 84.1385C128.385 85.0591 129.302 86.8069 131.227 88.0061C131.422 88.1269 135.545 90.6069 138.416 88.5164C138.611 88.3745 140.283 87.12 140.208 85.395C140.129 83.6058 138.255 83.2511 135.619 80.2926C133.685 78.1203 133.641 77.1279 132.691 76.0569C132.487 75.8269 132.239 75.5933 131.924 75.3423C129.936 73.77 127.783 73.6035 125.256 73.3564C113.991 72.2572 115.172 71.5419 112.461 71.7593C106.909 72.2074 102.674 75.6777 94.2085 82.6228C91.2879 85.0199 88.7944 87.0788 86.9003 88.9502C84.1987 91.6199 82.7141 93.9103 82.9427 96.2533C83.0222 97.0805 83.8467 103.42 83.9726 104.881C84.0048 105.261 84.0306 105.578 84.0505 105.844C84.1589 107.288 84.1158 107.265 84.229 107.895C84.9321 111.826 86.6975 113.051 87.7755 116.593C87.942 117.135 88.0594 117.629 88.143 118.092C88.5036 120.05 88.4632 121.53 88.4561 121.797C88.4386 122.782 89.39 126.137 92.3381 134.12C92.6674 135.01 93.0205 135.956 93.4011 136.964" stroke="#262626" stroke-miterlimit="10" stroke-linecap="round"/>
<path d="M86.9013 88.9513C86.9543 88.7551 87.0411 88.4455 87.1684 88.0753C88.6918 83.6412 91.7776 82.079 95.6494 78.2035C96.7795 77.0718 98.8528 74.3199 101.54 71.1686C105.53 66.4913 106.462 65.654 107.828 64.8832C110.055 63.6298 111.301 64.192 118.467 64.5396C123.648 64.791 130.219 64.8483 136.123 66.4607C137.059 66.7168 138.758 67.2222 139.793 68.7699C140.614 70.0003 140.867 71.6657 140.394 72.9924C139.551 75.3512 136.306 76.9305 132.692 76.058" stroke="#262626" stroke-miterlimit="10" stroke-linecap="round"/>
<path d="M110.69 92.3077C110.212 91.9474 109.713 91.5406 109.205 91.079C108.467 90.4067 107.842 89.7413 107.316 89.1211" stroke="#262626" stroke-miterlimit="10" stroke-linecap="round"/>
<path d="M131.337 67.4026C131.198 67.781 131.019 68.3526 130.929 69.0665C130.873 69.5236 130.789 70.1902 130.913 70.571C131.239 71.5644 133.431 72.0042 136.178 71.7324" stroke="#262626" stroke-miterlimit="10" stroke-linecap="round"/>
<path d="M137.084 82.9605C137.006 83.0107 136.031 83.6574 136.012 84.8484C135.995 85.7081 136.484 86.5128 137.268 86.9201" stroke="#262626" stroke-miterlimit="10" stroke-linecap="round"/>
<path d="M123.864 118.187C123.672 118.285 122.781 118.714 121.694 118.392C120.736 118.109 120.235 117.418 120.098 117.219" stroke="#262626" stroke-miterlimit="10" stroke-linecap="round"/>
<path d="M108.466 122.753C108.81 122.726 109.262 122.654 109.757 122.46C110.663 122.108 111.247 121.539 111.543 121.198C112.903 121.076 115.348 120.667 117.842 119.053C118.579 118.574 119.206 118.066 119.733 117.572C119.86 117.454 119.982 117.334 120.097 117.219C120.392 116.919 120.652 116.632 120.876 116.364" stroke="#262626" stroke-miterlimit="10" stroke-linecap="round"/>
<path d="M110.813 132.44C111.257 132.323 112.892 131.84 114.021 130.211C115.373 128.256 114.953 126.157 114.878 125.801" stroke="#262626" stroke-miterlimit="10" stroke-linecap="round"/>
<path d="M105.842 94.326L105.83 94.2719C105.783 94.0524 105.712 93.7977 105.598 93.5228C105.39 93.0255 105.124 92.6525 104.906 92.3984" stroke="#262626" stroke-miterlimit="10" stroke-linecap="round"/>
<path d="M87.7212 101.869C87.2864 101.97 86.7259 102.162 86.16 102.545C84.5666 103.617 84.1514 105.356 84.0536 105.844" stroke="#262626" stroke-miterlimit="10" stroke-linecap="round"/>
<path d="M104.75 125.885C105.134 126.014 105.643 126.143 106.247 126.19C107.06 126.251 107.74 126.143 108.212 126.028" stroke="#262626" stroke-miterlimit="10" stroke-linecap="round"/>
</svg>
