<svg width="277" height="233" viewBox="0 0 277 233" fill="none" xmlns="http://www.w3.org/2000/svg">
<g clip-path="url(#clip0_5678_17012)">
<path d="M238.738 158.776L231.821 178.429C230.432 178.054 228.008 177.546 225.019 177.699C224.895 176.25 224.349 167.94 230.327 162.029C232.53 159.851 234.925 158.68 236.678 158.047L238.738 158.776Z" fill="#F4F3F1"/>
<path d="M236.007 232.261V232.751H138.605C138.605 231.897 138.931 231.11 139.477 230.534C140.023 229.949 140.771 229.574 141.623 229.517L171.053 227.54C174.186 227.329 176.619 224.728 176.619 221.591V210.286L193.318 209.807V221.706C193.318 224.901 195.847 227.54 199.037 227.665L232.893 229.018C234.627 229.095 236.007 230.524 236.007 232.261Z" fill="#262626"/>
<path d="M206.691 182.843C201.652 178.381 193.154 169.524 188.499 155.744C188.374 155.379 187.876 153.825 187.32 151.359C187.109 150.428 186.889 149.372 186.688 148.201C186.477 146.992 186.276 145.668 186.104 144.229C185.912 142.713 185.768 141.081 185.682 139.344C185.625 138.26 185.586 137.137 185.577 135.976C185.567 134.911 185.586 133.817 185.634 132.704C185.653 132.167 185.682 131.629 185.711 131.092C186.171 123.828 187.838 115.633 191.813 107.438C192.311 106.411 192.848 105.394 193.423 104.367C195.664 100.366 198.04 97.1989 199.956 94.915C199.956 94.9054 199.976 94.8958 199.976 94.8862C200.253 94.5696 200.502 94.2721 200.752 93.9938H200.723C201.058 93.6483 201.451 93.3605 201.872 93.1302C204.315 91.7963 207.649 92.612 209.393 95.2125C209.469 95.2317 209.556 95.2509 209.632 95.2893C209.901 95.3564 210.178 95.4428 210.456 95.5292C213.072 96.3544 215.486 97.3428 217.689 98.4271C221.473 100.27 224.664 102.381 227.26 104.386L227.241 104.473C227.614 104.549 228.007 104.655 228.4 104.77C237.779 107.62 241.266 120.565 241.534 121.601C243.805 122.782 248.221 125.094 248.738 129.067C248.796 129.499 248.796 129.912 248.767 130.295L238.737 158.776L236.677 158.047C234.924 158.68 232.529 159.851 230.325 162.029C224.347 167.94 224.893 176.251 225.018 177.7C223.495 177.776 221.818 178.016 220.065 178.544C217.114 179.417 214.901 180.789 213.445 181.864C211.845 182.008 210.15 182.219 208.377 182.526C207.803 182.622 207.237 182.737 206.691 182.843Z" fill="#F4F3F1"/>
<path d="M227.258 104.385C224.662 102.379 221.472 100.268 217.688 98.4258L262.561 91.1328L248.765 130.294C248.794 129.91 248.794 129.498 248.737 129.066C248.219 125.093 243.803 122.78 241.532 121.6C241.264 120.564 237.777 107.619 228.398 104.769C228.005 104.654 227.613 104.548 227.239 104.471L227.258 104.385Z" fill="#7099ED"/>
<path d="M166.013 200.931L195.855 199.136L200.051 198.887L225.142 197.38L231.819 178.428L238.736 158.776L248.766 130.295L262.562 91.1335L217.688 98.4169C215.485 97.3421 213.071 96.3537 210.455 95.5285C210.178 95.4421 209.9 95.3557 209.632 95.2886L209.66 95.183L271.126 84.3587C271.491 84.3012 271.826 84.3779 272.104 84.5507L272.573 85.0113C272.793 85.3375 272.87 85.7502 272.746 86.1724L232.337 202.658C232.289 202.812 232.222 202.955 232.154 203.09C232.078 203.234 231.992 203.359 231.905 203.483C231.81 203.608 231.714 203.723 231.599 203.838C231.283 204.155 230.89 204.404 230.459 204.558C230.162 204.664 229.855 204.721 229.53 204.731L117.749 208.588H117.557C117.365 208.607 117.183 208.55 117.03 208.454H117.011C116.618 208.214 116.417 207.715 116.599 207.245L128.718 177.536C130.289 177.43 131.812 177.296 133.278 177.142L133.297 177.363L124.071 203.454L147.294 202.063L152.17 201.766L153.99 201.66L160.035 201.295L166.013 200.931Z" fill="#262626"/>
<path d="M197.695 184.233C194.352 180.117 190.271 174.052 187.359 165.991C185.989 162.182 185.126 158.622 184.58 155.493C171.982 159.111 158.043 161.913 142.897 163.208C140.751 163.391 138.644 163.544 136.555 163.659C137.178 168.592 137.8 173.515 138.423 178.447L136.881 178.907C136.66 178.207 136.45 177.497 136.248 176.787C135.3 173.476 134.514 170.012 133.901 166.394C133.595 164.552 133.346 162.729 133.145 160.953C135.396 160.819 137.686 160.646 140.004 160.445C140.962 160.358 141.93 160.272 142.897 160.176C146.566 159.802 150.159 159.36 153.675 158.833C154.192 158.766 154.7 158.689 155.208 158.602C156.357 158.43 157.507 158.247 158.637 158.046C161.837 157.508 164.97 156.913 168.026 156.261C171.005 155.637 173.918 154.966 176.763 154.255C180.394 153.344 183.91 152.375 187.32 151.357C187.876 153.824 188.374 155.378 188.499 155.743C193.154 169.523 201.652 178.38 206.691 182.842C204.344 183.322 202.208 183.907 200.301 184.521H200.292C199.372 184.348 198.5 184.272 197.695 184.281V184.233Z" fill="#7099ED"/>
<path d="M195.835 198.8C195.97 198.301 196.918 194.568 194.542 191.324C192.971 189.194 190.835 188.446 190.059 188.225C190.863 188.215 191.678 188.206 192.521 188.167C193.019 188.148 193.527 188.119 194.034 188.09C194.916 188.042 195.788 187.985 196.621 187.908C196.726 187.035 197.474 186.162 198.566 185.701L198.374 185.173C198.987 184.953 199.62 184.732 200.29 184.521H200.3C202.206 183.907 204.343 183.321 206.69 182.841C207.236 182.736 207.801 182.621 208.376 182.525C210.148 182.218 211.844 182.007 213.444 181.863C214.9 180.788 217.113 179.416 220.064 178.542C221.817 178.015 223.493 177.775 225.017 177.698C228.006 177.544 230.429 178.053 231.818 178.427L225.141 197.379L200.051 198.886L195.855 199.135L195.835 198.8Z" fill="#F4F3F1"/>
<path d="M198.567 185.702C197.475 186.163 196.727 187.036 196.622 187.909C195.789 187.986 194.917 188.044 194.035 188.092C193.528 188.12 193.02 188.149 192.522 188.168C192.416 187.41 192.551 186.873 192.713 186.518C193.327 185.136 195.204 184.311 197.695 184.282C198.5 184.272 199.372 184.349 200.291 184.522C199.621 184.733 198.988 184.954 198.375 185.174L198.567 185.702Z" fill="#F4F3F1"/>
<path d="M193.424 104.366C192.849 105.393 192.313 106.41 191.815 107.437L190.723 106.985C193.348 101.66 194.172 96.7178 194.421 93.3496C196.519 93.5703 198.626 93.7814 200.724 93.9925C200.446 94.2612 200.197 94.5587 199.977 94.885C199.977 94.8946 199.967 94.9042 199.958 94.9138C198.042 97.1976 195.666 100.364 193.424 104.366Z" fill="#7099ED"/>
<path d="M190.72 106.986L191.812 107.437C187.836 115.632 186.169 123.827 185.709 131.091C184.675 130.89 182.807 130.66 180.584 131.187C178.409 131.696 176.876 132.694 176.043 133.318C176.57 128.136 177.585 123.597 178.678 119.845C178.879 120.085 179.07 120.325 179.252 120.555C181.973 118.578 187.118 114.298 190.72 106.986Z" fill="#7099ED"/>
<path d="M166.013 200.931L160.035 201.295L153.99 201.66L153.961 201.228C154.392 199.904 157.161 191.968 165.457 188.379C170.899 186.019 175.871 186.767 177.835 187.18C180.354 187.189 183.075 187.324 185.978 187.65C187.396 187.813 188.756 188.005 190.059 188.226C190.835 188.446 192.971 189.195 194.542 191.325C196.918 194.569 195.97 198.302 195.836 198.8L195.855 199.136L166.013 200.931Z" fill="white"/>
<path d="M153.962 201.229L153.991 201.66L152.17 201.766C148.769 196.172 145.483 189.781 142.638 182.574C142.015 180.991 141.431 179.417 140.895 177.882C148.99 176.058 158.177 174.533 168.284 173.717C174.645 173.199 180.642 173.026 186.228 173.084C186.094 171.903 185.969 170.723 185.845 169.533C185.356 164.793 184.934 160.11 184.58 155.494C185.126 158.622 185.988 162.183 187.358 165.992C190.271 174.053 194.352 180.117 197.695 184.234V184.282C195.204 184.311 193.327 185.136 192.713 186.518C192.551 186.873 192.416 187.41 192.522 188.168C191.679 188.207 190.865 188.216 190.06 188.226C188.757 188.005 187.396 187.813 185.979 187.65C183.076 187.324 180.355 187.19 177.836 187.18C175.872 186.767 170.9 186.019 165.458 188.38C157.162 191.968 154.393 199.904 153.962 201.229Z" fill="#7099ED"/>
<path d="M186.689 148.201C186.89 149.372 187.111 150.427 187.321 151.358C183.911 152.375 180.395 153.345 176.764 154.256V154.227C176.544 153.009 176.352 151.704 176.18 150.312C177.406 149.919 178.728 149.545 180.155 149.218C182.531 148.671 184.725 148.364 186.689 148.201Z" fill="#7099ED"/>
<path d="M185.844 169.533C185.969 170.723 186.094 171.903 186.228 173.084C180.642 173.026 174.645 173.199 168.284 173.717C158.177 174.533 148.99 176.058 140.895 177.882C140.051 178.064 139.237 178.256 138.423 178.448C137.8 173.515 137.177 168.593 136.555 163.66C138.643 163.545 140.751 163.392 142.897 163.209C158.043 161.914 171.982 159.112 184.58 155.494C184.934 160.11 185.356 164.793 185.844 169.533Z" fill="#7099ED"/>
<path d="M186.104 144.228C186.276 145.667 186.478 146.992 186.688 148.201C184.724 148.364 182.531 148.671 180.155 149.218C178.727 149.544 177.405 149.918 176.179 150.312C176.045 149.151 175.92 147.932 175.834 146.656C177.597 146.022 178.373 144.257 177.884 143.048C177.549 142.232 176.648 141.685 175.633 141.58C175.633 140.457 175.642 139.296 175.7 138.106C177.223 137.415 179.273 136.657 181.764 136.263C183.172 136.033 184.466 135.966 185.577 135.975C185.587 137.137 185.625 138.259 185.682 139.344C184.197 139.382 183.077 140.486 183 141.628C182.914 142.981 184.303 144.42 186.104 144.228Z" fill="#383940"/>
<path d="M185.682 139.344C185.769 141.081 185.912 142.712 186.104 144.228C184.303 144.42 182.914 142.981 183 141.628C183.077 140.486 184.197 139.382 185.682 139.344Z" fill="#383940"/>
<path d="M185.634 132.703C185.586 133.816 185.567 134.91 185.576 135.975C184.465 135.966 183.172 136.033 181.763 136.263C179.273 136.657 177.222 137.415 175.699 138.106C175.728 137.348 175.766 136.57 175.824 135.793C177.481 134.833 179.732 133.797 182.52 133.173C183.632 132.933 184.676 132.78 185.634 132.703Z" fill="#7099ED"/>
<path d="M172.258 68.4385C172.891 69.9355 173.638 71.5668 174.538 73.2845C175.42 74.983 176.445 76.7774 177.642 78.6103C179.453 81.3931 181.302 83.7729 183.055 85.7785C183.496 86.2967 183.936 86.786 184.368 87.2467C177.748 93.6856 170.649 100.23 163.052 106.794C159.354 109.98 155.694 113.05 152.063 115.996C150.205 112.187 148.375 107.878 146.756 103.09C146.43 102.12 146.114 101.161 145.827 100.211C145.424 98.925 145.06 97.6679 144.725 96.4396C144.035 96.5739 143.326 96.6795 142.589 96.7371C142.589 96.7371 139.398 96.9962 136.716 96.3532C127.567 94.1654 120.66 76.7295 118.82 53.939L153.979 51.9143L154.468 51.8855H154.525C156.154 51.8087 159.986 51.9047 161.634 54.4092C162.027 55.0042 162.314 55.7718 162.487 58.5835C162.602 60.5506 162.659 63.3431 162.333 66.7496C163.205 66.1835 164.077 65.6173 164.958 65.0512C164.805 64.0532 164.585 61.6062 165.993 59.2456C166.443 58.4779 167.181 57.2592 168.637 56.6835C170.563 55.9254 172.891 56.6355 174.232 58.0269C176.378 60.2628 175.621 63.8613 174.519 65.886C173.896 67.0375 173.063 67.8532 172.258 68.4385Z" fill="white"/>
<path d="M183.239 46.4834V50.2355L179.263 50.4658L154.527 51.886H154.47C154.269 51.8956 154.106 51.9052 153.981 51.9148L118.822 53.9395L106.713 54.6304L106.512 51.742L108.284 51.339C111.139 50.6961 113.17 48.1723 113.189 45.2455L113.275 33.2506C113.333 24.5374 116.753 16.5824 122.329 10.6712C127.904 4.76011 135.635 0.883331 144.334 0.307572C162.632 -0.882329 178.43 12.9743 179.656 31.2738L180.49 43.9213C180.537 44.641 180.863 45.2839 181.361 45.7445C181.85 46.2051 182.521 46.4834 183.239 46.4834Z" fill="#FF8B63"/>
<path d="M182.521 133.173C179.733 133.797 177.482 134.833 175.824 135.793C175.863 135.198 175.91 134.603 175.968 133.999C175.987 133.768 176.016 133.548 176.045 133.317C176.878 132.694 178.411 131.696 180.586 131.187C182.808 130.659 184.676 130.89 185.711 131.091C185.682 131.628 185.653 132.166 185.634 132.703C184.676 132.78 183.632 132.933 182.521 133.173Z" fill="#7099ED"/>
<path d="M177.884 143.048C178.373 144.257 177.597 146.023 175.834 146.656C175.719 145.054 175.642 143.355 175.633 141.58C176.648 141.686 177.549 142.233 177.884 143.048Z" fill="#383940"/>
<path d="M162.335 66.7492C162.661 63.3426 162.603 60.5502 162.488 58.583C162.316 55.7714 162.029 55.0037 161.636 54.4088C159.988 51.9042 156.156 51.8083 154.527 51.885L179.263 50.4648C179.57 52.9022 179.714 56.0209 179.254 59.5906C178.459 65.7512 176.207 70.4437 174.54 73.2841C173.64 71.5664 172.892 69.9351 172.26 68.4381C173.065 67.8528 173.898 67.0371 174.521 65.8856C175.623 63.8608 176.38 60.2623 174.234 58.0265C172.892 56.6351 170.564 55.925 168.639 56.683C167.183 57.2588 166.445 58.4775 165.995 59.2452C164.586 61.6058 164.807 64.0528 164.96 65.0507C164.079 65.6169 163.207 66.1831 162.335 66.7492Z" fill="#383940"/>
<path d="M155.553 140.477C156.501 140.477 157.267 141.417 157.267 142.568C157.267 143.72 156.501 144.651 155.553 144.651C154.604 144.651 153.828 143.72 153.828 142.568C153.828 141.417 154.604 140.477 155.553 140.477Z" fill="#F4F3F1"/>
<path d="M158.638 158.047C157.507 158.249 156.357 158.431 155.208 158.604V158.537C155.198 158.172 155.275 157.788 155.419 157.433C155.706 156.685 156.271 156.08 156.923 156.08C157.871 156.08 158.638 156.896 158.638 158.047Z" fill="#F4F3F1"/>
<path d="M154.127 116.764C155.075 116.764 155.851 117.704 155.851 118.856C155.851 120.007 155.075 120.948 154.127 120.948C153.897 120.948 153.676 120.89 153.475 120.794C153.475 120.784 153.466 120.784 153.466 120.784C152.843 120.468 152.402 119.719 152.402 118.856C152.402 117.704 153.178 116.764 154.127 116.764Z" fill="#F4F3F1"/>
<path d="M163.055 106.794C170.652 100.231 177.751 93.6864 184.371 87.2475C183.94 86.7869 183.499 86.2975 183.058 85.7793C184.304 86.2591 185.606 86.8157 186.929 87.4298C189.783 88.7636 192.303 90.1934 194.506 91.6137C194.487 92.1318 194.468 92.7076 194.42 93.3505C194.171 96.7187 193.347 101.661 190.722 106.986C187.12 114.299 181.976 118.578 179.255 120.555C179.073 120.325 178.881 120.085 178.68 119.845C176.984 117.782 174.618 115.373 171.485 113.214C170.288 112.389 168.975 111.602 167.548 110.892C166.015 110.124 164.54 109.529 163.151 109.069C159.453 111.381 155.755 113.694 152.066 115.997C155.697 113.051 159.357 109.98 163.055 106.794Z" fill="#F4F3F1"/>
<path d="M153.475 120.795C153.676 120.891 153.897 120.948 154.126 120.948C155.075 120.948 155.851 120.008 155.851 118.856C155.851 117.705 155.075 116.764 154.126 116.764C153.178 116.764 152.402 117.705 152.402 118.856C152.402 119.72 152.843 120.468 153.465 120.785C153.465 120.785 153.475 120.785 153.475 120.795ZM155.554 140.476C154.605 140.476 153.829 141.416 153.829 142.568C153.829 143.719 154.605 144.65 155.554 144.65C156.502 144.65 157.269 143.719 157.269 142.568C157.269 141.416 156.502 140.476 155.554 140.476ZM168.027 156.261C164.971 156.914 161.838 157.509 158.639 158.046C158.639 156.895 157.872 156.079 156.924 156.079C156.272 156.079 155.707 156.684 155.42 157.432C155.276 157.787 155.199 158.171 155.199 158.536V158.603C154.701 158.689 154.193 158.766 153.676 158.833C152.603 150.897 151.703 143.374 150.927 136.119C150.524 132.367 150.055 127.675 150.927 121.601C151.272 119.24 151.722 117.311 152.067 115.997C155.755 113.694 159.453 111.381 163.151 109.068C164.54 109.529 166.015 110.124 167.548 110.892C168.976 111.602 170.288 112.389 171.486 113.214C174.618 115.373 176.985 117.782 178.68 119.845C177.588 123.597 176.573 128.136 176.046 133.317C176.017 133.548 175.988 133.768 175.969 133.999C175.912 134.603 175.864 135.198 175.825 135.793C175.768 136.57 175.73 137.348 175.701 138.106C175.643 139.296 175.634 140.457 175.634 141.58C175.643 143.355 175.72 145.053 175.835 146.656C175.921 147.932 176.046 149.151 176.18 150.312C176.352 151.703 176.544 153.008 176.755 154.227V154.256C173.919 154.966 171.007 155.638 168.027 156.261Z" fill="#F4F3F1"/>
<path d="M152.169 201.765L147.293 202.063C143.336 195.48 139.59 187.755 136.879 178.908L138.421 178.447C139.236 178.255 140.05 178.063 140.893 177.881C141.429 179.416 142.014 180.99 142.637 182.573C145.482 189.78 148.768 196.171 152.169 201.765Z" fill="#7099ED"/>
<path d="M152.065 115.997C151.721 117.312 151.27 119.241 150.925 121.601C150.054 127.675 150.523 132.368 150.925 136.12C151.701 143.374 152.602 150.898 153.675 158.834C150.159 159.361 146.567 159.803 142.897 160.177C141.93 160.273 140.962 160.359 140.004 160.446C139.841 158.977 139.698 157.481 139.583 155.974C139.487 154.794 139.401 153.594 139.334 152.395C139.247 150.869 139.18 149.324 139.142 147.75C139.104 146.627 139.084 145.486 139.084 144.334C139.075 143.413 139.075 142.472 139.094 141.532C139.094 140.966 139.104 140.4 139.123 139.824C139.257 134.124 139.726 128.213 140.598 122.11C140.866 120.258 141.163 118.444 141.479 116.669C141.709 115.632 141.939 114.769 142.112 114.135C142.897 111.324 143.386 110.537 144.152 110.22C144.152 110.22 144.306 110.153 144.478 110.115C145.302 109.923 146.164 110.153 146.998 110.614C149.431 111.957 151.634 115.325 152.065 115.997Z" fill="#F4F3F1"/>
<path d="M147.293 202.063L124.07 203.454L133.296 177.363L133.277 177.142C134.292 177.037 135.279 176.912 136.247 176.787C136.448 177.497 136.659 178.207 136.879 178.908C139.59 187.755 143.336 195.48 147.293 202.063Z" fill="#7099ED"/>
<path d="M142.316 61.7812C143.494 61.7812 144.443 63.3454 144.443 65.2838C144.443 67.2222 143.494 68.7863 142.316 68.7863C141.138 68.7863 140.18 67.2222 140.18 65.2838C140.18 63.3454 141.138 61.7812 142.316 61.7812Z" fill="#262626"/>
<path d="M147.583 75.8287C146.845 77.4984 144.594 78.5444 142.754 78.0166C141.825 77.7479 140.848 77.0474 140.953 76.5964C141.068 76.0686 142.476 76.4141 144.459 75.6464C146.395 74.8883 147.219 73.708 147.678 74.0343C148.042 74.2837 147.851 75.2337 147.583 75.8287Z" fill="white"/>
<path d="M142.438 110.853C142.86 108.876 143.416 106.794 144.134 104.644C144.661 103.071 145.236 101.593 145.82 100.211H145.83C146.117 101.161 146.433 102.121 146.759 103.09C148.378 107.878 150.208 112.187 152.067 115.996C151.635 115.325 149.432 111.956 146.999 110.613C146.165 110.152 145.303 109.922 144.479 110.114C144.307 110.152 144.153 110.22 144.153 110.22C143.387 110.536 142.898 111.323 142.113 114.135C141.94 114.768 141.71 115.632 141.48 116.668C141.682 114.864 141.988 112.906 142.438 110.853Z" fill="#F4F3F1"/>
<path d="M142.429 110.854H142.439C141.988 112.907 141.682 114.865 141.481 116.669C141.164 118.444 140.868 120.258 140.599 122.11C139.727 128.213 139.258 134.124 139.124 139.824C137.179 140.265 135.244 140.707 133.299 141.148H133.117C133.385 137.751 133.807 134.22 134.43 130.564C135.273 125.612 136.365 121.054 137.572 116.918C137.917 116.486 138.262 116.064 138.597 115.632C139.881 114.039 141.155 112.446 142.429 110.854Z" fill="#7099ED"/>
<path d="M139.582 155.974C139.697 157.481 139.841 158.978 140.004 160.446C137.686 160.647 135.396 160.82 133.145 160.954C133.02 159.477 132.924 157.951 132.848 156.358C133.949 156.176 135.185 156.041 136.526 155.984C137.561 155.936 138.538 155.945 139.439 155.984H139.582V155.974Z" fill="#7099ED"/>
<path d="M139.582 155.974H139.439C138.538 155.945 137.561 155.936 136.526 155.984C135.185 156.041 133.949 156.175 132.848 156.358C132.8 155.177 132.761 153.968 132.742 152.73C133.624 152.059 134.036 151.003 133.777 150.072C133.557 149.286 132.943 148.863 132.742 148.739C132.761 147.606 132.8 146.455 132.857 145.284H133.01C133.758 145.092 134.572 144.91 135.434 144.756C136.747 144.526 137.973 144.392 139.075 144.334H139.084C139.084 145.486 139.103 146.627 139.142 147.75H139.132C137.983 147.932 137.149 148.911 137.13 150.024C137.111 151.233 138.069 152.289 139.333 152.395C139.4 153.594 139.487 154.794 139.582 155.974Z" fill="#383940"/>
<path d="M139.141 147.75C139.179 149.324 139.246 150.869 139.333 152.394C138.068 152.289 137.11 151.233 137.129 150.024C137.148 148.911 137.982 147.932 139.131 147.75H139.141Z" fill="#383940"/>
<path d="M138.891 141.531H139.092C139.073 142.472 139.073 143.412 139.083 144.333H139.073C137.971 144.391 136.745 144.525 135.433 144.756C134.57 144.909 133.756 145.091 133.009 145.293H132.855C132.894 144.372 132.942 143.45 133.009 142.52H133.21C135.097 142.193 136.994 141.858 138.891 141.531Z" fill="#7099ED"/>
<path d="M133.776 150.072C134.034 151.003 133.622 152.058 132.741 152.73C132.722 151.435 132.722 150.101 132.741 148.738C132.942 148.863 133.555 149.285 133.776 150.072Z" fill="#383940"/>
<path d="M133.299 141.148C135.244 140.707 137.179 140.266 139.124 139.824C139.105 140.4 139.095 140.966 139.095 141.532H138.894C136.997 141.859 135.1 142.194 133.213 142.53H133.012C133.04 142.06 133.079 141.609 133.117 141.139H133.299V141.148Z" fill="#7099ED"/>
<path d="M127.113 63.125C128.291 63.125 129.24 64.6987 129.24 66.6275C129.24 68.5563 128.291 70.1397 127.113 70.1397C125.935 70.1397 124.977 68.5659 124.977 66.6275C124.977 64.6891 125.935 63.125 127.113 63.125Z" fill="#262626"/>
<path d="M127.5 66.5L124 65V67.5L127.5 66.5Z" fill="white"/>
<path d="M143.5 65.5L140 64V66.5L143.5 65.5Z" fill="white"/>
<path d="M117.75 208.589L229.531 204.731C229.856 204.731 230.163 204.664 230.46 204.558C230.901 204.415 231.293 204.165 231.6 203.839C231.715 203.724 231.811 203.608 231.907 203.484C232.002 203.359 232.089 203.225 232.156 203.09C232.223 202.956 232.29 202.812 232.338 202.658L272.728 86.2496C272.728 86.2496 272.747 86.2016 272.747 86.1824C272.871 85.7506 272.795 85.338 272.574 85.0117L276.272 88.5814C276.809 89.4834 276.914 90.5966 276.55 91.585L234.589 206.295C234.072 207.716 232.74 208.675 231.226 208.723L193.318 209.807L176.62 210.287L122.674 211.842C121.936 211.861 121.208 211.679 120.576 211.304L117.031 208.454C117.185 208.55 117.367 208.608 117.558 208.598H117.75V208.589Z" fill="#262626"/>
<path d="M48.5913 148.681C47.6525 146.186 47.183 143.835 46.9914 141.724C44.9126 139.479 42.1631 137.08 38.5609 135.017C37.9191 134.652 37.2868 134.316 36.6641 134C37.6796 132.858 38.7142 131.716 39.7872 130.555C42.4696 127.657 45.3532 124.701 48.4476 121.726C50.584 119.663 52.7108 117.696 54.8184 115.815L55.8531 116.535C58.6792 118.492 61.4383 120.277 64.1016 121.899C64.5135 121.429 64.9542 121.198 65.3757 121.093C67.7133 120.556 69.955 124.144 77.7341 128.309C79.3627 127.34 80.5698 127.254 81.365 127.359C83.5109 127.628 85.4269 129.585 86.7586 132.733H86.7682C89.3835 133.98 92.0085 135.228 94.6239 136.475L96.7507 136.965C97.1051 135.976 97.6129 135.353 98.2164 135.199C99.6822 134.825 101.541 137.224 102.058 137.924C103.256 138.241 104.453 138.558 105.66 138.884H105.67C105.89 138.27 106.197 137.819 106.618 137.732C106.867 137.684 107.452 137.694 108.438 138.941C108.477 137.588 108.774 136.792 109.329 136.533C109.76 136.331 110.335 136.466 111.063 136.917L111.102 136.85C113.612 135.439 116.131 134.028 118.641 132.618H118.651C119.772 129.451 121.803 127.215 124.236 126.726C124.868 126.601 125.721 126.553 126.775 126.822C126.976 126.678 127.187 126.515 127.388 126.352C127.551 126.217 127.675 126.112 127.781 126.025C128.758 125.21 129.936 124.144 131.23 122.772C131.421 122.177 131.747 121.544 132.264 120.968C132.983 120.153 133.816 119.74 134.324 119.548C134.707 118.291 135.397 117.235 136.365 116.535C136.824 116.209 137.543 115.806 138.597 115.633C138.261 116.065 137.916 116.487 137.572 116.919C136.365 121.055 135.272 125.613 134.429 130.564C133.807 134.22 133.385 137.752 133.117 141.139C133.079 141.609 133.04 142.06 133.011 142.521C132.944 143.452 132.896 144.373 132.858 145.284C132.801 146.455 132.762 147.607 132.743 148.739C132.724 150.102 132.724 151.435 132.743 152.731C132.762 153.969 132.801 155.178 132.849 156.358C132.925 157.951 133.021 159.477 133.146 160.955C133.347 162.73 133.596 164.553 133.902 166.396C134.516 170.013 135.301 173.477 136.25 176.788C135.282 176.913 134.295 177.037 133.28 177.143C131.814 177.297 130.291 177.431 128.72 177.536C124.638 177.815 120.251 177.892 115.585 177.661C114.56 177.613 113.554 177.546 112.567 177.469C111.102 178.534 108.64 179.974 105.43 180.185C102.039 180.415 99.0882 179.197 96.5303 177.489L96.5016 177.527C91.6157 176.836 85.4269 175.464 78.8262 172.595C76.1917 171.453 73.8637 170.224 71.8136 169.015C71.5932 170.531 71.1621 171.098 70.6831 171.203C69.7155 171.424 68.3551 169.783 66.4583 167.048C62.3101 164.927 52.5671 159.218 48.5913 148.681Z" fill="#F4F3F1"/>
<path d="M21.7843 123.827L21.2383 121.457C21.4586 121.246 22.225 120.44 22.225 119.269C22.225 119.163 22.2155 119.058 22.2059 118.962C22.1676 118.626 22.0622 118.329 21.9185 118.06C21.7556 117.283 21.7077 116.122 22.3592 114.951C22.3592 114.941 22.3687 114.932 22.3687 114.922C22.4454 114.816 22.5124 114.711 22.5699 114.605C22.5795 114.605 22.5795 114.586 22.5891 114.577C23.6429 113.06 25.3194 112.561 25.7601 112.437L25.9038 112.35C24.7446 110.45 21.976 105.009 24.371 99.079C24.3997 99.0119 24.4285 98.9351 24.4572 98.8679C25.7218 95.8836 27.839 93.8972 29.2569 92.7937C28.6341 91.0664 26.2966 83.8886 30.7801 78.5149C32.8686 76.0007 37.4574 72.6709 39.9387 73.7649C40.7147 74.1103 41.05 74.782 41.2224 75.1275C42.0847 76.8644 41.414 79.1578 39.6226 81.4128C39.2873 83.3416 39.0477 85.6735 39.1723 88.3316C39.3256 91.671 39.9962 94.5114 40.6955 96.6897C44.8821 100.576 46.6544 105.22 45.6964 108.857C48.4459 111.122 51.4923 113.463 54.8167 115.814C52.709 117.695 50.5822 119.662 48.4459 121.726C45.3515 124.7 42.4679 127.656 39.7854 130.554C39.431 130.256 39.0573 129.959 38.6933 129.661C36.2983 127.733 33.9032 126.005 31.5178 124.441C26.9864 125.717 23.0681 124.345 21.7843 123.827Z" fill="white"/>
<path d="M17.4258 103.329C20.7597 103.08 23.2601 101.16 24.0744 98.9629L24.3714 99.078C21.9763 105.008 24.745 110.449 25.9042 112.349L25.7605 112.436C25.3198 112.56 23.6433 113.059 22.5895 114.576C22.8002 114.201 22.9248 113.808 22.9823 113.386C23.2122 111.572 21.7177 110.373 21.5644 110.257C21.7177 110.056 23.0493 108.29 22.2254 106.265C21.5357 104.577 19.6292 103.396 17.4258 103.329Z" fill="white"/>
<path d="M13.9004 90.4241C20.5874 89.5797 26.1534 91.4509 29.2574 92.7943C27.8395 93.8979 25.7223 95.8842 24.4577 98.8686C24.429 98.9358 24.4002 99.0125 24.3715 99.0797L24.0745 98.9645C23.2602 101.162 20.7598 103.081 17.4259 103.331C19.6293 103.398 21.5358 104.578 22.2256 106.267C23.0494 108.292 21.7178 110.057 21.5645 110.259C21.7178 110.374 23.2123 111.574 22.9824 113.387C22.9249 113.81 22.8004 114.203 22.5896 114.577C22.58 114.587 22.58 114.596 22.5704 114.606C22.4938 114.712 22.4267 114.817 22.3693 114.923C22.3693 114.932 22.3597 114.942 22.3597 114.951C21.8711 115.604 21.143 116.132 20.2616 116.429C20.3383 116.468 21.3825 117.024 21.919 118.051C22.0244 118.54 22.1681 118.867 22.2064 118.963C22.216 119.059 22.2256 119.164 22.2256 119.27C22.2256 120.44 21.4591 121.246 21.2388 121.458L21.7849 123.828C20.4245 124.116 13.6513 125.459 9.34986 123.751C8.65051 123.473 7.51047 123.002 6.7249 121.851C5.67108 120.316 5.93933 118.56 6.06387 117.926C5.96807 117.897 3.70716 117.034 3.30479 114.769C2.97907 112.888 4.19574 111.526 4.35861 111.353C1.43667 110.201 -0.172797 107.658 0.33495 105.336C0.842697 103.024 3.25689 101.891 3.61136 101.738C2.83536 100.577 1.49415 98.1681 2.3851 95.7883C3.9275 91.6812 10.921 90.7984 13.9004 90.4241Z" fill="white"/>
<path d="M154.527 51.886L179.263 50.4658L183.239 50.2355V46.4834C182.521 46.4834 181.85 46.2051 181.361 45.7445C180.863 45.2839 180.537 44.641 180.49 43.9213L179.656 31.2738C178.43 12.9743 162.632 -0.882329 144.334 0.307572C135.635 0.883331 127.904 4.76011 122.329 10.6712C116.753 16.5824 113.333 24.5374 113.275 33.2506L113.189 45.2455C113.17 48.1723 111.139 50.6961 108.284 51.339L106.512 51.742L106.713 54.6304L118.822 53.9395L153.981 51.9148L154.47 51.886" stroke="#262626" stroke-width="0.5" stroke-linecap="round" stroke-linejoin="round"/>
<path d="M142.092 23.5879C141.833 24.3556 139.285 32.6465 144.554 39.45C147.84 43.6915 152.333 44.9773 153.876 45.342" stroke="white" stroke-width="0.5" stroke-linecap="round" stroke-linejoin="round"/>
<path d="M126.229 25.2949C126.564 27.1661 126.784 29.3732 126.66 31.8394C126.296 39.2283 123.154 44.7364 121.199 47.596" stroke="#262626" stroke-width="0.5" stroke-linecap="round" stroke-linejoin="round"/>
<path d="M39.6236 81.4128C41.4151 79.1578 42.0857 76.8644 41.2235 75.1275C41.0511 74.782 40.7158 74.1103 39.9398 73.7649C37.4585 72.6709 32.8696 76.0007 30.7812 78.5149C26.2977 83.8886 28.6352 91.0664 29.2579 92.7937C27.8401 93.8972 25.7229 95.8836 24.4583 98.8679C24.4295 98.9351 24.4008 99.0119 24.3721 99.079C21.977 105.009 24.7457 110.45 25.9049 112.35C26.0773 112.619 26.2115 112.82 26.2881 112.936" stroke="#262626" stroke-width="0.5" stroke-linecap="round" stroke-linejoin="round"/>
<path d="M37.4297 83.6865C38.2823 82.9476 39.0104 82.1896 39.6235 81.4219" stroke="#262626" stroke-width="0.5" stroke-linecap="round" stroke-linejoin="round"/>
<path d="M40.6973 114.144C43.0636 113.127 44.1941 111.822 44.7401 111.016C45.1904 110.354 45.5065 109.624 45.6981 108.857C46.6562 105.22 44.8838 100.575 40.6973 96.6891C39.998 94.5108 39.3274 91.6704 39.1741 88.331C39.0495 85.6729 39.289 83.3411 39.6243 81.4219" stroke="#262626" stroke-width="0.5" stroke-linecap="round" stroke-linejoin="round"/>
<path d="M36.6628 121.745C35.6569 122.571 34.0666 123.655 31.8728 124.336C31.7578 124.375 31.6332 124.403 31.5183 124.442C26.9869 125.718 23.0686 124.346 21.7849 123.828C20.4245 124.116 13.6513 125.459 9.34986 123.751C8.65051 123.473 7.51047 123.002 6.7249 121.851C5.67108 120.316 5.93933 118.56 6.06387 117.926C5.96807 117.897 3.70716 117.034 3.30479 114.769C2.97907 112.888 4.19574 111.526 4.35861 111.353C1.43667 110.201 -0.172797 107.658 0.33495 105.336C0.842697 103.024 3.25689 101.891 3.61136 101.738C2.83536 100.577 1.49415 98.1681 2.3851 95.7883C3.9275 91.6812 10.921 90.7984 13.9004 90.4241C20.5874 89.5797 26.1534 91.4509 29.2574 92.7943" stroke="#262626" stroke-width="0.5" stroke-linecap="round" stroke-linejoin="round"/>
<path d="M31.3633 124.336C31.3633 124.336 31.4687 124.403 31.5166 124.441C33.902 126.006 36.297 127.733 38.6921 129.662C39.0561 129.959 39.4298 130.257 39.7842 130.554" stroke="#262626" stroke-width="0.5" stroke-linecap="round" stroke-linejoin="round"/>
<path d="M21.9185 118.061C22.0622 118.329 22.1676 118.627 22.2059 118.963C22.2155 119.059 22.225 119.164 22.225 119.27C22.225 120.44 21.4586 121.246 21.2383 121.458" stroke="#262626" stroke-width="0.5" stroke-linecap="round" stroke-linejoin="round"/>
<path d="M22.3598 114.951C21.8712 115.604 21.1431 116.131 20.2617 116.429C20.3384 116.467 21.3826 117.024 21.9191 118.051" stroke="#262626" stroke-width="0.5" stroke-linecap="round" stroke-linejoin="round"/>
<path d="M22.5723 114.605C22.5148 114.711 22.4477 114.817 22.3711 114.922" stroke="#262626" stroke-width="0.5" stroke-linecap="round" stroke-linejoin="round"/>
<path d="M19.1981 92.1504C21.9763 92.8413 24.0265 94.7317 24.3235 96.8716C24.4193 97.5721 24.3235 98.2822 24.0744 98.9635C23.2601 101.161 20.7597 103.08 17.4258 103.33C19.6292 103.397 21.5357 104.577 22.2254 106.266C23.0493 108.291 21.7177 110.056 21.5644 110.258C21.7177 110.373 23.2122 111.573 22.9823 113.386C22.9248 113.809 22.8002 114.202 22.5895 114.576" stroke="#262626" stroke-width="0.5" stroke-linecap="round" stroke-linejoin="round"/>
<path d="M22.2078 118.963C22.1695 118.867 22.0258 118.541 21.9204 118.061C21.7575 117.283 21.7096 116.122 22.3611 114.952C22.3611 114.942 22.3706 114.932 22.3706 114.923C22.4281 114.817 22.4952 114.712 22.5718 114.606C22.5814 114.606 22.5814 114.587 22.591 114.577C23.6448 113.061 25.3213 112.562 25.762 112.438" stroke="#262626" stroke-width="0.5" stroke-linecap="round" stroke-linejoin="round"/>
<path d="M3.61328 101.736C6.81305 102.053 10.0032 102.36 13.203 102.677" stroke="#262626" stroke-width="0.5" stroke-linecap="round" stroke-linejoin="round"/>
<path d="M5.35547 111.314C8.37321 111.449 11.3814 111.574 14.3991 111.698" stroke="#262626" stroke-width="0.5" stroke-linecap="round" stroke-linejoin="round"/>
<path d="M7.86328 117.676C9.99965 117.455 12.1456 117.234 14.2916 117.014" stroke="#262626" stroke-width="0.5" stroke-linecap="round" stroke-linejoin="round"/>
<path d="M18.9797 94.8947C18.3858 94.2997 17.4948 93.5512 16.259 92.9083C13.8735 91.6608 11.5551 91.4977 10.3672 91.4785" stroke="#262626" stroke-width="0.5" stroke-linecap="round" stroke-linejoin="round"/>
<path d="M145.176 3.41602C148.874 3.43521 154.469 4.05895 160.063 7.2736C175.88 16.3706 176.139 37.2323 176.139 38.5757" stroke="white" stroke-width="0.5" stroke-linecap="round" stroke-linejoin="round"/>
<path d="M165.891 47.5579L177.645 46.8574" stroke="white" stroke-width="0.5" stroke-linecap="round" stroke-linejoin="round"/>
<path d="M160.066 48.0287C160.862 47.9807 161.666 47.9327 162.461 47.8848" stroke="white" stroke-width="0.5" stroke-linecap="round" stroke-linejoin="round"/>
<path d="M217.687 98.4162L262.561 91.1328L248.765 130.294L238.735 158.775L231.818 178.427L225.141 197.38L200.05 198.886L195.854 199.136L166.012 200.93L160.034 201.295L153.989 201.659L152.169 201.765L147.293 202.062L124.07 203.454L133.296 177.362" stroke="#262626" stroke-width="0.5" stroke-linecap="round" stroke-linejoin="round"/>
<path d="M272.745 86.1724C272.87 85.7502 272.793 85.3375 272.573 85.0113C272.458 84.8193 272.295 84.6562 272.103 84.5507C271.826 84.3779 271.49 84.3012 271.126 84.3587L209.66 95.183" stroke="white" stroke-width="0.5" stroke-linecap="round" stroke-linejoin="round"/>
<path d="M232.336 202.658L272.726 86.2488C272.726 86.2488 272.745 86.2008 272.745 86.1816" stroke="white" stroke-width="0.5" stroke-linecap="round" stroke-linejoin="round"/>
<path d="M231.906 203.483C232.002 203.359 232.088 203.224 232.155 203.09" stroke="white" stroke-width="0.5" stroke-linecap="round" stroke-linejoin="round"/>
<path d="M230.461 204.558C230.902 204.414 231.294 204.164 231.601 203.838" stroke="white" stroke-width="0.5" stroke-linecap="round" stroke-linejoin="round"/>
<path d="M117.031 208.453C117.185 208.549 117.367 208.607 117.558 208.597H117.75" stroke="white" stroke-width="0.5" stroke-linecap="round" stroke-linejoin="round"/>
<path d="M128.718 177.525L116.599 207.244C116.417 207.714 116.618 208.213 117.011 208.444" stroke="white" stroke-width="0.5" stroke-linecap="round" stroke-linejoin="round"/>
<path d="M117.012 208.444H117.031L120.576 211.304C121.208 211.678 121.936 211.861 122.674 211.841L176.619 210.287L193.317 209.807L231.226 208.723C232.74 208.675 234.071 207.715 234.589 206.295L276.55 91.5846C276.914 90.5963 276.808 89.4831 276.272 88.5811L272.574 85.0114L272.105 84.5508" stroke="white" stroke-width="0.5" stroke-linecap="round" stroke-linejoin="round"/>
<path d="M193.318 209.836V221.706C193.318 224.902 195.847 227.541 199.037 227.665L232.893 229.018C234.627 229.095 236.007 230.525 236.007 232.262V232.751H138.605C138.605 231.897 138.931 231.11 139.477 230.534C140.023 229.949 140.771 229.575 141.623 229.517L171.053 227.541C174.186 227.329 176.619 224.729 176.619 221.591V210.287" stroke="#262626" stroke-width="0.5" stroke-linecap="round" stroke-linejoin="round"/>
<path d="M117.75 208.588L229.531 204.73C229.857 204.73 230.163 204.663 230.46 204.558C230.891 204.404 231.284 204.155 231.6 203.838C231.715 203.723 231.811 203.608 231.907 203.483C231.993 203.358 232.079 203.233 232.156 203.089C232.223 202.955 232.29 202.811 232.338 202.658L272.747 86.1816" stroke="white" stroke-width="0.5" stroke-linecap="round" stroke-linejoin="round"/>
<path d="M118.82 53.9395C120.66 76.7299 127.567 94.1658 136.716 96.3537C139.398 96.9966 142.589 96.7375 142.589 96.7375C143.326 96.6799 144.035 96.5744 144.725 96.4401C152.973 94.8567 158.262 88.5426 159.929 86.3931" stroke="#262626" stroke-width="0.5" stroke-linecap="round" stroke-linejoin="round"/>
<path d="M153.98 51.9143C154.105 51.9143 154.268 51.8951 154.469 51.8855H154.527C156.155 51.8087 159.987 51.9047 161.635 54.4092C162.028 55.0042 162.315 55.7718 162.488 58.5835C162.603 60.5506 162.66 63.3431 162.334 66.7496C163.206 66.1835 164.078 65.6173 164.959 65.0512C164.806 64.0532 164.586 61.6062 165.994 59.2456C166.444 58.4779 167.182 57.2592 168.638 56.6835C170.564 55.9254 172.892 56.6355 174.233 58.0269C176.379 60.2628 175.622 63.8613 174.52 65.886C173.898 67.0375 173.064 67.8532 172.259 68.4385C171.244 69.187 170.286 69.5421 169.874 69.686" stroke="#262626" stroke-width="0.5" stroke-linecap="round" stroke-linejoin="round"/>
<path d="M179.262 50.4648C179.569 52.9022 179.712 56.0209 179.252 59.5906C178.457 65.7512 176.206 70.4437 174.539 73.2841" stroke="#262626" stroke-width="0.5" stroke-linecap="round" stroke-linejoin="round"/>
<path d="M172.262 68.4395C172.894 69.9364 173.641 71.5677 174.542 73.2854C175.423 74.9839 176.448 76.7784 177.646 78.6112C179.456 81.394 181.305 83.7738 183.059 85.7794C183.499 86.2976 183.94 86.787 184.371 87.2476" stroke="#262626" stroke-width="0.5" stroke-linecap="round" stroke-linejoin="round"/>
<path d="M144.728 96.4395C145.063 97.6677 145.427 98.9248 145.83 100.211C146.117 101.161 146.433 102.12 146.759 103.089C148.378 107.878 150.208 112.186 152.067 115.996C151.635 115.324 149.432 111.956 146.999 110.613C146.165 110.152 145.303 109.922 144.479 110.114C144.307 110.152 144.153 110.219 144.153 110.219C143.387 110.536 142.898 111.323 142.113 114.134C141.94 114.768 141.71 115.631 141.48 116.668C141.682 114.864 141.988 112.906 142.438 110.853C142.86 108.876 143.416 106.794 144.134 104.644C144.661 103.07 145.236 101.592 145.82 100.211" stroke="#262626" stroke-width="0.5" stroke-linecap="round" stroke-linejoin="round"/>
<path d="M152.066 115.998C155.697 113.052 159.357 109.981 163.055 106.795C170.652 100.231 177.751 93.6869 184.371 87.248" stroke="#262626" stroke-width="0.5" stroke-linecap="round" stroke-linejoin="round"/>
<path d="M183.058 85.7793C184.304 86.2591 185.606 86.8157 186.929 87.4298C189.783 88.7636 192.303 90.1934 194.506 91.6137C194.487 92.1318 194.468 92.7076 194.42 93.3505C194.171 96.7187 193.347 101.661 190.722 106.986C187.12 114.299 181.976 118.578 179.255 120.555C179.073 120.325 178.881 120.085 178.68 119.845C176.984 117.782 174.618 115.373 171.485 113.214C170.288 112.389 168.975 111.602 167.548 110.892C166.015 110.124 164.54 109.529 163.151 109.069C159.453 111.381 155.755 113.694 152.066 115.997" stroke="#262626" stroke-width="0.5" stroke-linecap="round" stroke-linejoin="round"/>
<path d="M152.067 115.996C151.722 117.311 151.272 119.24 150.927 121.6C150.055 127.674 150.524 132.367 150.927 136.119C151.703 143.373 152.603 150.897 153.676 158.833" stroke="#262626" stroke-width="0.5" stroke-linecap="round" stroke-linejoin="round"/>
<path d="M159.547 117.331C160.534 116.976 161.722 116.449 162.957 115.623C165.314 114.05 166.751 112.15 167.546 110.893" stroke="#262626" stroke-width="0.5" stroke-linecap="round" stroke-linejoin="round"/>
<path d="M171.482 113.215C171.147 114.146 170.764 115.105 170.342 116.094C169.701 117.61 169.03 119.001 168.359 120.268" stroke="#262626" stroke-width="0.5" stroke-linecap="round" stroke-linejoin="round"/>
<path d="M147.608 116.755C147.311 116.361 146.986 115.824 146.756 115.143C146.056 113.099 146.737 111.247 146.995 110.613" stroke="#262626" stroke-width="0.5" stroke-linecap="round" stroke-linejoin="round"/>
<path d="M141.479 116.668C141.163 118.443 140.866 120.257 140.598 122.109C139.726 128.212 139.257 134.123 139.123 139.823C139.104 140.399 139.094 140.965 139.094 141.531C139.075 142.472 139.075 143.412 139.084 144.333C139.084 145.485 139.104 146.627 139.142 147.749C139.18 149.323 139.247 150.868 139.334 152.394C139.401 153.593 139.487 154.793 139.583 155.973C139.698 157.48 139.841 158.977 140.004 160.445" stroke="#262626" stroke-width="0.5" stroke-linecap="round" stroke-linejoin="round"/>
<path d="M142.426 110.854C141.152 112.446 139.878 114.039 138.594 115.632C138.259 116.064 137.914 116.486 137.569 116.918C136.362 121.054 135.27 125.612 134.427 130.564C133.804 134.22 133.383 137.751 133.115 141.138C133.076 141.609 133.038 142.06 133.009 142.52C132.942 143.451 132.894 144.372 132.856 145.284C132.798 146.455 132.76 147.606 132.741 148.738C132.722 150.101 132.722 151.435 132.741 152.73C132.76 153.968 132.798 155.177 132.846 156.358C132.923 157.951 133.019 159.476 133.143 160.954" stroke="#262626" stroke-width="0.5" stroke-linecap="round" stroke-linejoin="round"/>
<path d="M178.679 119.844C177.587 123.596 176.572 128.135 176.045 133.317C176.016 133.547 175.987 133.768 175.968 133.998C175.911 134.602 175.863 135.197 175.824 135.792C175.767 136.57 175.729 137.347 175.7 138.105C175.642 139.295 175.633 140.456 175.633 141.579C175.642 143.354 175.719 145.052 175.834 146.655C175.92 147.931 176.045 149.15 176.179 150.311C176.351 151.702 176.543 153.007 176.754 154.226" stroke="#262626" stroke-width="0.5" stroke-linecap="round" stroke-linejoin="round"/>
<path d="M133.145 160.953C135.396 160.819 137.686 160.646 140.004 160.445C140.962 160.358 141.93 160.272 142.897 160.176C146.566 159.802 150.159 159.36 153.675 158.833C154.192 158.766 154.7 158.689 155.208 158.602C156.357 158.43 157.507 158.247 158.637 158.046C161.837 157.508 164.97 156.913 168.026 156.261C171.005 155.637 173.918 154.966 176.763 154.255C180.394 153.344 183.91 152.375 187.32 151.357" stroke="#262626" stroke-width="0.5" stroke-linecap="round" stroke-linejoin="round"/>
<path d="M138.423 178.448C137.8 173.515 137.177 168.593 136.555 163.66C138.643 163.545 140.751 163.392 142.897 163.209C158.043 161.914 171.982 159.112 184.58 155.494C184.934 160.11 185.356 164.793 185.844 169.533C185.969 170.723 186.094 171.903 186.228 173.084C180.642 173.026 174.645 173.199 168.284 173.717C158.177 174.533 148.99 176.058 140.895 177.882C140.051 178.064 139.237 178.256 138.423 178.448Z" stroke="#262626" stroke-width="0.5" stroke-linecap="round" stroke-linejoin="round"/>
<path d="M140.895 177.881C141.431 179.416 142.015 180.99 142.638 182.573C145.483 189.78 148.769 196.171 152.17 201.765" stroke="#262626" stroke-width="0.5" stroke-linecap="round" stroke-linejoin="round"/>
<path d="M184.578 155.494C185.124 158.622 185.986 162.183 187.356 165.992C190.269 174.053 194.35 180.117 197.693 184.234" stroke="#262626" stroke-width="0.5" stroke-linecap="round" stroke-linejoin="round"/>
<path d="M133.145 160.953C133.346 162.728 133.595 164.552 133.901 166.394C134.514 170.012 135.3 173.476 136.248 176.786C136.45 177.497 136.66 178.207 136.881 178.907C139.592 187.755 143.338 195.479 147.294 202.062" stroke="#262626" stroke-width="0.5" stroke-linecap="round" stroke-linejoin="round"/>
<path d="M138.594 115.633C137.54 115.806 136.822 116.209 136.362 116.535C135.394 117.235 134.705 118.291 134.321 119.548C133.881 120.987 133.833 122.686 134.216 124.452" stroke="#262626" stroke-width="0.5" stroke-linecap="round" stroke-linejoin="round"/>
<path d="M134.325 119.547C133.817 119.739 132.983 120.151 132.265 120.967C131.748 121.543 131.422 122.176 131.23 122.771C130.837 123.913 130.904 124.921 130.933 125.208" stroke="#262626" stroke-width="0.5" stroke-linecap="round" stroke-linejoin="round"/>
<path d="M131.23 122.771C129.937 124.144 128.758 125.209 127.781 126.025C127.676 126.111 127.551 126.216 127.389 126.351C127.187 126.514 126.977 126.677 126.775 126.821C125.597 127.704 124.476 128.347 123.547 128.807" stroke="#262626" stroke-width="0.5" stroke-linecap="round" stroke-linejoin="round"/>
<path d="M126.774 126.821C125.72 126.552 124.867 126.6 124.235 126.725C121.802 127.215 119.771 129.45 118.65 132.617C118.334 133.5 118.085 134.45 117.922 135.457" stroke="#262626" stroke-width="0.5" stroke-linecap="round" stroke-linejoin="round"/>
<path d="M109.396 146.34C108.697 143.058 108.371 140.592 108.438 138.941C108.477 137.588 108.774 136.792 109.329 136.533C109.76 136.331 110.335 136.465 111.063 136.916C113.056 138.154 116.189 141.839 120.452 147.981" stroke="#262626" stroke-width="0.5" stroke-linecap="round" stroke-linejoin="round"/>
<path d="M111.102 136.849C113.612 135.438 116.131 134.028 118.641 132.617" stroke="#262626" stroke-width="0.5" stroke-linecap="round" stroke-linejoin="round"/>
<path d="M105.659 138.883C105.103 140.437 105.094 143.028 105.103 143.239" stroke="#262626" stroke-width="0.5" stroke-linecap="round" stroke-linejoin="round"/>
<path d="M108.437 138.942C107.45 137.694 106.865 137.685 106.616 137.733C106.195 137.819 105.888 138.27 105.668 138.884" stroke="#262626" stroke-width="0.5" stroke-linecap="round" stroke-linejoin="round"/>
<path d="M105.667 138.883H105.657C104.45 138.557 103.253 138.241 102.055 137.933C101.49 137.78 100.925 137.626 100.359 137.482" stroke="#262626" stroke-width="0.5" stroke-linecap="round" stroke-linejoin="round"/>
<path d="M102.056 137.923C101.539 137.222 99.6806 134.823 98.2149 135.198C97.6113 135.351 97.1036 135.975 96.7491 136.963C96.203 138.489 96.0114 140.898 96.3851 143.805" stroke="#262626" stroke-width="0.5" stroke-linecap="round" stroke-linejoin="round"/>
<path d="M77.7344 128.309C79.363 127.34 80.5701 127.253 81.3652 127.359C83.5112 127.628 85.4272 129.585 86.7589 132.733C87.851 135.266 88.5599 138.586 88.7132 142.415" stroke="#262626" stroke-width="0.5" stroke-linecap="round" stroke-linejoin="round"/>
<path d="M86.7656 132.732C89.381 133.98 92.006 135.227 94.6213 136.475" stroke="#262626" stroke-width="0.5" stroke-linecap="round" stroke-linejoin="round"/>
<path d="M80.9337 129.892C80.1481 129.527 79.0368 129 77.7339 128.309C69.9548 124.144 67.7131 120.555 65.3755 121.093C64.954 121.198 64.5133 121.428 64.1014 121.899C63.3158 122.772 62.5973 124.48 62.1758 127.675" stroke="#262626" stroke-width="0.5" stroke-linecap="round" stroke-linejoin="round"/>
<path d="M54.8184 115.814C52.7108 117.695 50.584 119.662 48.4476 121.726C45.3532 124.7 42.4696 127.656 39.7872 130.554C38.7142 131.715 37.6796 132.857 36.6641 133.999C37.2868 134.316 37.9191 134.651 38.5609 135.016C42.1631 137.079 44.9126 139.478 46.9914 141.724C47.183 143.835 47.6525 146.186 48.5913 148.681C52.5671 159.217 62.3101 164.927 66.4583 167.047" stroke="#262626" stroke-width="0.5" stroke-linecap="round" stroke-linejoin="round"/>
<path d="M64.0988 121.898C61.4355 120.277 58.6764 118.492 55.8503 116.534L54.8156 115.815C51.4913 113.463 48.4448 111.122 45.6953 108.857" stroke="#262626" stroke-width="0.5" stroke-linecap="round" stroke-linejoin="round"/>
<path d="M61.525 133.999C60.9502 133.616 56.6296 130.804 54.407 131.975C52.2802 133.097 52.2036 137.761 55.4225 143.365" stroke="#262626" stroke-width="0.5" stroke-linecap="round" stroke-linejoin="round"/>
<path d="M50.6217 135.141C50.3247 136.033 50.066 137.05 49.8936 138.173C49.52 140.678 49.7211 142.856 50.0373 144.506" stroke="#262626" stroke-width="0.5" stroke-linecap="round" stroke-linejoin="round"/>
<path d="M57.8906 152.73C59.3468 155.676 61.5598 159.784 64.7213 164.495C65.344 165.426 65.9188 166.28 66.4553 167.048C68.3521 169.783 69.7125 171.423 70.6801 171.203C71.1591 171.097 71.5902 170.531 71.8106 169.015C72.098 167.115 72.0596 163.737 71.4082 157.912" stroke="#262626" stroke-width="0.5" stroke-linecap="round" stroke-linejoin="round"/>
<path d="M82.0234 158.93C84.4281 165.81 88.3272 170.272 90.8851 172.719C92.5233 174.283 94.3914 176.059 96.5278 177.488C99.0857 179.196 102.036 180.415 105.428 180.185C108.637 179.974 111.099 178.534 112.565 177.469" stroke="#262626" stroke-width="0.5" stroke-linecap="round" stroke-linejoin="round"/>
<path d="M106.992 176.893C108.784 177.123 110.642 177.315 112.568 177.468C113.555 177.545 114.56 177.612 115.586 177.66C120.251 177.891 124.639 177.814 128.72 177.536C130.291 177.43 131.814 177.296 133.28 177.142C134.296 177.037 135.282 176.912 136.25 176.787" stroke="#262626" stroke-width="0.5" stroke-linecap="round" stroke-linejoin="round"/>
<path d="M71.8125 169.014C73.8626 170.223 76.1906 171.451 78.8252 172.593C85.4259 175.462 91.6146 176.834 96.5005 177.525" stroke="#262626" stroke-width="0.5" stroke-linecap="round" stroke-linejoin="round"/>
<path d="M106.867 162.221C107.356 163.91 108.026 165.33 108.764 166.52C115.729 177.776 133.787 176.931 136.249 176.787" stroke="#262626" stroke-width="0.5" stroke-linecap="round" stroke-linejoin="round"/>
<path d="M125.816 153.613C126.008 154.918 126.497 156.991 127.838 159.179C129.754 162.298 132.331 163.891 133.595 164.553" stroke="#262626" stroke-width="0.5" stroke-linecap="round" stroke-linejoin="round"/>
<path d="M127.206 137.166C127.063 138.039 126.957 139.008 126.957 140.074C126.938 143.49 127.896 146.244 128.72 148.048" stroke="#262626" stroke-width="0.5" stroke-linecap="round" stroke-linejoin="round"/>
<path d="M157.862 138.557C157.374 138.595 156.157 138.758 155.084 139.699C154.586 140.13 154.27 140.601 154.078 140.956" stroke="#262626" stroke-width="0.5" stroke-linecap="round" stroke-linejoin="round"/>
<path d="M199.956 94.9141C198.04 97.1979 195.664 100.365 193.423 104.366C192.848 105.393 192.311 106.41 191.813 107.437C187.838 115.632 186.171 123.827 185.711 131.091C185.682 131.628 185.653 132.166 185.634 132.703C185.586 133.816 185.567 134.91 185.577 135.975C185.586 137.136 185.625 138.259 185.682 139.343C185.768 141.08 185.912 142.712 186.104 144.228C186.276 145.667 186.477 146.991 186.688 148.201C186.889 149.371 187.109 150.427 187.32 151.358C187.876 153.824 188.374 155.378 188.499 155.743C193.154 169.523 201.652 178.38 206.691 182.842" stroke="#262626" stroke-width="0.5" stroke-linecap="round" stroke-linejoin="round"/>
<path d="M194.418 93.3496C196.516 93.5703 198.624 93.7814 200.722 93.9925H200.75C200.501 94.2708 200.252 94.5683 199.974 94.885" stroke="#262626" stroke-width="0.5" stroke-linecap="round" stroke-linejoin="round"/>
<path d="M199.086 99.0797C198.866 97.5731 199.201 96.0857 199.958 94.915C199.958 94.9054 199.977 94.8958 199.977 94.8862C200.197 94.56 200.447 94.2625 200.724 93.9938C201.06 93.6483 201.452 93.3605 201.874 93.1302C204.317 91.7963 207.651 92.612 209.394 95.2125" stroke="#262626" stroke-width="0.5" stroke-linecap="round" stroke-linejoin="round"/>
<path d="M205.656 94.2617C206.863 94.5208 208.109 94.8375 209.393 95.2117C209.469 95.2309 209.555 95.2501 209.632 95.2885C209.9 95.3557 210.178 95.442 210.456 95.5284C213.071 96.3536 215.485 97.342 217.689 98.4264C221.473 100.269 224.663 102.38 227.259 104.385" stroke="#262626" stroke-width="0.5" stroke-linecap="round" stroke-linejoin="round"/>
<path d="M191.632 145.639C191.527 146.09 190.627 150.091 193.405 153.488C196.039 156.703 199.843 156.78 200.35 156.78" stroke="#262626" stroke-width="0.5" stroke-linecap="round" stroke-linejoin="round"/>
<path d="M199.086 150.955C199.316 152.711 199.699 154.678 200.351 156.78C201.385 160.1 202.803 162.902 204.259 165.176C205.265 166.769 206.29 168.103 207.21 169.187" stroke="#262626" stroke-width="0.5" stroke-linecap="round" stroke-linejoin="round"/>
<path d="M212.984 109.452C213.942 108.32 216.941 105.067 221.827 104.261C221.827 104.261 224.318 103.858 227.24 104.472C227.613 104.549 228.006 104.654 228.399 104.769C237.778 107.619 241.265 120.564 241.533 121.601" stroke="#262626" stroke-width="0.5" stroke-linecap="round" stroke-linejoin="round"/>
<path d="M236.227 119.701C238.535 120.191 240.308 120.958 241.534 121.601C243.804 122.781 248.221 125.094 248.738 129.067C248.796 129.499 248.796 129.911 248.767 130.295C248.7 131.197 248.451 131.955 248.23 132.483" stroke="#262626" stroke-width="0.5" stroke-linecap="round" stroke-linejoin="round"/>
<path d="M236.859 130.583C236.562 130.516 236.275 130.468 235.978 130.459C229.195 130.132 223.543 144.689 222.211 148.297" stroke="#262626" stroke-width="0.5" stroke-linecap="round" stroke-linejoin="round"/>
<path d="M209.192 163.611C208.723 164.139 207.851 165.243 207.429 166.903C207.429 166.903 207.161 167.958 207.209 169.187C207.218 169.465 207.247 169.762 207.305 170.06C207.784 172.708 210.361 175.04 213.819 176.067" stroke="#262626" stroke-width="0.5" stroke-linecap="round" stroke-linejoin="round"/>
<path d="M210.332 172.719C211.166 173.362 212.076 174.158 212.986 175.127C213.283 175.444 213.561 175.751 213.819 176.068H213.829C214.883 177.306 215.678 178.515 216.272 179.551" stroke="#262626" stroke-width="0.5" stroke-linecap="round" stroke-linejoin="round"/>
<path d="M231.82 178.427C230.431 178.053 228.007 177.544 225.018 177.698C223.495 177.775 221.818 178.015 220.065 178.542C217.115 179.416 214.901 180.788 213.445 181.863" stroke="#262626" stroke-width="0.5" stroke-linecap="round" stroke-linejoin="round"/>
<path d="M203.633 123.875C202.436 125.439 200.884 127.857 199.849 131.091C198.23 136.1 198.68 140.457 199.083 142.731" stroke="#262626" stroke-width="0.5" stroke-linecap="round" stroke-linejoin="round"/>
<path d="M196.688 117.426C195.414 119.642 193.536 123.788 194.284 128.557C194.456 129.622 194.715 131.282 195.299 131.34C196.477 131.465 198.125 124.911 199.342 119.316" stroke="#262626" stroke-width="0.5" stroke-linecap="round" stroke-linejoin="round"/>
<path d="M197.32 163.354C197.838 163.824 198.939 164.697 200.606 165.129C202.225 165.551 203.586 165.33 204.256 165.177" stroke="#262626" stroke-width="0.5" stroke-linecap="round" stroke-linejoin="round"/>
<path d="M190.059 188.227C190.835 188.447 192.971 189.196 194.542 191.326C196.918 194.57 195.97 198.302 195.835 198.801" stroke="#262626" stroke-width="0.5" stroke-linecap="round" stroke-linejoin="round"/>
<path d="M196.621 187.908C195.788 187.985 194.916 188.043 194.034 188.091C193.527 188.119 193.019 188.148 192.521 188.167C191.678 188.206 190.863 188.215 190.059 188.225" stroke="#262626" stroke-width="0.5" stroke-linecap="round" stroke-linejoin="round"/>
<path d="M192.522 188.168C192.416 187.41 192.551 186.873 192.713 186.518C193.327 185.136 195.204 184.311 197.695 184.282C198.5 184.272 199.372 184.349 200.291 184.522" stroke="#262626" stroke-width="0.5" stroke-linecap="round" stroke-linejoin="round"/>
<path d="M201.614 185.568C200.483 185.232 199.42 185.338 198.567 185.703C197.475 186.163 196.728 187.037 196.622 187.91C196.469 189.186 197.676 190.808 199.659 191.326" stroke="#262626" stroke-width="0.5" stroke-linecap="round" stroke-linejoin="round"/>
<path d="M205.217 193.916C203.608 192.083 200.839 192.189 199.536 193.724C198.377 195.096 198.483 197.438 200.054 198.887H200.063" stroke="#262626" stroke-width="0.5" stroke-linecap="round" stroke-linejoin="round"/>
<path d="M219.556 181.644C217.736 181.615 215.685 181.673 213.444 181.864C211.844 182.008 210.148 182.219 208.376 182.527C207.801 182.623 207.236 182.738 206.69 182.843C204.343 183.323 202.206 183.908 200.3 184.523H200.29C199.62 184.734 198.987 184.954 198.374 185.175L197.828 185.377" stroke="#262626" stroke-width="0.5" stroke-linecap="round" stroke-linejoin="round"/>
<path d="M168.638 64.9075C168.609 64.3029 168.619 63.161 169.146 61.8751C169.673 60.5797 170.468 59.7544 170.918 59.3418" stroke="#262626" stroke-width="0.5" stroke-linecap="round" stroke-linejoin="round"/>
<path d="M124.425 162.096C121.973 160.637 118.926 158.315 116.723 154.63C114.462 150.859 114.328 147.721 113.561 147.788C112.603 147.884 111.444 152.932 113.312 157.288C114.088 159.102 115.209 160.378 116.09 161.203" stroke="#262626" stroke-width="0.5" stroke-linecap="round" stroke-linejoin="round"/>
<path d="M103.457 146.781C103.121 149.401 102.825 153.278 103.332 157.913C104.07 164.755 106.015 169.063 104.721 169.812C103.572 170.474 100.841 167.777 99.6631 166.395C96.6549 162.855 96.0322 158.805 95.8789 156.78" stroke="#262626" stroke-width="0.5" stroke-linecap="round" stroke-linejoin="round"/>
<path d="M190.06 188.226C188.757 188.005 187.397 187.813 185.979 187.65C183.076 187.324 180.356 187.189 177.836 187.18" stroke="#262626" stroke-width="0.5" stroke-linecap="round" stroke-linejoin="round"/>
<path d="M177.835 187.18C175.871 186.767 170.899 186.019 165.457 188.379C157.161 191.968 154.392 199.904 153.961 201.228" stroke="#262626" stroke-width="0.5" stroke-linecap="round" stroke-linejoin="round"/>
<path d="M166.559 189.31C166.942 189.137 167.641 188.869 168.551 188.888C169.95 188.916 170.918 189.617 171.243 189.886" stroke="#262626" stroke-width="0.5" stroke-linecap="round" stroke-linejoin="round"/>
<path d="M173.383 192.4C173.814 192.42 174.35 192.506 174.896 192.775C176.841 193.734 177.224 196.076 177.263 196.383" stroke="#262626" stroke-width="0.5" stroke-linecap="round" stroke-linejoin="round"/>
<path d="M165.228 194.203C164.825 194.865 164.413 195.527 164.001 196.189C163.302 197.072 162.612 197.955 161.913 198.848C161.281 199.673 160.658 200.488 160.035 201.295" stroke="#262626" stroke-width="0.5" stroke-linecap="round" stroke-linejoin="round"/>
<path d="M169.587 197.812C168.389 198.849 167.211 199.885 166.013 200.931H166.004" stroke="#262626" stroke-width="0.5" stroke-linecap="round" stroke-linejoin="round"/>
<path d="M153.466 120.784C152.843 120.468 152.402 119.719 152.402 118.856C152.402 117.704 153.178 116.764 154.127 116.764C155.075 116.764 155.851 117.704 155.851 118.856C155.851 120.007 155.075 120.948 154.127 120.948C153.897 120.948 153.676 120.89 153.475 120.794" stroke="#262626" stroke-width="0.5" stroke-linecap="round" stroke-linejoin="round"/>
<path d="M157.267 142.568C157.267 143.72 156.501 144.651 155.553 144.651C154.604 144.651 153.828 143.72 153.828 142.568C153.828 141.417 154.604 140.477 155.553 140.477C156.501 140.477 157.267 141.417 157.267 142.568Z" stroke="#262626" stroke-width="0.5" stroke-linecap="round" stroke-linejoin="round"/>
<path d="M159.231 154.15C158.963 154.15 157.545 154.17 156.453 155.292C155.648 156.118 155.466 157.087 155.418 157.432" stroke="#262626" stroke-width="0.5" stroke-linecap="round" stroke-linejoin="round"/>
<path d="M155.199 158.537C155.199 158.172 155.276 157.788 155.42 157.433C155.707 156.685 156.272 156.08 156.924 156.08C157.872 156.08 158.638 156.896 158.638 158.047" stroke="#262626" stroke-width="0.5" stroke-linecap="round" stroke-linejoin="round"/>
<path d="M160.304 113.723C159.605 114.193 158.819 114.682 157.938 115.143C156.568 115.872 155.265 116.39 154.125 116.765" stroke="#262626" stroke-width="0.5" stroke-linecap="round" stroke-linejoin="round"/>
<path d="M153.465 120.785C153.465 120.785 153.474 120.785 153.474 120.795C154.011 121.217 154.911 121.783 156.138 122.071C158.696 122.666 160.794 121.543 161.349 121.217" stroke="#262626" stroke-width="0.5" stroke-linecap="round" stroke-linejoin="round"/>
<path d="M175.691 138.115C177.215 137.415 179.265 136.657 181.756 136.263C183.164 136.033 184.457 135.966 185.569 135.975" stroke="#262626" stroke-width="0.5" stroke-linecap="round" stroke-linejoin="round"/>
<path d="M176.18 150.312C177.406 149.919 178.728 149.545 180.155 149.218C182.531 148.671 184.725 148.364 186.689 148.201" stroke="#262626" stroke-width="0.5" stroke-linecap="round" stroke-linejoin="round"/>
<path d="M175.633 141.58C176.648 141.686 177.549 142.233 177.884 143.048C178.373 144.257 177.597 146.023 175.834 146.656" stroke="white" stroke-width="0.5" stroke-linecap="round" stroke-linejoin="round"/>
<path d="M185.682 139.344C184.197 139.382 183.077 140.486 183 141.628C182.914 142.981 184.303 144.42 186.104 144.228" stroke="white" stroke-width="0.5" stroke-linecap="round" stroke-linejoin="round"/>
<path d="M175.824 135.793C177.482 134.833 179.733 133.797 182.521 133.173C183.632 132.933 184.676 132.78 185.634 132.703" stroke="#262626" stroke-width="0.5" stroke-linecap="round" stroke-linejoin="round"/>
<path d="M176.035 133.327C176.035 133.327 176.045 133.327 176.045 133.317C176.878 132.694 178.411 131.696 180.586 131.187C182.808 130.659 184.676 130.89 185.711 131.091H185.721" stroke="#262626" stroke-width="0.5" stroke-linecap="round" stroke-linejoin="round"/>
<path d="M132.781 156.367C132.781 156.367 132.829 156.358 132.848 156.358C133.95 156.176 135.186 156.041 136.527 155.984C137.562 155.936 138.539 155.945 139.439 155.984" stroke="#262626" stroke-width="0.5" stroke-linecap="round" stroke-linejoin="round"/>
<path d="M133.012 145.294C133.759 145.092 134.573 144.91 135.435 144.756C136.748 144.526 137.974 144.392 139.076 144.334" stroke="#262626" stroke-width="0.5" stroke-linecap="round" stroke-linejoin="round"/>
<path d="M133.211 142.529C135.098 142.193 136.995 141.858 138.892 141.531" stroke="#262626" stroke-width="0.5" stroke-linecap="round" stroke-linejoin="round"/>
<path d="M133.297 141.148C135.242 140.707 137.177 140.266 139.122 139.824" stroke="#262626" stroke-width="0.5" stroke-linecap="round" stroke-linejoin="round"/>
<path d="M139.131 147.75C137.982 147.932 137.148 148.911 137.129 150.024C137.11 151.233 138.068 152.289 139.333 152.394" stroke="white" stroke-width="0.5" stroke-linecap="round" stroke-linejoin="round"/>
<path d="M132.742 148.738C132.943 148.863 133.557 149.285 133.777 150.072C134.036 151.003 133.624 152.058 132.742 152.73" stroke="white" stroke-width="0.5" stroke-linecap="round" stroke-linejoin="round"/>
<path d="M142.664 57.876C143.201 57.6457 144.159 57.329 145.318 57.4922C148.115 57.8856 149.389 60.678 149.485 60.9083" stroke="#262626" stroke-width="0.5" stroke-linecap="round" stroke-linejoin="round"/>
<path d="M124 60.1508C124.364 59.8341 124.929 59.4119 125.705 59.1048C127.056 58.5866 128.263 58.721 128.828 58.8265" stroke="#262626" stroke-width="0.5" stroke-linecap="round" stroke-linejoin="round"/>
<path d="M138.094 77.5964C138.209 77.0686 139.617 77.4141 141.6 76.6464C143.535 75.8883 144.359 74.708 144.819 75.0343C145.183 75.2837 144.991 76.2337 144.723 76.8287C143.986 78.4984 141.734 79.5444 139.895 79.0166C138.966 78.7479 137.988 78.0474 138.094 77.5964Z" stroke="#262626" stroke-width="0.5" stroke-linecap="round" stroke-linejoin="round"/>
<path d="M133.819 69.8316C133.254 69.2271 132.363 69.1503 131.798 69.5821C131.367 69.9084 131.166 70.5129 131.29 71.0983" stroke="#262626" stroke-width="0.5" stroke-linecap="round" stroke-linejoin="round"/>
<path d="M166.176 139.439C166.176 140.754 166.205 142.117 166.272 143.518C166.511 148.22 167.172 152.49 168.025 156.261" stroke="#262626" stroke-width="0.5" stroke-linecap="round" stroke-linejoin="round"/>
<path d="M143.817 138.395C143.606 139.575 143.434 140.841 143.347 142.195C143.022 147.156 143.884 151.397 144.861 154.535" stroke="#262626" stroke-width="0.5" stroke-linecap="round" stroke-linejoin="round"/>
<path d="M220.945 150.735C221.74 149.142 223.015 147.127 225.017 145.227C230.181 140.362 236.513 139.815 238.659 139.729" stroke="#262626" stroke-width="0.5" stroke-linecap="round" stroke-linejoin="round"/>
<path d="M224.549 129.662C223.275 129.921 215.323 131.629 211.846 138.682C210.782 140.851 210.428 142.943 210.332 144.565" stroke="#262626" stroke-width="0.5" stroke-linecap="round" stroke-linejoin="round"/>
<path d="M236.678 158.047C234.925 158.68 232.53 159.851 230.327 162.029C224.349 167.94 224.895 176.25 225.019 177.699" stroke="#262626" stroke-width="0.5" stroke-linecap="round" stroke-linejoin="round"/>
<path d="M226.063 160.416C225.421 161.117 224.635 162.115 223.974 163.448C223.045 165.339 222.748 167.066 222.652 168.198" stroke="#262626" stroke-width="0.5" stroke-linecap="round" stroke-linejoin="round"/>
</g>
<defs>
<clipPath id="clip0_5678_17012">
<rect width="277" height="233" fill="white"/>
</clipPath>
</defs>
</svg>
