<svg width="162" height="235" viewBox="0 0 162 235" fill="none" xmlns="http://www.w3.org/2000/svg">
<g clip-path="url(#clip0_1993_20243)">
<path d="M128.328 115.112C128.285 115.116 128.241 115.116 128.197 115.124C128.237 115.124 128.285 115.124 128.328 115.112ZM141.171 211.581C139.225 208.941 138.112 206.531 137.429 204.588C135.403 198.844 136.36 194.978 134.299 184.62C133.568 180.945 132.762 177.987 132.209 176.1C130.744 175.232 129.774 173.967 129.588 172.58C129.524 172.116 129.496 171.212 130.076 170.078C129.361 169.123 128.916 168.163 128.571 167.367C125.826 161.012 125.039 154.427 124.833 152.544C124.59 150.367 124.328 147.259 124.285 143.485C123.804 142.573 123.768 141.725 123.764 141.448C122.859 140.571 122.338 139.604 122.044 138.926C121.921 139.35 121.711 139.969 121.361 140.639C121.452 141.245 121.484 141.935 121.389 142.692C121.285 143.521 121.055 144.274 120.753 144.948C120.217 149.808 120.209 153.753 120.308 156.492C120.503 161.856 119.955 167.24 120.36 172.596C120.368 172.679 120.372 172.782 120.38 172.905C120.654 173.468 121.504 175.39 120.9 177.769C120.813 178.114 120.702 178.435 120.574 178.74C120.896 180.893 121.452 184.477 122.251 188.905C124.749 202.792 126.33 206.907 125.989 214.051C125.874 216.533 125.48 220.192 124.157 224.656C124.332 225.127 124.527 226.13 124.368 227.379C124.368 227.379 124.233 228.128 123.772 228.846C123.617 229.084 123.419 229.294 123.184 229.472C121.567 230.709 118.334 230.614 117.432 230.571C111.974 230.301 103.871 227.514 101.614 223.518C101.221 222.82 101.007 222.083 101.015 221.318C101.023 220.501 101.293 219.225 102.778 217.659C101.932 216.656 101.718 215.324 102.234 214.261C102.373 213.972 102.56 213.73 102.754 213.528H102.751C99.4574 199.042 96.9708 182.09 96.7086 163.133C96.6172 156.623 96.796 150.391 97.1733 144.468C96.8754 143.723 96.6172 142.839 96.502 141.84C96.4146 141.071 96.4226 140.373 96.4822 139.771C96.0253 138.613 95.6202 137.281 95.3818 135.79C94.8376 132.46 95.4096 130.224 96.2478 124.916C96.649 122.367 97.1813 118.684 97.658 114.149C97.4117 113.249 97.1773 112 97.2091 110.514C96.6649 110.081 93.5903 107.532 93.3281 103.227C94.6708 102.866 95.8784 102.422 96.9588 101.935C98.087 101.431 99.084 100.88 99.958 100.321C113.23 91.8215 112.507 72.6459 112.376 70.1087C114.628 67.8172 116.88 65.5219 119.132 63.2305C119.176 63.2661 119.22 63.3018 119.264 63.3375C121.575 65.2087 123.887 67.0799 126.203 68.955C126.291 71.9164 126.791 75.9323 128.563 80.3248C131.586 87.8373 136.793 92.6897 140.543 95.441C141.715 96.3013 142.74 96.9554 143.515 97.4192C143.499 99.001 143.292 101.106 142.541 103.457C142.089 104.868 141.536 106.073 140.996 107.065C141.322 107.616 141.66 108.305 141.918 109.13C142.478 110.906 142.398 112.476 142.255 113.483C141.791 113.273 141.282 113.071 140.726 112.892C138.704 112.242 136.913 112.151 135.689 112.186C135.526 113.205 135.363 114.228 135.201 115.247C136.567 115.386 138.049 115.596 139.618 115.901C140.821 116.135 141.95 116.401 143.002 116.682C144.313 120.195 145.596 124.468 146.442 129.412C147.07 133.095 147.348 136.472 147.419 139.449C148.123 143.287 148.822 146.906 149.509 150.308C148.424 149.915 146.903 149.503 145.06 149.408C142.561 149.281 140.563 149.793 139.372 150.193C139.483 151.343 139.59 152.492 139.697 153.642C141.715 153.198 144.48 152.865 147.662 153.329C148.595 153.467 149.457 153.654 150.24 153.876C151.988 162.245 153.632 169.123 154.971 174.423C156.925 182.154 159.027 189.646 158.951 200.223C158.931 203.288 158.729 206.079 158.455 208.533V208.541C158.478 208.695 158.971 210.55 159.607 213.004C161.136 218.931 161.204 219.514 161.231 220.14C161.259 220.925 161.223 221.912 160.989 223.074C161.287 223.577 162.165 225.203 161.636 227.014C161.513 227.439 161.331 227.811 161.116 228.14C160.477 229.116 159.527 229.71 158.872 230.107C153.144 233.591 144.436 230.828 141.862 227.851C141.564 227.502 140.945 226.773 140.829 225.706C140.647 224.006 141.87 222.662 142.263 222.261C142.267 221.952 142.275 221.639 142.291 221.318C142.331 220.568 142.398 219.859 142.482 219.201C141.858 218.606 141.27 217.829 140.889 216.822C139.9 214.233 140.96 211.993 141.163 211.581H141.171Z" fill="#7099ED"/>
<path d="M161.113 228.145C161.447 229.406 161.713 231.186 161.363 233.235C161.268 233.806 161.137 234.329 160.986 234.805C153.971 234.702 146.951 234.595 139.94 234.492C139.817 234.127 139.67 233.548 139.694 232.843C139.706 232.589 139.761 231.812 140.778 229.786C141.025 229.299 141.382 228.629 141.863 227.852C144.433 230.829 153.144 233.592 158.872 230.107C159.524 229.711 160.473 229.116 161.117 228.145H161.113Z" fill="#262626"/>
<path d="M150.915 75.7773C151.872 82.1481 151.233 87.2701 149.453 89.3672C148.972 89.9341 148.047 91.0243 146.529 91.3018C145.334 91.5199 144.281 91.1393 143.876 90.9886C142.795 90.5843 142.1 89.942 141.759 89.5773L141.707 89.5694C141.937 88.1105 142.14 86.5763 142.291 84.9747H142.339C143.653 84.2968 145.592 83.0995 147.451 81.1094C149.318 79.1074 150.355 77.1133 150.919 75.7773H150.915Z" fill="white"/>
<path d="M142.287 84.9756C142.136 86.5772 141.934 88.1114 141.703 89.5703C141.373 91.6912 140.972 93.6536 140.547 95.4415C136.801 92.6902 131.59 87.8378 128.567 80.3254C126.795 75.9328 126.294 71.9169 126.207 68.9555C127.295 67.6671 137.103 55.8692 133.766 51.5995C133.619 51.4092 133.441 51.2348 133.234 51.0723C134.275 51.7264 135.296 52.432 136.285 53.1932C146.41 60.9594 149.783 71.3857 150.911 75.7782C150.347 77.1142 149.31 79.1083 147.443 81.1103C145.588 83.1004 143.646 84.2977 142.331 84.9795H142.283L142.287 84.9756Z" fill="white"/>
<path d="M149.512 150.308C149.755 151.525 150.001 152.715 150.243 153.876C149.457 153.654 148.595 153.468 147.665 153.329C144.483 152.865 141.719 153.198 139.701 153.642C139.593 152.493 139.486 151.343 139.375 150.193C140.567 149.793 142.569 149.282 145.063 149.408C146.907 149.504 148.428 149.916 149.512 150.308Z" fill="#7099ED"/>
<path d="M142.258 113.483C142.818 113.736 143.311 113.998 143.736 114.252C143.493 115.064 143.247 115.873 143.005 116.682C141.952 116.4 140.824 116.135 139.62 115.901C138.051 115.596 136.574 115.386 135.203 115.247C135.366 114.228 135.529 113.205 135.692 112.186C136.915 112.151 138.707 112.242 140.729 112.892C141.285 113.07 141.793 113.273 142.258 113.483Z" fill="#7099ED"/>
<path d="M133.769 51.599C137.105 55.8687 127.298 67.6666 126.209 68.955C123.897 67.0799 121.585 65.2087 119.27 63.3375C120.235 62.4059 130.321 52.5307 127.754 48.5663C127.603 48.3324 127.401 48.1104 127.139 47.9082C129.22 48.7843 131.262 49.8309 133.228 51.0638L133.236 51.0718C133.447 51.2343 133.622 51.4087 133.769 51.599Z" fill="#7099ED"/>
<path d="M106.353 20.3482C104.974 20.2134 103.6 20.0746 102.237 19.9359C99.9491 19.702 97.6928 19.472 95.4961 19.2381C95.6033 18.4294 95.7146 17.6167 95.8218 16.808C97.8954 16.9507 99.7544 15.5988 100.195 13.6404C100.235 13.4541 100.283 13.2638 100.322 13.0696C101.943 5.51745 108.819 0.197266 116.661 0.197266C117.205 0.197266 117.745 0.221052 118.297 0.272589C125.241 0.92671 130.405 6.75037 130.008 13.47C129.877 15.7138 129.742 17.8744 129.63 19.5553C129.626 19.587 129.626 19.6187 129.626 19.6504C129.626 20.2728 130.059 20.8279 130.687 21.0023C130.469 22.0885 130.552 21.6842 130.334 22.7664C129.38 22.6673 128.415 22.5642 127.446 22.4651C120.633 21.7595 113.399 21.0578 106.356 20.3482H106.353Z" fill="#FF8B63"/>
<path d="M127.755 48.5671C130.321 52.5315 120.236 62.4067 119.27 63.3383C119.227 63.3026 119.183 63.267 119.139 63.2313C117.411 60.0479 115.024 56.2936 111.743 52.4086C109.069 49.2371 106.38 46.6602 103.965 44.6106C105.196 44.456 106.479 44.3569 107.794 44.3173C112.871 44.1627 118.468 44.8802 123.93 46.6999C125.006 47.0606 126.075 47.461 127.135 47.909C127.398 48.1112 127.6 48.3332 127.751 48.5671H127.755Z" fill="white"/>
<path d="M127.441 22.4646C126.841 25.315 126.015 28.4508 124.871 31.7849C124.112 33.9851 123.294 36.0228 122.463 37.8979C122.44 37.9614 122.412 38.0248 122.38 38.0882C121.248 37.89 119.83 37.7393 118.205 37.783C116.85 37.8186 115.659 37.9812 114.67 38.1754C113.7 35.7017 112.731 33.2319 111.762 30.7581C112.111 30.5916 112.576 30.3101 113.005 29.8621C113.744 29.0891 114.769 27.4161 113.99 26.2427C113.494 25.4894 112.318 25.0415 111.448 25.3824C110.892 25.5965 110.606 26.0722 110.447 26.3497C109.951 27.1783 110.034 28.0148 110.082 28.3359C109.51 27.8364 108.945 27.3408 108.373 26.8453C109.549 25.1525 109.613 23.1069 108.58 21.7471C107.869 20.8155 106.844 20.4745 106.352 20.3477C113.398 21.0573 120.632 21.759 127.441 22.4646Z" fill="#262626"/>
<path d="M111.763 30.7583C112.732 33.232 113.702 35.7019 114.671 38.1756C115.66 37.9814 116.852 37.8188 118.206 37.7831C119.831 37.7395 121.245 37.8902 122.381 38.0884C122.409 38.025 122.437 37.9615 122.465 37.8981H122.472C122.671 39.0517 123.037 41.1687 123.231 42.3184C123.422 43.4165 123.779 45.5176 123.966 46.6158L123.934 46.699C118.472 44.8794 112.875 44.1618 107.799 44.3164V44.2649C107.767 42.6871 107.731 41.1053 107.695 39.5275C106.484 39.3213 104.776 38.8218 103.497 37.47C102.488 36.3996 102.003 35.0517 101.868 31.3133C101.844 30.6393 101.832 29.8861 101.832 29.0417C101.828 26.6631 101.912 23.5669 102.233 19.9355C103.596 20.0743 104.97 20.2131 106.349 20.3478C106.837 20.4747 107.866 20.8156 108.577 21.7473C109.614 23.107 109.546 25.1527 108.371 26.8454C108.943 27.341 109.507 27.8365 110.079 28.3361C110.031 28.0149 109.948 27.1785 110.444 26.3499C110.603 26.0724 110.893 25.5967 111.445 25.3826C112.315 25.0417 113.491 25.4896 113.988 26.2429C114.762 27.4163 113.741 29.0893 113.002 29.8623C112.569 30.3103 112.109 30.5918 111.759 30.7583H111.763ZM104.792 25.3152C104.792 24.558 104.502 23.9435 104.148 23.9435C103.794 23.9435 103.501 24.558 103.501 25.3152C103.501 26.0724 103.791 26.6869 104.148 26.6869C104.506 26.6869 104.792 26.0724 104.792 25.3152Z" fill="white"/>
<path d="M123.447 232.703C123.451 233.409 123.451 234.11 123.447 234.804H93.4239C92.5182 232.354 92.9114 231.046 93.3842 230.32C94.3534 228.826 96.1807 229.004 98.3377 227.498C100.093 226.273 101.027 224.659 101.531 223.565L101.623 223.518C103.879 227.514 111.979 230.301 117.441 230.57C118.338 230.614 121.572 230.709 123.193 229.472L123.415 229.5C123.435 230.554 123.447 231.625 123.451 232.703H123.447Z" fill="#262626"/>
<path d="M119.138 63.23C116.885 65.5214 114.633 67.8168 112.381 70.1082C110.649 65.3034 107.721 59.0992 102.644 52.8791C100.615 50.3934 98.5489 48.2804 96.5826 46.4964L96.5469 46.3973C98.7078 45.5608 101.226 44.9503 103.971 44.6094C106.386 46.659 109.072 49.2358 111.749 52.4073C115.026 56.2924 117.414 60.0466 119.146 63.23H119.138Z" fill="#7099ED"/>
<path d="M93.0536 72.6346C90.0704 74.3116 87.0951 75.9845 84.1198 77.6575C83.3968 77.1302 82.5428 76.4484 81.6292 75.596C80.0045 74.0856 78.2129 72.0321 76.7233 69.3482C75.476 67.1043 74.761 64.9993 74.3359 63.2946C75.043 62.7396 75.8176 62.1132 76.6399 61.4274C80.4335 58.2638 81.9072 56.5869 84.6839 54.2122C84.6839 54.2122 88.6364 50.8385 93.3793 47.9406C94.3208 47.3657 95.3814 46.8504 96.5413 46.3984L96.5771 46.4975C98.5434 48.2815 100.613 50.3945 102.639 52.8802C107.716 59.1003 110.643 65.3045 112.375 70.1093C112.506 72.6465 113.229 91.8222 99.9575 100.322C99.0836 100.881 98.0866 101.432 96.9584 101.935C96.3546 100.413 95.7508 98.7202 95.1907 96.8609C93.9116 92.627 92.8788 87.5486 92.6683 81.7884C92.5491 78.4424 92.7199 75.374 93.0457 72.6346H93.0536Z" fill="white"/>
<path d="M104.144 23.9434C104.497 23.9434 104.787 24.5578 104.787 25.315C104.787 26.0722 104.497 26.6867 104.144 26.6867C103.79 26.6867 103.496 26.0722 103.496 25.315C103.496 24.5578 103.786 23.9434 104.144 23.9434Z" fill="#262626"/>
<path d="M95.1978 96.8613C95.7579 98.7206 96.3617 100.413 96.9655 101.936C95.8851 102.423 94.6775 102.867 93.3348 103.228C93.1322 99.9694 94.6576 97.6146 95.1939 96.8613H95.1978Z" fill="#262626"/>
<path d="M76.7231 69.3479C78.2088 72.0318 80.0043 74.0853 81.629 75.5957C80.0003 76.4838 77.895 77.4312 75.3447 78.129C74.3914 78.3867 73.4896 78.5849 72.6316 78.7316C71.861 78.8663 71.0625 78.8108 70.3118 78.5809C66.4109 77.3956 61.4217 75.4491 56.1623 72.1705C52.8216 70.0853 50.0568 67.889 47.8164 65.8473C47.8402 65.4113 47.8959 64.9395 47.9912 64.44C48.0627 64.0753 48.1501 63.6987 48.2732 63.3101C48.309 63.1793 48.3566 63.0485 48.4003 62.9177C49.0876 60.9712 50.2356 59.4964 51.3518 58.434H51.3558C52.3171 57.5063 53.2506 56.8879 53.8266 56.543C55.2288 57.2447 56.6271 57.9503 58.0293 58.6599C59.5865 59.4489 61.1476 60.2378 62.7087 61.0346C65.6324 62.5212 68.5481 64.0118 71.4439 65.5024C72.1827 64.9633 73.1719 64.218 74.3397 63.2943C74.7648 64.999 75.4758 67.104 76.7271 69.3479H76.7231Z" fill="white"/>
<path d="M53.8258 56.5432C52.7493 55.9961 51.6688 55.4569 50.5923 54.9178L50.6678 54.783C50.2666 51.4728 48.63 49.2329 46.9457 49.1298C46.2307 48.9831 45.2138 48.6858 44.1413 48.0555C44.1214 47.2705 43.9506 46.2239 43.3269 45.1932C41.599 42.3309 37.0308 42.212 35.4617 42.1485C34.9254 42.1287 34.4765 42.1406 34.1786 42.1525L32.9869 40.5826L24.9866 29.9145C24.4067 29.1335 23.2745 28.9749 22.488 29.5617L20.7402 30.8699C19.9974 31.421 19.8424 32.4398 20.3787 33.1772C22.0948 35.528 23.8108 37.8829 25.5269 40.2338L25.5507 40.2694L27.6044 43.0802C28.1407 43.8175 28.6809 44.5589 29.2172 45.2963C27.4654 44.3845 25.4474 44.8879 24.6291 46.1605C23.8068 47.441 24.4464 49.1021 25.2766 49.9663C26.1148 50.8345 27.2548 51.001 28.526 51.1794C28.6293 52.0634 29.0106 54.3231 30.8458 56.448C31.8151 57.57 32.8876 58.3034 33.7933 58.787C33.8648 59.1398 34.0555 59.8257 34.6672 60.2895C35.3544 60.8128 36.1767 60.7613 37.146 60.682C37.8689 60.6225 39.0328 60.4322 40.3636 59.7662C40.6575 61.4392 41.6466 62.8346 43.0806 63.465C44.1055 63.9169 45.0867 63.8614 45.6428 63.7782H45.6468C46.3022 64.4402 47.0252 65.1379 47.8117 65.8476C47.8077 65.8555 47.8077 65.8674 47.8077 65.8753H47.7998L47.2794 66.24L45.6547 64.0993L42.2425 66.5056L43.8672 68.6504L39.7518 71.5563L37.996 69.2411L35.0128 71.3461L0.199219 25.3912L3.21025 23.2702L1.59351 21.1334L5.71283 18.2275L7.3256 20.3643L10.7378 17.954L9.1211 15.8212L13.2404 12.9153L14.8532 15.0481L18.2654 12.6417L16.6527 10.5089L20.768 7.60302L22.3847 9.73585L25.5428 7.50391L28.8239 11.837L26.6312 13.4465L29.1894 16.6933L31.3225 15.1314L34.1389 18.8499L31.9938 20.4238L34.552 23.6706L36.6335 22.1443L39.4499 25.8669L37.3565 27.4051L39.9147 30.6519L41.9485 29.1613L44.7649 32.8838L42.7192 34.3823L45.2773 37.6292L47.2556 36.1782L50.0759 39.8968L48.0778 41.3636L50.636 44.6104L52.5666 43.1912L55.3869 46.9137L53.4405 48.3409L55.9987 51.5877L57.8816 50.2081L60.7337 53.9703L57.5439 56.2221L58.9064 58.0219L58.0087 58.6562H58.0047C56.6025 57.9505 55.2042 57.2449 53.802 56.5432H53.8258Z" fill="#7099ED"/>
<path d="M50.5914 54.9172C51.6679 55.4564 52.7484 55.9955 53.8249 56.5426C53.2489 56.8875 52.3154 57.5059 51.3541 58.4336H51.3501C50.2379 59.496 49.0859 60.9708 48.3987 62.9173C48.355 63.0481 48.3073 63.1789 48.2716 63.3098C48.1484 63.6983 48.0571 64.0749 47.9895 64.4396C47.8902 64.9391 47.8386 65.4109 47.8148 65.847C47.0282 65.1373 46.3053 64.4396 45.6498 63.7736H45.6459C45.0858 63.8608 44.1046 63.9163 43.0837 63.4644C41.6497 62.834 40.6645 61.4386 40.3666 59.7656C39.0359 60.4316 37.872 60.6219 37.149 60.6814C36.1798 60.7607 35.3575 60.8122 34.6703 60.2889C34.0585 59.8251 33.8639 59.1392 33.7964 58.7864C32.8907 58.3028 31.8221 57.5694 30.8489 56.4474C29.0137 54.3225 28.6323 52.0629 28.529 51.1788C27.2579 51.0004 26.1178 50.8339 25.2797 49.9657C24.4494 49.1015 23.8099 47.4404 24.6322 46.1599C25.4505 44.8873 27.4724 44.3839 29.2202 45.2957C29.2441 45.3274 29.2639 45.3591 29.2917 45.3908L29.3354 45.486C30.3285 45.0816 31.2183 44.7843 31.9492 44.5662C33.5342 44.0945 34.4597 43.9795 35.2264 44.0746V44.0667C35.2502 44.035 35.3257 43.9557 35.4369 43.8526L32.986 40.582L34.1777 42.1519C34.4717 42.14 34.9205 42.1281 35.4608 42.148C37.0298 42.2114 41.598 42.3303 43.326 45.1926C43.9497 46.2233 44.1205 47.2699 44.1403 48.0509C45.2129 48.6852 46.2298 48.9825 46.9448 49.1292C48.6291 49.2323 50.2657 51.4722 50.6669 54.7824L50.5914 54.9172Z" fill="white"/>
<path d="M29.2194 45.2955C28.6831 44.5581 28.1429 43.8168 27.6066 43.0794L25.5529 40.2686L25.5291 40.233C24.9213 39.3568 25.1557 38.1675 26.0574 37.5729L27.555 36.5818C28.4408 35.9951 29.6524 36.1972 30.2919 37.0337L32.9812 40.5818L35.4321 43.8524C35.3209 43.9555 35.2454 44.0348 35.2216 44.0665V44.0744C34.4549 43.9793 33.5294 44.0943 31.9444 44.566C31.2135 44.7841 30.3277 45.0814 29.3306 45.4858L29.2869 45.3906C29.2631 45.3589 29.2432 45.3272 29.2154 45.2955H29.2194Z" fill="white"/>
<path d="M32.9811 40.5823L30.2919 37.0342C29.6563 36.1977 28.4447 35.9955 27.5549 36.5822L26.0573 37.5733C25.1516 38.168 24.9212 39.3573 25.529 40.2334C23.813 37.8825 22.0969 35.5277 20.3809 33.1768C19.8446 32.4395 19.9995 31.4206 20.7423 30.8696L22.4902 29.5613C23.2767 28.9746 24.4088 29.1332 24.9888 29.9142L32.9891 40.5823H32.9811Z" fill="white"/>
<path d="M107.684 38.9609C107.688 39.1512 107.692 39.3376 107.696 39.5278C107.731 41.1057 107.767 42.6874 107.799 44.2653" stroke="#262626" stroke-width="0.99" stroke-linecap="round" stroke-linejoin="round"/>
<path d="M102.237 19.9355C101.912 23.5669 101.832 26.6631 101.836 29.0417C101.836 29.8861 101.848 30.6393 101.872 31.3133C102.003 35.0517 102.488 36.3996 103.5 37.47C104.78 38.8218 106.488 39.3213 107.699 39.5275C107.719 39.5354 107.735 39.5354 107.751 39.5394" stroke="#262626" stroke-width="0.99" stroke-linecap="round" stroke-linejoin="round"/>
<path d="M122.473 37.9023C122.671 39.052 123.037 41.169 123.231 42.3187C123.422 43.4168 123.78 45.5179 123.966 46.616" stroke="#262626" stroke-width="0.99" stroke-linecap="round" stroke-linejoin="round"/>
<path d="M127.441 22.4648C126.841 25.3152 126.014 28.451 124.87 31.7851C124.112 33.9853 123.293 36.023 122.463 37.8981C122.439 37.9616 122.412 38.025 122.38 38.0884C121.248 37.8902 119.83 37.7396 118.205 37.7832C116.85 37.8189 115.659 37.9814 114.669 38.1756C113.7 35.7019 112.731 33.2321 111.762 30.7583" stroke="#262626" stroke-width="0.99" stroke-linecap="round" stroke-linejoin="round"/>
<path d="M101.871 31.3139C101.955 31.3258 102.527 31.4011 103.015 31.0007C103.468 30.6241 103.5 30.1087 103.5 30.0215" stroke="#262626" stroke-width="0.99" stroke-linecap="round" stroke-linejoin="round"/>
<path d="M104.791 25.315C104.791 26.0722 104.501 26.6867 104.147 26.6867C103.794 26.6867 103.5 26.0722 103.5 25.315C103.5 24.5578 103.79 23.9434 104.147 23.9434C104.505 23.9434 104.791 24.5578 104.791 25.315Z" stroke="#262626" stroke-width="0.99" stroke-linecap="round" stroke-linejoin="round"/>
<path d="M106.301 20.3359L106.348 20.3478C106.837 20.4747 107.866 20.8156 108.577 21.7473C109.614 23.107 109.546 25.1526 108.37 26.8454C108.942 27.341 109.506 27.8365 110.078 28.336C110.031 28.0149 109.947 27.1784 110.444 26.3499C110.603 26.0724 110.893 25.5967 111.445 25.3826C112.315 25.0416 113.491 25.4896 113.987 26.2428C114.762 27.4163 113.741 29.0893 113.002 29.8623C112.569 30.3103 112.108 30.5918 111.759 30.7583C111.695 30.7939 111.636 30.8217 111.584 30.8455" stroke="#262626" stroke-width="0.99" stroke-linecap="round" stroke-linejoin="round"/>
<path d="M127.442 22.4651C128.411 22.5642 129.376 22.6673 130.33 22.7664C130.548 21.6842 130.465 22.0885 130.683 21.0023C130.056 20.8279 129.623 20.2728 129.623 19.6504C129.623 19.6187 129.623 19.587 129.627 19.5553C129.738 17.8744 129.873 15.7138 130.004 13.47C130.397 6.75037 125.233 0.92671 118.293 0.272589C117.741 0.221052 117.201 0.197266 116.657 0.197266C108.819 0.197266 101.943 5.51745 100.319 13.0696C100.279 13.2638 100.231 13.4541 100.191 13.6404C99.7466 15.5988 97.8915 16.9507 95.8179 16.808C95.7107 17.6167 95.5994 18.4294 95.4922 19.2381C97.6889 19.472 99.9452 19.702 102.233 19.9359C103.596 20.0746 104.97 20.2134 106.349 20.3482C113.396 21.0578 120.629 21.7595 127.438 22.4651H127.442Z" stroke="#262626" stroke-width="0.99" stroke-linecap="round" stroke-linejoin="round"/>
<path d="M103.62 8.33984C103.445 8.54996 101.932 10.4291 102.563 12.887C103.135 15.115 105.03 16.11 105.324 16.2567" stroke="#262626" stroke-width="0.99" stroke-linecap="round" stroke-linejoin="round"/>
<path d="M45.1953 63.3105C45.3423 63.4652 45.4932 63.6198 45.6521 63.7744C46.3076 64.4404 47.0305 65.1381 47.8171 65.8477C50.0614 67.8894 52.8262 70.0857 56.1629 72.1709C61.4223 75.4495 66.4076 77.396 70.3124 78.5813C71.0632 78.8112 71.8616 78.8667 72.6323 78.732C73.4863 78.5853 74.392 78.3871 75.3454 78.1294C77.8956 77.4316 80.0049 76.4842 81.6296 75.5961" stroke="#262626" stroke-width="0.99" stroke-linecap="round" stroke-linejoin="round"/>
<path d="M74.3242 63.2422C74.3242 63.2422 74.3322 63.2779 74.3361 63.2937C74.7612 64.9984 75.4722 67.1035 76.7235 69.3473C78.2092 72.0312 80.0047 74.0847 81.6294 75.5952C82.543 76.4475 83.397 77.1294 84.12 77.6566C87.0993 75.9837 90.0745 74.3107 93.0538 72.6338C93.1889 72.5585 93.3279 72.4792 93.463 72.4039C93.9396 72.3801 96.899 72.1898 98.9885 69.7398C100.879 67.5237 100.736 65.0143 100.693 64.483" stroke="#262626" stroke-width="0.99" stroke-linecap="round" stroke-linejoin="round"/>
<path d="M93.4648 72.4043C94.4063 73.7443 95.9674 74.4539 97.4451 74.2081C98.7123 73.998 99.479 73.1615 99.7213 72.8761" stroke="#262626" stroke-width="0.99" stroke-linecap="round" stroke-linejoin="round"/>
<path d="M51.3519 58.4336C50.2396 59.496 49.0876 60.9708 48.4004 62.9173C48.3567 63.0481 48.309 63.1789 48.2733 63.3098C48.1501 63.6983 48.0588 64.0749 47.9913 64.4396C47.8919 64.9391 47.8403 65.4109 47.8165 65.847C47.8125 65.8549 47.8125 65.8668 47.8125 65.8747V65.8827" stroke="#262626" stroke-width="0.99" stroke-linecap="round" stroke-linejoin="round"/>
<path d="M53.8302 56.5391C53.8302 56.5391 53.8263 56.5391 53.8263 56.543C53.2503 56.8879 52.3168 57.5064 51.3555 58.434" stroke="#262626" stroke-width="0.99" stroke-linecap="round" stroke-linejoin="round"/>
<path d="M45.2344 61.8978C45.3496 61.0653 45.5959 59.983 46.1282 58.7977C46.4698 58.0325 46.8591 57.3943 47.2245 56.8789" stroke="#262626" stroke-width="0.99" stroke-linecap="round" stroke-linejoin="round"/>
<path d="M45.648 63.7783C45.0879 63.8615 44.1067 63.917 43.0858 63.4651C41.6518 62.8348 40.6666 61.4393 40.3687 59.7663C40.321 59.4928 40.2893 59.2074 40.2773 58.918" stroke="#262626" stroke-width="0.99" stroke-linecap="round" stroke-linejoin="round"/>
<path d="M50.6671 54.7835C50.2659 51.4732 48.6293 49.2334 46.9451 49.1303C46.6034 49.1105 46.0354 49.166 45.3164 49.6655" stroke="#262626" stroke-width="0.99" stroke-linecap="round" stroke-linejoin="round"/>
<path d="M44.1373 48.0516C43.9784 47.9565 43.8115 47.8534 43.6487 47.7424C43.0568 47.338 42.588 46.9099 42.2266 46.5293" stroke="#262626" stroke-width="0.99" stroke-linecap="round" stroke-linejoin="round"/>
<path d="M46.9451 49.129C46.2301 48.9823 45.2132 48.685 44.1406 48.0547" stroke="#262626" stroke-width="0.99" stroke-linecap="round" stroke-linejoin="round"/>
<path d="M44.1384 48.0542C44.1186 47.2693 43.9477 46.2227 43.3241 45.192C41.5961 42.3297 37.0279 42.2108 35.4588 42.1473C34.9226 42.1275 34.4737 42.1394 34.1758 42.1513" stroke="#262626" stroke-width="0.99" stroke-linecap="round" stroke-linejoin="round"/>
<path d="M37.2749 44.8408C36.9452 44.6268 36.4368 44.3453 35.7694 44.1748C35.5946 44.1312 35.4159 44.0955 35.2252 44.0757C34.4585 43.9806 33.533 44.0955 31.948 44.5673C31.2171 44.7853 30.3313 45.0827 29.3342 45.487C28.7741 45.7209 28.1783 45.9865 27.5586 46.2918" stroke="#262626" stroke-width="0.99" stroke-linecap="round" stroke-linejoin="round"/>
<path d="M29.252 45.3109C29.252 45.3109 29.2321 45.299 29.2202 45.2951C27.4684 44.3833 25.4505 44.8867 24.6322 46.1593C23.8099 47.4398 24.4494 49.1009 25.2797 49.9651C26.1178 50.8333 27.2579 50.9998 28.529 51.1782C29.681 51.3447 30.6463 51.2694 31.2938 51.1782" stroke="#262626" stroke-width="0.99" stroke-linecap="round" stroke-linejoin="round"/>
<path d="M28.5312 51.1797C28.6345 52.0637 29.0159 54.3234 30.8511 56.4483C31.8203 57.5703 32.8929 58.3037 33.7986 58.7873C34.462 59.1322 35.034 59.3463 35.4034 59.4652" stroke="#262626" stroke-width="0.99" stroke-linecap="round" stroke-linejoin="round"/>
<path d="M33.7969 58.7793V58.7872C33.8684 59.1401 34.059 59.8259 34.6708 60.2897C35.358 60.813 36.1803 60.7615 37.1495 60.6822C37.8725 60.6227 39.0364 60.4324 40.3671 59.7664" stroke="#262626" stroke-width="0.99" stroke-linecap="round" stroke-linejoin="round"/>
<path d="M93.0521 72.6348C92.7264 75.3741 92.5555 78.4426 92.6747 81.7885C92.8852 87.5487 93.9181 92.6271 95.1971 96.861C95.7572 98.7203 96.361 100.413 96.9648 101.935C96.9648 101.939 96.9688 101.939 96.9688 101.943" stroke="#262626" stroke-width="0.99" stroke-linecap="round" stroke-linejoin="round"/>
<path d="M93.332 103.227C94.6747 102.866 95.8823 102.422 96.9628 101.935C98.0909 101.431 99.088 100.88 99.9619 100.321C113.233 91.8215 112.51 72.6459 112.379 70.1087C114.632 67.8172 116.884 65.5219 119.136 63.2305C119.18 63.2661 119.224 63.3018 119.267 63.3375C121.579 65.2087 123.891 67.0799 126.207 68.955C126.295 71.9164 126.795 75.9323 128.567 80.3248C131.59 87.8373 136.797 92.6897 140.547 95.441C141.719 96.3013 142.744 96.9554 143.519 97.4192C143.503 99.001 143.296 101.106 142.545 103.457C142.093 104.868 141.54 106.073 141 107.065C141.326 107.616 141.663 108.305 141.922 109.13C142.482 110.906 142.402 112.476 142.259 113.483C142.255 113.515 142.251 113.542 142.247 113.574" stroke="#262626" stroke-width="0.99" stroke-linecap="round" stroke-linejoin="round"/>
<path d="M95.1939 96.8613C94.6576 97.6146 93.1322 99.9694 93.3348 103.228C93.597 107.533 96.6755 110.083 97.2158 110.515" stroke="#262626" stroke-width="0.99" stroke-linecap="round" stroke-linejoin="round"/>
<path d="M116.215 79.0687C116.819 83.1599 119.254 85.8398 121.009 85.7367C122.869 85.6257 125.188 82.3195 124.747 77.582" stroke="#262626" stroke-width="0.99" stroke-linecap="round" stroke-linejoin="round"/>
<path d="M126.26 85.6055C126.236 86.3547 126.057 88.2537 124.635 89.994C122.22 92.9435 118.351 92.8365 117.914 92.8206" stroke="#262626" stroke-width="0.99" stroke-linecap="round" stroke-linejoin="round"/>
<path d="M96.4883 139.771C96.9689 140.985 97.5131 141.999 97.9859 142.796" stroke="#262626" stroke-width="0.99" stroke-linecap="round" stroke-linejoin="round"/>
<path d="M97.717 107.248C97.4906 108.017 97.288 108.992 97.2284 110.122C97.2205 110.257 97.2165 110.388 97.2165 110.515C97.1847 112.001 97.4191 113.25 97.6654 114.15C97.1887 118.685 96.6604 122.368 96.2552 124.917C95.417 130.226 94.845 132.461 95.3892 135.792C95.6276 137.282 96.0327 138.614 96.4895 139.768" stroke="#262626" stroke-width="0.99" stroke-linecap="round" stroke-linejoin="round"/>
<path d="M123.305 108.591C124.194 108.544 125.068 108.484 125.918 108.413C128.389 108.203 130.681 107.901 132.767 107.561" stroke="#262626" stroke-width="0.99" stroke-linecap="round" stroke-linejoin="round"/>
<path d="M105.676 107.77C109.684 108.364 114.471 108.792 119.869 108.709C121.041 108.693 122.181 108.654 123.289 108.594" stroke="#262626" stroke-width="0.99" stroke-linecap="round" stroke-linejoin="round"/>
<path d="M128.195 115.124C128.239 115.116 128.283 115.116 128.326 115.112C130.583 114.922 132.648 114.617 134.499 114.252" stroke="#262626" stroke-width="0.99" stroke-linecap="round" stroke-linejoin="round"/>
<path d="M122.145 115.3C123.718 115.336 125.422 115.312 127.237 115.193C127.559 115.173 127.873 115.149 128.186 115.125" stroke="#262626" stroke-width="0.99" stroke-linecap="round" stroke-linejoin="round"/>
<path d="M108.391 144.155C110.798 144.448 112.832 144.42 114.349 144.313C116.47 144.159 117.567 144.072 118.739 143.421C120.038 142.708 120.852 141.622 121.364 140.638C121.714 139.968 121.924 139.35 122.048 138.926C122.341 139.604 122.866 140.571 123.768 141.447C124.026 141.697 124.32 141.943 124.645 142.169C126.794 143.663 129.253 143.576 131.927 143.485C133.21 143.441 135.025 143.271 137.162 142.692" stroke="#262626" stroke-width="0.99" stroke-linecap="round" stroke-linejoin="round"/>
<path d="M128.374 145.879C128.08 145.875 126.24 145.828 124.906 144.365C124.644 144.076 124.437 143.778 124.282 143.485C123.801 142.573 123.766 141.725 123.762 141.447" stroke="#262626" stroke-width="0.99" stroke-linecap="round" stroke-linejoin="round"/>
<path d="M120.751 144.953C119.845 146.951 118.312 148.248 117.648 148.755" stroke="#262626" stroke-width="0.99" stroke-linecap="round" stroke-linejoin="round"/>
<path d="M121.358 140.639C121.449 141.245 121.481 141.935 121.386 142.692C121.282 143.521 121.052 144.274 120.75 144.948" stroke="#262626" stroke-width="0.99" stroke-linecap="round" stroke-linejoin="round"/>
<path d="M98.1352 146.313C97.8373 145.845 97.4837 145.226 97.1779 144.469C96.8799 143.724 96.6217 142.84 96.5065 141.841C96.4192 141.072 96.4271 140.374 96.4867 139.771" stroke="#262626" stroke-width="0.99" stroke-linecap="round" stroke-linejoin="round"/>
<path d="M97.1758 144.469C96.7984 150.392 96.6197 156.624 96.711 163.133C96.9732 182.091 99.4599 199.042 102.753 213.528" stroke="#262626" stroke-width="0.99" stroke-linecap="round" stroke-linejoin="round"/>
<path d="M104.349 212.611C104.187 212.655 103.388 212.881 102.76 213.527C102.562 213.729 102.379 213.971 102.24 214.26C101.724 215.323 101.934 216.655 102.784 217.658C102.892 217.785 103.007 217.908 103.134 218.023" stroke="#262626" stroke-width="0.99" stroke-linecap="round" stroke-linejoin="round"/>
<path d="M120.751 144.949C120.214 149.81 120.206 153.754 120.306 156.493C120.5 161.857 119.952 167.241 120.357 172.597C120.365 172.68 120.369 172.783 120.377 172.906C120.409 173.54 120.393 174.682 119.813 175.887C119.189 177.187 118.173 178.016 117.43 178.504" stroke="#262626" stroke-width="0.99" stroke-linecap="round" stroke-linejoin="round"/>
<path d="M120.382 172.904C120.656 173.467 121.506 175.39 120.902 177.769C120.815 178.113 120.704 178.435 120.577 178.74C119.635 180.976 117.78 182.09 117.379 182.316" stroke="#262626" stroke-width="0.99" stroke-linecap="round" stroke-linejoin="round"/>
<path d="M112.286 181.167C111.809 181.309 111.074 181.472 110.172 181.428C109.477 181.397 108.901 181.254 108.492 181.115" stroke="#262626" stroke-width="0.99" stroke-linecap="round" stroke-linejoin="round"/>
<path d="M120.578 178.732V178.74C120.9 180.893 121.456 184.477 122.254 188.905C124.753 202.792 126.334 206.907 125.992 214.051C125.877 216.533 125.484 220.192 124.161 224.656C123.994 225.223 123.812 225.797 123.609 226.388" stroke="#262626" stroke-width="0.99" stroke-linecap="round" stroke-linejoin="round"/>
<path d="M124.159 224.655C124.333 225.127 124.528 226.13 124.369 227.379C124.369 227.379 124.234 228.128 123.773 228.846C123.618 229.084 123.42 229.294 123.185 229.472C121.569 230.709 118.335 230.614 117.434 230.57C111.976 230.301 103.872 227.514 101.616 223.518C101.222 222.82 101.008 222.082 101.016 221.317C101.024 220.501 101.294 219.224 102.78 217.658" stroke="#262626" stroke-width="0.99" stroke-linecap="round" stroke-linejoin="round"/>
<path d="M107.355 222.832C108.098 223.605 109.183 224.557 110.656 225.393C113.04 226.745 115.304 227.145 116.671 227.276" stroke="#262626" stroke-width="0.99" stroke-linecap="round" stroke-linejoin="round"/>
<path d="M123.411 229.501C123.431 230.556 123.443 231.626 123.447 232.704C123.451 233.41 123.451 234.112 123.447 234.805H93.4239C92.5182 232.355 92.9114 231.047 93.3842 230.322C94.3534 228.827 96.1807 229.006 98.3377 227.499C100.093 226.274 101.027 224.661 101.531 223.566" stroke="#262626" stroke-width="0.99" stroke-linecap="round" stroke-linejoin="round"/>
<path d="M143.005 116.682C141.952 116.4 140.824 116.135 139.62 115.901C138.051 115.596 136.574 115.386 135.203 115.247C135.366 114.228 135.529 113.205 135.692 112.186C136.915 112.151 138.707 112.242 140.729 112.892C141.285 113.07 141.793 113.273 142.258 113.483C142.818 113.736 143.311 113.998 143.736 114.252C143.493 115.064 143.247 115.873 143.005 116.682Z" stroke="#262626" stroke-width="0.99" stroke-linecap="round" stroke-linejoin="round"/>
<path d="M158.457 208.541C158.183 210.991 157.826 213.108 157.492 214.809" stroke="#262626" stroke-width="0.99" stroke-linecap="round" stroke-linejoin="round"/>
<path d="M143.004 116.682C144.315 120.194 145.598 124.468 146.444 129.411C147.072 133.094 147.35 136.472 147.421 139.449C148.124 143.287 148.823 146.906 149.511 150.307C149.753 151.525 149.999 152.714 150.242 153.875" stroke="#262626" stroke-width="0.99" stroke-linecap="round" stroke-linejoin="round"/>
<path d="M150.243 153.876C149.457 153.654 148.595 153.468 147.665 153.329C144.483 152.865 141.719 153.198 139.701 153.642C139.593 152.493 139.486 151.343 139.375 150.193C140.567 149.793 142.569 149.282 145.063 149.408C146.907 149.504 148.428 149.916 149.512 150.308C149.699 150.376 149.866 150.443 150.021 150.507C150.1 151.632 150.18 152.754 150.263 153.88C150.255 153.88 150.251 153.88 150.243 153.88V153.876Z" stroke="#262626" stroke-width="0.99" stroke-linecap="round" stroke-linejoin="round"/>
<path d="M150.242 153.877C151.99 162.246 153.635 169.124 154.973 174.424C156.928 182.155 159.029 189.647 158.954 200.224C158.934 203.289 158.731 206.08 158.457 208.534V208.542C158.481 208.696 158.973 210.552 159.609 213.006C161.138 218.932 161.206 219.515 161.234 220.141C161.261 220.926 161.226 221.914 160.991 223.075C160.789 224.09 160.435 225.236 159.855 226.492" stroke="#262626" stroke-width="0.99" stroke-linecap="round" stroke-linejoin="round"/>
<path d="M159.12 210.809C158.815 209.73 158.501 208.62 158.457 208.537" stroke="#262626" stroke-width="0.99" stroke-linecap="round" stroke-linejoin="round"/>
<path d="M161.114 228.145C160.474 229.116 159.525 229.711 158.869 230.107C153.141 233.592 144.434 230.829 141.86 227.851C141.562 227.503 140.942 226.773 140.827 225.707C140.644 224.006 141.868 222.662 142.261 222.262" stroke="#262626" stroke-width="0.99" stroke-linecap="round" stroke-linejoin="round"/>
<path d="M160.988 223.074C161.286 223.578 162.164 225.203 161.636 227.015C161.513 227.439 161.33 227.812 161.115 228.141" stroke="#262626" stroke-width="0.99" stroke-linecap="round" stroke-linejoin="round"/>
<path d="M124.285 143.473V143.485C124.325 147.259 124.591 150.367 124.833 152.543C125.04 154.426 125.826 161.011 128.571 167.366C128.917 168.163 129.362 169.122 130.077 170.078C130.55 170.708 131.145 171.342 131.904 171.913C133.294 172.968 134.724 173.447 135.678 173.677" stroke="#262626" stroke-width="0.99" stroke-linecap="round" stroke-linejoin="round"/>
<path d="M130.072 170.078C129.492 171.212 129.52 172.116 129.583 172.58C129.77 173.967 130.739 175.232 132.205 176.1C133.003 176.576 133.941 176.933 134.986 177.131" stroke="#262626" stroke-width="0.99" stroke-linecap="round" stroke-linejoin="round"/>
<path d="M132.203 176.1C132.759 177.987 133.562 180.944 134.293 184.619C136.354 194.978 135.397 198.843 137.423 204.588C138.106 206.53 139.218 208.94 141.165 211.581C142.464 213.349 144.136 215.224 146.305 217.135" stroke="#262626" stroke-width="0.99" stroke-linecap="round" stroke-linejoin="round"/>
<path d="M141.165 211.582C140.958 211.994 139.898 214.234 140.891 216.823C141.272 217.83 141.86 218.607 142.484 219.202C143.715 220.371 145.09 220.823 145.332 220.898" stroke="#262626" stroke-width="0.99" stroke-linecap="round" stroke-linejoin="round"/>
<path d="M142.485 219.201C142.401 219.859 142.338 220.569 142.294 221.318C142.278 221.639 142.27 221.952 142.266 222.262C142.254 222.904 142.266 223.514 142.294 224.089" stroke="#262626" stroke-width="0.99" stroke-linecap="round" stroke-linejoin="round"/>
<path d="M148.801 228.322C149.381 228.707 150.457 229.313 151.943 229.527C154.14 229.841 155.856 229.107 156.491 228.794" stroke="#262626" stroke-width="0.99" stroke-linecap="round" stroke-linejoin="round"/>
<path d="M161.113 228.141C161.447 229.406 161.713 231.186 161.363 233.235C161.268 233.806 161.137 234.329 160.986 234.805C153.971 234.702 146.951 234.595 139.94 234.492C139.817 234.127 139.67 233.548 139.694 232.843C139.706 232.589 139.761 231.812 140.778 229.786C141.025 229.299 141.382 228.629 141.863 227.852" stroke="#262626" stroke-width="0.99" stroke-linecap="round" stroke-linejoin="round"/>
<path d="M111.152 27.4203C111.232 27.452 111.526 27.5749 111.883 27.4718C112.173 27.3885 112.34 27.2022 112.396 27.1309" stroke="#262626" stroke-width="0.99" stroke-linecap="round" stroke-linejoin="round"/>
<path d="M111.855 28.6223C111.867 28.2378 111.875 27.8572 111.883 27.4727" stroke="#262626" stroke-width="0.99" stroke-linecap="round" stroke-linejoin="round"/>
<path d="M142.267 70.2246C142.517 72.7975 142.66 75.6003 142.628 78.6013C142.605 80.8293 142.481 82.9582 142.287 84.976C142.136 86.5776 141.933 88.1119 141.703 89.5707C141.373 91.6917 140.972 93.654 140.547 95.442" stroke="#262626" stroke-width="0.99" stroke-linecap="round" stroke-linejoin="round"/>
<path d="M141.73 66.0137C141.937 67.3378 142.116 68.7412 142.259 70.2238" stroke="#262626" stroke-width="0.99" stroke-linecap="round" stroke-linejoin="round"/>
<path d="M122.797 111.743C122.928 109.678 123.091 108.627 123.293 108.596C123.293 108.596 123.296 108.594 123.301 108.592H123.305C123.5 108.604 123.718 109.512 123.977 111.319" stroke="#262626" stroke-width="0.99" stroke-linecap="round" stroke-linejoin="round"/>
<path d="M125.355 109.514C125.427 108.844 125.685 108.412 125.92 108.412H125.924C126.174 108.412 126.368 108.92 126.392 108.987" stroke="#262626" stroke-width="0.99" stroke-linecap="round" stroke-linejoin="round"/>
<path d="M127.449 114.321C127.552 114.776 127.878 115.105 128.188 115.125H128.192C128.232 115.125 128.279 115.125 128.323 115.113C128.701 115.034 129.102 114.562 129.03 113.908" stroke="#262626" stroke-width="0.99" stroke-linecap="round" stroke-linejoin="round"/>
<path d="M103.961 44.6055C103.961 44.6055 103.965 44.6094 103.969 44.6094C106.384 46.659 109.069 49.2359 111.747 52.4074C115.024 56.2924 117.411 60.0467 119.143 63.2301" stroke="#262626" stroke-width="0.99" stroke-linecap="round" stroke-linejoin="round"/>
<path d="M96.5859 46.498C98.5522 48.282 100.622 50.395 102.648 52.8807C107.724 59.1008 110.652 65.305 112.384 70.1098" stroke="#262626" stroke-width="0.99" stroke-linecap="round" stroke-linejoin="round"/>
<path d="M119.27 63.3384C120.235 62.4067 130.321 52.5315 127.754 48.5671C127.603 48.3332 127.401 48.1112 127.139 47.909C127.051 47.8456 126.956 47.7782 126.857 47.7188" stroke="#262626" stroke-width="0.99" stroke-linecap="round" stroke-linejoin="round"/>
<path d="M133.225 51.0645C133.102 50.9694 132.971 50.8782 132.824 50.7949" stroke="#262626" stroke-width="0.99" stroke-linecap="round" stroke-linejoin="round"/>
<path d="M126.211 68.9555C127.299 67.6671 137.107 55.8692 133.77 51.5995C133.623 51.4092 133.445 51.2348 133.238 51.0723" stroke="#262626" stroke-width="0.99" stroke-linecap="round" stroke-linejoin="round"/>
<path d="M142.332 84.9798C143.647 84.298 145.586 83.1007 147.445 81.1106C149.312 79.1086 150.348 77.1145 150.912 75.7785C149.788 71.386 146.416 60.9597 136.286 53.1935C135.297 52.4323 134.272 51.7267 133.236 51.0726L133.228 51.0646C131.265 49.8317 129.223 48.7851 127.138 47.909C126.077 47.461 125.009 47.0606 123.932 46.6999C118.47 44.8802 112.873 44.1627 107.797 44.3173C106.482 44.3569 105.199 44.456 103.967 44.6106C101.222 44.9516 98.704 45.5621 96.543 46.3986C95.3791 46.8505 94.3225 47.3659 93.3811 47.9407C88.6381 50.8387 84.6856 54.2123 84.6856 54.2123C81.9089 56.587 80.4352 58.2639 76.6416 61.4275C75.8193 62.1133 75.0447 62.7397 74.3377 63.2947C73.1698 64.2184 72.1807 64.9637 71.4418 65.5029C68.546 64.0123 65.6343 62.5217 62.7066 61.035C61.1455 60.2382 59.5844 59.4493 58.0272 58.6604C56.625 57.9507 55.2267 57.2451 53.8245 56.5434C52.748 55.9963 51.6675 55.4572 50.591 54.918C50.2534 54.7475 49.9157 54.5771 49.582 54.4106" stroke="#262626" stroke-width="0.99" stroke-linecap="round" stroke-linejoin="round"/>
<path d="M150.914 75.7773C151.871 82.1481 151.232 87.2701 149.452 89.3672C148.972 89.9341 148.046 91.0243 146.529 91.3018C145.333 91.5199 144.28 91.1393 143.875 90.9886C142.795 90.5843 142.099 89.942 141.758 89.5773" stroke="#262626" stroke-width="0.99" stroke-linecap="round" stroke-linejoin="round"/>
<path d="M143.759 66.4863C143.839 66.7797 144.014 67.6082 143.64 68.5637C143.255 69.5429 142.528 70.0543 142.266 70.2247H142.262" stroke="#262626" stroke-width="0.99" stroke-linecap="round" stroke-linejoin="round"/>
<path d="M100.758 135.74C100.853 133.528 101.028 131.169 101.33 128.679C101.671 125.841 102.12 123.193 102.629 120.763C104.635 120.43 106.863 120.172 109.29 120.057C113.362 119.859 116.985 120.112 120.016 120.525C119.841 122.507 119.674 124.521 119.531 126.563C119.321 129.528 119.162 132.43 119.042 135.268" stroke="#262626" stroke-width="0.99" stroke-linecap="round" stroke-linejoin="round"/>
<path d="M130.437 135.033C129.19 130.407 127.943 125.78 126.699 121.154C127.764 120.63 128.928 120.123 130.191 119.663C134.501 118.093 138.489 117.574 141.647 117.467C142.477 119.921 143.272 122.783 143.84 126.014C144.297 128.567 144.539 130.938 144.654 133.071" stroke="#262626" stroke-width="0.99" stroke-linecap="round" stroke-linejoin="round"/>
<path d="M35.2266 44.0668C35.2504 44.0351 35.3259 43.9558 35.4371 43.8528C35.735 43.5832 36.3229 43.1669 37.1095 43.1947C37.5941 43.2105 37.9595 43.3889 38.1661 43.5079" stroke="#262626" stroke-width="0.99" stroke-linecap="round" stroke-linejoin="round"/>
<path d="M27.6094 43.0801C28.1456 43.8175 28.6859 44.5588 29.2221 45.2962C29.246 45.3279 29.2658 45.3596 29.2936 45.3913" stroke="#262626" stroke-width="0.99" stroke-linecap="round" stroke-linejoin="round"/>
<path d="M35.4361 43.8529L32.9852 40.5823L24.9849 29.9142C24.4049 29.1332 23.2728 28.9746 22.4863 29.5613L20.7384 30.8696C19.9956 31.4206 19.8407 32.4395 20.377 33.1768C22.093 35.5277 23.8091 37.8825 25.5251 40.2334" stroke="#262626" stroke-width="0.99" stroke-linecap="round" stroke-linejoin="round"/>
<path d="M27.6066 43.0794L25.5529 40.2686L25.5291 40.233C24.9213 39.3568 25.1557 38.1675 26.0574 37.5729L27.555 36.5818C28.4408 35.9951 29.6524 36.1972 30.2919 37.0337L32.9812 40.5818L34.1729 42.1517L34.2841 42.2984" stroke="#262626" stroke-width="0.99" stroke-linecap="round" stroke-linejoin="round"/>
<path d="M45.9805 62.7598L47.9905 64.4407" stroke="#262626" stroke-width="0.99" stroke-linecap="round" stroke-linejoin="round"/>
<path d="M46.9453 62.2363L48.276 63.3107" stroke="#262626" stroke-width="0.99" stroke-linecap="round" stroke-linejoin="round"/>
<path d="M49.5781 57.3242L51.3498 58.4342H51.3538" stroke="#262626" stroke-width="0.99" stroke-linecap="round" stroke-linejoin="round"/>
<path d="M58.0325 58.6562L58.9303 58.0219L57.5678 56.2221L60.7536 53.9703L57.9054 50.2081L56.0225 51.5877L53.4643 48.3409L55.4108 46.9137L52.5865 43.1912L50.6559 44.6104L48.0977 41.3636L50.0958 39.8968L47.2715 36.1782L45.2932 37.6292L42.735 34.3823L44.7808 32.8838L41.9604 29.1613L39.9266 30.6519L37.3684 27.405L39.4618 25.8669L36.6454 22.1443L34.5639 23.6706L32.0018 20.4238L34.1468 18.8499L31.3305 15.1314L29.1973 16.6933L26.6391 13.4465L28.8319 11.837L25.5507 7.50391L22.3887 9.73585L20.772 7.60302L16.6566 10.5089L18.2694 12.6417L14.8572 15.0481L13.2404 12.9153L9.1211 15.8212L10.7378 17.954L7.3256 20.3643L5.70886 18.2275L1.58954 21.1334L3.21025 23.2702L0.199219 25.3912L35.0128 71.3461L37.996 69.2411L39.7518 71.5563L43.8672 68.6504L42.2425 66.5056L45.6587 64.0993L47.2794 66.24L47.8037 65.8753" stroke="#262626" stroke-width="0.99" stroke-linecap="round" stroke-linejoin="round"/>
</g>
<defs>
<clipPath id="clip0_1993_20243">
<rect width="162" height="235" fill="white"/>
</clipPath>
</defs>
</svg>
