<svg width="153" height="216" viewBox="0 0 153 216" fill="none" xmlns="http://www.w3.org/2000/svg">
<g clip-path="url(#clip0_5286_19002)">
<path d="M37.409 159.418C37.4143 159.379 37.4196 159.344 37.4196 159.304C37.4143 159.344 37.409 159.379 37.409 159.418ZM3.60362 209.544C3.55598 209.041 3.51892 208.524 3.49245 207.991C3.27012 203.543 3.89477 199.732 4.64647 196.821C3.69361 194.781 3.00544 192.099 3.63009 189.094C4.19651 186.382 5.61521 184.441 6.57337 183.362H6.57866C7.02862 178.6 7.65857 173.589 8.51614 168.36C9.5537 162.075 10.7977 156.194 12.1529 150.751H12.2005C11.5176 145.113 12.6717 140.57 15.742 138.257C16.5784 137.63 17.6901 137.062 19.2146 136.739H19.2199C22.3855 130.888 27.9968 122.623 37.5572 115.343C38.4095 114.692 39.267 114.075 40.114 113.488L40.3099 113.497C40.3681 112.278 41.0563 111.229 42.078 110.801C43.0785 110.378 44.0684 110.686 44.3543 110.791L44.3754 110.811C43.7508 111.293 43.3749 112.015 43.359 112.791C43.2373 119.225 43.1579 125.18 43.1102 130.644C43.1102 131.191 43.1049 131.729 43.1049 132.266C43.0944 133.226 43.0891 134.167 43.0838 135.092C43.0785 136.525 43.0732 137.923 43.0679 139.277C43.0679 140.745 43.0626 142.163 43.0626 143.541C43.0679 145.188 43.0679 146.77 43.0732 148.283C43.0891 151.666 43.1155 154.731 43.142 157.468C43.1473 157.771 43.1473 158.08 43.1526 158.383C43.2479 167.335 43.3643 176.386 41.4639 188.566C40.474 194.94 39.2035 200.408 38.0442 204.693C37.6842 206.046 37.3296 207.28 37.0014 208.384C36.7578 211.494 36.7367 215.231 37.2766 219.406C37.716 222.804 38.4465 225.879 39.2882 228.591C33.8993 233.248 27.3298 233.149 24.8524 230.432C22.7402 228.113 23.9048 224.212 24.1007 223.585C17.0072 220.112 10.5224 219.699 6.98098 222.426C6.00694 223.177 4.74705 224.561 4.07476 227.233C2.51842 225.6 0.464477 222.725 0.279199 218.749C0.0462774 213.778 2.87839 210.365 3.60362 209.544Z" fill="#7099ED"/>
<path d="M54.3681 143.611C54.3999 142.148 54.4317 140.68 54.4634 139.217C54.4952 137.844 54.5217 136.466 54.5534 135.092C54.5746 134.132 54.5958 133.177 54.6169 132.216C54.6275 131.679 54.6381 131.137 54.6487 130.599C54.7016 128.345 54.7493 126.096 54.7969 123.842L65.2678 115.518L66.9035 114.214C68.0893 113.274 69.7992 113.199 71.0697 114.035L79.079 119.279V156.811C70.3391 156.841 61.9857 157.125 54.0664 157.602C54.1352 154.493 54.1987 151.393 54.2676 148.288C54.2993 146.731 54.3364 145.168 54.3681 143.611Z" fill="#7099ED"/>
<path d="M67.2211 109.143L79.0789 119.279L71.0696 114.034C69.7991 113.198 68.0893 113.273 66.9035 114.214L65.2677 115.517L54.7969 123.842L55.4533 105.466C55.5009 104.058 56.1362 102.725 57.2214 101.749L62.5309 96.9727V99.1719C62.5309 102.968 64.2355 106.591 67.2211 109.143Z" fill="#7099ED"/>
<path d="M82.6658 141.461C82.56 141.426 82.4488 141.406 82.3323 141.406C81.7659 141.406 81.3107 141.839 81.3107 142.367C81.3107 142.586 81.3901 142.795 81.5277 142.959C81.5595 142.994 81.5965 143.029 81.6283 143.063C81.8083 143.228 82.0571 143.327 82.3323 143.327C82.8935 143.327 83.3487 142.899 83.3487 142.367C83.3487 141.949 83.0629 141.591 82.6658 141.461ZM79.082 156.811V119.279L87.0913 114.035C88.3618 113.199 90.0717 113.274 91.2575 114.214L92.0727 114.866L103.274 123.768L103.205 123.842C103.253 126.096 103.306 128.345 103.353 130.599C103.369 131.137 103.38 131.679 103.391 132.216C103.412 133.177 103.433 134.132 103.454 135.092C103.486 136.466 103.518 137.844 103.549 139.217C103.581 140.68 103.613 142.148 103.645 143.611C103.682 145.168 103.713 146.731 103.751 148.288C103.814 151.333 103.883 154.373 103.952 157.418C96.0747 157.005 87.7742 156.781 79.082 156.811ZM79.9502 121.568C80.0825 121.951 80.469 122.225 80.9189 122.225C81.4854 122.225 81.9406 121.797 81.9406 121.27C81.9406 120.742 81.5118 120.334 80.9719 120.309H80.9189C80.8766 120.309 80.8395 120.309 80.7972 120.309C80.4901 120.334 80.2466 120.419 80.0878 120.588C79.9555 120.737 79.892 120.941 79.9026 121.2C79.8973 121.22 79.8973 121.245 79.8973 121.265C79.8973 121.364 79.9131 121.459 79.9449 121.548C79.9449 121.548 79.9449 121.558 79.9502 121.563V121.568Z" fill="#7099ED"/>
<path d="M87.0913 114.034L79.082 119.279L90.9398 109.143C93.9255 106.591 95.63 102.968 95.63 99.1719V96.9727L100.945 101.749C102.025 102.725 102.66 104.058 102.708 105.466V105.65L103.364 123.842L103.274 123.767L92.0727 114.865L91.2575 114.214C90.0717 113.273 88.3618 113.198 87.0913 114.034Z" fill="#7099ED"/>
<path d="M120.534 159.418C120.534 159.378 120.529 159.344 120.524 159.304C120.524 159.344 120.529 159.378 120.534 159.418ZM114.886 130.644C114.838 125.056 114.759 118.951 114.632 112.343C114.621 111.731 114.282 111.159 113.732 110.835L113.652 110.79C114.849 110.427 115.616 110.671 115.923 110.8C116.881 111.188 117.596 112.179 117.871 113.492H117.887C118.74 114.074 119.592 114.691 120.444 115.343C130.004 122.623 135.616 130.887 138.787 136.739C140.343 137.072 141.46 137.659 142.259 138.256C145.404 140.61 146.558 145.242 145.711 150.731L145.848 150.75C147.204 156.194 148.453 162.075 149.485 168.36C150.343 173.589 150.973 178.6 151.423 183.356C152.381 184.441 153.799 186.382 154.366 189.093C154.991 192.099 154.302 194.781 153.35 196.821C154.107 199.731 154.726 203.543 154.504 207.991C154.477 208.524 154.44 209.041 154.392 209.544C155.118 210.365 157.95 213.778 157.717 218.749C157.532 222.724 155.478 225.6 153.927 227.232C153.254 224.56 151.989 223.177 151.015 222.426C147.474 219.699 140.989 220.112 133.895 223.585C134.096 224.212 135.256 228.113 133.144 230.432C130.666 233.148 124.097 233.248 118.708 228.596C119.549 225.879 120.28 222.804 120.719 219.405C121.259 215.231 121.238 211.494 121 208.384C120.656 207.24 120.291 205.961 119.915 204.553C118.766 200.289 117.511 194.87 116.532 188.566C114.616 176.266 114.753 167.16 114.849 158.124C114.849 157.906 114.854 157.687 114.854 157.468C114.88 154.731 114.907 151.666 114.918 148.282C114.923 146.765 114.928 145.183 114.928 143.541C114.928 142.167 114.928 140.744 114.923 139.276C114.923 137.923 114.918 136.525 114.907 135.092C114.902 134.166 114.896 133.221 114.891 132.266C114.886 131.728 114.88 131.191 114.88 130.644H114.886Z" fill="#7099ED"/>
<path d="M43.0664 143.541C44.5592 143.73 45.8297 142.63 45.8297 141.406C45.8297 140.182 44.5592 139.087 43.0717 139.276C43.0717 137.923 43.0823 136.525 43.0876 135.092H54.559C54.5272 136.465 54.5007 137.843 54.469 139.217C52.992 139.067 51.7533 140.048 51.6263 141.152C51.4886 142.371 52.7115 143.685 54.3737 143.61C54.3419 145.168 54.3049 146.73 54.2731 148.287H43.077C43.077 146.77 43.077 145.188 43.0664 143.541Z" fill="#383940"/>
<path d="M54.6509 130.599C54.6404 131.136 54.6298 131.679 54.6192 132.216C52.6499 132.032 50.4425 131.927 48.0445 131.967C46.2817 132.002 44.63 132.112 43.1055 132.266C43.1055 131.728 43.1108 131.191 43.1108 130.644C44.6353 130.489 46.2817 130.38 48.0445 130.35C50.4478 130.305 52.6552 130.41 54.6298 130.599H54.6509Z" fill="#383940"/>
<path d="M54.4665 139.216C54.4348 140.679 54.403 142.147 54.3713 143.61C52.709 143.684 51.4862 142.371 51.6238 141.152C51.7509 140.047 52.9896 139.067 54.4665 139.216Z" fill="#383940"/>
<path d="M43.0731 139.277C44.5606 139.088 45.8311 140.188 45.8311 141.407C45.8311 142.626 44.5606 143.73 43.0678 143.541H43.0625C43.0625 142.163 43.0678 140.745 43.0678 139.277H43.0731Z" fill="#383940"/>
<path d="M114.93 139.277C114.935 140.745 114.935 142.168 114.935 143.541C113.442 143.731 112.172 142.631 112.172 141.407C112.172 140.183 113.442 139.088 114.93 139.277Z" fill="#383940"/>
<path d="M106.379 141.153C106.522 142.367 105.299 143.681 103.642 143.611C103.61 142.148 103.579 140.68 103.547 139.217C105.019 139.073 106.252 140.053 106.379 141.153Z" fill="#383940"/>
<path d="M114.886 130.644C114.886 131.191 114.892 131.728 114.897 132.266C113.372 132.112 111.721 132.002 109.958 131.967C107.56 131.927 105.358 132.032 103.389 132.216C103.378 131.679 103.367 131.136 103.352 130.599H103.373C105.347 130.41 107.555 130.305 109.958 130.35C111.716 130.38 113.367 130.489 114.886 130.644Z" fill="#383940"/>
<path d="M114.935 143.541C114.935 145.183 114.93 146.765 114.925 148.282H103.75C103.713 146.73 103.681 145.168 103.644 143.61C105.301 143.68 106.523 142.366 106.381 141.152C106.253 140.053 105.02 139.072 103.548 139.217C103.517 137.843 103.485 136.465 103.453 135.092H114.914C114.925 136.525 114.93 137.923 114.93 139.276C113.442 139.087 112.172 140.187 112.172 141.406C112.172 142.625 113.442 143.73 114.935 143.541Z" fill="#383940"/>
<path d="M114.915 135.092H103.454C103.433 134.132 103.412 133.176 103.391 132.216C105.36 132.032 107.562 131.928 109.96 131.967C111.723 132.002 113.374 132.112 114.899 132.266C114.899 133.221 114.91 134.167 114.915 135.092Z" fill="#7099ED"/>
<path d="M54.2703 148.288C54.2015 151.393 54.138 154.493 54.0692 157.598C50.3318 157.822 46.6951 158.085 43.1536 158.384C43.1483 158.08 43.1483 157.772 43.143 157.468C43.1166 154.732 43.0901 151.667 43.0742 148.283H54.2703V148.288Z" fill="#7099ED"/>
<path d="M54.6169 132.216C54.5958 133.176 54.5746 134.132 54.5534 135.092H43.082C43.0873 134.167 43.0926 133.226 43.1032 132.266C44.6278 132.112 46.2794 132.002 48.0422 131.967C50.4402 131.928 52.6477 132.032 54.6169 132.216Z" fill="#7099ED"/>
<path d="M55.4542 105.467L54.7978 123.842C54.7501 126.096 54.7025 128.345 54.6496 130.599H54.6284C52.6538 130.41 50.4464 130.306 48.0431 130.35C46.2803 130.38 44.634 130.49 43.1094 130.644C43.157 125.181 43.2364 119.225 43.3582 112.791C43.3741 112.015 43.7499 111.293 44.3746 110.811C44.4804 110.726 44.5916 110.651 44.7134 110.582C48.5513 108.388 52.4686 106.596 55.4542 105.467Z" fill="#7099ED"/>
<path d="M52.9724 59.043L53.0624 60.0531C52.4748 59.9585 50.8708 59.7446 49.4151 60.2422C48.9492 59.5207 48.4675 58.6599 48.0334 57.6697C47.4141 56.2516 47.0594 54.943 46.8477 53.8633H52.5119L52.9724 59.043Z" fill="#383940"/>
<path d="M52.5117 53.8633H59.2029C58.7318 53.8633 56.5667 53.9429 54.8039 55.57C53.3428 56.9184 53.0464 58.5255 52.9723 59.043L52.5117 53.8633Z" fill="#383940"/>
<path d="M104.639 53.8633L104.178 59.053L104.041 59.043C103.967 58.5255 103.665 56.9184 102.204 55.57C100.446 53.9429 98.2811 53.8683 97.8047 53.8633H104.639Z" fill="#383940"/>
<path d="M107.635 60.1874C106.222 59.7595 104.724 59.9585 104.163 60.0531H104.094L104.178 59.053L104.639 53.8633H110.166C109.954 54.943 109.599 56.2516 108.975 57.6697C108.551 58.635 108.085 59.4759 107.635 60.1874Z" fill="#383940"/>
<path d="M118.974 49.3352V53.8631H39.1875V49.3352C41.8449 49.3352 44.0047 47.3101 44.0047 44.8073V35.1643C44.0047 20.1277 54.8091 7.47441 69.5202 3.66301V2.7226C69.5202 1.95136 70.0813 1.28959 70.8807 1.12042C72.9981 0.667624 75.6132 0.289469 78.6094 0.254639C82.0238 0.214833 84.9671 0.622843 87.2857 1.12042C88.0851 1.28959 88.6462 1.95634 88.6462 2.7226V3.83218C103.029 7.83267 113.532 20.3416 113.532 35.1643V44.8073C113.532 47.3101 115.686 49.3352 118.349 49.3352H118.974Z" fill="#7099ED"/>
<path d="M106.105 233.149L106.115 233.174C99.0587 235.209 90.2236 236.886 80.0015 236.99C68.8742 237.105 59.3033 235.313 51.7969 233.149V192.064H106.105V233.149Z" fill="#7099ED"/>
<path d="M106.105 173.345V192.064H51.7969V173.345C60.5367 172.494 70.2718 171.962 80.8379 172.031C89.9377 172.096 98.397 172.594 106.105 173.345Z" fill="#7099ED"/>
<path d="M39.2922 228.591H39.2869C38.4452 225.879 37.7147 222.804 37.2753 219.406C36.7353 215.231 36.7565 211.494 37 208.385C37.3282 207.28 37.6829 206.046 38.0429 204.693C39.2022 200.409 40.4727 194.94 41.4626 188.566C43.363 176.386 43.2465 167.335 43.1513 158.384C46.6927 158.085 50.3295 157.821 54.0668 157.602C61.9861 157.125 70.3395 156.841 79.0794 156.811C87.7716 156.781 96.072 157.005 103.949 157.418C107.681 157.612 111.318 157.851 114.854 158.125C114.759 167.161 114.621 176.266 116.537 188.566C117.517 194.871 118.771 200.289 119.92 204.553C120.296 205.961 120.661 207.24 121.005 208.385C121.243 211.494 121.265 215.231 120.725 219.406C120.285 222.804 119.555 225.879 118.713 228.591H118.708C115.6 229.979 111.35 231.671 106.114 233.174L106.104 233.149V173.346C98.3959 172.594 89.9367 172.097 80.8369 172.032C70.2707 171.962 60.5356 172.495 51.7958 173.346V233.149C46.5657 231.641 42.336 229.949 39.2922 228.591Z" fill="#7099ED"/>
<path d="M114.914 148.283H114.925C114.914 151.667 114.888 154.732 114.861 157.468C114.861 157.687 114.856 157.906 114.856 158.125C111.32 157.852 107.683 157.613 103.951 157.419C103.882 154.373 103.814 151.333 103.75 148.288H114.914V148.283Z" fill="#7099ED"/>
<path d="M103.203 123.842L103.272 123.767L103.362 123.842L102.711 105.651L103.002 105.641C104.67 106.297 106.422 107.059 108.238 107.929C110.196 108.87 111.996 109.83 113.648 110.791H113.653L113.732 110.835C114.283 111.159 114.622 111.731 114.632 112.343C114.759 118.951 114.839 125.056 114.886 130.644C113.367 130.489 111.715 130.38 109.958 130.35C107.555 130.305 105.347 130.41 103.373 130.599H103.351C103.304 128.345 103.251 126.096 103.203 123.842Z" fill="#7099ED"/>
<path d="M107.633 60.1882C108.199 60.3573 108.75 60.631 109.221 61.049C111.614 63.1885 110.507 67.9553 107.718 70.2939C106.039 71.702 104.044 71.9856 103.096 72.0602H103.027L104.091 60.0489H104.16C104.721 59.9593 106.219 59.7603 107.633 60.1882Z" fill="white"/>
<path d="M53.0624 60.0534L54.1211 72.0598C53.1789 71.9852 51.1779 71.7016 49.4998 70.2934C46.7153 67.9548 45.6036 63.1881 48.0017 61.0485C48.4251 60.6704 48.9069 60.4116 49.4151 60.2425C50.8708 59.7449 52.4748 59.9588 53.0624 60.0534Z" fill="white"/>
<path d="M95.6272 96.973V99.1723C95.6272 102.969 93.9227 106.591 90.937 109.144L79.0792 119.279L67.2214 109.144C64.2358 106.591 62.5312 102.969 62.5312 99.1723V91.8032C66.7874 95.0225 72.4251 96.973 78.5711 96.973H78.5763C85.2146 96.973 91.2653 94.6991 95.6272 90.9922V96.973Z" fill="white"/>
<path d="M95.629 90.9921C91.267 94.699 85.2164 96.9729 78.5781 96.9729H78.5728C72.4269 96.9729 66.7891 95.0225 62.533 91.8032C58.134 88.4744 55.2013 83.7923 54.6931 78.4931L54.1214 72.0595L53.0626 60.0531L52.9727 59.043C53.0468 58.5255 53.3432 56.9184 54.8043 55.57C56.5671 53.9429 58.7322 53.8683 59.2033 53.8633H97.8047C98.2811 53.8633 100.446 53.9429 102.204 55.57C103.665 56.9184 103.967 58.5255 104.041 59.043L104.178 59.053L104.094 60.0481L103.03 72.0545L102.458 78.4931C101.987 83.3793 99.4616 87.743 95.629 90.9921ZM92.0875 60.1725C93.6227 60.5108 94.602 61.307 94.9938 61.6702C94.4168 59.8043 92.7175 58.6748 91.1559 58.849C89.8113 58.9982 89.0119 60.068 88.8478 60.2919C89.3772 60.1377 90.5947 59.8491 92.0875 60.1725ZM94.3585 65.6259C94.3585 63.6406 93.051 62.0334 91.4417 62.0334C89.8324 62.0334 88.5249 63.6406 88.5249 65.6259C88.5249 67.6112 89.8272 69.2184 91.4417 69.2184C93.0563 69.2184 94.3585 67.6062 94.3585 65.6259ZM68.9172 65.6259C68.9172 63.6406 67.6096 62.0334 65.9951 62.0334C64.3805 62.0334 63.0783 63.6406 63.0783 65.6259C63.0783 67.6112 64.3858 69.2184 65.9951 69.2184C67.6043 69.2184 68.9172 67.6062 68.9172 65.6259ZM68.2766 60.2919C68.1178 60.068 67.3185 58.9982 65.9739 58.849C64.4123 58.6748 62.713 59.8043 62.136 61.6702C62.5277 61.307 63.507 60.5108 65.0422 60.1725C66.535 59.8491 67.7526 60.1377 68.2766 60.2919Z" fill="white"/>
<path d="M91.4403 69.2181C93.0512 69.2181 94.3571 67.6097 94.3571 65.6257C94.3571 63.6416 93.0512 62.0332 91.4403 62.0332C89.8293 62.0332 88.5234 63.6416 88.5234 65.6257C88.5234 67.6097 89.8293 69.2181 91.4403 69.2181Z" fill="#262626"/>
<path d="M91.1557 58.8497C92.7173 58.6755 94.4166 59.805 94.9936 61.6709C94.6019 61.3077 93.6225 60.5115 92.0874 60.1732C90.5946 59.8498 89.377 60.1384 88.8477 60.2926C89.0118 60.0687 89.8111 58.9989 91.1557 58.8497Z" fill="#262626"/>
<path d="M65.9949 62.0332C67.6095 62.0332 68.917 63.6404 68.917 65.6257C68.917 67.611 67.6095 69.2181 65.9949 69.2181C64.3804 69.2181 63.0781 67.606 63.0781 65.6257C63.0781 63.6453 64.3857 62.0332 65.9949 62.0332Z" fill="#262626"/>
<path d="M68.2774 60.2926C67.7533 60.1384 66.5358 59.8498 65.0429 60.1732C63.5078 60.5115 62.5284 61.3077 62.1367 61.6709C62.7137 59.805 64.413 58.6755 65.9746 58.8497C67.3192 58.9989 68.1186 60.0687 68.2774 60.2926Z" fill="#262626"/>
<path d="M104.638 53.8633L104.178 59.053L104.093 60.0481L103.029 72.0545L102.457 78.4931C101.986 83.3793 99.4612 87.743 95.6286 90.9921C91.2666 94.699 85.216 96.9729 78.5777 96.9729H78.5724C72.4265 96.9729 66.7887 95.0225 62.5326 91.8032C58.1336 88.4744 55.2009 83.7923 54.6927 78.4931L54.121 72.0595L53.0623 60.0531L52.9723 59.043L52.5117 53.8633" stroke="#262626" stroke-miterlimit="10" stroke-linecap="round"/>
<path d="M110.165 53.8631H118.974V49.3352H118.349C115.686 49.3352 113.532 47.3101 113.532 44.8073V35.1643C113.532 20.3416 103.029 7.83267 88.6462 3.83218V2.7226C88.6462 1.95634 88.0851 1.28959 87.2857 1.12042C84.9671 0.622843 82.0238 0.214833 78.6094 0.254639C75.6132 0.289469 72.9981 0.667624 70.8807 1.12042C70.0813 1.28959 69.5202 1.95136 69.5202 2.7226V3.66301C54.8091 7.47441 44.0047 20.1277 44.0047 35.1643V44.8073C44.0047 47.3101 41.8449 49.3352 39.1875 49.3352V53.8631H110.165Z" stroke="#262626" stroke-miterlimit="10" stroke-linecap="round"/>
<path d="M88.5234 7.10547V27.3169C88.5234 39.3482 98.899 49.1006 111.699 49.1006" stroke="#262626" stroke-miterlimit="10" stroke-linecap="round"/>
<path d="M69.6483 7.10547V27.3169C69.6483 39.3482 59.2727 49.1006 46.4727 49.1006" stroke="white" stroke-miterlimit="10" stroke-linecap="round"/>
<path d="M53.0624 60.0534C52.4748 59.9588 50.8708 59.7449 49.4151 60.2425C48.9069 60.4116 48.4251 60.6704 48.0017 61.0485C45.6036 63.1881 46.7153 67.9548 49.4998 70.2934C51.1779 71.7016 53.1789 71.9852 54.1211 72.0598" stroke="#262626" stroke-miterlimit="10" stroke-linecap="round"/>
<path d="M104.162 60.0533C104.723 59.9588 106.221 59.7597 107.634 60.1876C108.201 60.3568 108.751 60.6305 109.222 61.0485C111.615 63.188 110.509 67.9548 107.719 70.2933C106.041 71.7015 104.045 71.9851 103.098 72.0597" stroke="#262626" stroke-miterlimit="10" stroke-linecap="round"/>
<path d="M77.2109 78.7616C77.9785 78.8113 78.9049 78.8064 79.9372 78.6621C82.0917 78.3635 83.7327 77.5873 84.7544 76.9902" stroke="#262626" stroke-miterlimit="10" stroke-linecap="round"/>
<path d="M46.8477 53.8633C47.0594 54.943 47.4141 56.2516 48.0334 57.6697C48.4675 58.6599 48.9492 59.5207 49.4151 60.2422" stroke="#262626" stroke-miterlimit="10" stroke-linecap="round"/>
<path d="M52.9727 59.043C53.0468 58.5255 53.3432 56.9184 54.8043 55.57C56.5671 53.9429 58.7322 53.8683 59.2033 53.8633" stroke="#262626" stroke-miterlimit="10" stroke-linecap="round"/>
<path d="M110.165 53.8633C109.953 54.943 109.599 56.2516 108.974 57.6697C108.551 58.635 108.085 59.4759 107.635 60.1874C107.619 60.2073 107.608 60.2223 107.598 60.2422" stroke="#262626" stroke-miterlimit="10" stroke-linecap="round"/>
<path d="M104.041 59.043C103.967 58.5255 103.665 56.9184 102.204 55.57C100.446 53.9429 98.2811 53.8683 97.8047 53.8633" stroke="#262626" stroke-miterlimit="10" stroke-linecap="round"/>
<path d="M62.5312 91.654V99.1723C62.5312 102.969 64.2358 106.591 67.2214 109.144L79.0792 119.279L90.9371 109.144C93.9227 106.591 95.6272 102.969 95.6272 99.1723V90.9922" stroke="#262626" stroke-miterlimit="10" stroke-linecap="round"/>
<path d="M62.5309 96.9727L57.2214 101.749C56.1362 102.725 55.5009 104.058 55.4533 105.466L54.7969 123.842L65.2677 115.517L66.9035 114.214C68.0893 113.273 69.7991 113.198 71.0696 114.034L79.0789 119.279" stroke="#262626" stroke-miterlimit="10" stroke-linecap="round"/>
<path d="M95.63 96.9727L100.945 101.749C102.025 102.725 102.66 104.058 102.708 105.466V105.65L103.364 123.842L103.274 123.767L92.0727 114.865L91.2575 114.214C90.0717 113.273 88.3618 113.198 87.0913 114.034L79.082 119.279V156.811" stroke="#262626" stroke-miterlimit="10" stroke-linecap="round"/>
<path d="M54.7969 123.842C54.7493 126.096 54.7016 128.345 54.6487 130.599C54.6381 131.136 54.6275 131.679 54.6169 132.216C54.5958 133.176 54.5746 134.132 54.5534 135.092C54.5217 136.465 54.4952 137.843 54.4634 139.217C54.4317 140.68 54.3999 142.147 54.3681 143.61C54.3364 145.168 54.2993 146.73 54.2676 148.288C54.1987 151.392 54.1352 154.492 54.0664 157.597" stroke="#262626" stroke-miterlimit="10" stroke-linecap="round"/>
<path d="M19.2156 136.738C18.7075 137.679 18.2628 138.554 17.8711 139.356C17.4581 140.167 16.86 141.61 16.8441 143.475C16.8335 144.709 17.077 145.729 17.3152 146.441" stroke="#262626" stroke-miterlimit="10" stroke-linecap="round"/>
<path d="M40.1128 113.486C39.2659 114.073 38.4083 114.69 37.556 115.342C27.9956 122.622 22.3844 130.886 19.2188 136.738" stroke="#262626" stroke-miterlimit="10" stroke-linecap="round"/>
<path d="M55.4537 105.467C52.4681 106.596 48.5508 108.388 44.7129 110.582C44.5911 110.651 44.48 110.726 44.3741 110.811C43.7494 111.293 43.3736 112.015 43.3577 112.791C43.236 119.225 43.1566 125.181 43.1089 130.644C43.1089 131.191 43.1036 131.729 43.1036 132.266C43.093 133.226 43.0877 134.167 43.0824 135.092C43.0771 136.525 43.0719 137.923 43.0666 139.277C43.0666 140.745 43.0613 142.163 43.0613 143.541C43.0666 145.188 43.0666 146.77 43.0719 148.283C43.0877 151.666 43.1142 154.731 43.1407 157.468C43.146 157.772 43.146 158.08 43.1513 158.384C43.2465 167.335 43.363 176.386 41.4626 188.566C40.4727 194.94 39.2022 200.409 38.0429 204.693C37.6829 206.046 37.3282 207.28 37 208.385C36.7565 211.494 36.7353 215.231 37.2753 219.406C37.7147 222.804 38.4452 225.879 39.2869 228.591" stroke="#262626" stroke-miterlimit="10" stroke-linecap="round"/>
<path d="M19.221 136.738H19.2157C17.6911 137.062 16.5795 137.629 15.7431 138.256C12.6727 140.57 11.5187 145.112 12.2016 150.745C12.6198 154.188 13.7209 158.034 15.4837 162.025" stroke="#262626" stroke-miterlimit="10" stroke-linecap="round"/>
<path d="M6.57332 183.361C6.40921 185.133 6.26629 186.864 6.14453 188.566" stroke="#262626" stroke-miterlimit="10" stroke-linecap="round"/>
<path d="M12.1524 150.75C10.7972 156.193 9.55316 162.075 8.51561 168.359C7.65803 173.589 7.02809 178.599 6.57812 183.356" stroke="#262626" stroke-miterlimit="10" stroke-linecap="round"/>
<path d="M6.57872 183.355H6.57343C5.61528 184.44 4.19658 186.381 3.63015 189.092C3.0055 192.098 3.69368 194.78 4.64654 196.82C5.64704 198.969 6.9334 200.407 7.26161 200.77" stroke="#262626" stroke-miterlimit="10" stroke-linecap="round"/>
<path d="M11.8686 203.264C10.7887 200.612 10.5558 199.084 11.1698 198.671C11.9904 198.124 14.3196 199.567 18.1522 203" stroke="#262626" stroke-miterlimit="10" stroke-linecap="round"/>
<path d="M4.64488 196.82C3.89318 199.731 3.26853 203.543 3.49087 207.991C3.51733 208.523 3.55439 209.041 3.60203 209.543C3.73437 210.966 3.94083 212.29 4.18963 213.499" stroke="#262626" stroke-miterlimit="10" stroke-linecap="round"/>
<path d="M3.60362 209.543C2.87839 210.364 0.0462774 213.777 0.279199 218.748C0.464477 222.724 2.51842 225.6 4.07476 227.232C4.84234 228.048 5.49346 228.55 5.72638 228.724" stroke="#262626" stroke-miterlimit="10" stroke-linecap="round"/>
<path d="M37.4213 159.298C37.4107 158.408 34.8644 157.388 31.2383 157.074" stroke="#262626" stroke-miterlimit="10" stroke-linecap="round"/>
<path d="M31.418 161.661C34.7847 161.268 37.2092 160.283 37.4104 159.417C37.4157 159.377 37.421 159.343 37.421 159.303" stroke="#262626" stroke-miterlimit="10" stroke-linecap="round"/>
<path d="M22.7578 200.507C24.0812 200.89 25.7858 201.244 27.7868 201.298C32.1117 201.413 35.4732 200.094 37.2572 199.229" stroke="#262626" stroke-miterlimit="10" stroke-linecap="round"/>
<path d="M44.3529 110.791C44.0671 110.686 43.0772 110.378 42.0767 110.801C41.055 111.229 40.3668 112.278 40.3086 113.497C40.298 113.736 40.3086 113.98 40.3456 114.229" stroke="#262626" stroke-miterlimit="10" stroke-linecap="round"/>
<path d="M67.9922 127.678C74.4399 124.26 77.5102 122.225 77.2085 121.578C76.9491 121.021 74.2281 121.484 69.0403 122.956" stroke="#262626" stroke-miterlimit="10" stroke-linecap="round"/>
<path d="M79.9492 121.568C80.2351 122.922 81.8443 125.245 84.2741 127.878" stroke="#262626" stroke-miterlimit="10" stroke-linecap="round"/>
<path d="M80.7942 120.314C80.4872 120.339 80.2437 120.424 80.0848 120.593C79.9525 120.742 79.889 120.946 79.8996 121.205C79.8996 121.31 79.9102 121.429 79.9419 121.553" stroke="#262626" stroke-miterlimit="10" stroke-linecap="round"/>
<path d="M86.7865 122.364C86.2148 122.07 82.7527 120.309 80.9688 120.309" stroke="#262626" stroke-miterlimit="10" stroke-linecap="round"/>
<path d="M43.0898 135.092H54.4606" stroke="#262626" stroke-miterlimit="10" stroke-linecap="round"/>
<path d="M43.0898 148.283H54.1218" stroke="#262626" stroke-miterlimit="10" stroke-linecap="round"/>
<path d="M54.4877 139.216H54.4665C52.9896 139.067 51.7509 140.047 51.6238 141.152C51.4862 142.371 52.709 143.684 54.3713 143.61H54.3977" stroke="white" stroke-miterlimit="10" stroke-linecap="round"/>
<path d="M43.0717 139.277C44.5592 139.088 45.8297 140.188 45.8297 141.407C45.8297 142.626 44.5592 143.73 43.0664 143.541" stroke="white" stroke-miterlimit="10" stroke-linecap="round"/>
<path d="M43.1055 132.266C44.63 132.112 46.2817 132.002 48.0445 131.967C50.4425 131.928 52.6499 132.032 54.6192 132.216H54.6298" stroke="#262626" stroke-miterlimit="10" stroke-linecap="round"/>
<path d="M43.1055 130.644H43.1108C44.6353 130.489 46.2817 130.38 48.0445 130.35C50.4478 130.305 52.6552 130.41 54.6298 130.599" stroke="white" stroke-miterlimit="10" stroke-linecap="round"/>
<path d="M103.203 123.842C103.251 126.096 103.304 128.345 103.351 130.599C103.367 131.136 103.378 131.679 103.388 132.216C103.41 133.176 103.431 134.132 103.452 135.092C103.484 136.465 103.515 137.843 103.547 139.217C103.579 140.68 103.611 142.147 103.642 143.61C103.68 145.168 103.711 146.73 103.748 148.288C103.812 151.333 103.881 154.373 103.95 157.418" stroke="#262626" stroke-miterlimit="10" stroke-linecap="round"/>
<path d="M117.887 113.486C118.739 114.073 119.591 114.69 120.444 115.342C130.004 122.622 135.615 130.886 138.786 136.738C139.294 137.678 139.739 138.554 140.131 139.355C140.544 140.166 141.142 141.609 141.158 143.475C141.174 144.709 140.925 145.729 140.687 146.441" stroke="#262626" stroke-miterlimit="10" stroke-linecap="round"/>
<path d="M113.652 110.791L113.732 110.836C114.282 111.159 114.621 111.731 114.632 112.343C114.759 118.951 114.838 125.056 114.886 130.644C114.886 131.191 114.891 131.729 114.896 132.266C114.896 133.222 114.907 134.167 114.912 135.092C114.923 136.525 114.928 137.924 114.928 139.277C114.933 140.745 114.933 142.168 114.933 143.541C114.933 145.183 114.928 146.766 114.923 148.283C114.912 151.667 114.886 154.732 114.859 157.468C114.859 157.687 114.854 157.906 114.854 158.125C114.759 167.161 114.621 176.267 116.537 188.567C117.517 194.871 118.771 200.289 119.92 204.554C120.296 205.962 120.661 207.24 121.005 208.385C121.243 211.495 121.265 215.231 120.725 219.406C120.285 222.805 119.555 225.88 118.713 228.591" stroke="#262626" stroke-miterlimit="10" stroke-linecap="round"/>
<path d="M103.004 105.641C104.671 106.297 106.424 107.059 108.239 107.929C110.198 108.87 111.998 109.83 113.649 110.791" stroke="#262626" stroke-miterlimit="10" stroke-linecap="round"/>
<path d="M138.789 136.738C140.345 137.072 141.462 137.659 142.262 138.256C145.406 140.609 146.56 145.242 145.713 150.73C145.396 152.81 144.781 155.009 143.887 157.253" stroke="#262626" stroke-miterlimit="10" stroke-linecap="round"/>
<path d="M151.43 183.361C151.594 185.133 151.737 186.864 151.858 188.566" stroke="#262626" stroke-miterlimit="10" stroke-linecap="round"/>
<path d="M145.852 150.75C147.207 156.193 148.456 162.075 149.488 168.359C150.346 173.589 150.976 178.599 151.426 183.356" stroke="#262626" stroke-miterlimit="10" stroke-linecap="round"/>
<path d="M151.423 183.355C152.381 184.44 153.799 186.381 154.366 189.092C154.99 192.098 154.302 194.78 153.349 196.82C152.349 198.969 151.063 200.407 150.734 200.77" stroke="#262626" stroke-miterlimit="10" stroke-linecap="round"/>
<path d="M146.135 203.264C147.215 200.612 147.448 199.084 146.834 198.671C146.013 198.124 143.684 199.567 139.852 203" stroke="#262626" stroke-miterlimit="10" stroke-linecap="round"/>
<path d="M153.355 196.82C154.112 199.731 154.732 203.543 154.509 207.991C154.483 208.523 154.446 209.041 154.398 209.543C154.266 210.966 154.06 212.29 153.811 213.499" stroke="#262626" stroke-miterlimit="10" stroke-linecap="round"/>
<path d="M154.4 209.543C155.125 210.364 157.957 213.777 157.725 218.748C157.539 222.724 155.485 225.6 153.934 227.232C153.161 228.048 152.516 228.55 152.277 228.724" stroke="#262626" stroke-miterlimit="10" stroke-linecap="round"/>
<path d="M113.648 110.79H113.654C114.85 110.427 115.618 110.671 115.925 110.8C116.883 111.188 117.598 112.179 117.873 113.492C118.085 114.467 118.053 115.627 117.703 116.851" stroke="#262626" stroke-miterlimit="10" stroke-linecap="round"/>
<path d="M114.914 135.092H103.543" stroke="#262626" stroke-miterlimit="10" stroke-linecap="round"/>
<path d="M114.915 148.283H103.883" stroke="#262626" stroke-miterlimit="10" stroke-linecap="round"/>
<path d="M103.516 139.217H103.547C105.019 139.073 106.252 140.053 106.379 141.153C106.522 142.367 105.3 143.681 103.643 143.611H103.606" stroke="white" stroke-miterlimit="10" stroke-linecap="round"/>
<path d="M114.93 139.277C113.442 139.088 112.172 140.188 112.172 141.407C112.172 142.626 113.442 143.73 114.935 143.541" stroke="white" stroke-miterlimit="10" stroke-linecap="round"/>
<path d="M114.899 132.266C113.375 132.112 111.723 132.002 109.96 131.967C107.562 131.928 105.36 132.032 103.391 132.216H103.375" stroke="#262626" stroke-miterlimit="10" stroke-linecap="round"/>
<path d="M114.899 130.644H114.889C113.369 130.489 111.718 130.38 109.96 130.35C107.557 130.305 105.35 130.41 103.375 130.599" stroke="white" stroke-miterlimit="10" stroke-linecap="round"/>
<path d="M43.1523 158.384C46.6938 158.085 50.3306 157.821 54.0679 157.602C61.9872 157.125 70.3406 156.841 79.0804 156.811C87.7726 156.781 96.0731 157.005 103.95 157.418C107.682 157.612 111.319 157.851 114.855 158.125" stroke="#262626" stroke-miterlimit="10" stroke-linecap="round"/>
<path d="M80.9692 120.309C81.5091 120.333 81.9379 120.751 81.9379 121.269C81.9379 121.786 81.4826 122.224 80.9162 122.224C80.4663 122.224 80.0798 121.951 79.9475 121.567C79.9422 121.562 79.9422 121.558 79.9422 121.553C79.9104 121.463 79.8945 121.368 79.8945 121.269C79.8945 121.249 79.8945 121.224 79.8998 121.204C79.9316 120.741 80.3127 120.368 80.7945 120.314C80.8368 120.314 80.8739 120.314 80.9162 120.314H80.9692V120.309Z" stroke="#262626" stroke-miterlimit="10" stroke-linecap="round"/>
<path d="M81.5256 142.959C81.388 142.794 81.3086 142.585 81.3086 142.367C81.3086 141.839 81.7638 141.406 82.3303 141.406C82.4467 141.406 82.5579 141.426 82.6638 141.461C83.0608 141.59 83.3466 141.949 83.3466 142.367C83.3466 142.899 82.8914 143.327 82.3303 143.327C82.055 143.327 81.8062 143.227 81.6262 143.063" stroke="#262626" stroke-miterlimit="10" stroke-linecap="round"/>
<path d="M87.61 142.341C87.0542 142.107 86.3501 141.858 85.5137 141.684C84.3914 141.45 83.4068 141.425 82.6657 141.46H82.6445" stroke="#262626" stroke-miterlimit="10" stroke-linecap="round"/>
<path d="M83.0043 144.77C82.8931 144.611 82.7767 144.447 82.6549 144.278C82.3161 143.825 81.972 143.422 81.6279 143.063C81.5962 143.029 81.5591 142.994 81.5273 142.959" stroke="#262626" stroke-miterlimit="10" stroke-linecap="round"/>
<path d="M51.7969 233.148V173.345C60.5367 172.494 70.2718 171.962 80.8379 172.031C89.9377 172.096 98.397 172.594 106.105 173.345V233.148" stroke="#262626" stroke-miterlimit="10" stroke-linecap="round"/>
<path d="M51.7969 192.064H106.105" stroke="#262626" stroke-miterlimit="10" stroke-linecap="round"/>
<path d="M127.995 206.414C127.302 206.329 126.381 206.29 125.322 206.464C123.194 206.812 121.717 207.817 121.008 208.384" stroke="#262626" stroke-miterlimit="10"/>
<path d="M33.8555 206.807C34.2472 206.822 35.0677 206.896 35.8988 207.399C36.4441 207.727 36.7935 208.115 36.9999 208.384" stroke="#262626" stroke-miterlimit="10"/>
<path d="M22.4451 159.124C21.5028 158.263 20.1635 156.924 18.8348 155.088C17.2149 152.849 16.712 151.387 16.2144 151.496C15.5633 151.64 15.521 154.372 16.1086 156.661C16.4421 157.94 16.9291 158.945 17.3155 159.616" stroke="#262626" stroke-miterlimit="10"/>
<path d="M71.7649 119.737C70.9655 119.583 69.8644 119.274 68.6892 118.622C66.8629 117.612 65.7989 116.289 65.2695 115.518" stroke="#262626" stroke-miterlimit="10" stroke-linecap="round"/>
<path d="M87.1914 117.771C87.6467 117.701 88.1707 117.582 88.7266 117.378C90.4946 116.716 91.5587 115.537 92.0722 114.865" stroke="#262626" stroke-miterlimit="10" stroke-linecap="round"/>
<path d="M126.073 133.191C125.914 134.898 125.56 136.963 124.818 139.227C123.633 142.839 121.902 145.606 120.488 147.492" stroke="#262626" stroke-miterlimit="10" stroke-linecap="round"/>
<path d="M37.4182 159.299C37.4129 159.344 37.4076 159.378 37.4076 159.418C36.7406 165.419 36.3118 172.012 36.3012 179.117C36.2801 188.551 36.9947 197.134 38.0429 204.692" stroke="#262626" stroke-miterlimit="10" stroke-linecap="round"/>
<path d="M39.2351 153.86C38.9493 156.955 38.3934 158.577 37.557 158.711C36.1965 158.935 34.1003 155.218 31.2734 147.561" stroke="#262626" stroke-miterlimit="10" stroke-linecap="round"/>
<path d="M120.523 159.298C120.534 158.408 123.08 157.388 126.706 157.074" stroke="#262626" stroke-miterlimit="10" stroke-linecap="round"/>
<path d="M126.526 161.661C123.154 161.268 120.735 160.283 120.534 159.417C120.529 159.377 120.523 159.343 120.523 159.303" stroke="#262626" stroke-miterlimit="10" stroke-linecap="round"/>
<path d="M120.523 159.299C120.528 159.344 120.534 159.378 120.534 159.418C121.201 165.419 121.629 172.012 121.64 179.117C121.661 188.491 120.957 197.03 119.92 204.553C119.909 204.598 119.904 204.648 119.898 204.692" stroke="#262626" stroke-miterlimit="10" stroke-linecap="round"/>
<path d="M116.629 156.168C118.011 158.223 119.466 159.377 120.35 159.074C121.113 158.81 121.282 157.512 121.425 156.362C121.589 155.098 121.647 153.043 120.769 150.461" stroke="#262626" stroke-miterlimit="10" stroke-linecap="round"/>
</g>
<defs>
<clipPath id="clip0_5286_19002">
<rect width="158" height="248" fill="white"/>
</clipPath>
</defs>
</svg>
