<svg width="190" height="40" viewBox="0 0 190 40" fill="none" xmlns="http://www.w3.org/2000/svg">
<g clip-path="url(#clip0_6087_18374)">
<path d="M169.428 0H19.9938C8.95153 0 0 8.95153 0 19.9938V20.0062C0 31.0485 8.95153 40 19.9938 40H169.428C180.47 40 189.422 31.0485 189.422 20.0062V19.9938C189.422 8.95153 180.47 0 169.428 0Z" fill="#383940"/>
<path d="M160.606 24.2119C160.754 24.249 160.89 24.2737 161.014 24.2861C161.15 24.2985 161.336 24.3109 161.571 24.3109C161.88 24.3109 162.152 24.2366 162.388 24.0882C162.635 23.9397 162.92 23.6304 163.266 23.1726L163.117 23.5314L158.527 16.6895H161.002L163.996 21.3167C164.095 21.4776 164.169 21.5889 164.194 21.6508C164.231 21.7127 164.293 21.8116 164.367 21.9477H164.404C164.466 21.8116 164.528 21.7127 164.565 21.6508C164.615 21.5766 164.676 21.4652 164.763 21.3167L167.547 16.7018H169.86L165.481 23.5933C164.936 24.4346 164.392 25.1027 163.86 25.61C163.328 26.1172 162.598 26.3647 161.658 26.3647C161.41 26.3647 161.2 26.3523 161.014 26.3152C160.841 26.2904 160.693 26.241 160.581 26.2038V24.2366L160.606 24.2119Z" fill="#FFB31D"/>
<path d="M148.867 26.1674V16.6777H154.88C156.08 16.6777 156.959 16.9747 157.54 17.5685C158.122 18.1624 158.406 18.9914 158.406 20.0801C158.406 21.0947 158.122 21.9113 157.553 22.5423C156.983 23.1609 156.08 23.4702 154.843 23.4702H151.168V26.155H148.867V26.1674ZM151.168 21.9236H154.274C154.954 21.9236 155.425 21.7628 155.697 21.4411C155.969 21.1194 156.105 20.6864 156.105 20.1296C156.105 19.5729 155.969 19.1275 155.684 18.8182C155.412 18.5089 154.942 18.3604 154.262 18.3604H151.156V21.9113L151.168 21.9236Z" fill="#FFB31D"/>
<path d="M144.324 25.0654C144.324 24.7313 144.436 24.4591 144.658 24.2364C144.881 24.0137 145.203 23.9023 145.623 23.9023C146.044 23.9023 146.366 24.0137 146.588 24.2364C146.811 24.4591 146.922 24.7437 146.922 25.0777C146.922 25.4118 146.811 25.684 146.588 25.9067C146.366 26.1294 146.044 26.2407 145.636 26.2407C145.227 26.2407 144.893 26.1294 144.671 25.8943C144.448 25.6592 144.337 25.387 144.337 25.053L144.324 25.0654Z" fill="white"/>
<path d="M142.384 26.1667H140.083V20.0919C140.083 19.9558 140.083 19.8568 140.083 19.7826C140.083 19.7083 140.083 19.6341 140.083 19.5722H140.058C140.058 19.5722 139.984 19.7083 139.922 19.7826C139.873 19.8568 139.786 19.9558 139.675 20.0671L135.134 26.1667H132.449V16.6771H134.75V23.1602H134.775C134.812 23.0736 134.849 23.0118 134.899 22.9623C134.948 22.9128 135.035 22.8385 135.134 22.7148L139.687 16.6647H142.372V26.1543L142.384 26.1667ZM137.411 14.6727C137.72 14.6727 137.992 14.5861 138.227 14.4129C138.462 14.2397 138.648 13.9799 138.784 13.6211L140.182 14.1655C139.922 14.8336 139.563 15.3161 139.093 15.6131C138.623 15.91 138.066 16.0585 137.423 16.0585C136.78 16.0585 136.21 15.91 135.74 15.6131C135.27 15.3161 134.899 14.8336 134.652 14.1779L136.05 13.6335C136.186 13.9799 136.371 14.2397 136.606 14.4129C136.841 14.5861 137.126 14.6727 137.435 14.6727H137.411Z" fill="white"/>
<path d="M118.504 21.404V21.3174C118.504 19.7461 119.098 18.546 120.286 17.7294C121.473 16.9005 122.946 16.4922 124.69 16.4922C126.435 16.4922 127.907 16.9005 129.107 17.7294C130.307 18.546 130.901 19.7461 130.901 21.3174V21.404C130.901 23.0372 130.307 24.2744 129.107 25.1158C127.907 25.9447 126.435 26.3654 124.69 26.3654C122.946 26.3654 121.473 25.9447 120.286 25.1158C119.098 24.2868 118.504 23.0496 118.504 21.404ZM121.263 23.0619C121.721 24.0394 122.389 24.6456 123.267 24.8559C124.146 25.0663 125.098 24.9302 126.113 24.4724C127.127 24.0022 127.833 23.3712 128.229 22.5423C128.625 21.7257 128.6 20.8225 128.142 19.8451L128.08 19.709C127.635 18.7687 126.991 18.1996 126.125 18.014C125.259 17.8284 124.319 17.9645 123.292 18.4223C122.265 18.8924 121.548 19.5234 121.152 20.3276C120.756 21.1195 120.768 21.9855 121.213 22.9258L121.275 23.0496L121.263 23.0619Z" fill="white"/>
<path d="M108.332 26.1674V16.6777H114.345C115.545 16.6777 116.424 16.9747 117.005 17.5685C117.587 18.1624 117.871 18.9914 117.871 20.0801C117.871 21.0947 117.587 21.9113 117.017 22.5423C116.448 23.1609 115.545 23.4702 114.308 23.4702H110.633V26.155H108.332V26.1674ZM110.633 21.9236H113.739C114.419 21.9236 114.889 21.7628 115.162 21.4411C115.434 21.1194 115.57 20.6864 115.57 20.1296C115.57 19.5729 115.434 19.1275 115.149 18.8182C114.877 18.5089 114.407 18.3604 113.726 18.3604H110.621V21.9113L110.633 21.9236Z" fill="white"/>
<path d="M96.9023 18.5082V16.6895H107.011V18.5082H103.126V26.1667H100.8V18.5082H96.9147H96.9023Z" fill="white"/>
<path d="M84.6523 21.4906V21.3545C84.6523 19.7461 85.2215 18.5336 86.3474 17.7171C87.4856 16.9005 88.9579 16.4922 90.7891 16.4922C92.6202 16.4922 93.9317 16.7891 94.8472 17.3954C95.7628 18.0016 96.3195 18.8924 96.5051 20.0926L96.5422 20.3276H94.241L94.2038 20.142C94.0677 19.4987 93.7461 19.0038 93.2388 18.6326C92.7315 18.2738 91.9397 18.0882 90.8633 18.0882C89.6879 18.0882 88.76 18.3604 88.1042 18.9172C87.4485 19.4616 87.1145 20.2658 87.1145 21.3298V21.4906C87.1145 22.5547 87.4485 23.3712 88.129 23.9404C88.7971 24.4971 89.7127 24.7817 90.8633 24.7817C91.9397 24.7817 92.7439 24.6085 93.2635 24.2744C93.7832 23.9404 94.1049 23.4331 94.2162 22.7526L94.2533 22.5423H96.5422L96.5175 22.7897C96.369 23.9651 95.8494 24.8559 94.9462 25.4498C94.043 26.0437 92.6697 26.353 90.8138 26.353C88.9579 26.353 87.4485 25.9323 86.335 25.1034C85.2215 24.2744 84.6647 23.0619 84.6647 21.4783L84.6523 21.4906Z" fill="white"/>
<path d="M71.5273 21.404V21.3174C71.5273 19.7461 72.1212 18.546 73.309 17.7294C74.4967 16.9005 75.969 16.4922 77.7135 16.4922C79.4581 16.4922 80.9304 16.9005 82.1305 17.7294C83.3306 18.546 83.9245 19.7461 83.9245 21.3174V21.404C83.9245 23.0372 83.3306 24.2744 82.1305 25.1158C80.9304 25.9447 79.4581 26.3654 77.7135 26.3654C75.969 26.3654 74.4967 25.9447 73.309 25.1158C72.1212 24.2868 71.5273 23.0496 71.5273 21.404ZM74.2988 23.0867C74.7689 24.0641 75.437 24.658 76.3155 24.8683C77.1939 25.0663 78.1466 24.9302 79.1611 24.46C80.1633 23.9899 80.8685 23.3465 81.2644 22.5176C81.6603 21.701 81.6232 20.7978 81.1531 19.8204L81.0912 19.6843C80.6458 18.744 79.9901 18.1872 79.124 18.0016C78.2579 17.816 77.3176 17.9645 76.3031 18.4347C75.2762 18.9172 74.571 19.5482 74.175 20.3524C73.7791 21.1442 73.8039 22.0103 74.2493 22.9382L74.3111 23.0619L74.2988 23.0867Z" fill="white"/>
<path d="M60.2422 26.1674V16.6777H69.9422V26.1674H67.6409V18.5212H62.5435V26.1674H60.2422Z" fill="white"/>
<path d="M37.772 25.5742H36.1141V26.4898C36.1141 27.2445 35.5079 27.8507 34.7531 27.8507C33.9984 27.8507 33.3922 27.2445 33.3922 26.4898V25.5742H28.9134V26.4898C28.9134 27.2445 28.3071 27.8507 27.5524 27.8507C26.7977 27.8507 26.1914 27.2445 26.1914 26.4898V25.5742H24.5335C23.4448 25.5742 22.6405 26.6259 22.9622 27.6652C23.853 30.5727 26.5502 32.676 29.7547 32.676H32.5385C35.7306 32.676 38.4401 30.5603 39.3309 27.6652C39.6526 26.6259 38.8484 25.5742 37.7596 25.5742H37.772Z" fill="white"/>
<path d="M41.9429 21.0452C41.3738 21.0452 40.916 20.5874 40.916 20.0183V17.383C40.916 14.9456 39.8891 12.6444 38.0456 10.9246C37.7981 10.7019 37.5383 10.4792 37.2661 10.2812C36.796 9.9348 36.1279 10.2565 36.1279 10.838V17.284C36.1279 17.8531 35.6701 18.2985 35.1133 18.2985C34.5566 18.2985 34.0988 17.8531 34.0988 17.284V8.46248C34.0988 8.01707 33.7771 7.62116 33.3441 7.53455C32.676 7.39845 31.9707 7.32422 31.2655 7.32422C30.5108 7.32422 29.7684 7.39845 29.0632 7.55929C28.6549 7.6459 28.3085 8.06656 28.3085 8.48723V17.3088C28.3085 17.8779 27.8507 18.3233 27.294 18.3233C26.7372 18.3233 26.2794 17.8779 26.2794 17.3088V10.9493C26.2794 10.3555 25.5989 10.0338 25.1288 10.4049C24.8195 10.64 24.5225 10.9122 24.238 11.1844C22.543 12.8671 21.615 15.0817 21.615 17.3954V20.0307C21.615 20.5998 21.1572 21.0576 20.5881 21.0576H20.2169C19.8334 21.0576 19.5117 21.3669 19.5117 21.7628V22.6784C19.5117 23.0619 19.821 23.3836 20.2169 23.3836H42.2893C42.6729 23.3836 42.9946 23.0743 42.9946 22.6784V21.7628C42.9946 21.3793 42.6852 21.0576 42.2893 21.0576H41.9182L41.9429 21.0452Z" fill="#FFB31D"/>
</g>
<defs>
<clipPath id="clip0_6087_18374">
<rect width="189.422" height="40" fill="white"/>
</clipPath>
</defs>
</svg>
