<svg width="384" height="240" viewBox="0 0 384 240" fill="none" xmlns="http://www.w3.org/2000/svg">
<g id="Property 1=Default">
<g clip-path="url(#clip0_1097_25796)">
<rect width="384" height="240" rx="32" fill="white"/>
<g id="_&#208;&#160;&#194;&#187;&#208;&#160;&#209;&#149;&#208;&#160;&#226;&#132;&#150;_1" clip-path="url(#clip1_1097_25796)">
<g id="Group">
<path id="Vector" d="M192.052 143.828H192.045V131.639H192.052C192.521 131.639 192.902 131.258 192.902 130.789C192.902 130.32 192.521 129.939 192.052 129.939H192.045V123.521H162.962V129.932H162.955C162.486 129.932 162.105 130.313 162.105 130.782C162.105 131.251 162.486 131.632 162.955 131.632H162.962V143.821H162.955C162.486 143.821 162.105 144.202 162.105 144.671C162.105 145.14 162.486 145.521 162.955 145.521H162.962V150.986H192.045V145.521H192.052C192.521 145.521 192.902 145.14 192.902 144.671C192.902 144.202 192.521 143.821 192.052 143.821V143.828Z" fill="#FF8B63" stroke="#262626" stroke-miterlimit="10"/>
<path id="Vector_2" d="M190.197 131.639H186.457" stroke="#262626" stroke-miterlimit="10"/>
<path id="Vector_3" d="M191.876 145.527H185.512" stroke="#262626" stroke-miterlimit="10"/>
<path id="Vector_4" d="M184.729 145.527H182.934" stroke="#262626" stroke-miterlimit="10"/>
<path id="Vector_5" d="M163.146 120.34H191.862C192.44 120.34 192.909 120.809 192.909 121.387V123.528H162.105V121.387C162.105 120.809 162.575 120.34 163.153 120.34H163.146Z" fill="#FF8B63" stroke="#262626" stroke-miterlimit="10"/>
<path id="Vector_6" d="M178.902 127.561L193.964 139.451C194.556 139.92 194.222 140.872 193.468 140.872H192.019" stroke="#262626" stroke-miterlimit="10"/>
<path id="Vector_7" d="M179.249 129.17C179.906 129.17 180.439 128.638 180.439 127.981C180.439 127.324 179.906 126.791 179.249 126.791C178.591 126.791 178.059 127.324 178.059 127.981C178.059 128.638 178.591 129.17 179.249 129.17Z" stroke="#262626" stroke-miterlimit="10"/>
</g>
<g id="Group_2">
<path id="Vector_8" d="M199.451 174.487H199.444V162.298H199.451C199.92 162.298 200.301 161.917 200.301 161.448C200.301 160.979 199.92 160.598 199.451 160.598H199.444V154.188H170.361V160.598H170.354C169.885 160.598 169.504 160.979 169.504 161.448C169.504 161.917 169.885 162.298 170.354 162.298H170.361V174.487H170.354C169.885 174.487 169.504 174.868 169.504 175.337C169.504 175.806 169.885 176.187 170.354 176.187H170.361V181.652H199.444V176.187H199.451C199.92 176.187 200.301 175.806 200.301 175.337C200.301 174.868 199.92 174.487 199.451 174.487Z" fill="#FF8B63" stroke="#262626" stroke-miterlimit="10"/>
<path id="Vector_9" d="M197.594 162.291H193.848" stroke="#262626" stroke-miterlimit="10"/>
<path id="Vector_10" d="M199.271 176.188H192.906" stroke="#262626" stroke-miterlimit="10"/>
<path id="Vector_11" d="M192.119 176.188H190.324" stroke="#262626" stroke-miterlimit="10"/>
<path id="Vector_12" d="M170.543 151H199.259C199.837 151 200.306 151.469 200.306 152.047V154.188H169.496V152.047C169.496 151.469 169.965 151 170.543 151Z" fill="#FF8B63" stroke="#262626" stroke-miterlimit="10"/>
<path id="Vector_13" d="M186.293 158.213L201.355 170.103C201.946 170.572 201.613 171.524 200.858 171.524H199.41" stroke="#262626" stroke-miterlimit="10"/>
<path id="Vector_14" d="M186.639 159.831C187.296 159.831 187.829 159.298 187.829 158.641C187.829 157.984 187.296 157.451 186.639 157.451C185.982 157.451 185.449 157.984 185.449 158.641C185.449 159.298 185.982 159.831 186.639 159.831Z" stroke="#262626" stroke-miterlimit="10"/>
</g>
<g id="Group_3">
<path id="Vector_15" d="M167.286 174.487H167.28V162.298H167.286C167.756 162.298 168.136 161.917 168.136 161.448C168.136 160.979 167.756 160.598 167.286 160.598H167.28V154.188H138.197V160.598H138.19C137.721 160.598 137.34 160.979 137.34 161.448C137.34 161.917 137.721 162.298 138.19 162.298H138.197V174.487H138.19C137.721 174.487 137.34 174.868 137.34 175.337C137.34 175.806 137.721 176.187 138.19 176.187H138.197V181.652H167.28V176.187H167.286C167.756 176.187 168.136 175.806 168.136 175.337C168.136 174.868 167.756 174.487 167.286 174.487Z" fill="#FF8B63" stroke="#262626" stroke-miterlimit="10"/>
<path id="Vector_16" d="M165.431 162.291H161.691" stroke="#262626" stroke-miterlimit="10"/>
<path id="Vector_17" d="M167.118 176.188H160.746" stroke="#262626" stroke-miterlimit="10"/>
<path id="Vector_18" d="M159.963 176.188H158.168" stroke="#262626" stroke-miterlimit="10"/>
<path id="Vector_19" d="M138.387 151H167.096C167.674 151 168.143 151.469 168.143 152.047V154.188H137.34V152.047C137.34 151.469 137.809 151 138.387 151Z" fill="#FF8B63" stroke="#262626" stroke-miterlimit="10"/>
<path id="Vector_20" d="M154.137 158.213L169.198 170.103C169.79 170.572 169.457 171.524 168.702 171.524H167.254" stroke="#262626" stroke-miterlimit="10"/>
<path id="Vector_21" d="M154.483 159.831C155.14 159.831 155.673 159.298 155.673 158.641C155.673 157.984 155.14 157.451 154.483 157.451C153.826 157.451 153.293 157.984 153.293 158.641C153.293 159.298 153.826 159.831 154.483 159.831Z" stroke="#262626" stroke-miterlimit="10"/>
</g>
</g>
<g id="_&#208;&#160;&#194;&#187;&#208;&#160;&#209;&#149;&#208;&#160;&#226;&#132;&#150;_1_2" clip-path="url(#clip2_1097_25796)">
<path id="Vector_22" d="M405.149 229.883H108.93V239.621H405.149V229.883Z" fill="white" stroke="#262626" stroke-miterlimit="10"/>
<path id="Vector_23" d="M404.728 219.771H134.125V229.509H404.728V219.771Z" fill="white" stroke="#262626" stroke-miterlimit="10"/>
<path id="Vector_24" d="M394.095 209.662H123.492V219.4H394.095V209.662Z" fill="white" stroke="#262626" stroke-miterlimit="10"/>
<path id="Vector_25" d="M364.286 199.553H93.6836V209.291H364.286V199.553Z" fill="white" stroke="#262626" stroke-miterlimit="10"/>
<path id="Vector_26" d="M399.193 189.936H128.59V199.673H399.193V189.936Z" fill="white" stroke="#262626" stroke-miterlimit="10"/>
<path id="Vector_27" d="M405.314 180.379H134.711V190.117H405.314V180.379Z" fill="white" stroke="#262626" stroke-miterlimit="10"/>
</g>
<g id="_&#208;&#160;&#194;&#187;&#208;&#160;&#209;&#149;&#208;&#160;&#226;&#132;&#150;_3" clip-path="url(#clip3_1097_25796)">
<path id="Vector_28" d="M391.938 98.0925C389.056 98.0925 385.427 97.0108 381.748 94.8779C378.726 93.1258 376.174 90.9282 374.562 88.6924C372.682 86.0872 372.234 83.6305 373.304 81.7718C374.369 79.917 376.713 79.0752 379.902 79.4066C382.64 79.6923 385.81 80.812 388.828 82.5641C395.661 86.5252 399.29 92.1622 397.273 95.6701C396.34 97.2926 394.414 98.0925 391.938 98.0925ZM378.601 82.5755C377.334 82.5755 376.39 82.8688 376.094 83.3906C375.723 84.0343 376.148 85.3673 377.171 86.7918C378.506 88.6429 380.762 90.5663 383.36 92.0746C388.972 95.3273 393.693 95.4187 394.478 94.0552C395.263 92.6878 392.821 88.6277 387.213 85.3712C384.615 83.8629 381.828 82.865 379.564 82.6288C379.227 82.5945 378.904 82.5755 378.601 82.5755Z" fill="#231F20"/>
<path id="Vector_29" d="M385.971 87.0669L385.968 87.0653C383.28 85.8567 380.126 87.0652 378.923 89.7646L373.837 101.174C372.634 103.873 373.837 107.041 376.524 108.25L376.528 108.251C379.215 109.46 382.369 108.251 383.573 105.552L388.659 94.1429C389.862 91.4435 388.659 88.2755 385.971 87.0669Z" fill="#231F20"/>
<path id="Vector_30" d="M384.384 91.9823L391.817 96.8804C392.518 97.3451 392.867 98.1945 392.689 99.0172L391.305 105.454C391.051 106.627 389.852 107.328 388.715 106.97L388.389 106.867C387.353 106.543 386.246 107.092 385.875 108.116L380.088 124.098L370.684 121.668L384.388 91.9785L384.384 91.9823Z" fill="#231F20"/>
<path id="Vector_31" d="M373.443 91.9824H384.387L372.564 124.913L358.59 124.102L372.211 92.7937C372.423 92.3024 372.909 91.9824 373.443 91.9824Z" fill="#231F20"/>
<path id="Vector_32" d="M324.238 176.732L315.785 175.136L318.845 158.8C326.031 120.431 336.236 82.3085 349.17 45.4927L351.798 38.0085C354.183 31.2212 360.6 26.6621 367.763 26.6621H425.231V134.142H416.631V35.3004H367.763C364.236 35.3004 361.077 37.5438 359.906 40.8841L357.278 48.3684C344.487 84.7689 334.4 122.461 327.294 160.4L324.234 176.736L324.238 176.732Z" fill="#231F20"/>
<path id="Vector_33" d="M449.17 93.061C449.284 88.0715 448.806 83.5695 448.081 79.6883C448.294 79.6655 448.741 79.5893 449.2 79.2618C449.477 79.0637 449.67 78.839 449.799 78.6485C449.913 78.4771 449.966 78.2753 449.955 78.0696C449.905 77.0451 449.856 76.0243 449.807 74.9959C449.788 74.6417 449.587 74.318 449.272 74.1504C448.423 73.6933 447.456 73.2515 446.375 72.8782L446.436 72.7792C446.549 71.0119 446.637 69.1913 446.694 67.3174C446.701 66.9975 446.709 66.6775 446.72 66.3576C446.788 63.2953 446.762 60.3588 446.663 57.5631L446.671 57.4565L448.794 57.5555L448.847 56.4052L448.942 54.4437C449.246 47.9802 444.278 42.4918 437.843 42.187C433.82 41.9966 430.175 43.8781 427.934 46.8909C426.592 48.7001 425.75 50.9168 425.636 53.3354C425.587 54.4209 424.669 55.255 423.589 55.2055L423.027 55.1788L422.971 56.3291L425.488 56.4509L427.912 56.5652C426.615 62.6478 428.662 67.824 432.075 69.2104C432.477 69.3742 433.198 69.6065 434.233 69.5951L434.119 72.6078C432.879 72.943 431.863 73.3277 431.139 73.6324C430.558 74.7217 429.974 75.8072 429.394 76.8965C426.16 78.5838 422.606 81.2499 419.061 84.754C418.632 84.6207 418.318 84.6702 418.139 84.7236C417.635 84.8683 417.214 85.3063 416.96 85.9271C415.841 85.969 414.692 85.9843 413.517 85.9652C407.503 85.8776 402.099 84.9711 397.439 83.7447C397.2 83.4171 396.972 83.3105 396.786 83.2953C396.419 83.2648 395.998 83.5771 395.611 84.0989L395.535 84.038C395.103 83.7866 394.496 83.4933 393.73 83.2953C393.127 83.1391 392.585 83.0858 392.156 83.0744C392.073 82.9829 391.258 82.0879 390.458 82.3012C390.382 82.3202 390.215 82.3697 390.082 82.5145C389.809 82.823 389.851 83.4057 390.188 83.9885C389.76 83.9885 387.568 83.9885 387.109 85.0587C387.083 85.1159 386.874 85.6339 387.132 86.0643C387.246 86.2585 387.416 86.3651 387.526 86.4223C386.707 86.5327 386.108 86.8222 385.881 87.2945C385.854 87.3516 385.695 87.6754 385.808 88.0144C385.964 88.4828 386.59 88.799 387.45 88.8447V88.8675C386.798 88.8523 386.294 89.0808 386.157 89.3703C386.051 89.5988 386.07 89.8197 386.07 89.8197C386.07 89.8197 386.085 89.9797 386.161 90.1358C386.256 90.3263 386.571 90.4939 387.011 90.5815C386.392 90.6348 385.915 90.9128 385.79 91.3128C385.733 91.4918 385.748 91.6898 385.808 91.8231C386.184 92.6496 388.721 92.2002 388.846 92.1812C389.908 92.3449 390.833 92.3526 391.55 92.3183C391.997 92.2954 392.824 92.2307 393.836 92.0021C394.587 91.8346 395.228 91.6251 395.74 91.4232C395.998 91.5946 396.237 91.6898 396.407 91.7393C396.43 91.9069 396.453 92.0707 396.476 92.2231C397.643 92.7829 399.414 93.5904 401.621 94.4322C406.543 96.3061 413.35 98.896 420.316 99.1817L420.422 100.347L409.076 115.617C408.693 116.199 408.31 116.782 407.924 117.365C408.853 117.692 409.778 118.02 410.703 118.344C407.772 123.291 404.731 128.304 401.58 133.373C398.804 137.829 396.032 142.19 393.267 146.453C392.873 146.578 392.646 146.776 392.513 146.929C392.081 147.431 391.997 148.235 392.259 149.122C391.641 150.117 390.988 151.114 390.298 152.128C386.95 157.014 383.359 161.113 379.844 164.537C379.726 164.441 379.267 164.099 378.763 164.221C378.763 164.221 378.331 164.327 378.001 164.898C377.785 165.279 377.845 165.942 378.054 166.711H378.05C377.553 167.035 377.06 167.355 376.567 167.675C376.192 167.386 374.326 165.999 372.146 166.521C371.619 166.647 371.175 166.86 370.819 167.085C370.064 168.113 369.309 169.141 368.555 170.17C369.469 170.84 370.379 171.518 371.289 172.188C378.277 177.395 385.266 182.598 392.255 187.801C392.646 187.107 393.036 186.414 393.427 185.721C393.65 185.824 393.878 185.923 394.121 186.014C398.629 180.69 403.237 174.283 407.362 166.692C408.383 164.822 409.319 162.975 410.18 161.158C410.745 160.914 411.173 160.499 411.363 159.981C411.56 159.444 411.447 158.93 411.359 158.66C412.978 154.367 414.643 150.817 415.974 148.201L422.239 137.498C422.652 137.258 423.111 136.931 423.558 136.489C424.226 135.83 424.631 135.156 424.87 134.676C425.902 134.245 426.983 133.659 428.052 132.874C431.249 130.524 432.697 127.58 433.262 126.236V126.228C434.957 126.818 436.652 127.405 438.347 127.991C442.53 121.33 448.802 109.085 449.17 93.0572V93.061Z" fill="#231F20" stroke="#231F20" stroke-miterlimit="10" stroke-linecap="round"/>
<path id="Vector_34" d="M410.66 219.192C410.66 217.345 410.47 215.563 410.125 213.875C408.563 204.628 402.689 197.749 395.674 197.749H387.536C386.338 197.749 385.173 197.943 384.055 198.305C385.026 197.318 386.11 196.393 387.335 195.559C393 191.701 398.912 191.32 401.737 191.339C403.489 188.322 405.241 185.302 406.997 182.285C407.22 181.901 407.338 181.459 407.338 181.013V136.805C407.338 135.411 406.212 134.279 404.824 134.279H395.025C393.637 134.279 392.511 135.411 392.511 136.805V138.857C392.511 139.417 392.325 139.962 391.984 140.404C389.019 144.239 386.057 148.075 383.092 151.906L337.621 192.744H324.675L324.326 187.522L321.827 180.491L313.026 172.657L302.624 170.196H269.971V171.274L276.069 180.796C268.31 185.656 262.914 196.416 262.914 208.92C262.914 225.98 272.955 239.809 285.34 239.809H297.297C304.577 239.809 311.016 234.763 314.983 227.012C316.135 224.966 317.091 222.689 317.808 220.232L326.495 220.091H372.292C372.785 231.095 379.417 239.809 387.528 239.809H395.666C400.622 239.809 405.006 236.374 407.706 231.099C409.545 227.831 410.648 223.698 410.648 219.196L410.66 219.192Z" fill="#231F20"/>
<path id="Vector_35" d="M450.448 141.215H320.567C318.638 141.215 317.074 142.785 317.074 144.723V159.908C317.074 161.846 318.638 163.416 320.567 163.416H450.448C452.377 163.416 453.941 161.846 453.941 159.908V144.723C453.941 142.785 452.377 141.215 450.448 141.215Z" fill="#231F20" stroke="#231F20" stroke-miterlimit="10"/>
<path id="Vector_36" d="M304.531 145.725H396.591C397.986 145.725 399.116 146.863 399.116 148.261V175.079H304.531V145.725Z" fill="white" stroke="#231F20" stroke-miterlimit="10"/>
<g id="Group_4">
<path id="Vector_37" d="M330.271 144.681H323.282C322.505 144.681 321.879 144.049 321.879 143.272V128.547C321.879 128.113 322.08 127.698 322.421 127.431L331.223 120.576C331.659 120.237 332.25 120.183 332.736 120.442H395.994L392.017 144.681H330.271Z" fill="white" stroke="#231F20" stroke-miterlimit="10"/>
<path id="Vector_38" d="M393.01 144.27L398.603 138.652C398.865 138.39 399.013 138.028 399.013 137.655V123.688C399.013 123.162 398.725 122.682 398.262 122.438L394.478 120.443C393.992 120.187 393.397 120.237 392.965 120.576L384.163 127.432C383.822 127.698 383.621 128.11 383.621 128.548V143.273C383.621 144.053 384.251 144.682 385.024 144.682H392.013C392.385 144.682 392.741 144.533 393.006 144.27H393.01Z" fill="white" stroke="#231F20" stroke-miterlimit="10"/>
<path id="Vector_39" d="M328.336 127.957H383.62" stroke="#231F20" stroke-miterlimit="10"/>
</g>
<g id="Group_5">
<path id="Vector_40" d="M328.224 29.3633H325.535V59.864H328.224V29.3633Z" fill="#7099ED" stroke="#231F20" stroke-miterlimit="10"/>
<path id="Vector_41" d="M328.492 24.1914H313.176V29.318H328.492V24.1914Z" fill="#7099ED" stroke="#231F20" stroke-miterlimit="10"/>
<path id="Vector_42" d="M327.953 54.7383H312.637V59.8649H327.953V54.7383Z" fill="#7099ED" stroke="#231F20" stroke-miterlimit="10"/>
<path id="Vector_43" d="M327.147 41.5105H323.386L322.309 29.0977H329.567L327.147 41.5105Z" fill="#7099ED" stroke="#231F20" stroke-miterlimit="10"/>
<path id="Vector_44" d="M325.267 33.9531H322.848C320.918 33.9531 319.355 35.9489 319.355 38.4056C319.355 40.8623 320.918 42.8581 322.848 42.8581H325.267C327.197 42.8581 328.76 40.8623 328.76 38.4056C328.76 35.9489 327.197 33.9531 325.267 33.9531Z" fill="#7099ED" stroke="#231F20" stroke-miterlimit="10"/>
<path id="Vector_45" d="M325.939 41.7796C327.051 41.7796 327.953 40.3302 327.953 38.5422C327.953 36.7542 327.051 35.3047 325.939 35.3047C324.827 35.3047 323.926 36.7542 323.926 38.5422C323.926 40.3302 324.827 41.7796 325.939 41.7796Z" fill="#7099ED" stroke="#231F20" stroke-miterlimit="10"/>
<path id="Vector_46" d="M322.041 135.443H319.891V39.0845C319.891 36.1099 322.302 33.6875 325.264 33.6875V33.9579C323.485 33.9579 322.041 35.4091 322.041 37.1954V135.443Z" fill="white" stroke="#231F20" stroke-miterlimit="10"/>
<path id="Vector_47" d="M350.526 28.2852H315.324V30.9856H350.526V28.2852Z" fill="#7099ED" stroke="#231F20" stroke-miterlimit="10"/>
<g id="Group_6">
<path id="Vector_48" d="M357.709 24.1914H336.637V204.949H357.709V24.1914Z" fill="#7099ED" stroke="#231F20" stroke-miterlimit="10"/>
<path id="Vector_49" d="M354.559 24.1914H343.945V204.949H354.559V24.1914Z" fill="white" stroke="#231F20" stroke-miterlimit="10"/>
<path id="Vector_50" d="M338.934 24.1914V204.949" stroke="#231F20" stroke-miterlimit="10"/>
<path id="Vector_51" d="M341.732 24.1914V45.1359C341.732 46.3852 340.723 47.3945 339.483 47.3945H338.934" stroke="#231F20" stroke-miterlimit="10"/>
<path id="Vector_52" d="M341.731 25.7988C341.527 25.9207 340.078 26.831 339.832 28.6097C339.623 30.1218 340.366 31.6605 341.731 32.529" stroke="#231F20" stroke-miterlimit="10"/>
</g>
<g id="Group_7">
<path id="Vector_53" d="M319.955 24.1914H298.883V204.949H319.955V24.1914Z" fill="#7099ED" stroke="#231F20" stroke-miterlimit="10"/>
<path id="Vector_54" d="M316.669 24.1914H306.191V204.949H316.669V24.1914Z" fill="white" stroke="#231F20" stroke-miterlimit="10"/>
<path id="Vector_55" d="M303.98 24.1914V204.949" stroke="#231F20" stroke-miterlimit="10"/>
<path id="Vector_56" d="M301.176 24.1914V45.1359C301.176 46.3852 302.184 47.3945 303.424 47.3945H303.974" stroke="#231F20" stroke-miterlimit="10"/>
<path id="Vector_57" d="M303.934 32.5293C303.729 32.4074 302.28 31.4971 302.034 29.7184C301.825 28.2063 302.568 26.6676 303.934 25.7992" stroke="#231F20" stroke-miterlimit="10"/>
</g>
<path id="Vector_58" d="M361.817 26.668H359.129V59.8691H361.817V26.668Z" fill="#7099ED" stroke="#231F20" stroke-miterlimit="10"/>
<path id="Vector_59" d="M361.812 24.1914H346.496V29.318H361.812V24.1914Z" fill="#7099ED" stroke="#231F20" stroke-miterlimit="10"/>
<path id="Vector_60" d="M361.812 54.7383H346.496V59.8649H361.812V54.7383Z" fill="#7099ED" stroke="#231F20" stroke-miterlimit="10"/>
</g>
<path id="Vector_61" d="M386.394 176.873L377.941 175.277L381.002 158.941C388.188 120.571 398.392 82.4491 411.327 45.6334L413.954 38.1491C416.34 31.3619 422.756 26.8027 429.919 26.8027H487.387V134.279H478.787V35.4411H429.919C426.392 35.4411 423.234 37.6844 422.062 41.0247L419.434 48.509C406.643 84.9096 396.557 122.601 389.45 160.541L386.39 176.876L386.394 176.873Z" fill="#231F20"/>
<path id="Vector_62" d="M376.012 85.1612L374.484 88.0117L381.473 91.791L383.001 88.9405L376.012 85.1612Z" fill="#231F20"/>
<g id="Group_8">
<g id="Group_9">
<path id="Vector_63" d="M352.875 96.5898H287.871C285.441 96.5898 283.473 98.5704 283.473 101.008V187.418H357.281V101.008C357.281 98.5666 355.309 96.5898 352.882 96.5898H352.875ZM289.915 124.718H350.823V148.751H289.919V124.718H289.915ZM333.171 122.231V103.069H340.971V122.231H333.171ZM328.871 122.231H321.272V103.069H328.871V122.231ZM316.771 122.231H309.369V103.069H316.771V122.231ZM305.068 122.231H297.469V103.069H305.068V122.231ZM350.823 122.231H345.071V103.069H350.823V122.231ZM293.07 103.069V122.231H289.912V103.069H293.07ZM289.912 180.943V155.226H350.819V180.943H289.919H289.912Z" fill="#7099ED" stroke="#231F20" stroke-miterlimit="10"/>
<path id="Vector_64" d="M349.277 96.5898H284.27C281.839 96.5898 279.871 98.5704 279.871 101.008V187.418H353.679V101.008C353.679 98.5666 351.708 96.5898 349.281 96.5898H349.277ZM286.318 124.718H347.225V148.751H286.318V124.718ZM329.573 122.231V103.069H340.237V122.231H329.573ZM328.337 122.231H317.674V103.069H328.337V122.231ZM316.438 122.231H305.775V103.069H316.438V122.231ZM304.538 122.231H293.875V103.069H304.538V122.231ZM347.229 122.231H341.477V103.069H347.229V122.231ZM292.635 103.069V122.231H286.321V103.069H292.635ZM286.321 180.943V155.226H347.229V180.943H286.318H286.321Z" fill="#231F20"/>
</g>
<path id="Vector_65" d="M208.103 196.297H202.191V202.235H208.103V196.297Z" fill="#7099ED" stroke="#231F20" stroke-miterlimit="10"/>
<path id="Vector_66" d="M275.55 196.297H207.832V202.235H275.55V196.297Z" fill="#7099ED" stroke="#231F20" stroke-miterlimit="10"/>
<g id="Group_10">
<path id="Vector_67" d="M290.818 142.314H299.198L298.929 197.69C298.929 199.442 220.953 198.456 220.953 198.456L220.999 195.218L287.303 196.414C289.115 196.35 290.556 194.857 290.564 193.032L290.818 142.311V142.314Z" fill="#F4F3F1" stroke="#231F20" stroke-miterlimit="10"/>
<path id="Vector_68" d="M297.585 142.314H302.154L305.378 148.523H301.885V197.69C301.885 199.442 300.448 200.852 298.704 200.81L225.566 198.456V196.567L294.07 196.414C295.882 196.35 297.323 194.857 297.331 193.032L297.585 142.311V142.314Z" fill="#F4F3F1" stroke="#231F20" stroke-miterlimit="10"/>
</g>
<path id="Vector_69" d="M241.158 196.297H235.246V202.235H241.158V196.297Z" fill="#7099ED" stroke="#231F20" stroke-miterlimit="10"/>
<path id="Vector_70" d="M308.609 196.297H240.891V202.235H308.609V196.297Z" fill="#7099ED" stroke="#231F20" stroke-miterlimit="10"/>
<g id="Group_11">
<path id="Vector_71" d="M323.333 142.314H331.714L331.444 197.69C331.444 199.442 255.668 198.726 255.668 198.726V196.567L319.814 196.414C321.627 196.35 323.068 194.857 323.075 193.032L323.329 142.311L323.333 142.314Z" fill="#F4F3F1" stroke="#231F20" stroke-miterlimit="10"/>
<path id="Vector_72" d="M331.719 142.314H336.288L339.512 148.523H336.019V197.938C336.019 199.553 334.696 200.852 333.088 200.814L260.777 198.726V196.567L328.439 196.407C330.122 196.346 331.457 194.959 331.469 193.268L331.723 142.314H331.719Z" fill="#F4F3F1" stroke="#231F20" stroke-miterlimit="10"/>
</g>
<path id="Vector_73" d="M275.822 196.566H269.91V201.963H275.822V196.566Z" fill="#7099ED" stroke="#231F20" stroke-miterlimit="10"/>
<path id="Vector_74" d="M343.269 196.297H275.551V202.235H343.269V196.297Z" fill="#7099ED" stroke="#231F20" stroke-miterlimit="10"/>
<path id="Vector_75" d="M343.274 193.33H272.867V196.568H343.274V193.33Z" fill="#7099ED" stroke="#231F20" stroke-miterlimit="10"/>
<path id="Vector_76" d="M275.822 193.33H202.191V196.568H275.822V193.33Z" fill="#7099ED" stroke="#231F20" stroke-miterlimit="10"/>
<path id="Vector_77" d="M343.274 201.965H272.867V205.202H343.274V201.965Z" fill="#7099ED" stroke="#231F20" stroke-miterlimit="10"/>
<path id="Vector_78" d="M275.822 201.965H202.191V205.202H275.822V201.965Z" fill="#7099ED" stroke="#231F20" stroke-miterlimit="10"/>
<g id="Group_12">
<path id="Vector_79" d="M250.381 103.176H273.133V95.0059H250.381V103.176Z" fill="#7099ED" stroke="#231F20" stroke-miterlimit="10"/>
<path id="Vector_80" d="M261.757 111.35H273.133V103.18H261.757V111.35Z" fill="#7099ED" stroke="#231F20" stroke-miterlimit="10"/>
<path id="Vector_81" d="M250.378 111.35H261.754V103.18H250.378V111.35Z" fill="#7099ED" stroke="#231F20" stroke-miterlimit="10"/>
<path id="Vector_82" d="M227.627 103.176H250.379V95.0059H227.627V103.176Z" fill="#7099ED" stroke="#231F20" stroke-miterlimit="10"/>
<path id="Vector_83" d="M239.003 111.35H250.379V103.18H239.003V111.35Z" fill="#7099ED" stroke="#231F20" stroke-miterlimit="10"/>
<path id="Vector_84" d="M227.628 111.35H239.004V103.18H227.628V111.35Z" fill="#7099ED" stroke="#231F20" stroke-miterlimit="10"/>
<path id="Vector_85" d="M204.877 103.176H227.629V95.0059H204.877V103.176Z" fill="#7099ED" stroke="#231F20" stroke-miterlimit="10"/>
<path id="Vector_86" d="M216.253 111.35H227.629V103.18H216.253V111.35Z" fill="#7099ED" stroke="#231F20" stroke-miterlimit="10"/>
<path id="Vector_87" d="M204.874 111.35H216.25V103.18H204.874V111.35Z" fill="#7099ED" stroke="#231F20" stroke-miterlimit="10"/>
<path id="Vector_88" d="M261.757 95.0781H273.133V86.9083H261.757V95.0781Z" fill="#7099ED" stroke="#231F20" stroke-miterlimit="10"/>
<path id="Vector_89" d="M250.378 95.0781H261.754V86.9083H250.378V95.0781Z" fill="#7099ED" stroke="#231F20" stroke-miterlimit="10"/>
<path id="Vector_90" d="M239.003 95.0781H250.379V86.9083H239.003V95.0781Z" fill="#7099ED" stroke="#231F20" stroke-miterlimit="10"/>
<path id="Vector_91" d="M227.628 95.0781H239.004V86.9083H227.628V95.0781Z" fill="#7099ED" stroke="#231F20" stroke-miterlimit="10"/>
<path id="Vector_92" d="M216.253 95.0781H227.629V86.9083H216.253V95.0781Z" fill="#7099ED" stroke="#231F20" stroke-miterlimit="10"/>
<path id="Vector_93" d="M204.874 95.0781H216.25V86.9083H204.874V95.0781Z" fill="#7099ED" stroke="#231F20" stroke-miterlimit="10"/>
<path id="Vector_94" d="M250.381 119.52H273.133V111.35H250.381V119.52Z" fill="#7099ED" stroke="#231F20" stroke-miterlimit="10"/>
<path id="Vector_95" d="M261.757 127.689H273.133V119.52H261.757V127.689Z" fill="#7099ED" stroke="#231F20" stroke-miterlimit="10"/>
<path id="Vector_96" d="M250.378 127.689H261.754V119.52H250.378V127.689Z" fill="#7099ED" stroke="#231F20" stroke-miterlimit="10"/>
<path id="Vector_97" d="M227.627 119.52H250.379V111.35H227.627V119.52Z" fill="#7099ED" stroke="#231F20" stroke-miterlimit="10"/>
<path id="Vector_98" d="M239.003 127.689H250.379V119.52H239.003V127.689Z" fill="#7099ED" stroke="#231F20" stroke-miterlimit="10"/>
<path id="Vector_99" d="M227.628 127.689H239.004V119.52H227.628V127.689Z" fill="#7099ED" stroke="#231F20" stroke-miterlimit="10"/>
<path id="Vector_100" d="M204.877 119.52H227.629V111.35H204.877V119.52Z" fill="#7099ED" stroke="#231F20" stroke-miterlimit="10"/>
<path id="Vector_101" d="M216.253 127.689H227.629V119.52H216.253V127.689Z" fill="#7099ED" stroke="#231F20" stroke-miterlimit="10"/>
<path id="Vector_102" d="M204.874 127.689H216.25V119.52H204.874V127.689Z" fill="#7099ED" stroke="#231F20" stroke-miterlimit="10"/>
<path id="Vector_103" d="M250.381 135.863H273.133V127.693H250.381V135.863Z" fill="#7099ED" stroke="#231F20" stroke-miterlimit="10"/>
<path id="Vector_104" d="M261.757 144.033H273.133V135.863H261.757V144.033Z" fill="#7099ED" stroke="#231F20" stroke-miterlimit="10"/>
<path id="Vector_105" d="M250.378 144.033H261.754V135.863H250.378V144.033Z" fill="#7099ED" stroke="#231F20" stroke-miterlimit="10"/>
<path id="Vector_106" d="M227.627 135.863H250.379V127.693H227.627V135.863Z" fill="#7099ED" stroke="#231F20" stroke-miterlimit="10"/>
<path id="Vector_107" d="M239.003 144.033H250.379V135.863H239.003V144.033Z" fill="#7099ED" stroke="#231F20" stroke-miterlimit="10"/>
<path id="Vector_108" d="M227.628 144.033H239.004V135.863H227.628V144.033Z" fill="#7099ED" stroke="#231F20" stroke-miterlimit="10"/>
<path id="Vector_109" d="M204.877 135.863H227.629V127.693H204.877V135.863Z" fill="#7099ED" stroke="#231F20" stroke-miterlimit="10"/>
<path id="Vector_110" d="M216.253 144.033H227.629V135.863H216.253V144.033Z" fill="#7099ED" stroke="#231F20" stroke-miterlimit="10"/>
<path id="Vector_111" d="M204.874 144.033H216.25V135.863H204.874V144.033Z" fill="#7099ED" stroke="#231F20" stroke-miterlimit="10"/>
<path id="Vector_112" d="M250.381 152.203H273.133V144.033H250.381V152.203Z" fill="#7099ED" stroke="#231F20" stroke-miterlimit="10"/>
<path id="Vector_113" d="M261.757 160.375H273.133V152.205H261.757V160.375Z" fill="#7099ED" stroke="#231F20" stroke-miterlimit="10"/>
<path id="Vector_114" d="M250.378 160.375H261.754V152.205H250.378V160.375Z" fill="#7099ED" stroke="#231F20" stroke-miterlimit="10"/>
<path id="Vector_115" d="M227.627 152.203H250.379V144.033H227.627V152.203Z" fill="#7099ED" stroke="#231F20" stroke-miterlimit="10"/>
<path id="Vector_116" d="M239.003 160.375H250.379V152.205H239.003V160.375Z" fill="#7099ED" stroke="#231F20" stroke-miterlimit="10"/>
<path id="Vector_117" d="M227.628 160.375H239.004V152.205H227.628V160.375Z" fill="#7099ED" stroke="#231F20" stroke-miterlimit="10"/>
<path id="Vector_118" d="M204.877 152.203H227.629V144.033H204.877V152.203Z" fill="#7099ED" stroke="#231F20" stroke-miterlimit="10"/>
<path id="Vector_119" d="M216.253 160.375H227.629V152.205H216.253V160.375Z" fill="#7099ED" stroke="#231F20" stroke-miterlimit="10"/>
<path id="Vector_120" d="M204.874 160.375H216.25V152.205H204.874V160.375Z" fill="#7099ED" stroke="#231F20" stroke-miterlimit="10"/>
<path id="Vector_121" d="M250.381 168.541H273.133V160.371H250.381V168.541Z" fill="#7099ED" stroke="#231F20" stroke-miterlimit="10"/>
<path id="Vector_122" d="M227.627 168.541H250.379V160.371H227.627V168.541Z" fill="#7099ED" stroke="#231F20" stroke-miterlimit="10"/>
<path id="Vector_123" d="M204.877 168.541H227.629V160.371H204.877V168.541Z" fill="#7099ED" stroke="#231F20" stroke-miterlimit="10"/>
<path id="Vector_124" d="M261.757 176.715H273.133V168.545H261.757V176.715Z" fill="#7099ED" stroke="#231F20" stroke-miterlimit="10"/>
<path id="Vector_125" d="M250.378 176.715H261.754V168.545H250.378V176.715Z" fill="#7099ED" stroke="#231F20" stroke-miterlimit="10"/>
<path id="Vector_126" d="M239.003 176.715H250.379V168.545H239.003V176.715Z" fill="#7099ED" stroke="#231F20" stroke-miterlimit="10"/>
<path id="Vector_127" d="M227.628 176.715H239.004V168.545H227.628V176.715Z" fill="#7099ED" stroke="#231F20" stroke-miterlimit="10"/>
<path id="Vector_128" d="M216.253 176.715H227.629V168.545H216.253V176.715Z" fill="#7099ED" stroke="#231F20" stroke-miterlimit="10"/>
<path id="Vector_129" d="M204.874 176.715H216.25V168.545H204.874V176.715Z" fill="#7099ED" stroke="#231F20" stroke-miterlimit="10"/>
<path id="Vector_130" d="M250.381 184.889H273.133V176.719H250.381V184.889Z" fill="#7099ED" stroke="#231F20" stroke-miterlimit="10"/>
<path id="Vector_131" d="M227.627 184.889H250.379V176.719H227.627V184.889Z" fill="#7099ED" stroke="#231F20" stroke-miterlimit="10"/>
<path id="Vector_132" d="M204.877 184.889H227.629V176.719H204.877V184.889Z" fill="#7099ED" stroke="#231F20" stroke-miterlimit="10"/>
<path id="Vector_133" d="M261.757 193.055H273.133V184.885H261.757V193.055Z" fill="#7099ED" stroke="#231F20" stroke-miterlimit="10"/>
<path id="Vector_134" d="M250.378 193.055H261.754V184.885H250.378V193.055Z" fill="#7099ED" stroke="#231F20" stroke-miterlimit="10"/>
<path id="Vector_135" d="M239.003 193.055H250.379V184.885H239.003V193.055Z" fill="#7099ED" stroke="#231F20" stroke-miterlimit="10"/>
<path id="Vector_136" d="M227.628 193.055H239.004V184.885H227.628V193.055Z" fill="#7099ED" stroke="#231F20" stroke-miterlimit="10"/>
<path id="Vector_137" d="M216.253 193.055H227.629V184.885H216.253V193.055Z" fill="#7099ED" stroke="#231F20" stroke-miterlimit="10"/>
<path id="Vector_138" d="M204.874 193.055H216.25V184.885H204.874V193.055Z" fill="#7099ED" stroke="#231F20" stroke-miterlimit="10"/>
</g>
<g id="Group_13">
<path id="Vector_139" d="M296.336 184.889H272.598V193.059H296.336V184.889Z" fill="white" stroke="#231F20" stroke-miterlimit="10"/>
<path id="Vector_140" d="M284.467 176.715H272.598V184.885H284.467V176.715Z" fill="white" stroke="#231F20" stroke-miterlimit="10"/>
<path id="Vector_141" d="M296.334 176.715H284.465V184.885H296.334V176.715Z" fill="white" stroke="#231F20" stroke-miterlimit="10"/>
<path id="Vector_142" d="M320.074 184.889H296.336V193.059H320.074V184.889Z" fill="white" stroke="#231F20" stroke-miterlimit="10"/>
<path id="Vector_143" d="M308.205 176.715H296.336V184.885H308.205V176.715Z" fill="white" stroke="#231F20" stroke-miterlimit="10"/>
<path id="Vector_144" d="M320.072 176.715H308.203V184.885H320.072V176.715Z" fill="white" stroke="#231F20" stroke-miterlimit="10"/>
<path id="Vector_145" d="M343.812 184.889H320.074V193.059H343.812V184.889Z" fill="white" stroke="#231F20" stroke-miterlimit="10"/>
<path id="Vector_146" d="M331.943 176.715H320.074V184.885H331.943V176.715Z" fill="white" stroke="#231F20" stroke-miterlimit="10"/>
<path id="Vector_147" d="M343.811 176.715H331.941V184.885H343.811V176.715Z" fill="white" stroke="#231F20" stroke-miterlimit="10"/>
<path id="Vector_148" d="M296.336 168.545H272.598V176.715H296.336V168.545Z" fill="white" stroke="#231F20" stroke-miterlimit="10"/>
<path id="Vector_149" d="M284.467 160.375H272.598V168.545H284.467V160.375Z" fill="white" stroke="#231F20" stroke-miterlimit="10"/>
<path id="Vector_150" d="M296.334 160.375H284.465V168.545H296.334V160.375Z" fill="white" stroke="#231F20" stroke-miterlimit="10"/>
<path id="Vector_151" d="M320.074 168.545H296.336V176.715H320.074V168.545Z" fill="white" stroke="#231F20" stroke-miterlimit="10"/>
<path id="Vector_152" d="M308.205 160.375H296.336V168.545H308.205V160.375Z" fill="white" stroke="#231F20" stroke-miterlimit="10"/>
<path id="Vector_153" d="M320.072 160.375H308.203V168.545H320.072V160.375Z" fill="white" stroke="#231F20" stroke-miterlimit="10"/>
<path id="Vector_154" d="M343.812 168.545H320.074V176.715H343.812V168.545Z" fill="white" stroke="#231F20" stroke-miterlimit="10"/>
<path id="Vector_155" d="M331.943 160.375H320.074V168.545H331.943V160.375Z" fill="white" stroke="#231F20" stroke-miterlimit="10"/>
<path id="Vector_156" d="M343.811 160.375H331.941V168.545H343.811V160.375Z" fill="white" stroke="#231F20" stroke-miterlimit="10"/>
<path id="Vector_157" d="M296.336 152.203H272.598V160.373H296.336V152.203Z" fill="white" stroke="#231F20" stroke-miterlimit="10"/>
<path id="Vector_158" d="M284.467 144.033H272.598V152.203H284.467V144.033Z" fill="white" stroke="#231F20" stroke-miterlimit="10"/>
<path id="Vector_159" d="M296.334 144.033H284.465V152.203H296.334V144.033Z" fill="white" stroke="#231F20" stroke-miterlimit="10"/>
<path id="Vector_160" d="M320.074 152.203H296.336V160.373H320.074V152.203Z" fill="white" stroke="#231F20" stroke-miterlimit="10"/>
<path id="Vector_161" d="M308.205 144.033H296.336V152.203H308.205V144.033Z" fill="white" stroke="#231F20" stroke-miterlimit="10"/>
<path id="Vector_162" d="M320.072 144.033H308.203V152.203H320.072V144.033Z" fill="white" stroke="#231F20" stroke-miterlimit="10"/>
<path id="Vector_163" d="M343.812 152.203H320.074V160.373H343.812V152.203Z" fill="white" stroke="#231F20" stroke-miterlimit="10"/>
<path id="Vector_164" d="M331.943 144.033H320.074V152.203H331.943V144.033Z" fill="white" stroke="#231F20" stroke-miterlimit="10"/>
<path id="Vector_165" d="M343.811 144.033H331.941V152.203H343.811V144.033Z" fill="white" stroke="#231F20" stroke-miterlimit="10"/>
<path id="Vector_166" d="M296.336 135.863H272.598V144.033H296.336V135.863Z" fill="white" stroke="#231F20" stroke-miterlimit="10"/>
<path id="Vector_167" d="M284.467 127.689H272.598V135.859H284.467V127.689Z" fill="white" stroke="#231F20" stroke-miterlimit="10"/>
<path id="Vector_168" d="M296.334 127.689H284.465V135.859H296.334V127.689Z" fill="white" stroke="#231F20" stroke-miterlimit="10"/>
<path id="Vector_169" d="M320.074 135.863H296.336V144.033H320.074V135.863Z" fill="white" stroke="#231F20" stroke-miterlimit="10"/>
<path id="Vector_170" d="M308.205 127.689H296.336V135.859H308.205V127.689Z" fill="white" stroke="#231F20" stroke-miterlimit="10"/>
<path id="Vector_171" d="M320.072 127.689H308.203V135.859H320.072V127.689Z" fill="white" stroke="#231F20" stroke-miterlimit="10"/>
<path id="Vector_172" d="M343.812 135.863H320.074V144.033H343.812V135.863Z" fill="white" stroke="#231F20" stroke-miterlimit="10"/>
<path id="Vector_173" d="M331.943 127.689H320.074V135.859H331.943V127.689Z" fill="white" stroke="#231F20" stroke-miterlimit="10"/>
<path id="Vector_174" d="M343.811 127.689H331.941V135.859H343.811V127.689Z" fill="white" stroke="#231F20" stroke-miterlimit="10"/>
<path id="Vector_175" d="M296.336 119.52H272.598V127.689H296.336V119.52Z" fill="white" stroke="#231F20" stroke-miterlimit="10"/>
<path id="Vector_176" d="M320.074 119.52H296.336V127.689H320.074V119.52Z" fill="white" stroke="#231F20" stroke-miterlimit="10"/>
<path id="Vector_177" d="M343.812 119.52H320.074V127.689H343.812V119.52Z" fill="white" stroke="#231F20" stroke-miterlimit="10"/>
<path id="Vector_178" d="M284.467 111.35H272.598V119.519H284.467V111.35Z" fill="white" stroke="#231F20" stroke-miterlimit="10"/>
<path id="Vector_179" d="M296.334 111.35H284.465V119.519H296.334V111.35Z" fill="white" stroke="#231F20" stroke-miterlimit="10"/>
<path id="Vector_180" d="M308.205 111.35H296.336V119.519H308.205V111.35Z" fill="white" stroke="#231F20" stroke-miterlimit="10"/>
<path id="Vector_181" d="M320.072 111.35H308.203V119.519H320.072V111.35Z" fill="white" stroke="#231F20" stroke-miterlimit="10"/>
<path id="Vector_182" d="M331.943 111.35H320.074V119.519H331.943V111.35Z" fill="white" stroke="#231F20" stroke-miterlimit="10"/>
<path id="Vector_183" d="M343.811 111.35H331.941V119.519H343.811V111.35Z" fill="white" stroke="#231F20" stroke-miterlimit="10"/>
<path id="Vector_184" d="M296.336 103.176H272.598V111.346H296.336V103.176Z" fill="white" stroke="#231F20" stroke-miterlimit="10"/>
<path id="Vector_185" d="M320.074 103.176H296.336V111.346H320.074V103.176Z" fill="white" stroke="#231F20" stroke-miterlimit="10"/>
<path id="Vector_186" d="M343.812 103.176H320.074V111.346H343.812V103.176Z" fill="white" stroke="#231F20" stroke-miterlimit="10"/>
<path id="Vector_187" d="M284.467 95.0059H272.598V103.176H284.467V95.0059Z" fill="white" stroke="#231F20" stroke-miterlimit="10"/>
<path id="Vector_188" d="M296.334 95.0059H284.465V103.176H296.334V95.0059Z" fill="white" stroke="#231F20" stroke-miterlimit="10"/>
<path id="Vector_189" d="M308.205 95.0059H296.336V103.176H308.205V95.0059Z" fill="white" stroke="#231F20" stroke-miterlimit="10"/>
<path id="Vector_190" d="M320.072 95.0059H308.203V103.176H320.072V95.0059Z" fill="white" stroke="#231F20" stroke-miterlimit="10"/>
<path id="Vector_191" d="M331.943 95.0059H320.074V103.176H331.943V95.0059Z" fill="white" stroke="#231F20" stroke-miterlimit="10"/>
<path id="Vector_192" d="M343.811 95.0059H331.941V103.176H343.811V95.0059Z" fill="white" stroke="#231F20" stroke-miterlimit="10"/>
<path id="Vector_193" d="M296.336 86.8359H272.598V95.0058H296.336V86.8359Z" fill="white" stroke="#231F20" stroke-miterlimit="10"/>
<path id="Vector_194" d="M320.074 86.8359H296.336V95.0058H320.074V86.8359Z" fill="white" stroke="#231F20" stroke-miterlimit="10"/>
<path id="Vector_195" d="M343.812 86.8359H320.074V95.0058H343.812V86.8359Z" fill="white" stroke="#231F20" stroke-miterlimit="10"/>
</g>
</g>
<g id="Group_14">
<g id="Vector_196">
<path d="M354.127 170.195V171.277L385.65 220.494L410.655 220.09L408.482 187.525L405.983 180.49L397.182 172.656L386.78 170.195H353.676" fill="#231F20"/>
<path d="M354.127 170.195V171.277L385.65 220.494L410.655 220.09L408.482 187.525L405.983 180.49L397.182 172.656L386.78 170.195H353.676" stroke="#231F20" stroke-miterlimit="10"/>
</g>
<g id="Group_15">
<path id="Vector_197" d="M381.457 178.031H369.5C357.116 178.031 347.074 191.861 347.074 208.92C347.074 225.98 357.116 239.81 369.5 239.81H381.457C393.512 239.81 403.284 225.98 403.284 208.92C403.284 191.861 393.512 178.031 381.457 178.031Z" fill="#7099ED" stroke="#262626" stroke-miterlimit="10"/>
<path id="Vector_198" d="M383.623 224.507C389.468 224.507 394.206 217.802 394.206 209.531C394.206 201.26 389.468 194.555 383.623 194.555C377.778 194.555 373.039 201.26 373.039 209.531C373.039 217.802 377.778 224.507 383.623 224.507Z" fill="white" stroke="#262626" stroke-miterlimit="10"/>
<path id="Vector_199" d="M385.797 209.529C385.797 212.058 384.349 214.111 382.559 214.111C380.769 214.111 379.32 212.058 379.32 209.529C379.32 207 380.769 204.947 382.559 204.947" stroke="#262626" stroke-miterlimit="10"/>
<path id="Vector_200" d="M380.849 220.092C384.971 220.092 388.312 215.364 388.312 209.531C388.312 203.697 384.971 198.969 380.849 198.969C376.728 198.969 373.387 203.697 373.387 209.531C373.387 215.364 376.728 220.092 380.849 220.092Z" stroke="#262626" stroke-miterlimit="10"/>
<path id="Vector_201" d="M383.621 237.608C394.579 237.608 403.461 225.037 403.461 209.53C403.461 194.022 394.579 181.451 383.621 181.451C372.664 181.451 363.781 194.022 363.781 209.53C363.781 225.037 372.664 237.608 383.621 237.608Z" stroke="#262626" stroke-miterlimit="10"/>
<path id="Vector_202" d="M381.579 202.803H378.978C376.282 202.803 374.094 205.815 374.094 209.529C374.094 213.243 376.282 216.255 378.978 216.255H381.579C384.203 216.255 386.331 213.243 386.331 209.529C386.331 205.815 384.203 202.803 381.579 202.803Z" stroke="#262626" stroke-miterlimit="10"/>
</g>
<path id="Vector_203" d="M410.033 192.749H407.883V192.044C407.883 180.591 398.608 171.275 387.205 171.275H381.953V169.115H387.205C399.791 169.115 410.033 179.399 410.033 192.044V192.749Z" fill="#F4F3F1" stroke="#231F20" stroke-miterlimit="10"/>
<path id="Vector_204" d="M381.959 169.119H354.129V171.279H381.959V169.119Z" fill="#F4F3F1" stroke="#231F20" stroke-miterlimit="10"/>
</g>
</g>
<g id="Frame 2">
<path id="&#208;&#191;&#208;&#190;&#209;&#129;&#209;&#130;&#208;&#176;&#208;&#178;&#209;&#137;&#208;&#184;&#208;&#186;&#208;&#184; &#208;&#184; &#209;&#129;&#209;&#130;&#209;&#128;&#208;&#190;&#208;&#184;&#209;&#130;&#208;&#181;&#208;&#187;&#209;&#140;&#208;&#189;&#209;&#139;&#208;&#181; &#208;&#188;&#208;&#176;&#209;&#130;&#208;&#181;&#209;&#128;&#208;&#184;&#208;&#176;&#208;&#187;&#209;&#139;" d="M33.6113 50V35.7812H46.668V50H43.9531V37.8711H36.3262V50H33.6113ZM49.2559 43.1445V42.6074C49.2559 40.2376 49.946 38.4603 51.3262 37.2754C52.7064 36.084 54.4707 35.4883 56.6191 35.4883C58.7611 35.4883 60.5254 36.084 61.9121 37.2754C63.3053 38.4603 64.002 40.2376 64.002 42.6074V43.1445C64.002 45.5339 63.3053 47.3242 61.9121 48.5156C60.5254 49.7005 58.7611 50.293 56.6191 50.293C54.4707 50.293 52.7064 49.7005 51.3262 48.5156C49.946 47.3242 49.2559 45.5339 49.2559 43.1445ZM52.0391 43.3105C52.0391 44.9902 52.4557 46.2272 53.2891 47.0215C54.1289 47.8092 55.2389 48.2031 56.6191 48.2031C57.9993 48.2031 59.1126 47.8092 59.959 47.0215C60.8053 46.2272 61.2285 44.9902 61.2285 43.3105V42.4609C61.2285 40.7812 60.8053 39.5508 59.959 38.7695C59.1191 37.9818 58.0059 37.5879 56.6191 37.5879C55.2389 37.5879 54.1289 37.9818 53.2891 38.7695C52.4557 39.5508 52.0391 40.778 52.0391 42.4512V43.3105ZM65.9355 43.1641V42.6172C65.9355 40.2279 66.6159 38.444 67.9766 37.2656C69.3372 36.0807 71.0918 35.4883 73.2402 35.4883C75.2259 35.4883 76.8079 35.9082 77.9863 36.748C79.1647 37.5814 79.8158 38.8216 79.9395 40.4688L79.959 40.6738H77.2148L77.2051 40.459C77.1139 39.4759 76.7266 38.7533 76.043 38.291C75.3659 37.8223 74.4219 37.5879 73.2109 37.5879C71.8698 37.5879 70.7858 37.985 69.959 38.7793C69.1387 39.5736 68.7285 40.791 68.7285 42.4316V43.3496C68.7285 45.0618 69.1387 46.2988 69.959 47.0605C70.7858 47.8223 71.8698 48.2031 73.2109 48.2031C74.5651 48.2031 75.5482 47.9395 76.1602 47.4121C76.7721 46.8783 77.1204 46.1816 77.2051 45.3223L77.2148 45.1172H79.959L79.9492 45.332C79.8385 46.8555 79.2135 48.0632 78.0742 48.9551C76.9414 49.847 75.3333 50.293 73.25 50.293C71.0885 50.293 69.3275 49.7135 67.9668 48.5547C66.6126 47.3893 65.9355 45.5924 65.9355 43.1641ZM80.584 37.8906V35.7812H93.6602V37.8906H88.4844V50H85.7695V37.8906H80.584ZM93.748 50L99.9297 35.7129H102.596L108.787 50H105.838L101.727 39.9219C101.603 39.6289 101.499 39.349 101.414 39.082C101.329 38.8086 101.251 38.5482 101.18 38.3008H101.082C101.004 38.5482 100.923 38.8086 100.838 39.082C100.753 39.3555 100.652 39.6354 100.535 39.9219L96.3945 50H93.748ZM96.6094 46.6699L97.3711 44.6484H105.027L105.789 46.6699H96.6094ZM110.271 50V35.7812H116.307C117.999 35.7812 119.321 36.071 120.271 36.6504C121.222 37.2298 121.697 38.1868 121.697 39.5215C121.697 40.3092 121.492 40.9505 121.082 41.4453C120.678 41.9336 120.164 42.2852 119.539 42.5V42.5391C120.32 42.7474 120.952 43.1283 121.434 43.6816C121.922 44.235 122.166 44.9772 122.166 45.9082C122.166 47.2689 121.658 48.291 120.643 48.9746C119.627 49.6582 118.286 50 116.619 50H110.271ZM112.947 48.0469H116.482C117.492 48.0469 118.24 47.8613 118.729 47.4902C119.217 47.1126 119.461 46.543 119.461 45.7812C119.461 45.0651 119.217 44.515 118.729 44.1309C118.24 43.7402 117.492 43.5449 116.482 43.5449H112.947V48.0469ZM112.947 41.709H116.17C117.166 41.709 117.889 41.5365 118.338 41.1914C118.794 40.8464 119.021 40.3516 119.021 39.707C119.021 39.0299 118.797 38.5352 118.348 38.2227C117.898 37.9102 117.173 37.7539 116.17 37.7539H112.947V41.709ZM124.666 35.7812H127.381V47.9102H132.811V35.7812H135.516V47.9102H140.955V35.7812H143.66V47.9102H145.545V52.8223H143.025V50H124.666V35.7812ZM160.691 50H158.035V40.4785C158.035 40.2702 158.038 40.0423 158.045 39.7949C158.051 39.541 158.061 39.3132 158.074 39.1113H157.957C157.859 39.3066 157.762 39.4987 157.664 39.6875C157.573 39.8763 157.443 40.0814 157.273 40.3027L150.271 50H147.4V35.7812H150.066V45.293C150.066 45.4948 150.06 45.7194 150.047 45.9668C150.04 46.2142 150.034 46.4421 150.027 46.6504H150.164C150.236 46.4876 150.324 46.3021 150.428 46.0938C150.538 45.8854 150.665 45.6803 150.809 45.4785L157.82 35.7812H160.691V50ZM173.963 50L167.42 43.1836L169.393 41.7773L177.293 50H173.963ZM165.281 41.6211H167.947L173.865 35.7812H176.805L168.514 43.7305H165.281V41.6211ZM163.924 50V35.7812H166.639V50H163.924ZM191.746 50H189.09V40.4785C189.09 40.2702 189.093 40.0423 189.1 39.7949C189.106 39.541 189.116 39.3132 189.129 39.1113H189.012C188.914 39.3066 188.816 39.4987 188.719 39.6875C188.628 39.8763 188.497 40.0814 188.328 40.3027L181.326 50H178.455V35.7812H181.121V45.293C181.121 45.4948 181.115 45.7194 181.102 45.9668C181.095 46.2142 181.089 46.4421 181.082 46.6504H181.219C181.29 46.4876 181.378 46.3021 181.482 46.0938C181.593 45.8854 181.72 45.6803 181.863 45.4785L188.875 35.7812H191.746V50ZM46.9023 73H44.2461V63.4785C44.2461 63.2702 44.2493 63.0423 44.2559 62.7949C44.2624 62.541 44.2721 62.3132 44.2852 62.1113H44.168C44.0703 62.3066 43.9727 62.4987 43.875 62.6875C43.7839 62.8763 43.6536 63.0814 43.4844 63.3027L36.4824 73H33.6113V58.7812H36.2773V68.293C36.2773 68.4948 36.2708 68.7194 36.2578 68.9668C36.2513 69.2142 36.2448 69.4421 36.2383 69.6504H36.375C36.4466 69.4876 36.5345 69.3021 36.6387 69.0938C36.7493 68.8854 36.8763 68.6803 37.0195 68.4785L44.0312 58.7812H46.9023V73ZM54.5879 66.1641V65.6172C54.5879 63.2279 55.2682 61.444 56.6289 60.2656C57.9896 59.0807 59.7441 58.4883 61.8926 58.4883C63.8783 58.4883 65.4603 58.9082 66.6387 59.748C67.8171 60.5814 68.4681 61.8216 68.5918 63.4688L68.6113 63.6738H65.8672L65.8574 63.459C65.7663 62.4759 65.3789 61.7533 64.6953 61.291C64.0182 60.8223 63.0742 60.5879 61.8633 60.5879C60.5221 60.5879 59.4382 60.985 58.6113 61.7793C57.791 62.5736 57.3809 63.791 57.3809 65.4316V66.3496C57.3809 68.0618 57.791 69.2988 58.6113 70.0605C59.4382 70.8223 60.5221 71.2031 61.8633 71.2031C63.2174 71.2031 64.2005 70.9395 64.8125 70.4121C65.4245 69.8783 65.7728 69.1816 65.8574 68.3223L65.8672 68.1172H68.6113L68.6016 68.332C68.4909 69.8555 67.8659 71.0632 66.7266 71.9551C65.5938 72.847 63.9857 73.293 61.9023 73.293C59.7409 73.293 57.9798 72.7135 56.6191 71.5547C55.265 70.3893 54.5879 68.5924 54.5879 66.1641ZM69.2363 60.8906V58.7812H82.3125V60.8906H77.1367V73H74.4219V60.8906H69.2363ZM84.1582 73V58.7812H90.3594C92.1888 58.7812 93.5885 59.1719 94.5586 59.9531C95.5352 60.7344 96.0234 61.877 96.0234 63.3809C96.0234 64.8522 95.5384 65.9948 94.5684 66.8086C93.5983 67.6224 92.1921 68.0163 90.3496 67.9902H86.873V73H84.1582ZM86.873 65.9785H90.1152C91.2871 65.9785 92.1139 65.7539 92.5957 65.3047C93.0775 64.849 93.3184 64.2109 93.3184 63.3906C93.3184 62.5638 93.0775 61.9323 92.5957 61.4961C92.1139 61.0534 91.2871 60.832 90.1152 60.832H86.873V65.9785ZM97.4785 66.1445V65.6074C97.4785 63.2376 98.1686 61.4603 99.5488 60.2754C100.929 59.084 102.693 58.4883 104.842 58.4883C106.984 58.4883 108.748 59.084 110.135 60.2754C111.528 61.4603 112.225 63.2376 112.225 65.6074V66.1445C112.225 68.5339 111.528 70.3242 110.135 71.5156C108.748 72.7005 106.984 73.293 104.842 73.293C102.693 73.293 100.929 72.7005 99.5488 71.5156C98.1686 70.3242 97.4785 68.5339 97.4785 66.1445ZM100.262 66.3105C100.262 67.9902 100.678 69.2272 101.512 70.0215C102.352 70.8092 103.462 71.2031 104.842 71.2031C106.222 71.2031 107.335 70.8092 108.182 70.0215C109.028 69.2272 109.451 67.9902 109.451 66.3105V65.4609C109.451 63.7812 109.028 62.5508 108.182 61.7695C107.342 60.9818 106.229 60.5879 104.842 60.5879C103.462 60.5879 102.352 60.9818 101.512 61.7695C100.678 62.5508 100.262 63.778 100.262 65.4512V66.3105ZM128.094 73H125.438V63.4785C125.438 63.2702 125.441 63.0423 125.447 62.7949C125.454 62.541 125.464 62.3132 125.477 62.1113H125.359C125.262 62.3066 125.164 62.4987 125.066 62.6875C124.975 62.8763 124.845 63.0814 124.676 63.3027L117.674 73H114.803V58.7812H117.469V68.293C117.469 68.4948 117.462 68.7194 117.449 68.9668C117.443 69.2142 117.436 69.4421 117.43 69.6504H117.566C117.638 69.4876 117.726 69.3021 117.83 69.0938C117.941 68.8854 118.068 68.6803 118.211 68.4785L125.223 58.7812H128.094V73ZM129.939 60.8906V58.7812H143.016V60.8906H137.84V73H135.125V60.8906H129.939ZM144.861 73V58.7812H155.672V60.8809H147.547V64.6699H154.676V66.7109H147.547V70.9102H155.789V73H144.861ZM159.744 58.7812H171.16V73H168.455V60.8711H162.029L161.668 67.5898C161.577 69.4518 161.274 70.8646 160.76 71.8281C160.245 72.7917 159.269 73.2734 157.83 73.2734C157.609 73.2734 157.397 73.2572 157.195 73.2246C156.993 73.1986 156.795 73.1497 156.6 73.0781V70.7734C156.749 70.8255 156.889 70.8613 157.02 70.8809C157.156 70.9004 157.296 70.9102 157.439 70.9102C158.084 70.9102 158.536 70.6367 158.797 70.0898C159.057 69.543 159.223 68.5924 159.295 67.2383L159.744 58.7812ZM174.471 58.7812H177.186V63.918H181.111C182.869 63.918 184.171 64.3411 185.018 65.1875C185.864 66.0339 186.287 67.1211 186.287 68.4492C186.287 69.8555 185.864 70.9655 185.018 71.7793C184.171 72.5931 182.869 73 181.111 73H174.471V58.7812ZM177.186 65.9688V70.9492H180.916C181.88 70.9492 182.563 70.7311 182.967 70.2949C183.37 69.8522 183.572 69.237 183.572 68.4492C183.572 67.7396 183.37 67.1504 182.967 66.6816C182.563 66.2064 181.88 65.9688 180.916 65.9688H177.186ZM188.436 73V58.7812H191.15V64.6113H198.885V58.7812H201.59V73H198.885V66.7207H191.15V73H188.436ZM204.822 58.7812H207.537V63.918H211.463C213.221 63.918 214.523 64.3411 215.369 65.1875C216.215 66.0339 216.639 67.1211 216.639 68.4492C216.639 69.8555 216.215 70.9655 215.369 71.7793C214.523 72.5931 213.221 73 211.463 73H204.822V58.7812ZM207.537 65.9688V70.9492H211.268C212.231 70.9492 212.915 70.7311 213.318 70.2949C213.722 69.8522 213.924 69.237 213.924 68.4492C213.924 67.7396 213.722 67.1504 213.318 66.6816C212.915 66.2064 212.231 65.9688 211.268 65.9688H207.537ZM218.436 73H221.17V58.7812H218.436V73ZM224.393 73V58.7812H235.203V60.8809H227.078V64.6699H234.207V66.7109H227.078V70.9102H235.32V73H224.393ZM33.6113 96V81.7812H36.8242L41.5996 92.0352C41.6973 92.2435 41.7949 92.4551 41.8926 92.6699C41.9902 92.8783 42.0651 93.0573 42.1172 93.207H42.1758C42.2279 93.0573 42.2962 92.8783 42.3809 92.6699C42.4655 92.4551 42.5534 92.2435 42.6445 92.0352L47.4785 81.7812H50.7598V96H48.084L48.0938 86.3516C48.0938 86.1497 48.1003 85.9349 48.1133 85.707C48.1263 85.4727 48.1393 85.2578 48.1523 85.0625H48.084C48.0384 85.2578 47.9798 85.4727 47.9082 85.707C47.8431 85.9349 47.765 86.1497 47.6738 86.3516L43.1621 96H40.8574L36.3652 86.3516C36.2676 86.1562 36.1829 85.9447 36.1113 85.7168C36.0397 85.4824 35.9811 85.2643 35.9355 85.0625H35.8672C35.8802 85.2643 35.8932 85.4824 35.9062 85.7168C35.9258 85.9447 35.9355 86.1595 35.9355 86.3613V96H33.6113ZM52.2246 96L58.4062 81.7129H61.0723L67.2637 96H64.3145L60.2031 85.9219C60.0794 85.6289 59.9753 85.349 59.8906 85.082C59.806 84.8086 59.7279 84.5482 59.6562 84.3008H59.5586C59.4805 84.5482 59.3991 84.8086 59.3145 85.082C59.2298 85.3555 59.1289 85.6354 59.0117 85.9219L54.8711 96H52.2246ZM55.0859 92.6699L55.8477 90.6484H63.5039L64.2656 92.6699H55.0859ZM67.3613 83.8906V81.7812H80.4375V83.8906H75.2617V96H72.5469V83.8906H67.3613ZM82.2832 96V81.7812H93.0938V83.8809H84.9688V87.6699H92.0977V89.7109H84.9688V93.9102H93.2109V96H82.2832ZM95.5059 96V81.7812H101.707C103.536 81.7812 104.936 82.1719 105.906 82.9531C106.883 83.7344 107.371 84.877 107.371 86.3809C107.371 87.8522 106.886 88.9948 105.916 89.8086C104.946 90.6224 103.54 91.0163 101.697 90.9902H98.2207V96H95.5059ZM98.2207 88.9785H101.463C102.635 88.9785 103.462 88.7539 103.943 88.3047C104.425 87.849 104.666 87.2109 104.666 86.3906C104.666 85.5638 104.425 84.9323 103.943 84.4961C103.462 84.0534 102.635 83.832 101.463 83.832H98.2207V88.9785ZM122.762 96H120.105V86.4785C120.105 86.2702 120.109 86.0423 120.115 85.7949C120.122 85.541 120.132 85.3132 120.145 85.1113H120.027C119.93 85.3066 119.832 85.4987 119.734 85.6875C119.643 85.8763 119.513 86.0814 119.344 86.3027L112.342 96H109.471V81.7812H112.137V91.293C112.137 91.4948 112.13 91.7194 112.117 91.9668C112.111 92.2142 112.104 92.4421 112.098 92.6504H112.234C112.306 92.4876 112.394 92.3021 112.498 92.0938C112.609 91.8854 112.736 91.6803 112.879 91.4785L119.891 81.7812H122.762V96ZM124.236 96L130.418 81.7129H133.084L139.275 96H136.326L132.215 85.9219C132.091 85.6289 131.987 85.349 131.902 85.082C131.818 84.8086 131.74 84.5482 131.668 84.3008H131.57C131.492 84.5482 131.411 84.8086 131.326 85.082C131.242 85.3555 131.141 85.6354 131.023 85.9219L126.883 96H124.236ZM127.098 92.6699L127.859 90.6484H135.516L136.277 92.6699H127.098ZM142.42 81.7812H153.836V96H151.131V83.8711H144.705L144.344 90.5898C144.253 92.4518 143.95 93.8646 143.436 94.8281C142.921 95.7917 141.945 96.2734 140.506 96.2734C140.285 96.2734 140.073 96.2572 139.871 96.2246C139.669 96.1986 139.471 96.1497 139.275 96.0781V93.7734C139.425 93.8255 139.565 93.8613 139.695 93.8809C139.832 93.9004 139.972 93.9102 140.115 93.9102C140.76 93.9102 141.212 93.6367 141.473 93.0898C141.733 92.543 141.899 91.5924 141.971 90.2383L142.42 81.7812ZM157.146 81.7812H159.861V86.918H163.787C165.545 86.918 166.847 87.3411 167.693 88.1875C168.54 89.0339 168.963 90.1211 168.963 91.4492C168.963 92.8555 168.54 93.9655 167.693 94.7793C166.847 95.5931 165.545 96 163.787 96H157.146V81.7812ZM159.861 88.9688V93.9492H163.592C164.555 93.9492 165.239 93.7311 165.643 93.2949C166.046 92.8522 166.248 92.237 166.248 91.4492C166.248 90.7396 166.046 90.1504 165.643 89.6816C165.239 89.2064 164.555 88.9688 163.592 88.9688H159.861ZM170.76 96H173.494V81.7812H170.76V96Z" fill="#262626"/>
</g>
</g>
</g>
<defs>
<clipPath id="clip0_1097_25796">
<rect width="384" height="240" rx="32" fill="white"/>
</clipPath>
<clipPath id="clip1_1097_25796">
<rect width="65" height="62" fill="white" transform="translate(137 120)"/>
</clipPath>
<clipPath id="clip2_1097_25796">
<rect width="313" height="60" fill="white" transform="translate(93 180)"/>
</clipPath>
<clipPath id="clip3_1097_25796">
<rect width="293" height="216" fill="white" transform="translate(202 24)"/>
</clipPath>
</defs>
</svg>
