<svg width="384" height="240" viewBox="18 10 384 240" fill="none" xmlns="http://www.w3.org/2000/svg">
<g filter="url(#filter0_d_1097_25798)">
<g clip-path="url(#clip0_1097_25798)">
<rect x="19" y="9" width="384" height="240" rx="32" fill="#7099ED"/>
<g clip-path="url(#clip1_1097_25798)">
<path d="M211.052 152.828H211.045V140.639H211.052C211.521 140.639 211.902 140.258 211.902 139.789C211.902 139.32 211.521 138.939 211.052 138.939H211.045V132.521H181.962V138.932H181.955C181.486 138.932 181.105 139.313 181.105 139.782C181.105 140.251 181.486 140.632 181.955 140.632H181.962V152.821H181.955C181.486 152.821 181.105 153.202 181.105 153.671C181.105 154.14 181.486 154.521 181.955 154.521H181.962V159.986H211.045V154.521H211.052C211.521 154.521 211.902 154.14 211.902 153.671C211.902 153.202 211.521 152.821 211.052 152.821V152.828Z" fill="#FF8B63" stroke="#262626" stroke-miterlimit="10"/>
<path d="M209.197 140.639H205.457" stroke="#262626" stroke-miterlimit="10"/>
<path d="M210.876 154.527H204.512" stroke="#262626" stroke-miterlimit="10"/>
<path d="M203.729 154.527H201.934" stroke="#262626" stroke-miterlimit="10"/>
<path d="M182.146 129.34H210.862C211.44 129.34 211.909 129.809 211.909 130.387V132.528H181.105V130.387C181.105 129.809 181.575 129.34 182.153 129.34H182.146Z" fill="#FF8B63" stroke="#262626" stroke-miterlimit="10"/>
<path d="M197.902 136.561L212.964 148.451C213.556 148.92 213.222 149.872 212.468 149.872H211.019" stroke="#262626" stroke-miterlimit="10"/>
<path d="M198.249 138.17C198.906 138.17 199.439 137.638 199.439 136.981C199.439 136.324 198.906 135.791 198.249 135.791C197.591 135.791 197.059 136.324 197.059 136.981C197.059 137.638 197.591 138.17 198.249 138.17Z" stroke="#262626" stroke-miterlimit="10"/>
<path d="M218.451 183.487H218.444V171.298H218.451C218.92 171.298 219.301 170.917 219.301 170.448C219.301 169.979 218.92 169.598 218.451 169.598H218.444V163.188H189.361V169.598H189.354C188.885 169.598 188.504 169.979 188.504 170.448C188.504 170.917 188.885 171.298 189.354 171.298H189.361V183.487H189.354C188.885 183.487 188.504 183.868 188.504 184.337C188.504 184.806 188.885 185.187 189.354 185.187H189.361V190.652H218.444V185.187H218.451C218.92 185.187 219.301 184.806 219.301 184.337C219.301 183.868 218.92 183.487 218.451 183.487Z" fill="#FF8B63" stroke="#262626" stroke-miterlimit="10"/>
<path d="M216.594 171.291H212.848" stroke="#262626" stroke-miterlimit="10"/>
<path d="M218.271 185.188H211.906" stroke="#262626" stroke-miterlimit="10"/>
<path d="M211.119 185.188H209.324" stroke="#262626" stroke-miterlimit="10"/>
<path d="M189.543 160H218.259C218.837 160 219.306 160.469 219.306 161.047V163.188H188.496V161.047C188.496 160.469 188.965 160 189.543 160Z" fill="#FF8B63" stroke="#262626" stroke-miterlimit="10"/>
<path d="M205.293 167.213L220.355 179.103C220.946 179.572 220.613 180.524 219.858 180.524H218.41" stroke="#262626" stroke-miterlimit="10"/>
<path d="M205.639 168.831C206.296 168.831 206.829 168.298 206.829 167.641C206.829 166.984 206.296 166.451 205.639 166.451C204.982 166.451 204.449 166.984 204.449 167.641C204.449 168.298 204.982 168.831 205.639 168.831Z" stroke="#262626" stroke-miterlimit="10"/>
<path d="M186.286 183.487H186.28V171.298H186.286C186.756 171.298 187.136 170.917 187.136 170.448C187.136 169.979 186.756 169.598 186.286 169.598H186.28V163.188H157.197V169.598H157.19C156.721 169.598 156.34 169.979 156.34 170.448C156.34 170.917 156.721 171.298 157.19 171.298H157.197V183.487H157.19C156.721 183.487 156.34 183.868 156.34 184.337C156.34 184.806 156.721 185.187 157.19 185.187H157.197V190.652H186.28V185.187H186.286C186.756 185.187 187.136 184.806 187.136 184.337C187.136 183.868 186.756 183.487 186.286 183.487Z" fill="#FF8B63" stroke="#262626" stroke-miterlimit="10"/>
<path d="M184.431 171.291H180.691" stroke="#262626" stroke-miterlimit="10"/>
<path d="M186.118 185.188H179.746" stroke="#262626" stroke-miterlimit="10"/>
<path d="M178.963 185.188H177.168" stroke="#262626" stroke-miterlimit="10"/>
<path d="M157.387 160H186.096C186.674 160 187.143 160.469 187.143 161.047V163.188H156.34V161.047C156.34 160.469 156.809 160 157.387 160Z" fill="#FF8B63" stroke="#262626" stroke-miterlimit="10"/>
<path d="M173.137 167.213L188.198 179.103C188.79 179.572 188.457 180.524 187.702 180.524H186.254" stroke="#262626" stroke-miterlimit="10"/>
<path d="M173.483 168.831C174.14 168.831 174.673 168.298 174.673 167.641C174.673 166.984 174.14 166.451 173.483 166.451C172.826 166.451 172.293 166.984 172.293 167.641C172.293 168.298 172.826 168.831 173.483 168.831Z" stroke="#262626" stroke-miterlimit="10"/>
</g>
<g clip-path="url(#clip2_1097_25798)">
<path d="M424.149 238.883H127.93V248.621H424.149V238.883Z" fill="white" stroke="#262626" stroke-miterlimit="10"/>
<path d="M423.728 228.771H153.125V238.509H423.728V228.771Z" fill="white" stroke="#262626" stroke-miterlimit="10"/>
<path d="M413.095 218.662H142.492V228.4H413.095V218.662Z" fill="white" stroke="#262626" stroke-miterlimit="10"/>
<path d="M383.286 208.553H112.684V218.291H383.286V208.553Z" fill="white" stroke="#262626" stroke-miterlimit="10"/>
<path d="M418.193 198.936H147.59V208.673H418.193V198.936Z" fill="white" stroke="#262626" stroke-miterlimit="10"/>
<path d="M424.314 189.379H153.711V199.117H424.314V189.379Z" fill="white" stroke="#262626" stroke-miterlimit="10"/>
</g>
<g clip-path="url(#clip3_1097_25798)">
<path d="M431.25 163.873C448.021 163.873 461.616 152.03 461.616 137.421C461.616 122.812 448.021 110.969 431.25 110.969C414.478 110.969 400.883 122.812 400.883 137.421C400.883 152.03 414.478 163.873 431.25 163.873Z" fill="#231F20" stroke="#231F20" stroke-miterlimit="10" stroke-linecap="round"/>
<path d="M386.938 107.092C384.056 107.092 380.427 106.011 376.748 103.878C373.726 102.126 371.174 99.9282 369.562 97.6924C367.682 95.0872 367.234 92.6305 368.304 90.7718C369.369 88.917 371.713 88.0752 374.902 88.4066C377.64 88.6923 380.81 89.812 383.828 91.5641C390.661 95.5252 394.29 101.162 392.273 104.67C391.34 106.293 389.414 107.092 386.938 107.092ZM373.601 91.5755C372.334 91.5755 371.39 91.8688 371.094 92.3906C370.723 93.0343 371.148 94.3673 372.171 95.7918C373.506 97.6429 375.762 99.5663 378.36 101.075C383.972 104.327 388.693 104.419 389.478 103.055C390.263 101.688 387.821 97.6277 382.213 94.3712C379.615 92.8629 376.828 91.865 374.564 91.6288C374.227 91.5945 373.904 91.5755 373.601 91.5755Z" fill="#231F20"/>
<path d="M380.971 96.0669L380.968 96.0653C378.28 94.8567 375.126 96.0652 373.923 98.7646L368.837 110.174C367.634 112.873 368.837 116.041 371.524 117.25L371.528 117.251C374.215 118.46 377.369 117.251 378.573 114.552L383.659 103.143C384.862 100.444 383.659 97.2755 380.971 96.0669Z" fill="#231F20"/>
<path d="M475.266 143.09H394.765C393.1 143.09 391.75 144.446 391.75 146.118V162.195C391.75 163.867 393.1 165.223 394.765 165.223H475.266C476.931 165.223 478.281 163.867 478.281 162.195V146.118C478.281 144.446 476.931 143.09 475.266 143.09Z" fill="#231F20"/>
<path d="M379.384 100.982L386.817 105.88C387.518 106.345 387.867 107.194 387.689 108.017L386.305 114.454C386.051 115.627 384.852 116.328 383.715 115.97L383.389 115.867C382.353 115.543 381.246 116.092 380.875 117.116L375.088 133.098L365.684 130.668L379.388 100.979L379.384 100.982Z" fill="#231F20"/>
<path d="M368.443 100.982H379.387L367.564 133.913L353.59 133.102L367.211 101.794C367.423 101.302 367.909 100.982 368.443 100.982Z" fill="#231F20"/>
<path d="M319.238 185.732L310.785 184.136L313.845 167.8C321.031 129.431 331.236 91.3085 344.17 54.4927L346.798 47.0085C349.183 40.2212 355.6 35.6621 362.763 35.6621H420.231V143.142H411.631V44.3004H362.763C359.236 44.3004 356.077 46.5438 354.906 49.8841L352.278 57.3684C339.487 93.7689 329.4 131.461 322.294 169.4L319.234 185.736L319.238 185.732Z" fill="#231F20"/>
<path d="M444.17 102.061C444.284 97.0715 443.806 92.5695 443.081 88.6883C443.294 88.6655 443.741 88.5893 444.2 88.2618C444.477 88.0637 444.67 87.839 444.799 87.6485C444.913 87.4771 444.966 87.2753 444.955 87.0696C444.905 86.0451 444.856 85.0243 444.807 83.9959C444.788 83.6417 444.587 83.318 444.272 83.1504C443.423 82.6933 442.456 82.2515 441.375 81.8782L441.436 81.7792C441.549 80.0119 441.637 78.1913 441.694 76.3174C441.701 75.9975 441.709 75.6775 441.72 75.3576C441.788 72.2953 441.762 69.3588 441.663 66.5631L441.671 66.4565L443.794 66.5555L443.847 65.4052L443.942 63.4437C444.246 56.9802 439.278 51.4918 432.843 51.187C428.82 50.9966 425.175 52.8781 422.934 55.8909C421.592 57.7001 420.75 59.9168 420.636 62.3354C420.587 63.4209 419.669 64.255 418.589 64.2055L418.027 64.1788L417.971 65.3291L420.488 65.4509L422.912 65.5652C421.615 71.6478 423.662 76.824 427.075 78.2104C427.477 78.3742 428.198 78.6065 429.233 78.5951L429.119 81.6078C427.879 81.943 426.863 82.3277 426.139 82.6324C425.558 83.7217 424.974 84.8072 424.394 85.8965C421.16 87.5838 417.606 90.2499 414.061 93.754C413.632 93.6207 413.318 93.6702 413.139 93.7236C412.635 93.8683 412.214 94.3063 411.96 94.9271C410.841 94.969 409.692 94.9843 408.517 94.9652C402.503 94.8776 397.099 93.9711 392.439 92.7447C392.2 92.4171 391.972 92.3105 391.786 92.2953C391.419 92.2648 390.998 92.5771 390.611 93.0989L390.535 93.038C390.103 92.7866 389.496 92.4933 388.73 92.2953C388.127 92.1391 387.585 92.0858 387.156 92.0744C387.073 91.9829 386.258 91.0879 385.458 91.3012C385.382 91.3202 385.215 91.3697 385.082 91.5145C384.809 91.823 384.851 92.4057 385.188 92.9885C384.76 92.9885 382.568 92.9885 382.109 94.0587C382.083 94.1159 381.874 94.6339 382.132 95.0643C382.246 95.2585 382.416 95.3651 382.526 95.4223C381.707 95.5327 381.108 95.8222 380.881 96.2945C380.854 96.3516 380.695 96.6754 380.808 97.0144C380.964 97.4828 381.59 97.799 382.45 97.8447V97.8675C381.798 97.8523 381.294 98.0808 381.157 98.3703C381.051 98.5988 381.07 98.8197 381.07 98.8197C381.07 98.8197 381.085 98.9797 381.161 99.1358C381.256 99.3263 381.571 99.4939 382.011 99.5815C381.392 99.6348 380.915 99.9128 380.79 100.313C380.733 100.492 380.748 100.69 380.808 100.823C381.184 101.65 383.721 101.2 383.846 101.181C384.908 101.345 385.833 101.353 386.55 101.318C386.997 101.295 387.824 101.231 388.836 101.002C389.587 100.835 390.228 100.625 390.74 100.423C390.998 100.595 391.237 100.69 391.407 100.739C391.43 100.907 391.453 101.071 391.476 101.223C392.643 101.783 394.414 102.59 396.621 103.432C401.543 105.306 408.35 107.896 415.316 108.182L415.422 109.347L404.076 124.617C403.693 125.199 403.31 125.782 402.924 126.365C403.853 126.692 404.778 127.02 405.703 127.344C402.772 132.291 399.731 137.304 396.58 142.373C393.804 146.829 391.032 151.19 388.267 155.453C387.873 155.578 387.646 155.776 387.513 155.929C387.081 156.431 386.997 157.235 387.259 158.122C386.641 159.117 385.988 160.114 385.298 161.128C381.95 166.014 378.359 170.113 374.844 173.537C374.726 173.441 374.267 173.099 373.763 173.221C373.763 173.221 373.331 173.327 373.001 173.898C372.785 174.279 372.845 174.942 373.054 175.711H373.05C372.553 176.035 372.06 176.355 371.567 176.675C371.192 176.386 369.326 174.999 367.146 175.521C366.619 175.647 366.175 175.86 365.819 176.085C365.064 177.113 364.309 178.141 363.555 179.17C364.469 179.84 365.379 180.518 366.289 181.188C373.277 186.395 380.266 191.598 387.255 196.801C387.646 196.107 388.036 195.414 388.427 194.721C388.65 194.824 388.878 194.923 389.121 195.014C393.629 189.69 398.237 183.283 402.362 175.692C403.383 173.822 404.319 171.975 405.18 170.158C405.745 169.914 406.173 169.499 406.363 168.981C406.56 168.444 406.447 167.93 406.359 167.66C407.978 163.367 409.643 159.817 410.974 157.201L417.239 146.498C417.652 146.258 418.111 145.931 418.558 145.489C419.226 144.83 419.631 144.156 419.87 143.676C420.902 143.245 421.983 142.659 423.052 141.874C426.249 139.524 427.697 136.58 428.262 135.236V135.228C429.957 135.818 431.652 136.405 433.347 136.991C437.53 130.33 443.802 118.085 444.17 102.057V102.061Z" fill="#231F20" stroke="#231F20" stroke-miterlimit="10" stroke-linecap="round"/>
<path d="M405.66 228.192C405.66 226.345 405.47 224.563 405.125 222.875C403.563 213.628 397.689 206.749 390.674 206.749H382.536C381.338 206.749 380.173 206.943 379.055 207.305C380.026 206.318 381.11 205.393 382.335 204.559C388 200.701 393.912 200.32 396.737 200.339C398.489 197.322 400.241 194.302 401.997 191.285C402.22 190.901 402.338 190.459 402.338 190.013V145.805C402.338 144.411 401.212 143.279 399.824 143.279H390.025C388.637 143.279 387.511 144.411 387.511 145.805V147.857C387.511 148.417 387.325 148.962 386.984 149.404C384.019 153.239 381.057 157.075 378.092 160.906L332.621 201.744H319.675L319.326 196.522L316.827 189.491L308.026 181.657L297.624 179.196H264.971V180.274L271.069 189.796C263.31 194.656 257.914 205.416 257.914 217.92C257.914 234.98 267.955 248.809 280.34 248.809H292.297C299.577 248.809 306.016 243.763 309.983 236.012C311.135 233.966 312.091 231.689 312.808 229.232L321.495 229.091H367.292C367.785 240.095 374.417 248.809 382.528 248.809H390.666C395.622 248.809 400.006 245.374 402.706 240.099C404.545 236.831 405.648 232.698 405.648 228.196L405.66 228.192Z" fill="#231F20"/>
<path d="M456.284 172.416H390.992V205.564H456.284V172.416Z" fill="#7099ED" stroke="#231F20" stroke-miterlimit="10"/>
<path d="M445.448 150.215H315.567C313.638 150.215 312.074 151.785 312.074 153.723V168.908C312.074 170.846 313.638 172.416 315.567 172.416H445.448C447.377 172.416 448.941 170.846 448.941 168.908V153.723C448.941 151.785 447.377 150.215 445.448 150.215Z" fill="#231F20" stroke="#231F20" stroke-miterlimit="10"/>
<path d="M299.531 154.725H391.591C392.986 154.725 394.116 155.863 394.116 157.261V184.079H299.531V154.725Z" fill="white" stroke="#231F20" stroke-miterlimit="10"/>
<path d="M325.271 153.681H318.282C317.505 153.681 316.879 153.049 316.879 152.272V137.547C316.879 137.113 317.08 136.698 317.421 136.431L326.223 129.576C326.659 129.237 327.25 129.183 327.736 129.442H390.994L387.017 153.681H325.271Z" fill="white" stroke="#231F20" stroke-miterlimit="10"/>
<path d="M388.01 153.27L393.603 147.652C393.865 147.39 394.013 147.028 394.013 146.655V132.688C394.013 132.162 393.725 131.682 393.262 131.438L389.478 129.443C388.992 129.187 388.397 129.237 387.965 129.576L379.163 136.432C378.822 136.698 378.621 137.11 378.621 137.548V152.273C378.621 153.053 379.251 153.682 380.024 153.682H387.013C387.385 153.682 387.741 153.533 388.006 153.27H388.01Z" fill="white" stroke="#231F20" stroke-miterlimit="10"/>
<path d="M323.336 136.957H378.62" stroke="#231F20" stroke-miterlimit="10"/>
<path d="M323.224 38.3633H320.535V68.864H323.224V38.3633Z" fill="#7099ED" stroke="#231F20" stroke-miterlimit="10"/>
<path d="M323.492 33.1914H308.176V38.318H323.492V33.1914Z" fill="#7099ED" stroke="#231F20" stroke-miterlimit="10"/>
<path d="M322.953 63.7383H307.637V68.8649H322.953V63.7383Z" fill="#7099ED" stroke="#231F20" stroke-miterlimit="10"/>
<path d="M322.147 50.5105H318.386L317.309 38.0977H324.567L322.147 50.5105Z" fill="#7099ED" stroke="#231F20" stroke-miterlimit="10"/>
<path d="M320.267 42.9531H317.848C315.918 42.9531 314.355 44.9489 314.355 47.4056C314.355 49.8623 315.918 51.8581 317.848 51.8581H320.267C322.197 51.8581 323.76 49.8623 323.76 47.4056C323.76 44.9489 322.197 42.9531 320.267 42.9531Z" fill="#7099ED" stroke="#231F20" stroke-miterlimit="10"/>
<path d="M320.939 50.7796C322.051 50.7796 322.953 49.3302 322.953 47.5422C322.953 45.7542 322.051 44.3047 320.939 44.3047C319.827 44.3047 318.926 45.7542 318.926 47.5422C318.926 49.3302 319.827 50.7796 320.939 50.7796Z" fill="#7099ED" stroke="#231F20" stroke-miterlimit="10"/>
<path d="M317.041 144.443H314.891V48.0845C314.891 45.1099 317.302 42.6875 320.264 42.6875V42.9579C318.485 42.9579 317.041 44.4091 317.041 46.1954V144.443Z" fill="white" stroke="#231F20" stroke-miterlimit="10"/>
<path d="M345.526 37.2852H310.324V39.9856H345.526V37.2852Z" fill="#7099ED" stroke="#231F20" stroke-miterlimit="10"/>
<path d="M352.709 33.1914H331.637V213.949H352.709V33.1914Z" fill="#7099ED" stroke="#231F20" stroke-miterlimit="10"/>
<path d="M349.559 33.1914H338.945V213.949H349.559V33.1914Z" fill="white" stroke="#231F20" stroke-miterlimit="10"/>
<path d="M333.934 33.1914V213.949" stroke="#231F20" stroke-miterlimit="10"/>
<path d="M336.732 33.1914V54.1359C336.732 55.3852 335.723 56.3945 334.483 56.3945H333.934" stroke="#231F20" stroke-miterlimit="10"/>
<path d="M336.731 34.7988C336.527 34.9207 335.078 35.831 334.832 37.6097C334.623 39.1218 335.366 40.6605 336.731 41.529" stroke="#231F20" stroke-miterlimit="10"/>
<path d="M314.955 33.1914H293.883V213.949H314.955V33.1914Z" fill="#7099ED" stroke="#231F20" stroke-miterlimit="10"/>
<path d="M311.669 33.1914H301.191V213.949H311.669V33.1914Z" fill="white" stroke="#231F20" stroke-miterlimit="10"/>
<path d="M298.98 33.1914V213.949" stroke="#231F20" stroke-miterlimit="10"/>
<path d="M296.176 33.1914V54.1359C296.176 55.3852 297.184 56.3945 298.424 56.3945H298.974" stroke="#231F20" stroke-miterlimit="10"/>
<path d="M298.934 41.5293C298.729 41.4074 297.28 40.4971 297.034 38.7184C296.825 37.2063 297.568 35.6676 298.934 34.7992" stroke="#231F20" stroke-miterlimit="10"/>
<path d="M356.817 35.668H354.129V68.8691H356.817V35.668Z" fill="#7099ED" stroke="#231F20" stroke-miterlimit="10"/>
<path d="M356.812 33.1914H341.496V38.318H356.812V33.1914Z" fill="#7099ED" stroke="#231F20" stroke-miterlimit="10"/>
<path d="M356.812 63.7383H341.496V68.8649H356.812V63.7383Z" fill="#7099ED" stroke="#231F20" stroke-miterlimit="10"/>
<path d="M381.394 185.873L372.941 184.277L376.002 167.941C383.188 129.571 393.392 91.4491 406.327 54.6334L408.954 47.1491C411.34 40.3619 417.756 35.8027 424.919 35.8027H482.387V143.279H473.787V44.4411H424.919C421.392 44.4411 418.234 46.6844 417.062 50.0247L414.434 57.509C401.643 93.9096 391.557 131.601 384.45 169.541L381.39 185.876L381.394 185.873Z" fill="#231F20"/>
<path d="M387.583 94.6621L381.133 97.6309L382.476 100.574L388.926 97.6052L387.583 94.6621Z" fill="#231F20"/>
<path d="M371.012 94.1612L369.484 97.0117L376.473 100.791L378.001 97.9405L371.012 94.1612Z" fill="#231F20"/>
<path d="M456.783 35.666H398.199V43.4931H456.783V35.666Z" fill="#231F20"/>
<path d="M347.875 138.662H282.871C280.441 138.662 278.473 140.643 278.473 143.08V229.49H352.281V143.08C352.281 140.639 350.309 138.662 347.882 138.662H347.875ZM284.915 166.79H345.823V190.823H284.919V166.79H284.915ZM328.171 164.303V145.141H335.971V164.303H328.171ZM323.871 164.303H316.272V145.141H323.871V164.303ZM311.771 164.303H304.369V145.141H311.771V164.303ZM300.068 164.303H292.469V145.141H300.068V164.303ZM345.823 164.303H340.071V145.141H345.823V164.303ZM288.07 145.141V164.303H284.912V145.141H288.07ZM284.912 223.015V197.298H345.819V223.015H284.919H284.912Z" fill="#7099ED" stroke="#231F20" stroke-miterlimit="10"/>
<path d="M344.277 138.662H279.27C276.839 138.662 274.871 140.643 274.871 143.08V229.49H348.679V143.08C348.679 140.639 346.708 138.662 344.281 138.662H344.277ZM281.318 166.79H342.225V190.823H281.318V166.79ZM324.573 164.303V145.141H335.237V164.303H324.573ZM323.337 164.303H312.674V145.141H323.337V164.303ZM311.438 164.303H300.775V145.141H311.438V164.303ZM299.538 164.303H288.875V145.141H299.538V164.303ZM342.229 164.303H336.477V145.141H342.229V164.303ZM287.635 145.141V164.303H281.321V145.141H287.635ZM281.321 223.015V197.298H342.229V223.015H281.318H281.321Z" fill="#231F20"/>
<path d="M203.103 238.369H197.191V244.307H203.103V238.369Z" fill="#7099ED" stroke="#231F20" stroke-miterlimit="10"/>
<path d="M270.55 238.369H202.832V244.307H270.55V238.369Z" fill="#7099ED" stroke="#231F20" stroke-miterlimit="10"/>
<path d="M285.818 184.387H294.198L293.929 239.763C293.929 241.515 215.953 240.528 215.953 240.528L215.999 237.291L282.303 238.487C284.115 238.422 285.556 236.929 285.564 235.104L285.818 184.383V184.387Z" fill="white" stroke="#231F20" stroke-miterlimit="10"/>
<path d="M292.585 184.387H297.154L300.378 190.595H296.885V239.763C296.885 241.515 295.448 242.924 293.704 242.882L220.566 240.528V238.639L289.07 238.487C290.882 238.422 292.323 236.929 292.331 235.104L292.585 184.383V184.387Z" fill="white" stroke="#231F20" stroke-miterlimit="10"/>
<path d="M236.158 238.369H230.246V244.307H236.158V238.369Z" fill="#7099ED" stroke="#231F20" stroke-miterlimit="10"/>
<path d="M303.609 238.369H235.891V244.307H303.609V238.369Z" fill="#7099ED" stroke="#231F20" stroke-miterlimit="10"/>
<path d="M318.333 184.387H326.714L326.444 239.763C326.444 241.515 250.668 240.799 250.668 240.799V238.639L314.814 238.487C316.627 238.422 318.068 236.929 318.075 235.104L318.329 184.383L318.333 184.387Z" fill="white" stroke="#231F20" stroke-miterlimit="10"/>
<path d="M326.719 184.387H331.288L334.512 190.595H331.019V240.01C331.019 241.625 329.696 242.924 328.088 242.886L255.777 240.799V238.639L323.439 238.479C325.122 238.418 326.457 237.032 326.469 235.341L326.723 184.387H326.719Z" fill="white" stroke="#231F20" stroke-miterlimit="10"/>
<path d="M270.822 238.639H264.91V244.036H270.822V238.639Z" fill="#7099ED" stroke="#231F20" stroke-miterlimit="10"/>
<path d="M338.269 238.369H270.551V244.307H338.269V238.369Z" fill="#7099ED" stroke="#231F20" stroke-miterlimit="10"/>
<path d="M338.274 235.402H267.867V238.64H338.274V235.402Z" fill="#7099ED" stroke="#231F20" stroke-miterlimit="10"/>
<path d="M270.822 235.402H197.191V238.64H270.822V235.402Z" fill="#7099ED" stroke="#231F20" stroke-miterlimit="10"/>
<path d="M338.274 244.037H267.867V247.275H338.274V244.037Z" fill="#7099ED" stroke="#231F20" stroke-miterlimit="10"/>
<path d="M270.822 244.037H197.191V247.275H270.822V244.037Z" fill="#7099ED" stroke="#231F20" stroke-miterlimit="10"/>
<path d="M245.381 145.248H268.133V137.078H245.381V145.248Z" fill="#7099ED" stroke="#231F20" stroke-miterlimit="10"/>
<path d="M256.757 153.422H268.133V145.252H256.757V153.422Z" fill="#7099ED" stroke="#231F20" stroke-miterlimit="10"/>
<path d="M245.378 153.422H256.754V145.252H245.378V153.422Z" fill="#7099ED" stroke="#231F20" stroke-miterlimit="10"/>
<path d="M222.627 145.248H245.379V137.078H222.627V145.248Z" fill="#7099ED" stroke="#231F20" stroke-miterlimit="10"/>
<path d="M234.003 153.422H245.379V145.252H234.003V153.422Z" fill="#7099ED" stroke="#231F20" stroke-miterlimit="10"/>
<path d="M222.628 153.422H234.004V145.252H222.628V153.422Z" fill="#7099ED" stroke="#231F20" stroke-miterlimit="10"/>
<path d="M199.877 145.248H222.629V137.078H199.877V145.248Z" fill="#7099ED" stroke="#231F20" stroke-miterlimit="10"/>
<path d="M211.253 153.422H222.629V145.252H211.253V153.422Z" fill="#7099ED" stroke="#231F20" stroke-miterlimit="10"/>
<path d="M199.874 153.422H211.25V145.252H199.874V153.422Z" fill="#7099ED" stroke="#231F20" stroke-miterlimit="10"/>
<path d="M256.757 137.15H268.133V128.981H256.757V137.15Z" fill="#7099ED" stroke="#231F20" stroke-miterlimit="10"/>
<path d="M245.378 137.15H256.754V128.981H245.378V137.15Z" fill="#7099ED" stroke="#231F20" stroke-miterlimit="10"/>
<path d="M234.003 137.15H245.379V128.981H234.003V137.15Z" fill="#7099ED" stroke="#231F20" stroke-miterlimit="10"/>
<path d="M222.628 137.15H234.004V128.981H222.628V137.15Z" fill="#7099ED" stroke="#231F20" stroke-miterlimit="10"/>
<path d="M211.253 137.15H222.629V128.981H211.253V137.15Z" fill="#7099ED" stroke="#231F20" stroke-miterlimit="10"/>
<path d="M199.874 137.15H211.25V128.981H199.874V137.15Z" fill="#7099ED" stroke="#231F20" stroke-miterlimit="10"/>
<path d="M245.381 161.592H268.133V153.422H245.381V161.592Z" fill="#7099ED" stroke="#231F20" stroke-miterlimit="10"/>
<path d="M256.757 169.762H268.133V161.592H256.757V169.762Z" fill="#7099ED" stroke="#231F20" stroke-miterlimit="10"/>
<path d="M245.378 169.762H256.754V161.592H245.378V169.762Z" fill="#7099ED" stroke="#231F20" stroke-miterlimit="10"/>
<path d="M222.627 161.592H245.379V153.422H222.627V161.592Z" fill="#7099ED" stroke="#231F20" stroke-miterlimit="10"/>
<path d="M234.003 169.762H245.379V161.592H234.003V169.762Z" fill="#7099ED" stroke="#231F20" stroke-miterlimit="10"/>
<path d="M222.628 169.762H234.004V161.592H222.628V169.762Z" fill="#7099ED" stroke="#231F20" stroke-miterlimit="10"/>
<path d="M199.877 161.592H222.629V153.422H199.877V161.592Z" fill="#7099ED" stroke="#231F20" stroke-miterlimit="10"/>
<path d="M211.253 169.762H222.629V161.592H211.253V169.762Z" fill="#7099ED" stroke="#231F20" stroke-miterlimit="10"/>
<path d="M199.874 169.762H211.25V161.592H199.874V169.762Z" fill="#7099ED" stroke="#231F20" stroke-miterlimit="10"/>
<path d="M245.381 177.936H268.133V169.766H245.381V177.936Z" fill="#7099ED" stroke="#231F20" stroke-miterlimit="10"/>
<path d="M256.757 186.105H268.133V177.936H256.757V186.105Z" fill="#7099ED" stroke="#231F20" stroke-miterlimit="10"/>
<path d="M245.378 186.105H256.754V177.936H245.378V186.105Z" fill="#7099ED" stroke="#231F20" stroke-miterlimit="10"/>
<path d="M222.627 177.936H245.379V169.766H222.627V177.936Z" fill="#7099ED" stroke="#231F20" stroke-miterlimit="10"/>
<path d="M234.003 186.105H245.379V177.936H234.003V186.105Z" fill="#7099ED" stroke="#231F20" stroke-miterlimit="10"/>
<path d="M222.628 186.105H234.004V177.936H222.628V186.105Z" fill="#7099ED" stroke="#231F20" stroke-miterlimit="10"/>
<path d="M199.877 177.936H222.629V169.766H199.877V177.936Z" fill="#7099ED" stroke="#231F20" stroke-miterlimit="10"/>
<path d="M211.253 186.105H222.629V177.936H211.253V186.105Z" fill="#7099ED" stroke="#231F20" stroke-miterlimit="10"/>
<path d="M199.874 186.105H211.25V177.936H199.874V186.105Z" fill="#7099ED" stroke="#231F20" stroke-miterlimit="10"/>
<path d="M245.381 194.275H268.133V186.106H245.381V194.275Z" fill="#7099ED" stroke="#231F20" stroke-miterlimit="10"/>
<path d="M256.757 202.447H268.133V194.277H256.757V202.447Z" fill="#7099ED" stroke="#231F20" stroke-miterlimit="10"/>
<path d="M245.378 202.447H256.754V194.277H245.378V202.447Z" fill="#7099ED" stroke="#231F20" stroke-miterlimit="10"/>
<path d="M222.627 194.275H245.379V186.106H222.627V194.275Z" fill="#7099ED" stroke="#231F20" stroke-miterlimit="10"/>
<path d="M234.003 202.447H245.379V194.277H234.003V202.447Z" fill="#7099ED" stroke="#231F20" stroke-miterlimit="10"/>
<path d="M222.628 202.447H234.004V194.277H222.628V202.447Z" fill="#7099ED" stroke="#231F20" stroke-miterlimit="10"/>
<path d="M199.877 194.275H222.629V186.106H199.877V194.275Z" fill="#7099ED" stroke="#231F20" stroke-miterlimit="10"/>
<path d="M211.253 202.447H222.629V194.277H211.253V202.447Z" fill="#7099ED" stroke="#231F20" stroke-miterlimit="10"/>
<path d="M199.874 202.447H211.25V194.277H199.874V202.447Z" fill="#7099ED" stroke="#231F20" stroke-miterlimit="10"/>
<path d="M245.381 210.613H268.133V202.443H245.381V210.613Z" fill="#7099ED" stroke="#231F20" stroke-miterlimit="10"/>
<path d="M222.627 210.613H245.379V202.443H222.627V210.613Z" fill="#7099ED" stroke="#231F20" stroke-miterlimit="10"/>
<path d="M199.877 210.613H222.629V202.443H199.877V210.613Z" fill="#7099ED" stroke="#231F20" stroke-miterlimit="10"/>
<path d="M256.757 218.787H268.133V210.617H256.757V218.787Z" fill="#7099ED" stroke="#231F20" stroke-miterlimit="10"/>
<path d="M245.378 218.787H256.754V210.617H245.378V218.787Z" fill="#7099ED" stroke="#231F20" stroke-miterlimit="10"/>
<path d="M234.003 218.787H245.379V210.617H234.003V218.787Z" fill="#7099ED" stroke="#231F20" stroke-miterlimit="10"/>
<path d="M222.628 218.787H234.004V210.617H222.628V218.787Z" fill="#7099ED" stroke="#231F20" stroke-miterlimit="10"/>
<path d="M211.253 218.787H222.629V210.617H211.253V218.787Z" fill="#7099ED" stroke="#231F20" stroke-miterlimit="10"/>
<path d="M199.874 218.787H211.25V210.617H199.874V218.787Z" fill="#7099ED" stroke="#231F20" stroke-miterlimit="10"/>
<path d="M245.381 226.961H268.133V218.791H245.381V226.961Z" fill="#7099ED" stroke="#231F20" stroke-miterlimit="10"/>
<path d="M222.627 226.961H245.379V218.791H222.627V226.961Z" fill="#7099ED" stroke="#231F20" stroke-miterlimit="10"/>
<path d="M199.877 226.961H222.629V218.791H199.877V226.961Z" fill="#7099ED" stroke="#231F20" stroke-miterlimit="10"/>
<path d="M256.757 235.127H268.133V226.957H256.757V235.127Z" fill="#7099ED" stroke="#231F20" stroke-miterlimit="10"/>
<path d="M245.378 235.127H256.754V226.957H245.378V235.127Z" fill="#7099ED" stroke="#231F20" stroke-miterlimit="10"/>
<path d="M234.003 235.127H245.379V226.957H234.003V235.127Z" fill="#7099ED" stroke="#231F20" stroke-miterlimit="10"/>
<path d="M222.628 235.127H234.004V226.957H222.628V235.127Z" fill="#7099ED" stroke="#231F20" stroke-miterlimit="10"/>
<path d="M211.253 235.127H222.629V226.957H211.253V235.127Z" fill="#7099ED" stroke="#231F20" stroke-miterlimit="10"/>
<path d="M199.874 235.127H211.25V226.957H199.874V235.127Z" fill="#7099ED" stroke="#231F20" stroke-miterlimit="10"/>
<path d="M291.336 226.961H267.598V235.131H291.336V226.961Z" fill="white" stroke="#231F20" stroke-miterlimit="10"/>
<path d="M279.467 218.787H267.598V226.957H279.467V218.787Z" fill="white" stroke="#231F20" stroke-miterlimit="10"/>
<path d="M291.334 218.787H279.465V226.957H291.334V218.787Z" fill="white" stroke="#231F20" stroke-miterlimit="10"/>
<path d="M315.074 226.961H291.336V235.131H315.074V226.961Z" fill="white" stroke="#231F20" stroke-miterlimit="10"/>
<path d="M303.205 218.787H291.336V226.957H303.205V218.787Z" fill="white" stroke="#231F20" stroke-miterlimit="10"/>
<path d="M315.072 218.787H303.203V226.957H315.072V218.787Z" fill="white" stroke="#231F20" stroke-miterlimit="10"/>
<path d="M338.812 226.961H315.074V235.131H338.812V226.961Z" fill="white" stroke="#231F20" stroke-miterlimit="10"/>
<path d="M326.943 218.787H315.074V226.957H326.943V218.787Z" fill="white" stroke="#231F20" stroke-miterlimit="10"/>
<path d="M338.811 218.787H326.941V226.957H338.811V218.787Z" fill="white" stroke="#231F20" stroke-miterlimit="10"/>
<path d="M291.336 210.617H267.598V218.787H291.336V210.617Z" fill="white" stroke="#231F20" stroke-miterlimit="10"/>
<path d="M279.467 202.447H267.598V210.617H279.467V202.447Z" fill="white" stroke="#231F20" stroke-miterlimit="10"/>
<path d="M291.334 202.447H279.465V210.617H291.334V202.447Z" fill="white" stroke="#231F20" stroke-miterlimit="10"/>
<path d="M315.074 210.617H291.336V218.787H315.074V210.617Z" fill="white" stroke="#231F20" stroke-miterlimit="10"/>
<path d="M303.205 202.447H291.336V210.617H303.205V202.447Z" fill="white" stroke="#231F20" stroke-miterlimit="10"/>
<path d="M315.072 202.447H303.203V210.617H315.072V202.447Z" fill="white" stroke="#231F20" stroke-miterlimit="10"/>
<path d="M338.812 210.617H315.074V218.787H338.812V210.617Z" fill="white" stroke="#231F20" stroke-miterlimit="10"/>
<path d="M326.943 202.447H315.074V210.617H326.943V202.447Z" fill="white" stroke="#231F20" stroke-miterlimit="10"/>
<path d="M338.811 202.447H326.941V210.617H338.811V202.447Z" fill="white" stroke="#231F20" stroke-miterlimit="10"/>
<path d="M291.336 194.275H267.598V202.445H291.336V194.275Z" fill="white" stroke="#231F20" stroke-miterlimit="10"/>
<path d="M279.467 186.105H267.598V194.275H279.467V186.105Z" fill="white" stroke="#231F20" stroke-miterlimit="10"/>
<path d="M291.334 186.105H279.465V194.275H291.334V186.105Z" fill="white" stroke="#231F20" stroke-miterlimit="10"/>
<path d="M315.074 194.275H291.336V202.445H315.074V194.275Z" fill="white" stroke="#231F20" stroke-miterlimit="10"/>
<path d="M303.205 186.105H291.336V194.275H303.205V186.105Z" fill="white" stroke="#231F20" stroke-miterlimit="10"/>
<path d="M315.072 186.105H303.203V194.275H315.072V186.105Z" fill="white" stroke="#231F20" stroke-miterlimit="10"/>
<path d="M338.812 194.275H315.074V202.445H338.812V194.275Z" fill="white" stroke="#231F20" stroke-miterlimit="10"/>
<path d="M326.943 186.105H315.074V194.275H326.943V186.105Z" fill="white" stroke="#231F20" stroke-miterlimit="10"/>
<path d="M338.811 186.105H326.941V194.275H338.811V186.105Z" fill="white" stroke="#231F20" stroke-miterlimit="10"/>
<path d="M291.336 177.936H267.598V186.105H291.336V177.936Z" fill="white" stroke="#231F20" stroke-miterlimit="10"/>
<path d="M279.467 169.762H267.598V177.932H279.467V169.762Z" fill="white" stroke="#231F20" stroke-miterlimit="10"/>
<path d="M291.334 169.762H279.465V177.932H291.334V169.762Z" fill="white" stroke="#231F20" stroke-miterlimit="10"/>
<path d="M315.074 177.936H291.336V186.105H315.074V177.936Z" fill="white" stroke="#231F20" stroke-miterlimit="10"/>
<path d="M303.205 169.762H291.336V177.932H303.205V169.762Z" fill="white" stroke="#231F20" stroke-miterlimit="10"/>
<path d="M315.072 169.762H303.203V177.932H315.072V169.762Z" fill="white" stroke="#231F20" stroke-miterlimit="10"/>
<path d="M338.812 177.936H315.074V186.105H338.812V177.936Z" fill="white" stroke="#231F20" stroke-miterlimit="10"/>
<path d="M326.943 169.762H315.074V177.932H326.943V169.762Z" fill="white" stroke="#231F20" stroke-miterlimit="10"/>
<path d="M338.811 169.762H326.941V177.932H338.811V169.762Z" fill="white" stroke="#231F20" stroke-miterlimit="10"/>
<path d="M291.336 161.592H267.598V169.762H291.336V161.592Z" fill="white" stroke="#231F20" stroke-miterlimit="10"/>
<path d="M315.074 161.592H291.336V169.762H315.074V161.592Z" fill="white" stroke="#231F20" stroke-miterlimit="10"/>
<path d="M338.812 161.592H315.074V169.762H338.812V161.592Z" fill="white" stroke="#231F20" stroke-miterlimit="10"/>
<path d="M279.467 153.422H267.598V161.592H279.467V153.422Z" fill="white" stroke="#231F20" stroke-miterlimit="10"/>
<path d="M291.334 153.422H279.465V161.592H291.334V153.422Z" fill="white" stroke="#231F20" stroke-miterlimit="10"/>
<path d="M303.205 153.422H291.336V161.592H303.205V153.422Z" fill="white" stroke="#231F20" stroke-miterlimit="10"/>
<path d="M315.072 153.422H303.203V161.592H315.072V153.422Z" fill="white" stroke="#231F20" stroke-miterlimit="10"/>
<path d="M326.943 153.422H315.074V161.592H326.943V153.422Z" fill="white" stroke="#231F20" stroke-miterlimit="10"/>
<path d="M338.811 153.422H326.941V161.592H338.811V153.422Z" fill="white" stroke="#231F20" stroke-miterlimit="10"/>
<path d="M291.336 145.248H267.598V153.418H291.336V145.248Z" fill="white" stroke="#231F20" stroke-miterlimit="10"/>
<path d="M315.074 145.248H291.336V153.418H315.074V145.248Z" fill="white" stroke="#231F20" stroke-miterlimit="10"/>
<path d="M338.812 145.248H315.074V153.418H338.812V145.248Z" fill="white" stroke="#231F20" stroke-miterlimit="10"/>
<path d="M279.467 137.078H267.598V145.248H279.467V137.078Z" fill="white" stroke="#231F20" stroke-miterlimit="10"/>
<path d="M291.334 137.078H279.465V145.248H291.334V137.078Z" fill="white" stroke="#231F20" stroke-miterlimit="10"/>
<path d="M303.205 137.078H291.336V145.248H303.205V137.078Z" fill="white" stroke="#231F20" stroke-miterlimit="10"/>
<path d="M315.072 137.078H303.203V145.248H315.072V137.078Z" fill="white" stroke="#231F20" stroke-miterlimit="10"/>
<path d="M326.943 137.078H315.074V145.248H326.943V137.078Z" fill="white" stroke="#231F20" stroke-miterlimit="10"/>
<path d="M338.811 137.078H326.941V145.248H338.811V137.078Z" fill="white" stroke="#231F20" stroke-miterlimit="10"/>
<path d="M291.336 128.908H267.598V137.078H291.336V128.908Z" fill="white" stroke="#231F20" stroke-miterlimit="10"/>
<path d="M315.074 128.908H291.336V137.078H315.074V128.908Z" fill="white" stroke="#231F20" stroke-miterlimit="10"/>
<path d="M338.812 128.908H315.074V137.078H338.812V128.908Z" fill="white" stroke="#231F20" stroke-miterlimit="10"/>
<path d="M349.127 179.195V180.277L380.65 229.494L405.655 229.09L403.482 196.525L400.983 189.49L392.182 181.656L381.78 179.195H348.676" fill="#231F20"/>
<path d="M349.127 179.195V180.277L380.65 229.494L405.655 229.09L403.482 196.525L400.983 189.49L392.182 181.656L381.78 179.195H348.676" stroke="#231F20" stroke-miterlimit="10"/>
<path d="M376.457 187.031H364.5C352.116 187.031 342.074 200.861 342.074 217.92C342.074 234.98 352.116 248.81 364.5 248.81H376.457C388.512 248.81 398.284 234.98 398.284 217.92C398.284 200.861 388.512 187.031 376.457 187.031Z" fill="#7099ED" stroke="#262626" stroke-miterlimit="10"/>
<path d="M378.623 233.507C384.468 233.507 389.206 226.802 389.206 218.531C389.206 210.26 384.468 203.555 378.623 203.555C372.778 203.555 368.039 210.26 368.039 218.531C368.039 226.802 372.778 233.507 378.623 233.507Z" fill="white" stroke="#262626" stroke-miterlimit="10"/>
<path d="M380.797 218.529C380.797 221.058 379.349 223.111 377.559 223.111C375.769 223.111 374.32 221.058 374.32 218.529C374.32 216 375.769 213.947 377.559 213.947" stroke="#262626" stroke-miterlimit="10"/>
<path d="M375.849 229.092C379.971 229.092 383.312 224.364 383.312 218.531C383.312 212.697 379.971 207.969 375.849 207.969C371.728 207.969 368.387 212.697 368.387 218.531C368.387 224.364 371.728 229.092 375.849 229.092Z" stroke="#262626" stroke-miterlimit="10"/>
<path d="M378.621 246.608C389.579 246.608 398.461 234.037 398.461 218.53C398.461 203.022 389.579 190.451 378.621 190.451C367.664 190.451 358.781 203.022 358.781 218.53C358.781 234.037 367.664 246.608 378.621 246.608Z" stroke="#262626" stroke-miterlimit="10"/>
<path d="M376.579 211.803H373.978C371.282 211.803 369.094 214.815 369.094 218.529C369.094 222.243 371.282 225.255 373.978 225.255H376.579C379.203 225.255 381.331 222.243 381.331 218.529C381.331 214.815 379.203 211.803 376.579 211.803Z" stroke="#262626" stroke-miterlimit="10"/>
<path d="M405.654 229.091H451.807C453.684 229.091 455.254 227.663 455.429 225.785C455.914 220.552 457.977 210.356 466.49 204.563C472.155 200.704 478.067 200.324 480.892 200.343C482.644 197.326 484.396 194.306 486.152 191.289C486.376 190.904 486.493 190.463 486.493 190.017V145.808C486.493 144.414 485.367 143.283 483.979 143.283H474.18C472.793 143.283 471.666 144.414 471.666 145.808V147.861C471.666 148.421 471.48 148.966 471.139 149.408C458.311 166.003 445.486 182.601 432.657 199.196C431.414 200.807 429.495 201.752 427.462 201.752H402.867L403.402 226.882C403.428 228.112 404.429 229.095 405.651 229.095L405.654 229.091Z" fill="white" stroke="#231F20" stroke-miterlimit="10"/>
<path d="M405.033 201.749H402.883V201.044C402.883 189.591 393.608 180.275 382.205 180.275H376.953V178.115H382.205C394.791 178.115 405.033 188.399 405.033 201.044V201.749Z" fill="white" stroke="#231F20" stroke-miterlimit="10"/>
<path d="M376.959 178.119H349.129V180.279H376.959V178.119Z" fill="white" stroke="#231F20" stroke-miterlimit="10"/>
</g>
<rect x="43" y="33" width="226" height="85" rx="8" fill="#262626"/>
<path d="M52.6113 59V44.7812H65.668V59H62.9531V46.8711H55.3262V59H52.6113ZM68.2559 52.1445V51.6074C68.2559 49.2376 68.946 47.4603 70.3262 46.2754C71.7064 45.084 73.4707 44.4883 75.6191 44.4883C77.7611 44.4883 79.5254 45.084 80.9121 46.2754C82.3053 47.4603 83.002 49.2376 83.002 51.6074V52.1445C83.002 54.5339 82.3053 56.3242 80.9121 57.5156C79.5254 58.7005 77.7611 59.293 75.6191 59.293C73.4707 59.293 71.7064 58.7005 70.3262 57.5156C68.946 56.3242 68.2559 54.5339 68.2559 52.1445ZM71.0391 52.3105C71.0391 53.9902 71.4557 55.2272 72.2891 56.0215C73.1289 56.8092 74.2389 57.2031 75.6191 57.2031C76.9993 57.2031 78.1126 56.8092 78.959 56.0215C79.8053 55.2272 80.2285 53.9902 80.2285 52.3105V51.4609C80.2285 49.7812 79.8053 48.5508 78.959 47.7695C78.1191 46.9818 77.0059 46.5879 75.6191 46.5879C74.2389 46.5879 73.1289 46.9818 72.2891 47.7695C71.4557 48.5508 71.0391 49.778 71.0391 51.4512V52.3105ZM84.9355 52.1641V51.6172C84.9355 49.2279 85.6159 47.444 86.9766 46.2656C88.3372 45.0807 90.0918 44.4883 92.2402 44.4883C94.2259 44.4883 95.8079 44.9082 96.9863 45.748C98.1647 46.5814 98.8158 47.8216 98.9395 49.4688L98.959 49.6738H96.2148L96.2051 49.459C96.1139 48.4759 95.7266 47.7533 95.043 47.291C94.3659 46.8223 93.4219 46.5879 92.2109 46.5879C90.8698 46.5879 89.7858 46.985 88.959 47.7793C88.1387 48.5736 87.7285 49.791 87.7285 51.4316V52.3496C87.7285 54.0618 88.1387 55.2988 88.959 56.0605C89.7858 56.8223 90.8698 57.2031 92.2109 57.2031C93.5651 57.2031 94.5482 56.9395 95.1602 56.4121C95.7721 55.8783 96.1204 55.1816 96.2051 54.3223L96.2148 54.1172H98.959L98.9492 54.332C98.8385 55.8555 98.2135 57.0632 97.0742 57.9551C95.9414 58.847 94.3333 59.293 92.25 59.293C90.0885 59.293 88.3275 58.7135 86.9668 57.5547C85.6126 56.3893 84.9355 54.5924 84.9355 52.1641ZM99.584 46.8906V44.7812H112.66V46.8906H107.484V59H104.77V46.8906H99.584ZM112.748 59L118.93 44.7129H121.596L127.787 59H124.838L120.727 48.9219C120.603 48.6289 120.499 48.349 120.414 48.082C120.329 47.8086 120.251 47.5482 120.18 47.3008H120.082C120.004 47.5482 119.923 47.8086 119.838 48.082C119.753 48.3555 119.652 48.6354 119.535 48.9219L115.395 59H112.748ZM115.609 55.6699L116.371 53.6484H124.027L124.789 55.6699H115.609ZM129.271 59V44.7812H135.307C136.999 44.7812 138.321 45.071 139.271 45.6504C140.222 46.2298 140.697 47.1868 140.697 48.5215C140.697 49.3092 140.492 49.9505 140.082 50.4453C139.678 50.9336 139.164 51.2852 138.539 51.5V51.5391C139.32 51.7474 139.952 52.1283 140.434 52.6816C140.922 53.235 141.166 53.9772 141.166 54.9082C141.166 56.2689 140.658 57.291 139.643 57.9746C138.627 58.6582 137.286 59 135.619 59H129.271ZM131.947 57.0469H135.482C136.492 57.0469 137.24 56.8613 137.729 56.4902C138.217 56.1126 138.461 55.543 138.461 54.7812C138.461 54.0651 138.217 53.515 137.729 53.1309C137.24 52.7402 136.492 52.5449 135.482 52.5449H131.947V57.0469ZM131.947 50.709H135.17C136.166 50.709 136.889 50.5365 137.338 50.1914C137.794 49.8464 138.021 49.3516 138.021 48.707C138.021 48.0299 137.797 47.5352 137.348 47.2227C136.898 46.9102 136.173 46.7539 135.17 46.7539H131.947V50.709ZM143.666 44.7812H146.381V56.9102H151.811V44.7812H154.516V56.9102H159.955V44.7812H162.66V56.9102H164.545V61.8223H162.025V59H143.666V44.7812ZM179.691 59H177.035V49.4785C177.035 49.2702 177.038 49.0423 177.045 48.7949C177.051 48.541 177.061 48.3132 177.074 48.1113H176.957C176.859 48.3066 176.762 48.4987 176.664 48.6875C176.573 48.8763 176.443 49.0814 176.273 49.3027L169.271 59H166.4V44.7812H169.066V54.293C169.066 54.4948 169.06 54.7194 169.047 54.9668C169.04 55.2142 169.034 55.4421 169.027 55.6504H169.164C169.236 55.4876 169.324 55.3021 169.428 55.0938C169.538 54.8854 169.665 54.6803 169.809 54.4785L176.82 44.7812H179.691V59ZM192.963 59L186.42 52.1836L188.393 50.7773L196.293 59H192.963ZM184.281 50.6211H186.947L192.865 44.7812H195.805L187.514 52.7305H184.281V50.6211ZM182.924 59V44.7812H185.639V59H182.924ZM210.746 59H208.09V49.4785C208.09 49.2702 208.093 49.0423 208.1 48.7949C208.106 48.541 208.116 48.3132 208.129 48.1113H208.012C207.914 48.3066 207.816 48.4987 207.719 48.6875C207.628 48.8763 207.497 49.0814 207.328 49.3027L200.326 59H197.455V44.7812H200.121V54.293C200.121 54.4948 200.115 54.7194 200.102 54.9668C200.095 55.2142 200.089 55.4421 200.082 55.6504H200.219C200.29 55.4876 200.378 55.3021 200.482 55.0938C200.593 54.8854 200.72 54.6803 200.863 54.4785L207.875 44.7812H210.746V59ZM65.9023 82H63.2461V72.4785C63.2461 72.2702 63.2493 72.0423 63.2559 71.7949C63.2624 71.541 63.2721 71.3132 63.2852 71.1113H63.168C63.0703 71.3066 62.9727 71.4987 62.875 71.6875C62.7839 71.8763 62.6536 72.0814 62.4844 72.3027L55.4824 82H52.6113V67.7812H55.2773V77.293C55.2773 77.4948 55.2708 77.7194 55.2578 77.9668C55.2513 78.2142 55.2448 78.4421 55.2383 78.6504H55.375C55.4466 78.4876 55.5345 78.3021 55.6387 78.0938C55.7493 77.8854 55.8763 77.6803 56.0195 77.4785L63.0312 67.7812H65.9023V82ZM73.5879 75.1641V74.6172C73.5879 72.2279 74.2682 70.444 75.6289 69.2656C76.9896 68.0807 78.7441 67.4883 80.8926 67.4883C82.8783 67.4883 84.4603 67.9082 85.6387 68.748C86.8171 69.5814 87.4681 70.8216 87.5918 72.4688L87.6113 72.6738H84.8672L84.8574 72.459C84.7663 71.4759 84.3789 70.7533 83.6953 70.291C83.0182 69.8223 82.0742 69.5879 80.8633 69.5879C79.5221 69.5879 78.4382 69.985 77.6113 70.7793C76.791 71.5736 76.3809 72.791 76.3809 74.4316V75.3496C76.3809 77.0618 76.791 78.2988 77.6113 79.0605C78.4382 79.8223 79.5221 80.2031 80.8633 80.2031C82.2174 80.2031 83.2005 79.9395 83.8125 79.4121C84.4245 78.8783 84.7728 78.1816 84.8574 77.3223L84.8672 77.1172H87.6113L87.6016 77.332C87.4909 78.8555 86.8659 80.0632 85.7266 80.9551C84.5938 81.847 82.9857 82.293 80.9023 82.293C78.7409 82.293 76.9798 81.7135 75.6191 80.5547C74.265 79.3893 73.5879 77.5924 73.5879 75.1641ZM88.2363 69.8906V67.7812H101.312V69.8906H96.1367V82H93.4219V69.8906H88.2363ZM103.158 82V67.7812H109.359C111.189 67.7812 112.589 68.1719 113.559 68.9531C114.535 69.7344 115.023 70.877 115.023 72.3809C115.023 73.8522 114.538 74.9948 113.568 75.8086C112.598 76.6224 111.192 77.0163 109.35 76.9902H105.873V82H103.158ZM105.873 74.9785H109.115C110.287 74.9785 111.114 74.7539 111.596 74.3047C112.077 73.849 112.318 73.2109 112.318 72.3906C112.318 71.5638 112.077 70.9323 111.596 70.4961C111.114 70.0534 110.287 69.832 109.115 69.832H105.873V74.9785ZM116.479 75.1445V74.6074C116.479 72.2376 117.169 70.4603 118.549 69.2754C119.929 68.084 121.693 67.4883 123.842 67.4883C125.984 67.4883 127.748 68.084 129.135 69.2754C130.528 70.4603 131.225 72.2376 131.225 74.6074V75.1445C131.225 77.5339 130.528 79.3242 129.135 80.5156C127.748 81.7005 125.984 82.293 123.842 82.293C121.693 82.293 119.929 81.7005 118.549 80.5156C117.169 79.3242 116.479 77.5339 116.479 75.1445ZM119.262 75.3105C119.262 76.9902 119.678 78.2272 120.512 79.0215C121.352 79.8092 122.462 80.2031 123.842 80.2031C125.222 80.2031 126.335 79.8092 127.182 79.0215C128.028 78.2272 128.451 76.9902 128.451 75.3105V74.4609C128.451 72.7812 128.028 71.5508 127.182 70.7695C126.342 69.9818 125.229 69.5879 123.842 69.5879C122.462 69.5879 121.352 69.9818 120.512 70.7695C119.678 71.5508 119.262 72.778 119.262 74.4512V75.3105ZM147.094 82H144.438V72.4785C144.438 72.2702 144.441 72.0423 144.447 71.7949C144.454 71.541 144.464 71.3132 144.477 71.1113H144.359C144.262 71.3066 144.164 71.4987 144.066 71.6875C143.975 71.8763 143.845 72.0814 143.676 72.3027L136.674 82H133.803V67.7812H136.469V77.293C136.469 77.4948 136.462 77.7194 136.449 77.9668C136.443 78.2142 136.436 78.4421 136.43 78.6504H136.566C136.638 78.4876 136.726 78.3021 136.83 78.0938C136.941 77.8854 137.068 77.6803 137.211 77.4785L144.223 67.7812H147.094V82ZM148.939 69.8906V67.7812H162.016V69.8906H156.84V82H154.125V69.8906H148.939ZM163.861 82V67.7812H174.672V69.8809H166.547V73.6699H173.676V75.7109H166.547V79.9102H174.789V82H163.861ZM178.744 67.7812H190.16V82H187.455V69.8711H181.029L180.668 76.5898C180.577 78.4518 180.274 79.8646 179.76 80.8281C179.245 81.7917 178.269 82.2734 176.83 82.2734C176.609 82.2734 176.397 82.2572 176.195 82.2246C175.993 82.1986 175.795 82.1497 175.6 82.0781V79.7734C175.749 79.8255 175.889 79.8613 176.02 79.8809C176.156 79.9004 176.296 79.9102 176.439 79.9102C177.084 79.9102 177.536 79.6367 177.797 79.0898C178.057 78.543 178.223 77.5924 178.295 76.2383L178.744 67.7812ZM193.471 67.7812H196.186V72.918H200.111C201.869 72.918 203.171 73.3411 204.018 74.1875C204.864 75.0339 205.287 76.1211 205.287 77.4492C205.287 78.8555 204.864 79.9655 204.018 80.7793C203.171 81.5931 201.869 82 200.111 82H193.471V67.7812ZM196.186 74.9688V79.9492H199.916C200.88 79.9492 201.563 79.7311 201.967 79.2949C202.37 78.8522 202.572 78.237 202.572 77.4492C202.572 76.7396 202.37 76.1504 201.967 75.6816C201.563 75.2064 200.88 74.9688 199.916 74.9688H196.186ZM207.436 82V67.7812H210.15V73.6113H217.885V67.7812H220.59V82H217.885V75.7207H210.15V82H207.436ZM223.822 67.7812H226.537V72.918H230.463C232.221 72.918 233.523 73.3411 234.369 74.1875C235.215 75.0339 235.639 76.1211 235.639 77.4492C235.639 78.8555 235.215 79.9655 234.369 80.7793C233.523 81.5931 232.221 82 230.463 82H223.822V67.7812ZM226.537 74.9688V79.9492H230.268C231.231 79.9492 231.915 79.7311 232.318 79.2949C232.722 78.8522 232.924 78.237 232.924 77.4492C232.924 76.7396 232.722 76.1504 232.318 75.6816C231.915 75.2064 231.231 74.9688 230.268 74.9688H226.537ZM237.436 82H240.17V67.7812H237.436V82ZM243.393 82V67.7812H254.203V69.8809H246.078V73.6699H253.207V75.7109H246.078V79.9102H254.32V82H243.393ZM52.6113 105V90.7812H55.8242L60.5996 101.035C60.6973 101.243 60.7949 101.455 60.8926 101.67C60.9902 101.878 61.0651 102.057 61.1172 102.207H61.1758C61.2279 102.057 61.2962 101.878 61.3809 101.67C61.4655 101.455 61.5534 101.243 61.6445 101.035L66.4785 90.7812H69.7598V105H67.084L67.0938 95.3516C67.0938 95.1497 67.1003 94.9349 67.1133 94.707C67.1263 94.4727 67.1393 94.2578 67.1523 94.0625H67.084C67.0384 94.2578 66.9798 94.4727 66.9082 94.707C66.8431 94.9349 66.765 95.1497 66.6738 95.3516L62.1621 105H59.8574L55.3652 95.3516C55.2676 95.1562 55.1829 94.9447 55.1113 94.7168C55.0397 94.4824 54.9811 94.2643 54.9355 94.0625H54.8672C54.8802 94.2643 54.8932 94.4824 54.9062 94.7168C54.9258 94.9447 54.9355 95.1595 54.9355 95.3613V105H52.6113ZM71.2246 105L77.4062 90.7129H80.0723L86.2637 105H83.3145L79.2031 94.9219C79.0794 94.6289 78.9753 94.349 78.8906 94.082C78.806 93.8086 78.7279 93.5482 78.6562 93.3008H78.5586C78.4805 93.5482 78.3991 93.8086 78.3145 94.082C78.2298 94.3555 78.1289 94.6354 78.0117 94.9219L73.8711 105H71.2246ZM74.0859 101.67L74.8477 99.6484H82.5039L83.2656 101.67H74.0859ZM86.3613 92.8906V90.7812H99.4375V92.8906H94.2617V105H91.5469V92.8906H86.3613ZM101.283 105V90.7812H112.094V92.8809H103.969V96.6699H111.098V98.7109H103.969V102.91H112.211V105H101.283ZM114.506 105V90.7812H120.707C122.536 90.7812 123.936 91.1719 124.906 91.9531C125.883 92.7344 126.371 93.877 126.371 95.3809C126.371 96.8522 125.886 97.9948 124.916 98.8086C123.946 99.6224 122.54 100.016 120.697 99.9902H117.221V105H114.506ZM117.221 97.9785H120.463C121.635 97.9785 122.462 97.7539 122.943 97.3047C123.425 96.849 123.666 96.2109 123.666 95.3906C123.666 94.5638 123.425 93.9323 122.943 93.4961C122.462 93.0534 121.635 92.832 120.463 92.832H117.221V97.9785ZM141.762 105H139.105V95.4785C139.105 95.2702 139.109 95.0423 139.115 94.7949C139.122 94.541 139.132 94.3132 139.145 94.1113H139.027C138.93 94.3066 138.832 94.4987 138.734 94.6875C138.643 94.8763 138.513 95.0814 138.344 95.3027L131.342 105H128.471V90.7812H131.137V100.293C131.137 100.495 131.13 100.719 131.117 100.967C131.111 101.214 131.104 101.442 131.098 101.65H131.234C131.306 101.488 131.394 101.302 131.498 101.094C131.609 100.885 131.736 100.68 131.879 100.479L138.891 90.7812H141.762V105ZM143.236 105L149.418 90.7129H152.084L158.275 105H155.326L151.215 94.9219C151.091 94.6289 150.987 94.349 150.902 94.082C150.818 93.8086 150.74 93.5482 150.668 93.3008H150.57C150.492 93.5482 150.411 93.8086 150.326 94.082C150.242 94.3555 150.141 94.6354 150.023 94.9219L145.883 105H143.236ZM146.098 101.67L146.859 99.6484H154.516L155.277 101.67H146.098ZM161.42 90.7812H172.836V105H170.131V92.8711H163.705L163.344 99.5898C163.253 101.452 162.95 102.865 162.436 103.828C161.921 104.792 160.945 105.273 159.506 105.273C159.285 105.273 159.073 105.257 158.871 105.225C158.669 105.199 158.471 105.15 158.275 105.078V102.773C158.425 102.826 158.565 102.861 158.695 102.881C158.832 102.9 158.972 102.91 159.115 102.91C159.76 102.91 160.212 102.637 160.473 102.09C160.733 101.543 160.899 100.592 160.971 99.2383L161.42 90.7812ZM176.146 90.7812H178.861V95.918H182.787C184.545 95.918 185.847 96.3411 186.693 97.1875C187.54 98.0339 187.963 99.1211 187.963 100.449C187.963 101.855 187.54 102.965 186.693 103.779C185.847 104.593 184.545 105 182.787 105H176.146V90.7812ZM178.861 97.9688V102.949H182.592C183.555 102.949 184.239 102.731 184.643 102.295C185.046 101.852 185.248 101.237 185.248 100.449C185.248 99.7396 185.046 99.1504 184.643 98.6816C184.239 98.2064 183.555 97.9688 182.592 97.9688H178.861ZM189.76 105H192.494V90.7812H189.76V105Z" fill="white"/>
</g>
</g>
<defs>
<filter id="filter0_d_1097_25798" x="0.6" y="0.6" width="420.8" height="276.8" filterUnits="userSpaceOnUse" color-interpolation-filters="sRGB">
<feFlood flood-opacity="0" result="BackgroundImageFix"/>
<feColorMatrix in="SourceAlpha" type="matrix" values="0 0 0 0 0 0 0 0 0 0 0 0 0 0 0 0 0 0 127 0" result="hardAlpha"/>
<feOffset dy="10"/>
<feGaussianBlur stdDeviation="9.2"/>
<feComposite in2="hardAlpha" operator="out"/>
<feColorMatrix type="matrix" values="0 0 0 0 0 0 0 0 0 0 0 0 0 0 0 0 0 0 0.15 0"/>
<feBlend mode="normal" in2="BackgroundImageFix" result="effect1_dropShadow_1097_25798"/>
<feBlend mode="normal" in="SourceGraphic" in2="effect1_dropShadow_1097_25798" result="shape"/>
</filter>
<clipPath id="clip0_1097_25798">
<rect x="19" y="9" width="384" height="240" rx="32" fill="white"/>
</clipPath>
<clipPath id="clip1_1097_25798">
<rect width="65" height="62" fill="white" transform="translate(156 129)"/>
</clipPath>
<clipPath id="clip2_1097_25798">
<rect width="313" height="60" fill="white" transform="translate(112 189)"/>
</clipPath>
<clipPath id="clip3_1097_25798">
<rect width="293" height="216" fill="white" transform="translate(197 33)"/>
</clipPath>
</defs>
</svg>
