<svg width="98" height="121" viewBox="0 0 98 121" fill="none" xmlns="http://www.w3.org/2000/svg">
<g clip-path="url(#clip0_5286_19125)">
<path d="M23.2023 98.3504C23.2056 98.3258 23.2089 98.3043 23.2089 98.2797C23.2056 98.3043 23.2023 98.3258 23.2023 98.3504ZM2.23446 129.275C2.20491 128.964 2.18193 128.645 2.16551 128.317C2.02761 125.572 2.41505 123.221 2.8813 121.425C2.29028 120.167 1.86344 118.512 2.25088 116.658C2.60221 114.985 3.48216 113.788 4.07646 113.122H4.07974C4.35883 110.184 4.74956 107.093 5.28147 103.867C5.92502 99.9896 6.69662 96.3612 7.53717 93.0029H7.56673C7.14317 89.525 7.85895 86.7223 9.76333 85.2949C10.2821 84.9081 10.9716 84.5582 11.9172 84.3587H11.9205C13.884 80.7487 17.3644 75.6499 23.2943 71.1589C23.8229 70.7568 24.3548 70.3762 24.8802 70.0139L25.0016 70.0201C25.0378 69.268 25.4646 68.6203 26.0983 68.3563C26.7189 68.0954 27.3329 68.2857 27.5102 68.3502L27.5233 68.3624C27.1359 68.6602 26.9027 69.1053 26.8929 69.5842C26.8174 73.5533 26.7681 77.2277 26.7386 80.5983C26.7386 80.9359 26.7353 81.2675 26.7353 81.599C26.7287 82.1914 26.7254 82.7716 26.7222 83.3426C26.7189 84.2267 26.7156 85.0892 26.7123 85.9242C26.7123 86.8298 26.709 87.7046 26.709 88.5549C26.7123 89.571 26.7123 90.5472 26.7156 91.4804C26.7254 93.5678 26.7419 95.4587 26.7583 97.147C26.7616 97.3343 26.7616 97.5246 26.7648 97.7118C26.8239 103.234 26.8962 108.818 25.7174 116.333C25.1034 120.265 24.3154 123.639 23.5963 126.282C23.3731 127.117 23.1531 127.878 22.9495 128.559C22.7985 130.478 22.7853 132.783 23.1202 135.359C23.3928 137.455 23.8459 139.352 24.3679 141.025C21.0254 143.899 16.9507 143.837 15.4141 142.161C14.104 140.731 14.8263 138.324 14.9478 137.937C10.5481 135.795 6.52588 135.54 4.32928 137.222C3.72513 137.685 2.94368 138.539 2.52669 140.187C1.56136 139.18 0.287401 137.406 0.172482 134.953C0.0280114 131.887 1.78464 129.781 2.23446 129.275Z" fill="#7099ED"/>
<path d="M33.7223 88.5963C33.742 87.6938 33.7617 86.7882 33.7814 85.8857C33.8011 85.0385 33.8175 84.1882 33.8372 83.341C33.8504 82.7485 33.8635 82.1591 33.8766 81.5667C33.8832 81.2351 33.8898 80.9005 33.8963 80.569C33.9292 79.1784 33.9587 77.7909 33.9883 76.4004L40.4829 71.2648L41.4974 70.4605C42.2329 69.8803 43.2935 69.8343 44.0815 70.35L49.0493 73.5855V96.7402C43.6284 96.7586 38.4471 96.9336 33.5352 97.2283C33.5778 95.3097 33.6172 93.3973 33.6599 91.4818C33.6796 90.521 33.7026 89.5571 33.7223 88.5963Z" fill="#7099ED"/>
<path d="M41.6944 67.3327L49.0493 73.5857L44.0815 70.3502C43.2935 69.8345 42.2329 69.8806 41.4974 70.4607L40.4829 71.265L33.9883 76.4006L34.3954 65.0642C34.425 64.1955 34.819 63.3728 35.4921 62.7711L38.7853 59.8242V61.181C38.7853 63.5232 39.8426 65.758 41.6944 67.3327Z" fill="#7099ED"/>
<path d="M51.2737 87.2702C51.208 87.2487 51.139 87.2364 51.0668 87.2364C50.7155 87.2364 50.4331 87.5035 50.4331 87.8289C50.4331 87.9639 50.4823 88.0929 50.5677 88.1942C50.5874 88.2156 50.6104 88.2371 50.6301 88.2586C50.7417 88.3599 50.8961 88.4213 51.0668 88.4213C51.4148 88.4213 51.6972 88.1573 51.6972 87.8289C51.6972 87.571 51.5199 87.35 51.2737 87.2702ZM49.0508 96.7402V73.5855L54.0186 70.35C54.8066 69.8343 55.8671 69.8803 56.6026 70.4605L57.1083 70.8626L64.056 76.3543L64.0133 76.4004C64.0428 77.7909 64.0757 79.1784 64.1052 80.569C64.1151 80.9005 64.1216 81.2351 64.1282 81.5667C64.1413 82.1591 64.1545 82.7485 64.1676 83.341C64.1873 84.1882 64.207 85.0385 64.2267 85.8857C64.2464 86.7882 64.2661 87.6938 64.2858 88.5963C64.3088 89.5571 64.3285 90.521 64.3515 91.4818C64.3909 93.3605 64.4336 95.236 64.4762 97.1147C59.5905 96.8599 54.4421 96.7218 49.0508 96.7402ZM49.5893 74.9975C49.6713 75.2339 49.911 75.4027 50.1901 75.4027C50.5415 75.4027 50.8238 75.1387 50.8238 74.8133C50.8238 74.4879 50.5579 74.2362 50.223 74.2209H50.1901C50.1639 74.2209 50.1409 74.2209 50.1146 74.2209C49.9242 74.2362 49.7731 74.2884 49.6746 74.3928C49.5925 74.4849 49.5531 74.6107 49.5597 74.7704C49.5564 74.7826 49.5564 74.798 49.5564 74.8103C49.5564 74.8717 49.5663 74.93 49.586 74.9852C49.586 74.9852 49.586 74.9914 49.5893 74.9944V74.9975Z" fill="#7099ED"/>
<path d="M54.0186 70.3502L49.0508 73.5857L56.4056 67.3327C58.2575 65.758 59.3147 63.5232 59.3147 61.181V59.8242L62.6113 62.7711C63.2811 63.3728 63.6751 64.1955 63.7047 65.0642V65.1778L64.1118 76.4006L64.056 76.3546L57.1083 70.8629L56.6026 70.4607C55.8671 69.8806 54.8066 69.8345 54.0186 70.3502Z" fill="#7099ED"/>
<path d="M74.7606 98.3503C74.7606 98.3258 74.7573 98.3043 74.7541 98.2797C74.7541 98.3043 74.7573 98.3258 74.7606 98.3503ZM71.2572 80.5982C71.2277 77.151 71.1784 73.3844 71.0996 69.3079C71.0931 68.9303 70.8829 68.5773 70.5414 68.3778L70.4922 68.3501C71.2342 68.126 71.7103 68.2764 71.9008 68.3563C72.4951 68.5957 72.9383 69.2066 73.1091 70.017H73.1189C73.6475 70.3761 74.1762 70.7568 74.7048 71.1589C80.6346 75.6499 84.1151 80.7486 86.0818 84.3586C87.0471 84.5643 87.74 84.9265 88.2357 85.2949C90.1861 86.7468 90.9019 89.6047 90.3765 92.9906L90.4619 93.0029C91.3025 96.3611 92.0773 99.9895 92.7176 103.867C93.2495 107.093 93.6402 110.184 93.9193 113.119C94.5136 113.788 95.3936 114.985 95.7449 116.658C96.1323 118.512 95.7055 120.167 95.1145 121.425C95.584 123.221 95.9682 125.572 95.8303 128.317C95.8139 128.645 95.7909 128.964 95.7613 129.274C96.2112 129.781 97.9678 131.887 97.8233 134.953C97.7084 137.406 96.4344 139.18 95.4724 140.187C95.0554 138.539 94.2707 137.685 93.6665 137.222C91.4699 135.54 87.4477 135.795 83.048 137.937C83.1727 138.324 83.8918 140.731 82.5817 142.161C81.0451 143.837 76.9704 143.899 73.6278 141.028C74.1499 139.352 74.603 137.455 74.8755 135.359C75.2105 132.783 75.1973 130.478 75.0496 128.559C74.8361 127.853 74.6096 127.064 74.3765 126.196C73.664 123.565 72.8858 120.222 72.2784 116.333C71.0898 108.744 71.1751 103.127 71.2342 97.5522C71.2342 97.4171 71.2375 97.282 71.2375 97.147C71.2539 95.4586 71.2704 93.5677 71.2769 91.4803C71.2802 90.5441 71.2835 89.5679 71.2835 88.5549C71.2835 87.7077 71.2835 86.8297 71.2802 85.9242C71.2802 85.0892 71.2769 84.2266 71.2704 83.3425C71.2671 82.7716 71.2638 82.1883 71.2605 81.599C71.2572 81.2674 71.2539 80.9359 71.2539 80.5982H71.2572Z" fill="#7099ED"/>
<path d="M26.7109 88.5542C27.6369 88.6708 28.4249 87.9924 28.4249 87.2372C28.4249 86.4821 27.6369 85.8068 26.7142 85.9234C26.7142 85.0885 26.7208 84.2259 26.7241 83.3418H33.8392C33.8195 84.189 33.8031 85.0393 33.7834 85.8866C32.8673 85.7945 32.099 86.3992 32.0202 87.0807C31.9348 87.8328 32.6933 88.6432 33.7243 88.5971C33.7046 89.5579 33.6816 90.5218 33.6619 91.4826H26.7175C26.7175 90.5464 26.7175 89.5702 26.7109 88.5542Z" fill="#383940"/>
<path d="M33.8955 80.57C33.8889 80.9015 33.8824 81.2361 33.8758 81.5677C32.6544 81.4541 31.2852 81.3896 29.7978 81.4142C28.7044 81.4357 27.68 81.5032 26.7344 81.5984C26.7344 81.2668 26.7377 80.9353 26.7377 80.5976C27.6833 80.5025 28.7044 80.4349 29.7978 80.4165C31.2885 80.3889 32.6576 80.4534 33.8824 80.57H33.8955Z" fill="#383940"/>
<path d="M33.7815 85.8863C33.7618 86.7888 33.7421 87.6943 33.7224 88.5968C32.6914 88.6429 31.9329 87.8325 32.0183 87.0804C32.0971 86.3989 32.8654 85.7942 33.7815 85.8863Z" fill="#383940"/>
<path d="M26.7175 85.9233C27.6401 85.8066 28.4282 86.485 28.4282 87.2371C28.4282 87.9892 27.6401 88.6707 26.7142 88.554H26.7109C26.7109 87.7037 26.7142 86.8289 26.7142 85.9233H26.7175Z" fill="#383940"/>
<path d="M71.2849 85.9233C71.2882 86.8289 71.2882 87.7068 71.2882 88.5541C70.3622 88.6707 69.5742 87.9923 69.5742 87.2372C69.5742 86.482 70.3622 85.8067 71.2849 85.9233Z" fill="#383940"/>
<path d="M65.9832 87.0798C66.0718 87.8288 65.3134 88.6392 64.2857 88.5962C64.266 87.6937 64.2463 86.7882 64.2266 85.8857C65.1394 85.7967 65.9044 86.4014 65.9832 87.0798Z" fill="#383940"/>
<path d="M71.26 80.5976C71.26 80.9353 71.2633 81.2668 71.2666 81.5984C70.321 81.5032 69.2965 81.4357 68.2032 81.4142C66.7158 81.3896 65.3499 81.4541 64.1285 81.5677C64.1219 81.2361 64.1153 80.9015 64.1055 80.57H64.1186C65.3433 80.4534 66.7125 80.3889 68.2032 80.4165C69.2933 80.4349 70.3177 80.5025 71.26 80.5976Z" fill="#383940"/>
<path d="M71.2897 88.5542C71.2897 89.5672 71.2864 90.5433 71.2831 91.4796H64.3518C64.3289 90.5218 64.3092 89.5579 64.2862 88.5971C65.3139 88.6401 66.0724 87.8297 65.9837 87.0807C65.9049 86.4023 65.1399 85.7976 64.2271 85.8866C64.2074 85.0393 64.1877 84.189 64.168 83.3418H71.2766C71.2831 84.2259 71.2864 85.0885 71.2864 85.9234C70.3638 85.8068 69.5757 86.4852 69.5757 87.2372C69.5757 87.9893 70.3638 88.6708 71.2897 88.5542Z" fill="#383940"/>
<path d="M71.273 83.3412H64.1644C64.1513 82.7487 64.1381 82.1593 64.125 81.5669C65.3464 81.4533 66.7123 81.3888 68.1997 81.4134C69.2931 81.4349 70.3175 81.5024 71.2631 81.5976C71.2631 82.187 71.2697 82.7702 71.273 83.3412Z" fill="#7099ED"/>
<path d="M33.6593 91.4835C33.6166 93.399 33.5772 95.3115 33.5345 97.2269C31.2164 97.3651 28.9607 97.5278 26.7641 97.712C26.7608 97.5247 26.7608 97.3344 26.7575 97.1471C26.7411 95.4588 26.7247 93.5679 26.7148 91.4805H33.6593V91.4835Z" fill="#7099ED"/>
<path d="M33.8772 81.5669C33.8641 82.1593 33.8509 82.7487 33.8378 83.3412H26.7227C26.7259 82.7702 26.7292 82.19 26.7358 81.5976C27.6814 81.5024 28.7058 81.4349 29.7992 81.4134C31.2866 81.3888 32.6558 81.4533 33.8772 81.5669Z" fill="#7099ED"/>
<path d="M34.3952 65.0645L33.9881 76.4009C33.9585 77.7914 33.929 79.1789 33.8961 80.5695H33.883C32.6583 80.4529 31.2891 80.3884 29.7984 80.416C28.705 80.4344 27.6839 80.502 26.7383 80.5971C26.7678 77.2266 26.8171 73.5522 26.8926 69.583C26.9025 69.1042 27.1356 68.6591 27.523 68.3613C27.5887 68.3091 27.6576 68.2631 27.7332 68.2201C30.1136 66.8664 32.5434 65.7613 34.3952 65.0645Z" fill="#7099ED"/>
<path d="M32.8575 36.4241L32.9133 37.0472C32.5489 36.9889 31.554 36.8569 30.651 37.1639C30.3621 36.7188 30.0633 36.1877 29.7941 35.5768C29.4099 34.702 29.1899 33.8946 29.0586 33.2285H32.5718L32.8575 36.4241Z" fill="#383940"/>
<path d="M32.5703 33.2285H36.7205C36.4283 33.2285 35.0854 33.2776 33.992 34.2814C33.0858 35.1133 32.9019 36.1048 32.856 36.4241L32.5703 33.2285Z" fill="#383940"/>
<path d="M64.9029 33.2285L64.6173 36.4302L64.5319 36.4241C64.486 36.1048 64.2988 35.1133 63.3926 34.2814C62.3025 33.2776 60.9596 33.2316 60.6641 33.2285H64.9029Z" fill="#383940"/>
<path d="M66.7591 37.1301C65.8824 36.8661 64.9532 36.9889 64.6052 37.0472H64.5625L64.615 36.4302L64.9007 33.2285H68.3286C68.1972 33.8946 67.9772 34.702 67.5898 35.5768C67.3271 36.1724 67.0382 36.6911 66.7591 37.1301Z" fill="#383940"/>
<path d="M73.7923 30.4355V33.2289H24.3047V30.4355C25.953 30.4355 27.2926 29.1861 27.2926 27.6421V21.693C27.2926 12.4163 33.994 4.61009 43.1186 2.2587V1.67853C43.1186 1.20272 43.4667 0.794452 43.9625 0.690082C45.2758 0.410739 46.8978 0.177442 48.7563 0.155954C50.8741 0.131396 52.6996 0.383112 54.1378 0.690082C54.6336 0.794452 54.9816 1.20579 54.9816 1.67853V2.36307C63.9026 4.83111 70.4169 12.5483 70.4169 21.693V27.6421C70.4169 29.1861 71.7533 30.4355 73.4048 30.4355H73.7923Z" fill="#FF8B63"/>
<path d="M65.8095 143.837L65.8161 143.852C61.4393 145.108 55.9593 146.142 49.619 146.207C42.7173 146.277 36.7809 145.172 32.125 143.837V118.49H65.8095V143.837Z" fill="#7099ED"/>
<path d="M65.8095 106.941V118.489H32.125V106.941C37.5459 106.416 43.5841 106.088 50.1378 106.131C55.782 106.171 61.0289 106.478 65.8095 106.941Z" fill="#7099ED"/>
<path d="M24.3711 141.025H24.3679C23.8458 139.352 23.3927 137.455 23.1202 135.359C22.7853 132.783 22.7984 130.478 22.9494 128.559C23.153 127.878 23.373 127.117 23.5963 126.282C24.3153 123.639 25.1033 120.265 25.7173 116.333C26.8961 108.818 26.8239 103.234 26.7648 97.7119C28.9614 97.5277 31.2171 97.365 33.5351 97.2299C38.4471 96.9353 43.6284 96.7603 49.0493 96.7419C54.4406 96.7234 59.589 96.8616 64.4747 97.1164C66.7895 97.2361 69.0453 97.3834 71.2386 97.5523C71.1795 103.127 71.0941 108.744 72.2827 116.333C72.8901 120.222 73.6683 123.565 74.3808 126.196C74.6139 127.064 74.8405 127.853 75.0539 128.559C75.2016 130.478 75.2148 132.783 74.8799 135.359C74.6073 137.455 74.1542 139.352 73.6322 141.025H73.6289C71.7015 141.882 69.065 142.926 65.8177 143.853L65.8111 143.837V106.942C61.0304 106.479 55.7836 106.172 50.1394 106.132C43.5857 106.089 37.5475 106.418 32.1266 106.942V143.837C28.8826 142.907 26.2591 141.863 24.3711 141.025Z" fill="#7099ED"/>
<path d="M71.2763 91.4805H71.2828C71.2763 93.5679 71.2599 95.4588 71.2434 97.1471C71.2434 97.2822 71.2402 97.4173 71.2402 97.5523C69.0468 97.3835 66.7911 97.2362 64.4763 97.1164C64.4336 95.2378 64.391 93.3622 64.3516 91.4835H71.2763V91.4805Z" fill="#7099ED"/>
<path d="M64.0124 76.4008L64.0551 76.3548L64.1109 76.4008L63.707 65.178L63.8876 65.1719C64.9219 65.5771 66.0087 66.0467 67.1349 66.5839C68.3498 67.1641 69.4661 67.7566 70.4906 68.349H70.4938L70.5431 68.3766C70.8846 68.5762 71.0947 68.9292 71.1013 69.3068C71.1801 73.3833 71.2293 77.1498 71.2589 80.5971C70.3165 80.502 69.2921 80.4344 68.202 80.416C66.7114 80.3884 65.3422 80.4528 64.1175 80.5695H64.1043C64.0748 79.1789 64.0419 77.7914 64.0124 76.4008Z" fill="#7099ED"/>
<path d="M66.7589 37.1299C67.1102 37.2342 67.4517 37.4031 67.7439 37.6609C69.228 38.9809 68.5418 41.9217 66.8114 43.3644C65.7706 44.2332 64.5328 44.4081 63.945 44.4542H63.9023L64.5623 37.0439H64.605C64.953 36.9887 65.8822 36.8659 66.7589 37.1299Z" fill="white"/>
<path d="M32.9111 37.0475L33.5678 44.4547C32.9833 44.4086 31.7422 44.2336 30.7013 43.3649C28.9743 41.9222 28.2848 38.9814 29.7721 37.6614C30.0348 37.4281 30.3336 37.2685 30.6488 37.1641C31.5517 36.8571 32.5466 36.9891 32.9111 37.0475Z" fill="white"/>
<path d="M59.313 59.8245V61.1814C59.313 63.5235 58.2558 65.7583 56.4039 67.333L49.0491 73.586L41.6943 67.333C39.8424 65.7583 38.7852 63.5235 38.7852 61.1814V56.6351C41.425 58.6212 44.9219 59.8245 48.7339 59.8245H48.7372C52.8546 59.8245 56.6075 58.4217 59.313 56.1348V59.8245Z" fill="white"/>
<path d="M59.3132 56.1346C56.6077 58.4215 52.8547 59.8244 48.7373 59.8244H48.734C44.922 59.8244 41.4252 58.6211 38.7853 56.635C36.0568 54.5814 34.2378 51.6928 33.9226 48.4235L33.568 44.4544L32.9113 37.0472L32.8555 36.4241C32.9014 36.1048 33.0853 35.1133 33.9915 34.2814C35.0849 33.2776 36.4278 33.2316 36.72 33.2285H60.6627C60.9582 33.2285 62.3011 33.2776 63.3912 34.2814C64.2974 35.1133 64.4846 36.1048 64.5305 36.4241L64.6159 36.4302L64.5634 37.0442L63.9034 44.4513L63.5488 48.4235C63.2566 51.438 61.6904 54.1301 59.3132 56.1346ZM57.1166 37.1209C58.0688 37.3296 58.6762 37.8208 58.9192 38.0449C58.5613 36.8937 57.5073 36.1969 56.5387 36.3044C55.7047 36.3964 55.2089 37.0564 55.1071 37.1946C55.4355 37.0994 56.1907 36.9214 57.1166 37.1209ZM58.5252 40.4853C58.5252 39.2605 57.7142 38.269 56.716 38.269C55.7179 38.269 54.9069 39.2605 54.9069 40.4853C54.9069 41.7101 55.7146 42.7016 56.716 42.7016C57.7175 42.7016 58.5252 41.707 58.5252 40.4853ZM42.7451 40.4853C42.7451 39.2605 41.9341 38.269 40.9327 38.269C39.9312 38.269 39.1235 39.2605 39.1235 40.4853C39.1235 41.7101 39.9345 42.7016 40.9327 42.7016C41.9308 42.7016 42.7451 41.707 42.7451 40.4853ZM42.3478 37.1946C42.2493 37.0564 41.7535 36.3964 40.9195 36.3044C39.9509 36.1969 38.8969 36.8937 38.5391 38.0449C38.782 37.8208 39.3895 37.3296 40.3416 37.1209C41.2676 36.9214 42.0228 37.0994 42.3478 37.1946Z" fill="white"/>
<path d="M56.7154 42.7022C57.7146 42.7022 58.5246 41.7099 58.5246 40.4859C58.5246 39.2618 57.7146 38.2695 56.7154 38.2695C55.7162 38.2695 54.9062 39.2618 54.9062 40.4859C54.9062 41.7099 55.7162 42.7022 56.7154 42.7022Z" fill="#262626"/>
<path d="M56.537 36.3038C57.5056 36.1964 58.5596 36.8932 58.9175 38.0444C58.6745 37.8203 58.0671 37.3291 57.1149 37.1204C56.189 36.9209 55.4338 37.0989 55.1055 37.1941C55.2073 37.0559 55.703 36.3959 56.537 36.3038Z" fill="#262626"/>
<path d="M40.9342 38.2695C41.9356 38.2695 42.7466 39.261 42.7466 40.4859C42.7466 41.7107 41.9356 42.7022 40.9342 42.7022C39.9327 42.7022 39.125 41.7076 39.125 40.4859C39.125 39.2641 39.936 38.2695 40.9342 38.2695Z" fill="#262626"/>
<path d="M42.3478 37.1941C42.0228 37.0989 41.2676 36.9209 40.3417 37.1204C39.3895 37.3291 38.782 37.8203 38.5391 38.0444C38.897 36.8932 39.9509 36.1964 40.9195 36.3038C41.7535 36.3959 42.2493 37.0559 42.3478 37.1941Z" fill="#262626"/>
<path d="M64.9021 33.2285L64.6164 36.4302L64.5639 37.0442L63.9039 44.4513L63.5493 48.4235C63.2571 51.438 61.6909 54.1301 59.3137 56.1346C56.6082 58.4215 52.8552 59.8244 48.7378 59.8244H48.7345C44.9225 59.8244 41.4257 58.6211 38.7858 56.635C36.0573 54.5814 34.2383 51.6928 33.9231 48.4235L33.5685 44.4544L32.9118 37.0472L32.856 36.4241L32.5703 33.2285" stroke="#262626" stroke-miterlimit="10" stroke-linecap="round"/>
<path d="M68.3287 33.2289H73.7923V30.4355H73.4048C71.7533 30.4355 70.4169 29.1861 70.4169 27.6421V21.693C70.4169 12.5483 63.9026 4.83111 54.9816 2.36307V1.67853C54.9816 1.20579 54.6336 0.794452 54.1378 0.690082C52.6996 0.383112 50.8741 0.131396 48.7563 0.155954C46.8978 0.177442 45.2758 0.410739 43.9625 0.690082C43.4667 0.794452 43.1186 1.20272 43.1186 1.67853V2.2587C33.994 4.61009 27.2926 12.4163 27.2926 21.693V27.6421C27.2926 29.1861 25.953 30.4355 24.3047 30.4355V33.2289H68.3287Z" stroke="#262626" stroke-miterlimit="10" stroke-linecap="round"/>
<path d="M54.9062 4.38281V16.8519C54.9062 24.2745 61.3417 30.2911 69.281 30.2911" stroke="#262626" stroke-miterlimit="10" stroke-linecap="round"/>
<path d="M43.199 4.38281V16.8519C43.199 24.2745 36.7635 30.2911 28.8242 30.2911" stroke="white" stroke-miterlimit="10" stroke-linecap="round"/>
<path d="M32.9111 37.0475C32.5466 36.9891 31.5517 36.8571 30.6488 37.1641C30.3336 37.2685 30.0348 37.4281 29.7721 37.6614C28.2848 38.9814 28.9743 41.9222 30.7013 43.3649C31.7422 44.2336 32.9833 44.4086 33.5678 44.4547" stroke="#262626" stroke-miterlimit="10" stroke-linecap="round"/>
<path d="M64.6053 37.0467C64.9533 36.9884 65.8825 36.8656 66.7592 37.1296C67.1105 37.2339 67.452 37.4028 67.7442 37.6606C69.2283 38.9806 68.5421 41.9214 66.8117 43.3641C65.7709 44.2328 64.533 44.4078 63.9453 44.4539" stroke="#262626" stroke-miterlimit="10" stroke-linecap="round"/>
<path d="M47.8906 48.5889C48.3667 48.6196 48.9413 48.6165 49.5816 48.5275C50.9179 48.3433 51.9358 47.8645 52.5695 47.4961" stroke="#262626" stroke-miterlimit="10" stroke-linecap="round"/>
<path d="M29.0586 33.2285C29.1899 33.8946 29.4099 34.702 29.7941 35.5768C30.0633 36.1877 30.3621 36.7188 30.651 37.1639" stroke="#262626" stroke-miterlimit="10" stroke-linecap="round"/>
<path d="M32.8555 36.4241C32.9014 36.1048 33.0853 35.1133 33.9915 34.2814C35.0849 33.2776 36.4278 33.2316 36.72 33.2285" stroke="#262626" stroke-miterlimit="10" stroke-linecap="round"/>
<path d="M68.3307 33.2285C68.1994 33.8946 67.9794 34.702 67.592 35.5768C67.3293 36.1724 67.0404 36.6911 66.7613 37.1301C66.7514 37.1424 66.7448 37.1516 66.7383 37.1639" stroke="#262626" stroke-miterlimit="10" stroke-linecap="round"/>
<path d="M64.5319 36.4241C64.486 36.1048 64.2988 35.1133 63.3926 34.2814C62.3025 33.2776 60.9596 33.2316 60.6641 33.2285" stroke="#262626" stroke-miterlimit="10" stroke-linecap="round"/>
<path d="M38.7852 56.543V61.1814C38.7852 63.5235 39.8424 65.7583 41.6943 67.333L49.0491 73.586L56.4039 67.333C58.2558 65.7583 59.313 63.5235 59.313 61.1814V56.1348" stroke="#262626" stroke-miterlimit="10" stroke-linecap="round"/>
<path d="M38.7853 59.8242L35.4921 62.7711C34.819 63.3728 34.425 64.1955 34.3954 65.0642L33.9883 76.4006L40.4829 71.265L41.4974 70.4607C42.2329 69.8806 43.2935 69.8345 44.0815 70.3502L49.0493 73.5857" stroke="#262626" stroke-miterlimit="10" stroke-linecap="round"/>
<path d="M59.3147 59.8242L62.6113 62.7711C63.2811 63.3728 63.6751 64.1955 63.7047 65.0642V65.1778L64.1118 76.4006L64.056 76.3546L57.1083 70.8629L56.6026 70.4607C55.8671 69.8806 54.8066 69.8345 54.0186 70.3502L49.0508 73.5857V96.7404" stroke="#262626" stroke-miterlimit="10" stroke-linecap="round"/>
<path d="M33.9883 76.4004C33.9587 77.791 33.9292 79.1785 33.8963 80.569C33.8898 80.9006 33.8832 81.2352 33.8766 81.5667C33.8635 82.1591 33.8504 82.7485 33.8372 83.341C33.8175 84.1882 33.8011 85.0385 33.7814 85.8858C33.7617 86.7883 33.742 87.6938 33.7223 88.5963C33.7026 89.5571 33.6796 90.521 33.6599 91.4818C33.6172 93.3973 33.5778 95.3097 33.5352 97.2252" stroke="#262626" stroke-miterlimit="10" stroke-linecap="round"/>
<path d="M11.9165 84.3574C11.6013 84.9376 11.3255 85.4779 11.0825 85.9721C10.8264 86.4724 10.4554 87.3627 10.4455 88.5138C10.439 89.2751 10.59 89.9044 10.7377 90.3433" stroke="#262626" stroke-miterlimit="10" stroke-linecap="round"/>
<path d="M24.8815 70.0137C24.3562 70.3759 23.8242 70.7565 23.2956 71.1587C17.3658 75.6496 13.8854 80.7484 11.9219 84.3584" stroke="#262626" stroke-miterlimit="10" stroke-linecap="round"/>
<path d="M34.3954 65.0645C32.5436 65.7613 30.1138 66.8664 27.7334 68.2201C27.6578 68.2631 27.5889 68.3091 27.5232 68.3613C27.1358 68.6591 26.9027 69.1042 26.8928 69.583C26.8173 73.5522 26.768 77.2266 26.7385 80.5971C26.7385 80.9348 26.7352 81.2663 26.7352 81.5979C26.7286 82.1903 26.7254 82.7705 26.7221 83.3414C26.7188 84.2255 26.7155 85.0881 26.7122 85.9231C26.7122 86.8286 26.7089 87.7035 26.7089 88.5538C26.7122 89.5699 26.7122 90.546 26.7155 91.4792C26.7254 93.5666 26.7418 95.4576 26.7582 97.1459C26.7615 97.3331 26.7615 97.5235 26.7648 97.7107C26.8239 103.233 26.8961 108.817 25.7173 116.332C25.1033 120.264 24.3153 123.637 23.5963 126.28C23.373 127.115 23.153 127.877 22.9494 128.558C22.7984 130.477 22.7853 132.782 23.1202 135.358C23.3927 137.454 23.8458 139.351 24.3679 141.024" stroke="#262626" stroke-miterlimit="10" stroke-linecap="round"/>
<path d="M11.9208 84.3574H11.9175C10.9719 84.557 10.2824 84.9069 9.7636 85.2937C7.85922 86.7211 7.14344 89.5237 7.567 92.9986C7.82639 95.1229 8.50934 97.4957 9.60272 99.9576" stroke="#262626" stroke-miterlimit="10" stroke-linecap="round"/>
<path d="M4.07455 113.121C3.97276 114.214 3.88411 115.282 3.80859 116.332" stroke="#262626" stroke-miterlimit="10" stroke-linecap="round"/>
<path d="M7.53556 93.002C6.695 96.3602 5.9234 99.9886 5.27985 103.866C4.74794 107.092 4.35722 110.183 4.07812 113.118" stroke="#262626" stroke-miterlimit="10" stroke-linecap="round"/>
<path d="M4.07899 113.117H4.07571C3.48141 113.786 2.60146 114.984 2.25013 116.657C1.86269 118.511 2.28953 120.165 2.88055 121.424C3.50111 122.75 4.29898 123.637 4.50255 123.861" stroke="#262626" stroke-miterlimit="10" stroke-linecap="round"/>
<path d="M2.88076 121.424C2.41451 123.22 2.02707 125.571 2.16497 128.315C2.18139 128.644 2.20437 128.963 2.23393 129.273C2.31601 130.151 2.44406 130.968 2.59838 131.713" stroke="#262626" stroke-miterlimit="10" stroke-linecap="round"/>
<path d="M23.21 98.2765C23.2035 97.727 21.6241 97.0977 19.375 96.9043" stroke="#262626" stroke-miterlimit="10" stroke-linecap="round"/>
<path d="M19.4844 99.7343C21.5726 99.4918 23.0764 98.884 23.2012 98.3499C23.2045 98.3253 23.2078 98.3039 23.2078 98.2793" stroke="#262626" stroke-miterlimit="10" stroke-linecap="round"/>
<path d="M27.5109 68.3502C27.3336 68.2857 26.7196 68.0954 26.0991 68.3563C25.4654 68.6203 25.0385 69.268 25.0024 70.0201C24.9958 70.1674 25.0024 70.3178 25.0254 70.4713" stroke="#262626" stroke-miterlimit="10" stroke-linecap="round"/>
<path d="M42.1719 78.7677C46.1711 76.6589 48.0755 75.4033 47.8883 75.0043C47.7274 74.6605 46.0397 74.946 42.822 75.8546" stroke="#262626" stroke-miterlimit="10" stroke-linecap="round"/>
<path d="M49.5859 74.998C49.7632 75.833 50.7614 77.2666 52.2685 78.8904" stroke="#262626" stroke-miterlimit="10" stroke-linecap="round"/>
<path d="M50.1142 74.2246C49.9238 74.24 49.7727 74.2921 49.6742 74.3965C49.5921 74.4886 49.5527 74.6145 49.5593 74.7741C49.5593 74.8385 49.5659 74.9122 49.5856 74.989" stroke="#262626" stroke-miterlimit="10" stroke-linecap="round"/>
<path d="M53.8311 75.4904C53.4765 75.3093 51.3292 74.2227 50.2227 74.2227" stroke="#262626" stroke-miterlimit="10" stroke-linecap="round"/>
<path d="M26.7266 83.3418H33.7793" stroke="#262626" stroke-miterlimit="10" stroke-linecap="round"/>
<path d="M26.7266 91.4805H33.5692" stroke="#262626" stroke-miterlimit="10" stroke-linecap="round"/>
<path d="M33.7946 85.8863H33.7815C32.8654 85.7942 32.0971 86.3989 32.0183 87.0804C31.9329 87.8325 32.6914 88.6429 33.7224 88.5968H33.7388" stroke="white" stroke-miterlimit="10" stroke-linecap="round"/>
<path d="M26.7142 85.9233C27.6369 85.8066 28.4249 86.485 28.4249 87.2371C28.4249 87.9892 27.6369 88.6707 26.7109 88.554" stroke="white" stroke-miterlimit="10" stroke-linecap="round"/>
<path d="M26.7344 81.5976C27.68 81.5024 28.7044 81.4349 29.7978 81.4134C31.2852 81.3888 32.6544 81.4533 33.8758 81.5669H33.8824" stroke="#262626" stroke-miterlimit="10" stroke-linecap="round"/>
<path d="M26.7344 80.5976H26.7377C27.6833 80.5025 28.7044 80.4349 29.7978 80.4165C31.2885 80.3889 32.6576 80.4534 33.8824 80.57" stroke="white" stroke-miterlimit="10" stroke-linecap="round"/>
<path d="M64.0117 76.4004C64.0413 77.791 64.0741 79.1785 64.1037 80.569C64.1135 80.9006 64.1201 81.2352 64.1266 81.5667C64.1398 82.1591 64.1529 82.7485 64.166 83.341C64.1857 84.1882 64.2054 85.0385 64.2251 85.8858C64.2448 86.7883 64.2645 87.6938 64.2842 88.5963C64.3072 89.5571 64.3269 90.521 64.3499 91.4818C64.3893 93.3605 64.432 95.2361 64.4747 97.1147" stroke="#262626" stroke-miterlimit="10" stroke-linecap="round"/>
<path d="M73.1211 70.0137C73.6497 70.3759 74.1784 70.7565 74.707 71.1587C80.6368 75.6496 84.1172 80.7484 86.084 84.3584C86.3992 84.9386 86.675 85.4788 86.918 85.973C87.1741 86.4734 87.5451 87.3636 87.555 88.5148C87.5648 89.276 87.4105 89.9053 87.2627 90.3443" stroke="#262626" stroke-miterlimit="10" stroke-linecap="round"/>
<path d="M70.4922 68.3496L70.5414 68.3772C70.8829 68.5768 71.0931 68.9298 71.0996 69.3074C71.1784 73.3839 71.2277 77.1504 71.2572 80.5977C71.2572 80.9354 71.2605 81.2669 71.2638 81.5984C71.2638 82.1878 71.2704 82.7711 71.2736 83.342C71.2802 84.2261 71.2835 85.0887 71.2835 85.9236C71.2868 86.8292 71.2868 87.7071 71.2868 88.5544C71.2868 89.5674 71.2835 90.5435 71.2802 91.4798C71.2736 93.5672 71.2572 95.4581 71.2408 97.1465C71.2408 97.2815 71.2375 97.4166 71.2375 97.5517C71.1784 103.126 71.0931 108.744 72.2816 116.332C72.8891 120.221 73.6672 123.564 74.3797 126.195C74.6129 127.064 74.8394 127.853 75.0528 128.559C75.2006 130.477 75.2137 132.783 74.8788 135.358C74.6063 137.455 74.1532 139.352 73.6311 141.025" stroke="#262626" stroke-miterlimit="10" stroke-linecap="round"/>
<path d="M63.8867 65.1719C64.921 65.5771 66.0078 66.0467 67.134 66.5839C68.3489 67.1641 69.4652 67.7566 70.4897 68.349" stroke="#262626" stroke-miterlimit="10" stroke-linecap="round"/>
<path d="M86.082 84.3574C87.0474 84.5631 87.7402 84.9253 88.2359 85.2937C90.1863 86.7456 90.9021 89.6035 90.3767 92.9894C90.1797 94.2726 89.7989 95.6294 89.244 97.0138" stroke="#262626" stroke-miterlimit="10" stroke-linecap="round"/>
<path d="M93.9219 113.121C94.0237 114.214 94.1123 115.282 94.1878 116.332" stroke="#262626" stroke-miterlimit="10" stroke-linecap="round"/>
<path d="M90.4648 93.002C91.3054 96.3602 92.0803 99.9886 92.7206 103.866C93.2525 107.092 93.6432 110.183 93.9223 113.118" stroke="#262626" stroke-miterlimit="10" stroke-linecap="round"/>
<path d="M93.919 113.117C94.5133 113.786 95.3933 114.984 95.7446 116.657C96.132 118.511 95.7052 120.165 95.1142 121.424C94.4936 122.75 93.6958 123.637 93.4922 123.861" stroke="#262626" stroke-miterlimit="10" stroke-linecap="round"/>
<path d="M95.1172 121.424C95.5867 123.22 95.9709 125.571 95.833 128.315C95.8166 128.644 95.7936 128.963 95.764 129.273C95.6819 130.151 95.5539 130.968 95.3996 131.713" stroke="#262626" stroke-miterlimit="10" stroke-linecap="round"/>
<path d="M70.4883 68.3501H70.4916C71.2336 68.126 71.7097 68.2764 71.9001 68.3563C72.4944 68.5957 72.9377 69.2066 73.1084 70.017C73.2398 70.6186 73.2201 71.3339 73.0034 72.089" stroke="#262626" stroke-miterlimit="10" stroke-linecap="round"/>
<path d="M71.2754 83.3418H64.2227" stroke="#262626" stroke-miterlimit="10" stroke-linecap="round"/>
<path d="M71.2762 91.4805H64.4336" stroke="#262626" stroke-miterlimit="10" stroke-linecap="round"/>
<path d="M64.207 85.8857H64.2267C65.1395 85.7967 65.9046 86.4014 65.9834 87.0798C66.072 87.8288 65.3135 88.6392 64.2858 88.5962H64.2628" stroke="white" stroke-miterlimit="10" stroke-linecap="round"/>
<path d="M71.2849 85.9233C70.3622 85.8066 69.5742 86.485 69.5742 87.2371C69.5742 87.9892 70.3622 88.6707 71.2882 88.554" stroke="white" stroke-miterlimit="10" stroke-linecap="round"/>
<path d="M71.2652 81.5976C70.3196 81.5024 69.2951 81.4349 68.2018 81.4134C66.7144 81.3888 65.3485 81.4533 64.127 81.5669H64.1172" stroke="#262626" stroke-miterlimit="10" stroke-linecap="round"/>
<path d="M71.2652 80.5976H71.2586C70.3163 80.5025 69.2918 80.4349 68.2018 80.4165C66.7111 80.3889 65.3419 80.4534 64.1172 80.57" stroke="white" stroke-miterlimit="10" stroke-linecap="round"/>
<path d="M26.7656 97.7119C28.9622 97.5277 31.2179 97.365 33.536 97.2299C38.448 96.9353 43.6292 96.7603 49.0501 96.7419C54.4415 96.7234 59.5899 96.8616 64.4756 97.1164C66.7904 97.2361 69.0461 97.3834 71.2394 97.5523" stroke="#262626" stroke-miterlimit="10" stroke-linecap="round"/>
<path d="M50.2212 74.2227C50.5561 74.238 50.8221 74.4959 50.8221 74.8151C50.8221 75.1344 50.5397 75.4045 50.1884 75.4045C49.9093 75.4045 49.6696 75.2357 49.5875 74.9993C49.5842 74.9962 49.5842 74.9932 49.5842 74.9901C49.5645 74.9348 49.5547 74.8765 49.5547 74.8151C49.5547 74.8028 49.5547 74.7875 49.558 74.7752C49.5777 74.4897 49.8141 74.2595 50.1129 74.2257C50.1391 74.2257 50.1621 74.2257 50.1884 74.2257H50.2212V74.2227Z" stroke="#262626" stroke-miterlimit="10" stroke-linecap="round"/>
<path d="M50.5682 88.1941C50.4828 88.0928 50.4336 87.9638 50.4336 87.8288C50.4336 87.5034 50.716 87.2363 51.0673 87.2363C51.1395 87.2363 51.2085 87.2486 51.2741 87.2701C51.5204 87.3499 51.6977 87.5709 51.6977 87.8288C51.6977 88.1572 51.4153 88.4212 51.0673 88.4212C50.8966 88.4212 50.7422 88.3598 50.6306 88.2585" stroke="#262626" stroke-miterlimit="10" stroke-linecap="round"/>
<path d="M54.3377 87.8149C53.9929 87.6706 53.5562 87.5171 53.0374 87.4097C52.3413 87.2654 51.7306 87.25 51.2709 87.2715H51.2578" stroke="#262626" stroke-miterlimit="10" stroke-linecap="round"/>
<path d="M51.4825 89.3127C51.4135 89.2145 51.3413 89.1132 51.2658 89.0088C51.0556 88.7294 50.8422 88.4808 50.6288 88.2598C50.6091 88.2383 50.5861 88.2168 50.5664 88.1953" stroke="#262626" stroke-miterlimit="10" stroke-linecap="round"/>
<path d="M32.125 143.836V106.941C37.5459 106.416 43.5841 106.088 50.1378 106.131C55.782 106.171 61.0289 106.478 65.8095 106.941V143.836" stroke="#262626" stroke-miterlimit="10" stroke-linecap="round"/>
<path d="M32.125 118.49H65.8095" stroke="#262626" stroke-miterlimit="10" stroke-linecap="round"/>
<path d="M13.9209 98.1684C13.3365 97.6373 12.5058 96.8116 11.6816 95.6789C10.6769 94.2975 10.365 93.395 10.0564 93.4625C9.6525 93.5516 9.62623 95.2368 9.99069 96.6489C10.1975 97.4378 10.4996 98.0579 10.7393 98.4723" stroke="#262626" stroke-miterlimit="10"/>
<path d="M44.5131 73.8687C44.0173 73.7736 43.3344 73.5832 42.6055 73.1811C41.4727 72.558 40.8127 71.7414 40.4844 71.2656" stroke="#262626" stroke-miterlimit="10" stroke-linecap="round"/>
<path d="M54.0781 72.656C54.3605 72.613 54.6856 72.5393 55.0303 72.4135C56.127 72.0052 56.7869 71.2777 57.1054 70.8633" stroke="#262626" stroke-miterlimit="10" stroke-linecap="round"/>
<path d="M78.1945 82.1699C78.096 83.2228 77.876 84.4968 77.4163 85.8935C76.6808 88.1221 75.6071 89.8288 74.7305 90.9922" stroke="#262626" stroke-miterlimit="10" stroke-linecap="round"/>
<path d="M23.2087 98.2754C23.2054 98.303 23.2021 98.3245 23.2021 98.3491C22.7884 102.051 22.5225 106.118 22.5159 110.502C22.5028 116.322 22.946 121.617 23.5962 126.28" stroke="#262626" stroke-miterlimit="10" stroke-linecap="round"/>
<path d="M24.3367 94.9214C24.1594 96.8308 23.8146 97.8315 23.2958 97.9144C22.452 98.0525 21.1518 95.7594 19.3984 91.0352" stroke="#262626" stroke-miterlimit="10" stroke-linecap="round"/>
<path d="M74.7539 98.2765C74.7605 97.727 76.3398 97.0977 78.5889 96.9043" stroke="#262626" stroke-miterlimit="10" stroke-linecap="round"/>
<path d="M78.4773 99.7343C76.3858 99.4918 74.8852 98.884 74.7605 98.3499C74.7572 98.3253 74.7539 98.3039 74.7539 98.2793" stroke="#262626" stroke-miterlimit="10" stroke-linecap="round"/>
<path d="M74.7546 98.2754C74.7579 98.303 74.7612 98.3245 74.7612 98.3491C75.1749 102.051 75.4409 106.118 75.4474 110.502C75.4606 116.285 75.0239 121.553 74.3803 126.194C74.3738 126.222 74.3705 126.253 74.3672 126.28" stroke="#262626" stroke-miterlimit="10" stroke-linecap="round"/>
<path d="M72.3398 96.3452C73.1968 97.6129 74.0998 98.3251 74.6481 98.1379C75.1209 97.9752 75.226 97.174 75.3146 96.4649C75.4164 95.6852 75.4525 94.4174 74.9075 92.8242" stroke="#262626" stroke-miterlimit="10" stroke-linecap="round"/>
</g>
<defs>
<clipPath id="clip0_5286_19125">
<rect width="98" height="153" fill="white"/>
</clipPath>
</defs>
</svg>
