<svg width="293" height="216" viewBox="0 0 293 216" fill="none" xmlns="http://www.w3.org/2000/svg">
<g clip-path="url(#clip0_4912_19679)">
<path d="M234.25 130.873C251.021 130.873 264.616 119.03 264.616 104.421C264.616 89.8117 251.021 77.9688 234.25 77.9688C217.478 77.9688 203.883 89.8117 203.883 104.421C203.883 119.03 217.478 130.873 234.25 130.873Z" fill="#231F20" stroke="#231F20" stroke-miterlimit="10" stroke-linecap="round"/>
<path d="M283.964 159.484H256.824V184.318H283.964V159.484Z" fill="#231F20"/>
<path d="M189.938 74.0925C187.056 74.0925 183.427 73.0108 179.748 70.8779C176.726 69.1258 174.174 66.9282 172.562 64.6924C170.682 62.0872 170.234 59.6305 171.304 57.7718C172.369 55.917 174.713 55.0752 177.902 55.4066C180.64 55.6923 183.81 56.812 186.828 58.5641C193.661 62.5252 197.29 68.1622 195.273 71.6701C194.34 73.2926 192.414 74.0925 189.938 74.0925ZM176.601 58.5755C175.334 58.5755 174.39 58.8688 174.094 59.3906C173.723 60.0343 174.148 61.3673 175.171 62.7918C176.506 64.6429 178.762 66.5663 181.36 68.0746C186.972 71.3273 191.693 71.4187 192.478 70.0552C193.263 68.6878 190.821 64.6277 185.213 61.3712C182.615 59.8629 179.828 58.865 177.564 58.6288C177.227 58.5945 176.904 58.5755 176.601 58.5755Z" fill="#231F20"/>
<path d="M183.971 63.0669L183.968 63.0653C181.28 61.8567 178.126 63.0652 176.923 65.7646L171.837 77.1736C170.634 79.8729 171.837 83.041 174.524 84.2496L174.528 84.2511C177.215 85.4597 180.369 84.2512 181.573 81.5519L186.659 70.1429C187.862 67.4435 186.659 64.2755 183.971 63.0669Z" fill="#231F20"/>
<path d="M278.266 110.09H197.765C196.1 110.09 194.75 111.446 194.75 113.118V129.195C194.75 130.867 196.1 132.223 197.765 132.223H278.266C279.931 132.223 281.281 130.867 281.281 129.195V113.118C281.281 111.446 279.931 110.09 278.266 110.09Z" fill="#231F20"/>
<path d="M182.384 67.9823L189.817 72.8804C190.518 73.3451 190.867 74.1945 190.689 75.0172L189.305 81.454C189.051 82.6271 187.852 83.3279 186.715 82.9699L186.389 82.8671C185.353 82.5433 184.246 83.0918 183.875 84.1163L178.088 100.098L168.684 97.668L182.388 67.9785L182.384 67.9823Z" fill="#231F20"/>
<path d="M171.443 67.9824H182.387L170.564 100.913L156.59 100.102L170.211 68.7937C170.423 68.3024 170.909 67.9824 171.443 67.9824Z" fill="#231F20"/>
<path d="M122.238 152.732L113.785 151.136L116.845 134.8C124.031 96.4306 134.236 58.3085 147.17 21.4927L149.798 14.0085C152.183 7.22122 158.6 2.66211 165.763 2.66211H223.231V110.142H214.631V11.3004H165.763C162.236 11.3004 159.077 13.5438 157.906 16.8841L155.278 24.3684C142.487 60.7689 132.4 98.4607 125.294 136.4L122.234 152.736L122.238 152.732Z" fill="#231F20"/>
<path d="M247.17 69.061C247.284 64.0715 246.806 59.5695 246.081 55.6883C246.294 55.6655 246.741 55.5893 247.2 55.2618C247.477 55.0637 247.67 54.839 247.799 54.6485C247.913 54.4771 247.966 54.2753 247.955 54.0696C247.905 53.0451 247.856 52.0243 247.807 50.9959C247.788 50.6417 247.587 50.318 247.272 50.1504C246.423 49.6933 245.456 49.2515 244.375 48.8782L244.436 48.7792C244.549 47.0119 244.637 45.1913 244.694 43.3174C244.701 42.9975 244.709 42.6775 244.72 42.3576C244.788 39.2953 244.762 36.3588 244.663 33.5631L244.671 33.4565L246.794 33.5555L246.847 32.4052L246.942 30.4437C247.246 23.9802 242.278 18.4918 235.843 18.187C231.82 17.9966 228.175 19.8781 225.934 22.8909C224.592 24.7001 223.75 26.9168 223.636 29.3354C223.587 30.4209 222.669 31.255 221.589 31.2055L221.027 31.1788L220.971 32.3291L223.488 32.4509L225.912 32.5652C224.615 38.6478 226.662 43.824 230.075 45.2104C230.477 45.3742 231.198 45.6065 232.233 45.5951L232.119 48.6078C230.879 48.943 229.863 49.3277 229.139 49.6324C228.558 50.7217 227.974 51.8072 227.394 52.8965C224.16 54.5838 220.606 57.2499 217.061 60.754C216.632 60.6207 216.318 60.6702 216.139 60.7236C215.635 60.8683 215.214 61.3063 214.96 61.9271C213.841 61.969 212.692 61.9843 211.517 61.9652C205.503 61.8776 200.099 60.9711 195.439 59.7447C195.2 59.4171 194.972 59.3105 194.786 59.2953C194.419 59.2648 193.998 59.5771 193.611 60.0989L193.535 60.038C193.103 59.7866 192.496 59.4933 191.73 59.2953C191.127 59.1391 190.585 59.0858 190.156 59.0744C190.073 58.9829 189.258 58.0879 188.458 58.3012C188.382 58.3202 188.215 58.3697 188.082 58.5145C187.809 58.823 187.851 59.4057 188.188 59.9885C187.76 59.9885 185.568 59.9885 185.109 61.0587C185.083 61.1159 184.874 61.6339 185.132 62.0643C185.246 62.2585 185.416 62.3651 185.526 62.4223C184.707 62.5327 184.108 62.8222 183.881 63.2945C183.854 63.3516 183.695 63.6754 183.808 64.0144C183.964 64.4828 184.59 64.799 185.45 64.8447V64.8675C184.798 64.8523 184.294 65.0808 184.157 65.3703C184.051 65.5988 184.07 65.8197 184.07 65.8197C184.07 65.8197 184.085 65.9797 184.161 66.1358C184.256 66.3263 184.571 66.4939 185.011 66.5815C184.392 66.6348 183.915 66.9128 183.79 67.3128C183.733 67.4918 183.748 67.6898 183.808 67.8231C184.184 68.6496 186.721 68.2002 186.846 68.1812C187.908 68.3449 188.833 68.3526 189.55 68.3183C189.997 68.2954 190.824 68.2307 191.836 68.0021C192.587 67.8346 193.228 67.6251 193.74 67.4232C193.998 67.5946 194.237 67.6898 194.407 67.7393C194.43 67.9069 194.453 68.0707 194.476 68.2231C195.643 68.7829 197.414 69.5904 199.621 70.4322C204.543 72.3061 211.35 74.896 218.316 75.1817L218.422 76.3472L207.076 91.6166C206.693 92.1994 206.31 92.7821 205.924 93.3648C206.853 93.6924 207.778 94.02 208.703 94.3437C205.772 99.2913 202.731 104.304 199.58 109.373C196.804 113.829 194.032 118.19 191.267 122.453C190.873 122.578 190.646 122.776 190.513 122.929C190.081 123.431 189.997 124.235 190.259 125.122C189.641 126.117 188.988 127.114 188.298 128.128C184.95 133.014 181.359 137.113 177.844 140.537C177.726 140.441 177.267 140.099 176.763 140.221C176.763 140.221 176.331 140.327 176.001 140.898C175.785 141.279 175.845 141.942 176.054 142.711H176.05C175.553 143.035 175.06 143.355 174.567 143.675C174.192 143.386 172.326 141.999 170.146 142.521C169.619 142.647 169.175 142.86 168.819 143.085C168.064 144.113 167.309 145.141 166.555 146.17C167.469 146.84 168.379 147.518 169.289 148.188C176.277 153.395 183.266 158.598 190.255 163.801C190.646 163.107 191.036 162.414 191.427 161.721C191.65 161.824 191.878 161.923 192.121 162.014C196.629 156.69 201.237 150.283 205.362 142.692C206.383 140.822 207.319 138.975 208.18 137.158C208.745 136.914 209.173 136.499 209.363 135.981C209.56 135.444 209.447 134.93 209.359 134.66C210.978 130.367 212.643 126.817 213.974 124.201L220.239 113.498C220.652 113.258 221.111 112.931 221.558 112.489C222.226 111.83 222.631 111.156 222.87 110.676C223.902 110.245 224.983 109.659 226.052 108.874C229.249 106.524 230.697 103.58 231.262 102.236V102.228C232.957 102.818 234.652 103.405 236.347 103.991C240.53 97.3298 246.802 85.0845 247.17 69.0572V69.061Z" fill="#231F20" stroke="#231F20" stroke-miterlimit="10" stroke-linecap="round"/>
<path d="M208.66 195.192C208.66 193.345 208.47 191.563 208.125 189.875C206.563 180.628 200.689 173.749 193.674 173.749H185.536C184.338 173.749 183.173 173.943 182.055 174.305C183.026 173.318 184.11 172.393 185.335 171.559C191 167.701 196.912 167.32 199.737 167.339C201.489 164.322 203.241 161.302 204.997 158.285C205.22 157.901 205.338 157.459 205.338 157.013V112.805C205.338 111.411 204.212 110.279 202.824 110.279H193.025C191.637 110.279 190.511 111.411 190.511 112.805V114.857C190.511 115.417 190.325 115.962 189.984 116.404C187.019 120.239 184.057 124.075 181.092 127.906L135.621 168.744H122.675L122.326 163.522L119.827 156.491L111.026 148.657L100.624 146.196H67.9711V147.274L74.0687 156.796C66.3101 161.656 60.9141 172.416 60.9141 184.92C60.9141 201.98 70.9554 215.809 83.3402 215.809H95.2965C102.577 215.809 109.016 210.763 112.983 203.012C114.135 200.966 115.091 198.689 115.808 196.232L124.495 196.091H170.292C170.785 207.095 177.417 215.809 185.528 215.809H193.666C198.622 215.809 203.006 212.374 205.706 207.099C207.545 203.831 208.648 199.698 208.648 195.196L208.66 195.192Z" fill="#231F20"/>
<path d="M259.284 139.416H193.992V172.564H259.284V139.416Z" fill="#7099ED" stroke="#231F20" stroke-miterlimit="10"/>
<path d="M248.448 117.215H118.567C116.638 117.215 115.074 118.785 115.074 120.723V135.908C115.074 137.846 116.638 139.416 118.567 139.416H248.448C250.377 139.416 251.941 137.846 251.941 135.908V120.723C251.941 118.785 250.377 117.215 248.448 117.215Z" fill="#231F20" stroke="#231F20" stroke-miterlimit="10"/>
<path d="M102.531 121.725H194.591C195.986 121.725 197.116 122.863 197.116 124.261V151.079H102.531V121.725Z" fill="white" stroke="#231F20" stroke-miterlimit="10"/>
<path d="M128.271 120.681H121.282C120.505 120.681 119.879 120.049 119.879 119.272V104.547C119.879 104.113 120.08 103.698 120.421 103.431L129.223 96.5756C129.659 96.2367 130.25 96.1833 130.736 96.4423H193.994L190.017 120.681H128.271Z" fill="white" stroke="#231F20" stroke-miterlimit="10"/>
<path d="M191.01 120.27L196.603 114.652C196.865 114.39 197.013 114.028 197.013 113.655V99.6878C197.013 99.1622 196.725 98.6822 196.262 98.4385L192.478 96.4427C191.992 96.1875 191.397 96.237 190.965 96.576L182.163 103.432C181.822 103.698 181.621 104.11 181.621 104.548V119.273C181.621 120.053 182.251 120.682 183.024 120.682H190.013C190.385 120.682 190.741 120.533 191.006 120.27H191.01Z" fill="white" stroke="#231F20" stroke-miterlimit="10"/>
<path d="M126.336 103.957H181.62" stroke="#231F20" stroke-miterlimit="10"/>
<path d="M126.224 5.36328H123.535V35.864H126.224V5.36328Z" fill="#7099ED" stroke="#231F20" stroke-miterlimit="10"/>
<path d="M126.492 0.191406H111.176V5.31803H126.492V0.191406Z" fill="#7099ED" stroke="#231F20" stroke-miterlimit="10"/>
<path d="M125.953 30.7383H110.637V35.8649H125.953V30.7383Z" fill="#7099ED" stroke="#231F20" stroke-miterlimit="10"/>
<path d="M125.147 17.5105H121.386L120.309 5.09766H127.567L125.147 17.5105Z" fill="#7099ED" stroke="#231F20" stroke-miterlimit="10"/>
<path d="M123.267 9.95312H120.848C118.918 9.95312 117.355 11.9489 117.355 14.4056C117.355 16.8623 118.918 18.8581 120.848 18.8581H123.267C125.197 18.8581 126.76 16.8623 126.76 14.4056C126.76 11.9489 125.197 9.95312 123.267 9.95312Z" fill="#7099ED" stroke="#231F20" stroke-miterlimit="10"/>
<path d="M123.939 17.7796C125.051 17.7796 125.953 16.3302 125.953 14.5422C125.953 12.7542 125.051 11.3047 123.939 11.3047C122.827 11.3047 121.926 12.7542 121.926 14.5422C121.926 16.3302 122.827 17.7796 123.939 17.7796Z" fill="#7099ED" stroke="#231F20" stroke-miterlimit="10"/>
<path d="M120.041 111.443H117.891V15.0845C117.891 12.1099 120.302 9.6875 123.264 9.6875V9.95792C121.485 9.95792 120.041 11.4091 120.041 13.1954V111.443Z" fill="white" stroke="#231F20" stroke-miterlimit="10"/>
<path d="M148.526 4.28516H113.324V6.98558H148.526V4.28516Z" fill="#7099ED" stroke="#231F20" stroke-miterlimit="10"/>
<path d="M155.709 0.191406H134.637V180.949H155.709V0.191406Z" fill="#7099ED" stroke="#231F20" stroke-miterlimit="10"/>
<path d="M152.559 0.191406H141.945V180.949H152.559V0.191406Z" fill="white" stroke="#231F20" stroke-miterlimit="10"/>
<path d="M136.934 0.191406V180.949" stroke="#231F20" stroke-miterlimit="10"/>
<path d="M139.732 0.191406V21.1359C139.732 22.3852 138.723 23.3945 137.483 23.3945H136.934" stroke="#231F20" stroke-miterlimit="10"/>
<path d="M139.731 1.79883C139.527 1.92071 138.078 2.83101 137.832 4.60971C137.623 6.1218 138.366 7.66055 139.731 8.52895" stroke="#231F20" stroke-miterlimit="10"/>
<path d="M117.955 0.191406H96.8828V180.949H117.955V0.191406Z" fill="#7099ED" stroke="#231F20" stroke-miterlimit="10"/>
<path d="M114.669 0.191406H104.191V180.949H114.669V0.191406Z" fill="white" stroke="#231F20" stroke-miterlimit="10"/>
<path d="M101.98 0.191406V180.949" stroke="#231F20" stroke-miterlimit="10"/>
<path d="M99.1758 0.191406V21.1359C99.1758 22.3852 100.184 23.3945 101.424 23.3945H101.974" stroke="#231F20" stroke-miterlimit="10"/>
<path d="M101.934 8.5293C101.729 8.40742 100.28 7.49712 100.034 5.71841C99.8252 4.20633 100.568 2.66758 101.934 1.79917" stroke="#231F20" stroke-miterlimit="10"/>
<path d="M159.817 2.66797H157.129V35.8691H159.817V2.66797Z" fill="#7099ED" stroke="#231F20" stroke-miterlimit="10"/>
<path d="M159.812 0.191406H144.496V5.31803H159.812V0.191406Z" fill="#7099ED" stroke="#231F20" stroke-miterlimit="10"/>
<path d="M159.812 30.7383H144.496V35.8649H159.812V30.7383Z" fill="#7099ED" stroke="#231F20" stroke-miterlimit="10"/>
<path d="M278.998 117.215H220.692C218.763 117.215 217.199 118.785 217.199 120.723V135.908C217.199 137.846 218.763 139.416 220.692 139.416H278.998C280.927 139.416 282.491 137.846 282.491 135.908V120.723C282.491 118.785 280.927 117.215 278.998 117.215Z" fill="#7099ED" stroke="#231F20" stroke-miterlimit="10"/>
<path d="M184.394 152.873L175.941 151.277L179.002 134.941C186.188 96.5712 196.392 58.4491 209.327 21.6334L211.954 14.1491C214.34 7.36185 220.756 2.80273 227.919 2.80273H285.387V110.279H276.787V11.4411H227.919C224.392 11.4411 221.234 13.6844 220.062 17.0247L217.434 24.509C204.643 60.9096 194.557 98.6013 187.45 136.541L184.39 152.876L184.394 152.873Z" fill="#231F20"/>
<path d="M190.583 61.6621L184.133 64.6309L185.476 67.574L191.926 64.6052L190.583 61.6621Z" fill="#231F20"/>
<path d="M174.012 61.1612L172.484 64.0117L179.473 67.791L181.001 64.9405L174.012 61.1612Z" fill="#231F20"/>
<path d="M259.783 2.66602H201.199V10.4931H259.783V2.66602Z" fill="#231F20"/>
<path d="M152.127 146.195V147.277L183.65 196.494L208.655 196.09L206.482 163.525L203.983 156.49L195.182 148.656L184.78 146.195H151.676" fill="#231F20"/>
<path d="M152.127 146.195V147.277L183.65 196.494L208.655 196.09L206.482 163.525L203.983 156.49L195.182 148.656L184.78 146.195H151.676" stroke="#231F20" stroke-miterlimit="10"/>
<path d="M179.457 154.031H167.5C155.116 154.031 145.074 167.861 145.074 184.92C145.074 201.98 155.116 215.81 167.5 215.81H179.457C191.512 215.81 201.284 201.98 201.284 184.92C201.284 167.861 191.512 154.031 179.457 154.031Z" fill="#7099ED" stroke="#262626" stroke-miterlimit="10"/>
<path d="M181.623 200.507C187.468 200.507 192.206 193.802 192.206 185.531C192.206 177.26 187.468 170.555 181.623 170.555C175.778 170.555 171.039 177.26 171.039 185.531C171.039 193.802 175.778 200.507 181.623 200.507Z" fill="white" stroke="#262626" stroke-miterlimit="10"/>
<path d="M183.797 185.529C183.797 188.058 182.349 190.111 180.559 190.111C178.769 190.111 177.32 188.058 177.32 185.529C177.32 183 178.769 180.947 180.559 180.947" stroke="#262626" stroke-miterlimit="10"/>
<path d="M178.849 196.092C182.971 196.092 186.312 191.364 186.312 185.531C186.312 179.697 182.971 174.969 178.849 174.969C174.728 174.969 171.387 179.697 171.387 185.531C171.387 191.364 174.728 196.092 178.849 196.092Z" stroke="#262626" stroke-miterlimit="10"/>
<path d="M181.621 213.608C192.579 213.608 201.461 201.037 201.461 185.53C201.461 170.022 192.579 157.451 181.621 157.451C170.664 157.451 161.781 170.022 161.781 185.53C161.781 201.037 170.664 213.608 181.621 213.608Z" stroke="#262626" stroke-miterlimit="10"/>
<path d="M179.579 178.803H176.978C174.282 178.803 172.094 181.815 172.094 185.529C172.094 189.243 174.282 192.255 176.978 192.255H179.579C182.203 192.255 184.331 189.243 184.331 185.529C184.331 181.815 182.203 178.803 179.579 178.803Z" stroke="#262626" stroke-miterlimit="10"/>
<path d="M277.826 173.748H269.689C261.255 173.748 254.418 183.163 254.418 194.776C254.418 206.389 261.255 215.805 269.689 215.805H277.826C286.032 215.805 292.687 206.389 292.687 194.776C292.687 183.163 286.036 173.748 277.826 173.748Z" fill="#7099ED" stroke="#231F20" stroke-miterlimit="10"/>
<path d="M279.306 205.388C283.286 205.388 286.511 200.823 286.511 195.192C286.511 189.561 283.286 184.996 279.306 184.996C275.327 184.996 272.102 189.561 272.102 195.192C272.102 200.823 275.327 205.388 279.306 205.388Z" fill="white" stroke="#231F20" stroke-miterlimit="10"/>
<path d="M280.785 195.192C280.785 196.913 279.799 198.311 278.582 198.311C277.365 198.311 276.379 196.913 276.379 195.192C276.379 193.47 277.365 192.072 278.582 192.072" stroke="#231F20" stroke-miterlimit="10"/>
<path d="M277.417 202.382C280.224 202.382 282.499 199.162 282.499 195.191C282.499 191.22 280.224 188 277.417 188C274.611 188 272.336 191.22 272.336 195.191C272.336 199.162 274.611 202.382 277.417 202.382Z" stroke="#231F20" stroke-miterlimit="10"/>
<path d="M279.304 214.309C286.764 214.309 292.811 205.75 292.811 195.192C292.811 184.635 286.764 176.076 279.304 176.076C271.844 176.076 265.797 184.635 265.797 195.192C265.797 205.75 271.844 214.309 279.304 214.309Z" stroke="#231F20" stroke-miterlimit="10"/>
<path d="M277.909 190.613H276.138C274.303 190.613 272.812 192.662 272.812 195.191C272.812 197.72 274.303 199.77 276.138 199.77H277.909C279.695 199.77 281.144 197.72 281.144 195.191C281.144 192.662 279.695 190.613 277.909 190.613Z" stroke="#231F20" stroke-miterlimit="10"/>
<path d="M208.654 196.091H254.807C256.684 196.091 258.254 194.663 258.429 192.785C258.914 187.552 260.977 177.356 269.49 171.563C275.155 167.704 281.067 167.324 283.892 167.343C285.644 164.326 287.396 161.306 289.152 158.289C289.376 157.904 289.493 157.463 289.493 157.017V112.808C289.493 111.414 288.367 110.283 286.979 110.283H277.18C275.793 110.283 274.666 111.414 274.666 112.808V114.861C274.666 115.421 274.48 115.966 274.139 116.408C261.311 133.003 248.486 149.601 235.657 166.196C234.414 167.807 232.495 168.752 230.462 168.752H205.867L206.402 193.882C206.428 195.112 207.429 196.095 208.651 196.095L208.654 196.091Z" fill="#F4F3F1" stroke="#231F20" stroke-miterlimit="10"/>
<path d="M276.236 118.041C276.938 117.135 277.321 116.004 277.321 114.857V112.945H286.835V156.975L282.349 164.703C278.405 164.878 273.081 165.895 268 169.353C258.66 175.714 256.339 186.607 255.786 192.537C255.74 193.044 255.319 193.425 254.807 193.425H209.052L208.586 178.803" stroke="#231F20" stroke-miterlimit="10"/>
<path d="M208.033 168.749H205.883V168.044C205.883 156.591 196.608 147.275 185.205 147.275H179.953V145.115H185.205C197.791 145.115 208.033 155.399 208.033 168.044V168.749Z" fill="#F4F3F1" stroke="#231F20" stroke-miterlimit="10"/>
<path d="M179.959 145.119H152.129V147.279H179.959V145.119Z" fill="#F4F3F1" stroke="#231F20" stroke-miterlimit="10"/>
<path d="M242.046 106.045C254.662 106.045 264.89 94.2017 264.89 79.5926C264.89 64.9836 254.662 53.1406 242.046 53.1406C229.43 53.1406 219.203 64.9836 219.203 79.5926C219.203 94.2017 229.43 106.045 242.046 106.045Z" fill="#231F20" stroke="#231F20" stroke-miterlimit="10" stroke-linecap="round"/>
</g>
<defs>
<clipPath id="clip0_4912_19679">
<rect width="293" height="216" fill="white"/>
</clipPath>
</defs>
</svg>
