<svg width="210" height="62" viewBox="0 0 210 62" fill="none" xmlns="http://www.w3.org/2000/svg">
<path d="M8.9668 19.1641V18.6172C8.9668 16.2279 9.64714 14.444 11.0078 13.2656C12.3685 12.0807 14.123 11.4883 16.2715 11.4883C18.2572 11.4883 19.8392 11.9082 21.0176 12.748C22.196 13.5814 22.847 14.8216 22.9707 16.4688L22.9902 16.6738H20.2461L20.2363 16.459C20.1452 15.4759 19.7578 14.7533 19.0742 14.291C18.3971 13.8223 17.4531 13.5879 16.2422 13.5879C14.901 13.5879 13.8171 13.985 12.9902 14.7793C12.1699 15.5736 11.7598 16.791 11.7598 18.4316V19.3496C11.7598 21.0618 12.1699 22.2988 12.9902 23.0605C13.8171 23.8223 14.901 24.2031 16.2422 24.2031C17.5964 24.2031 18.5794 23.9395 19.1914 23.4121C19.8034 22.8783 20.1517 22.1816 20.2363 21.3223L20.2461 21.1172H22.9902L22.9805 21.332C22.8698 22.8555 22.2448 24.0632 21.1055 24.9551C19.9727 25.847 18.3646 26.293 16.2812 26.293C14.1198 26.293 12.3587 25.7135 10.998 24.5547C9.64388 23.3893 8.9668 21.5924 8.9668 19.1641ZM23.6152 13.8906V11.7812H36.6914V13.8906H31.5156V26H28.8008V13.8906H23.6152ZM38.5371 26V11.7812H44.7383C46.5677 11.7812 47.9674 12.1719 48.9375 12.9531C49.9141 13.7344 50.4023 14.877 50.4023 16.3809C50.4023 17.8522 49.9173 18.9948 48.9473 19.8086C47.9772 20.6224 46.571 21.0163 44.7285 20.9902H41.252V26H38.5371ZM41.252 18.9785H44.4941C45.666 18.9785 46.4928 18.7539 46.9746 18.3047C47.4564 17.849 47.6973 17.2109 47.6973 16.3906C47.6973 15.5638 47.4564 14.9323 46.9746 14.4961C46.4928 14.0534 45.666 13.832 44.4941 13.832H41.252V18.9785ZM51.8574 19.1445V18.6074C51.8574 16.2376 52.5475 14.4603 53.9277 13.2754C55.3079 12.084 57.0723 11.4883 59.2207 11.4883C61.3626 11.4883 63.127 12.084 64.5137 13.2754C65.9069 14.4603 66.6035 16.2376 66.6035 18.6074V19.1445C66.6035 21.5339 65.9069 23.3242 64.5137 24.5156C63.127 25.7005 61.3626 26.293 59.2207 26.293C57.0723 26.293 55.3079 25.7005 53.9277 24.5156C52.5475 23.3242 51.8574 21.5339 51.8574 19.1445ZM54.6406 19.3105C54.6406 20.9902 55.0573 22.2272 55.8906 23.0215C56.7305 23.8092 57.8405 24.2031 59.2207 24.2031C60.6009 24.2031 61.7142 23.8092 62.5605 23.0215C63.4069 22.2272 63.8301 20.9902 63.8301 19.3105V18.4609C63.8301 16.7812 63.4069 15.5508 62.5605 14.7695C61.7207 13.9818 60.6074 13.5879 59.2207 13.5879C57.8405 13.5879 56.7305 13.9818 55.8906 14.7695C55.0573 15.5508 54.6406 16.778 54.6406 18.4512V19.3105ZM82.4727 26H79.8164V16.4785C79.8164 16.2702 79.8197 16.0423 79.8262 15.7949C79.8327 15.541 79.8424 15.3132 79.8555 15.1113H79.7383C79.6406 15.3066 79.543 15.4987 79.4453 15.6875C79.3542 15.8763 79.224 16.0814 79.0547 16.3027L72.0527 26H69.1816V11.7812H71.8477V21.293C71.8477 21.4948 71.8411 21.7194 71.8281 21.9668C71.8216 22.2142 71.8151 22.4421 71.8086 22.6504H71.9453C72.0169 22.4876 72.1048 22.3021 72.209 22.0938C72.3197 21.8854 72.4466 21.6803 72.5898 21.4785L79.6016 11.7812H82.4727V26ZM84.3184 13.8906V11.7812H97.3945V13.8906H92.2188V26H89.5039V13.8906H84.3184ZM99.2402 26V11.7812H110.051V13.8809H101.926V17.6699H109.055V19.7109H101.926V23.9102H110.168V26H99.2402ZM114.123 11.7812H125.539V26H122.834V13.8711H116.408L116.047 20.5898C115.956 22.4518 115.653 23.8646 115.139 24.8281C114.624 25.7917 113.648 26.2734 112.209 26.2734C111.988 26.2734 111.776 26.2572 111.574 26.2246C111.372 26.1986 111.174 26.1497 110.979 26.0781V23.7734C111.128 23.8255 111.268 23.8613 111.398 23.8809C111.535 23.9004 111.675 23.9102 111.818 23.9102C112.463 23.9102 112.915 23.6367 113.176 23.0898C113.436 22.543 113.602 21.5924 113.674 20.2383L114.123 11.7812ZM128.85 11.7812H131.564V16.918H135.49C137.248 16.918 138.55 17.3411 139.396 18.1875C140.243 19.0339 140.666 20.1211 140.666 21.4492C140.666 22.8555 140.243 23.9655 139.396 24.7793C138.55 25.5931 137.248 26 135.49 26H128.85V11.7812ZM131.564 18.9688V23.9492H135.295C136.258 23.9492 136.942 23.7311 137.346 23.2949C137.749 22.8522 137.951 22.237 137.951 21.4492C137.951 20.7396 137.749 20.1504 137.346 19.6816C136.942 19.2064 136.258 18.9688 135.295 18.9688H131.564ZM142.17 19.1641V18.6172C142.17 16.2279 142.85 14.444 144.211 13.2656C145.572 12.0807 147.326 11.4883 149.475 11.4883C151.46 11.4883 153.042 11.9082 154.221 12.748C155.399 13.5814 156.05 14.8216 156.174 16.4688L156.193 16.6738H153.449L153.439 16.459C153.348 15.4759 152.961 14.7533 152.277 14.291C151.6 13.8223 150.656 13.5879 149.445 13.5879C148.104 13.5879 147.02 13.985 146.193 14.7793C145.373 15.5736 144.963 16.791 144.963 18.4316V19.3496C144.963 21.0618 145.373 22.2988 146.193 23.0605C147.02 23.8223 148.104 24.2031 149.445 24.2031C150.799 24.2031 151.783 23.9395 152.395 23.4121C153.007 22.8783 153.355 22.1816 153.439 21.3223L153.449 21.1172H156.193L156.184 21.332C156.073 22.8555 155.448 24.0632 154.309 24.9551C153.176 25.847 151.568 26.293 149.484 26.293C147.323 26.293 145.562 25.7135 144.201 24.5547C142.847 23.3893 142.17 21.5924 142.17 19.1641ZM156.818 13.8906V11.7812H169.895V13.8906H164.719V26H162.004V13.8906H156.818ZM171.74 26V11.7812H177.775C179.468 11.7812 180.79 12.071 181.74 12.6504C182.691 13.2298 183.166 14.1868 183.166 15.5215C183.166 16.3092 182.961 16.9505 182.551 17.4453C182.147 17.9336 181.633 18.2852 181.008 18.5V18.5391C181.789 18.7474 182.421 19.1283 182.902 19.6816C183.391 20.235 183.635 20.9772 183.635 21.9082C183.635 23.2689 183.127 24.291 182.111 24.9746C181.096 25.6582 179.755 26 178.088 26H171.74ZM174.416 24.0469H177.951C178.96 24.0469 179.709 23.8613 180.197 23.4902C180.686 23.1126 180.93 22.543 180.93 21.7812C180.93 21.0651 180.686 20.515 180.197 20.1309C179.709 19.7402 178.96 19.5449 177.951 19.5449H174.416V24.0469ZM174.416 17.709H177.639C178.635 17.709 179.357 17.5365 179.807 17.1914C180.262 16.8464 180.49 16.3516 180.49 15.707C180.49 15.0299 180.266 14.5352 179.816 14.2227C179.367 13.9102 178.641 13.7539 177.639 13.7539H174.416V17.709ZM185.49 19.1445V18.6074C185.49 16.2376 186.18 14.4603 187.561 13.2754C188.941 12.084 190.705 11.4883 192.854 11.4883C194.995 11.4883 196.76 12.084 198.146 13.2754C199.54 14.4603 200.236 16.2376 200.236 18.6074V19.1445C200.236 21.5339 199.54 23.3242 198.146 24.5156C196.76 25.7005 194.995 26.293 192.854 26.293C190.705 26.293 188.941 25.7005 187.561 24.5156C186.18 23.3242 185.49 21.5339 185.49 19.1445ZM188.273 19.3105C188.273 20.9902 188.69 22.2272 189.523 23.0215C190.363 23.8092 191.473 24.2031 192.854 24.2031C194.234 24.2031 195.347 23.8092 196.193 23.0215C197.04 22.2272 197.463 20.9902 197.463 19.3105V18.4609C197.463 16.7812 197.04 15.5508 196.193 14.7695C195.354 13.9818 194.24 13.5879 192.854 13.5879C191.473 13.5879 190.363 13.9818 189.523 14.7695C188.69 15.5508 188.273 16.778 188.273 18.4512V19.3105ZM22.9023 49H20.2461V39.4785C20.2461 39.2702 20.2493 39.0423 20.2559 38.7949C20.2624 38.541 20.2721 38.3132 20.2852 38.1113H20.168C20.0703 38.3066 19.9727 38.4987 19.875 38.6875C19.7839 38.8763 19.6536 39.0814 19.4844 39.3027L12.4824 49H9.61133V34.7812H12.2773V44.293C12.2773 44.4948 12.2708 44.7194 12.2578 44.9668C12.2513 45.2142 12.2448 45.4421 12.2383 45.6504H12.375C12.4466 45.4876 12.5345 45.3021 12.6387 45.0938C12.7493 44.8854 12.8763 44.6803 13.0195 44.4785L20.0312 34.7812H22.9023V49ZM31.2324 49V34.7812H37.4336C39.263 34.7812 40.6628 35.1719 41.6328 35.9531C42.6094 36.7344 43.0977 37.877 43.0977 39.3809C43.0977 40.8522 42.6126 41.9948 41.6426 42.8086C40.6725 43.6224 39.2663 44.0163 37.4238 43.9902H33.9473V49H31.2324ZM33.9473 41.9785H37.1895C38.3613 41.9785 39.1882 41.7539 39.6699 41.3047C40.1517 40.849 40.3926 40.2109 40.3926 39.3906C40.3926 38.5638 40.1517 37.9323 39.6699 37.4961C39.1882 37.0534 38.3613 36.832 37.1895 36.832H33.9473V41.9785ZM45.1973 49V34.7812H56.0078V36.8809H47.8828V40.6699H55.0117V42.7109H47.8828V46.9102H56.125V49H45.1973ZM58.4199 49V34.7812H61.6328L66.4082 45.0352C66.5059 45.2435 66.6035 45.4551 66.7012 45.6699C66.7988 45.8783 66.8737 46.0573 66.9258 46.207H66.9844C67.0365 46.0573 67.1048 45.8783 67.1895 45.6699C67.2741 45.4551 67.362 45.2435 67.4531 45.0352L72.2871 34.7812H75.5684V49H72.8926L72.9023 39.3516C72.9023 39.1497 72.9089 38.9349 72.9219 38.707C72.9349 38.4727 72.9479 38.2578 72.9609 38.0625H72.8926C72.847 38.2578 72.7884 38.4727 72.7168 38.707C72.6517 38.9349 72.5736 39.1497 72.4824 39.3516L67.9707 49H65.666L61.1738 39.3516C61.0762 39.1562 60.9915 38.9447 60.9199 38.7168C60.8483 38.4824 60.7897 38.2643 60.7441 38.0625H60.6758C60.6888 38.2643 60.7018 38.4824 60.7148 38.7168C60.7344 38.9447 60.7441 39.1595 60.7441 39.3613V49H58.4199ZM78.1465 42.1445V41.6074C78.1465 39.2376 78.8366 37.4603 80.2168 36.2754C81.597 35.084 83.3613 34.4883 85.5098 34.4883C87.6517 34.4883 89.416 35.084 90.8027 36.2754C92.196 37.4603 92.8926 39.2376 92.8926 41.6074V42.1445C92.8926 44.5339 92.196 46.3242 90.8027 47.5156C89.416 48.7005 87.6517 49.293 85.5098 49.293C83.3613 49.293 81.597 48.7005 80.2168 47.5156C78.8366 46.3242 78.1465 44.5339 78.1465 42.1445ZM80.9297 42.3105C80.9297 43.9902 81.3464 45.2272 82.1797 46.0215C83.0195 46.8092 84.1296 47.2031 85.5098 47.2031C86.89 47.2031 88.0033 46.8092 88.8496 46.0215C89.696 45.2272 90.1191 43.9902 90.1191 42.3105V41.4609C90.1191 39.7812 89.696 38.5508 88.8496 37.7695C88.0098 36.9818 86.8965 36.5879 85.5098 36.5879C84.1296 36.5879 83.0195 36.9818 82.1797 37.7695C81.3464 38.5508 80.9297 39.778 80.9297 41.4512V42.3105ZM95.4707 49V34.7812H98.1855V40.6113H105.92V34.7812H108.625V49H105.92V42.7207H98.1855V49H95.4707ZM110.471 36.8906V34.7812H123.547V36.8906H118.371V49H115.656V36.8906H110.471Z" fill="#262626"/>
</svg>
