<svg width="384" height="240" viewBox="18 10 384 240" fill="none" xmlns="http://www.w3.org/2000/svg">
<g filter="url(#filter0_d_1781_17106)">
<g clip-path="url(#clip0_1781_17106)">
<rect x="19" y="9" width="384" height="240" rx="32" fill="#7099ED"/>
<rect x="43" y="33" width="183" height="62" rx="8" fill="#262626"/>
<path d="M53.5488 56.832C53.7311 56.8841 53.9297 56.9264 54.1445 56.959C54.3594 56.9915 54.5775 57.0078 54.7988 57.0078C55.3587 57.0078 55.8307 56.8809 56.2148 56.627C56.6055 56.373 56.9896 55.9108 57.3672 55.2402L57.3379 55.3184L51.0684 44.7812H54.1836L58.041 51.5977C58.2233 51.9362 58.3503 52.1901 58.4219 52.3594C58.5 52.5221 58.5814 52.7142 58.666 52.9355H58.7246C58.8092 52.7207 58.8874 52.5319 58.959 52.3691C59.0371 52.1999 59.1641 51.946 59.3398 51.6074L62.9141 44.7812H65.6582L59.9746 55.1816C59.1413 56.7116 58.4023 57.7793 57.7578 58.3848C57.1133 58.9837 56.2409 59.2832 55.1406 59.2832C54.737 59.2832 54.418 59.2669 54.1836 59.2344C53.9557 59.2018 53.7441 59.153 53.5488 59.0879V56.832ZM66.5957 52.1641V51.6172C66.5957 49.2279 67.276 47.444 68.6367 46.2656C69.9974 45.0807 71.752 44.4883 73.9004 44.4883C75.8861 44.4883 77.4681 44.9082 78.6465 45.748C79.8249 46.5814 80.4759 47.8216 80.5996 49.4688L80.6191 49.6738H77.875L77.8652 49.459C77.7741 48.4759 77.3867 47.7533 76.7031 47.291C76.026 46.8223 75.082 46.5879 73.8711 46.5879C72.5299 46.5879 71.446 46.985 70.6191 47.7793C69.7988 48.5736 69.3887 49.791 69.3887 51.4316V52.3496C69.3887 54.0618 69.7988 55.2988 70.6191 56.0605C71.446 56.8223 72.5299 57.2031 73.8711 57.2031C75.2253 57.2031 76.2083 56.9395 76.8203 56.4121C77.4323 55.8783 77.7806 55.1816 77.8652 54.3223L77.875 54.1172H80.6191L80.6094 54.332C80.4987 55.8555 79.8737 57.0632 78.7344 57.9551C77.6016 58.847 75.9935 59.293 73.9102 59.293C71.7487 59.293 69.9876 58.7135 68.627 57.5547C67.2728 56.3893 66.5957 54.5924 66.5957 52.1641ZM84.291 44.7812H95.707V59H93.002V46.8711H86.5762L86.2148 53.5898C86.1237 55.4518 85.821 56.8646 85.3066 57.8281C84.7923 58.7917 83.8158 59.2734 82.377 59.2734C82.1556 59.2734 81.944 59.2572 81.7422 59.2246C81.5404 59.1986 81.3418 59.1497 81.1465 59.0781V56.7734C81.2962 56.8255 81.4362 56.8613 81.5664 56.8809C81.7031 56.9004 81.8431 56.9102 81.9863 56.9102C82.6309 56.9102 83.0833 56.6367 83.3438 56.0898C83.6042 55.543 83.7702 54.5924 83.8418 53.2383L84.291 44.7812ZM99.9551 56.832C100.137 56.8841 100.336 56.9264 100.551 56.959C100.766 56.9915 100.984 57.0078 101.205 57.0078C101.765 57.0078 102.237 56.8809 102.621 56.627C103.012 56.373 103.396 55.9108 103.773 55.2402L103.744 55.3184L97.4746 44.7812H100.59L104.447 51.5977C104.63 51.9362 104.757 52.1901 104.828 52.3594C104.906 52.5221 104.988 52.7142 105.072 52.9355H105.131C105.215 52.7207 105.294 52.5319 105.365 52.3691C105.443 52.1999 105.57 51.946 105.746 51.6074L109.32 44.7812H112.064L106.381 55.1816C105.548 56.7116 104.809 57.7793 104.164 58.3848C103.52 58.9837 102.647 59.2832 101.547 59.2832C101.143 59.2832 100.824 59.2669 100.59 59.2344C100.362 59.2018 100.15 59.153 99.9551 59.0879V56.832ZM113.646 59V44.7812H123.803V46.8711H116.361V59H113.646ZM138.988 59H136.332V49.4785C136.332 49.2702 136.335 49.0423 136.342 48.7949C136.348 48.541 136.358 48.3132 136.371 48.1113H136.254C136.156 48.3066 136.059 48.4987 135.961 48.6875C135.87 48.8763 135.74 49.0814 135.57 49.3027L128.568 59H125.697V44.7812H128.363V54.293C128.363 54.4948 128.357 54.7194 128.344 54.9668C128.337 55.2142 128.331 55.4421 128.324 55.6504H128.461C128.533 55.4876 128.62 55.3021 128.725 55.0938C128.835 54.8854 128.962 54.6803 129.105 54.4785L136.117 44.7812H138.988V59ZM51.9668 75.1641V74.6172C51.9668 72.2279 52.6471 70.444 54.0078 69.2656C55.3685 68.0807 57.123 67.4883 59.2715 67.4883C61.2572 67.4883 62.8392 67.9082 64.0176 68.748C65.196 69.5814 65.847 70.8216 65.9707 72.4688L65.9902 72.6738H63.2461L63.2363 72.459C63.1452 71.4759 62.7578 70.7533 62.0742 70.291C61.3971 69.8223 60.4531 69.5879 59.2422 69.5879C57.901 69.5879 56.8171 69.985 55.9902 70.7793C55.1699 71.5736 54.7598 72.791 54.7598 74.4316V75.3496C54.7598 77.0618 55.1699 78.2988 55.9902 79.0605C56.8171 79.8223 57.901 80.2031 59.2422 80.2031C60.5964 80.2031 61.5794 79.9395 62.1914 79.4121C62.8034 78.8783 63.1517 78.1816 63.2363 77.3223L63.2461 77.1172H65.9902L65.9805 77.332C65.8698 78.8555 65.2448 80.0632 64.1055 80.9551C62.9727 81.847 61.3646 82.293 59.2812 82.293C57.1198 82.293 55.3587 81.7135 53.998 80.5547C52.6439 79.3893 51.9668 77.5924 51.9668 75.1641ZM68.002 82V67.7812H81.0586V82H78.3438V69.8711H70.7168V82H68.002ZM84.291 82V67.7812H95.1016V69.8809H86.9766V73.6699H94.1055V75.7109H86.9766V79.9102H95.2188V82H84.291ZM109.965 84.8223V82H97.5137V67.7812H100.229V79.9102H107.885V67.7812H110.6V79.9102H112.484V84.8223H109.965ZM112.943 69.8906V67.7812H126.02V69.8906H120.844V82H118.129V69.8906H112.943ZM127.865 82V67.7812H138.676V69.8809H130.551V73.6699H137.68V75.7109H130.551V79.9102H138.793V82H127.865ZM139.467 82L145.492 74.0508L145.922 74.0312L150.326 67.7812H153.158L147.514 75.4961L147.074 75.5254L142.348 82H139.467ZM139.652 67.7812H142.875L147.338 73.9922L147.465 74.0117L153.529 82H150.268L145.541 75.5645L145.443 75.5449L139.652 67.7812ZM155.15 82V67.7812H157.865V73.6113H165.6V67.7812H168.305V82H165.6V75.7207H157.865V82H155.15ZM184.828 82H182.172V72.4785C182.172 72.2702 182.175 72.0423 182.182 71.7949C182.188 71.541 182.198 71.3132 182.211 71.1113H182.094C181.996 71.3066 181.898 71.4987 181.801 71.6875C181.71 71.8763 181.579 72.0814 181.41 72.3027L174.408 82H171.537V67.7812H174.203V77.293C174.203 77.4948 174.197 77.7194 174.184 77.9668C174.177 78.2142 174.171 78.4421 174.164 78.6504H174.301C174.372 78.4876 174.46 78.3021 174.564 78.0938C174.675 77.8854 174.802 77.6803 174.945 77.4785L181.957 67.7812H184.828V82ZM198.1 82L191.557 75.1836L193.529 73.7773L201.43 82H198.1ZM189.418 73.6211H192.084L198.002 67.7812H200.941L192.65 75.7305H189.418V73.6211ZM188.061 82V67.7812H190.775V82H188.061ZM215.883 82H213.227V72.4785C213.227 72.2702 213.23 72.0423 213.236 71.7949C213.243 71.541 213.253 71.3132 213.266 71.1113H213.148C213.051 71.3066 212.953 71.4987 212.855 71.6875C212.764 71.8763 212.634 72.0814 212.465 72.3027L205.463 82H202.592V67.7812H205.258V77.293C205.258 77.4948 205.251 77.7194 205.238 77.9668C205.232 78.2142 205.225 78.4421 205.219 78.6504H205.355C205.427 78.4876 205.515 78.3021 205.619 78.0938C205.73 77.8854 205.857 77.6803 206 77.4785L213.012 67.7812H215.883V82Z" fill="white"/>
<g clip-path="url(#clip1_1781_17106)">
<path d="M218.993 186.886C218.811 184.764 218.522 182.675 218.125 180.632L220.276 179.4C219.642 176.285 218.774 173.268 217.701 170.378L215.322 170.813C214.575 168.874 213.726 166.991 212.789 165.173L214.496 163.248C213.05 160.531 211.403 157.964 209.584 155.575L207.442 156.826C206.211 155.252 204.895 153.757 203.505 152.357L204.606 149.921C202.507 147.855 200.244 145.986 197.856 144.341L196.158 146.281C194.562 145.213 192.906 144.252 191.194 143.4L191.581 140.701C189.039 139.479 186.385 138.495 183.642 137.769L182.555 140.214C180.759 139.765 178.921 139.432 177.054 139.231L176.686 136.532C175.31 136.401 173.915 136.326 172.511 136.326C171.107 136.326 169.712 136.401 168.336 136.532L168.154 137.858C165.574 137.151 162.929 136.682 160.237 136.462L159.411 137.671L159.43 136.673L153.198 136.481V136.471C153.198 136.471 153.16 136.471 153.142 136.476H152.964L152.698 136.523C151.485 136.635 150.268 136.79 149.041 137.01C147.651 137.258 146.284 137.577 144.945 137.952V140.683C144.791 140.73 144.633 140.781 144.474 140.833L144.754 140.678L138.288 140.477H138.279L138.237 140.416C135.629 141.615 133.143 143.058 130.796 144.716L131.547 147.316C130.577 148.023 129.635 148.768 128.72 149.551L125.119 149.438L125.1 149.424L125.086 149.438H125.063L124.923 149.602C122.856 151.602 120.939 153.785 119.199 156.132L120.622 158.343C119.619 159.73 118.676 161.177 117.804 162.672L115.098 162.588L115.089 162.611L115.061 162.602C113.587 165.281 112.318 168.111 111.259 171.052L113.209 172.65C112.533 174.608 111.954 176.618 111.483 178.669L109.076 178.66C108.409 181.705 107.97 184.839 107.77 188.029L110.06 188.868C109.953 190.952 109.948 193.065 110.065 195.196L107.774 196.03C107.877 197.595 108.031 199.169 108.25 200.747C108.469 202.326 108.749 203.877 109.08 205.404H111.483C111.949 207.465 112.523 209.47 113.195 211.414L111.24 213.016C112.299 215.981 113.568 218.806 115.028 221.472L115.056 221.462H117.804C118.672 222.943 119.6 224.376 120.584 225.739L119.166 227.941C120.967 230.372 122.945 232.616 125.072 234.649L125.151 234.743H128.939C129.779 235.446 130.633 236.12 131.51 236.757L130.759 239.352C133.119 241.025 135.606 242.472 138.195 243.672L138.218 243.639H144.675L144.647 243.625H144.898L144.889 246.154C147.572 246.909 150.329 247.41 153.137 247.639V247.63H159.528V246.286C159.626 246.314 159.724 246.328 159.831 246.337H159.799L160.181 247.63C161.557 247.518 162.943 247.34 164.333 247.091C165.625 246.862 166.894 246.571 168.14 246.229L168.322 247.569C169.698 247.7 171.088 247.771 172.497 247.771C173.906 247.771 175.296 247.7 176.672 247.569L177.041 244.871C178.907 244.669 180.745 244.337 182.541 243.887L183.628 246.332C186.371 245.606 189.025 244.623 191.567 243.4L191.18 240.702C192.892 239.849 194.548 238.889 196.144 237.821L197.842 239.76C200.23 238.116 202.493 236.247 204.592 234.181L203.491 231.745C204.881 230.344 206.197 228.85 207.428 227.276L209.57 228.527C211.389 226.137 213.036 223.57 214.482 220.853L212.775 218.923C213.712 217.11 214.561 215.227 215.308 213.288L217.687 213.724C218.76 210.833 219.628 207.816 220.262 204.701L218.111 203.469C218.508 201.427 218.797 199.337 218.979 197.215L221.354 196.798C221.47 195.234 221.531 193.65 221.531 192.053C221.531 190.456 221.47 188.872 221.354 187.308L218.979 186.891L218.993 186.886ZM160.489 246.309L161.058 246.328H160.246C160.326 246.328 160.41 246.318 160.494 246.309H160.489ZM161.17 246.328L161.053 246.286C161.165 246.286 161.273 246.3 161.38 246.328H161.17Z" fill="#262626"/>
<path d="M365.286 196.794C365.402 195.229 365.463 193.646 365.463 192.048C365.463 190.451 365.402 188.868 365.286 187.303L362.911 186.886C362.729 184.764 362.44 182.675 362.043 180.632L364.194 179.4C363.559 176.285 362.692 173.268 361.619 170.378L359.24 170.813C358.493 168.874 357.644 166.991 356.707 165.173L358.414 163.248C356.968 160.531 355.321 157.964 353.502 155.575L351.36 156.826C350.129 155.252 348.813 153.757 347.423 152.357L348.524 149.921C346.425 147.855 344.162 145.986 341.774 144.341L340.076 146.281C338.48 145.213 336.824 144.252 335.112 143.4L335.499 140.701C332.957 139.479 330.303 138.495 327.559 137.769L326.473 140.214C324.676 139.765 322.838 139.432 320.972 139.231L320.604 136.532C319.228 136.401 317.833 136.326 316.429 136.326C315.025 136.326 313.63 136.401 312.254 136.532L312.072 137.858C309.492 137.151 306.847 136.682 304.155 136.462L303.329 137.671L303.348 136.673L297.116 136.481V136.471C297.116 136.471 297.078 136.471 297.06 136.476H296.882L296.616 136.523C295.403 136.635 294.186 136.79 292.959 137.01C291.569 137.258 290.202 137.577 288.863 137.952V140.683C288.709 140.73 288.551 140.781 288.392 140.833L288.672 140.678L282.206 140.477H282.197L282.155 140.416C279.547 141.615 277.061 143.058 274.714 144.716L275.465 147.316C274.495 148.023 273.552 148.768 272.638 149.551L269.037 149.438L269.018 149.424L269.004 149.438H268.981L268.841 149.602C266.774 151.602 264.857 153.785 263.117 156.132L264.54 158.343C263.537 159.73 262.594 161.177 261.722 162.672L259.016 162.588L259.007 162.611L258.979 162.602C257.505 165.281 256.236 168.111 255.177 171.052L257.127 172.65C256.45 174.608 255.872 176.618 255.401 178.669L252.994 178.66C252.327 181.705 251.888 184.839 251.688 188.029L253.978 188.868C253.871 190.952 253.866 193.065 253.983 195.196L251.692 196.03C251.795 197.595 251.949 199.169 252.168 200.747C252.387 202.326 252.667 203.877 252.998 205.404H255.401C255.867 207.465 256.441 209.47 257.113 211.414L255.158 213.016C256.217 215.981 257.486 218.806 258.946 221.472L258.974 221.462H261.722C262.59 222.943 263.518 224.376 264.502 225.739L263.084 227.941C264.885 230.372 266.863 232.616 268.99 234.649L269.069 234.743H272.857C273.697 235.446 274.551 236.12 275.428 236.757L274.677 239.352C277.037 241.025 279.524 242.472 282.113 243.672L282.136 243.639H288.593L288.565 243.625H288.816L288.807 246.154C291.49 246.909 294.247 247.41 297.055 247.639V247.63H303.446V246.286C303.544 246.314 303.642 246.328 303.749 246.337H303.717L304.099 247.63C305.475 247.518 306.861 247.34 308.251 247.091C309.543 246.862 310.812 246.571 312.058 246.229L312.24 247.569C313.616 247.7 315.006 247.771 316.415 247.771C317.824 247.771 319.214 247.7 320.59 247.569L320.958 244.871C322.824 244.669 324.662 244.337 326.459 243.887L327.545 246.332C330.289 245.606 332.943 244.623 335.485 243.4L335.098 240.702C336.81 239.849 338.466 238.889 340.062 237.821L341.76 239.76C344.148 238.116 346.411 236.247 348.51 234.181L347.409 231.745C348.799 230.344 350.115 228.85 351.346 227.276L353.488 228.527C355.307 226.137 356.954 223.57 358.4 220.853L356.693 218.923C357.63 217.11 358.479 215.227 359.226 213.288L361.605 213.724C362.678 210.833 363.546 207.816 364.18 204.701L362.029 203.469C362.426 201.427 362.715 199.337 362.897 197.215L365.272 196.798L365.286 196.794ZM304.407 246.309L304.976 246.328H304.164C304.244 246.328 304.328 246.318 304.412 246.309H304.407ZM305.088 246.328L304.971 246.286C305.083 246.286 305.191 246.3 305.298 246.328H305.088Z" fill="#262626"/>
<path d="M278.458 41.5684H274.274C271.182 41.5684 268.676 44.0851 268.676 47.1898V67.9468C268.676 71.0514 271.182 73.5682 274.274 73.5682H278.458C281.55 73.5682 284.056 71.0514 284.056 67.9468V47.1898C284.056 44.0851 281.55 41.5684 278.458 41.5684Z" fill="#7099ED" stroke="#262626" stroke-width="0.99" stroke-linecap="round" stroke-linejoin="round"/>
<path d="M275.138 41.5684H270.954C267.862 41.5684 265.355 44.0851 265.355 47.1898V67.9468C265.355 71.0514 267.862 73.5682 270.954 73.5682H275.138C278.23 73.5682 280.736 71.0514 280.736 67.9468V47.1898C280.736 44.0851 278.23 41.5684 275.138 41.5684Z" fill="#7099ED" stroke="#262626" stroke-width="0.99" stroke-linecap="round" stroke-linejoin="round"/>
<path d="M381.355 68.7143L397.217 56.8203L403.412 73.5674L386.137 106.621L381.355 68.7143Z" fill="#7099ED" stroke="#262626" stroke-width="0.99" stroke-linecap="round" stroke-linejoin="round"/>
<path d="M408.481 129.387V78.7995L395.032 70.0957L384.223 104.555L389.326 133.557L408.481 129.387Z" fill="#262626" stroke="#262626" stroke-width="0.99" stroke-linecap="round" stroke-linejoin="round"/>
<path d="M451.714 140.214L416.768 49.8685C416.054 47.976 414.72 46.3833 412.989 45.348L407.802 42.2515C406.426 41.4318 404.854 40.9961 403.253 40.9961H399.918L445.607 147.124L451.714 140.214Z" fill="#7099ED" stroke="#262626" stroke-width="0.99" stroke-linecap="round" stroke-linejoin="round"/>
<path d="M411.73 128.666L389.455 49.5591C389.058 48.1444 389.613 46.636 390.826 45.8162L396.275 42.1342C398.454 40.6632 401.295 40.6117 403.525 42.003L411.609 47.0482C412.845 47.8211 413.797 48.9782 414.319 50.3414L448.257 139.431L431.048 153.775L412.36 147.793L411.73 128.662V128.666Z" fill="#7099ED" stroke="#262626" stroke-width="0.99" stroke-linecap="round" stroke-linejoin="round"/>
<path d="M332.356 44.0273L281.68 44.7207L269.621 102.41V147.41H323.451L332.356 44.0273Z" fill="#7099ED" stroke="#262626" stroke-width="0.99" stroke-linecap="round" stroke-linejoin="round"/>
<path d="M306.263 136.672H316.918C318.457 136.672 319.703 135.421 319.703 133.875V110.2L327.82 49.9525C328.016 48.491 326.887 47.1934 325.418 47.1934H285.854C284.711 47.1934 283.726 47.9944 283.484 49.114L272.008 102.41" fill="#262626"/>
<path d="M306.263 136.672H316.918C318.457 136.672 319.703 135.421 319.703 133.875V110.2L327.82 49.9525C328.016 48.491 326.887 47.1934 325.418 47.1934H285.854C284.711 47.1934 283.726 47.9944 283.484 49.114L272.008 102.41" stroke="#262626" stroke-width="0.99" stroke-linecap="round" stroke-linejoin="round"/>
<path d="M393.669 126.634L369.527 132.836V44.7207H383.634" fill="#7099ED"/>
<path d="M393.669 126.634L369.527 132.836V44.7207H383.634" stroke="#262626" stroke-width="0.99" stroke-linecap="round" stroke-linejoin="round"/>
<path d="M370.878 143.686V44.7207H331.818L323.453 110.14V151.096L363.684 144.749L370.878 143.686Z" fill="#7099ED" stroke="#262626" stroke-width="0.99" stroke-linecap="round" stroke-linejoin="round"/>
<path d="M337.099 48.243H363.928C365.654 48.243 367.053 49.6483 367.053 51.3816V122.01C367.053 122.942 366.638 123.827 365.925 124.422L346.882 140.326C346.322 140.795 345.613 141.052 344.885 141.052H334.426C332.919 141.052 331.623 139.97 331.352 138.481L326.496 111.91C326.44 111.592 326.43 111.268 326.468 110.95L333.997 50.9834C334.193 49.4141 335.523 48.2383 337.099 48.2383V48.243Z" fill="#262626" stroke="#262626" stroke-width="0.99" stroke-linecap="round" stroke-linejoin="round"/>
<path d="M390.039 155.5H269.621V195.079H390.039V155.5Z" fill="#262626" stroke="#262626" stroke-width="0.99" stroke-linecap="round" stroke-linejoin="round"/>
<path d="M257.258 112.988L221.617 116.666V94.2644C221.617 92.5498 220.316 91.1211 218.613 90.9665C218.23 90.9337 217.857 90.9665 217.507 91.0602C217.339 91.018 217.167 90.9852 216.989 90.9665C215.268 90.8119 213.738 92.0158 213.449 93.7069L157.226 121.5C156.162 122.025 155.532 123.102 155.528 124.231L155.546 124.287L150.499 126.639H150.219C149.692 126.377 149.099 126.227 148.469 126.227C147.648 126.227 146.883 126.48 146.249 126.911L145.185 126.864C144.042 126.812 143.035 127.623 142.843 128.756L140.53 142.266L139.928 142.121C139.181 141.939 138.43 141.892 137.703 141.953V141.92C135.365 141.732 131.288 143.142 130.047 146.44L105.547 211.691C104.362 214.844 105.854 218.38 108.938 219.715L121.851 225.313C122.317 225.515 132.053 224.873 132.898 221.261L140.819 187.308L151.362 178.731L151.53 175.363C151.432 177.302 152.757 179.026 154.651 179.424L166.295 181.869L240.786 128.564L259.236 122.788C261.302 122.142 262.711 120.217 262.711 118.043V117.94C262.711 114.993 260.173 112.693 257.258 112.998V112.988ZM199.01 118.783C197.056 118.783 195.129 119.261 193.398 120.174L160.822 137.371C159.078 138.294 157.58 139.629 156.47 141.269L153.009 145.489L153.792 129.679C153.806 129.351 153.769 129.033 153.685 128.738L156.633 127.131C157.524 128.129 159.017 128.461 160.286 127.81L212.656 100.884L210.818 117.785L201.133 118.783H199.015H199.01Z" fill="#262626"/>
<path d="M268.766 142.614L154.258 175.686L157.02 138.777C157.206 136.29 158.792 134.125 161.101 133.207L210.024 113.809L226.514 107.269L234.384 104.149C237.356 102.988 240.514 102.393 243.7 102.393H279.015C281.137 102.393 282.859 104.107 282.877 106.239C282.961 115.931 282.84 142.08 282.84 142.08" fill="white"/>
<path d="M268.766 142.614L154.258 175.686L157.02 138.777C157.206 136.29 158.792 134.125 161.101 133.207L210.024 113.809L226.514 107.269L234.384 104.149C237.356 102.988 240.514 102.393 243.7 102.393H279.015C281.137 102.393 282.859 104.107 282.877 106.239C282.961 115.931 282.84 142.08 282.84 142.08" stroke="#262626" stroke-width="0.99" stroke-linecap="round" stroke-linejoin="round"/>
<path d="M306.094 142.613L191.586 175.686L194.656 134.71L247.361 113.813L263.852 107.273L271.722 104.153C274.693 102.991 277.852 102.396 281.038 102.396H302.273C304.396 102.396 306.117 104.111 306.136 106.242C306.22 115.935 306.098 142.084 306.098 142.084" fill="white"/>
<path d="M306.094 142.613L191.586 175.686L194.656 134.71L247.361 113.813L263.852 107.273L271.722 104.153C274.693 102.991 277.852 102.396 281.038 102.396H302.273C304.396 102.396 306.117 104.111 306.136 106.242C306.22 115.935 306.098 142.084 306.098 142.084" stroke="#262626" stroke-width="0.99" stroke-linecap="round" stroke-linejoin="round"/>
<path d="M243.36 118.781L192.73 165.673L193.141 148.045L198.706 141.267C199.817 139.632 201.314 138.292 203.059 137.369L235.635 120.173C237.365 119.259 239.292 118.781 241.247 118.781H243.365" fill="#7099ED"/>
<path d="M243.36 118.781L192.73 165.673L193.141 148.045L198.706 141.267C199.817 139.632 201.314 138.292 203.059 137.369L235.635 120.173C237.365 119.259 239.292 118.781 241.247 118.781H243.365" stroke="#262626" stroke-width="0.99" stroke-linecap="round" stroke-linejoin="round"/>
<path d="M194.752 155.359L202.654 144.523C203.578 143.259 204.726 142.172 206.037 141.324L237.726 120.773C239.424 119.672 241.351 118.993 243.361 118.782L299.491 112.987C302.411 112.687 304.944 114.988 304.944 117.929V118.032C304.944 120.206 303.536 122.131 301.469 122.778L283.019 128.554L208.528 181.859L196.884 179.414C194.99 179.015 193.665 177.291 193.763 175.352L194.757 155.354L194.752 155.359Z" fill="#7099ED" stroke="#262626" stroke-width="0.99" stroke-linecap="round" stroke-linejoin="round"/>
<path d="M157.911 155.5L158.947 140.786C159.091 138.739 160.757 137.141 162.795 137.08L190.011 136.326L187.618 161.66L157.906 155.5H157.911Z" fill="#262626" stroke="#262626" stroke-width="0.99" stroke-linecap="round" stroke-linejoin="round"/>
<path d="M182.577 143.315L185.073 128.746C185.269 127.613 186.272 126.802 187.414 126.854L189.57 126.952L188.17 148.871L182.465 145.831L182.577 143.315Z" fill="#7099ED" stroke="#262626" stroke-width="0.99" stroke-linecap="round" stroke-linejoin="round"/>
<path d="M176.756 187.101L187.672 179.011L192.314 130.123C192.472 128.475 191.217 127.027 189.571 126.952C188.082 126.886 186.79 127.964 186.58 129.444L184.467 144.439L175.52 187.05L176.756 187.106V187.101Z" fill="#7099ED" stroke="#262626" stroke-width="0.99" stroke-linecap="round" stroke-linejoin="round"/>
<path d="M190.698 134.162C192.883 134.162 194.654 132.383 194.654 130.189C194.654 127.995 192.883 126.217 190.698 126.217C188.513 126.217 186.742 127.995 186.742 130.189C186.742 132.383 188.513 134.162 190.698 134.162Z" fill="white" stroke="#262626" stroke-width="0.99" stroke-linecap="round" stroke-linejoin="round"/>
<path d="M325.48 174.262H294.047V200.392H325.48V174.262Z" fill="white" stroke="#262626" stroke-width="0.99" stroke-linecap="round" stroke-linejoin="round"/>
<path d="M426.366 132.935L414.064 134.912L404.552 153.074C404.552 153.074 370.386 140.702 370.88 140.215C371.375 139.728 387.982 131.08 387.982 131.08H424.402L426.371 132.935H426.366Z" fill="#262626" stroke="#262626" stroke-width="0.99" stroke-linecap="round" stroke-linejoin="round"/>
<path d="M339.878 166.822H304.941V171.975H339.878V166.822Z" fill="white" stroke="#262626" stroke-width="0.99" stroke-linecap="round" stroke-linejoin="round"/>
<path d="M323.624 142.078H288.688V155.391H323.624V142.078Z" fill="white" stroke="#262626" stroke-width="0.99" stroke-linecap="round" stroke-linejoin="round"/>
<path d="M370.875 44.7207H383.634L393.668 126.634" stroke="#262626" stroke-width="0.99" stroke-linecap="round" stroke-linejoin="round"/>
<path d="M374.175 48.243H380.268C381.028 48.243 381.667 48.8098 381.76 49.5687L390.032 116.267C390.148 117.218 389.369 118.037 388.417 117.958L375.556 116.918C374.786 116.857 374.189 116.22 374.17 115.447L372.668 49.7842C372.65 48.9363 373.326 48.2383 374.17 48.2383L374.175 48.243Z" fill="#262626" stroke="#262626" stroke-width="0.99" stroke-linecap="round" stroke-linejoin="round"/>
<path d="M170.042 153.33H135.516L52.8984 172.911L95.1636 190.117L168.059 165.191L170.042 153.33Z" fill="#7099ED" stroke="#262626" stroke-width="0.99" stroke-linecap="round" stroke-linejoin="round"/>
<path d="M154.955 226.554L110.236 226.751C106.21 226.77 102.352 225.116 99.5814 222.188L52.8984 172.912H104.881L154.955 226.554Z" fill="#262626" stroke="#262626" stroke-width="0.99" stroke-linecap="round" stroke-linejoin="round"/>
<path d="M198.864 127.13L197.754 124.23C197.754 123.101 198.388 122.029 199.452 121.499L256.323 93.3828L255.26 100.686L202.512 127.805C201.243 128.456 199.755 128.128 198.86 127.125" fill="#7099ED"/>
<path d="M198.864 127.13L197.754 124.23C197.754 123.101 198.388 122.029 199.452 121.499L256.323 93.3828L255.26 100.686L202.512 127.805C201.243 128.456 199.755 128.128 198.86 127.125" stroke="#262626" stroke-width="0.99" stroke-linecap="round" stroke-linejoin="round"/>
<path d="M195.917 128.733L199.663 126.695C200.348 126.321 200.6 125.454 200.218 124.77L200.134 124.615C199.775 123.974 198.986 123.721 198.324 124.03L192.73 126.634L194.75 129.412L195.917 128.733Z" fill="white" stroke="#262626" stroke-width="0.99" stroke-linecap="round" stroke-linejoin="round"/>
<path d="M160.033 224.686C157.336 227.332 152.984 227.178 150.479 224.348L104.883 172.912L172.428 154.535L160.854 223.107C160.751 223.707 160.467 224.259 160.033 224.686Z" fill="#7099ED" stroke="#262626" stroke-width="0.99" stroke-linecap="round" stroke-linejoin="round"/>
<path d="M186.887 143.298L188.725 128.63C188.869 127.487 189.835 126.635 190.978 126.635H193.133L192.723 148.596L186.887 145.818V143.302V143.298Z" fill="#7099ED" stroke="#262626" stroke-width="0.99" stroke-linecap="round" stroke-linejoin="round"/>
<path d="M183.049 187.304L193.592 178.726L196.022 129.68C196.106 128.021 194.791 126.635 193.139 126.635C191.651 126.635 190.405 127.768 190.266 129.258L188.829 144.333L181.812 187.304H183.049Z" fill="#7099ED" stroke="#262626" stroke-width="0.99" stroke-linecap="round" stroke-linejoin="round"/>
<path d="M387.281 33.2344H278.423C276.895 33.2344 275.656 34.4781 275.656 36.0123V41.9476C275.656 43.4818 276.895 44.7255 278.423 44.7255H387.281C388.809 44.7255 390.047 43.4818 390.047 41.9476V36.0123C390.047 34.4781 388.809 33.2344 387.281 33.2344Z" fill="white" stroke="#262626" stroke-width="0.99" stroke-linecap="round" stroke-linejoin="round"/>
<path d="M296.354 35.2109H289.175C288.528 35.2109 288.004 35.7374 288.004 36.3867V41.5725C288.004 42.2219 288.528 42.7483 289.175 42.7483H296.354C297.001 42.7483 297.525 42.2219 297.525 41.5725V36.3867C297.525 35.7374 297.001 35.2109 296.354 35.2109Z" fill="white" stroke="#262626" stroke-width="0.99" stroke-linecap="round" stroke-linejoin="round"/>
<path d="M307.378 35.2109H300.198C299.552 35.2109 299.027 35.7374 299.027 36.3867V41.5725C299.027 42.2219 299.552 42.7483 300.198 42.7483H307.378C308.024 42.7483 308.549 42.2219 308.549 41.5725V36.3867C308.549 35.7374 308.024 35.2109 307.378 35.2109Z" fill="white" stroke="#262626" stroke-width="0.99" stroke-linecap="round" stroke-linejoin="round"/>
<path d="M318.405 35.2109H311.226C310.579 35.2109 310.055 35.7374 310.055 36.3867V41.5725C310.055 42.2219 310.579 42.7483 311.226 42.7483H318.405C319.052 42.7483 319.576 42.2219 319.576 41.5725V36.3867C319.576 35.7374 319.052 35.2109 318.405 35.2109Z" fill="white" stroke="#262626" stroke-width="0.99" stroke-linecap="round" stroke-linejoin="round"/>
<path d="M281.651 42.1296C283.078 42.1296 284.235 40.7181 284.235 38.9769C284.235 37.2357 283.078 35.8242 281.651 35.8242C280.223 35.8242 279.066 37.2357 279.066 38.9769C279.066 40.7181 280.223 42.1296 281.651 42.1296Z" fill="white" stroke="#262626" stroke-width="0.99" stroke-linecap="round" stroke-linejoin="round"/>
<path d="M326.444 42.1296C327.871 42.1296 329.028 40.7181 329.028 38.9769C329.028 37.2357 327.871 35.8242 326.444 35.8242C325.016 35.8242 323.859 37.2357 323.859 38.9769C323.859 40.7181 325.016 42.1296 326.444 42.1296Z" fill="white" stroke="#262626" stroke-width="0.99" stroke-linecap="round" stroke-linejoin="round"/>
<path d="M438.024 148.755L437.632 145.911L431.157 142.08V130.242C431.157 128.888 429.958 127.792 428.479 127.796C422.569 127.82 408.928 127.862 408.9 127.787H393.664V151.102H438.215L438.019 148.76L438.024 148.755Z" fill="#262626" stroke="#262626" stroke-width="0.99" stroke-linecap="round" stroke-linejoin="round"/>
<path d="M91.4486 165.75H88.0664L103.26 184.282H107.445L91.4486 165.75Z" fill="#262626" stroke="#262626" stroke-width="0.99" stroke-linecap="round" stroke-linejoin="round"/>
<path d="M75.7852 165.75L90.9791 184.282H95.1637L79.1673 165.75H75.7852Z" fill="#262626" stroke="#262626" stroke-width="0.99" stroke-linecap="round" stroke-linejoin="round"/>
<path d="M63.5078 165.75L78.7018 184.282H82.8863L66.8946 165.75H63.5078Z" fill="#262626" stroke="#262626" stroke-width="0.99" stroke-linecap="round" stroke-linejoin="round"/>
<path d="M51.2344 165.75L66.4284 184.282H70.6082L54.6165 165.75H51.2344Z" fill="#262626" stroke="#262626" stroke-width="0.99" stroke-linecap="round" stroke-linejoin="round"/>
<path d="M91.4492 165.75L97.635 172.913H101.232L91.4492 165.75Z" fill="#7099ED" stroke="#262626" stroke-width="0.99" stroke-linecap="round" stroke-linejoin="round"/>
<path d="M85.3538 172.913H88.9505L79.168 165.75L85.3538 172.913Z" fill="#7099ED" stroke="#262626" stroke-width="0.99" stroke-linecap="round" stroke-linejoin="round"/>
<path d="M73.0757 172.913H76.6724L66.8945 165.75L73.0757 172.913Z" fill="#7099ED" stroke="#262626" stroke-width="0.99" stroke-linecap="round" stroke-linejoin="round"/>
<path d="M60.803 172.913H64.3997L54.6172 165.75L60.803 172.913Z" fill="#7099ED" stroke="#262626" stroke-width="0.99" stroke-linecap="round" stroke-linejoin="round"/>
<path d="M321.797 94.6489L282.321 54.5215L279.121 69.376C279.112 69.4229 319.702 111.808 319.702 111.808V110.202L321.797 94.6489Z" fill="white" stroke="#262626" stroke-width="0.99" stroke-linecap="round" stroke-linejoin="round"/>
<path d="M288.004 47.1941C288.76 47.1941 323.859 79.5219 323.859 79.5219L324.708 73.0385L297.525 47.1895H288.004V47.1941Z" fill="white" stroke="#262626" stroke-width="0.99" stroke-linecap="round" stroke-linejoin="round"/>
<path d="M367.051 81.4141L326.941 107.151L326.465 110.955L328.378 122.235L367.051 97.599V81.4141Z" fill="white" stroke="#262626" stroke-width="0.99" stroke-linecap="round" stroke-linejoin="round"/>
<path d="M301.382 120.76C302.505 120.76 303.416 119.441 303.416 117.814C303.416 116.186 302.505 114.867 301.382 114.867C300.258 114.867 299.348 116.186 299.348 117.814C299.348 119.441 300.258 120.76 301.382 120.76Z" stroke="#262626" stroke-width="0.99" stroke-linecap="round" stroke-linejoin="round"/>
<path d="M179.933 141.915C177.596 141.727 173.519 143.138 172.278 146.435L147.777 211.686C146.592 214.839 148.085 218.375 151.168 219.71L164.081 225.308C164.548 225.51 165.042 225.636 165.546 225.688L167.142 225.842L180.432 156.966L179.942 141.91L179.933 141.915Z" fill="#7099ED" stroke="#262626" stroke-width="0.99" stroke-linecap="round" stroke-linejoin="round"/>
<path d="M182.159 142.111L186.269 143.113C189.982 144.018 192.273 147.76 191.4 151.494L175.124 221.256C174.228 225.088 170.104 227.172 166.508 225.612L152.895 219.71C149.811 218.375 148.319 214.838 149.504 211.685L174.004 146.435C175.245 143.132 178.739 141.277 182.154 142.111H182.159Z" fill="#7099ED" stroke="#262626" stroke-width="0.99" stroke-linecap="round" stroke-linejoin="round"/>
<path d="M187.622 152.393C188.539 152.393 189.282 151.024 189.282 149.334C189.282 147.645 188.539 146.275 187.622 146.275C186.704 146.275 185.961 147.645 185.961 149.334C185.961 151.024 186.704 152.393 187.622 152.393Z" stroke="#262626" stroke-width="0.99" stroke-linecap="round" stroke-linejoin="round"/>
<path d="M251.029 136.327L251.514 131.89L252.088 126.634L255.657 93.8662C255.872 92.0908 257.448 90.8072 259.226 90.9665C260.924 91.1211 262.23 92.5498 262.23 94.2644V141.643H250.441L251.039 136.327H251.029Z" fill="#7099ED" stroke="#262626" stroke-width="0.99" stroke-linecap="round" stroke-linejoin="round"/>
<path d="M252.658 136.327L253.143 131.89L253.717 126.634L257.286 93.8662C257.5 92.0908 259.077 90.8072 260.855 90.9665C262.553 91.1211 263.859 92.5498 263.859 94.2644V141.643H252.07L252.667 136.327H252.658Z" fill="#7099ED" stroke="#262626" stroke-width="0.99" stroke-linecap="round" stroke-linejoin="round"/>
<path d="M260.945 97.5994C261.662 97.5994 262.242 96.5759 262.242 95.3134C262.242 94.0508 261.662 93.0273 260.945 93.0273C260.229 93.0273 259.648 94.0508 259.648 95.3134C259.648 96.5759 260.229 97.5994 260.945 97.5994Z" stroke="#262626" stroke-width="0.99" stroke-linecap="round" stroke-linejoin="round"/>
<path d="M247.949 130.836C250.571 131.318 254.308 132.134 258.674 133.553C261.305 134.41 272.058 138.064 284.08 146.96C287.714 149.649 292.444 153.542 297.431 158.882C302.763 158.966 308.095 159.046 313.428 159.13L314.043 156.352C313.124 154.451 311.781 152.01 309.859 149.373C306.92 145.334 304.056 142.805 302.661 141.587C294.59 134.541 285.199 131.361 283.221 130.714C270.281 126.493 258.879 127.927 253.015 129.107C251.327 129.684 249.638 130.26 247.949 130.836Z" fill="#262626" stroke="#262626" stroke-width="0.99" stroke-linecap="round" stroke-linejoin="round"/>
<path d="M395.243 129.022L394.875 126.82C390.144 126.029 377.054 124.502 363.316 131.641C355.693 135.599 350.618 140.804 347.585 144.561C346.895 145.413 345.864 145.915 344.772 145.915H332.914C331.831 145.915 330.805 145.427 330.119 144.589L329.154 143.408C328.468 142.57 327.442 142.083 326.359 142.083H323.453V155.504H358.907C358.907 155.504 380.306 137.253 380.021 136.33C379.737 135.407 395.243 129.027 395.243 129.027V129.022Z" fill="white" stroke="#262626" stroke-width="0.99" stroke-linecap="round" stroke-linejoin="round"/>
<path d="M333.423 33.2344H278.423C276.895 33.2344 275.656 34.4781 275.656 36.0123V41.9476C275.656 43.4818 276.895 44.7255 278.423 44.7255H333.423C334.951 44.7255 336.19 43.4818 336.19 41.9476V36.0123C336.19 34.4781 334.951 33.2344 333.423 33.2344Z" stroke="#262626" stroke-width="0.99" stroke-linecap="round" stroke-linejoin="round"/>
<path d="M346.954 41.5684H342.77C339.678 41.5684 337.172 44.0851 337.172 47.1898V67.9468C337.172 71.0514 339.678 73.5682 342.77 73.5682H346.954C350.046 73.5682 352.552 71.0514 352.552 67.9468V47.1898C352.552 44.0851 350.046 41.5684 346.954 41.5684Z" fill="#7099ED" stroke="#262626" stroke-width="0.99" stroke-linecap="round" stroke-linejoin="round"/>
<path d="M343.634 41.5684H339.45C336.358 41.5684 333.852 44.0851 333.852 47.1898V67.9468C333.852 71.0514 336.358 73.5682 339.45 73.5682H343.634C346.726 73.5682 349.232 71.0514 349.232 67.9468V47.1898C349.232 44.0851 346.726 41.5684 343.634 41.5684Z" fill="#7099ED" stroke="#262626" stroke-width="0.99" stroke-linecap="round" stroke-linejoin="round"/>
<path d="M312.704 196.794C312.82 195.229 312.881 193.646 312.881 192.048C312.881 190.451 312.82 188.868 312.704 187.303L310.329 186.886C310.147 184.764 309.858 182.675 309.461 180.632L311.612 179.4C310.977 176.285 310.11 173.268 309.037 170.378L306.658 170.813C305.911 168.874 305.062 166.991 304.125 165.173L305.832 163.248C304.386 160.531 302.739 157.964 300.92 155.575L298.778 156.826C297.547 155.252 296.231 153.757 294.841 152.357L295.942 149.921C293.843 147.855 291.58 145.986 289.192 144.341L287.494 146.281C285.898 145.213 284.242 144.252 282.53 143.4L282.917 140.701C280.375 139.479 277.72 138.495 274.977 137.769L273.891 140.214C272.094 139.765 270.256 139.432 268.39 139.231L268.022 136.532C266.646 136.401 265.251 136.326 263.847 136.326C262.443 136.326 261.048 136.401 259.672 136.532L259.49 137.858C256.91 137.151 254.265 136.682 251.573 136.462L250.747 137.671L250.766 136.673L244.533 136.481V136.471C244.533 136.471 244.496 136.471 244.478 136.476H244.3L244.034 136.523C242.821 136.635 241.604 136.79 240.377 137.01C238.987 137.258 237.62 137.577 236.281 137.952V140.683C236.127 140.73 235.969 140.781 235.81 140.833L236.09 140.678L229.624 140.477H229.615L229.573 140.416C226.965 141.615 224.479 143.058 222.132 144.716L222.883 147.316C221.913 148.023 220.97 148.768 220.056 149.551L216.455 149.438L216.436 149.424L216.422 149.438H216.399L216.259 149.602C214.192 151.602 212.275 153.785 210.535 156.132L211.958 158.343C210.955 159.73 210.012 161.177 209.14 162.672L206.434 162.588L206.425 162.611L206.397 162.602C204.923 165.281 203.654 168.111 202.595 171.052L204.545 172.65C203.868 174.608 203.29 176.618 202.819 178.669L200.412 178.66C199.745 181.705 199.306 184.839 199.105 188.029L201.396 188.868C201.289 190.952 201.284 193.065 201.401 195.196L199.11 196.03C199.213 197.595 199.367 199.169 199.586 200.747C199.805 202.326 200.085 203.877 200.416 205.404H202.819C203.285 207.465 203.859 209.47 204.531 211.414L202.576 213.016C203.635 215.981 204.904 218.806 206.364 221.472L206.392 221.462H209.14C210.008 222.943 210.936 224.376 211.92 225.739L210.502 227.941C212.303 230.372 214.281 232.616 216.408 234.649L216.487 234.743H220.275C221.115 235.446 221.969 236.12 222.846 236.757L222.095 239.352C224.455 241.025 226.942 242.472 229.531 243.672L229.554 243.639L236.234 243.625L236.225 246.159C238.907 246.913 241.665 247.415 244.473 247.644V247.635H250.864V246.29C251.424 246.464 252.128 246.187 252.697 246.337L253.78 243.892C255.58 244.341 257.414 244.674 259.284 244.876L259.471 246.234L259.653 247.574C261.029 247.705 262.419 247.775 263.828 247.775C265.237 247.775 266.627 247.705 268.003 247.574L268.372 244.876C270.238 244.674 272.076 244.341 273.872 243.892L274.959 246.337C277.702 245.611 280.356 244.627 282.899 243.405L282.511 240.706C284.224 239.854 285.88 238.893 287.475 237.825L289.173 239.765C291.562 238.12 293.824 236.251 295.923 234.185L294.822 231.75C296.213 230.349 297.528 228.854 298.76 227.281L300.901 228.531C302.72 226.142 304.367 223.575 305.813 220.858L304.106 218.928C305.044 217.115 305.893 215.232 306.639 213.293L309.018 213.728C310.091 210.838 310.959 207.821 311.593 204.706L309.443 203.474C309.839 201.431 310.128 199.342 310.31 197.22L312.685 196.803L312.704 196.794Z" fill="#7099ED" stroke="#262626" stroke-width="0.99" stroke-linecap="round" stroke-linejoin="round"/>
<path d="M267.719 231.713C287.083 231.713 302.781 213.957 302.781 192.054C302.781 170.15 287.083 152.395 267.719 152.395C248.354 152.395 232.656 170.15 232.656 192.054C232.656 213.957 248.354 231.713 267.719 231.713Z" stroke="#262626" stroke-width="0.99" stroke-linecap="round" stroke-linejoin="round"/>
<path d="M268.44 223.739C283.981 223.739 296.58 209.492 296.58 191.918C296.58 174.343 283.981 160.096 268.44 160.096C252.899 160.096 240.301 174.343 240.301 191.918C240.301 209.492 252.899 223.739 268.44 223.739Z" fill="#FF8B63" stroke="#262626" stroke-width="0.99" stroke-linecap="round" stroke-linejoin="round"/>
<path d="M266.886 222.259C280.901 222.259 292.263 208.693 292.263 191.96C292.263 175.226 280.901 161.66 266.886 161.66C252.87 161.66 241.508 175.226 241.508 191.96C241.508 208.693 252.87 222.259 266.886 222.259Z" stroke="#262626" stroke-width="0.99" stroke-linecap="round" stroke-linejoin="round"/>
<path d="M260.896 217.81C271.591 217.81 280.26 206.568 280.26 192.701C280.26 178.833 271.591 167.592 260.896 167.592C250.201 167.592 241.531 178.833 241.531 192.701C241.531 206.568 250.201 217.81 260.896 217.81Z" stroke="#262626" stroke-width="0.99" stroke-linecap="round" stroke-linejoin="round"/>
<path d="M264.262 181.859H256.108C251.601 181.859 247.953 186.67 247.953 192.61C247.953 198.55 251.606 203.361 256.108 203.361H264.262C268.768 203.361 272.417 198.55 272.417 192.61C272.417 186.67 268.764 181.859 264.262 181.859Z" fill="#7099ED" stroke="#262626" stroke-width="0.99" stroke-linecap="round" stroke-linejoin="round"/>
<path d="M265.35 201.737C269.073 201.737 272.091 197.652 272.091 192.612C272.091 187.572 269.073 183.486 265.35 183.486C261.627 183.486 258.609 187.572 258.609 192.612C258.609 197.652 261.627 201.737 265.35 201.737Z" stroke="#262626" stroke-width="0.99" stroke-linecap="round" stroke-linejoin="round"/>
<path d="M310.33 197.211C310.148 199.333 309.858 201.422 309.462 203.464L311.613 204.697C310.978 207.812 310.11 210.829 309.037 213.719L306.658 213.283C305.912 215.223 305.063 217.106 304.125 218.919L305.833 220.849C304.386 223.566 302.74 226.133 300.92 228.522L298.779 227.271C297.548 228.845 296.232 230.339 294.842 231.74L295.943 234.176C293.843 236.242 291.581 238.111 289.192 239.755L287.494 237.816C285.899 238.884 284.243 239.844 282.531 240.697L282.918 243.395C280.376 244.618 277.721 245.602 274.978 246.328L273.891 243.882C272.095 244.332 270.257 244.665 268.391 244.866L268.023 247.564C266.646 247.696 265.252 247.766 263.847 247.766C262.443 247.766 261.048 247.696 259.672 247.564L259.49 246.225L259.304 244.866C257.433 244.665 255.6 244.332 253.799 243.882L252.717 246.328C252.147 246.178 251.588 246.019 251.028 245.845C250.295 245.62 249.572 245.377 248.859 245.114C247.468 244.608 246.106 244.037 244.772 243.395L245.159 240.697C243.447 239.844 241.791 238.884 240.196 237.816L238.502 239.755C236.109 238.111 233.851 236.242 231.747 234.176L232.848 231.74C231.463 230.339 230.147 228.845 228.916 227.271L226.774 228.522C224.95 226.133 223.308 223.566 221.857 220.849L223.565 218.919C222.627 217.106 221.783 215.223 221.032 213.283L218.657 213.719C217.58 210.829 216.717 207.812 216.077 204.697L218.228 203.464C217.836 201.422 217.542 199.333 217.36 197.211L214.986 196.794C214.874 195.229 214.809 193.646 214.809 192.048C214.809 190.451 214.874 188.868 214.986 187.303L217.36 186.886C217.542 184.764 217.836 182.675 218.228 180.632L216.077 179.4C216.717 176.285 217.58 173.268 218.657 170.378L221.032 170.813C221.783 168.874 222.627 166.991 223.565 165.173L221.857 163.248C223.308 160.531 224.95 157.964 226.774 155.575L228.916 156.826C230.147 155.252 231.463 153.757 232.848 152.357L231.747 149.921C233.851 147.855 236.109 145.986 238.502 144.341L240.196 146.281C241.791 145.213 243.447 144.252 245.159 143.4L244.772 140.701C246.106 140.06 247.468 139.484 248.863 138.982C249.591 138.715 250.323 138.467 251.07 138.242C251.616 138.073 252.161 137.914 252.717 137.769L253.799 140.214C255.6 139.765 257.433 139.432 259.304 139.231L259.49 137.858L259.672 136.532C261.048 136.401 262.439 136.326 263.847 136.326C265.256 136.326 266.646 136.401 268.023 136.532L268.391 139.231C270.257 139.432 272.095 139.765 273.891 140.214L274.978 137.769C277.721 138.495 280.376 139.479 282.918 140.701L282.531 143.4C284.243 144.252 285.899 145.213 287.494 146.281L289.192 144.341C291.581 145.986 293.843 147.855 295.943 149.921L294.842 152.357C296.232 153.757 297.548 155.252 298.779 156.826L300.92 155.575C302.74 157.964 304.386 160.531 305.833 163.248L304.125 165.173C305.063 166.991 305.912 168.874 306.658 170.813L309.037 170.378C310.11 173.268 310.978 176.285 311.613 179.4L309.462 180.632C309.858 182.675 310.148 184.764 310.33 186.886L312.704 187.303C312.821 188.868 312.881 190.451 312.881 192.048C312.881 193.646 312.821 195.229 312.704 196.794L310.33 197.211Z" stroke="#262626" stroke-width="0.99" stroke-linecap="round" stroke-linejoin="round"/>
<path d="M259.49 246.225C258.244 246.567 256.975 246.857 255.683 247.087C254.293 247.335 252.907 247.513 251.531 247.626L251.148 246.333H252.716L253.798 243.883C255.599 244.333 257.432 244.665 259.303 244.867L259.49 246.225Z" fill="#7099ED" stroke="#262626" stroke-width="0.99" stroke-linecap="round" stroke-linejoin="round"/>
<path d="M250.883 247.627V246.334" stroke="#262626" stroke-width="0.99" stroke-linecap="round" stroke-linejoin="round"/>
<path d="M259.492 137.859L259.306 139.231C257.435 139.433 255.602 139.765 253.801 140.215L252.686 137.69L250.75 137.671L251.576 136.463C254.267 136.683 256.913 137.152 259.492 137.859Z" stroke="#262626" stroke-width="0.99" stroke-linecap="round" stroke-linejoin="round"/>
<path d="M250.773 136.674V137.695" stroke="#262626" stroke-width="0.99" stroke-linecap="round" stroke-linejoin="round"/>
<path d="M214.984 187.305H208.523V196.594L214.984 196.795" stroke="#262626" stroke-width="0.99" stroke-linecap="round" stroke-linejoin="round"/>
<path d="M199.398 187.978H205.864L206.998 178.928L200.537 178.727" stroke="#262626" stroke-width="0.99" stroke-linecap="round" stroke-linejoin="round"/>
<path d="M200.664 205.396H207.13L205.754 196.35L199.293 196.148" stroke="#262626" stroke-width="0.99" stroke-linecap="round" stroke-linejoin="round"/>
<path d="M206.402 221.458H212.863L209.168 213.391L202.707 213.189" stroke="#262626" stroke-width="0.99" stroke-linecap="round" stroke-linejoin="round"/>
<path d="M216.507 234.739H222.973L217.309 228.082L210.844 227.881" stroke="#262626" stroke-width="0.99" stroke-linecap="round" stroke-linejoin="round"/>
<path d="M229.562 243.634H236.028L228.872 239.676L222.406 239.475" stroke="#262626" stroke-width="0.99" stroke-linecap="round" stroke-linejoin="round"/>
<path d="M244.422 247.627H250.883L243.083 246.287L236.617 246.086" stroke="#262626" stroke-width="0.99" stroke-linecap="round" stroke-linejoin="round"/>
<path d="M202.68 171.068H209.141L212.91 162.785L206.444 162.584" stroke="#262626" stroke-width="0.99" stroke-linecap="round" stroke-linejoin="round"/>
<path d="M210.66 156.193H217.121L222.873 149.635L216.407 149.434" stroke="#262626" stroke-width="0.99" stroke-linecap="round" stroke-linejoin="round"/>
<path d="M222.316 144.75H228.782L236.102 140.674L229.636 140.473" stroke="#262626" stroke-width="0.99" stroke-linecap="round" stroke-linejoin="round"/>
<path d="M236.574 137.986H243.035L250.77 136.674L244.304 136.473" stroke="#262626" stroke-width="0.99" stroke-linecap="round" stroke-linejoin="round"/>
<path d="M216.152 204.607H209.691L212.117 213.555L218.583 213.756" stroke="#262626" stroke-width="0.99" stroke-linecap="round" stroke-linejoin="round"/>
<path d="M221.813 220.98H215.352L220.194 228.405L226.66 228.607" stroke="#262626" stroke-width="0.99" stroke-linecap="round" stroke-linejoin="round"/>
<path d="M231.836 234.252H225.375L231.906 239.531L238.372 239.733" stroke="#262626" stroke-width="0.99" stroke-linecap="round" stroke-linejoin="round"/>
<path d="M244.832 243.494H238.371L246.054 246.132L252.52 246.333" stroke="#262626" stroke-width="0.99" stroke-linecap="round" stroke-linejoin="round"/>
<path d="M218.582 170.322H212.116L209.816 179.129L216.277 179.331" stroke="#262626" stroke-width="0.99" stroke-linecap="round" stroke-linejoin="round"/>
<path d="M226.617 155.5H220.151L215.332 162.916L221.798 163.117" stroke="#262626" stroke-width="0.99" stroke-linecap="round" stroke-linejoin="round"/>
<path d="M238.431 144.332H231.966L225.332 149.719L231.793 149.921" stroke="#262626" stroke-width="0.99" stroke-linecap="round" stroke-linejoin="round"/>
<path d="M252.657 137.695H246.192L238.266 140.454L244.727 140.656" stroke="#262626" stroke-width="0.99" stroke-linecap="round" stroke-linejoin="round"/>
<path d="M456.625 196.794C456.742 195.229 456.803 193.646 456.803 192.048C456.803 190.451 456.742 188.868 456.625 187.303L454.251 186.886C454.069 184.764 453.78 182.675 453.383 180.632L455.534 179.4C454.899 176.285 454.032 173.268 452.959 170.378L450.58 170.813C449.833 168.874 448.984 166.991 448.046 165.173L449.754 163.248C448.308 160.531 446.661 157.964 444.842 155.575L442.7 156.826C441.469 155.252 440.153 153.757 438.763 152.357L439.864 149.921C437.765 147.855 435.502 145.986 433.114 144.341L431.416 146.281C429.82 145.213 428.164 144.252 426.452 143.4L426.839 140.701C424.297 139.479 421.642 138.495 418.899 137.769L417.812 140.214C416.016 139.765 414.178 139.432 412.312 139.231L411.944 136.532C410.568 136.401 409.173 136.326 407.769 136.326C406.364 136.326 404.97 136.401 403.593 136.532L403.411 137.858C400.832 137.151 398.187 136.682 395.495 136.462L394.669 137.671L394.688 136.673L388.455 136.481V136.471C388.455 136.471 388.418 136.471 388.399 136.476H388.222L387.956 136.523C386.743 136.635 385.526 136.79 384.299 137.01C382.909 137.258 381.542 137.577 380.203 137.952V140.683C380.049 140.73 379.89 140.781 379.732 140.833L380.012 140.678L373.546 140.477H373.537L373.495 140.416C370.887 141.615 368.4 143.058 366.054 144.716L366.805 147.316C365.835 148.023 364.892 148.768 363.978 149.551L360.377 149.438L360.358 149.424L360.344 149.438H360.321L360.181 149.602C358.114 151.602 356.197 153.785 354.457 156.132L355.879 158.343C354.877 159.73 353.934 161.177 353.062 162.672L350.356 162.588L350.347 162.611L350.319 162.602C348.845 165.281 347.576 168.111 346.517 171.052L348.467 172.65C347.79 174.608 347.212 176.618 346.741 178.669L344.334 178.66C343.666 181.705 343.228 184.839 343.027 188.029L345.318 188.868C345.211 190.952 345.206 193.065 345.323 195.196L343.032 196.03C343.135 197.595 343.289 199.169 343.508 200.747C343.727 202.326 344.007 203.877 344.338 205.404H346.741C347.207 207.465 347.781 209.47 348.453 211.414L346.498 213.016C347.557 215.981 348.826 218.806 350.286 221.472L350.314 221.462H353.062C353.93 222.943 354.858 224.376 355.842 225.739L354.424 227.941C356.225 230.372 358.203 232.616 360.33 234.649L360.409 234.743H364.197C365.037 235.446 365.891 236.12 366.768 236.757L366.017 239.352C368.377 241.025 370.864 242.472 373.453 243.672L373.476 243.639L380.156 243.625L380.147 246.159C382.829 246.913 385.586 247.415 388.395 247.644V247.635H394.786V246.29C395.346 246.464 396.05 246.187 396.619 246.337L397.701 243.892C399.502 244.341 401.336 244.674 403.206 244.876L403.393 246.234L403.575 247.574C404.951 247.705 406.341 247.775 407.75 247.775C409.159 247.775 410.549 247.705 411.925 247.574L412.294 244.876C414.16 244.674 415.998 244.341 417.794 243.892L418.881 246.337C421.624 245.611 424.278 244.627 426.821 243.405L426.433 240.706C428.145 239.854 429.801 238.893 431.397 237.825L433.095 239.765C435.484 238.12 437.746 236.251 439.845 234.185L438.744 231.75C440.135 230.349 441.45 228.854 442.682 227.281L444.823 228.531C446.642 226.142 448.289 223.575 449.735 220.858L448.028 218.928C448.965 217.115 449.814 215.232 450.561 213.293L452.94 213.728C454.013 210.838 454.881 207.821 455.515 204.706L453.365 203.474C453.761 201.431 454.05 199.342 454.232 197.22L456.607 196.803L456.625 196.794Z" fill="#7099ED" stroke="#262626" stroke-width="0.99" stroke-linecap="round" stroke-linejoin="round"/>
<path d="M411.637 231.713C431.001 231.713 446.699 213.957 446.699 192.054C446.699 170.15 431.001 152.395 411.637 152.395C392.272 152.395 376.574 170.15 376.574 192.054C376.574 213.957 392.272 231.713 411.637 231.713Z" stroke="#262626" stroke-width="0.99" stroke-linecap="round" stroke-linejoin="round"/>
<path d="M412.358 223.739C427.899 223.739 440.498 209.492 440.498 191.918C440.498 174.343 427.899 160.096 412.358 160.096C396.817 160.096 384.219 174.343 384.219 191.918C384.219 209.492 396.817 223.739 412.358 223.739Z" fill="#FF8B63" stroke="#262626" stroke-width="0.99" stroke-linecap="round" stroke-linejoin="round"/>
<path d="M410.804 222.259C424.819 222.259 436.181 208.693 436.181 191.96C436.181 175.226 424.819 161.66 410.804 161.66C396.788 161.66 385.426 175.226 385.426 191.96C385.426 208.693 396.788 222.259 410.804 222.259Z" stroke="#262626" stroke-width="0.99" stroke-linecap="round" stroke-linejoin="round"/>
<path d="M404.818 217.81C415.512 217.81 424.182 206.568 424.182 192.701C424.182 178.833 415.512 167.592 404.818 167.592C394.123 167.592 385.453 178.833 385.453 192.701C385.453 206.568 394.123 217.81 404.818 217.81Z" stroke="#262626" stroke-width="0.99" stroke-linecap="round" stroke-linejoin="round"/>
<path d="M408.184 181.859H400.029C395.523 181.859 391.875 186.67 391.875 192.61C391.875 198.55 395.528 203.361 400.029 203.361H408.184C412.69 203.361 416.338 198.55 416.338 192.61C416.338 186.67 412.686 181.859 408.184 181.859Z" fill="#7099ED" stroke="#262626" stroke-width="0.99" stroke-linecap="round" stroke-linejoin="round"/>
<path d="M409.268 201.737C412.991 201.737 416.009 197.652 416.009 192.612C416.009 187.572 412.991 183.486 409.268 183.486C405.545 183.486 402.527 187.572 402.527 192.612C402.527 197.652 405.545 201.737 409.268 201.737Z" stroke="#262626" stroke-width="0.99" stroke-linecap="round" stroke-linejoin="round"/>
<path d="M454.252 197.211C454.07 199.333 453.78 201.422 453.384 203.464L455.534 204.697C454.9 207.812 454.032 210.829 452.959 213.719L450.58 213.283C449.834 215.223 448.985 217.106 448.047 218.919L449.754 220.849C448.308 223.566 446.662 226.133 444.842 228.522L442.701 227.271C441.469 228.845 440.154 230.339 438.764 231.74L439.865 234.176C437.765 236.242 435.503 238.111 433.114 239.755L431.416 237.816C429.821 238.884 428.165 239.844 426.453 240.697L426.84 243.395C424.297 244.618 421.643 245.602 418.9 246.328L417.813 243.882C416.017 244.332 414.179 244.665 412.313 244.866L411.944 247.564C410.568 247.696 409.173 247.766 407.769 247.766C406.365 247.766 404.97 247.696 403.594 247.564L403.412 246.225L403.225 244.866C401.355 244.665 399.521 244.332 397.721 243.882L396.638 246.328C396.069 246.178 395.51 246.019 394.95 245.845C394.217 245.62 393.494 245.377 392.78 245.114C391.39 244.608 390.028 244.037 388.694 243.395L389.081 240.697C387.369 239.844 385.713 238.884 384.118 237.816L382.424 239.755C380.031 238.111 377.773 236.242 375.669 234.176L376.77 231.74C375.385 230.339 374.069 228.845 372.838 227.271L370.696 228.522C368.872 226.133 367.23 223.566 365.779 220.849L367.487 218.919C366.549 217.106 365.705 215.223 364.954 213.283L362.579 213.719C361.501 210.829 360.638 207.812 359.999 204.697L362.15 203.464C361.758 201.422 361.464 199.333 361.282 197.211L358.908 196.794C358.796 195.229 358.73 193.646 358.73 192.048C358.73 190.451 358.796 188.868 358.908 187.303L361.282 186.886C361.464 184.764 361.758 182.675 362.15 180.632L359.999 179.4C360.638 176.285 361.501 173.268 362.579 170.378L364.954 170.813C365.705 168.874 366.549 166.991 367.487 165.173L365.779 163.248C367.23 160.531 368.872 157.964 370.696 155.575L372.838 156.826C374.069 155.252 375.385 153.757 376.77 152.357L375.669 149.921C377.773 147.855 380.031 145.986 382.424 144.341L384.118 146.281C385.713 145.213 387.369 144.252 389.081 143.4L388.694 140.701C390.028 140.06 391.39 139.484 392.785 138.982C393.513 138.715 394.245 138.467 394.992 138.242C395.538 138.073 396.083 137.914 396.638 137.769L397.721 140.214C399.521 139.765 401.355 139.432 403.225 139.231L403.412 137.858L403.594 136.532C404.97 136.401 406.36 136.326 407.769 136.326C409.178 136.326 410.568 136.401 411.944 136.532L412.313 139.231C414.179 139.432 416.017 139.765 417.813 140.214L418.9 137.769C421.643 138.495 424.297 139.479 426.84 140.701L426.453 143.4C428.165 144.252 429.821 145.213 431.416 146.281L433.114 144.341C435.503 145.986 437.765 147.855 439.865 149.921L438.764 152.357C440.154 153.757 441.469 155.252 442.701 156.826L444.842 155.575C446.662 157.964 448.308 160.531 449.754 163.248L448.047 165.173C448.985 166.991 449.834 168.874 450.58 170.813L452.959 170.378C454.032 173.268 454.9 176.285 455.534 179.4L453.384 180.632C453.78 182.675 454.07 184.764 454.252 186.886L456.626 187.303C456.743 188.868 456.803 190.451 456.803 192.048C456.803 193.646 456.743 195.229 456.626 196.794L454.252 197.211Z" stroke="#262626" stroke-width="0.99" stroke-linecap="round" stroke-linejoin="round"/>
<path d="M403.411 246.225C402.166 246.567 400.897 246.857 399.605 247.087C398.215 247.335 396.829 247.513 395.453 247.626L395.07 246.333H396.638L397.72 243.883C399.521 244.333 401.354 244.665 403.225 244.867L403.411 246.225Z" fill="#7099ED" stroke="#262626" stroke-width="0.99" stroke-linecap="round" stroke-linejoin="round"/>
<path d="M394.805 247.627V246.334" stroke="#262626" stroke-width="0.99" stroke-linecap="round" stroke-linejoin="round"/>
<path d="M403.414 137.859L403.228 139.231C401.357 139.433 399.523 139.765 397.723 140.215L396.608 137.69L394.672 137.671L395.498 136.463C398.189 136.683 400.834 137.152 403.414 137.859Z" stroke="#262626" stroke-width="0.99" stroke-linecap="round" stroke-linejoin="round"/>
<path d="M394.691 136.674V137.695" stroke="#262626" stroke-width="0.99" stroke-linecap="round" stroke-linejoin="round"/>
<path d="M358.907 187.305H352.441V196.594L358.907 196.795" stroke="#262626" stroke-width="0.99" stroke-linecap="round" stroke-linejoin="round"/>
<path d="M343.324 187.978H349.785L350.924 178.928L344.458 178.727" stroke="#262626" stroke-width="0.99" stroke-linecap="round" stroke-linejoin="round"/>
<path d="M344.582 205.396H351.048L349.677 196.35L343.211 196.148" stroke="#262626" stroke-width="0.99" stroke-linecap="round" stroke-linejoin="round"/>
<path d="M350.32 221.458H356.785L353.086 213.391L346.625 213.189" stroke="#262626" stroke-width="0.99" stroke-linecap="round" stroke-linejoin="round"/>
<path d="M360.429 234.739H366.89L361.227 228.082L354.766 227.881" stroke="#262626" stroke-width="0.99" stroke-linecap="round" stroke-linejoin="round"/>
<path d="M373.488 243.634H379.949L372.793 239.676L366.332 239.475" stroke="#262626" stroke-width="0.99" stroke-linecap="round" stroke-linejoin="round"/>
<path d="M388.339 247.627H394.805L387 246.287L380.539 246.086" stroke="#262626" stroke-width="0.99" stroke-linecap="round" stroke-linejoin="round"/>
<path d="M346.598 171.068H353.063L356.828 162.785L350.362 162.584" stroke="#262626" stroke-width="0.99" stroke-linecap="round" stroke-linejoin="round"/>
<path d="M354.578 156.193H361.044L366.791 149.635L360.33 149.434" stroke="#262626" stroke-width="0.99" stroke-linecap="round" stroke-linejoin="round"/>
<path d="M366.238 144.75H372.699L380.019 140.674L373.558 140.473" stroke="#262626" stroke-width="0.99" stroke-linecap="round" stroke-linejoin="round"/>
<path d="M380.492 137.986H386.953L394.688 136.674L388.227 136.473" stroke="#262626" stroke-width="0.99" stroke-linecap="round" stroke-linejoin="round"/>
<path d="M360.075 204.607H353.609L356.04 213.555L362.501 213.756" stroke="#262626" stroke-width="0.99" stroke-linecap="round" stroke-linejoin="round"/>
<path d="M365.735 220.98H359.27L364.117 228.405L370.578 228.607" stroke="#262626" stroke-width="0.99" stroke-linecap="round" stroke-linejoin="round"/>
<path d="M375.759 234.252H369.293L375.829 239.531L382.29 239.733" stroke="#262626" stroke-width="0.99" stroke-linecap="round" stroke-linejoin="round"/>
<path d="M388.755 243.494H382.289L389.972 246.132L396.438 246.333" stroke="#262626" stroke-width="0.99" stroke-linecap="round" stroke-linejoin="round"/>
<path d="M362.5 170.322H356.039L353.734 179.129L360.2 179.331" stroke="#262626" stroke-width="0.99" stroke-linecap="round" stroke-linejoin="round"/>
<path d="M370.535 155.5H364.074L359.25 162.916L365.716 163.117" stroke="#262626" stroke-width="0.99" stroke-linecap="round" stroke-linejoin="round"/>
<path d="M382.349 144.332H375.884L369.25 149.719L375.716 149.921" stroke="#262626" stroke-width="0.99" stroke-linecap="round" stroke-linejoin="round"/>
<path d="M396.575 137.695H390.109L382.184 140.454L388.649 140.656" stroke="#262626" stroke-width="0.99" stroke-linecap="round" stroke-linejoin="round"/>
<path d="M352.428 174.262H320.688V200.392H352.428V174.262Z" fill="white" stroke="#262626" stroke-width="0.99" stroke-linecap="round" stroke-linejoin="round"/>
<path d="M271.344 126.635H247.949V130.837H271.344V126.635Z" fill="white" stroke="#262626" stroke-width="0.99" stroke-linecap="round" stroke-linejoin="round"/>
<path d="M416.823 129.024C409.172 128.551 393.997 128.059 380.477 131.085C376.036 132.078 373.163 133.141 371.063 134.05C363.716 137.231 358.864 141.55 355.655 144.426C351.946 147.752 349.184 150.956 347.258 153.444L366.576 153.074L381.359 140.473L390.783 135.006L407.362 130.804L415.913 129.848L416.823 129.024Z" fill="white" stroke="#262626" stroke-width="0.99" stroke-linecap="round" stroke-linejoin="round"/>
<path d="M366.575 153.074C369.743 148.774 378.349 138.295 393.702 132.565C408.164 127.169 420.731 128.926 425.998 129.97C426.119 130.959 426.245 131.947 426.367 132.935C421.156 131.778 409.619 129.965 396.221 134.416C379.054 140.121 369.901 152.442 367.046 156.653L366.57 153.069L366.575 153.074Z" fill="white" stroke="#262626" stroke-width="0.99" stroke-linecap="round" stroke-linejoin="round"/>
<path d="M348.181 156.658H367.052L366.576 153.074L347.258 153.444L348.181 156.658Z" fill="white" stroke="#262626" stroke-width="0.99" stroke-linecap="round" stroke-linejoin="round"/>
<path d="M271.348 130.836C275.855 131.019 284.83 132.002 294.23 137.633C306.14 144.768 311.542 155.05 313.422 159.13C314.528 158.512 315.638 157.894 316.744 157.275C314.673 152.853 309.014 142.327 296.81 134.668C286.318 128.081 276.219 126.892 271.344 126.639V130.841L271.348 130.836Z" fill="white" stroke="#262626" stroke-width="0.99" stroke-linecap="round" stroke-linejoin="round"/>
<path d="M135.516 153.33V164.578" stroke="#262626" stroke-width="0.99" stroke-linecap="round" stroke-linejoin="round"/>
</g>
</g>
</g>
<defs>
<filter id="filter0_d_1781_17106" x="0.6" y="0.6" width="420.8" height="276.8" filterUnits="userSpaceOnUse" color-interpolation-filters="sRGB">
<feFlood flood-opacity="0" result="BackgroundImageFix"/>
<feColorMatrix in="SourceAlpha" type="matrix" values="0 0 0 0 0 0 0 0 0 0 0 0 0 0 0 0 0 0 127 0" result="hardAlpha"/>
<feOffset dy="10"/>
<feGaussianBlur stdDeviation="9.2"/>
<feComposite in2="hardAlpha" operator="out"/>
<feColorMatrix type="matrix" values="0 0 0 0 0 0 0 0 0 0 0 0 0 0 0 0 0 0 0.15 0"/>
<feBlend mode="normal" in2="BackgroundImageFix" result="effect1_dropShadow_1781_17106"/>
<feBlend mode="normal" in="SourceGraphic" in2="effect1_dropShadow_1781_17106" result="shape"/>
</filter>
<clipPath id="clip0_1781_17106">
<rect x="19" y="9" width="384" height="240" rx="32" fill="white"/>
</clipPath>
<clipPath id="clip1_1781_17106">
<rect width="421" height="215" fill="white" transform="translate(51 33)"/>
</clipPath>
</defs>
</svg>
