<svg width="384" height="240" viewBox="0 0 384 240" fill="none" xmlns="http://www.w3.org/2000/svg">
<g clip-path="url(#clip0_1781_16950)">
<rect width="384" height="240" rx="32" fill="white"/>
<path d="M34.5488 47.832C34.7311 47.8841 34.9297 47.9264 35.1445 47.959C35.3594 47.9915 35.5775 48.0078 35.7988 48.0078C36.3587 48.0078 36.8307 47.8809 37.2148 47.627C37.6055 47.373 37.9896 46.9108 38.3672 46.2402L38.3379 46.3184L32.0684 35.7812H35.1836L39.041 42.5977C39.2233 42.9362 39.3503 43.1901 39.4219 43.3594C39.5 43.5221 39.5814 43.7142 39.666 43.9355H39.7246C39.8092 43.7207 39.8874 43.5319 39.959 43.3691C40.0371 43.1999 40.1641 42.946 40.3398 42.6074L43.9141 35.7812H46.6582L40.9746 46.1816C40.1413 47.7116 39.4023 48.7793 38.7578 49.3848C38.1133 49.9837 37.2409 50.2832 36.1406 50.2832C35.737 50.2832 35.418 50.2669 35.1836 50.2344C34.9557 50.2018 34.7441 50.153 34.5488 50.0879V47.832ZM47.5957 43.1641V42.6172C47.5957 40.2279 48.276 38.444 49.6367 37.2656C50.9974 36.0807 52.752 35.4883 54.9004 35.4883C56.8861 35.4883 58.4681 35.9082 59.6465 36.748C60.8249 37.5814 61.4759 38.8216 61.5996 40.4688L61.6191 40.6738H58.875L58.8652 40.459C58.7741 39.4759 58.3867 38.7533 57.7031 38.291C57.026 37.8223 56.082 37.5879 54.8711 37.5879C53.5299 37.5879 52.446 37.985 51.6191 38.7793C50.7988 39.5736 50.3887 40.791 50.3887 42.4316V43.3496C50.3887 45.0618 50.7988 46.2988 51.6191 47.0605C52.446 47.8223 53.5299 48.2031 54.8711 48.2031C56.2253 48.2031 57.2083 47.9395 57.8203 47.4121C58.4323 46.8783 58.7806 46.1816 58.8652 45.3223L58.875 45.1172H61.6191L61.6094 45.332C61.4987 46.8555 60.8737 48.0632 59.7344 48.9551C58.6016 49.847 56.9935 50.293 54.9102 50.293C52.7487 50.293 50.9876 49.7135 49.627 48.5547C48.2728 47.3893 47.5957 45.5924 47.5957 43.1641ZM65.291 35.7812H76.707V50H74.002V37.8711H67.5762L67.2148 44.5898C67.1237 46.4518 66.821 47.8646 66.3066 48.8281C65.7923 49.7917 64.8158 50.2734 63.377 50.2734C63.1556 50.2734 62.944 50.2572 62.7422 50.2246C62.5404 50.1986 62.3418 50.1497 62.1465 50.0781V47.7734C62.2962 47.8255 62.4362 47.8613 62.5664 47.8809C62.7031 47.9004 62.8431 47.9102 62.9863 47.9102C63.6309 47.9102 64.0833 47.6367 64.3438 47.0898C64.6042 46.543 64.7702 45.5924 64.8418 44.2383L65.291 35.7812ZM80.9551 47.832C81.1374 47.8841 81.3359 47.9264 81.5508 47.959C81.7656 47.9915 81.9837 48.0078 82.2051 48.0078C82.765 48.0078 83.237 47.8809 83.6211 47.627C84.0117 47.373 84.3958 46.9108 84.7734 46.2402L84.7441 46.3184L78.4746 35.7812H81.5898L85.4473 42.5977C85.6296 42.9362 85.7565 43.1901 85.8281 43.3594C85.9062 43.5221 85.9876 43.7142 86.0723 43.9355H86.1309C86.2155 43.7207 86.2936 43.5319 86.3652 43.3691C86.4434 43.1999 86.5703 42.946 86.7461 42.6074L90.3203 35.7812H93.0645L87.3809 46.1816C86.5475 47.7116 85.8086 48.7793 85.1641 49.3848C84.5195 49.9837 83.6471 50.2832 82.5469 50.2832C82.1432 50.2832 81.8242 50.2669 81.5898 50.2344C81.362 50.2018 81.1504 50.153 80.9551 50.0879V47.832ZM94.6465 50V35.7812H104.803V37.8711H97.3613V50H94.6465ZM119.988 50H117.332V40.4785C117.332 40.2702 117.335 40.0423 117.342 39.7949C117.348 39.541 117.358 39.3132 117.371 39.1113H117.254C117.156 39.3066 117.059 39.4987 116.961 39.6875C116.87 39.8763 116.74 40.0814 116.57 40.3027L109.568 50H106.697V35.7812H109.363V45.293C109.363 45.4948 109.357 45.7194 109.344 45.9668C109.337 46.2142 109.331 46.4421 109.324 46.6504H109.461C109.533 46.4876 109.62 46.3021 109.725 46.0938C109.835 45.8854 109.962 45.6803 110.105 45.4785L117.117 35.7812H119.988V50ZM32.9668 66.1641V65.6172C32.9668 63.2279 33.6471 61.444 35.0078 60.2656C36.3685 59.0807 38.123 58.4883 40.2715 58.4883C42.2572 58.4883 43.8392 58.9082 45.0176 59.748C46.196 60.5814 46.847 61.8216 46.9707 63.4688L46.9902 63.6738H44.2461L44.2363 63.459C44.1452 62.4759 43.7578 61.7533 43.0742 61.291C42.3971 60.8223 41.4531 60.5879 40.2422 60.5879C38.901 60.5879 37.8171 60.985 36.9902 61.7793C36.1699 62.5736 35.7598 63.791 35.7598 65.4316V66.3496C35.7598 68.0618 36.1699 69.2988 36.9902 70.0605C37.8171 70.8223 38.901 71.2031 40.2422 71.2031C41.5964 71.2031 42.5794 70.9395 43.1914 70.4121C43.8034 69.8783 44.1517 69.1816 44.2363 68.3223L44.2461 68.1172H46.9902L46.9805 68.332C46.8698 69.8555 46.2448 71.0632 45.1055 71.9551C43.9727 72.847 42.3646 73.293 40.2812 73.293C38.1198 73.293 36.3587 72.7135 34.998 71.5547C33.6439 70.3893 32.9668 68.5924 32.9668 66.1641ZM49.002 73V58.7812H62.0586V73H59.3438V60.8711H51.7168V73H49.002ZM65.291 73V58.7812H76.1016V60.8809H67.9766V64.6699H75.1055V66.7109H67.9766V70.9102H76.2188V73H65.291ZM90.9648 75.8223V73H78.5137V58.7812H81.2285V70.9102H88.8848V58.7812H91.5996V70.9102H93.4844V75.8223H90.9648ZM93.9434 60.8906V58.7812H107.02V60.8906H101.844V73H99.1289V60.8906H93.9434ZM108.865 73V58.7812H119.676V60.8809H111.551V64.6699H118.68V66.7109H111.551V70.9102H119.793V73H108.865ZM120.467 73L126.492 65.0508L126.922 65.0312L131.326 58.7812H134.158L128.514 66.4961L128.074 66.5254L123.348 73H120.467ZM120.652 58.7812H123.875L128.338 64.9922L128.465 65.0117L134.529 73H131.268L126.541 66.5645L126.443 66.5449L120.652 58.7812ZM136.15 73V58.7812H138.865V64.6113H146.6V58.7812H149.305V73H146.6V66.7207H138.865V73H136.15ZM165.828 73H163.172V63.4785C163.172 63.2702 163.175 63.0423 163.182 62.7949C163.188 62.541 163.198 62.3132 163.211 62.1113H163.094C162.996 62.3066 162.898 62.4987 162.801 62.6875C162.71 62.8763 162.579 63.0814 162.41 63.3027L155.408 73H152.537V58.7812H155.203V68.293C155.203 68.4948 155.197 68.7194 155.184 68.9668C155.177 69.2142 155.171 69.4421 155.164 69.6504H155.301C155.372 69.4876 155.46 69.3021 155.564 69.0938C155.675 68.8854 155.802 68.6803 155.945 68.4785L162.957 58.7812H165.828V73ZM179.1 73L172.557 66.1836L174.529 64.7773L182.43 73H179.1ZM170.418 64.6211H173.084L179.002 58.7812H181.941L173.65 66.7305H170.418V64.6211ZM169.061 73V58.7812H171.775V73H169.061ZM196.883 73H194.227V63.4785C194.227 63.2702 194.23 63.0423 194.236 62.7949C194.243 62.541 194.253 62.3132 194.266 62.1113H194.148C194.051 62.3066 193.953 62.4987 193.855 62.6875C193.764 62.8763 193.634 63.0814 193.465 63.3027L186.463 73H183.592V58.7812H186.258V68.293C186.258 68.4948 186.251 68.7194 186.238 68.9668C186.232 69.2142 186.225 69.4421 186.219 69.6504H186.355C186.427 69.4876 186.515 69.3021 186.619 69.0938C186.73 68.8854 186.857 68.6803 187 68.4785L194.012 58.7812H196.883V73Z" fill="#262626"/>
<g clip-path="url(#clip1_1781_16950)">
<path d="M268.993 177.886C268.811 175.764 268.522 173.675 268.125 171.632L270.276 170.4C269.642 167.285 268.774 164.268 267.701 161.378L265.322 161.813C264.575 159.874 263.726 157.991 262.789 156.173L264.496 154.248C263.05 151.531 261.403 148.964 259.584 146.575L257.442 147.826C256.211 146.252 254.895 144.757 253.505 143.357L254.606 140.921C252.507 138.855 250.244 136.986 247.856 135.341L246.158 137.281C244.562 136.213 242.906 135.252 241.194 134.4L241.581 131.701C239.039 130.479 236.385 129.495 233.642 128.769L232.555 131.214C230.759 130.765 228.921 130.432 227.054 130.231L226.686 127.532C225.31 127.401 223.915 127.326 222.511 127.326C221.107 127.326 219.712 127.401 218.336 127.532L218.154 128.858C215.574 128.151 212.929 127.682 210.237 127.462L209.411 128.671L209.43 127.673L203.198 127.481V127.471C203.198 127.471 203.16 127.471 203.142 127.476H202.964L202.698 127.523C201.485 127.635 200.268 127.79 199.041 128.01C197.651 128.258 196.284 128.577 194.945 128.952V131.683C194.791 131.73 194.633 131.781 194.474 131.833L194.754 131.678L188.288 131.477H188.279L188.237 131.416C185.629 132.615 183.143 134.058 180.796 135.716L181.547 138.316C180.577 139.023 179.635 139.768 178.72 140.551L175.119 140.438L175.1 140.424L175.086 140.438H175.063L174.923 140.602C172.856 142.602 170.939 144.785 169.199 147.132L170.622 149.343C169.619 150.73 168.676 152.177 167.804 153.672L165.098 153.588L165.089 153.611L165.061 153.602C163.587 156.281 162.318 159.111 161.259 162.052L163.209 163.65C162.533 165.608 161.954 167.618 161.483 169.669L159.076 169.66C158.409 172.705 157.97 175.839 157.77 179.029L160.06 179.868C159.953 181.952 159.948 184.065 160.065 186.196L157.774 187.03C157.877 188.595 158.031 190.169 158.25 191.747C158.469 193.326 158.749 194.877 159.08 196.404H161.483C161.949 198.465 162.523 200.47 163.195 202.414L161.24 204.016C162.299 206.981 163.568 209.806 165.028 212.472L165.056 212.462H167.804C168.672 213.943 169.6 215.376 170.584 216.739L169.166 218.941C170.967 221.372 172.945 223.616 175.072 225.649L175.151 225.743H178.939C179.779 226.446 180.633 227.12 181.51 227.757L180.759 230.352C183.119 232.025 185.606 233.472 188.195 234.672L188.218 234.639H194.675L194.647 234.625H194.898L194.889 237.154C197.572 237.909 200.329 238.41 203.137 238.639V238.63H209.528V237.286C209.626 237.314 209.724 237.328 209.831 237.337H209.799L210.181 238.63C211.557 238.518 212.943 238.34 214.333 238.091C215.625 237.862 216.894 237.571 218.14 237.229L218.322 238.569C219.698 238.7 221.088 238.771 222.497 238.771C223.906 238.771 225.296 238.7 226.672 238.569L227.041 235.871C228.907 235.669 230.745 235.337 232.541 234.887L233.628 237.332C236.371 236.606 239.025 235.623 241.567 234.4L241.18 231.702C242.892 230.849 244.548 229.889 246.144 228.821L247.842 230.76C250.23 229.116 252.493 227.247 254.592 225.181L253.491 222.745C254.881 221.344 256.197 219.85 257.428 218.276L259.57 219.527C261.389 217.137 263.036 214.57 264.482 211.853L262.775 209.923C263.712 208.11 264.561 206.227 265.308 204.288L267.687 204.724C268.76 201.833 269.628 198.816 270.262 195.701L268.111 194.469C268.508 192.427 268.797 190.337 268.979 188.215L271.354 187.798C271.47 186.234 271.531 184.65 271.531 183.053C271.531 181.456 271.47 179.872 271.354 178.308L268.979 177.891L268.993 177.886ZM210.489 237.309L211.058 237.328H210.246C210.326 237.328 210.41 237.318 210.494 237.309H210.489ZM211.17 237.328L211.053 237.286C211.165 237.286 211.273 237.3 211.38 237.328H211.17Z" fill="#262626"/>
<path d="M415.286 187.794C415.402 186.229 415.463 184.646 415.463 183.048C415.463 181.451 415.402 179.868 415.286 178.303L412.911 177.886C412.729 175.764 412.44 173.675 412.043 171.632L414.194 170.4C413.559 167.285 412.692 164.268 411.619 161.378L409.24 161.813C408.493 159.874 407.644 157.991 406.707 156.173L408.414 154.248C406.968 151.531 405.321 148.964 403.502 146.575L401.36 147.826C400.129 146.252 398.813 144.757 397.423 143.357L398.524 140.921C396.425 138.855 394.162 136.986 391.774 135.341L390.076 137.281C388.48 136.213 386.824 135.252 385.112 134.4L385.499 131.701C382.957 130.479 380.303 129.495 377.559 128.769L376.473 131.214C374.676 130.765 372.838 130.432 370.972 130.231L370.604 127.532C369.228 127.401 367.833 127.326 366.429 127.326C365.025 127.326 363.63 127.401 362.254 127.532L362.072 128.858C359.492 128.151 356.847 127.682 354.155 127.462L353.329 128.671L353.348 127.673L347.116 127.481V127.471C347.116 127.471 347.078 127.471 347.06 127.476H346.882L346.616 127.523C345.403 127.635 344.186 127.79 342.959 128.01C341.569 128.258 340.202 128.577 338.863 128.952V131.683C338.709 131.73 338.551 131.781 338.392 131.833L338.672 131.678L332.206 131.477H332.197L332.155 131.416C329.547 132.615 327.061 134.058 324.714 135.716L325.465 138.316C324.495 139.023 323.552 139.768 322.638 140.551L319.037 140.438L319.018 140.424L319.004 140.438H318.981L318.841 140.602C316.774 142.602 314.857 144.785 313.117 147.132L314.54 149.343C313.537 150.73 312.594 152.177 311.722 153.672L309.016 153.588L309.007 153.611L308.979 153.602C307.505 156.281 306.236 159.111 305.177 162.052L307.127 163.65C306.45 165.608 305.872 167.618 305.401 169.669L302.994 169.66C302.327 172.705 301.888 175.839 301.688 179.029L303.978 179.868C303.871 181.952 303.866 184.065 303.983 186.196L301.692 187.03C301.795 188.595 301.949 190.169 302.168 191.747C302.387 193.326 302.667 194.877 302.998 196.404H305.401C305.867 198.465 306.441 200.47 307.113 202.414L305.158 204.016C306.217 206.981 307.486 209.806 308.946 212.472L308.974 212.462H311.722C312.59 213.943 313.518 215.376 314.502 216.739L313.084 218.941C314.885 221.372 316.863 223.616 318.99 225.649L319.069 225.743H322.857C323.697 226.446 324.551 227.12 325.428 227.757L324.677 230.352C327.037 232.025 329.524 233.472 332.113 234.672L332.136 234.639H338.593L338.565 234.625H338.816L338.807 237.154C341.49 237.909 344.247 238.41 347.055 238.639V238.63H353.446V237.286C353.544 237.314 353.642 237.328 353.749 237.337H353.717L354.099 238.63C355.475 238.518 356.861 238.34 358.251 238.091C359.543 237.862 360.812 237.571 362.058 237.229L362.24 238.569C363.616 238.7 365.006 238.771 366.415 238.771C367.824 238.771 369.214 238.7 370.59 238.569L370.958 235.871C372.824 235.669 374.662 235.337 376.459 234.887L377.545 237.332C380.289 236.606 382.943 235.623 385.485 234.4L385.098 231.702C386.81 230.849 388.466 229.889 390.062 228.821L391.76 230.76C394.148 229.116 396.411 227.247 398.51 225.181L397.409 222.745C398.799 221.344 400.115 219.85 401.346 218.276L403.488 219.527C405.307 217.137 406.954 214.57 408.4 211.853L406.693 209.923C407.63 208.11 408.479 206.227 409.226 204.288L411.605 204.724C412.678 201.833 413.546 198.816 414.18 195.701L412.029 194.469C412.426 192.427 412.715 190.337 412.897 188.215L415.272 187.798L415.286 187.794ZM354.407 237.309L354.976 237.328H354.164C354.244 237.328 354.328 237.318 354.412 237.309H354.407ZM355.088 237.328L354.971 237.286C355.083 237.286 355.191 237.3 355.298 237.328H355.088Z" fill="#262626"/>
<path d="M328.454 32.5684H324.27C321.178 32.5684 318.672 35.0851 318.672 38.1898V58.9468C318.672 62.0514 321.178 64.5682 324.27 64.5682H328.454C331.546 64.5682 334.052 62.0514 334.052 58.9468V38.1898C334.052 35.0851 331.546 32.5684 328.454 32.5684Z" fill="#7099ED" stroke="#262626" stroke-width="0.99" stroke-linecap="round" stroke-linejoin="round"/>
<path d="M325.134 32.5684H320.95C317.858 32.5684 315.352 35.0851 315.352 38.1898V58.9468C315.352 62.0514 317.858 64.5682 320.95 64.5682H325.134C328.226 64.5682 330.732 62.0514 330.732 58.9468V38.1898C330.732 35.0851 328.226 32.5684 325.134 32.5684Z" fill="#7099ED" stroke="#262626" stroke-width="0.99" stroke-linecap="round" stroke-linejoin="round"/>
<path d="M382.356 35.0273L331.68 35.7207L319.621 93.4103V138.41H373.451L382.356 35.0273Z" fill="#7099ED" stroke="#262626" stroke-width="0.99" stroke-linecap="round" stroke-linejoin="round"/>
<path d="M356.259 127.672H366.914C368.454 127.672 369.699 126.421 369.699 124.875V101.2L377.816 40.9525C378.012 39.491 376.883 38.1934 375.414 38.1934H335.85C334.707 38.1934 333.722 38.9944 333.48 40.114L322.004 93.4096" fill="#262626"/>
<path d="M356.259 127.672H366.914C368.454 127.672 369.699 126.421 369.699 124.875V101.2L377.816 40.9525C378.012 39.491 376.883 38.1934 375.414 38.1934H335.85C334.707 38.1934 333.722 38.9944 333.48 40.114L322.004 93.4096" stroke="#262626" stroke-width="0.99" stroke-linecap="round" stroke-linejoin="round"/>
<path d="M420.878 134.686V35.7207H381.818L373.453 101.14V142.096L413.684 135.749L420.878 134.686Z" fill="#7099ED" stroke="#262626" stroke-width="0.99" stroke-linecap="round" stroke-linejoin="round"/>
<path d="M387.095 39.243H413.924C415.65 39.243 417.05 40.6483 417.05 42.3816V113.01C417.05 113.942 416.634 114.827 415.921 115.422L396.878 131.326C396.318 131.795 395.609 132.052 394.881 132.052H384.422C382.916 132.052 381.619 130.97 381.348 129.481L376.492 102.91C376.436 102.592 376.426 102.268 376.464 101.95L383.993 41.9834C384.189 40.4141 385.519 39.2383 387.095 39.2383V39.243Z" fill="#262626" stroke="#262626" stroke-width="0.99" stroke-linecap="round" stroke-linejoin="round"/>
<path d="M440.039 146.5H319.621V186.079H440.039V146.5Z" fill="#262626" stroke="#262626" stroke-width="0.99" stroke-linecap="round" stroke-linejoin="round"/>
<path d="M307.254 103.988L271.613 107.666V85.2644C271.613 83.5498 270.312 82.1211 268.609 81.9665C268.226 81.9337 267.853 81.9665 267.503 82.0602C267.335 82.018 267.163 81.9852 266.985 81.9665C265.264 81.8119 263.734 83.0158 263.445 84.7069L207.222 112.5C206.158 113.025 205.528 114.102 205.524 115.231L205.542 115.287L200.495 117.639H200.215C199.688 117.377 199.095 117.227 198.466 117.227C197.644 117.227 196.879 117.48 196.245 117.911L195.181 117.864C194.038 117.812 193.031 118.623 192.84 119.756L190.526 133.266L189.924 133.121C189.177 132.939 188.426 132.892 187.699 132.953V132.92C185.361 132.732 181.284 134.142 180.043 137.44L155.543 202.691C154.358 205.844 155.851 209.38 158.934 210.715L171.847 216.313C172.313 216.515 182.049 215.873 182.894 212.261L190.815 178.308L201.358 169.731L201.526 166.363C201.428 168.302 202.753 170.026 204.647 170.424L216.291 172.869L290.782 119.564L309.232 113.788C311.299 113.142 312.707 111.217 312.707 109.043V108.94C312.707 105.993 310.17 103.693 307.254 103.998V103.988ZM249.006 109.783C247.052 109.783 245.125 110.261 243.394 111.174L210.819 128.371C209.074 129.294 207.576 130.629 206.466 132.269L203.005 136.489L203.788 120.679C203.802 120.351 203.765 120.033 203.681 119.738L206.629 118.131C207.52 119.129 209.013 119.461 210.282 118.81L262.652 91.8836L260.814 108.785L251.129 109.783H249.011H249.006Z" fill="#262626"/>
<path d="M318.762 133.612L204.254 166.684L207.016 129.775C207.202 127.288 208.788 125.123 211.097 124.205L260.02 104.807L276.511 98.2672L284.38 95.1473C287.352 93.9856 290.51 93.3906 293.696 93.3906H329.011C331.133 93.3906 332.855 95.1051 332.873 97.2366C332.957 106.929 332.836 133.078 332.836 133.078" fill="white"/>
<path d="M318.762 133.612L204.254 166.684L207.016 129.775C207.202 127.288 208.788 125.123 211.097 124.205L260.02 104.807L276.511 98.2672L284.38 95.1473C287.352 93.9856 290.51 93.3906 293.696 93.3906H329.011C331.133 93.3906 332.855 95.1051 332.873 97.2366C332.957 106.929 332.836 133.078 332.836 133.078" stroke="#262626" stroke-width="0.99" stroke-linecap="round" stroke-linejoin="round"/>
<path d="M356.094 133.613L241.586 166.686L244.656 125.71L297.361 104.813L313.852 98.2731L321.722 95.1532C324.693 93.9914 327.852 93.3965 331.038 93.3965H352.273C354.396 93.3965 356.117 95.111 356.136 97.2425C356.22 106.935 356.098 133.084 356.098 133.084" fill="white"/>
<path d="M356.094 133.613L241.586 166.686L244.656 125.71L297.361 104.813L313.852 98.2731L321.722 95.1532C324.693 93.9914 327.852 93.3965 331.038 93.3965H352.273C354.396 93.3965 356.117 95.111 356.136 97.2425C356.22 106.935 356.098 133.084 356.098 133.084" stroke="#262626" stroke-width="0.99" stroke-linecap="round" stroke-linejoin="round"/>
<path d="M293.356 109.781L242.727 156.673L243.137 139.045L248.702 132.267C249.813 130.632 251.31 129.292 253.055 128.369L285.631 111.173C287.362 110.259 289.288 109.781 291.243 109.781H293.361" fill="#7099ED"/>
<path d="M293.356 109.781L242.727 156.673L243.137 139.045L248.702 132.267C249.813 130.632 251.31 129.292 253.055 128.369L285.631 111.173C287.362 110.259 289.288 109.781 291.243 109.781H293.361" stroke="#262626" stroke-width="0.99" stroke-linecap="round" stroke-linejoin="round"/>
<path d="M244.748 146.359L252.651 135.523C253.574 134.259 254.722 133.172 256.033 132.324L287.722 111.773C289.42 110.672 291.347 109.993 293.358 109.782L349.487 103.987C352.407 103.687 354.941 105.988 354.941 108.929V109.032C354.941 111.206 353.532 113.131 351.465 113.778L333.015 119.554L258.524 172.859L246.88 170.414C244.986 170.015 243.661 168.291 243.759 166.352L244.753 146.354L244.748 146.359Z" fill="#7099ED" stroke="#262626" stroke-width="0.99" stroke-linecap="round" stroke-linejoin="round"/>
<path d="M207.907 146.5L208.943 131.786C209.087 129.739 210.753 128.141 212.791 128.08L240.007 127.326L237.614 152.66L207.902 146.5H207.907Z" fill="#262626" stroke="#262626" stroke-width="0.99" stroke-linecap="round" stroke-linejoin="round"/>
<path d="M232.577 134.315L235.073 119.746C235.269 118.613 236.272 117.802 237.414 117.854L239.57 117.952L238.17 139.871L232.465 136.831L232.577 134.315Z" fill="#7099ED" stroke="#262626" stroke-width="0.99" stroke-linecap="round" stroke-linejoin="round"/>
<path d="M226.756 178.101L237.672 170.011L242.314 121.123C242.472 119.475 241.217 118.027 239.571 117.952C238.082 117.886 236.79 118.964 236.58 120.444L234.467 135.439L225.52 178.05L226.756 178.106V178.101Z" fill="#7099ED" stroke="#262626" stroke-width="0.99" stroke-linecap="round" stroke-linejoin="round"/>
<path d="M240.698 125.162C242.883 125.162 244.654 123.383 244.654 121.189C244.654 118.995 242.883 117.217 240.698 117.217C238.513 117.217 236.742 118.995 236.742 121.189C236.742 123.383 238.513 125.162 240.698 125.162Z" fill="white" stroke="#262626" stroke-width="0.99" stroke-linecap="round" stroke-linejoin="round"/>
<path d="M375.48 165.262H344.047V191.392H375.48V165.262Z" fill="white" stroke="#262626" stroke-width="0.99" stroke-linecap="round" stroke-linejoin="round"/>
<path d="M389.878 157.822H354.941V162.975H389.878V157.822Z" fill="white" stroke="#262626" stroke-width="0.99" stroke-linecap="round" stroke-linejoin="round"/>
<path d="M373.624 133.078H338.688V146.391H373.624V133.078Z" fill="white" stroke="#262626" stroke-width="0.99" stroke-linecap="round" stroke-linejoin="round"/>
<path d="M220.042 144.33H185.516L102.898 163.911L145.164 181.117L218.059 156.191L220.042 144.33Z" fill="#7099ED" stroke="#262626" stroke-width="0.99" stroke-linecap="round" stroke-linejoin="round"/>
<path d="M204.955 217.554L160.236 217.751C156.21 217.77 152.352 216.116 149.581 213.188L102.898 163.912H154.881L204.955 217.554Z" fill="#262626" stroke="#262626" stroke-width="0.99" stroke-linecap="round" stroke-linejoin="round"/>
<path d="M248.864 118.13L247.754 115.23C247.754 114.101 248.388 113.029 249.452 112.499L306.323 84.3828L305.26 91.686L252.512 118.805C251.243 119.456 249.755 119.128 248.86 118.125" fill="#7099ED"/>
<path d="M248.864 118.13L247.754 115.23C247.754 114.101 248.388 113.029 249.452 112.499L306.323 84.3828L305.26 91.686L252.512 118.805C251.243 119.456 249.755 119.128 248.86 118.125" stroke="#262626" stroke-width="0.99" stroke-linecap="round" stroke-linejoin="round"/>
<path d="M245.913 119.733L249.659 117.695C250.345 117.321 250.596 116.454 250.214 115.77L250.13 115.615C249.771 114.974 248.982 114.721 248.32 115.03L242.727 117.634L244.747 120.412L245.913 119.733Z" fill="white" stroke="#262626" stroke-width="0.99" stroke-linecap="round" stroke-linejoin="round"/>
<path d="M210.033 215.686C207.336 218.332 202.984 218.178 200.479 215.348L154.883 163.912L222.428 145.535L210.854 214.107C210.751 214.707 210.467 215.259 210.033 215.686Z" fill="#7099ED" stroke="#262626" stroke-width="0.99" stroke-linecap="round" stroke-linejoin="round"/>
<path d="M236.887 134.298L238.725 119.63C238.869 118.487 239.835 117.635 240.978 117.635H243.133L242.723 139.596L236.887 136.818V134.302V134.298Z" fill="#7099ED" stroke="#262626" stroke-width="0.99" stroke-linecap="round" stroke-linejoin="round"/>
<path d="M233.049 178.304L243.592 169.726L246.022 120.68C246.106 119.021 244.791 117.635 243.139 117.635C241.651 117.635 240.405 118.768 240.266 120.258L238.829 135.333L231.812 178.304H233.049Z" fill="#7099ED" stroke="#262626" stroke-width="0.99" stroke-linecap="round" stroke-linejoin="round"/>
<path d="M437.277 24.2344H328.419C326.891 24.2344 325.652 25.4781 325.652 27.0123V32.9476C325.652 34.4818 326.891 35.7255 328.419 35.7255H437.277C438.805 35.7255 440.043 34.4818 440.043 32.9476V27.0123C440.043 25.4781 438.805 24.2344 437.277 24.2344Z" fill="white" stroke="#262626" stroke-width="0.99" stroke-linecap="round" stroke-linejoin="round"/>
<path d="M346.35 26.2109H339.171C338.524 26.2109 338 26.7374 338 27.3867V32.5725C338 33.2219 338.524 33.7483 339.171 33.7483H346.35C346.997 33.7483 347.521 33.2219 347.521 32.5725V27.3867C347.521 26.7374 346.997 26.2109 346.35 26.2109Z" fill="white" stroke="#262626" stroke-width="0.99" stroke-linecap="round" stroke-linejoin="round"/>
<path d="M357.374 26.2109H350.194C349.548 26.2109 349.023 26.7374 349.023 27.3867V32.5725C349.023 33.2219 349.548 33.7483 350.194 33.7483H357.374C358.021 33.7483 358.545 33.2219 358.545 32.5725V27.3867C358.545 26.7374 358.021 26.2109 357.374 26.2109Z" fill="white" stroke="#262626" stroke-width="0.99" stroke-linecap="round" stroke-linejoin="round"/>
<path d="M368.401 26.2109H361.222C360.575 26.2109 360.051 26.7374 360.051 27.3867V32.5725C360.051 33.2219 360.575 33.7483 361.222 33.7483H368.401C369.048 33.7483 369.572 33.2219 369.572 32.5725V27.3867C369.572 26.7374 369.048 26.2109 368.401 26.2109Z" fill="white" stroke="#262626" stroke-width="0.99" stroke-linecap="round" stroke-linejoin="round"/>
<path d="M331.647 33.1296C333.074 33.1296 334.231 31.7181 334.231 29.9769C334.231 28.2357 333.074 26.8242 331.647 26.8242C330.22 26.8242 329.062 28.2357 329.062 29.9769C329.062 31.7181 330.22 33.1296 331.647 33.1296Z" fill="white" stroke="#262626" stroke-width="0.99" stroke-linecap="round" stroke-linejoin="round"/>
<path d="M376.44 33.1296C377.867 33.1296 379.024 31.7181 379.024 29.9769C379.024 28.2357 377.867 26.8242 376.44 26.8242C375.013 26.8242 373.855 28.2357 373.855 29.9769C373.855 31.7181 375.013 33.1296 376.44 33.1296Z" fill="white" stroke="#262626" stroke-width="0.99" stroke-linecap="round" stroke-linejoin="round"/>
<path d="M141.449 156.75H138.066L153.26 175.282H157.445L141.449 156.75Z" fill="#262626" stroke="#262626" stroke-width="0.99" stroke-linecap="round" stroke-linejoin="round"/>
<path d="M125.785 156.75L140.979 175.282H145.164L129.167 156.75H125.785Z" fill="#262626" stroke="#262626" stroke-width="0.99" stroke-linecap="round" stroke-linejoin="round"/>
<path d="M113.508 156.75L128.702 175.282H132.886L116.895 156.75H113.508Z" fill="#262626" stroke="#262626" stroke-width="0.99" stroke-linecap="round" stroke-linejoin="round"/>
<path d="M101.234 156.75L116.428 175.282H120.608L104.617 156.75H101.234Z" fill="#262626" stroke="#262626" stroke-width="0.99" stroke-linecap="round" stroke-linejoin="round"/>
<path d="M141.449 156.75L147.635 163.913H151.232L141.449 156.75Z" fill="#7099ED" stroke="#262626" stroke-width="0.99" stroke-linecap="round" stroke-linejoin="round"/>
<path d="M135.354 163.913H138.951L129.168 156.75L135.354 163.913Z" fill="#7099ED" stroke="#262626" stroke-width="0.99" stroke-linecap="round" stroke-linejoin="round"/>
<path d="M123.076 163.913H126.672L116.895 156.75L123.076 163.913Z" fill="#7099ED" stroke="#262626" stroke-width="0.99" stroke-linecap="round" stroke-linejoin="round"/>
<path d="M110.803 163.913H114.4L104.617 156.75L110.803 163.913Z" fill="#7099ED" stroke="#262626" stroke-width="0.99" stroke-linecap="round" stroke-linejoin="round"/>
<path d="M371.797 85.6489L332.321 45.5215L329.121 60.376C329.112 60.4229 369.702 102.808 369.702 102.808V101.202L371.797 85.6489Z" fill="white" stroke="#262626" stroke-width="0.99" stroke-linecap="round" stroke-linejoin="round"/>
<path d="M338.004 38.1941C338.76 38.1941 373.859 70.5219 373.859 70.5219L374.708 64.0385L347.525 38.1895H338.004V38.1941Z" fill="white" stroke="#262626" stroke-width="0.99" stroke-linecap="round" stroke-linejoin="round"/>
<path d="M417.051 72.4141L376.941 98.1507L376.465 101.955L378.378 113.235L417.051 88.599V72.4141Z" fill="white" stroke="#262626" stroke-width="0.99" stroke-linecap="round" stroke-linejoin="round"/>
<path d="M351.382 111.76C352.505 111.76 353.416 110.441 353.416 108.814C353.416 107.186 352.505 105.867 351.382 105.867C350.258 105.867 349.348 107.186 349.348 108.814C349.348 110.441 350.258 111.76 351.382 111.76Z" stroke="#262626" stroke-width="0.99" stroke-linecap="round" stroke-linejoin="round"/>
<path d="M229.933 132.915C227.596 132.727 223.519 134.138 222.278 137.435L197.777 202.686C196.592 205.839 198.085 209.375 201.168 210.71L214.081 216.308C214.548 216.51 215.042 216.636 215.546 216.688L217.142 216.842L230.432 147.966L229.942 132.91L229.933 132.915Z" fill="#7099ED" stroke="#262626" stroke-width="0.99" stroke-linecap="round" stroke-linejoin="round"/>
<path d="M232.159 133.111L236.269 134.113C239.982 135.018 242.273 138.76 241.4 142.494L225.124 212.256C224.228 216.088 220.104 218.172 216.508 216.612L202.895 210.71C199.811 209.375 198.319 205.838 199.504 202.685L224.004 137.435C225.245 134.132 228.739 132.277 232.154 133.111H232.159Z" fill="#7099ED" stroke="#262626" stroke-width="0.99" stroke-linecap="round" stroke-linejoin="round"/>
<path d="M237.622 143.393C238.539 143.393 239.282 142.024 239.282 140.334C239.282 138.645 238.539 137.275 237.622 137.275C236.704 137.275 235.961 138.645 235.961 140.334C235.961 142.024 236.704 143.393 237.622 143.393Z" stroke="#262626" stroke-width="0.99" stroke-linecap="round" stroke-linejoin="round"/>
<path d="M301.025 127.327L301.51 122.89L302.084 117.634L305.653 84.8662C305.868 83.0908 307.444 81.8072 309.222 81.9665C310.92 82.1211 312.226 83.5498 312.226 85.2644V132.643H300.438L301.035 127.327H301.025Z" fill="#7099ED" stroke="#262626" stroke-width="0.99" stroke-linecap="round" stroke-linejoin="round"/>
<path d="M302.654 127.327L303.139 122.89L303.713 117.634L307.282 84.8662C307.496 83.0908 309.073 81.8072 310.851 81.9665C312.549 82.1211 313.855 83.5498 313.855 85.2644V132.643H302.066L302.664 127.327H302.654Z" fill="#7099ED" stroke="#262626" stroke-width="0.99" stroke-linecap="round" stroke-linejoin="round"/>
<path d="M310.941 88.5994C311.658 88.5994 312.238 87.5759 312.238 86.3134C312.238 85.0508 311.658 84.0273 310.941 84.0273C310.225 84.0273 309.645 85.0508 309.645 86.3134C309.645 87.5759 310.225 88.5994 310.941 88.5994Z" stroke="#262626" stroke-width="0.99" stroke-linecap="round" stroke-linejoin="round"/>
<path d="M297.949 121.836C300.571 122.318 304.308 123.134 308.674 124.553C311.305 125.41 322.058 129.064 334.08 137.96C337.714 140.649 342.444 144.542 347.431 149.882C352.763 149.966 358.095 150.046 363.428 150.13L364.043 147.352C363.124 145.451 361.781 143.01 359.859 140.373C356.92 136.334 354.056 133.805 352.661 132.587C344.59 125.541 335.199 122.361 333.221 121.714C320.281 117.493 308.879 118.927 303.015 120.107C301.327 120.684 299.638 121.26 297.949 121.836Z" fill="#262626" stroke="#262626" stroke-width="0.99" stroke-linecap="round" stroke-linejoin="round"/>
<path d="M445.243 120.022L444.875 117.82C440.144 117.029 427.054 115.502 413.316 122.641C405.693 126.599 400.618 131.804 397.585 135.561C396.895 136.413 395.864 136.915 394.772 136.915H382.914C381.831 136.915 380.805 136.427 380.119 135.589L379.154 134.408C378.468 133.57 377.442 133.083 376.359 133.083H373.453V146.504H408.907C408.907 146.504 430.306 128.253 430.021 127.33C429.737 126.407 445.243 120.027 445.243 120.027V120.022Z" fill="white" stroke="#262626" stroke-width="0.99" stroke-linecap="round" stroke-linejoin="round"/>
<path d="M383.419 24.2344H328.419C326.891 24.2344 325.652 25.4781 325.652 27.0123V32.9476C325.652 34.4818 326.891 35.7255 328.419 35.7255H383.419C384.947 35.7255 386.186 34.4818 386.186 32.9476V27.0123C386.186 25.4781 384.947 24.2344 383.419 24.2344Z" stroke="#262626" stroke-width="0.99" stroke-linecap="round" stroke-linejoin="round"/>
<path d="M393.634 32.5684H389.45C386.358 32.5684 383.852 35.0851 383.852 38.1898V58.9468C383.852 62.0514 386.358 64.5682 389.45 64.5682H393.634C396.726 64.5682 399.232 62.0514 399.232 58.9468V38.1898C399.232 35.0851 396.726 32.5684 393.634 32.5684Z" fill="#7099ED" stroke="#262626" stroke-width="0.99" stroke-linecap="round" stroke-linejoin="round"/>
<path d="M362.704 187.794C362.82 186.229 362.881 184.646 362.881 183.048C362.881 181.451 362.82 179.868 362.704 178.303L360.329 177.886C360.147 175.764 359.858 173.675 359.461 171.632L361.612 170.4C360.977 167.285 360.11 164.268 359.037 161.378L356.658 161.813C355.911 159.874 355.062 157.991 354.125 156.173L355.832 154.248C354.386 151.531 352.739 148.964 350.92 146.575L348.778 147.826C347.547 146.252 346.231 144.757 344.841 143.357L345.942 140.921C343.843 138.855 341.58 136.986 339.192 135.341L337.494 137.281C335.898 136.213 334.242 135.252 332.53 134.4L332.917 131.701C330.375 130.479 327.72 129.495 324.977 128.769L323.891 131.214C322.094 130.765 320.256 130.432 318.39 130.231L318.022 127.532C316.646 127.401 315.251 127.326 313.847 127.326C312.443 127.326 311.048 127.401 309.672 127.532L309.49 128.858C306.91 128.151 304.265 127.682 301.573 127.462L300.747 128.671L300.766 127.673L294.533 127.481V127.471C294.533 127.471 294.496 127.471 294.478 127.476H294.3L294.034 127.523C292.821 127.635 291.604 127.79 290.377 128.01C288.987 128.258 287.62 128.577 286.281 128.952V131.683C286.127 131.73 285.969 131.781 285.81 131.833L286.09 131.678L279.624 131.477H279.615L279.573 131.416C276.965 132.615 274.479 134.058 272.132 135.716L272.883 138.316C271.913 139.023 270.97 139.768 270.056 140.551L266.455 140.438L266.436 140.424L266.422 140.438H266.399L266.259 140.602C264.192 142.602 262.275 144.785 260.535 147.132L261.958 149.343C260.955 150.73 260.012 152.177 259.14 153.672L256.434 153.588L256.425 153.611L256.397 153.602C254.923 156.281 253.654 159.111 252.595 162.052L254.545 163.65C253.868 165.608 253.29 167.618 252.819 169.669L250.412 169.66C249.745 172.705 249.306 175.839 249.105 179.029L251.396 179.868C251.289 181.952 251.284 184.065 251.401 186.196L249.11 187.03C249.213 188.595 249.367 190.169 249.586 191.747C249.805 193.326 250.085 194.877 250.416 196.404H252.819C253.285 198.465 253.859 200.47 254.531 202.414L252.576 204.016C253.635 206.981 254.904 209.806 256.364 212.472L256.392 212.462H259.14C260.008 213.943 260.936 215.376 261.92 216.739L260.502 218.941C262.303 221.372 264.281 223.616 266.408 225.649L266.487 225.743H270.275C271.115 226.446 271.969 227.12 272.846 227.757L272.095 230.352C274.455 232.025 276.942 233.472 279.531 234.672L279.554 234.639L286.234 234.625L286.225 237.159C288.907 237.913 291.665 238.415 294.473 238.644V238.635H300.864V237.29C301.424 237.464 302.128 237.187 302.697 237.337L303.78 234.892C305.58 235.341 307.414 235.674 309.284 235.876L309.471 237.234L309.653 238.574C311.029 238.705 312.419 238.775 313.828 238.775C315.237 238.775 316.627 238.705 318.003 238.574L318.372 235.876C320.238 235.674 322.076 235.341 323.872 234.892L324.959 237.337C327.702 236.611 330.356 235.627 332.899 234.405L332.511 231.706C334.224 230.854 335.88 229.893 337.475 228.825L339.173 230.765C341.562 229.12 343.824 227.251 345.923 225.185L344.822 222.75C346.213 221.349 347.528 219.854 348.76 218.281L350.901 219.531C352.72 217.142 354.367 214.575 355.813 211.858L354.106 209.928C355.044 208.115 355.893 206.232 356.639 204.293L359.018 204.728C360.091 201.838 360.959 198.821 361.593 195.706L359.443 194.474C359.839 192.431 360.128 190.342 360.31 188.22L362.685 187.803L362.704 187.794Z" fill="#7099ED" stroke="#262626" stroke-width="0.99" stroke-linecap="round" stroke-linejoin="round"/>
<path d="M317.719 222.713C337.083 222.713 352.781 204.957 352.781 183.054C352.781 161.15 337.083 143.395 317.719 143.395C298.354 143.395 282.656 161.15 282.656 183.054C282.656 204.957 298.354 222.713 317.719 222.713Z" stroke="#262626" stroke-width="0.99" stroke-linecap="round" stroke-linejoin="round"/>
<path d="M318.44 214.739C333.981 214.739 346.58 200.492 346.58 182.918C346.58 165.343 333.981 151.096 318.44 151.096C302.899 151.096 290.301 165.343 290.301 182.918C290.301 200.492 302.899 214.739 318.44 214.739Z" fill="#FF8B63" stroke="#262626" stroke-width="0.99" stroke-linecap="round" stroke-linejoin="round"/>
<path d="M316.886 213.259C330.901 213.259 342.263 199.693 342.263 182.96C342.263 166.226 330.901 152.66 316.886 152.66C302.87 152.66 291.508 166.226 291.508 182.96C291.508 199.693 302.87 213.259 316.886 213.259Z" stroke="#262626" stroke-width="0.99" stroke-linecap="round" stroke-linejoin="round"/>
<path d="M310.896 208.81C321.591 208.81 330.26 197.568 330.26 183.701C330.26 169.833 321.591 158.592 310.896 158.592C300.201 158.592 291.531 169.833 291.531 183.701C291.531 197.568 300.201 208.81 310.896 208.81Z" stroke="#262626" stroke-width="0.99" stroke-linecap="round" stroke-linejoin="round"/>
<path d="M314.262 172.859H306.108C301.601 172.859 297.953 177.67 297.953 183.61C297.953 189.55 301.606 194.361 306.108 194.361H314.262C318.768 194.361 322.417 189.55 322.417 183.61C322.417 177.67 318.764 172.859 314.262 172.859Z" fill="#7099ED" stroke="#262626" stroke-width="0.99" stroke-linecap="round" stroke-linejoin="round"/>
<path d="M315.35 192.737C319.073 192.737 322.091 188.652 322.091 183.612C322.091 178.572 319.073 174.486 315.35 174.486C311.627 174.486 308.609 178.572 308.609 183.612C308.609 188.652 311.627 192.737 315.35 192.737Z" stroke="#262626" stroke-width="0.99" stroke-linecap="round" stroke-linejoin="round"/>
<path d="M360.33 188.211C360.148 190.333 359.858 192.422 359.462 194.464L361.613 195.697C360.978 198.812 360.11 201.829 359.037 204.719L356.658 204.283C355.912 206.223 355.063 208.106 354.125 209.919L355.833 211.849C354.386 214.566 352.74 217.133 350.92 219.522L348.779 218.271C347.548 219.845 346.232 221.339 344.842 222.74L345.943 225.176C343.843 227.242 341.581 229.111 339.192 230.755L337.494 228.816C335.899 229.884 334.243 230.844 332.531 231.697L332.918 234.395C330.376 235.618 327.721 236.602 324.978 237.328L323.891 234.882C322.095 235.332 320.257 235.665 318.391 235.866L318.023 238.564C316.646 238.696 315.252 238.766 313.847 238.766C312.443 238.766 311.048 238.696 309.672 238.564L309.49 237.225L309.304 235.866C307.433 235.665 305.6 235.332 303.799 234.882L302.717 237.328C302.147 237.178 301.588 237.019 301.028 236.845C300.295 236.62 299.572 236.377 298.859 236.114C297.468 235.608 296.106 235.037 294.772 234.395L295.159 231.697C293.447 230.844 291.791 229.884 290.196 228.816L288.502 230.755C286.109 229.111 283.851 227.242 281.747 225.176L282.848 222.74C281.463 221.339 280.147 219.845 278.916 218.271L276.774 219.522C274.95 217.133 273.308 214.566 271.857 211.849L273.565 209.919C272.627 208.106 271.783 206.223 271.032 204.283L268.657 204.719C267.58 201.829 266.717 198.812 266.077 195.697L268.228 194.464C267.836 192.422 267.542 190.333 267.36 188.211L264.986 187.794C264.874 186.229 264.809 184.646 264.809 183.048C264.809 181.451 264.874 179.868 264.986 178.303L267.36 177.886C267.542 175.764 267.836 173.675 268.228 171.632L266.077 170.4C266.717 167.285 267.58 164.268 268.657 161.378L271.032 161.813C271.783 159.874 272.627 157.991 273.565 156.173L271.857 154.248C273.308 151.531 274.95 148.964 276.774 146.575L278.916 147.826C280.147 146.252 281.463 144.757 282.848 143.357L281.747 140.921C283.851 138.855 286.109 136.986 288.502 135.341L290.196 137.281C291.791 136.213 293.447 135.252 295.159 134.4L294.772 131.701C296.106 131.06 297.468 130.484 298.863 129.982C299.591 129.715 300.323 129.467 301.07 129.242C301.616 129.073 302.161 128.914 302.717 128.769L303.799 131.214C305.6 130.765 307.433 130.432 309.304 130.231L309.49 128.858L309.672 127.532C311.048 127.401 312.439 127.326 313.847 127.326C315.256 127.326 316.646 127.401 318.023 127.532L318.391 130.231C320.257 130.432 322.095 130.765 323.891 131.214L324.978 128.769C327.721 129.495 330.376 130.479 332.918 131.701L332.531 134.4C334.243 135.252 335.899 136.213 337.494 137.281L339.192 135.341C341.581 136.986 343.843 138.855 345.943 140.921L344.842 143.357C346.232 144.757 347.548 146.252 348.779 147.826L350.92 146.575C352.74 148.964 354.386 151.531 355.833 154.248L354.125 156.173C355.063 157.991 355.912 159.874 356.658 161.813L359.037 161.378C360.11 164.268 360.978 167.285 361.613 170.4L359.462 171.632C359.858 173.675 360.148 175.764 360.33 177.886L362.704 178.303C362.821 179.868 362.881 181.451 362.881 183.048C362.881 184.646 362.821 186.229 362.704 187.794L360.33 188.211Z" stroke="#262626" stroke-width="0.99" stroke-linecap="round" stroke-linejoin="round"/>
<path d="M309.49 237.225C308.244 237.567 306.975 237.857 305.683 238.087C304.293 238.335 302.907 238.513 301.531 238.626L301.148 237.333H302.716L303.798 234.883C305.599 235.333 307.432 235.665 309.303 235.867L309.49 237.225Z" fill="#7099ED" stroke="#262626" stroke-width="0.99" stroke-linecap="round" stroke-linejoin="round"/>
<path d="M300.883 238.627V237.334" stroke="#262626" stroke-width="0.99" stroke-linecap="round" stroke-linejoin="round"/>
<path d="M309.492 128.859L309.306 130.231C307.435 130.433 305.602 130.765 303.801 131.215L302.686 128.69L300.75 128.671L301.576 127.463C304.267 127.683 306.913 128.152 309.492 128.859Z" stroke="#262626" stroke-width="0.99" stroke-linecap="round" stroke-linejoin="round"/>
<path d="M300.773 127.674V128.695" stroke="#262626" stroke-width="0.99" stroke-linecap="round" stroke-linejoin="round"/>
<path d="M264.984 178.305H258.523V187.594L264.984 187.795" stroke="#262626" stroke-width="0.99" stroke-linecap="round" stroke-linejoin="round"/>
<path d="M249.398 178.978H255.864L256.998 169.928L250.537 169.727" stroke="#262626" stroke-width="0.99" stroke-linecap="round" stroke-linejoin="round"/>
<path d="M250.664 196.396H257.13L255.754 187.35L249.293 187.148" stroke="#262626" stroke-width="0.99" stroke-linecap="round" stroke-linejoin="round"/>
<path d="M256.402 212.458H262.863L259.168 204.391L252.707 204.189" stroke="#262626" stroke-width="0.99" stroke-linecap="round" stroke-linejoin="round"/>
<path d="M266.507 225.739H272.973L267.309 219.082L260.844 218.881" stroke="#262626" stroke-width="0.99" stroke-linecap="round" stroke-linejoin="round"/>
<path d="M279.562 234.634H286.028L278.872 230.676L272.406 230.475" stroke="#262626" stroke-width="0.99" stroke-linecap="round" stroke-linejoin="round"/>
<path d="M294.422 238.627H300.883L293.083 237.287L286.617 237.086" stroke="#262626" stroke-width="0.99" stroke-linecap="round" stroke-linejoin="round"/>
<path d="M252.68 162.068H259.141L262.91 153.785L256.444 153.584" stroke="#262626" stroke-width="0.99" stroke-linecap="round" stroke-linejoin="round"/>
<path d="M260.66 147.193H267.121L272.873 140.635L266.407 140.434" stroke="#262626" stroke-width="0.99" stroke-linecap="round" stroke-linejoin="round"/>
<path d="M272.316 135.75H278.782L286.102 131.674L279.636 131.473" stroke="#262626" stroke-width="0.99" stroke-linecap="round" stroke-linejoin="round"/>
<path d="M286.574 128.986H293.035L300.77 127.674L294.304 127.473" stroke="#262626" stroke-width="0.99" stroke-linecap="round" stroke-linejoin="round"/>
<path d="M266.152 195.607H259.691L262.117 204.555L268.583 204.756" stroke="#262626" stroke-width="0.99" stroke-linecap="round" stroke-linejoin="round"/>
<path d="M271.813 211.98H265.352L270.194 219.405L276.66 219.607" stroke="#262626" stroke-width="0.99" stroke-linecap="round" stroke-linejoin="round"/>
<path d="M281.836 225.252H275.375L281.906 230.531L288.372 230.733" stroke="#262626" stroke-width="0.99" stroke-linecap="round" stroke-linejoin="round"/>
<path d="M294.832 234.494H288.371L296.054 237.132L302.52 237.333" stroke="#262626" stroke-width="0.99" stroke-linecap="round" stroke-linejoin="round"/>
<path d="M268.582 161.322H262.116L259.816 170.129L266.277 170.331" stroke="#262626" stroke-width="0.99" stroke-linecap="round" stroke-linejoin="round"/>
<path d="M276.617 146.5H270.151L265.332 153.916L271.798 154.117" stroke="#262626" stroke-width="0.99" stroke-linecap="round" stroke-linejoin="round"/>
<path d="M288.431 135.332H281.966L275.332 140.719L281.793 140.921" stroke="#262626" stroke-width="0.99" stroke-linecap="round" stroke-linejoin="round"/>
<path d="M302.657 128.695H296.192L288.266 131.454L294.727 131.656" stroke="#262626" stroke-width="0.99" stroke-linecap="round" stroke-linejoin="round"/>
<path d="M402.424 165.262H370.684V191.392H402.424V165.262Z" fill="white" stroke="#262626" stroke-width="0.99" stroke-linecap="round" stroke-linejoin="round"/>
<path d="M321.344 117.635H297.949V121.837H321.344V117.635Z" fill="white" stroke="#262626" stroke-width="0.99" stroke-linecap="round" stroke-linejoin="round"/>
<path d="M321.348 121.836C325.855 122.019 334.83 123.002 344.23 128.633C356.14 135.768 361.542 146.05 363.422 150.13C364.528 149.512 365.638 148.894 366.744 148.275C364.673 143.853 359.014 133.327 346.81 125.668C336.318 119.081 326.219 117.892 321.344 117.639V121.841L321.348 121.836Z" fill="white" stroke="#262626" stroke-width="0.99" stroke-linecap="round" stroke-linejoin="round"/>
<path d="M185.516 144.33V155.578" stroke="#262626" stroke-width="0.99" stroke-linecap="round" stroke-linejoin="round"/>
</g>
</g>
<defs>
<clipPath id="clip0_1781_16950">
<rect width="384" height="240" rx="32" fill="white"/>
</clipPath>
<clipPath id="clip1_1781_16950">
<rect width="421" height="215" fill="white" transform="translate(101 24)"/>
</clipPath>
</defs>
</svg>
