<svg width="352" height="215" viewBox="0 0 352 215" fill="none" xmlns="http://www.w3.org/2000/svg">
<g clip-path="url(#clip0_1859_20737)">
<path d="M167.993 153.886C167.811 151.764 167.522 149.675 167.125 147.632L169.276 146.4C168.642 143.285 167.774 140.268 166.701 137.378L164.322 137.813C163.575 135.874 162.726 133.991 161.789 132.173L163.496 130.248C162.05 127.531 160.403 124.964 158.584 122.575L156.442 123.826C155.211 122.252 153.895 120.757 152.505 119.357L153.606 116.921C151.507 114.855 149.244 112.986 146.856 111.341L145.158 113.281C143.562 112.213 141.906 111.252 140.194 110.4L140.581 107.701C138.039 106.479 135.385 105.495 132.642 104.769L131.555 107.214C129.759 106.765 127.921 106.432 126.054 106.231L125.686 103.532C124.31 103.401 122.915 103.326 121.511 103.326C120.107 103.326 118.712 103.401 117.336 103.532L117.154 104.858C114.574 104.151 111.929 103.682 109.237 103.462L108.411 104.671L108.43 103.673L102.198 103.481V103.471C102.198 103.471 102.16 103.471 102.142 103.476H101.964L101.698 103.523C100.485 103.635 99.2679 103.79 98.041 104.01C96.6508 104.258 95.284 104.577 93.9451 104.952V107.683C93.7912 107.73 93.6326 107.781 93.474 107.833L93.7539 107.678L87.2881 107.477H87.2788L87.2368 107.416C84.6291 108.615 82.1426 110.058 79.7961 111.716L80.5472 114.316C79.5768 115.023 78.6345 115.768 77.7202 116.551L74.1188 116.438L74.1001 116.424L74.0861 116.438H74.0628L73.9228 116.602C71.8562 118.602 69.9389 120.785 68.1988 123.132L69.6217 125.343C68.6187 126.73 67.6764 128.177 66.804 129.672L64.0983 129.588L64.089 129.611L64.061 129.602C62.5868 132.281 61.3179 135.111 60.259 138.052L62.209 139.65C61.5325 141.608 60.9541 143.618 60.4829 145.669L58.0757 145.66C57.4086 148.705 56.9701 151.839 56.7695 155.029L59.0601 155.868C58.9528 157.952 58.9481 160.065 59.0647 162.196L56.7742 163.03C56.8768 164.595 57.0308 166.169 57.25 167.747C57.4693 169.326 57.7492 170.877 58.0804 172.404H60.4829C60.9494 174.465 61.5232 176.47 62.195 178.414L60.2403 180.016C61.2993 182.981 62.5682 185.806 64.0283 188.472L64.0563 188.462H66.804C67.6717 189.943 68.6 191.376 69.5844 192.739L68.1662 194.941C69.9669 197.372 71.9449 199.616 74.0721 201.649L74.1514 201.743H77.9394C78.7791 202.446 79.6328 203.12 80.5098 203.757L79.7588 206.352C82.1193 208.025 84.6057 209.472 87.1948 210.672L87.2182 210.639H93.6746L93.6466 210.625H93.8985L93.8891 213.154C96.5715 213.909 99.3286 214.41 102.137 214.639V214.63H108.528V213.286C108.626 213.314 108.724 213.328 108.831 213.337H108.799L109.181 214.63C110.557 214.518 111.943 214.34 113.333 214.091C114.625 213.862 115.894 213.571 117.14 213.229L117.322 214.569C118.698 214.7 120.088 214.771 121.497 214.771C122.906 214.771 124.296 214.7 125.672 214.569L126.041 211.871C127.907 211.669 129.745 211.337 131.541 210.887L132.628 213.332C135.371 212.606 138.025 211.623 140.567 210.4L140.18 207.702C141.892 206.849 143.548 205.889 145.144 204.821L146.842 206.76C149.23 205.116 151.493 203.247 153.592 201.181L152.491 198.745C153.881 197.344 155.197 195.85 156.428 194.276L158.57 195.527C160.389 193.137 162.036 190.57 163.482 187.853L161.775 185.923C162.712 184.11 163.561 182.227 164.308 180.288L166.687 180.724C167.76 177.833 168.628 174.816 169.262 171.701L167.111 170.469C167.508 168.427 167.797 166.337 167.979 164.215L170.354 163.798C170.47 162.234 170.531 160.65 170.531 159.053C170.531 157.456 170.47 155.872 170.354 154.308L167.979 153.891L167.993 153.886ZM109.489 213.309L110.058 213.328H109.246C109.326 213.328 109.41 213.318 109.494 213.309H109.489ZM110.17 213.328L110.053 213.286C110.165 213.286 110.273 213.3 110.38 213.328H110.17Z" fill="#262626"/>
<path d="M314.286 163.794C314.402 162.229 314.463 160.646 314.463 159.048C314.463 157.451 314.402 155.868 314.286 154.303L311.911 153.886C311.729 151.764 311.44 149.675 311.043 147.632L313.194 146.4C312.559 143.285 311.692 140.268 310.619 137.378L308.24 137.813C307.493 135.874 306.644 133.991 305.707 132.173L307.414 130.248C305.968 127.531 304.321 124.964 302.502 122.575L300.36 123.826C299.129 122.252 297.813 120.757 296.423 119.357L297.524 116.921C295.425 114.855 293.162 112.986 290.774 111.341L289.076 113.281C287.48 112.213 285.824 111.252 284.112 110.4L284.499 107.701C281.957 106.479 279.303 105.495 276.559 104.769L275.473 107.214C273.676 106.765 271.838 106.432 269.972 106.231L269.604 103.532C268.228 103.401 266.833 103.326 265.429 103.326C264.025 103.326 262.63 103.401 261.254 103.532L261.072 104.858C258.492 104.151 255.847 103.682 253.155 103.462L252.329 104.671L252.348 103.673L246.116 103.481V103.471C246.116 103.471 246.078 103.471 246.06 103.476H245.882L245.616 103.523C244.403 103.635 243.186 103.79 241.959 104.01C240.569 104.258 239.202 104.577 237.863 104.952V107.683C237.709 107.73 237.551 107.781 237.392 107.833L237.672 107.678L231.206 107.477H231.197L231.155 107.416C228.547 108.615 226.061 110.058 223.714 111.716L224.465 114.316C223.495 115.023 222.552 115.768 221.638 116.551L218.037 116.438L218.018 116.424L218.004 116.438H217.981L217.841 116.602C215.774 118.602 213.857 120.785 212.117 123.132L213.54 125.343C212.537 126.73 211.594 128.177 210.722 129.672L208.016 129.588L208.007 129.611L207.979 129.602C206.505 132.281 205.236 135.111 204.177 138.052L206.127 139.65C205.45 141.608 204.872 143.618 204.401 145.669L201.994 145.66C201.327 148.705 200.888 151.839 200.688 155.029L202.978 155.868C202.871 157.952 202.866 160.065 202.983 162.196L200.692 163.03C200.795 164.595 200.949 166.169 201.168 167.747C201.387 169.326 201.667 170.877 201.998 172.404H204.401C204.867 174.465 205.441 176.47 206.113 178.414L204.158 180.016C205.217 182.981 206.486 185.806 207.946 188.472L207.974 188.462H210.722C211.59 189.943 212.518 191.376 213.502 192.739L212.084 194.941C213.885 197.372 215.863 199.616 217.99 201.649L218.069 201.743H221.857C222.697 202.446 223.551 203.12 224.428 203.757L223.677 206.352C226.037 208.025 228.524 209.472 231.113 210.672L231.136 210.639H237.593L237.565 210.625H237.816L237.807 213.154C240.49 213.909 243.247 214.41 246.055 214.639V214.63H252.446V213.286C252.544 213.314 252.642 213.328 252.749 213.337H252.717L253.099 214.63C254.475 214.518 255.861 214.34 257.251 214.091C258.543 213.862 259.812 213.571 261.058 213.229L261.24 214.569C262.616 214.7 264.006 214.771 265.415 214.771C266.824 214.771 268.214 214.7 269.59 214.569L269.958 211.871C271.824 211.669 273.662 211.337 275.459 210.887L276.545 213.332C279.289 212.606 281.943 211.623 284.485 210.4L284.098 207.702C285.81 206.849 287.466 205.889 289.062 204.821L290.76 206.76C293.148 205.116 295.411 203.247 297.51 201.181L296.409 198.745C297.799 197.344 299.115 195.85 300.346 194.276L302.488 195.527C304.307 193.137 305.954 190.57 307.4 187.853L305.693 185.923C306.63 184.11 307.479 182.227 308.226 180.288L310.605 180.724C311.678 177.833 312.546 174.816 313.18 171.701L311.029 170.469C311.426 168.427 311.715 166.337 311.897 164.215L314.272 163.798L314.286 163.794ZM253.407 213.309L253.976 213.328H253.164C253.244 213.328 253.328 213.318 253.412 213.309H253.407ZM254.088 213.328L253.971 213.286C254.083 213.286 254.191 213.3 254.298 213.328H254.088Z" fill="#262626"/>
<path d="M227.458 8.56836H223.274C220.182 8.56836 217.676 11.0851 217.676 14.1898V34.9468C217.676 38.0514 220.182 40.5682 223.274 40.5682H227.458C230.55 40.5682 233.056 38.0514 233.056 34.9468V14.1898C233.056 11.0851 230.55 8.56836 227.458 8.56836Z" fill="#7099ED" stroke="#262626" stroke-width="0.99" stroke-linecap="round" stroke-linejoin="round"/>
<path d="M224.138 8.56836H219.954C216.862 8.56836 214.355 11.0851 214.355 14.1898V34.9468C214.355 38.0514 216.862 40.5682 219.954 40.5682H224.138C227.23 40.5682 229.736 38.0514 229.736 34.9468V14.1898C229.736 11.0851 227.23 8.56836 224.138 8.56836Z" fill="#7099ED" stroke="#262626" stroke-width="0.99" stroke-linecap="round" stroke-linejoin="round"/>
<path d="M330.355 35.7143L346.217 23.8203L352.412 40.5674L335.137 73.6213L330.355 35.7143Z" fill="#7099ED" stroke="#262626" stroke-width="0.99" stroke-linecap="round" stroke-linejoin="round"/>
<path d="M357.481 96.3875V45.7995L344.032 37.0957L333.223 71.5549L338.326 100.557L357.481 96.3875Z" fill="#262626" stroke="#262626" stroke-width="0.99" stroke-linecap="round" stroke-linejoin="round"/>
<path d="M400.714 107.214L365.768 16.8685C365.054 14.976 363.72 13.3833 361.989 12.348L356.802 9.25154C355.426 8.43175 353.854 7.99609 352.253 7.99609H348.918L394.607 114.124L400.714 107.214Z" fill="#7099ED" stroke="#262626" stroke-width="0.99" stroke-linecap="round" stroke-linejoin="round"/>
<path d="M360.73 95.6663L338.455 16.5591C338.058 15.1444 338.613 13.636 339.826 12.8162L345.275 9.13415C347.454 7.66322 350.295 7.61169 352.525 9.00299L360.609 14.0482C361.845 14.8211 362.797 15.9782 363.319 17.3414L397.257 106.431L380.048 120.775L361.36 114.793L360.73 95.6616V95.6663Z" fill="#7099ED" stroke="#262626" stroke-width="0.99" stroke-linecap="round" stroke-linejoin="round"/>
<path d="M281.356 11.0273L230.68 11.7207L218.621 69.4103V114.41H272.451L281.356 11.0273Z" fill="#7099ED" stroke="#262626" stroke-width="0.99" stroke-linecap="round" stroke-linejoin="round"/>
<path d="M255.263 103.672H265.918C267.457 103.672 268.703 102.421 268.703 100.875V77.1999L276.82 16.9525C277.016 15.491 275.887 14.1934 274.418 14.1934H234.854C233.711 14.1934 232.726 14.9944 232.484 16.114L221.008 69.4096" fill="#262626"/>
<path d="M255.263 103.672H265.918C267.457 103.672 268.703 102.421 268.703 100.875V77.1999L276.82 16.9525C277.016 15.491 275.887 14.1934 274.418 14.1934H234.854C233.711 14.1934 232.726 14.9944 232.484 16.114L221.008 69.4096" stroke="#262626" stroke-width="0.99" stroke-linecap="round" stroke-linejoin="round"/>
<path d="M342.669 93.6339L318.527 99.8362V11.7207H332.634" fill="#7099ED"/>
<path d="M342.669 93.6339L318.527 99.8362V11.7207H332.634" stroke="#262626" stroke-width="0.99" stroke-linecap="round" stroke-linejoin="round"/>
<path d="M319.878 110.686V11.7207H280.818L272.453 77.1398V118.096L312.684 111.749L319.878 110.686Z" fill="#7099ED" stroke="#262626" stroke-width="0.99" stroke-linecap="round" stroke-linejoin="round"/>
<path d="M286.099 15.243H312.928C314.654 15.243 316.053 16.6483 316.053 18.3816V89.0098C316.053 89.9421 315.638 90.8274 314.925 91.4224L295.882 107.326C295.322 107.795 294.613 108.052 293.885 108.052H283.426C281.919 108.052 280.623 106.97 280.352 105.481L275.496 78.9101C275.44 78.5915 275.43 78.2683 275.468 77.9497L282.997 17.9834C283.193 16.4141 284.523 15.2383 286.099 15.2383V15.243Z" fill="#262626" stroke="#262626" stroke-width="0.99" stroke-linecap="round" stroke-linejoin="round"/>
<path d="M339.039 122.5H218.621V162.079H339.039V122.5Z" fill="#262626" stroke="#262626" stroke-width="0.99" stroke-linecap="round" stroke-linejoin="round"/>
<path d="M206.258 79.9883L170.617 83.6657V61.2644C170.617 59.5498 169.316 58.1211 167.613 57.9665C167.23 57.9337 166.857 57.9665 166.507 58.0602C166.339 58.018 166.167 57.9852 165.989 57.9665C164.268 57.8119 162.738 59.0158 162.449 60.7069L106.226 88.5001C105.162 89.0247 104.532 90.1022 104.528 91.2311L104.546 91.2874L99.4987 93.639H99.2188C98.6917 93.3767 98.0992 93.2267 97.4694 93.2267C96.6484 93.2267 95.8833 93.4797 95.2489 93.9107L94.1853 93.8638C93.0423 93.8123 92.0347 94.6227 91.8434 95.7564L89.5296 109.266L88.9278 109.121C88.1814 108.939 87.4303 108.892 86.7026 108.953V108.92C84.3654 108.732 80.2881 110.142 79.0472 113.44L54.5465 178.691C53.3616 181.844 54.8544 185.38 57.938 186.715L70.8508 192.313C71.3173 192.515 81.0532 191.873 81.8976 188.261L89.8188 154.308L100.362 145.731L100.53 142.363C100.432 144.302 101.757 146.026 103.651 146.424L115.295 148.869L189.786 95.5643L208.236 89.7883C210.302 89.1419 211.711 87.2165 211.711 85.0429V84.9399C211.711 81.9933 209.173 79.6932 206.258 79.9977V79.9883ZM148.01 85.7831C146.056 85.7831 144.129 86.2609 142.398 87.1744L109.822 104.371C108.078 105.294 106.58 106.629 105.47 108.269L102.009 112.489L102.792 96.6792C102.806 96.3513 102.769 96.0328 102.685 95.7376L105.633 94.1309C106.524 95.1287 108.017 95.4613 109.286 94.8101L161.656 67.8836L159.818 84.7853L150.133 85.7831H148.015H148.01Z" fill="#262626"/>
<path d="M217.766 109.614L103.258 142.686L106.02 105.777C106.206 103.29 107.792 101.125 110.101 100.207L159.024 80.8087L175.514 74.2691L183.384 71.1493C186.356 69.9875 189.514 69.3926 192.7 69.3926H228.015C230.137 69.3926 231.859 71.1071 231.877 73.2386C231.961 82.9308 231.84 109.08 231.84 109.08" fill="white"/>
<path d="M217.766 109.614L103.258 142.686L106.02 105.777C106.206 103.29 107.792 101.125 110.101 100.207L159.024 80.8087L175.514 74.2691L183.384 71.1493C186.356 69.9875 189.514 69.3926 192.7 69.3926H228.015C230.137 69.3926 231.859 71.1071 231.877 73.2386C231.961 82.9308 231.84 109.08 231.84 109.08" stroke="#262626" stroke-width="0.99" stroke-linecap="round" stroke-linejoin="round"/>
<path d="M255.094 109.613L140.586 142.686L143.656 101.71L196.361 80.8126L212.852 74.2731L220.722 71.1532C223.693 69.9914 226.852 69.3965 230.038 69.3965H251.273C253.396 69.3965 255.117 71.111 255.136 73.2425C255.22 82.9347 255.098 109.084 255.098 109.084" fill="white"/>
<path d="M255.094 109.613L140.586 142.686L143.656 101.71L196.361 80.8126L212.852 74.2731L220.722 71.1532C223.693 69.9914 226.852 69.3965 230.038 69.3965H251.273C253.396 69.3965 255.117 71.111 255.136 73.2425C255.22 82.9347 255.098 109.084 255.098 109.084" stroke="#262626" stroke-width="0.99" stroke-linecap="round" stroke-linejoin="round"/>
<path d="M192.36 85.7812L141.73 132.673L142.141 115.045L147.706 108.267C148.817 106.632 150.314 105.292 152.059 104.369L184.635 87.1725C186.365 86.2591 188.292 85.7812 190.247 85.7812H192.365" fill="#7099ED"/>
<path d="M192.36 85.7812L141.73 132.673L142.141 115.045L147.706 108.267C148.817 106.632 150.314 105.292 152.059 104.369L184.635 87.1725C186.365 86.2591 188.292 85.7812 190.247 85.7812H192.365" stroke="#262626" stroke-width="0.99" stroke-linecap="round" stroke-linejoin="round"/>
<path d="M143.752 122.359L151.654 111.523C152.578 110.259 153.726 109.172 155.037 108.324L186.726 87.7729C188.424 86.672 190.351 85.9928 192.361 85.782L248.491 79.9873C251.411 79.6874 253.944 81.9875 253.944 84.9294V85.0325C253.944 87.2061 252.536 89.1314 250.469 89.7779L232.019 95.5539L157.528 148.859L145.884 146.414C143.99 146.015 142.665 144.291 142.763 142.352L143.757 122.354L143.752 122.359Z" fill="#7099ED" stroke="#262626" stroke-width="0.99" stroke-linecap="round" stroke-linejoin="round"/>
<path d="M106.911 122.5L107.947 107.786C108.091 105.739 109.757 104.141 111.795 104.08L139.011 103.326L136.618 128.66L106.906 122.5H106.911Z" fill="#262626" stroke="#262626" stroke-width="0.99" stroke-linecap="round" stroke-linejoin="round"/>
<path d="M131.577 110.315L134.073 95.7464C134.269 94.6128 135.272 93.8024 136.414 93.8539L138.57 93.9523L137.17 115.871L131.465 112.831L131.577 110.315Z" fill="#7099ED" stroke="#262626" stroke-width="0.99" stroke-linecap="round" stroke-linejoin="round"/>
<path d="M125.756 154.101L136.672 146.011L141.314 97.1235C141.472 95.4745 140.217 94.027 138.571 93.9521C137.082 93.8865 135.79 94.9639 135.58 96.4442L133.467 111.439L124.52 154.05L125.756 154.106V154.101Z" fill="#7099ED" stroke="#262626" stroke-width="0.99" stroke-linecap="round" stroke-linejoin="round"/>
<path d="M139.698 101.162C141.883 101.162 143.654 99.3832 143.654 97.1893C143.654 94.9953 141.883 93.2168 139.698 93.2168C137.513 93.2168 135.742 94.9953 135.742 97.1893C135.742 99.3832 137.513 101.162 139.698 101.162Z" fill="white" stroke="#262626" stroke-width="0.99" stroke-linecap="round" stroke-linejoin="round"/>
<path d="M274.48 141.262H243.047V167.392H274.48V141.262Z" fill="white" stroke="#262626" stroke-width="0.99" stroke-linecap="round" stroke-linejoin="round"/>
<path d="M375.366 99.9351L363.064 101.912L353.552 120.074C353.552 120.074 319.386 107.702 319.88 107.215C320.375 106.728 336.982 98.0801 336.982 98.0801H373.402L375.371 99.9351H375.366Z" fill="#262626" stroke="#262626" stroke-width="0.99" stroke-linecap="round" stroke-linejoin="round"/>
<path d="M288.878 133.822H253.941V138.975H288.878V133.822Z" fill="white" stroke="#262626" stroke-width="0.99" stroke-linecap="round" stroke-linejoin="round"/>
<path d="M272.624 109.078H237.688V122.391H272.624V109.078Z" fill="white" stroke="#262626" stroke-width="0.99" stroke-linecap="round" stroke-linejoin="round"/>
<path d="M319.875 11.7207H332.634L342.668 93.6339" stroke="#262626" stroke-width="0.99" stroke-linecap="round" stroke-linejoin="round"/>
<path d="M323.175 15.243H329.268C330.028 15.243 330.667 15.8098 330.76 16.5687L339.032 83.2667C339.148 84.2176 338.369 85.0374 337.417 84.9578L324.556 83.9178C323.786 83.8569 323.189 83.2198 323.17 82.4469L321.668 16.7842C321.65 15.9363 322.326 15.2383 323.17 15.2383L323.175 15.243Z" fill="#262626" stroke="#262626" stroke-width="0.99" stroke-linecap="round" stroke-linejoin="round"/>
<path d="M119.042 120.33H84.5161L1.89844 139.911L44.1636 157.117L117.059 132.191L119.042 120.33Z" fill="#7099ED" stroke="#262626" stroke-width="0.99" stroke-linecap="round" stroke-linejoin="round"/>
<path d="M103.955 193.554L59.2363 193.751C55.2104 193.77 51.3524 192.116 48.5814 189.188L1.89844 139.912H53.8808L103.955 193.554Z" fill="#262626" stroke="#262626" stroke-width="0.99" stroke-linecap="round" stroke-linejoin="round"/>
<path d="M147.864 94.13L146.754 91.2303C146.754 90.1013 147.388 89.0286 148.452 88.4992L205.323 60.3828L204.26 67.686L151.512 94.8046C150.243 95.4557 148.755 95.1278 147.86 94.1253" fill="#7099ED"/>
<path d="M147.864 94.13L146.754 91.2303C146.754 90.1013 147.388 89.0286 148.452 88.4992L205.323 60.3828L204.26 67.686L151.512 94.8046C150.243 95.4557 148.755 95.1278 147.86 94.1253" stroke="#262626" stroke-width="0.99" stroke-linecap="round" stroke-linejoin="round"/>
<path d="M144.917 95.7331L148.663 93.6953C149.348 93.3205 149.6 92.4539 149.218 91.77L149.134 91.6154C148.775 90.9736 147.986 90.7207 147.324 91.0298L141.73 93.6344L143.75 96.4123L144.917 95.7331Z" fill="white" stroke="#262626" stroke-width="0.99" stroke-linecap="round" stroke-linejoin="round"/>
<path d="M109.033 191.686C106.336 194.332 101.984 194.178 99.4788 191.348L53.8828 139.912L121.428 121.535L109.854 190.107C109.751 190.707 109.467 191.259 109.033 191.686Z" fill="#7099ED" stroke="#262626" stroke-width="0.99" stroke-linecap="round" stroke-linejoin="round"/>
<path d="M135.887 110.298L137.725 95.6304C137.869 94.4873 138.835 93.6348 139.978 93.6348H142.133L141.723 115.596L135.887 112.818V110.302V110.298Z" fill="#7099ED" stroke="#262626" stroke-width="0.99" stroke-linecap="round" stroke-linejoin="round"/>
<path d="M132.049 154.304L142.592 145.726L145.022 96.6797C145.106 95.0214 143.791 93.6348 142.139 93.6348C140.651 93.6348 139.405 94.7684 139.266 96.2581L137.829 111.333L130.812 154.304H132.049Z" fill="#7099ED" stroke="#262626" stroke-width="0.99" stroke-linecap="round" stroke-linejoin="round"/>
<path d="M336.281 0.234375H227.423C225.895 0.234375 224.656 1.47809 224.656 3.01229V8.94755C224.656 10.4818 225.895 11.7255 227.423 11.7255H336.281C337.809 11.7255 339.047 10.4818 339.047 8.94755V3.01229C339.047 1.47809 337.809 0.234375 336.281 0.234375Z" fill="white" stroke="#262626" stroke-width="0.99" stroke-linecap="round" stroke-linejoin="round"/>
<path d="M245.354 2.21094H238.175C237.528 2.21094 237.004 2.73737 237.004 3.38675V8.57249C237.004 9.22188 237.528 9.7483 238.175 9.7483H245.354C246.001 9.7483 246.525 9.22188 246.525 8.57249V3.38675C246.525 2.73737 246.001 2.21094 245.354 2.21094Z" fill="white" stroke="#262626" stroke-width="0.99" stroke-linecap="round" stroke-linejoin="round"/>
<path d="M256.378 2.21094H249.198C248.552 2.21094 248.027 2.73737 248.027 3.38675V8.57249C248.027 9.22188 248.552 9.7483 249.198 9.7483H256.378C257.024 9.7483 257.549 9.22188 257.549 8.57249V3.38675C257.549 2.73737 257.024 2.21094 256.378 2.21094Z" fill="white" stroke="#262626" stroke-width="0.99" stroke-linecap="round" stroke-linejoin="round"/>
<path d="M267.405 2.21094H260.226C259.579 2.21094 259.055 2.73737 259.055 3.38675V8.57249C259.055 9.22188 259.579 9.7483 260.226 9.7483H267.405C268.052 9.7483 268.576 9.22188 268.576 8.57249V3.38675C268.576 2.73737 268.052 2.21094 267.405 2.21094Z" fill="white" stroke="#262626" stroke-width="0.99" stroke-linecap="round" stroke-linejoin="round"/>
<path d="M230.651 9.12956C232.078 9.12956 233.235 7.71806 233.235 5.97689C233.235 4.23572 232.078 2.82422 230.651 2.82422C229.223 2.82422 228.066 4.23572 228.066 5.97689C228.066 7.71806 229.223 9.12956 230.651 9.12956Z" fill="white" stroke="#262626" stroke-width="0.99" stroke-linecap="round" stroke-linejoin="round"/>
<path d="M275.444 9.12956C276.871 9.12956 278.028 7.71806 278.028 5.97689C278.028 4.23572 276.871 2.82422 275.444 2.82422C274.016 2.82422 272.859 4.23572 272.859 5.97689C272.859 7.71806 274.016 9.12956 275.444 9.12956Z" fill="white" stroke="#262626" stroke-width="0.99" stroke-linecap="round" stroke-linejoin="round"/>
<path d="M387.024 115.755L386.632 112.911L380.157 109.08V97.2418C380.157 95.888 378.958 94.7918 377.479 94.7965C371.569 94.8199 357.928 94.8621 357.9 94.7871H342.664V118.102H387.215L387.019 115.76L387.024 115.755Z" fill="#262626" stroke="#262626" stroke-width="0.99" stroke-linecap="round" stroke-linejoin="round"/>
<path d="M40.4486 132.75H37.0664L52.2604 151.282H56.4449L40.4486 132.75Z" fill="#262626" stroke="#262626" stroke-width="0.99" stroke-linecap="round" stroke-linejoin="round"/>
<path d="M24.7852 132.75L39.9791 151.282H44.1637L28.1673 132.75H24.7852Z" fill="#262626" stroke="#262626" stroke-width="0.99" stroke-linecap="round" stroke-linejoin="round"/>
<path d="M12.5078 132.75L27.7018 151.282H31.8863L15.8946 132.75H12.5078Z" fill="#262626" stroke="#262626" stroke-width="0.99" stroke-linecap="round" stroke-linejoin="round"/>
<path d="M0.234375 132.75L15.4284 151.282H19.6082L3.61652 132.75H0.234375Z" fill="#262626" stroke="#262626" stroke-width="0.99" stroke-linecap="round" stroke-linejoin="round"/>
<path d="M40.4492 132.75L46.635 139.913H50.2318L40.4492 132.75Z" fill="#7099ED" stroke="#262626" stroke-width="0.99" stroke-linecap="round" stroke-linejoin="round"/>
<path d="M34.3538 139.913H37.9505L28.168 132.75L34.3538 139.913Z" fill="#7099ED" stroke="#262626" stroke-width="0.99" stroke-linecap="round" stroke-linejoin="round"/>
<path d="M22.0757 139.913H25.6724L15.8945 132.75L22.0757 139.913Z" fill="#7099ED" stroke="#262626" stroke-width="0.99" stroke-linecap="round" stroke-linejoin="round"/>
<path d="M9.80301 139.913H13.3997L3.61719 132.75L9.80301 139.913Z" fill="#7099ED" stroke="#262626" stroke-width="0.99" stroke-linecap="round" stroke-linejoin="round"/>
<path d="M270.797 61.6489L231.321 21.5215L228.121 36.376C228.112 36.4229 268.702 78.8083 268.702 78.8083V77.2015L270.797 61.6489Z" fill="white" stroke="#262626" stroke-width="0.99" stroke-linecap="round" stroke-linejoin="round"/>
<path d="M237.004 14.1941C237.76 14.1941 272.859 46.5219 272.859 46.5219L273.708 40.0385L246.525 14.1895H237.004V14.1941Z" fill="white" stroke="#262626" stroke-width="0.99" stroke-linecap="round" stroke-linejoin="round"/>
<path d="M316.051 48.4141L275.941 74.1507L275.465 77.9545L277.378 89.2348L316.051 64.599V48.4141Z" fill="white" stroke="#262626" stroke-width="0.99" stroke-linecap="round" stroke-linejoin="round"/>
<path d="M250.382 87.7603C251.505 87.7603 252.416 86.4411 252.416 84.8137C252.416 83.1864 251.505 81.8672 250.382 81.8672C249.258 81.8672 248.348 83.1864 248.348 84.8137C248.348 86.4411 249.258 87.7603 250.382 87.7603Z" stroke="#262626" stroke-width="0.99" stroke-linecap="round" stroke-linejoin="round"/>
<path d="M128.933 108.915C126.596 108.727 122.519 110.138 121.278 113.435L96.777 178.686C95.5921 181.839 97.0849 185.375 100.168 186.71L113.081 192.308C113.548 192.51 114.042 192.636 114.546 192.688L116.142 192.842L129.432 123.966L128.942 108.91L128.933 108.915Z" fill="#7099ED" stroke="#262626" stroke-width="0.99" stroke-linecap="round" stroke-linejoin="round"/>
<path d="M131.159 109.111L135.269 110.113C138.982 111.018 141.273 114.76 140.4 118.494L124.124 188.256C123.228 192.088 119.104 194.172 115.508 192.612L101.895 186.71C98.8114 185.375 97.3186 181.838 98.5036 178.685L123.004 113.435C124.245 110.132 127.739 108.277 131.154 109.111H131.159Z" fill="#7099ED" stroke="#262626" stroke-width="0.99" stroke-linecap="round" stroke-linejoin="round"/>
<path d="M136.622 119.393C137.539 119.393 138.282 118.024 138.282 116.334C138.282 114.645 137.539 113.275 136.622 113.275C135.704 113.275 134.961 114.645 134.961 116.334C134.961 118.024 135.704 119.393 136.622 119.393Z" stroke="#262626" stroke-width="0.99" stroke-linecap="round" stroke-linejoin="round"/>
<path d="M200.029 103.327L200.514 98.8903L201.088 93.6343L204.657 60.8662C204.872 59.0908 206.448 57.8072 208.226 57.9665C209.924 58.1211 211.23 59.5498 211.23 61.2644V108.643H199.441L200.039 103.327H200.029Z" fill="#7099ED" stroke="#262626" stroke-width="0.99" stroke-linecap="round" stroke-linejoin="round"/>
<path d="M201.658 103.327L202.143 98.8903L202.717 93.6343L206.286 60.8662C206.5 59.0908 208.077 57.8072 209.855 57.9665C211.553 58.1211 212.859 59.5498 212.859 61.2644V108.643H201.07L201.667 103.327H201.658Z" fill="#7099ED" stroke="#262626" stroke-width="0.99" stroke-linecap="round" stroke-linejoin="round"/>
<path d="M209.945 64.5994C210.662 64.5994 211.242 63.5759 211.242 62.3134C211.242 61.0508 210.662 60.0273 209.945 60.0273C209.229 60.0273 208.648 61.0508 208.648 62.3134C208.648 63.5759 209.229 64.5994 209.945 64.5994Z" stroke="#262626" stroke-width="0.99" stroke-linecap="round" stroke-linejoin="round"/>
<path d="M196.949 97.8359C199.571 98.3184 203.308 99.1335 207.674 100.553C210.305 101.41 221.058 105.064 233.08 113.96C236.714 116.649 241.444 120.542 246.431 125.882C251.763 125.966 257.095 126.046 262.428 126.13L263.043 123.352C262.124 121.451 260.781 119.01 258.859 116.373C255.92 112.334 253.056 109.805 251.661 108.587C243.59 101.541 234.199 98.3606 232.221 97.7141C219.281 93.4934 207.879 94.9269 202.015 96.1074C200.327 96.6836 198.638 97.2598 196.949 97.8359Z" fill="#262626" stroke="#262626" stroke-width="0.99" stroke-linecap="round" stroke-linejoin="round"/>
<path d="M344.243 96.0222L343.875 93.8205C339.144 93.0288 326.054 91.5016 312.316 98.6408C304.693 102.599 299.618 107.804 296.585 111.561C295.895 112.413 294.864 112.915 293.772 112.915H281.914C280.831 112.915 279.805 112.427 279.119 111.589L278.154 110.408C277.468 109.57 276.442 109.083 275.359 109.083H272.453V122.504H307.907C307.907 122.504 329.306 104.253 329.021 103.33C328.737 102.407 344.243 96.0269 344.243 96.0269V96.0222Z" fill="white" stroke="#262626" stroke-width="0.99" stroke-linecap="round" stroke-linejoin="round"/>
<path d="M282.423 0.234375H227.423C225.895 0.234375 224.656 1.47809 224.656 3.01229V8.94755C224.656 10.4818 225.895 11.7255 227.423 11.7255H282.423C283.951 11.7255 285.19 10.4818 285.19 8.94755V3.01229C285.19 1.47809 283.951 0.234375 282.423 0.234375Z" stroke="#262626" stroke-width="0.99" stroke-linecap="round" stroke-linejoin="round"/>
<path d="M295.954 8.56836H291.77C288.678 8.56836 286.172 11.0851 286.172 14.1898V34.9468C286.172 38.0514 288.678 40.5682 291.77 40.5682H295.954C299.046 40.5682 301.552 38.0514 301.552 34.9468V14.1898C301.552 11.0851 299.046 8.56836 295.954 8.56836Z" fill="#7099ED" stroke="#262626" stroke-width="0.99" stroke-linecap="round" stroke-linejoin="round"/>
<path d="M292.634 8.56836H288.45C285.358 8.56836 282.852 11.0851 282.852 14.1898V34.9468C282.852 38.0514 285.358 40.5682 288.45 40.5682H292.634C295.726 40.5682 298.232 38.0514 298.232 34.9468V14.1898C298.232 11.0851 295.726 8.56836 292.634 8.56836Z" fill="#7099ED" stroke="#262626" stroke-width="0.99" stroke-linecap="round" stroke-linejoin="round"/>
<path d="M261.704 163.794C261.82 162.229 261.881 160.646 261.881 159.048C261.881 157.451 261.82 155.868 261.704 154.303L259.329 153.886C259.147 151.764 258.858 149.675 258.461 147.632L260.612 146.4C259.977 143.285 259.11 140.268 258.037 137.378L255.658 137.813C254.911 135.874 254.062 133.991 253.125 132.173L254.832 130.248C253.386 127.531 251.739 124.964 249.92 122.575L247.778 123.826C246.547 122.252 245.231 120.757 243.841 119.357L244.942 116.921C242.843 114.855 240.58 112.986 238.192 111.341L236.494 113.281C234.898 112.213 233.242 111.252 231.53 110.4L231.917 107.701C229.375 106.479 226.72 105.495 223.977 104.769L222.891 107.214C221.094 106.765 219.256 106.432 217.39 106.231L217.022 103.532C215.646 103.401 214.251 103.326 212.847 103.326C211.443 103.326 210.048 103.401 208.672 103.532L208.49 104.858C205.91 104.151 203.265 103.682 200.573 103.462L199.747 104.671L199.766 103.673L193.533 103.481V103.471C193.533 103.471 193.496 103.471 193.478 103.476H193.3L193.034 103.523C191.821 103.635 190.604 103.79 189.377 104.01C187.987 104.258 186.62 104.577 185.281 104.952V107.683C185.127 107.73 184.969 107.781 184.81 107.833L185.09 107.678L178.624 107.477H178.615L178.573 107.416C175.965 108.615 173.479 110.058 171.132 111.716L171.883 114.316C170.913 115.023 169.97 115.768 169.056 116.551L165.455 116.438L165.436 116.424L165.422 116.438H165.399L165.259 116.602C163.192 118.602 161.275 120.785 159.535 123.132L160.958 125.343C159.955 126.73 159.012 128.177 158.14 129.672L155.434 129.588L155.425 129.611L155.397 129.602C153.923 132.281 152.654 135.111 151.595 138.052L153.545 139.65C152.868 141.608 152.29 143.618 151.819 145.669L149.412 145.66C148.745 148.705 148.306 151.839 148.105 155.029L150.396 155.868C150.289 157.952 150.284 160.065 150.401 162.196L148.11 163.03C148.213 164.595 148.367 166.169 148.586 167.747C148.805 169.326 149.085 170.877 149.416 172.404H151.819C152.285 174.465 152.859 176.47 153.531 178.414L151.576 180.016C152.635 182.981 153.904 185.806 155.364 188.472L155.392 188.462H158.14C159.008 189.943 159.936 191.376 160.92 192.739L159.502 194.941C161.303 197.372 163.281 199.616 165.408 201.649L165.487 201.743H169.275C170.115 202.446 170.969 203.12 171.846 203.757L171.095 206.352C173.455 208.025 175.942 209.472 178.531 210.672L178.554 210.639L185.234 210.625L185.225 213.159C187.907 213.913 190.665 214.415 193.473 214.644V214.635H199.864V213.29C200.424 213.464 201.128 213.187 201.697 213.337L202.78 210.892C204.58 211.341 206.414 211.674 208.284 211.876L208.471 213.234L208.653 214.574C210.029 214.705 211.419 214.775 212.828 214.775C214.237 214.775 215.627 214.705 217.003 214.574L217.372 211.876C219.238 211.674 221.076 211.341 222.872 210.892L223.959 213.337C226.702 212.611 229.356 211.627 231.899 210.405L231.511 207.706C233.224 206.854 234.88 205.893 236.475 204.825L238.173 206.765C240.562 205.12 242.824 203.251 244.923 201.185L243.822 198.75C245.213 197.349 246.528 195.854 247.76 194.281L249.901 195.531C251.72 193.142 253.367 190.575 254.813 187.858L253.106 185.928C254.044 184.115 254.893 182.232 255.639 180.293L258.018 180.728C259.091 177.838 259.959 174.821 260.593 171.706L258.443 170.474C258.839 168.431 259.128 166.342 259.31 164.22L261.685 163.803L261.704 163.794Z" fill="#7099ED" stroke="#262626" stroke-width="0.99" stroke-linecap="round" stroke-linejoin="round"/>
<path d="M216.719 198.713C236.083 198.713 251.781 180.957 251.781 159.054C251.781 137.15 236.083 119.395 216.719 119.395C197.354 119.395 181.656 137.15 181.656 159.054C181.656 180.957 197.354 198.713 216.719 198.713Z" stroke="#262626" stroke-width="0.99" stroke-linecap="round" stroke-linejoin="round"/>
<path d="M217.44 190.739C232.981 190.739 245.58 176.492 245.58 158.918C245.58 141.343 232.981 127.096 217.44 127.096C201.899 127.096 189.301 141.343 189.301 158.918C189.301 176.492 201.899 190.739 217.44 190.739Z" fill="#FF8B63" stroke="#262626" stroke-width="0.99" stroke-linecap="round" stroke-linejoin="round"/>
<path d="M215.886 189.259C229.901 189.259 241.263 175.693 241.263 158.96C241.263 142.226 229.901 128.66 215.886 128.66C201.87 128.66 190.508 142.226 190.508 158.96C190.508 175.693 201.87 189.259 215.886 189.259Z" stroke="#262626" stroke-width="0.99" stroke-linecap="round" stroke-linejoin="round"/>
<path d="M209.896 184.81C220.591 184.81 229.26 173.568 229.26 159.701C229.26 145.833 220.591 134.592 209.896 134.592C199.201 134.592 190.531 145.833 190.531 159.701C190.531 173.568 199.201 184.81 209.896 184.81Z" stroke="#262626" stroke-width="0.99" stroke-linecap="round" stroke-linejoin="round"/>
<path d="M213.262 148.859H205.108C200.601 148.859 196.953 153.67 196.953 159.61C196.953 165.55 200.606 170.361 205.108 170.361H213.262C217.768 170.361 221.417 165.55 221.417 159.61C221.417 153.67 217.764 148.859 213.262 148.859Z" fill="#7099ED" stroke="#262626" stroke-width="0.99" stroke-linecap="round" stroke-linejoin="round"/>
<path d="M214.35 168.737C218.073 168.737 221.091 164.652 221.091 159.612C221.091 154.572 218.073 150.486 214.35 150.486C210.627 150.486 207.609 154.572 207.609 159.612C207.609 164.652 210.627 168.737 214.35 168.737Z" stroke="#262626" stroke-width="0.99" stroke-linecap="round" stroke-linejoin="round"/>
<path d="M259.33 164.211C259.148 166.333 258.858 168.422 258.462 170.464L260.613 171.697C259.978 174.812 259.11 177.829 258.037 180.719L255.658 180.283C254.912 182.223 254.063 184.106 253.125 185.919L254.833 187.849C253.386 190.566 251.74 193.133 249.92 195.522L247.779 194.271C246.548 195.845 245.232 197.339 243.842 198.74L244.943 201.176C242.843 203.242 240.581 205.111 238.192 206.755L236.494 204.816C234.899 205.884 233.243 206.844 231.531 207.697L231.918 210.395C229.376 211.618 226.721 212.602 223.978 213.328L222.891 210.882C221.095 211.332 219.257 211.665 217.391 211.866L217.023 214.564C215.646 214.696 214.252 214.766 212.847 214.766C211.443 214.766 210.048 214.696 208.672 214.564L208.49 213.225L208.304 211.866C206.433 211.665 204.6 211.332 202.799 210.882L201.717 213.328C201.147 213.178 200.588 213.019 200.028 212.845C199.295 212.62 198.572 212.377 197.859 212.114C196.468 211.608 195.106 211.037 193.772 210.395L194.159 207.697C192.447 206.844 190.791 205.884 189.196 204.816L187.502 206.755C185.109 205.111 182.851 203.242 180.747 201.176L181.848 198.74C180.463 197.339 179.147 195.845 177.916 194.271L175.774 195.522C173.95 193.133 172.308 190.566 170.857 187.849L172.565 185.919C171.627 184.106 170.783 182.223 170.032 180.283L167.657 180.719C166.58 177.829 165.717 174.812 165.077 171.697L167.228 170.464C166.836 168.422 166.542 166.333 166.36 164.211L163.986 163.794C163.874 162.229 163.809 160.646 163.809 159.048C163.809 157.451 163.874 155.868 163.986 154.303L166.36 153.886C166.542 151.764 166.836 149.675 167.228 147.632L165.077 146.4C165.717 143.285 166.58 140.268 167.657 137.378L170.032 137.813C170.783 135.874 171.627 133.991 172.565 132.173L170.857 130.248C172.308 127.531 173.95 124.964 175.774 122.575L177.916 123.826C179.147 122.252 180.463 120.757 181.848 119.357L180.747 116.921C182.851 114.855 185.109 112.986 187.502 111.341L189.196 113.281C190.791 112.213 192.447 111.252 194.159 110.4L193.772 107.701C195.106 107.06 196.468 106.484 197.863 105.982C198.591 105.715 199.323 105.467 200.07 105.242C200.616 105.073 201.161 104.914 201.717 104.769L202.799 107.214C204.6 106.765 206.433 106.432 208.304 106.231L208.49 104.858L208.672 103.532C210.048 103.401 211.439 103.326 212.847 103.326C214.256 103.326 215.646 103.401 217.023 103.532L217.391 106.231C219.257 106.432 221.095 106.765 222.891 107.214L223.978 104.769C226.721 105.495 229.376 106.479 231.918 107.701L231.531 110.4C233.243 111.252 234.899 112.213 236.494 113.281L238.192 111.341C240.581 112.986 242.843 114.855 244.943 116.921L243.842 119.357C245.232 120.757 246.548 122.252 247.779 123.826L249.92 122.575C251.74 124.964 253.386 127.531 254.833 130.248L253.125 132.173C254.063 133.991 254.912 135.874 255.658 137.813L258.037 137.378C259.11 140.268 259.978 143.285 260.613 146.4L258.462 147.632C258.858 149.675 259.148 151.764 259.33 153.886L261.704 154.303C261.821 155.868 261.881 157.451 261.881 159.048C261.881 160.646 261.821 162.229 261.704 163.794L259.33 164.211Z" stroke="#262626" stroke-width="0.99" stroke-linecap="round" stroke-linejoin="round"/>
<path d="M208.49 213.225C207.244 213.567 205.975 213.857 204.683 214.087C203.293 214.335 201.907 214.513 200.531 214.626L200.148 213.333H201.716L202.798 210.883C204.599 211.333 206.432 211.665 208.303 211.867L208.49 213.225Z" fill="#7099ED" stroke="#262626" stroke-width="0.99" stroke-linecap="round" stroke-linejoin="round"/>
<path d="M199.883 214.627V213.334" stroke="#262626" stroke-width="0.99" stroke-linecap="round" stroke-linejoin="round"/>
<path d="M208.492 104.859L208.306 106.231C206.435 106.433 204.602 106.765 202.801 107.215L201.686 104.69L199.75 104.671L200.576 103.463C203.267 103.683 205.913 104.152 208.492 104.859Z" stroke="#262626" stroke-width="0.99" stroke-linecap="round" stroke-linejoin="round"/>
<path d="M199.773 103.674V104.695" stroke="#262626" stroke-width="0.99" stroke-linecap="round" stroke-linejoin="round"/>
<path d="M163.984 154.305H157.523V163.594L163.984 163.795" stroke="#262626" stroke-width="0.99" stroke-linecap="round" stroke-linejoin="round"/>
<path d="M148.398 154.978H154.864L155.998 145.928L149.537 145.727" stroke="#262626" stroke-width="0.99" stroke-linecap="round" stroke-linejoin="round"/>
<path d="M149.664 172.396H156.13L154.754 163.35L148.293 163.148" stroke="#262626" stroke-width="0.99" stroke-linecap="round" stroke-linejoin="round"/>
<path d="M155.402 188.458H161.863L158.168 180.391L151.707 180.189" stroke="#262626" stroke-width="0.99" stroke-linecap="round" stroke-linejoin="round"/>
<path d="M165.507 201.739H171.973L166.309 195.082L159.844 194.881" stroke="#262626" stroke-width="0.99" stroke-linecap="round" stroke-linejoin="round"/>
<path d="M178.562 210.634H185.028L177.872 206.676L171.406 206.475" stroke="#262626" stroke-width="0.99" stroke-linecap="round" stroke-linejoin="round"/>
<path d="M193.422 214.627H199.883L192.083 213.287L185.617 213.086" stroke="#262626" stroke-width="0.99" stroke-linecap="round" stroke-linejoin="round"/>
<path d="M151.68 138.068H158.141L161.91 129.785L155.444 129.584" stroke="#262626" stroke-width="0.99" stroke-linecap="round" stroke-linejoin="round"/>
<path d="M159.66 123.193H166.121L171.873 116.635L165.407 116.434" stroke="#262626" stroke-width="0.99" stroke-linecap="round" stroke-linejoin="round"/>
<path d="M171.316 111.75H177.782L185.102 107.674L178.636 107.473" stroke="#262626" stroke-width="0.99" stroke-linecap="round" stroke-linejoin="round"/>
<path d="M185.574 104.986H192.035L199.77 103.674L193.304 103.473" stroke="#262626" stroke-width="0.99" stroke-linecap="round" stroke-linejoin="round"/>
<path d="M165.152 171.607H158.691L161.117 180.555L167.583 180.756" stroke="#262626" stroke-width="0.99" stroke-linecap="round" stroke-linejoin="round"/>
<path d="M170.813 187.98H164.352L169.194 195.405L175.66 195.607" stroke="#262626" stroke-width="0.99" stroke-linecap="round" stroke-linejoin="round"/>
<path d="M180.836 201.252H174.375L180.906 206.531L187.372 206.733" stroke="#262626" stroke-width="0.99" stroke-linecap="round" stroke-linejoin="round"/>
<path d="M193.832 210.494H187.371L195.054 213.132L201.52 213.333" stroke="#262626" stroke-width="0.99" stroke-linecap="round" stroke-linejoin="round"/>
<path d="M167.582 137.322H161.116L158.816 146.129L165.277 146.331" stroke="#262626" stroke-width="0.99" stroke-linecap="round" stroke-linejoin="round"/>
<path d="M175.617 122.5H169.151L164.332 129.916L170.798 130.117" stroke="#262626" stroke-width="0.99" stroke-linecap="round" stroke-linejoin="round"/>
<path d="M187.431 111.332H180.966L174.332 116.719L180.793 116.921" stroke="#262626" stroke-width="0.99" stroke-linecap="round" stroke-linejoin="round"/>
<path d="M201.657 104.695H195.192L187.266 107.454L193.727 107.656" stroke="#262626" stroke-width="0.99" stroke-linecap="round" stroke-linejoin="round"/>
<path d="M405.625 163.794C405.742 162.229 405.803 160.646 405.803 159.048C405.803 157.451 405.742 155.868 405.625 154.303L403.251 153.886C403.069 151.764 402.78 149.675 402.383 147.632L404.534 146.4C403.899 143.285 403.032 140.268 401.959 137.378L399.58 137.813C398.833 135.874 397.984 133.991 397.046 132.173L398.754 130.248C397.308 127.531 395.661 124.964 393.842 122.575L391.7 123.826C390.469 122.252 389.153 120.757 387.763 119.357L388.864 116.921C386.765 114.855 384.502 112.986 382.114 111.341L380.416 113.281C378.82 112.213 377.164 111.252 375.452 110.4L375.839 107.701C373.297 106.479 370.642 105.495 367.899 104.769L366.812 107.214C365.016 106.765 363.178 106.432 361.312 106.231L360.944 103.532C359.568 103.401 358.173 103.326 356.769 103.326C355.364 103.326 353.97 103.401 352.593 103.532L352.411 104.858C349.832 104.151 347.187 103.682 344.495 103.462L343.669 104.671L343.688 103.673L337.455 103.481V103.471C337.455 103.471 337.418 103.471 337.399 103.476H337.222L336.956 103.523C335.743 103.635 334.526 103.79 333.299 104.01C331.909 104.258 330.542 104.577 329.203 104.952V107.683C329.049 107.73 328.89 107.781 328.732 107.833L329.012 107.678L322.546 107.477H322.537L322.495 107.416C319.887 108.615 317.4 110.058 315.054 111.716L315.805 114.316C314.835 115.023 313.892 115.768 312.978 116.551L309.377 116.438L309.358 116.424L309.344 116.438H309.321L309.181 116.602C307.114 118.602 305.197 120.785 303.457 123.132L304.879 125.343C303.877 126.73 302.934 128.177 302.062 129.672L299.356 129.588L299.347 129.611L299.319 129.602C297.845 132.281 296.576 135.111 295.517 138.052L297.467 139.65C296.79 141.608 296.212 143.618 295.741 145.669L293.334 145.66C292.666 148.705 292.228 151.839 292.027 155.029L294.318 155.868C294.211 157.952 294.206 160.065 294.323 162.196L292.032 163.03C292.135 164.595 292.289 166.169 292.508 167.747C292.727 169.326 293.007 170.877 293.338 172.404H295.741C296.207 174.465 296.781 176.47 297.453 178.414L295.498 180.016C296.557 182.981 297.826 185.806 299.286 188.472L299.314 188.462H302.062C302.93 189.943 303.858 191.376 304.842 192.739L303.424 194.941C305.225 197.372 307.203 199.616 309.33 201.649L309.409 201.743H313.197C314.037 202.446 314.891 203.12 315.768 203.757L315.017 206.352C317.377 208.025 319.864 209.472 322.453 210.672L322.476 210.639L329.156 210.625L329.147 213.159C331.829 213.913 334.586 214.415 337.395 214.644V214.635H343.786V213.29C344.346 213.464 345.05 213.187 345.619 213.337L346.701 210.892C348.502 211.341 350.336 211.674 352.206 211.876L352.393 213.234L352.575 214.574C353.951 214.705 355.341 214.775 356.75 214.775C358.159 214.775 359.549 214.705 360.925 214.574L361.294 211.876C363.16 211.674 364.998 211.341 366.794 210.892L367.881 213.337C370.624 212.611 373.278 211.627 375.821 210.405L375.433 207.706C377.145 206.854 378.801 205.893 380.397 204.825L382.095 206.765C384.484 205.12 386.746 203.251 388.845 201.185L387.744 198.75C389.135 197.349 390.45 195.854 391.682 194.281L393.823 195.531C395.642 193.142 397.289 190.575 398.735 187.858L397.028 185.928C397.965 184.115 398.814 182.232 399.561 180.293L401.94 180.728C403.013 177.838 403.881 174.821 404.515 171.706L402.365 170.474C402.761 168.431 403.05 166.342 403.232 164.22L405.607 163.803L405.625 163.794Z" fill="#7099ED" stroke="#262626" stroke-width="0.99" stroke-linecap="round" stroke-linejoin="round"/>
<path d="M360.637 198.713C380.001 198.713 395.699 180.957 395.699 159.054C395.699 137.15 380.001 119.395 360.637 119.395C341.272 119.395 325.574 137.15 325.574 159.054C325.574 180.957 341.272 198.713 360.637 198.713Z" stroke="#262626" stroke-width="0.99" stroke-linecap="round" stroke-linejoin="round"/>
<path d="M361.358 190.739C376.899 190.739 389.498 176.492 389.498 158.918C389.498 141.343 376.899 127.096 361.358 127.096C345.817 127.096 333.219 141.343 333.219 158.918C333.219 176.492 345.817 190.739 361.358 190.739Z" fill="#FF8B63" stroke="#262626" stroke-width="0.99" stroke-linecap="round" stroke-linejoin="round"/>
<path d="M359.804 189.259C373.819 189.259 385.181 175.693 385.181 158.96C385.181 142.226 373.819 128.66 359.804 128.66C345.788 128.66 334.426 142.226 334.426 158.96C334.426 175.693 345.788 189.259 359.804 189.259Z" stroke="#262626" stroke-width="0.99" stroke-linecap="round" stroke-linejoin="round"/>
<path d="M353.818 184.81C364.512 184.81 373.182 173.568 373.182 159.701C373.182 145.833 364.512 134.592 353.818 134.592C343.123 134.592 334.453 145.833 334.453 159.701C334.453 173.568 343.123 184.81 353.818 184.81Z" stroke="#262626" stroke-width="0.99" stroke-linecap="round" stroke-linejoin="round"/>
<path d="M357.184 148.859H349.029C344.523 148.859 340.875 153.67 340.875 159.61C340.875 165.55 344.528 170.361 349.029 170.361H357.184C361.69 170.361 365.338 165.55 365.338 159.61C365.338 153.67 361.686 148.859 357.184 148.859Z" fill="#7099ED" stroke="#262626" stroke-width="0.99" stroke-linecap="round" stroke-linejoin="round"/>
<path d="M358.268 168.737C361.991 168.737 365.009 164.652 365.009 159.612C365.009 154.572 361.991 150.486 358.268 150.486C354.545 150.486 351.527 154.572 351.527 159.612C351.527 164.652 354.545 168.737 358.268 168.737Z" stroke="#262626" stroke-width="0.99" stroke-linecap="round" stroke-linejoin="round"/>
<path d="M403.252 164.211C403.07 166.333 402.78 168.422 402.384 170.464L404.534 171.697C403.9 174.812 403.032 177.829 401.959 180.719L399.58 180.283C398.834 182.223 397.985 184.106 397.047 185.919L398.754 187.849C397.308 190.566 395.662 193.133 393.842 195.522L391.701 194.271C390.469 195.845 389.154 197.339 387.764 198.74L388.865 201.176C386.765 203.242 384.503 205.111 382.114 206.755L380.416 204.816C378.821 205.884 377.165 206.844 375.453 207.697L375.84 210.395C373.297 211.618 370.643 212.602 367.9 213.328L366.813 210.882C365.017 211.332 363.179 211.665 361.313 211.866L360.944 214.564C359.568 214.696 358.173 214.766 356.769 214.766C355.365 214.766 353.97 214.696 352.594 214.564L352.412 213.225L352.225 211.866C350.355 211.665 348.521 211.332 346.721 210.882L345.638 213.328C345.069 213.178 344.51 213.019 343.95 212.845C343.217 212.62 342.494 212.377 341.78 212.114C340.39 211.608 339.028 211.037 337.694 210.395L338.081 207.697C336.369 206.844 334.713 205.884 333.118 204.816L331.424 206.755C329.031 205.111 326.773 203.242 324.669 201.176L325.77 198.74C324.385 197.339 323.069 195.845 321.838 194.271L319.696 195.522C317.872 193.133 316.23 190.566 314.779 187.849L316.487 185.919C315.549 184.106 314.705 182.223 313.954 180.283L311.579 180.719C310.501 177.829 309.638 174.812 308.999 171.697L311.15 170.464C310.758 168.422 310.464 166.333 310.282 164.211L307.908 163.794C307.796 162.229 307.73 160.646 307.73 159.048C307.73 157.451 307.796 155.868 307.908 154.303L310.282 153.886C310.464 151.764 310.758 149.675 311.15 147.632L308.999 146.4C309.638 143.285 310.501 140.268 311.579 137.378L313.954 137.813C314.705 135.874 315.549 133.991 316.487 132.173L314.779 130.248C316.23 127.531 317.872 124.964 319.696 122.575L321.838 123.826C323.069 122.252 324.385 120.757 325.77 119.357L324.669 116.921C326.773 114.855 329.031 112.986 331.424 111.341L333.118 113.281C334.713 112.213 336.369 111.252 338.081 110.4L337.694 107.701C339.028 107.06 340.39 106.484 341.785 105.982C342.513 105.715 343.245 105.467 343.992 105.242C344.538 105.073 345.083 104.914 345.638 104.769L346.721 107.214C348.521 106.765 350.355 106.432 352.225 106.231L352.412 104.858L352.594 103.532C353.97 103.401 355.36 103.326 356.769 103.326C358.178 103.326 359.568 103.401 360.944 103.532L361.313 106.231C363.179 106.432 365.017 106.765 366.813 107.214L367.9 104.769C370.643 105.495 373.297 106.479 375.84 107.701L375.453 110.4C377.165 111.252 378.821 112.213 380.416 113.281L382.114 111.341C384.503 112.986 386.765 114.855 388.865 116.921L387.764 119.357C389.154 120.757 390.469 122.252 391.701 123.826L393.842 122.575C395.662 124.964 397.308 127.531 398.754 130.248L397.047 132.173C397.985 133.991 398.834 135.874 399.58 137.813L401.959 137.378C403.032 140.268 403.9 143.285 404.534 146.4L402.384 147.632C402.78 149.675 403.07 151.764 403.252 153.886L405.626 154.303C405.743 155.868 405.803 157.451 405.803 159.048C405.803 160.646 405.743 162.229 405.626 163.794L403.252 164.211Z" stroke="#262626" stroke-width="0.99" stroke-linecap="round" stroke-linejoin="round"/>
<path d="M352.411 213.225C351.166 213.567 349.897 213.857 348.605 214.087C347.215 214.335 345.829 214.513 344.453 214.626L344.07 213.333H345.638L346.72 210.883C348.521 211.333 350.354 211.665 352.225 211.867L352.411 213.225Z" fill="#7099ED" stroke="#262626" stroke-width="0.99" stroke-linecap="round" stroke-linejoin="round"/>
<path d="M343.805 214.627V213.334" stroke="#262626" stroke-width="0.99" stroke-linecap="round" stroke-linejoin="round"/>
<path d="M352.414 104.859L352.228 106.231C350.357 106.433 348.523 106.765 346.723 107.215L345.608 104.69L343.672 104.671L344.498 103.463C347.189 103.683 349.834 104.152 352.414 104.859Z" stroke="#262626" stroke-width="0.99" stroke-linecap="round" stroke-linejoin="round"/>
<path d="M343.691 103.674V104.695" stroke="#262626" stroke-width="0.99" stroke-linecap="round" stroke-linejoin="round"/>
<path d="M307.907 154.305H301.441V163.594L307.907 163.795" stroke="#262626" stroke-width="0.99" stroke-linecap="round" stroke-linejoin="round"/>
<path d="M292.324 154.978H298.785L299.924 145.928L293.458 145.727" stroke="#262626" stroke-width="0.99" stroke-linecap="round" stroke-linejoin="round"/>
<path d="M293.582 172.396H300.048L298.677 163.35L292.211 163.148" stroke="#262626" stroke-width="0.99" stroke-linecap="round" stroke-linejoin="round"/>
<path d="M299.32 188.458H305.785L302.086 180.391L295.625 180.189" stroke="#262626" stroke-width="0.99" stroke-linecap="round" stroke-linejoin="round"/>
<path d="M309.429 201.739H315.89L310.227 195.082L303.766 194.881" stroke="#262626" stroke-width="0.99" stroke-linecap="round" stroke-linejoin="round"/>
<path d="M322.488 210.634H328.949L321.793 206.676L315.332 206.475" stroke="#262626" stroke-width="0.99" stroke-linecap="round" stroke-linejoin="round"/>
<path d="M337.339 214.627H343.805L336 213.287L329.539 213.086" stroke="#262626" stroke-width="0.99" stroke-linecap="round" stroke-linejoin="round"/>
<path d="M295.598 138.068H302.063L305.828 129.785L299.362 129.584" stroke="#262626" stroke-width="0.99" stroke-linecap="round" stroke-linejoin="round"/>
<path d="M303.578 123.193H310.044L315.791 116.635L309.33 116.434" stroke="#262626" stroke-width="0.99" stroke-linecap="round" stroke-linejoin="round"/>
<path d="M315.238 111.75H321.699L329.019 107.674L322.558 107.473" stroke="#262626" stroke-width="0.99" stroke-linecap="round" stroke-linejoin="round"/>
<path d="M329.492 104.986H335.953L343.688 103.674L337.227 103.473" stroke="#262626" stroke-width="0.99" stroke-linecap="round" stroke-linejoin="round"/>
<path d="M309.075 171.607H302.609L305.04 180.555L311.501 180.756" stroke="#262626" stroke-width="0.99" stroke-linecap="round" stroke-linejoin="round"/>
<path d="M314.735 187.98H308.27L313.117 195.405L319.578 195.607" stroke="#262626" stroke-width="0.99" stroke-linecap="round" stroke-linejoin="round"/>
<path d="M324.759 201.252H318.293L324.829 206.531L331.29 206.733" stroke="#262626" stroke-width="0.99" stroke-linecap="round" stroke-linejoin="round"/>
<path d="M337.755 210.494H331.289L338.972 213.132L345.438 213.333" stroke="#262626" stroke-width="0.99" stroke-linecap="round" stroke-linejoin="round"/>
<path d="M311.5 137.322H305.039L302.734 146.129L309.2 146.331" stroke="#262626" stroke-width="0.99" stroke-linecap="round" stroke-linejoin="round"/>
<path d="M319.535 122.5H313.074L308.25 129.916L314.716 130.117" stroke="#262626" stroke-width="0.99" stroke-linecap="round" stroke-linejoin="round"/>
<path d="M331.349 111.332H324.884L318.25 116.719L324.716 116.921" stroke="#262626" stroke-width="0.99" stroke-linecap="round" stroke-linejoin="round"/>
<path d="M345.575 104.695H339.109L331.184 107.454L337.649 107.656" stroke="#262626" stroke-width="0.99" stroke-linecap="round" stroke-linejoin="round"/>
<path d="M301.428 141.262H269.688V167.392H301.428V141.262Z" fill="white" stroke="#262626" stroke-width="0.99" stroke-linecap="round" stroke-linejoin="round"/>
<path d="M220.344 93.6348H196.949V97.8368H220.344V93.6348Z" fill="white" stroke="#262626" stroke-width="0.99" stroke-linecap="round" stroke-linejoin="round"/>
<path d="M365.823 96.0237C358.172 95.5505 342.997 95.0586 329.477 98.0848C325.036 99.078 322.163 100.141 320.063 101.05C312.716 104.231 307.864 108.55 304.655 111.426C300.946 114.752 298.184 117.956 296.258 120.444L315.576 120.074L330.359 107.473L339.783 102.006L356.362 97.8038L364.913 96.8481L365.823 96.0237Z" fill="white" stroke="#262626" stroke-width="0.99" stroke-linecap="round" stroke-linejoin="round"/>
<path d="M315.575 120.074C318.743 115.774 327.349 105.295 342.702 99.5654C357.164 94.1688 369.731 95.9255 374.998 96.9702C375.119 97.9586 375.245 98.947 375.367 99.9355C370.156 98.7784 358.619 96.9655 345.221 101.416C328.054 107.121 318.901 119.442 316.046 123.653L315.57 120.069L315.575 120.074Z" fill="white" stroke="#262626" stroke-width="0.99" stroke-linecap="round" stroke-linejoin="round"/>
<path d="M297.181 123.658H316.052L315.576 120.074L296.258 120.444L297.181 123.658Z" fill="white" stroke="#262626" stroke-width="0.99" stroke-linecap="round" stroke-linejoin="round"/>
<path d="M220.348 97.836C224.855 98.0187 233.83 99.0024 243.23 104.633C255.14 111.768 260.542 122.05 262.422 126.13C263.528 125.512 264.638 124.894 265.744 124.275C263.673 119.853 258.014 109.327 245.81 101.668C235.318 95.0815 225.219 93.8916 220.344 93.6387V97.8407L220.348 97.836Z" fill="white" stroke="#262626" stroke-width="0.99" stroke-linecap="round" stroke-linejoin="round"/>
<path d="M84.5156 120.33V131.578" stroke="#262626" stroke-width="0.99" stroke-linecap="round" stroke-linejoin="round"/>
</g>
<defs>
<clipPath id="clip0_1859_20737">
<rect width="421" height="215" fill="white"/>
</clipPath>
</defs>
</svg>
