<svg width="384" height="240" viewBox="0 0 384 240" fill="none" xmlns="http://www.w3.org/2000/svg">
<g clip-path="url(#clip0_1099_26323)">
<rect width="384" height="240" rx="32" fill="white"/>
<g clip-path="url(#clip1_1099_26323)">
<path d="M246.355 215.041H240.597C239.247 215.041 238.152 216.134 238.152 217.483V222.344C238.152 223.693 239.247 224.787 240.597 224.787H246.355C247.705 224.787 248.8 223.693 248.8 222.344V217.483C248.8 216.134 247.705 215.041 246.355 215.041Z" fill="#262626" stroke="#262626" stroke-width="0.99" stroke-miterlimit="10"/>
<path d="M362.419 7.19531H252.855V176.305H362.419V7.19531Z" fill="#7099ED" stroke="#262626" stroke-width="0.99" stroke-miterlimit="10"/>
<path d="M455.806 7.19531H346.242V176.305H455.806V7.19531Z" fill="white" stroke="#262626" stroke-width="0.99" stroke-miterlimit="10"/>
<path d="M434.169 144.941H324.605V175.961H434.169V144.941Z" fill="white" stroke="#262626" stroke-width="0.99" stroke-miterlimit="10"/>
<path d="M402.215 212.373H181.348V221.24H402.215V212.373Z" fill="#262626" stroke="#262626" stroke-width="0.99" stroke-miterlimit="10"/>
<path d="M356.065 224.525C363.066 224.525 368.743 218.855 368.743 211.86C368.743 204.866 363.066 199.195 356.065 199.195C349.063 199.195 343.387 204.866 343.387 211.86C343.387 218.855 349.063 224.525 356.065 224.525Z" fill="#262626" stroke="#262626" stroke-width="0.99" stroke-miterlimit="10"/>
<path d="M331.334 186.832H317.099C307.187 186.832 299.148 198.692 299.148 213.318C299.148 227.945 307.187 239.805 317.099 239.805H331.334C341.246 239.805 349.285 227.945 349.285 213.318C349.285 198.692 341.246 186.832 331.334 186.832Z" fill="#262626" stroke="#262626" stroke-width="0.99" stroke-miterlimit="10"/>
<path d="M182.299 186.832H168.064C158.152 186.832 150.113 198.692 150.113 213.318C150.113 227.945 158.152 239.805 168.064 239.805H182.299C192.211 239.805 200.25 227.945 200.25 213.318C200.25 198.692 192.211 186.832 182.299 186.832Z" fill="#262626" stroke="#262626" stroke-width="0.99" stroke-miterlimit="10"/>
<path d="M298.707 210.84H284.21C282.992 210.84 282.004 211.827 282.004 213.044V227.526C282.004 228.743 282.992 229.73 284.21 229.73H298.707C299.925 229.73 300.913 228.743 300.913 227.526V213.044C300.913 211.827 299.925 210.84 298.707 210.84Z" fill="#262626" stroke="#262626" stroke-width="0.99" stroke-miterlimit="10"/>
<path d="M212.32 210.84H197.823C196.605 210.84 195.617 211.827 195.617 213.044V227.526C195.617 228.743 196.605 229.73 197.823 229.73H212.32C213.539 229.73 214.526 228.743 214.526 227.526V213.044C214.526 211.827 213.539 210.84 212.32 210.84Z" fill="#262626" stroke="#262626" stroke-width="0.99" stroke-miterlimit="10"/>
<path d="M437.628 181.018H287.625V199.657H437.628V181.018Z" fill="#262626" stroke="#262626" stroke-width="0.99" stroke-miterlimit="10"/>
<path d="M454.39 186.996H304.387V194.897H454.39V186.996Z" fill="#262626" stroke="#262626" stroke-width="0.99" stroke-miterlimit="10"/>
<path d="M176.599 140.59H179.384C182.02 140.59 184.156 138.455 184.156 135.822V121.356C184.156 118.723 182.02 116.589 179.384 116.589H176.599C173.963 116.589 171.826 118.723 171.826 121.356V135.822C171.826 138.455 173.963 140.59 176.599 140.59Z" fill="#7099ED" stroke="#262626" stroke-width="0.99" stroke-miterlimit="10"/>
<path d="M169.02 121.351V135.822C169.02 138.025 170.522 139.882 172.56 140.425C172.951 140.53 173.362 140.585 173.788 140.585H176.573C179.21 140.585 181.345 138.451 181.345 135.822V121.351C181.345 118.721 179.21 116.584 176.573 116.584H173.788C171.155 116.584 169.02 118.721 169.02 121.351Z" fill="#7099ED" stroke="#262626" stroke-width="0.99" stroke-miterlimit="10"/>
<path d="M169.02 129.965V135.822C169.02 138.026 170.522 139.883 172.56 140.426V132.204C172.56 130.973 171.55 129.965 170.314 129.965H169.02Z" fill="white" stroke="#262626" stroke-width="0.99" stroke-miterlimit="10"/>
<path d="M386.144 189.219H337.839C335.246 189.219 333.145 191.318 333.145 193.908V208.831C333.145 211.421 335.246 213.521 337.839 213.521H386.144C388.737 213.521 390.839 211.421 390.839 208.831V193.908C390.839 191.318 388.737 189.219 386.144 189.219Z" fill="#7099ED" stroke="#262626" stroke-width="0.99" stroke-miterlimit="10"/>
<path d="M349.107 189.219H322.026C319.434 189.219 317.332 191.318 317.332 193.908V208.831C317.332 211.421 319.434 213.521 322.026 213.521H349.107C351.699 213.521 353.801 211.421 353.801 208.831V193.908C353.801 191.318 351.699 189.219 349.107 189.219Z" fill="#262626" stroke="#262626" stroke-width="0.99" stroke-miterlimit="10"/>
<path d="M327.317 213.712H141.924C139.421 213.712 137.387 211.68 137.387 209.176V180.438C137.387 177.14 138.032 173.905 139.257 170.904C140.062 168.934 141.119 167.062 142.405 165.339C142.773 164.843 143.16 164.362 143.567 163.893C143.712 163.725 143.861 163.561 144.009 163.397L171.02 133.878L174.912 129.627L207.195 94.3481C207.911 93.5666 208.654 92.8202 209.429 92.1129C210.348 91.265 211.307 90.4717 212.3 89.7293C218.602 85.0166 226.308 82.4141 234.3 82.4141H315.867L327.317 213.712Z" fill="white" stroke="#262626" stroke-width="0.99" stroke-miterlimit="10"/>
<path d="M307.636 173.021H238.152V213.716H307.636V173.021Z" fill="#262626" stroke="#262626" stroke-width="0.99" stroke-miterlimit="10"/>
<path d="M280.994 186.832H266.76C256.847 186.832 248.809 198.692 248.809 213.318C248.809 227.945 256.847 239.805 266.76 239.805H280.994C290.907 239.805 298.945 227.945 298.945 213.318C298.945 198.692 290.907 186.832 280.994 186.832Z" fill="#7099ED" stroke="#262626" stroke-width="0.99" stroke-miterlimit="10"/>
<path d="M272.697 186.832C262.785 186.832 254.746 198.692 254.746 213.318C254.746 227.945 262.785 239.805 272.697 239.805" stroke="#262626" stroke-width="0.99" stroke-miterlimit="10"/>
<path d="M270.209 186.832C260.296 186.832 252.258 198.692 252.258 213.318C252.258 227.945 260.296 239.805 270.209 239.805" stroke="#262626" stroke-width="0.99" stroke-miterlimit="10"/>
<path d="M275.181 186.832C265.269 186.832 257.23 198.692 257.23 213.318C257.23 227.945 265.269 239.805 275.181 239.805" stroke="#262626" stroke-width="0.99" stroke-miterlimit="10"/>
<path d="M277.67 186.832C267.757 186.832 259.719 198.692 259.719 213.318C259.719 227.945 267.757 239.805 277.67 239.805" stroke="#262626" stroke-width="0.99" stroke-miterlimit="10"/>
<path d="M281.496 237.623C290.593 237.623 297.968 226.741 297.968 213.318C297.968 199.894 290.593 189.012 281.496 189.012C272.398 189.012 265.023 199.894 265.023 213.318C265.023 226.741 272.398 237.623 281.496 237.623Z" stroke="#262626" stroke-width="0.99" stroke-miterlimit="10"/>
<path d="M282.43 230.528C288.873 230.528 294.095 222.823 294.095 213.319C294.095 203.814 288.873 196.109 282.43 196.109C275.988 196.109 270.766 203.814 270.766 213.319C270.766 222.823 275.988 230.528 282.43 230.528Z" fill="white" stroke="#262626" stroke-width="0.99" stroke-miterlimit="10"/>
<path d="M283.119 228.073C288.641 228.073 293.118 221.467 293.118 213.318C293.118 205.169 288.641 198.562 283.119 198.562C277.598 198.562 273.121 205.169 273.121 213.318C273.121 221.467 277.598 228.073 283.119 228.073Z" stroke="#262626" stroke-width="0.99" stroke-miterlimit="10"/>
<path d="M282.226 224.526C281.788 224.526 281.436 224.175 281.436 223.737C281.436 223.299 281.788 222.944 282.226 222.944C282.66 222.944 283.09 222.873 283.513 222.737C283.927 222.6 284.373 222.83 284.51 223.245C284.647 223.659 284.416 224.104 284.002 224.241C283.423 224.429 282.828 224.522 282.23 224.526H282.226ZM278.083 222.635C277.88 222.635 277.673 222.557 277.52 222.401C277.133 222.01 276.773 221.56 276.448 221.072C276.206 220.708 276.307 220.216 276.671 219.978C277.035 219.735 277.528 219.837 277.766 220.2C278.036 220.607 278.33 220.97 278.647 221.291C278.952 221.603 278.948 222.104 278.639 222.408C278.486 222.561 278.283 222.635 278.083 222.635ZM287.303 221.385C287.151 221.385 286.998 221.342 286.865 221.252C286.501 221.009 286.403 220.517 286.646 220.154C286.904 219.767 287.143 219.345 287.354 218.899C287.542 218.505 288.015 218.337 288.41 218.524C288.805 218.712 288.973 219.184 288.786 219.579C288.543 220.095 288.265 220.583 287.964 221.033C287.812 221.259 287.561 221.385 287.303 221.385ZM275.419 217.106C275.048 217.106 274.719 216.844 274.645 216.465C274.543 215.937 274.465 215.394 274.41 214.851C274.367 214.417 274.688 214.03 275.122 213.987C275.56 213.944 275.944 214.265 275.987 214.698C276.033 215.191 276.104 215.683 276.198 216.16C276.28 216.59 276.002 217.004 275.572 217.086C275.521 217.098 275.47 217.102 275.419 217.102V217.106ZM289.279 215.546C289.251 215.546 289.224 215.546 289.2 215.543C288.766 215.5 288.449 215.113 288.492 214.679C288.539 214.194 288.567 213.698 288.567 213.206V213.167C288.567 212.729 288.923 212.377 289.357 212.377C289.791 212.377 290.147 212.733 290.147 213.167V213.206C290.147 213.753 290.12 214.3 290.065 214.835C290.026 215.242 289.681 215.546 289.279 215.546ZM275.415 210.92C275.365 210.92 275.314 210.916 275.263 210.904C274.833 210.822 274.555 210.408 274.637 209.978C274.743 209.431 274.876 208.896 275.036 208.388C275.165 207.969 275.607 207.735 276.026 207.864C276.444 207.993 276.679 208.434 276.55 208.853C276.409 209.31 276.288 209.79 276.194 210.279C276.12 210.658 275.791 210.92 275.419 210.92H275.415ZM288.629 209.364C288.297 209.364 287.988 209.153 287.878 208.821C287.722 208.352 287.538 207.899 287.334 207.473C287.147 207.078 287.311 206.606 287.706 206.418C288.101 206.23 288.574 206.395 288.762 206.789C288.993 207.274 289.204 207.79 289.38 208.325C289.517 208.739 289.294 209.189 288.88 209.325C288.797 209.353 288.711 209.364 288.629 209.364ZM278.056 205.379C277.856 205.379 277.657 205.304 277.504 205.156C277.191 204.851 277.184 204.351 277.489 204.038C277.903 203.612 278.353 203.245 278.83 202.94C279.198 202.706 279.687 202.815 279.922 203.182C280.156 203.55 280.047 204.038 279.679 204.273C279.304 204.511 278.948 204.8 278.619 205.14C278.463 205.3 278.259 205.379 278.052 205.379H278.056ZM285.117 204.363C284.968 204.363 284.815 204.32 284.682 204.234C284.295 203.98 283.888 203.784 283.481 203.655C283.063 203.522 282.832 203.081 282.965 202.663C283.098 202.245 283.54 202.014 283.959 202.147C284.506 202.319 285.042 202.577 285.551 202.913C285.915 203.151 286.016 203.644 285.778 204.007C285.625 204.238 285.375 204.363 285.117 204.363Z" fill="#262626"/>
<path d="M282.867 221.588C285.736 221.588 288.061 217.886 288.061 213.319C288.061 208.753 285.736 205.051 282.867 205.051C279.998 205.051 277.672 208.753 277.672 213.319C277.672 217.886 279.998 221.588 282.867 221.588Z" stroke="#262626" stroke-width="0.99" stroke-miterlimit="10"/>
<path d="M282.756 215.937C283.451 215.937 284.015 214.814 284.015 213.429C284.015 212.043 283.451 210.92 282.756 210.92C282.06 210.92 281.496 212.043 281.496 213.429C281.496 214.814 282.06 215.937 282.756 215.937Z" fill="white" stroke="#262626" stroke-width="0.99" stroke-miterlimit="10"/>
<path d="M282.169 214.772C282.543 214.772 282.846 214.171 282.846 213.428C282.846 212.686 282.543 212.084 282.169 212.084C281.795 212.084 281.492 212.686 281.492 213.428C281.492 214.171 281.795 214.772 282.169 214.772Z" fill="#262626" stroke="#262626" stroke-width="0.99" stroke-miterlimit="10"/>
<path d="M455.806 144.941H346.242V175.961H455.806V144.941Z" fill="white" stroke="#262626" stroke-width="0.99" stroke-miterlimit="10"/>
<path d="M451.895 172.057V148.854H350.154V172.057H451.895Z" fill="white" stroke="#262626" stroke-width="0.99" stroke-miterlimit="10"/>
<path d="M340.797 95.7627V201.098C340.797 204.221 339.663 207.077 337.781 209.281C335.465 211.993 332.019 213.712 328.17 213.712H304.238C302.087 213.712 300.283 212.091 300.06 209.953L298.856 198.496C298.23 192.541 295.405 187.3 291.239 183.553C287.07 179.802 281.558 177.539 275.561 177.539C266.842 177.539 259.148 182.326 255.115 189.516C253.597 192.228 252.596 195.288 252.263 198.558L251.097 209.942C250.878 212.083 249.075 213.712 246.92 213.712H216.788C214.28 213.712 212.25 211.684 212.25 209.18V180.438C212.25 174.131 214.613 168.051 218.873 163.397L245.899 133.878L282.098 94.3403C282.81 93.5627 283.553 92.8202 284.324 92.1129C291.071 85.9036 299.943 82.4141 309.194 82.4141H327.435C334.816 82.4141 340.797 88.3889 340.797 95.7627Z" fill="white" stroke="#262626" stroke-width="0.99" stroke-miterlimit="10"/>
<path d="M229.179 165.34V205.53H137.387V180.439C137.387 177.141 138.157 173.905 139.624 170.904C140.587 168.935 141.85 167.063 143.391 165.34H229.179Z" fill="#7099ED" stroke="#262626" stroke-width="0.99" stroke-miterlimit="10"/>
<path d="M282.126 94.3055L282.095 94.3407L258.925 119.647L254.904 124.039L249.15 130.323C249.037 130.444 248.923 130.565 248.802 130.682C246.76 132.726 243.979 133.879 241.072 133.879H174.291C173.04 133.879 172.382 132.39 173.227 131.464L174.909 129.627L190.983 112.062L205.969 95.6849L207.193 94.3485L207.212 94.325C208.507 92.9144 210.33 92.1133 212.243 92.1133H281.16C282.298 92.1133 282.897 93.4653 282.126 94.3055Z" fill="#262626" stroke="#262626" stroke-width="0.99" stroke-miterlimit="10"/>
<path d="M312.23 92.1133V133.879H249.999C248.426 133.879 247.605 132.015 248.665 130.854L282.094 94.3407C283.393 92.9222 285.231 92.1133 287.16 92.1133H312.226H312.23Z" fill="#7099ED" stroke="#262626" stroke-width="0.99" stroke-miterlimit="10"/>
<path d="M255.109 189.516C253.591 192.228 252.59 195.287 252.258 198.558L251.092 209.941C250.873 212.083 249.07 213.712 246.914 213.712H137.515C136.236 213.712 135.195 212.673 135.195 211.391V191.837C135.195 190.555 136.236 189.516 137.515 189.516H255.109Z" fill="#7099ED" stroke="#262626" stroke-width="0.99" stroke-miterlimit="10"/>
<path d="M226.861 181.017H213.526C208.515 181.017 205.12 175.918 207.056 171.299L208.425 168.036C209.333 165.875 211.257 164.312 213.557 163.866L228.715 160.928C234.465 159.814 238.968 165.812 236.288 171.014L233.096 177.215C231.895 179.548 229.486 181.017 226.857 181.017H226.861Z" fill="white" stroke="#262626" stroke-width="0.99" stroke-miterlimit="10"/>
<path d="M143.466 181.018H137.387V180.44C137.387 174.355 139.585 168.478 143.567 163.895C145.809 164.371 147.678 165.919 148.563 168.033L149.936 171.3C151.872 175.915 148.476 181.018 143.466 181.018Z" fill="white" stroke="#262626" stroke-width="0.99" stroke-miterlimit="10"/>
<path d="M189.107 207.527H165.026C163.012 207.527 161.302 206.046 161.013 204.053L156.991 176.133C156.639 173.69 158.537 171.506 161.005 171.506H193.128C195.596 171.506 197.489 173.69 197.141 176.133L193.12 204.053C192.835 206.046 191.125 207.527 189.107 207.527Z" fill="#7099ED" stroke="#262626" stroke-width="0.99" stroke-miterlimit="10"/>
<path d="M165.023 205.181C164.182 205.181 163.454 204.552 163.333 203.72L159.312 175.8C159.214 175.127 159.519 174.658 159.711 174.44C159.902 174.221 160.321 173.85 161.002 173.85H193.125C193.801 173.85 194.224 174.217 194.416 174.44C194.607 174.658 194.912 175.127 194.815 175.8L190.793 203.72C190.672 204.552 189.948 205.181 189.104 205.181H165.023Z" fill="#7099ED" stroke="#262626" stroke-width="0.99" stroke-miterlimit="10"/>
<path d="M159.504 177.406H194.479" stroke="#262626" stroke-width="0.99" stroke-miterlimit="10"/>
<path d="M160.098 181.498H193.907" stroke="#262626" stroke-width="0.99" stroke-miterlimit="10"/>
<path d="M160.688 185.586H193.335" stroke="#262626" stroke-width="0.99" stroke-miterlimit="10"/>
<path d="M161.285 189.672H192.767" stroke="#262626" stroke-width="0.99" stroke-miterlimit="10"/>
<path d="M161.879 193.76H192.195" stroke="#262626" stroke-width="0.99" stroke-miterlimit="10"/>
<path d="M162.469 197.848H191.623" stroke="#262626" stroke-width="0.99" stroke-miterlimit="10"/>
<path d="M163.062 201.936H191.051" stroke="#262626" stroke-width="0.99" stroke-miterlimit="10"/>
<path d="M177 192C179.761 192 182 188.418 182 184C182 179.582 179.761 176 177 176C174.239 176 172 179.582 172 184C172 188.418 174.239 192 177 192Z" fill="#FF8B63" stroke="#262626" stroke-width="0.99" stroke-miterlimit="10"/>
<path d="M293.901 95.3098L271.694 119.709C268.659 123.047 266.98 127.349 266.98 131.808V176.211H284.352L294.374 183.323L301.357 194.237L304.952 210.845H323.622C328.152 210.845 331.825 207.175 331.825 202.65V96.8299C331.825 94.2273 329.658 92.1133 326.986 92.1133H301.188C298.403 92.1133 295.747 93.2778 293.897 95.3098H293.901Z" fill="white" stroke="#262626" stroke-width="0.99" stroke-miterlimit="10"/>
<path d="M337.779 209.281C335.463 211.993 332.017 213.712 328.168 213.712H304.236C302.084 213.712 300.281 212.091 300.058 209.953L298.853 198.496C298.227 192.54 295.403 187.3 291.237 183.553C287.067 179.801 281.556 177.539 275.559 177.539C266.84 177.539 259.145 182.326 255.112 189.516H250.215C250.543 188.781 250.907 188.062 251.302 187.355C256.231 178.566 265.549 173.107 275.618 173.107C282.518 173.107 289.14 175.647 294.265 180.259C299.385 184.866 302.605 191.18 303.324 198.035L304.506 209.281H337.779Z" fill="#7099ED" stroke="#262626" stroke-width="0.99" stroke-miterlimit="10"/>
<path d="M323.421 100.965V128.713C323.421 131.265 321.297 133.34 318.672 133.34H281.514C278.89 133.34 276.766 131.265 276.766 128.713V124.911C276.766 123.766 277.2 122.664 277.982 121.816L279.715 119.94L300.111 97.8697C301.014 96.8967 302.294 96.3379 303.639 96.3379H318.672C321.297 96.3379 323.421 98.4129 323.421 100.965Z" fill="#262626" stroke="#262626" stroke-width="0.99" stroke-miterlimit="10"/>
<path d="M331.832 133.879H333.753C334.758 133.879 335.572 134.692 335.572 135.696V143.195C335.572 144.199 334.758 145.012 333.753 145.012H331.832" stroke="#262626" stroke-width="0.99" stroke-miterlimit="10"/>
<path d="M340.796 166.629H248.17C245.885 166.629 244.035 165.324 244.035 163.71C244.035 162.1 245.885 160.791 248.17 160.791H340.796" stroke="#262626" stroke-width="0.99" stroke-miterlimit="10"/>
<path d="M307.637 186.832C307.637 186.832 340.796 187.203 340.796 186.832" stroke="#262626" stroke-width="0.99" stroke-miterlimit="10"/>
<path d="M202.199 163.343C207.108 163.343 211.787 161.245 215.049 157.576L237.088 132.785" stroke="#262626" stroke-width="0.99" stroke-miterlimit="10"/>
<path d="M177.911 133.328L158.559 154.981C155.669 158.216 157.969 163.343 162.307 163.343" stroke="#262626" stroke-width="0.99" stroke-miterlimit="10"/>
<path d="M329.148 162.299H315.531V163.709H329.148V162.299Z" fill="#262626"/>
<path d="M285.195 133.339H281.514C278.89 133.339 276.766 131.264 276.766 128.712V124.91C276.766 123.765 277.2 122.663 277.982 121.815L279.715 119.939L285.195 133.339Z" fill="#7099ED" stroke="#262626" stroke-width="0.99" stroke-miterlimit="10"/>
<path d="M285.407 126.584H281.28C280.056 126.584 279.062 127.576 279.062 128.8V129.831C279.062 131.055 280.056 132.047 281.28 132.047H285.407C286.632 132.047 287.625 131.055 287.625 129.831V128.8C287.625 127.576 286.632 126.584 285.407 126.584Z" fill="#7099ED" stroke="#262626" stroke-width="0.99" stroke-miterlimit="10"/>
<path d="M312.227 92.1133H340.594" stroke="#262626" stroke-width="0.99" stroke-miterlimit="10"/>
<path d="M390.84 200.846H351.379" stroke="#262626" stroke-width="0.99" stroke-miterlimit="10"/>
<path d="M390.84 203.213H351.379" stroke="#262626" stroke-width="0.99" stroke-miterlimit="10"/>
<path d="M359.737 189.219H357.633C360.215 189.219 362.327 191.329 362.327 193.908V208.831C362.327 211.411 360.215 213.521 357.633 213.521H359.737C362.319 213.521 364.431 211.411 364.431 208.831V193.908C364.431 191.329 362.319 189.219 359.737 189.219Z" fill="white" stroke="#262626" stroke-width="0.99" stroke-miterlimit="10"/>
<path d="M380.937 189.219H378.832C381.414 189.219 383.526 191.329 383.526 193.908V208.831C383.526 211.411 381.414 213.521 378.832 213.521H380.937C383.518 213.521 385.631 211.411 385.631 208.831V193.908C385.631 191.329 383.518 189.219 380.937 189.219Z" fill="white" stroke="#262626" stroke-width="0.99" stroke-miterlimit="10"/>
<path d="M294.456 116.588H291.671C289.035 116.588 286.898 118.722 286.898 121.355V135.822C286.898 138.454 289.035 140.589 291.671 140.589H294.456C297.092 140.589 299.228 138.454 299.228 135.822V121.355C299.228 118.722 297.092 116.588 294.456 116.588Z" fill="#7099ED" stroke="#262626" stroke-width="0.99" stroke-miterlimit="10"/>
<path d="M295.877 121.351V135.822C295.877 138.025 294.375 139.882 292.337 140.425C291.945 140.53 291.535 140.585 291.108 140.585H288.323C285.687 140.585 283.551 138.451 283.551 135.822V121.351C283.551 118.721 285.687 116.584 288.323 116.584H291.108C293.741 116.584 295.877 118.721 295.877 121.351Z" fill="#7099ED" stroke="#262626" stroke-width="0.99" stroke-miterlimit="10"/>
<path d="M295.876 129.965V135.822C295.876 138.026 294.374 139.883 292.336 140.426V132.204C292.336 130.973 293.345 129.965 294.581 129.965H295.876Z" fill="white" stroke="#262626" stroke-width="0.99" stroke-miterlimit="10"/>
<path d="M242.938 210.842H206.117C203.281 210.842 200.984 208.548 200.984 205.715C200.984 202.882 203.281 200.588 206.117 200.588H247.432L246.787 207.348C246.599 209.329 244.933 210.846 242.938 210.846V210.842Z" stroke="#262626" stroke-width="0.99" stroke-miterlimit="10"/>
<path d="M205.07 208.883C206.544 208.883 207.738 207.464 207.738 205.714C207.738 203.964 206.544 202.545 205.07 202.545C203.597 202.545 202.402 203.964 202.402 205.714C202.402 207.464 203.597 208.883 205.07 208.883Z" fill="white" stroke="#262626" stroke-width="0.99" stroke-miterlimit="10"/>
<path d="M135.195 210.842H149.594C152.43 210.842 154.727 208.548 154.727 205.715C154.727 202.882 152.43 200.588 149.594 200.588H135.195" stroke="#262626" stroke-width="0.99" stroke-miterlimit="10"/>
<path d="M150.637 208.883C152.11 208.883 153.304 207.464 153.304 205.714C153.304 203.964 152.11 202.545 150.637 202.545C149.163 202.545 147.969 203.964 147.969 205.714C147.969 207.464 149.163 208.883 150.637 208.883Z" fill="white" stroke="#262626" stroke-width="0.99" stroke-miterlimit="10"/>
<path d="M211.308 191.818H210.31C209.742 191.818 209.281 192.278 209.281 192.846V196.82C209.281 197.388 209.742 197.848 210.31 197.848H211.308C211.876 197.848 212.336 197.388 212.336 196.82V192.846C212.336 192.278 211.876 191.818 211.308 191.818Z" fill="#262626" stroke="#262626" stroke-width="0.99" stroke-miterlimit="10"/>
<path d="M211.414 197.254H209.008C207.776 197.254 206.677 196.371 206.52 195.151C206.332 193.674 207.482 192.412 208.922 192.412H211.41C211.918 192.412 212.329 192.822 212.329 193.33C212.329 193.838 211.918 194.249 211.41 194.249H208.953C208.664 194.249 208.394 194.448 208.347 194.733C208.288 195.097 208.57 195.413 208.922 195.413H211.41C211.918 195.413 212.329 195.824 212.329 196.332C212.329 196.84 211.918 197.25 211.41 197.25L211.414 197.254Z" fill="white" stroke="#262626" stroke-width="0.99" stroke-miterlimit="10"/>
<path d="M146.847 191.818H145.849C145.281 191.818 144.82 192.278 144.82 192.846V196.82C144.82 197.388 145.281 197.848 145.849 197.848H146.847C147.415 197.848 147.875 197.388 147.875 196.82V192.846C147.875 192.278 147.415 191.818 146.847 191.818Z" fill="#262626" stroke="#262626" stroke-width="0.99" stroke-miterlimit="10"/>
<path d="M146.957 197.254H144.551C143.319 197.254 142.22 196.371 142.063 195.151C141.875 193.674 143.025 192.412 144.465 192.412H146.953C147.461 192.412 147.872 192.822 147.872 193.33C147.872 193.838 147.461 194.249 146.953 194.249H144.496C144.207 194.249 143.937 194.448 143.89 194.733C143.831 195.097 144.113 195.413 144.465 195.413H146.953C147.461 195.413 147.872 195.824 147.872 196.332C147.872 196.84 147.461 197.25 146.953 197.25L146.957 197.254Z" fill="white" stroke="#262626" stroke-width="0.99" stroke-miterlimit="10"/>
<path d="M444.282 175.965H340.797V182.479H444.282V175.965Z" fill="#7099ED" stroke="#262626" stroke-width="0.99" stroke-miterlimit="10"/>
<path d="M451.892 153.023H350.152V157.455H451.892V153.023Z" fill="white" stroke="#262626" stroke-width="0.99" stroke-miterlimit="10"/>
<path d="M351.635 153.023H350.152V157.455H351.635V153.023Z" fill="white" stroke="#262626" stroke-width="0.99" stroke-miterlimit="10"/>
<path d="M451.892 163.002H350.152V167.433H451.892V163.002Z" fill="white" stroke="#262626" stroke-width="0.99" stroke-miterlimit="10"/>
<path d="M351.635 163.002H350.152V167.433H351.635V163.002Z" fill="white" stroke="#262626" stroke-width="0.99" stroke-miterlimit="10"/>
<path d="M218.191 189.516V192.431C218.191 193.791 219.295 194.893 220.656 194.893H252.701" stroke="#262626" stroke-width="0.99" stroke-miterlimit="10"/>
<path d="M140.91 189.516V192.431C140.91 193.791 139.807 194.893 138.446 194.893H135.195" stroke="#262626" stroke-width="0.99" stroke-miterlimit="10"/>
<path d="M248.804 130.683C246.762 132.727 243.98 133.879 241.074 133.879H214.94L190.984 112.063L205.97 95.6855L248.804 130.683Z" fill="white" stroke="#262626" stroke-width="0.99" stroke-miterlimit="10"/>
<path d="M258.929 119.647L254.908 124.039L217.465 92.1133H225.234L258.929 119.647Z" fill="white" stroke="#262626" stroke-width="0.99" stroke-miterlimit="10"/>
<path d="M298.746 99.3457L323.421 119.22V129.126L293.477 105.047L298.746 99.3457Z" fill="white" stroke="#262626" stroke-width="0.99" stroke-miterlimit="10"/>
<path d="M356.778 175.965H353.184V181.017H356.778V175.965Z" fill="#7099ED" stroke="#262626" stroke-width="0.99" stroke-miterlimit="10"/>
<path d="M357.876 175.965H354.281V181.017H357.876V175.965Z" fill="#7099ED" stroke="#262626" stroke-width="0.99" stroke-miterlimit="10"/>
<path d="M187.156 141.535L188.541 140.046C190.223 138.237 192.586 137.205 195.062 137.205H206.648C208.964 137.205 210.122 139.999 208.487 141.636L207.392 142.731" stroke="#262626" stroke-width="0.99" stroke-miterlimit="10"/>
<path d="M305.417 96.3418H303.352V133.34H305.417V96.3418Z" fill="white" stroke="#262626" stroke-width="0.99" stroke-miterlimit="10"/>
</g>
<rect x="24" y="24" width="221" height="39" rx="8" fill="white"/>
<path d="M33.6113 50V35.7812H43.7676V37.8711H36.3262V50H33.6113ZM45.6621 50V35.7812H51.8633C53.6927 35.7812 55.0924 36.1719 56.0625 36.9531C57.0391 37.7344 57.5273 38.877 57.5273 40.3809C57.5273 41.8522 57.0423 42.9948 56.0723 43.8086C55.1022 44.6224 53.696 45.0163 51.8535 44.9902H48.377V50H45.6621ZM48.377 42.9785H51.6191C52.791 42.9785 53.6178 42.7539 54.0996 42.3047C54.5814 41.849 54.8223 41.2109 54.8223 40.3906C54.8223 39.5638 54.5814 38.9323 54.0996 38.4961C53.6178 38.0534 52.791 37.832 51.6191 37.832H48.377V42.9785ZM60.5645 47.832C60.7467 47.8841 60.9453 47.9264 61.1602 47.959C61.375 47.9915 61.5931 48.0078 61.8145 48.0078C62.3743 48.0078 62.8464 47.8809 63.2305 47.627C63.6211 47.373 64.0052 46.9108 64.3828 46.2402L64.3535 46.3184L58.084 35.7812H61.1992L65.0566 42.5977C65.2389 42.9362 65.3659 43.1901 65.4375 43.3594C65.5156 43.5221 65.597 43.7142 65.6816 43.9355H65.7402C65.8249 43.7207 65.903 43.5319 65.9746 43.3691C66.0527 43.1999 66.1797 42.946 66.3555 42.6074L69.9297 35.7812H72.6738L66.9902 46.1816C66.1569 47.7116 65.418 48.7793 64.7734 49.3848C64.1289 49.9837 63.2565 50.2832 62.1562 50.2832C61.7526 50.2832 61.4336 50.2669 61.1992 50.2344C60.9714 50.2018 60.7598 50.153 60.5645 50.0879V47.832ZM79.8027 48.2031C81.0072 48.2031 81.8926 47.9948 82.459 47.5781C83.0254 47.1615 83.3118 46.5723 83.3184 45.8105C83.3184 45.1074 83.0775 44.5703 82.5957 44.1992C82.1204 43.8281 81.3945 43.6426 80.418 43.6426H77.5762V41.6406H80.252C81.1699 41.6406 81.847 41.4681 82.2832 41.123C82.7194 40.778 82.9375 40.2767 82.9375 39.6191C82.9375 38.9616 82.6771 38.457 82.1562 38.1055C81.6354 37.7539 80.8249 37.5781 79.7246 37.5781C78.5658 37.5781 77.6901 37.7832 77.0977 38.1934C76.5052 38.6035 76.2057 39.235 76.1992 40.0879V40.2344H73.5039V40.0977C73.5104 38.6523 74.0345 37.526 75.0762 36.7188C76.1243 35.9049 77.6868 35.498 79.7637 35.498C81.6452 35.498 83.0938 35.8333 84.1094 36.5039C85.125 37.168 85.6328 38.1283 85.6328 39.3848C85.6328 40.2376 85.3984 40.918 84.9297 41.4258C84.4674 41.9336 83.8945 42.2917 83.2109 42.5V42.5391C84.0443 42.7344 84.7214 43.1152 85.2422 43.6816C85.7695 44.2415 86.0332 44.9772 86.0332 45.8887C86.0332 47.2754 85.4896 48.3561 84.4023 49.1309C83.3216 49.8991 81.8014 50.2832 79.8418 50.2832C77.765 50.2832 76.1602 49.9056 75.0273 49.1504C73.901 48.3952 73.3314 47.1842 73.3184 45.5176V45.3809H76.0137L76.0234 45.5078C76.0234 46.4388 76.3392 47.1224 76.9707 47.5586C77.6022 47.9883 78.5462 48.2031 79.8027 48.2031ZM87.8105 43.1445V42.6074C87.8105 40.2376 88.5007 38.4603 89.8809 37.2754C91.2611 36.084 93.0254 35.4883 95.1738 35.4883C97.3158 35.4883 99.0801 36.084 100.467 37.2754C101.86 38.4603 102.557 40.2376 102.557 42.6074V43.1445C102.557 45.5339 101.86 47.3242 100.467 48.5156C99.0801 49.7005 97.3158 50.293 95.1738 50.293C93.0254 50.293 91.2611 49.7005 89.8809 48.5156C88.5007 47.3242 87.8105 45.5339 87.8105 43.1445ZM90.5938 43.3105C90.5938 44.9902 91.0104 46.2272 91.8438 47.0215C92.6836 47.8092 93.7936 48.2031 95.1738 48.2031C96.554 48.2031 97.6673 47.8092 98.5137 47.0215C99.36 46.2272 99.7832 44.9902 99.7832 43.3105V42.4609C99.7832 40.7812 99.36 39.5508 98.5137 38.7695C97.6738 37.9818 96.5605 37.5879 95.1738 37.5879C93.7936 37.5879 92.6836 37.9818 91.8438 38.7695C91.0104 39.5508 90.5938 40.778 90.5938 42.4512V43.3105ZM105.135 50V35.7812H118.191V50H115.477V37.8711H107.85V50H105.135ZM121.424 50V35.7812H132.234V37.8809H124.109V41.6699H131.238V43.7109H124.109V47.9102H132.352V50H121.424ZM134.646 50V35.7812H140.848C142.677 35.7812 144.077 36.1719 145.047 36.9531C146.023 37.7344 146.512 38.877 146.512 40.3809C146.512 41.8522 146.027 42.9948 145.057 43.8086C144.087 44.6224 142.68 45.0163 140.838 44.9902H137.361V50H134.646ZM137.361 42.9785H140.604C141.775 42.9785 142.602 42.7539 143.084 42.3047C143.566 41.849 143.807 41.2109 143.807 40.3906C143.807 39.5638 143.566 38.9323 143.084 38.4961C142.602 38.0534 141.775 37.832 140.604 37.832H137.361V42.9785ZM148.611 50V35.7812H159.422V37.8809H151.297V41.6699H158.426V43.7109H151.297V47.9102H159.539V50H148.611ZM161.834 50V35.7812H167.869C169.562 35.7812 170.883 36.071 171.834 36.6504C172.785 37.2298 173.26 38.1868 173.26 39.5215C173.26 40.3092 173.055 40.9505 172.645 41.4453C172.241 41.9336 171.727 42.2852 171.102 42.5V42.5391C171.883 42.7474 172.514 43.1283 172.996 43.6816C173.484 44.235 173.729 44.9772 173.729 45.9082C173.729 47.2689 173.221 48.291 172.205 48.9746C171.189 49.6582 169.848 50 168.182 50H161.834ZM164.51 48.0469H168.045C169.054 48.0469 169.803 47.8613 170.291 47.4902C170.779 47.1126 171.023 46.543 171.023 45.7812C171.023 45.0651 170.779 44.515 170.291 44.1309C169.803 43.7402 169.054 43.5449 168.045 43.5449H164.51V48.0469ZM164.51 41.709H167.732C168.729 41.709 169.451 41.5365 169.9 41.1914C170.356 40.8464 170.584 40.3516 170.584 39.707C170.584 39.0299 170.359 38.5352 169.91 38.2227C169.461 37.9102 168.735 37.7539 167.732 37.7539H164.51V41.709ZM175.584 43.1445V42.6074C175.584 40.2376 176.274 38.4603 177.654 37.2754C179.035 36.084 180.799 35.4883 182.947 35.4883C185.089 35.4883 186.854 36.084 188.24 37.2754C189.633 38.4603 190.33 40.2376 190.33 42.6074V43.1445C190.33 45.5339 189.633 47.3242 188.24 48.5156C186.854 49.7005 185.089 50.293 182.947 50.293C180.799 50.293 179.035 49.7005 177.654 48.5156C176.274 47.3242 175.584 45.5339 175.584 43.1445ZM178.367 43.3105C178.367 44.9902 178.784 46.2272 179.617 47.0215C180.457 47.8092 181.567 48.2031 182.947 48.2031C184.327 48.2031 185.441 47.8092 186.287 47.0215C187.133 46.2272 187.557 44.9902 187.557 43.3105V42.4609C187.557 40.7812 187.133 39.5508 186.287 38.7695C185.447 37.9818 184.334 37.5879 182.947 37.5879C181.567 37.5879 180.457 37.9818 179.617 38.7695C178.784 39.5508 178.367 40.778 178.367 42.4512V43.3105ZM198.455 48.2031C199.66 48.2031 200.545 47.9948 201.111 47.5781C201.678 47.1615 201.964 46.5723 201.971 45.8105C201.971 45.1074 201.73 44.5703 201.248 44.1992C200.773 43.8281 200.047 43.6426 199.07 43.6426H196.229V41.6406H198.904C199.822 41.6406 200.499 41.4681 200.936 41.123C201.372 40.778 201.59 40.2767 201.59 39.6191C201.59 38.9616 201.329 38.457 200.809 38.1055C200.288 37.7539 199.477 37.5781 198.377 37.5781C197.218 37.5781 196.342 37.7832 195.75 38.1934C195.158 38.6035 194.858 39.235 194.852 40.0879V40.2344H192.156V40.0977C192.163 38.6523 192.687 37.526 193.729 36.7188C194.777 35.9049 196.339 35.498 198.416 35.498C200.298 35.498 201.746 35.8333 202.762 36.5039C203.777 37.168 204.285 38.1283 204.285 39.3848C204.285 40.2376 204.051 40.918 203.582 41.4258C203.12 41.9336 202.547 42.2917 201.863 42.5V42.5391C202.697 42.7344 203.374 43.1152 203.895 43.6816C204.422 44.2415 204.686 44.9772 204.686 45.8887C204.686 47.2754 204.142 48.3561 203.055 49.1309C201.974 49.8991 200.454 50.2832 198.494 50.2832C196.417 50.2832 194.812 49.9056 193.68 49.1504C192.553 48.3952 191.984 47.1842 191.971 45.5176V45.3809H194.666L194.676 45.5078C194.676 46.4388 194.992 47.1224 195.623 47.5586C196.255 47.9883 197.199 48.2031 198.455 48.2031ZM217.146 50L210.604 43.1836L212.576 41.7773L220.477 50H217.146ZM208.465 41.6211H211.131L217.049 35.7812H219.988L211.697 43.7305H208.465V41.6211ZM207.107 50V35.7812H209.822V50H207.107ZM234.93 50H232.273V40.4785C232.273 40.2702 232.277 40.0423 232.283 39.7949C232.29 39.541 232.299 39.3132 232.312 39.1113H232.195C232.098 39.3066 232 39.4987 231.902 39.6875C231.811 39.8763 231.681 40.0814 231.512 40.3027L224.51 50H221.639V35.7812H224.305V45.293C224.305 45.4948 224.298 45.7194 224.285 45.9668C224.279 46.2142 224.272 46.4421 224.266 46.6504H224.402C224.474 46.4876 224.562 46.3021 224.666 46.0938C224.777 45.8854 224.904 45.6803 225.047 45.4785L232.059 35.7812H234.93V50Z" fill="#262626"/>
</g>
<defs>
<clipPath id="clip0_1099_26323">
<rect width="384" height="240" rx="32" fill="white"/>
</clipPath>
<clipPath id="clip1_1099_26323">
<rect width="321" height="233" fill="white" transform="translate(135 7)"/>
</clipPath>
</defs>
</svg>
