<svg width="384" height="240" viewBox="18 10 384 240" fill="none" xmlns="http://www.w3.org/2000/svg">
<g filter="url(#filter0_d_1099_26325)">
<g clip-path="url(#clip0_1099_26325)">
<rect x="19" y="9" width="384" height="240" rx="32" fill="#7099ED"/>
<g clip-path="url(#clip1_1099_26325)">
<path d="M204.355 224.041H198.597C197.247 224.041 196.152 225.134 196.152 226.483V231.344C196.152 232.693 197.247 233.787 198.597 233.787H204.355C205.705 233.787 206.8 232.693 206.8 231.344V226.483C206.8 225.134 205.705 224.041 204.355 224.041Z" fill="#262626" stroke="#262626" stroke-width="0.99" stroke-miterlimit="10"/>
<path d="M320.419 16.1953H210.855V185.305H320.419V16.1953Z" fill="#7099ED" stroke="#262626" stroke-width="0.99" stroke-miterlimit="10"/>
<path d="M413.806 16.1953H304.242V185.305H413.806V16.1953Z" fill="white" stroke="#262626" stroke-width="0.99" stroke-miterlimit="10"/>
<path d="M392.169 153.941H282.605V184.961H392.169V153.941Z" fill="white" stroke="#262626" stroke-width="0.99" stroke-miterlimit="10"/>
<path d="M360.215 221.373H139.348V230.24H360.215V221.373Z" fill="#262626" stroke="#262626" stroke-width="0.99" stroke-miterlimit="10"/>
<path d="M314.065 233.525C321.066 233.525 326.743 227.855 326.743 220.86C326.743 213.866 321.066 208.195 314.065 208.195C307.063 208.195 301.387 213.866 301.387 220.86C301.387 227.855 307.063 233.525 314.065 233.525Z" fill="#262626" stroke="#262626" stroke-width="0.99" stroke-miterlimit="10"/>
<path d="M289.334 195.832H275.099C265.187 195.832 257.148 207.692 257.148 222.318C257.148 236.945 265.187 248.805 275.099 248.805H289.334C299.246 248.805 307.285 236.945 307.285 222.318C307.285 207.692 299.246 195.832 289.334 195.832Z" fill="#262626" stroke="#262626" stroke-width="0.99" stroke-miterlimit="10"/>
<path d="M140.299 195.832H126.064C116.152 195.832 108.113 207.692 108.113 222.318C108.113 236.945 116.152 248.805 126.064 248.805H140.299C150.211 248.805 158.25 236.945 158.25 222.318C158.25 207.692 150.211 195.832 140.299 195.832Z" fill="#262626" stroke="#262626" stroke-width="0.99" stroke-miterlimit="10"/>
<path d="M383.207 193.354C385.667 194.717 392.693 199.047 395.588 207.578C396.084 209.043 396.397 210.45 396.585 211.755C396.816 213.357 395.568 214.791 393.949 214.791H379.26C378.72 207.714 378.18 200.637 377.641 193.561C379.499 193.49 381.353 193.424 383.211 193.354H383.207Z" fill="#262626" stroke="#262626" stroke-width="0.99" stroke-miterlimit="10"/>
<path d="M256.707 219.84H242.21C240.992 219.84 240.004 220.827 240.004 222.044V236.526C240.004 237.743 240.992 238.73 242.21 238.73H256.707C257.925 238.73 258.913 237.743 258.913 236.526V222.044C258.913 220.827 257.925 219.84 256.707 219.84Z" fill="#262626" stroke="#262626" stroke-width="0.99" stroke-miterlimit="10"/>
<path d="M170.32 219.84H155.823C154.605 219.84 153.617 220.827 153.617 222.044V236.526C153.617 237.743 154.605 238.73 155.823 238.73H170.32C171.539 238.73 172.526 237.743 172.526 236.526V222.044C172.526 220.827 171.539 219.84 170.32 219.84Z" fill="#262626" stroke="#262626" stroke-width="0.99" stroke-miterlimit="10"/>
<path d="M394.371 215.102H379.874C378.656 215.102 377.668 216.088 377.668 217.306V231.787C377.668 233.005 378.656 233.991 379.874 233.991H394.371C395.589 233.991 396.577 233.005 396.577 231.787V217.306C396.577 216.088 395.589 215.102 394.371 215.102Z" fill="#262626" stroke="#262626" stroke-width="0.99" stroke-miterlimit="10"/>
<path d="M395.628 190.018H245.625V208.657H395.628V190.018Z" fill="#262626" stroke="#262626" stroke-width="0.99" stroke-miterlimit="10"/>
<path d="M412.39 195.996H262.387V203.897H412.39V195.996Z" fill="#262626" stroke="#262626" stroke-width="0.99" stroke-miterlimit="10"/>
<path d="M374.998 195.832H360.763C350.851 195.832 342.812 207.692 342.812 222.318C342.812 236.945 350.851 248.805 360.763 248.805H374.998C384.91 248.805 392.949 236.945 392.949 222.318C392.949 207.692 384.91 195.832 374.998 195.832Z" fill="#7099ED" stroke="#262626" stroke-width="0.99" stroke-miterlimit="10"/>
<path d="M366.697 195.832C356.785 195.832 348.746 207.692 348.746 222.318C348.746 236.945 356.785 248.805 366.697 248.805" stroke="#262626" stroke-width="0.99" stroke-miterlimit="10"/>
<path d="M364.209 195.832C354.296 195.832 346.258 207.692 346.258 222.318C346.258 236.945 354.296 248.805 364.209 248.805" stroke="#262626" stroke-width="0.99" stroke-miterlimit="10"/>
<path d="M369.185 195.832C359.273 195.832 351.234 207.692 351.234 222.318C351.234 236.945 359.273 248.805 369.185 248.805" stroke="#262626" stroke-width="0.99" stroke-miterlimit="10"/>
<path d="M371.674 195.832C361.761 195.832 353.723 207.692 353.723 222.318C353.723 236.945 361.761 248.805 371.674 248.805" stroke="#262626" stroke-width="0.99" stroke-miterlimit="10"/>
<path d="M375.496 246.623C384.593 246.623 391.968 235.741 391.968 222.318C391.968 208.894 384.593 198.012 375.496 198.012C366.398 198.012 359.023 208.894 359.023 222.318C359.023 235.741 366.398 246.623 375.496 246.623Z" stroke="#262626" stroke-width="0.99" stroke-miterlimit="10"/>
<path d="M376.434 239.528C382.877 239.528 388.099 231.823 388.099 222.319C388.099 212.814 382.877 205.109 376.434 205.109C369.992 205.109 364.77 212.814 364.77 222.319C364.77 231.823 369.992 239.528 376.434 239.528Z" fill="white" stroke="#262626" stroke-width="0.99" stroke-miterlimit="10"/>
<path d="M377.123 237.073C382.645 237.073 387.122 230.467 387.122 222.318C387.122 214.169 382.645 207.562 377.123 207.562C371.601 207.562 367.125 214.169 367.125 222.318C367.125 230.467 371.601 237.073 377.123 237.073Z" stroke="#262626" stroke-width="0.99" stroke-miterlimit="10"/>
<path d="M376.226 233.526C375.788 233.526 375.436 233.175 375.436 232.737C375.436 232.299 375.788 231.944 376.226 231.944C376.66 231.944 377.09 231.873 377.513 231.737C377.927 231.6 378.373 231.83 378.51 232.245C378.647 232.659 378.416 233.104 378.002 233.241C377.423 233.429 376.828 233.522 376.23 233.526H376.226ZM372.083 231.635C371.88 231.635 371.673 231.557 371.52 231.401C371.133 231.01 370.773 230.56 370.448 230.072C370.206 229.708 370.307 229.216 370.671 228.978C371.035 228.735 371.528 228.837 371.766 229.2C372.036 229.607 372.33 229.97 372.647 230.291C372.952 230.603 372.948 231.104 372.639 231.408C372.486 231.561 372.283 231.635 372.083 231.635ZM381.303 230.385C381.151 230.385 380.998 230.342 380.865 230.252C380.501 230.009 380.403 229.517 380.646 229.154C380.904 228.767 381.143 228.345 381.354 227.899C381.542 227.505 382.015 227.337 382.41 227.524C382.805 227.712 382.973 228.184 382.786 228.579C382.543 229.095 382.265 229.583 381.964 230.033C381.812 230.259 381.561 230.385 381.303 230.385ZM369.419 226.106C369.048 226.106 368.719 225.844 368.645 225.465C368.543 224.937 368.465 224.394 368.41 223.851C368.367 223.417 368.688 223.03 369.122 222.987C369.56 222.944 369.944 223.265 369.987 223.698C370.033 224.191 370.104 224.683 370.198 225.16C370.28 225.59 370.002 226.004 369.572 226.086C369.521 226.098 369.47 226.102 369.419 226.102V226.106ZM383.279 224.546C383.251 224.546 383.224 224.546 383.2 224.543C382.766 224.5 382.449 224.113 382.492 223.679C382.539 223.194 382.567 222.698 382.567 222.206V222.167C382.567 221.729 382.923 221.377 383.357 221.377C383.791 221.377 384.147 221.733 384.147 222.167V222.206C384.147 222.753 384.12 223.3 384.065 223.835C384.026 224.242 383.681 224.546 383.279 224.546ZM369.415 219.92C369.365 219.92 369.314 219.916 369.263 219.904C368.833 219.822 368.555 219.408 368.637 218.978C368.743 218.431 368.876 217.896 369.036 217.388C369.165 216.969 369.607 216.735 370.026 216.864C370.444 216.993 370.679 217.434 370.55 217.853C370.409 218.31 370.288 218.79 370.194 219.279C370.12 219.658 369.791 219.92 369.419 219.92H369.415ZM382.629 218.364C382.297 218.364 381.988 218.153 381.878 217.821C381.722 217.352 381.538 216.899 381.334 216.473C381.147 216.078 381.311 215.606 381.706 215.418C382.101 215.23 382.574 215.395 382.762 215.789C382.993 216.274 383.204 216.79 383.38 217.325C383.517 217.739 383.294 218.189 382.88 218.325C382.797 218.353 382.711 218.364 382.629 218.364ZM372.056 214.379C371.856 214.379 371.657 214.304 371.504 214.156C371.191 213.851 371.184 213.351 371.489 213.038C371.903 212.612 372.353 212.245 372.83 211.94C373.198 211.706 373.687 211.815 373.922 212.182C374.156 212.55 374.047 213.038 373.679 213.273C373.304 213.511 372.948 213.8 372.619 214.14C372.463 214.3 372.259 214.379 372.052 214.379H372.056ZM379.117 213.363C378.968 213.363 378.815 213.32 378.682 213.234C378.295 212.98 377.888 212.784 377.481 212.655C377.063 212.522 376.832 212.081 376.965 211.663C377.098 211.245 377.54 211.014 377.959 211.147C378.506 211.319 379.042 211.577 379.551 211.913C379.914 212.151 380.016 212.644 379.778 213.007C379.625 213.238 379.375 213.363 379.117 213.363Z" fill="#262626"/>
<path d="M376.867 230.588C379.736 230.588 382.061 226.886 382.061 222.319C382.061 217.753 379.736 214.051 376.867 214.051C373.998 214.051 371.672 217.753 371.672 222.319C371.672 226.886 373.998 230.588 376.867 230.588Z" stroke="#262626" stroke-width="0.99" stroke-miterlimit="10"/>
<path d="M376.756 224.937C377.451 224.937 378.015 223.814 378.015 222.429C378.015 221.043 377.451 219.92 376.756 219.92C376.06 219.92 375.496 221.043 375.496 222.429C375.496 223.814 376.06 224.937 376.756 224.937Z" fill="white" stroke="#262626" stroke-width="0.99" stroke-miterlimit="10"/>
<path d="M376.173 223.772C376.547 223.772 376.85 223.171 376.85 222.428C376.85 221.686 376.547 221.084 376.173 221.084C375.799 221.084 375.496 221.686 375.496 222.428C375.496 223.171 375.799 223.772 376.173 223.772Z" fill="#262626" stroke="#262626" stroke-width="0.99" stroke-miterlimit="10"/>
<path d="M134.599 149.59H137.384C140.02 149.59 142.156 147.455 142.156 144.822V130.356C142.156 127.723 140.02 125.589 137.384 125.589H134.599C131.963 125.589 129.826 127.723 129.826 130.356V144.822C129.826 147.455 131.963 149.59 134.599 149.59Z" fill="#7099ED" stroke="#262626" stroke-width="0.99" stroke-miterlimit="10"/>
<path d="M127.02 130.351V144.822C127.02 147.025 128.522 148.882 130.56 149.425C130.951 149.53 131.362 149.585 131.788 149.585H134.573C137.21 149.585 139.345 147.451 139.345 144.822V130.351C139.345 127.721 137.21 125.584 134.573 125.584H131.788C129.155 125.584 127.02 127.721 127.02 130.351Z" fill="#7099ED" stroke="#262626" stroke-width="0.99" stroke-miterlimit="10"/>
<path d="M127.02 138.965V144.822C127.02 147.026 128.522 148.883 130.56 149.426V141.204C130.56 139.973 129.55 138.965 128.314 138.965H127.02Z" fill="white" stroke="#262626" stroke-width="0.99" stroke-miterlimit="10"/>
<path d="M344.144 198.219H295.839C293.246 198.219 291.145 200.318 291.145 202.908V217.831C291.145 220.421 293.246 222.521 295.839 222.521H344.144C346.737 222.521 348.839 220.421 348.839 217.831V202.908C348.839 200.318 346.737 198.219 344.144 198.219Z" fill="#7099ED" stroke="#262626" stroke-width="0.99" stroke-miterlimit="10"/>
<path d="M307.107 198.219H280.026C277.434 198.219 275.332 200.318 275.332 202.908V217.831C275.332 220.421 277.434 222.521 280.026 222.521H307.107C309.699 222.521 311.801 220.421 311.801 217.831V202.908C311.801 200.318 309.699 198.219 307.107 198.219Z" fill="#262626" stroke="#262626" stroke-width="0.99" stroke-miterlimit="10"/>
<path d="M285.317 222.712H99.9243C97.4208 222.712 95.3867 220.68 95.3867 218.176V189.438C95.3867 186.14 96.0322 182.905 97.2565 179.904C98.0623 177.934 99.1185 176.062 100.405 174.339C100.773 173.843 101.16 173.362 101.567 172.893C101.712 172.725 101.861 172.561 102.009 172.397L129.02 142.878L132.912 138.627L165.195 103.348C165.911 102.567 166.654 101.82 167.429 101.113C168.348 100.265 169.307 99.4717 170.3 98.7293C176.602 94.0166 184.308 91.4141 192.3 91.4141H273.867L285.317 222.712Z" fill="white" stroke="#262626" stroke-width="0.99" stroke-miterlimit="10"/>
<path d="M265.636 182.021H196.152V222.716H265.636V182.021Z" fill="#262626" stroke="#262626" stroke-width="0.99" stroke-miterlimit="10"/>
<path d="M238.994 195.832H224.76C214.847 195.832 206.809 207.692 206.809 222.318C206.809 236.945 214.847 248.805 224.76 248.805H238.994C248.907 248.805 256.945 236.945 256.945 222.318C256.945 207.692 248.907 195.832 238.994 195.832Z" fill="#7099ED" stroke="#262626" stroke-width="0.99" stroke-miterlimit="10"/>
<path d="M230.697 195.832C220.785 195.832 212.746 207.692 212.746 222.318C212.746 236.945 220.785 248.805 230.697 248.805" stroke="#262626" stroke-width="0.99" stroke-miterlimit="10"/>
<path d="M228.209 195.832C218.296 195.832 210.258 207.692 210.258 222.318C210.258 236.945 218.296 248.805 228.209 248.805" stroke="#262626" stroke-width="0.99" stroke-miterlimit="10"/>
<path d="M233.181 195.832C223.269 195.832 215.23 207.692 215.23 222.318C215.23 236.945 223.269 248.805 233.181 248.805" stroke="#262626" stroke-width="0.99" stroke-miterlimit="10"/>
<path d="M235.67 195.832C225.757 195.832 217.719 207.692 217.719 222.318C217.719 236.945 225.757 248.805 235.67 248.805" stroke="#262626" stroke-width="0.99" stroke-miterlimit="10"/>
<path d="M239.496 246.623C248.593 246.623 255.968 235.741 255.968 222.318C255.968 208.894 248.593 198.012 239.496 198.012C230.398 198.012 223.023 208.894 223.023 222.318C223.023 235.741 230.398 246.623 239.496 246.623Z" stroke="#262626" stroke-width="0.99" stroke-miterlimit="10"/>
<path d="M240.43 239.528C246.873 239.528 252.095 231.823 252.095 222.319C252.095 212.814 246.873 205.109 240.43 205.109C233.988 205.109 228.766 212.814 228.766 222.319C228.766 231.823 233.988 239.528 240.43 239.528Z" fill="white" stroke="#262626" stroke-width="0.99" stroke-miterlimit="10"/>
<path d="M241.119 237.073C246.641 237.073 251.118 230.467 251.118 222.318C251.118 214.169 246.641 207.562 241.119 207.562C235.598 207.562 231.121 214.169 231.121 222.318C231.121 230.467 235.598 237.073 241.119 237.073Z" stroke="#262626" stroke-width="0.99" stroke-miterlimit="10"/>
<path d="M240.226 233.526C239.788 233.526 239.436 233.175 239.436 232.737C239.436 232.299 239.788 231.944 240.226 231.944C240.66 231.944 241.09 231.873 241.513 231.737C241.927 231.6 242.373 231.83 242.51 232.245C242.647 232.659 242.416 233.104 242.002 233.241C241.423 233.429 240.828 233.522 240.23 233.526H240.226ZM236.083 231.635C235.88 231.635 235.673 231.557 235.52 231.401C235.133 231.01 234.773 230.56 234.448 230.072C234.206 229.708 234.307 229.216 234.671 228.978C235.035 228.735 235.528 228.837 235.766 229.2C236.036 229.607 236.33 229.97 236.647 230.291C236.952 230.603 236.948 231.104 236.639 231.408C236.486 231.561 236.283 231.635 236.083 231.635ZM245.303 230.385C245.151 230.385 244.998 230.342 244.865 230.252C244.501 230.009 244.403 229.517 244.646 229.154C244.904 228.767 245.143 228.345 245.354 227.899C245.542 227.505 246.015 227.337 246.41 227.524C246.805 227.712 246.973 228.184 246.786 228.579C246.543 229.095 246.265 229.583 245.964 230.033C245.812 230.259 245.561 230.385 245.303 230.385ZM233.419 226.106C233.048 226.106 232.719 225.844 232.645 225.465C232.543 224.937 232.465 224.394 232.41 223.851C232.367 223.417 232.688 223.03 233.122 222.987C233.56 222.944 233.944 223.265 233.987 223.698C234.033 224.191 234.104 224.683 234.198 225.16C234.28 225.59 234.002 226.004 233.572 226.086C233.521 226.098 233.47 226.102 233.419 226.102V226.106ZM247.279 224.546C247.251 224.546 247.224 224.546 247.2 224.543C246.766 224.5 246.449 224.113 246.492 223.679C246.539 223.194 246.567 222.698 246.567 222.206V222.167C246.567 221.729 246.923 221.377 247.357 221.377C247.791 221.377 248.147 221.733 248.147 222.167V222.206C248.147 222.753 248.12 223.3 248.065 223.835C248.026 224.242 247.681 224.546 247.279 224.546ZM233.415 219.92C233.365 219.92 233.314 219.916 233.263 219.904C232.833 219.822 232.555 219.408 232.637 218.978C232.743 218.431 232.876 217.896 233.036 217.388C233.165 216.969 233.607 216.735 234.026 216.864C234.444 216.993 234.679 217.434 234.55 217.853C234.409 218.31 234.288 218.79 234.194 219.279C234.12 219.658 233.791 219.92 233.419 219.92H233.415ZM246.629 218.364C246.297 218.364 245.988 218.153 245.878 217.821C245.722 217.352 245.538 216.899 245.334 216.473C245.147 216.078 245.311 215.606 245.706 215.418C246.101 215.23 246.574 215.395 246.762 215.789C246.993 216.274 247.204 216.79 247.38 217.325C247.517 217.739 247.294 218.189 246.88 218.325C246.797 218.353 246.711 218.364 246.629 218.364ZM236.056 214.379C235.856 214.379 235.657 214.304 235.504 214.156C235.191 213.851 235.184 213.351 235.489 213.038C235.903 212.612 236.353 212.245 236.83 211.94C237.198 211.706 237.687 211.815 237.922 212.182C238.156 212.55 238.047 213.038 237.679 213.273C237.304 213.511 236.948 213.8 236.619 214.14C236.463 214.3 236.259 214.379 236.052 214.379H236.056ZM243.117 213.363C242.968 213.363 242.815 213.32 242.682 213.234C242.295 212.98 241.888 212.784 241.481 212.655C241.063 212.522 240.832 212.081 240.965 211.663C241.098 211.245 241.54 211.014 241.959 211.147C242.506 211.319 243.042 211.577 243.551 211.913C243.915 212.151 244.016 212.644 243.778 213.007C243.625 213.238 243.375 213.363 243.117 213.363Z" fill="#262626"/>
<path d="M240.867 230.588C243.736 230.588 246.061 226.886 246.061 222.319C246.061 217.753 243.736 214.051 240.867 214.051C237.998 214.051 235.672 217.753 235.672 222.319C235.672 226.886 237.998 230.588 240.867 230.588Z" stroke="#262626" stroke-width="0.99" stroke-miterlimit="10"/>
<path d="M240.756 224.937C241.451 224.937 242.015 223.814 242.015 222.429C242.015 221.043 241.451 219.92 240.756 219.92C240.06 219.92 239.496 221.043 239.496 222.429C239.496 223.814 240.06 224.937 240.756 224.937Z" fill="white" stroke="#262626" stroke-width="0.99" stroke-miterlimit="10"/>
<path d="M240.169 223.772C240.543 223.772 240.846 223.171 240.846 222.428C240.846 221.686 240.543 221.084 240.169 221.084C239.795 221.084 239.492 221.686 239.492 222.428C239.492 223.171 239.795 223.772 240.169 223.772Z" fill="#262626" stroke="#262626" stroke-width="0.99" stroke-miterlimit="10"/>
<path d="M413.806 153.941H304.242V184.961H413.806V153.941Z" fill="white" stroke="#262626" stroke-width="0.99" stroke-miterlimit="10"/>
<path d="M409.895 181.057V157.854H308.154V181.057H409.895Z" fill="white" stroke="#262626" stroke-width="0.99" stroke-miterlimit="10"/>
<path d="M298.797 104.763V210.098C298.797 213.221 297.663 216.077 295.781 218.281C293.465 220.993 290.019 222.712 286.17 222.712H262.238C260.087 222.712 258.283 221.091 258.06 218.953L256.856 207.496C256.23 201.541 253.405 196.3 249.239 192.553C245.07 188.802 239.558 186.539 233.561 186.539C224.842 186.539 217.148 191.326 213.115 198.516C211.597 201.228 210.596 204.288 210.263 207.558L209.097 218.942C208.878 221.083 207.075 222.712 204.92 222.712H174.788C172.28 222.712 170.25 220.684 170.25 218.18V189.438C170.25 183.131 172.613 177.051 176.873 172.397L203.899 142.878L240.098 103.34C240.81 102.563 241.553 101.82 242.324 101.113C249.071 94.9036 257.943 91.4141 267.194 91.4141H285.435C292.816 91.4141 298.797 97.3889 298.797 104.763Z" fill="white" stroke="#262626" stroke-width="0.99" stroke-miterlimit="10"/>
<path d="M187.179 174.34V214.53H95.3867V189.439C95.3867 186.141 96.1573 182.905 97.6242 179.904C98.5865 177.935 99.85 176.063 101.391 174.34H187.179Z" fill="#7099ED" stroke="#262626" stroke-width="0.99" stroke-miterlimit="10"/>
<path d="M240.126 103.305L240.095 103.341L216.925 128.647L212.904 133.039L207.15 139.323C207.037 139.444 206.923 139.565 206.802 139.682C204.76 141.726 201.979 142.879 199.072 142.879H132.291C131.04 142.879 130.382 141.39 131.227 140.464L132.909 138.627L148.983 121.062L163.969 104.685L165.193 103.348L165.212 103.325C166.507 101.914 168.33 101.113 170.243 101.113H239.16C240.298 101.113 240.897 102.465 240.126 103.305Z" fill="#262626" stroke="#262626" stroke-width="0.99" stroke-miterlimit="10"/>
<path d="M270.23 101.113V142.879H207.999C206.426 142.879 205.605 141.015 206.665 139.854L240.094 103.341C241.393 101.922 243.231 101.113 245.16 101.113H270.226H270.23Z" fill="#7099ED" stroke="#262626" stroke-width="0.99" stroke-miterlimit="10"/>
<path d="M213.109 198.516C211.591 201.228 210.59 204.287 210.258 207.558L209.092 218.941C208.873 221.083 207.07 222.712 204.914 222.712H95.515C94.2358 222.712 93.1953 221.673 93.1953 220.391V200.837C93.1953 199.555 94.2358 198.516 95.515 198.516H213.109Z" fill="#7099ED" stroke="#262626" stroke-width="0.99" stroke-miterlimit="10"/>
<path d="M184.861 190.017H171.526C166.515 190.017 163.12 184.918 165.056 180.299L166.425 177.036C167.333 174.875 169.257 173.312 171.557 172.866L186.715 169.928C192.465 168.814 196.968 174.812 194.288 180.014L191.096 186.215C189.895 188.548 187.486 190.017 184.857 190.017H184.861Z" fill="white" stroke="#262626" stroke-width="0.99" stroke-miterlimit="10"/>
<path d="M101.466 190.018H95.3867V189.44C95.3867 183.355 97.5851 177.478 101.567 172.895C103.809 173.371 105.678 174.919 106.563 177.033L107.936 180.3C109.872 184.915 106.476 190.018 101.466 190.018Z" fill="white" stroke="#262626" stroke-width="0.99" stroke-miterlimit="10"/>
<path d="M147.107 216.527H123.026C121.012 216.527 119.302 215.046 119.013 213.053L114.991 185.133C114.639 182.69 116.537 180.506 119.005 180.506H151.128C153.596 180.506 155.489 182.69 155.141 185.133L151.12 213.053C150.835 215.046 149.125 216.527 147.107 216.527Z" fill="#7099ED" stroke="#262626" stroke-width="0.99" stroke-miterlimit="10"/>
<path d="M123.023 214.181C122.182 214.181 121.454 213.552 121.333 212.72L117.312 184.8C117.214 184.127 117.519 183.658 117.711 183.44C117.902 183.221 118.321 182.85 119.002 182.85H151.125C151.801 182.85 152.224 183.217 152.416 183.44C152.607 183.658 152.912 184.127 152.815 184.8L148.793 212.72C148.672 213.552 147.948 214.181 147.104 214.181H123.023Z" fill="#7099ED" stroke="#262626" stroke-width="0.99" stroke-miterlimit="10"/>
<path d="M117.504 186.406H152.479" stroke="#262626" stroke-width="0.99" stroke-miterlimit="10"/>
<path d="M118.098 190.498H151.907" stroke="#262626" stroke-width="0.99" stroke-miterlimit="10"/>
<path d="M118.688 194.586H151.335" stroke="#262626" stroke-width="0.99" stroke-miterlimit="10"/>
<path d="M119.285 198.672H150.767" stroke="#262626" stroke-width="0.99" stroke-miterlimit="10"/>
<path d="M119.879 202.76H150.195" stroke="#262626" stroke-width="0.99" stroke-miterlimit="10"/>
<path d="M120.469 206.848H149.623" stroke="#262626" stroke-width="0.99" stroke-miterlimit="10"/>
<path d="M121.062 210.936H149.051" stroke="#262626" stroke-width="0.99" stroke-miterlimit="10"/>
<path d="M135 201C137.761 201 140 197.418 140 193C140 188.582 137.761 185 135 185C132.239 185 130 188.582 130 193C130 197.418 132.239 201 135 201Z" fill="#FF8B63" stroke="#262626" stroke-width="0.99" stroke-miterlimit="10"/>
<path d="M251.901 104.31L229.694 128.709C226.659 132.047 224.98 136.349 224.98 140.808V185.211H242.352L252.374 192.323L259.357 203.237L262.952 219.845H281.622C286.152 219.845 289.825 216.175 289.825 211.65V105.83C289.825 103.227 287.658 101.113 284.986 101.113H259.188C256.403 101.113 253.747 102.278 251.897 104.31H251.901Z" fill="white" stroke="#262626" stroke-width="0.99" stroke-miterlimit="10"/>
<path d="M295.779 218.281C293.463 220.993 290.017 222.712 286.168 222.712H262.236C260.084 222.712 258.281 221.091 258.058 218.953L256.853 207.496C256.227 201.54 253.403 196.3 249.237 192.553C245.067 188.801 239.556 186.539 233.559 186.539C224.84 186.539 217.145 191.326 213.112 198.516H208.215C208.543 197.781 208.907 197.062 209.302 196.355C214.231 187.566 223.549 182.107 233.618 182.107C240.518 182.107 247.14 184.647 252.265 189.259C257.385 193.866 260.605 200.18 261.324 207.035L262.506 218.281H295.779Z" fill="#7099ED" stroke="#262626" stroke-width="0.99" stroke-miterlimit="10"/>
<path d="M281.421 109.965V137.713C281.421 140.265 279.297 142.34 276.672 142.34H239.514C236.89 142.34 234.766 140.265 234.766 137.713V133.911C234.766 132.766 235.2 131.664 235.982 130.816L237.715 128.94L258.111 106.87C259.014 105.897 260.294 105.338 261.639 105.338H276.672C279.297 105.338 281.421 107.413 281.421 109.965Z" fill="#262626" stroke="#262626" stroke-width="0.99" stroke-miterlimit="10"/>
<path d="M289.832 142.879H291.753C292.758 142.879 293.572 143.692 293.572 144.696V152.195C293.572 153.199 292.758 154.012 291.753 154.012H289.832" stroke="#262626" stroke-width="0.99" stroke-miterlimit="10"/>
<path d="M298.796 175.629H206.17C203.885 175.629 202.035 174.324 202.035 172.71C202.035 171.1 203.885 169.791 206.17 169.791H298.796" stroke="#262626" stroke-width="0.99" stroke-miterlimit="10"/>
<path d="M265.637 195.832C265.637 195.832 298.796 196.203 298.796 195.832" stroke="#262626" stroke-width="0.99" stroke-miterlimit="10"/>
<path d="M160.199 172.343C165.108 172.343 169.787 170.245 173.049 166.576L195.088 141.785" stroke="#262626" stroke-width="0.99" stroke-miterlimit="10"/>
<path d="M135.911 142.328L116.559 163.981C113.669 167.216 115.969 172.343 120.307 172.343" stroke="#262626" stroke-width="0.99" stroke-miterlimit="10"/>
<path d="M287.148 171.299H273.531V172.709H287.148V171.299Z" fill="#262626"/>
<path d="M243.195 142.339H239.514C236.89 142.339 234.766 140.264 234.766 137.712V133.91C234.766 132.765 235.2 131.663 235.982 130.815L237.715 128.939L243.195 142.339Z" fill="#7099ED" stroke="#262626" stroke-width="0.99" stroke-miterlimit="10"/>
<path d="M243.407 135.584H239.28C238.056 135.584 237.062 136.576 237.062 137.8V138.831C237.062 140.055 238.056 141.047 239.28 141.047H243.407C244.632 141.047 245.625 140.055 245.625 138.831V137.8C245.625 136.576 244.632 135.584 243.407 135.584Z" fill="#7099ED" stroke="#262626" stroke-width="0.99" stroke-miterlimit="10"/>
<path d="M270.227 101.113H298.594" stroke="#262626" stroke-width="0.99" stroke-miterlimit="10"/>
<path d="M348.84 209.846H309.379" stroke="#262626" stroke-width="0.99" stroke-miterlimit="10"/>
<path d="M348.84 212.213H309.379" stroke="#262626" stroke-width="0.99" stroke-miterlimit="10"/>
<path d="M317.737 198.219H315.633C318.215 198.219 320.327 200.329 320.327 202.908V217.831C320.327 220.411 318.215 222.521 315.633 222.521H317.737C320.319 222.521 322.431 220.411 322.431 217.831V202.908C322.431 200.329 320.319 198.219 317.737 198.219Z" fill="white" stroke="#262626" stroke-width="0.99" stroke-miterlimit="10"/>
<path d="M338.937 198.219H336.832C339.414 198.219 341.526 200.329 341.526 202.908V217.831C341.526 220.411 339.414 222.521 336.832 222.521H338.937C341.518 222.521 343.631 220.411 343.631 217.831V202.908C343.631 200.329 341.518 198.219 338.937 198.219Z" fill="white" stroke="#262626" stroke-width="0.99" stroke-miterlimit="10"/>
<path d="M252.456 125.588H249.671C247.035 125.588 244.898 127.722 244.898 130.355V144.822C244.898 147.454 247.035 149.589 249.671 149.589H252.456C255.092 149.589 257.228 147.454 257.228 144.822V130.355C257.228 127.722 255.092 125.588 252.456 125.588Z" fill="#7099ED" stroke="#262626" stroke-width="0.99" stroke-miterlimit="10"/>
<path d="M253.877 130.351V144.822C253.877 147.025 252.375 148.882 250.337 149.425C249.945 149.53 249.535 149.585 249.108 149.585H246.323C243.687 149.585 241.551 147.451 241.551 144.822V130.351C241.551 127.721 243.687 125.584 246.323 125.584H249.108C251.741 125.584 253.877 127.721 253.877 130.351Z" fill="#7099ED" stroke="#262626" stroke-width="0.99" stroke-miterlimit="10"/>
<path d="M253.876 138.965V144.822C253.876 147.026 252.374 148.883 250.336 149.426V141.204C250.336 139.973 251.345 138.965 252.581 138.965H253.876Z" fill="white" stroke="#262626" stroke-width="0.99" stroke-miterlimit="10"/>
<path d="M200.938 219.842H164.117C161.281 219.842 158.984 217.548 158.984 214.715C158.984 211.882 161.281 209.588 164.117 209.588H205.432L204.787 216.348C204.599 218.329 202.933 219.846 200.938 219.846V219.842Z" stroke="#262626" stroke-width="0.99" stroke-miterlimit="10"/>
<path d="M163.07 217.883C164.544 217.883 165.738 216.464 165.738 214.714C165.738 212.964 164.544 211.545 163.07 211.545C161.597 211.545 160.402 212.964 160.402 214.714C160.402 216.464 161.597 217.883 163.07 217.883Z" fill="white" stroke="#262626" stroke-width="0.99" stroke-miterlimit="10"/>
<path d="M93.1953 219.842H107.594C110.43 219.842 112.727 217.548 112.727 214.715C112.727 211.882 110.43 209.588 107.594 209.588H93.1953" stroke="#262626" stroke-width="0.99" stroke-miterlimit="10"/>
<path d="M108.637 217.883C110.11 217.883 111.304 216.464 111.304 214.714C111.304 212.964 110.11 211.545 108.637 211.545C107.163 211.545 105.969 212.964 105.969 214.714C105.969 216.464 107.163 217.883 108.637 217.883Z" fill="white" stroke="#262626" stroke-width="0.99" stroke-miterlimit="10"/>
<path d="M169.308 200.818H168.31C167.742 200.818 167.281 201.278 167.281 201.846V205.82C167.281 206.388 167.742 206.848 168.31 206.848H169.308C169.876 206.848 170.336 206.388 170.336 205.82V201.846C170.336 201.278 169.876 200.818 169.308 200.818Z" fill="#262626" stroke="#262626" stroke-width="0.99" stroke-miterlimit="10"/>
<path d="M169.414 206.254H167.008C165.776 206.254 164.677 205.371 164.52 204.151C164.332 202.674 165.482 201.412 166.922 201.412H169.41C169.918 201.412 170.329 201.822 170.329 202.33C170.329 202.838 169.918 203.249 169.41 203.249H166.953C166.664 203.249 166.394 203.448 166.347 203.733C166.288 204.097 166.57 204.413 166.922 204.413H169.41C169.918 204.413 170.329 204.824 170.329 205.332C170.329 205.84 169.918 206.25 169.41 206.25L169.414 206.254Z" fill="white" stroke="#262626" stroke-width="0.99" stroke-miterlimit="10"/>
<path d="M104.847 200.818H103.849C103.281 200.818 102.82 201.278 102.82 201.846V205.82C102.82 206.388 103.281 206.848 103.849 206.848H104.847C105.415 206.848 105.875 206.388 105.875 205.82V201.846C105.875 201.278 105.415 200.818 104.847 200.818Z" fill="#262626" stroke="#262626" stroke-width="0.99" stroke-miterlimit="10"/>
<path d="M104.957 206.254H102.551C101.319 206.254 100.22 205.371 100.063 204.151C99.8753 202.674 101.025 201.412 102.465 201.412H104.953C105.461 201.412 105.872 201.822 105.872 202.33C105.872 202.838 105.461 203.249 104.953 203.249H102.496C102.207 203.249 101.937 203.448 101.89 203.733C101.831 204.097 102.113 204.413 102.465 204.413H104.953C105.461 204.413 105.872 204.824 105.872 205.332C105.872 205.84 105.461 206.25 104.953 206.25L104.957 206.254Z" fill="white" stroke="#262626" stroke-width="0.99" stroke-miterlimit="10"/>
<path d="M402.282 184.965H298.797V191.479H402.282V184.965Z" fill="#7099ED" stroke="#262626" stroke-width="0.99" stroke-miterlimit="10"/>
<path d="M409.892 162.023H308.152V166.455H409.892V162.023Z" fill="white" stroke="#262626" stroke-width="0.99" stroke-miterlimit="10"/>
<path d="M309.635 162.023H308.152V166.455H309.635V162.023Z" fill="white" stroke="#262626" stroke-width="0.99" stroke-miterlimit="10"/>
<path d="M409.892 172.002H308.152V176.433H409.892V172.002Z" fill="white" stroke="#262626" stroke-width="0.99" stroke-miterlimit="10"/>
<path d="M309.635 172.002H308.152V176.433H309.635V172.002Z" fill="white" stroke="#262626" stroke-width="0.99" stroke-miterlimit="10"/>
<path d="M176.191 198.516V201.431C176.191 202.791 177.295 203.893 178.656 203.893H210.701" stroke="#262626" stroke-width="0.99" stroke-miterlimit="10"/>
<path d="M98.9103 198.516V201.431C98.9103 202.791 97.8072 203.893 96.446 203.893H93.1953" stroke="#262626" stroke-width="0.99" stroke-miterlimit="10"/>
<path d="M206.804 139.683C204.762 141.727 201.98 142.879 199.074 142.879H172.94L148.984 121.063L163.97 104.686L206.804 139.683Z" fill="white" stroke="#262626" stroke-width="0.99" stroke-miterlimit="10"/>
<path d="M216.929 128.647L212.908 133.039L175.465 101.113H183.234L216.929 128.647Z" fill="white" stroke="#262626" stroke-width="0.99" stroke-miterlimit="10"/>
<path d="M256.746 108.346L281.421 128.22V138.126L251.477 114.047L256.746 108.346Z" fill="white" stroke="#262626" stroke-width="0.99" stroke-miterlimit="10"/>
<path d="M314.778 184.965H311.184V190.017H314.778V184.965Z" fill="#7099ED" stroke="#262626" stroke-width="0.99" stroke-miterlimit="10"/>
<path d="M315.876 184.965H312.281V190.017H315.876V184.965Z" fill="#7099ED" stroke="#262626" stroke-width="0.99" stroke-miterlimit="10"/>
<path d="M353.845 184.965H350.25V190.017H353.845V184.965Z" fill="#7099ED" stroke="#262626" stroke-width="0.99" stroke-miterlimit="10"/>
<path d="M354.943 184.965H351.348V190.017H354.943V184.965Z" fill="#7099ED" stroke="#262626" stroke-width="0.99" stroke-miterlimit="10"/>
<path d="M388.372 184.965H384.777V190.017H388.372V184.965Z" fill="#7099ED" stroke="#262626" stroke-width="0.99" stroke-miterlimit="10"/>
<path d="M389.47 184.965H385.875V190.017H389.47V184.965Z" fill="#7099ED" stroke="#262626" stroke-width="0.99" stroke-miterlimit="10"/>
<path d="M145.156 150.535L146.541 149.046C148.223 147.237 150.586 146.205 153.062 146.205H164.648C166.964 146.205 168.122 148.999 166.487 150.636L165.392 151.731" stroke="#262626" stroke-width="0.99" stroke-miterlimit="10"/>
<path d="M263.417 105.342H261.352V142.34H263.417V105.342Z" fill="white" stroke="#262626" stroke-width="0.99" stroke-miterlimit="10"/>
</g>
<rect x="43" y="33" width="221" height="39" rx="8" fill="#262626"/>
<path d="M52.6113 59V44.7812H62.7676V46.8711H55.3262V59H52.6113ZM64.6621 59V44.7812H70.8633C72.6927 44.7812 74.0924 45.1719 75.0625 45.9531C76.0391 46.7344 76.5273 47.877 76.5273 49.3809C76.5273 50.8522 76.0423 51.9948 75.0723 52.8086C74.1022 53.6224 72.696 54.0163 70.8535 53.9902H67.377V59H64.6621ZM67.377 51.9785H70.6191C71.791 51.9785 72.6178 51.7539 73.0996 51.3047C73.5814 50.849 73.8223 50.2109 73.8223 49.3906C73.8223 48.5638 73.5814 47.9323 73.0996 47.4961C72.6178 47.0534 71.791 46.832 70.6191 46.832H67.377V51.9785ZM79.5645 56.832C79.7467 56.8841 79.9453 56.9264 80.1602 56.959C80.375 56.9915 80.5931 57.0078 80.8145 57.0078C81.3743 57.0078 81.8464 56.8809 82.2305 56.627C82.6211 56.373 83.0052 55.9108 83.3828 55.2402L83.3535 55.3184L77.084 44.7812H80.1992L84.0566 51.5977C84.2389 51.9362 84.3659 52.1901 84.4375 52.3594C84.5156 52.5221 84.597 52.7142 84.6816 52.9355H84.7402C84.8249 52.7207 84.903 52.5319 84.9746 52.3691C85.0527 52.1999 85.1797 51.946 85.3555 51.6074L88.9297 44.7812H91.6738L85.9902 55.1816C85.1569 56.7116 84.418 57.7793 83.7734 58.3848C83.1289 58.9837 82.2565 59.2832 81.1562 59.2832C80.7526 59.2832 80.4336 59.2669 80.1992 59.2344C79.9714 59.2018 79.7598 59.153 79.5645 59.0879V56.832ZM98.8027 57.2031C100.007 57.2031 100.893 56.9948 101.459 56.5781C102.025 56.1615 102.312 55.5723 102.318 54.8105C102.318 54.1074 102.077 53.5703 101.596 53.1992C101.12 52.8281 100.395 52.6426 99.418 52.6426H96.5762V50.6406H99.252C100.17 50.6406 100.847 50.4681 101.283 50.123C101.719 49.778 101.938 49.2767 101.938 48.6191C101.938 47.9616 101.677 47.457 101.156 47.1055C100.635 46.7539 99.8249 46.5781 98.7246 46.5781C97.5658 46.5781 96.6901 46.7832 96.0977 47.1934C95.5052 47.6035 95.2057 48.235 95.1992 49.0879V49.2344H92.5039V49.0977C92.5104 47.6523 93.0345 46.526 94.0762 45.7188C95.1243 44.9049 96.6868 44.498 98.7637 44.498C100.645 44.498 102.094 44.8333 103.109 45.5039C104.125 46.168 104.633 47.1283 104.633 48.3848C104.633 49.2376 104.398 49.918 103.93 50.4258C103.467 50.9336 102.895 51.2917 102.211 51.5V51.5391C103.044 51.7344 103.721 52.1152 104.242 52.6816C104.77 53.2415 105.033 53.9772 105.033 54.8887C105.033 56.2754 104.49 57.3561 103.402 58.1309C102.322 58.8991 100.801 59.2832 98.8418 59.2832C96.765 59.2832 95.1602 58.9056 94.0273 58.1504C92.901 57.3952 92.3314 56.1842 92.3184 54.5176V54.3809H95.0137L95.0234 54.5078C95.0234 55.4388 95.3392 56.1224 95.9707 56.5586C96.6022 56.9883 97.5462 57.2031 98.8027 57.2031ZM106.811 52.1445V51.6074C106.811 49.2376 107.501 47.4603 108.881 46.2754C110.261 45.084 112.025 44.4883 114.174 44.4883C116.316 44.4883 118.08 45.084 119.467 46.2754C120.86 47.4603 121.557 49.2376 121.557 51.6074V52.1445C121.557 54.5339 120.86 56.3242 119.467 57.5156C118.08 58.7005 116.316 59.293 114.174 59.293C112.025 59.293 110.261 58.7005 108.881 57.5156C107.501 56.3242 106.811 54.5339 106.811 52.1445ZM109.594 52.3105C109.594 53.9902 110.01 55.2272 110.844 56.0215C111.684 56.8092 112.794 57.2031 114.174 57.2031C115.554 57.2031 116.667 56.8092 117.514 56.0215C118.36 55.2272 118.783 53.9902 118.783 52.3105V51.4609C118.783 49.7812 118.36 48.5508 117.514 47.7695C116.674 46.9818 115.561 46.5879 114.174 46.5879C112.794 46.5879 111.684 46.9818 110.844 47.7695C110.01 48.5508 109.594 49.778 109.594 51.4512V52.3105ZM124.135 59V44.7812H137.191V59H134.477V46.8711H126.85V59H124.135ZM140.424 59V44.7812H151.234V46.8809H143.109V50.6699H150.238V52.7109H143.109V56.9102H151.352V59H140.424ZM153.646 59V44.7812H159.848C161.677 44.7812 163.077 45.1719 164.047 45.9531C165.023 46.7344 165.512 47.877 165.512 49.3809C165.512 50.8522 165.027 51.9948 164.057 52.8086C163.087 53.6224 161.68 54.0163 159.838 53.9902H156.361V59H153.646ZM156.361 51.9785H159.604C160.775 51.9785 161.602 51.7539 162.084 51.3047C162.566 50.849 162.807 50.2109 162.807 49.3906C162.807 48.5638 162.566 47.9323 162.084 47.4961C161.602 47.0534 160.775 46.832 159.604 46.832H156.361V51.9785ZM167.611 59V44.7812H178.422V46.8809H170.297V50.6699H177.426V52.7109H170.297V56.9102H178.539V59H167.611ZM180.834 59V44.7812H186.869C188.562 44.7812 189.883 45.071 190.834 45.6504C191.785 46.2298 192.26 47.1868 192.26 48.5215C192.26 49.3092 192.055 49.9505 191.645 50.4453C191.241 50.9336 190.727 51.2852 190.102 51.5V51.5391C190.883 51.7474 191.514 52.1283 191.996 52.6816C192.484 53.235 192.729 53.9772 192.729 54.9082C192.729 56.2689 192.221 57.291 191.205 57.9746C190.189 58.6582 188.848 59 187.182 59H180.834ZM183.51 57.0469H187.045C188.054 57.0469 188.803 56.8613 189.291 56.4902C189.779 56.1126 190.023 55.543 190.023 54.7812C190.023 54.0651 189.779 53.515 189.291 53.1309C188.803 52.7402 188.054 52.5449 187.045 52.5449H183.51V57.0469ZM183.51 50.709H186.732C187.729 50.709 188.451 50.5365 188.9 50.1914C189.356 49.8464 189.584 49.3516 189.584 48.707C189.584 48.0299 189.359 47.5352 188.91 47.2227C188.461 46.9102 187.735 46.7539 186.732 46.7539H183.51V50.709ZM194.584 52.1445V51.6074C194.584 49.2376 195.274 47.4603 196.654 46.2754C198.035 45.084 199.799 44.4883 201.947 44.4883C204.089 44.4883 205.854 45.084 207.24 46.2754C208.633 47.4603 209.33 49.2376 209.33 51.6074V52.1445C209.33 54.5339 208.633 56.3242 207.24 57.5156C205.854 58.7005 204.089 59.293 201.947 59.293C199.799 59.293 198.035 58.7005 196.654 57.5156C195.274 56.3242 194.584 54.5339 194.584 52.1445ZM197.367 52.3105C197.367 53.9902 197.784 55.2272 198.617 56.0215C199.457 56.8092 200.567 57.2031 201.947 57.2031C203.327 57.2031 204.441 56.8092 205.287 56.0215C206.133 55.2272 206.557 53.9902 206.557 52.3105V51.4609C206.557 49.7812 206.133 48.5508 205.287 47.7695C204.447 46.9818 203.334 46.5879 201.947 46.5879C200.567 46.5879 199.457 46.9818 198.617 47.7695C197.784 48.5508 197.367 49.778 197.367 51.4512V52.3105ZM217.455 57.2031C218.66 57.2031 219.545 56.9948 220.111 56.5781C220.678 56.1615 220.964 55.5723 220.971 54.8105C220.971 54.1074 220.73 53.5703 220.248 53.1992C219.773 52.8281 219.047 52.6426 218.07 52.6426H215.229V50.6406H217.904C218.822 50.6406 219.499 50.4681 219.936 50.123C220.372 49.778 220.59 49.2767 220.59 48.6191C220.59 47.9616 220.329 47.457 219.809 47.1055C219.288 46.7539 218.477 46.5781 217.377 46.5781C216.218 46.5781 215.342 46.7832 214.75 47.1934C214.158 47.6035 213.858 48.235 213.852 49.0879V49.2344H211.156V49.0977C211.163 47.6523 211.687 46.526 212.729 45.7188C213.777 44.9049 215.339 44.498 217.416 44.498C219.298 44.498 220.746 44.8333 221.762 45.5039C222.777 46.168 223.285 47.1283 223.285 48.3848C223.285 49.2376 223.051 49.918 222.582 50.4258C222.12 50.9336 221.547 51.2917 220.863 51.5V51.5391C221.697 51.7344 222.374 52.1152 222.895 52.6816C223.422 53.2415 223.686 53.9772 223.686 54.8887C223.686 56.2754 223.142 57.3561 222.055 58.1309C220.974 58.8991 219.454 59.2832 217.494 59.2832C215.417 59.2832 213.812 58.9056 212.68 58.1504C211.553 57.3952 210.984 56.1842 210.971 54.5176V54.3809H213.666L213.676 54.5078C213.676 55.4388 213.992 56.1224 214.623 56.5586C215.255 56.9883 216.199 57.2031 217.455 57.2031ZM236.146 59L229.604 52.1836L231.576 50.7773L239.477 59H236.146ZM227.465 50.6211H230.131L236.049 44.7812H238.988L230.697 52.7305H227.465V50.6211ZM226.107 59V44.7812H228.822V59H226.107ZM253.93 59H251.273V49.4785C251.273 49.2702 251.277 49.0423 251.283 48.7949C251.29 48.541 251.299 48.3132 251.312 48.1113H251.195C251.098 48.3066 251 48.4987 250.902 48.6875C250.811 48.8763 250.681 49.0814 250.512 49.3027L243.51 59H240.639V44.7812H243.305V54.293C243.305 54.4948 243.298 54.7194 243.285 54.9668C243.279 55.2142 243.272 55.4421 243.266 55.6504H243.402C243.474 55.4876 243.562 55.3021 243.666 55.0938C243.777 54.8854 243.904 54.6803 244.047 54.4785L251.059 44.7812H253.93V59Z" fill="white"/>
</g>
</g>
<defs>
<filter id="filter0_d_1099_26325" x="0.6" y="0.6" width="420.8" height="276.8" filterUnits="userSpaceOnUse" color-interpolation-filters="sRGB">
<feFlood flood-opacity="0" result="BackgroundImageFix"/>
<feColorMatrix in="SourceAlpha" type="matrix" values="0 0 0 0 0 0 0 0 0 0 0 0 0 0 0 0 0 0 127 0" result="hardAlpha"/>
<feOffset dy="10"/>
<feGaussianBlur stdDeviation="9.2"/>
<feComposite in2="hardAlpha" operator="out"/>
<feColorMatrix type="matrix" values="0 0 0 0 0 0 0 0 0 0 0 0 0 0 0 0 0 0 0.15 0"/>
<feBlend mode="normal" in2="BackgroundImageFix" result="effect1_dropShadow_1099_26325"/>
<feBlend mode="normal" in="SourceGraphic" in2="effect1_dropShadow_1099_26325" result="shape"/>
</filter>
<clipPath id="clip0_1099_26325">
<rect x="19" y="9" width="384" height="240" rx="32" fill="white"/>
</clipPath>
<clipPath id="clip1_1099_26325">
<rect width="321" height="233" fill="white" transform="translate(93 16)"/>
</clipPath>
</defs>
</svg>
