<svg width="150" height="93" viewBox="0 0 150 93" fill="none" xmlns="http://www.w3.org/2000/svg">
<path d="M11.8812 69.7405C8.10343 57.1936 4.32603 44.6441 0.548271 32.0972C0.400629 31.606 0.652649 31.1072 1.11876 30.9696C11.1222 28.0296 25.0117 24.2683 41.8536 20.7115C41.8536 20.7115 52.521 18.4587 62.5576 16.7547C65.4295 16.2662 68.8949 15.8526 72.9133 15.5164C73.4727 15.4702 73.8274 14.9182 73.6573 14.3571C72.6161 10.8957 71.5735 7.43534 70.5312 3.97232C70.3836 3.48116 70.6356 2.98241 71.1017 2.84474C78.2135 0.757192 87.6883 -1.82727 99.0335 -4.36909C99.5585 -4.48632 99.8395 -5.04829 99.6381 -5.57781C97.6551 -10.7852 95.672 -15.9926 93.689 -21.2C93.5064 -21.6808 93.7196 -22.1999 94.1719 -22.373C102.158 -25.4283 113.228 -29.3924 126.693 -33.3767C126.693 -33.3767 135.273 -35.9144 143.373 -37.9599C161.629 -42.5689 210.089 -45.7818 274.968 -43.9298C275.82 -43.9055 276.251 -42.8093 275.624 -42.2611C262.52 -30.8114 249.414 -19.3633 236.31 -7.91356C235.703 -7.38423 236.081 -6.32639 236.905 -6.24949C242.417 -5.73759 248.066 -5.17678 253.843 -4.56765C254.694 -4.47685 255.044 -3.35683 254.375 -2.86222C243.967 4.84519 233.56 12.5516 223.151 20.259C222.482 20.7536 222.831 21.8746 223.681 21.9639L223.731 21.9689C224.583 22.0597 224.933 23.1797 224.263 23.6754C217.76 28.4906 211.256 33.3068 204.754 38.1219C204.074 38.6239 204.444 39.763 205.309 39.8307C219.217 40.9075 234.011 42.2577 249.566 43.9062C250.417 43.997 250.767 45.117 250.098 45.6116C231.477 59.4001 212.857 73.1875 194.235 86.9759C194.069 87.1001 193.863 87.1565 193.651 87.1393C172.76 85.3741 142.362 83.4977 109.797 84.1376C89.073 84.5447 74.4582 85.8339 59.7431 88.2294C51.153 89.6269 44.0015 91.1616 38.8497 92.3694C38.3698 92.4811 37.8663 92.1737 37.7168 91.6767C35.3163 83.7043 32.9174 75.7309 30.5169 67.7584C30.3742 67.2805 29.8975 66.9733 29.4295 67.0576C22.8193 68.2327 17.2443 69.4432 13.0152 70.4347C12.5353 70.5464 12.0318 70.2391 11.8823 69.7421L11.8812 69.7405Z" fill="white"/>
</svg>
