<svg width="105" height="152" viewBox="0 0 105 152" fill="none" xmlns="http://www.w3.org/2000/svg">
<path d="M14.3656 116.053C9.67694 101.297 4.98863 86.538 0.30003 71.7818C0.116725 71.2042 0.373899 70.6515 0.88221 70.5324C11.7918 67.9932 26.9528 64.8366 45.3784 62.1643C45.3784 62.1643 57.0488 60.4718 68.0465 59.3575C71.1933 59.0376 74.9978 58.854 79.4153 58.8061C80.0304 58.8001 80.3986 58.1948 80.1876 57.5349C78.8953 53.4641 77.6014 49.3944 76.3077 45.3216C76.1244 44.744 76.3816 44.1913 76.8899 44.0722C84.646 42.2699 94.9874 40.0952 107.393 38.1272C107.967 38.0366 108.254 37.4137 108.01 36.7874C105.606 30.628 103.202 24.4687 100.799 18.3094C100.577 17.7407 100.791 17.1614 101.282 17.0003C109.962 14.1582 122.005 10.5304 136.689 7.08149C136.689 7.08149 146.045 4.88511 154.894 3.21453C174.834 -0.549173 228.143 -0.159001 299.771 7.44428C300.711 7.54399 301.232 8.84175 300.564 9.41973C286.589 21.4895 272.612 33.5573 258.637 45.627C257.99 46.185 258.451 47.434 259.363 47.592C265.463 48.646 271.716 49.7677 278.112 50.9559C279.055 51.1322 279.488 52.4505 278.771 52.9632C267.613 60.9541 256.456 68.944 245.298 76.9348C244.581 77.4476 245.012 78.767 245.954 78.9414L246.01 78.9514C246.953 79.1278 247.385 80.4461 246.667 80.9599C239.696 85.9522 232.724 90.9455 225.753 95.9378C225.025 96.4581 225.48 97.8001 226.436 97.9509C241.819 100.363 258.191 103.164 275.414 106.373C276.357 106.55 276.789 107.868 276.072 108.381C256.11 122.676 236.149 136.971 216.187 151.266C216.009 151.395 215.785 151.443 215.55 151.405C192.438 147.612 158.836 142.889 122.948 140.878C100.111 139.599 84.047 139.85 67.9186 141.365C58.5035 142.249 50.6805 143.411 45.0493 144.367C44.5247 144.455 43.9566 144.059 43.771 143.474C40.7918 134.098 37.8142 124.721 34.835 115.344C34.6576 114.782 34.1192 114.389 33.6065 114.446C26.3656 115.241 20.2678 116.164 15.6451 116.948C15.1205 117.036 14.5525 116.64 14.3669 116.055L14.3656 116.053Z" fill="#7099ED"/>
</svg>
