<svg width="145" height="16" viewBox="0 0 145 16" fill="none" xmlns="http://www.w3.org/2000/svg">
<path d="M0.504 15.104V0.127999H2.344V15.104H0.504ZM23.1153 12V0.799999H33.0193V12H30.9713V2.048L31.4513 2.56H24.6833L25.1633 2.048V12H23.1153ZM39.7614 12.112C38.8867 12.112 38.108 11.9253 37.4254 11.552C36.7427 11.168 36.204 10.6453 35.8094 9.984C35.4147 9.32267 35.2174 8.57067 35.2174 7.728C35.2174 6.87467 35.4147 6.12267 35.8094 5.472C36.204 4.81067 36.7427 4.29333 37.4254 3.92C38.108 3.54667 38.8867 3.36 39.7614 3.36C40.6467 3.36 41.4307 3.54667 42.1134 3.92C42.8067 4.29333 43.3454 4.80533 43.7294 5.456C44.124 6.10667 44.3214 6.864 44.3214 7.728C44.3214 8.57067 44.124 9.32267 43.7294 9.984C43.3454 10.6453 42.8067 11.168 42.1134 11.552C41.4307 11.9253 40.6467 12.112 39.7614 12.112ZM39.7614 10.4C40.252 10.4 40.6894 10.2933 41.0734 10.08C41.4574 9.86667 41.756 9.55733 41.9694 9.152C42.1934 8.74667 42.3054 8.272 42.3054 7.728C42.3054 7.17333 42.1934 6.69867 41.9694 6.304C41.756 5.89867 41.4574 5.58933 41.0734 5.376C40.6894 5.16267 40.2574 5.056 39.7774 5.056C39.2867 5.056 38.8494 5.16267 38.4654 5.376C38.092 5.58933 37.7934 5.89867 37.5694 6.304C37.3454 6.69867 37.2334 7.17333 37.2334 7.728C37.2334 8.272 37.3454 8.74667 37.5694 9.152C37.7934 9.55733 38.092 9.86667 38.4654 10.08C38.8494 10.2933 39.2814 10.4 39.7614 10.4ZM52.0594 11.072V5.152H48.7794L48.7314 6.528C48.71 7.01867 48.678 7.49333 48.6354 7.952C48.5927 8.4 48.5234 8.816 48.4274 9.2C48.3314 9.57333 48.1927 9.88267 48.0114 10.128C47.83 10.3733 47.59 10.5333 47.2914 10.608L45.3074 10.304C45.6274 10.304 45.8834 10.2027 46.0754 10C46.278 9.78667 46.4327 9.49867 46.5394 9.136C46.6567 8.76267 46.742 8.34133 46.7954 7.872C46.8487 7.392 46.886 6.896 46.9074 6.384L47.0194 3.456H54.0594V11.072H52.0594ZM45.0034 13.904V10.304H55.3234V13.904H53.4514V12H46.8594V13.904H45.0034ZM62.2936 12V10.272L62.1816 9.904V6.88C62.1816 6.29333 62.0056 5.84 61.6536 5.52C61.3016 5.18933 60.7683 5.024 60.0536 5.024C59.5736 5.024 59.099 5.09867 58.6296 5.248C58.171 5.39733 57.7816 5.60533 57.4616 5.872L56.6776 4.416C57.1363 4.064 57.6803 3.80267 58.3096 3.632C58.9496 3.45067 59.611 3.36 60.2936 3.36C61.531 3.36 62.4856 3.65867 63.1576 4.256C63.8403 4.84267 64.1816 5.75467 64.1816 6.992V12H62.2936ZM59.6056 12.112C58.9656 12.112 58.4056 12.0053 57.9256 11.792C57.4456 11.568 57.0723 11.264 56.8056 10.88C56.5496 10.4853 56.4216 10.0427 56.4216 9.552C56.4216 9.072 56.5336 8.64 56.7576 8.256C56.9923 7.872 57.371 7.568 57.8936 7.344C58.4163 7.12 59.1096 7.008 59.9736 7.008H62.4536V8.336H60.1176C59.435 8.336 58.9763 8.448 58.7416 8.672C58.507 8.88533 58.3896 9.152 58.3896 9.472C58.3896 9.83467 58.5336 10.1227 58.8216 10.336C59.1096 10.5493 59.5096 10.656 60.0216 10.656C60.5123 10.656 60.9496 10.544 61.3336 10.32C61.7283 10.096 62.011 9.76533 62.1816 9.328L62.5176 10.528C62.3256 11.0293 61.979 11.4187 61.4776 11.696C60.987 11.9733 60.363 12.112 59.6056 12.112ZM68.4325 12V4.672L68.8965 5.152H65.4245V3.456H73.4245V5.152H69.9685L70.4325 4.672V12H68.4325ZM79.1633 6.272C80.2619 6.272 81.0993 6.51733 81.6753 7.008C82.2513 7.49867 82.5393 8.192 82.5393 9.088C82.5393 10.016 82.2193 10.7413 81.5793 11.264C80.9393 11.776 80.0379 12.0267 78.8753 12.016L74.8753 12V3.456H76.8753V6.256L79.1633 6.272ZM78.6993 10.544C79.2859 10.5547 79.7339 10.432 80.0433 10.176C80.3526 9.92 80.5073 9.54667 80.5073 9.056C80.5073 8.56533 80.3526 8.21333 80.0433 8C79.7446 7.776 79.2966 7.65867 78.6993 7.648L76.8753 7.632V10.528L78.6993 10.544ZM91.423 12.144C90.7723 12.144 90.127 12.0693 89.487 11.92C88.8577 11.76 88.287 11.536 87.775 11.248L88.335 9.76C88.751 9.99467 89.2203 10.176 89.743 10.304C90.2657 10.432 90.7883 10.496 91.311 10.496C91.759 10.496 92.143 10.4533 92.463 10.368C92.783 10.272 93.0283 10.1333 93.199 9.952C93.3803 9.77067 93.471 9.56267 93.471 9.328C93.471 8.98667 93.3217 8.73067 93.023 8.56C92.735 8.37867 92.319 8.288 91.775 8.288H90.127V6.944H91.615C91.9563 6.944 92.2443 6.90667 92.479 6.832C92.7243 6.75733 92.911 6.64533 93.039 6.496C93.167 6.34667 93.231 6.17067 93.231 5.968C93.231 5.76533 93.151 5.58933 92.991 5.44C92.8417 5.28 92.623 5.16267 92.335 5.088C92.047 5.00267 91.7003 4.96 91.295 4.96C90.8683 4.96 90.4257 5.01333 89.967 5.12C89.519 5.22667 89.0603 5.38133 88.591 5.584L88.079 4.112C88.623 3.86667 89.151 3.68 89.663 3.552C90.1857 3.41333 90.703 3.33867 91.215 3.328C91.9937 3.296 92.687 3.376 93.295 3.568C93.903 3.76 94.383 4.03733 94.735 4.4C95.087 4.76267 95.263 5.18933 95.263 5.68C95.263 6.08533 95.135 6.45333 94.879 6.784C94.6337 7.104 94.2923 7.35467 93.855 7.536C93.4283 7.71733 92.9377 7.808 92.383 7.808L92.447 7.376C93.3963 7.376 94.143 7.568 94.687 7.952C95.231 8.32533 95.503 8.83733 95.503 9.488C95.503 10.0107 95.327 10.4747 94.975 10.88C94.623 11.2747 94.1377 11.584 93.519 11.808C92.911 12.032 92.2123 12.144 91.423 12.144ZM102.747 12V10.272L102.635 9.904V6.88C102.635 6.29333 102.459 5.84 102.107 5.52C101.755 5.18933 101.221 5.024 100.507 5.024C100.027 5.024 99.5521 5.09867 99.0828 5.248C98.6241 5.39733 98.2348 5.60533 97.9148 5.872L97.1308 4.416C97.5894 4.064 98.1334 3.80267 98.7628 3.632C99.4028 3.45067 100.064 3.36 100.747 3.36C101.984 3.36 102.939 3.65867 103.611 4.256C104.293 4.84267 104.635 5.75467 104.635 6.992V12H102.747ZM100.059 12.112C99.4188 12.112 98.8588 12.0053 98.3788 11.792C97.8988 11.568 97.5254 11.264 97.2588 10.88C97.0028 10.4853 96.8748 10.0427 96.8748 9.552C96.8748 9.072 96.9868 8.64 97.2108 8.256C97.4454 7.872 97.8241 7.568 98.3468 7.344C98.8694 7.12 99.5628 7.008 100.427 7.008H102.907V8.336H100.571C99.8881 8.336 99.4294 8.448 99.1948 8.672C98.9601 8.88533 98.8428 9.152 98.8428 9.472C98.8428 9.83467 98.9868 10.1227 99.2748 10.336C99.5628 10.5493 99.9628 10.656 100.475 10.656C100.965 10.656 101.403 10.544 101.787 10.32C102.181 10.096 102.464 9.76533 102.635 9.328L102.971 10.528C102.779 11.0293 102.432 11.4187 101.931 11.696C101.44 11.9733 100.816 12.112 100.059 12.112ZM112.534 12V9.088L112.822 9.424H110.262C109.088 9.424 108.166 9.17867 107.494 8.688C106.832 8.18667 106.502 7.46667 106.502 6.528C106.502 5.52533 106.854 4.76267 107.558 4.24C108.272 3.71733 109.222 3.456 110.406 3.456H114.326V12H112.534ZM106.39 12L108.694 8.736H110.742L108.534 12H106.39ZM112.534 8.448V4.608L112.822 5.136H110.47C109.851 5.136 109.371 5.25333 109.03 5.488C108.699 5.712 108.534 6.08 108.534 6.592C108.534 7.552 109.158 8.032 110.406 8.032H112.822L112.534 8.448ZM117.016 12V3.456H121.192C122.227 3.456 123.037 3.648 123.624 4.032C124.221 4.416 124.52 4.96 124.52 5.664C124.52 6.35733 124.243 6.90133 123.688 7.296C123.133 7.68 122.397 7.872 121.48 7.872L121.72 7.376C122.755 7.376 123.523 7.568 124.024 7.952C124.536 8.32533 124.792 8.87467 124.792 9.6C124.792 10.3573 124.509 10.9493 123.944 11.376C123.379 11.792 122.52 12 121.368 12H117.016ZM118.92 10.544H121.208C121.752 10.544 122.163 10.4587 122.44 10.288C122.717 10.1067 122.856 9.83467 122.856 9.472C122.856 9.088 122.728 8.80533 122.472 8.624C122.216 8.44267 121.816 8.352 121.272 8.352H118.92V10.544ZM118.92 7.024H121.016C121.528 7.024 121.912 6.93333 122.168 6.752C122.435 6.56 122.568 6.29333 122.568 5.952C122.568 5.6 122.435 5.33867 122.168 5.168C121.912 4.99733 121.528 4.912 121.016 4.912H118.92V7.024ZM133.05 12L129.962 7.904L131.594 6.896L135.402 12H133.05ZM126.922 12V3.456H128.922V12H126.922ZM128.33 8.576V6.912H131.226V8.576H128.33ZM131.786 7.968L129.914 7.744L133.05 3.456H135.194L131.786 7.968ZM137.096 15.216C136.68 15.216 136.264 15.1467 135.848 15.008C135.432 14.8693 135.086 14.6773 134.808 14.432L135.608 12.96C135.811 13.1413 136.04 13.2853 136.296 13.392C136.552 13.4987 136.814 13.552 137.08 13.552C137.443 13.552 137.736 13.4613 137.96 13.28C138.184 13.0987 138.392 12.7947 138.584 12.368L139.08 11.248L139.24 11.008L142.472 3.456H144.392L140.392 12.688C140.126 13.328 139.827 13.8347 139.496 14.208C139.176 14.5813 138.814 14.8427 138.408 14.992C138.014 15.1413 137.576 15.216 137.096 15.216ZM138.856 12.304L135 3.456H137.08L140.216 10.832L138.856 12.304Z" fill="white"/>
</svg>
