<svg width="20" height="20" viewBox="0 0 20 20" fill="none" xmlns="http://www.w3.org/2000/svg">
<path d="M18.3346 9.63827C18.3346 14.0409 14.6031 17.6105 10.0013 17.6105C9.46022 17.6113 8.92064 17.5612 8.38914 17.4614C8.00658 17.3895 7.81529 17.3536 7.68174 17.374C7.54819 17.3944 7.35895 17.495 6.98046 17.6963C5.90975 18.2658 4.66126 18.4668 3.46056 18.2435C3.91692 17.6822 4.22859 17.0087 4.36612 16.2867C4.44945 15.845 4.24297 15.416 3.93371 15.1019C2.52908 13.6756 1.66797 11.7536 1.66797 9.63827C1.66797 5.23566 5.39945 1.66602 10.0013 1.66602C14.6031 1.66602 18.3346 5.23566 18.3346 9.63827Z" stroke="white" stroke-width="1.5" stroke-linejoin="round"/>
<path d="M9.99755 10H10.0051M13.3271 10H13.3346M6.66797 10H6.67544" stroke="white" stroke-width="2" stroke-linecap="round" stroke-linejoin="round"/>
</svg>
