<svg width="18" height="19" viewBox="0 0 18 19" fill="none" xmlns="http://www.w3.org/2000/svg">
<path d="M12.1606 4.23679L13.2119 3.18547C13.7925 2.60484 14.7339 2.60484 15.3145 3.18547C15.8951 3.7661 15.8951 4.70748 15.3145 5.28811L14.2632 6.33943M12.1606 4.23679L8.23515 8.16222C7.4512 8.9462 7.05919 9.33815 6.79228 9.81582C6.52535 10.2935 6.2568 11.4214 6 12.5C7.07857 12.2432 8.2065 11.9746 8.68418 11.7077C9.16185 11.4408 9.5538 11.0488 10.3378 10.2648L14.2632 6.33943M12.1606 4.23679L14.2632 6.33943" stroke="#7099ED" stroke-width="1.5" stroke-linecap="round" stroke-linejoin="round"/>
<path d="M15.75 9.5C15.75 12.6819 15.75 14.273 14.7615 15.2615C13.773 16.25 12.1819 16.25 9 16.25C5.81802 16.25 4.22703 16.25 3.23851 15.2615C2.25 14.273 2.25 12.6819 2.25 9.5C2.25 6.31802 2.25 4.72703 3.23851 3.73851C4.22703 2.75 5.81802 2.75 9 2.75" stroke="#7099ED" stroke-width="1.5" stroke-linecap="round"/>
</svg>
