<svg width="14" height="14" viewBox="0 0 14 14" fill="none" xmlns="http://www.w3.org/2000/svg">
<circle cx="7" cy="7" r="7" fill="#FF8B63"/>
<path d="M5.98438 9.2627C5.98438 9.02832 6.07064 8.82975 6.24316 8.66699C6.41895 8.50098 6.67122 8.41797 7 8.41797C7.32878 8.41797 7.57943 8.50098 7.75195 8.66699C7.92773 8.82975 8.01562 9.02832 8.01562 9.2627C8.01562 9.49382 7.92773 9.69238 7.75195 9.8584C7.57943 10.0244 7.32878 10.1074 7 10.1074C6.67122 10.1074 6.41895 10.0244 6.24316 9.8584C6.07064 9.69238 5.98438 9.49382 5.98438 9.2627ZM6.27734 7.69531L6.13574 2.89062H7.86426L7.72266 7.69531H6.27734Z" fill="white"/>
</svg>
