<svg width="20" height="20" viewBox="0 0 20 20" fill="none" xmlns="http://www.w3.org/2000/svg">
<path d="M12.9154 9.16667C12.9154 10.7775 11.6095 12.0833 9.9987 12.0833C8.38786 12.0833 7.08203 10.7775 7.08203 9.16667C7.08203 7.55583 8.38786 6.25 9.9987 6.25C11.6095 6.25 12.9154 7.55583 12.9154 9.16667Z" stroke="#7099ED" stroke-width="1.5"/>
<path d="M10 1.66699C14.0588 1.66699 17.5 5.02781 17.5 9.10516C17.5 13.2474 14.0027 16.1542 10.7725 18.1309C10.5371 18.2638 10.2708 18.3337 10 18.3337C9.72917 18.3337 9.46292 18.2638 9.2275 18.1309C6.00325 16.135 2.5 13.2617 2.5 9.10516C2.5 5.02781 5.9412 1.66699 10 1.66699Z" stroke="#7099ED" stroke-width="1.5"/>
</svg>
