<svg width="20" height="21" viewBox="0 0 20 21" fill="none" xmlns="http://www.w3.org/2000/svg">
<path d="M11.8101 17.9084C15.296 17.6768 18.0726 14.8607 18.3011 11.3254C18.3458 10.6336 18.3458 9.91709 18.3011 9.22526C18.0726 5.68999 15.296 2.87395 11.8101 2.64223C10.6209 2.56318 9.3793 2.56335 8.19247 2.64223C4.70662 2.87395 1.92998 5.68999 1.7015 9.22526C1.65679 9.91709 1.65679 10.6336 1.7015 11.3254C1.78472 12.613 2.35416 13.8052 3.02456 14.8118C3.41381 15.5166 3.15692 16.3962 2.75147 17.1645C2.45914 17.7185 2.31297 17.9955 2.43033 18.1956C2.5477 18.3957 2.80985 18.4021 3.33416 18.4148C4.37102 18.4401 5.0702 18.1461 5.6252 17.7368C5.93997 17.5048 6.09736 17.3887 6.20583 17.3753C6.3143 17.362 6.52778 17.4499 6.95464 17.6258C7.3383 17.7838 7.78377 17.8813 8.19247 17.9084C9.3793 17.9873 10.6209 17.9875 11.8101 17.9084Z" stroke="#8E8E93" stroke-width="1.5" stroke-linejoin="round"/>
<path d="M9.99759 10.5H10.005M13.3272 10.5H13.3347M6.66797 10.5H6.67544" stroke="#8E8E93" stroke-width="2" stroke-linecap="round" stroke-linejoin="round"/>
</svg>
