<svg width="47" height="46" viewBox="0 0 47 46" fill="none" xmlns="http://www.w3.org/2000/svg">
<g opacity="0.7">
<rect x="0.621094" width="46.257" height="45.2459" rx="6" fill="white"/>
<path d="M18.7213 16.7207C17.4938 16.7243 16.8145 16.753 16.2563 16.9822C15.4745 17.3032 14.8377 17.8961 14.4658 18.6496C14.1621 19.2647 14.1125 20.0527 14.0131 21.6286L13.8574 24.0982C13.6103 28.0172 13.4867 29.9768 14.6624 31.2174C15.8381 32.4579 17.8188 32.4579 21.7802 32.4579H25.7183C29.6797 32.4579 31.6604 32.4579 32.836 31.2174C34.0117 29.9768 33.8882 28.0172 33.6411 24.0982L33.4853 21.6286C33.386 20.0527 33.3363 19.2647 33.0327 18.6496C32.6607 17.8961 32.024 17.3032 31.2421 16.9822C30.6839 16.753 30.0046 16.7243 28.7772 16.7207" stroke="#8E8E93" stroke-width="1.5" stroke-linecap="round"/>
<path d="M28.7766 17.7046L27.8858 15.5262C27.5015 14.5863 27.167 13.5201 26.1787 13.0415C25.6516 12.7861 25.0173 12.7861 23.7486 12.7861C22.48 12.7861 21.8457 12.7861 21.3185 13.0415C20.3302 13.5201 19.9958 14.5863 19.6115 15.5262L18.7207 17.7046" stroke="#8E8E93" stroke-width="1.5" stroke-linecap="round" stroke-linejoin="round"/>
<path d="M27.2676 24.5894C27.2676 26.4909 25.6919 28.0324 23.7481 28.0324C21.8043 28.0324 20.2285 26.4909 20.2285 24.5894C20.2285 22.6879 21.8043 21.1465 23.7481 21.1465C25.6919 21.1465 27.2676 22.6879 27.2676 24.5894Z" stroke="#8E8E93" stroke-width="1.5"/>
<path d="M23.748 16.7197H23.757" stroke="#8E8E93" stroke-width="2" stroke-linecap="round" stroke-linejoin="round"/>
</g>
</svg>
