<svg width="181" height="180" viewBox="0 0 181 180" fill="none" xmlns="http://www.w3.org/2000/svg">
<g clip-path="url(#clip0_6032_8694)">
<rect x="0.5" width="180" height="180" rx="90" fill="#8E8E93"/>
<g clip-path="url(#clip1_6032_8694)">
<path d="M168.5 227.515V147.706C168.5 131.387 157.333 117.173 141.443 113.254L91 100.815L40.5568 113.254C24.6674 117.173 13.5 131.387 13.5 147.706V227.515H168.5Z" fill="#F4F3F1"/>
<path d="M62.0742 110.809C62.8726 113.36 65.8226 121.5 75.0818 126.778C84.3117 132.037 98.3707 133.638 108.827 127.176C117.424 121.869 119.488 113.632 119.975 111.303" stroke="#8E8E93" stroke-width="3" stroke-miterlimit="10" stroke-linecap="round"/>
<path d="M43.6722 227.514V163.267C43.2243 162.976 42.7375 162.636 42.2507 162.21C41.2187 161.336 40.4495 160.415 39.8945 159.619" stroke="#8E8E93" stroke-width="3" stroke-miterlimit="10" stroke-linecap="round"/>
<path d="M139.543 227.514V163.267C140.594 162.054 141.636 160.832 142.688 159.619" stroke="#8E8E93" stroke-width="3" stroke-miterlimit="10" stroke-linecap="round"/>
<path d="M127.327 66.5858C126.655 63.9856 124.932 62.0452 122.712 61.1817V53.6044C122.712 53.1193 122.692 52.6342 122.673 52.1588C123.841 50.9363 124.766 49.5392 125.38 47.9675C129.342 37.9064 119.44 24.6242 103.259 18.3081C87.0969 11.9727 70.7693 15.0191 66.8164 25.0802C65.6968 27.9229 65.687 31.0179 66.6022 34.142C66.5244 34.239 66.4562 34.336 66.3783 34.4233C65.7357 34.2099 65.0639 34.1032 64.3824 34.1032C58.9107 34.1032 54.471 41.1857 54.471 49.9273C54.471 54.5552 55.7269 58.7077 57.7034 61.5989C55.9216 62.5982 54.5586 64.3543 53.9841 66.5858C53.0982 70.0398 54.2081 74.1146 56.5058 76.7439C57.5865 77.9858 58.8814 78.8493 60.2542 79.315C61.4907 86.5042 65.171 92.8494 70.4188 97.487L69.4549 118.861H112.469L111.525 97.9624C117.211 93.1793 121.174 86.4169 122.342 78.7425C123.228 78.2477 124.055 77.588 124.786 76.7536C127.083 74.1243 128.203 70.0495 127.307 66.5955L127.327 66.5858Z" fill="#F4F3F1"/>
</g>
</g>
<defs>
<clipPath id="clip0_6032_8694">
<rect x="0.5" width="180" height="180" rx="90" fill="white"/>
</clipPath>
<clipPath id="clip1_6032_8694">
<rect width="155" height="213" fill="white" transform="translate(13.5 15)"/>
</clipPath>
</defs>
</svg>
