<svg width="40" height="40" viewBox="0 0 40 40" fill="none" xmlns="http://www.w3.org/2000/svg">
<rect width="40" height="40" rx="16" fill="#7099ED"/>
<path d="M22.9167 20.1667C22.9167 21.7775 21.6109 23.0833 20 23.0833C18.3892 23.0833 17.0834 21.7775 17.0834 20.1667C17.0834 18.5558 18.3892 17.25 20 17.25C21.6109 17.25 22.9167 18.5558 22.9167 20.1667Z" stroke="white" stroke-width="1.5"/>
<path d="M20 12.666C24.0588 12.666 27.5 16.0268 27.5 20.1042C27.5 24.2464 24.0027 27.1533 20.7725 29.1299C20.5371 29.2628 20.2708 29.3327 20 29.3327C19.7292 29.3327 19.4629 29.2628 19.2275 29.1299C16.0032 27.134 12.5 24.2608 12.5 20.1042C12.5 16.0268 15.9412 12.666 20 12.666Z" stroke="white" stroke-width="1.5"/>
</svg>
