<svg width="20" height="20" viewBox="0 0 20 20" fill="none" xmlns="http://www.w3.org/2000/svg">
<path d="M11.8088 17.4094C15.2947 17.1777 18.0713 14.3617 18.2998 10.8264C18.3445 10.1346 18.3445 9.41807 18.2998 8.72623C18.0713 5.19097 15.2947 2.37493 11.8088 2.14321C10.6196 2.06416 9.378 2.06433 8.19117 2.14321C4.70533 2.37493 1.92868 5.19097 1.7002 8.72623C1.65549 9.41807 1.65549 10.1346 1.7002 10.8264C1.78342 12.114 2.35286 13.3062 3.02326 14.3128C3.41251 15.0176 3.15562 15.8972 2.75018 16.6655C2.45784 17.2195 2.31168 17.4965 2.42904 17.6966C2.5464 17.8967 2.80855 17.9031 3.33286 17.9158C4.36973 17.9411 5.0689 17.6471 5.6239 17.2378C5.93867 17.0057 6.09606 16.8897 6.20454 16.8763C6.313 16.863 6.52648 16.9509 6.95334 17.1267C7.337 17.2847 7.78247 17.3822 8.19117 17.4094C9.378 17.4883 10.6196 17.4885 11.8088 17.4094Z" stroke="#8E8E93" stroke-width="1.5" stroke-linejoin="round"/>
<path d="M9.99609 10H10.0035M13.3257 10H13.3332M6.66647 10H6.67395" stroke="#8E8E93" stroke-width="2" stroke-linecap="round" stroke-linejoin="round"/>
</svg>
