<svg width="18" height="18" viewBox="0 0 20 20" fill="none" xmlns="http://www.w3.org/2000/svg">
<path d="M1.875 9C1.875 5.64124 1.875 3.96187 2.91843 2.91843C3.96187 1.875 5.64124 1.875 9 1.875C12.3587 1.875 14.0381 1.875 15.0816 2.91843C16.125 3.96187 16.125 5.64124 16.125 9C16.125 12.3587 16.125 14.0381 15.0816 15.0816C14.0381 16.125 12.3587 16.125 9 16.125C5.64124 16.125 3.96187 16.125 2.91843 15.0816C1.875 14.0381 1.875 12.3587 1.875 9Z" stroke="#8E8E93" stroke-width="1.5"/>
<path d="M6.4264 9L5.78301 8.35657C5.07233 7.64595 5.07233 6.49369 5.78301 5.78301C6.49369 5.07233 7.64595 5.07233 8.35657 5.78301L12.217 9.64342C12.9277 10.354 12.9277 11.5063 12.217 12.217C11.5063 12.9277 10.354 12.9277 9.64342 12.217L8.19577 10.7693C7.13766 9.71122 8.65972 8.28472 9.75 9.375L10.5 10.125" stroke="#8E8E93" stroke-width="1.5" stroke-linecap="round" stroke-linejoin="round"/>
</svg>
