<svg width="384" height="240" viewBox="0 0 384 240" fill="none" xmlns="http://www.w3.org/2000/svg">
<g clip-path="url(#clip0_9859_21952)">
<rect width="384" height="240" rx="32" fill="white"/>
<path d="M26.0645 58.1909L32.2461 43.9037H34.9121L41.1035 58.1909H38.1543L34.043 48.1127C33.9193 47.8198 33.8151 47.5398 33.7305 47.2729C33.6458 46.9995 33.5677 46.739 33.4961 46.4916H33.3984C33.3203 46.739 33.2389 46.9995 33.1543 47.2729C33.0697 47.5463 32.9688 47.8263 32.8516 48.1127L28.7109 58.1909H26.0645ZM28.9258 54.8608L29.6875 52.8393H37.3438L38.1055 54.8608H28.9258ZM44.248 43.9721H55.6641V58.1909H52.959V46.062H46.5332L46.1719 52.7807C46.0807 54.6427 45.778 56.0554 45.2637 57.019C44.7493 57.9825 43.7728 58.4643 42.334 58.4643C42.1126 58.4643 41.901 58.448 41.6992 58.4155C41.4974 58.3894 41.2988 58.3406 41.1035 58.269V55.9643C41.2533 56.0164 41.3932 56.0522 41.5234 56.0717C41.6602 56.0912 41.8001 56.101 41.9434 56.101C42.5879 56.101 43.0404 55.8276 43.3008 55.2807C43.5612 54.7338 43.7272 53.7833 43.7988 52.4291L44.248 43.9721ZM58.9746 58.1909V43.9721H62.1875L66.9629 54.226C67.0605 54.4343 67.1582 54.6459 67.2559 54.8608C67.3535 55.0691 67.4284 55.2481 67.4805 55.3979H67.5391C67.5911 55.2481 67.6595 55.0691 67.7441 54.8608C67.8288 54.6459 67.9167 54.4343 68.0078 54.226L72.8418 43.9721H76.123V58.1909H73.4473L73.457 48.5424C73.457 48.3406 73.4635 48.1258 73.4766 47.8979C73.4896 47.6635 73.5026 47.4487 73.5156 47.2534H73.4473C73.4017 47.4487 73.3431 47.6635 73.2715 47.8979C73.2064 48.1258 73.1283 48.3406 73.0371 48.5424L68.5254 58.1909H66.2207L61.7285 48.5424C61.6309 48.3471 61.5462 48.1355 61.4746 47.9077C61.403 47.6733 61.3444 47.4552 61.2988 47.2534H61.2305C61.2435 47.4552 61.2565 47.6733 61.2695 47.9077C61.2891 48.1355 61.2988 48.3504 61.2988 48.5522V58.1909H58.9746ZM77.5879 58.1909L83.7695 43.9037H86.4355L92.627 58.1909H89.6777L85.5664 48.1127C85.4427 47.8198 85.3385 47.5398 85.2539 47.2729C85.1693 46.9995 85.0911 46.739 85.0195 46.4916H84.9219C84.8438 46.739 84.7624 46.9995 84.6777 47.2729C84.5931 47.5463 84.4922 47.8263 84.375 48.1127L80.2344 58.1909H77.5879ZM80.4492 54.8608L81.2109 52.8393H88.8672L89.6289 54.8608H80.4492ZM99.6582 56.394C100.863 56.394 101.748 56.1856 102.314 55.769C102.881 55.3523 103.167 54.7631 103.174 54.0014C103.174 53.2983 102.933 52.7612 102.451 52.3901C101.976 52.019 101.25 51.8334 100.273 51.8334H97.4316V49.8315H100.107C101.025 49.8315 101.702 49.659 102.139 49.3139C102.575 48.9689 102.793 48.4675 102.793 47.81C102.793 47.1524 102.533 46.6479 102.012 46.2963C101.491 45.9448 100.68 45.769 99.5801 45.769C98.4212 45.769 97.5456 45.9741 96.9531 46.3842C96.3607 46.7944 96.0612 47.4259 96.0547 48.2787V48.4252H93.3594V48.2885C93.3659 46.8432 93.89 45.7169 94.9316 44.9096C95.9798 44.0958 97.5423 43.6889 99.6191 43.6889C101.501 43.6889 102.949 44.0242 103.965 44.6948C104.98 45.3588 105.488 46.3191 105.488 47.5756C105.488 48.4285 105.254 49.1088 104.785 49.6166C104.323 50.1245 103.75 50.4825 103.066 50.6909V50.7299C103.9 50.9252 104.577 51.3061 105.098 51.8725C105.625 52.4324 105.889 53.1681 105.889 54.0795C105.889 55.4662 105.345 56.547 104.258 57.3217C103.177 58.0899 101.657 58.4741 99.6973 58.4741C97.6204 58.4741 96.0156 58.0965 94.8828 57.3412C93.7565 56.586 93.1868 55.3751 93.1738 53.7084V53.5717H95.8691L95.8789 53.6987C95.8789 54.6297 96.1947 55.3133 96.8262 55.7495C97.4577 56.1791 98.4017 56.394 99.6582 56.394ZM108.311 58.1909V43.9721H111.025V49.8022H118.76V43.9721H121.465V58.1909H118.76V51.9116H111.025V58.1909H108.311ZM124.053 51.3354V50.7983C124.053 48.4285 124.743 46.6511 126.123 45.4662C127.503 44.2748 129.268 43.6791 131.416 43.6791C133.558 43.6791 135.322 44.2748 136.709 45.4662C138.102 46.6511 138.799 48.4285 138.799 50.7983V51.3354C138.799 53.7247 138.102 55.5151 136.709 56.7065C135.322 57.8914 133.558 58.4838 131.416 58.4838C129.268 58.4838 127.503 57.8914 126.123 56.7065C124.743 55.5151 124.053 53.7247 124.053 51.3354ZM126.836 51.5014C126.836 53.1811 127.253 54.4181 128.086 55.2123C128.926 56.0001 130.036 56.394 131.416 56.394C132.796 56.394 133.91 56.0001 134.756 55.2123C135.602 54.4181 136.025 53.1811 136.025 51.5014V50.6518C136.025 48.9721 135.602 47.7416 134.756 46.9604C133.916 46.1726 132.803 45.7787 131.416 45.7787C130.036 45.7787 128.926 46.1726 128.086 46.9604C127.253 47.7416 126.836 48.9689 126.836 50.642V51.5014ZM141.377 58.1909V43.9721H152.188V46.0717H144.062V49.8608H151.191V51.9018H144.062V56.101H152.305V58.1909H141.377ZM159.697 58.1909V43.9721H170.586V46.0522H162.412V49.4897H166.533C168.161 49.4897 169.404 49.8608 170.264 50.603C171.123 51.3452 171.553 52.4161 171.553 53.8159C171.553 55.2351 171.123 56.3191 170.264 57.0678C169.404 57.8165 168.161 58.1909 166.533 58.1909H159.697ZM162.412 51.5014V56.1596H166.309C167.253 56.1596 167.923 55.9578 168.32 55.5541C168.724 55.1505 168.926 54.5711 168.926 53.8159C168.926 53.0737 168.724 52.504 168.32 52.1069C167.923 51.7032 167.253 51.5014 166.309 51.5014H162.412ZM174.932 56.0229C175.114 56.075 175.312 56.1173 175.527 56.1498C175.742 56.1824 175.96 56.1987 176.182 56.1987C176.742 56.1987 177.214 56.0717 177.598 55.8178C177.988 55.5639 178.372 55.1017 178.75 54.4311L178.721 54.5092L172.451 43.9721H175.566L179.424 50.7885C179.606 51.1271 179.733 51.381 179.805 51.5502C179.883 51.713 179.964 51.905 180.049 52.1264H180.107C180.192 51.9116 180.27 51.7228 180.342 51.56C180.42 51.3907 180.547 51.1368 180.723 50.7983L184.297 43.9721H187.041L181.357 54.3725C180.524 55.9024 179.785 56.9702 179.141 57.5756C178.496 58.1746 177.624 58.4741 176.523 58.4741C176.12 58.4741 175.801 58.4578 175.566 58.4252C175.339 58.3927 175.127 58.3439 174.932 58.2787V56.0229ZM188.623 58.1909V43.9721H194.824C196.654 43.9721 198.053 44.3627 199.023 45.144C200 45.9252 200.488 47.0678 200.488 48.5717C200.488 50.0431 200.003 51.1856 199.033 51.9995C198.063 52.8133 196.657 53.2071 194.814 53.1811H191.338V58.1909H188.623ZM191.338 51.1694H194.58C195.752 51.1694 196.579 50.9448 197.061 50.4955C197.542 50.0398 197.783 49.4018 197.783 48.5815C197.783 47.7547 197.542 47.1231 197.061 46.687C196.579 46.2442 195.752 46.0229 194.58 46.0229H191.338V51.1694ZM202.588 58.1909V43.9721H213.398V46.0717H205.273V49.8608H212.402V51.9018H205.273V56.101H213.516V58.1909H202.588ZM215.811 58.1909V43.9721H218.525V49.8022H226.26V43.9721H228.965V58.1909H226.26V51.9116H218.525V58.1909H215.811ZM245.488 58.1909H242.832V48.6694C242.832 48.461 242.835 48.2332 242.842 47.9858C242.848 47.7319 242.858 47.504 242.871 47.3022H242.754C242.656 47.4975 242.559 47.6896 242.461 47.8784C242.37 48.0672 242.24 48.2722 242.07 48.4936L235.068 58.1909H232.197V43.9721H234.863V53.4838C234.863 53.6856 234.857 53.9103 234.844 54.1577C234.837 54.405 234.831 54.6329 234.824 54.8412H234.961C235.033 54.6785 235.12 54.4929 235.225 54.2846C235.335 54.0763 235.462 53.8712 235.605 53.6694L242.617 43.9721H245.488V58.1909ZM248.721 58.1909V43.9721H259.531V46.0717H251.406V49.8608H258.535V51.9018H251.406V56.101H259.648V58.1909H248.721ZM41.1133 81.1909H38.457V71.6694C38.457 71.461 38.4603 71.2332 38.4668 70.9858C38.4733 70.7319 38.4831 70.504 38.4961 70.3022H38.3789C38.2812 70.4975 38.1836 70.6896 38.0859 70.8784C37.9948 71.0672 37.8646 71.2722 37.6953 71.4936L30.6934 81.1909H27.8223V66.9721H30.4883V76.4838C30.4883 76.6856 30.4818 76.9103 30.4688 77.1577C30.4622 77.405 30.4557 77.6329 30.4492 77.8412H30.5859C30.6576 77.6785 30.7454 77.4929 30.8496 77.2846C30.9603 77.0763 31.0872 76.8712 31.2305 76.6694L38.2422 66.9721H41.1133V81.1909ZM47.6855 81.1909L53.8672 66.9037H56.5332L62.7246 81.1909H59.7754L55.6641 71.1127C55.5404 70.8198 55.4362 70.5398 55.3516 70.2729C55.2669 69.9995 55.1888 69.739 55.1172 69.4916H55.0195C54.9414 69.739 54.86 69.9995 54.7754 70.2729C54.6908 70.5463 54.5898 70.8263 54.4727 71.1127L50.332 81.1909H47.6855ZM50.5469 77.8608L51.3086 75.8393H58.9648L59.7266 77.8608H50.5469ZM65.8691 66.9721H77.2852V81.1909H74.5801V69.062H68.1543L67.793 75.7807C67.7018 77.6427 67.3991 79.0554 66.8848 80.019C66.3704 80.9825 65.3939 81.4643 63.9551 81.4643C63.7337 81.4643 63.5221 81.448 63.3203 81.4155C63.1185 81.3894 62.9199 81.3406 62.7246 81.269V78.9643C62.8743 79.0164 63.0143 79.0522 63.1445 79.0717C63.2812 79.0912 63.4212 79.101 63.5645 79.101C64.209 79.101 64.6615 78.8276 64.9219 78.2807C65.1823 77.7338 65.3483 76.7833 65.4199 75.4291L65.8691 66.9721ZM80.5957 81.1909V66.9721H83.8086L88.584 77.226C88.6816 77.4343 88.7793 77.6459 88.877 77.8608C88.9746 78.0691 89.0495 78.2481 89.1016 78.3979H89.1602C89.2122 78.2481 89.2806 78.0691 89.3652 77.8608C89.4499 77.6459 89.5378 77.4343 89.6289 77.226L94.4629 66.9721H97.7441V81.1909H95.0684L95.0781 71.5424C95.0781 71.3406 95.0846 71.1258 95.0977 70.8979C95.1107 70.6635 95.1237 70.4487 95.1367 70.2534H95.0684C95.0228 70.4487 94.9642 70.6635 94.8926 70.8979C94.8275 71.1258 94.7493 71.3406 94.6582 71.5424L90.1465 81.1909H87.8418L83.3496 71.5424C83.252 71.3471 83.1673 71.1355 83.0957 70.9077C83.0241 70.6733 82.9655 70.4552 82.9199 70.2534H82.8516C82.8646 70.4552 82.8776 70.6733 82.8906 70.9077C82.9102 71.1355 82.9199 71.3504 82.9199 71.5522V81.1909H80.5957ZM99.209 81.1909L105.391 66.9037H108.057L114.248 81.1909H111.299L107.188 71.1127C107.064 70.8198 106.96 70.5398 106.875 70.2729C106.79 69.9995 106.712 69.739 106.641 69.4916H106.543C106.465 69.739 106.383 69.9995 106.299 70.2729C106.214 70.5463 106.113 70.8263 105.996 71.1127L101.855 81.1909H99.209ZM102.07 77.8608L102.832 75.8393H110.488L111.25 77.8608H102.07ZM121.279 79.394C122.484 79.394 123.369 79.1856 123.936 78.769C124.502 78.3523 124.788 77.7631 124.795 77.0014C124.795 76.2983 124.554 75.7612 124.072 75.3901C123.597 75.019 122.871 74.8334 121.895 74.8334H119.053V72.8315H121.729C122.646 72.8315 123.324 72.659 123.76 72.3139C124.196 71.9689 124.414 71.4675 124.414 70.81C124.414 70.1524 124.154 69.6479 123.633 69.2963C123.112 68.9448 122.301 68.769 121.201 68.769C120.042 68.769 119.167 68.9741 118.574 69.3842C117.982 69.7944 117.682 70.4259 117.676 71.2787V71.4252H114.98V71.2885C114.987 69.8432 115.511 68.7169 116.553 67.9096C117.601 67.0958 119.163 66.6889 121.24 66.6889C123.122 66.6889 124.57 67.0242 125.586 67.6948C126.602 68.3588 127.109 69.3191 127.109 70.5756C127.109 71.4285 126.875 72.1088 126.406 72.6166C125.944 73.1245 125.371 73.4825 124.688 73.6909V73.7299C125.521 73.9252 126.198 74.3061 126.719 74.8725C127.246 75.4324 127.51 76.1681 127.51 77.0795C127.51 78.4662 126.966 79.547 125.879 80.3217C124.798 81.0899 123.278 81.4741 121.318 81.4741C119.242 81.4741 117.637 81.0965 116.504 80.3412C115.378 79.586 114.808 78.3751 114.795 76.7084V76.5717H117.49L117.5 76.6987C117.5 77.6297 117.816 78.3133 118.447 78.7495C119.079 79.1791 120.023 79.394 121.279 79.394ZM129.932 81.1909V66.9721H132.646V72.8022H140.381V66.9721H143.086V81.1909H140.381V74.9116H132.646V81.1909H129.932ZM144.561 81.1909L150.742 66.9037H153.408L159.6 81.1909H156.65L152.539 71.1127C152.415 70.8198 152.311 70.5398 152.227 70.2729C152.142 69.9995 152.064 69.739 151.992 69.4916H151.895C151.816 69.739 151.735 69.9995 151.65 70.2729C151.566 70.5463 151.465 70.8263 151.348 71.1127L147.207 81.1909H144.561ZM147.422 77.8608L148.184 75.8393H155.84L156.602 77.8608H147.422ZM172.373 81.1909H169.658V75.8491H164.941L164.453 75.5952C163.216 75.4324 162.269 74.9702 161.611 74.2084C160.954 73.4467 160.625 72.4929 160.625 71.3471C160.625 70.006 161.104 68.9415 162.061 68.1537C163.024 67.366 164.382 66.9721 166.133 66.9721H172.373V81.1909ZM169.658 73.8471V69.0034H166.357C165.218 69.0034 164.43 69.2182 163.994 69.6479C163.558 70.0711 163.34 70.6472 163.34 71.3764C163.34 72.1121 163.558 72.7078 163.994 73.1635C164.43 73.6192 165.218 73.8471 166.357 73.8471H169.658ZM162.852 81.1909H159.961L164.092 74.6577H166.846L162.852 81.1909ZM180.713 81.1909V66.9721H186.914C188.743 66.9721 190.143 67.3627 191.113 68.144C192.09 68.9252 192.578 70.0678 192.578 71.5717C192.578 73.0431 192.093 74.1856 191.123 74.9995C190.153 75.8133 188.747 76.2071 186.904 76.1811H183.428V81.1909H180.713ZM183.428 74.1694H186.67C187.842 74.1694 188.669 73.9448 189.15 73.4955C189.632 73.0398 189.873 72.4018 189.873 71.5815C189.873 70.7547 189.632 70.1231 189.15 69.687C188.669 69.2442 187.842 69.0229 186.67 69.0229H183.428V74.1694ZM194.678 81.1909V66.9721H205.488V69.0717H197.363V72.8608H204.492V74.9018H197.363V79.101H205.605V81.1909H194.678ZM213.447 79.394C214.652 79.394 215.537 79.1856 216.104 78.769C216.67 78.3523 216.956 77.7631 216.963 77.0014C216.963 76.2983 216.722 75.7612 216.24 75.3901C215.765 75.019 215.039 74.8334 214.062 74.8334H211.221V72.8315H213.896C214.814 72.8315 215.492 72.659 215.928 72.3139C216.364 71.9689 216.582 71.4675 216.582 70.81C216.582 70.1524 216.322 69.6479 215.801 69.2963C215.28 68.9448 214.469 68.769 213.369 68.769C212.21 68.769 211.335 68.9741 210.742 69.3842C210.15 69.7944 209.85 70.4259 209.844 71.2787V71.4252H207.148V71.2885C207.155 69.8432 207.679 68.7169 208.721 67.9096C209.769 67.0958 211.331 66.6889 213.408 66.6889C215.29 66.6889 216.738 67.0242 217.754 67.6948C218.77 68.3588 219.277 69.3191 219.277 70.5756C219.277 71.4285 219.043 72.1088 218.574 72.6166C218.112 73.1245 217.539 73.4825 216.855 73.6909V73.7299C217.689 73.9252 218.366 74.3061 218.887 74.8725C219.414 75.4324 219.678 76.1681 219.678 77.0795C219.678 78.4662 219.134 79.547 218.047 80.3217C216.966 81.0899 215.446 81.4741 213.486 81.4741C211.41 81.4741 209.805 81.0965 208.672 80.3412C207.546 79.586 206.976 78.3751 206.963 76.7084V76.5717H209.658L209.668 76.6987C209.668 77.6297 209.984 78.3133 210.615 78.7495C211.247 79.1791 212.191 79.394 213.447 79.394ZM232.139 81.1909L225.596 74.3745L227.568 72.9682L235.469 81.1909H232.139ZM223.457 72.812H226.123L232.041 66.9721H234.98L226.689 74.9213H223.457V72.812ZM222.1 81.1909V66.9721H224.814V81.1909H222.1ZM234.873 81.1909L241.055 66.9037H243.721L249.912 81.1909H246.963L242.852 71.1127C242.728 70.8198 242.624 70.5398 242.539 70.2729C242.454 69.9995 242.376 69.739 242.305 69.4916H242.207C242.129 69.739 242.048 69.9995 241.963 70.2729C241.878 70.5463 241.777 70.8263 241.66 71.1127L237.52 81.1909H234.873ZM237.734 77.8608L238.496 75.8393H246.152L246.914 77.8608H237.734Z" fill="#231F20"/>
<g clip-path="url(#clip1_9859_21952)">
<path d="M297.182 127.175L302.602 131.176L314.238 115.295L308.819 111.295L297.182 127.175Z" fill="#7099ED" stroke="#231F20" stroke-width="0.6" stroke-miterlimit="10"/>
<path d="M329.669 175.328L330.688 181.997L350.121 179.04L349.103 172.371L329.669 175.328Z" fill="#7099ED" stroke="#231F20" stroke-width="0.6" stroke-miterlimit="10"/>
<path d="M247.87 104.924L249.33 107.411C280.559 99.8096 314.369 113.129 331.538 142.367C348.707 171.606 343.906 207.705 322.118 231.38L323.578 233.866C354.663 211.498 364.122 168.594 344.299 134.836C324.477 101.077 282.47 88.5385 247.869 104.921L247.87 104.924Z" fill="#7099ED" stroke="#231F20" stroke-width="0.6" stroke-miterlimit="10"/>
<path d="M478.812 22.4957L280.156 139.681L308.942 188.712L507.597 71.5273L478.812 22.4957Z" fill="#FF8B63" stroke="#231F20" stroke-width="0.6" stroke-miterlimit="10"/>
<path d="M231.943 199.108C231.646 198.569 231.339 198.029 231.074 197.473C230.972 197.266 231.034 197.022 231.208 196.934C231.387 196.837 231.458 196.602 231.355 196.392L231.18 196.035C231.081 195.83 230.851 195.729 230.672 195.812C230.483 195.896 230.254 195.802 230.15 195.589C229.896 195.033 229.66 194.467 229.42 193.908C229.329 193.692 229.404 193.459 229.583 193.377C229.772 193.292 229.855 193.065 229.761 192.849C229.713 192.725 229.655 192.607 229.609 192.483C229.53 192.267 229.317 192.152 229.128 192.219C228.935 192.29 228.717 192.18 228.632 191.955L227.989 190.213C227.914 190 228.007 189.77 228.188 189.698C229.124 189.249 230.062 188.806 231.005 188.373C231.2 188.28 231.295 188.043 231.224 187.822C231.154 187.601 230.94 187.464 230.73 187.501C229.712 187.692 228.691 187.874 227.667 188.053C227.476 188.099 227.276 187.963 227.207 187.748C227.11 187.455 227.036 187.153 226.958 186.852L226.723 185.953C226.666 185.729 226.771 185.507 226.964 185.454C227.163 185.399 227.278 185.186 227.22 184.958L227.119 184.57C227.07 184.348 226.878 184.199 226.683 184.239C226.485 184.284 226.279 184.138 226.231 183.905L225.858 182.106C225.808 181.881 225.946 181.662 226.138 181.623C226.338 181.586 226.474 181.375 226.436 181.143L226.374 180.75C226.337 180.525 226.15 180.365 225.952 180.391C225.75 180.418 225.557 180.263 225.518 180.028C225.471 179.72 225.421 179.417 225.38 179.107L225.277 178.186C225.251 177.958 225.383 177.759 225.576 177.726C226.672 177.472 227.77 177.227 228.87 176.989C228.93 176.975 228.969 176.914 228.965 176.847C228.956 176.775 229.005 176.711 229.074 176.703L229.499 176.665C230.186 183.94 232.4 191.182 236.264 197.922L235.895 198.135C235.835 198.166 235.76 198.144 235.725 198.081C235.694 198.021 235.625 197.997 235.567 198.021C234.533 198.46 233.496 198.896 232.452 199.32C232.277 199.405 232.053 199.317 231.945 199.118L231.943 199.108Z" fill="white" stroke="#231F20" stroke-width="0.6" stroke-miterlimit="10"/>
<path d="M251.53 215.551C250.789 216.399 250.043 217.241 249.288 218.078C249.167 218.229 248.927 218.246 248.744 218.118L247.989 217.578C247.737 217.398 247.499 217.199 247.253 217.014C247.07 216.871 247.019 216.627 247.138 216.466C247.26 216.301 247.22 216.059 247.036 215.913L246.724 215.667C246.545 215.527 246.297 215.536 246.172 215.688C246.04 215.841 245.785 215.866 245.605 215.708L244.217 214.507C244.042 214.355 244.005 214.109 244.134 213.96C244.264 213.803 244.239 213.561 244.063 213.406L243.776 213.13C243.61 212.973 243.364 212.96 243.227 213.104C243.088 213.252 242.84 213.247 242.666 213.084C242.224 212.652 241.765 212.235 241.337 211.789C241.181 211.625 241.162 211.382 241.296 211.239C241.944 210.43 242.599 209.622 243.259 208.82C243.376 208.681 243.381 208.482 243.289 208.322C243.272 208.291 243.247 208.261 243.22 208.232C243.059 208.062 242.808 208.03 242.636 208.157C241.8 208.771 240.959 209.379 240.113 209.982C239.965 210.107 239.721 210.073 239.568 209.905L238.362 208.497C238.21 208.319 238.212 208.074 238.362 207.945C238.516 207.812 238.528 207.565 238.376 207.387C238.286 207.287 238.21 207.18 238.129 207.074C237.987 206.894 237.751 206.847 237.59 206.964C237.428 207.089 237.186 207.047 237.039 206.861C236.666 206.375 236.287 205.893 235.924 205.401C235.79 205.212 235.812 204.963 235.968 204.843C236.135 204.721 236.165 204.474 236.033 204.28L235.806 203.956C235.676 203.769 235.437 203.706 235.27 203.813C235.098 203.926 234.856 203.87 234.721 203.674C234.359 203.171 234.04 202.644 233.713 202.123C233.596 201.93 233.627 201.69 233.786 201.58C234.66 200.872 235.544 200.173 236.43 199.483C236.478 199.445 236.49 199.371 236.456 199.315C236.418 199.253 236.432 199.175 236.492 199.141L236.858 198.921C240.865 205.573 246.11 211.029 252.12 215.158L251.88 215.508C251.843 215.563 251.764 215.573 251.706 215.533C251.652 215.496 251.579 215.498 251.536 215.546L251.53 215.551Z" fill="white" stroke="#231F20" stroke-width="0.6" stroke-miterlimit="10"/>
<path d="M224.994 174.673L224.939 173.748C224.93 173.439 224.929 173.132 224.922 172.818C224.92 172.585 225.079 172.398 225.278 172.389C225.481 172.383 225.648 172.2 225.645 171.964L225.641 171.565C225.639 171.336 225.477 171.149 225.279 171.144C225.076 171.136 224.901 170.952 224.911 170.713L224.978 168.879C224.99 168.647 225.155 168.469 225.353 168.474C225.559 168.481 225.726 168.31 225.748 168.078L225.78 167.682C225.799 167.452 225.657 167.257 225.454 167.235C225.252 167.213 225.1 167.02 225.121 166.782C225.181 166.167 225.212 165.545 225.305 164.937C225.332 164.712 225.511 164.548 225.704 164.561C226.742 164.567 227.781 164.58 228.815 164.6C229.03 164.602 229.218 164.433 229.247 164.2C229.277 163.97 229.147 163.752 228.937 163.696C227.936 163.424 226.936 163.144 225.934 162.855C225.741 162.813 225.624 162.606 225.662 162.381L225.996 160.556C226.036 160.328 226.228 160.175 226.423 160.213C226.625 160.249 226.822 160.106 226.877 159.878L226.967 159.491C227.019 159.267 226.905 159.052 226.714 159.002C226.516 158.951 226.391 158.738 226.448 158.506C226.587 157.909 226.718 157.314 226.895 156.73C226.957 156.504 227.163 156.37 227.354 156.419C227.552 156.47 227.763 156.342 227.826 156.119L227.934 155.734C227.998 155.515 227.895 155.29 227.708 155.226C227.515 155.163 227.401 154.937 227.47 154.709L228.054 152.952C228.127 152.738 228.331 152.611 228.519 152.665C229.617 152.911 230.71 153.166 231.801 153.426C231.864 153.44 231.927 153.405 231.952 153.343C231.978 153.273 232.048 153.236 232.113 153.261L232.52 153.41C229.944 160.419 228.857 167.955 229.4 175.481L228.977 175.512C228.911 175.516 228.853 175.462 228.851 175.388C228.846 175.318 228.795 175.266 228.732 175.266C227.609 175.208 226.488 175.147 225.362 175.076C225.169 175.077 225.002 174.898 224.991 174.674L224.994 174.673Z" fill="white" stroke="#231F20" stroke-width="0.6" stroke-miterlimit="10"/>
<path d="M273.501 224.407C273.2 225.493 272.892 226.577 272.572 227.656C272.53 227.846 272.32 227.964 272.1 227.924L270.279 227.584C270.054 227.539 269.903 227.335 269.94 227.139C269.98 226.94 269.839 226.734 269.612 226.679L269.225 226.588C269.002 226.535 268.788 226.65 268.736 226.842C268.681 227.042 268.469 227.163 268.238 227.109C267.642 226.98 267.057 226.806 266.469 226.636C266.248 226.576 266.11 226.37 266.162 226.174C266.213 225.975 266.088 225.763 265.862 225.7L265.482 225.59C265.26 225.526 265.035 225.626 264.975 225.813C264.909 226.008 264.688 226.11 264.46 226.034L262.71 225.44C262.496 225.368 262.369 225.163 262.43 224.976C262.662 223.962 262.905 222.949 263.152 221.936C263.204 221.726 263.077 221.506 262.861 221.42C262.648 221.337 262.405 221.416 262.306 221.604C261.819 222.519 261.329 223.435 260.83 224.345C260.747 224.523 260.52 224.598 260.308 224.515C259.731 224.3 259.174 224.028 258.607 223.78C258.396 223.685 258.293 223.461 258.368 223.278C258.45 223.09 258.353 222.864 258.141 222.766L257.781 222.602C257.57 222.511 257.338 222.563 257.249 222.746C257.156 222.929 256.92 222.996 256.71 222.89L255.076 222.059C254.87 221.956 254.782 221.721 254.873 221.542C254.966 221.358 254.889 221.124 254.686 221.007L254.34 220.812C254.139 220.701 253.899 220.747 253.795 220.915C253.69 221.091 253.449 221.148 253.242 221.028L252.442 220.566L251.658 220.069C251.469 219.948 251.393 219.718 251.485 219.549C251.966 218.529 252.459 217.513 252.956 216.501C252.982 216.445 252.959 216.373 252.902 216.339C252.841 216.3 252.82 216.223 252.856 216.166L253.087 215.81C259.393 219.937 266.488 222.642 273.855 223.784L273.789 224.212C273.779 224.278 273.712 224.325 273.639 224.316C273.574 224.306 273.508 224.346 273.494 224.406L273.501 224.407Z" fill="white" stroke="#231F20" stroke-width="0.6" stroke-miterlimit="10"/>
<path d="M229.456 150.195C229.279 150.11 229.206 149.879 229.289 149.666C229.533 149.099 229.788 148.536 230.036 147.971C230.133 147.759 230.353 147.657 230.533 147.737C230.721 147.819 230.947 147.726 231.044 147.513C231.098 147.392 231.16 147.275 231.218 147.156C231.321 146.953 231.261 146.715 231.084 146.62C230.901 146.526 230.834 146.287 230.942 146.075C231.219 145.532 231.484 144.982 231.777 144.446C231.891 144.244 232.121 144.157 232.297 144.248C232.48 144.342 232.714 144.269 232.83 144.062L233.024 143.715C233.135 143.517 233.088 143.276 232.92 143.169C232.745 143.063 232.691 142.82 232.81 142.613L233.038 142.212L233.285 141.818L233.78 141.035C233.903 140.845 234.13 140.77 234.299 140.866C235.232 141.32 236.16 141.782 237.085 142.247C237.279 142.342 237.516 142.268 237.642 142.074C237.772 141.882 237.751 141.632 237.59 141.491C236.808 140.813 236.027 140.127 235.253 139.437C235.099 139.316 235.081 139.076 235.209 138.891L235.745 138.132C235.921 137.88 236.097 137.625 236.29 137.384C236.432 137.2 236.675 137.15 236.838 137.265C237.003 137.388 237.248 137.348 237.389 137.16L237.633 136.848C237.776 136.667 237.763 136.419 237.612 136.294C237.456 136.162 237.435 135.912 237.58 135.724C237.766 135.481 237.967 135.249 238.166 135.017L238.762 134.322C238.913 134.146 239.159 134.109 239.307 134.239C239.464 134.37 239.705 134.345 239.859 134.169L240.12 133.867C240.272 133.698 240.286 133.458 240.142 133.317C239.994 133.177 239.995 132.929 240.158 132.758L241.438 131.415C241.591 131.25 241.838 131.234 241.983 131.365C242.87 132.069 243.746 132.776 244.622 133.493C244.669 133.532 244.743 133.53 244.792 133.48C244.844 133.429 244.924 133.426 244.97 133.475L245.263 133.778C239.78 139.079 235.622 145.424 232.921 152.312L232.526 152.156C232.464 152.131 232.434 152.056 232.464 151.986C232.489 151.924 232.466 151.855 232.41 151.825C231.42 151.288 230.435 150.744 229.448 150.189L229.456 150.195Z" fill="white" stroke="#231F20" stroke-width="0.6" stroke-miterlimit="10"/>
<path d="M275.017 223.955C282.335 224.924 289.89 224.361 297.173 222.122L297.299 222.529C297.32 222.592 297.276 222.665 297.207 222.684C297.144 222.705 297.102 222.768 297.115 222.828C297.314 223.941 297.507 225.058 297.692 226.173C297.734 226.362 297.601 226.572 297.381 226.628L295.589 227.098C295.366 227.155 295.144 227.045 295.091 226.856C295.04 226.658 294.824 226.54 294.597 226.598L294.211 226.684C293.984 226.727 293.837 226.923 293.877 227.116C293.919 227.319 293.777 227.52 293.541 227.569L292.645 227.755C292.345 227.818 292.05 227.884 291.745 227.927C291.518 227.964 291.305 227.834 291.268 227.637C291.227 227.434 291.021 227.3 290.793 227.336L290.401 227.399C290.173 227.435 290.014 227.623 290.04 227.819C290.064 228.022 289.91 228.216 289.675 228.254C289.37 228.308 289.063 228.337 288.757 228.374L287.835 228.473C287.611 228.495 287.409 228.363 287.38 228.171C287.154 227.157 286.935 226.141 286.723 225.127C286.713 225.083 286.697 225.044 286.676 225.01C286.591 224.867 286.423 224.78 286.237 224.8C286.005 224.817 285.825 224.988 285.813 225.203C285.772 226.238 285.725 227.277 285.668 228.316C285.669 228.51 285.494 228.677 285.268 228.688L284.342 228.739C284.036 228.758 283.725 228.774 283.419 228.775C283.187 228.777 282.996 228.618 282.988 228.422C282.977 228.215 282.796 228.051 282.56 228.054L282.163 228.057C281.934 228.059 281.749 228.224 281.743 228.42C281.736 228.626 281.555 228.794 281.32 228.797C280.71 228.795 280.102 228.757 279.491 228.738C279.257 228.73 279.078 228.561 279.087 228.361C279.09 228.155 278.917 227.981 278.686 227.969C278.554 227.963 278.42 227.965 278.29 227.948C278.064 227.931 277.867 228.074 277.847 228.273C277.829 228.475 277.634 228.628 277.397 228.61L275.557 228.447C275.331 228.416 275.165 228.241 275.178 228.044C275.172 226.913 275.177 225.78 275.187 224.653C275.187 224.589 275.139 224.533 275.07 224.527C274.998 224.518 274.949 224.455 274.955 224.39L275.009 223.968L275.017 223.955Z" fill="white" stroke="#231F20" stroke-width="0.6" stroke-miterlimit="10"/>
<path d="M245.878 132.311C245.219 131.397 244.561 130.468 243.918 129.547C243.797 129.397 243.832 129.159 244.007 129.011L245.412 127.802C245.589 127.65 245.833 127.652 245.962 127.804C246.092 127.959 246.342 127.977 246.526 127.834L246.837 127.587C247.018 127.448 247.066 127.207 246.946 127.047C246.821 126.883 246.862 126.637 247.051 126.493C247.536 126.119 248.01 125.734 248.513 125.396C248.701 125.262 248.95 125.284 249.067 125.446C249.188 125.61 249.432 125.644 249.624 125.509L249.951 125.284C250.137 125.154 250.199 124.914 250.092 124.747C249.979 124.574 250.034 124.331 250.23 124.196C250.742 123.852 251.27 123.536 251.789 123.208C251.981 123.087 252.217 123.12 252.328 123.283C252.971 124.098 253.609 124.918 254.239 125.739C254.373 125.911 254.621 125.948 254.815 125.823C255.018 125.707 255.107 125.475 255.021 125.278C254.612 124.326 254.205 123.37 253.804 122.412C253.716 122.237 253.803 122.013 254.001 121.902C254.541 121.608 255.072 121.298 255.618 121.014C255.824 120.911 256.067 120.971 256.162 121.147C256.259 121.327 256.497 121.398 256.706 121.295L257.062 121.12C257.266 121.022 257.363 120.795 257.28 120.612C257.196 120.425 257.285 120.193 257.498 120.089C258.039 119.809 258.608 119.58 259.167 119.335C259.379 119.245 259.614 119.317 259.697 119.5C259.781 119.686 260.011 119.77 260.23 119.678L260.594 119.523C260.803 119.434 260.915 119.211 260.846 119.028C260.775 118.835 260.885 118.616 261.106 118.531L262.841 117.887C263.052 117.808 263.275 117.889 263.354 118.069C263.847 119.081 264.337 120.107 264.815 121.129C264.841 121.183 264.91 121.21 264.977 121.192C265.046 121.169 265.117 121.206 265.142 121.268L265.274 121.674C261.799 122.827 258.395 124.364 255.115 126.298C251.834 128.231 248.829 130.482 246.131 132.973L245.842 132.659C245.799 132.608 245.803 132.529 245.858 132.478C245.908 132.432 245.916 132.359 245.88 132.307L245.878 132.311Z" fill="white" stroke="#231F20" stroke-width="0.6" stroke-miterlimit="10"/>
<path d="M319.641 213.898C319.763 214.052 319.727 214.286 319.552 214.435L318.148 215.643C317.969 215.792 317.726 215.793 317.597 215.641C317.464 215.487 317.217 215.468 317.034 215.611L316.718 215.855C316.538 215.994 316.489 216.235 316.61 216.396C316.734 216.559 316.694 216.805 316.504 216.95C316.019 217.32 315.545 217.708 315.043 218.047C314.853 218.177 314.606 218.158 314.489 217.997C314.367 217.829 314.123 217.795 313.931 217.93L313.605 218.159C313.419 218.288 313.355 218.525 313.464 218.696C313.575 218.865 313.52 219.108 313.325 219.243C312.813 219.587 312.284 219.903 311.766 220.234C311.573 220.352 311.337 220.319 311.228 220.16C310.584 219.345 309.947 218.525 309.316 217.703C309.183 217.535 308.939 217.497 308.74 217.619C308.537 217.735 308.451 217.967 308.535 218.167C308.944 219.12 309.351 220.076 309.748 221.034C309.837 221.209 309.749 221.434 309.552 221.545C309.011 221.839 308.478 222.149 307.935 222.433C307.728 222.535 307.486 222.476 307.391 222.303C307.295 222.122 307.057 222.052 306.847 222.155L306.491 222.33C306.288 222.428 306.191 222.659 306.273 222.838C306.357 223.025 306.267 223.253 306.055 223.361C305.514 223.637 304.945 223.87 304.389 224.111C304.178 224.204 303.939 224.13 303.859 223.946C303.775 223.759 303.545 223.676 303.33 223.77L302.966 223.926C302.757 224.015 302.645 224.238 302.714 224.424C302.786 224.617 302.676 224.836 302.455 224.92L300.72 225.565C300.508 225.641 300.282 225.56 300.207 225.382C299.714 224.371 299.224 223.345 298.746 222.323C298.719 222.265 298.65 222.238 298.584 222.26C298.514 222.279 298.443 222.245 298.419 222.184L298.282 221.776C301.758 220.622 305.162 219.085 308.442 217.152C311.729 215.213 314.731 212.966 317.426 210.476L317.715 210.791C317.758 210.841 317.755 210.923 317.702 210.97C317.652 211.017 317.644 211.089 317.68 211.141C318.339 212.059 318.997 212.984 319.639 213.906L319.641 213.898Z" fill="white" stroke="#231F20" stroke-width="0.6" stroke-miterlimit="10"/>
<path d="M288.547 119.493C281.228 118.521 273.674 119.087 266.39 121.323L266.268 120.918C266.247 120.856 266.29 120.783 266.356 120.761C266.418 120.74 266.461 120.677 266.451 120.616C266.249 119.504 266.057 118.39 265.872 117.275C265.83 117.086 265.959 116.877 266.179 116.821L267.971 116.351C268.197 116.29 268.415 116.4 268.466 116.594C268.517 116.795 268.73 116.91 268.96 116.852L269.346 116.766C269.573 116.722 269.719 116.527 269.68 116.334C269.638 116.131 269.781 115.933 270.016 115.881L270.912 115.695C271.213 115.635 271.511 115.569 271.811 115.523C272.039 115.486 272.251 115.616 272.292 115.812C272.329 116.012 272.537 116.154 272.768 116.116L273.16 116.054C273.384 116.018 273.547 115.829 273.521 115.634C273.497 115.43 273.65 115.233 273.886 115.199C274.188 115.149 274.498 115.115 274.804 115.082L275.727 114.983C275.951 114.961 276.153 115.093 276.182 115.285C276.408 116.299 276.626 117.311 276.839 118.329C276.849 118.372 276.864 118.411 276.886 118.445C276.97 118.586 277.138 118.676 277.324 118.656C277.557 118.642 277.738 118.471 277.749 118.253C277.79 117.218 277.837 116.182 277.895 115.143C277.89 114.946 278.069 114.786 278.291 114.772L279.213 114.718C279.519 114.7 279.83 114.684 280.14 114.685C280.371 114.68 280.562 114.839 280.571 115.038C280.582 115.245 280.763 115.409 280.999 115.406L281.396 115.403C281.625 115.401 281.811 115.24 281.816 115.04C281.823 114.837 282.004 114.666 282.243 114.666C282.854 114.668 283.464 114.701 284.072 114.725C284.303 114.734 284.485 114.902 284.479 115.098C284.472 115.304 284.645 115.478 284.877 115.49C285.009 115.499 285.143 115.498 285.273 115.511C285.503 115.531 285.697 115.389 285.716 115.19C285.733 114.984 285.928 114.831 286.166 114.852L288.007 115.019C288.233 115.05 288.399 115.225 288.386 115.419C288.388 116.55 288.386 117.682 288.374 118.814C288.373 118.874 288.421 118.93 288.489 118.936C288.563 118.948 288.611 119.008 288.605 119.073L288.551 119.496L288.547 119.493Z" fill="white" stroke="#231F20" stroke-width="0.6" stroke-miterlimit="10"/>
<path d="M334.103 193.251C334.28 193.335 334.349 193.568 334.269 193.776C334.025 194.344 333.77 194.906 333.522 195.471C333.429 195.683 333.205 195.786 333.025 195.706C332.837 195.624 332.611 195.717 332.514 195.929C332.46 196.051 332.398 196.167 332.34 196.286C332.237 196.49 332.297 196.727 332.473 196.819C332.656 196.913 332.723 197.152 332.616 197.364C332.338 197.907 332.074 198.461 331.781 198.997C331.668 199.199 331.437 199.286 331.257 199.191C331.074 199.098 330.841 199.174 330.724 199.377L330.53 199.725C330.419 199.923 330.466 200.167 330.634 200.271C330.809 200.377 330.864 200.623 330.745 200.83L330.517 201.231L330.269 201.622L329.774 202.405C329.651 202.595 329.424 202.67 329.255 202.573C328.322 202.12 327.394 201.658 326.469 201.192C326.279 201.097 326.038 201.172 325.913 201.369C325.783 201.561 325.803 201.811 325.965 201.952C326.747 202.63 327.527 203.316 328.302 204.006C328.456 204.128 328.474 204.368 328.346 204.552L327.81 205.311C327.629 205.56 327.458 205.818 327.265 206.059C327.123 206.243 326.88 206.293 326.72 206.177C326.553 206.059 326.311 206.098 326.165 206.279L325.921 206.592C325.782 206.775 325.791 207.021 325.942 207.146C326.102 207.277 326.119 207.528 325.974 207.716C325.788 207.959 325.587 208.191 325.388 208.423L324.792 209.118C324.641 209.293 324.395 209.33 324.247 209.201C324.09 209.066 323.845 209.092 323.695 209.271L323.434 209.569C323.282 209.741 323.268 209.981 323.412 210.119C323.559 210.26 323.558 210.507 323.395 210.678L322.116 212.021C321.962 212.186 321.711 212.2 321.57 212.072C320.683 211.367 319.807 210.661 318.931 209.943C318.884 209.904 318.81 209.907 318.762 209.957C318.706 210.008 318.628 210.007 318.582 209.958L318.289 209.655C323.773 204.354 327.93 198.009 330.632 191.121L331.026 191.277C331.088 191.302 331.119 191.377 331.089 191.447C331.064 191.512 331.09 191.581 331.142 191.608C332.132 192.145 333.121 192.692 334.104 193.244L334.103 193.251Z" fill="white" stroke="#231F20" stroke-width="0.6" stroke-miterlimit="10"/>
<path d="M290.064 119.038C290.365 117.953 290.674 116.872 290.993 115.789C291.035 115.6 291.245 115.482 291.468 115.521L293.285 115.858C293.511 115.907 293.659 116.111 293.624 116.303C293.584 116.506 293.725 116.708 293.952 116.764L294.339 116.855C294.562 116.907 294.776 116.792 294.828 116.6C294.883 116.401 295.099 116.278 295.327 116.337C295.923 116.466 296.508 116.64 297.091 116.807C297.317 116.87 297.451 117.077 297.399 117.269C297.345 117.469 297.473 117.68 297.699 117.743L298.079 117.853C298.301 117.917 298.526 117.817 298.586 117.63C298.652 117.435 298.876 117.332 299.101 117.41L300.852 118.006C301.065 118.079 301.191 118.281 301.132 118.471C300.899 119.485 300.656 120.497 300.409 121.508C300.384 121.616 300.405 121.728 300.458 121.822C300.509 121.91 300.593 121.986 300.698 122.027C300.914 122.113 301.153 122.031 301.256 121.842C301.738 120.925 302.233 120.012 302.73 119.098C302.814 118.92 303.045 118.847 303.253 118.928C303.834 119.145 304.387 119.415 304.954 119.663C305.165 119.758 305.271 119.982 305.193 120.165C305.112 120.357 305.207 120.58 305.419 120.677L305.78 120.841C305.991 120.932 306.222 120.88 306.312 120.698C306.405 120.514 306.641 120.448 306.851 120.553L308.485 121.384C308.694 121.486 308.779 121.725 308.688 121.901C308.595 122.085 308.673 122.322 308.875 122.44L309.222 122.635C309.419 122.746 309.663 122.699 309.762 122.528C309.867 122.353 310.108 122.296 310.315 122.416L311.116 122.878L311.9 123.375C312.089 123.495 312.168 123.725 312.073 123.899C311.588 124.916 311.099 125.934 310.605 126.942C310.575 126.999 310.598 127.068 310.655 127.105C310.717 127.144 310.737 127.221 310.7 127.275L310.469 127.631C304.164 123.504 297.068 120.798 289.701 119.657L289.768 119.228C289.778 119.162 289.845 119.116 289.915 119.128C289.984 119.138 290.046 119.099 290.06 119.036L290.064 119.038Z" fill="white" stroke="#231F20" stroke-width="0.6" stroke-miterlimit="10"/>
<path d="M338.573 168.775L338.628 169.7C338.637 170.009 338.639 170.317 338.641 170.628C338.643 170.86 338.485 171.051 338.285 171.057C338.082 171.063 337.915 171.246 337.918 171.482L337.922 171.877C337.924 172.107 338.086 172.297 338.285 172.302C338.487 172.307 338.662 172.494 338.651 172.73L338.584 174.563C338.577 174.798 338.409 174.977 338.209 174.968C337.999 174.959 337.833 175.13 337.811 175.365L337.78 175.761C337.76 175.988 337.903 176.186 338.102 176.209C338.304 176.231 338.457 176.427 338.436 176.665C338.376 177.28 338.344 177.899 338.255 178.51C338.223 178.732 338.046 178.903 337.856 178.885C336.818 178.879 335.779 178.867 334.745 178.846C334.668 178.846 334.598 178.865 334.533 178.904C334.418 178.972 334.333 179.097 334.312 179.243C334.282 179.473 334.413 179.695 334.622 179.747C335.624 180.023 336.624 180.302 337.626 180.588C337.818 180.63 337.935 180.838 337.897 181.062L337.563 182.884C337.522 183.112 337.33 183.264 337.136 183.23C336.934 183.194 336.736 183.333 336.682 183.565L336.591 183.949C336.539 184.173 336.654 184.388 336.849 184.44C337.043 184.489 337.169 184.705 337.114 184.936C336.972 185.53 336.841 186.129 336.669 186.716C336.606 186.938 336.4 187.076 336.206 187.028C336.008 186.976 335.797 187.108 335.734 187.331L335.626 187.712C335.562 187.932 335.665 188.16 335.852 188.221C336.046 188.287 336.159 188.509 336.09 188.737L335.502 190.495C335.43 190.709 335.226 190.836 335.037 190.779C333.939 190.533 332.845 190.277 331.755 190.018C331.692 190.004 331.63 190.043 331.605 190.105C331.578 190.174 331.508 190.208 331.444 190.187L331.04 190.036C333.615 183.024 334.699 175.493 334.156 167.963L334.579 167.932C334.645 167.928 334.703 167.982 334.709 168.055C334.713 168.122 334.763 168.174 334.827 168.177C335.95 168.235 337.071 168.296 338.197 168.367C338.394 168.366 338.557 168.545 338.569 168.772L338.573 168.775Z" fill="white" stroke="#231F20" stroke-width="0.6" stroke-miterlimit="10"/>
<path d="M312.025 127.895C312.767 127.05 313.513 126.205 314.267 125.368C314.389 125.217 314.628 125.199 314.812 125.331L315.567 125.871C315.816 126.052 316.056 126.246 316.303 126.435C316.486 126.578 316.534 126.823 316.418 126.983C316.295 127.145 316.336 127.39 316.52 127.537L316.832 127.782C317.012 127.926 317.26 127.916 317.388 127.764C317.519 127.607 317.775 127.586 317.955 127.744L319.343 128.945C319.518 129.097 319.555 129.34 319.427 129.492C319.292 129.646 319.318 129.891 319.494 130.047L319.781 130.322C319.946 130.48 320.192 130.492 320.33 130.352C320.47 130.204 320.718 130.209 320.892 130.372C321.333 130.804 321.793 131.221 322.22 131.667C322.376 131.831 322.395 132.074 322.265 132.216C321.614 133.026 320.958 133.83 320.297 134.632C320.162 134.8 320.179 135.051 320.337 135.221C320.498 135.39 320.749 135.423 320.921 135.296C321.757 134.682 322.597 134.07 323.443 133.468C323.595 133.345 323.835 133.377 323.988 133.544L325.195 134.955C325.346 135.13 325.345 135.378 325.194 135.507C325.041 135.64 325.029 135.887 325.181 136.062C325.27 136.162 325.347 136.272 325.427 136.375C325.565 136.553 325.805 136.602 325.965 136.481C326.127 136.357 326.369 136.398 326.517 136.588C326.889 137.071 327.268 137.553 327.632 138.045C327.765 138.234 327.743 138.483 327.587 138.603C327.424 138.728 327.391 138.972 327.522 139.166L327.749 139.49C327.88 139.68 328.119 139.74 328.285 139.632C328.457 139.52 328.699 139.575 328.834 139.772C329.197 140.275 329.516 140.805 329.843 141.326C329.96 141.519 329.929 141.756 329.771 141.869C328.895 142.574 328.014 143.272 327.126 143.966C327.078 144.005 327.066 144.078 327.103 144.133C327.138 144.196 327.124 144.274 327.068 144.307L326.704 144.526C322.698 137.875 317.453 132.419 311.439 128.287L311.678 127.937C311.715 127.882 311.794 127.872 311.853 127.915C311.907 127.953 311.98 127.947 312.022 127.899L312.025 127.895Z" fill="white" stroke="#231F20" stroke-width="0.6" stroke-miterlimit="10"/>
<path d="M331.623 144.34C331.92 144.879 332.226 145.416 332.488 145.976C332.591 146.183 332.529 146.427 332.355 146.519C332.172 146.613 332.102 146.851 332.205 147.061L332.38 147.419C332.478 147.623 332.709 147.724 332.888 147.641C333.077 147.557 333.306 147.651 333.41 147.865C333.665 148.423 333.9 148.986 334.144 149.547C334.234 149.761 334.16 149.997 333.98 150.076C333.794 150.156 333.709 150.391 333.802 150.604C333.85 150.727 333.909 150.848 333.954 150.969C334.034 151.185 334.25 151.3 334.436 151.233C334.628 151.162 334.85 151.272 334.932 151.498L335.577 153.239C335.653 153.452 335.559 153.682 335.378 153.754C334.442 154.203 333.504 154.642 332.561 155.079C332.366 155.168 332.271 155.405 332.341 155.626C332.412 155.848 332.626 155.987 332.836 155.948C333.854 155.756 334.875 155.575 335.899 155.396C336.09 155.35 336.293 155.485 336.358 155.7C336.456 155.997 336.53 156.295 336.607 156.596L336.843 157.495C336.904 157.722 336.794 157.941 336.602 157.995C336.406 158.049 336.289 158.266 336.347 158.494L336.446 158.878C336.496 159.101 336.691 159.248 336.884 159.212C337.082 159.168 337.287 159.313 337.335 159.543L337.712 161.345C337.762 161.57 337.624 161.789 337.432 161.828C337.232 161.865 337.096 162.076 337.133 162.305L337.196 162.698C337.232 162.923 337.419 163.083 337.617 163.056C337.82 163.033 338.012 163.184 338.052 163.423C338.098 163.727 338.149 164.034 338.189 164.34L338.293 165.265C338.315 165.49 338.184 165.693 337.994 165.725C336.898 165.979 335.8 166.224 334.701 166.466C334.641 166.479 334.602 166.541 334.606 166.607C334.611 166.68 334.566 166.743 334.496 166.748L334.075 166.786C333.387 159.511 331.173 152.268 327.314 145.531L327.682 145.318C327.741 145.283 327.817 145.305 327.853 145.372C327.883 145.429 327.952 145.456 328.011 145.432C329.044 144.993 330.083 144.56 331.126 144.133C331.301 144.048 331.525 144.136 331.633 144.335L331.623 144.34Z" fill="white" stroke="#231F20" stroke-width="0.6" stroke-miterlimit="10"/>
<path d="M325.838 146.375L327.304 145.536C331.167 152.272 333.378 159.519 334.065 166.79L332.373 166.948C332.121 166.53 331.66 166.279 331.162 166.337C330.463 166.415 329.96 167.037 330.033 167.725C330.074 168.416 330.675 168.947 331.375 168.907C331.884 168.882 332.303 168.548 332.477 168.082L334.163 167.96C334.707 175.49 333.622 183.022 331.047 190.034L329.457 189.444C329.424 188.963 329.098 188.53 328.628 188.366C328.295 188.249 327.953 188.279 327.663 188.418C327.373 188.557 327.12 188.798 326.999 189.122C326.747 189.765 327.071 190.506 327.717 190.78C328.187 190.976 328.707 190.856 329.056 190.51L330.63 191.135C327.928 198.019 323.771 204.369 318.288 209.669L317.104 208.44C317.278 207.988 317.188 207.474 316.834 207.118C316.339 206.619 315.528 206.602 315.031 207.077C314.535 207.556 314.503 208.362 314.961 208.883C315.131 209.075 315.346 209.2 315.582 209.264C315.814 209.322 316.057 209.307 316.289 209.227L317.434 210.475C314.74 212.964 311.737 215.211 308.451 217.15C305.17 219.084 301.766 220.621 298.291 221.774L297.757 220.156C297.933 219.993 298.055 219.786 298.115 219.56C298.172 219.328 298.163 219.082 298.082 218.846C297.851 218.19 297.132 217.827 296.473 218.03C295.817 218.236 295.438 218.954 295.631 219.629C295.772 220.121 296.188 220.453 296.68 220.51L297.179 222.132C289.898 224.366 282.341 224.933 275.023 223.965L275.241 222.271C275.702 222.123 276.049 221.734 276.103 221.234C276.18 220.537 275.688 219.894 275.008 219.801C274.663 219.754 274.33 219.857 274.069 220.046C273.81 220.231 273.614 220.519 273.554 220.868C273.471 221.368 273.697 221.873 274.114 222.13L273.862 223.799C266.494 222.654 259.399 219.952 253.094 215.825L254.023 214.398C254.506 214.46 254.989 214.253 255.254 213.83C255.625 213.234 255.454 212.452 254.874 212.079C254.31 211.684 253.523 211.821 253.115 212.396C252.82 212.812 252.82 213.35 253.074 213.778L252.121 215.176C246.11 211.043 240.863 205.591 236.86 198.939L238.313 198.059C238.721 198.322 239.245 198.35 239.668 198.083C240.261 197.707 240.447 196.929 240.084 196.342C239.748 195.737 238.977 195.52 238.362 195.859C237.916 196.103 237.683 196.591 237.725 197.083L236.264 197.926C232.4 191.185 230.19 183.942 229.499 176.668L231.19 176.51C231.442 176.928 231.903 177.179 232.402 177.124C233.101 177.047 233.603 176.425 233.531 175.737C233.491 175.05 232.889 174.519 232.189 174.554C231.681 174.583 231.262 174.917 231.087 175.38L229.401 175.501C228.857 167.972 229.942 160.44 232.521 153.431L234.108 154.021C234.14 154.499 234.466 154.932 234.937 155.099C235.27 155.216 235.615 155.185 235.901 155.047C236.191 154.908 236.444 154.668 236.57 154.346C236.818 153.704 236.498 152.961 235.848 152.689C235.378 152.493 234.859 152.616 234.509 152.959L232.936 152.337C235.637 145.449 239.794 139.1 245.279 133.803L246.463 135.035C246.288 135.484 246.378 135.998 246.729 136.355C247.227 136.852 248.035 136.871 248.532 136.395C249.032 135.92 249.06 135.111 248.602 134.59C248.433 134.401 248.217 134.273 247.982 134.212C247.75 134.154 247.506 134.166 247.274 134.246L246.128 132.998C248.823 130.508 251.826 128.261 255.112 126.323C258.398 124.384 261.797 122.852 265.272 121.699L265.81 123.319C265.634 123.482 265.508 123.691 265.449 123.916C265.392 124.148 265.401 124.394 265.481 124.63C265.712 125.286 266.432 125.653 267.091 125.446C267.746 125.24 268.125 124.522 267.933 123.847C267.791 123.355 267.375 123.023 266.887 122.966L266.388 121.344C273.669 119.109 281.226 118.542 288.545 119.514L288.326 121.208C287.865 121.353 287.519 121.745 287.464 122.242C287.388 122.941 287.879 123.582 288.563 123.677C288.905 123.724 289.237 123.618 289.499 123.433C289.761 123.247 289.954 122.96 290.014 122.611C290.096 122.111 289.87 121.603 289.454 121.349L289.71 119.682C297.077 120.824 304.172 123.526 310.478 127.656L309.549 129.084C309.066 129.021 308.583 129.228 308.318 129.651C307.947 130.247 308.119 131.033 308.698 131.403C309.262 131.8 310.049 131.66 310.457 131.088C310.752 130.672 310.752 130.135 310.498 129.707L311.452 128.309C317.466 132.441 322.711 137.897 326.717 144.549L325.264 145.428C324.855 145.162 324.328 145.138 323.908 145.405C323.315 145.777 323.129 146.558 323.496 147.145C323.832 147.749 324.599 147.964 325.215 147.628C325.66 147.381 325.894 146.897 325.847 146.401L325.838 146.375Z" fill="#7099ED" stroke="#231F20" stroke-width="0.6" stroke-miterlimit="10"/>
<path d="M272.28 129.057C281.195 127.07 290.374 127.928 298.825 131.541C307.446 135.226 314.522 141.466 319.294 149.592C325.203 159.654 326.856 171.418 323.946 182.714C321.036 194.009 313.917 203.488 303.896 209.397C299.949 211.723 295.706 213.405 291.277 214.392C282.362 216.379 273.183 215.521 264.73 211.909C256.108 208.224 249.029 201.985 244.26 193.858C238.352 183.796 236.699 172.032 239.609 160.736C242.519 149.44 249.637 139.962 259.659 134.053C263.602 131.727 267.848 130.045 272.277 129.058M272.202 128.721C267.837 129.694 263.545 131.358 259.483 133.756C238.6 146.076 231.653 173.065 243.965 194.034C253.884 210.927 273.271 218.759 291.352 214.729C295.718 213.756 300.01 212.092 304.071 209.694C324.954 197.374 331.902 170.385 319.59 149.416C309.67 132.523 290.283 124.687 272.202 128.721Z" fill="white"/>
<path d="M286 190.666C277.79 192.496 269.399 188.835 265.125 181.549C259.71 172.325 262.775 160.415 271.962 154.996C273.712 153.962 275.597 153.216 277.565 152.778C285.774 150.948 294.165 154.61 298.44 161.895C303.855 171.119 300.789 183.03 291.603 188.448C289.852 189.482 287.967 190.228 286 190.666Z" fill="white"/>
<path d="M277.527 152.61L277.602 152.947C285.738 151.134 294.051 154.767 298.289 161.982C303.657 171.121 300.617 182.927 291.512 188.299C289.777 189.323 287.909 190.065 285.962 190.499C277.826 192.312 269.509 188.68 265.271 181.464C259.903 172.325 262.942 160.519 272.047 155.147C273.782 154.124 275.652 153.385 277.598 152.948L277.523 152.611M277.523 152.611C275.582 153.043 273.675 153.783 271.871 154.847C262.588 160.323 259.502 172.315 264.974 181.636C269.383 189.143 277.997 192.624 286.036 190.832C287.977 190.4 289.884 189.66 291.688 188.596C300.971 183.121 304.057 171.128 298.585 161.807C294.176 154.3 285.561 150.816 277.523 152.611Z" fill="#231F20"/>
<path d="M283.641 180.068C280.025 180.875 276.331 179.261 274.446 176.052C272.06 171.989 273.41 166.743 277.457 164.355C278.229 163.9 279.058 163.57 279.924 163.377C283.541 162.571 287.235 164.185 289.12 167.394C290.274 169.361 290.6 171.662 290.029 173.873C289.457 176.084 288.069 177.936 286.109 179.09C285.336 179.546 284.508 179.875 283.641 180.068Z" fill="white"/>
<path d="M279.884 163.209L279.959 163.546C283.502 162.756 287.121 164.337 288.967 167.48C291.304 171.462 289.982 176.6 286.017 178.941C285.259 179.385 284.446 179.708 283.597 179.897C280.054 180.687 276.435 179.106 274.589 175.963C273.458 174.036 273.138 171.78 273.696 169.618C274.253 167.453 275.618 165.638 277.537 164.507C278.294 164.062 279.107 163.739 279.956 163.55L279.881 163.213M279.881 163.213C279.018 163.405 278.169 163.736 277.365 164.209C273.231 166.648 271.856 171.991 274.294 176.142C276.258 179.485 280.093 181.036 283.673 180.238C284.536 180.045 285.385 179.715 286.189 179.242C290.323 176.803 291.698 171.459 289.26 167.309C287.296 163.966 283.461 162.415 279.881 163.213Z" fill="#231F20"/>
<path d="M331.542 142.367C339.025 155.113 342.333 169.165 341.882 182.919L354.561 177.299C355.4 162.938 352.14 148.172 344.307 134.835C336.477 121.498 325.181 111.476 312.25 105.236L301.194 113.618C313.412 119.901 324.061 129.617 331.545 142.367L331.542 142.367Z" fill="#FF8B63" stroke="#231F20" stroke-width="0.6" stroke-miterlimit="10"/>
<path d="M320.918 128.322L484.339 31.9106" stroke="#231F20" stroke-width="0.6" stroke-miterlimit="10"/>
<path d="M337.76 155.813L500.664 59.7074" stroke="#231F20" stroke-width="0.6" stroke-miterlimit="10"/>
<path d="M313.68 115.811C315.481 115.41 316.614 113.62 316.211 111.812C315.808 110.005 314.022 108.866 312.221 109.267C310.421 109.669 309.287 111.459 309.69 113.266C310.093 115.073 311.879 116.213 313.68 115.811Z" stroke="#231F20" stroke-width="0.6" stroke-miterlimit="10"/>
<path d="M313.911 116.849C316.283 116.32 317.776 113.962 317.245 111.582C316.715 109.202 314.362 107.701 311.99 108.229C309.618 108.758 308.125 111.116 308.656 113.496C309.187 115.877 311.539 117.378 313.911 116.849Z" stroke="#231F20" stroke-width="0.6" stroke-miterlimit="10"/>
<path d="M312.925 109.906L310.667 111.241L310.689 113.871L312.974 115.169L315.232 113.838L315.209 111.205L312.925 109.906Z" fill="#7099ED" stroke="#231F20" stroke-width="0.6" stroke-miterlimit="10"/>
<path d="M349.039 177.051C350.84 176.649 351.973 174.859 351.57 173.052C351.168 171.245 349.381 170.105 347.581 170.507C345.78 170.908 344.647 172.698 345.05 174.506C345.452 176.313 347.239 177.452 349.039 177.051Z" stroke="#231F20" stroke-width="0.6" stroke-miterlimit="10"/>
<path d="M349.271 178.089C351.643 177.56 353.135 175.202 352.605 172.822C352.074 170.441 349.721 168.94 347.349 169.469C344.977 169.998 343.485 172.356 344.015 174.736C344.546 177.116 346.899 178.617 349.271 178.089Z" stroke="#231F20" stroke-width="0.6" stroke-miterlimit="10"/>
<path d="M348.284 171.149L346.026 172.48L346.048 175.111L348.332 176.409L350.591 175.078L350.568 172.448L348.284 171.149Z" fill="#7099ED" stroke="#231F20" stroke-width="0.6" stroke-miterlimit="10"/>
<path d="M337.688 140.84C339.489 140.439 340.622 138.649 340.219 136.842C339.816 135.035 338.03 133.895 336.229 134.296C334.428 134.698 333.295 136.488 333.698 138.295C334.101 140.102 335.887 141.242 337.688 140.84Z" stroke="#231F20" stroke-width="0.6" stroke-miterlimit="10"/>
<path d="M337.919 141.878C340.291 141.35 341.784 138.991 341.253 136.611C340.722 134.231 338.37 132.73 335.998 133.258C333.626 133.787 332.133 136.145 332.664 138.526C333.194 140.906 335.547 142.407 337.919 141.878Z" stroke="#231F20" stroke-width="0.6" stroke-miterlimit="10"/>
<path d="M336.933 134.938L334.671 136.27L334.697 138.903L336.978 140.202L339.239 138.867L339.214 136.237L336.933 134.938Z" fill="#7099ED" stroke="#231F20" stroke-width="0.6" stroke-miterlimit="10"/>
<path d="M511.821 78.7129L432.943 125.247C424.215 130.397 414.261 133.508 404.155 134.247C394.049 134.985 383.744 133.349 374.351 129.521L311.652 103.973C292.823 96.2989 272.536 96.5091 253.291 102.783C251.691 103.306 249.717 104.05 248.198 104.775L211.974 121.738L209.47 115.943L238.477 101.236C261.648 89.4881 288.759 87.9514 312.965 97.4475C313.343 97.5965 313.723 97.7489 314.102 97.9014L376.801 123.45C393.944 130.435 413.688 128.995 429.622 119.596L508.499 73.0616L511.818 78.7137L511.821 78.7129Z" fill="#7099ED" stroke="#231F20" stroke-width="0.6" stroke-miterlimit="10"/>
<path d="M263.226 92.8186L264.49 99.8483" stroke="#231F20" stroke-width="0.6" stroke-miterlimit="10"/>
<path d="M277.556 91.2798L278.23 98.2076" stroke="#231F20" stroke-width="0.6" stroke-miterlimit="10"/>
<path d="M271.697 97.1024C272.687 96.8817 273.31 95.8971 273.089 94.9033C272.867 93.9095 271.885 93.2828 270.895 93.5035C269.904 93.7243 269.281 94.7088 269.503 95.7027C269.724 96.6965 270.707 97.3232 271.697 97.1024Z" stroke="#231F20" stroke-width="0.6" stroke-miterlimit="10"/>
<path d="M208.051 127.203C211.591 126.414 213.819 122.894 213.027 119.341C212.235 115.789 208.724 113.548 205.183 114.337C201.643 115.127 199.415 118.646 200.207 122.199C200.999 125.752 204.511 127.992 208.051 127.203Z" fill="#7099ED" stroke="#231F20" stroke-width="0.6" stroke-miterlimit="10"/>
<path d="M207.421 124.383C209.409 123.94 210.66 121.963 210.215 119.968C209.771 117.973 207.798 116.715 205.81 117.158C203.823 117.601 202.571 119.578 203.016 121.573C203.461 123.568 205.433 124.826 207.421 124.383Z" fill="#7099ED" stroke="#231F20" stroke-width="0.6" stroke-miterlimit="10"/>
<path d="M207.066 122.553C208.06 122.331 208.685 121.343 208.463 120.345C208.241 119.348 207.255 118.719 206.261 118.94C205.267 119.162 204.641 120.15 204.864 121.148C205.086 122.145 206.072 122.774 207.066 122.553Z" fill="white" stroke="#231F20" stroke-width="0.6" stroke-miterlimit="10"/>
</g>
</g>
<defs>
<clipPath id="clip0_9859_21952">
<rect width="384" height="240" rx="32" fill="white"/>
</clipPath>
<clipPath id="clip1_9859_21952">
<rect width="314" height="173" fill="white" transform="translate(192 86.1909) rotate(-12.5661)"/>
</clipPath>
</defs>
</svg>
