<svg width="385" height="240" viewBox="0 0 385 240" fill="none" xmlns="http://www.w3.org/2000/svg">
<g clip-path="url(#clip0_9859_21954)">
<rect x="0.5" width="384" height="240" rx="32" fill="white"/>
<path d="M28.3223 58.1909V43.9721H39.2109V46.0522H31.0371V49.4897H35.1582C36.7858 49.4897 38.0293 49.8608 38.8887 50.603C39.748 51.3452 40.1777 52.4161 40.1777 53.8159C40.1777 55.2351 39.748 56.3191 38.8887 57.0678C38.0293 57.8165 36.7858 58.1909 35.1582 58.1909H28.3223ZM31.0371 51.5014V56.1596H34.9336C35.8776 56.1596 36.5482 55.9578 36.9453 55.5541C37.349 55.1505 37.5508 54.5711 37.5508 53.8159C37.5508 53.0737 37.349 52.504 36.9453 52.1069C36.5482 51.7032 35.8776 51.5014 34.9336 51.5014H31.0371ZM44.2793 43.9721H55.6953V58.1909H52.9902V46.062H46.5645L46.2031 52.7807C46.112 54.6427 45.8092 56.0554 45.2949 57.019C44.7806 57.9825 43.804 58.4643 42.3652 58.4643C42.1439 58.4643 41.9323 58.448 41.7305 58.4155C41.5286 58.3894 41.3301 58.3406 41.1348 58.269V55.9643C41.2845 56.0164 41.4245 56.0522 41.5547 56.0717C41.6914 56.0912 41.8314 56.101 41.9746 56.101C42.6191 56.101 43.0716 55.8276 43.332 55.2807C43.5924 54.7338 43.7585 53.7833 43.8301 52.4291L44.2793 43.9721ZM57.248 58.1909L63.4297 43.9037H66.0957L72.2871 58.1909H69.3379L65.2266 48.1127C65.1029 47.8198 64.9987 47.5398 64.9141 47.2729C64.8294 46.9995 64.7513 46.739 64.6797 46.4916H64.582C64.5039 46.739 64.4225 46.9995 64.3379 47.2729C64.2533 47.5463 64.1523 47.8263 64.0352 48.1127L59.8945 58.1909H57.248ZM60.1094 54.8608L60.8711 52.8393H68.5273L69.2891 54.8608H60.1094ZM73.7715 58.1909V43.9721H83.9277V46.062H76.4863V58.1909H73.7715ZM85.1777 51.3354V50.7983C85.1777 48.4285 85.8678 46.6511 87.248 45.4662C88.6283 44.2748 90.3926 43.6791 92.541 43.6791C94.6829 43.6791 96.4473 44.2748 97.834 45.4662C99.2272 46.6511 99.9238 48.4285 99.9238 50.7983V51.3354C99.9238 53.7247 99.2272 55.5151 97.834 56.7065C96.4473 57.8914 94.6829 58.4838 92.541 58.4838C90.3926 58.4838 88.6283 57.8914 87.248 56.7065C85.8678 55.5151 85.1777 53.7247 85.1777 51.3354ZM87.9609 51.5014C87.9609 53.1811 88.3776 54.4181 89.2109 55.2123C90.0508 56.0001 91.1608 56.394 92.541 56.394C93.9212 56.394 95.0345 56.0001 95.8809 55.2123C96.7272 54.4181 97.1504 53.1811 97.1504 51.5014V50.6518C97.1504 48.9721 96.7272 47.7416 95.8809 46.9604C95.041 46.1726 93.9277 45.7787 92.541 45.7787C91.1608 45.7787 90.0508 46.1726 89.2109 46.9604C88.3776 47.7416 87.9609 48.9689 87.9609 50.642V51.5014ZM103.439 56.0229C103.622 56.075 103.82 56.1173 104.035 56.1498C104.25 56.1824 104.468 56.1987 104.689 56.1987C105.249 56.1987 105.721 56.0717 106.105 55.8178C106.496 55.5639 106.88 55.1017 107.258 54.4311L107.229 54.5092L100.959 43.9721H104.074L107.932 50.7885C108.114 51.1271 108.241 51.381 108.312 51.5502C108.391 51.713 108.472 51.905 108.557 52.1264H108.615C108.7 51.9116 108.778 51.7228 108.85 51.56C108.928 51.3907 109.055 51.1368 109.23 50.7983L112.805 43.9721H115.549L109.865 54.3725C109.032 55.9024 108.293 56.9702 107.648 57.5756C107.004 58.1746 106.132 58.4741 105.031 58.4741C104.628 58.4741 104.309 58.4578 104.074 58.4252C103.846 58.3927 103.635 58.3439 103.439 58.2787V56.0229ZM116.486 51.3549V50.808C116.486 48.4187 117.167 46.6349 118.527 45.4565C119.888 44.2716 121.643 43.6791 123.791 43.6791C125.777 43.6791 127.359 44.0991 128.537 44.9389C129.715 45.7722 130.367 47.0125 130.49 48.6596L130.51 48.8647H127.766L127.756 48.6498C127.665 47.6668 127.277 46.9441 126.594 46.4819C125.917 46.0131 124.973 45.7787 123.762 45.7787C122.421 45.7787 121.337 46.1759 120.51 46.9702C119.689 47.7644 119.279 48.9819 119.279 50.6225V51.5405C119.279 53.2527 119.689 54.4897 120.51 55.2514C121.337 56.0131 122.421 56.394 123.762 56.394C125.116 56.394 126.099 56.1303 126.711 55.603C127.323 55.0691 127.671 54.3725 127.756 53.5131L127.766 53.308H130.51L130.5 53.5229C130.389 55.0463 129.764 56.254 128.625 57.1459C127.492 58.0379 125.884 58.4838 123.801 58.4838C121.639 58.4838 119.878 57.9044 118.518 56.7455C117.163 55.5802 116.486 53.7833 116.486 51.3549ZM131.135 46.0815V43.9721H144.211V46.0815H139.035V58.1909H136.32V46.0815H131.135ZM146.057 58.1909V43.9721H152.258C154.087 43.9721 155.487 44.3627 156.457 45.144C157.434 45.9252 157.922 47.0678 157.922 48.5717C157.922 50.0431 157.437 51.1856 156.467 51.9995C155.497 52.8133 154.09 53.2071 152.248 53.1811H148.771V58.1909H146.057ZM148.771 51.1694H152.014C153.186 51.1694 154.012 50.9448 154.494 50.4955C154.976 50.0398 155.217 49.4018 155.217 48.5815C155.217 47.7547 154.976 47.1231 154.494 46.687C154.012 46.2442 153.186 46.0229 152.014 46.0229H148.771V51.1694ZM159.377 51.3354V50.7983C159.377 48.4285 160.067 46.6511 161.447 45.4662C162.827 44.2748 164.592 43.6791 166.74 43.6791C168.882 43.6791 170.646 44.2748 172.033 45.4662C173.426 46.6511 174.123 48.4285 174.123 50.7983V51.3354C174.123 53.7247 173.426 55.5151 172.033 56.7065C170.646 57.8914 168.882 58.4838 166.74 58.4838C164.592 58.4838 162.827 57.8914 161.447 56.7065C160.067 55.5151 159.377 53.7247 159.377 51.3354ZM162.16 51.5014C162.16 53.1811 162.577 54.4181 163.41 55.2123C164.25 56.0001 165.36 56.394 166.74 56.394C168.12 56.394 169.234 56.0001 170.08 55.2123C170.926 54.4181 171.35 53.1811 171.35 51.5014V50.6518C171.35 48.9721 170.926 47.7416 170.08 46.9604C169.24 46.1726 168.127 45.7787 166.74 45.7787C165.36 45.7787 164.25 46.1726 163.41 46.9604C162.577 47.7416 162.16 48.9689 162.16 50.642V51.5014ZM189.992 58.1909H187.336V48.6694C187.336 48.461 187.339 48.2332 187.346 47.9858C187.352 47.7319 187.362 47.504 187.375 47.3022H187.258C187.16 47.4975 187.062 47.6896 186.965 47.8784C186.874 48.0672 186.743 48.2722 186.574 48.4936L179.572 58.1909H176.701V43.9721H179.367V53.4838C179.367 53.6856 179.361 53.9103 179.348 54.1577C179.341 54.405 179.335 54.6329 179.328 54.8412H179.465C179.536 54.6785 179.624 54.4929 179.729 54.2846C179.839 54.0763 179.966 53.8712 180.109 53.6694L187.121 43.9721H189.992V58.1909ZM183.527 40.9448C184.081 40.9448 184.536 40.8048 184.895 40.5248C185.259 40.2449 185.552 39.7761 185.773 39.1186L187.424 40.0659C187.066 40.9838 186.542 41.6381 185.852 42.0287C185.168 42.4129 184.393 42.6049 183.527 42.6049C182.655 42.6049 181.87 42.4096 181.174 42.019C180.484 41.6284 179.96 40.9773 179.602 40.0659L181.242 39.1186C181.464 39.7892 181.757 40.2612 182.121 40.5346C182.492 40.808 182.961 40.9448 183.527 40.9448ZM192.58 51.3549V50.808C192.58 48.4187 193.26 46.6349 194.621 45.4565C195.982 44.2716 197.736 43.6791 199.885 43.6791C201.87 43.6791 203.452 44.0991 204.631 44.9389C205.809 45.7722 206.46 47.0125 206.584 48.6596L206.604 48.8647H203.859L203.85 48.6498C203.758 47.6668 203.371 46.9441 202.688 46.4819C202.01 46.0131 201.066 45.7787 199.855 45.7787C198.514 45.7787 197.43 46.1759 196.604 46.9702C195.783 47.7644 195.373 48.9819 195.373 50.6225V51.5405C195.373 53.2527 195.783 54.4897 196.604 55.2514C197.43 56.0131 198.514 56.394 199.855 56.394C201.21 56.394 202.193 56.1303 202.805 55.603C203.417 55.0691 203.765 54.3725 203.85 53.5131L203.859 53.308H206.604L206.594 53.5229C206.483 55.0463 205.858 56.254 204.719 57.1459C203.586 58.0379 201.978 58.4838 199.895 58.4838C197.733 58.4838 195.972 57.9044 194.611 56.7455C193.257 55.5802 192.58 53.7833 192.58 51.3549ZM207.229 46.0815V43.9721H220.305V46.0815H215.129V58.1909H212.414V46.0815H207.229ZM222.15 58.1909V43.9721H228.186C229.878 43.9721 231.2 44.2618 232.15 44.8412C233.101 45.4207 233.576 46.3777 233.576 47.7123C233.576 48.5001 233.371 49.1414 232.961 49.6362C232.557 50.1245 232.043 50.476 231.418 50.6909V50.7299C232.199 50.9383 232.831 51.3191 233.312 51.8725C233.801 52.4259 234.045 53.1681 234.045 54.0991C234.045 55.4597 233.537 56.4819 232.521 57.1655C231.506 57.8491 230.165 58.1909 228.498 58.1909H222.15ZM224.826 56.2377H228.361C229.37 56.2377 230.119 56.0522 230.607 55.6811C231.096 55.3035 231.34 54.7338 231.34 53.9721C231.34 53.256 231.096 52.7058 230.607 52.3217C230.119 51.9311 229.37 51.7358 228.361 51.7358H224.826V56.2377ZM224.826 49.8998H228.049C229.045 49.8998 229.768 49.7273 230.217 49.3823C230.673 49.0372 230.9 48.5424 230.9 47.8979C230.9 47.2208 230.676 46.726 230.227 46.4135C229.777 46.101 229.051 45.9448 228.049 45.9448H224.826V49.8998ZM235.9 51.3354V50.7983C235.9 48.4285 236.59 46.6511 237.971 45.4662C239.351 44.2748 241.115 43.6791 243.264 43.6791C245.406 43.6791 247.17 44.2748 248.557 45.4662C249.95 46.6511 250.646 48.4285 250.646 50.7983V51.3354C250.646 53.7247 249.95 55.5151 248.557 56.7065C247.17 57.8914 245.406 58.4838 243.264 58.4838C241.115 58.4838 239.351 57.8914 237.971 56.7065C236.59 55.5151 235.9 53.7247 235.9 51.3354ZM238.684 51.5014C238.684 53.1811 239.1 54.4181 239.934 55.2123C240.773 56.0001 241.883 56.394 243.264 56.394C244.644 56.394 245.757 56.0001 246.604 55.2123C247.45 54.4181 247.873 53.1811 247.873 51.5014V50.6518C247.873 48.9721 247.45 47.7416 246.604 46.9604C245.764 46.1726 244.65 45.7787 243.264 45.7787C241.883 45.7787 240.773 46.1726 239.934 46.9604C239.1 47.7416 238.684 48.9689 238.684 50.642V51.5014Z" fill="#231F20"/>
<g clip-path="url(#clip1_9859_21954)">
<path d="M281.504 24.4983C281.681 24.8938 281.63 25.3272 281.525 26.1941C281.445 26.8379 281.323 27.002 281.205 27.1492C280.995 27.4143 280.587 27.5574 280.309 27.3596C280.137 27.2376 280.061 27.0398 280.032 26.9262C279.855 26.2319 279.506 23.6988 280.271 23.48C280.692 23.3664 281.268 23.9849 281.504 24.4983Z" fill="#7099ED"/>
<path d="M388.034 218.382C388.303 243.171 388.577 267.951 388.846 292.735C321.453 292.238 201.936 291.746 129.953 291.249L198.987 221.416C200.905 219.476 203.518 218.382 206.248 218.382H388.034Z" fill="#7099ED"/>
<path d="M388.031 218.382H206.246C203.515 218.382 200.902 219.476 198.984 221.416L129.95 291.249C126.795 291.228 123.728 291.207 120.766 291.186L192.092 219.123C196.573 214.591 202.682 212.041 209.056 212.041H387.959C387.985 214.154 388.006 216.27 388.031 218.382Z" fill="#F4F3F1"/>
<path d="M366.653 148.789H364.625V162.734H366.653V148.789Z" fill="#F4F3F1"/>
<path d="M366.653 142.204V146.778H364.625V132.833H366.653V142.204Z" fill="#F4F3F1"/>
<path d="M284.295 132.833H300.948H357.894H364.621V146.778H357.894H357.095H353.779H351.49H288.81H269.338H266.019H263.734H250.742V141.653V132.833H284.295Z" fill="#F4F3F1"/>
<path d="M357.897 146.778H366.653V142.204C367.911 141.165 369.219 140.786 369.808 141.223C370.065 141.413 370.385 141.884 370.545 142.271C370.961 143.302 371.1 144.426 371.508 145.461C371.916 146.496 372.716 147.489 373.818 147.653C374.117 147.695 374.441 147.67 374.697 147.51C375.265 147.152 375.274 146.302 374.983 145.701C374.693 145.099 374.188 144.623 373.877 144.034C373.296 142.949 373.456 141.568 374.087 140.512C374.718 139.46 375.766 138.703 376.889 138.215C377.352 138.013 377.848 137.849 378.345 137.895C379.304 137.992 380.057 138.909 380.116 139.869C380.175 140.828 379.637 141.762 378.867 142.339C378.421 142.675 377.895 142.915 377.499 143.306C376.729 144.072 376.607 145.356 377.087 146.332C377.567 147.304 378.568 147.96 379.632 148.175C380.036 148.255 380.482 148.272 380.836 148.061C381.702 147.548 381.618 145.991 382.582 145.705C383.099 145.553 383.629 145.882 384.168 145.932C385.443 146.046 386.322 144.514 386.158 143.243C385.99 141.972 385.178 140.899 384.593 139.759C384.012 138.619 383.68 137.154 384.437 136.119C384.862 135.539 385.56 135.215 386.259 135.021C386.44 134.971 388.783 134.272 390.567 135.463C391.985 136.41 391.796 137.706 392.662 139.136C394.653 142.423 399.074 141.236 402.163 143.365C404.872 145.234 405.444 148.894 405.714 157.125C406.134 170.098 405.318 179.834 405.268 180.428C403.492 200.924 401.738 204.08 399.499 206.398C395.923 210.097 391.299 211.473 387.963 212.041H357.098V207.514H334.602V180.979H357.098V177.356H364.625V172.955H357.098V162.734H366.653V148.789H357.098V146.778H357.897Z" fill="#7099ED"/>
<path d="M357.894 148.789H364.621V162.734H357.894H357.095H353.779H351.49H269.338H266.019H263.734H250.742V148.789H263.734H266.019H269.338H288.978H351.49H353.779H357.095H357.894Z" fill="#F4F3F1"/>
<path d="M357.092 207.514V212.041H333.304H330.586V177.356H334.596H336.022H348.703H349.738H351.16H357.092V180.979H334.596V207.514H357.092Z" fill="#FF8B63"/>
<path d="M357.097 162.734H353.781V172.955H357.097V162.734Z" fill="#FF8B63"/>
<path d="M357.097 146.778H353.781V148.789H357.097V146.778Z" fill="#FF8B63"/>
<path d="M353.781 162.734H351.492V172.955H353.781V162.734Z" fill="#FF8B63"/>
<path d="M353.781 146.778H351.492V148.789H353.781V146.778Z" fill="#FF8B63"/>
<path d="M351.488 162.734V172.955H351.16H349.738H348.703H336.022H334.596H269.336V162.734H351.488Z" fill="#7099ED"/>
<path d="M351.491 146.778V148.789H288.979C288.907 148.726 288.448 148.301 288.478 147.636C288.495 147.19 288.722 146.883 288.81 146.778H351.491Z" fill="#7099ED"/>
<path d="M351.492 172.955H353.781H357.096H364.623V177.356H357.096H351.164V172.955H351.492Z" fill="#F4F3F1"/>
<path d="M351.164 172.955H349.742V177.356H351.164V172.955Z" fill="#F4F3F1"/>
<path d="M349.739 172.955V177.356H348.704H336.023V172.955H348.704H349.739Z" fill="#F4F3F1"/>
<path d="M336.024 172.955V177.356H334.597H330.588H327.483H269.338H242.832H239.722H230.555V172.955H263.734H266.018H269.338H334.597H336.024Z" fill="#F4F3F1"/>
<path d="M331.467 44.9483C333.108 47.9401 337.075 54.1971 344.783 58.7374C350.539 62.1247 355.97 63.1388 359.185 63.4838C355.386 58.5985 351.439 52.9053 347.665 46.3664C345.667 42.9033 343.908 39.5371 342.36 36.3055C342.932 36.3812 343.525 36.3055 344.047 36.0698C344.691 37.3616 345.389 38.6871 346.142 40.042C347.097 41.763 348.061 43.383 349.02 44.8978C350.446 43.5429 351.978 41.8977 353.484 39.9284C353.699 39.6507 353.9 39.373 354.102 39.0953C354.658 38.3252 355.163 37.572 355.625 36.8441C355.777 37.1512 355.97 37.4332 356.202 37.6856C355.398 39.0405 354.443 40.5007 353.311 42.0197C352.163 43.564 351.01 44.9147 349.925 46.0845C352.201 50.1366 355.886 55.7078 361.785 61.5061C361.945 61.666 362.37 62.0784 362.807 62.4908C367.095 66.5303 381.164 78.6278 397.816 77.0372C404.237 76.4271 409.328 73.9655 411.2 76.3598C412.874 78.5016 410.775 82.9787 408.659 86.5259C403.917 86.9509 397.345 86.9383 389.911 85.0027C374.15 80.8958 364.553 70.7634 360.767 66.2484C358.369 66.0338 355.735 65.5625 352.975 64.6704C340.252 60.5594 333.28 50.3091 330.621 45.8152H330.617C330.924 45.5459 331.206 45.2555 331.467 44.9483Z" fill="#FF8B63"/>
<path d="M330.589 177.356H327.484V212.041H330.589V177.356Z" fill="#FF8B63"/>
<path d="M327.485 177.356V212.041H269.34V207.514H246.844V180.979H269.34V177.356H327.485Z" fill="#7099ED"/>
<path d="M300.951 132.833H284.298C284.071 132.215 283.961 131.55 283.978 130.885C283.991 130.435 284.126 129.904 284.546 129.753C284.904 129.627 285.278 129.837 285.649 129.921C286.414 130.102 287.214 129.728 287.811 129.214C288.409 128.701 288.871 128.053 289.448 127.514C290.134 126.875 291.004 126.399 291.943 126.324C292.877 126.248 293.87 126.614 294.425 127.371C294.938 128.078 295.043 129.05 295.675 129.656C296.684 130.632 298.414 130.14 299.663 130.78C300.416 131.167 300.93 131.987 300.951 132.833Z" fill="#7099ED"/>
<path d="M288.976 148.789H269.336V146.778H288.807C288.719 146.883 288.492 147.19 288.475 147.636C288.446 148.301 288.904 148.726 288.976 148.789Z" fill="#7099ED"/>
<path d="M276.9 28.6809C277.523 30.7175 276.711 33.1075 274.977 34.3488C274.717 34.534 274.426 34.6981 274.106 34.7318C273.551 34.7865 273.017 34.4078 272.756 33.9112C272.466 33.3516 272.474 32.813 272.533 32.2744C272.659 31.1509 273.299 30.2673 274.569 28.4958C274.628 28.4116 274.78 28.2096 275.049 28.0497C275.482 27.793 276.147 27.6963 276.547 28.0161C276.787 28.2096 276.845 28.4958 276.9 28.6809Z" fill="#7099ED"/>
<path d="M290.309 22.832C290.372 22.7899 290.435 22.7479 290.498 22.7016C290.431 22.7394 290.367 22.7815 290.309 22.832ZM267.522 24.9738C266.87 25.6386 266.571 26.5854 265.944 27.2797C265.321 27.974 264.059 28.2896 263.525 27.5237C263.361 27.2839 263.293 26.9809 263.083 26.7874C262.868 26.5896 262.557 26.5517 262.279 26.4676C261.152 26.1099 260.521 24.7971 260.66 23.6231C260.798 22.4491 261.547 21.4224 262.431 20.6397C263.866 19.3732 265.717 18.5905 267.627 18.4475C267.896 18.5442 268.191 18.5484 268.456 18.418C268.178 18.4138 267.905 18.4222 267.627 18.4475C267.164 18.2833 266.764 17.8499 266.651 17.3534C266.466 16.575 266.798 15.7671 267.21 15.077C268.574 12.8216 270.968 11.2142 273.572 10.806C275.078 10.5704 276.622 10.7177 278.133 10.4989C279.639 10.2843 281.217 9.59418 281.89 8.22664C279.222 7.86477 276.681 5.98387 276.058 3.3666C275.52 1.11541 276.757 -1.48502 278.81 -2.38971C279.168 -2.47807 279.525 -2.58327 279.874 -2.68846C279.5 -2.63797 279.142 -2.53698 278.81 -2.38971C277.998 -2.18773 277.178 -2.07833 276.374 -2.26768C275.217 -2.5454 274.173 -3.68151 274.455 -4.83866C274.75 -5.07851 275.044 -5.32256 275.335 -5.56241C277.594 -7.34653 280.829 -9.7534 284.915 -12.2865C298.807 -20.8915 311.177 -24.3335 318.27 -25.6632C333.791 -28.5666 349.682 -29.4208 365.438 -28.3394C383.378 -27.1107 401.907 -23.0165 415.817 -11.6133C421.269 -7.14034 425.956 -1.48503 428.169 5.20963C431.039 13.903 429.516 23.358 427.955 32.3754C427.181 36.8609 426.339 41.5021 423.769 45.2555C421.572 48.4619 418.299 50.7383 415.097 52.9348C412.594 54.6474 410.023 56.381 407.091 57.1342C404.154 57.8874 400.738 57.4751 398.596 55.3333C395.184 58.1399 389.731 58.0473 386.416 55.1229C385.179 56.8565 383.744 58.7164 381.658 59.1287C379.575 59.5411 377.093 57.3404 378.115 55.4763C375.355 55.9266 372.566 53.2041 372.944 50.4354C373.117 49.1814 373.815 48.0117 373.79 46.7493C373.718 43.5808 369.267 40.8541 370.912 38.1443C369.414 40.0925 367.239 41.5063 364.849 42.0912C363.629 42.39 362.228 42.4363 361.231 41.6663C360.318 40.9593 360.112 39.3688 360.949 38.6661C361.033 38.6156 361.118 38.5567 361.197 38.4935C361.105 38.5398 361.025 38.5987 360.949 38.6661C359.473 39.5876 357.381 39.0153 356.199 37.6856C355.968 37.4332 355.774 37.1512 355.623 36.8441C354.638 34.8538 355.211 32.3796 356.477 30.5576C357.743 28.7356 359.603 27.4312 361.425 26.1604C359.906 25.8869 358.538 25.0327 357.537 23.8629C356.443 22.5922 355.787 20.9427 355.837 19.2638C353.78 19.4826 351.681 19.2848 349.695 18.6915C350.507 20.0633 351.1 21.7464 350.519 23.2318C350.023 24.4857 348.344 25.2305 347.233 24.675C347.074 24.5151 346.897 24.3721 346.695 24.2458C346.851 24.4352 347.031 24.5783 347.233 24.675C349.202 26.6485 347.999 31.0078 345.084 31.3318C346.186 32.6699 345.837 34.9379 344.385 35.8805C344.276 35.952 344.162 36.0151 344.044 36.0698C343.523 36.3097 342.929 36.3812 342.357 36.3055C341.356 36.1708 340.401 35.5859 339.946 34.677C340.342 36.0362 337.813 36.5159 337.111 35.2872C336.408 34.0585 337.018 32.5226 337.632 31.2435C336.328 31.1593 335.196 32.266 334.746 33.4946C334.296 34.7233 334.342 36.0698 334.262 37.3785C334.098 40.0925 333.198 42.9244 331.464 44.9484C331.204 45.2555 330.922 45.5459 330.615 45.811C330.076 46.2949 329.474 46.703 328.805 47.0228C325.309 48.6975 320.159 46.5305 320.008 42.6593C317.631 43.4462 315.186 40.9509 315.069 38.4473C314.976 36.4864 315.834 34.656 316.916 32.9771C317.214 32.5142 317.53 32.0598 317.85 31.618C316.091 31.7526 314.841 29.6613 315.132 27.9193C315.422 26.1814 316.709 24.8013 317.938 23.5347C316.116 24.2374 313.84 23.1939 313.125 21.3971C313.52 22.7521 312.919 24.1701 311.858 25.1884C311.131 25.8953 310.184 26.4087 309.199 26.5854C309.145 26.5938 309.09 26.6064 309.039 26.6106C306.582 26.9893 304.13 25.9668 301.845 24.9612C301.113 24.6414 300.343 24.2921 299.876 23.6441C298.799 22.1503 299.842 20.1558 300.991 18.6494C299.678 20.2063 297.608 21.1026 295.576 20.9764C296.152 22.5711 296.115 24.4689 295.126 25.849C294.133 27.2292 292.071 27.852 290.637 26.9473C289.274 26.0889 289.055 23.8166 290.279 22.8488C288.992 23.6273 287.182 23.4379 286.101 22.386C285.171 21.4813 284.877 20.017 285.285 18.7967C285.63 18.2329 285.79 17.8415 285.68 17.9972C285.508 18.2455 285.378 18.5148 285.285 18.7967C284.73 19.7098 283.695 21.0858 282.533 21.3466C281.36 21.6075 280.135 20.7449 279.205 19.8571C278.789 21.5402 277.422 22.9919 275.726 23.4127C275.065 23.5768 274.312 23.581 273.765 23.1813C273.492 22.9793 273.307 22.6595 273.248 22.3271C273.353 22.0241 273.441 21.7169 273.513 21.4056C273.261 21.6412 273.189 21.9904 273.248 22.3271C272.575 24.3216 271.27 26.1057 269.566 27.3428C269.268 27.5574 268.935 27.7636 268.565 27.7636C267.417 27.7636 267.269 26.0931 267.522 24.9738Z" fill="#7099ED"/>
<path d="M269.342 207.514V212.041H245.554H242.836V177.356H269.342V180.979H246.846V207.514H269.342Z" fill="#FF8B63"/>
<path d="M269.335 162.734H266.016V172.955H269.335V162.734Z" fill="#FF8B63"/>
<path d="M269.335 146.778H266.016V148.789H269.335V146.778Z" fill="#FF8B63"/>
<path d="M266.019 162.734H263.734V172.955H266.019V162.734Z" fill="#FF8B63"/>
<path d="M266.019 146.778H263.734V148.789H266.019V146.778Z" fill="#FF8B63"/>
<path d="M225.089 211.692C223.268 211.692 221.454 210.699 220.545 209.108C219.485 209.984 218.168 210.657 216.797 210.573C215.425 210.489 214.058 209.458 213.953 208.086C213.847 206.786 214.853 205.633 215.985 204.98C217.112 204.324 218.412 204.004 219.548 203.36C217.02 203.987 214.146 202.33 213.427 199.826C212.127 200.731 210.145 199.939 209.463 198.509C208.782 197.078 209.182 195.324 210.073 194.011C210.961 192.698 212.27 191.743 213.553 190.813C212.089 191.385 210.238 190.653 209.564 189.231C208.942 190.186 208.1 190.994 207.124 191.579C206.758 191.797 206.291 191.987 205.921 191.776C205.681 191.642 205.555 191.381 205.437 191.133C205.096 190.4 204.751 189.668 204.41 188.936C203.489 189.714 202.82 190.75 201.916 191.541C201.011 192.336 199.707 192.875 198.609 192.386C196.867 191.616 196.98 189.054 197.847 187.358C197.136 187.993 195.891 187.409 195.575 186.508C195.255 185.608 195.579 184.61 195.975 183.739C196.942 181.614 198.365 179.696 200.111 178.143C200.153 178.139 200.191 178.135 200.233 178.13C201.108 178.013 201.987 177.44 202.168 176.573C201.44 177.041 200.754 177.566 200.111 178.143C199.278 178.227 198.44 177.991 197.628 177.764C197.056 177.6 196.454 177.419 196.051 176.986C195.289 176.174 195.529 174.861 195.966 173.834C197.212 170.931 199.673 168.574 202.631 167.459C201.688 166.677 201.318 165.28 201.747 164.131C202.176 162.986 203.375 162.174 204.6 162.204C205.395 162.221 206.43 162.448 206.796 161.737C206.96 161.413 206.884 161.017 206.964 160.659C207.149 159.843 208.104 159.435 208.942 159.418C209.783 159.397 210.629 159.624 211.458 159.494C212.287 159.359 213.136 158.652 212.981 157.828L212.939 157.007C211.832 156.435 211.092 155.219 211.092 153.973C211.092 152.728 211.832 151.512 212.934 150.935C213.502 150.641 214.235 150.413 214.382 149.791C214.495 149.302 214.167 148.835 214.024 148.356C213.633 147.005 214.887 145.6 216.275 145.402C217.663 145.204 219.035 145.894 220.129 146.769C219.982 145.33 221.77 144.27 223.162 144.678C224.555 145.086 225.46 146.437 225.939 147.809C226.259 148.718 226.448 149.685 226.945 150.514C227.441 151.339 228.363 152.017 229.314 151.852C230.5 151.646 231.102 150.321 231.417 149.159C231.733 147.994 232.086 146.656 233.167 146.13C234.253 145.604 235.519 146.155 236.723 146.243C237.922 146.332 239.445 145.309 238.902 144.236C238.717 143.874 238.351 143.651 238.031 143.407C236.992 142.608 236.302 141.232 236.655 139.97C236.954 138.901 237.943 138.122 239.016 137.819C240.088 137.521 241.233 137.63 242.323 137.845C245.263 138.417 248.057 139.738 250.363 141.653H250.746V146.778H263.738V148.789H250.746V162.734H263.738V172.955H230.559V177.356H239.727V212.041H225.089V211.692Z" fill="#7099ED"/>
<path d="M242.836 177.356H239.727V212.041H242.836V177.356Z" fill="#FF8B63"/>
<path d="M334.597 172.955H269.338H266.018H263.734H230.555V177.356H239.722H242.832" stroke="#231F20" stroke-width="0.6" stroke-linecap="round" stroke-linejoin="round"/>
<path d="M336.023 177.356V172.955" stroke="#231F20" stroke-width="0.6" stroke-linecap="round" stroke-linejoin="round"/>
<path d="M269.344 177.356H327.489H330.594" stroke="#231F20" stroke-width="0.6" stroke-linecap="round" stroke-linejoin="round"/>
<path d="M357.894 148.789H357.095H353.779H351.49H288.978H269.338H266.019H263.734H250.742V162.734H263.734H266.019H269.338H351.49H353.779H357.095H357.894" stroke="#231F20" stroke-width="0.6" stroke-linecap="round" stroke-linejoin="round"/>
<path d="M364.625 162.734V148.789" stroke="#231F20" stroke-width="0.6" stroke-linecap="round" stroke-linejoin="round"/>
<path d="M357.898 162.734H364.626H366.654V148.789H364.626H357.898" stroke="#231F20" stroke-width="0.6" stroke-linecap="round" stroke-linejoin="round"/>
<path d="M357.894 132.833H300.948H284.295H250.742V141.653V146.778H263.734H266.019H269.338H288.81H351.49H353.779H357.095H357.894" stroke="#231F20" stroke-width="0.6" stroke-linecap="round" stroke-linejoin="round"/>
<path d="M364.625 146.778V132.833" stroke="#231F20" stroke-width="0.6" stroke-linecap="round" stroke-linejoin="round"/>
<path d="M357.898 146.778H364.626H366.654V142.204V132.833H364.626H357.898" stroke="#231F20" stroke-width="0.6" stroke-linecap="round" stroke-linejoin="round"/>
<path d="M348.709 172.955H336.028H334.602" stroke="#231F20" stroke-width="0.6" stroke-linecap="round" stroke-linejoin="round"/>
<path d="M349.742 177.356V172.955" stroke="#231F20" stroke-width="0.6" stroke-linecap="round" stroke-linejoin="round"/>
<path d="M351.16 177.356V172.955H349.738H348.703" stroke="#231F20" stroke-width="0.6" stroke-linecap="round" stroke-linejoin="round"/>
<path d="M357.096 177.356H364.623V172.955H357.096H353.781H351.492H351.164" stroke="#231F20" stroke-width="0.6" stroke-linecap="round" stroke-linejoin="round"/>
<path d="M357.1 212.041V207.514H334.603V180.979H357.1V177.356H351.167H349.745H348.71H336.03H334.603H330.594V212.041" stroke="#231F20" stroke-width="0.6" stroke-linecap="round" stroke-linejoin="round"/>
<path d="M327.484 177.356V212.041" stroke="#231F20" stroke-width="0.6" stroke-linecap="round" stroke-linejoin="round"/>
<path d="M269.342 212.041V207.514H246.846V180.979H269.342V177.356H242.836V212.041" stroke="#231F20" stroke-width="0.6" stroke-linecap="round" stroke-linejoin="round"/>
<path d="M239.727 177.356V212.041" stroke="#231F20" stroke-width="0.6" stroke-linecap="round" stroke-linejoin="round"/>
<path d="M357.094 172.955V162.734" stroke="#231F20" stroke-width="0.6" stroke-linecap="round" stroke-linejoin="round"/>
<path d="M353.781 172.955V162.734" stroke="#231F20" stroke-width="0.6" stroke-linecap="round" stroke-linejoin="round"/>
<path d="M351.492 172.955V162.734" stroke="#231F20" stroke-width="0.6" stroke-linecap="round" stroke-linejoin="round"/>
<path d="M357.094 148.789V146.778" stroke="#231F20" stroke-width="0.6" stroke-linecap="round" stroke-linejoin="round"/>
<path d="M353.781 148.789V146.778" stroke="#231F20" stroke-width="0.6" stroke-linecap="round" stroke-linejoin="round"/>
<path d="M351.492 148.789V146.778" stroke="#231F20" stroke-width="0.6" stroke-linecap="round" stroke-linejoin="round"/>
<path d="M269.344 172.955V162.734" stroke="#231F20" stroke-width="0.6" stroke-linecap="round" stroke-linejoin="round"/>
<path d="M266.023 172.955V162.734" stroke="#231F20" stroke-width="0.6" stroke-linecap="round" stroke-linejoin="round"/>
<path d="M263.734 172.955V162.734" stroke="#231F20" stroke-width="0.6" stroke-linecap="round" stroke-linejoin="round"/>
<path d="M269.344 148.789V146.778" stroke="#231F20" stroke-width="0.6" stroke-linecap="round" stroke-linejoin="round"/>
<path d="M266.023 148.789V146.778" stroke="#231F20" stroke-width="0.6" stroke-linecap="round" stroke-linejoin="round"/>
<path d="M263.734 148.789V146.778" stroke="#231F20" stroke-width="0.6" stroke-linecap="round" stroke-linejoin="round"/>
<path d="M387.961 212.041H209.058C202.684 212.041 196.575 214.591 192.094 219.123L120.767 291.186L116.211 295.79" stroke="#231F20" stroke-width="0.6" stroke-linecap="round" stroke-linejoin="round"/>
<path d="M387.959 218.382H206.246C203.515 218.382 200.902 219.476 198.984 221.416L129.95 291.249L125.461 295.79" stroke="#231F20" stroke-width="0.6" stroke-linecap="round" stroke-linejoin="round"/>
<path d="M288.81 146.778C288.722 146.883 288.495 147.19 288.478 147.636C288.448 148.301 288.907 148.726 288.979 148.789" stroke="#231F20" stroke-width="0.6" stroke-linecap="round" stroke-linejoin="round"/>
<path d="M120.32 291.182C120.468 291.182 120.619 291.186 120.77 291.186C123.732 291.207 126.8 291.228 129.955 291.249C201.938 291.746 321.455 292.238 388.848 292.735C388.578 267.951 388.305 243.171 388.036 218.382C388.01 216.27 387.989 214.154 387.964 212.041C391.301 211.473 395.924 210.097 399.501 206.398C401.739 204.08 403.493 200.924 405.269 180.428C405.319 179.834 406.136 170.098 405.715 157.125C405.446 148.894 404.873 145.234 402.164 143.365C399.076 141.236 394.654 142.423 392.664 139.136C391.797 137.706 391.986 136.41 390.569 135.463C388.785 134.272 386.441 134.971 386.26 135.021C385.562 135.215 384.863 135.539 384.438 136.119C383.681 137.154 384.014 138.619 384.594 139.759C385.179 140.899 385.991 141.972 386.159 143.243C386.323 144.514 385.444 146.046 384.169 145.932C383.631 145.882 383.101 145.553 382.583 145.705C381.62 145.991 381.704 147.548 380.837 148.061C380.484 148.272 380.038 148.255 379.634 148.175C378.569 147.96 377.568 147.304 377.088 146.332C376.609 145.356 376.731 144.072 377.501 143.306C377.896 142.915 378.422 142.675 378.868 142.339C379.638 141.762 380.176 140.828 380.118 139.869C380.059 138.909 379.306 137.992 378.346 137.895C377.85 137.849 377.353 138.013 376.891 138.215C375.767 138.703 374.72 139.46 374.088 140.512C373.457 141.568 373.297 142.949 373.878 144.034C374.189 144.623 374.694 145.099 374.985 145.701C375.275 146.302 375.267 147.152 374.699 147.51C374.442 147.67 374.118 147.695 373.819 147.653C372.717 147.489 371.917 146.496 371.509 145.461C371.101 144.426 370.962 143.302 370.546 142.271C370.386 141.884 370.066 141.413 369.81 141.223C369.221 140.786 367.912 141.165 366.654 142.204C366.595 142.25 366.541 142.301 366.482 142.351" stroke="#231F20" stroke-width="0.6" stroke-linecap="round" stroke-linejoin="round"/>
<path d="M250.365 141.653C248.059 139.738 245.266 138.417 242.325 137.845C241.235 137.63 240.091 137.521 239.018 137.819C237.945 138.122 236.956 138.901 236.657 139.97C236.304 141.232 236.994 142.608 238.033 143.407C238.353 143.651 238.719 143.874 238.904 144.236C239.447 145.309 237.924 146.332 236.725 146.243C235.521 146.155 234.255 145.604 233.17 146.13C232.088 146.656 231.735 147.994 231.419 149.159C231.104 150.321 230.502 151.646 229.316 151.852C228.365 152.017 227.443 151.339 226.947 150.514C226.45 149.685 226.261 148.718 225.941 147.809C225.462 146.437 224.557 145.086 223.165 144.678C221.772 144.27 219.984 145.33 220.131 146.769C219.037 145.894 217.666 145.204 216.277 145.402C214.889 145.6 213.635 147.005 214.026 148.356C214.169 148.835 214.497 149.303 214.384 149.791C214.237 150.413 213.505 150.641 212.937 150.935C211.834 151.512 211.094 152.728 211.094 153.973C211.094 155.219 211.834 156.435 212.941 157.007" stroke="#231F20" stroke-width="0.6" stroke-linecap="round" stroke-linejoin="round"/>
<path d="M284.348 132.976C284.332 132.93 284.311 132.879 284.298 132.833C284.071 132.215 283.961 131.55 283.978 130.885C283.991 130.435 284.126 129.904 284.546 129.753C284.904 129.627 285.278 129.837 285.649 129.921C286.414 130.102 287.214 129.728 287.811 129.214C288.409 128.701 288.871 128.053 289.448 127.514C290.134 126.875 291.004 126.399 291.943 126.324C292.877 126.248 293.87 126.614 294.425 127.371C294.938 128.078 295.043 129.05 295.675 129.656C296.684 130.632 298.414 130.14 299.663 130.78C300.416 131.167 300.929 131.987 300.951 132.833V132.841" stroke="#231F20" stroke-width="0.6" stroke-linecap="round" stroke-linejoin="round"/>
<path d="M200.111 178.143C198.365 179.696 196.942 181.614 195.975 183.739C195.579 184.61 195.255 185.608 195.575 186.508C195.891 187.409 197.136 187.993 197.847 187.358C196.98 189.054 196.867 191.616 198.609 192.386C199.707 192.875 201.011 192.336 201.916 191.541C202.82 190.75 203.489 189.714 204.41 188.936C204.751 189.668 205.096 190.4 205.437 191.133C205.555 191.381 205.681 191.642 205.921 191.776C206.291 191.987 206.758 191.797 207.124 191.579C208.1 190.994 208.942 190.186 209.564 189.231C210.238 190.653 212.089 191.385 213.553 190.813C212.27 191.743 210.961 192.698 210.073 194.011C209.182 195.324 208.782 197.078 209.463 198.509C210.145 199.939 212.127 200.731 213.427 199.826C214.146 202.33 217.02 203.987 219.548 203.36C218.412 204.004 217.112 204.324 215.985 204.98C214.853 205.633 213.847 206.786 213.953 208.086C214.058 209.458 215.425 210.489 216.797 210.573C218.168 210.657 219.485 209.984 220.545 209.108C221.454 210.699 223.268 211.692 225.089 211.692C225.418 211.692 225.75 211.658 226.074 211.591" stroke="#231F20" stroke-width="0.6" stroke-linecap="round" stroke-linejoin="round"/>
<path d="M200.109 178.143C200.151 178.139 200.189 178.135 200.231 178.13C201.107 178.013 201.986 177.44 202.167 176.573C201.439 177.04 200.753 177.566 200.109 178.143Z" stroke="#231F20" stroke-width="0.6" stroke-linecap="round" stroke-linejoin="round"/>
<path d="M212.979 157.828C213.134 158.652 212.284 159.359 211.455 159.494C210.627 159.624 209.781 159.397 208.939 159.418C208.102 159.435 207.147 159.843 206.962 160.659C206.882 161.017 206.958 161.413 206.794 161.737C206.428 162.448 205.393 162.22 204.598 162.204C203.373 162.174 202.174 162.986 201.745 164.131C201.316 165.28 201.686 166.677 202.629 167.459C199.671 168.574 197.21 170.931 195.964 173.834C195.527 174.861 195.287 176.174 196.048 176.986C196.452 177.419 197.054 177.6 197.626 177.764C198.438 177.991 199.275 178.227 200.108 178.143" stroke="#231F20" stroke-width="0.6" stroke-linecap="round" stroke-linejoin="round"/>
<path d="M273.25 22.3271C273.309 22.6595 273.494 22.9793 273.767 23.1813C274.314 23.581 275.068 23.5768 275.728 23.4127C277.424 22.9919 278.791 21.5402 279.208 19.8571C279.296 19.4952 279.342 19.1207 279.338 18.742" stroke="#231F20" stroke-width="0.6" stroke-linecap="round" stroke-linejoin="round"/>
<path d="M273.254 22.3271C273.359 22.0241 273.447 21.7169 273.519 21.4055C273.266 21.6412 273.195 21.9904 273.254 22.3271Z" stroke="#231F20" stroke-width="0.6" stroke-linecap="round" stroke-linejoin="round"/>
<path d="M267.635 18.4474C265.725 18.5905 263.873 19.3732 262.439 20.6397C261.555 21.4224 260.806 22.4491 260.667 23.6231C260.529 24.7971 261.16 26.1099 262.287 26.4676C262.565 26.5517 262.876 26.5896 263.091 26.7874C263.301 26.9809 263.369 27.2839 263.533 27.5237C264.067 28.2896 265.329 27.974 265.952 27.2797C266.579 26.5854 266.877 25.6386 267.53 24.9738C267.277 26.0931 267.424 27.7636 268.573 27.7636C268.943 27.7636 269.276 27.5574 269.574 27.3428C271.278 26.1057 272.583 24.3216 273.256 22.3271" stroke="#231F20" stroke-width="0.6" stroke-linecap="round" stroke-linejoin="round"/>
<path d="M267.633 18.4474C267.902 18.5442 268.197 18.5484 268.462 18.418C268.184 18.4138 267.91 18.4222 267.633 18.4474Z" stroke="#231F20" stroke-width="0.6" stroke-linecap="round" stroke-linejoin="round"/>
<path d="M278.813 -2.38971C276.76 -1.48503 275.523 1.11541 276.062 3.3666C276.684 5.98387 279.226 7.86477 281.893 8.22664C281.22 9.59418 279.642 10.2843 278.136 10.4989C276.625 10.7177 275.081 10.5704 273.575 10.806C270.971 11.2142 268.577 12.8216 267.214 15.077C266.801 15.7671 266.469 16.575 266.654 17.3534C266.768 17.8499 267.167 18.2833 267.63 18.4475" stroke="#231F20" stroke-width="0.6" stroke-linecap="round" stroke-linejoin="round"/>
<path d="M274.569 28.4958C273.299 30.2673 272.659 31.1509 272.533 32.2744C272.474 32.813 272.466 33.3516 272.756 33.9112C273.017 34.4078 273.551 34.7865 274.106 34.7318C274.426 34.6981 274.717 34.534 274.977 34.3488C276.711 33.1075 277.523 30.7175 276.9 28.6809C276.845 28.4958 276.787 28.2096 276.547 28.0161C276.147 27.6963 275.482 27.793 275.049 28.0497C274.78 28.2096 274.628 28.4116 274.569 28.4958Z" stroke="#231F20" stroke-width="0.6" stroke-linecap="round" stroke-linejoin="round"/>
<path d="M280.271 23.48C279.506 23.6988 279.855 26.2319 280.032 26.9262C280.061 27.0398 280.137 27.2376 280.309 27.3596C280.587 27.5574 280.995 27.4143 281.205 27.1492C281.323 27.002 281.445 26.8379 281.525 26.1941C281.63 25.3272 281.681 24.8938 281.504 24.4983C281.268 23.9849 280.692 23.3664 280.271 23.48Z" stroke="#231F20" stroke-width="0.6" stroke-linecap="round" stroke-linejoin="round"/>
<path d="M360.958 38.6661C360.121 39.3688 360.327 40.9593 361.24 41.6662C362.237 42.4363 363.638 42.39 364.858 42.0912C367.248 41.5063 369.423 40.0925 370.921 38.1443C369.276 40.8541 373.727 43.5808 373.799 46.7493C373.824 48.0117 373.126 49.1814 372.953 50.4354C372.575 53.2041 375.364 55.9266 378.124 55.4763C377.102 57.3404 379.584 59.5411 381.667 59.1287C383.754 58.7164 385.188 56.8565 386.425 55.1229C389.741 58.0473 395.193 58.1399 398.605 55.3333C400.747 57.4751 404.163 57.8874 407.1 57.1342C410.032 56.381 412.603 54.6474 415.106 52.9348C418.308 50.7383 421.581 48.4619 423.778 45.2555C426.348 41.5021 427.19 36.8609 427.964 32.3754C429.525 23.358 431.048 13.903 428.178 5.20963C425.965 -1.48502 421.279 -7.14034 415.826 -11.6133C401.916 -23.0165 383.387 -27.1107 365.448 -28.3394C349.691 -29.4208 333.8 -28.5666 318.279 -25.6632C311.186 -24.3335 298.816 -20.8915 284.924 -12.2865C280.838 -9.75341 277.603 -7.34653 275.344 -5.56241" stroke="#231F20" stroke-width="0.6" stroke-linecap="round" stroke-linejoin="round"/>
<path d="M360.953 38.6661C361.037 38.6156 361.121 38.5566 361.201 38.4935C361.109 38.5398 361.029 38.5987 360.953 38.6661Z" stroke="#231F20" stroke-width="0.6" stroke-linecap="round" stroke-linejoin="round"/>
<path d="M347.242 24.675C348.353 25.2305 350.032 24.4857 350.528 23.2317C351.109 21.7464 350.515 20.0632 349.703 18.6915C351.689 19.2848 353.789 19.4826 355.846 19.2638C355.796 20.9427 356.452 22.5922 357.546 23.8629C358.547 25.0327 359.915 25.8869 361.433 26.1604C359.612 27.4312 357.752 28.7356 356.486 30.5576C355.219 32.3796 354.647 34.8538 355.632 36.8441C355.783 37.1512 355.977 37.4332 356.208 37.6856C357.39 39.0153 359.481 39.5876 360.958 38.6661" stroke="#231F20" stroke-width="0.6" stroke-linecap="round" stroke-linejoin="round"/>
<path d="M347.242 24.675C347.082 24.5151 346.905 24.3721 346.703 24.2458C346.859 24.4352 347.04 24.5783 347.242 24.675Z" stroke="#231F20" stroke-width="0.6" stroke-linecap="round" stroke-linejoin="round"/>
<path d="M313.031 21.111C313.061 21.2078 313.09 21.3046 313.128 21.3972C313.843 23.1939 316.119 24.2374 317.941 23.5347C316.713 24.8013 315.425 26.1815 315.135 27.9193C314.845 29.6613 316.094 31.7526 317.853 31.618C317.533 32.0598 317.218 32.5142 316.919 32.9771C315.838 34.656 314.979 36.4864 315.072 38.4473C315.19 40.9509 317.634 43.4462 320.011 42.6593C320.163 46.5305 325.312 48.6975 328.809 47.0228C329.478 46.703 330.079 46.2949 330.618 45.811C330.925 45.5459 331.207 45.2555 331.468 44.9484C333.201 42.9244 334.101 40.0925 334.266 37.3785C334.345 36.0699 334.299 34.7234 334.749 33.4947C335.2 32.266 336.331 31.1593 337.636 31.2435C337.021 32.5227 336.411 34.0585 337.114 35.2872C337.817 36.5159 340.345 36.0362 339.95 34.6771C340.404 35.586 341.359 36.1708 342.36 36.3055C342.933 36.3812 343.526 36.3055 344.048 36.0699C344.165 36.0152 344.279 35.952 344.388 35.8805C345.84 34.9379 346.189 32.6699 345.087 31.3318C348.002 31.0078 349.206 26.6485 347.237 24.6751" stroke="#231F20" stroke-width="0.6" stroke-linecap="round" stroke-linejoin="round"/>
<path d="M311.867 25.1884C312.927 24.1701 313.529 22.7521 313.134 21.3972" stroke="#231F20" stroke-width="0.6" stroke-linecap="round" stroke-linejoin="round"/>
<path d="M301.236 18.3465C301.16 18.4517 301.08 18.5527 300.996 18.6494C299.847 20.1558 298.804 22.1503 299.881 23.6441C300.348 24.2921 301.118 24.6414 301.85 24.9612C304.135 25.9668 306.587 26.9893 309.045 26.6106C309.095 26.6064 309.15 26.5938 309.204 26.5854C310.189 26.4087 311.136 25.8953 311.863 25.1926" stroke="#231F20" stroke-width="0.6" stroke-linecap="round" stroke-linejoin="round"/>
<path d="M290.288 22.8488C289.064 23.8166 289.282 26.0889 290.645 26.9473C292.08 27.8519 294.142 27.2292 295.135 25.849C296.123 24.4688 296.161 22.5711 295.585 20.9763C297.617 21.1026 299.687 20.2063 301 18.6494" stroke="#231F20" stroke-width="0.6" stroke-linecap="round" stroke-linejoin="round"/>
<path d="M290.312 22.832C290.376 22.7899 290.439 22.7479 290.502 22.7016C290.435 22.7394 290.371 22.7815 290.312 22.832Z" stroke="#231F20" stroke-width="0.6" stroke-linecap="round" stroke-linejoin="round"/>
<path d="M290.312 22.832C290.312 22.832 290.29 22.8453 290.281 22.8498" stroke="#231F20" stroke-width="0.6" stroke-linecap="round" stroke-linejoin="round"/>
<path d="M285.289 18.7967C284.881 20.017 285.175 21.4813 286.105 22.386C287.186 23.4379 288.995 23.6273 290.283 22.8488" stroke="#231F20" stroke-width="0.6" stroke-linecap="round" stroke-linejoin="round"/>
<path d="M285.289 18.7967C285.634 18.2329 285.794 17.8415 285.685 17.9972C285.512 18.2455 285.382 18.5148 285.289 18.7967Z" stroke="#231F20" stroke-width="0.6" stroke-linecap="round" stroke-linejoin="round"/>
<path d="M279.211 19.8571C280.141 20.7449 281.365 21.6075 282.539 21.3466C283.7 21.0858 284.735 19.7098 285.29 18.7967" stroke="#231F20" stroke-width="0.6" stroke-linecap="round" stroke-linejoin="round"/>
<path d="M342.361 36.3013C343.91 39.5371 345.668 42.9034 347.667 46.3664C351.441 52.9054 355.387 58.5985 359.187 63.4838C355.972 63.1388 350.54 62.1247 344.785 58.7374C337.077 54.1972 333.11 47.9401 331.469 44.9484" stroke="#231F20" stroke-width="0.6" stroke-linecap="round" stroke-linejoin="round"/>
<path d="M344.047 36.0656C344.691 37.3616 345.389 38.6871 346.142 40.042C347.097 41.763 348.061 43.383 349.02 44.8978C350.446 43.5429 351.978 41.8977 353.484 39.9284C353.698 39.6507 353.9 39.373 354.102 39.0952C354.658 38.3252 355.163 37.572 355.625 36.8441" stroke="#231F20" stroke-width="0.6" stroke-linecap="round" stroke-linejoin="round"/>
<path d="M356.205 37.6857C355.402 39.0406 354.447 40.5007 353.315 42.0197C352.166 43.564 351.014 44.9147 349.928 46.0845C352.204 50.1366 355.89 55.7078 361.789 61.5062C361.948 61.6661 362.373 62.0784 362.811 62.4908C367.098 66.5303 381.167 78.6278 397.82 77.0373C404.24 76.4271 409.331 73.9656 411.203 76.3598C412.878 78.5016 410.778 82.9787 408.662 86.5259C403.921 86.9509 397.349 86.9383 389.914 85.0027C374.154 80.8959 364.557 70.7634 360.77 66.2484C358.372 66.0338 355.738 65.5625 352.978 64.6705C340.256 60.5594 333.284 50.3092 330.625 45.8152" stroke="#231F20" stroke-width="0.6" stroke-linecap="round" stroke-linejoin="round"/>
<path d="M309.047 26.6107C309.224 26.9473 309.421 27.2839 309.64 27.6205C310.549 29.0091 311.672 30.0821 312.833 30.9068C314.256 31.9167 315.728 32.5605 316.923 32.9771H316.927" stroke="#231F20" stroke-width="0.6" stroke-linecap="round" stroke-linejoin="round"/>
<path d="M311.867 25.1884C312.111 25.8574 312.347 26.6275 312.528 27.5111C312.793 28.8113 312.852 29.9685 312.835 30.9068V30.9194" stroke="#231F20" stroke-width="0.6" stroke-linecap="round" stroke-linejoin="round"/>
<path d="M354.096 39.0911C353.246 37.8161 352.337 36.175 351.622 34.1679C351.054 32.5815 350.709 31.0499 350.52 29.6319C350.158 27.0062 350.318 24.7634 350.524 23.2318" stroke="#231F20" stroke-width="0.6" stroke-linecap="round" stroke-linejoin="round"/>
<path d="M350.484 29.6487C350.484 29.6487 350.505 29.6361 350.518 29.6318C351.519 29.1227 352.676 28.4368 353.88 27.5027C355.499 26.2445 356.69 24.9443 357.54 23.8629H357.544" stroke="#231F20" stroke-width="0.6" stroke-linecap="round" stroke-linejoin="round"/>
</g>
</g>
<defs>
<clipPath id="clip0_9859_21954">
<rect x="0.5" width="384" height="240" rx="32" fill="white"/>
</clipPath>
<clipPath id="clip1_9859_21954">
<rect width="314" height="325" fill="white" transform="translate(116 -29)"/>
</clipPath>
</defs>
</svg>
