<svg width="384" height="240" viewBox="0 0 384 240" fill="none" xmlns="http://www.w3.org/2000/svg">
<rect width="384" height="240" rx="32" fill="white"/>
<g clip-path="url(#clip0_9859_21940)">
<path d="M207.853 184.963C205.833 181.917 204.426 178.419 203.812 174.652L203.999 174.622H207.853V184.963Z" fill="white"/>
<path d="M204.001 174.622L203.814 174.652C203.581 173.242 203.461 171.792 203.461 170.314C203.461 168.837 203.584 167.346 203.824 165.916L204.001 165.947H207.855V155.666C212.095 149.265 219.032 144.85 227.023 144.087L227.039 144.276V148.553H231.963V144.276L231.98 144.087C240.22 144.873 247.341 149.548 251.535 156.277L251.441 156.334V166.007H255.192C255.418 167.41 255.538 168.847 255.538 170.314C255.538 171.782 255.415 173.262 255.182 174.682H251.441V184.355L251.508 184.396C247.364 191.017 240.377 195.641 232.287 196.511L232.27 196.366V192.089H226.729V196.366L226.713 196.511C218.855 195.665 212.038 191.28 207.855 184.963V174.622H204.001ZM245.498 170.314C245.498 168.51 244.051 167.046 242.267 167.046C240.484 167.046 239.034 168.51 239.034 170.314C239.034 172.119 240.481 173.583 242.267 173.583C244.054 173.583 245.498 172.119 245.498 170.314ZM232.757 170.314C232.757 168.51 231.31 167.046 229.526 167.046C227.743 167.046 226.296 168.51 226.296 170.314C226.296 172.119 227.743 173.583 229.526 173.583C231.31 173.583 232.757 172.119 232.757 170.314ZM219.966 170.314C219.966 168.51 218.519 167.046 216.735 167.046C214.952 167.046 213.505 168.51 213.505 170.314C213.505 172.119 214.952 173.583 216.735 173.583C218.519 173.583 219.966 172.119 219.966 170.314Z" fill="white"/>
<path d="M207.851 155.666V165.947H203.997L203.82 165.916C204.44 162.172 205.84 158.695 207.851 155.666Z" fill="white"/>
<path d="M255.179 174.682C255.413 173.262 255.536 171.802 255.536 170.314C255.536 168.827 255.416 167.41 255.189 166.007C254.616 162.479 253.349 159.184 251.532 156.277C247.339 149.548 240.218 144.873 231.977 144.087C231.401 144.034 230.821 143.996 230.234 143.983C229.987 143.973 229.744 143.969 229.497 143.969C229.251 143.969 229.007 143.973 228.764 143.983C228.177 143.996 227.597 144.034 227.02 144.087C219.03 144.85 212.093 149.265 207.852 155.666C205.842 158.695 204.442 162.172 203.822 165.916C203.582 167.346 203.459 168.817 203.459 170.314C203.459 171.812 203.579 173.242 203.812 174.652C204.425 178.419 205.832 181.917 207.852 184.963C212.036 191.28 218.853 195.665 226.71 196.511C227.387 196.582 228.074 196.629 228.764 196.646C229.007 196.656 229.254 196.66 229.497 196.66C229.741 196.66 229.987 196.656 230.234 196.646C230.924 196.629 231.607 196.582 232.284 196.511C240.375 195.641 247.362 191.017 251.506 184.396C253.326 181.495 254.599 178.207 255.179 174.682ZM229.497 140.597C245.692 140.597 258.87 153.929 258.87 170.314C258.87 186.7 245.692 200.032 229.497 200.032C213.303 200.032 200.125 186.7 200.125 170.314C200.125 153.929 213.303 140.597 229.497 140.597Z" fill="white"/>
<path d="M230.226 196.366L230.236 196.646C229.989 196.656 229.746 196.66 229.499 196.66C229.252 196.66 229.009 196.656 228.766 196.646L228.776 196.366V193.712C228.776 193.307 229.099 192.976 229.499 192.976C229.699 192.976 229.882 193.057 230.012 193.192C230.142 193.327 230.226 193.509 230.226 193.712V196.366Z" fill="#FF8B63"/>
<path d="M226.728 192.089H232.268V196.366L232.285 196.511C231.608 196.582 230.925 196.629 230.235 196.646L230.225 196.366V193.712C230.225 193.509 230.141 193.327 230.011 193.192C229.881 193.057 229.698 192.976 229.498 192.976C229.098 192.976 228.774 193.307 228.774 193.712V196.366L228.764 196.646C228.074 196.629 227.388 196.582 226.711 196.511L226.728 196.366V192.089Z" fill="#7099ED"/>
<path d="M230.236 143.983L230.226 144.276V146.931C230.226 147.335 229.899 147.666 229.499 147.666C229.299 147.666 229.119 147.585 228.989 147.45C228.856 147.315 228.776 147.133 228.776 146.931V144.276L228.766 143.983C229.009 143.973 229.256 143.969 229.499 143.969C229.742 143.969 229.989 143.973 230.236 143.983Z" fill="#FF8B63"/>
<path d="M229.5 147.666C229.9 147.666 230.227 147.335 230.227 146.931V144.276L230.237 143.983C230.824 143.996 231.404 144.033 231.98 144.087L231.964 144.276V148.553H227.04V144.276L227.023 144.087C227.6 144.033 228.18 143.996 228.767 143.983L228.777 144.276V146.931C228.777 147.133 228.857 147.315 228.99 147.45C229.12 147.585 229.3 147.666 229.5 147.666Z" fill="#7099ED"/>
<path d="M255.188 166.007H251.438V156.334L251.531 156.277C253.348 159.184 254.614 162.479 255.188 166.007Z" fill="white"/>
<path d="M251.438 174.682H255.178C254.598 178.207 253.324 181.495 251.504 184.396L251.438 184.355V174.682Z" fill="white"/>
<path d="M216.73 173.583C218.514 173.583 219.961 172.119 219.961 170.314C219.961 168.509 218.514 167.046 216.73 167.046C214.946 167.046 213.5 168.509 213.5 170.314C213.5 172.119 214.946 173.583 216.73 173.583Z" fill="#7099ED"/>
<path d="M229.527 173.583C231.311 173.583 232.757 172.119 232.757 170.314C232.757 168.509 231.311 167.046 229.527 167.046C227.743 167.046 226.297 168.509 226.297 170.314C226.297 172.119 227.743 173.583 229.527 173.583Z" fill="white"/>
<path d="M242.265 167.046C244.048 167.046 245.495 168.51 245.495 170.314C245.495 172.119 244.048 173.583 242.265 173.583C240.481 173.583 239.031 172.119 239.031 170.314C239.031 168.51 240.478 167.046 242.265 167.046Z" fill="#7099ED"/>
<path d="M271.831 132.954V207.675C271.831 210.697 269.411 213.146 266.424 213.146H192.571C189.584 213.146 187.164 210.697 187.164 207.675V132.954C187.164 129.932 189.584 127.483 192.571 127.483H266.424C269.411 127.483 271.831 129.932 271.831 132.954ZM258.87 170.314C258.87 153.929 245.692 140.597 229.497 140.597C213.303 140.597 200.125 153.929 200.125 170.314C200.125 186.7 213.303 200.032 229.497 200.032C245.692 200.032 258.87 186.7 258.87 170.314Z" fill="white"/>
<path d="M266.424 127.483H192.571C189.585 127.483 187.164 129.932 187.164 132.954V207.675C187.164 210.697 189.585 213.146 192.571 213.146H266.424C269.41 213.146 271.831 210.697 271.831 207.675V132.954C271.831 129.932 269.41 127.483 266.424 127.483Z" stroke="#231F20" stroke-width="0.6" stroke-miterlimit="10"/>
<path d="M229.497 200.032C245.719 200.032 258.87 186.727 258.87 170.314C258.87 153.902 245.719 140.597 229.497 140.597C213.275 140.597 200.125 153.902 200.125 170.314C200.125 186.727 213.275 200.032 229.497 200.032Z" stroke="#231F20" stroke-width="0.6" stroke-miterlimit="10"/>
<path d="M255.192 166.007C255.418 167.41 255.538 168.847 255.538 170.314C255.538 171.782 255.415 173.262 255.182 174.682C254.602 178.207 253.328 181.495 251.508 184.396C247.364 191.017 240.377 195.641 232.287 196.511C231.61 196.582 230.926 196.629 230.236 196.646C229.99 196.656 229.746 196.66 229.5 196.66C229.253 196.66 229.01 196.656 228.766 196.646C228.076 196.629 227.389 196.582 226.713 196.511C218.855 195.665 212.038 191.28 207.855 184.963C205.834 181.917 204.428 178.419 203.814 174.652C203.581 173.242 203.461 171.792 203.461 170.314C203.461 168.837 203.584 167.346 203.824 165.916C204.444 162.172 205.844 158.695 207.855 155.666C212.095 149.265 219.032 144.85 227.023 144.087C227.599 144.033 228.18 143.996 228.766 143.983C229.01 143.973 229.256 143.969 229.5 143.969C229.743 143.969 229.99 143.973 230.236 143.983C230.823 143.996 231.403 144.033 231.98 144.087C240.22 144.873 247.341 149.548 251.535 156.277C253.352 159.184 254.618 162.479 255.192 166.007Z" stroke="#231F20" stroke-width="0.6" stroke-miterlimit="10"/>
<path d="M207.854 155.666V165.947H204" stroke="#231F20" stroke-width="0.6" stroke-miterlimit="10"/>
<path d="M207.854 184.963V174.622H204" stroke="#231F20" stroke-width="0.6" stroke-miterlimit="10"/>
<path d="M251.438 184.355V174.682H255.178H255.294" stroke="#231F20" stroke-width="0.6" stroke-miterlimit="10"/>
<path d="M251.438 156.334V166.007H255.188H255.294" stroke="#231F20" stroke-width="0.6" stroke-miterlimit="10"/>
<path d="M216.73 173.583C218.514 173.583 219.961 172.119 219.961 170.314C219.961 168.509 218.514 167.046 216.73 167.046C214.946 167.046 213.5 168.509 213.5 170.314C213.5 172.119 214.946 173.583 216.73 173.583Z" stroke="#231F20" stroke-width="0.6" stroke-miterlimit="10"/>
<path d="M245.495 170.314C245.495 172.119 244.048 173.583 242.265 173.583C240.481 173.583 239.031 172.119 239.031 170.314C239.031 168.51 240.478 167.046 242.265 167.046C244.052 167.046 245.495 168.51 245.495 170.314Z" stroke="#231F20" stroke-width="0.6" stroke-miterlimit="10"/>
<path d="M229.527 173.583C231.311 173.583 232.757 172.119 232.757 170.314C232.757 168.509 231.311 167.046 229.527 167.046C227.743 167.046 226.297 168.509 226.297 170.314C226.297 172.119 227.743 173.583 229.527 173.583Z" stroke="#231F20" stroke-width="0.6" stroke-miterlimit="10"/>
<path d="M228 168.716L229.493 170.227L231.044 171.795" stroke="#231F20" stroke-width="0.6" stroke-miterlimit="10"/>
<path d="M230.989 168.716L229.495 170.227L227.945 171.795" stroke="#231F20" stroke-width="0.6" stroke-miterlimit="10"/>
<path d="M226.727 196.366V192.089H232.267V196.366" stroke="#231F20" stroke-width="0.6" stroke-miterlimit="10"/>
<path d="M228.773 196.366V193.712C228.773 193.307 229.097 192.976 229.497 192.976C229.697 192.976 229.88 193.057 230.01 193.192C230.14 193.327 230.224 193.509 230.224 193.712V196.366" stroke="#231F20" stroke-width="0.6" stroke-miterlimit="10"/>
<path d="M231.963 144.276V148.553H227.039V144.276" stroke="#231F20" stroke-width="0.6" stroke-miterlimit="10"/>
<path d="M230.224 144.276V146.931C230.224 147.335 229.897 147.666 229.497 147.666C229.297 147.666 229.117 147.585 228.987 147.45C228.853 147.315 228.773 147.133 228.773 146.931V144.276" stroke="#231F20" stroke-width="0.6" stroke-miterlimit="10"/>
<path d="M268.867 193.101V206.201C268.867 208.377 267.127 210.137 264.977 210.137H254.359" stroke="black" stroke-width="0.6" stroke-miterlimit="10"/>
</g>
<path d="M39.2578 49.9096V51.8725H30.4199V49.9096H39.2578ZM37.8906 51.5307V50.6713C37.8906 49.0242 37.5065 47.8002 36.7383 46.9995C35.9701 46.1922 34.8958 45.7885 33.5156 45.7885C32.1094 45.7885 31.0905 46.0554 30.459 46.5893C29.834 47.1232 29.4727 47.8067 29.375 48.6401L29.3555 48.8647H26.6504L26.6602 48.6303C26.8229 47.1525 27.474 45.961 28.6133 45.0561C29.7526 44.1446 31.3835 43.6889 33.5059 43.6889C35.6283 43.6889 37.347 44.2781 38.6621 45.4565C39.9772 46.6349 40.6348 48.4383 40.6348 50.8666V51.4233C40.6348 53.8126 39.974 55.5867 38.6523 56.7456C37.3372 57.8979 35.6217 58.4741 33.5059 58.4741C31.3704 58.4741 29.7331 58.0346 28.5938 57.1557C27.4544 56.2703 26.8066 55.0659 26.6504 53.5424L26.6406 53.3081H29.3457L29.3652 53.5424C29.4629 54.3758 29.8307 55.0594 30.4688 55.5932C31.1068 56.1206 32.1126 56.3842 33.4863 56.3842C34.821 56.3842 35.8887 56.0099 36.6895 55.2612C37.4902 54.5125 37.8906 53.269 37.8906 51.5307ZM44.8926 43.9721H56.3086V58.1909H53.6035V46.062H47.1777L46.8164 52.7807C46.7253 54.6427 46.4225 56.0554 45.9082 57.019C45.3939 57.9825 44.4173 58.4643 42.9785 58.4643C42.7572 58.4643 42.5456 58.448 42.3438 58.4155C42.1419 58.3894 41.9434 58.3406 41.748 58.269V55.9643C41.8978 56.0164 42.0378 56.0522 42.168 56.0717C42.3047 56.0913 42.4447 56.101 42.5879 56.101C43.2324 56.101 43.6849 55.8276 43.9453 55.2807C44.2057 54.7338 44.3717 53.7833 44.4434 52.4291L44.8926 43.9721ZM59.6191 58.1909V43.9721H70.4297V46.0717H62.3047V49.8608H69.4336V51.9018H62.3047V56.101H70.5469V58.1909H59.6191ZM82.8809 58.1909L76.3379 51.3745L78.3105 49.9682L86.2109 58.1909H82.8809ZM74.1992 49.812H76.8652L82.7832 43.9721H85.7227L77.4316 51.9213H74.1992V49.812ZM72.8418 58.1909V43.9721H75.5566V58.1909H72.8418ZM85.9863 46.0815V43.9721H99.0625V46.0815H93.8867V58.1909H91.1719V46.0815H85.9863ZM100.908 58.1909V43.9721H107.109C108.939 43.9721 110.339 44.3627 111.309 45.144C112.285 45.9252 112.773 47.0678 112.773 48.5717C112.773 50.0431 112.288 51.1857 111.318 51.9995C110.348 52.8133 108.942 53.2071 107.1 53.1811H103.623V58.1909H100.908ZM103.623 51.1694H106.865C108.037 51.1694 108.864 50.9448 109.346 50.4956C109.827 50.0398 110.068 49.4018 110.068 48.5815C110.068 47.7547 109.827 47.1232 109.346 46.687C108.864 46.2442 108.037 46.0229 106.865 46.0229H103.623V51.1694ZM128.164 58.1909H125.508V48.6694C125.508 48.461 125.511 48.2332 125.518 47.9858C125.524 47.7319 125.534 47.504 125.547 47.3022H125.43C125.332 47.4975 125.234 47.6896 125.137 47.8784C125.046 48.0672 124.915 48.2722 124.746 48.4936L117.744 58.1909H114.873V43.9721H117.539V53.4838C117.539 53.6857 117.533 53.9103 117.52 54.1577C117.513 54.4051 117.507 54.6329 117.5 54.8413H117.637C117.708 54.6785 117.796 54.4929 117.9 54.2846C118.011 54.0763 118.138 53.8712 118.281 53.6694L125.293 43.9721H128.164V58.1909ZM141.436 58.1909L134.893 51.3745L136.865 49.9682L144.766 58.1909H141.436ZM132.754 49.812H135.42L141.338 43.9721H144.277L135.986 51.9213H132.754V49.812ZM131.396 58.1909V43.9721H134.111V58.1909H131.396ZM144.17 58.1909L150.352 43.9038H153.018L159.209 58.1909H156.26L152.148 48.1127C152.025 47.8198 151.921 47.5398 151.836 47.2729C151.751 46.9995 151.673 46.739 151.602 46.4916H151.504C151.426 46.739 151.344 46.9995 151.26 47.2729C151.175 47.5463 151.074 47.8263 150.957 48.1127L146.816 58.1909H144.17ZM147.031 54.8608L147.793 52.8393H155.449L156.211 54.8608H147.031Z" fill="#231F20"/>
<g clip-path="url(#clip1_9859_21940)">
<path d="M261.185 157.268C261.185 150.685 262.607 144.438 265.16 138.815L345.839 138.815C348.459 144.584 349.888 151.018 349.809 157.792C349.542 181.392 329.61 201.48 306.132 201.809C281.37 202.153 261.185 182.081 261.185 157.268Z" fill="white"/>
<path d="M345.832 138.815L265.157 138.815C265.689 137.63 266.277 136.47 266.913 135.344C276.608 118.155 282.041 98.8718 282.041 79.1095L282.041 76.6145C282.041 75.9075 282.249 75.2192 282.636 74.6281L284.906 71.2054C285.569 70.2103 286.681 69.6118 287.872 69.6118L323.154 69.6118C324.334 69.623 325.432 70.2178 326.083 71.2054L328.353 74.6281C328.744 75.2192 328.952 75.9075 328.952 76.6145L328.952 78.1519C328.952 98.2957 334.408 117.976 344.195 135.553C344.787 136.612 345.334 137.701 345.836 138.812L345.832 138.812L345.832 138.815Z" fill="#F4F3F1"/>
<path d="M289.37 61.4009C289.37 60.8361 289.783 60.361 290.334 60.2824L290.62 60.245L290.937 60.3124L321.869 56.0853L322.568 56.0554C322.914 56.2425 323.156 56.609 323.156 57.0392C323.156 57.6003 322.743 58.0754 322.192 58.154L321.98 58.1839L321.98 60.4283L322.04 60.4283C322.646 60.4283 323.156 60.9184 323.156 61.5431C323.156 62.1042 322.743 62.5792 322.192 62.6578L321.98 62.684L321.98 63.4471C322.628 63.4471 323.156 63.9745 323.156 64.6292L323.156 69.6118L289.444 69.6118L289.444 65.295L289.37 65.295L289.37 64.9209L289.444 64.9097L289.444 64.6292C289.444 63.9745 289.969 63.4471 290.62 63.4471L290.62 62.5119C289.958 62.5942 289.37 62.0743 289.37 61.4009Z" fill="#F4F3F1"/>
<path d="M290.621 58.0081C289.925 58.0941 289.315 57.518 289.374 56.7961C289.419 56.2649 289.862 55.8497 290.39 55.7749L290.621 55.7449L290.937 55.8871L321.869 51.6488L322.662 51.6077C322.989 51.8247 323.198 52.2137 323.149 52.6551C323.097 53.1788 322.662 53.5828 322.141 53.6539L321.981 53.6801L321.981 55.9245L322.04 55.9245C322.23 55.9245 322.409 55.9731 322.569 56.0554L321.869 56.0853L290.937 60.3124L290.621 60.245L290.621 58.0081Z" fill="#F4F3F1"/>
<path d="M290.621 53.5042C289.925 53.5903 289.315 53.0142 289.374 52.2923C289.419 51.7611 289.862 51.3458 290.39 51.271L290.621 51.2411L290.718 51.4169L321.869 47.0926L322.569 47.0477C322.949 47.2535 323.202 47.6687 323.149 48.1513C323.097 48.675 322.662 49.079 322.141 49.1538L321.981 49.1762L321.981 51.4207C322.23 51.4057 322.465 51.4768 322.662 51.6077L321.869 51.6488L290.937 55.8871L290.621 55.7449L290.621 53.5042Z" fill="#F4F3F1"/>
<path d="M290.621 49.0004C289.925 49.0864 289.315 48.5104 289.374 47.7884C289.419 47.2572 289.862 46.842 290.39 46.7672L290.621 46.7373L290.848 46.8906L321.869 42.5813L322.569 42.5439C322.949 42.7496 323.202 43.1649 323.149 43.6474C323.097 44.1711 322.662 44.5751 322.141 44.6462L321.981 44.6724L321.981 46.9168C322.193 46.9056 322.394 46.9542 322.569 47.0477L321.869 47.0926L290.718 51.4169L290.621 51.2411L290.621 49.0004Z" fill="#F4F3F1"/>
<path d="M290.622 44.4966C289.927 44.5826 289.316 44.0065 289.376 43.2846C289.42 42.7534 289.863 42.3382 290.392 42.2633L290.622 42.2334L290.849 42.3943L319.991 39.5102L320.877 39.4541C321.115 39.6673 321.093 40.0114 320.896 40.2097L321.982 41.3955L321.982 42.413C322.194 42.4018 322.395 42.4504 322.57 42.5439L321.871 42.5813L290.849 46.8906L290.622 46.7373L290.622 44.4966Z" fill="#F4F3F1"/>
<path d="M290.62 42.2334L290.62 41.3955L294.223 37.5201L294.375 37.6623L318.333 37.6623L318.456 37.55L320.079 39.3231L320.533 39.3231C320.659 39.3231 320.778 39.368 320.875 39.4541L319.989 39.5102L290.847 42.3943L290.62 42.2334Z" fill="#F4F3F1"/>
<path d="M294.22 37.5201L297.982 33.4764C299.344 32.0137 301.242 31.187 303.233 31.187L309.473 31.187C311.483 31.187 313.403 32.0325 314.762 33.5175L318.453 37.55L318.33 37.6622L294.372 37.6623L294.22 37.5201Z" fill="#FF8B63"/>
<path d="M289.445 69.6118L287.875 69.6118C286.684 69.6118 285.571 70.2103 284.909 71.2054L282.639 74.6281C282.252 75.2192 282.044 75.9075 282.044 76.6145L282.044 79.1095C282.044 98.8718 276.61 118.155 266.916 135.344C266.28 136.47 265.692 137.63 265.16 138.815C262.607 144.438 261.185 150.685 261.185 157.268C261.185 182.081 281.37 202.153 306.132 201.809C329.61 201.48 349.542 181.392 349.809 157.792C349.888 151.018 348.459 144.584 345.839 138.812C345.336 137.701 344.789 136.612 344.198 135.553C334.41 117.976 328.955 98.2957 328.955 78.1519L328.955 76.6145C328.955 75.9075 328.747 75.2192 328.356 74.6281L326.086 71.2054C325.435 70.2178 324.337 69.623 323.157 69.6118" stroke="#231F20" stroke-width="0.6" stroke-miterlimit="10"/>
<path d="M345.836 138.815L265.161 138.815" stroke="#231F20" stroke-width="0.6" stroke-miterlimit="10"/>
<path d="M318.336 37.6622L294.378 37.6623" stroke="#231F20" stroke-width="0.6" stroke-miterlimit="10"/>
<path d="M290.62 60.245L290.334 60.2824C289.783 60.361 289.37 60.8361 289.37 61.3972C289.37 62.0743 289.958 62.5942 290.62 62.5119L290.62 63.4471C289.969 63.4471 289.444 63.9745 289.444 64.6292L289.444 64.9097L289.37 64.9209L289.37 65.295L289.444 65.295L289.444 69.6118L323.156 69.6118L323.156 64.6292C323.156 63.9745 322.628 63.4471 321.98 63.4471L321.98 62.684L322.192 62.6578C322.743 62.5792 323.156 62.1042 323.156 61.5431C323.156 60.9184 322.646 60.4283 322.04 60.4283L321.98 60.4283L321.98 58.1839L322.192 58.154C322.743 58.0754 323.156 57.6003 323.156 57.0392C323.156 56.609 322.914 56.2425 322.568 56.0554C322.408 55.9731 322.23 55.9245 322.04 55.9245L321.98 55.9245L321.98 53.68L322.14 53.6539C322.661 53.5828 323.097 53.1788 323.149 52.6551C323.197 52.2137 322.989 51.8246 322.661 51.6077C322.464 51.4768 322.23 51.4057 321.98 51.4206L321.98 49.1762L322.14 49.1538C322.661 49.0789 323.097 48.675 323.149 48.1513C323.201 47.6687 322.948 47.2535 322.568 47.0477C322.393 46.9542 322.192 46.9056 321.98 46.9168L321.98 44.6724L322.14 44.6462C322.661 44.5751 323.097 44.1711 323.149 43.6474C323.201 43.1649 322.948 42.7496 322.568 42.5439C322.393 42.4504 322.192 42.4017 321.98 42.413L321.98 41.3955L320.894 40.2097C321.091 40.0114 321.113 39.6673 320.875 39.4541C320.778 39.368 320.659 39.3231 320.533 39.3231L320.079 39.3231L318.456 37.55L314.765 33.5175C313.406 32.0324 311.486 31.187 309.477 31.187L303.236 31.187C301.245 31.187 299.347 32.0137 297.985 33.4764L294.223 37.5201L290.62 41.3955L290.62 42.2334L290.39 42.2633C289.861 42.3382 289.418 42.7534 289.374 43.2846C289.314 44.0065 289.925 44.5826 290.62 44.4966L290.62 46.7373L290.39 46.7672C289.861 46.842 289.418 47.2572 289.374 47.7884C289.314 48.5104 289.925 49.0864 290.62 49.0004L290.62 51.2411L290.39 51.271C289.861 51.3458 289.418 51.7611 289.374 52.2922C289.314 53.0142 289.925 53.5903 290.62 53.5042L290.62 55.7449L290.39 55.7749C289.861 55.8497 289.418 56.2649 289.374 56.7961C289.314 57.518 289.925 58.0941 290.62 58.0081L290.62 60.245Z" stroke="#231F20" stroke-width="0.6" stroke-miterlimit="10"/>
<path d="M321.867 60.6341L294.817 64.0381" stroke="#231F20" stroke-width="0.6" stroke-miterlimit="10"/>
<path d="M321.867 56.0853L290.935 60.3124" stroke="#231F20" stroke-width="0.6" stroke-miterlimit="10"/>
<path d="M321.867 51.6488L290.935 55.8871" stroke="#231F20" stroke-width="0.6" stroke-miterlimit="10"/>
<path d="M321.867 47.0926L290.716 51.4169" stroke="#231F20" stroke-width="0.6" stroke-miterlimit="10"/>
<path d="M321.867 42.5813L290.846 46.8906" stroke="#231F20" stroke-width="0.6" stroke-miterlimit="10"/>
<path d="M319.992 39.5102L290.85 42.3943" stroke="#231F20" stroke-width="0.6" stroke-miterlimit="10"/>
<path d="M299.234 197.373C294.728 196.251 286.18 193.411 278.625 185.829C276.076 183.27 266.166 173.331 266.259 158.305C266.3 151.287 268.511 145.781 270.089 142.62" stroke="white" stroke-miterlimit="10"/>
<path d="M276.86 131.076C278.434 127.043 279.933 122.7 281.277 118.054C285.285 104.191 286.807 91.4502 287.164 80.7629" stroke="white" stroke-miterlimit="10"/>
<path d="M330.742 187.901C333.499 185.215 338.568 179.541 341.34 170.735C344.95 159.277 342.471 149.525 341.34 145.874" stroke="#231F20" stroke-width="0.6" stroke-miterlimit="10"/>
<path d="M334.859 129.003C332.701 125.435 330.554 121.294 328.674 116.573C322.936 102.145 322.326 88.8654 322.787 79.8726" stroke="#231F20" stroke-width="0.6" stroke-miterlimit="10"/>
</g>
<defs>
<clipPath id="clip0_9859_21940">
<rect width="85" height="86" fill="white" transform="translate(187 127.314)"/>
</clipPath>
<clipPath id="clip1_9859_21940">
<rect width="89" height="171" fill="white" transform="translate(350 202) rotate(180)"/>
</clipPath>
</defs>
</svg>
