<svg width="384" height="240" viewBox="0 0 384 240" fill="none" xmlns="http://www.w3.org/2000/svg">
<g clip-path="url(#clip0_9859_21946)">
<rect width="384" height="240" rx="32" fill="white"/>
<path d="M27.8223 58.1909V43.9721H33.8574C35.5501 43.9721 36.8717 44.2618 37.8223 44.8412C38.7728 45.4207 39.248 46.3777 39.248 47.7123C39.248 48.5001 39.043 49.1414 38.6328 49.6362C38.2292 50.1245 37.7148 50.476 37.0898 50.6909V50.7299C37.8711 50.9383 38.5026 51.3191 38.9844 51.8725C39.4727 52.4259 39.7168 53.1681 39.7168 54.0991C39.7168 55.4597 39.209 56.4819 38.1934 57.1655C37.1777 57.8491 35.8366 58.1909 34.1699 58.1909H27.8223ZM30.498 56.2377H34.0332C35.0423 56.2377 35.791 56.0522 36.2793 55.6811C36.7676 55.3035 37.0117 54.7338 37.0117 53.9721C37.0117 53.256 36.7676 52.7058 36.2793 52.3217C35.791 51.9311 35.0423 51.7358 34.0332 51.7358H30.498V56.2377ZM30.498 49.8998H33.7207C34.7168 49.8998 35.4395 49.7273 35.8887 49.3823C36.3444 49.0372 36.5723 48.5424 36.5723 47.8979C36.5723 47.2208 36.3477 46.726 35.8984 46.4135C35.4492 46.101 34.7233 45.9448 33.7207 45.9448H30.498V49.8998ZM42.2168 58.1909V43.9721H53.0273V46.0717H44.9023V49.8608H52.0312V51.9018H44.9023V56.101H53.1445V58.1909H42.2168ZM55.4395 58.1909V43.9721H58.1543V49.8022H65.8887V43.9721H68.5938V58.1909H65.8887V51.9116H58.1543V58.1909H55.4395ZM70.4395 46.0815V43.9721H83.5156V46.0815H78.3398V58.1909H75.625V46.0815H70.4395ZM98.6523 58.1909H95.9961V48.6694C95.9961 48.461 95.9993 48.2332 96.0059 47.9858C96.0124 47.7319 96.0221 47.504 96.0352 47.3022H95.918C95.8203 47.4975 95.7227 47.6896 95.625 47.8784C95.5339 48.0672 95.4036 48.2722 95.2344 48.4936L88.2324 58.1909H85.3613V43.9721H88.0273V53.4838C88.0273 53.6856 88.0208 53.9103 88.0078 54.1577C88.0013 54.405 87.9948 54.6329 87.9883 54.8412H88.125C88.1966 54.6785 88.2845 54.4929 88.3887 54.2846C88.4993 54.0763 88.6263 53.8712 88.7695 53.6694L95.7812 43.9721H98.6523V58.1909ZM103.545 43.9721H114.961V58.1909H112.256V46.062H105.83L105.469 52.7807C105.378 54.6427 105.075 56.0554 104.561 57.019C104.046 57.9825 103.07 58.4643 101.631 58.4643C101.41 58.4643 101.198 58.448 100.996 58.4155C100.794 58.3894 100.596 58.3406 100.4 58.269V55.9643C100.55 56.0164 100.69 56.0522 100.82 56.0717C100.957 56.0912 101.097 56.101 101.24 56.101C101.885 56.101 102.337 55.8276 102.598 55.2807C102.858 54.7338 103.024 53.7833 103.096 52.4291L103.545 43.9721ZM129.561 58.1909H126.846V52.8491H122.129L121.641 52.5952C120.404 52.4324 119.456 51.9702 118.799 51.2084C118.141 50.4467 117.812 49.4929 117.812 48.3471C117.812 47.006 118.291 45.9415 119.248 45.1537C120.212 44.366 121.569 43.9721 123.32 43.9721H129.561V58.1909ZM126.846 50.8471V46.0034H123.545C122.406 46.0034 121.618 46.2182 121.182 46.6479C120.745 47.0711 120.527 47.6472 120.527 48.3764C120.527 49.1121 120.745 49.7078 121.182 50.1635C121.618 50.6192 122.406 50.8471 123.545 50.8471H126.846ZM120.039 58.1909H117.148L121.279 51.6577H124.033L120.039 58.1909ZM145.254 61.0131V58.1909H132.803V43.9721H135.518V56.101H143.174V43.9721H145.889V56.101H147.773V61.0131H145.254ZM162.91 58.1909H160.254V48.6694C160.254 48.461 160.257 48.2332 160.264 47.9858C160.27 47.7319 160.28 47.504 160.293 47.3022H160.176C160.078 47.4975 159.98 47.6896 159.883 47.8784C159.792 48.0672 159.661 48.2722 159.492 48.4936L152.49 58.1909H149.619V43.9721H152.285V53.4838C152.285 53.6856 152.279 53.9103 152.266 54.1577C152.259 54.405 152.253 54.6329 152.246 54.8412H152.383C152.454 54.6785 152.542 54.4929 152.646 54.2846C152.757 54.0763 152.884 53.8712 153.027 53.6694L160.039 43.9721H162.91V58.1909ZM177.432 58.1909H174.717V52.8491H170L169.512 52.5952C168.275 52.4324 167.327 51.9702 166.67 51.2084C166.012 50.4467 165.684 49.4929 165.684 48.3471C165.684 47.006 166.162 45.9415 167.119 45.1537C168.083 44.366 169.44 43.9721 171.191 43.9721H177.432V58.1909ZM174.717 50.8471V46.0034H171.416C170.277 46.0034 169.489 46.2182 169.053 46.6479C168.617 47.0711 168.398 47.6472 168.398 48.3764C168.398 49.1121 168.617 49.7078 169.053 50.1635C169.489 50.6192 170.277 50.8471 171.416 50.8471H174.717ZM167.91 58.1909H165.02L169.15 51.6577H171.904L167.91 58.1909ZM41.1133 81.1909H38.457V71.6694C38.457 71.461 38.4603 71.2332 38.4668 70.9858C38.4733 70.7319 38.4831 70.504 38.4961 70.3022H38.3789C38.2812 70.4975 38.1836 70.6896 38.0859 70.8784C37.9948 71.0672 37.8646 71.2722 37.6953 71.4936L30.6934 81.1909H27.8223V66.9721H30.4883V76.4838C30.4883 76.6856 30.4818 76.9103 30.4688 77.1577C30.4622 77.405 30.4557 77.6329 30.4492 77.8412H30.5859C30.6576 77.6785 30.7454 77.4929 30.8496 77.2846C30.9603 77.0763 31.0872 76.8712 31.2305 76.6694L38.2422 66.9721H41.1133V81.1909ZM59.4824 81.1909L52.9395 74.3745L54.9121 72.9682L62.8125 81.1909H59.4824ZM50.8008 72.812H53.4668L59.3848 66.9721H62.3242L54.0332 74.9213H50.8008V72.812ZM49.4434 81.1909V66.9721H52.1582V81.1909H49.4434ZM63.3301 74.3354V73.7983C63.3301 71.4285 64.0202 69.6511 65.4004 68.4662C66.7806 67.2748 68.5449 66.6791 70.6934 66.6791C72.8353 66.6791 74.5996 67.2748 75.9863 68.4662C77.3796 69.6511 78.0762 71.4285 78.0762 73.7983V74.3354C78.0762 76.7247 77.3796 78.5151 75.9863 79.7065C74.5996 80.8914 72.8353 81.4838 70.6934 81.4838C68.5449 81.4838 66.7806 80.8914 65.4004 79.7065C64.0202 78.5151 63.3301 76.7247 63.3301 74.3354ZM66.1133 74.5014C66.1133 76.1811 66.5299 77.4181 67.3633 78.2123C68.2031 79.0001 69.3132 79.394 70.6934 79.394C72.0736 79.394 73.1868 79.0001 74.0332 78.2123C74.8796 77.4181 75.3027 76.1811 75.3027 74.5014V73.6518C75.3027 71.9721 74.8796 70.7416 74.0332 69.9604C73.1934 69.1726 72.0801 68.7787 70.6934 68.7787C69.3132 68.7787 68.2031 69.1726 67.3633 69.9604C66.5299 70.7416 66.1133 71.9689 66.1133 73.642V74.5014ZM80.6543 81.1909V66.9721H83.3691V72.8022H91.1035V66.9721H93.8086V81.1909H91.1035V74.9116H83.3691V81.1909H80.6543ZM109.248 84.0131V81.1909H98.0566V84.0131H95.5664V79.101H111.738V84.0131H109.248ZM98.3984 66.9721H109.854V80.683H107.178V69.062H100.684L100.391 74.3354C100.312 75.7351 100.182 76.8452 100 77.6655C99.8242 78.4858 99.5703 79.1791 99.2383 79.7455H96.6211C97.0508 79.114 97.3698 78.3816 97.5781 77.5483C97.793 76.7149 97.9362 75.6082 98.0078 74.228L98.3984 66.9721ZM126.914 81.1909H124.258V71.6694C124.258 71.461 124.261 71.2332 124.268 70.9858C124.274 70.7319 124.284 70.504 124.297 70.3022H124.18C124.082 70.4975 123.984 70.6896 123.887 70.8784C123.796 71.0672 123.665 71.2722 123.496 71.4936L116.494 81.1909H113.623V66.9721H116.289V76.4838C116.289 76.6856 116.283 76.9103 116.27 77.1577C116.263 77.405 116.257 77.6329 116.25 77.8412H116.387C116.458 77.6785 116.546 77.4929 116.65 77.2846C116.761 77.0763 116.888 76.8712 117.031 76.6694L124.043 66.9721H126.914V81.1909ZM142.598 84.0131V81.1909H130.146V66.9721H132.861V79.101H140.518V66.9721H143.232V79.101H145.117V84.0131H142.598ZM160.254 81.1909H157.598V71.6694C157.598 71.461 157.601 71.2332 157.607 70.9858C157.614 70.7319 157.624 70.504 157.637 70.3022H157.52C157.422 70.4975 157.324 70.6896 157.227 70.8784C157.135 71.0672 157.005 71.2722 156.836 71.4936L149.834 81.1909H146.963V66.9721H149.629V76.4838C149.629 76.6856 149.622 76.9103 149.609 77.1577C149.603 77.405 149.596 77.6329 149.59 77.8412H149.727C149.798 77.6785 149.886 77.4929 149.99 77.2846C150.101 77.0763 150.228 76.8712 150.371 76.6694L157.383 66.9721H160.254V81.1909ZM162.842 74.3354V73.7983C162.842 71.4285 163.532 69.6511 164.912 68.4662C166.292 67.2748 168.057 66.6791 170.205 66.6791C172.347 66.6791 174.111 67.2748 175.498 68.4662C176.891 69.6511 177.588 71.4285 177.588 73.7983V74.3354C177.588 76.7247 176.891 78.5151 175.498 79.7065C174.111 80.8914 172.347 81.4838 170.205 81.4838C168.057 81.4838 166.292 80.8914 164.912 79.7065C163.532 78.5151 162.842 76.7247 162.842 74.3354ZM165.625 74.5014C165.625 76.1811 166.042 77.4181 166.875 78.2123C167.715 79.0001 168.825 79.394 170.205 79.394C171.585 79.394 172.699 79.0001 173.545 78.2123C174.391 77.4181 174.814 76.1811 174.814 74.5014V73.6518C174.814 71.9721 174.391 70.7416 173.545 69.9604C172.705 69.1726 171.592 68.7787 170.205 68.7787C168.825 68.7787 167.715 69.1726 166.875 69.9604C166.042 70.7416 165.625 71.9689 165.625 73.642V74.5014ZM180.166 81.1909V66.9721H182.881V72.8022H190.615V66.9721H193.32V81.1909H190.615V74.9116H182.881V81.1909H180.166ZM196.553 81.1909V66.9721H207.363V69.0717H199.238V72.8608H206.367V74.9018H199.238V79.101H207.48V81.1909H196.553ZM209.775 81.1909V66.9721H215.977C217.806 66.9721 219.206 67.3627 220.176 68.144C221.152 68.9252 221.641 70.0678 221.641 71.5717C221.641 73.0431 221.156 74.1856 220.186 74.9995C219.215 75.8133 217.809 76.2071 215.967 76.1811H212.49V81.1909H209.775ZM212.49 74.1694H215.732C216.904 74.1694 217.731 73.9448 218.213 73.4955C218.695 73.0398 218.936 72.4018 218.936 71.5815C218.936 70.7547 218.695 70.1231 218.213 69.687C217.731 69.2442 216.904 69.0229 215.732 69.0229H212.49V74.1694ZM223.74 66.9721H226.455V72.1088H230.381C232.139 72.1088 233.441 72.532 234.287 73.3784C235.133 74.2247 235.557 75.312 235.557 76.6401C235.557 78.0463 235.133 79.1564 234.287 79.9702C233.441 80.784 232.139 81.1909 230.381 81.1909H223.74V66.9721ZM226.455 74.1596V79.1401H230.186C231.149 79.1401 231.833 78.922 232.236 78.4858C232.64 78.0431 232.842 77.4278 232.842 76.6401C232.842 75.9304 232.64 75.3412 232.236 74.8725C231.833 74.3972 231.149 74.1596 230.186 74.1596H226.455ZM237.354 81.1909H240.088V66.9721H237.354V81.1909Z" fill="#231F20"/>
<path d="M196.055 119.39H390.219V267.098H257.009L196.055 119.39Z" fill="#7099ED"/>
<g clip-path="url(#clip1_9859_21946)">
<path d="M320.022 105.997V107.35H176.336V105.997C176.336 104.002 177.986 102.384 180.026 102.384H316.331C318.369 102.384 320.022 104.002 320.022 105.997Z" fill="#F4F3F1"/>
<path d="M340.472 147.697C341.11 147.697 341.626 148.202 341.626 148.824C341.626 149.135 341.498 149.421 341.288 149.624C341.078 149.829 340.792 149.955 340.472 149.955H331.709C331.071 149.955 330.555 149.449 330.555 148.824C330.555 148.513 330.683 148.231 330.893 148.028C331.103 147.823 331.388 147.697 331.709 147.697H340.472Z" fill="#231F20"/>
<path d="M340.472 144.461C341.11 144.461 341.626 144.966 341.626 145.588C341.626 145.899 341.498 146.184 341.288 146.387C341.078 146.593 340.792 146.718 340.472 146.718H331.709C331.071 146.718 330.555 146.213 330.555 145.588C330.555 145.277 330.683 144.994 330.893 144.792C331.103 144.586 331.388 144.461 331.709 144.461H340.472Z" fill="#231F20"/>
<path d="M340.472 141.224C341.11 141.224 341.626 141.729 341.626 142.351C341.626 142.663 341.498 142.948 341.288 143.151C341.078 143.356 340.792 143.482 340.472 143.482H331.709C331.071 143.482 330.555 142.976 330.555 142.351C330.555 142.04 330.683 141.758 330.893 141.555C331.103 141.35 331.388 141.224 331.709 141.224H340.472Z" fill="#231F20"/>
<path d="M308.296 200.085C308.847 200.085 309.296 200.522 309.296 201.064C309.296 201.336 309.185 201.578 309.001 201.755C308.821 201.932 308.573 202.04 308.296 202.04H279.851C279.298 202.04 278.852 201.604 278.852 201.064C278.852 200.793 278.962 200.548 279.143 200.371C279.324 200.194 279.574 200.085 279.851 200.085H308.296Z" fill="#7099ED"/>
<path d="M308.296 188.795C308.847 188.795 309.296 189.232 309.296 189.774C309.296 190.045 309.185 190.288 309.001 190.465C308.821 190.641 308.573 190.75 308.296 190.75H279.851C279.298 190.75 278.852 190.313 278.852 189.774C278.852 189.503 278.962 189.257 279.143 189.08C279.324 188.903 279.574 188.795 279.851 188.795H308.296Z" fill="#7099ED"/>
<path d="M308.296 177.504C308.847 177.504 309.296 177.941 309.296 178.48C309.296 178.752 309.185 178.997 309.001 179.174C308.821 179.351 308.573 179.459 308.296 179.459H279.851C279.298 179.459 278.852 179.023 278.852 178.48C278.852 178.212 278.962 177.967 279.143 177.79C279.324 177.613 279.574 177.504 279.851 177.504H308.296Z" fill="#7099ED"/>
<path d="M308.296 166.214C308.847 166.214 309.296 166.651 309.296 167.19C309.296 167.461 309.185 167.707 309.001 167.884C308.821 168.06 308.573 168.169 308.296 168.169H279.851C279.298 168.169 278.852 167.732 278.852 167.19C278.852 166.922 278.962 166.676 279.143 166.499C279.324 166.322 279.574 166.214 279.851 166.214H308.296Z" fill="#7099ED"/>
<path d="M308.296 154.923C308.847 154.923 309.296 155.36 309.296 155.9C309.296 156.171 309.185 156.416 309.001 156.593C308.821 156.77 308.573 156.878 308.296 156.878H279.851C279.298 156.878 278.852 156.442 278.852 155.9C278.852 155.631 278.962 155.386 279.143 155.209C279.324 155.032 279.574 154.923 279.851 154.923H308.296Z" fill="#7099ED"/>
<path d="M469.526 98.2026L472.983 101.268C446.456 129.951 422.003 155.277 409.165 167.37C406.859 169.542 404.204 171.911 400.732 174.043C399.204 174.984 397.519 175.878 395.633 176.688C395.412 176.785 395.185 176.879 394.957 176.974C393.823 177.439 391.27 178.486 384.831 179.354C381.764 179.768 377.817 180.142 372.722 180.393C371.314 180.461 369.815 180.521 368.224 180.57C367.964 180.578 367.705 180.584 367.44 180.592C366.32 180.624 365.195 180.647 364.073 180.664C362.513 180.692 360.954 180.704 359.394 180.704C356.739 180.704 354.602 180.667 351.984 180.595V176.029C356.106 176.143 360.012 176.169 364.073 176.1C365.137 176.083 366.212 176.057 367.306 176.029C367.615 176.02 367.921 176.012 368.224 176.003C369.786 175.952 371.287 175.892 372.722 175.821C377.447 175.587 381.49 175.224 384.831 174.745C386.457 174.508 387.918 174.245 389.209 173.951C390.771 173.597 392.089 173.201 393.156 172.764C394.013 172.413 394.829 172.039 395.604 171.645C400.525 169.171 403.836 166.051 405.932 164.079C415.936 154.655 437.898 132.402 469.526 98.2026Z" fill="#FF8B63"/>
<path d="M395.604 171.645C394.829 172.039 394.013 172.413 393.156 172.764C392.089 173.201 390.771 173.597 389.209 173.951C387.769 173.389 386.308 172.85 384.831 172.342C380.927 170.994 376.893 169.841 372.722 168.914C371.238 168.583 369.74 168.28 368.224 168.009C367.938 167.955 367.65 167.903 367.361 167.855C366.268 167.667 365.172 167.493 364.073 167.333C360.079 166.756 356.051 166.377 351.984 166.254V161.742C356.001 161.864 360.1 162.195 364.073 162.729C365.443 162.915 366.81 163.123 368.166 163.357C368.186 163.36 368.203 163.363 368.224 163.368C369.74 163.628 371.241 163.916 372.722 164.233C376.887 165.121 380.924 166.222 384.831 167.51C388.538 168.728 392.13 170.115 395.604 171.645Z" fill="#FF8B63"/>
<path d="M384.828 179.354V231.508C384.828 234.134 382.52 236.186 379.853 235.938L311.047 229.51L284.156 226.999V219.578H372.72V180.393C377.815 180.142 381.762 179.768 384.828 179.354Z" fill="#7099ED"/>
<path d="M384.828 172.341V174.745C381.487 175.224 377.444 175.587 372.719 175.821V168.914C376.89 169.841 380.924 170.994 384.828 172.341Z" fill="#7099ED"/>
<path d="M384.828 139.455V167.51C380.922 166.223 376.884 165.121 372.719 164.233V139.455H384.828Z" fill="#7099ED"/>
<path d="M372.724 180.393V219.578H368.227V180.57C369.818 180.521 371.316 180.461 372.724 180.393Z" fill="#FF8B63"/>
<path d="M372.724 168.914V175.821C371.29 175.892 369.789 175.952 368.227 176.003V168.009C369.742 168.28 371.241 168.583 372.724 168.914Z" fill="#FF8B63"/>
<path d="M372.724 139.455V164.233C371.244 163.916 369.742 163.628 368.227 163.368V139.455H372.724Z" fill="#FF8B63"/>
<path d="M364.075 180.664V215.968C364.075 217.963 362.422 219.578 360.385 219.578H333.016L348.78 215.765C350.663 215.309 351.986 213.653 351.986 211.756V180.595C354.604 180.667 356.741 180.704 359.396 180.704C360.956 180.704 362.515 180.692 364.075 180.664Z" fill="#7099ED"/>
<path d="M364.073 167.333V176.1C360.012 176.169 356.106 176.143 351.984 176.029V166.254C356.051 166.377 360.079 166.756 364.073 167.333Z" fill="#7099ED"/>
<path d="M364.07 107.35V162.729C360.097 162.195 355.998 161.864 351.981 161.742V160.968C351.981 159.507 351.194 158.154 349.909 157.412L344.796 154.453C343.685 153.81 343.006 152.643 343.006 151.382V122.216C343.006 120.367 341.473 118.869 339.584 118.869H322.864V216.116C322.864 217.446 322.097 218.599 320.975 219.179L319.328 219.578H316.328C318.366 219.578 320.019 217.963 320.019 215.968V107.35H364.07Z" fill="#7099ED"/>
<path d="M364.07 105.997V107.35H320.019V105.997C320.019 104.002 318.366 102.384 316.328 102.384H360.38C362.417 102.384 364.07 104.002 364.07 105.997Z" fill="#7099ED"/>
<path d="M351.982 176.029V211.756C351.982 213.653 350.658 215.309 348.775 215.765L333.011 219.578H319.328C319.923 219.578 320.482 219.433 320.975 219.179L335.092 215.765C336.976 215.309 338.296 213.653 338.296 211.756V160.968C338.296 159.507 337.509 158.154 336.226 157.412L331.111 154.453C330.003 153.81 329.321 152.643 329.321 151.382V122.216C329.321 120.367 327.79 118.869 325.901 118.869H339.584C341.473 118.869 343.007 120.367 343.007 122.216V151.382C343.007 152.643 343.686 153.81 344.796 154.453L349.909 157.412C351.195 158.154 351.982 159.507 351.982 160.968V176.029ZM341.622 142.351C341.622 141.729 341.106 141.224 340.468 141.224H331.705C331.385 141.224 331.099 141.35 330.889 141.555C330.679 141.758 330.551 142.04 330.551 142.351C330.551 142.976 331.067 143.482 331.705 143.482H340.468C340.788 143.482 341.074 143.356 341.284 143.151C341.494 142.948 341.622 142.663 341.622 142.351ZM341.622 145.588C341.622 144.966 341.106 144.461 340.468 144.461H331.705C331.385 144.461 331.099 144.586 330.889 144.792C330.679 144.994 330.551 145.277 330.551 145.588C330.551 146.213 331.067 146.718 331.705 146.718H340.468C340.788 146.718 341.074 146.593 341.284 146.387C341.494 146.184 341.622 145.899 341.622 145.588ZM341.622 148.824C341.622 148.202 341.106 147.697 340.468 147.697H331.705C331.385 147.697 331.099 147.823 330.889 148.028C330.679 148.231 330.551 148.513 330.551 148.824C330.551 149.449 331.067 149.955 331.705 149.955H340.468C340.788 149.955 341.074 149.829 341.284 149.624C341.494 149.421 341.622 149.135 341.622 148.824ZM341.622 135.428C341.622 134.472 340.829 133.695 339.853 133.695H332.32C331.833 133.695 331.39 133.889 331.07 134.203C330.749 134.517 330.551 134.951 330.551 135.428C330.551 136.384 331.344 137.157 332.32 137.157H339.853C340.339 137.157 340.782 136.963 341.103 136.652C341.424 136.338 341.622 135.904 341.622 135.428Z" fill="#7099ED"/>
<path d="M339.856 133.695C340.833 133.695 341.626 134.472 341.626 135.428C341.626 135.904 341.428 136.338 341.107 136.652C340.786 136.963 340.343 137.157 339.856 137.157H332.324C331.348 137.157 330.555 136.384 330.555 135.428C330.555 134.951 330.753 134.517 331.074 134.203C331.394 133.889 331.837 133.695 332.324 133.695H339.856Z" fill="#7099ED"/>
<path d="M338.297 160.968V211.756C338.297 213.653 336.977 215.309 335.094 215.765L320.977 219.179C322.099 218.599 322.865 217.446 322.865 216.116V118.869H325.903C327.792 118.869 329.322 120.367 329.322 122.216V151.382C329.322 152.643 330.004 153.81 331.112 154.453L336.228 157.412C337.51 158.154 338.297 159.507 338.297 160.968Z" fill="#7099ED"/>
<path d="M320.022 107.35V215.968C320.022 217.963 318.369 219.578 316.331 219.578H180.026C177.986 219.578 176.336 217.963 176.336 215.968V107.35H320.022ZM314.947 209.195V115.03C314.947 112.784 313.09 110.963 310.796 110.963H277.355C275.061 110.963 273.201 112.784 273.201 115.03V209.195C273.201 211.442 275.061 213.26 277.355 213.26H310.796C313.09 213.26 314.947 211.442 314.947 209.195ZM269.805 198.941V123.218C269.805 119.79 266.966 117.008 263.462 117.008H186.122C182.618 117.008 179.779 119.79 179.779 123.218V198.941C179.779 202.371 182.618 205.151 186.122 205.151H263.462C266.966 205.151 269.805 202.371 269.805 198.941Z" fill="#F4F3F1"/>
<path d="M314.949 115.03V209.195C314.949 211.442 313.092 213.26 310.798 213.26H277.357C275.063 213.26 273.203 211.442 273.203 209.195V115.03C273.203 112.784 275.063 110.963 277.357 110.963H310.798C313.092 110.963 314.949 112.784 314.949 115.03ZM312.529 209.869V120.221C312.529 119.474 311.908 118.869 311.145 118.869H277.01C276.246 118.869 275.625 119.474 275.625 120.221V209.869C275.625 210.617 276.246 211.225 277.01 211.225H311.145C311.908 211.225 312.529 210.617 312.529 209.869Z" fill="#F4F3F1"/>
<path d="M312.529 120.221V209.869C312.529 210.617 311.908 211.225 311.144 211.225H277.01C276.246 211.225 275.625 210.617 275.625 209.869V120.221C275.625 119.474 276.246 118.869 277.01 118.869H311.144C311.908 118.869 312.529 119.474 312.529 120.221ZM309.299 155.899C309.299 155.36 308.85 154.923 308.299 154.923H279.855C279.578 154.923 279.327 155.032 279.146 155.209C278.966 155.386 278.855 155.631 278.855 155.899C278.855 156.442 279.301 156.878 279.855 156.878H308.299C308.576 156.878 308.824 156.77 309.005 156.593C309.188 156.416 309.299 156.171 309.299 155.899ZM309.299 167.19C309.299 166.651 308.85 166.214 308.299 166.214H279.855C279.578 166.214 279.327 166.322 279.146 166.499C278.966 166.676 278.855 166.922 278.855 167.19C278.855 167.732 279.301 168.169 279.855 168.169H308.299C308.576 168.169 308.824 168.06 309.005 167.884C309.188 167.707 309.299 167.461 309.299 167.19ZM309.299 178.48C309.299 177.941 308.85 177.504 308.299 177.504H279.855C279.578 177.504 279.327 177.613 279.146 177.79C278.966 177.967 278.855 178.212 278.855 178.48C278.855 179.023 279.301 179.459 279.855 179.459H308.299C308.576 179.459 308.824 179.351 309.005 179.174C309.188 178.997 309.299 178.752 309.299 178.48ZM309.299 189.774C309.299 189.232 308.85 188.795 308.299 188.795H279.855C279.578 188.795 279.327 188.903 279.146 189.08C278.966 189.257 278.855 189.503 278.855 189.774C278.855 190.313 279.301 190.75 279.855 190.75H308.299C308.576 190.75 308.824 190.641 309.005 190.465C309.188 190.288 309.299 190.045 309.299 189.774ZM309.299 201.064C309.299 200.522 308.85 200.085 308.299 200.085H279.855C279.578 200.085 279.327 200.194 279.146 200.371C278.966 200.548 278.855 200.793 278.855 201.064C278.855 201.604 279.301 202.04 279.855 202.04H308.299C308.576 202.04 308.824 201.932 309.005 201.755C309.188 201.578 309.299 201.335 309.299 201.064Z" fill="#F4F3F1"/>
<path d="M311.047 229.51V231.508C311.047 234.134 308.739 236.186 306.071 235.938L210.375 226.999V219.578H273.199V226.999H284.156L311.047 229.51Z" fill="#7099ED"/>
<path d="M284.161 219.578H273.203V226.999H284.161V219.578Z" fill="#FF8B63"/>
<path d="M269.808 123.218V198.941C269.808 202.372 266.969 205.151 263.465 205.151H186.124C182.62 205.151 179.781 202.372 179.781 198.941V123.218C179.781 119.79 182.62 117.008 186.124 117.008H263.465C266.969 117.008 269.808 119.79 269.808 123.218ZM262.343 161.927C262.879 161.927 263.302 161.456 263.205 160.917C263.133 160.514 262.754 160.232 262.334 160.215C262.112 150.805 258.282 142.269 252.149 135.884L253.679 134.386C254.128 134.62 254.641 134.754 255.189 134.754C256.962 134.754 258.402 133.347 258.402 131.609C258.402 129.871 256.962 128.464 255.189 128.464C253.417 128.464 251.977 129.871 251.977 131.609C251.977 132.191 252.137 132.733 252.414 133.199L250.919 134.663C244.354 128.435 235.475 124.534 225.666 124.314C225.643 123.915 225.357 123.552 224.952 123.484C224.401 123.389 223.926 123.797 223.92 124.314C214.111 124.534 205.232 128.438 198.667 134.663L197.058 133.087C197.251 132.685 197.359 132.234 197.359 131.76C197.359 130.022 195.922 128.615 194.146 128.615C192.371 128.615 190.934 130.022 190.934 131.76C190.934 133.498 192.371 134.905 194.146 134.905C194.799 134.905 195.406 134.714 195.913 134.386L197.44 135.884C191.304 142.269 187.474 150.805 187.252 160.215C186.836 160.232 186.457 160.514 186.384 160.917C186.288 161.456 186.71 161.927 187.244 161.927H187.252C187.477 171.531 191.465 180.221 197.822 186.649L195.723 188.704C195.295 188.495 194.814 188.378 194.301 188.378C192.526 188.378 191.089 189.788 191.089 191.523C191.089 193.259 192.526 194.671 194.301 194.671C196.076 194.671 197.513 193.261 197.513 191.523C197.513 190.91 197.335 190.336 197.023 189.854L199.07 187.85C205.591 193.858 214.309 197.608 223.92 197.825C223.938 198.236 224.226 198.607 224.637 198.676C225.191 198.77 225.669 198.356 225.669 197.834V197.825C235.28 197.608 243.999 193.858 250.519 187.85L252.542 189.831C252.277 190.285 252.128 190.813 252.128 191.375C252.128 193.11 253.568 194.52 255.341 194.52C257.113 194.52 258.556 193.11 258.556 191.375C258.556 189.64 257.116 188.23 255.341 188.23C254.775 188.23 254.245 188.373 253.781 188.624L251.764 186.649C258.122 180.221 262.109 171.531 262.334 161.927H262.343Z" fill="#F4F3F1"/>
<path d="M263.2 160.917C263.296 161.456 262.873 161.927 262.337 161.927H262.328C262.334 161.642 262.337 161.356 262.337 161.071C262.337 160.786 262.334 160.5 262.328 160.215C262.748 160.232 263.127 160.514 263.2 160.917Z" fill="#F4F3F1"/>
<path d="M262.331 160.215C262.337 160.5 262.34 160.786 262.34 161.071C262.34 161.356 262.337 161.642 262.331 161.927H231.071C231.071 161.927 231.053 161.933 231.051 161.944C230.884 163.095 230.398 164.145 229.678 165.001C229.672 165.01 229.672 165.021 229.68 165.027L230.109 165.446L232.071 167.367L234.033 169.288L235.991 171.206L237.95 173.126L239.912 175.044L241.871 176.962L243.83 178.88L245.786 180.798L247.745 182.716L249.704 184.634L251.762 186.649L253.779 188.624C254.242 188.373 254.773 188.23 255.338 188.23C257.113 188.23 258.553 189.637 258.553 191.375C258.553 193.113 257.113 194.52 255.338 194.52C253.563 194.52 252.126 193.11 252.126 191.375C252.126 190.813 252.275 190.285 252.54 189.831L250.517 187.85L248.459 185.835L246.497 183.915L244.538 181.997L242.579 180.079L240.62 178.161L238.656 176.237L236.694 174.317L234.732 172.396L232.767 170.472L230.8 168.546L228.821 166.608L228.386 166.183C228.386 166.183 228.369 166.174 228.36 166.18C227.576 166.705 226.666 167.062 225.684 167.199C225.675 167.199 225.667 167.207 225.667 167.219V197.834C225.667 198.356 225.188 198.77 224.635 198.676C224.224 198.607 223.935 198.236 223.918 197.825V167.219C223.918 167.219 223.909 167.199 223.9 167.199C222.918 167.062 222.008 166.705 221.224 166.18C221.215 166.174 221.204 166.177 221.198 166.183L220.763 166.608L218.784 168.546L216.817 170.472L214.852 172.396L212.89 174.317L210.928 176.237L208.964 178.161L207.005 180.079L205.046 181.997L203.087 183.915L201.125 185.835L199.067 187.85L197.021 189.854C197.333 190.336 197.511 190.91 197.511 191.523C197.511 193.261 196.073 194.671 194.298 194.671C192.523 194.671 191.086 193.261 191.086 191.523C191.086 189.785 192.523 188.378 194.298 188.378C194.811 188.378 195.292 188.495 195.721 188.704L197.82 186.649L199.878 184.634L201.836 182.716L203.795 180.798L205.754 178.88L207.713 176.962L209.672 175.044L211.634 173.124L213.593 171.206L215.551 169.288L217.513 167.367L219.475 165.446L219.904 165.027C219.904 165.027 219.912 165.01 219.906 165.001C219.186 164.145 218.7 163.095 218.534 161.944C218.531 161.933 218.522 161.927 218.513 161.927H217.901C217.86 161.648 217.843 161.362 217.843 161.071C217.843 160.78 217.86 160.494 217.901 160.215H218.513C218.513 160.215 218.531 160.206 218.534 160.195C218.671 159.233 219.035 158.343 219.571 157.578C219.577 157.569 219.577 157.558 219.568 157.552L219.134 157.127L217.155 155.189L215.187 153.262L213.222 151.339L211.261 149.418L209.299 147.494L207.337 145.574L205.375 143.656L203.416 141.738L201.457 139.817L199.499 137.899L197.438 135.884L195.91 134.386L194.838 133.336C195.039 133.256 195.225 133.133 195.386 132.976C195.674 132.693 195.849 132.334 195.887 131.943L197.056 133.087L198.665 134.663L200.723 136.678L202.682 138.596L204.641 140.513L206.6 142.431L208.558 144.349L210.517 146.267L212.479 148.188L214.438 150.106L216.397 152.024L218.359 153.945L220.32 155.865L220.749 156.285C220.749 156.285 220.769 156.293 220.778 156.285C221.653 155.583 222.725 155.103 223.9 154.941C223.909 154.941 223.918 154.932 223.918 154.921V124.314C223.923 123.798 224.398 123.389 224.949 123.484C225.355 123.552 225.64 123.915 225.664 124.314C225.664 124.334 225.664 124.354 225.664 124.374V154.921C225.664 154.921 225.672 154.941 225.681 154.941C226.856 155.103 227.929 155.583 228.803 156.288C228.812 156.293 228.823 156.293 228.832 156.285L229.261 155.865L231.222 153.945L233.181 152.024L235.143 150.106L237.102 148.185L239.064 146.267L241.023 144.349L242.982 142.431L244.938 140.513L246.896 138.596L248.855 136.678L250.913 134.663L252.409 133.199C252.712 133.701 253.149 134.112 253.674 134.386L252.143 135.884L250.085 137.899L248.124 139.82L246.165 141.738L244.206 143.656L242.247 145.574L240.282 147.497L238.321 149.418L236.359 151.339L234.394 153.262L232.426 155.189L230.447 157.127L230.013 157.552C230.013 157.552 230.004 157.569 230.013 157.578C230.549 158.343 230.914 159.233 231.051 160.195C231.053 160.206 231.062 160.215 231.071 160.215H262.331ZM257.096 191.375C257.096 190.915 256.912 190.485 256.58 190.159C256.251 189.834 255.808 189.657 255.338 189.657C255.187 189.657 255.035 189.677 254.892 189.714C254.595 189.788 254.321 189.939 254.099 190.159C253.881 190.373 253.726 190.633 253.648 190.915C253.604 191.064 253.583 191.218 253.583 191.375C253.583 191.834 253.767 192.265 254.099 192.588C254.429 192.913 254.872 193.093 255.338 193.093C255.805 193.093 256.251 192.913 256.58 192.588C256.912 192.265 257.096 191.834 257.096 191.375ZM196.053 191.523C196.053 191.178 195.948 190.844 195.753 190.564C195.692 190.473 195.619 190.387 195.54 190.31C195.406 190.179 195.251 190.071 195.088 189.991C194.846 189.868 194.578 189.805 194.298 189.805C193.829 189.805 193.389 189.985 193.056 190.31C192.724 190.633 192.543 191.067 192.543 191.523C192.543 192.474 193.33 193.244 194.298 193.244C194.768 193.244 195.208 193.065 195.54 192.739C195.869 192.414 196.053 191.983 196.053 191.523Z" fill="#F4F3F1"/>
<path d="M262.329 160.215H259.42C259.204 151.593 255.7 143.77 250.086 137.899L252.144 135.884C258.277 142.269 262.107 150.805 262.329 160.215Z" fill="#F4F3F1"/>
<path d="M259.422 161.927H262.331C262.106 171.531 258.119 180.221 251.761 186.649L249.703 184.634C255.542 178.723 259.2 170.743 259.422 161.927Z" fill="#F4F3F1"/>
<path d="M259.421 160.215H256.648C256.436 152.341 253.241 145.197 248.125 139.82L250.087 137.899C255.701 143.77 259.205 151.593 259.421 160.215Z" fill="#7099ED"/>
<path d="M256.647 161.927H259.42C259.198 170.743 255.54 178.723 249.701 184.634L247.742 182.716C253.08 177.296 256.429 169.993 256.647 161.927Z" fill="#7099ED"/>
<path d="M255.189 128.464C256.961 128.464 258.401 129.871 258.401 131.609C258.401 133.347 256.961 134.754 255.189 134.754C254.641 134.754 254.128 134.62 253.679 134.386L254.804 133.284C254.929 133.313 255.058 133.327 255.189 133.327C255.658 133.327 256.098 133.15 256.431 132.825C256.76 132.499 256.944 132.068 256.944 131.609C256.944 131.149 256.76 130.718 256.431 130.393C256.098 130.071 255.658 129.891 255.189 129.891C254.72 129.891 254.279 130.071 253.947 130.393C253.615 130.718 253.434 131.149 253.434 131.609C253.434 131.786 253.46 131.957 253.516 132.12L252.414 133.199C252.137 132.733 251.977 132.191 251.977 131.609C251.977 129.871 253.414 128.464 255.189 128.464Z" fill="#F4F3F1"/>
<path d="M256.583 190.159C256.915 190.485 257.099 190.915 257.099 191.375C257.099 191.834 256.915 192.265 256.583 192.588C256.253 192.913 255.81 193.093 255.341 193.093C254.871 193.093 254.431 192.913 254.102 192.588C253.77 192.265 253.586 191.834 253.586 191.375C253.586 191.218 253.606 191.064 253.65 190.915L253.863 191.124C254.032 191.292 254.256 191.375 254.481 191.375C254.705 191.375 254.927 191.292 255.099 191.124C255.44 190.79 255.44 190.248 255.099 189.914L254.895 189.714C255.038 189.677 255.189 189.657 255.341 189.657C255.81 189.657 256.253 189.834 256.583 190.159Z" fill="#F4F3F1"/>
<path d="M256.646 160.215H253.877C253.664 153.091 250.776 146.621 246.164 141.738L248.123 139.82C253.239 145.197 256.434 152.341 256.646 160.215Z" fill="#F4F3F1"/>
<path d="M253.884 161.927H256.653C256.435 169.993 253.085 177.296 247.748 182.716L245.789 180.798C250.625 175.869 253.665 169.242 253.884 161.927Z" fill="#F4F3F1"/>
<path d="M256.426 130.393C256.756 130.718 256.939 131.149 256.939 131.609C256.939 132.068 256.756 132.499 256.426 132.825C256.094 133.15 255.654 133.327 255.185 133.327C255.053 133.327 254.925 133.313 254.8 133.284C254.479 133.216 254.182 133.059 253.943 132.825C253.739 132.625 253.59 132.382 253.511 132.12C253.456 131.957 253.43 131.786 253.43 131.609C253.43 131.149 253.61 130.718 253.943 130.393C254.275 130.071 254.715 129.891 255.185 129.891C255.654 129.891 256.094 130.071 256.426 130.393Z" fill="#F4F3F1"/>
<path d="M255.097 189.914C255.438 190.248 255.438 190.79 255.097 191.124C254.925 191.292 254.704 191.375 254.479 191.375C254.255 191.375 254.03 191.292 253.861 191.124L253.648 190.915C253.727 190.633 253.882 190.373 254.1 190.159C254.322 189.939 254.596 189.788 254.893 189.714L255.097 189.914Z" fill="#F4F3F1"/>
<path d="M254.804 133.284L253.679 134.386C253.154 134.112 252.717 133.701 252.414 133.199L253.516 132.12C253.595 132.382 253.743 132.625 253.947 132.825C254.186 133.059 254.484 133.216 254.804 133.284Z" fill="#F4F3F1"/>
<path d="M253.883 160.215H251.111C250.901 153.839 248.321 148.048 244.211 143.656L246.17 141.738C250.781 146.621 253.67 153.091 253.883 160.215Z" fill="#7099ED"/>
<path d="M251.107 161.927H253.879C253.66 169.242 250.62 175.869 245.784 180.798L243.828 178.88C248.16 174.442 250.891 168.497 251.107 161.927Z" fill="#7099ED"/>
<path d="M251.109 160.215H248.337C248.132 154.587 245.862 149.472 242.25 145.574L244.209 143.656C248.319 148.048 250.899 153.839 251.109 160.215Z" fill="#F4F3F1"/>
<path d="M248.333 161.927H251.105C250.889 168.497 248.158 174.442 243.826 178.88L241.867 176.962C245.7 173.018 248.12 167.749 248.333 161.927Z" fill="#F4F3F1"/>
<path d="M250.914 134.663L248.856 136.678C242.819 130.964 234.668 127.382 225.664 127.165V124.374C225.664 124.354 225.664 124.334 225.664 124.314C235.473 124.534 244.352 128.435 250.917 134.663H250.914Z" fill="#F4F3F1"/>
<path d="M248.456 185.835L250.514 187.85C243.994 193.858 235.275 197.608 225.664 197.825V194.974C234.47 194.763 242.46 191.329 248.456 185.835Z" fill="#F4F3F1"/>
<path d="M248.856 136.678L246.897 138.596C241.361 133.373 233.902 130.093 225.664 129.879V127.165C234.668 127.382 242.819 130.964 248.856 136.678Z" fill="#7099ED"/>
<path d="M246.495 183.915L248.456 185.835C242.46 191.329 234.47 194.763 225.664 194.974V192.26C233.704 192.051 241.003 188.921 246.495 183.915Z" fill="#7099ED"/>
<path d="M248.332 160.215H245.566C245.359 155.334 243.397 150.902 240.281 147.497L242.246 145.574C245.858 149.472 248.128 154.587 248.332 160.215Z" fill="#7099ED"/>
<path d="M245.572 161.927H248.338C248.126 167.749 245.706 173.018 241.873 176.962L239.914 175.044C243.246 171.591 245.356 166.999 245.572 161.927Z" fill="#7099ED"/>
<path d="M246.897 138.596L244.938 140.513C239.904 135.782 233.135 132.805 225.664 132.591V129.879C233.902 130.093 241.361 133.373 246.897 138.596Z" fill="#F4F3F1"/>
<path d="M244.536 181.997L246.495 183.915C241.003 188.92 233.704 192.051 225.664 192.26V189.548C232.94 189.34 239.548 186.515 244.536 181.997Z" fill="#F4F3F1"/>
<path d="M245.567 160.215H242.795C242.594 156.085 240.941 152.326 238.32 149.418L240.282 147.497C243.398 150.902 245.36 155.334 245.567 160.215Z" fill="#F4F3F1"/>
<path d="M242.801 161.927H245.573C245.357 166.999 243.247 171.591 239.915 175.044L237.953 173.126C240.786 170.167 242.588 166.248 242.801 161.927Z" fill="#F4F3F1"/>
<path d="M244.938 140.513L242.982 142.431C238.446 138.187 232.374 135.516 225.664 135.305V132.591C233.135 132.805 239.904 135.782 244.938 140.513Z" fill="#7099ED"/>
<path d="M242.577 180.079L244.536 181.997C239.548 186.515 232.94 189.34 225.664 189.548V186.834C232.176 186.629 238.091 184.106 242.577 180.079Z" fill="#7099ED"/>
<path d="M242.982 142.431L241.023 144.349C236.995 140.596 231.611 138.227 225.664 138.019V135.305C232.374 135.516 238.446 138.187 242.982 142.431Z" fill="#F4F3F1"/>
<path d="M242.796 160.215H240.021C239.825 156.833 238.481 153.75 236.359 151.339L238.321 149.418C240.942 152.326 242.595 156.085 242.796 160.215Z" fill="#7099ED"/>
<path d="M240.024 161.927H242.799C242.586 166.248 240.784 170.167 237.951 173.126L235.992 171.206C238.327 168.74 239.82 165.5 240.024 161.927Z" fill="#7099ED"/>
<path d="M240.618 178.161L242.577 180.079C238.091 184.106 232.176 186.629 225.664 186.834V184.12C231.412 183.92 236.636 181.697 240.618 178.161Z" fill="#F4F3F1"/>
<path d="M241.023 144.349L239.064 146.267C235.537 143.005 230.847 140.939 225.664 140.728V138.019C231.611 138.227 236.995 140.596 241.023 144.349Z" fill="#7099ED"/>
<path d="M238.653 176.237L240.618 178.161C236.636 181.697 231.412 183.92 225.664 184.12V181.412C230.649 181.209 235.176 179.288 238.653 176.237Z" fill="#7099ED"/>
<path d="M240.024 160.215H237.249C237.066 157.581 236.022 155.175 234.398 153.262L236.363 151.339C238.485 153.75 239.829 156.833 240.024 160.215Z" fill="#F4F3F1"/>
<path d="M237.246 161.927H240.022C239.818 165.5 238.325 168.74 235.99 171.206L234.031 169.288C235.865 167.316 237.048 164.753 237.246 161.927Z" fill="#F4F3F1"/>
<path d="M239.064 146.267L237.103 148.185C234.08 145.411 230.08 143.65 225.664 143.442V140.728C230.847 140.939 235.537 143.005 239.064 146.267Z" fill="#F4F3F1"/>
<path d="M236.691 174.316L238.653 176.237C235.176 179.288 230.649 181.209 225.664 181.412V178.697C229.882 178.5 233.721 176.879 236.691 174.316Z" fill="#F4F3F1"/>
<path d="M237.248 160.215H234.47C234.298 158.328 233.564 156.596 232.43 155.189L234.397 153.262C236.021 155.175 237.065 157.581 237.248 160.215Z" fill="#7099ED"/>
<path d="M234.469 161.927H237.247C237.049 164.753 235.866 167.316 234.032 169.288L232.07 167.367C233.408 165.891 234.28 164.005 234.469 161.927Z" fill="#7099ED"/>
<path d="M237.103 148.185L235.144 150.106C232.625 147.82 229.314 146.359 225.664 146.159V143.442C230.08 143.65 234.08 145.411 237.103 148.185Z" fill="#7099ED"/>
<path d="M234.73 172.396L236.691 174.316C233.721 176.879 229.882 178.5 225.664 178.697V175.98C229.118 175.789 232.267 174.473 234.73 172.396Z" fill="#7099ED"/>
<path d="M235.144 150.106L233.182 152.024C231.168 150.229 228.55 149.07 225.664 148.876V146.159C229.314 146.359 232.625 147.82 235.144 150.106Z" fill="#F4F3F1"/>
<path d="M232.765 170.472L234.73 172.396C232.267 174.473 229.118 175.789 225.664 175.98V173.263C228.355 173.084 230.812 172.065 232.765 170.472Z" fill="#F4F3F1"/>
<path d="M234.473 160.215H231.686C231.543 159.073 231.106 158.02 230.453 157.127L232.432 155.189C233.566 156.596 234.301 158.328 234.473 160.215Z" fill="#F4F3F1"/>
<path d="M231.683 161.927H234.47C234.281 164.005 233.409 165.891 232.071 167.367L230.109 165.446C230.949 164.47 231.514 163.257 231.683 161.927Z" fill="#F4F3F1"/>
<path d="M233.182 152.024L231.223 153.945C229.713 152.637 227.786 151.781 225.664 151.596V148.876C228.55 149.07 231.168 150.229 233.182 152.024Z" fill="#7099ED"/>
<path d="M230.797 168.546L232.765 170.472C230.812 172.065 228.355 173.084 225.664 173.263V170.543C227.591 170.378 229.357 169.656 230.797 168.546Z" fill="#7099ED"/>
<path d="M231.682 160.215H231.07C231.07 160.215 231.053 160.206 231.05 160.195C230.913 159.233 230.549 158.343 230.012 157.578C230.006 157.569 230.006 157.558 230.012 157.552L230.447 157.127C231.099 158.02 231.537 159.073 231.68 160.215H231.682Z" fill="#7099ED"/>
<path d="M231.067 161.927H231.679C231.51 163.257 230.945 164.47 230.105 165.446L229.677 165.027C229.677 165.027 229.668 165.01 229.674 165.001C230.394 164.145 230.881 163.094 231.047 161.944C231.05 161.933 231.059 161.927 231.067 161.927Z" fill="#7099ED"/>
<path d="M231.223 153.945L229.261 155.865C228.261 155.04 227.022 154.49 225.664 154.321V151.596C227.786 151.781 229.713 152.637 231.223 153.945Z" fill="#F4F3F1"/>
<path d="M228.818 166.608L230.797 168.546C229.357 169.656 227.591 170.378 225.664 170.543V167.818C226.83 167.675 227.906 167.247 228.818 166.608Z" fill="#F4F3F1"/>
<path d="M229.261 155.865L228.833 156.285C228.833 156.285 228.812 156.293 228.804 156.288C227.929 155.583 226.856 155.103 225.682 154.941C225.673 154.941 225.664 154.932 225.664 154.921V154.321C227.022 154.49 228.261 155.04 229.261 155.865Z" fill="#7099ED"/>
<path d="M228.384 166.183L228.818 166.608C227.906 167.247 226.83 167.675 225.664 167.818V167.219C225.664 167.219 225.673 167.199 225.682 167.199C226.664 167.062 227.573 166.705 228.358 166.18C228.366 166.174 228.378 166.177 228.384 166.183Z" fill="#7099ED"/>
<path d="M223.921 194.974V197.825C214.31 197.608 205.591 193.858 199.07 187.85L201.128 185.835C207.124 191.329 215.114 194.763 223.921 194.974Z" fill="#F4F3F1"/>
<path d="M223.917 192.26V194.974C215.111 194.763 207.121 191.329 201.125 185.835L203.087 183.915C208.579 188.921 215.878 192.051 223.917 192.26Z" fill="#7099ED"/>
<path d="M223.916 189.548V192.26C215.877 192.051 208.578 188.92 203.086 183.915L205.045 181.997C210.032 186.515 216.641 189.34 223.916 189.548Z" fill="#F4F3F1"/>
<path d="M223.919 186.834V189.548C216.643 189.34 210.034 186.515 205.047 181.997L207.006 180.079C211.492 184.106 217.406 186.629 223.919 186.834Z" fill="#7099ED"/>
<path d="M223.921 184.12V186.834C217.409 186.629 211.494 184.106 207.008 180.079L208.967 178.161C212.949 181.697 218.172 183.92 223.921 184.12Z" fill="#F4F3F1"/>
<path d="M223.915 181.412V184.12C218.166 183.92 212.943 181.697 208.961 178.161L210.926 176.237C214.403 179.288 218.93 181.209 223.915 181.412Z" fill="#7099ED"/>
<path d="M223.919 178.697V181.412C218.934 181.209 214.407 179.288 210.93 176.237L212.891 174.316C215.862 176.879 219.701 178.5 223.919 178.697Z" fill="#F4F3F1"/>
<path d="M223.918 175.98V178.697C219.7 178.5 215.861 176.879 212.891 174.316L214.852 172.396C217.316 174.473 220.464 175.789 223.918 175.98Z" fill="#7099ED"/>
<path d="M223.917 173.263V175.98C220.463 175.789 217.315 174.473 214.852 172.396L216.816 170.472C218.769 172.065 221.227 173.084 223.917 173.263Z" fill="#F4F3F1"/>
<path d="M223.921 170.543V173.263C221.231 173.084 218.773 172.065 216.82 170.472L218.788 168.546C220.228 169.656 221.994 170.378 223.921 170.543Z" fill="#7099ED"/>
<path d="M223.915 167.818V170.543C221.988 170.378 220.221 169.656 218.781 168.546L220.761 166.608C221.673 167.247 222.749 167.675 223.915 167.818Z" fill="#F4F3F1"/>
<path d="M223.92 167.219V167.818C222.754 167.675 221.678 167.247 220.766 166.608L221.2 166.183C221.2 166.183 221.217 166.174 221.226 166.18C222.01 166.705 222.92 167.062 223.902 167.199C223.911 167.199 223.92 167.207 223.92 167.219Z" fill="#7099ED"/>
<path d="M223.917 154.321V154.921C223.917 154.921 223.909 154.941 223.9 154.941C222.725 155.103 221.652 155.583 220.778 156.285C220.769 156.293 220.758 156.293 220.749 156.285L220.32 155.865C221.32 155.04 222.559 154.49 223.917 154.321Z" fill="#7099ED"/>
<path d="M223.918 151.596V154.321C222.56 154.49 221.321 155.04 220.321 155.865L218.359 153.945C219.869 152.637 221.796 151.781 223.918 151.596Z" fill="#F4F3F1"/>
<path d="M223.919 148.876V151.596C221.797 151.781 219.87 152.637 218.36 153.945L216.398 152.024C218.413 150.229 221.03 149.07 223.919 148.876Z" fill="#7099ED"/>
<path d="M223.917 146.159V148.876C221.028 149.07 218.411 150.229 216.396 152.024L214.438 150.106C216.956 147.82 220.267 146.359 223.917 146.159Z" fill="#F4F3F1"/>
<path d="M223.915 143.442V146.159C220.265 146.359 216.954 147.82 214.435 150.106L212.477 148.188C215.499 145.411 219.499 143.65 223.915 143.442Z" fill="#7099ED"/>
<path d="M223.916 140.728V143.442C219.5 143.65 215.5 145.411 212.477 148.188L210.516 146.267C214.043 143.005 218.733 140.939 223.916 140.728Z" fill="#F4F3F1"/>
<path d="M223.914 138.019V140.728C218.731 140.939 214.041 143.005 210.514 146.267L208.555 144.349C212.583 140.596 217.967 138.227 223.914 138.019Z" fill="#7099ED"/>
<path d="M223.92 135.305V138.019C217.973 138.227 212.589 140.596 208.56 144.349L206.602 142.431C211.134 138.187 217.209 135.516 223.92 135.305Z" fill="#F4F3F1"/>
<path d="M223.917 132.591V135.305C217.207 135.516 211.132 138.187 206.6 142.431L204.641 140.513C209.675 135.782 216.443 132.805 223.917 132.591Z" fill="#7099ED"/>
<path d="M223.915 129.879V132.591C216.441 132.805 209.673 135.782 204.639 140.513L202.68 138.596C208.215 133.376 215.675 130.093 223.915 129.879Z" fill="#F4F3F1"/>
<path d="M223.921 127.165V129.879C215.68 130.093 208.221 133.376 202.685 138.596L200.727 136.678C206.764 130.967 214.914 127.382 223.921 127.165Z" fill="#7099ED"/>
<path d="M223.917 124.314V127.165C214.909 127.382 206.759 130.967 200.722 136.678L198.664 134.663C205.229 128.438 214.108 124.534 223.917 124.314Z" fill="#F4F3F1"/>
<path d="M219.904 165.001C219.904 165.001 219.91 165.021 219.901 165.027L219.473 165.446C218.633 164.47 218.068 163.257 217.898 161.927H218.511C218.511 161.927 218.528 161.933 218.531 161.944C218.697 163.094 219.184 164.145 219.904 165.001Z" fill="#7099ED"/>
<path d="M219.566 157.552C219.566 157.552 219.575 157.569 219.569 157.578C219.032 158.343 218.668 159.233 218.531 160.195C218.528 160.206 218.519 160.215 218.511 160.215H217.898C218.041 159.073 218.479 158.02 219.131 157.127L219.566 157.552Z" fill="#7099ED"/>
<path d="M219.478 165.446L217.516 167.367C216.178 165.891 215.307 164.005 215.117 161.927H217.904C218.073 163.257 218.639 164.47 219.478 165.446Z" fill="#F4F3F1"/>
<path d="M217.158 155.189L219.137 157.127C218.484 158.02 218.047 159.073 217.904 160.215H215.117C215.289 158.328 216.024 156.596 217.158 155.189Z" fill="#F4F3F1"/>
<path d="M215.111 160.215H217.898C217.857 160.494 217.84 160.78 217.84 161.071C217.84 161.362 217.857 161.648 217.898 161.927H215.111C215.085 161.645 215.07 161.359 215.07 161.071C215.07 160.783 215.085 160.497 215.111 160.215Z" fill="#F4F3F1"/>
<path d="M217.513 167.367L215.551 169.288C213.718 167.316 212.534 164.753 212.336 161.927H215.114C215.303 164.005 216.175 165.891 217.513 167.367Z" fill="#7099ED"/>
<path d="M215.187 153.262L217.154 155.189C216.02 156.596 215.286 158.328 215.114 160.215H212.336C212.52 157.581 213.563 155.175 215.187 153.262Z" fill="#7099ED"/>
<path d="M215.553 169.288L213.594 171.206C211.259 168.74 209.767 165.5 209.562 161.927H212.338C212.536 164.753 213.719 167.316 215.553 169.288Z" fill="#F4F3F1"/>
<path d="M213.224 151.339L215.188 153.262C213.565 155.175 212.521 157.581 212.338 160.215H209.562C209.758 156.833 211.102 153.75 213.224 151.339Z" fill="#F4F3F1"/>
<path d="M212.337 160.215H215.115C215.089 160.497 215.074 160.783 215.074 161.071C215.074 161.359 215.089 161.645 215.115 161.927H212.337C212.316 161.645 212.305 161.359 212.305 161.071C212.305 160.783 212.316 160.497 212.337 160.215Z" fill="#F4F3F1"/>
<path d="M213.596 171.206L211.637 173.124C208.8 170.164 207.002 166.248 206.789 161.927H209.564C209.768 165.5 211.261 168.74 213.596 171.206Z" fill="#7099ED"/>
<path d="M211.264 149.418L213.225 151.339C211.103 153.75 209.759 156.833 209.564 160.215H206.789C206.99 156.085 208.643 152.326 211.264 149.418Z" fill="#7099ED"/>
<path d="M209.557 160.215H212.333C212.312 160.497 212.3 160.783 212.3 161.071C212.3 161.359 212.312 161.645 212.333 161.927H209.557C209.54 161.645 209.531 161.359 209.531 161.071C209.531 160.783 209.54 160.497 209.557 160.215Z" fill="#F4F3F1"/>
<path d="M211.635 173.124L209.674 175.044C206.342 171.591 204.231 166.999 204.016 161.927H206.788C207.001 166.248 208.799 170.164 211.635 173.124Z" fill="#F4F3F1"/>
<path d="M209.301 147.494L211.262 149.418C208.642 152.326 206.989 156.085 206.788 160.215H204.016C204.223 155.334 206.184 150.899 209.301 147.494Z" fill="#F4F3F1"/>
<path d="M210.376 219.578H199.422V226.999H210.376V219.578Z" fill="#FF8B63"/>
<path d="M209.674 175.044L207.715 176.962C203.882 173.018 201.463 167.749 201.25 161.927H204.016C204.232 166.999 206.342 171.591 209.674 175.044Z" fill="#7099ED"/>
<path d="M206.786 160.215H209.561C209.544 160.497 209.535 160.783 209.535 161.071C209.535 161.359 209.544 161.645 209.561 161.927H206.786C206.771 161.645 206.766 161.359 206.766 161.071C206.766 160.783 206.771 160.497 206.786 160.215Z" fill="#F4F3F1"/>
<path d="M207.339 145.574L209.301 147.494C206.185 150.899 204.223 155.334 204.016 160.215H201.25C201.454 154.587 203.725 149.472 207.339 145.574Z" fill="#7099ED"/>
<path d="M207.714 176.962L205.755 178.88C201.421 174.442 198.692 168.497 198.477 161.927H201.249C201.462 167.749 203.881 173.018 207.714 176.962Z" fill="#F4F3F1"/>
<path d="M205.376 143.656L207.338 145.574C203.724 149.472 201.453 154.587 201.249 160.215H198.477C198.686 153.839 201.263 148.048 205.376 143.656Z" fill="#F4F3F1"/>
<path d="M204.017 160.215H206.79C206.775 160.497 206.769 160.783 206.769 161.071C206.769 161.359 206.775 161.645 206.79 161.927H204.017C204.006 161.645 204 161.359 204 161.071C204 160.783 204.006 160.497 204.017 160.215Z" fill="#F4F3F1"/>
<path d="M205.754 178.88L203.795 180.798C198.962 175.869 195.922 169.242 195.703 161.927H198.475C198.691 168.497 201.419 174.442 205.754 178.88Z" fill="#7099ED"/>
<path d="M203.416 141.738L205.375 143.656C201.262 148.048 198.685 153.839 198.475 160.215H195.703C195.916 153.091 198.805 146.621 203.416 141.738Z" fill="#7099ED"/>
<path d="M201.247 160.215H204.013C204.002 160.497 203.996 160.783 203.996 161.071C203.996 161.359 204.002 161.645 204.013 161.927H201.247C201.232 161.642 201.227 161.356 201.227 161.071C201.227 160.786 201.232 160.5 201.247 160.215Z" fill="#F4F3F1"/>
<path d="M203.799 180.798L201.84 182.716C196.505 177.296 193.156 169.993 192.938 161.927H195.707C195.925 169.242 198.966 175.869 203.799 180.798Z" fill="#F4F3F1"/>
<path d="M201.461 139.817L203.42 141.738C198.808 146.621 195.92 153.091 195.707 160.215H192.938C193.15 152.341 196.348 145.194 201.461 139.817Z" fill="#F4F3F1"/>
<path d="M201.839 182.716L199.88 184.634C194.044 178.723 190.386 170.743 190.164 161.927H192.936C193.155 169.993 196.504 177.296 201.839 182.716Z" fill="#7099ED"/>
<path d="M199.501 137.899L201.46 139.817C196.347 145.194 193.149 152.341 192.936 160.215H190.164C190.38 151.593 193.884 143.77 199.501 137.899Z" fill="#7099ED"/>
<path d="M198.478 160.215H201.251C201.236 160.5 201.23 160.786 201.23 161.071C201.23 161.356 201.236 161.642 201.251 161.927H198.478C198.467 161.645 198.461 161.356 198.461 161.071C198.461 160.786 198.467 160.497 198.478 160.215Z" fill="#F4F3F1"/>
<path d="M199.878 184.634L197.82 186.649C191.462 180.221 187.474 171.531 187.25 161.927H190.162C190.384 170.743 194.042 178.723 199.878 184.634Z" fill="#F4F3F1"/>
<path d="M197.438 135.884L199.499 137.899C193.882 143.77 190.378 151.593 190.162 160.215H187.25C187.472 150.805 191.302 142.269 197.438 135.884Z" fill="#F4F3F1"/>
<path d="M195.702 160.215H198.474C198.463 160.497 198.457 160.786 198.457 161.071C198.457 161.356 198.463 161.645 198.474 161.927H195.702C195.69 161.642 195.688 161.356 195.688 161.071C195.688 160.786 195.688 160.5 195.702 160.215Z" fill="#F4F3F1"/>
<path d="M197.354 131.76C197.354 132.234 197.246 132.685 197.054 133.087L195.885 131.943C195.894 131.883 195.897 131.823 195.897 131.76C195.897 131.301 195.716 130.87 195.384 130.544C195.051 130.219 194.611 130.042 194.142 130.042C193.174 130.042 192.387 130.813 192.387 131.76C192.387 132.22 192.571 132.651 192.9 132.976C193.233 133.299 193.673 133.478 194.142 133.478C194.384 133.478 194.62 133.43 194.836 133.336L195.908 134.386C195.401 134.714 194.795 134.905 194.142 134.905C192.367 134.905 190.93 133.495 190.93 131.76C190.93 130.025 192.367 128.615 194.142 128.615C195.917 128.615 197.354 130.022 197.354 131.76Z" fill="#F4F3F1"/>
<path d="M195.9 131.76C195.9 131.823 195.9 131.883 195.889 131.943C195.851 132.334 195.676 132.693 195.387 132.976C195.227 133.133 195.04 133.256 194.839 133.336C194.624 133.43 194.387 133.478 194.145 133.478C193.676 133.478 193.236 133.299 192.904 132.976C192.574 132.651 192.391 132.22 192.391 131.76C192.391 130.813 193.178 130.042 194.145 130.042C194.615 130.042 195.055 130.219 195.387 130.544C195.72 130.87 195.9 131.301 195.9 131.76Z" fill="#F4F3F1"/>
<path d="M195.756 190.564C195.952 190.844 196.057 191.178 196.057 191.523C196.057 191.983 195.873 192.414 195.543 192.739C195.211 193.065 194.771 193.244 194.302 193.244C193.334 193.244 192.547 192.474 192.547 191.523C192.547 191.067 192.728 190.633 193.06 190.31C193.392 189.985 193.832 189.805 194.302 189.805C194.582 189.805 194.85 189.868 195.092 189.991C195.132 190.113 195.202 190.228 195.302 190.328C195.43 190.453 195.59 190.533 195.756 190.564Z" fill="#F4F3F1"/>
<path d="M192.936 160.215H195.706C195.694 160.5 195.691 160.786 195.691 161.071C195.691 161.356 195.691 161.642 195.706 161.927H192.936C192.925 161.642 192.922 161.356 192.922 161.071C192.922 160.786 192.922 160.497 192.936 160.215Z" fill="#F4F3F1"/>
<path d="M195.538 190.31C195.616 190.387 195.689 190.473 195.751 190.564C195.584 190.533 195.424 190.453 195.296 190.328C195.197 190.228 195.127 190.114 195.086 189.991C195.249 190.071 195.404 190.179 195.538 190.31Z" fill="#F4F3F1"/>
<path d="M190.16 160.215H192.932C192.921 160.497 192.918 160.786 192.918 161.071C192.918 161.356 192.918 161.642 192.932 161.927H190.16C190.151 161.642 190.148 161.356 190.148 161.071C190.148 160.786 190.148 160.5 190.16 160.215Z" fill="#F4F3F1"/>
<path d="M187.251 160.215H190.163C190.154 160.5 190.151 160.786 190.151 161.071C190.151 161.356 190.151 161.642 190.163 161.927H187.251C187.245 161.642 187.242 161.356 187.242 161.071C187.242 160.786 187.245 160.5 187.251 160.215Z" fill="#F4F3F1"/>
<path d="M187.25 160.215C187.244 160.5 187.241 160.786 187.241 161.071C187.241 161.356 187.244 161.642 187.25 161.927H187.241C186.707 161.927 186.285 161.456 186.381 160.917C186.454 160.514 186.833 160.232 187.25 160.215Z" fill="#F4F3F1"/>
<path d="M316.328 219.578C318.366 219.578 320.019 217.963 320.019 215.968V105.997C320.019 104.002 318.366 102.384 316.328 102.384" stroke="#231F20" stroke-width="0.6" stroke-miterlimit="10" stroke-linecap="round"/>
<path d="M224.078 102.384H180.026C177.986 102.384 176.336 104.002 176.336 105.997V215.968C176.336 217.963 177.986 219.578 180.026 219.578H224.078" stroke="#231F20" stroke-width="0.6" stroke-miterlimit="10" stroke-linecap="round"/>
<path d="M360.383 219.578C362.42 219.578 364.073 217.963 364.073 215.968V180.664" stroke="#231F20" stroke-width="0.6" stroke-miterlimit="10" stroke-linecap="round"/>
<path d="M224.078 219.578H273.202H284.159" stroke="#231F20" stroke-width="0.6" stroke-miterlimit="10" stroke-linecap="round"/>
<path d="M224.078 102.384H360.383C362.421 102.384 364.074 104.002 364.074 105.997V162.729" stroke="#231F20" stroke-width="0.6" stroke-miterlimit="10" stroke-linecap="round"/>
<path d="M364.07 176.1V167.333" stroke="#231F20" stroke-width="0.6" stroke-miterlimit="10" stroke-linecap="round"/>
<path d="M310.798 213.26H277.357C275.063 213.26 273.203 211.442 273.203 209.195V115.03C273.203 112.784 275.063 110.963 277.357 110.963H310.798C313.092 110.963 314.949 112.784 314.949 115.03V209.195C314.949 211.442 313.092 213.26 310.798 213.26Z" stroke="#231F20" stroke-width="0.6" stroke-miterlimit="10" stroke-linecap="round"/>
<path d="M311.144 211.225H277.01C276.246 211.225 275.625 210.617 275.625 209.869V120.221C275.625 119.474 276.246 118.869 277.01 118.869H311.144C311.908 118.869 312.529 119.474 312.529 120.221V209.869C312.529 210.617 311.908 211.225 311.144 211.225Z" stroke="#231F20" stroke-width="0.6" stroke-miterlimit="10" stroke-linecap="round"/>
<path d="M308.296 156.878H279.851C279.298 156.878 278.852 156.442 278.852 155.9C278.852 155.631 278.962 155.386 279.143 155.209C279.324 155.032 279.574 154.923 279.851 154.923H308.296C308.847 154.923 309.296 155.36 309.296 155.9C309.296 156.171 309.185 156.416 309.001 156.593C308.821 156.77 308.573 156.878 308.296 156.878Z" stroke="#231F20" stroke-width="0.6" stroke-miterlimit="10" stroke-linecap="round"/>
<path d="M308.296 168.169H279.851C279.298 168.169 278.852 167.732 278.852 167.19C278.852 166.922 278.962 166.676 279.143 166.499C279.324 166.322 279.574 166.214 279.851 166.214H308.296C308.847 166.214 309.296 166.651 309.296 167.19C309.296 167.461 309.185 167.707 309.001 167.884C308.821 168.06 308.573 168.169 308.296 168.169Z" stroke="#231F20" stroke-width="0.6" stroke-miterlimit="10" stroke-linecap="round"/>
<path d="M308.296 179.459H279.851C279.298 179.459 278.852 179.023 278.852 178.48C278.852 178.212 278.962 177.967 279.143 177.79C279.324 177.613 279.574 177.504 279.851 177.504H308.296C308.847 177.504 309.296 177.941 309.296 178.48C309.296 178.752 309.185 178.997 309.001 179.174C308.821 179.351 308.573 179.459 308.296 179.459Z" stroke="#231F20" stroke-width="0.6" stroke-miterlimit="10" stroke-linecap="round"/>
<path d="M308.296 190.75H279.851C279.298 190.75 278.852 190.313 278.852 189.774C278.852 189.503 278.962 189.257 279.143 189.08C279.324 188.903 279.574 188.795 279.851 188.795H308.296C308.847 188.795 309.296 189.232 309.296 189.774C309.296 190.045 309.185 190.288 309.001 190.465C308.821 190.641 308.573 190.75 308.296 190.75Z" stroke="#231F20" stroke-width="0.6" stroke-miterlimit="10" stroke-linecap="round"/>
<path d="M308.296 202.04H279.851C279.298 202.04 278.852 201.604 278.852 201.064C278.852 200.793 278.962 200.548 279.143 200.371C279.324 200.194 279.574 200.085 279.851 200.085H308.296C308.847 200.085 309.296 200.522 309.296 201.064C309.296 201.336 309.185 201.578 309.001 201.755C308.821 201.932 308.573 202.04 308.296 202.04Z" stroke="#231F20" stroke-width="0.6" stroke-miterlimit="10" stroke-linecap="round"/>
<path d="M176.336 107.35H320.022H364.073" stroke="#231F20" stroke-width="0.6" stroke-miterlimit="10" stroke-linecap="round"/>
<path d="M263.465 117.008H186.124C182.62 117.008 179.781 119.79 179.781 123.218V198.941C179.781 202.372 182.62 205.151 186.124 205.151H263.465C266.969 205.151 269.808 202.372 269.808 198.941V123.218C269.808 119.79 266.969 117.008 263.465 117.008Z" stroke="#231F20" stroke-width="0.6" stroke-miterlimit="10" stroke-linecap="round"/>
<path d="M225.664 124.314C235.473 124.534 244.352 128.435 250.917 134.663" stroke="#231F20" stroke-width="0.6" stroke-miterlimit="10" stroke-linecap="round"/>
<path d="M198.664 134.663C205.229 128.438 214.108 124.534 223.917 124.314" stroke="#231F20" stroke-width="0.6" stroke-miterlimit="10" stroke-linecap="round"/>
<path d="M187.25 160.215C187.472 150.805 191.302 142.269 197.438 135.884" stroke="#231F20" stroke-width="0.6" stroke-miterlimit="10" stroke-linecap="round"/>
<path d="M197.82 186.649C191.462 180.221 187.474 171.531 187.25 161.927" stroke="#231F20" stroke-width="0.6" stroke-miterlimit="10" stroke-linecap="round"/>
<path d="M223.921 197.825C214.31 197.608 205.591 193.858 199.07 187.85" stroke="#231F20" stroke-width="0.6" stroke-miterlimit="10" stroke-linecap="round"/>
<path d="M250.514 187.85C243.994 193.858 235.275 197.608 225.664 197.825" stroke="#231F20" stroke-width="0.6" stroke-miterlimit="10" stroke-linecap="round"/>
<path d="M262.328 161.927C262.103 171.531 258.115 180.221 251.758 186.649" stroke="#231F20" stroke-width="0.6" stroke-miterlimit="10" stroke-linecap="round"/>
<path d="M252.148 135.884C258.282 142.269 262.112 150.805 262.333 160.215" stroke="#231F20" stroke-width="0.6" stroke-miterlimit="10" stroke-linecap="round"/>
<path d="M225.664 127.165C234.668 127.382 242.819 130.964 248.856 136.678" stroke="#231F20" stroke-width="0.6" stroke-miterlimit="10" stroke-linecap="round"/>
<path d="M200.727 136.678C206.764 130.967 214.914 127.382 223.921 127.165" stroke="#231F20" stroke-width="0.6" stroke-miterlimit="10" stroke-linecap="round"/>
<path d="M190.164 160.215C190.38 151.593 193.884 143.77 199.501 137.899" stroke="#231F20" stroke-width="0.6" stroke-miterlimit="10" stroke-linecap="round"/>
<path d="M199.88 184.634C194.044 178.723 190.386 170.743 190.164 161.927" stroke="#231F20" stroke-width="0.6" stroke-miterlimit="10" stroke-linecap="round"/>
<path d="M223.917 194.974C215.111 194.763 207.121 191.329 201.125 185.835" stroke="#231F20" stroke-width="0.6" stroke-miterlimit="10" stroke-linecap="round"/>
<path d="M248.456 185.835C242.46 191.329 234.47 194.763 225.664 194.974" stroke="#231F20" stroke-width="0.6" stroke-miterlimit="10" stroke-linecap="round"/>
<path d="M259.422 161.927C259.2 170.743 255.542 178.723 249.703 184.634" stroke="#231F20" stroke-width="0.6" stroke-miterlimit="10" stroke-linecap="round"/>
<path d="M250.086 137.899C255.7 143.77 259.204 151.593 259.42 160.215" stroke="#231F20" stroke-width="0.6" stroke-miterlimit="10" stroke-linecap="round"/>
<path d="M225.664 129.879C233.902 130.093 241.361 133.373 246.897 138.596" stroke="#231F20" stroke-width="0.6" stroke-miterlimit="10" stroke-linecap="round"/>
<path d="M202.68 138.596C208.215 133.376 215.675 130.093 223.915 129.879" stroke="#231F20" stroke-width="0.6" stroke-miterlimit="10" stroke-linecap="round"/>
<path d="M192.938 160.215C193.15 152.341 196.348 145.194 201.461 139.817" stroke="#231F20" stroke-width="0.6" stroke-miterlimit="10" stroke-linecap="round"/>
<path d="M201.84 182.716C196.505 177.296 193.156 169.993 192.938 161.927" stroke="#231F20" stroke-width="0.6" stroke-miterlimit="10" stroke-linecap="round"/>
<path d="M223.916 192.26C215.877 192.051 208.578 188.921 203.086 183.915" stroke="#231F20" stroke-width="0.6" stroke-miterlimit="10" stroke-linecap="round"/>
<path d="M246.495 183.915C241.003 188.921 233.704 192.051 225.664 192.26" stroke="#231F20" stroke-width="0.6" stroke-miterlimit="10" stroke-linecap="round"/>
<path d="M256.647 161.927C256.429 169.993 253.08 177.296 247.742 182.716" stroke="#231F20" stroke-width="0.6" stroke-miterlimit="10" stroke-linecap="round"/>
<path d="M248.125 139.82C253.241 145.197 256.436 152.341 256.648 160.215" stroke="#231F20" stroke-width="0.6" stroke-miterlimit="10" stroke-linecap="round"/>
<path d="M225.664 132.591C233.135 132.805 239.904 135.782 244.938 140.513" stroke="#231F20" stroke-width="0.6" stroke-miterlimit="10" stroke-linecap="round"/>
<path d="M204.641 140.513C209.675 135.782 216.443 132.805 223.917 132.591" stroke="#231F20" stroke-width="0.6" stroke-miterlimit="10" stroke-linecap="round"/>
<path d="M195.703 160.215C195.916 153.091 198.805 146.621 203.416 141.738" stroke="#231F20" stroke-width="0.6" stroke-miterlimit="10" stroke-linecap="round"/>
<path d="M203.795 180.798C198.962 175.869 195.922 169.242 195.703 161.927" stroke="#231F20" stroke-width="0.6" stroke-miterlimit="10" stroke-linecap="round"/>
<path d="M223.919 189.548C216.643 189.34 210.034 186.515 205.047 181.997" stroke="#231F20" stroke-width="0.6" stroke-miterlimit="10" stroke-linecap="round"/>
<path d="M244.536 181.997C239.548 186.515 232.94 189.34 225.664 189.548" stroke="#231F20" stroke-width="0.6" stroke-miterlimit="10" stroke-linecap="round"/>
<path d="M253.884 161.927C253.665 169.242 250.625 175.869 245.789 180.798" stroke="#231F20" stroke-width="0.6" stroke-miterlimit="10" stroke-linecap="round"/>
<path d="M246.164 141.738C250.776 146.621 253.664 153.091 253.877 160.215" stroke="#231F20" stroke-width="0.6" stroke-miterlimit="10" stroke-linecap="round"/>
<path d="M225.664 135.305C232.374 135.516 238.446 138.187 242.982 142.431" stroke="#231F20" stroke-width="0.6" stroke-miterlimit="10" stroke-linecap="round"/>
<path d="M206.602 142.431C211.134 138.187 217.209 135.516 223.92 135.305" stroke="#231F20" stroke-width="0.6" stroke-miterlimit="10" stroke-linecap="round"/>
<path d="M198.477 160.215C198.686 153.839 201.263 148.048 205.376 143.656" stroke="#231F20" stroke-width="0.6" stroke-miterlimit="10" stroke-linecap="round"/>
<path d="M205.755 178.88C201.421 174.442 198.692 168.497 198.477 161.927" stroke="#231F20" stroke-width="0.6" stroke-miterlimit="10" stroke-linecap="round"/>
<path d="M223.921 186.834C217.409 186.629 211.494 184.106 207.008 180.079" stroke="#231F20" stroke-width="0.6" stroke-miterlimit="10" stroke-linecap="round"/>
<path d="M242.577 180.079C238.091 184.106 232.176 186.629 225.664 186.834" stroke="#231F20" stroke-width="0.6" stroke-miterlimit="10" stroke-linecap="round"/>
<path d="M251.107 161.927C250.891 168.497 248.16 174.442 243.828 178.88" stroke="#231F20" stroke-width="0.6" stroke-miterlimit="10" stroke-linecap="round"/>
<path d="M244.211 143.656C248.321 148.048 250.901 153.839 251.111 160.215" stroke="#231F20" stroke-width="0.6" stroke-miterlimit="10" stroke-linecap="round"/>
<path d="M225.664 138.019C231.611 138.227 236.995 140.596 241.023 144.349" stroke="#231F20" stroke-width="0.6" stroke-miterlimit="10" stroke-linecap="round"/>
<path d="M208.555 144.349C212.583 140.596 217.967 138.227 223.914 138.019" stroke="#231F20" stroke-width="0.6" stroke-miterlimit="10" stroke-linecap="round"/>
<path d="M201.25 160.215C201.454 154.587 203.725 149.472 207.339 145.574" stroke="#231F20" stroke-width="0.6" stroke-miterlimit="10" stroke-linecap="round"/>
<path d="M207.715 176.962C203.882 173.018 201.463 167.749 201.25 161.927" stroke="#231F20" stroke-width="0.6" stroke-miterlimit="10" stroke-linecap="round"/>
<path d="M223.915 184.12C218.166 183.92 212.943 181.697 208.961 178.161" stroke="#231F20" stroke-width="0.6" stroke-miterlimit="10" stroke-linecap="round"/>
<path d="M240.618 178.161C236.636 181.697 231.412 183.92 225.664 184.12" stroke="#231F20" stroke-width="0.6" stroke-miterlimit="10" stroke-linecap="round"/>
<path d="M248.333 161.927C248.12 167.749 245.7 173.018 241.867 176.962" stroke="#231F20" stroke-width="0.6" stroke-miterlimit="10" stroke-linecap="round"/>
<path d="M242.25 145.574C245.862 149.472 248.132 154.587 248.337 160.215" stroke="#231F20" stroke-width="0.6" stroke-miterlimit="10" stroke-linecap="round"/>
<path d="M225.664 140.728C230.847 140.939 235.537 143.005 239.064 146.267" stroke="#231F20" stroke-width="0.6" stroke-miterlimit="10" stroke-linecap="round"/>
<path d="M210.516 146.267C214.043 143.005 218.733 140.939 223.916 140.728" stroke="#231F20" stroke-width="0.6" stroke-miterlimit="10" stroke-linecap="round"/>
<path d="M204.016 160.215C204.223 155.334 206.184 150.899 209.301 147.494" stroke="#231F20" stroke-width="0.6" stroke-miterlimit="10" stroke-linecap="round"/>
<path d="M209.674 175.044C206.342 171.591 204.231 166.999 204.016 161.927" stroke="#231F20" stroke-width="0.6" stroke-miterlimit="10" stroke-linecap="round"/>
<path d="M223.919 181.412C218.934 181.209 214.407 179.288 210.93 176.237" stroke="#231F20" stroke-width="0.6" stroke-miterlimit="10" stroke-linecap="round"/>
<path d="M238.653 176.237C235.176 179.288 230.649 181.209 225.664 181.412" stroke="#231F20" stroke-width="0.6" stroke-miterlimit="10" stroke-linecap="round"/>
<path d="M245.572 161.927C245.356 166.999 243.246 171.591 239.914 175.044" stroke="#231F20" stroke-width="0.6" stroke-miterlimit="10" stroke-linecap="round"/>
<path d="M240.281 147.497C243.397 150.902 245.359 155.334 245.566 160.215" stroke="#231F20" stroke-width="0.6" stroke-miterlimit="10" stroke-linecap="round"/>
<path d="M225.664 143.442C230.08 143.65 234.08 145.411 237.103 148.185" stroke="#231F20" stroke-width="0.6" stroke-miterlimit="10" stroke-linecap="round"/>
<path d="M212.477 148.188C215.499 145.411 219.499 143.65 223.915 143.442" stroke="#231F20" stroke-width="0.6" stroke-miterlimit="10" stroke-linecap="round"/>
<path d="M206.789 160.215C206.99 156.085 208.643 152.326 211.264 149.418" stroke="#231F20" stroke-width="0.6" stroke-miterlimit="10" stroke-linecap="round"/>
<path d="M211.637 173.124C208.8 170.164 207.002 166.248 206.789 161.927" stroke="#231F20" stroke-width="0.6" stroke-miterlimit="10" stroke-linecap="round"/>
<path d="M223.918 178.697C219.7 178.5 215.861 176.879 212.891 174.316" stroke="#231F20" stroke-width="0.6" stroke-miterlimit="10" stroke-linecap="round"/>
<path d="M236.691 174.316C233.721 176.879 229.882 178.5 225.664 178.697" stroke="#231F20" stroke-width="0.6" stroke-miterlimit="10" stroke-linecap="round"/>
<path d="M242.801 161.927C242.588 166.248 240.786 170.167 237.953 173.126" stroke="#231F20" stroke-width="0.6" stroke-miterlimit="10" stroke-linecap="round"/>
<path d="M238.32 149.418C240.941 152.326 242.594 156.085 242.795 160.215" stroke="#231F20" stroke-width="0.6" stroke-miterlimit="10" stroke-linecap="round"/>
<path d="M225.664 146.159C229.314 146.359 232.625 147.82 235.144 150.106" stroke="#231F20" stroke-width="0.6" stroke-miterlimit="10" stroke-linecap="round"/>
<path d="M214.438 150.106C216.956 147.82 220.267 146.359 223.917 146.159" stroke="#231F20" stroke-width="0.6" stroke-miterlimit="10" stroke-linecap="round"/>
<path d="M209.562 160.215C209.758 156.833 211.102 153.75 213.224 151.339" stroke="#231F20" stroke-width="0.6" stroke-miterlimit="10" stroke-linecap="round"/>
<path d="M213.594 171.206C211.259 168.74 209.767 165.5 209.562 161.927" stroke="#231F20" stroke-width="0.6" stroke-miterlimit="10" stroke-linecap="round"/>
<path d="M223.917 175.98C220.463 175.789 217.315 174.473 214.852 172.396" stroke="#231F20" stroke-width="0.6" stroke-miterlimit="10" stroke-linecap="round"/>
<path d="M234.73 172.396C232.267 174.473 229.118 175.789 225.664 175.98" stroke="#231F20" stroke-width="0.6" stroke-miterlimit="10" stroke-linecap="round"/>
<path d="M240.024 161.927C239.82 165.5 238.327 168.74 235.992 171.206" stroke="#231F20" stroke-width="0.6" stroke-miterlimit="10" stroke-linecap="round"/>
<path d="M236.359 151.339C238.481 153.75 239.825 156.833 240.021 160.215" stroke="#231F20" stroke-width="0.6" stroke-miterlimit="10" stroke-linecap="round"/>
<path d="M225.664 148.876C228.55 149.07 231.168 150.229 233.182 152.024" stroke="#231F20" stroke-width="0.6" stroke-miterlimit="10" stroke-linecap="round"/>
<path d="M216.398 152.024C218.413 150.229 221.03 149.07 223.919 148.876" stroke="#231F20" stroke-width="0.6" stroke-miterlimit="10" stroke-linecap="round"/>
<path d="M212.336 160.215C212.52 157.581 213.563 155.175 215.187 153.262" stroke="#231F20" stroke-width="0.6" stroke-miterlimit="10" stroke-linecap="round"/>
<path d="M215.551 169.288C213.718 167.316 212.534 164.753 212.336 161.927" stroke="#231F20" stroke-width="0.6" stroke-miterlimit="10" stroke-linecap="round"/>
<path d="M223.921 173.263C221.231 173.084 218.773 172.065 216.82 170.472" stroke="#231F20" stroke-width="0.6" stroke-miterlimit="10" stroke-linecap="round"/>
<path d="M232.765 170.472C230.812 172.065 228.355 173.084 225.664 173.263" stroke="#231F20" stroke-width="0.6" stroke-miterlimit="10" stroke-linecap="round"/>
<path d="M237.246 161.927C237.048 164.753 235.865 167.316 234.031 169.288" stroke="#231F20" stroke-width="0.6" stroke-miterlimit="10" stroke-linecap="round"/>
<path d="M234.398 153.262C236.022 155.175 237.066 157.581 237.249 160.215" stroke="#231F20" stroke-width="0.6" stroke-miterlimit="10" stroke-linecap="round"/>
<path d="M225.664 151.596C227.786 151.781 229.713 152.637 231.223 153.945" stroke="#231F20" stroke-width="0.6" stroke-miterlimit="10" stroke-linecap="round"/>
<path d="M218.359 153.945C219.869 152.637 221.796 151.781 223.918 151.596" stroke="#231F20" stroke-width="0.6" stroke-miterlimit="10" stroke-linecap="round"/>
<path d="M215.117 160.215C215.289 158.328 216.024 156.596 217.158 155.189" stroke="#231F20" stroke-width="0.6" stroke-miterlimit="10" stroke-linecap="round"/>
<path d="M217.516 167.367C216.178 165.891 215.307 164.005 215.117 161.927" stroke="#231F20" stroke-width="0.6" stroke-miterlimit="10" stroke-linecap="round"/>
<path d="M223.915 170.543C221.988 170.378 220.221 169.656 218.781 168.546" stroke="#231F20" stroke-width="0.6" stroke-miterlimit="10" stroke-linecap="round"/>
<path d="M230.797 168.546C229.357 169.656 227.591 170.378 225.664 170.543" stroke="#231F20" stroke-width="0.6" stroke-miterlimit="10" stroke-linecap="round"/>
<path d="M234.469 161.927C234.28 164.005 233.408 165.891 232.07 167.367" stroke="#231F20" stroke-width="0.6" stroke-miterlimit="10" stroke-linecap="round"/>
<path d="M232.43 155.189C233.564 156.596 234.298 158.328 234.47 160.215" stroke="#231F20" stroke-width="0.6" stroke-miterlimit="10" stroke-linecap="round"/>
<path d="M217.898 160.215C218.041 159.073 218.479 158.02 219.131 157.127" stroke="#231F20" stroke-width="0.6" stroke-miterlimit="10" stroke-linecap="round"/>
<path d="M219.473 165.446C218.633 164.47 218.068 163.257 217.898 161.927" stroke="#231F20" stroke-width="0.6" stroke-miterlimit="10" stroke-linecap="round"/>
<path d="M220.32 155.865C221.32 155.04 222.559 154.49 223.917 154.321" stroke="#231F20" stroke-width="0.6" stroke-miterlimit="10" stroke-linecap="round"/>
<path d="M223.92 167.818C222.754 167.675 221.678 167.247 220.766 166.608" stroke="#231F20" stroke-width="0.6" stroke-miterlimit="10" stroke-linecap="round"/>
<path d="M228.818 166.608C227.906 167.247 226.83 167.675 225.664 167.818" stroke="#231F20" stroke-width="0.6" stroke-miterlimit="10" stroke-linecap="round"/>
<path d="M225.664 154.321C227.022 154.49 228.261 155.04 229.261 155.865" stroke="#231F20" stroke-width="0.6" stroke-miterlimit="10" stroke-linecap="round"/>
<path d="M231.683 161.927C231.514 163.257 230.949 164.47 230.109 165.446" stroke="#231F20" stroke-width="0.6" stroke-miterlimit="10" stroke-linecap="round"/>
<path d="M230.453 157.127C231.106 158.02 231.543 159.073 231.686 160.215" stroke="#231F20" stroke-width="0.6" stroke-miterlimit="10" stroke-linecap="round"/>
<path d="M217.901 161.927H187.241C186.707 161.927 186.285 161.456 186.381 160.917C186.454 160.514 186.833 160.232 187.25 160.215H217.901" stroke="#231F20" stroke-width="0.6" stroke-miterlimit="10"/>
<path d="M262.328 160.215C262.748 160.232 263.127 160.514 263.2 160.917C263.296 161.456 262.873 161.927 262.337 161.927H262.328" stroke="#231F20" stroke-width="0.6" stroke-miterlimit="10"/>
<path d="M195.908 134.386C195.401 134.714 194.795 134.905 194.142 134.905C192.367 134.905 190.93 133.495 190.93 131.76C190.93 130.025 192.367 128.615 194.142 128.615C195.917 128.615 197.354 130.022 197.354 131.76C197.354 132.234 197.246 132.685 197.054 133.087" stroke="#231F20" stroke-width="0.6" stroke-miterlimit="10"/>
<path d="M194.839 133.336C194.624 133.43 194.387 133.478 194.145 133.478C193.676 133.478 193.236 133.299 192.904 132.976C192.574 132.651 192.391 132.22 192.391 131.76C192.391 130.813 193.178 130.042 194.145 130.042C194.615 130.042 195.055 130.219 195.387 130.544C195.72 130.87 195.9 131.301 195.9 131.76C195.9 131.823 195.9 131.883 195.889 131.943" stroke="#231F20" stroke-width="0.6" stroke-miterlimit="10"/>
<path d="M252.409 133.199L250.913 134.663L248.855 136.678L246.896 138.596L244.938 140.513L242.982 142.431L241.023 144.349L239.064 146.267L237.102 148.185L235.143 150.106L233.181 152.024L231.222 153.945L229.261 155.865L228.832 156.285C228.832 156.285 228.812 156.293 228.803 156.288C227.929 155.583 226.856 155.103 225.681 154.941C225.672 154.941 225.664 154.932 225.664 154.921V124.374C225.664 124.354 225.664 124.334 225.664 124.314C225.64 123.915 225.355 123.552 224.949 123.484C224.398 123.389 223.923 123.798 223.918 124.314V154.921C223.918 154.921 223.909 154.941 223.9 154.941C222.725 155.103 221.653 155.583 220.778 156.285C220.769 156.293 220.758 156.293 220.749 156.285L220.32 155.865L218.359 153.945L216.397 152.024L214.438 150.106L212.479 148.188L210.517 146.267L208.558 144.349L206.6 142.431L204.641 140.513L202.682 138.596L200.723 136.678L198.665 134.663L197.056 133.087L195.887 131.943C195.849 132.334 195.674 132.693 195.386 132.976C195.225 133.133 195.039 133.256 194.838 133.336L195.91 134.386L197.438 135.884L199.499 137.899L201.457 139.817L203.416 141.738L205.375 143.656L207.337 145.574L209.299 147.494L211.261 149.418L213.222 151.339L215.187 153.262L217.155 155.189L219.134 157.127L219.568 157.552C219.568 157.552 219.577 157.569 219.571 157.578C219.035 158.343 218.671 159.233 218.534 160.195C218.531 160.206 218.522 160.215 218.513 160.215H217.901C217.86 160.494 217.843 160.78 217.843 161.071C217.843 161.362 217.86 161.648 217.901 161.927H218.513C218.513 161.927 218.531 161.933 218.534 161.944C218.7 163.095 219.186 164.145 219.906 165.001C219.912 165.01 219.912 165.021 219.904 165.027L219.475 165.446L217.513 167.367L215.551 169.288L213.593 171.206L211.634 173.124L209.672 175.044L207.713 176.962L205.754 178.88L203.795 180.798L201.836 182.716L199.878 184.634L197.82 186.649L195.721 188.704C195.292 188.495 194.811 188.378 194.298 188.378C192.523 188.378 191.086 189.788 191.086 191.523C191.086 193.259 192.523 194.671 194.298 194.671C196.073 194.671 197.511 193.261 197.511 191.523C197.511 190.91 197.333 190.336 197.021 189.854L199.067 187.85L201.125 185.835L203.087 183.915L205.046 181.997L207.005 180.079L208.964 178.161L210.928 176.237L212.89 174.317L214.852 172.396L216.817 170.472L218.784 168.546L220.763 166.608L221.198 166.183C221.198 166.183 221.215 166.174 221.224 166.18C222.008 166.705 222.918 167.062 223.9 167.199C223.909 167.199 223.918 167.207 223.918 167.219V197.825C223.935 198.236 224.224 198.607 224.635 198.676C225.188 198.77 225.667 198.356 225.667 197.834V167.219C225.667 167.219 225.675 167.199 225.684 167.199C226.666 167.062 227.576 166.705 228.36 166.18C228.369 166.174 228.38 166.177 228.386 166.183L228.821 166.608L230.8 168.546L232.767 170.472L234.732 172.396L236.694 174.317L238.656 176.237L240.62 178.161L242.579 180.079L244.538 181.997L246.497 183.915L248.459 185.835L250.517 187.85L252.54 189.831C252.275 190.285 252.126 190.813 252.126 191.375C252.126 193.11 253.566 194.52 255.338 194.52C257.111 194.52 258.553 193.11 258.553 191.375C258.553 189.64 257.113 188.23 255.338 188.23C254.773 188.23 254.242 188.373 253.779 188.624L251.762 186.649L249.704 184.634L247.745 182.716L245.786 180.798L243.83 178.88L241.871 176.962L239.912 175.044L237.95 173.126L235.991 171.206L234.033 169.288L232.071 167.367L230.109 165.446L229.68 165.027C229.68 165.027 229.672 165.01 229.678 165.001C230.398 164.145 230.884 163.095 231.051 161.944C231.053 161.933 231.062 161.927 231.071 161.927H262.331C262.337 161.642 262.34 161.356 262.34 161.071C262.34 160.786 262.337 160.5 262.331 160.215H231.071C231.071 160.215 231.053 160.206 231.051 160.195C230.914 159.233 230.549 158.343 230.013 157.578C230.007 157.569 230.007 157.558 230.013 157.552L230.447 157.127L232.426 155.189L234.394 153.262L236.359 151.339L238.32 149.418L240.282 147.497L242.247 145.574L244.206 143.656L246.165 141.738L248.124 139.82L250.085 137.899L252.143 135.884L253.674 134.386" stroke="#231F20" stroke-width="0.6" stroke-miterlimit="10"/>
<path d="M253.65 190.915C253.729 190.633 253.883 190.373 254.102 190.159C254.323 189.939 254.597 189.788 254.895 189.714C255.038 189.677 255.189 189.657 255.341 189.657C255.81 189.657 256.253 189.834 256.583 190.159C256.915 190.485 257.099 190.915 257.099 191.375C257.099 191.834 256.915 192.265 256.583 192.588C256.253 192.913 255.81 193.093 255.341 193.093C254.871 193.093 254.431 192.913 254.102 192.588C253.77 192.265 253.586 191.834 253.586 191.375C253.586 191.218 253.606 191.064 253.65 190.915Z" stroke="#231F20" stroke-width="0.6" stroke-miterlimit="10"/>
<path d="M195.756 190.564C195.952 190.844 196.057 191.178 196.057 191.523C196.057 191.983 195.873 192.414 195.543 192.739C195.211 193.065 194.771 193.244 194.302 193.244C193.334 193.244 192.547 192.474 192.547 191.523C192.547 191.067 192.728 190.633 193.06 190.31C193.392 189.985 193.832 189.805 194.302 189.805C194.582 189.805 194.85 189.868 195.092 189.991C195.255 190.071 195.409 190.179 195.543 190.31C195.622 190.387 195.695 190.473 195.756 190.564Z" stroke="#231F20" stroke-width="0.6" stroke-miterlimit="10"/>
<path d="M253.679 134.386C254.128 134.62 254.641 134.754 255.189 134.754C256.961 134.754 258.401 133.347 258.401 131.609C258.401 129.871 256.961 128.464 255.189 128.464C253.417 128.464 251.977 129.871 251.977 131.609C251.977 132.191 252.137 132.733 252.414 133.199C252.717 133.701 253.154 134.112 253.679 134.386Z" stroke="#231F20" stroke-width="0.6" stroke-miterlimit="10"/>
<path d="M253.511 132.12C253.456 131.957 253.43 131.786 253.43 131.609C253.43 131.149 253.61 130.718 253.943 130.393C254.275 130.071 254.715 129.891 255.185 129.891C255.654 129.891 256.094 130.071 256.426 130.393C256.756 130.718 256.939 131.149 256.939 131.609C256.939 132.068 256.756 132.499 256.426 132.825C256.094 133.15 255.654 133.327 255.185 133.327C255.053 133.327 254.925 133.313 254.8 133.284C254.479 133.216 254.182 133.059 253.943 132.825C253.739 132.625 253.59 132.382 253.511 132.12Z" stroke="#231F20" stroke-width="0.6" stroke-miterlimit="10"/>
<path d="M322.864 118.869V216.116C322.864 217.446 322.097 218.599 320.975 219.179M320.975 219.179C320.482 219.433 319.923 219.578 319.328 219.578L320.975 219.179ZM320.975 219.179L335.092 215.765C336.976 215.309 338.296 213.653 338.296 211.756V160.968C338.296 159.507 337.509 158.154 336.226 157.412L331.111 154.453C330.003 153.81 329.321 152.643 329.321 151.382V122.216C329.321 120.367 327.79 118.869 325.901 118.869" stroke="#231F20" stroke-width="0.6" stroke-miterlimit="10" stroke-linecap="round"/>
<path d="M351.984 176.029V166.254" stroke="#231F20" stroke-width="0.6" stroke-miterlimit="10" stroke-linecap="round"/>
<path d="M351.985 161.742V160.968C351.985 159.507 351.198 158.154 349.913 157.412L344.8 154.453C343.689 153.81 343.01 152.643 343.01 151.382V122.216C343.01 120.367 341.477 118.869 339.588 118.869H322.867" stroke="#231F20" stroke-width="0.6" stroke-miterlimit="10" stroke-linecap="round"/>
<path d="M351.986 180.595V211.756C351.986 213.653 350.663 215.309 348.78 215.765L333.016 219.578" stroke="#231F20" stroke-width="0.6" stroke-miterlimit="10" stroke-linecap="round"/>
<path d="M339.856 137.157H332.324C331.348 137.157 330.555 136.384 330.555 135.428C330.555 134.951 330.753 134.517 331.074 134.203C331.394 133.889 331.837 133.695 332.324 133.695H339.856C340.833 133.695 341.626 134.472 341.626 135.428C341.626 135.904 341.428 136.338 341.107 136.652C340.786 136.963 340.343 137.157 339.856 137.157Z" stroke="#231F20" stroke-width="0.6" stroke-miterlimit="10" stroke-linecap="round"/>
<path d="M340.472 143.482H331.709C331.071 143.482 330.555 142.976 330.555 142.351C330.555 142.04 330.683 141.758 330.893 141.555C331.103 141.35 331.388 141.224 331.709 141.224H340.472C341.11 141.224 341.626 141.729 341.626 142.351C341.626 142.663 341.498 142.948 341.288 143.151C341.078 143.356 340.792 143.482 340.472 143.482Z" stroke="#231F20" stroke-width="0.6" stroke-miterlimit="10" stroke-linecap="round"/>
<path d="M340.472 146.718H331.709C331.071 146.718 330.555 146.213 330.555 145.588C330.555 145.277 330.683 144.994 330.893 144.792C331.103 144.586 331.388 144.461 331.709 144.461H340.472C341.11 144.461 341.626 144.966 341.626 145.588C341.626 145.899 341.498 146.184 341.288 146.387C341.078 146.593 340.792 146.718 340.472 146.718Z" stroke="#231F20" stroke-width="0.6" stroke-miterlimit="10" stroke-linecap="round"/>
<path d="M340.472 149.955H331.709C331.071 149.955 330.555 149.449 330.555 148.824C330.555 148.513 330.683 148.231 330.893 148.028C331.103 147.823 331.388 147.697 331.709 147.697H340.472C341.11 147.697 341.626 148.202 341.626 148.824C341.626 149.135 341.498 149.421 341.288 149.624C341.078 149.829 340.792 149.955 340.472 149.955Z" stroke="#231F20" stroke-width="0.6" stroke-miterlimit="10" stroke-linecap="round"/>
<path d="M372.722 180.393C371.314 180.461 369.815 180.521 368.224 180.57C367.964 180.578 367.705 180.584 367.44 180.592C366.32 180.624 365.195 180.647 364.073 180.664C362.513 180.692 360.954 180.704 359.394 180.704C356.739 180.704 354.602 180.667 351.984 180.595V176.029C356.106 176.143 360.012 176.169 364.073 176.1C365.137 176.083 366.212 176.057 367.306 176.029C367.615 176.02 367.921 176.012 368.224 176.003C369.786 175.952 371.287 175.892 372.722 175.821" stroke="#231F20" stroke-width="0.6" stroke-miterlimit="10" stroke-linecap="round"/>
<path d="M351.988 180.595C351.964 180.592 351.938 180.592 351.914 180.592" stroke="#231F20" stroke-width="0.6" stroke-miterlimit="10" stroke-linecap="round"/>
<path d="M351.981 176.029H351.961" stroke="#231F20" stroke-width="0.6" stroke-miterlimit="10" stroke-linecap="round"/>
<path d="M372.722 168.914C371.238 168.583 369.74 168.28 368.224 168.009C367.938 167.955 367.65 167.903 367.361 167.855C366.268 167.667 365.172 167.493 364.073 167.333C360.079 166.756 356.051 166.377 351.984 166.254V161.742C356.001 161.864 360.1 162.195 364.073 162.729C365.443 162.915 366.81 163.123 368.166 163.357C368.186 163.36 368.203 163.363 368.224 163.368C369.74 163.628 371.241 163.916 372.722 164.233" stroke="#231F20" stroke-width="0.6" stroke-miterlimit="10" stroke-linecap="round"/>
<path d="M372.719 139.455H384.828V167.51C380.922 166.223 376.884 165.121 372.719 164.233V139.455Z" stroke="#231F20" stroke-width="0.6" stroke-miterlimit="10" stroke-linecap="round"/>
<path d="M372.719 168.914C376.89 169.841 380.924 170.994 384.828 172.341V174.745C381.487 175.224 377.444 175.587 372.719 175.821V168.914Z" stroke="#231F20" stroke-width="0.6" stroke-miterlimit="10" stroke-linecap="round"/>
<path d="M384.828 179.354V231.508C384.828 234.134 382.52 236.186 379.853 235.938L311.047 229.51L284.156 226.999V219.578H372.72V180.393C377.815 180.142 381.762 179.768 384.828 179.354Z" stroke="#231F20" stroke-width="0.6" stroke-miterlimit="10" stroke-linecap="round"/>
<path d="M368.227 219.578V180.57" stroke="#231F20" stroke-width="0.6" stroke-miterlimit="10" stroke-linecap="round"/>
<path d="M368.227 163.368V139.455H372.724" stroke="#231F20" stroke-width="0.6" stroke-miterlimit="10" stroke-linecap="round"/>
<path d="M368.227 176.003V168.009" stroke="#231F20" stroke-width="0.6" stroke-miterlimit="10" stroke-linecap="round"/>
<path d="M284.161 226.999H273.203V219.578" stroke="#231F20" stroke-width="0.6" stroke-miterlimit="10" stroke-linecap="round"/>
<path d="M210.375 219.578V226.999L306.071 235.938C308.739 236.186 311.047 234.134 311.047 231.508V229.51" stroke="#231F20" stroke-width="0.6" stroke-miterlimit="10" stroke-linecap="round"/>
<path d="M210.376 226.999H199.422V219.578" stroke="#231F20" stroke-width="0.6" stroke-miterlimit="10" stroke-linecap="round"/>
</g>
</g>
<defs>
<clipPath id="clip0_9859_21946">
<rect width="384" height="240" rx="32" fill="white"/>
</clipPath>
<clipPath id="clip1_9859_21946">
<rect width="297" height="141" fill="white" transform="translate(176.188 98)"/>
</clipPath>
</defs>
</svg>
