<svg width="384" height="240" viewBox="0 0 384 240" fill="none" xmlns="http://www.w3.org/2000/svg">
<g clip-path="url(#clip0_9859_21677)">
<rect width="384" height="240" rx="32" fill="white"/>
<path d="M27.8223 58.1909V43.9721H31.0352L35.8105 54.226C35.9082 54.4343 36.0059 54.6459 36.1035 54.8608C36.2012 55.0691 36.276 55.2481 36.3281 55.3979H36.3867C36.4388 55.2481 36.5072 55.0691 36.5918 54.8608C36.6764 54.6459 36.7643 54.4343 36.8555 54.226L41.6895 43.9721H44.9707V58.1909H42.2949L42.3047 48.5424C42.3047 48.3406 42.3112 48.1258 42.3242 47.8979C42.3372 47.6635 42.3503 47.4487 42.3633 47.2534H42.2949C42.2493 47.4487 42.1908 47.6635 42.1191 47.8979C42.054 48.1258 41.9759 48.3406 41.8848 48.5424L37.373 58.1909H35.0684L30.5762 48.5424C30.4785 48.3471 30.3939 48.1355 30.3223 47.9077C30.2507 47.6733 30.1921 47.4552 30.1465 47.2534H30.0781C30.0911 47.4552 30.1042 47.6733 30.1172 47.9077C30.1367 48.1355 30.1465 48.3504 30.1465 48.5522V58.1909H27.8223ZM46.4355 58.1909L52.6172 43.9037H55.2832L61.4746 58.1909H58.5254L54.4141 48.1127C54.2904 47.8198 54.1862 47.5398 54.1016 47.2729C54.0169 46.9995 53.9388 46.739 53.8672 46.4916H53.7695C53.6914 46.739 53.61 46.9995 53.5254 47.2729C53.4408 47.5463 53.3398 47.8263 53.2227 48.1127L49.082 58.1909H46.4355ZM49.2969 54.8608L50.0586 52.8393H57.7148L58.4766 54.8608H49.2969ZM62.3145 51.3549V50.808C62.3145 48.4187 62.9948 46.6349 64.3555 45.4565C65.7161 44.2716 67.4707 43.6791 69.6191 43.6791C71.6048 43.6791 73.1868 44.0991 74.3652 44.9389C75.5436 45.7722 76.1947 47.0125 76.3184 48.6596L76.3379 48.8647H73.5938L73.584 48.6498C73.4928 47.6668 73.1055 46.9441 72.4219 46.4819C71.7448 46.0131 70.8008 45.7787 69.5898 45.7787C68.2487 45.7787 67.1647 46.1759 66.3379 46.9702C65.5176 47.7644 65.1074 48.9819 65.1074 50.6225V51.5405C65.1074 53.2527 65.5176 54.4897 66.3379 55.2514C67.1647 56.0131 68.2487 56.394 69.5898 56.394C70.944 56.394 71.9271 56.1303 72.5391 55.603C73.151 55.0691 73.4993 54.3725 73.584 53.5131L73.5938 53.308H76.3379L76.3281 53.5229C76.2174 55.0463 75.5924 56.254 74.4531 57.1459C73.3203 58.0379 71.7122 58.4838 69.6289 58.4838C67.4674 58.4838 65.7064 57.9044 64.3457 56.7455C62.9915 55.5802 62.3145 53.7833 62.3145 51.3549ZM76.9629 46.0815V43.9721H90.0391V46.0815H84.8633V58.1909H82.1484V46.0815H76.9629ZM91.8848 58.1909V43.9721H102.695V46.0717H94.5703V49.8608H101.699V51.9018H94.5703V56.101H102.812V58.1909H91.8848ZM105.107 58.1909V43.9721H111.309C113.138 43.9721 114.538 44.3627 115.508 45.144C116.484 45.9252 116.973 47.0678 116.973 48.5717C116.973 50.0431 116.488 51.1856 115.518 51.9995C114.548 52.8133 113.141 53.2071 111.299 53.1811H107.822V58.1909H105.107ZM107.822 51.1694H111.064C112.236 51.1694 113.063 50.9448 113.545 50.4955C114.027 50.0398 114.268 49.4018 114.268 48.5815C114.268 47.7547 114.027 47.1231 113.545 46.687C113.063 46.2442 112.236 46.0229 111.064 46.0229H107.822V51.1694ZM124.17 58.1909V43.9721H126.885V49.8022H134.619V43.9721H137.324V58.1909H134.619V51.9116H126.885V58.1909H124.17ZM138.799 58.1909L144.98 43.9037H147.646L153.838 58.1909H150.889L146.777 48.1127C146.654 47.8198 146.549 47.5398 146.465 47.2729C146.38 46.9995 146.302 46.739 146.23 46.4916H146.133C146.055 46.739 145.973 46.9995 145.889 47.2729C145.804 47.5463 145.703 47.8263 145.586 48.1127L141.445 58.1909H138.799ZM141.66 54.8608L142.422 52.8393H150.078L150.84 54.8608H141.66ZM162.842 47.8198C162.842 48.9786 163.118 49.7501 163.672 50.1342C164.225 50.5183 165.189 50.7104 166.562 50.7104C167.448 50.7104 168.249 50.6746 168.965 50.603C169.688 50.5314 170.41 50.4207 171.133 50.2709V52.3217C170.176 52.517 169.339 52.6472 168.623 52.7123C167.913 52.7709 167.132 52.8002 166.279 52.8002C164.001 52.8002 162.406 52.4129 161.494 51.6381C160.583 50.8634 160.127 49.6231 160.127 47.9174V43.9721H162.842V47.8198ZM172.5 43.9721V58.1909H169.785V43.9721H172.5ZM173.975 58.1909L180.156 43.9037H182.822L189.014 58.1909H186.064L181.953 48.1127C181.829 47.8198 181.725 47.5398 181.641 47.2729C181.556 46.9995 181.478 46.739 181.406 46.4916H181.309C181.23 46.739 181.149 46.9995 181.064 47.2729C180.98 47.5463 180.879 47.8263 180.762 48.1127L176.621 58.1909H173.975ZM176.836 54.8608L177.598 52.8393H185.254L186.016 54.8608H176.836ZM189.854 51.3549V50.808C189.854 48.4187 190.534 46.6349 191.895 45.4565C193.255 44.2716 195.01 43.6791 197.158 43.6791C199.144 43.6791 200.726 44.0991 201.904 44.9389C203.083 45.7722 203.734 47.0125 203.857 48.6596L203.877 48.8647H201.133L201.123 48.6498C201.032 47.6668 200.645 46.9441 199.961 46.4819C199.284 46.0131 198.34 45.7787 197.129 45.7787C195.788 45.7787 194.704 46.1759 193.877 46.9702C193.057 47.7644 192.646 48.9819 192.646 50.6225V51.5405C192.646 53.2527 193.057 54.4897 193.877 55.2514C194.704 56.0131 195.788 56.394 197.129 56.394C198.483 56.394 199.466 56.1303 200.078 55.603C200.69 55.0691 201.038 54.3725 201.123 53.5131L201.133 53.308H203.877L203.867 53.5229C203.757 55.0463 203.132 56.254 201.992 57.1459C200.859 58.0379 199.251 58.4838 197.168 58.4838C195.007 58.4838 193.245 57.9044 191.885 56.7455C190.531 55.5802 189.854 53.7833 189.854 51.3549Z" fill="#231F20"/>
<g clip-path="url(#clip1_9859_21677)">
<path d="M356.868 249.423L323.891 253.283L320.047 222.139L332.21 220.451L332.899 225.218C333.074 226.428 334.189 227.264 335.392 227.088L342.174 226.098C343.377 225.922 344.208 224.795 344.033 223.591L343.355 218.906L365.454 215.843L366.051 219.94C366.226 221.149 367.341 221.985 368.544 221.809L375.326 220.82C376.523 220.638 377.36 219.516 377.185 218.312L376.6 214.293L386.843 212.874L390.879 241.357C391.191 243.556 389.638 245.585 387.439 245.844L356.868 249.423Z" fill="#FF8B63"/>
<path d="M339.223 202.944L352.643 201.129L354.891 200.827L359.288 200.233L380.693 197.335C382.837 197.049 384.811 198.545 385.112 200.7L386.84 212.874L376.597 214.293L375.919 209.63C375.744 208.42 374.628 207.584 373.425 207.76L366.649 208.75C365.446 208.926 364.615 210.048 364.79 211.257L365.451 215.843L343.352 218.906L342.772 214.909C342.597 213.699 341.476 212.863 340.278 213.039L333.497 214.029C332.294 214.205 331.463 215.332 331.638 216.536L332.206 220.451L320.044 222.139L318.031 205.814L320.766 205.445L324.096 204.995L328.685 204.373L339.223 202.944Z" fill="#7099ED"/>
<path d="M377.184 218.312C377.359 219.516 376.522 220.638 375.324 220.82L368.543 221.809C367.34 221.985 366.224 221.149 366.049 219.94L365.453 215.843L376.599 214.293L377.184 218.312Z" fill="#F4F3F1"/>
<path d="M375.918 209.63L376.596 214.293L365.451 215.843L364.789 211.257C364.614 210.048 365.445 208.926 366.648 208.75L373.424 207.76C374.627 207.584 375.743 208.42 375.918 209.63Z" fill="#F4F3F1"/>
<path d="M357.471 189.758L359.287 200.233L354.89 200.827L353.922 195.24L354.086 195.124C355.885 193.788 356.924 191.869 357.471 189.758Z" fill="#7099ED"/>
<path d="M358.718 143.569C358.893 144.13 359.084 144.972 358.986 145.967C358.772 148.078 357.361 149.733 355.267 151.229C353.386 152.576 350.947 153.797 348.338 155.1C348.338 155.1 341.343 158.592 335.41 158.361C335.103 158.35 334.824 158.328 334.567 158.295C332.823 158.086 332.183 157.475 331.893 157.002C331.494 156.348 331.532 155.595 331.603 155.122C331.084 155.012 330.619 154.825 330.214 154.556C329.678 154.198 326.999 152.213 326.807 149.062C326.725 147.682 327.152 146.544 327.491 145.851C327.529 145.994 327.589 146.143 327.677 146.286C328.059 146.929 328.831 147.286 329.651 147.198L330.072 147.759C330.247 147.627 330.422 147.501 330.597 147.374C335.251 144.031 341.677 140.765 350.443 139.165L350.531 139.258C350.788 139.011 351.067 138.764 351.362 138.511C351.482 138.412 351.597 138.313 351.718 138.219L351.69 138.186C351.368 137.279 351.029 136.361 350.673 135.426C351.362 135.277 352.445 135.14 353.692 135.409C355.95 135.91 358.811 137.779 359.155 140.743C359.265 141.694 359.106 142.662 358.718 143.569Z" fill="#FF8B63"/>
<path d="M353.998 172.965C354.217 173.146 354.441 173.35 354.671 173.586C354.671 173.586 355.776 174.736 356.47 176.418C357.088 177.903 358.849 184.441 357.477 189.758C356.93 191.869 355.891 193.788 354.091 195.124L353.927 195.24C353.277 195.702 352.555 196.07 351.827 196.373C349.519 197.329 347.124 197.582 346.665 197.626C346.49 197.835 345.412 199.1 343.635 199.149C342.519 199.177 341.699 198.715 341.365 198.49C340.775 199.837 339.823 200.915 338.686 201.569C338.139 201.882 337.548 202.097 336.936 202.196C334.797 202.537 333.135 201.365 332.933 201.211C330.504 199.446 330.625 196.395 330.636 196.153L330.592 195.784L333.906 195.394L334.004 195.339C333.55 194.503 333.086 193.486 332.714 192.298C332.49 191.589 332.331 190.913 332.216 190.286L331.937 190.335L326.999 190.968C324.385 186.338 324.647 183.66 325.358 182.071C325.894 180.883 326.698 180.223 328.038 179.156C328.541 178.755 329.126 178.293 329.793 177.721C331.286 176.457 333.359 174.494 335.53 171.629C335.722 169.765 335.809 167.521 335.634 164.998C335.459 162.408 335.038 160.148 334.579 158.295C334.836 158.328 335.115 158.35 335.421 158.361C341.354 158.592 348.349 155.1 348.349 155.1C350.958 153.797 353.397 152.576 355.278 151.229C355.404 152.615 355.497 154.05 355.541 155.534C355.743 162.034 355.065 167.895 354.026 172.938L354.004 172.965H353.998Z" fill="#F4F3F1"/>
<path d="M353.92 195.24L354.888 200.827L352.641 201.129L351.82 196.373C352.548 196.07 353.27 195.702 353.92 195.24Z" fill="#231F20"/>
<path d="M320.13 153.538C321.021 161.973 319.758 164.145 318.538 164.668C313.206 166.955 294.306 143.877 293.01 121.162C292.994 120.86 292.972 120.53 292.955 120.173C292.895 118.958 292.846 117.451 292.895 115.73C292.939 114.289 293.059 112.706 293.311 111.023C293.901 107.064 295.214 102.572 297.987 98.2167C299.348 96.0722 300.748 94.4666 301.776 93.3889C302.996 90.4691 305.052 88.5116 307.13 87.8683C307.754 87.6758 308.377 87.5989 308.979 87.6538C311.101 87.8463 312.616 89.6004 313.288 90.5131C313.671 90.7001 314.054 90.8815 314.431 91.074C333.884 100.829 344.658 119.628 350.679 135.426C351.034 136.361 351.373 137.279 351.696 138.186L351.723 138.219C351.603 138.313 351.488 138.412 351.368 138.511C351.072 138.764 350.794 139.011 350.536 139.258L350.449 139.165C341.682 140.765 335.257 144.031 330.603 147.374C330.428 147.501 330.253 147.627 330.078 147.759L329.657 147.198C328.836 147.286 328.065 146.929 327.682 146.286C327.595 146.143 327.535 145.994 327.496 145.851C327.338 145.29 327.485 144.779 327.518 144.675C326.353 144.735 325.024 144.125 324.762 144.004C324.149 143.723 323.646 143.377 323.242 143.025L323.056 143.206C322.941 145.439 322.481 148.848 320.737 152.395C320.551 152.78 320.349 153.159 320.13 153.538Z" fill="#FF8B63"/>
<path d="M344.027 223.591C344.202 224.795 343.37 225.922 342.167 226.098L335.386 227.088C334.183 227.264 333.067 226.428 332.892 225.218L332.203 220.451L343.349 218.906L344.027 223.591Z" fill="#F4F3F1"/>
<path d="M342.775 214.909L343.355 218.906L332.209 220.451L331.64 216.536C331.465 215.332 332.297 214.205 333.5 214.029L340.281 213.039C341.479 212.863 342.6 213.699 342.775 214.909Z" fill="#F4F3F1"/>
<path d="M339.226 202.944L328.687 204.373L328.66 204.153L327.681 197.67C327.555 196.84 328.135 196.076 328.966 195.977L330.585 195.784L330.629 196.153C330.618 196.395 330.498 199.446 332.926 201.211C333.128 201.365 334.791 202.537 336.929 202.196C337.542 202.097 338.132 201.882 338.679 201.569C338.859 202.025 339.045 202.487 339.226 202.944Z" fill="#7099ED"/>
<path d="M333.998 195.339L333.9 195.394L330.586 195.784L328.967 195.977C328.136 196.076 327.556 196.84 327.682 197.67L328.661 204.153L328.688 204.373L324.1 204.994L322.65 195.322C322.415 193.744 323.214 192.249 324.526 191.528L324.625 191.484C324.985 191.297 325.39 191.171 325.817 191.116L326.993 190.967L331.931 190.335L332.21 190.286C332.325 190.913 332.483 191.589 332.707 192.298C333.079 193.486 333.544 194.503 333.998 195.339Z" fill="#7099ED"/>
<path d="M282.843 221.177C284.79 222.046 287.3 222.799 290.522 223.184L291.052 222.2C286.857 219.896 283.368 218.043 280.765 216.679C278.293 215.387 276.051 214.232 275.701 214.7C275.313 215.216 277.451 217.432 277.648 217.636C278.632 218.659 280.24 220.022 282.843 221.177ZM262.931 181.856C262.472 180.762 262.204 179.453 262.505 178.046C262.745 176.93 263.27 176.072 263.741 175.472C261.099 173.757 258.6 171.37 257.419 168.044C256.598 165.723 257.085 164.827 257.107 161.187C257.107 160.819 257.107 160.423 257.096 159.994C257.036 157.167 256.73 154.957 256.325 153.005C255.346 148.326 253.777 145.12 253.525 138.351C253.476 136.982 253.492 135.75 253.547 134.601C253.64 132.71 253.842 131.016 254.066 129.212C254.241 127.794 254.487 126.144 254.848 124.291C256.21 124 257.588 123.719 258.999 123.461C260.848 123.103 262.74 122.779 264.67 122.471C266.628 122.163 268.564 121.888 270.473 121.652C275.28 121.041 279.923 120.646 284.369 120.42C287.317 120.266 290.182 120.189 292.955 120.173C292.972 120.53 292.993 120.86 293.01 121.162C294.306 143.877 313.206 166.955 318.538 164.668C319.758 164.145 321.021 161.973 320.13 153.538C320.349 153.159 320.551 152.78 320.737 152.4C321.42 154.105 322.957 158.63 321.459 163.909C321.306 164.448 321.136 164.959 320.945 165.437C321.306 167.257 321.929 168.522 322.432 169.347C323.384 170.909 324.051 171.871 324.811 172.938C325.774 174.279 326.999 176.297 328.032 179.156C326.692 180.223 325.888 180.883 325.352 182.071C324.642 183.66 324.379 186.338 326.993 190.968L325.817 191.116C325.391 191.171 324.986 191.297 324.625 191.484L324.527 191.528L321.759 192.854C320.288 193.557 319.441 195.135 319.648 196.758L320.403 202.603L320.742 205.253L320.77 205.445L318.035 205.814L295.515 208.86C294.076 209.052 293.059 210.378 293.234 211.824L294.7 224.058C294.443 223.778 294.175 223.481 293.901 223.162C292.288 232.845 289.625 243.936 285.222 255.813C283.308 260.971 281.257 265.76 279.163 270.17C277.763 271.968 274.503 275.624 269.067 277.565C268.422 277.796 257.78 281.431 250.462 275.679C244.49 270.995 244.671 263.159 244.983 249.72C245.125 243.435 246.18 237.92 249.812 233.34C250.298 232.724 250.741 232.24 251.053 231.921C251.157 230.981 251.261 230.134 251.365 229.386C252.333 222.365 253.87 218.538 258.934 199.694C259.453 197.758 259.978 195.834 260.503 193.92C259.612 191.88 258.256 187.652 260.449 184.248C260.886 183.566 261.635 182.654 262.931 181.856ZM296.253 156.948C293.628 148.375 291.358 139.159 289.657 129.322C289.384 127.75 289.132 126.188 288.897 124.643C281.897 124.907 274.339 125.55 266.327 126.749C262.953 127.249 259.694 127.827 256.555 128.454C256.265 129.069 255.975 129.817 255.745 130.681C255.335 132.22 255.275 133.578 255.313 134.596C256.035 134.392 256.763 134.194 257.506 134.007C257.741 137.312 258.097 140.798 258.611 144.438C259.431 150.25 260.531 155.595 261.75 160.428C264.506 160.885 267.547 161.214 270.834 161.297C281.318 161.566 290.062 159.262 296.253 156.948Z" fill="#7099ED"/>
<path d="M321.759 192.854L324.526 191.528C323.214 192.249 322.416 193.744 322.651 195.322L324.1 204.995L320.769 205.445L320.742 205.253L320.403 202.603L319.648 196.758C319.44 195.135 320.288 193.557 321.759 192.854Z" fill="#231F20"/>
<path d="M320.045 222.139L323.889 253.283L309.31 254.988L301.631 255.89C299.925 256.088 298.377 254.862 298.175 253.146L294.883 225.631L320.045 222.139Z" fill="#FF8B63"/>
<path d="M318.032 205.814L320.044 222.139L294.882 225.631L294.696 224.058L293.231 211.824C293.056 210.378 294.073 209.052 295.511 208.86L318.032 205.814Z" fill="#7099ED"/>
<path d="M304.313 86.4111C305.33 86.884 306.271 87.3734 307.129 87.8683C305.051 88.5116 302.995 90.4691 301.775 93.3889C300.747 94.4666 299.347 96.0722 297.985 98.2167C295.213 102.572 293.9 107.064 293.309 111.023C291.888 110.94 290.285 110.935 288.535 111.083C287.595 111.166 286.714 111.281 285.883 111.419C286.911 107.482 288.289 104.139 289.629 101.455C296.137 94.1367 301.108 89.2759 302.683 85.7073C303.214 85.9218 303.755 86.1582 304.313 86.4111Z" fill="#7099ED"/>
<path d="M298.264 78.867L298.166 78.8175C297.734 77.6903 297.313 76.5136 296.919 75.2819C297.406 75.3094 298.139 75.4194 298.877 75.8373C299.615 76.2552 300.239 76.9095 301.797 79.9173C302.541 81.3524 302.913 82.0727 303.044 82.4411C303.372 83.4089 303.23 84.4811 302.683 85.7073C301.108 89.2759 296.137 94.1367 289.629 101.455C288.809 102.379 287.961 103.341 287.097 104.342C285.992 105.618 285.112 106.668 284.57 107.317C283.783 106.228 282.531 104.491 281.038 102.313C278.232 98.2167 277.373 96.6496 276.422 96.798C277.428 96.0282 296.476 81.3249 297.805 79.5599C297.914 79.4169 298.1 79.164 298.264 78.867Z" fill="#FF8B63"/>
<path d="M302.46 39.2989C306.901 47.9318 301.733 56.5701 301.454 57.0155C300.639 56.0862 299.726 55.1295 298.709 54.1672C298.222 53.7053 297.741 53.2709 297.265 52.8585C301.394 47.1455 301.153 39.4364 296.904 34.3722C295.635 32.86 294.082 31.6668 292.359 30.82C293.672 31.2489 299.37 33.3054 302.46 39.2989Z" fill="#7099ED"/>
<path d="M301.453 57.0155C301.453 58.3682 301.365 60.4246 300.856 62.5856L300.299 62.4536C300.605 61.1725 300.441 59.7758 299.713 58.6816C299.571 58.4561 298.543 56.955 296.793 56.8285C294.884 56.6911 292.877 58.2527 292.199 60.7436C291.313 60.7985 290.433 60.8535 289.547 60.9085C290.083 60.2157 290.668 59.3304 291.171 58.2417C292.227 55.9598 292.44 53.8483 292.462 52.4956C294.37 52.996 296.099 52.963 297.263 52.8585C297.739 53.2709 298.22 53.7053 298.707 54.1672C299.724 55.1295 300.638 56.0862 301.453 57.0155Z" fill="#231F20"/>
<path d="M299.713 58.6816C300.44 59.7758 300.605 61.1725 300.298 62.4536C300.085 63.3389 299.647 64.1747 299.013 64.8235C297.755 66.1047 295.797 66.5666 293.944 66.0662C293.222 65.8738 292.516 65.5384 291.871 65.0435C291.679 66.1267 289.929 75.1335 283.274 78.3117C281.3 79.2519 279.145 79.5599 278.943 79.5929C276.711 79.9393 273.884 79.9338 271.1 78.6801C270.854 78.5646 270.608 78.4436 270.362 78.3117C270.362 78.3117 268.185 77.1405 266.468 75.0455C259.911 67.045 265.013 49.0095 265.462 47.4919C266.058 46.7936 267.179 45.6608 268.924 44.814C270.745 43.9233 272.396 43.7638 273.326 43.7418C273.157 44.0332 273.075 44.2532 273.053 44.3027C272.511 45.7488 272.861 47.4204 273.95 48.6191C273.862 47.6074 274.108 46.887 274.294 46.4801C275.092 44.7481 277.165 43.6923 279.593 43.7198C277.701 43.7363 276.41 44.7811 276.35 45.7928C276.307 46.5461 276.963 47.1675 277.214 47.3874C277.149 47.0355 277.121 46.5846 277.253 46.1007C277.707 44.3687 279.692 43.7748 279.867 43.7253C280.403 43.8243 281.004 43.9728 281.65 44.1927C282.754 44.5776 283.646 45.067 284.329 45.5179C285.735 48.2012 287.611 50.5711 290.772 51.9183C291.34 52.1602 291.909 52.3527 292.461 52.4901C292.44 53.8483 292.226 55.9598 291.171 58.2417C290.668 59.3304 290.083 60.2157 289.547 60.9085C290.433 60.8535 291.313 60.7986 292.199 60.7436C292.877 58.2527 294.884 56.6911 296.793 56.8285C298.543 56.955 299.571 58.4561 299.713 58.6816ZM278.33 56.3997C278.45 55.3494 277.969 54.4256 277.253 54.3432C276.542 54.2552 275.858 55.0415 275.738 56.0917C275.612 57.142 276.093 58.0657 276.81 58.1482C277.526 58.2362 278.204 57.4499 278.33 56.3997ZM269.864 55.6353C269.985 54.5851 269.503 53.6668 268.792 53.5789C268.076 53.4964 267.392 54.2772 267.272 55.3329C267.152 56.3832 267.628 57.3014 268.344 57.3894C269.06 57.4719 269.739 56.6911 269.864 55.6353Z" fill="#F4F3F1"/>
<path d="M274.64 93.4659C274.448 91.5194 274.142 89.4409 273.672 87.2579C273.344 85.6963 272.934 84.0907 272.42 82.4411C272.009 81.1215 271.566 79.8678 271.102 78.6801C273.885 79.9338 276.713 79.9393 278.944 79.5929C279.146 79.5599 281.301 79.2519 283.275 78.3117C289.931 75.1335 291.681 66.1267 291.872 65.0435C292.517 65.5384 293.223 65.8738 293.945 66.0662C294.049 66.7041 294.224 67.4684 294.525 68.3042C294.842 69.195 295.225 69.9373 295.569 70.5146C295.717 71.114 295.87 71.7188 296.039 72.3292C296.318 73.3409 296.614 74.3307 296.92 75.2819C297.314 76.5136 297.735 77.6903 298.167 78.8175L298.265 78.867C298.101 79.164 297.915 79.4169 297.806 79.5599C296.477 81.3249 277.429 96.0282 276.423 96.798C276.078 96.8585 275.083 97.2269 274.465 101.186C274.115 100.587 273.169 98.7831 273.502 96.4406C273.699 95.0605 274.257 94.0377 274.64 93.4659Z" fill="#F4F3F1"/>
<path d="M296.897 34.3722C301.146 39.4364 301.387 47.1455 297.258 52.8585C292.932 49.8233 288.284 45.9303 283.81 40.9485C282.695 39.7113 281.65 38.4741 280.682 37.2479C279.67 35.2299 278.456 33.4539 276.641 32.2442L276.673 32.1947C281.47 28.7361 287.556 28.4446 292.353 30.82C294.075 31.6668 295.628 32.86 296.897 34.3722Z" fill="#7099ED"/>
<path d="M284.33 45.5179C282.919 42.8345 281.978 39.8433 280.688 37.2479C281.655 38.4741 282.7 39.7113 283.816 40.9485C288.289 45.9303 292.938 49.8233 297.263 52.8585C296.099 52.963 294.37 52.996 292.462 52.4901C291.91 52.3526 291.341 52.1602 290.772 51.9183C287.611 50.5711 285.735 48.2012 284.33 45.5179Z" fill="#7099ED"/>
<path d="M289.651 129.322C291.352 139.159 293.622 148.375 296.247 156.948C290.056 159.262 281.311 161.566 270.828 161.297C267.541 161.214 264.5 160.885 261.744 160.428C260.524 155.595 259.425 150.25 258.605 144.438C258.091 140.798 257.735 137.312 257.5 134.007C258.791 133.672 260.114 133.364 261.47 133.072C270.735 131.093 279.277 130.631 286.676 130.901C286.846 129.993 287.103 128.965 287.486 127.854C287.918 126.601 288.415 125.528 288.891 124.643C289.126 126.188 289.378 127.75 289.651 129.322Z" fill="#7099ED"/>
<path d="M293.308 111.023C293.056 112.706 292.936 114.289 292.892 115.73C290.798 115.73 288.681 115.735 286.554 115.763C286.007 115.768 285.471 115.774 284.93 115.785C285.045 115.108 285.176 114.416 285.329 113.712C285.498 112.926 285.679 112.161 285.881 111.419C286.713 111.281 287.593 111.166 288.534 111.083C290.284 110.935 291.886 110.941 293.308 111.023Z" fill="#231F20"/>
<path d="M286.55 115.763C288.677 115.735 290.794 115.724 292.888 115.73C292.839 117.451 292.888 118.958 292.949 120.173C290.176 120.189 287.31 120.266 284.362 120.42L284.352 120.239C284.472 118.842 284.652 117.352 284.926 115.785C285.467 115.774 286.003 115.768 286.55 115.763Z" fill="#7099ED"/>
<path d="M291.046 222.2L290.516 223.184C287.984 222.546 285.424 221.881 282.838 221.177C280.235 220.022 278.627 218.659 277.642 217.636C277.445 217.432 275.307 215.216 275.695 214.7C276.045 214.232 278.288 215.387 280.76 216.679C283.363 218.043 286.852 219.896 291.046 222.2Z" fill="#7099ED"/>
<path d="M284.928 115.785C284.655 117.352 284.474 118.842 284.354 120.239L284.365 120.42C279.919 120.646 275.276 121.041 270.469 121.652C270.485 116.632 271.163 110.765 273.28 104.557C273.635 103.528 274.007 102.539 274.401 101.587C274.423 101.45 274.439 101.318 274.461 101.186C275.079 97.2269 276.074 96.8585 276.419 96.7981C277.37 96.6496 278.229 98.2167 281.035 102.313C282.528 104.491 283.78 106.228 284.567 107.317C285.109 106.668 285.989 105.618 287.094 104.342C287.958 103.341 288.806 102.379 289.626 101.455C288.286 104.139 286.908 107.482 285.88 111.419C285.678 112.161 285.497 112.926 285.328 113.712C285.174 114.416 285.043 115.108 284.928 115.785Z" fill="#FF8B63"/>
<path d="M288.891 124.643C288.415 125.528 287.917 126.601 287.485 127.854C287.102 128.965 286.845 129.993 286.676 130.901C279.277 130.631 270.734 131.093 261.47 133.072C260.114 133.364 258.79 133.672 257.5 134.007C256.756 134.194 256.029 134.392 255.307 134.596C255.268 133.578 255.329 132.22 255.739 130.681C255.968 129.817 256.258 129.069 256.548 128.454C259.687 127.827 262.947 127.249 266.321 126.749C274.333 125.55 281.891 124.907 288.891 124.643Z" fill="#7099ED"/>
<path d="M280.683 37.2479C281.974 39.8433 282.915 42.8345 284.326 45.5179C283.642 45.067 282.751 44.5776 281.646 44.1927C281.001 43.9728 280.399 43.8243 279.863 43.7253C278.993 42.2957 277.402 41.5424 275.876 41.8228C274.493 42.0757 273.7 43.0875 273.322 43.7418C272.393 43.7638 270.741 43.9233 268.92 44.814C267.175 45.6608 266.054 46.7935 265.458 47.4919C260.028 45.7048 254.794 43.2194 254.712 40.1347C254.581 35.131 268.001 27.8068 275.696 31.6888C276.029 31.8593 276.341 32.0407 276.642 32.2442C278.458 33.4539 279.672 35.2299 280.683 37.2479Z" fill="#7099ED"/>
<path d="M279.589 43.7198C279.676 43.7198 279.769 43.7198 279.862 43.7253C279.687 43.7748 277.702 44.3687 277.248 46.1007C277.117 46.5846 277.144 47.0355 277.21 47.3874C276.958 47.1675 276.302 46.5461 276.346 45.7928C276.406 44.7811 277.697 43.7363 279.589 43.7198Z" fill="#231F20"/>
<path d="M279.862 43.7253C279.769 43.7198 279.676 43.7198 279.589 43.7198C277.161 43.6923 275.088 44.7481 274.289 46.4801C274.103 46.887 273.857 47.6073 273.945 48.6191C272.857 47.4204 272.507 45.7488 273.048 44.3027C273.07 44.2532 273.152 44.0332 273.321 43.7418C273.699 43.0875 274.492 42.0757 275.875 41.8228C277.401 41.5424 278.993 42.2957 279.862 43.7253Z" fill="#231F20"/>
<path d="M277.254 54.3432C277.97 54.4256 278.451 55.3494 278.331 56.3996C278.205 57.4499 277.527 58.2362 276.811 58.1482C276.094 58.0657 275.613 57.142 275.739 56.0917C275.859 55.0415 276.543 54.2552 277.254 54.3432Z" fill="#231F20"/>
<path d="M274.462 101.186C274.44 101.318 274.424 101.45 274.402 101.587C273.817 100.675 272.892 99.3659 271.552 97.9583C270.683 97.0455 269.808 96.1327 268.966 95.4729C268.036 94.7361 267.15 94.3127 266.352 94.5491C267.177 93.9113 268.025 93.1965 268.884 92.4156C270.803 90.6561 272.378 88.8965 273.669 87.2579C274.139 89.4409 274.445 91.5194 274.637 93.4659C274.254 94.0377 273.696 95.0605 273.499 96.4406C273.166 98.7831 274.112 100.587 274.462 101.186Z" fill="#FF8B63"/>
<path d="M274.401 101.587C274.007 102.539 273.635 103.528 273.28 104.557C271.163 110.765 270.485 116.632 270.469 121.646C268.56 121.888 266.624 122.163 264.666 122.471C262.736 122.779 260.844 123.103 258.995 123.461L258.93 123.12C259.045 122.108 259.192 121.069 259.367 119.991C259.63 118.397 259.958 116.731 260.379 115.009L260.445 114.746C262.375 106.982 265.432 100.741 268.238 96.1382C268.467 95.9238 268.708 95.7093 268.96 95.4784C269.802 96.1327 270.677 97.0455 271.546 97.9583C272.886 99.3659 273.81 100.675 274.396 101.587H274.401Z" fill="#FF8B63"/>
<path d="M268.789 53.5789C269.5 53.6668 269.981 54.5851 269.861 55.6353C269.735 56.6911 269.057 57.4719 268.34 57.3894C267.624 57.3014 267.148 56.3832 267.269 55.3329C267.389 54.2772 268.073 53.4964 268.789 53.5789Z" fill="#231F20"/>
<path d="M263.17 99.058C263.389 98.6841 263.663 98.2332 263.98 97.7053C265.183 95.7148 265.795 94.7196 266.353 94.5491C267.152 94.3127 268.038 94.7361 268.967 95.4729C268.716 95.7093 268.475 95.9238 268.245 96.1382C266.085 98.0902 264.718 99.2394 263.859 99.8718C262.995 100.515 262.651 100.636 262.547 100.537C262.427 100.427 262.656 99.9488 263.176 99.058H263.17Z" fill="#FF8B63"/>
<path d="M268.239 96.1382C265.434 100.741 262.377 106.982 260.446 114.746L260.381 115.009L256.82 116.379C258.308 111.518 260.528 105.926 263.853 99.8773C264.712 99.2394 266.079 98.0902 268.239 96.1382Z" fill="#7099ED"/>
<path d="M263.852 99.8718C260.527 105.926 258.306 111.518 256.819 116.379C256.338 117.951 255.933 119.452 255.588 120.866C255.337 121.899 255.123 122.884 254.938 123.818H254.932C254.5 119.81 254.106 110.545 259.903 102.676C260.937 101.268 262.047 100.075 263.168 99.058C262.649 99.9488 262.419 100.427 262.539 100.537C262.643 100.636 262.988 100.515 263.852 99.8718Z" fill="#FF8B63"/>
<path d="M256.816 116.379L260.377 115.009C259.956 116.731 259.627 118.397 259.365 119.991C258.107 120.283 256.844 120.574 255.586 120.866C255.93 119.452 256.335 117.951 256.816 116.379Z" fill="#231F20"/>
<path d="M255.588 120.866C256.845 120.574 258.109 120.283 259.366 119.991C259.191 121.069 259.044 122.108 258.929 123.12L258.995 123.461C257.584 123.719 256.205 124 254.844 124.291C254.871 124.137 254.904 123.978 254.937 123.818C255.123 122.884 255.336 121.899 255.588 120.866Z" fill="#7099ED"/>
<path d="M229.787 142.002C229.24 142.349 228.622 142.662 228.021 142.805C227.479 142.937 226.943 142.932 226.478 142.701C225.932 142.426 225.532 141.865 225.27 141.089C224.247 138.131 225.188 132.094 227.507 127.42C228.043 126.348 228.896 124.621 230.006 123.142C230.186 122.895 230.378 122.658 230.575 122.433C231.647 121.195 232.91 120.283 234.321 120.349C237.788 120.503 240.583 126.491 240.38 130.95C240.364 131.362 240.32 132.292 240.014 133.441L240.058 133.452C242.409 134.178 245.499 134.838 249.141 134.871C250.749 134.882 252.226 134.772 253.544 134.601C253.489 135.75 253.473 136.982 253.522 138.351C253.773 145.12 255.343 148.326 256.322 153.005C251.772 152.598 246.888 151.927 241.731 150.894C239.615 150.47 237.575 150.008 235.6 149.513C234.829 150.014 233.79 150.58 232.5 151.036C231.324 151.454 230.257 151.663 229.399 151.773L229.536 148.342C229.825 147.622 229.798 146.83 229.618 146.071H229.623L229.787 142.002Z" fill="#F4F3F1"/>
<path d="M234.745 95.6103C237.239 97.6833 238.71 100.917 238.398 104.403C238.098 107.74 236.227 110.55 233.586 112.178C231.94 113.184 230.884 114.927 230.802 116.863L230.578 122.433C230.381 122.658 230.19 122.895 230.009 123.142C229.79 122.862 229.43 122.438 228.91 122.026C228.407 121.624 226.996 120.624 222.796 120.635L223.419 116.186C223.687 114.273 222.954 112.37 221.522 111.078C219.214 109 217.874 105.898 218.175 102.561C218.492 99.0745 220.515 96.1602 223.337 94.5711C224.081 94.1532 224.989 94.7306 224.912 95.5884L224.251 102.913L228.09 105.634L232.355 103.655L233.017 96.3252C233.094 95.4729 234.089 95.066 234.745 95.6103Z" fill="#F4F3F1"/>
<path d="M229.79 142.002L229.626 146.071H229.62C229.243 144.444 228.166 142.992 228.023 142.805C228.625 142.662 229.243 142.349 229.79 142.002Z" fill="#F4F3F1"/>
<path d="M223.306 146.814C222.48 147.33 221.386 147.836 220.041 148.029C219.653 148.089 219.286 148.111 218.936 148.111L218.439 151.636C217.679 151.438 216.273 150.932 215.065 149.662C214.479 149.04 213.254 147.754 213.282 145.851C213.298 144.537 213.905 143.564 214.211 143.135C214.19 143.08 214.168 143.02 214.146 142.959L215.715 142.811C216.147 142.228 216.738 141.612 217.553 141.122C220.752 139.203 224.531 140.941 225.018 141.177L225.269 141.089C225.532 141.865 225.931 142.426 226.478 142.701C226.943 142.932 227.479 142.937 228.02 142.805C228.162 142.992 229.24 144.444 229.617 146.071C229.798 146.83 229.825 147.622 229.535 148.342C229.491 148.441 229.448 148.535 229.398 148.628C229.273 148.859 229.098 149.101 228.857 149.332C228.419 149.425 227.145 149.634 225.723 149.008C224.241 148.353 223.525 147.198 223.306 146.814Z" fill="#F4F3F1"/>
<path d="M229.403 151.773L229.14 158.223C229.009 161.533 226.143 164.057 222.856 163.76C219.575 163.463 217.207 160.461 217.666 157.178L218.443 151.636L218.941 148.111C219.291 148.111 219.657 148.089 220.045 148.029C221.391 147.836 222.484 147.33 223.31 146.814C223.529 147.198 224.245 148.353 225.727 149.007C227.149 149.634 228.424 149.425 228.861 149.332C229.102 149.101 229.277 148.859 229.403 148.628C229.452 148.535 229.495 148.441 229.539 148.342L229.403 151.773ZM225.022 159.213C225.109 158.245 224.399 157.393 223.442 157.305C222.479 157.217 221.631 157.932 221.544 158.894C221.456 159.862 222.162 160.714 223.124 160.802C224.087 160.89 224.934 160.181 225.022 159.213Z" fill="#F4F3F1"/>
<path d="M222.792 120.635C226.992 120.624 228.403 121.624 228.906 122.026C229.426 122.438 229.787 122.862 230.006 123.142C228.896 124.621 228.042 126.348 227.506 127.42C225.188 132.094 224.247 138.131 225.27 141.089L225.018 141.177C224.531 140.941 220.752 139.203 217.553 141.122C216.738 141.612 216.148 142.228 215.716 142.811L214.146 142.959C214.004 142.53 213.873 142.002 213.823 141.392C213.681 139.61 214.332 138.225 214.688 137.587C214.502 137.119 214.102 135.937 214.381 134.447C214.644 133.1 215.327 132.204 215.661 131.824C215.377 131.67 212.965 130.34 212.527 127.524C212.008 124.22 214.704 122.042 214.852 121.927C215.929 121.069 217.46 120.954 220.528 120.728C221.359 120.662 222.114 120.635 222.792 120.635Z" fill="#F4F3F1"/>
<path d="M271.102 78.6801C273.885 79.9338 276.713 79.9393 278.944 79.5928C279.146 79.5599 281.301 79.2519 283.275 78.3117C289.931 75.1335 291.681 66.1267 291.872 65.0435C292.517 65.5384 293.223 65.8738 293.945 66.0662C295.799 66.5666 297.757 66.1047 299.014 64.8235C299.649 64.1747 300.086 63.3389 300.3 62.4536C300.606 61.1725 300.442 59.7758 299.714 58.6816C299.572 58.4561 298.544 56.955 296.794 56.8285C294.885 56.6911 292.878 58.2527 292.2 60.7436C291.314 60.7985 290.434 60.8535 289.548 60.9085C290.084 60.2157 290.669 59.3304 291.172 58.2417C292.228 55.9598 292.441 53.8483 292.463 52.4956" stroke="#231F20" stroke-width="0.6" stroke-linecap="round" stroke-linejoin="round"/>
<path d="M265.462 47.4919C265.013 49.0095 259.911 67.045 266.468 75.0455C268.185 77.1405 270.362 78.3117 270.362 78.3117C270.608 78.4436 270.854 78.5646 271.1 78.6746" stroke="#231F20" stroke-width="0.6" stroke-linecap="round" stroke-linejoin="round"/>
<path d="M297.259 52.8585C296.094 52.963 294.366 52.996 292.458 52.4901C291.905 52.3527 291.337 52.1602 290.768 51.9183C287.607 50.5711 285.731 48.2012 284.326 45.5179C282.915 42.8345 281.974 39.8433 280.683 37.2479C279.672 35.2299 278.458 33.4539 276.642 32.2442C276.341 32.0407 276.029 31.8593 275.696 31.6888C268.001 27.8068 254.581 35.131 254.712 40.1347C254.794 43.2194 260.028 45.7048 265.458 47.4919" stroke="#231F20" stroke-width="0.6" stroke-linecap="round" stroke-linejoin="round"/>
<path d="M265.461 47.4919C266.057 46.7936 267.178 45.6608 268.923 44.8141C270.744 43.9233 272.395 43.7638 273.325 43.7418" stroke="#231F20" stroke-width="0.6" stroke-linecap="round" stroke-linejoin="round"/>
<path d="M279.862 43.7253C278.993 42.2957 277.401 41.5424 275.875 41.8228C274.492 42.0757 273.699 43.0875 273.321 43.7418C273.152 44.0332 273.07 44.2532 273.048 44.3027C272.507 45.7488 272.857 47.4204 273.945 48.6191C273.857 47.6073 274.103 46.887 274.289 46.4801C275.088 44.7481 277.161 43.6923 279.589 43.7198" stroke="#231F20" stroke-width="0.6" stroke-linecap="round" stroke-linejoin="round"/>
<path d="M279.862 43.7253C279.769 43.7198 279.676 43.7198 279.589 43.7198C277.697 43.7363 276.406 44.7811 276.346 45.7928C276.302 46.5461 276.958 47.1675 277.21 47.3874C277.144 47.0355 277.117 46.5846 277.248 46.1007C277.702 44.3687 279.687 43.7748 279.862 43.7253Z" stroke="#231F20" stroke-width="0.6" stroke-linecap="round" stroke-linejoin="round"/>
<path d="M279.867 43.7253C280.403 43.8243 281.005 43.9727 281.65 44.1927C282.755 44.5776 283.646 45.067 284.33 45.5179C284.363 45.5399 284.401 45.5619 284.434 45.5838" stroke="#231F20" stroke-width="0.6" stroke-linecap="round" stroke-linejoin="round"/>
<path d="M280.688 37.2479C281.655 38.4741 282.7 39.7113 283.816 40.9485C288.289 45.9303 292.938 49.8233 297.263 52.8585" stroke="#231F20" stroke-width="0.6" stroke-linecap="round" stroke-linejoin="round"/>
<path d="M276.68 32.1947C281.476 28.7361 287.563 28.4446 292.359 30.82C294.081 31.6668 295.635 32.86 296.903 34.3722C301.153 39.4364 301.393 47.1455 297.264 52.8585" stroke="#231F20" stroke-width="0.6" stroke-linecap="round" stroke-linejoin="round"/>
<path d="M292.359 30.8145C293.672 31.2489 299.37 33.3054 302.46 39.2989C306.901 47.9318 301.733 56.5701 301.454 57.0155" stroke="#231F20" stroke-width="0.6" stroke-linecap="round" stroke-linejoin="round"/>
<path d="M297.258 52.8585C297.734 53.2709 298.215 53.7053 298.702 54.1672C299.719 55.1295 300.632 56.0862 301.447 57.0155" stroke="#231F20" stroke-width="0.6" stroke-linecap="round" stroke-linejoin="round"/>
<path d="M293.945 66.0662C294.049 66.7041 294.224 67.4684 294.525 68.3042C294.842 69.1949 295.225 69.9373 295.57 70.5146C295.903 70.3222 296.215 70.1187 296.51 69.8988C298.993 68.0512 300.24 65.2414 300.858 62.5856C301.367 60.4246 301.454 58.3681 301.454 57.0155" stroke="#231F20" stroke-width="0.6" stroke-linecap="round" stroke-linejoin="round"/>
<path d="M295.562 70.5146C295.71 71.114 295.863 71.7188 296.033 72.3292C296.312 73.3409 296.607 74.3307 296.913 75.2819C297.307 76.5136 297.728 77.6903 298.16 78.8175" stroke="#231F20" stroke-width="0.6" stroke-linecap="round" stroke-linejoin="round"/>
<path d="M271.102 78.6746C271.566 79.8678 272.009 81.1215 272.42 82.4411C272.934 84.0907 273.344 85.6963 273.672 87.2579C274.142 89.4409 274.448 91.5194 274.64 93.4659C274.706 94.1092 274.76 94.7361 274.798 95.3519" stroke="#231F20" stroke-width="0.6" stroke-linecap="round" stroke-linejoin="round"/>
<path d="M275.133 64.6091C275.576 64.6531 276.352 64.6696 277.216 64.3342C278.72 63.7568 279.426 62.5306 279.623 62.1567" stroke="#231F20" stroke-width="0.6" stroke-linecap="round" stroke-linejoin="round"/>
<path d="M276.586 50.846C276.865 50.7196 277.275 50.5766 277.778 50.5491C278.954 50.4831 279.807 51.099 280.075 51.3079" stroke="#231F20" stroke-width="0.6" stroke-linecap="round" stroke-linejoin="round"/>
<path d="M267.102 50.0322C267.337 49.5264 267.84 49.2184 268.37 49.2459C269.07 49.2789 269.426 49.8783 269.453 49.9223" stroke="#231F20" stroke-width="0.6" stroke-linecap="round" stroke-linejoin="round"/>
<path d="M295.321 62.3546C295.294 62.2722 294.966 61.079 295.792 60.1057C296.656 59.0885 297.968 59.2974 298.029 59.3084" stroke="#231F20" stroke-width="0.6" stroke-linecap="round" stroke-linejoin="round"/>
<path d="M274.398 101.587C274.42 101.45 274.437 101.318 274.459 101.186C275.077 97.2269 276.072 96.8585 276.416 96.798C277.368 96.6496 278.227 98.2167 281.032 102.313C282.525 104.491 283.777 106.228 284.565 107.317C285.106 106.668 285.987 105.618 287.092 104.342C287.956 103.341 288.803 102.379 289.624 101.455C296.132 94.1367 301.103 89.2759 302.678 85.7073C303.225 84.4811 303.367 83.4089 303.039 82.4411C302.907 82.0727 302.536 81.3524 301.792 79.9173C300.233 76.9095 299.61 76.2552 298.871 75.8373C298.133 75.4194 297.4 75.3094 296.914 75.2819" stroke="#231F20" stroke-width="0.6" stroke-linecap="round" stroke-linejoin="round"/>
<path d="M298.292 77.2779C298.335 77.3274 298.417 77.4154 298.472 77.5474C298.647 77.9598 298.483 78.4601 298.264 78.867C298.1 79.164 297.914 79.4169 297.805 79.5598C296.476 81.3249 277.428 96.0282 276.422 96.798" stroke="#231F20" stroke-width="0.6" stroke-linecap="round" stroke-linejoin="round"/>
<path d="M274.401 101.587C273.816 100.675 272.892 99.3659 271.552 97.9583C270.682 97.0455 269.807 96.1327 268.965 95.4729C268.035 94.7361 267.149 94.3127 266.351 94.5491C265.793 94.7196 265.181 95.7148 263.977 97.7053C263.66 98.2332 263.387 98.6841 263.168 99.058C262.649 99.9488 262.419 100.427 262.539 100.537C262.643 100.636 262.988 100.515 263.852 99.8718C264.71 99.2394 266.077 98.0902 268.238 96.1382C268.467 95.9238 268.708 95.7093 268.96 95.4784" stroke="#231F20" stroke-width="0.6" stroke-linecap="round" stroke-linejoin="round"/>
<path d="M266.352 94.5491C267.177 93.9113 268.025 93.1965 268.884 92.4156C270.803 90.6561 272.378 88.8965 273.669 87.2579H273.674" stroke="#231F20" stroke-width="0.6" stroke-linecap="round" stroke-linejoin="round"/>
<path d="M274.462 101.186C274.112 100.587 273.166 98.7831 273.5 96.4406C273.697 95.0605 274.255 94.0377 274.637 93.4659V93.4604" stroke="#231F20" stroke-width="0.6" stroke-linecap="round" stroke-linejoin="round"/>
<path d="M313.288 90.5131C312.615 89.6004 311.1 87.8463 308.978 87.6538C308.377 87.5989 307.753 87.6758 307.13 87.8683C305.052 88.5116 302.995 90.4691 301.776 93.3889C301.36 94.3842 301.043 95.4894 300.852 96.6936" stroke="#231F20" stroke-width="0.6" stroke-linecap="round" stroke-linejoin="round"/>
<path d="M310.781 89.3969C311.618 89.7488 312.455 90.1227 313.286 90.5186C313.669 90.7001 314.052 90.8815 314.429 91.074C333.882 100.829 344.655 119.628 350.676 135.426C351.032 136.361 351.371 137.279 351.694 138.186" stroke="#231F20" stroke-width="0.6" stroke-linecap="round" stroke-linejoin="round"/>
<path d="M310.263 100.009C309.788 99.146 309.181 97.8153 308.858 96.0942C308.535 94.3842 308.617 92.9325 308.748 91.9593" stroke="#231F20" stroke-width="0.6" stroke-linecap="round" stroke-linejoin="round"/>
<path d="M301.776 93.3889C300.748 94.4666 299.348 96.0722 297.987 98.2167C295.214 102.572 293.901 107.064 293.311 111.023C293.059 112.706 292.939 114.289 292.895 115.73C292.846 117.451 292.895 118.957 292.955 120.173C292.972 120.53 292.994 120.86 293.01 121.162C294.306 143.877 313.206 166.955 318.538 164.668C319.758 164.145 321.021 161.973 320.13 153.538" stroke="#231F20" stroke-width="0.6" stroke-linecap="round" stroke-linejoin="round"/>
<path d="M284.352 120.239C284.472 118.842 284.652 117.352 284.926 115.785C285.041 115.108 285.172 114.416 285.325 113.712C285.495 112.926 285.675 112.161 285.877 111.419C286.905 107.482 288.284 104.139 289.624 101.455" stroke="#231F20" stroke-width="0.6" stroke-linecap="round" stroke-linejoin="round"/>
<path d="M302.68 85.7073C303.21 85.9218 303.752 86.1582 304.309 86.4111C305.327 86.884 306.267 87.3734 307.126 87.8683" stroke="#231F20" stroke-width="0.6" stroke-linecap="round" stroke-linejoin="round"/>
<path d="M258.93 123.12C259.045 122.108 259.192 121.069 259.367 119.991C259.63 118.397 259.958 116.731 260.379 115.009L260.445 114.746C262.375 106.982 265.432 100.741 268.238 96.1382" stroke="#231F20" stroke-width="0.6" stroke-linecap="round" stroke-linejoin="round"/>
<path d="M267.259 177.397C266.127 176.875 264.919 176.242 263.737 175.472C261.096 173.757 258.597 171.37 257.415 168.044C256.595 165.723 257.082 164.827 257.104 161.187C257.104 160.819 257.104 160.423 257.093 159.994C257.032 157.167 256.726 154.957 256.322 153.005C255.343 148.326 253.773 145.12 253.522 138.351C253.472 136.982 253.489 135.75 253.543 134.601C253.636 132.71 253.839 131.016 254.063 129.212C254.238 127.794 254.484 126.144 254.845 124.291C254.872 124.137 254.905 123.978 254.938 123.818C255.124 122.884 255.337 121.899 255.589 120.866C255.933 119.452 256.338 117.951 256.819 116.379C258.307 111.518 260.527 105.926 263.852 99.8773" stroke="#231F20" stroke-width="0.6" stroke-linecap="round" stroke-linejoin="round"/>
<path d="M254.82 124.297C254.82 124.297 254.837 124.297 254.842 124.297C256.204 124.005 257.582 123.725 258.993 123.466C260.841 123.109 262.734 122.785 264.664 122.477C266.622 122.169 268.558 121.894 270.467 121.657C275.274 121.047 279.917 120.651 284.363 120.426C287.311 120.272 290.176 120.195 292.949 120.178" stroke="#231F20" stroke-width="0.6" stroke-linecap="round" stroke-linejoin="round"/>
<path d="M320.734 152.395C322.479 148.848 322.938 145.439 323.053 143.206" stroke="#231F20" stroke-width="0.6" stroke-linecap="round" stroke-linejoin="round"/>
<path d="M316.914 157.816C317.713 156.997 318.527 156.024 319.298 154.88C319.599 154.435 319.878 153.984 320.13 153.538C320.348 153.159 320.551 152.78 320.737 152.4" stroke="#231F20" stroke-width="0.6" stroke-linecap="round" stroke-linejoin="round"/>
<path d="M320.73 152.395C321.413 154.105 322.95 158.63 321.452 163.909C321.298 164.448 321.129 164.959 320.938 165.437C320.314 167.032 319.538 168.297 318.859 169.237" stroke="#231F20" stroke-width="0.6" stroke-linecap="round" stroke-linejoin="round"/>
<path d="M257.2 146.181C257.391 147.446 257.539 148.788 257.632 150.206C257.905 154.358 257.605 158.069 257.102 161.187" stroke="#231F20" stroke-width="0.6" stroke-linecap="round" stroke-linejoin="round"/>
<path d="M271.805 176.523C272.406 177.1 273.484 177.969 275.053 178.48C277.826 179.393 280.232 178.568 280.998 178.266" stroke="#231F20" stroke-width="0.6" stroke-linecap="round" stroke-linejoin="round"/>
<path d="M285.875 111.419H285.88C286.712 111.281 287.592 111.166 288.533 111.083C290.283 110.935 291.885 110.941 293.307 111.023" stroke="#231F20" stroke-width="0.6" stroke-linecap="round" stroke-linejoin="round"/>
<path d="M284.922 115.785H284.927C285.469 115.774 286.005 115.768 286.552 115.763C288.679 115.735 290.795 115.724 292.89 115.73" stroke="#231F20" stroke-width="0.6" stroke-linecap="round" stroke-linejoin="round"/>
<path d="M256.82 116.379L260.381 115.009" stroke="#231F20" stroke-width="0.6" stroke-linecap="round" stroke-linejoin="round"/>
<path d="M255.586 120.866C256.844 120.574 258.107 120.283 259.365 119.991" stroke="#231F20" stroke-width="0.6" stroke-linecap="round" stroke-linejoin="round"/>
<path d="M274.401 101.587C274.007 102.539 273.635 103.528 273.28 104.557C271.163 110.765 270.485 116.632 270.469 121.646" stroke="#231F20" stroke-width="0.6" stroke-linecap="round" stroke-linejoin="round"/>
<path d="M288.891 124.643C288.415 125.528 287.917 126.601 287.485 127.854C287.102 128.965 286.845 129.993 286.676 130.901C279.277 130.631 270.734 131.093 261.47 133.072C260.114 133.364 258.79 133.672 257.5 134.007C256.756 134.194 256.029 134.392 255.307 134.596C255.268 133.578 255.329 132.22 255.739 130.681C255.968 129.817 256.258 129.069 256.548 128.454C259.687 127.827 262.947 127.249 266.321 126.749C274.333 125.55 281.891 124.907 288.891 124.643Z" stroke="#231F20" stroke-width="0.6" stroke-linecap="round" stroke-linejoin="round"/>
<path d="M288.891 124.643C289.126 126.188 289.377 127.75 289.651 129.322C291.352 139.159 293.621 148.375 296.246 156.948" stroke="#231F20" stroke-width="0.6" stroke-linecap="round" stroke-linejoin="round"/>
<path d="M261.75 160.428C264.506 160.885 267.547 161.214 270.834 161.297C281.317 161.566 290.062 159.262 296.253 156.948" stroke="#231F20" stroke-width="0.6" stroke-linecap="round" stroke-linejoin="round"/>
<path d="M257.5 134.007C257.735 137.312 258.091 140.798 258.605 144.438C259.425 150.25 260.524 155.595 261.744 160.428" stroke="#231F20" stroke-width="0.6" stroke-linecap="round" stroke-linejoin="round"/>
<path d="M280.891 169.347C282.444 170.738 284.85 172.652 288.137 174.351C291.445 176.061 293.42 177.083 295.383 176.418C299.288 175.093 299.802 168.247 299.818 167.934" stroke="#231F20" stroke-width="0.6" stroke-linecap="round" stroke-linejoin="round"/>
<path d="M308.688 128.668C309.245 129.795 309.918 130.967 310.744 132.149C314.736 137.873 320.117 140.798 323.617 142.266" stroke="#231F20" stroke-width="0.6" stroke-linecap="round" stroke-linejoin="round"/>
<path d="M301.766 129.102C302.001 129.9 302.892 132.567 305.599 134.387C309.11 136.746 312.878 135.794 313.463 135.635" stroke="#231F20" stroke-width="0.6" stroke-linecap="round" stroke-linejoin="round"/>
<path d="M303.07 139.544C303.803 140.661 305.684 143.168 309.124 144.768C312.236 146.209 315.047 146.17 316.376 146.071" stroke="#231F20" stroke-width="0.6" stroke-linecap="round" stroke-linejoin="round"/>
<path d="M321.961 141.518C322.158 141.837 322.568 142.437 323.241 143.025C323.645 143.377 324.148 143.723 324.761 144.004C325.023 144.125 326.352 144.735 327.517 144.675C327.802 144.658 328.081 144.603 328.327 144.493C330.235 143.63 330.284 139.467 329.732 134.106C329.245 129.322 328.195 122.708 325.734 114.801" stroke="#231F20" stroke-width="0.6" stroke-linecap="round" stroke-linejoin="round"/>
<path d="M324.76 140.798C324.979 140.078 325.176 139.33 325.351 138.566C327.177 130.637 325.81 123.285 323.891 117.682" stroke="#231F20" stroke-width="0.6" stroke-linecap="round" stroke-linejoin="round"/>
<path d="M327.516 144.675C327.483 144.779 327.335 145.29 327.494 145.851C327.532 145.994 327.592 146.143 327.68 146.286C328.063 146.929 328.834 147.286 329.654 147.198C329.731 147.187 329.813 147.176 329.895 147.16" stroke="#231F20" stroke-width="0.6" stroke-linecap="round" stroke-linejoin="round"/>
<path d="M327.491 145.851C327.152 146.544 326.725 147.682 326.807 149.062C326.999 152.213 329.678 154.198 330.214 154.556C330.619 154.825 331.084 155.012 331.603 155.122C335.628 156.007 342.793 152.219 349.902 145.037" stroke="#231F20" stroke-width="0.6" stroke-linecap="round" stroke-linejoin="round"/>
<path d="M329.57 148.139C329.734 148.012 329.904 147.886 330.073 147.759C330.248 147.627 330.423 147.501 330.598 147.374C335.252 144.031 341.678 140.765 350.445 139.165" stroke="#231F20" stroke-width="0.6" stroke-linecap="round" stroke-linejoin="round"/>
<path d="M349.742 140.034C349.983 139.781 350.245 139.522 350.53 139.258C350.787 139.011 351.066 138.764 351.361 138.511C351.481 138.412 351.596 138.313 351.716 138.219C352.214 137.818 352.695 137.466 353.149 137.152" stroke="#231F20" stroke-width="0.6" stroke-linecap="round" stroke-linejoin="round"/>
<path d="M350.672 135.426C351.361 135.277 352.444 135.14 353.691 135.409C355.949 135.91 358.809 137.779 359.154 140.743C359.263 141.694 359.105 142.662 358.717 143.569C357.902 145.494 356.064 147.121 353.636 147.649" stroke="#231F20" stroke-width="0.6" stroke-linecap="round" stroke-linejoin="round"/>
<path d="M331.608 155.122C331.537 155.595 331.498 156.348 331.898 157.003C332.187 157.475 332.827 158.086 334.572 158.295C334.829 158.328 335.108 158.35 335.414 158.361C341.348 158.592 348.342 155.1 348.342 155.1C350.951 153.797 353.39 152.576 355.271 151.229C357.366 149.733 358.777 148.078 358.99 145.967C359.089 144.972 358.897 144.13 358.722 143.569" stroke="#231F20" stroke-width="0.6" stroke-linecap="round" stroke-linejoin="round"/>
<path d="M230.578 122.433L230.802 116.863C230.884 114.927 231.94 113.184 233.586 112.178C236.227 110.55 238.098 107.74 238.398 104.403C238.71 100.917 237.239 97.6833 234.745 95.6103C234.089 95.066 233.094 95.4729 233.017 96.3252L232.355 103.655L228.09 105.634L224.251 102.913L224.912 95.5884C224.989 94.7306 224.081 94.1532 223.337 94.5711C220.515 96.1602 218.492 99.0745 218.175 102.561C217.874 105.898 219.214 109 221.522 111.078C222.954 112.37 223.687 114.273 223.419 116.186L222.796 120.635" stroke="#231F20" stroke-width="0.6" stroke-linecap="round" stroke-linejoin="round"/>
<path d="M229.625 146.071L229.789 142.002V141.997" stroke="#231F20" stroke-width="0.6" stroke-linecap="round" stroke-linejoin="round"/>
<path d="M218.941 148.111L218.443 151.636L217.666 157.178C217.207 160.461 219.575 163.463 222.856 163.76C226.143 164.057 229.009 161.533 229.14 158.223L229.403 151.773L229.539 148.342" stroke="#231F20" stroke-width="0.6" stroke-linecap="round" stroke-linejoin="round"/>
<path d="M223.119 160.802C222.157 160.714 221.451 159.862 221.539 158.894C221.626 157.932 222.474 157.217 223.436 157.305C224.393 157.393 225.104 158.245 225.017 159.213C224.929 160.181 224.082 160.89 223.119 160.802Z" stroke="#231F20" stroke-width="0.6" stroke-linecap="round" stroke-linejoin="round"/>
<path d="M253.541 134.601C252.223 134.772 250.746 134.882 249.138 134.871C245.496 134.838 242.406 134.178 240.055 133.452" stroke="#231F20" stroke-width="0.6" stroke-linecap="round" stroke-linejoin="round"/>
<path d="M236.7 138.621C237.197 138.214 237.865 137.592 238.488 136.718C239.292 135.585 239.751 134.431 240.014 133.441C240.32 132.292 240.364 131.362 240.38 130.95C240.583 126.491 237.788 120.503 234.321 120.349C232.91 120.283 231.647 121.195 230.575 122.433C230.378 122.658 230.186 122.895 230.006 123.142C228.896 124.621 228.043 126.348 227.507 127.42C225.188 132.094 224.247 138.131 225.27 141.089C225.532 141.865 225.932 142.426 226.478 142.701C226.943 142.932 227.479 142.937 228.021 142.805C228.622 142.662 229.24 142.349 229.787 142.002C230.717 141.414 231.455 140.732 231.619 140.578C233.522 138.808 234.222 136.553 234.441 134.706C234.654 132.924 234.419 131.516 234.375 131.28" stroke="#231F20" stroke-width="0.6" stroke-linecap="round" stroke-linejoin="round"/>
<path d="M236.105 132.418C235.996 132.759 235.794 133.265 235.4 133.782C235.066 134.222 234.705 134.519 234.438 134.706" stroke="#231F20" stroke-width="0.6" stroke-linecap="round" stroke-linejoin="round"/>
<path d="M230.006 123.142C229.787 122.862 229.426 122.438 228.906 122.026C228.403 121.624 226.992 120.624 222.792 120.635C222.114 120.635 221.359 120.662 220.528 120.728C217.46 120.954 215.929 121.069 214.852 121.927C214.704 122.042 212.008 124.22 212.527 127.524C212.965 130.34 215.377 131.67 215.661 131.824C215.327 132.204 214.644 133.1 214.381 134.447C214.102 135.937 214.502 137.119 214.688 137.587C214.332 138.225 213.681 139.61 213.823 141.392C213.873 142.002 214.004 142.53 214.146 142.959C214.168 143.019 214.19 143.08 214.212 143.135C213.905 143.564 213.298 144.537 213.282 145.851C213.255 147.754 214.48 149.04 215.065 149.662C216.273 150.932 217.679 151.438 218.439 151.636H218.445" stroke="#231F20" stroke-width="0.6" stroke-linecap="round" stroke-linejoin="round"/>
<path d="M217.719 148.029C218.08 148.078 218.49 148.117 218.938 148.111C219.288 148.111 219.655 148.089 220.043 148.029C221.388 147.836 222.482 147.33 223.308 146.814C223.926 146.423 224.396 146.027 224.697 145.747" stroke="#231F20" stroke-width="0.6" stroke-linecap="round" stroke-linejoin="round"/>
<path d="M215.719 142.811C216.151 142.228 216.741 141.612 217.556 141.122C220.756 139.203 224.534 140.941 225.021 141.177" stroke="#231F20" stroke-width="0.6" stroke-linecap="round" stroke-linejoin="round"/>
<path d="M235.68 147.809C235.849 146.506 235.964 145.043 235.964 143.459C235.964 142.69 235.942 141.953 235.893 141.249" stroke="#231F20" stroke-width="0.6" stroke-linecap="round" stroke-linejoin="round"/>
<path d="M229.391 151.773H229.396C230.255 151.663 231.321 151.454 232.497 151.036C233.788 150.58 234.827 150.014 235.598 149.513C237.572 150.008 239.612 150.47 241.728 150.894C246.885 151.927 251.769 152.598 256.319 153.005" stroke="#231F20" stroke-width="0.6" stroke-linecap="round" stroke-linejoin="round"/>
<path d="M217.648 131.098C218.458 130.917 219.573 130.752 220.891 130.807C222.231 130.868 223.341 131.131 224.14 131.39" stroke="#231F20" stroke-width="0.6" stroke-linecap="round" stroke-linejoin="round"/>
<path d="M223.305 146.814C223.523 147.198 224.24 148.353 225.722 149.008C227.144 149.634 228.418 149.425 228.856 149.332C229.096 149.101 229.271 148.859 229.397 148.628C229.446 148.535 229.49 148.441 229.534 148.342C229.824 147.622 229.796 146.83 229.616 146.071C229.238 144.444 228.161 142.992 228.019 142.805" stroke="#231F20" stroke-width="0.6" stroke-linecap="round" stroke-linejoin="round"/>
<path d="M226.445 123.483C226.51 124.038 226.543 124.891 226.297 125.875C225.93 127.343 225.143 128.316 224.711 128.778" stroke="#231F20" stroke-width="0.6" stroke-linecap="round" stroke-linejoin="round"/>
<path d="M263.184 99.0415L263.168 99.058C262.047 100.075 260.937 101.268 259.903 102.676C254.106 110.545 254.5 119.81 254.932 123.818" stroke="#231F20" stroke-width="0.6" stroke-linecap="round" stroke-linejoin="round"/>
<path d="M355.268 151.229C355.394 152.615 355.487 154.05 355.53 155.534C355.733 162.034 355.055 167.895 354.016 172.938" stroke="#231F20" stroke-width="0.6" stroke-linecap="round" stroke-linejoin="round"/>
<path d="M334.57 158.295C335.03 160.148 335.451 162.408 335.626 164.998C335.801 167.521 335.713 169.765 335.522 171.629" stroke="#231F20" stroke-width="0.6" stroke-linecap="round" stroke-linejoin="round"/>
<path d="M335.522 171.629C333.351 174.494 331.279 176.457 329.786 177.721C329.118 178.293 328.533 178.755 328.03 179.156C326.69 180.223 325.886 180.883 325.35 182.071C324.639 183.66 324.377 186.338 326.991 190.968" stroke="#231F20" stroke-width="0.6" stroke-linecap="round" stroke-linejoin="round"/>
<path d="M330.438 185.661C330.547 186.079 330.766 186.64 331.192 187.184C331.422 187.465 331.673 187.701 331.93 187.894C333.106 188.763 334.479 188.807 334.763 188.818" stroke="#231F20" stroke-width="0.6" stroke-linecap="round" stroke-linejoin="round"/>
<path d="M331.93 187.894C331.963 188.57 332.039 189.378 332.209 190.286C332.323 190.913 332.482 191.589 332.706 192.298C333.078 193.486 333.543 194.503 333.997 195.339C334.205 195.724 334.407 196.07 334.604 196.373" stroke="#231F20" stroke-width="0.6" stroke-linecap="round" stroke-linejoin="round"/>
<path d="M341.359 198.49C341.6 197.951 341.786 197.368 341.901 196.752" stroke="#231F20" stroke-width="0.6" stroke-linecap="round" stroke-linejoin="round"/>
<path d="M330.629 196.153C330.618 196.395 330.498 199.446 332.926 201.211C333.128 201.365 334.791 202.537 336.929 202.196C337.542 202.097 338.132 201.882 338.679 201.569C339.817 200.915 340.768 199.837 341.359 198.49" stroke="#231F20" stroke-width="0.6" stroke-linecap="round" stroke-linejoin="round"/>
<path d="M341.359 198.49C341.693 198.715 342.513 199.177 343.629 199.149C345.406 199.1 346.484 197.835 346.659 197.626" stroke="#231F20" stroke-width="0.6" stroke-linecap="round" stroke-linejoin="round"/>
<path d="M343.852 197.659C344.541 197.709 345.509 197.736 346.663 197.626C347.122 197.582 349.517 197.329 351.825 196.373C352.552 196.07 353.274 195.702 353.925 195.24L354.089 195.124C355.888 193.788 356.928 191.869 357.474 189.758C358.847 184.441 357.086 177.903 356.468 176.418C355.774 174.736 354.669 173.586 354.669 173.586C354.439 173.35 354.215 173.146 353.996 172.965C353.635 172.668 353.302 172.443 353.045 172.283" stroke="#231F20" stroke-width="0.6" stroke-linecap="round" stroke-linejoin="round"/>
<path d="M328.66 204.153L327.681 197.67C327.555 196.84 328.135 196.076 328.966 195.977L330.585 195.784L333.899 195.394" stroke="#231F20" stroke-width="0.6" stroke-linecap="round" stroke-linejoin="round"/>
<path d="M324.526 191.528C323.214 192.249 322.415 193.744 322.65 195.322L324.1 204.995" stroke="#231F20" stroke-width="0.6" stroke-linecap="round" stroke-linejoin="round"/>
<path d="M331.931 190.335L326.993 190.968L325.817 191.116C325.391 191.171 324.986 191.297 324.625 191.484" stroke="#231F20" stroke-width="0.6" stroke-linecap="round" stroke-linejoin="round"/>
<path d="M324.625 191.484L324.526 191.528L321.759 192.854C320.288 193.557 319.44 195.135 319.648 196.758L320.403 202.603L320.742 205.253" stroke="#231F20" stroke-width="0.6" stroke-linecap="round" stroke-linejoin="round"/>
<path d="M318.032 205.814L295.511 208.86C294.073 209.052 293.056 210.378 293.231 211.824L294.696 224.058L294.882 225.631L298.174 253.146C298.377 254.862 299.924 256.088 301.631 255.89L309.309 254.988L323.889 253.283L356.866 249.423L387.436 245.844C389.635 245.585 391.188 243.556 390.876 241.357L386.84 212.874L385.112 200.7C384.811 198.545 382.837 197.049 380.693 197.335L359.288 200.233L354.891 200.827L352.644 201.129L339.223 202.944L328.685 204.373L324.097 204.995L320.766 205.445L318.032 205.814Z" stroke="#231F20" stroke-width="0.6" stroke-linecap="round" stroke-linejoin="round"/>
<path d="M318.031 205.814L320.044 222.139L323.888 253.283" stroke="#231F20" stroke-width="0.6" stroke-linecap="round" stroke-linejoin="round"/>
<path d="M357.477 189.758L359.292 200.233" stroke="#231F20" stroke-width="0.6" stroke-linecap="round" stroke-linejoin="round"/>
<path d="M353.922 195.24L354.89 200.827" stroke="#231F20" stroke-width="0.6" stroke-linecap="round" stroke-linejoin="round"/>
<path d="M351.82 196.373L352.641 201.129" stroke="#231F20" stroke-width="0.6" stroke-linecap="round" stroke-linejoin="round"/>
<path d="M343.355 218.906L344.033 223.591C344.208 224.795 343.377 225.922 342.173 226.098L335.392 227.088C334.189 227.264 333.073 226.428 332.898 225.218L332.209 220.451L331.64 216.536C331.465 215.332 332.297 214.205 333.5 214.029L340.281 213.039C341.479 212.863 342.6 213.699 342.775 214.909L343.355 218.906Z" stroke="#231F20" stroke-width="0.6" stroke-linecap="round" stroke-linejoin="round"/>
<path d="M376.596 214.293L377.181 218.312C377.356 219.516 376.519 220.638 375.322 220.82L368.54 221.809C367.337 221.985 366.222 221.149 366.047 219.94L365.451 215.843L364.789 211.257C364.614 210.048 365.445 208.926 366.648 208.75L373.424 207.76C374.627 207.584 375.743 208.42 375.918 209.63L376.596 214.293Z" stroke="#231F20" stroke-width="0.6" stroke-linecap="round" stroke-linejoin="round"/>
<path d="M294.883 225.631L320.045 222.139L332.208 220.451L343.353 218.906L365.452 215.843L376.598 214.293L386.841 212.874" stroke="#231F20" stroke-width="0.6" stroke-linecap="round" stroke-linejoin="round"/>
<path d="M263.738 175.472C263.268 176.072 262.743 176.93 262.502 178.046C262.202 179.453 262.47 180.762 262.929 181.856C263.678 183.638 264.931 184.848 265.1 185.007" stroke="#231F20" stroke-width="0.6" stroke-linecap="round" stroke-linejoin="round"/>
<path d="M262.926 181.856C261.629 182.654 260.88 183.566 260.443 184.248C258.25 187.652 259.606 191.88 260.497 193.92C260.804 194.613 261.055 195.058 261.093 195.124" stroke="#231F20" stroke-width="0.6" stroke-linecap="round" stroke-linejoin="round"/>
<path d="M260.503 193.92C259.978 195.834 259.453 197.758 258.934 199.694C253.869 218.538 252.333 222.365 251.365 229.386C251.261 230.134 251.157 230.981 251.053 231.921C250.741 234.841 250.495 238.668 250.605 243.199" stroke="#231F20" stroke-width="0.6" stroke-linecap="round" stroke-linejoin="round"/>
<path d="M320.938 165.437C321.298 167.257 321.922 168.522 322.425 169.347C323.377 170.909 324.044 171.871 324.804 172.938C325.766 174.279 326.991 176.297 328.025 179.156" stroke="#231F20" stroke-width="0.6" stroke-linecap="round" stroke-linejoin="round"/>
<path d="M292.573 184.358C292.43 182.362 292.283 180.366 292.141 178.376" stroke="#231F20" stroke-width="0.6" stroke-linecap="round" stroke-linejoin="round"/>
<path d="M299.497 176.418C299.415 177.232 299.393 178.552 299.929 180.003C300.558 181.713 301.997 183.737 302.85 183.484C303.577 183.269 303.818 181.411 303.61 179.134" stroke="#231F20" stroke-width="0.6" stroke-linecap="round" stroke-linejoin="round"/>
<path d="M307.828 173.586C310.005 178.337 310.803 179.448 311.071 179.354C311.531 179.184 310.404 175.538 311.29 175.109C312.121 174.714 313.866 177.567 314.752 177.177C315.342 176.919 315.271 175.346 314.965 173.482" stroke="#231F20" stroke-width="0.6" stroke-linecap="round" stroke-linejoin="round"/>
<path d="M285.219 202.735C285.366 204.632 285.684 206.765 286.302 209.047C288.03 215.475 291.3 220.171 293.898 223.162C294.171 223.481 294.439 223.778 294.696 224.058" stroke="#231F20" stroke-width="0.6" stroke-linecap="round" stroke-linejoin="round"/>
<path d="M292.248 222.86C291.843 222.634 291.439 222.414 291.045 222.2C286.85 219.896 283.361 218.043 280.758 216.679C278.286 215.387 276.044 214.232 275.694 214.7C275.306 215.216 277.444 217.432 277.641 217.636C278.625 218.659 280.233 220.022 282.836 221.177M282.836 221.177C284.783 222.046 287.293 222.799 290.514 223.184C287.982 222.546 285.423 221.881 282.836 221.177ZM282.836 221.177C280.233 220.468 277.597 219.725 274.939 218.945C272.631 218.268 270.362 217.575 268.125 216.877" stroke="#231F20" stroke-width="0.6" stroke-linecap="round" stroke-linejoin="round"/>
<path d="M279.156 270.17C281.251 265.76 283.302 260.971 285.216 255.813C289.618 243.936 292.281 232.845 293.895 223.162" stroke="#231F20" stroke-width="0.6" stroke-linecap="round" stroke-linejoin="round"/>
<path d="M251.053 231.921C250.741 232.24 250.298 232.724 249.812 233.34C246.18 237.92 245.125 243.435 244.983 249.72C244.671 263.159 244.49 270.994 250.462 275.679C257.78 281.431 268.422 277.796 269.067 277.565C274.503 275.624 277.763 271.968 279.163 270.17" stroke="#231F20" stroke-width="0.6" stroke-linecap="round" stroke-linejoin="round"/>
<path d="M339.227 202.949C339.046 202.487 338.86 202.025 338.68 201.569" stroke="#231F20" stroke-width="0.6" stroke-linecap="round" stroke-linejoin="round"/>
<path d="M310.68 186.349C310.822 187.877 311.15 189.659 311.834 191.572C313.961 197.555 318.227 201.063 320.403 202.603" stroke="#231F20" stroke-width="0.6" stroke-linecap="round" stroke-linejoin="round"/>
<path d="M309.305 191.352C309.496 192.524 309.835 193.92 310.459 195.416C311.963 199.006 314.314 201.299 315.796 202.52" stroke="#231F20" stroke-width="0.6" stroke-linecap="round" stroke-linejoin="round"/>
<path d="M279.49 181.312C279.348 181.928 279.211 182.912 279.49 184.028C279.922 185.788 281.267 187.503 281.973 187.294C282.471 187.146 282.563 186.096 282.624 185.441C282.76 183.946 282.296 182.736 281.973 182.071" stroke="#231F20" stroke-width="0.6" stroke-linecap="round" stroke-linejoin="round"/>
<path d="M285.11 182.615C284.689 181.163 284.656 180.047 285.001 179.899C285.334 179.75 286.051 180.471 286.734 181.526" stroke="#231F20" stroke-width="0.6" stroke-linecap="round" stroke-linejoin="round"/>
<path d="M270.827 183.049C270.756 182.329 270.554 181.295 269.963 180.223C269.755 179.844 269.531 179.519 269.312 179.244" stroke="#231F20" stroke-width="0.6" stroke-linecap="round" stroke-linejoin="round"/>
<path d="M276.891 191.424C277.273 191.99 277.738 192.579 278.296 193.167C280.374 195.355 282.742 196.428 284.356 196.972" stroke="#231F20" stroke-width="0.6" stroke-linecap="round" stroke-linejoin="round"/>
<path d="M301.016 206.325C301.453 205.605 302.115 204.665 303.072 203.713C305.451 201.354 308.546 200.073 308.803 200.453C308.973 200.7 308.049 201.822 303.613 205.456" stroke="#231F20" stroke-width="0.6" stroke-linecap="round" stroke-linejoin="round"/>
</g>
</g>
<defs>
<clipPath id="clip0_9859_21677">
<rect width="384" height="240" rx="32" fill="white"/>
</clipPath>
<clipPath id="clip1_9859_21677">
<rect width="179" height="264" fill="white" transform="translate(212.188 29)"/>
</clipPath>
</defs>
</svg>
