<svg width="384" height="240" viewBox="0 0 384 240" fill="none" xmlns="http://www.w3.org/2000/svg">
<g clip-path="url(#clip0_9859_21944)">
<rect width="384" height="240" rx="32" fill="white"/>
<path d="M27.8223 58.1909V43.9721H31.0352L35.8105 54.226C35.9082 54.4344 36.0059 54.6459 36.1035 54.8608C36.2012 55.0691 36.276 55.2482 36.3281 55.3979H36.3867C36.4388 55.2482 36.5072 55.0691 36.5918 54.8608C36.6764 54.6459 36.7643 54.4344 36.8555 54.226L41.6895 43.9721H44.9707V58.1909H42.2949L42.3047 48.5424C42.3047 48.3406 42.3112 48.1258 42.3242 47.8979C42.3372 47.6635 42.3503 47.4487 42.3633 47.2534H42.2949C42.2493 47.4487 42.1908 47.6635 42.1191 47.8979C42.054 48.1258 41.9759 48.3406 41.8848 48.5424L37.373 58.1909H35.0684L30.5762 48.5424C30.4785 48.3471 30.3939 48.1355 30.3223 47.9077C30.2507 47.6733 30.1921 47.4552 30.1465 47.2534H30.0781C30.0911 47.4552 30.1042 47.6733 30.1172 47.9077C30.1367 48.1355 30.1465 48.3504 30.1465 48.5522V58.1909H27.8223ZM47.5488 51.3354V50.7983C47.5488 48.4285 48.2389 46.6512 49.6191 45.4663C50.9993 44.2748 52.7637 43.6791 54.9121 43.6791C57.054 43.6791 58.8184 44.2748 60.2051 45.4663C61.5983 46.6512 62.2949 48.4285 62.2949 50.7983V51.3354C62.2949 53.7247 61.5983 55.5151 60.2051 56.7065C58.8184 57.8914 57.054 58.4838 54.9121 58.4838C52.7637 58.4838 50.9993 57.8914 49.6191 56.7065C48.2389 55.5151 47.5488 53.7247 47.5488 51.3354ZM50.332 51.5014C50.332 53.1811 50.7487 54.4181 51.582 55.2123C52.4219 56.0001 53.5319 56.394 54.9121 56.394C56.2923 56.394 57.4056 56.0001 58.252 55.2123C59.0983 54.4181 59.5215 53.1811 59.5215 51.5014V50.6518C59.5215 48.9721 59.0983 47.7416 58.252 46.9604C57.4121 46.1726 56.2988 45.7788 54.9121 45.7788C53.5319 45.7788 52.4219 46.1726 51.582 46.9604C50.7487 47.7416 50.332 48.9689 50.332 50.642V51.5014ZM64.873 58.1909V43.9721H67.5879V49.8022H75.3223V43.9721H78.0273V58.1909H75.3223V51.9116H67.5879V58.1909H64.873ZM79.873 46.0815V43.9721H92.9492V46.0815H87.7734V58.1909H85.0586V46.0815H79.873ZM93.0371 58.1909L99.2188 43.9038H101.885L108.076 58.1909H105.127L101.016 48.1127C100.892 47.8198 100.788 47.5398 100.703 47.2729C100.618 46.9995 100.54 46.739 100.469 46.4916H100.371C100.293 46.739 100.212 46.9995 100.127 47.2729C100.042 47.5463 99.9414 47.8263 99.8242 48.1127L95.6836 58.1909H93.0371ZM95.8984 54.8608L96.6602 52.8393H104.316L105.078 54.8608H95.8984ZM117.041 58.1909V43.9721H119.727V58.1909H117.041ZM126.074 58.1909L120.576 51.394L122.705 49.9194L129.395 58.1909H126.074ZM118.389 49.812H121.113L126.094 43.9721H129.004L122.129 51.9213H118.389V49.812ZM107.5 58.1909L114.209 49.9584L116.201 51.394L110.693 58.1909H107.5ZM118.389 49.812V51.9213H114.463L107.666 43.9721H110.732L115.654 49.812H118.389ZM27.8223 81.1909V66.9721H30.5371V72.8022H38.2715V66.9721H40.9766V81.1909H38.2715V74.9116H30.5371V81.1909H27.8223ZM42.4512 81.1909L48.6328 66.9038H51.2988L57.4902 81.1909H54.541L50.4297 71.1127C50.306 70.8198 50.2018 70.5398 50.1172 70.2729C50.0326 69.9995 49.9544 69.739 49.8828 69.4916H49.7852C49.707 69.739 49.6257 69.9995 49.541 70.2729C49.4564 70.5463 49.3555 70.8263 49.2383 71.1127L45.0977 81.1909H42.4512ZM45.3125 77.8608L46.0742 75.8393H53.7305L54.4922 77.8608H45.3125ZM58.9746 81.1909V66.9721H65.1758C67.0052 66.9721 68.4049 67.3627 69.375 68.144C70.3516 68.9252 70.8398 70.0678 70.8398 71.5717C70.8398 73.0431 70.3548 74.1857 69.3848 74.9995C68.4147 75.8133 67.0085 76.2071 65.166 76.1811H61.6895V81.1909H58.9746ZM61.6895 74.1694H64.9316C66.1035 74.1694 66.9303 73.9448 67.4121 73.4956C67.8939 73.0398 68.1348 72.4018 68.1348 71.5815C68.1348 70.7547 67.8939 70.1232 67.4121 69.687C66.9303 69.2442 66.1035 69.0229 64.9316 69.0229H61.6895V74.1694ZM73.877 79.0229C74.0592 79.075 74.2578 79.1173 74.4727 79.1498C74.6875 79.1824 74.9056 79.1987 75.127 79.1987C75.6868 79.1987 76.1589 79.0717 76.543 78.8178C76.9336 78.5639 77.3177 78.1017 77.6953 77.4311L77.666 77.5092L71.3965 66.9721H74.5117L78.3691 73.7885C78.5514 74.1271 78.6784 74.381 78.75 74.5502C78.8281 74.713 78.9095 74.9051 78.9941 75.1264H79.0527C79.1374 74.9116 79.2155 74.7228 79.2871 74.56C79.3652 74.3907 79.4922 74.1368 79.668 73.7983L83.2422 66.9721H85.9863L80.3027 77.3725C79.4694 78.9025 78.7305 79.9702 78.0859 80.5756C77.4414 81.1746 76.569 81.4741 75.4688 81.4741C75.0651 81.4741 74.7461 81.4578 74.5117 81.4252C74.2839 81.3927 74.0723 81.3439 73.877 81.2788V79.0229ZM95.0488 81.1909V66.9721H97.7344V81.1909H95.0488ZM104.082 81.1909L98.584 74.394L100.713 72.9194L107.402 81.1909H104.082ZM96.3965 72.812H99.1211L104.102 66.9721H107.012L100.137 74.9213H96.3965V72.812ZM85.5078 81.1909L92.2168 72.9584L94.209 74.394L88.7012 81.1909H85.5078ZM96.3965 72.812V74.9213H92.4707L85.6738 66.9721H88.7402L93.6621 72.812H96.3965ZM108.584 81.1909V66.9721H111.299V72.8022H119.033V66.9721H121.738V81.1909H119.033V74.9116H111.299V81.1909H108.584ZM124.971 66.9721H127.686V72.1088H131.611C133.369 72.1088 134.671 72.532 135.518 73.3784C136.364 74.2247 136.787 75.312 136.787 76.6401C136.787 78.0463 136.364 79.1564 135.518 79.9702C134.671 80.784 133.369 81.1909 131.611 81.1909H124.971V66.9721ZM127.686 74.1596V79.1401H131.416C132.38 79.1401 133.063 78.922 133.467 78.4858C133.87 78.0431 134.072 77.4278 134.072 76.6401C134.072 75.9304 133.87 75.3413 133.467 74.8725C133.063 74.3972 132.38 74.1596 131.416 74.1596H127.686ZM138.584 81.1909H141.318V66.9721H138.584V81.1909ZM142.92 81.1909L148.945 73.2416L149.375 73.2221L153.779 66.9721H156.611L150.967 74.687L150.527 74.7163L145.801 81.1909H142.92ZM143.105 66.9721H146.328L150.791 73.1831L150.918 73.2026L156.982 81.1909H153.721L148.994 74.7553L148.896 74.7358L143.105 66.9721ZM163.057 74.3549V73.8081C163.057 71.4187 163.737 69.6349 165.098 68.4565C166.458 67.2716 168.213 66.6791 170.361 66.6791C172.347 66.6791 173.929 67.0991 175.107 67.9389C176.286 68.7722 176.937 70.0125 177.061 71.6596L177.08 71.8647H174.336L174.326 71.6498C174.235 70.6668 173.848 69.9441 173.164 69.4819C172.487 69.0131 171.543 68.7788 170.332 68.7788C168.991 68.7788 167.907 69.1759 167.08 69.9702C166.26 70.7644 165.85 71.9819 165.85 73.6225V74.5405C165.85 76.2527 166.26 77.4897 167.08 78.2514C167.907 79.0131 168.991 79.394 170.332 79.394C171.686 79.394 172.669 79.1303 173.281 78.603C173.893 78.0691 174.242 77.3725 174.326 76.5131L174.336 76.3081H177.08L177.07 76.5229C176.96 78.0463 176.335 79.254 175.195 80.1459C174.062 81.0379 172.454 81.4838 170.371 81.4838C168.21 81.4838 166.449 80.9044 165.088 79.7456C163.734 78.5802 163.057 76.7833 163.057 74.3549ZM179.092 81.1909V66.9721H189.902V69.0717H181.777V72.8608H188.906V74.9018H181.777V79.101H190.02V81.1909H179.092ZM190.928 69.0815V66.9721H204.004V69.0815H198.828V81.1909H196.113V69.0815H190.928ZM205.85 81.1909V66.9721H216.66V69.0717H208.535V72.8608H215.664V74.9018H208.535V79.101H216.777V81.1909H205.85ZM232.363 81.1909H229.707V71.6694C229.707 71.461 229.71 71.2332 229.717 70.9858C229.723 70.7319 229.733 70.504 229.746 70.3022H229.629C229.531 70.4975 229.434 70.6896 229.336 70.8784C229.245 71.0672 229.115 71.2722 228.945 71.4936L221.943 81.1909H219.072V66.9721H221.738V76.4838C221.738 76.6857 221.732 76.9103 221.719 77.1577C221.712 77.4051 221.706 77.6329 221.699 77.8413H221.836C221.908 77.6785 221.995 77.4929 222.1 77.2846C222.21 77.0763 222.337 76.8712 222.48 76.6694L229.492 66.9721H232.363V81.1909ZM225.898 63.9448C226.452 63.9448 226.908 63.8048 227.266 63.5248C227.63 63.2449 227.923 62.7762 228.145 62.1186L229.795 63.0659C229.437 63.9838 228.913 64.6381 228.223 65.0288C227.539 65.4129 226.764 65.6049 225.898 65.6049C225.026 65.6049 224.242 65.4096 223.545 65.019C222.855 64.6284 222.331 63.9773 221.973 63.0659L223.613 62.1186C223.835 62.7892 224.128 63.2612 224.492 63.5346C224.863 63.8081 225.332 63.9448 225.898 63.9448ZM26.4355 92.0815V89.9721H39.5117V92.0815H34.3359V104.191H31.6211V92.0815H26.4355ZM41.3574 104.191V89.9721H52.168V92.0717H44.043V95.8608H51.1719V97.9018H44.043V102.101H52.2852V104.191H41.3574ZM54.5801 104.191V89.9721H67.6367V104.191H64.9219V92.062H57.2949V104.191H54.5801ZM72.5293 89.9721H83.9453V104.191H81.2402V92.062H74.8145L74.4531 98.7807C74.362 100.643 74.0592 102.055 73.5449 103.019C73.0306 103.983 72.054 104.464 70.6152 104.464C70.3939 104.464 70.1823 104.448 69.9805 104.415C69.7786 104.389 69.5801 104.341 69.3848 104.269V101.964C69.5345 102.016 69.6745 102.052 69.8047 102.072C69.9414 102.091 70.0814 102.101 70.2246 102.101C70.8691 102.101 71.3216 101.828 71.582 101.281C71.8424 100.734 72.0085 99.7833 72.0801 98.4291L72.5293 89.9721ZM86.6113 97.3354V96.7983C86.6113 94.4285 87.3014 92.6512 88.6816 91.4663C90.0618 90.2748 91.8262 89.6791 93.9746 89.6791C96.1165 89.6791 97.8809 90.2748 99.2676 91.4663C100.661 92.6512 101.357 94.4285 101.357 96.7983V97.3354C101.357 99.7247 100.661 101.515 99.2676 102.706C97.8809 103.891 96.1165 104.484 93.9746 104.484C91.8262 104.484 90.0618 103.891 88.6816 102.706C87.3014 101.515 86.6113 99.7247 86.6113 97.3354ZM89.3945 97.5014C89.3945 99.1811 89.8112 100.418 90.6445 101.212C91.4844 102 92.5944 102.394 93.9746 102.394C95.3548 102.394 96.4681 102 97.3145 101.212C98.1608 100.418 98.584 99.1811 98.584 97.5014V96.6518C98.584 94.9721 98.1608 93.7416 97.3145 92.9604C96.4746 92.1726 95.3613 91.7788 93.9746 91.7788C92.5944 91.7788 91.4844 92.1726 90.6445 92.9604C89.8112 93.7416 89.3945 94.9689 89.3945 96.642V97.5014ZM103.291 97.3549V96.8081C103.291 94.4187 103.971 92.6349 105.332 91.4565C106.693 90.2716 108.447 89.6791 110.596 89.6791C112.581 89.6791 114.163 90.0991 115.342 90.9389C116.52 91.7722 117.171 93.0125 117.295 94.6596L117.314 94.8647H114.57L114.561 94.6498C114.469 93.6668 114.082 92.9441 113.398 92.4819C112.721 92.0131 111.777 91.7788 110.566 91.7788C109.225 91.7788 108.141 92.1759 107.314 92.9702C106.494 93.7644 106.084 94.9819 106.084 96.6225V97.5405C106.084 99.2527 106.494 100.49 107.314 101.251C108.141 102.013 109.225 102.394 110.566 102.394C111.921 102.394 112.904 102.13 113.516 101.603C114.128 101.069 114.476 100.373 114.561 99.5131L114.57 99.3081H117.314L117.305 99.5229C117.194 101.046 116.569 102.254 115.43 103.146C114.297 104.038 112.689 104.484 110.605 104.484C108.444 104.484 106.683 103.904 105.322 102.746C103.968 101.58 103.291 99.7833 103.291 97.3549ZM119.326 104.191V89.9721H122.041V95.8022H129.775V89.9721H132.48V104.191H129.775V97.9116H122.041V104.191H119.326ZM133.955 104.191L140.137 89.9038H142.803L148.994 104.191H146.045L141.934 94.1127C141.81 93.8198 141.706 93.5398 141.621 93.2729C141.536 92.9995 141.458 92.739 141.387 92.4916H141.289C141.211 92.739 141.13 92.9995 141.045 93.2729C140.96 93.5463 140.859 93.8263 140.742 94.1127L136.602 104.191H133.955ZM136.816 100.861L137.578 98.8393H145.234L145.996 100.861H136.816ZM150.479 104.191V89.9721H161.367V92.0522H153.193V95.4897H157.314C158.942 95.4897 160.186 95.8608 161.045 96.603C161.904 97.3452 162.334 98.4161 162.334 99.8159C162.334 101.235 161.904 102.319 161.045 103.068C160.186 103.817 158.942 104.191 157.314 104.191H150.479ZM153.193 97.5014V102.16H157.09C158.034 102.16 158.704 101.958 159.102 101.554C159.505 101.15 159.707 100.571 159.707 99.8159C159.707 99.0737 159.505 98.504 159.102 98.1069C158.704 97.7032 158.034 97.5014 157.09 97.5014H153.193ZM172.256 104.191V89.9721H174.941V104.191H172.256ZM181.289 104.191L175.791 97.394L177.92 95.9194L184.609 104.191H181.289ZM173.604 95.812H176.328L181.309 89.9721H184.219L177.344 97.9213H173.604V95.812ZM162.715 104.191L169.424 95.9584L171.416 97.394L165.908 104.191H162.715ZM173.604 95.812V97.9213H169.678L162.881 89.9721H165.947L170.869 95.812H173.604ZM185.791 104.191V89.9721H196.602V92.0717H188.477V95.8608H195.605V97.9018H188.477V102.101H196.719V104.191H185.791ZM199.014 104.191V89.9721H201.729V95.8022H209.463V89.9721H212.168V104.191H209.463V97.9116H201.729V104.191H199.014ZM228.691 104.191H226.035V94.6694C226.035 94.461 226.038 94.2332 226.045 93.9858C226.051 93.7319 226.061 93.504 226.074 93.3022H225.957C225.859 93.4975 225.762 93.6896 225.664 93.8784C225.573 94.0672 225.443 94.2722 225.273 94.4936L218.271 104.191H215.4V89.9721H218.066V99.4838C218.066 99.6857 218.06 99.9103 218.047 100.158C218.04 100.405 218.034 100.633 218.027 100.841H218.164C218.236 100.678 218.324 100.493 218.428 100.285C218.538 100.076 218.665 99.8712 218.809 99.6694L225.82 89.9721H228.691V104.191ZM243.213 104.191H240.498V98.8491H235.781L235.293 98.5952C234.056 98.4324 233.109 97.9702 232.451 97.2084C231.794 96.4467 231.465 95.4929 231.465 94.3471C231.465 93.006 231.943 91.9415 232.9 91.1538C233.864 90.366 235.221 89.9721 236.973 89.9721H243.213V104.191ZM240.498 96.8471V92.0034H237.197C236.058 92.0034 235.27 92.2182 234.834 92.6479C234.398 93.0711 234.18 93.6472 234.18 94.3764C234.18 95.1121 234.398 95.7078 234.834 96.1635C235.27 96.6192 236.058 96.8471 237.197 96.8471H240.498ZM233.691 104.191H230.801L234.932 97.6577H237.686L233.691 104.191ZM245.674 106.3C246.045 105.871 246.318 105.425 246.494 104.962C246.67 104.5 246.758 103.963 246.758 103.351V101.437H249.189V103.341C249.189 104.129 249.007 104.848 248.643 105.499C248.285 106.15 247.816 106.704 247.236 107.16L245.674 106.3ZM27.8223 127.191V112.972H33.8574C35.5501 112.972 36.8717 113.262 37.8223 113.841C38.7728 114.421 39.248 115.378 39.248 116.712C39.248 117.5 39.043 118.141 38.6328 118.636C38.2292 119.124 37.7148 119.476 37.0898 119.691V119.73C37.8711 119.938 38.5026 120.319 38.9844 120.873C39.4727 121.426 39.7168 122.168 39.7168 123.099C39.7168 124.46 39.209 125.482 38.1934 126.165C37.1777 126.849 35.8366 127.191 34.1699 127.191H27.8223ZM30.498 125.238H34.0332C35.0423 125.238 35.791 125.052 36.2793 124.681C36.7676 124.303 37.0117 123.734 37.0117 122.972C37.0117 122.256 36.7676 121.706 36.2793 121.322C35.791 120.931 35.0423 120.736 34.0332 120.736H30.498V125.238ZM30.498 118.9H33.7207C34.7168 118.9 35.4395 118.727 35.8887 118.382C36.3444 118.037 36.5723 117.542 36.5723 116.898C36.5723 116.221 36.3477 115.726 35.8984 115.414C35.4492 115.101 34.7233 114.945 33.7207 114.945H30.498V118.9ZM41.5723 120.335V119.798C41.5723 117.428 42.2624 115.651 43.6426 114.466C45.0228 113.275 46.7871 112.679 48.9355 112.679C51.0775 112.679 52.8418 113.275 54.2285 114.466C55.6217 115.651 56.3184 117.428 56.3184 119.798V120.335C56.3184 122.725 55.6217 124.515 54.2285 125.706C52.8418 126.891 51.0775 127.484 48.9355 127.484C46.7871 127.484 45.0228 126.891 43.6426 125.706C42.2624 124.515 41.5723 122.725 41.5723 120.335ZM44.3555 120.501C44.3555 122.181 44.7721 123.418 45.6055 124.212C46.4453 125 47.5553 125.394 48.9355 125.394C50.3158 125.394 51.429 125 52.2754 124.212C53.1217 123.418 53.5449 122.181 53.5449 120.501V119.652C53.5449 117.972 53.1217 116.742 52.2754 115.96C51.4355 115.173 50.3223 114.779 48.9355 114.779C47.5553 114.779 46.4453 115.173 45.6055 115.96C44.7721 116.742 44.3555 117.969 44.3555 119.642V120.501ZM71.1035 130.013V127.191H59.9121V130.013H57.4219V125.101H73.5938V130.013H71.1035ZM60.2539 112.972H71.709V126.683H69.0332V115.062H62.5391L62.2461 120.335C62.168 121.735 62.0378 122.845 61.8555 123.665C61.6797 124.486 61.4258 125.179 61.0938 125.746H58.4766C58.9062 125.114 59.2253 124.382 59.4336 123.548C59.6484 122.715 59.7917 121.608 59.8633 120.228L60.2539 112.972ZM74.834 120.335V119.798C74.834 117.428 75.5241 115.651 76.9043 114.466C78.2845 113.275 80.0488 112.679 82.1973 112.679C84.3392 112.679 86.1035 113.275 87.4902 114.466C88.8835 115.651 89.5801 117.428 89.5801 119.798V120.335C89.5801 122.725 88.8835 124.515 87.4902 125.706C86.1035 126.891 84.3392 127.484 82.1973 127.484C80.0488 127.484 78.2845 126.891 76.9043 125.706C75.5241 124.515 74.834 122.725 74.834 120.335ZM77.6172 120.501C77.6172 122.181 78.0339 123.418 78.8672 124.212C79.707 125 80.8171 125.394 82.1973 125.394C83.5775 125.394 84.6908 125 85.5371 124.212C86.3835 123.418 86.8066 122.181 86.8066 120.501V119.652C86.8066 117.972 86.3835 116.742 85.5371 115.96C84.6973 115.173 83.584 114.779 82.1973 114.779C80.8171 114.779 79.707 115.173 78.8672 115.96C78.0339 116.742 77.6172 117.969 77.6172 119.642V120.501ZM92.1582 127.191V112.972H105.215V127.191H102.5V115.062H94.873V127.191H92.1582ZM108.447 127.191V112.972H114.648C116.478 112.972 117.878 113.363 118.848 114.144C119.824 114.925 120.312 116.068 120.312 117.572C120.312 119.043 119.827 120.186 118.857 120.999C117.887 121.813 116.481 122.207 114.639 122.181H111.162V127.191H108.447ZM111.162 120.169H114.404C115.576 120.169 116.403 119.945 116.885 119.496C117.367 119.04 117.607 118.402 117.607 117.581C117.607 116.755 117.367 116.123 116.885 115.687C116.403 115.244 115.576 115.023 114.404 115.023H111.162V120.169ZM121.768 120.335V119.798C121.768 117.428 122.458 115.651 123.838 114.466C125.218 113.275 126.982 112.679 129.131 112.679C131.273 112.679 133.037 113.275 134.424 114.466C135.817 115.651 136.514 117.428 136.514 119.798V120.335C136.514 122.725 135.817 124.515 134.424 125.706C133.037 126.891 131.273 127.484 129.131 127.484C126.982 127.484 125.218 126.891 123.838 125.706C122.458 124.515 121.768 122.725 121.768 120.335ZM124.551 120.501C124.551 122.181 124.967 123.418 125.801 124.212C126.641 125 127.751 125.394 129.131 125.394C130.511 125.394 131.624 125 132.471 124.212C133.317 123.418 133.74 122.181 133.74 120.501V119.652C133.74 117.972 133.317 116.742 132.471 115.96C131.631 115.173 130.518 114.779 129.131 114.779C127.751 114.779 126.641 115.173 125.801 115.96C124.967 116.742 124.551 117.969 124.551 119.642V120.501ZM139.092 127.191V112.972H145.127C146.82 112.972 148.141 113.262 149.092 113.841C150.042 114.421 150.518 115.378 150.518 116.712C150.518 117.5 150.312 118.141 149.902 118.636C149.499 119.124 148.984 119.476 148.359 119.691V119.73C149.141 119.938 149.772 120.319 150.254 120.873C150.742 121.426 150.986 122.168 150.986 123.099C150.986 124.46 150.479 125.482 149.463 126.165C148.447 126.849 147.106 127.191 145.439 127.191H139.092ZM141.768 125.238H145.303C146.312 125.238 147.061 125.052 147.549 124.681C148.037 124.303 148.281 123.734 148.281 122.972C148.281 122.256 148.037 121.706 147.549 121.322C147.061 120.931 146.312 120.736 145.303 120.736H141.768V125.238ZM141.768 118.9H144.99C145.986 118.9 146.709 118.727 147.158 118.382C147.614 118.037 147.842 117.542 147.842 116.898C147.842 116.221 147.617 115.726 147.168 115.414C146.719 115.101 145.993 114.945 144.99 114.945H141.768V118.9ZM152.842 120.335V119.798C152.842 117.428 153.532 115.651 154.912 114.466C156.292 113.275 158.057 112.679 160.205 112.679C162.347 112.679 164.111 113.275 165.498 114.466C166.891 115.651 167.588 117.428 167.588 119.798V120.335C167.588 122.725 166.891 124.515 165.498 125.706C164.111 126.891 162.347 127.484 160.205 127.484C158.057 127.484 156.292 126.891 154.912 125.706C153.532 124.515 152.842 122.725 152.842 120.335ZM155.625 120.501C155.625 122.181 156.042 123.418 156.875 124.212C157.715 125 158.825 125.394 160.205 125.394C161.585 125.394 162.699 125 163.545 124.212C164.391 123.418 164.814 122.181 164.814 120.501V119.652C164.814 117.972 164.391 116.742 163.545 115.96C162.705 115.173 161.592 114.779 160.205 114.779C158.825 114.779 157.715 115.173 156.875 115.96C156.042 116.742 155.625 117.969 155.625 119.642V120.501ZM182.373 130.013V127.191H171.182V130.013H168.691V125.101H184.863V130.013H182.373ZM171.523 112.972H182.979V126.683H180.303V115.062H173.809L173.516 120.335C173.438 121.735 173.307 122.845 173.125 123.665C172.949 124.486 172.695 125.179 172.363 125.746H169.746C170.176 125.114 170.495 124.382 170.703 123.548C170.918 122.715 171.061 121.608 171.133 120.228L171.523 112.972ZM184.99 127.191L191.172 112.904H193.838L200.029 127.191H197.08L192.969 117.113C192.845 116.82 192.741 116.54 192.656 116.273C192.572 115.999 192.493 115.739 192.422 115.492H192.324C192.246 115.739 192.165 115.999 192.08 116.273C191.995 116.546 191.895 116.826 191.777 117.113L187.637 127.191H184.99ZM187.852 123.861L188.613 121.839H196.27L197.031 123.861H187.852ZM41.1133 150.191H38.457V140.669C38.457 140.461 38.4603 140.233 38.4668 139.986C38.4733 139.732 38.4831 139.504 38.4961 139.302H38.3789C38.2812 139.498 38.1836 139.69 38.0859 139.878C37.9948 140.067 37.8646 140.272 37.6953 140.494L30.6934 150.191H27.8223V135.972H30.4883V145.484C30.4883 145.686 30.4818 145.91 30.4688 146.158C30.4622 146.405 30.4557 146.633 30.4492 146.841H30.5859C30.6576 146.678 30.7454 146.493 30.8496 146.285C30.9603 146.076 31.0872 145.871 31.2305 145.669L38.2422 135.972H41.1133V150.191ZM59.4824 150.191L52.9395 143.374L54.9121 141.968L62.8125 150.191H59.4824ZM50.8008 141.812H53.4668L59.3848 135.972H62.3242L54.0332 143.921H50.8008V141.812ZM49.4434 150.191V135.972H52.1582V150.191H49.4434ZM62.2168 150.191L68.3984 135.904H71.0645L77.2559 150.191H74.3066L70.1953 140.113C70.0716 139.82 69.9674 139.54 69.8828 139.273C69.7982 138.999 69.7201 138.739 69.6484 138.492H69.5508C69.4727 138.739 69.3913 138.999 69.3066 139.273C69.222 139.546 69.1211 139.826 69.0039 140.113L64.8633 150.191H62.2168ZM65.0781 146.861L65.8398 144.839H73.4961L74.2578 146.861H65.0781ZM78.7402 150.191V135.972H81.4551V141.802H89.1895V135.972H91.8945V150.191H89.1895V143.912H81.4551V150.191H78.7402ZM93.3691 150.191L99.5508 135.904H102.217L108.408 150.191H105.459L101.348 140.113C101.224 139.82 101.12 139.54 101.035 139.273C100.951 138.999 100.872 138.739 100.801 138.492H100.703C100.625 138.739 100.544 138.999 100.459 139.273C100.374 139.546 100.273 139.826 100.156 140.113L96.0156 150.191H93.3691ZM96.2305 146.861L96.9922 144.839H104.648L105.41 146.861H96.2305ZM111.553 135.972H122.969V150.191H120.264V138.062H113.838L113.477 144.781C113.385 146.643 113.083 148.055 112.568 149.019C112.054 149.983 111.077 150.464 109.639 150.464C109.417 150.464 109.206 150.448 109.004 150.415C108.802 150.389 108.604 150.341 108.408 150.269V147.964C108.558 148.016 108.698 148.052 108.828 148.072C108.965 148.091 109.105 148.101 109.248 148.101C109.893 148.101 110.345 147.828 110.605 147.281C110.866 146.734 111.032 145.783 111.104 144.429L111.553 135.972ZM139.57 150.191H136.914V140.669C136.914 140.461 136.917 140.233 136.924 139.986C136.93 139.732 136.94 139.504 136.953 139.302H136.836C136.738 139.498 136.641 139.69 136.543 139.878C136.452 140.067 136.322 140.272 136.152 140.494L129.15 150.191H126.279V135.972H128.945V145.484C128.945 145.686 128.939 145.91 128.926 146.158C128.919 146.405 128.913 146.633 128.906 146.841H129.043C129.115 146.678 129.202 146.493 129.307 146.285C129.417 146.076 129.544 145.871 129.688 145.669L136.699 135.972H139.57V150.191ZM148.35 148.394C149.554 148.394 150.439 148.186 151.006 147.769C151.572 147.352 151.859 146.763 151.865 146.001C151.865 145.298 151.624 144.761 151.143 144.39C150.667 144.019 149.941 143.833 148.965 143.833H146.123V141.831H148.799C149.717 141.831 150.394 141.659 150.83 141.314C151.266 140.969 151.484 140.468 151.484 139.81C151.484 139.152 151.224 138.648 150.703 138.296C150.182 137.945 149.372 137.769 148.271 137.769C147.113 137.769 146.237 137.974 145.645 138.384C145.052 138.794 144.753 139.426 144.746 140.279V140.425H142.051V140.289C142.057 138.843 142.581 137.717 143.623 136.91C144.671 136.096 146.234 135.689 148.311 135.689C150.192 135.689 151.641 136.024 152.656 136.695C153.672 137.359 154.18 138.319 154.18 139.576C154.18 140.428 153.945 141.109 153.477 141.617C153.014 142.124 152.441 142.483 151.758 142.691V142.73C152.591 142.925 153.268 143.306 153.789 143.873C154.316 144.432 154.58 145.168 154.58 146.08C154.58 147.466 154.036 148.547 152.949 149.322C151.868 150.09 150.348 150.474 148.389 150.474C146.312 150.474 144.707 150.096 143.574 149.341C142.448 148.586 141.878 147.375 141.865 145.708V145.572H144.561L144.57 145.699C144.57 146.63 144.886 147.313 145.518 147.749C146.149 148.179 147.093 148.394 148.35 148.394ZM155.244 150.191L161.426 135.904H164.092L170.283 150.191H167.334L163.223 140.113C163.099 139.82 162.995 139.54 162.91 139.273C162.826 138.999 162.747 138.739 162.676 138.492H162.578C162.5 138.739 162.419 138.999 162.334 139.273C162.249 139.546 162.148 139.826 162.031 140.113L157.891 150.191H155.244ZM158.105 146.861L158.867 144.839H166.523L167.285 146.861H158.105ZM184.219 153.013V150.191H171.768V135.972H174.482V148.101H182.139V135.972H184.854V148.101H186.738V153.013H184.219ZM201.875 150.191H199.219V140.669C199.219 140.461 199.222 140.233 199.229 139.986C199.235 139.732 199.245 139.504 199.258 139.302H199.141C199.043 139.498 198.945 139.69 198.848 139.878C198.757 140.067 198.626 140.272 198.457 140.494L191.455 150.191H188.584V135.972H191.25V145.484C191.25 145.686 191.243 145.91 191.23 146.158C191.224 146.405 191.217 146.633 191.211 146.841H191.348C191.419 146.678 191.507 146.493 191.611 146.285C191.722 146.076 191.849 145.871 191.992 145.669L199.004 135.972H201.875V150.191ZM218.398 150.191H215.742V140.669C215.742 140.461 215.745 140.233 215.752 139.986C215.758 139.732 215.768 139.504 215.781 139.302H215.664C215.566 139.498 215.469 139.69 215.371 139.878C215.28 140.067 215.15 140.272 214.98 140.494L207.979 150.191H205.107V135.972H207.773V145.484C207.773 145.686 207.767 145.91 207.754 146.158C207.747 146.405 207.741 146.633 207.734 146.841H207.871C207.943 146.678 208.031 146.493 208.135 146.285C208.245 146.076 208.372 145.871 208.516 145.669L215.527 135.972H218.398V150.191Z" fill="#231F20"/>
<g clip-path="url(#clip1_9859_21944)">
<path d="M419.107 233.36V239.813H277.852V239.591H336.831H399.652V233.36H419.107Z" fill="white"/>
<path d="M399.649 233.36H336.828V239.591H399.649V233.36Z" fill="#F4F3F1"/>
<path d="M399.649 222.801V233.36H336.828V222.801H350.872V220.926H361.902V222.801H399.649Z" fill="#F4F3F1"/>
<path d="M399.654 216.052V222.801H361.906V220.926H394.954V216.052H399.654Z" fill="#7099ED"/>
<path d="M399.654 209.303V216.052H394.954V211.178H361.906V209.303H399.654Z" fill="#7099ED"/>
<path d="M399.649 199.025V209.303H361.902V211.178H350.872V209.303H336.828V199.025H350.872V197.151H361.902V199.025H399.649Z" fill="#F4F3F1"/>
<path d="M399.654 192.276V199.025H361.906V197.151H394.954V192.276H399.654Z" fill="#7099ED"/>
<path d="M399.654 185.527V192.276H394.954V187.402H361.906V185.527H399.654Z" fill="#7099ED"/>
<path d="M399.649 172.22V185.527H361.902V187.402H350.872V185.527H336.828V172.22H399.649Z" fill="#F4F3F1"/>
<path d="M399.649 165.767V172.22H336.828V166.36V165.767H399.649Z" fill="#F4F3F1"/>
<path d="M394.954 216.052H361.906V220.926H394.954V216.052Z" fill="#7099ED"/>
<path d="M394.954 211.178H361.906V216.052H394.954V211.178Z" fill="#7099ED"/>
<path d="M394.954 192.276H361.906V197.151H394.954V192.276Z" fill="#7099ED"/>
<path d="M394.954 187.402H361.906V192.276H394.954V187.402Z" fill="#7099ED"/>
<path d="M361.905 216.052V220.926H350.875V211.178H361.905V216.052Z" fill="#FF8B63"/>
<path d="M361.905 192.276V197.151H350.875V187.402H361.905V192.276Z" fill="#FF8B63"/>
<path d="M350.872 220.926V222.801H336.828V209.303H350.872V211.178H342.695V220.926H350.872Z" fill="#7099ED"/>
<path d="M350.873 211.178H342.695V220.926H350.873V211.178Z" fill="#7099ED"/>
<path d="M350.872 197.151V199.025H336.828V185.527H350.872V187.402H342.695V197.151H350.872Z" fill="#7099ED"/>
<path d="M350.873 187.402H342.695V197.151H350.873V187.402Z" fill="#7099ED"/>
<path d="M336.831 233.36H277.852V239.591H336.831V233.36Z" fill="#F4F3F1"/>
<path d="M336.831 222.801V233.36H277.852V165.767H286.83V166.36H284.949V179.622C284.949 203.431 304.389 222.801 328.285 222.801H336.831Z" fill="#F4F3F1"/>
<path d="M336.827 209.303V222.801H328.281C304.385 222.801 284.945 203.431 284.945 179.622V166.36H286.827V174.223H296.611V166.36H298.492V179.622C298.492 195.988 311.855 209.303 328.281 209.303H336.827Z" fill="#7099ED"/>
<path d="M336.833 199.025V209.303H328.287C311.861 209.303 298.499 195.988 298.499 179.622V166.36H296.617V165.767H312.29V167.102H310.409V180.78C310.409 190.84 318.624 199.025 328.72 199.025H336.833Z" fill="#F4F3F1"/>
<path d="M336.831 185.527V199.025H328.717C318.621 199.025 310.406 190.84 310.406 180.78V167.102H312.288V174.223H322.072V167.102H323.953V180.78C323.953 183.398 326.091 185.527 328.717 185.527H336.831Z" fill="#7099ED"/>
<path d="M336.829 172.22V185.527H328.716C326.089 185.527 323.952 183.398 323.952 180.78V167.102H322.07V165.767H330.353V172.22H336.829Z" fill="#F4F3F1"/>
<path d="M336.828 166.36H330.352V172.22H336.828V166.36Z" fill="#F4F3F1"/>
<path d="M336.828 165.767H330.352V166.36H336.828V165.767Z" fill="#F4F3F1"/>
<path d="M336.828 -22.2438H330.352V165.767H336.828V-22.2438Z" fill="#F4F3F1"/>
<path d="M336.829 -22.465V-22.2438H330.353V165.767H322.07V155.333H323.952V19.5106H326.21V16.6948H323.952V-22.465H336.829Z" fill="#F4F3F1"/>
<path d="M326.211 16.6948H323.953V19.5106H326.211V16.6948Z" fill="#F4F3F1"/>
<path d="M323.953 19.5106V155.333H322.072V122.157H317.18V19.5106H323.953Z" fill="#7099ED"/>
<path d="M323.953 16.6948H317.18V19.5106H323.953V16.6948Z" fill="#F4F3F1"/>
<path d="M323.953 -22.465H317.18V16.6948H323.953V-22.465Z" fill="#7099ED"/>
<path d="M322.073 167.102H312.289V174.223H322.073V167.102Z" fill="#7099ED"/>
<path d="M322.073 165.767H312.289V167.102H322.073V165.767Z" fill="#FF8B63"/>
<path d="M322.073 155.333V165.767H312.289V155.333H317.181H322.073Z" fill="#FF8B63"/>
<path d="M322.072 122.157H317.18V155.333H322.072V122.157Z" fill="#7099ED"/>
<path d="M317.181 122.157H312.289V155.333H317.181V122.157Z" fill="#7099ED"/>
<path d="M317.18 19.5106V122.157H312.288V155.333H310.406V19.5106H317.18Z" fill="#7099ED"/>
<path d="M317.18 16.6948H310.406V19.5106H317.18V16.6948Z" fill="#F4F3F1"/>
<path d="M317.18 -22.465H310.406V16.6948H317.18V-22.465Z" fill="#7099ED"/>
<path d="M312.29 155.333V165.767H296.617V155.333H298.499V19.5106H300.757V16.6948H298.499V-22.465H310.409V16.6948H308.151V19.5106H310.409V155.333H312.29Z" fill="#F4F3F1"/>
<path d="M310.406 16.6948H308.148V19.5106H310.406V16.6948Z" fill="#F4F3F1"/>
<path d="M300.75 16.6948H298.492V19.5106H300.75V16.6948Z" fill="#F4F3F1"/>
<path d="M298.492 19.5106V155.333H296.611V122.157H291.719V19.5106H298.492Z" fill="#7099ED"/>
<path d="M298.492 16.6948H291.719V19.5106H298.492V16.6948Z" fill="#F4F3F1"/>
<path d="M298.492 -22.465H291.719V16.6948H298.492V-22.465Z" fill="#7099ED"/>
<path d="M296.612 166.36H286.828V174.223H296.612V166.36Z" fill="#7099ED"/>
<path d="M296.612 165.767H286.828V166.36H296.612V165.767Z" fill="#FF8B63"/>
<path d="M296.612 155.333V165.767H286.828V155.333H291.72H296.612Z" fill="#FF8B63"/>
<path d="M296.611 122.157H291.719V155.333H296.611V122.157Z" fill="#7099ED"/>
<path d="M291.72 122.157H286.828V155.333H291.72V122.157Z" fill="#7099ED"/>
<path d="M291.719 19.5106V122.157H286.827V155.333H284.945V19.5106H291.719Z" fill="#7099ED"/>
<path d="M291.719 16.6948H284.945V19.5106H291.719V16.6948Z" fill="#F4F3F1"/>
<path d="M291.719 -22.465H284.945V16.6948H291.719V-22.465Z" fill="#7099ED"/>
<path d="M286.83 155.333V165.767H277.851V-22.2438H271.375V-22.465H284.948V16.6948H282.691V19.5106H284.948V155.333H286.83Z" fill="#F4F3F1"/>
<path d="M284.945 16.6948H282.688V19.5106H284.945V16.6948Z" fill="#F4F3F1"/>
<path d="M277.853 239.591V239.813H271.625V239.591H273.811H277.853Z" fill="white"/>
<path d="M277.854 233.36H273.812V239.591H277.854V233.36Z" fill="#F4F3F1"/>
<path d="M277.854 165.767H273.812V233.36H277.854V165.767Z" fill="#F4F3F1"/>
<path d="M277.851 -22.2438V165.767H273.81V233.36H271.623V239.591H271.375V-22.2438H277.851Z" fill="#F4F3F1"/>
<path d="M273.811 233.36H271.625V239.591H273.811V233.36Z" fill="#F4F3F1"/>
<path d="M271.623 239.591H271.375V239.813H271.623V239.591Z" fill="white"/>
<path d="M336.828 222.801V233.36" stroke="#231F20" stroke-miterlimit="10"/>
<path d="M336.828 199.025V209.303" stroke="#231F20" stroke-miterlimit="10"/>
<path d="M336.828 172.22V185.527" stroke="#231F20" stroke-miterlimit="10"/>
<path d="M271.623 239.813H271.375V239.591V-22.2438H277.851V165.767V233.36" stroke="#231F20" stroke-miterlimit="10"/>
<path d="M330.352 165.767V-22.2438H336.828V165.767" stroke="#231F20" stroke-miterlimit="10"/>
<path d="M399.649 165.767H408.086V172.22H399.649H336.828H330.352V166.36V165.767H336.828H399.649Z" stroke="#231F20" stroke-miterlimit="10"/>
<path d="M399.653 233.36H419.108V239.813H277.853H271.625V239.591V233.36H273.811H277.853H336.832H399.653Z" stroke="#231F20" stroke-miterlimit="10"/>
<path d="M296.617 155.333V165.767V166.36" stroke="#231F20" stroke-miterlimit="10"/>
<path d="M286.828 166.36V165.767V155.333" stroke="#231F20" stroke-miterlimit="10"/>
<path d="M284.945 16.6948V-22.465V-31.8125H291.719H298.492V-22.465V16.6948" stroke="#231F20" stroke-miterlimit="10"/>
<path d="M298.492 19.5106V155.333H296.611H291.719H286.827H284.945V19.5106" stroke="#231F20" stroke-miterlimit="10"/>
<path d="M322.07 155.333V165.767V167.102" stroke="#231F20" stroke-miterlimit="10"/>
<path d="M312.289 167.102V165.767V155.333" stroke="#231F20" stroke-miterlimit="10"/>
<path d="M310.406 16.6948V-22.465V-31.8125H317.18H323.953V-22.465V16.6948" stroke="#231F20" stroke-miterlimit="10"/>
<path d="M323.953 19.5106V155.333H322.072H317.18H312.288H310.406V19.5106" stroke="#231F20" stroke-miterlimit="10"/>
<path d="M323.953 19.5106H326.211V16.6948H323.953H317.18H310.406H308.148V19.5106H310.406H317.18H323.953Z" stroke="#231F20" stroke-miterlimit="10"/>
<path d="M298.492 19.5106H300.75V16.6948H298.492H291.719H284.945H282.688V19.5106H284.945H291.719H298.492Z" stroke="#231F20" stroke-miterlimit="10"/>
<path d="M350.875 187.402H361.905" stroke="#231F20" stroke-miterlimit="10"/>
<path d="M361.905 197.151H350.875" stroke="#231F20" stroke-miterlimit="10"/>
<path d="M350.875 211.178H361.905" stroke="#231F20" stroke-miterlimit="10"/>
<path d="M361.905 220.926H350.875" stroke="#231F20" stroke-miterlimit="10"/>
<path d="M350.875 197.151V199.025H328.717C318.621 199.025 310.406 190.84 310.406 180.78V167.102H323.953V180.78C323.953 183.398 326.091 185.527 328.717 185.527H350.875V197.151Z" stroke="#231F20" stroke-miterlimit="10"/>
<path d="M350.871 220.926V222.801H328.281C304.385 222.801 284.945 203.431 284.945 179.622V166.36H298.492V179.622C298.492 195.988 311.855 209.303 328.281 209.303H350.871V220.926Z" stroke="#231F20" stroke-miterlimit="10"/>
<path d="M428.001 192.276V199.025H399.654H361.906V197.151V192.276V187.402V185.527H399.654H428.001V192.276Z" stroke="#231F20" stroke-miterlimit="10"/>
<path d="M428.001 216.052V222.801H399.654H361.906V220.926V216.052V211.178V209.303H399.654H428.001V216.052Z" stroke="#231F20" stroke-miterlimit="10"/>
<path d="M294.852 -27.5081V9.27824" stroke="white" stroke-miterlimit="10"/>
<path d="M320.453 -27.5081V9.27824" stroke="white" stroke-miterlimit="10"/>
<path d="M294.852 22.3303V151.381" stroke="white" stroke-miterlimit="10"/>
<path d="M320.453 22.3303V151.381" stroke="white" stroke-miterlimit="10"/>
<path d="M294.852 167.991V178.077C294.852 197.083 310.314 212.49 329.389 212.49H347.998" stroke="white" stroke-miterlimit="10"/>
<path d="M320.453 167.991V179.116C320.453 185.014 325.251 189.794 331.17 189.794H347.991" stroke="white" stroke-miterlimit="10"/>
<path d="M364.523 212.49H424.669" stroke="white" stroke-miterlimit="10"/>
<path d="M364.523 189.798H424.669" stroke="white" stroke-miterlimit="10"/>
<path d="M294.852 160.181V163.915" stroke="white" stroke-miterlimit="10"/>
<path d="M320.453 160.447V164.234" stroke="white" stroke-miterlimit="10"/>
<path d="M353.508 189.798H358.072" stroke="white" stroke-miterlimit="10"/>
<path d="M353.508 212.49H358.667" stroke="white" stroke-miterlimit="10"/>
</g>
</g>
<defs>
<clipPath id="clip0_9859_21944">
<rect width="384" height="240" rx="32" fill="white"/>
</clipPath>
<clipPath id="clip1_9859_21944">
<rect width="157" height="272" fill="white" transform="translate(271.188 -32)"/>
</clipPath>
</defs>
</svg>
