<svg width="385" height="240" viewBox="0 0 385 240" fill="none" xmlns="http://www.w3.org/2000/svg">
<rect x="0.5" width="384" height="240" rx="32" fill="white"/>
<path d="M27.6777 51.3354V50.7983C27.6777 48.4285 28.3678 46.6511 29.748 45.4662C31.1283 44.2748 32.8926 43.6791 35.041 43.6791C37.1829 43.6791 38.9473 44.2748 40.334 45.4662C41.7272 46.6511 42.4238 48.4285 42.4238 50.7983V51.3354C42.4238 53.7247 41.7272 55.5151 40.334 56.7065C38.9473 57.8914 37.1829 58.4838 35.041 58.4838C32.8926 58.4838 31.1283 57.8914 29.748 56.7065C28.3678 55.5151 27.6777 53.7247 27.6777 51.3354ZM30.4609 51.5014C30.4609 53.1811 30.8776 54.4181 31.7109 55.2123C32.5508 56.0001 33.6608 56.394 35.041 56.394C36.4212 56.394 37.5345 56.0001 38.3809 55.2123C39.2272 54.4181 39.6504 53.1811 39.6504 51.5014V50.6518C39.6504 48.9721 39.2272 47.7416 38.3809 46.9604C37.541 46.1726 36.4277 45.7787 35.041 45.7787C33.6608 45.7787 32.5508 46.1726 31.7109 46.9604C30.8776 47.7416 30.4609 48.9689 30.4609 50.642V51.5014ZM43.3809 58.1909L49.4062 50.2416L49.8359 50.2221L54.2402 43.9721H57.0723L51.4277 51.687L50.9883 51.7162L46.2617 58.1909H43.3809ZM43.5664 43.9721H46.7891L51.252 50.183L51.3789 50.2026L57.4434 58.1909H54.1816L49.4551 51.7553L49.3574 51.7358L43.5664 43.9721ZM59.0645 58.1909V43.9721H65.2656C67.0951 43.9721 68.4948 44.3627 69.4648 45.144C70.4414 45.9252 70.9297 47.0678 70.9297 48.5717C70.9297 50.0431 70.4447 51.1856 69.4746 51.9995C68.5046 52.8133 67.0983 53.2071 65.2559 53.1811H61.7793V58.1909H59.0645ZM61.7793 51.1694H65.0215C66.1934 51.1694 67.0202 50.9448 67.502 50.4955C67.9837 50.0398 68.2246 49.4018 68.2246 48.5815C68.2246 47.7547 67.9837 47.1231 67.502 46.687C67.0202 46.2442 66.1934 46.0229 65.0215 46.0229H61.7793V51.1694ZM71.2715 58.1909L77.4531 43.9037H80.1191L86.3105 58.1909H83.3613L79.25 48.1127C79.1263 47.8198 79.0221 47.5398 78.9375 47.2729C78.8529 46.9995 78.7747 46.739 78.7031 46.4916H78.6055C78.5273 46.739 78.446 46.9995 78.3613 47.2729C78.2767 47.5463 78.1758 47.8263 78.0586 48.1127L73.918 58.1909H71.2715ZM74.1328 54.8608L74.8945 52.8393H82.5508L83.3125 54.8608H74.1328ZM87.7949 58.1909V43.9721H90.5098V49.8022H98.2441V43.9721H100.949V58.1909H98.2441V51.9116H90.5098V58.1909H87.7949ZM104.182 58.1909V43.9721H106.896V49.8022H114.631V43.9721H117.336V58.1909H114.631V51.9116H106.896V58.1909H104.182ZM119.924 51.3354V50.7983C119.924 48.4285 120.614 46.6511 121.994 45.4662C123.374 44.2748 125.139 43.6791 127.287 43.6791C129.429 43.6791 131.193 44.2748 132.58 45.4662C133.973 46.6511 134.67 48.4285 134.67 50.7983V51.3354C134.67 53.7247 133.973 55.5151 132.58 56.7065C131.193 57.8914 129.429 58.4838 127.287 58.4838C125.139 58.4838 123.374 57.8914 121.994 56.7065C120.614 55.5151 119.924 53.7247 119.924 51.3354ZM122.707 51.5014C122.707 53.1811 123.124 54.4181 123.957 55.2123C124.797 56.0001 125.907 56.394 127.287 56.394C128.667 56.394 129.781 56.0001 130.627 55.2123C131.473 54.4181 131.896 53.1811 131.896 51.5014V50.6518C131.896 48.9721 131.473 47.7416 130.627 46.9604C129.787 46.1726 128.674 45.7787 127.287 45.7787C125.907 45.7787 124.797 46.1726 123.957 46.9604C123.124 47.7416 122.707 48.9689 122.707 50.642V51.5014ZM136.018 53.1616V50.9057H142.404V53.1616H136.018ZM144.396 58.1909V43.9721H157.453V58.1909H154.738V46.062H147.111V58.1909H144.396ZM160.041 51.3354V50.7983C160.041 48.4285 160.731 46.6511 162.111 45.4662C163.492 44.2748 165.256 43.6791 167.404 43.6791C169.546 43.6791 171.311 44.2748 172.697 45.4662C174.09 46.6511 174.787 48.4285 174.787 50.7983V51.3354C174.787 53.7247 174.09 55.5151 172.697 56.7065C171.311 57.8914 169.546 58.4838 167.404 58.4838C165.256 58.4838 163.492 57.8914 162.111 56.7065C160.731 55.5151 160.041 53.7247 160.041 51.3354ZM162.824 51.5014C162.824 53.1811 163.241 54.4181 164.074 55.2123C164.914 56.0001 166.024 56.394 167.404 56.394C168.785 56.394 169.898 56.0001 170.744 55.2123C171.59 54.4181 172.014 53.1811 172.014 51.5014V50.6518C172.014 48.9721 171.59 47.7416 170.744 46.9604C169.904 46.1726 168.791 45.7787 167.404 45.7787C166.024 45.7787 164.914 46.1726 164.074 46.9604C163.241 47.7416 162.824 48.9689 162.824 50.642V51.5014ZM184.846 58.1909V43.9721H187.531V58.1909H184.846ZM193.879 58.1909L188.381 51.394L190.51 49.9194L197.199 58.1909H193.879ZM186.193 49.812H188.918L193.898 43.9721H196.809L189.934 51.9213H186.193V49.812ZM175.305 58.1909L182.014 49.9584L184.006 51.394L178.498 58.1909H175.305ZM186.193 49.812V51.9213H182.268L175.471 43.9721H178.537L183.459 49.812H186.193ZM196.623 58.1909L202.805 43.9037H205.471L211.662 58.1909H208.713L204.602 48.1127C204.478 47.8198 204.374 47.5398 204.289 47.2729C204.204 46.9995 204.126 46.739 204.055 46.4916H203.957C203.879 46.739 203.798 46.9995 203.713 47.2729C203.628 47.5463 203.527 47.8263 203.41 48.1127L199.27 58.1909H196.623ZM199.484 54.8608L200.246 52.8393H207.902L208.664 54.8608H199.484ZM213.146 58.1909V43.9721H219.348C221.177 43.9721 222.577 44.3627 223.547 45.144C224.523 45.9252 225.012 47.0678 225.012 48.5717C225.012 50.0431 224.527 51.1856 223.557 51.9995C222.587 52.8133 221.18 53.2071 219.338 53.1811H215.861V58.1909H213.146ZM215.861 51.1694H219.104C220.275 51.1694 221.102 50.9448 221.584 50.4955C222.066 50.0398 222.307 49.4018 222.307 48.5815C222.307 47.7547 222.066 47.1231 221.584 46.687C221.102 46.2442 220.275 46.0229 219.104 46.0229H215.861V51.1694ZM227.111 58.1909V43.9721H229.826V49.8022H237.561V43.9721H240.266V58.1909H237.561V51.9116H229.826V58.1909H227.111ZM241.74 58.1909L247.922 43.9037H250.588L256.779 58.1909H253.83L249.719 48.1127C249.595 47.8198 249.491 47.5398 249.406 47.2729C249.322 46.9995 249.243 46.739 249.172 46.4916H249.074C248.996 46.739 248.915 46.9995 248.83 47.2729C248.745 47.5463 248.645 47.8263 248.527 48.1127L244.387 58.1909H241.74ZM244.602 54.8608L245.363 52.8393H253.02L253.781 54.8608H244.602ZM269.553 58.1909H266.838V52.8491H262.121L261.633 52.5952C260.396 52.4324 259.449 51.9702 258.791 51.2084C258.133 50.4467 257.805 49.4929 257.805 48.3471C257.805 47.006 258.283 45.9415 259.24 45.1537C260.204 44.366 261.561 43.9721 263.312 43.9721H269.553V58.1909ZM266.838 50.8471V46.0034H263.537C262.398 46.0034 261.61 46.2182 261.174 46.6479C260.738 47.0711 260.52 47.6472 260.52 48.3764C260.52 49.1121 260.738 49.7078 261.174 50.1635C261.61 50.6192 262.398 50.8471 263.537 50.8471H266.838ZM260.031 58.1909H257.141L261.271 51.6577H264.025L260.031 58.1909ZM27.6777 74.3549V73.808C27.6777 71.4187 28.3581 69.6349 29.7188 68.4565C31.0794 67.2716 32.834 66.6791 34.9824 66.6791C36.9681 66.6791 38.5501 67.0991 39.7285 67.9389C40.9069 68.7722 41.5579 70.0125 41.6816 71.6596L41.7012 71.8647H38.957L38.9473 71.6498C38.8561 70.6668 38.4688 69.9441 37.7852 69.4819C37.1081 69.0131 36.1641 68.7787 34.9531 68.7787C33.612 68.7787 32.528 69.1759 31.7012 69.9702C30.8809 70.7644 30.4707 71.9819 30.4707 73.6225V74.5405C30.4707 76.2527 30.8809 77.4897 31.7012 78.2514C32.528 79.0131 33.612 79.394 34.9531 79.394C36.3073 79.394 37.2904 79.1303 37.9023 78.603C38.5143 78.0691 38.8626 77.3725 38.9473 76.5131L38.957 76.308H41.7012L41.6914 76.5229C41.5807 78.0463 40.9557 79.254 39.8164 80.1459C38.6836 81.0379 37.0755 81.4838 34.9922 81.4838C32.8307 81.4838 31.0697 80.9044 29.709 79.7455C28.3548 78.5802 27.6777 76.7833 27.6777 74.3549ZM57.0039 81.1909H54.3477V71.6694C54.3477 71.461 54.3509 71.2332 54.3574 70.9858C54.3639 70.7319 54.3737 70.504 54.3867 70.3022H54.2695C54.1719 70.4975 54.0742 70.6896 53.9766 70.8784C53.8854 71.0672 53.7552 71.2722 53.5859 71.4936L46.584 81.1909H43.7129V66.9721H46.3789V76.4838C46.3789 76.6856 46.3724 76.9103 46.3594 77.1577C46.3529 77.405 46.3464 77.6329 46.3398 77.8412H46.4766C46.5482 77.6785 46.6361 77.4929 46.7402 77.2846C46.8509 77.0763 46.9779 76.8712 47.1211 76.6694L54.1328 66.9721H57.0039V81.1909ZM60.2363 81.1909V66.9721H70.3926V69.062H62.9512V81.1909H60.2363ZM72.2871 81.1909V66.9721H75.002V72.8022H82.7363V66.9721H85.4414V81.1909H82.7363V74.9116H75.002V81.1909H72.2871ZM86.916 81.1909L93.0977 66.9037H95.7637L101.955 81.1909H99.0059L94.8945 71.1127C94.7708 70.8198 94.6667 70.5398 94.582 70.2729C94.4974 69.9995 94.4193 69.739 94.3477 69.4916H94.25C94.1719 69.739 94.0905 69.9995 94.0059 70.2729C93.9212 70.5463 93.8203 70.8263 93.7031 71.1127L89.5625 81.1909H86.916ZM89.7773 77.8608L90.5391 75.8393H98.1953L98.957 77.8608H89.7773ZM105.1 66.9721H116.516V81.1909H113.811V69.062H107.385L107.023 75.7807C106.932 77.6427 106.63 79.0554 106.115 80.019C105.601 80.9825 104.624 81.4643 103.186 81.4643C102.964 81.4643 102.753 81.448 102.551 81.4155C102.349 81.3894 102.15 81.3406 101.955 81.269V78.9643C102.105 79.0164 102.245 79.0522 102.375 79.0717C102.512 79.0912 102.652 79.101 102.795 79.101C103.439 79.101 103.892 78.8276 104.152 78.2807C104.413 77.7338 104.579 76.7833 104.65 75.4291L105.1 66.9721ZM133.117 81.1909H130.461V71.6694C130.461 71.461 130.464 71.2332 130.471 70.9858C130.477 70.7319 130.487 70.504 130.5 70.3022H130.383C130.285 70.4975 130.188 70.6896 130.09 70.8784C129.999 71.0672 129.868 71.2722 129.699 71.4936L122.697 81.1909H119.826V66.9721H122.492V76.4838C122.492 76.6856 122.486 76.9103 122.473 77.1577C122.466 77.405 122.46 77.6329 122.453 77.8412H122.59C122.661 77.6785 122.749 77.4929 122.854 77.2846C122.964 77.0763 123.091 76.8712 123.234 76.6694L130.246 66.9721H133.117V81.1909ZM141.896 79.394C143.101 79.394 143.986 79.1856 144.553 78.769C145.119 78.3523 145.406 77.7631 145.412 77.0014C145.412 76.2983 145.171 75.7612 144.689 75.3901C144.214 75.019 143.488 74.8334 142.512 74.8334H139.67V72.8315H142.346C143.264 72.8315 143.941 72.659 144.377 72.3139C144.813 71.9689 145.031 71.4675 145.031 70.81C145.031 70.1524 144.771 69.6479 144.25 69.2963C143.729 68.9448 142.919 68.769 141.818 68.769C140.66 68.769 139.784 68.9741 139.191 69.3842C138.599 69.7944 138.299 70.4259 138.293 71.2787V71.4252H135.598V71.2885C135.604 69.8432 136.128 68.7169 137.17 67.9096C138.218 67.0958 139.781 66.6889 141.857 66.6889C143.739 66.6889 145.188 67.0242 146.203 67.6948C147.219 68.3588 147.727 69.3191 147.727 70.5756C147.727 71.4285 147.492 72.1088 147.023 72.6166C146.561 73.1245 145.988 73.4825 145.305 73.6909V73.7299C146.138 73.9252 146.815 74.3061 147.336 74.8725C147.863 75.4324 148.127 76.1681 148.127 77.0795C148.127 78.4662 147.583 79.547 146.496 80.3217C145.415 81.0899 143.895 81.4741 141.936 81.4741C139.859 81.4741 138.254 81.0965 137.121 80.3412C135.995 79.586 135.425 78.3751 135.412 76.7084V76.5717H138.107L138.117 76.6987C138.117 77.6297 138.433 78.3133 139.064 78.7495C139.696 79.1791 140.64 79.394 141.896 79.394ZM148.791 81.1909L154.973 66.9037H157.639L163.83 81.1909H160.881L156.77 71.1127C156.646 70.8198 156.542 70.5398 156.457 70.2729C156.372 69.9995 156.294 69.739 156.223 69.4916H156.125C156.047 69.739 155.965 69.9995 155.881 70.2729C155.796 70.5463 155.695 70.8263 155.578 71.1127L151.438 81.1909H148.791ZM151.652 77.8608L152.414 75.8393H160.07L160.832 77.8608H151.652ZM177.766 84.0131V81.1909H165.314V66.9721H168.029V79.101H175.686V66.9721H178.4V79.101H180.285V84.0131H177.766ZM195.422 81.1909H192.766V71.6694C192.766 71.461 192.769 71.2332 192.775 70.9858C192.782 70.7319 192.792 70.504 192.805 70.3022H192.688C192.59 70.4975 192.492 70.6896 192.395 70.8784C192.303 71.0672 192.173 71.2722 192.004 71.4936L185.002 81.1909H182.131V66.9721H184.797V76.4838C184.797 76.6856 184.79 76.9103 184.777 77.1577C184.771 77.405 184.764 77.6329 184.758 77.8412H184.895C184.966 77.6785 185.054 77.4929 185.158 77.2846C185.269 77.0763 185.396 76.8712 185.539 76.6694L192.551 66.9721H195.422V81.1909ZM209.943 81.1909H207.229V75.8491H202.512L202.023 75.5952C200.786 75.4324 199.839 74.9702 199.182 74.2084C198.524 73.4467 198.195 72.4929 198.195 71.3471C198.195 70.006 198.674 68.9415 199.631 68.1537C200.594 67.366 201.952 66.9721 203.703 66.9721H209.943V81.1909ZM207.229 73.8471V69.0034H203.928C202.788 69.0034 202.001 69.2182 201.564 69.6479C201.128 70.0711 200.91 70.6472 200.91 71.3764C200.91 72.1121 201.128 72.7078 201.564 73.1635C202.001 73.6192 202.788 73.8471 203.928 73.8471H207.229ZM200.422 81.1909H197.531L201.662 74.6577H204.416L200.422 81.1909Z" fill="#231F20"/>
<g clip-path="url(#clip0_9859_21948)">
<path d="M341.699 72.9878C340.017 78.6706 335.545 83.1581 329.883 84.8431V82.8711C334.516 81.3145 338.183 77.634 339.734 72.9878H341.699Z" fill="#7099ED"/>
<path d="M310.09 72.9878C311.641 77.634 315.308 81.3145 319.941 82.8711V84.8431C314.279 83.1581 309.807 78.6706 308.125 72.9878H310.09Z" fill="#7099ED"/>
<path d="M319.941 51.1513V53.1199C315.308 54.6799 311.648 58.3536 310.093 63.0032H308.125C309.807 57.3204 314.279 52.8329 319.941 51.1513Z" fill="#7099ED"/>
<path d="M329.883 51.1513C335.545 52.8329 340.017 57.3204 341.699 63.0032H339.731C338.18 58.3536 334.516 54.6799 329.883 53.1199V51.1513Z" fill="#7099ED"/>
<path d="M329.888 53.1199C334.521 54.6798 338.185 58.3536 339.736 63.0032H341.704C342.172 64.5868 342.424 66.2616 342.424 67.9938C342.424 69.726 342.172 71.4008 341.704 72.9878H339.739C338.188 77.634 334.521 81.3145 329.888 82.8711V84.843C328.31 85.3124 326.641 85.5656 324.915 85.5656C323.189 85.5656 321.52 85.3124 319.942 84.843V82.8711C315.31 81.3145 311.642 77.634 310.091 72.9878H308.126C307.659 71.4008 307.406 69.726 307.406 67.9938C307.406 66.2616 307.659 64.5868 308.126 63.0032H310.095C311.649 58.3536 315.31 54.6798 319.942 53.1199V51.1513C321.52 50.6786 323.189 50.4253 324.915 50.4253C326.641 50.4253 328.31 50.6786 329.888 51.1513V53.1199Z" fill="#F4F3F1"/>
<path d="M324.91 40.3597C340.118 40.3597 352.449 52.7349 352.449 67.9972C352.449 83.2594 340.851 94.8817 326.276 95.5975C325.825 95.6212 325.368 95.6313 324.91 95.6313C309.703 95.6313 297.375 83.2594 297.375 67.9972C297.375 52.7349 309.703 40.3597 324.91 40.3597ZM342.419 67.9938C342.419 66.2616 342.167 64.5868 341.699 63.0032C340.017 57.3204 335.545 52.8329 329.883 51.1513C328.305 50.6786 326.636 50.4253 324.91 50.4253C323.184 50.4253 321.515 50.6786 319.937 51.1513C314.275 52.8329 309.804 57.3204 308.121 63.0032C307.654 64.5868 307.401 66.2616 307.401 67.9938C307.401 69.726 307.654 71.4008 308.121 72.9878C309.804 78.6706 314.275 83.1581 319.937 84.8431C321.515 85.3124 323.184 85.5657 324.91 85.5657C326.636 85.5657 328.305 85.3124 329.883 84.8431C335.545 83.1581 340.017 78.6706 341.699 72.9878C342.167 71.4008 342.419 69.726 342.419 67.9938Z" fill="#F4F3F1"/>
<path d="M334.116 40.3597C349.324 40.3597 361.651 52.7349 361.651 67.9972C361.651 83.2594 349.324 95.6313 334.116 95.6313H326.28V95.5975C340.855 94.8817 352.453 82.8002 352.453 67.9972C352.453 53.1941 340.122 40.3597 324.914 40.3597H334.116Z" fill="#7099ED"/>
<path d="M247.913 187.897V193.806C247.913 195.059 246.9 196.075 245.649 196.075H229.011C227.763 196.075 226.75 195.059 226.75 193.806V187.897C226.75 186.644 227.763 185.628 229.011 185.628H245.649C246.9 185.628 247.913 186.644 247.913 187.897Z" fill="#F4F3F1"/>
<path d="M277.858 187.897V193.806C277.858 195.059 276.845 196.075 275.594 196.075H258.956C257.708 196.075 256.695 195.059 256.695 193.806V187.897C256.695 186.644 257.708 185.628 258.956 185.628H275.594C276.845 185.628 277.858 186.644 277.858 187.897Z" fill="#F4F3F1"/>
<path d="M277.858 172.939V178.844C277.858 180.097 276.845 181.117 275.594 181.117H258.956C257.708 181.117 256.695 180.097 256.695 178.844V172.939C256.695 171.683 257.708 170.666 258.956 170.666H275.594C276.845 170.666 277.858 171.683 277.858 172.939Z" fill="#F4F3F1"/>
<path d="M307.803 172.939V178.844C307.803 180.097 306.791 181.117 305.542 181.117H288.902C287.653 181.117 286.641 180.097 286.641 178.844V172.939C286.641 171.683 287.653 170.666 288.902 170.666H305.542C306.791 170.666 307.803 171.683 307.803 172.939Z" fill="#F4F3F1"/>
<path d="M332.161 142.411V195.846C332.161 197.247 331.027 198.381 329.631 198.381H224.746C223.349 198.381 222.219 197.247 222.219 195.846V142.411C222.219 141.009 223.349 139.875 224.746 139.875H329.631C331.027 139.875 332.161 141.009 332.161 142.411ZM328.484 169.13C328.484 165.108 325.237 161.85 321.23 161.85C317.223 161.85 313.976 165.108 313.976 169.13C313.976 173.151 317.223 176.41 321.23 176.41C325.237 176.41 328.484 173.148 328.484 169.13ZM310.598 160.58V148.023C310.598 146.77 309.585 145.754 308.334 145.754H229.005C227.757 145.754 226.744 146.77 226.744 148.023V160.58C226.744 161.833 227.757 162.849 229.005 162.849H308.334C309.585 162.849 310.598 161.833 310.598 160.58ZM307.802 193.806V187.897C307.802 186.644 306.789 185.628 305.541 185.628H288.9C287.652 185.628 286.639 186.644 286.639 187.897V193.806C286.639 195.059 287.652 196.075 288.9 196.075H305.541C306.789 196.075 307.802 195.059 307.802 193.806ZM307.802 178.844V172.939C307.802 171.683 306.789 170.666 305.541 170.666H288.9C287.652 170.666 286.639 171.683 286.639 172.939V178.844C286.639 180.097 287.652 181.117 288.9 181.117H305.541C306.789 181.117 307.802 180.097 307.802 178.844ZM277.854 193.806V187.897C277.854 186.644 276.842 185.628 275.59 185.628H258.953C257.704 185.628 256.692 186.644 256.692 187.897V193.806C256.692 195.059 257.704 196.075 258.953 196.075H275.59C276.842 196.075 277.854 195.059 277.854 193.806ZM277.854 178.844V172.939C277.854 171.683 276.842 170.666 275.59 170.666H258.953C257.704 170.666 256.692 171.683 256.692 172.939V178.844C256.692 180.097 257.704 181.117 258.953 181.117H275.59C276.842 181.117 277.854 180.097 277.854 178.844ZM247.907 193.806V187.897C247.907 186.644 246.894 185.628 245.643 185.628H229.005C227.757 185.628 226.744 186.644 226.744 187.897V193.806C226.744 195.059 227.757 196.075 229.005 196.075H245.643C246.894 196.075 247.907 195.059 247.907 193.806ZM247.907 178.844V172.939C247.907 171.683 246.894 170.666 245.643 170.666H229.005C227.757 170.666 226.744 171.683 226.744 172.939V178.844C226.744 180.097 227.757 181.117 229.005 181.117H245.643C246.894 181.117 247.907 180.097 247.907 178.844Z" fill="#7099ED"/>
<path d="M365.833 121.31H345.336V220.022H365.833V121.31Z" fill="#7099ED"/>
<path d="M310.604 148.023V160.58C310.604 161.833 309.591 162.849 308.34 162.849H229.011C227.763 162.849 226.75 161.833 226.75 160.58V148.023C226.75 146.77 227.763 145.754 229.011 145.754H308.34C309.591 145.754 310.604 146.77 310.604 148.023Z" fill="#F4F3F1"/>
<path d="M247.913 172.939V178.844C247.913 180.097 246.9 181.117 245.649 181.117H229.011C227.763 181.117 226.75 180.097 226.75 178.844V172.939C226.75 171.683 227.763 170.666 229.011 170.666H245.649C246.9 170.666 247.913 171.683 247.913 172.939Z" fill="#FF8B63"/>
<path d="M305.542 185.628H288.902C287.653 185.628 286.641 186.644 286.641 187.897V193.806C286.641 195.059 287.653 196.075 288.902 196.075H305.542C306.791 196.075 307.803 195.059 307.803 193.806V187.897C307.803 186.644 306.791 185.628 305.542 185.628Z" fill="#FF8B63"/>
<path d="M345.339 121.31V220.022H211.172V121.31H345.339ZM332.163 195.846V142.411C332.163 141.009 331.029 139.875 329.633 139.875H224.748C223.351 139.875 222.221 141.009 222.221 142.411V195.846C222.221 197.247 223.351 198.381 224.748 198.381H329.633C331.029 198.381 332.163 197.247 332.163 195.846Z" fill="#FF8B63"/>
<path d="M345.336 121.31V220.022" stroke="#231F20" stroke-linecap="round" stroke-linejoin="round"/>
<path d="M337.486 220.022H211.172V121.31H337.486" stroke="#231F20" stroke-linecap="round" stroke-linejoin="round"/>
<path d="M337.484 121.31H345.337H365.834V220.022H345.337H337.484" stroke="#231F20" stroke-linecap="round" stroke-linejoin="round"/>
<path d="M329.631 198.381H224.746C223.349 198.381 222.219 197.247 222.219 195.846V142.411C222.219 141.009 223.349 139.875 224.746 139.875H329.631C331.027 139.875 332.161 141.009 332.161 142.411V195.846C332.161 197.247 331.027 198.381 329.631 198.381Z" stroke="#231F20" stroke-linecap="round" stroke-linejoin="round"/>
<path d="M308.34 162.849H229.011C227.763 162.849 226.75 161.833 226.75 160.58V148.023C226.75 146.77 227.763 145.754 229.011 145.754H308.34C309.591 145.754 310.604 146.77 310.604 148.023V160.58C310.604 161.833 309.591 162.849 308.34 162.849Z" stroke="#231F20" stroke-linecap="round" stroke-linejoin="round"/>
<path d="M245.649 181.117H229.011C227.763 181.117 226.75 180.097 226.75 178.844V172.939C226.75 171.683 227.763 170.666 229.011 170.666H245.649C246.9 170.666 247.913 171.683 247.913 172.939V178.844C247.913 180.097 246.9 181.117 245.649 181.117Z" stroke="#231F20" stroke-linecap="round" stroke-linejoin="round"/>
<path d="M275.594 181.117H258.956C257.708 181.117 256.695 180.097 256.695 178.844V172.939C256.695 171.683 257.708 170.666 258.956 170.666H275.594C276.845 170.666 277.858 171.683 277.858 172.939V178.844C277.858 180.097 276.845 181.117 275.594 181.117Z" stroke="#231F20" stroke-linecap="round" stroke-linejoin="round"/>
<path d="M305.542 181.117H288.902C287.653 181.117 286.641 180.097 286.641 178.844V172.939C286.641 171.683 287.653 170.666 288.902 170.666H305.542C306.791 170.666 307.803 171.683 307.803 172.939V178.844C307.803 180.097 306.791 181.117 305.542 181.117Z" stroke="#231F20" stroke-linecap="round" stroke-linejoin="round"/>
<path d="M245.649 196.075H229.011C227.763 196.075 226.75 195.059 226.75 193.806V187.897C226.75 186.644 227.763 185.628 229.011 185.628H245.649C246.9 185.628 247.913 186.644 247.913 187.897V193.806C247.913 195.059 246.9 196.075 245.649 196.075Z" stroke="#231F20" stroke-linecap="round" stroke-linejoin="round"/>
<path d="M275.594 196.075H258.956C257.708 196.075 256.695 195.059 256.695 193.806V187.897C256.695 186.644 257.708 185.628 258.956 185.628H275.594C276.845 185.628 277.858 186.644 277.858 187.897V193.806C277.858 195.059 276.845 196.075 275.594 196.075Z" stroke="#231F20" stroke-linecap="round" stroke-linejoin="round"/>
<path d="M305.542 185.628H288.902C287.653 185.628 286.641 186.644 286.641 187.897V193.806C286.641 195.059 287.653 196.075 288.902 196.075H305.542C306.791 196.075 307.803 195.059 307.803 193.806V187.897C307.803 186.644 306.791 185.628 305.542 185.628Z" stroke="#231F20" stroke-linecap="round" stroke-linejoin="round"/>
<path d="M321.23 176.41C325.237 176.41 328.484 173.15 328.484 169.13C328.484 165.109 325.237 161.85 321.23 161.85C317.224 161.85 313.977 165.109 313.977 169.13C313.977 173.15 317.224 176.41 321.23 176.41Z" stroke="#231F20" stroke-linecap="round" stroke-linejoin="round"/>
<path d="M325.352 169.13C325.352 171.412 323.509 173.266 321.231 173.266C318.953 173.266 317.109 171.412 317.109 169.13C317.109 166.847 318.953 164.99 321.231 164.99C323.509 164.99 325.352 166.844 325.352 169.13Z" stroke="#231F20" stroke-linecap="round" stroke-linejoin="round"/>
<path d="M322.183 166.368H320.672V171.889H322.183V166.368Z" stroke="#231F20" stroke-linecap="round" stroke-linejoin="round"/>
<path d="M324.91 40.3597C340.118 40.3597 352.449 52.7349 352.449 67.9972C352.449 83.2594 340.851 94.8817 326.276 95.5975C325.825 95.6212 325.368 95.6313 324.91 95.6313C309.703 95.6313 297.375 83.2594 297.375 67.9972C297.375 52.7349 309.703 40.3597 324.91 40.3597Z" stroke="#231F20" stroke-linecap="round" stroke-linejoin="round"/>
<path d="M329.883 84.8431C335.545 83.1581 340.017 78.6706 341.699 72.9878" stroke="#231F20" stroke-linecap="round" stroke-linejoin="round"/>
<path d="M308.125 72.9878C309.807 78.6706 314.279 83.1581 319.941 84.8431" stroke="#231F20" stroke-linecap="round" stroke-linejoin="round"/>
<path d="M341.699 63.0032C340.017 57.3204 335.545 52.8329 329.883 51.1513" stroke="#231F20" stroke-linecap="round" stroke-linejoin="round"/>
<path d="M319.941 51.1513C314.279 52.8329 309.807 57.3204 308.125 63.0032" stroke="#231F20" stroke-linecap="round" stroke-linejoin="round"/>
<path d="M324.914 40.3597H334.116C349.324 40.3597 361.651 52.7349 361.651 67.9972C361.651 83.2594 349.324 95.6313 334.116 95.6313H326.28" stroke="#231F20" stroke-linecap="round" stroke-linejoin="round"/>
<path d="M341.704 63.0032C342.172 64.5868 342.424 66.2616 342.424 67.9938C342.424 69.726 342.172 71.4008 341.704 72.9878H339.739C338.188 77.634 334.521 81.3145 329.888 82.8711V84.843C328.31 85.3124 326.641 85.5656 324.915 85.5656C323.189 85.5656 321.52 85.3124 319.942 84.843V82.8711C315.31 81.3145 311.642 77.634 310.091 72.9878H308.126C307.659 71.4008 307.406 69.726 307.406 67.9938C307.406 66.2616 307.659 64.5868 308.126 63.0032H310.095C311.649 58.3536 315.31 54.6798 319.942 53.1199V51.1513C321.52 50.6786 323.189 50.4253 324.915 50.4253C326.641 50.4253 328.31 50.6786 329.888 51.1513V53.1199C334.521 54.6798 338.185 58.3536 339.736 63.0032H341.704Z" stroke="#231F20" stroke-linecap="round" stroke-linejoin="round"/>
</g>
<defs>
<clipPath id="clip0_9859_21948">
<rect width="155" height="180" fill="white" transform="translate(211 40.1909)"/>
</clipPath>
</defs>
</svg>
