<svg width="385" height="240" viewBox="0 0 385 240" fill="none" xmlns="http://www.w3.org/2000/svg">
<g clip-path="url(#clip0_9859_21847)">
<rect x="0.5" width="384" height="240" rx="32" fill="white"/>
<path d="M27.6777 51.3354V50.7983C27.6777 48.4285 28.3678 46.6511 29.748 45.4662C31.1283 44.2748 32.8926 43.6791 35.041 43.6791C37.1829 43.6791 38.9473 44.2748 40.334 45.4662C41.7272 46.6511 42.4238 48.4285 42.4238 50.7983V51.3354C42.4238 53.7247 41.7272 55.5151 40.334 56.7065C38.9473 57.8914 37.1829 58.4838 35.041 58.4838C32.8926 58.4838 31.1283 57.8914 29.748 56.7065C28.3678 55.5151 27.6777 53.7247 27.6777 51.3354ZM30.4609 51.5014C30.4609 53.1811 30.8776 54.4181 31.7109 55.2123C32.5508 56.0001 33.6608 56.394 35.041 56.394C36.4212 56.394 37.5345 56.0001 38.3809 55.2123C39.2272 54.4181 39.6504 53.1811 39.6504 51.5014V50.6518C39.6504 48.9721 39.2272 47.7416 38.3809 46.9604C37.541 46.1726 36.4277 45.7787 35.041 45.7787C33.6608 45.7787 32.5508 46.1726 31.7109 46.9604C30.8776 47.7416 30.4609 48.9689 30.4609 50.642V51.5014ZM43.6152 46.0815V43.9721H56.6914V46.0815H51.5156V58.1909H48.8008V46.0815H43.6152ZM70.7441 61.0131V58.1909H59.5527V61.0131H57.0625V56.101H73.2344V61.0131H70.7441ZM59.8945 43.9721H71.3496V57.683H68.6738V46.062H62.1797L61.8867 51.3354C61.8086 52.7351 61.6784 53.8452 61.4961 54.6655C61.3203 55.4858 61.0664 56.1791 60.7344 56.7455H58.1172C58.5469 56.114 58.8659 55.3816 59.0742 54.5483C59.2891 53.7149 59.4323 52.6082 59.5039 51.228L59.8945 43.9721ZM75.1191 58.1909V43.9721H85.9297V46.0717H77.8047V49.8608H84.9336V51.9018H77.8047V56.101H86.0469V58.1909H75.1191ZM90.002 43.9721H101.418V58.1909H98.7129V46.062H92.2871L91.9258 52.7807C91.8346 54.6427 91.5319 56.0554 91.0176 57.019C90.5033 57.9825 89.5267 58.4643 88.0879 58.4643C87.8665 58.4643 87.6549 58.448 87.4531 58.4155C87.2513 58.3894 87.0527 58.3406 86.8574 58.269V55.9643C87.0072 56.0164 87.1471 56.0522 87.2773 56.0717C87.4141 56.0912 87.554 56.101 87.6973 56.101C88.3418 56.101 88.7943 55.8276 89.0547 55.2807C89.3151 54.7338 89.4811 53.7833 89.5527 52.4291L90.002 43.9721ZM104.084 51.3354V50.7983C104.084 48.4285 104.774 46.6511 106.154 45.4662C107.535 44.2748 109.299 43.6791 111.447 43.6791C113.589 43.6791 115.354 44.2748 116.74 45.4662C118.133 46.6511 118.83 48.4285 118.83 50.7983V51.3354C118.83 53.7247 118.133 55.5151 116.74 56.7065C115.354 57.8914 113.589 58.4838 111.447 58.4838C109.299 58.4838 107.535 57.8914 106.154 56.7065C104.774 55.5151 104.084 53.7247 104.084 51.3354ZM106.867 51.5014C106.867 53.1811 107.284 54.4181 108.117 55.2123C108.957 56.0001 110.067 56.394 111.447 56.394C112.827 56.394 113.941 56.0001 114.787 55.2123C115.633 54.4181 116.057 53.1811 116.057 51.5014V50.6518C116.057 48.9721 115.633 47.7416 114.787 46.9604C113.947 46.1726 112.834 45.7787 111.447 45.7787C110.067 45.7787 108.957 46.1726 108.117 46.9604C107.284 47.7416 106.867 48.9689 106.867 50.642V51.5014ZM123.83 47.8198C123.83 48.9786 124.107 49.7501 124.66 50.1342C125.214 50.5183 126.177 50.7104 127.551 50.7104C128.436 50.7104 129.237 50.6746 129.953 50.603C130.676 50.5314 131.398 50.4207 132.121 50.2709V52.3217C131.164 52.517 130.327 52.6472 129.611 52.7123C128.902 52.7709 128.12 52.8002 127.268 52.8002C124.989 52.8002 123.394 52.4129 122.482 51.6381C121.571 50.8634 121.115 49.6231 121.115 47.9174V43.9721H123.83V47.8198ZM133.488 43.9721V58.1909H130.773V43.9721H133.488ZM136.721 58.1909V43.9721H139.436V49.8022H147.17V43.9721H149.875V58.1909H147.17V51.9116H139.436V58.1909H136.721ZM153.107 43.9721H155.822V49.1088H159.748C161.506 49.1088 162.808 49.532 163.654 50.3784C164.501 51.2247 164.924 52.312 164.924 53.6401C164.924 55.0463 164.501 56.1564 163.654 56.9702C162.808 57.784 161.506 58.1909 159.748 58.1909H153.107V43.9721ZM155.822 51.1596V56.1401H159.553C160.516 56.1401 161.2 55.922 161.604 55.4858C162.007 55.0431 162.209 54.4278 162.209 53.6401C162.209 52.9304 162.007 52.3412 161.604 51.8725C161.2 51.3972 160.516 51.1596 159.553 51.1596H155.822ZM166.721 58.1909H169.455V43.9721H166.721V58.1909ZM172.678 58.1909V43.9721H183.488V46.0717H175.363V49.8608H182.492V51.9018H175.363V56.101H183.605V58.1909H172.678ZM28.3223 81.1909V66.9721H34.5234C36.3529 66.9721 37.7526 67.3627 38.7227 68.144C39.6992 68.9252 40.1875 70.0678 40.1875 71.5717C40.1875 73.0431 39.7025 74.1856 38.7324 74.9995C37.7624 75.8133 36.3561 76.2071 34.5137 76.1811H31.0371V81.1909H28.3223ZM31.0371 74.1694H34.2793C35.4512 74.1694 36.278 73.9448 36.7598 73.4955C37.2415 73.0398 37.4824 72.4018 37.4824 71.5815C37.4824 70.7547 37.2415 70.1231 36.7598 69.687C36.278 69.2442 35.4512 69.0229 34.2793 69.0229H31.0371V74.1694ZM40.5293 81.1909L46.7109 66.9037H49.377L55.5684 81.1909H52.6191L48.5078 71.1127C48.3841 70.8198 48.2799 70.5398 48.1953 70.2729C48.1107 69.9995 48.0326 69.739 47.9609 69.4916H47.8633C47.7852 69.739 47.7038 69.9995 47.6191 70.2729C47.5345 70.5463 47.4336 70.8263 47.3164 71.1127L43.1758 81.1909H40.5293ZM43.3906 77.8608L44.1523 75.8393H51.8086L52.5703 77.8608H43.3906ZM57.0527 81.1909V66.9721H67.9414V69.0522H59.7676V72.4897H63.8887C65.5163 72.4897 66.7598 72.8608 67.6191 73.603C68.4785 74.3452 68.9082 75.4161 68.9082 76.8159C68.9082 78.2351 68.4785 79.3191 67.6191 80.0678C66.7598 80.8165 65.5163 81.1909 63.8887 81.1909H57.0527ZM59.7676 74.5014V79.1596H63.6641C64.6081 79.1596 65.2786 78.9578 65.6758 78.5541C66.0794 78.1505 66.2812 77.5711 66.2812 76.8159C66.2812 76.0737 66.0794 75.504 65.6758 75.1069C65.2786 74.7032 64.6081 74.5014 63.6641 74.5014H59.7676ZM70.7051 74.3354V73.7983C70.7051 71.4285 71.3952 69.6511 72.7754 68.4662C74.1556 67.2748 75.9199 66.6791 78.0684 66.6791C80.2103 66.6791 81.9746 67.2748 83.3613 68.4662C84.7546 69.6511 85.4512 71.4285 85.4512 73.7983V74.3354C85.4512 76.7247 84.7546 78.5151 83.3613 79.7065C81.9746 80.8914 80.2103 81.4838 78.0684 81.4838C75.9199 81.4838 74.1556 80.8914 72.7754 79.7065C71.3952 78.5151 70.7051 76.7247 70.7051 74.3354ZM73.4883 74.5014C73.4883 76.1811 73.9049 77.4181 74.7383 78.2123C75.5781 79.0001 76.6882 79.394 78.0684 79.394C79.4486 79.394 80.5618 79.0001 81.4082 78.2123C82.2546 77.4181 82.6777 76.1811 82.6777 74.5014V73.6518C82.6777 71.9721 82.2546 70.7416 81.4082 69.9604C80.5684 69.1726 79.4551 68.7787 78.0684 68.7787C76.6882 68.7787 75.5781 69.1726 74.7383 69.9604C73.9049 70.7416 73.4883 71.9689 73.4883 73.642V74.5014ZM86.6426 69.0815V66.9721H99.7188V69.0815H94.543V81.1909H91.8281V69.0815H86.6426ZM101.564 66.9721H104.279V72.1088H108.205C109.963 72.1088 111.265 72.532 112.111 73.3784C112.958 74.2247 113.381 75.312 113.381 76.6401C113.381 78.0463 112.958 79.1564 112.111 79.9702C111.265 80.784 109.963 81.1909 108.205 81.1909H101.564V66.9721ZM104.279 74.1596V79.1401H108.01C108.973 79.1401 109.657 78.922 110.061 78.4858C110.464 78.0431 110.666 77.4278 110.666 76.6401C110.666 75.9304 110.464 75.3412 110.061 74.8725C109.657 74.3972 108.973 74.1596 108.01 74.1596H104.279ZM115.178 81.1909H117.912V66.9721H115.178V81.1909Z" fill="#231F20"/>
<g clip-path="url(#clip1_9859_21847)">
<path d="M358.535 159.537C358.386 157.669 358.483 154.987 359.663 151.602C358.584 149.835 357.8 148.193 357.231 146.746C356.707 145.428 356.361 144.271 356.12 143.332C354.818 138.242 355.528 135.153 354.842 126.496C354.611 123.605 354.32 121.267 354.124 119.83C355.338 114.545 356.188 108.064 355.764 100.719C355.655 98.7899 355.463 96.952 355.218 95.2054L354.273 94.3789C355.059 94.3317 355.582 94.5389 355.886 94.7072C357.037 95.3522 357.681 96.9132 357.592 98.8033C358.906 100.5 360.225 102.379 361.509 104.449C365.118 110.287 367.358 115.958 368.779 120.804L368.794 120.798C369.41 120.874 369.799 121.089 370.059 121.321C371.061 122.216 371.084 124.239 370.207 126.721C370.768 128.605 371.295 130.578 371.778 132.636C373.084 138.23 373.819 143.504 374.177 148.324L374.18 148.324C374.558 148.634 375.621 149.581 375.621 150.832C375.622 151.594 375.229 152.386 374.529 153.043C374.542 153.621 374.549 154.475 374.526 155.503C374.408 161.138 373.46 167.9 368.55 181.186C366.747 186.058 364.254 192.238 360.875 199.267L360.14 199.443C358.432 192.262 357.042 186.168 357.173 182.846C357.202 182.094 357.423 178.654 356.21 174.446C355.602 172.332 354.825 170.696 354.297 169.693C354.428 169.113 354.521 168.426 354.507 167.648C354.504 167.397 354.488 167.156 354.462 166.929L354.514 166.923C354.793 166.88 357.091 166.493 358.328 164.296C359.143 162.845 358.684 161.396 358.535 159.537Z" fill="#7099ED"/>
<path d="M232.09 81.0624C231.212 81.2586 230.478 81.5725 229.898 81.891L229.787 81.694C229.374 81.1452 228.825 80.5001 228.113 79.8443L228.138 79.817L227.467 76.4382L226.17 69.9228C225.93 68.5311 226.686 67.1954 227.919 66.6479C228.143 66.5461 228.382 66.472 228.636 66.4287C228.82 66.3968 229 66.3834 229.177 66.3851C229.248 66.3859 229.318 66.3866 229.385 66.3964C230.734 66.5018 231.888 67.5079 232.124 68.9025L232.277 69.8068C231.868 70.0872 231.592 70.4333 231.552 70.4849C230.525 71.8209 230.846 74.1925 232.46 76.467C232.271 76.7681 231.748 77.7022 231.87 78.9611C231.964 79.9626 232.415 80.6587 232.638 80.9577C232.461 80.9866 232.277 81.0184 232.09 81.0624Z" fill="#7099ED"/>
<path d="M277.773 124.104C278.605 127.693 278.702 132.535 277.443 132.898C276.534 133.158 275 131.062 274.178 129.313C271.767 124.191 273.855 118.572 273.956 116.401L274.225 116.403C275.424 118.059 276.974 120.651 277.773 124.104Z" fill="#7099ED"/>
<path d="M236.897 115.575L236.822 115.409C236.452 114.867 235.809 114.031 234.828 113.21C233.919 112.448 233.52 112.374 233.23 112.062C232.465 111.243 232.735 109.083 233.865 106.615C235.339 103.387 238.288 99.6404 242.315 97.7073C242.919 97.4196 243.665 97.112 244.431 96.8779C245.941 96.4097 247.522 96.2144 248.202 96.9618C248.528 97.32 248.485 97.7143 248.829 98.7429C249.288 100.106 249.938 101.11 250.408 101.739C251.148 101.046 251.844 100.765 252.468 100.689C255.902 100.271 258.218 106.028 267.562 113.512C269.311 114.91 270.827 115.987 271.883 116.707C272.815 115.716 273.326 115.36 273.666 115.507C273.901 115.611 273.974 115.924 273.951 116.401C273.849 118.572 271.762 124.191 274.172 129.313C274.994 131.062 276.528 133.158 277.438 132.898C278.697 132.535 278.599 127.693 277.767 124.104C276.968 120.651 275.418 118.059 274.219 116.403C276.05 115.712 278.803 114.393 281.437 111.874C281.677 111.647 281.903 111.416 282.122 111.189L282.101 111.168C283.633 106.973 286.028 104.261 288.103 103.257C291.665 99.2413 296.334 95.1574 302.379 92.0115C302.781 91.5412 303.429 90.8776 304.287 90.363C304.963 89.9506 305.772 89.6344 306.692 89.5733C306.94 89.5574 307.181 89.5598 307.419 89.5806C310.675 89.8581 312.894 93.4086 313.551 94.5627C313.626 94.695 313.689 94.8119 313.71 94.8488C314.127 95.6333 314.419 96.3921 314.619 97.104L314.625 97.1041C315.499 98.3429 316.362 99.6429 317.213 100.998C321.506 107.849 324.449 114.602 326.498 120.761C326.386 127.663 325.127 133.121 324.04 136.715C322.489 141.855 320.129 149.35 313.463 155.253C310.581 157.803 307.564 160.447 304.381 159.895C299.627 159.064 295.851 151.324 295.617 140.238C295.076 140.563 294.514 140.879 293.928 141.179C293.59 141.356 293.246 141.524 292.896 141.689C289.698 143.19 286.71 143.919 284.327 144.283C280.197 146.696 275.774 148.007 271.323 148.008C268.66 148.006 264.248 147.536 258.993 144.613C257.46 144.873 255.921 144.282 255.023 143.082C254.501 142.389 254.238 141.545 254.237 140.691C248.256 135.934 244.222 131.303 241.641 127.939C235.141 119.459 236.191 116.789 236.605 116.025C236.692 115.863 236.791 115.715 236.897 115.575Z" fill="#7099ED"/>
<path d="M300.849 175.113C300.488 174.577 299.783 173.3 300.008 171.619C300.256 169.74 301.495 168.663 301.781 168.427C300.849 167.879 300.237 167.344 299.892 167.019C297.181 164.458 296.509 160.822 295.274 153.656C294.371 148.42 294.051 144.075 293.927 141.179C294.514 140.879 295.076 140.563 295.617 140.238C295.85 151.324 299.627 159.064 304.381 159.895C307.564 160.447 310.581 157.803 313.462 155.253C320.129 149.35 322.489 141.855 324.04 136.715C325.127 133.121 326.385 127.663 326.498 120.761C324.449 114.602 321.505 107.849 317.213 100.998C316.362 99.6429 315.498 98.3429 314.625 97.101L314.619 97.1009C314.418 96.3921 314.127 95.6333 313.71 94.8489C313.689 94.8119 313.626 94.695 313.551 94.5627C312.894 93.4086 310.675 89.8582 307.419 89.5806C307.637 89.4818 307.861 89.4045 308.084 89.3455C308.326 89.2837 308.571 89.2403 308.818 89.2244C316.705 88.5847 328.167 109.033 333.226 118.711C335.667 118.295 338.514 117.968 341.692 117.887C344.851 117.809 347.696 117.987 350.146 118.275C351.63 112.232 352.702 105.266 352.77 97.5431C352.786 96.0377 352.761 94.5718 352.702 93.1391C352.702 93.0932 352.7 93.0473 352.697 93.0014C353.221 93.4595 353.745 93.9177 354.268 94.3789L355.213 95.2054C355.458 96.952 355.65 98.7899 355.759 100.719C356.183 108.064 355.333 114.545 354.119 119.83C354.315 121.267 354.606 123.605 354.837 126.496C355.523 135.153 354.813 138.242 356.115 143.332C356.356 144.271 356.702 145.428 357.226 146.746C357.795 148.193 358.579 149.835 359.658 151.602C358.478 154.987 358.381 157.669 358.53 159.537C358.679 161.396 359.138 162.845 358.323 164.296C357.086 166.493 354.788 166.88 354.509 166.923L354.457 166.929C354.483 167.156 354.499 167.397 354.502 167.648C354.516 168.426 354.423 169.113 354.292 169.693C354.82 170.696 355.597 172.332 356.205 174.446C357.418 178.654 357.197 182.094 357.168 182.846C357.037 186.168 358.427 192.262 360.135 199.443C363.836 215.003 369.047 235.667 363.56 244.244C358.999 251.374 343.456 255.774 292.784 240.87C291.639 232.899 290.722 220.864 292.962 207.38C294.11 200.446 297.364 185.476 301.189 182.283C301.411 182.099 303.247 180.608 302.908 179.396C302.663 178.507 301.412 178.365 300.839 177.035C300.561 176.398 300.565 175.774 300.615 175.337L300.849 175.113Z" fill="#7099ED"/>
<path d="M344.628 89.9551C337.817 88.0873 329.626 86.7992 320.43 87.2911C320.067 87.3089 319.706 87.3328 319.348 87.3567C324.301 86.6324 330.081 86.1979 336.511 86.483C338.956 86.5933 341.285 86.7942 343.481 87.0641C343.469 87.3945 343.497 87.8813 343.681 88.4309C343.77 88.7011 343.884 88.9378 344.007 89.1471C344.214 89.5072 344.447 89.7758 344.628 89.9551Z" fill="#7099ED"/>
<path d="M343.485 87.0642C341.289 86.7942 338.96 86.5933 336.515 86.483C330.085 86.198 324.305 86.6324 319.352 87.3567C317.46 87.4846 315.641 87.6835 313.891 87.9321C312.931 87.4298 311.885 87.2846 310.947 87.5567C309.805 87.891 309.118 88.7562 308.82 89.1999L308.82 89.2244C308.576 89.2403 308.331 89.2837 308.089 89.3456C307.865 89.4045 307.641 89.4818 307.424 89.5806C307.186 89.5598 306.944 89.5574 306.697 89.5733C305.777 89.6344 304.967 89.9506 304.291 90.363C304.437 89.5475 304.565 88.6705 304.663 87.7352C304.774 86.6653 304.827 85.6592 304.846 84.7261C305.383 84.4194 306.163 83.9927 307.121 83.525C308.331 82.9344 309.53 82.4201 310.704 81.9791C315.469 80.1788 319.886 79.5042 323.294 79.2692C327.164 78.9991 331.13 79.1982 334.573 79.7377C339.885 80.5715 343.946 82.2157 344.452 84.2037C344.651 84.989 346.034 86.6094 345.382 87.9645C345.067 88.6162 344.45 88.9618 344.011 89.1471C343.888 88.9378 343.774 88.7011 343.685 88.4309C343.501 87.8813 343.473 87.3945 343.485 87.0642Z" fill="#7099ED"/>
<path d="M313.89 87.9321C315.639 87.6835 317.459 87.4846 319.351 87.3567C319.708 87.3328 320.069 87.3089 320.433 87.2911C329.628 86.7992 337.82 88.0873 344.63 89.9551C345.809 90.276 346.945 90.6179 348.038 90.9716C349.111 90.2786 350.416 90.1786 351.333 90.7478C352.08 91.2143 352.556 92.1217 352.604 93.1442L352.705 93.1391C352.764 94.5718 352.789 96.0377 352.774 97.5431C352.705 105.266 351.633 112.232 350.149 118.275C347.699 117.987 344.854 117.809 341.695 117.887C338.518 117.968 335.671 118.295 333.229 118.711C328.171 109.033 316.708 88.5847 308.822 89.2244L308.822 89.1999C309.117 88.7562 309.803 87.891 310.946 87.5567C311.883 87.2846 312.93 87.4298 313.89 87.9321Z" fill="#7099ED"/>
<path d="M249.749 37.8471L251.921 50.5738L201.423 59.227L200.394 53.1916L200.137 51.6836L199.252 46.5003L249.749 37.8471Z" fill="#F4F3F1"/>
<path d="M229.394 66.3016L229.393 66.3964C229.323 66.3896 229.253 66.3859 229.183 66.3851C229.006 66.3834 228.825 66.3968 228.642 66.4287C228.388 66.472 228.149 66.5461 227.925 66.6479L227.889 66.5588L227.151 62.2215C227.015 61.4246 226.303 60.8575 225.499 60.9014L200.706 62.2124C199.129 62.2944 197.735 61.1819 197.47 59.6187L196.754 55.4316C196.466 53.7335 197.606 52.1171 199.301 51.8251L200.136 51.6835L200.14 51.6836L200.396 53.1917L199.558 53.3331C198.695 53.4836 198.112 54.307 198.26 55.1744L198.975 59.3615C199.11 60.1584 199.819 60.7255 200.626 60.6847L225.417 59.3736C226.997 59.2886 228.388 60.4041 228.656 61.9644L229.394 66.3016Z" fill="#F4F3F1"/>
<path d="M318.183 55.234L325.924 59.3663L325.653 59.8777C324.787 59.4283 323.778 59.2315 322.814 59.4146C320.574 59.8388 319.62 62.1333 319.547 62.3162C318.508 62.6698 317.473 63.0205 316.434 63.3742C316.949 62.8806 317.656 62.0615 318.139 60.8761C319.178 58.3253 318.386 55.9735 318.143 55.3131L318.183 55.234Z" fill="#231F20"/>
<path d="M325.917 59.3663L338.817 66.2494L338.73 66.4107C337.522 68.3478 336.063 70.3893 334.302 72.4401C333.798 73.0226 333.297 73.5806 332.794 74.111C332.788 74.1109 332.782 74.1109 332.773 74.1077C332.004 74.0541 329.502 73.7688 327.329 71.7427C325.426 69.9671 324.87 67.8654 324.703 67.0835C324.927 67.0031 325.148 66.9074 325.36 66.7933C326.527 66.1716 328.041 64.7334 327.894 62.9327C327.788 61.6434 326.859 60.511 325.647 59.8777L325.917 59.3663Z" fill="#231F20"/>
<path d="M336.706 32.5597C345.468 38.1313 348.472 49.52 343.612 58.7029L341.977 61.7923C341.769 62.1818 341.667 62.6092 341.662 63.0314C341.656 63.6984 341.897 64.3587 342.365 64.8745L340.628 67.2131L338.82 66.2494L325.92 59.3663L318.179 55.234L305.03 48.2198L295.554 43.1612L297.18 40.0901L300.437 41.5121C302.428 42.3828 304.751 41.99 306.345 40.5098L312.536 34.7613C316.365 31.2074 321.298 29.4058 326.252 29.4557C329.865 29.4921 333.492 30.5139 336.706 32.5597Z" fill="#FF8B63"/>
<path d="M232.645 80.9578C232.422 80.6587 231.971 79.9626 231.877 78.9611C231.755 77.7022 232.278 76.7681 232.467 76.467C230.853 74.1926 230.532 71.8209 231.559 70.4849C231.599 70.4333 231.875 70.0872 232.284 69.8068C232.616 69.5837 233.039 69.4013 233.503 69.4549C235.565 69.699 235.056 74.2257 238.388 80.3179C240.394 83.9855 241.952 84.8702 241.862 87.455C241.803 89.0547 241.161 90.0336 241.571 92.1337C241.957 94.0991 242.934 95.3543 243.148 95.6196C243.613 96.1995 244.085 96.6082 244.437 96.878C243.671 97.112 242.925 97.4196 242.321 97.7073C238.294 99.6404 235.345 103.387 233.871 106.615C232.8 105.356 231.089 103.531 228.667 101.686C226.676 100.172 226.418 100.329 225.547 99.3959C223.402 97.0946 223.084 94.1172 222.662 90.1656C222.52 88.8423 222.392 86.9928 222.475 84.7568C219.887 83.314 218.585 80.6816 219.154 78.4689C219.606 76.717 221.075 75.8261 221.277 75.7088C223.093 74.6438 225.555 74.9134 227.474 76.4382L228.145 79.817L228.12 79.8443C228.832 80.5002 229.381 81.1452 229.794 81.694L229.905 81.891C230.485 81.5725 231.219 81.2586 232.097 81.0624C232.284 81.0184 232.468 80.9866 232.645 80.9578Z" fill="#FF8B63"/>
<path d="M333.113 75.9991C333.488 77.5053 334.038 78.7593 334.569 79.7377C331.126 79.1982 327.16 78.9991 323.29 79.2692C319.882 79.5042 315.465 80.1788 310.7 81.9791C310.579 81.6137 310.402 81.2294 310.143 80.8505C309.189 79.4608 307.646 78.9557 306.695 78.7717C308.711 78.994 311.327 78.8367 313.893 77.3723C317.69 75.2074 319.983 70.971 319.892 66.4047C321.394 67.3837 323.175 67.625 324.705 67.0804C324.871 67.8655 325.427 69.9671 327.331 71.7427C329.503 73.7688 332.005 74.0541 332.774 74.1077L332.768 74.178C332.841 74.7449 332.951 75.3549 333.113 75.9991Z" fill="#F4F3F1"/>
<path d="M327.894 62.9327C328.041 64.7334 326.527 66.1716 325.36 66.7933C325.148 66.9074 324.927 67.0031 324.704 67.0804C323.174 67.625 321.393 67.3837 319.891 66.4047C319.982 70.971 317.688 75.2074 313.891 77.3723C311.326 78.8367 308.71 78.994 306.693 78.7717C306.687 78.7716 306.684 78.7716 306.678 78.7716C306.367 78.7133 306.123 78.6864 305.982 78.6728C304.525 78.4378 303.487 78.0326 303.183 77.9102C302.45 77.6121 301.042 77.0257 299.838 75.8417C296.738 72.7934 296.389 67.132 298.44 61.4673C296.808 60.6216 296.485 60.0125 296.519 59.5967C296.592 58.7957 298.004 58.6906 299.372 57.4804C300.58 56.4124 300.731 55.3827 301.565 53.5643C302.18 52.2242 303.219 50.3344 305.027 48.2229L318.176 55.237L318.136 55.3162C318.38 55.9765 319.172 58.3284 318.132 60.8791C317.649 62.0646 316.942 62.8836 316.427 63.3772C317.466 63.0235 318.502 62.6729 319.541 62.3192C319.613 62.1364 320.567 59.8418 322.808 59.4176C323.772 59.2346 324.781 59.4314 325.647 59.8807C326.859 60.5141 327.788 61.6464 327.894 62.9357L327.894 62.9327ZM306.51 58.0786C306.78 57.0409 306.531 56.0806 305.949 55.9279C305.367 55.7752 304.678 56.4904 304.408 57.525C304.138 58.5626 304.388 59.5229 304.97 59.6757C305.552 59.8284 306.24 59.1132 306.51 58.0786Z" fill="#F4F3F1"/>
<path d="M305.953 55.9279C306.534 56.0806 306.784 57.0409 306.514 58.0786C306.244 59.1132 305.556 59.8284 304.974 59.6757C304.392 59.5229 304.142 58.5627 304.412 57.525C304.682 56.4904 305.371 55.7752 305.953 55.9279Z" fill="#231F20"/>
<path d="M304.291 90.363C304.437 89.5475 304.565 88.6705 304.663 87.7352C304.774 86.6653 304.827 85.6592 304.846 84.7261C305.383 84.4194 306.163 83.9927 307.121 83.525C308.331 82.9344 309.53 82.4201 310.704 81.9791C315.469 80.1788 319.886 79.5042 323.294 79.2692C327.164 78.9991 331.13 79.1982 334.573 79.7377C339.885 80.5715 343.946 82.2157 344.452 84.2037C344.651 84.989 346.034 86.6094 345.382 87.9645C345.067 88.6162 344.45 88.9618 344.011 89.1471L344.008 89.1471" stroke="#231F20" stroke-width="0.6" stroke-linecap="round" stroke-linejoin="round"/>
<path d="M332.766 74.178C332.839 74.7449 332.949 75.3549 333.111 75.9991C333.487 77.5053 334.036 78.7593 334.567 79.7377C334.57 79.7469 334.576 79.7592 334.582 79.7684" stroke="#231F20" stroke-width="0.6" stroke-linecap="round" stroke-linejoin="round"/>
<path d="M306.695 78.7717C307.646 78.9557 309.19 79.4608 310.144 80.8505C310.403 81.2294 310.579 81.6137 310.701 81.9791" stroke="#231F20" stroke-width="0.6" stroke-linecap="round" stroke-linejoin="round"/>
<path d="M305.984 78.6697C306.125 78.6833 306.369 78.7103 306.68 78.7685" stroke="#231F20" stroke-width="0.6" stroke-linecap="round" stroke-linejoin="round"/>
<path d="M315.046 100.128C315.042 99.3144 314.951 98.2732 314.621 97.104C314.42 96.3921 314.129 95.6333 313.712 94.8489C313.691 94.8119 313.628 94.695 313.553 94.5627C312.896 93.4086 310.677 89.8582 307.421 89.5806C307.183 89.5598 306.942 89.5574 306.694 89.5733C305.774 89.6344 304.965 89.9506 304.288 90.363C303.431 90.8776 302.783 91.5412 302.381 92.0115" stroke="#231F20" stroke-width="0.6" stroke-linecap="round" stroke-linejoin="round"/>
<path d="M304.571 90.9441C303.847 91.2734 303.119 91.6302 302.385 92.0115C296.34 95.1574 291.671 99.2413 288.109 103.257" stroke="#231F20" stroke-width="0.6" stroke-linecap="round" stroke-linejoin="round"/>
<path d="M314.627 97.101C315.5 98.3429 316.364 99.6429 317.214 100.998C321.507 107.849 324.451 114.602 326.499 120.761C326.387 127.663 325.129 133.121 324.042 136.715C322.49 141.855 320.13 149.35 313.464 155.253C310.583 157.803 307.566 160.447 304.382 159.895C299.629 159.064 295.852 151.324 295.619 140.238" stroke="#231F20" stroke-width="0.6" stroke-linecap="round" stroke-linejoin="round"/>
<path d="M308.818 89.1999C309.115 88.7561 309.802 87.891 310.945 87.5567C311.882 87.2846 312.928 87.4298 313.889 87.9321C314.736 88.369 315.52 89.0838 316.116 90.0322" stroke="#231F20" stroke-width="0.6" stroke-linecap="round" stroke-linejoin="round"/>
<path d="M313.89 87.9321C315.639 87.6835 317.459 87.4846 319.351 87.3567C319.708 87.3328 320.069 87.3089 320.433 87.2911C329.628 86.7992 337.82 88.0873 344.631 89.9551C345.809 90.276 346.945 90.6179 348.038 90.9716C348.541 91.1297 349.031 91.2937 349.512 91.4577" stroke="#231F20" stroke-width="0.6" stroke-linecap="round" stroke-linejoin="round"/>
<path d="M348.009 90.9897C348.009 90.9897 348.031 90.9777 348.04 90.9716C349.113 90.2786 350.418 90.1786 351.335 90.7478C352.082 91.2143 352.558 92.1217 352.606 93.1442C352.641 93.9249 352.428 94.7703 351.892 95.536" stroke="#231F20" stroke-width="0.6" stroke-linecap="round" stroke-linejoin="round"/>
<path d="M349.557 92.7893C348.343 93.542 346.888 94.2465 345.187 94.7434C337.615 96.9438 330.813 93.2891 328.781 92.0967" stroke="#231F20" stroke-width="0.6" stroke-linecap="round" stroke-linejoin="round"/>
<path d="M319.348 87.3567C324.301 86.6324 330.081 86.1979 336.511 86.483C338.956 86.5933 341.285 86.7942 343.481 87.0641C343.756 87.0975 344.027 87.1308 344.299 87.1672" stroke="#231F20" stroke-width="0.6" stroke-linecap="round" stroke-linejoin="round"/>
<path d="M343.486 87.0489L343.486 87.0642C343.473 87.3945 343.502 87.8813 343.686 88.4309C343.775 88.7011 343.888 88.9378 344.011 89.1471C344.218 89.5072 344.451 89.7758 344.632 89.9551C344.678 90.0015 344.72 90.0417 344.756 90.0757" stroke="#231F20" stroke-width="0.6" stroke-linecap="round" stroke-linejoin="round"/>
<path d="M354.266 94.3789L354.269 94.3789C355.054 94.3317 355.577 94.5389 355.881 94.7072C357.032 95.3522 357.676 96.9132 357.587 98.8033C357.564 99.308 357.485 99.8335 357.354 100.374" stroke="#231F20" stroke-width="0.6" stroke-linecap="round" stroke-linejoin="round"/>
<path d="M357.586 98.8002L357.589 98.8002C358.904 100.499 360.223 102.379 361.506 104.449C365.116 110.286 367.355 115.958 368.776 120.804C368.903 121.242 369.027 121.675 369.142 122.099" stroke="#231F20" stroke-width="0.6" stroke-linecap="round" stroke-linejoin="round"/>
<path d="M368.789 120.798C369.405 120.874 369.794 121.089 370.054 121.321C371.056 122.216 371.079 124.239 370.202 126.721C369.868 127.66 369.409 128.668 368.822 129.702" stroke="#231F20" stroke-width="0.6" stroke-linecap="round" stroke-linejoin="round"/>
<path d="M363.281 122.22C363.556 122.489 363.998 122.882 364.599 123.265C365.54 123.859 366.751 124.623 367.855 124.203C368.088 124.114 368.635 123.85 369.074 123.007" stroke="#231F20" stroke-width="0.6" stroke-linecap="round" stroke-linejoin="round"/>
<path d="M359.859 113.954C359.814 114.548 359.706 115.247 359.475 116.01C358.963 117.706 358.081 118.912 357.45 119.631" stroke="#231F20" stroke-width="0.6" stroke-linecap="round" stroke-linejoin="round"/>
<path d="M357.169 111.204C357.104 111.889 357.027 112.919 357.017 114.168C357.003 116.196 357.165 117.948 357.451 119.631C357.817 121.81 358.382 123.878 359.012 126.293C361.97 137.669 361.797 139.362 361.342 140.845C360.481 143.63 358.644 145.558 357.23 146.746" stroke="#231F20" stroke-width="0.6" stroke-linecap="round" stroke-linejoin="round"/>
<path d="M293.388 109.09C293.356 108.655 292.947 103.722 290.549 102.927C289.861 102.699 289.013 102.813 288.105 103.257C286.03 104.261 283.635 106.973 282.103 111.168" stroke="#231F20" stroke-width="0.6" stroke-linecap="round" stroke-linejoin="round"/>
<path d="M284.706 107.874C284.079 108.868 283.239 110.022 282.128 111.189C281.909 111.417 281.684 111.647 281.443 111.874C278.809 114.393 276.056 115.712 274.226 116.403" stroke="#231F20" stroke-width="0.6" stroke-linecap="round" stroke-linejoin="round"/>
<path d="M286.156 107.16C286.854 107.342 287.275 107.661 287.52 107.902C288.663 109.027 288.752 111.198 287.707 113.311" stroke="#231F20" stroke-width="0.6" stroke-linecap="round" stroke-linejoin="round"/>
<path d="M290.311 118.661C290.06 115.363 290.212 113.642 290.766 113.501C291.409 113.339 292.599 115.312 294.332 119.43" stroke="#231F20" stroke-width="0.6" stroke-linecap="round" stroke-linejoin="round"/>
<path d="M257.672 143.834C258.118 144.111 258.559 144.37 258.993 144.613C264.248 147.536 268.66 148.006 271.323 148.008C275.774 148.007 280.197 146.696 284.327 144.28C292.503 139.506 299.543 130.431 303.439 118.714" stroke="#231F20" stroke-width="0.6" stroke-linecap="round" stroke-linejoin="round"/>
<path d="M284.327 144.283C286.71 143.919 289.698 143.19 292.896 141.689C293.246 141.524 293.59 141.356 293.928 141.179C294.514 140.879 295.076 140.563 295.617 140.238C297.003 139.411 298.246 138.518 299.364 137.599C301.123 136.16 302.564 134.663 303.717 133.288C304.892 131.889 305.772 130.613 306.39 129.637" stroke="#231F20" stroke-width="0.6" stroke-linecap="round" stroke-linejoin="round"/>
<path d="M303.721 133.288C304.91 133.487 305.862 133.359 306.52 133.191C310.761 132.111 312.26 127.083 312.386 126.631" stroke="#231F20" stroke-width="0.6" stroke-linecap="round" stroke-linejoin="round"/>
<path d="M274.223 116.403C275.422 118.059 276.972 120.651 277.771 124.104C278.602 127.693 278.7 132.535 277.441 132.898C276.531 133.158 274.998 131.062 274.176 129.313C271.765 124.191 273.853 118.572 273.954 116.401C273.977 115.924 273.904 115.611 273.67 115.507C273.329 115.36 272.819 115.716 271.886 116.707C271.559 117.053 271.182 117.474 270.743 117.981C268.039 121.099 265.989 123.885 264.542 125.988" stroke="#231F20" stroke-width="0.6" stroke-linecap="round" stroke-linejoin="round"/>
<path d="M246.915 108.298C248.093 104.736 249.298 102.774 250.411 101.739C251.151 101.046 251.847 100.765 252.471 100.689C255.905 100.271 258.221 106.028 267.565 113.512C269.314 114.91 270.83 115.987 271.886 116.707" stroke="#231F20" stroke-width="0.6" stroke-linecap="round" stroke-linejoin="round"/>
<path d="M250.413 101.745C250.413 101.745 250.413 101.742 250.413 101.739C249.943 101.11 249.293 100.106 248.834 98.7429C248.49 97.7144 248.533 97.3201 248.207 96.9618C247.527 96.2145 245.946 96.4097 244.436 96.878C243.67 97.112 242.925 97.4197 242.32 97.7073C238.293 99.6405 235.344 103.387 233.87 106.615C232.74 109.083 232.471 111.243 233.235 112.062C233.525 112.374 233.925 112.448 234.833 113.21C235.815 114.031 236.457 114.867 236.827 115.409" stroke="#231F20" stroke-width="0.6" stroke-linecap="round" stroke-linejoin="round"/>
<path d="M244.43 96.8779C244.078 96.6082 243.606 96.1995 243.141 95.6196C242.927 95.3543 241.95 94.099 241.564 92.1337C241.154 90.0336 241.796 89.0547 241.855 87.455C241.945 84.8702 240.387 83.9855 238.381 80.3179C235.049 74.2257 235.559 69.699 233.496 69.4549C233.033 69.4013 232.609 69.5837 232.277 69.8068C231.868 70.0872 231.593 70.4333 231.552 70.4849C230.525 71.8209 230.846 74.1925 232.46 76.467C232.271 76.7681 231.749 77.7022 231.87 78.9611C231.964 79.9626 232.415 80.6587 232.638 80.9577" stroke="#231F20" stroke-width="0.6" stroke-linecap="round" stroke-linejoin="round"/>
<path d="M235.077 80.9302C234.492 80.8509 233.643 80.8026 232.643 80.9577C232.465 80.9866 232.282 81.0184 232.095 81.0624C231.216 81.2586 230.483 81.5725 229.903 81.891C229.466 82.1283 229.116 82.3696 228.857 82.5628" stroke="#231F20" stroke-width="0.6" stroke-linecap="round" stroke-linejoin="round"/>
<path d="M229.789 81.694C229.376 81.1452 228.827 80.5001 228.115 79.8443C227.928 79.671 227.728 79.4946 227.519 79.3211C226.525 78.5003 225.566 77.9398 224.797 77.5588" stroke="#231F20" stroke-width="0.6" stroke-linecap="round" stroke-linejoin="round"/>
<path d="M227.469 76.4382C225.55 74.9134 223.088 74.6438 221.272 75.7088C221.07 75.826 219.601 76.717 219.149 78.4689C218.58 80.6816 219.882 83.314 222.47 84.7568C222.387 86.9928 222.515 88.8423 222.657 90.1656C223.079 94.1172 223.397 97.0946 225.542 99.3959C226.413 100.329 226.671 100.172 228.662 101.685C231.084 103.531 232.795 105.356 233.866 106.615" stroke="#231F20" stroke-width="0.6" stroke-linecap="round" stroke-linejoin="round"/>
<path d="M293.93 141.179C294.053 144.075 294.373 148.42 295.276 153.656C296.511 160.822 297.184 164.458 299.895 167.019C300.239 167.344 300.851 167.879 301.783 168.427C303.584 169.489 306.578 170.602 311.138 170.361" stroke="#231F20" stroke-width="0.6" stroke-linecap="round" stroke-linejoin="round"/>
<path d="M299.366 137.599C299.071 139.903 298.918 143.555 300.252 147.653C301.052 150.119 302.509 154.61 305.091 154.804C308.302 155.048 311.474 148.519 310.881 148.002C310.632 147.788 309.535 148.46 306.659 151.108" stroke="#231F20" stroke-width="0.6" stroke-linecap="round" stroke-linejoin="round"/>
<path d="M301.786 168.427C301.499 168.663 300.261 169.74 300.013 171.619C299.788 173.3 300.493 174.577 300.854 175.113C300.926 175.221 300.987 175.298 301.02 175.341" stroke="#231F20" stroke-width="0.6" stroke-linecap="round" stroke-linejoin="round"/>
<path d="M324.691 168.156C326.878 167.829 329.111 167.527 331.386 167.254C338.854 166.362 345.994 165.874 352.749 165.694" stroke="#231F20" stroke-width="0.6" stroke-linecap="round" stroke-linejoin="round"/>
<path d="M354.508 166.923C354.787 166.88 357.085 166.493 358.322 164.296C359.137 162.845 358.678 161.396 358.529 159.537C358.38 157.669 358.477 154.987 359.657 151.602C358.578 149.835 357.794 148.193 357.225 146.746C356.701 145.428 356.355 144.271 356.114 143.332C354.812 138.242 355.522 135.153 354.836 126.496C354.605 123.605 354.314 121.267 354.118 119.83C355.332 114.545 356.182 108.064 355.758 100.719C355.649 98.7899 355.457 96.952 355.212 95.2054L354.267 94.3789C353.744 93.9177 353.22 93.4595 352.696 93.0014C352.699 93.0473 352.701 93.0932 352.701 93.1391C352.76 94.5718 352.785 96.0377 352.769 97.5431C352.701 105.266 351.629 112.232 350.145 118.275C347.695 117.987 344.85 117.809 341.691 117.887C338.513 117.968 335.666 118.295 333.225 118.711C328.166 109.033 316.704 88.5847 308.817 89.2244C308.57 89.2403 308.325 89.2837 308.083 89.3455C307.86 89.4045 307.636 89.4818 307.418 89.5806" stroke="#231F20" stroke-width="0.6" stroke-linecap="round" stroke-linejoin="round"/>
<path d="M354.048 165.061C354.211 165.534 354.382 166.166 354.46 166.929C354.485 167.156 354.501 167.397 354.505 167.648C354.518 168.426 354.426 169.113 354.295 169.693C354.183 170.203 354.038 170.627 353.909 170.95" stroke="#231F20" stroke-width="0.6" stroke-linecap="round" stroke-linejoin="round"/>
<path d="M327.809 155.195C328.748 156.278 330.273 157.695 332.448 158.308C341.116 160.742 352.446 148.24 351.813 147.364C351.599 147.069 349.787 147.791 343.308 151.798" stroke="#231F20" stroke-width="0.6" stroke-linecap="round" stroke-linejoin="round"/>
<path d="M347.09 168.299C347.03 169.755 347.002 171.566 347.298 171.612C347.777 171.681 348.734 167.027 349.356 167.113C349.902 167.189 349.517 170.836 350.443 171.077C350.937 171.205 351.593 170.321 352.071 169.561" stroke="#231F20" stroke-width="0.6" stroke-linecap="round" stroke-linejoin="round"/>
<path d="M341.448 168.404C341.024 172.959 340.511 174.417 340.016 174.442C339.069 174.494 338 169.309 337.489 169.414C337.085 169.499 337.926 172.751 336.804 173.443C335.854 174.03 333.844 172.56 331.997 170.892" stroke="#231F20" stroke-width="0.6" stroke-linecap="round" stroke-linejoin="round"/>
<path d="M300.616 175.337C300.565 175.774 300.562 176.398 300.84 177.035C301.413 178.365 302.664 178.506 302.908 179.396C303.247 180.608 301.412 182.098 301.19 182.283C297.365 185.476 294.111 200.446 292.963 207.38C290.722 220.864 291.64 232.899 292.784 240.87C343.457 255.774 358.999 251.374 363.561 244.244C369.048 235.667 363.837 215.003 360.136 199.443C358.428 192.262 357.038 186.168 357.169 182.846C357.198 182.094 357.419 178.654 356.206 174.446C355.598 172.332 354.82 170.696 354.293 169.693" stroke="#231F20" stroke-width="0.6" stroke-linecap="round" stroke-linejoin="round"/>
<path d="M348.312 199.061C348.736 200.986 349.486 205.648 347.466 210.915C344.64 218.292 338.441 221.476 336.961 222.186" stroke="#231F20" stroke-width="0.6" stroke-linecap="round" stroke-linejoin="round"/>
<path d="M307.624 182.914C307.357 183.667 307.047 184.686 306.827 185.914C306.827 185.914 306.381 188.363 306.578 190.893C306.819 194.004 309.19 199.64 314.411 205.014" stroke="#231F20" stroke-width="0.6" stroke-linecap="round" stroke-linejoin="round"/>
<path d="M309.516 187.774C309.56 188.808 309.689 189.951 309.967 191.169C310.999 195.738 313.515 198.915 315.186 200.664" stroke="#231F20" stroke-width="0.6" stroke-linecap="round" stroke-linejoin="round"/>
<path d="M322.892 179.435C327.209 179.84 330.544 179.344 332.806 178.81C336.18 178.011 337.559 177.028 340.561 176.709C344.166 176.323 347.224 177.202 349.247 178.005" stroke="#231F20" stroke-width="0.6" stroke-linecap="round" stroke-linejoin="round"/>
<path d="M313.806 217.838C314.656 217.418 315.711 217.003 316.957 216.737C323.504 215.334 330.461 219.049 330.21 220.668C329.841 223.042 313.798 221.883 313.754 222.923C313.726 223.59 320.309 224.412 325.576 224.979" stroke="#231F20" stroke-width="0.6" stroke-linecap="round" stroke-linejoin="round"/>
<path d="M370.203 126.721C370.764 128.605 371.291 130.578 371.775 132.636C373.081 138.23 373.816 143.504 374.173 148.324C374.238 149.142 374.288 149.947 374.329 150.74" stroke="#231F20" stroke-width="0.6" stroke-linecap="round" stroke-linejoin="round"/>
<path d="M374.177 148.324C374.556 148.634 375.618 149.581 375.618 150.832C375.62 151.594 375.227 152.386 374.527 153.043C373.629 153.888 372.227 154.513 370.507 154.575" stroke="#231F20" stroke-width="0.6" stroke-linecap="round" stroke-linejoin="round"/>
<path d="M374.524 153.043C374.536 153.621 374.543 154.475 374.52 155.503C374.402 161.138 373.455 167.9 368.544 181.186C366.742 186.058 364.248 192.238 360.869 199.267" stroke="#231F20" stroke-width="0.6" stroke-linecap="round" stroke-linejoin="round"/>
<path d="M360.466 152.054C360.716 152.332 361.058 152.678 361.504 153.031C363.776 154.835 366.914 155.368 367.204 154.784C367.45 154.29 365.829 152.714 364.01 151.927C362.289 151.182 360.824 151.335 360.8 151.008C360.756 150.478 364.556 150.207 364.601 149.351C364.635 148.736 362.74 147.606 361.389 148.348C360.645 148.76 360.393 149.553 360.327 149.791" stroke="#231F20" stroke-width="0.6" stroke-linecap="round" stroke-linejoin="round"/>
<path d="M326.951 100.309C328.549 100.019 330.246 99.7857 332.034 99.6323C339.313 99.0171 345.669 99.9837 350.626 101.273" stroke="#231F20" stroke-width="0.6" stroke-linecap="round" stroke-linejoin="round"/>
<path d="M314.947 104.424C315.776 103.97 316.605 103.513 317.438 103.056" stroke="#231F20" stroke-width="0.6" stroke-linecap="round" stroke-linejoin="round"/>
<path d="M228.138 79.817L227.467 76.4382L226.17 69.9228C225.93 68.5311 226.686 67.1954 227.919 66.6479C228.143 66.5461 228.382 66.472 228.636 66.4287C228.82 66.3968 229 66.3834 229.177 66.3851C229.248 66.3859 229.318 66.3866 229.385 66.3964C230.734 66.5018 231.888 67.5079 232.124 68.9025L232.277 69.8068L232.306 69.9692" stroke="#231F20" stroke-width="0.6" stroke-miterlimit="10"/>
<path d="M200.137 51.6836L199.252 46.5003L249.749 37.8471L251.921 50.5738L201.423 59.227L200.394 53.1916L200.137 51.6836Z" stroke="#231F20" stroke-width="0.6" stroke-miterlimit="10"/>
<path d="M200.136 51.6835L199.301 51.8251C197.606 52.1171 196.466 53.7335 196.754 55.4316L197.47 59.6187C197.735 61.1819 199.129 62.2944 200.706 62.2124L225.499 60.9014C226.303 60.8575 227.015 61.4246 227.151 62.2215L227.889 66.5588" stroke="#231F20" stroke-width="0.6" stroke-miterlimit="10"/>
<path d="M229.39 66.3016L228.652 61.9644C228.383 60.4041 226.993 59.2886 225.413 59.3736L200.622 60.6847C199.815 60.7255 199.106 60.1584 198.971 59.3615L198.255 55.1744C198.108 54.307 198.691 53.4836 199.554 53.3331L200.392 53.1916" stroke="#231F20" stroke-width="0.6" stroke-miterlimit="10"/>
<path d="M238.474 114.348C237.961 114.597 237.356 114.98 236.898 115.575C236.792 115.715 236.693 115.863 236.606 116.025C236.192 116.789 235.142 119.459 241.642 127.939C244.223 131.303 248.257 135.934 254.238 140.691C254.254 140.703 254.272 140.716 254.287 140.728" stroke="#231F20" stroke-width="0.6" stroke-linecap="round" stroke-linejoin="round"/>
<path d="M258.996 144.613C257.463 144.873 255.924 144.282 255.026 143.082C254.504 142.389 254.241 141.545 254.24 140.691C254.24 139.813 254.518 138.919 255.075 138.16" stroke="#231F20" stroke-width="0.6" stroke-linecap="round" stroke-linejoin="round"/>
<path d="M244.199 110.006C243.842 109.638 242.615 108.396 241.433 108.647C239.878 108.98 238.643 111.856 239.185 115.889" stroke="#231F20" stroke-width="0.6" stroke-linecap="round" stroke-linejoin="round"/>
<path d="M305.027 48.2198C303.219 50.3314 302.18 52.2211 301.565 53.5613C300.731 55.3797 300.58 56.4094 299.372 57.4774C298.004 58.6876 296.592 58.7927 296.519 59.5937C296.485 60.0095 296.808 60.6186 298.44 61.4643C296.389 67.129 296.738 72.7903 299.838 75.8386C301.042 77.0227 302.45 77.6091 303.183 77.9071C303.487 78.0295 304.525 78.4347 305.982 78.6697C306.205 78.7087 306.437 78.7416 306.678 78.7685C306.684 78.7686 306.687 78.7686 306.693 78.7687C308.71 78.9909 311.326 78.8336 313.891 77.3693C317.688 75.2043 319.982 70.968 319.891 66.4016C321.393 67.3806 323.174 67.622 324.704 67.0774C324.927 67.0001 325.148 66.9044 325.36 66.7902C326.527 66.1686 328.041 64.7303 327.894 62.9296C327.788 61.6403 326.859 60.508 325.647 59.8746C324.781 59.4253 323.772 59.2284 322.808 59.4115C320.567 59.8357 319.613 62.1302 319.541 62.3131C318.502 62.6668 317.466 63.0174 316.427 63.3711C316.942 62.8775 317.65 62.0585 318.132 60.873C319.172 58.3223 318.38 55.9704 318.136 55.3101" stroke="#231F20" stroke-width="0.6" stroke-linecap="round" stroke-linejoin="round"/>
<path d="M301.244 66.318C301.738 66.4331 302.449 66.532 303.284 66.4303C304.883 66.2383 305.979 65.4293 306.45 65.0332" stroke="#231F20" stroke-width="0.6" stroke-linecap="round" stroke-linejoin="round"/>
<path d="M332.797 74.111C333.3 73.5806 333.801 73.0226 334.304 72.4401C336.066 70.3894 337.525 68.3478 338.733 66.4107" stroke="#231F20" stroke-width="0.6" stroke-linecap="round" stroke-linejoin="round"/>
<path d="M338.82 66.2494L340.628 67.2131L342.365 64.8745C341.897 64.3587 341.656 63.6984 341.662 63.0314C341.667 62.6092 341.769 62.1818 341.977 61.7923L343.612 58.7029C348.472 49.52 345.468 38.1313 336.706 32.5597C333.492 30.5139 329.865 29.4921 326.252 29.4557C321.298 29.4058 316.365 31.2074 312.536 34.7613L306.345 40.5098C304.751 41.99 302.428 42.3828 300.437 41.5121L297.18 40.0901L295.554 43.1612L305.03 48.2198L318.179 55.234L325.92 59.3663L338.82 66.2494Z" stroke="#231F20" stroke-width="0.6" stroke-linecap="round" stroke-linejoin="round"/>
<path d="M320.663 33.0959C319.716 33.3617 317.828 34.0434 316.283 35.7965C313.342 39.139 314.183 43.5017 314.326 44.2376C315.078 48.1251 317.78 50.3218 318.544 50.9048" stroke="#231F20" stroke-width="0.6" stroke-linecap="round" stroke-linejoin="round"/>
<path d="M324.703 67.0835C324.869 67.8655 325.425 69.9671 327.329 71.7427C329.502 73.7688 332.003 74.0541 332.772 74.1077C332.782 74.1109 332.788 74.1109 332.794 74.111" stroke="#231F20" stroke-width="0.6" stroke-linecap="round" stroke-linejoin="round"/>
<path d="M322.267 61.7499C322.335 61.668 322.795 61.128 323.574 61.1083C324.237 61.0935 324.68 61.4713 324.776 61.561" stroke="#231F20" stroke-width="0.6" stroke-linecap="round" stroke-linejoin="round"/>
<path d="M306.476 53.4087C306.638 53.3706 307.278 53.2424 307.913 53.6037C308.839 54.1302 308.917 55.2111 308.919 55.2907" stroke="#231F20" stroke-width="0.6" stroke-linecap="round" stroke-linejoin="round"/>
</g>
</g>
<defs>
<clipPath id="clip0_9859_21847">
<rect x="0.5" width="384" height="240" rx="32" fill="white"/>
</clipPath>
<clipPath id="clip1_9859_21847">
<rect width="180.172" height="221.479" fill="white" transform="translate(196.828 28) rotate(0.576677)"/>
</clipPath>
</defs>
</svg>
