<svg width="385" height="240" viewBox="0 0 385 240" fill="none" xmlns="http://www.w3.org/2000/svg">
<g clip-path="url(#clip0_9859_21942)">
<rect x="0.5" width="384" height="240" rx="32" fill="white"/>
<path d="M27.6777 51.3549V50.8081C27.6777 48.4187 28.3581 46.6349 29.7188 45.4565C31.0794 44.2716 32.834 43.6791 34.9824 43.6791C36.9681 43.6791 38.5501 44.0991 39.7285 44.9389C40.9069 45.7722 41.5579 47.0125 41.6816 48.6596L41.7012 48.8647H38.957L38.9473 48.6498C38.8561 47.6668 38.4688 46.9441 37.7852 46.4819C37.1081 46.0131 36.1641 45.7788 34.9531 45.7788C33.612 45.7788 32.528 46.1759 31.7012 46.9702C30.8809 47.7644 30.4707 48.9819 30.4707 50.6225V51.5405C30.4707 53.2527 30.8809 54.4897 31.7012 55.2514C32.528 56.0131 33.612 56.394 34.9531 56.394C36.3073 56.394 37.2904 56.1303 37.9023 55.603C38.5143 55.0691 38.8626 54.3725 38.9473 53.5131L38.957 53.3081H41.7012L41.6914 53.5229C41.5807 55.0463 40.9557 56.254 39.8164 57.1459C38.6836 58.0379 37.0755 58.4838 34.9922 58.4838C32.8307 58.4838 31.0697 57.9044 29.709 56.7456C28.3548 55.5802 27.6777 53.7833 27.6777 51.3549ZM41.9551 58.1909L48.1367 43.9038H50.8027L56.9941 58.1909H54.0449L49.9336 48.1127C49.8099 47.8198 49.7057 47.5398 49.6211 47.2729C49.5365 46.9995 49.4583 46.739 49.3867 46.4916H49.2891C49.2109 46.739 49.1296 46.9995 49.0449 47.2729C48.9603 47.5463 48.8594 47.8263 48.7422 48.1127L44.6016 58.1909H41.9551ZM44.8164 54.8608L45.5781 52.8393H53.2344L53.9961 54.8608H44.8164ZM58.4785 58.1909V43.9721H61.1934V49.8022H68.9277V43.9721H71.6328V58.1909H68.9277V51.9116H61.1934V58.1909H58.4785ZM73.4785 46.0815V43.9721H86.5547V46.0815H81.3789V58.1909H78.6641V46.0815H73.4785ZM88.4004 58.1909V43.9721H99.2109V46.0717H91.0859V49.8608H98.2148V51.9018H91.0859V56.101H99.3281V58.1909H88.4004ZM100.002 58.1909L106.027 50.2416L106.457 50.2221L110.861 43.9721H113.693L108.049 51.687L107.609 51.7163L102.883 58.1909H100.002ZM100.188 43.9721H103.41L107.873 50.1831L108 50.2026L114.064 58.1909H110.803L106.076 51.7553L105.979 51.7358L100.188 43.9721ZM115.686 58.1909V43.9721H118.4V49.8022H126.135V43.9721H128.84V58.1909H126.135V51.9116H118.4V58.1909H115.686ZM145.363 58.1909H142.707V48.6694C142.707 48.461 142.71 48.2332 142.717 47.9858C142.723 47.7319 142.733 47.504 142.746 47.3022H142.629C142.531 47.4975 142.434 47.6896 142.336 47.8784C142.245 48.0672 142.115 48.2722 141.945 48.4936L134.943 58.1909H132.072V43.9721H134.738V53.4838C134.738 53.6857 134.732 53.9103 134.719 54.1577C134.712 54.4051 134.706 54.6329 134.699 54.8413H134.836C134.908 54.6785 134.995 54.4929 135.1 54.2846C135.21 54.0763 135.337 53.8712 135.48 53.6694L142.492 43.9721H145.363V58.1909ZM158.635 58.1909L152.092 51.3745L154.064 49.9682L161.965 58.1909H158.635ZM149.953 49.812H152.619L158.537 43.9721H161.477L153.186 51.9213H149.953V49.812ZM148.596 58.1909V43.9721H151.311V58.1909H148.596ZM161.369 58.1909L167.551 43.9038H170.217L176.408 58.1909H173.459L169.348 48.1127C169.224 47.8198 169.12 47.5398 169.035 47.2729C168.951 46.9995 168.872 46.739 168.801 46.4916H168.703C168.625 46.739 168.544 46.9995 168.459 47.2729C168.374 47.5463 168.273 47.8263 168.156 48.1127L164.016 58.1909H161.369ZM164.23 54.8608L164.992 52.8393H172.648L173.41 54.8608H164.23Z" fill="#231F20"/>
<g clip-path="url(#clip1_9859_21942)">
<path d="M466.751 200.256V207.853H338.358H335.372H330.285H327.299H323.242V200.256H327.299H330.285H335.372H338.358H466.751Z" fill="#FF8B63"/>
<path d="M402.431 107.212V111.932H223.25V107.212C223.25 102.219 227.306 98.1741 232.309 98.1741H393.378C398.38 98.1741 402.431 102.219 402.431 107.212Z" fill="#7099ED"/>
<path d="M398.229 111.932L394.108 145.466C393.257 152.407 388.419 157.535 382.72 157.535H242.829C237.135 157.535 232.293 152.407 231.441 145.466L227.32 111.932H398.229Z" fill="#7099ED"/>
<path d="M358.818 265.291V293.752H355.832V265.291C355.832 260.312 353.955 255.562 350.541 251.93L341.472 242.266C337.54 238.072 335.375 232.602 335.375 226.863V207.853H338.361V226.863C338.361 231.842 340.238 236.592 343.652 240.229L352.721 249.888C356.653 254.082 358.818 259.552 358.818 265.291Z" fill="#7099ED"/>
<path d="M350.74 265.291V293.752H347.753V265.291C347.753 260.312 345.877 255.562 342.463 251.93L333.394 242.266C329.462 238.072 327.297 232.602 327.297 226.863V207.853H330.283V226.863C330.283 231.842 332.16 236.592 335.574 240.229L344.643 249.888C348.575 254.082 350.74 259.552 350.74 265.291Z" fill="#7099ED"/>
<path d="M338.359 191.546V200.256H335.372V191.546C335.372 189.533 334.959 187.576 334.153 185.732C333.177 183.511 332.68 181.156 332.68 178.726V157.535H335.666V178.726C335.666 180.739 336.079 182.691 336.885 184.535C337.861 186.761 338.359 189.116 338.359 191.546Z" fill="#7099ED"/>
<path d="M330.283 157.535H327.297V200.256H330.283V157.535Z" fill="#7099ED"/>
<path d="M323.732 194.293V197.503H323.24H302.519H301.812V194.293H302.519H323.24H323.732Z" fill="#FF8B63"/>
<path d="M323.732 157.535L323.205 161.838C323.095 162.727 322.473 163.383 321.746 163.383H303.803C303.072 163.383 302.45 162.727 302.34 161.838L301.812 157.535H323.732Z" fill="#7099ED"/>
<path d="M323.244 207.853V214.938C323.244 220.652 318.605 225.283 312.886 225.283C310.024 225.283 307.431 224.125 305.56 222.252C303.683 220.379 302.523 217.795 302.523 214.938V197.503H323.244V207.853Z" fill="#FF8B63"/>
<path d="M321.263 183.675L323.244 194.293H302.523L304.509 183.675H321.263Z" fill="#FF8B63"/>
<path d="M322.505 95.8537V98.1741H306.688V95.8537H307.23H321.913H322.505Z" fill="#FF8B63"/>
<path d="M322 180.465V183.675H321.263H304.51H303.883V180.465H304.51H321.263H322Z" fill="#FF8B63"/>
<path d="M322 164.809V168.019H321.263H304.51H303.883V164.809H304.51H321.263H322Z" fill="#FF8B63"/>
<path d="M321.917 77.4795V95.8537H307.234V89.4242V82.5476V77.4795H310.285H318.951H321.917Z" fill="#F4F3F1"/>
<path d="M321.261 168.019H304.508V180.465H321.261V168.019Z" fill="#FF8B63"/>
<path d="M321.261 163.383H304.508V164.809H321.261V163.383Z" fill="#FF8B63"/>
<path d="M318.947 77.3602V77.4795H310.281V77.3602V76.0932H312.083H317.06H318.947V77.3602Z" fill="#F4F3F1"/>
<path d="M317.063 50.1865V76.0932H312.085V50.1865C312.085 41.382 304.908 34.2171 296.088 34.2171C289.235 34.2171 283.148 38.5697 280.943 45.0439L278.643 51.7963L273.93 50.1964L276.229 43.444C279.121 34.9525 287.104 29.2484 296.088 29.2484C307.651 29.2484 317.063 38.6442 317.063 50.1865Z" fill="#F4F3F1"/>
<path d="M307.233 82.5475H301.031V89.4242H307.233V82.5475Z" fill="#F4F3F1"/>
<path d="M301.028 89.4242V90.8999H298.664V70.7519H301.028V82.5475V89.4242Z" fill="#F4F3F1"/>
<path d="M301.028 82.5475V70.7519H298.664V90.8999H301.028V89.4242V82.5475Z" stroke="#231F20" stroke-width="0.6" stroke-linecap="round" stroke-linejoin="round"/>
<path d="M322.506 98.1741H393.378C398.38 98.1741 402.431 102.219 402.431 107.212V111.932H223.25V107.212C223.25 102.219 227.306 98.1741 232.309 98.1741H322.506Z" stroke="#231F20" stroke-width="0.6" stroke-linecap="round" stroke-linejoin="round"/>
<path d="M327.298 157.535H242.829C237.135 157.535 232.293 152.407 231.441 145.466L227.32 111.932" stroke="#231F20" stroke-width="0.6" stroke-linecap="round" stroke-linejoin="round"/>
<path d="M332.683 157.535H330.289" stroke="#231F20" stroke-width="0.6" stroke-linecap="round" stroke-linejoin="round"/>
<path d="M398.228 111.932L394.107 145.466C393.256 152.407 388.418 157.535 382.719 157.535H335.664" stroke="#231F20" stroke-width="0.6" stroke-linecap="round" stroke-linejoin="round"/>
<path d="M323.732 157.535L323.205 161.838C323.095 162.727 322.473 163.383 321.746 163.383H303.803C303.072 163.383 302.45 162.727 302.34 161.838L301.812 157.535" stroke="#231F20" stroke-width="0.6" stroke-linecap="round" stroke-linejoin="round"/>
<path d="M304.508 168.019V180.465" stroke="#231F20" stroke-width="0.6" stroke-linecap="round" stroke-linejoin="round"/>
<path d="M321.266 168.019V180.465" stroke="#231F20" stroke-width="0.6" stroke-linecap="round" stroke-linejoin="round"/>
<path d="M304.509 183.675L302.523 194.293" stroke="#231F20" stroke-width="0.6" stroke-linecap="round" stroke-linejoin="round"/>
<path d="M321.266 183.675L323.247 194.293" stroke="#231F20" stroke-width="0.6" stroke-linecap="round" stroke-linejoin="round"/>
<path d="M304.508 163.383V164.809" stroke="#231F20" stroke-width="0.6" stroke-linecap="round" stroke-linejoin="round"/>
<path d="M321.266 163.383V164.809" stroke="#231F20" stroke-width="0.6" stroke-linecap="round" stroke-linejoin="round"/>
<path d="M321.263 180.465H322V183.675H321.263H304.51H303.883V180.465H304.51H321.263Z" stroke="#231F20" stroke-width="0.6" stroke-linecap="round" stroke-linejoin="round"/>
<path d="M323.24 194.293H323.732V197.503H323.24H302.519H301.812V194.293H302.519H323.24Z" stroke="#231F20" stroke-width="0.6" stroke-linecap="round" stroke-linejoin="round"/>
<path d="M323.244 197.697V214.938C323.244 220.652 318.605 225.283 312.886 225.283C310.024 225.283 307.431 224.125 305.56 222.252C303.683 220.379 302.523 217.795 302.523 214.938V197.697" stroke="#231F20" stroke-width="0.6" stroke-linecap="round" stroke-linejoin="round"/>
<path d="M321.263 164.809H322V168.019H321.263H304.51H303.883V164.809H304.51H321.263Z" stroke="#231F20" stroke-width="0.6" stroke-linecap="round" stroke-linejoin="round"/>
<path d="M323.242 200.256H327.299H330.285H335.372H338.358H466.751V207.853H338.358H335.372H330.285H327.299H323.242" stroke="#231F20" stroke-width="0.6" stroke-linecap="round" stroke-linejoin="round"/>
<path d="M327.297 200.256V157.535H330.283V200.256" stroke="#231F20" stroke-width="0.6" stroke-linecap="round" stroke-linejoin="round"/>
<path d="M335.372 200.256V191.546C335.372 189.533 334.959 187.576 334.153 185.732C333.177 183.511 332.68 181.156 332.68 178.726V157.535H335.666V178.726C335.666 180.739 336.079 182.691 336.885 184.535C337.861 186.761 338.359 189.116 338.359 191.546V200.256" stroke="#231F20" stroke-width="0.6" stroke-linecap="round" stroke-linejoin="round"/>
<path d="M338.361 207.853V226.863C338.361 231.842 340.238 236.592 343.652 240.229L352.721 249.888C356.653 254.082 358.818 259.552 358.818 265.291V293.752H355.832V265.291C355.832 260.312 353.955 255.562 350.541 251.93L341.472 242.266C337.54 238.072 335.375 232.602 335.375 226.863V207.853" stroke="#231F20" stroke-width="0.6" stroke-linecap="round" stroke-linejoin="round"/>
<path d="M330.283 207.853V226.863C330.283 231.842 332.16 236.592 335.574 240.229L344.643 249.888C348.575 254.082 350.74 259.552 350.74 265.291V293.752H347.753V265.291C347.753 260.312 345.877 255.562 342.463 251.93L333.394 242.266C329.462 238.072 327.297 232.602 327.297 226.863V207.853" stroke="#231F20" stroke-width="0.6" stroke-linecap="round" stroke-linejoin="round"/>
<path d="M306.688 98.1741V95.8537H307.23H321.913H322.505V98.1741" stroke="#231F20" stroke-width="0.6" stroke-linecap="round" stroke-linejoin="round"/>
<path d="M310.281 77.3602V76.0932H312.083H317.06H318.947V77.3602" stroke="#231F20" stroke-width="0.6" stroke-linecap="round" stroke-linejoin="round"/>
<path d="M307.234 95.8537V89.4242V82.5476V77.4795H310.285H318.951H321.917V95.8537" stroke="#231F20" stroke-width="0.6" stroke-linecap="round" stroke-linejoin="round"/>
<path d="M301.031 89.4242H307.233" stroke="#231F20" stroke-width="0.6" stroke-linecap="round" stroke-linejoin="round"/>
<path d="M307.233 82.5475H301.031" stroke="#231F20" stroke-width="0.6" stroke-linecap="round" stroke-linejoin="round"/>
<path d="M312.085 76.0932V50.1865C312.085 41.382 304.908 34.2171 296.088 34.2171C289.235 34.2171 283.148 38.5697 280.943 45.0439L278.643 51.7963L273.93 50.1964L276.229 43.444C279.121 34.9525 287.104 29.2484 296.088 29.2484C307.651 29.2484 317.063 38.6442 317.063 50.1865V76.0932" stroke="#231F20" stroke-width="0.6" stroke-linecap="round" stroke-linejoin="round"/>
<path d="M326.43 202.154H386.679" stroke="white" stroke-linecap="round" stroke-linejoin="round"/>
<path d="M305.953 169.723V178.468" stroke="white" stroke-linecap="round" stroke-linejoin="round"/>
<path d="M305.951 185.25L304.508 192.818" stroke="white" stroke-linecap="round" stroke-linejoin="round"/>
<path d="M304.508 199.501V215.455C304.508 219.668 307.932 223.087 312.153 223.087" stroke="white" stroke-linecap="round" stroke-linejoin="round"/>
<path d="M231.32 100.927H297.284" stroke="white" stroke-linecap="round" stroke-linejoin="round"/>
<path d="M301.812 100.927H312.772" stroke="white" stroke-linecap="round" stroke-linejoin="round"/>
</g>
</g>
<defs>
<clipPath id="clip0_9859_21942">
<rect x="0.5" width="384" height="240" rx="32" fill="white"/>
</clipPath>
<clipPath id="clip1_9859_21942">
<rect width="244" height="265" fill="white" transform="translate(223 29)"/>
</clipPath>
</defs>
</svg>
