<svg width="384" height="240" viewBox="0 0 384 240" fill="none" xmlns="http://www.w3.org/2000/svg">
<g clip-path="url(#clip0_9859_21938)">
<rect width="384" height="240" rx="32" fill="white"/>
<path d="M27.1777 51.3549V50.808C27.1777 48.4187 27.8581 46.6349 29.2188 45.4565C30.5794 44.2716 32.334 43.6791 34.4824 43.6791C36.4681 43.6791 38.0501 44.0991 39.2285 44.9389C40.4069 45.7722 41.0579 47.0125 41.1816 48.6596L41.2012 48.8647H38.457L38.4473 48.6498C38.3561 47.6668 37.9688 46.9441 37.2852 46.4819C36.6081 46.0131 35.6641 45.7787 34.4531 45.7787C33.112 45.7787 32.028 46.1759 31.2012 46.9702C30.3809 47.7644 29.9707 48.9819 29.9707 50.6225V51.5405C29.9707 53.2527 30.3809 54.4897 31.2012 55.2514C32.028 56.0131 33.112 56.394 34.4531 56.394C35.8073 56.394 36.7904 56.1303 37.4023 55.603C38.0143 55.0691 38.3626 54.3725 38.4473 53.5131L38.457 53.308H41.2012L41.1914 53.5229C41.0807 55.0463 40.4557 56.254 39.3164 57.1459C38.1836 58.0379 36.5755 58.4838 34.4922 58.4838C32.3307 58.4838 30.5697 57.9044 29.209 56.7455C27.8548 55.5802 27.1777 53.7833 27.1777 51.3549ZM41.8262 46.0815V43.9721H54.9023V46.0815H49.7266V58.1909H47.0117V46.0815H41.8262ZM56.748 58.1909V43.9721H62.9492C64.7786 43.9721 66.1784 44.3627 67.1484 45.144C68.125 45.9252 68.6133 47.0678 68.6133 48.5717C68.6133 50.0431 68.1283 51.1856 67.1582 51.9995C66.1882 52.8133 64.7819 53.2071 62.9395 53.1811H59.4629V58.1909H56.748ZM59.4629 51.1694H62.7051C63.877 51.1694 64.7038 50.9448 65.1855 50.4955C65.6673 50.0398 65.9082 49.4018 65.9082 48.5815C65.9082 47.7547 65.6673 47.1231 65.1855 46.687C64.7038 46.2442 63.877 46.0229 62.7051 46.0229H59.4629V51.1694ZM70.0684 51.3354V50.7983C70.0684 48.4285 70.7585 46.6511 72.1387 45.4662C73.5189 44.2748 75.2832 43.6791 77.4316 43.6791C79.5736 43.6791 81.3379 44.2748 82.7246 45.4662C84.1178 46.6511 84.8145 48.4285 84.8145 50.7983V51.3354C84.8145 53.7247 84.1178 55.5151 82.7246 56.7065C81.3379 57.8914 79.5736 58.4838 77.4316 58.4838C75.2832 58.4838 73.5189 57.8914 72.1387 56.7065C70.7585 55.5151 70.0684 53.7247 70.0684 51.3354ZM72.8516 51.5014C72.8516 53.1811 73.2682 54.4181 74.1016 55.2123C74.9414 56.0001 76.0514 56.394 77.4316 56.394C78.8118 56.394 79.9251 56.0001 80.7715 55.2123C81.6178 54.4181 82.041 53.1811 82.041 51.5014V50.6518C82.041 48.9721 81.6178 47.7416 80.7715 46.9604C79.9316 46.1726 78.8184 45.7787 77.4316 45.7787C76.0514 45.7787 74.9414 46.1726 74.1016 46.9604C73.2682 47.7416 72.8516 48.9689 72.8516 50.642V51.5014ZM100.684 58.1909H98.0273V48.6694C98.0273 48.461 98.0306 48.2332 98.0371 47.9858C98.0436 47.7319 98.0534 47.504 98.0664 47.3022H97.9492C97.8516 47.4975 97.7539 47.6896 97.6562 47.8784C97.5651 48.0672 97.4349 48.2722 97.2656 48.4936L90.2637 58.1909H87.3926V43.9721H90.0586V53.4838C90.0586 53.6856 90.0521 53.9103 90.0391 54.1577C90.0326 54.405 90.026 54.6329 90.0195 54.8412H90.1562C90.2279 54.6785 90.3158 54.4929 90.4199 54.2846C90.5306 54.0763 90.6576 53.8712 90.8008 53.6694L97.8125 43.9721H100.684V58.1909ZM102.529 46.0815V43.9721H115.605V46.0815H110.43V58.1909H107.715V46.0815H102.529ZM117.451 58.1909V43.9721H128.262V46.0717H120.137V49.8608H127.266V51.9018H120.137V56.101H128.379V58.1909H117.451ZM132.334 43.9721H143.75V58.1909H141.045V46.062H134.619L134.258 52.7807C134.167 54.6427 133.864 56.0554 133.35 57.019C132.835 57.9825 131.859 58.4643 130.42 58.4643C130.199 58.4643 129.987 58.448 129.785 58.4155C129.583 58.3894 129.385 58.3406 129.189 58.269V55.9643C129.339 56.0164 129.479 56.0522 129.609 56.0717C129.746 56.0912 129.886 56.101 130.029 56.101C130.674 56.101 131.126 55.8276 131.387 55.2807C131.647 54.7338 131.813 53.7833 131.885 52.4291L132.334 43.9721ZM147.061 43.9721H149.775V49.1088H153.701C155.459 49.1088 156.761 49.532 157.607 50.3784C158.454 51.2247 158.877 52.312 158.877 53.6401C158.877 55.0463 158.454 56.1564 157.607 56.9702C156.761 57.784 155.459 58.1909 153.701 58.1909H147.061V43.9721ZM149.775 51.1596V56.1401H153.506C154.469 56.1401 155.153 55.922 155.557 55.4858C155.96 55.0431 156.162 54.4278 156.162 53.6401C156.162 52.9304 155.96 52.3412 155.557 51.8725C155.153 51.3972 154.469 51.1596 153.506 51.1596H149.775ZM161.025 58.1909V43.9721H163.74V49.8022H171.475V43.9721H174.18V58.1909H171.475V51.9116H163.74V58.1909H161.025ZM176.768 51.3354V50.7983C176.768 48.4285 177.458 46.6511 178.838 45.4662C180.218 44.2748 181.982 43.6791 184.131 43.6791C186.273 43.6791 188.037 44.2748 189.424 45.4662C190.817 46.6511 191.514 48.4285 191.514 50.7983V51.3354C191.514 53.7247 190.817 55.5151 189.424 56.7065C188.037 57.8914 186.273 58.4838 184.131 58.4838C181.982 58.4838 180.218 57.8914 178.838 56.7065C177.458 55.5151 176.768 53.7247 176.768 51.3354ZM179.551 51.5014C179.551 53.1811 179.967 54.4181 180.801 55.2123C181.641 56.0001 182.751 56.394 184.131 56.394C185.511 56.394 186.624 56.0001 187.471 55.2123C188.317 54.4181 188.74 53.1811 188.74 51.5014V50.6518C188.74 48.9721 188.317 47.7416 187.471 46.9604C186.631 46.1726 185.518 45.7787 184.131 45.7787C182.751 45.7787 181.641 46.1726 180.801 46.9604C179.967 47.7416 179.551 48.9689 179.551 50.642V51.5014ZM192.861 53.1616V50.9057H199.248V53.1616H192.861ZM27.8223 81.1909V66.9721H31.0352L35.8105 77.226C35.9082 77.4343 36.0059 77.6459 36.1035 77.8608C36.2012 78.0691 36.276 78.2481 36.3281 78.3979H36.3867C36.4388 78.2481 36.5072 78.0691 36.5918 77.8608C36.6764 77.6459 36.7643 77.4343 36.8555 77.226L41.6895 66.9721H44.9707V81.1909H42.2949L42.3047 71.5424C42.3047 71.3406 42.3112 71.1258 42.3242 70.8979C42.3372 70.6635 42.3503 70.4487 42.3633 70.2534H42.2949C42.2493 70.4487 42.1908 70.6635 42.1191 70.8979C42.054 71.1258 41.9759 71.3406 41.8848 71.5424L37.373 81.1909H35.0684L30.5762 71.5424C30.4785 71.3471 30.3939 71.1355 30.3223 70.9077C30.2507 70.6733 30.1921 70.4552 30.1465 70.2534H30.0781C30.0911 70.4552 30.1042 70.6733 30.1172 70.9077C30.1367 71.1355 30.1465 71.3504 30.1465 71.5522V81.1909H27.8223ZM47.5488 74.3354V73.7983C47.5488 71.4285 48.2389 69.6511 49.6191 68.4662C50.9993 67.2748 52.7637 66.6791 54.9121 66.6791C57.054 66.6791 58.8184 67.2748 60.2051 68.4662C61.5983 69.6511 62.2949 71.4285 62.2949 73.7983V74.3354C62.2949 76.7247 61.5983 78.5151 60.2051 79.7065C58.8184 80.8914 57.054 81.4838 54.9121 81.4838C52.7637 81.4838 50.9993 80.8914 49.6191 79.7065C48.2389 78.5151 47.5488 76.7247 47.5488 74.3354ZM50.332 74.5014C50.332 76.1811 50.7487 77.4181 51.582 78.2123C52.4219 79.0001 53.5319 79.394 54.9121 79.394C56.2923 79.394 57.4056 79.0001 58.252 78.2123C59.0983 77.4181 59.5215 76.1811 59.5215 74.5014V73.6518C59.5215 71.9721 59.0983 70.7416 58.252 69.9604C57.4121 69.1726 56.2988 68.7787 54.9121 68.7787C53.5319 68.7787 52.4219 69.1726 51.582 69.9604C50.7487 70.7416 50.332 71.9689 50.332 73.642V74.5014ZM64.873 81.1909V66.9721H67.5879V72.8022H75.3223V66.9721H78.0273V81.1909H75.3223V74.9116H67.5879V81.1909H64.873ZM79.873 69.0815V66.9721H92.9492V69.0815H87.7734V81.1909H85.0586V69.0815H79.873ZM93.0371 81.1909L99.2188 66.9037H101.885L108.076 81.1909H105.127L101.016 71.1127C100.892 70.8198 100.788 70.5398 100.703 70.2729C100.618 69.9995 100.54 69.739 100.469 69.4916H100.371C100.293 69.739 100.212 69.9995 100.127 70.2729C100.042 70.5463 99.9414 70.8263 99.8242 71.1127L95.6836 81.1909H93.0371ZM95.8984 77.8608L96.6602 75.8393H104.316L105.078 77.8608H95.8984ZM117.041 81.1909V66.9721H119.727V81.1909H117.041ZM126.074 81.1909L120.576 74.394L122.705 72.9194L129.395 81.1909H126.074ZM118.389 72.812H121.113L126.094 66.9721H129.004L122.129 74.9213H118.389V72.812ZM107.5 81.1909L114.209 72.9584L116.201 74.394L110.693 81.1909H107.5ZM118.389 72.812V74.9213H114.463L107.666 66.9721H110.732L115.654 72.812H118.389ZM130.576 81.1909V66.9721H133.291V72.8022H141.025V66.9721H143.73V81.1909H141.025V74.9116H133.291V81.1909H130.576ZM146.963 66.9721H149.678V72.1088H153.604C155.361 72.1088 156.663 72.532 157.51 73.3784C158.356 74.2247 158.779 75.312 158.779 76.6401C158.779 78.0463 158.356 79.1564 157.51 79.9702C156.663 80.784 155.361 81.1909 153.604 81.1909H146.963V66.9721ZM149.678 74.1596V79.1401H153.408C154.372 79.1401 155.055 78.922 155.459 78.4858C155.863 78.0431 156.064 77.4278 156.064 76.6401C156.064 75.9304 155.863 75.3412 155.459 74.8725C155.055 74.3972 154.372 74.1596 153.408 74.1596H149.678ZM160.576 81.1909H163.311V66.9721H160.576V81.1909ZM166.533 81.1909V66.9721H177.344V69.0717H169.219V72.8608H176.348V74.9018H169.219V79.101H177.461V81.1909H166.533ZM27.8223 104.191V89.9721H34.0234C35.8529 89.9721 37.2526 90.3627 38.2227 91.144C39.1992 91.9252 39.6875 93.0678 39.6875 94.5717C39.6875 96.0431 39.2025 97.1856 38.2324 97.9995C37.2624 98.8133 35.8561 99.2071 34.0137 99.1811H30.5371V104.191H27.8223ZM30.5371 97.1694H33.7793C34.9512 97.1694 35.778 96.9448 36.2598 96.4955C36.7415 96.0398 36.9824 95.4018 36.9824 94.5815C36.9824 93.7547 36.7415 93.1231 36.2598 92.687C35.778 92.2442 34.9512 92.0229 33.7793 92.0229H30.5371V97.1694ZM40.0293 104.191L46.2109 89.9037H48.877L55.0684 104.191H52.1191L48.0078 94.1127C47.8841 93.8198 47.7799 93.5398 47.6953 93.2729C47.6107 92.9995 47.5326 92.739 47.4609 92.4916H47.3633C47.2852 92.739 47.2038 92.9995 47.1191 93.2729C47.0345 93.5463 46.9336 93.8263 46.8164 94.1127L42.6758 104.191H40.0293ZM42.8906 100.861L43.6523 98.8393H51.3086L52.0703 100.861H42.8906ZM56.5527 104.191V89.9721H67.4414V92.0522H59.2676V95.4897H63.3887C65.0163 95.4897 66.2598 95.8608 67.1191 96.603C67.9785 97.3452 68.4082 98.4161 68.4082 99.8159C68.4082 101.235 67.9785 102.319 67.1191 103.068C66.2598 103.817 65.0163 104.191 63.3887 104.191H56.5527ZM59.2676 97.5014V102.16H63.1641C64.1081 102.16 64.7786 101.958 65.1758 101.554C65.5794 101.15 65.7812 100.571 65.7812 99.8159C65.7812 99.0737 65.5794 98.504 65.1758 98.1069C64.7786 97.7032 64.1081 97.5014 63.1641 97.5014H59.2676ZM70.2051 97.3354V96.7983C70.2051 94.4285 70.8952 92.6511 72.2754 91.4662C73.6556 90.2748 75.4199 89.6791 77.5684 89.6791C79.7103 89.6791 81.4746 90.2748 82.8613 91.4662C84.2546 92.6511 84.9512 94.4285 84.9512 96.7983V97.3354C84.9512 99.7247 84.2546 101.515 82.8613 102.706C81.4746 103.891 79.7103 104.484 77.5684 104.484C75.4199 104.484 73.6556 103.891 72.2754 102.706C70.8952 101.515 70.2051 99.7247 70.2051 97.3354ZM72.9883 97.5014C72.9883 99.1811 73.4049 100.418 74.2383 101.212C75.0781 102 76.1882 102.394 77.5684 102.394C78.9486 102.394 80.0618 102 80.9082 101.212C81.7546 100.418 82.1777 99.1811 82.1777 97.5014V96.6518C82.1777 94.9721 81.7546 93.7416 80.9082 92.9604C80.0684 92.1726 78.9551 91.7787 77.5684 91.7787C76.1882 91.7787 75.0781 92.1726 74.2383 92.9604C73.4049 93.7416 72.9883 94.9689 72.9883 96.642V97.5014ZM86.1426 92.0815V89.9721H99.2188V92.0815H94.043V104.191H91.3281V92.0815H86.1426ZM101.064 89.9721H103.779V95.1088H107.705C109.463 95.1088 110.765 95.532 111.611 96.3784C112.458 97.2247 112.881 98.312 112.881 99.6401C112.881 101.046 112.458 102.156 111.611 102.97C110.765 103.784 109.463 104.191 107.705 104.191H101.064V89.9721ZM103.779 97.1596V102.14H107.51C108.473 102.14 109.157 101.922 109.561 101.486C109.964 101.043 110.166 100.428 110.166 99.6401C110.166 98.9304 109.964 98.3412 109.561 97.8725C109.157 97.3972 108.473 97.1596 107.51 97.1596H103.779ZM114.678 104.191H117.412V89.9721H114.678V104.191Z" fill="#231F20"/>
<g clip-path="url(#clip1_9859_21938)">
<path d="M244.836 74.8805L245.025 8.06485" stroke="#231F20" stroke-width="0.6" stroke-miterlimit="10"/>
<path d="M259.822 -0.516449L259.633 66.2992" stroke="#231F20" stroke-width="0.6" stroke-miterlimit="10"/>
<path d="M269.744 5.20547L269.555 72.0211" stroke="#231F20" stroke-width="0.6" stroke-miterlimit="10"/>
<path d="M254.924 13.7868L254.734 80.6024" stroke="#231F20" stroke-width="0.6" stroke-miterlimit="10"/>
<path d="M269.553 63.4398L254.76 72.0211L244.836 66.2992L259.629 57.7179L269.553 63.4398Z" stroke="#231F20" stroke-width="0.6" stroke-miterlimit="10"/>
<path d="M269.553 50.1769L254.76 58.7582L244.836 53.0394L259.629 44.455L269.553 50.1769Z" stroke="#231F20" stroke-width="0.6" stroke-miterlimit="10"/>
<path d="M269.553 36.914L254.76 45.4985L244.836 39.7766L259.629 31.1953L269.553 36.914Z" stroke="#231F20" stroke-width="0.6" stroke-miterlimit="10"/>
<path d="M269.553 23.6543L254.76 32.2356L244.836 26.5137L259.629 17.9324L269.553 23.6543Z" stroke="#231F20" stroke-width="0.6" stroke-miterlimit="10"/>
<path d="M209.314 82.5917C209.286 82.5917 209.26 82.5854 209.235 82.5696C209.185 82.5412 209.156 82.4876 209.156 82.4341L209.172 77.0368C209.172 76.9801 209.2 76.9297 209.251 76.9013L365.605 -13.8203C365.631 -13.8361 365.656 -13.8424 365.684 -13.8424C365.713 -13.8424 365.738 -13.8361 365.763 -13.8203C365.814 -13.7919 365.842 -13.7383 365.842 -13.6847L365.826 -8.28754C365.826 -8.2308 365.798 -8.18036 365.747 -8.15198L209.393 82.5696C209.368 82.5854 209.343 82.5917 209.314 82.5917Z" fill="#F4F3F1"/>
<path d="M365.686 -13.6847L365.67 -8.28754L209.316 82.4341L209.332 77.0368L365.686 -13.6847ZM365.686 -14C365.632 -14 365.575 -13.9842 365.528 -13.9559L209.174 76.7657C209.076 76.8225 209.016 76.9265 209.016 77.0368L209 82.4341C209 82.5475 209.06 82.6516 209.158 82.7083C209.205 82.7367 209.262 82.7493 209.316 82.7493C209.369 82.7493 209.426 82.7335 209.474 82.7052L365.831 -8.01642C365.929 -8.07316 365.989 -8.1772 365.989 -8.28754L366.005 -13.6847C366.005 -13.7982 365.945 -13.9023 365.847 -13.959C365.8 -13.9874 365.743 -14 365.689 -14H365.686Z" fill="#231F20"/>
<path d="M488.669 62.7714C488.64 62.7714 488.615 62.7651 488.59 62.7494L365.595 -8.15198C365.544 -8.18036 365.516 -8.23395 365.516 -8.28754L365.531 -13.6847C365.531 -13.7415 365.563 -13.7919 365.61 -13.8203C365.636 -13.8329 365.661 -13.8424 365.689 -13.8424C365.718 -13.8424 365.743 -13.8361 365.768 -13.8203L488.763 57.0811C488.814 57.1094 488.842 57.163 488.842 57.2166L488.827 62.6138C488.827 62.6706 488.795 62.721 488.748 62.7494C488.722 62.762 488.697 62.7714 488.669 62.7714Z" fill="#F4F3F1"/>
<path d="M365.683 -13.6847L488.678 57.2166L488.662 62.6138L365.67 -8.28754L365.686 -13.6847M365.683 -14C365.629 -14 365.576 -13.9874 365.525 -13.959C365.427 -13.9023 365.367 -13.7982 365.367 -13.6879L365.352 -8.29069C365.352 -8.1772 365.412 -8.07316 365.509 -8.01642L488.505 62.885C488.552 62.9133 488.609 62.9259 488.662 62.9259C488.716 62.9259 488.77 62.9133 488.82 62.885C488.918 62.8282 488.978 62.7242 488.978 62.6138L488.994 57.2166C488.994 57.1031 488.934 56.9991 488.836 56.9424L365.841 -13.959C365.794 -13.9874 365.737 -14 365.683 -14Z" fill="#231F20"/>
<path d="M332.309 153.493C332.281 153.493 332.256 153.487 332.23 153.471L209.235 82.5696C209.188 82.5412 209.156 82.4908 209.156 82.4341C209.156 82.3773 209.185 82.3269 209.235 82.2985L365.59 -8.42309C365.615 -8.43885 365.64 -8.44516 365.669 -8.44516C365.697 -8.44516 365.722 -8.43885 365.747 -8.42309L488.746 62.4783C488.793 62.5066 488.825 62.5571 488.825 62.6138C488.825 62.6706 488.796 62.721 488.746 62.7494L332.388 153.471C332.363 153.484 332.338 153.493 332.309 153.493Z" fill="#7099ED"/>
<path d="M365.673 -8.28753L488.668 62.6138L332.311 153.335L209.316 82.4341L365.673 -8.28753ZM365.673 -8.60278C365.62 -8.60278 365.563 -8.58702 365.515 -8.55865L209.158 82.1598C209.06 82.2165 209 82.3206 209 82.4341C209 82.5476 209.06 82.6516 209.158 82.7052L332.153 153.607C332.2 153.635 332.257 153.648 332.311 153.648C332.365 153.648 332.421 153.632 332.469 153.603L488.826 62.8818C488.924 62.8251 488.984 62.721 488.984 62.6075C488.984 62.494 488.924 62.39 488.826 62.3364L365.831 -8.5618C365.784 -8.59017 365.727 -8.60278 365.673 -8.60278Z" fill="#231F20"/>
<path d="M346.861 83.6226C346.833 83.6226 346.807 83.6163 346.782 83.6005C346.732 83.5721 346.703 83.5186 346.703 83.465L346.893 16.6493C346.893 16.5926 346.924 16.5421 346.972 16.5138L361.761 7.93247C361.787 7.91671 361.812 7.9104 361.84 7.9104C361.869 7.9104 361.894 7.91671 361.919 7.93247C361.97 7.96084 361.998 8.01444 361.998 8.06803L361.809 74.8837C361.809 74.9404 361.78 74.9908 361.73 75.0192L346.94 83.6005C346.915 83.6163 346.889 83.6226 346.861 83.6226Z" fill="#F4F3F1"/>
<path d="M361.842 8.06486L361.652 74.8805L346.863 83.4618L347.052 16.6462L361.842 8.06486ZM361.842 7.7496C361.788 7.7496 361.731 7.76537 361.684 7.79374L346.894 16.375C346.796 16.4318 346.736 16.5358 346.736 16.6462L346.547 83.4618C346.547 83.5753 346.607 83.6793 346.705 83.7361C346.752 83.7644 346.809 83.777 346.863 83.777C346.916 83.777 346.973 83.7613 347.021 83.7329L361.81 75.1516C361.908 75.0949 361.968 74.9908 361.968 74.8805L362.158 8.06486C362.158 7.95137 362.098 7.84733 362 7.79059C361.952 7.76222 361.896 7.7496 361.842 7.7496Z" fill="#231F20"/>
<path d="M371.574 80.76C371.546 80.76 371.52 80.7537 371.495 80.738L361.571 75.016C361.521 74.9877 361.492 74.9341 361.492 74.8805L361.682 8.06486C361.682 8.00811 361.713 7.95767 361.761 7.92929C361.786 7.91668 361.811 7.90723 361.84 7.90723C361.868 7.90723 361.893 7.91353 361.918 7.92929L371.843 13.6512C371.893 13.6796 371.921 13.7332 371.921 13.7868L371.732 80.6024C371.732 80.6591 371.7 80.7096 371.653 80.738C371.628 80.7506 371.603 80.76 371.574 80.76Z" fill="#7099ED"/>
<path d="M361.841 8.06486L371.765 13.7868L371.576 80.6024L361.652 74.8805L361.841 8.06486ZM361.841 7.7496C361.787 7.7496 361.734 7.76222 361.683 7.79059C361.585 7.84733 361.525 7.95137 361.525 8.06171L361.336 74.8773C361.336 74.9908 361.396 75.0949 361.494 75.1516L371.418 80.8735C371.465 80.9019 371.522 80.9145 371.576 80.9145C371.629 80.9145 371.683 80.9019 371.734 80.8735C371.832 80.8168 371.892 80.7127 371.892 80.6024L372.081 13.7868C372.081 13.6733 372.021 13.5693 371.923 13.5125L361.999 7.79059C361.952 7.76222 361.895 7.7496 361.841 7.7496Z" fill="#231F20"/>
<path d="M356.785 89.3413C356.757 89.3413 356.731 89.335 356.706 89.3193L346.782 83.5973C346.735 83.569 346.703 83.5185 346.703 83.4618C346.703 83.405 346.732 83.3546 346.782 83.3262L361.572 74.7449C361.597 74.7292 361.622 74.7229 361.651 74.7229C361.679 74.7229 361.705 74.7292 361.73 74.7449L371.654 80.4668C371.701 80.4952 371.733 80.5457 371.733 80.6024C371.733 80.6591 371.704 80.7096 371.654 80.738L356.864 89.3193C356.839 89.335 356.814 89.3413 356.785 89.3413Z" fill="#F4F3F1"/>
<path d="M361.652 74.8805L371.577 80.6024L356.787 89.1837L346.863 83.4618L361.652 74.8805ZM361.652 74.5652C361.599 74.5652 361.542 74.581 361.495 74.6094L346.705 83.1907C346.607 83.2474 346.547 83.3515 346.547 83.4649C346.547 83.5784 346.607 83.6825 346.705 83.7361L356.629 89.458C356.676 89.4864 356.733 89.499 356.787 89.499C356.84 89.499 356.897 89.4832 356.945 89.4548L371.734 80.8735C371.832 80.8168 371.892 80.7128 371.892 80.5993C371.892 80.4858 371.832 80.3817 371.734 80.3281L361.81 74.6062C361.763 74.5778 361.706 74.5652 361.652 74.5652Z" fill="#231F20"/>
<path d="M303.333 55.5741C303.333 54.4024 302.382 53.4525 301.209 53.4525C300.037 53.4525 299.086 54.4024 299.086 55.5741V119.508C299.086 120.68 300.037 121.63 301.209 121.63C302.382 121.63 303.333 120.68 303.333 119.508V55.5741Z" fill="#FF8B63" stroke="#231F20" stroke-width="0.6" stroke-miterlimit="10"/>
<path d="M244.931 145.848C244.903 145.848 244.878 145.842 244.852 145.826C244.802 145.798 244.773 145.747 244.773 145.69L244.963 78.8748C244.963 78.8181 244.991 78.7676 245.042 78.7392L259.832 70.1579C259.857 70.1422 259.882 70.1359 259.911 70.1359C259.939 70.1359 259.964 70.1422 259.99 70.1579C260.04 70.1863 260.068 70.2399 260.068 70.2935L259.879 137.109C259.879 137.166 259.847 137.216 259.8 137.245L245.01 145.826C244.985 145.839 244.96 145.848 244.931 145.848Z" fill="#F4F3F1"/>
<path d="M259.912 70.2903L259.723 137.106L244.933 145.687L245.122 78.8716L259.912 70.2903ZM259.912 69.9751C259.859 69.9751 259.802 69.9908 259.754 70.0192L244.965 78.6005C244.867 78.6573 244.807 78.7613 244.807 78.8716L244.617 145.687C244.617 145.801 244.677 145.905 244.775 145.962C244.822 145.99 244.879 146.003 244.933 146.003C244.987 146.003 245.043 145.987 245.091 145.958L259.881 137.377C259.979 137.32 260.039 137.216 260.039 137.106L260.228 70.2903C260.228 70.1768 260.168 70.0728 260.07 70.0161C260.023 69.9877 259.966 69.9751 259.912 69.9751Z" fill="#231F20"/>
<path d="M269.644 142.986C269.616 142.986 269.591 142.979 269.566 142.963L259.641 137.242C259.591 137.213 259.562 137.163 259.562 137.106L259.752 70.2903C259.752 70.2336 259.784 70.1831 259.831 70.1548C259.856 70.1422 259.881 70.1327 259.91 70.1327C259.938 70.1327 259.964 70.139 259.989 70.1548L269.913 75.8767C269.963 75.9051 269.992 75.9587 269.992 76.0123L269.802 142.828C269.802 142.885 269.771 142.935 269.723 142.963C269.698 142.976 269.673 142.986 269.644 142.986Z" fill="#7099ED"/>
<path d="M259.911 70.2903L269.836 76.0123L269.646 142.828L259.722 137.106L259.911 70.2903ZM259.911 69.9751C259.858 69.9751 259.804 69.9877 259.754 70.0161C259.656 70.0728 259.596 70.1768 259.596 70.2872L259.406 137.103C259.406 137.216 259.466 137.32 259.564 137.377L269.488 143.099C269.536 143.127 269.592 143.14 269.646 143.14C269.7 143.14 269.753 143.127 269.804 143.099C269.902 143.042 269.962 142.938 269.962 142.828L270.151 76.0123C270.151 75.8988 270.091 75.7947 269.993 75.738L260.069 70.0161C260.022 69.9877 259.965 69.9751 259.911 69.9751Z" fill="#231F20"/>
<path d="M254.855 151.567C254.827 151.567 254.802 151.561 254.776 151.545L244.852 145.823C244.805 145.794 244.773 145.744 244.773 145.687C244.773 145.631 244.802 145.58 244.852 145.552L259.642 136.97C259.667 136.958 259.693 136.948 259.721 136.948C259.75 136.948 259.775 136.955 259.8 136.97L269.724 142.692C269.772 142.721 269.803 142.771 269.803 142.828C269.803 142.885 269.775 142.935 269.724 142.963L254.934 151.545C254.909 151.557 254.884 151.567 254.855 151.567Z" fill="#F4F3F1"/>
<path d="M259.723 137.106L269.647 142.828L254.857 151.409L244.933 145.687L259.723 137.106ZM259.723 136.791C259.669 136.791 259.612 136.806 259.565 136.835L244.775 145.416C244.677 145.473 244.617 145.577 244.617 145.69C244.617 145.804 244.677 145.908 244.775 145.962L254.699 151.683C254.747 151.712 254.803 151.724 254.857 151.724C254.911 151.724 254.968 151.709 255.015 151.68L269.805 143.099C269.903 143.042 269.963 142.938 269.963 142.825C269.963 142.711 269.903 142.607 269.805 142.554L259.881 136.832C259.833 136.803 259.776 136.791 259.723 136.791Z" fill="#231F20"/>
<path d="M209.314 158.455C209.286 158.455 209.26 158.449 209.235 158.433C209.185 158.405 209.156 158.354 209.156 158.298L209.172 152.9C209.172 152.844 209.2 152.793 209.251 152.765L365.605 62.0432C365.631 62.0275 365.656 62.0211 365.684 62.0211C365.713 62.0211 365.738 62.0275 365.763 62.0432C365.814 62.0716 365.842 62.1252 365.842 62.1788L365.826 67.576C365.826 67.6327 365.798 67.6832 365.747 67.7115L209.393 158.436C209.368 158.449 209.343 158.458 209.314 158.458V158.455Z" fill="#F4F3F1"/>
<path d="M365.686 62.1788L365.67 67.576L209.316 158.298L209.332 152.9L365.686 62.1788ZM365.686 61.8635C365.632 61.8635 365.575 61.8793 365.528 61.9076L209.174 152.629C209.076 152.686 209.016 152.79 209.016 152.9L209 158.298C209 158.411 209.06 158.515 209.158 158.572C209.205 158.6 209.262 158.613 209.316 158.613C209.369 158.613 209.426 158.597 209.474 158.569L365.831 67.8471C365.929 67.7903 365.989 67.6863 365.989 67.576L366.005 62.1788C366.005 62.0653 365.945 61.9612 365.847 61.9045C365.8 61.8761 365.743 61.8635 365.689 61.8635H365.686Z" fill="#231F20"/>
<path d="M488.664 138.635C488.636 138.635 488.61 138.629 488.585 138.613L365.587 67.7115C365.536 67.6832 365.508 67.6296 365.508 67.576L365.524 62.1788C365.524 62.122 365.555 62.0716 365.603 62.0432C365.628 62.0306 365.653 62.0211 365.681 62.0211C365.71 62.0211 365.735 62.0274 365.76 62.0432L488.756 132.945C488.806 132.973 488.835 133.023 488.835 133.08L488.819 138.477C488.819 138.534 488.787 138.585 488.74 138.613C488.715 138.625 488.689 138.635 488.661 138.635H488.664Z" fill="#F4F3F1"/>
<path d="M365.683 62.1788L488.678 133.08L488.662 138.477L365.667 67.576L365.683 62.1788ZM365.683 61.8635C365.629 61.8635 365.576 61.8761 365.525 61.9045C365.427 61.9612 365.367 62.0653 365.367 62.1756L365.352 67.5728C365.352 67.6863 365.412 67.7903 365.509 67.8471L488.505 138.748C488.552 138.777 488.609 138.789 488.662 138.789C488.716 138.789 488.77 138.777 488.82 138.748C488.918 138.692 488.978 138.588 488.978 138.477L488.994 133.08C488.994 132.967 488.934 132.863 488.836 132.806L365.841 61.9045C365.794 61.8761 365.737 61.8635 365.683 61.8635Z" fill="#231F20"/>
<path d="M332.309 229.357C332.281 229.357 332.256 229.35 332.23 229.335L209.235 158.436C209.188 158.408 209.156 158.357 209.156 158.301C209.156 158.244 209.185 158.194 209.235 158.165L365.59 67.4436C365.615 67.4278 365.64 67.4215 365.669 67.4215C365.697 67.4215 365.722 67.4278 365.747 67.4436L488.746 138.345C488.793 138.373 488.825 138.424 488.825 138.481C488.825 138.537 488.796 138.588 488.746 138.616L332.388 229.338C332.363 229.35 332.338 229.36 332.309 229.36V229.357Z" fill="#7099ED"/>
<path d="M365.673 67.576L488.668 138.477L332.311 229.199L209.316 158.298L365.673 67.576ZM365.673 67.2607C365.62 67.2607 365.563 67.2765 365.515 67.3049L209.158 158.026C209.06 158.083 209 158.187 209 158.301C209 158.414 209.06 158.518 209.158 158.572L332.153 229.473C332.2 229.502 332.257 229.514 332.311 229.514C332.365 229.514 332.421 229.498 332.469 229.47L488.826 138.748C488.924 138.692 488.984 138.588 488.984 138.474C488.984 138.361 488.924 138.257 488.826 138.203L365.831 67.3017C365.784 67.2733 365.727 67.2607 365.673 67.2607Z" fill="#231F20"/>
<path d="M346.861 159.486C346.833 159.486 346.807 159.48 346.782 159.464C346.732 159.436 346.703 159.385 346.703 159.328L346.893 92.5128C346.893 92.4561 346.921 92.4056 346.972 92.3773L361.761 83.796C361.787 83.7802 361.812 83.7739 361.84 83.7739C361.869 83.7739 361.894 83.7802 361.919 83.796C361.97 83.8243 361.998 83.8779 361.998 83.9315L361.809 150.747C361.809 150.804 361.78 150.854 361.73 150.883L346.94 159.464C346.915 159.477 346.889 159.486 346.861 159.486Z" fill="#F4F3F1"/>
<path d="M361.842 83.9315L361.652 150.747L346.863 159.328L347.052 92.5128L361.842 83.9315ZM361.842 83.6163C361.788 83.6163 361.731 83.632 361.684 83.6604L346.894 92.2417C346.796 92.2985 346.736 92.4025 346.736 92.5128L346.547 159.328C346.547 159.442 346.607 159.546 346.705 159.603C346.752 159.631 346.809 159.644 346.863 159.644C346.916 159.644 346.973 159.628 347.021 159.6L361.81 151.018C361.908 150.962 361.968 150.857 361.968 150.747L362.158 83.9315C362.158 83.818 362.098 83.714 362 83.6572C361.952 83.6289 361.896 83.6163 361.842 83.6163Z" fill="#231F20"/>
<path d="M371.574 156.627C371.546 156.627 371.52 156.62 371.495 156.605L361.571 150.883C361.521 150.854 361.492 150.804 361.492 150.747L361.682 83.9315C361.682 83.8748 361.713 83.8243 361.761 83.796C361.786 83.7833 361.811 83.7739 361.84 83.7739C361.868 83.7739 361.893 83.7802 361.918 83.796L371.843 89.5179C371.893 89.5462 371.921 89.5998 371.921 89.6534L371.732 156.469C371.732 156.526 371.7 156.576 371.653 156.605C371.628 156.617 371.603 156.627 371.574 156.627Z" fill="#7099ED"/>
<path d="M361.841 83.9315L371.765 89.6534L371.576 156.469L361.652 150.747L361.841 83.9315ZM361.841 83.6163C361.787 83.6163 361.734 83.6289 361.683 83.6572C361.585 83.714 361.525 83.818 361.525 83.9284L361.336 150.744C361.336 150.857 361.396 150.962 361.494 151.018L371.418 156.74C371.465 156.769 371.522 156.781 371.576 156.781C371.629 156.781 371.683 156.769 371.734 156.74C371.832 156.683 371.892 156.579 371.892 156.469L372.081 89.6534C372.081 89.54 372.021 89.4359 371.923 89.3792L361.999 83.6572C361.952 83.6289 361.895 83.6163 361.841 83.6163Z" fill="#231F20"/>
<path d="M356.785 165.208C356.757 165.208 356.731 165.202 356.706 165.186L346.782 159.464C346.735 159.436 346.703 159.385 346.703 159.328C346.703 159.272 346.732 159.221 346.782 159.193L361.572 150.612C361.597 150.599 361.622 150.59 361.651 150.59C361.679 150.59 361.705 150.596 361.73 150.612L371.654 156.334C371.701 156.362 371.733 156.412 371.733 156.469C371.733 156.526 371.704 156.576 371.654 156.605L356.864 165.186C356.839 165.199 356.814 165.208 356.785 165.208Z" fill="#F4F3F1"/>
<path d="M361.652 150.747L371.577 156.469L356.787 165.05L346.863 159.328L361.652 150.747ZM361.652 150.432C361.599 150.432 361.542 150.448 361.495 150.476L346.705 159.057C346.607 159.114 346.547 159.218 346.547 159.332C346.547 159.445 346.607 159.549 346.705 159.603L356.629 165.325C356.676 165.353 356.733 165.366 356.787 165.366C356.84 165.366 356.897 165.35 356.945 165.321L371.734 156.74C371.832 156.683 371.892 156.579 371.892 156.466C371.892 156.352 371.832 156.248 371.734 156.195L361.81 150.473C361.763 150.445 361.706 150.432 361.652 150.432Z" fill="#231F20"/>
<path d="M303.333 134.874C303.333 133.702 302.382 132.752 301.209 132.752C300.037 132.752 299.086 133.702 299.086 134.874V198.808C299.086 199.98 300.037 200.93 301.209 200.93C302.382 200.93 303.333 199.98 303.333 198.808V134.874Z" fill="#FF8B63" stroke="#231F20" stroke-width="0.6" stroke-miterlimit="10"/>
<path d="M244.931 221.712C244.903 221.712 244.878 221.705 244.852 221.689C244.802 221.661 244.773 221.611 244.773 221.554L244.963 154.738C244.963 154.682 244.991 154.631 245.042 154.603L259.832 146.021C259.857 146.009 259.882 145.999 259.911 145.999C259.939 145.999 259.964 146.006 259.99 146.021C260.04 146.05 260.068 146.1 260.068 146.157L259.879 212.973C259.879 213.029 259.847 213.08 259.8 213.108L245.01 221.689C244.985 221.702 244.96 221.712 244.931 221.712Z" fill="#F4F3F1"/>
<path d="M259.912 146.157L259.723 212.973L244.933 221.554L245.122 154.738L259.912 146.157ZM259.912 145.842C259.859 145.842 259.802 145.858 259.754 145.886L244.965 154.467C244.867 154.524 244.807 154.628 244.807 154.738L244.617 221.554C244.617 221.667 244.677 221.771 244.775 221.828C244.822 221.857 244.879 221.869 244.933 221.869C244.987 221.869 245.043 221.853 245.091 221.825L259.881 213.244C259.979 213.187 260.039 213.083 260.039 212.973L260.228 146.157C260.228 146.044 260.168 145.939 260.07 145.883C260.023 145.854 259.966 145.842 259.912 145.842Z" fill="#231F20"/>
<path d="M269.644 218.852C269.616 218.852 269.591 218.846 269.566 218.83L259.641 213.108C259.591 213.08 259.562 213.029 259.562 212.973L259.752 146.157C259.752 146.1 259.784 146.05 259.831 146.021C259.856 146.009 259.881 145.999 259.91 145.999C259.938 145.999 259.964 146.006 259.989 146.021L269.913 151.743C269.963 151.772 269.992 151.822 269.992 151.879L269.802 218.695C269.802 218.751 269.771 218.802 269.723 218.83C269.698 218.843 269.673 218.852 269.644 218.852Z" fill="#7099ED"/>
<path d="M259.911 146.157L269.836 151.879L269.646 218.695L259.722 212.973L259.911 146.157ZM259.911 145.842C259.858 145.842 259.804 145.854 259.754 145.883C259.656 145.939 259.596 146.044 259.596 146.154L259.406 212.969C259.406 213.083 259.466 213.187 259.564 213.244L269.488 218.966C269.536 218.994 269.592 219.007 269.646 219.007C269.7 219.007 269.753 218.994 269.804 218.966C269.902 218.909 269.962 218.805 269.962 218.695L270.151 151.879C270.151 151.765 270.091 151.661 269.993 151.605L260.069 145.883C260.022 145.854 259.965 145.842 259.911 145.842Z" fill="#231F20"/>
<path d="M254.855 227.433C254.827 227.433 254.802 227.427 254.776 227.411L244.852 221.689C244.805 221.661 244.773 221.611 244.773 221.554C244.773 221.497 244.802 221.447 244.852 221.418L259.642 212.837C259.667 212.824 259.693 212.815 259.721 212.815C259.75 212.815 259.775 212.821 259.8 212.837L269.724 218.559C269.772 218.587 269.803 218.638 269.803 218.695C269.803 218.751 269.775 218.802 269.724 218.83L254.934 227.411C254.909 227.424 254.884 227.433 254.855 227.433Z" fill="#F4F3F1"/>
<path d="M259.723 212.973L269.647 218.695L254.857 227.276L244.933 221.554L259.723 212.973ZM259.723 212.657C259.669 212.657 259.612 212.673 259.565 212.702L244.775 221.283C244.677 221.34 244.617 221.444 244.617 221.557C244.617 221.671 244.677 221.775 244.775 221.828L254.699 227.55C254.747 227.579 254.803 227.591 254.857 227.591C254.911 227.591 254.968 227.575 255.015 227.547L269.805 218.966C269.903 218.909 269.963 218.805 269.963 218.691C269.963 218.578 269.903 218.474 269.805 218.42L259.881 212.698C259.833 212.67 259.776 212.657 259.723 212.657Z" fill="#231F20"/>
<path d="M209.314 242.941C209.286 242.941 209.26 242.935 209.235 242.919C209.185 242.891 209.156 242.84 209.156 242.783L209.172 237.386C209.172 237.329 209.2 237.279 209.251 237.251L365.609 146.529C365.634 146.516 365.659 146.507 365.687 146.507C365.716 146.507 365.741 146.513 365.766 146.529C365.817 146.557 365.845 146.608 365.845 146.665L365.83 152.062C365.83 152.119 365.801 152.169 365.751 152.197L209.393 242.922C209.368 242.935 209.343 242.944 209.314 242.944V242.941Z" fill="#F4F3F1"/>
<path d="M365.686 146.668L365.67 152.065L209.316 242.783L209.332 237.386L365.689 146.665M365.689 146.349C365.635 146.349 365.579 146.365 365.531 146.393L209.174 237.115C209.076 237.172 209.016 237.276 209.016 237.386L209 242.783C209 242.897 209.06 243.001 209.158 243.058C209.205 243.086 209.262 243.099 209.316 243.099C209.369 243.099 209.426 243.083 209.474 243.054L365.831 152.333C365.929 152.276 365.989 152.172 365.989 152.062L366.005 146.665C366.005 146.551 365.945 146.447 365.847 146.39C365.8 146.362 365.743 146.349 365.689 146.349Z" fill="#231F20"/>
<path d="M488.664 223.121C488.636 223.121 488.61 223.114 488.585 223.099L365.587 152.197C365.536 152.169 365.508 152.119 365.508 152.062L365.524 146.665C365.524 146.608 365.555 146.557 365.603 146.529C365.628 146.516 365.653 146.507 365.681 146.507C365.71 146.507 365.735 146.513 365.76 146.529L488.756 217.43C488.806 217.459 488.835 217.509 488.835 217.566L488.819 222.963C488.819 223.02 488.787 223.07 488.74 223.099C488.715 223.111 488.689 223.121 488.661 223.121H488.664Z" fill="#F4F3F1"/>
<path d="M365.683 146.668L488.678 217.569L488.662 222.966L365.667 152.065L365.683 146.668ZM365.683 146.352C365.629 146.352 365.576 146.365 365.525 146.393C365.427 146.45 365.367 146.554 365.367 146.665L365.352 152.062C365.352 152.175 365.412 152.279 365.509 152.336L488.505 223.237C488.552 223.266 488.609 223.278 488.662 223.278C488.716 223.278 488.77 223.266 488.82 223.237C488.918 223.181 488.978 223.077 488.978 222.966L488.994 217.569C488.994 217.456 488.934 217.352 488.836 217.295L365.841 146.393C365.794 146.365 365.737 146.352 365.683 146.352Z" fill="#231F20"/>
<path d="M332.309 313.842C332.281 313.842 332.256 313.836 332.23 313.82L209.235 242.922C209.188 242.894 209.156 242.843 209.156 242.787C209.156 242.73 209.185 242.679 209.235 242.651L365.59 151.929C365.615 151.917 365.64 151.907 365.669 151.907C365.697 151.907 365.722 151.914 365.747 151.929L488.746 222.831C488.793 222.859 488.825 222.91 488.825 222.966C488.825 223.023 488.796 223.073 488.746 223.102L332.388 313.823C332.363 313.836 332.338 313.846 332.309 313.846V313.842Z" fill="#7099ED"/>
<path d="M365.673 152.062L488.668 222.963L332.311 313.685L209.316 242.783L365.673 152.062ZM365.673 151.747C365.62 151.747 365.563 151.762 365.515 151.791L209.158 242.512C209.06 242.569 209 242.673 209 242.787C209 242.9 209.06 243.004 209.158 243.058L332.153 313.959C332.2 313.987 332.257 314 332.311 314C332.365 314 332.421 313.984 332.469 313.956L488.826 223.234C488.924 223.178 488.984 223.073 488.984 222.96C488.984 222.846 488.924 222.742 488.826 222.689L365.831 151.788C365.784 151.759 365.727 151.747 365.673 151.747Z" fill="#231F20"/>
<path d="M346.861 243.972C346.833 243.972 346.807 243.966 346.782 243.95C346.732 243.921 346.703 243.871 346.703 243.814L346.893 176.999C346.893 176.942 346.924 176.891 346.972 176.863L361.761 168.282C361.787 168.269 361.812 168.26 361.84 168.26C361.869 168.26 361.894 168.266 361.919 168.282C361.97 168.31 361.998 168.361 361.998 168.417L361.809 235.233C361.809 235.29 361.78 235.34 361.73 235.369L346.94 243.95C346.915 243.962 346.889 243.972 346.861 243.972Z" fill="#F4F3F1"/>
<path d="M361.842 168.417L361.652 235.233L346.863 243.814L347.052 176.999L361.842 168.417ZM361.842 168.102C361.788 168.102 361.731 168.118 361.684 168.146L346.894 176.728C346.796 176.784 346.736 176.888 346.736 176.999L346.547 243.814C346.547 243.928 346.607 244.032 346.705 244.089C346.752 244.117 346.809 244.13 346.863 244.13C346.916 244.13 346.973 244.114 347.021 244.085L361.81 235.504C361.908 235.447 361.968 235.343 361.968 235.233L362.158 168.417C362.158 168.304 362.098 168.2 362 168.143C361.952 168.115 361.896 168.102 361.842 168.102Z" fill="#231F20"/>
<path d="M371.574 241.112C371.546 241.112 371.52 241.106 371.495 241.09L361.571 235.369C361.521 235.34 361.492 235.29 361.492 235.233L361.682 168.417C361.682 168.361 361.713 168.31 361.761 168.282C361.786 168.269 361.811 168.26 361.84 168.26C361.868 168.26 361.893 168.266 361.918 168.282L371.843 174.004C371.893 174.032 371.921 174.082 371.921 174.139L371.732 240.955C371.732 241.012 371.7 241.062 371.653 241.09C371.628 241.103 371.603 241.112 371.574 241.112Z" fill="#7099ED"/>
<path d="M361.841 168.417L371.765 174.139L371.576 240.955L361.652 235.233L361.841 168.417ZM361.841 168.102C361.787 168.102 361.734 168.115 361.683 168.143C361.585 168.2 361.525 168.304 361.525 168.414L361.336 235.23C361.336 235.343 361.396 235.447 361.494 235.504L371.418 241.226C371.465 241.254 371.522 241.267 371.576 241.267C371.629 241.267 371.683 241.254 371.734 241.226C371.832 241.169 371.892 241.065 371.892 240.955L372.081 174.139C372.081 174.026 372.021 173.922 371.923 173.865L361.999 168.143C361.952 168.115 361.895 168.102 361.841 168.102Z" fill="#231F20"/>
<path d="M356.785 249.694C356.757 249.694 356.731 249.687 356.706 249.672L346.782 243.95C346.735 243.921 346.703 243.871 346.703 243.814C346.703 243.758 346.732 243.707 346.782 243.679L361.572 235.097C361.597 235.085 361.622 235.075 361.651 235.075C361.679 235.075 361.705 235.082 361.73 235.097L371.654 240.819C371.701 240.848 371.733 240.898 371.733 240.955C371.733 241.012 371.704 241.062 371.654 241.09L356.864 249.672C356.839 249.684 356.814 249.694 356.785 249.694Z" fill="#F4F3F1"/>
<path d="M361.652 235.233L371.577 240.955L356.787 249.536L346.863 243.814L361.652 235.233ZM361.652 234.918C361.599 234.918 361.542 234.933 361.495 234.962L346.705 243.543C346.607 243.6 346.547 243.704 346.547 243.817C346.547 243.931 346.607 244.035 346.705 244.089L356.629 249.81C356.676 249.839 356.733 249.851 356.787 249.851C356.84 249.851 356.897 249.836 356.945 249.807L371.734 241.226C371.832 241.169 371.892 241.065 371.892 240.952C371.892 240.838 371.832 240.734 371.734 240.681L361.81 234.959C361.763 234.93 361.706 234.918 361.652 234.918Z" fill="#231F20"/>
<path d="M244.931 306.197C244.903 306.197 244.878 306.191 244.852 306.175C244.802 306.147 244.773 306.096 244.773 306.04L244.963 239.224C244.963 239.167 244.991 239.117 245.042 239.089L259.832 230.507C259.857 230.495 259.882 230.485 259.911 230.485C259.939 230.485 259.964 230.491 259.99 230.507C260.04 230.536 260.068 230.586 260.068 230.643L259.879 297.458C259.879 297.515 259.847 297.566 259.8 297.594L245.01 306.175C244.985 306.188 244.96 306.197 244.931 306.197Z" fill="#F4F3F1"/>
<path d="M259.912 230.643L259.723 297.458L244.933 306.04L245.122 239.224L259.912 230.643ZM259.912 230.328C259.859 230.328 259.802 230.343 259.754 230.372L244.965 238.953C244.867 239.01 244.807 239.114 244.807 239.224L244.617 306.04C244.617 306.153 244.677 306.257 244.775 306.314C244.822 306.342 244.879 306.355 244.933 306.355C244.987 306.355 245.043 306.339 245.091 306.311L259.881 297.73C259.979 297.673 260.039 297.569 260.039 297.458L260.228 230.643C260.228 230.529 260.168 230.425 260.07 230.369C260.023 230.34 259.966 230.328 259.912 230.328Z" fill="#231F20"/>
<path d="M269.644 303.338C269.616 303.338 269.591 303.332 269.566 303.316L259.641 297.594C259.591 297.566 259.562 297.515 259.562 297.458L259.752 230.643C259.752 230.586 259.784 230.536 259.831 230.507C259.856 230.495 259.881 230.485 259.91 230.485C259.938 230.485 259.964 230.491 259.989 230.507L269.913 236.229C269.963 236.258 269.992 236.308 269.992 236.365L269.802 303.18C269.802 303.237 269.771 303.288 269.723 303.316C269.698 303.329 269.673 303.338 269.644 303.338Z" fill="#7099ED"/>
<path d="M259.911 230.643L269.836 236.365L269.646 303.18L259.722 297.458L259.911 230.643ZM259.911 230.328C259.858 230.328 259.804 230.34 259.754 230.369C259.656 230.425 259.596 230.529 259.596 230.64L259.406 297.455C259.406 297.569 259.466 297.673 259.564 297.73L269.488 303.451C269.536 303.48 269.592 303.492 269.646 303.492C269.7 303.492 269.753 303.48 269.804 303.451C269.902 303.395 269.962 303.291 269.962 303.18L270.151 236.365C270.151 236.251 270.091 236.147 269.993 236.09L260.069 230.369C260.022 230.34 259.965 230.328 259.911 230.328Z" fill="#231F20"/>
<path d="M303.333 210.416C303.333 209.244 302.382 208.294 301.209 208.294C300.037 208.294 299.086 209.244 299.086 210.416V274.35C299.086 275.522 300.037 276.472 301.209 276.472C302.382 276.472 303.333 275.522 303.333 274.35V210.416Z" fill="#FF8B63" stroke="#231F20" stroke-width="0.6" stroke-miterlimit="10"/>
</g>
</g>
<defs>
<clipPath id="clip0_9859_21938">
<rect width="384" height="240" rx="32" fill="white"/>
</clipPath>
<clipPath id="clip1_9859_21938">
<rect width="280" height="328" fill="white" transform="translate(209 -14)"/>
</clipPath>
</defs>
</svg>
