<svg width="384" height="240" viewBox="0 0 384 240" fill="none" xmlns="http://www.w3.org/2000/svg">
<g clip-path="url(#clip0_9859_22290)">
<rect width="384" height="240" rx="32" fill="white"/>
<path d="M27.8223 58.1909V43.9721H31.0352L35.8105 54.226C35.9082 54.4343 36.0059 54.6459 36.1035 54.8608C36.2012 55.0691 36.276 55.2481 36.3281 55.3979H36.3867C36.4388 55.2481 36.5072 55.0691 36.5918 54.8608C36.6764 54.6459 36.7643 54.4343 36.8555 54.226L41.6895 43.9721H44.9707V58.1909H42.2949L42.3047 48.5424C42.3047 48.3406 42.3112 48.1258 42.3242 47.8979C42.3372 47.6635 42.3503 47.4487 42.3633 47.2534H42.2949C42.2493 47.4487 42.1908 47.6635 42.1191 47.8979C42.054 48.1258 41.9759 48.3406 41.8848 48.5424L37.373 58.1909H35.0684L30.5762 48.5424C30.4785 48.3471 30.3939 48.1355 30.3223 47.9077C30.2507 47.6733 30.1921 47.4552 30.1465 47.2534H30.0781C30.0911 47.4552 30.1042 47.6733 30.1172 47.9077C30.1367 48.1355 30.1465 48.3504 30.1465 48.5522V58.1909H27.8223ZM47.5488 51.3354V50.7983C47.5488 48.4285 48.2389 46.6511 49.6191 45.4662C50.9993 44.2748 52.7637 43.6791 54.9121 43.6791C57.054 43.6791 58.8184 44.2748 60.2051 45.4662C61.5983 46.6511 62.2949 48.4285 62.2949 50.7983V51.3354C62.2949 53.7247 61.5983 55.5151 60.2051 56.7065C58.8184 57.8914 57.054 58.4838 54.9121 58.4838C52.7637 58.4838 50.9993 57.8914 49.6191 56.7065C48.2389 55.5151 47.5488 53.7247 47.5488 51.3354ZM50.332 51.5014C50.332 53.1811 50.7487 54.4181 51.582 55.2123C52.4219 56.0001 53.5319 56.394 54.9121 56.394C56.2923 56.394 57.4056 56.0001 58.252 55.2123C59.0983 54.4181 59.5215 53.1811 59.5215 51.5014V50.6518C59.5215 48.9721 59.0983 47.7416 58.252 46.9604C57.4121 46.1726 56.2988 45.7787 54.9121 45.7787C53.5319 45.7787 52.4219 46.1726 51.582 46.9604C50.7487 47.7416 50.332 48.9689 50.332 50.642V51.5014ZM64.873 58.1909V43.9721H67.5879V49.8022H75.3223V43.9721H78.0273V58.1909H75.3223V51.9116H67.5879V58.1909H64.873ZM79.873 46.0815V43.9721H92.9492V46.0815H87.7734V58.1909H85.0586V46.0815H79.873ZM93.0371 58.1909L99.2188 43.9037H101.885L108.076 58.1909H105.127L101.016 48.1127C100.892 47.8198 100.788 47.5398 100.703 47.2729C100.618 46.9995 100.54 46.739 100.469 46.4916H100.371C100.293 46.739 100.212 46.9995 100.127 47.2729C100.042 47.5463 99.9414 47.8263 99.8242 48.1127L95.6836 58.1909H93.0371ZM95.8984 54.8608L96.6602 52.8393H104.316L105.078 54.8608H95.8984ZM117.041 58.1909V43.9721H119.727V58.1909H117.041ZM126.074 58.1909L120.576 51.394L122.705 49.9194L129.395 58.1909H126.074ZM118.389 49.812H121.113L126.094 43.9721H129.004L122.129 51.9213H118.389V49.812ZM107.5 58.1909L114.209 49.9584L116.201 51.394L110.693 58.1909H107.5ZM118.389 49.812V51.9213H114.463L107.666 43.9721H110.732L115.654 49.812H118.389ZM41.1133 81.1909H38.457V71.6694C38.457 71.461 38.4603 71.2332 38.4668 70.9858C38.4733 70.7319 38.4831 70.504 38.4961 70.3022H38.3789C38.2812 70.4975 38.1836 70.6896 38.0859 70.8784C37.9948 71.0672 37.8646 71.2722 37.6953 71.4936L30.6934 81.1909H27.8223V66.9721H30.4883V76.4838C30.4883 76.6856 30.4818 76.9103 30.4688 77.1577C30.4622 77.405 30.4557 77.6329 30.4492 77.8412H30.5859C30.6576 77.6785 30.7454 77.4929 30.8496 77.2846C30.9603 77.0763 31.0872 76.8712 31.2305 76.6694L38.2422 66.9721H41.1133V81.1909ZM48.7988 74.3354V73.7983C48.7988 71.4285 49.4889 69.6511 50.8691 68.4662C52.2493 67.2748 54.0137 66.6791 56.1621 66.6791C58.304 66.6791 60.0684 67.2748 61.4551 68.4662C62.8483 69.6511 63.5449 71.4285 63.5449 73.7983V74.3354C63.5449 76.7247 62.8483 78.5151 61.4551 79.7065C60.0684 80.8914 58.304 81.4838 56.1621 81.4838C54.0137 81.4838 52.2493 80.8914 50.8691 79.7065C49.4889 78.5151 48.7988 76.7247 48.7988 74.3354ZM51.582 74.5014C51.582 76.1811 51.9987 77.4181 52.832 78.2123C53.6719 79.0001 54.7819 79.394 56.1621 79.394C57.5423 79.394 58.6556 79.0001 59.502 78.2123C60.3483 77.4181 60.7715 76.1811 60.7715 74.5014V73.6518C60.7715 71.9721 60.3483 70.7416 59.502 69.9604C58.6621 69.1726 57.5488 68.7787 56.1621 68.7787C54.7819 68.7787 53.6719 69.1726 52.832 69.9604C51.9987 70.7416 51.582 71.9689 51.582 73.642V74.5014ZM66.123 81.1909V66.9721H77.0117V69.0522H68.8379V72.4897H72.959C74.5866 72.4897 75.8301 72.8608 76.6895 73.603C77.5488 74.3452 77.9785 75.4161 77.9785 76.8159C77.9785 78.2351 77.5488 79.3191 76.6895 80.0678C75.8301 80.8165 74.5866 81.1909 72.959 81.1909H66.123ZM68.8379 74.5014V79.1596H72.7344C73.6784 79.1596 74.349 78.9578 74.7461 78.5541C75.1497 78.1505 75.3516 77.5711 75.3516 76.8159C75.3516 76.0737 75.1497 75.504 74.7461 75.1069C74.349 74.7032 73.6784 74.5014 72.7344 74.5014H68.8379ZM79.7754 74.3549V73.808C79.7754 71.4187 80.4557 69.6349 81.8164 68.4565C83.1771 67.2716 84.9316 66.6791 87.0801 66.6791C89.0658 66.6791 90.6478 67.0991 91.8262 67.9389C93.0046 68.7722 93.6556 70.0125 93.7793 71.6596L93.7988 71.8647H91.0547L91.0449 71.6498C90.9538 70.6668 90.5664 69.9441 89.8828 69.4819C89.2057 69.0131 88.2617 68.7787 87.0508 68.7787C85.7096 68.7787 84.6257 69.1759 83.7988 69.9702C82.9785 70.7644 82.5684 71.9819 82.5684 73.6225V74.5405C82.5684 76.2527 82.9785 77.4897 83.7988 78.2514C84.6257 79.0131 85.7096 79.394 87.0508 79.394C88.4049 79.394 89.388 79.1303 90 78.603C90.612 78.0691 90.9603 77.3725 91.0449 76.5131L91.0547 76.308H93.7988L93.7891 76.5229C93.6784 78.0463 93.0534 79.254 91.9141 80.1459C90.7812 81.0379 89.1732 81.4838 87.0898 81.4838C84.9284 81.4838 83.1673 80.9044 81.8066 79.7455C80.4525 78.5802 79.7754 76.7833 79.7754 74.3549ZM97.4707 66.9721H108.887V81.1909H106.182V69.062H99.7559L99.3945 75.7807C99.3034 77.6427 99.0007 79.0554 98.4863 80.019C97.972 80.9825 96.9954 81.4643 95.5566 81.4643C95.3353 81.4643 95.1237 81.448 94.9219 81.4155C94.7201 81.3894 94.5215 81.3406 94.3262 81.269V78.9643C94.4759 79.0164 94.6159 79.0522 94.7461 79.0717C94.8828 79.0912 95.0228 79.101 95.166 79.101C95.8105 79.101 96.263 78.8276 96.5234 78.2807C96.7839 77.7338 96.9499 76.7833 97.0215 75.4291L97.4707 66.9721ZM113.135 79.0229C113.317 79.075 113.516 79.1173 113.73 79.1498C113.945 79.1824 114.163 79.1987 114.385 79.1987C114.945 79.1987 115.417 79.0717 115.801 78.8178C116.191 78.5639 116.576 78.1017 116.953 77.4311L116.924 77.5092L110.654 66.9721H113.77L117.627 73.7885C117.809 74.1271 117.936 74.381 118.008 74.5502C118.086 74.713 118.167 74.905 118.252 75.1264H118.311C118.395 74.9116 118.473 74.7228 118.545 74.56C118.623 74.3907 118.75 74.1368 118.926 73.7983L122.5 66.9721H125.244L119.561 77.3725C118.727 78.9024 117.988 79.9702 117.344 80.5756C116.699 81.1746 115.827 81.4741 114.727 81.4741C114.323 81.4741 114.004 81.4578 113.77 81.4252C113.542 81.3927 113.33 81.3439 113.135 81.2787V79.0229ZM134.307 81.1909V66.9721H136.992V81.1909H134.307ZM143.34 81.1909L137.842 74.394L139.971 72.9194L146.66 81.1909H143.34ZM135.654 72.812H138.379L143.359 66.9721H146.27L139.395 74.9213H135.654V72.812ZM124.766 81.1909L131.475 72.9584L133.467 74.394L127.959 81.1909H124.766ZM135.654 72.812V74.9213H131.729L124.932 66.9721H127.998L132.92 72.812H135.654ZM161.133 81.1909H158.477V71.6694C158.477 71.461 158.48 71.2332 158.486 70.9858C158.493 70.7319 158.503 70.504 158.516 70.3022H158.398C158.301 70.4975 158.203 70.6896 158.105 70.8784C158.014 71.0672 157.884 71.2722 157.715 71.4936L150.713 81.1909H147.842V66.9721H150.508V76.4838C150.508 76.6856 150.501 76.9103 150.488 77.1577C150.482 77.405 150.475 77.6329 150.469 77.8412H150.605C150.677 77.6785 150.765 77.4929 150.869 77.2846C150.98 77.0763 151.107 76.8712 151.25 76.6694L158.262 66.9721H161.133V81.1909ZM164.365 81.1909V66.9721H170.4C172.093 66.9721 173.415 67.2618 174.365 67.8412C175.316 68.4207 175.791 69.3777 175.791 70.7123C175.791 71.5001 175.586 72.1414 175.176 72.6362C174.772 73.1245 174.258 73.476 173.633 73.6909V73.7299C174.414 73.9383 175.046 74.3191 175.527 74.8725C176.016 75.4259 176.26 76.1681 176.26 77.0991C176.26 78.4597 175.752 79.4819 174.736 80.1655C173.721 80.8491 172.38 81.1909 170.713 81.1909H164.365ZM167.041 79.2377H170.576C171.585 79.2377 172.334 79.0522 172.822 78.6811C173.311 78.3035 173.555 77.7338 173.555 76.9721C173.555 76.256 173.311 75.7058 172.822 75.3217C172.334 74.9311 171.585 74.7358 170.576 74.7358H167.041V79.2377ZM167.041 72.8998H170.264C171.26 72.8998 171.982 72.7273 172.432 72.3823C172.887 72.0372 173.115 71.5424 173.115 70.8979C173.115 70.2208 172.891 69.726 172.441 69.4135C171.992 69.101 171.266 68.9448 170.264 68.9448H167.041V72.8998ZM177.002 81.1909L183.184 66.9037H185.85L192.041 81.1909H189.092L184.98 71.1127C184.857 70.8198 184.753 70.5398 184.668 70.2729C184.583 69.9995 184.505 69.739 184.434 69.4916H184.336C184.258 69.739 184.176 69.9995 184.092 70.2729C184.007 70.5463 183.906 70.8263 183.789 71.1127L179.648 81.1909H177.002ZM179.863 77.8608L180.625 75.8393H188.281L189.043 77.8608H179.863ZM193.525 81.1909V66.9721H196.24V72.8022H203.975V66.9721H206.68V81.1909H203.975V74.9116H196.24V81.1909H193.525ZM223.203 81.1909H220.547V71.6694C220.547 71.461 220.55 71.2332 220.557 70.9858C220.563 70.7319 220.573 70.504 220.586 70.3022H220.469C220.371 70.4975 220.273 70.6896 220.176 70.8784C220.085 71.0672 219.954 71.2722 219.785 71.4936L212.783 81.1909H209.912V66.9721H212.578V76.4838C212.578 76.6856 212.572 76.9103 212.559 77.1577C212.552 77.405 212.546 77.6329 212.539 77.8412H212.676C212.747 77.6785 212.835 77.4929 212.939 77.2846C213.05 77.0763 213.177 76.8712 213.32 76.6694L220.332 66.9721H223.203V81.1909ZM226.436 81.1909V66.9721H237.246V69.0717H229.121V72.8608H236.25V74.9018H229.121V79.101H237.363V81.1909H226.436ZM27.1777 97.3549V96.808C27.1777 94.4187 27.8581 92.6349 29.2188 91.4565C30.5794 90.2716 32.334 89.6791 34.4824 89.6791C36.4681 89.6791 38.0501 90.0991 39.2285 90.9389C40.4069 91.7722 41.0579 93.0125 41.1816 94.6596L41.2012 94.8647H38.457L38.4473 94.6498C38.3561 93.6668 37.9688 92.9441 37.2852 92.4819C36.6081 92.0131 35.6641 91.7787 34.4531 91.7787C33.112 91.7787 32.028 92.1759 31.2012 92.9702C30.3809 93.7644 29.9707 94.9819 29.9707 96.6225V97.5405C29.9707 99.2527 30.3809 100.49 31.2012 101.251C32.028 102.013 33.112 102.394 34.4531 102.394C35.8073 102.394 36.7904 102.13 37.4023 101.603C38.0143 101.069 38.3626 100.372 38.4473 99.5131L38.457 99.308H41.2012L41.1914 99.5229C41.0807 101.046 40.4557 102.254 39.3164 103.146C38.1836 104.038 36.5755 104.484 34.4922 104.484C32.3307 104.484 30.5697 103.904 29.209 102.746C27.8548 101.58 27.1777 99.7833 27.1777 97.3549ZM43.2129 104.191V89.9721H56.2695V104.191H53.5547V92.062H45.9277V104.191H43.2129ZM59.502 104.191V89.9721H70.3125V92.0717H62.1875V95.8608H69.3164V97.9018H62.1875V102.101H70.4297V104.191H59.502ZM85.1758 107.013V104.191H72.7246V89.9721H75.4395V102.101H83.0957V89.9721H85.8105V102.101H87.6953V107.013H85.1758ZM102.832 104.191H100.176V94.6694C100.176 94.461 100.179 94.2332 100.186 93.9858C100.192 93.7319 100.202 93.504 100.215 93.3022H100.098C100 93.4975 99.9023 93.6896 99.8047 93.8784C99.7135 94.0672 99.5833 94.2722 99.4141 94.4936L92.4121 104.191H89.541V89.9721H92.207V99.4838C92.207 99.6856 92.2005 99.9103 92.1875 100.158C92.181 100.405 92.1745 100.633 92.168 100.841H92.3047C92.3763 100.678 92.4642 100.493 92.5684 100.285C92.679 100.076 92.806 99.8712 92.9492 99.6694L99.9609 89.9721H102.832V104.191ZM104.307 104.191L110.488 89.9037H113.154L119.346 104.191H116.396L112.285 94.1127C112.161 93.8198 112.057 93.5398 111.973 93.2729C111.888 92.9995 111.81 92.739 111.738 92.4916H111.641C111.562 92.739 111.481 92.9995 111.396 93.2729C111.312 93.5463 111.211 93.8263 111.094 94.1127L106.953 104.191H104.307ZM107.168 100.861L107.93 98.8393H115.586L116.348 100.861H107.168ZM122.49 89.9721H133.906V104.191H131.201V92.062H124.775L124.414 98.7807C124.323 100.643 124.02 102.055 123.506 103.019C122.992 103.983 122.015 104.464 120.576 104.464C120.355 104.464 120.143 104.448 119.941 104.415C119.74 104.389 119.541 104.341 119.346 104.269V101.964C119.495 102.016 119.635 102.052 119.766 102.072C119.902 102.091 120.042 102.101 120.186 102.101C120.83 102.101 121.283 101.828 121.543 101.281C121.803 100.734 121.969 99.7833 122.041 98.4291L122.49 89.9721ZM150.508 104.191H147.852V94.6694C147.852 94.461 147.855 94.2332 147.861 93.9858C147.868 93.7319 147.878 93.504 147.891 93.3022H147.773C147.676 93.4975 147.578 93.6896 147.48 93.8784C147.389 94.0672 147.259 94.2722 147.09 94.4936L140.088 104.191H137.217V89.9721H139.883V99.4838C139.883 99.6856 139.876 99.9103 139.863 100.158C139.857 100.405 139.85 100.633 139.844 100.841H139.98C140.052 100.678 140.14 100.493 140.244 100.285C140.355 100.076 140.482 99.8712 140.625 99.6694L147.637 89.9721H150.508V104.191ZM159.287 102.394C160.492 102.394 161.377 102.186 161.943 101.769C162.51 101.352 162.796 100.763 162.803 100.001C162.803 99.2983 162.562 98.7612 162.08 98.3901C161.605 98.019 160.879 97.8334 159.902 97.8334H157.061V95.8315H159.736C160.654 95.8315 161.331 95.659 161.768 95.3139C162.204 94.9689 162.422 94.4675 162.422 93.81C162.422 93.1524 162.161 92.6479 161.641 92.2963C161.12 91.9448 160.309 91.769 159.209 91.769C158.05 91.769 157.174 91.9741 156.582 92.3842C155.99 92.7944 155.69 93.4259 155.684 94.2787V94.4252H152.988V94.2885C152.995 92.8432 153.519 91.7169 154.561 90.9096C155.609 90.0958 157.171 89.6889 159.248 89.6889C161.13 89.6889 162.578 90.0242 163.594 90.6948C164.609 91.3588 165.117 92.3191 165.117 93.5756C165.117 94.4285 164.883 95.1088 164.414 95.6166C163.952 96.1245 163.379 96.4825 162.695 96.6909V96.7299C163.529 96.9252 164.206 97.3061 164.727 97.8725C165.254 98.4324 165.518 99.1681 165.518 100.08C165.518 101.466 164.974 102.547 163.887 103.322C162.806 104.09 161.286 104.474 159.326 104.474C157.249 104.474 155.645 104.096 154.512 103.341C153.385 102.586 152.816 101.375 152.803 99.7084V99.5717H155.498L155.508 99.6987C155.508 100.63 155.824 101.313 156.455 101.749C157.087 102.179 158.031 102.394 159.287 102.394ZM181.23 104.191H178.574V94.6694C178.574 94.461 178.577 94.2332 178.584 93.9858C178.59 93.7319 178.6 93.504 178.613 93.3022H178.496C178.398 93.4975 178.301 93.6896 178.203 93.8784C178.112 94.0672 177.982 94.2722 177.812 94.4936L170.811 104.191H167.939V89.9721H170.605V99.4838C170.605 99.6856 170.599 99.9103 170.586 100.158C170.579 100.405 170.573 100.633 170.566 100.841H170.703C170.775 100.678 170.863 100.493 170.967 100.285C171.077 100.076 171.204 99.8712 171.348 99.6694L178.359 89.9721H181.23V104.191ZM184.463 104.191V89.9721H190.664C192.493 89.9721 193.893 90.3627 194.863 91.144C195.84 91.9252 196.328 93.0678 196.328 94.5717C196.328 96.0431 195.843 97.1856 194.873 97.9995C193.903 98.8133 192.497 99.2071 190.654 99.1811H187.178V104.191H184.463ZM187.178 97.1694H190.42C191.592 97.1694 192.419 96.9448 192.9 96.4955C193.382 96.0398 193.623 95.4018 193.623 94.5815C193.623 93.7547 193.382 93.1231 192.9 92.687C192.419 92.2442 191.592 92.0229 190.42 92.0229H187.178V97.1694ZM197.783 97.3354V96.7983C197.783 94.4285 198.473 92.6511 199.854 91.4662C201.234 90.2748 202.998 89.6791 205.146 89.6791C207.288 89.6791 209.053 90.2748 210.439 91.4662C211.833 92.6511 212.529 94.4285 212.529 96.7983V97.3354C212.529 99.7247 211.833 101.515 210.439 102.706C209.053 103.891 207.288 104.484 205.146 104.484C202.998 104.484 201.234 103.891 199.854 102.706C198.473 101.515 197.783 99.7247 197.783 97.3354ZM200.566 97.5014C200.566 99.1811 200.983 100.418 201.816 101.212C202.656 102 203.766 102.394 205.146 102.394C206.527 102.394 207.64 102 208.486 101.212C209.333 100.418 209.756 99.1811 209.756 97.5014V96.6518C209.756 94.9721 209.333 93.7416 208.486 92.9604C207.646 92.1726 206.533 91.7787 205.146 91.7787C203.766 91.7787 202.656 92.1726 201.816 92.9604C200.983 93.7416 200.566 94.9689 200.566 96.642V97.5014ZM215.107 104.191V89.9721H221.143C222.835 89.9721 224.157 90.2618 225.107 90.8412C226.058 91.4207 226.533 92.3777 226.533 93.7123C226.533 94.5001 226.328 95.1414 225.918 95.6362C225.514 96.1245 225 96.476 224.375 96.6909V96.7299C225.156 96.9383 225.788 97.3191 226.27 97.8725C226.758 98.4259 227.002 99.1681 227.002 100.099C227.002 101.46 226.494 102.482 225.479 103.165C224.463 103.849 223.122 104.191 221.455 104.191H215.107ZM217.783 102.238H221.318C222.327 102.238 223.076 102.052 223.564 101.681C224.053 101.303 224.297 100.734 224.297 99.9721C224.297 99.256 224.053 98.7058 223.564 98.3217C223.076 97.9311 222.327 97.7358 221.318 97.7358H217.783V102.238ZM217.783 95.8998H221.006C222.002 95.8998 222.725 95.7273 223.174 95.3823C223.63 95.0372 223.857 94.5424 223.857 93.8979C223.857 93.2208 223.633 92.726 223.184 92.4135C222.734 92.101 222.008 91.9448 221.006 91.9448H217.783V95.8998ZM227.744 104.191L233.926 89.9037H236.592L242.783 104.191H239.834L235.723 94.1127C235.599 93.8198 235.495 93.5398 235.41 93.2729C235.326 92.9995 235.247 92.739 235.176 92.4916H235.078C235 92.739 234.919 92.9995 234.834 93.2729C234.749 93.5463 234.648 93.8263 234.531 94.1127L230.391 104.191H227.744ZM230.605 100.861L231.367 98.8393H239.023L239.785 100.861H230.605ZM244.268 104.191V89.9721H246.982V95.8022H254.717V89.9721H257.422V104.191H254.717V97.9116H246.982V104.191H244.268ZM260.01 97.3354V96.7983C260.01 94.4285 260.7 92.6511 262.08 91.4662C263.46 90.2748 265.225 89.6791 267.373 89.6791C269.515 89.6791 271.279 90.2748 272.666 91.4662C274.059 92.6511 274.756 94.4285 274.756 96.7983V97.3354C274.756 99.7247 274.059 101.515 272.666 102.706C271.279 103.891 269.515 104.484 267.373 104.484C265.225 104.484 263.46 103.891 262.08 102.706C260.7 101.515 260.01 99.7247 260.01 97.3354ZM262.793 97.5014C262.793 99.1811 263.21 100.418 264.043 101.212C264.883 102 265.993 102.394 267.373 102.394C268.753 102.394 269.867 102 270.713 101.212C271.559 100.418 271.982 99.1811 271.982 97.5014V96.6518C271.982 94.9721 271.559 93.7416 270.713 92.9604C269.873 92.1726 268.76 91.7787 267.373 91.7787C265.993 91.7787 264.883 92.1726 264.043 92.9604C263.21 93.7416 262.793 94.9689 262.793 96.642V97.5014ZM277.334 104.191V89.9721H287.49V92.062H280.049V104.191H277.334ZM288.74 97.3354V96.7983C288.74 94.4285 289.43 92.6511 290.811 91.4662C292.191 90.2748 293.955 89.6791 296.104 89.6791C298.245 89.6791 300.01 90.2748 301.396 91.4662C302.79 92.6511 303.486 94.4285 303.486 96.7983V97.3354C303.486 99.7247 302.79 101.515 301.396 102.706C300.01 103.891 298.245 104.484 296.104 104.484C293.955 104.484 292.191 103.891 290.811 102.706C289.43 101.515 288.74 99.7247 288.74 97.3354ZM291.523 97.5014C291.523 99.1811 291.94 100.418 292.773 101.212C293.613 102 294.723 102.394 296.104 102.394C297.484 102.394 298.597 102 299.443 101.212C300.29 100.418 300.713 99.1811 300.713 97.5014V96.6518C300.713 94.9721 300.29 93.7416 299.443 92.9604C298.604 92.1726 297.49 91.7787 296.104 91.7787C294.723 91.7787 293.613 92.1726 292.773 92.9604C291.94 93.7416 291.523 94.9689 291.523 96.642V97.5014ZM27.1777 120.335V119.798C27.1777 117.428 27.8678 115.651 29.248 114.466C30.6283 113.275 32.3926 112.679 34.541 112.679C36.6829 112.679 38.4473 113.275 39.834 114.466C41.2272 115.651 41.9238 117.428 41.9238 119.798V120.335C41.9238 122.725 41.2272 124.515 39.834 125.706C38.4473 126.891 36.6829 127.484 34.541 127.484C32.3926 127.484 30.6283 126.891 29.248 125.706C27.8678 124.515 27.1777 122.725 27.1777 120.335ZM29.9609 120.501C29.9609 122.181 30.3776 123.418 31.2109 124.212C32.0508 125 33.1608 125.394 34.541 125.394C35.9212 125.394 37.0345 125 37.8809 124.212C38.7272 123.418 39.1504 122.181 39.1504 120.501V119.652C39.1504 117.972 38.7272 116.742 37.8809 115.96C37.041 115.173 35.9277 114.779 34.541 114.779C33.1608 114.779 32.0508 115.173 31.2109 115.96C30.3776 116.742 29.9609 117.969 29.9609 119.642V120.501ZM44.502 127.191V112.972H55.3906V115.052H47.2168V118.49H51.3379C52.9655 118.49 54.209 118.861 55.0684 119.603C55.9277 120.345 56.3574 121.416 56.3574 122.816C56.3574 124.235 55.9277 125.319 55.0684 126.068C54.209 126.817 52.9655 127.191 51.3379 127.191H44.502ZM47.2168 120.501V125.16H51.1133C52.0573 125.16 52.7279 124.958 53.125 124.554C53.5286 124.15 53.7305 123.571 53.7305 122.816C53.7305 122.074 53.5286 121.504 53.125 121.107C52.7279 120.703 52.0573 120.501 51.1133 120.501H47.2168ZM58.1543 120.335V119.798C58.1543 117.428 58.8444 115.651 60.2246 114.466C61.6048 113.275 63.3691 112.679 65.5176 112.679C67.6595 112.679 69.4238 113.275 70.8105 114.466C72.2038 115.651 72.9004 117.428 72.9004 119.798V120.335C72.9004 122.725 72.2038 124.515 70.8105 125.706C69.4238 126.891 67.6595 127.484 65.5176 127.484C63.3691 127.484 61.6048 126.891 60.2246 125.706C58.8444 124.515 58.1543 122.725 58.1543 120.335ZM60.9375 120.501C60.9375 122.181 61.3542 123.418 62.1875 124.212C63.0273 125 64.1374 125.394 65.5176 125.394C66.8978 125.394 68.0111 125 68.8574 124.212C69.7038 123.418 70.127 122.181 70.127 120.501V119.652C70.127 117.972 69.7038 116.742 68.8574 115.96C68.0176 115.173 66.9043 114.779 65.5176 114.779C64.1374 114.779 63.0273 115.173 62.1875 115.96C61.3542 116.742 60.9375 117.969 60.9375 119.642V120.501ZM75.4785 127.191V112.972H81.6797C83.5091 112.972 84.9089 113.363 85.8789 114.144C86.8555 114.925 87.3438 116.068 87.3438 117.572C87.3438 119.043 86.8587 120.186 85.8887 120.999C84.9186 121.813 83.5124 122.207 81.6699 122.181H78.1934V127.191H75.4785ZM78.1934 120.169H81.4355C82.6074 120.169 83.4342 119.945 83.916 119.496C84.3978 119.04 84.6387 118.402 84.6387 117.581C84.6387 116.755 84.3978 116.123 83.916 115.687C83.4342 115.244 82.6074 115.023 81.4355 115.023H78.1934V120.169ZM90.3809 125.023C90.5632 125.075 90.7617 125.117 90.9766 125.15C91.1914 125.182 91.4095 125.199 91.6309 125.199C92.1908 125.199 92.6628 125.072 93.0469 124.818C93.4375 124.564 93.8216 124.102 94.1992 123.431L94.1699 123.509L87.9004 112.972H91.0156L94.873 119.789C95.0553 120.127 95.1823 120.381 95.2539 120.55C95.332 120.713 95.4134 120.905 95.498 121.126H95.5566C95.6413 120.912 95.7194 120.723 95.791 120.56C95.8691 120.391 95.9961 120.137 96.1719 119.798L99.7461 112.972H102.49L96.8066 123.372C95.9733 124.902 95.2344 125.97 94.5898 126.576C93.9453 127.175 93.0729 127.474 91.9727 127.474C91.569 127.474 91.25 127.458 91.0156 127.425C90.7878 127.393 90.5762 127.344 90.3809 127.279V125.023ZM116.279 130.013V127.191H105.088V130.013H102.598V125.101H118.77V130.013H116.279ZM105.43 112.972H116.885V126.683H114.209V115.062H107.715L107.422 120.335C107.344 121.735 107.214 122.845 107.031 123.665C106.855 124.486 106.602 125.179 106.27 125.746H103.652C104.082 125.114 104.401 124.382 104.609 123.548C104.824 122.715 104.967 121.608 105.039 120.228L105.43 112.972ZM120.01 120.335V119.798C120.01 117.428 120.7 115.651 122.08 114.466C123.46 113.275 125.225 112.679 127.373 112.679C129.515 112.679 131.279 113.275 132.666 114.466C134.059 115.651 134.756 117.428 134.756 119.798V120.335C134.756 122.725 134.059 124.515 132.666 125.706C131.279 126.891 129.515 127.484 127.373 127.484C125.225 127.484 123.46 126.891 122.08 125.706C120.7 124.515 120.01 122.725 120.01 120.335ZM122.793 120.501C122.793 122.181 123.21 123.418 124.043 124.212C124.883 125 125.993 125.394 127.373 125.394C128.753 125.394 129.867 125 130.713 124.212C131.559 123.418 131.982 122.181 131.982 120.501V119.652C131.982 117.972 131.559 116.742 130.713 115.96C129.873 115.173 128.76 114.779 127.373 114.779C125.993 114.779 124.883 115.173 124.043 115.96C123.21 116.742 122.793 117.969 122.793 119.642V120.501ZM137.334 127.191V112.972H143.369C145.062 112.972 146.383 113.262 147.334 113.841C148.285 114.421 148.76 115.378 148.76 116.712C148.76 117.5 148.555 118.141 148.145 118.636C147.741 119.124 147.227 119.476 146.602 119.691V119.73C147.383 119.938 148.014 120.319 148.496 120.872C148.984 121.426 149.229 122.168 149.229 123.099C149.229 124.46 148.721 125.482 147.705 126.165C146.689 126.849 145.348 127.191 143.682 127.191H137.334ZM140.01 125.238H143.545C144.554 125.238 145.303 125.052 145.791 124.681C146.279 124.303 146.523 123.734 146.523 122.972C146.523 122.256 146.279 121.706 145.791 121.322C145.303 120.931 144.554 120.736 143.545 120.736H140.01V125.238ZM140.01 118.9H143.232C144.229 118.9 144.951 118.727 145.4 118.382C145.856 118.037 146.084 117.542 146.084 116.898C146.084 116.221 145.859 115.726 145.41 115.414C144.961 115.101 144.235 114.945 143.232 114.945H140.01V118.9ZM149.971 127.191L156.152 112.904H158.818L165.01 127.191H162.061L157.949 117.113C157.826 116.82 157.721 116.54 157.637 116.273C157.552 115.999 157.474 115.739 157.402 115.492H157.305C157.227 115.739 157.145 115.999 157.061 116.273C156.976 116.546 156.875 116.826 156.758 117.113L152.617 127.191H149.971ZM152.832 123.861L153.594 121.839H161.25L162.012 123.861H152.832ZM166.494 127.191V112.972H169.209V118.802H176.943V112.972H179.648V127.191H176.943V120.912H169.209V127.191H166.494ZM196.172 127.191H193.516V117.669C193.516 117.461 193.519 117.233 193.525 116.986C193.532 116.732 193.542 116.504 193.555 116.302H193.438C193.34 116.497 193.242 116.69 193.145 116.878C193.053 117.067 192.923 117.272 192.754 117.494L185.752 127.191H182.881V112.972H185.547V122.484C185.547 122.686 185.54 122.91 185.527 123.158C185.521 123.405 185.514 123.633 185.508 123.841H185.645C185.716 123.678 185.804 123.493 185.908 123.285C186.019 123.076 186.146 122.871 186.289 122.669L193.301 112.972H196.172V127.191ZM210.693 127.191H207.979V121.849H203.262L202.773 121.595C201.536 121.432 200.589 120.97 199.932 120.208C199.274 119.447 198.945 118.493 198.945 117.347C198.945 116.006 199.424 114.942 200.381 114.154C201.344 113.366 202.702 112.972 204.453 112.972H210.693V127.191ZM207.979 119.847V115.003H204.678C203.538 115.003 202.751 115.218 202.314 115.648C201.878 116.071 201.66 116.647 201.66 117.376C201.66 118.112 201.878 118.708 202.314 119.164C202.751 119.619 203.538 119.847 204.678 119.847H207.979ZM201.172 127.191H198.281L202.412 120.658H205.166L201.172 127.191ZM41.1133 150.191H38.457V140.669C38.457 140.461 38.4603 140.233 38.4668 139.986C38.4733 139.732 38.4831 139.504 38.4961 139.302H38.3789C38.2812 139.497 38.1836 139.69 38.0859 139.878C37.9948 140.067 37.8646 140.272 37.6953 140.494L30.6934 150.191H27.8223V135.972H30.4883V145.484C30.4883 145.686 30.4818 145.91 30.4688 146.158C30.4622 146.405 30.4557 146.633 30.4492 146.841H30.5859C30.6576 146.678 30.7454 146.493 30.8496 146.285C30.9603 146.076 31.0872 145.871 31.2305 145.669L38.2422 135.972H41.1133V150.191ZM50.3809 148.023C50.5632 148.075 50.7617 148.117 50.9766 148.15C51.1914 148.182 51.4095 148.199 51.6309 148.199C52.1908 148.199 52.6628 148.072 53.0469 147.818C53.4375 147.564 53.8216 147.102 54.1992 146.431L54.1699 146.509L47.9004 135.972H51.0156L54.873 142.789C55.0553 143.127 55.1823 143.381 55.2539 143.55C55.332 143.713 55.4134 143.905 55.498 144.126H55.5566C55.6413 143.912 55.7194 143.723 55.791 143.56C55.8691 143.391 55.9961 143.137 56.1719 142.798L59.7461 135.972H62.4902L56.8066 146.372C55.9733 147.902 55.2344 148.97 54.5898 149.576C53.9453 150.175 53.0729 150.474 51.9727 150.474C51.569 150.474 51.25 150.458 51.0156 150.425C50.7878 150.393 50.5762 150.344 50.3809 150.279V148.023ZM63.4277 143.355V142.808C63.4277 140.419 64.1081 138.635 65.4688 137.456C66.8294 136.272 68.584 135.679 70.7324 135.679C72.7181 135.679 74.3001 136.099 75.4785 136.939C76.6569 137.772 77.3079 139.012 77.4316 140.66L77.4512 140.865H74.707L74.6973 140.65C74.6061 139.667 74.2188 138.944 73.5352 138.482C72.8581 138.013 71.9141 137.779 70.7031 137.779C69.362 137.779 68.278 138.176 67.4512 138.97C66.6309 139.764 66.2207 140.982 66.2207 142.622V143.54C66.2207 145.253 66.6309 146.49 67.4512 147.251C68.278 148.013 69.362 148.394 70.7031 148.394C72.0573 148.394 73.0404 148.13 73.6523 147.603C74.2643 147.069 74.6126 146.372 74.6973 145.513L74.707 145.308H77.4512L77.4414 145.523C77.3307 147.046 76.7057 148.254 75.5664 149.146C74.4336 150.038 72.8255 150.484 70.7422 150.484C68.5807 150.484 66.8197 149.904 65.459 148.746C64.1048 147.58 63.4277 145.783 63.4277 143.355ZM78.0762 138.081V135.972H91.1523V138.081H85.9766V150.191H83.2617V138.081H78.0762ZM91.2402 150.191L97.4219 135.904H100.088L106.279 150.191H103.33L99.2188 140.113C99.0951 139.82 98.9909 139.54 98.9062 139.273C98.8216 138.999 98.7435 138.739 98.6719 138.492H98.5742C98.4961 138.739 98.4147 138.999 98.3301 139.273C98.2454 139.546 98.1445 139.826 98.0273 140.113L93.8867 150.191H91.2402ZM94.1016 146.861L94.8633 144.839H102.52L103.281 146.861H94.1016ZM107.764 150.191V135.972H110.479V141.802H118.213V135.972H120.918V150.191H118.213V143.912H110.479V150.191H107.764ZM123.506 143.335V142.798C123.506 140.428 124.196 138.651 125.576 137.466C126.956 136.275 128.721 135.679 130.869 135.679C133.011 135.679 134.775 136.275 136.162 137.466C137.555 138.651 138.252 140.428 138.252 142.798V143.335C138.252 145.725 137.555 147.515 136.162 148.706C134.775 149.891 133.011 150.484 130.869 150.484C128.721 150.484 126.956 149.891 125.576 148.706C124.196 147.515 123.506 145.725 123.506 143.335ZM126.289 143.501C126.289 145.181 126.706 146.418 127.539 147.212C128.379 148 129.489 148.394 130.869 148.394C132.249 148.394 133.363 148 134.209 147.212C135.055 146.418 135.479 145.181 135.479 143.501V142.652C135.479 140.972 135.055 139.742 134.209 138.96C133.369 138.173 132.256 137.779 130.869 137.779C129.489 137.779 128.379 138.173 127.539 138.96C126.706 139.742 126.289 140.969 126.289 142.642V143.501ZM140.83 150.191V135.972H146.865C148.558 135.972 149.88 136.262 150.83 136.841C151.781 137.421 152.256 138.378 152.256 139.712C152.256 140.5 152.051 141.141 151.641 141.636C151.237 142.124 150.723 142.476 150.098 142.691V142.73C150.879 142.938 151.51 143.319 151.992 143.872C152.48 144.426 152.725 145.168 152.725 146.099C152.725 147.46 152.217 148.482 151.201 149.165C150.186 149.849 148.844 150.191 147.178 150.191H140.83ZM143.506 148.238H147.041C148.05 148.238 148.799 148.052 149.287 147.681C149.775 147.303 150.02 146.734 150.02 145.972C150.02 145.256 149.775 144.706 149.287 144.322C148.799 143.931 148.05 143.736 147.041 143.736H143.506V148.238ZM143.506 141.9H146.729C147.725 141.9 148.447 141.727 148.896 141.382C149.352 141.037 149.58 140.542 149.58 139.898C149.58 139.221 149.355 138.726 148.906 138.414C148.457 138.101 147.731 137.945 146.729 137.945H143.506V141.9ZM154.58 143.335V142.798C154.58 140.428 155.27 138.651 156.65 137.466C158.031 136.275 159.795 135.679 161.943 135.679C164.085 135.679 165.85 136.275 167.236 137.466C168.63 138.651 169.326 140.428 169.326 142.798V143.335C169.326 145.725 168.63 147.515 167.236 148.706C165.85 149.891 164.085 150.484 161.943 150.484C159.795 150.484 158.031 149.891 156.65 148.706C155.27 147.515 154.58 145.725 154.58 143.335ZM157.363 143.501C157.363 145.181 157.78 146.418 158.613 147.212C159.453 148 160.563 148.394 161.943 148.394C163.324 148.394 164.437 148 165.283 147.212C166.13 146.418 166.553 145.181 166.553 143.501V142.652C166.553 140.972 166.13 139.742 165.283 138.96C164.443 138.173 163.33 137.779 161.943 137.779C160.563 137.779 159.453 138.173 158.613 138.96C157.78 139.742 157.363 140.969 157.363 142.642V143.501ZM181.943 150.191L175.4 143.374L177.373 141.968L185.273 150.191H181.943ZM173.262 141.812H175.928L181.846 135.972H184.785L176.494 143.921H173.262V141.812ZM171.904 150.191V135.972H174.619V150.191H171.904Z" fill="#231F20"/>
<g clip-path="url(#clip1_9859_22290)">
<path d="M366.67 187.245H352.852V239.815H366.67V187.245Z" fill="#FF8B63" stroke="#231F20" stroke-width="0.6" stroke-miterlimit="10"/>
<path d="M322.189 156.766H342.094V153.323H322.189V156.766Z" fill="#7099ED" stroke="#231F20" stroke-width="0.6" stroke-miterlimit="10"/>
<path d="M321.471 156.766H323.383V153.323H321.471V156.766Z" fill="#7099ED" stroke="#231F20" stroke-width="0.6" stroke-miterlimit="10"/>
<path d="M322.189 98.3157H342.094V94.8735H322.189V98.3157Z" fill="#7099ED" stroke="#231F20" stroke-width="0.6" stroke-miterlimit="10"/>
<path d="M321.471 98.3157H323.383V94.8735H321.471V98.3157Z" fill="#7099ED" stroke="#231F20" stroke-width="0.6" stroke-miterlimit="10"/>
<path d="M322.189 26.5529L342.094 26.5529V23.1107L322.189 23.1107V26.5529Z" fill="#7099ED" stroke="#231F20" stroke-width="0.6" stroke-miterlimit="10"/>
<path d="M321.471 26.5529H323.383V23.1107H321.471V26.5529Z" fill="#7099ED" stroke="#231F20" stroke-width="0.6" stroke-miterlimit="10"/>
<path d="M377.348 153.323H336.43V156.766H377.348V153.323Z" fill="#7099ED" stroke="#231F20" stroke-width="0.6" stroke-miterlimit="10"/>
<path d="M378.838 153.323H375.859V156.766H378.838V153.323Z" fill="#7099ED" stroke="#231F20" stroke-width="0.6" stroke-miterlimit="10"/>
<path d="M377.348 94.8773H336.43V98.3195H377.348V94.8773Z" fill="#7099ED" stroke="#231F20" stroke-width="0.6" stroke-miterlimit="10"/>
<path d="M378.838 94.8773H375.859V98.3195H378.838V94.8773Z" fill="#7099ED" stroke="#231F20" stroke-width="0.6" stroke-miterlimit="10"/>
<path d="M382.148 23.1069H336.43V26.5491H382.148V23.1069Z" fill="#7099ED" stroke="#231F20" stroke-width="0.6" stroke-miterlimit="10"/>
<path d="M383.811 23.1069H380.484V26.5491H383.811V23.1069Z" fill="#7099ED" stroke="#231F20" stroke-width="0.6" stroke-miterlimit="10"/>
<path d="M348.704 -83.9632H344.109V171.898H348.704V-83.9632Z" fill="#FF8B63" stroke="#231F20" stroke-width="0.6" stroke-miterlimit="10"/>
<path d="M350.335 164H342.75L342.148 164.806V237.71H350.933V164.806L350.335 164Z" fill="#FF8B63" stroke="#231F20" stroke-width="0.6" stroke-miterlimit="10"/>
<path d="M376.161 -91.8117H370.812V239.812H376.161V-91.8117Z" fill="#7099ED" stroke="#231F20" stroke-width="0.6" stroke-miterlimit="10"/>
<path d="M378.84 -91.8117H373.492V239.812H378.84V-91.8117Z" fill="#7099ED" stroke="#231F20" stroke-width="0.6" stroke-miterlimit="10"/>
<path d="M341.853 183.866H323.391V239.812H341.853V183.866Z" fill="#7099ED" stroke="#231F20" stroke-width="0.6" stroke-miterlimit="10"/>
<path d="M339.098 -91.8117H333.75V239.812H339.098V-91.8117Z" fill="#7099ED" stroke="#231F20" stroke-width="0.6" stroke-miterlimit="10"/>
<path d="M341.778 -91.8117H336.43V239.812H341.778V-91.8117Z" fill="#7099ED" stroke="#231F20" stroke-width="0.6" stroke-miterlimit="10"/>
<path d="M365.715 -91.8117H360.367V239.812H365.715V-91.8117Z" fill="#7099ED" stroke="#231F20" stroke-width="0.6" stroke-miterlimit="10"/>
<path d="M368.395 -91.8117H363.047V239.812H368.395V-91.8117Z" fill="#7099ED" stroke="#231F20" stroke-width="0.6" stroke-miterlimit="10"/>
<path d="M374.186 183.866H360.367V239.812H374.186V183.866Z" fill="#7099ED" stroke="#231F20" stroke-width="0.6" stroke-miterlimit="10"/>
<path d="M378.834 183.866H363.047V239.812H378.834V183.866Z" fill="#7099ED" stroke="#231F20" stroke-width="0.6" stroke-miterlimit="10"/>
<path d="M328.739 -91.8117H323.391V239.812H328.739V-91.8117Z" fill="#7099ED" stroke="#231F20" stroke-width="0.6" stroke-miterlimit="10"/>
<path d="M331.418 -91.8117H326.07V239.812H331.418V-91.8117Z" fill="#7099ED" stroke="#231F20" stroke-width="0.6" stroke-miterlimit="10"/>
<path d="M346.568 174.651H344.297V234.859H346.568V174.651Z" fill="#7099ED"/>
<path d="M346.38 174.839V234.671H344.488V174.839H346.38ZM346.759 174.462H344.109V235.048H346.759V174.462Z" fill="#231F20"/>
<path d="M348.513 174.651H346.242V234.859H348.513V174.651Z" fill="#7099ED"/>
<path d="M348.326 174.839V234.671H346.433V174.839H348.326ZM348.704 174.462H346.055V235.048H348.704V174.462Z" fill="#231F20"/>
<path d="M190.375 236.324V185.682C190.375 178.775 196.022 173.156 202.964 173.156H307.639V236.324H190.375ZM278.594 234.065H305.372V205.868H278.594V234.065ZM222.891 234.065H276.323V205.868H222.891V234.065ZM192.646 234.065H220.62V205.868H192.646V234.065ZM250.143 203.608H305.369V175.411H250.143V203.608ZM202.964 175.411C197.275 175.411 192.646 180.017 192.646 185.678V203.604H247.872V175.408H202.964V175.411Z" fill="#7099ED"/>
<path d="M307.452 173.344V236.136H190.566V185.682C190.566 178.876 196.13 173.344 202.965 173.344H307.452ZM249.955 203.8H305.56V175.227H249.955V203.8ZM192.458 203.8H248.063V175.227H202.965C197.171 175.227 192.458 179.916 192.458 185.682V203.797M278.406 234.253H305.563V205.68H278.406V234.253ZM222.708 234.253H276.518V205.68H222.704V234.253M192.458 234.253H220.811V205.68H192.458V234.253ZM307.83 172.967H202.965C195.918 172.967 190.188 178.673 190.188 185.682V236.513H307.83V172.967ZM250.334 203.424V175.604H305.181V203.424H250.334ZM192.837 203.424V185.685C192.837 180.127 197.383 175.607 202.965 175.607H247.684V203.427H192.837V203.424ZM278.785 233.88V206.06H305.185V233.88H278.785ZM223.086 233.88V206.06H276.139V233.88H223.082H223.086ZM192.841 233.88V206.06H220.437V233.88H192.837H192.841Z" fill="#231F20"/>
<path d="M279.159 236.324C278.534 236.324 278.023 235.842 278.023 235.247V206.007C278.023 205.412 278.534 204.93 279.159 204.93C279.783 204.93 280.294 205.412 280.294 206.007V235.247C280.294 235.842 279.783 236.324 279.159 236.324Z" fill="#7099ED"/>
<path d="M279.161 205.118C279.683 205.118 280.107 205.518 280.107 206.007V235.247C280.107 235.737 279.683 236.136 279.161 236.136C278.638 236.136 278.214 235.737 278.214 235.247V206.007C278.214 205.518 278.638 205.118 279.161 205.118ZM279.161 204.742C278.43 204.742 277.836 205.31 277.836 206.007V235.247C277.836 235.948 278.43 236.513 279.161 236.513C279.891 236.513 280.485 235.948 280.485 235.247V206.007C280.485 205.307 279.891 204.742 279.161 204.742Z" fill="#231F20"/>
<path d="M223.456 236.324C222.831 236.324 222.32 235.842 222.32 235.247V206.007C222.32 205.412 222.831 204.93 223.456 204.93C224.08 204.93 224.591 205.412 224.591 206.007V235.247C224.591 235.842 224.08 236.324 223.456 236.324Z" fill="#7099ED"/>
<path d="M223.458 205.118C223.98 205.118 224.404 205.518 224.404 206.007V235.247C224.404 235.737 223.98 236.136 223.458 236.136C222.935 236.136 222.511 235.737 222.511 235.247V206.007C222.511 205.518 222.935 205.118 223.458 205.118ZM223.458 204.742C222.727 204.742 222.133 205.31 222.133 206.007V235.247C222.133 235.948 222.727 236.513 223.458 236.513C224.188 236.513 224.782 235.948 224.782 235.247V206.007C224.782 205.307 224.188 204.742 223.458 204.742Z" fill="#231F20"/>
<path d="M250.714 205.872C250.089 205.872 249.578 205.363 249.578 204.742V174.285C249.578 173.664 250.089 173.156 250.714 173.156C251.338 173.156 251.849 173.664 251.849 174.285V204.742C251.849 205.363 251.338 205.872 250.714 205.872Z" fill="#7099ED"/>
<path d="M250.715 173.344C251.238 173.344 251.662 173.766 251.662 174.285V204.742C251.662 205.262 251.238 205.683 250.715 205.683C250.193 205.683 249.769 205.262 249.769 204.742V174.285C249.769 173.766 250.193 173.344 250.715 173.344ZM250.715 172.967C249.985 172.967 249.391 173.559 249.391 174.285V204.742C249.391 205.469 249.985 206.06 250.715 206.06C251.446 206.06 252.04 205.469 252.04 204.742V174.285C252.04 173.559 251.446 172.967 250.715 172.967Z" fill="#231F20"/>
<path d="M193.214 205.872C192.589 205.872 192.078 205.363 192.078 204.742C192.078 204.12 192.589 203.612 193.214 203.612H308.207C308.832 203.612 309.343 204.12 309.343 204.742C309.343 205.363 308.832 205.872 308.207 205.872H193.214Z" fill="#7099ED"/>
<path d="M308.209 203.8C308.731 203.8 309.155 204.222 309.155 204.742C309.155 205.262 308.731 205.683 308.209 205.683H193.215C192.693 205.683 192.269 205.262 192.269 204.742C192.269 204.222 192.693 203.8 193.215 203.8H308.209ZM308.209 203.424H193.215C192.485 203.424 191.891 204.015 191.891 204.742C191.891 205.469 192.485 206.06 193.215 206.06H308.209C308.939 206.06 309.534 205.469 309.534 204.742C309.534 204.015 308.939 203.424 308.209 203.424Z" fill="#231F20"/>
<path d="M204.669 172.967C197.621 172.967 191.891 178.673 191.891 185.682V236.513H309.534V172.967H204.669ZM306.884 233.876H194.54V185.682C194.54 180.123 199.086 175.604 204.669 175.604H306.884V233.876Z" fill="#7099ED" stroke="#231F20" stroke-width="0.6" stroke-miterlimit="10"/>
<path d="M355.461 -59.5815V187.245" stroke="#231F20" stroke-width="0.6" stroke-miterlimit="10"/>
<path d="M382.871 174.474H307.07V181.55H382.871V174.474Z" fill="#7099ED"/>
<path d="M382.683 174.662V181.362H307.261V174.662H382.683ZM383.062 174.285H306.883V181.739H383.062V174.285Z" fill="#231F20"/>
<path d="M380.914 227.783H307.07V234.859H380.914V227.783Z" fill="#7099ED"/>
<path d="M380.727 227.971V234.671H307.261V227.971H380.727ZM381.105 227.594H306.883V235.048H381.105V227.594Z" fill="#231F20"/>
<path d="M263.906 236.324V185.682C263.906 178.775 269.553 173.156 276.495 173.156H381.171V236.324H263.906ZM352.125 234.065H378.904V205.868H352.125V234.065ZM296.423 234.065H349.854V205.868H296.423V234.065ZM266.177 234.065H294.152V205.868H266.177V234.065ZM323.674 203.608H378.9V175.411H323.674V203.608ZM276.495 175.411C270.806 175.411 266.177 180.017 266.177 185.678V203.604H321.403V175.408H276.495V175.411Z" fill="#7099ED"/>
<path d="M380.983 173.344V236.136H264.097V185.682C264.097 178.876 269.661 173.344 276.497 173.344H380.983ZM323.486 203.8H379.091V175.227H323.486V203.8ZM265.99 203.8H321.594V175.227H276.497C270.702 175.227 265.99 179.916 265.99 185.682V203.797M351.938 234.253H379.095V205.68H351.938V234.253ZM296.235 234.253H350.045V205.68H296.235V234.253ZM265.99 234.253H294.343V205.68H265.99V234.253ZM381.362 172.967H276.497C269.449 172.967 263.719 178.673 263.719 185.682V236.513H381.362V172.967ZM323.865 203.424V175.604H378.712V203.424H323.865ZM266.368 203.424V185.685C266.368 180.127 270.914 175.607 276.497 175.607H321.216V203.427H266.368V203.424ZM352.316 233.88V206.06H378.716V233.88H352.316ZM296.614 233.88V206.06H349.667V233.88H296.614ZM266.368 233.88V206.06H293.964V233.88H266.368Z" fill="#231F20"/>
<path d="M352.69 236.324C352.066 236.324 351.555 235.842 351.555 235.247V206.007C351.555 205.412 352.066 204.93 352.69 204.93C353.315 204.93 353.826 205.412 353.826 206.007V235.247C353.826 235.842 353.315 236.324 352.69 236.324Z" fill="#7099ED"/>
<path d="M352.692 205.118C353.214 205.118 353.638 205.518 353.638 206.007V235.247C353.638 235.737 353.214 236.136 352.692 236.136C352.17 236.136 351.746 235.737 351.746 235.247V206.007C351.746 205.518 352.17 205.118 352.692 205.118ZM352.692 204.742C351.961 204.742 351.367 205.31 351.367 206.007V235.247C351.367 235.948 351.961 236.513 352.692 236.513C353.422 236.513 354.017 235.948 354.017 235.247V206.007C354.017 205.307 353.422 204.742 352.692 204.742Z" fill="#231F20"/>
<path d="M296.987 236.324C296.363 236.324 295.852 235.842 295.852 235.247V206.007C295.852 205.412 296.363 204.93 296.987 204.93C297.612 204.93 298.123 205.412 298.123 206.007V235.247C298.123 235.842 297.612 236.324 296.987 236.324Z" fill="#7099ED"/>
<path d="M296.989 205.118C297.511 205.118 297.935 205.518 297.935 206.007V235.247C297.935 235.737 297.511 236.136 296.989 236.136C296.466 236.136 296.043 235.737 296.043 235.247V206.007C296.043 205.518 296.466 205.118 296.989 205.118ZM296.989 204.742C296.258 204.742 295.664 205.31 295.664 206.007V235.247C295.664 235.948 296.258 236.513 296.989 236.513C297.719 236.513 298.314 235.948 298.314 235.247V206.007C298.314 205.307 297.719 204.742 296.989 204.742Z" fill="#231F20"/>
<path d="M324.245 205.872C323.62 205.872 323.109 205.363 323.109 204.742V174.285C323.109 173.664 323.62 173.156 324.245 173.156C324.869 173.156 325.38 173.664 325.38 174.285V204.742C325.38 205.363 324.869 205.872 324.245 205.872Z" fill="#7099ED"/>
<path d="M324.247 173.344C324.769 173.344 325.193 173.766 325.193 174.285V204.742C325.193 205.262 324.769 205.683 324.247 205.683C323.724 205.683 323.3 205.262 323.3 204.742V174.285C323.3 173.766 323.724 173.344 324.247 173.344ZM324.247 172.967C323.516 172.967 322.922 173.559 322.922 174.285V204.742C322.922 205.469 323.516 206.06 324.247 206.06C324.977 206.06 325.571 205.469 325.571 204.742V174.285C325.571 173.559 324.977 172.967 324.247 172.967Z" fill="#231F20"/>
<path d="M266.745 205.872C266.12 205.872 265.609 205.363 265.609 204.742C265.609 204.12 266.12 203.612 266.745 203.612H381.738C382.363 203.612 382.874 204.12 382.874 204.742C382.874 205.363 382.363 205.872 381.738 205.872H266.745Z" fill="#7099ED"/>
<path d="M381.74 203.8C382.262 203.8 382.686 204.222 382.686 204.742C382.686 205.262 382.262 205.683 381.74 205.683H266.747C266.224 205.683 265.8 205.262 265.8 204.742C265.8 204.222 266.224 203.8 266.747 203.8H381.74ZM381.74 203.424H266.747C266.016 203.424 265.422 204.015 265.422 204.742C265.422 205.469 266.016 206.06 266.747 206.06H381.74C382.471 206.06 383.065 205.469 383.065 204.742C383.065 204.015 382.471 203.424 381.74 203.424Z" fill="#231F20"/>
<path d="M278.2 172.967C271.152 172.967 265.422 178.673 265.422 185.682V236.513H383.065V172.967H278.2ZM380.415 233.876H268.071V185.682C268.071 180.123 272.617 175.604 278.2 175.604H380.415V233.876Z" fill="#7099ED" stroke="#231F20" stroke-width="0.6" stroke-miterlimit="10"/>
<path d="M383.302 236.513H190.188V239.812H383.302V236.513Z" fill="#FF8B63" stroke="#231F20" stroke-width="0.6" stroke-miterlimit="10"/>
<path d="M264.289 239.812V236.513" stroke="#231F20" stroke-width="0.6" stroke-miterlimit="10"/>
<path d="M363.767 26.5491L383.672 26.5491V23.1069L363.767 23.1069V26.5491Z" fill="#7099ED" stroke="#231F20" stroke-width="0.6" stroke-miterlimit="10"/>
<path d="M363.042 26.5491H364.953V23.1069H363.042V26.5491Z" fill="#7099ED" stroke="#231F20" stroke-width="0.6" stroke-miterlimit="10"/>
<path d="M363.767 98.3157H383.672V94.8735H363.767V98.3157Z" fill="#7099ED" stroke="#231F20" stroke-width="0.6" stroke-miterlimit="10"/>
<path d="M363.042 98.3157H364.953V94.8735H363.042V98.3157Z" fill="#7099ED" stroke="#231F20" stroke-width="0.6" stroke-miterlimit="10"/>
<path d="M363.767 156.766H383.672V153.323H363.767V156.766Z" fill="#7099ED" stroke="#231F20" stroke-width="0.6" stroke-miterlimit="10"/>
<path d="M363.042 156.766H364.953V153.323H363.042V156.766Z" fill="#7099ED" stroke="#231F20" stroke-width="0.6" stroke-miterlimit="10"/>
</g>
</g>
<defs>
<clipPath id="clip0_9859_22290">
<rect width="384" height="240" rx="32" fill="white"/>
</clipPath>
<clipPath id="clip1_9859_22290">
<rect width="194" height="332" fill="white" transform="translate(190 -92)"/>
</clipPath>
</defs>
</svg>
