<svg width="384" height="240" viewBox="0 0 384 240" fill="none" xmlns="http://www.w3.org/2000/svg">
<g clip-path="url(#clip0_9859_21950)">
<rect width="384" height="240" rx="32" fill="white"/>
<path d="M27.8223 58.1909V43.9721H31.0352L35.8105 54.226C35.9082 54.4343 36.0059 54.6459 36.1035 54.8608C36.2012 55.0691 36.276 55.2481 36.3281 55.3979H36.3867C36.4388 55.2481 36.5072 55.0691 36.5918 54.8608C36.6764 54.6459 36.7643 54.4343 36.8555 54.226L41.6895 43.9721H44.9707V58.1909H42.2949L42.3047 48.5424C42.3047 48.3406 42.3112 48.1258 42.3242 47.8979C42.3372 47.6635 42.3503 47.4487 42.3633 47.2534H42.2949C42.2493 47.4487 42.1908 47.6635 42.1191 47.8979C42.054 48.1258 41.9759 48.3406 41.8848 48.5424L37.373 58.1909H35.0684L30.5762 48.5424C30.4785 48.3471 30.3939 48.1355 30.3223 47.9077C30.2507 47.6733 30.1921 47.4552 30.1465 47.2534H30.0781C30.0911 47.4552 30.1042 47.6733 30.1172 47.9077C30.1367 48.1355 30.1465 48.3504 30.1465 48.5522V58.1909H27.8223ZM47.5488 51.3354V50.7983C47.5488 48.4285 48.2389 46.6511 49.6191 45.4662C50.9993 44.2748 52.7637 43.6791 54.9121 43.6791C57.054 43.6791 58.8184 44.2748 60.2051 45.4662C61.5983 46.6511 62.2949 48.4285 62.2949 50.7983V51.3354C62.2949 53.7247 61.5983 55.5151 60.2051 56.7065C58.8184 57.8914 57.054 58.4838 54.9121 58.4838C52.7637 58.4838 50.9993 57.8914 49.6191 56.7065C48.2389 55.5151 47.5488 53.7247 47.5488 51.3354ZM50.332 51.5014C50.332 53.1811 50.7487 54.4181 51.582 55.2123C52.4219 56.0001 53.5319 56.394 54.9121 56.394C56.2923 56.394 57.4056 56.0001 58.252 55.2123C59.0983 54.4181 59.5215 53.1811 59.5215 51.5014V50.6518C59.5215 48.9721 59.0983 47.7416 58.252 46.9604C57.4121 46.1726 56.2988 45.7787 54.9121 45.7787C53.5319 45.7787 52.4219 46.1726 51.582 46.9604C50.7487 47.7416 50.332 48.9689 50.332 50.642V51.5014ZM64.873 58.1909V43.9721H67.5879V49.8022H75.3223V43.9721H78.0273V58.1909H75.3223V51.9116H67.5879V58.1909H64.873ZM79.873 46.0815V43.9721H92.9492V46.0815H87.7734V58.1909H85.0586V46.0815H79.873ZM93.0371 58.1909L99.2188 43.9037H101.885L108.076 58.1909H105.127L101.016 48.1127C100.892 47.8198 100.788 47.5398 100.703 47.2729C100.618 46.9995 100.54 46.739 100.469 46.4916H100.371C100.293 46.739 100.212 46.9995 100.127 47.2729C100.042 47.5463 99.9414 47.8263 99.8242 48.1127L95.6836 58.1909H93.0371ZM95.8984 54.8608L96.6602 52.8393H104.316L105.078 54.8608H95.8984ZM117.041 58.1909V43.9721H119.727V58.1909H117.041ZM126.074 58.1909L120.576 51.394L122.705 49.9194L129.395 58.1909H126.074ZM118.389 49.812H121.113L126.094 43.9721H129.004L122.129 51.9213H118.389V49.812ZM107.5 58.1909L114.209 49.9584L116.201 51.394L110.693 58.1909H107.5ZM118.389 49.812V51.9213H114.463L107.666 43.9721H110.732L115.654 49.812H118.389ZM27.8223 81.1909V66.9721H40.8789V81.1909H38.1641V69.062H30.5371V81.1909H27.8223ZM45.7715 66.9721H57.1875V81.1909H54.4824V69.062H48.0566L47.6953 75.7807C47.6042 77.6427 47.3014 79.0554 46.7871 80.019C46.2728 80.9825 45.2962 81.4643 43.8574 81.4643C43.6361 81.4643 43.4245 81.448 43.2227 81.4155C43.0208 81.3894 42.8223 81.3406 42.627 81.269V78.9643C42.7767 79.0164 42.9167 79.0522 43.0469 79.0717C43.1836 79.0912 43.3236 79.101 43.4668 79.101C44.1113 79.101 44.5638 78.8276 44.8242 78.2807C45.0846 77.7338 45.2507 76.7833 45.3223 75.4291L45.7715 66.9721ZM58.7402 81.1909L64.9219 66.9037H67.5879L73.7793 81.1909H70.8301L66.7188 71.1127C66.5951 70.8198 66.4909 70.5398 66.4062 70.2729C66.3216 69.9995 66.2435 69.739 66.1719 69.4916H66.0742C65.9961 69.739 65.9147 69.9995 65.8301 70.2729C65.7454 70.5463 65.6445 70.8263 65.5273 71.1127L61.3867 81.1909H58.7402ZM61.6016 77.8608L62.3633 75.8393H70.0195L70.7812 77.8608H61.6016ZM74.6191 74.3549V73.808C74.6191 71.4187 75.2995 69.6349 76.6602 68.4565C78.0208 67.2716 79.7754 66.6791 81.9238 66.6791C83.9095 66.6791 85.4915 67.0991 86.6699 67.9389C87.8483 68.7722 88.4993 70.0125 88.623 71.6596L88.6426 71.8647H85.8984L85.8887 71.6498C85.7975 70.6668 85.4102 69.9441 84.7266 69.4819C84.0495 69.0131 83.1055 68.7787 81.8945 68.7787C80.5534 68.7787 79.4694 69.1759 78.6426 69.9702C77.8223 70.7644 77.4121 71.9819 77.4121 73.6225V74.5405C77.4121 76.2527 77.8223 77.4897 78.6426 78.2514C79.4694 79.0131 80.5534 79.394 81.8945 79.394C83.2487 79.394 84.2318 79.1303 84.8438 78.603C85.4557 78.0691 85.804 77.3725 85.8887 76.5131L85.8984 76.308H88.6426L88.6328 76.5229C88.5221 78.0463 87.8971 79.254 86.7578 80.1459C85.625 81.0379 84.0169 81.4838 81.9336 81.4838C79.7721 81.4838 78.0111 80.9044 76.6504 79.7455C75.2962 78.5802 74.6191 76.7833 74.6191 74.3549ZM89.2676 69.0815V66.9721H102.344V69.0815H97.168V81.1909H94.4531V69.0815H89.2676ZM117.48 81.1909H114.824V71.6694C114.824 71.461 114.827 71.2332 114.834 70.9858C114.84 70.7319 114.85 70.504 114.863 70.3022H114.746C114.648 70.4975 114.551 70.6896 114.453 70.8784C114.362 71.0672 114.232 71.2722 114.062 71.4936L107.061 81.1909H104.189V66.9721H106.855V76.4838C106.855 76.6856 106.849 76.9103 106.836 77.1577C106.829 77.405 106.823 77.6329 106.816 77.8412H106.953C107.025 77.6785 107.113 77.4929 107.217 77.2846C107.327 77.0763 107.454 76.8712 107.598 76.6694L114.609 66.9721H117.48V81.1909ZM130.752 81.1909L124.209 74.3745L126.182 72.9682L134.082 81.1909H130.752ZM122.07 72.812H124.736L130.654 66.9721H133.594L125.303 74.9213H122.07V72.812ZM120.713 81.1909V66.9721H123.428V81.1909H120.713ZM134.6 74.3354V73.7983C134.6 71.4285 135.29 69.6511 136.67 68.4662C138.05 67.2748 139.814 66.6791 141.963 66.6791C144.105 66.6791 145.869 67.2748 147.256 68.4662C148.649 69.6511 149.346 71.4285 149.346 73.7983V74.3354C149.346 76.7247 148.649 78.5151 147.256 79.7065C145.869 80.8914 144.105 81.4838 141.963 81.4838C139.814 81.4838 138.05 80.8914 136.67 79.7065C135.29 78.5151 134.6 76.7247 134.6 74.3354ZM137.383 74.5014C137.383 76.1811 137.799 77.4181 138.633 78.2123C139.473 79.0001 140.583 79.394 141.963 79.394C143.343 79.394 144.456 79.0001 145.303 78.2123C146.149 77.4181 146.572 76.1811 146.572 74.5014V73.6518C146.572 71.9721 146.149 70.7416 145.303 69.9604C144.463 69.1726 143.35 68.7787 141.963 68.7787C140.583 68.7787 139.473 69.1726 138.633 69.9604C137.799 70.7416 137.383 71.9689 137.383 73.642V74.5014ZM151.924 81.1909V66.9721H157.959C159.652 66.9721 160.973 67.2618 161.924 67.8412C162.874 68.4207 163.35 69.3777 163.35 70.7123C163.35 71.5001 163.145 72.1414 162.734 72.6362C162.331 73.1245 161.816 73.476 161.191 73.6909V73.7299C161.973 73.9383 162.604 74.3191 163.086 74.8725C163.574 75.4259 163.818 76.1681 163.818 77.0991C163.818 78.4597 163.311 79.4819 162.295 80.1655C161.279 80.8491 159.938 81.1909 158.271 81.1909H151.924ZM154.6 79.2377H158.135C159.144 79.2377 159.893 79.0522 160.381 78.6811C160.869 78.3035 161.113 77.7338 161.113 76.9721C161.113 76.256 160.869 75.7058 160.381 75.3217C159.893 74.9311 159.144 74.7358 158.135 74.7358H154.6V79.2377ZM154.6 72.8998H157.822C158.818 72.8998 159.541 72.7273 159.99 72.3823C160.446 72.0372 160.674 71.5424 160.674 70.8979C160.674 70.2208 160.449 69.726 160 69.4135C159.551 69.101 158.825 68.9448 157.822 68.9448H154.6V72.8998ZM166.318 66.9721H169.033V72.1088H172.959C174.717 72.1088 176.019 72.532 176.865 73.3784C177.712 74.2247 178.135 75.312 178.135 76.6401C178.135 78.0463 177.712 79.1564 176.865 79.9702C176.019 80.784 174.717 81.1909 172.959 81.1909H166.318V66.9721ZM169.033 74.1596V79.1401H172.764C173.727 79.1401 174.411 78.922 174.814 78.4858C175.218 78.0431 175.42 77.4278 175.42 76.6401C175.42 75.9304 175.218 75.3412 174.814 74.8725C174.411 74.3972 173.727 74.1596 172.764 74.1596H169.033ZM179.932 81.1909H182.666V66.9721H179.932V81.1909ZM184.268 81.1909L190.293 73.2416L190.723 73.2221L195.127 66.9721H197.959L192.314 74.687L191.875 74.7162L187.148 81.1909H184.268ZM184.453 66.9721H187.676L192.139 73.183L192.266 73.2026L198.33 81.1909H195.068L190.342 74.7553L190.244 74.7358L184.453 66.9721ZM204.404 74.3354V73.7983C204.404 71.4285 205.094 69.6511 206.475 68.4662C207.855 67.2748 209.619 66.6791 211.768 66.6791C213.91 66.6791 215.674 67.2748 217.061 68.4662C218.454 69.6511 219.15 71.4285 219.15 73.7983V74.3354C219.15 76.7247 218.454 78.5151 217.061 79.7065C215.674 80.8914 213.91 81.4838 211.768 81.4838C209.619 81.4838 207.855 80.8914 206.475 79.7065C205.094 78.5151 204.404 76.7247 204.404 74.3354ZM207.188 74.5014C207.188 76.1811 207.604 77.4181 208.438 78.2123C209.277 79.0001 210.387 79.394 211.768 79.394C213.148 79.394 214.261 79.0001 215.107 78.2123C215.954 77.4181 216.377 76.1811 216.377 74.5014V73.6518C216.377 71.9721 215.954 70.7416 215.107 69.9604C214.268 69.1726 213.154 68.7787 211.768 68.7787C210.387 68.7787 209.277 69.1726 208.438 69.9604C207.604 70.7416 207.188 71.9689 207.188 73.642V74.5014ZM231.768 81.1909L225.225 74.3745L227.197 72.9682L235.098 81.1909H231.768ZM223.086 72.812H225.752L231.67 66.9721H234.609L226.318 74.9213H223.086V72.812ZM221.729 81.1909V66.9721H224.443V81.1909H221.729ZM235.615 74.3354V73.7983C235.615 71.4285 236.305 69.6511 237.686 68.4662C239.066 67.2748 240.83 66.6791 242.979 66.6791C245.12 66.6791 246.885 67.2748 248.271 68.4662C249.665 69.6511 250.361 71.4285 250.361 73.7983V74.3354C250.361 76.7247 249.665 78.5151 248.271 79.7065C246.885 80.8914 245.12 81.4838 242.979 81.4838C240.83 81.4838 239.066 80.8914 237.686 79.7065C236.305 78.5151 235.615 76.7247 235.615 74.3354ZM238.398 74.5014C238.398 76.1811 238.815 77.4181 239.648 78.2123C240.488 79.0001 241.598 79.394 242.979 79.394C244.359 79.394 245.472 79.0001 246.318 78.2123C247.165 77.4181 247.588 76.1811 247.588 74.5014V73.6518C247.588 71.9721 247.165 70.7416 246.318 69.9604C245.479 69.1726 244.365 68.7787 242.979 68.7787C241.598 68.7787 240.488 69.1726 239.648 69.9604C238.815 70.7416 238.398 71.9689 238.398 73.642V74.5014ZM252.939 81.1909V66.9721H255.654V72.8022H263.389V66.9721H266.094V81.1909H263.389V74.9116H255.654V81.1909H252.939ZM41.1133 104.191H38.457V94.6694C38.457 94.461 38.4603 94.2332 38.4668 93.9858C38.4733 93.7319 38.4831 93.504 38.4961 93.3022H38.3789C38.2812 93.4975 38.1836 93.6896 38.0859 93.8784C37.9948 94.0672 37.8646 94.2722 37.6953 94.4936L30.6934 104.191H27.8223V89.9721H30.4883V99.4838C30.4883 99.6856 30.4818 99.9103 30.4688 100.158C30.4622 100.405 30.4557 100.633 30.4492 100.841H30.5859C30.6576 100.678 30.7454 100.493 30.8496 100.285C30.9603 100.076 31.0872 99.8712 31.2305 99.6694L38.2422 89.9721H41.1133V104.191ZM47.6855 104.191L53.8672 89.9037H56.5332L62.7246 104.191H59.7754L55.6641 94.1127C55.5404 93.8198 55.4362 93.5398 55.3516 93.2729C55.2669 92.9995 55.1888 92.739 55.1172 92.4916H55.0195C54.9414 92.739 54.86 92.9995 54.7754 93.2729C54.6908 93.5463 54.5898 93.8263 54.4727 94.1127L50.332 104.191H47.6855ZM50.5469 100.861L51.3086 98.8393H58.9648L59.7266 100.861H50.5469ZM65.8691 89.9721H77.2852V104.191H74.5801V92.062H68.1543L67.793 98.7807C67.7018 100.643 67.3991 102.055 66.8848 103.019C66.3704 103.983 65.3939 104.464 63.9551 104.464C63.7337 104.464 63.5221 104.448 63.3203 104.415C63.1185 104.389 62.9199 104.341 62.7246 104.269V101.964C62.8743 102.016 63.0143 102.052 63.1445 102.072C63.2812 102.091 63.4212 102.101 63.5645 102.101C64.209 102.101 64.6615 101.828 64.9219 101.281C65.1823 100.734 65.3483 99.7833 65.4199 98.4291L65.8691 89.9721ZM80.5957 104.191V89.9721H83.3105V95.812H87.0898V97.892H83.3105V104.191H80.5957ZM85.7422 97.3354V96.7983C85.7422 94.4285 86.4225 92.6511 87.7832 91.4662C89.1439 90.2814 90.8724 89.6889 92.9688 89.6889C95.0586 89.6889 96.7904 90.2814 98.1641 91.4662C99.5378 92.6511 100.225 94.4285 100.225 96.7983V97.3354C100.225 99.7247 99.5378 101.512 98.1641 102.697C96.7904 103.882 95.0586 104.474 92.9688 104.474C90.8789 104.474 89.1504 103.882 87.7832 102.697C86.4225 101.512 85.7422 99.7247 85.7422 97.3354ZM88.4863 97.5014C88.4863 99.1811 88.8997 100.415 89.7266 101.203C90.5534 101.99 91.6309 102.384 92.959 102.384C94.2871 102.384 95.3678 101.99 96.2012 101.203C97.0345 100.415 97.4512 99.1811 97.4512 97.5014V96.642C97.4512 94.9689 97.0345 93.7416 96.2012 92.9604C95.3678 92.1791 94.2871 91.7885 92.959 91.7885C91.6309 91.7885 90.5534 92.1791 89.7266 92.9604C88.8997 93.7416 88.4863 94.9689 88.4863 96.642V97.5014ZM102.803 104.191V89.9721H106.016L110.791 100.226C110.889 100.434 110.986 100.646 111.084 100.861C111.182 101.069 111.257 101.248 111.309 101.398H111.367C111.419 101.248 111.488 101.069 111.572 100.861C111.657 100.646 111.745 100.434 111.836 100.226L116.67 89.9721H119.951V104.191H117.275L117.285 94.5424C117.285 94.3406 117.292 94.1258 117.305 93.8979C117.318 93.6635 117.331 93.4487 117.344 93.2534H117.275C117.23 93.4487 117.171 93.6635 117.1 93.8979C117.035 94.1258 116.956 94.3406 116.865 94.5424L112.354 104.191H110.049L105.557 94.5424C105.459 94.3471 105.374 94.1355 105.303 93.9077C105.231 93.6733 105.173 93.4552 105.127 93.2534H105.059C105.072 93.4552 105.085 93.6733 105.098 93.9077C105.117 94.1355 105.127 94.3504 105.127 94.5522V104.191H102.803ZM136.465 104.191H133.809V94.6694C133.809 94.461 133.812 94.2332 133.818 93.9858C133.825 93.7319 133.835 93.504 133.848 93.3022H133.73C133.633 93.4975 133.535 93.6896 133.438 93.8784C133.346 94.0672 133.216 94.2722 133.047 94.4936L126.045 104.191H123.174V89.9721H125.84V99.4838C125.84 99.6856 125.833 99.9103 125.82 100.158C125.814 100.405 125.807 100.633 125.801 100.841H125.938C126.009 100.678 126.097 100.493 126.201 100.285C126.312 100.076 126.439 99.8712 126.582 99.6694L133.594 89.9721H136.465V104.191ZM139.697 104.191V89.9721H142.412V95.8022H150.146V89.9721H152.852V104.191H150.146V97.9116H142.412V104.191H139.697ZM169.375 104.191H166.719V94.6694C166.719 94.461 166.722 94.2332 166.729 93.9858C166.735 93.7319 166.745 93.504 166.758 93.3022H166.641C166.543 93.4975 166.445 93.6896 166.348 93.8784C166.257 94.0672 166.126 94.2722 165.957 94.4936L158.955 104.191H156.084V89.9721H158.75V99.4838C158.75 99.6856 158.743 99.9103 158.73 100.158C158.724 100.405 158.717 100.633 158.711 100.841H158.848C158.919 100.678 159.007 100.493 159.111 100.285C159.222 100.076 159.349 99.8712 159.492 99.6694L166.504 89.9721H169.375V104.191ZM172.607 104.191V89.9721H183.418V92.0717H175.293V95.8608H182.422V97.9018H175.293V102.101H183.535V104.191H172.607ZM185.83 104.191V89.9721H191.865C193.558 89.9721 194.88 90.2618 195.83 90.8412C196.781 91.4207 197.256 92.3777 197.256 93.7123C197.256 94.5001 197.051 95.1414 196.641 95.6362C196.237 96.1245 195.723 96.476 195.098 96.6909V96.7299C195.879 96.9383 196.51 97.3191 196.992 97.8725C197.48 98.4259 197.725 99.1681 197.725 100.099C197.725 101.46 197.217 102.482 196.201 103.165C195.186 103.849 193.844 104.191 192.178 104.191H185.83ZM188.506 102.238H192.041C193.05 102.238 193.799 102.052 194.287 101.681C194.775 101.303 195.02 100.734 195.02 99.9721C195.02 99.256 194.775 98.7058 194.287 98.3217C193.799 97.9311 193.05 97.7358 192.041 97.7358H188.506V102.238ZM188.506 95.8998H191.729C192.725 95.8998 193.447 95.7273 193.896 95.3823C194.352 95.0372 194.58 94.5424 194.58 93.8979C194.58 93.2208 194.355 92.726 193.906 92.4135C193.457 92.101 192.731 91.9448 191.729 91.9448H188.506V95.8998ZM200.225 89.9721H202.939V95.1088H206.865C208.623 95.1088 209.925 95.532 210.771 96.3784C211.618 97.2247 212.041 98.312 212.041 99.6401C212.041 101.046 211.618 102.156 210.771 102.97C209.925 103.784 208.623 104.191 206.865 104.191H200.225V89.9721ZM202.939 97.1596V102.14H206.67C207.633 102.14 208.317 101.922 208.721 101.486C209.124 101.043 209.326 100.428 209.326 99.6401C209.326 98.9304 209.124 98.3412 208.721 97.8725C208.317 97.3972 207.633 97.1596 206.67 97.1596H202.939ZM213.838 104.191H216.572V89.9721H213.838V104.191ZM218.174 104.191L224.199 96.2416L224.629 96.2221L229.033 89.9721H231.865L226.221 97.687L225.781 97.7162L221.055 104.191H218.174ZM218.359 89.9721H221.582L226.045 96.183L226.172 96.2026L232.236 104.191H228.975L224.248 97.7553L224.15 97.7358L218.359 89.9721ZM37.8613 127.191L31.3184 120.374L33.291 118.968L41.1914 127.191H37.8613ZM29.1797 118.812H31.8457L37.7637 112.972H40.7031L32.4121 120.921H29.1797V118.812ZM27.8223 127.191V112.972H30.5371V127.191H27.8223ZM41.709 120.335V119.798C41.709 117.428 42.3991 115.651 43.7793 114.466C45.1595 113.275 46.9238 112.679 49.0723 112.679C51.2142 112.679 52.9785 113.275 54.3652 114.466C55.7585 115.651 56.4551 117.428 56.4551 119.798V120.335C56.4551 122.725 55.7585 124.515 54.3652 125.706C52.9785 126.891 51.2142 127.484 49.0723 127.484C46.9238 127.484 45.1595 126.891 43.7793 125.706C42.3991 124.515 41.709 122.725 41.709 120.335ZM44.4922 120.501C44.4922 122.181 44.9089 123.418 45.7422 124.212C46.582 125 47.6921 125.394 49.0723 125.394C50.4525 125.394 51.5658 125 52.4121 124.212C53.2585 123.418 53.6816 122.181 53.6816 120.501V119.652C53.6816 117.972 53.2585 116.742 52.4121 115.96C51.5723 115.173 50.459 114.779 49.0723 114.779C47.6921 114.779 46.582 115.173 45.7422 115.96C44.9089 116.742 44.4922 117.969 44.4922 119.642V120.501ZM59.0332 127.191V112.972H61.748V118.802H69.4824V112.972H72.1875V127.191H69.4824V120.912H61.748V127.191H59.0332ZM74.7754 120.355V119.808C74.7754 117.419 75.4557 115.635 76.8164 114.456C78.1771 113.272 79.9316 112.679 82.0801 112.679C84.0658 112.679 85.6478 113.099 86.8262 113.939C88.0046 114.772 88.6556 116.012 88.7793 117.66L88.7988 117.865H86.0547L86.0449 117.65C85.9538 116.667 85.5664 115.944 84.8828 115.482C84.2057 115.013 83.2617 114.779 82.0508 114.779C80.7096 114.779 79.6257 115.176 78.7988 115.97C77.9785 116.764 77.5684 117.982 77.5684 119.622V120.54C77.5684 122.253 77.9785 123.49 78.7988 124.251C79.6257 125.013 80.7096 125.394 82.0508 125.394C83.4049 125.394 84.388 125.13 85 124.603C85.612 124.069 85.9603 123.372 86.0449 122.513L86.0547 122.308H88.7988L88.7891 122.523C88.6784 124.046 88.0534 125.254 86.9141 126.146C85.7812 127.038 84.1732 127.484 82.0898 127.484C79.9284 127.484 78.1673 126.904 76.8066 125.746C75.4525 124.58 74.7754 122.783 74.7754 120.355ZM89.4238 115.081V112.972H102.5V115.081H97.3242V127.191H94.6094V115.081H89.4238ZM104.346 127.191V112.972H110.547C112.376 112.972 113.776 113.363 114.746 114.144C115.723 114.925 116.211 116.068 116.211 117.572C116.211 119.043 115.726 120.186 114.756 120.999C113.786 121.813 112.38 122.207 110.537 122.181H107.061V127.191H104.346ZM107.061 120.169H110.303C111.475 120.169 112.301 119.945 112.783 119.496C113.265 119.04 113.506 118.402 113.506 117.581C113.506 116.755 113.265 116.123 112.783 115.687C112.301 115.244 111.475 115.023 110.303 115.023H107.061V120.169ZM119.248 125.023C119.43 125.075 119.629 125.117 119.844 125.15C120.059 125.182 120.277 125.199 120.498 125.199C121.058 125.199 121.53 125.072 121.914 124.818C122.305 124.564 122.689 124.102 123.066 123.431L123.037 123.509L116.768 112.972H119.883L123.74 119.789C123.923 120.127 124.049 120.381 124.121 120.55C124.199 120.713 124.281 120.905 124.365 121.126H124.424C124.508 120.912 124.587 120.723 124.658 120.56C124.736 120.391 124.863 120.137 125.039 119.798L128.613 112.972H131.357L125.674 123.372C124.84 124.902 124.102 125.97 123.457 126.576C122.812 127.175 121.94 127.474 120.84 127.474C120.436 127.474 120.117 127.458 119.883 127.425C119.655 127.393 119.443 127.344 119.248 127.279V125.023ZM142.979 127.191L136.436 120.374L138.408 118.968L146.309 127.191H142.979ZM134.297 118.812H136.963L142.881 112.972H145.82L137.529 120.921H134.297V118.812ZM132.939 127.191V112.972H135.654V127.191H132.939ZM159.922 130.013V127.191H147.471V112.972H150.186V125.101H157.842V112.972H160.557V125.101H162.441V130.013H159.922ZM177.578 127.191H174.922V117.669C174.922 117.461 174.925 117.233 174.932 116.986C174.938 116.732 174.948 116.504 174.961 116.302H174.844C174.746 116.497 174.648 116.69 174.551 116.878C174.46 117.067 174.329 117.272 174.16 117.494L167.158 127.191H164.287V112.972H166.953V122.484C166.953 122.686 166.947 122.91 166.934 123.158C166.927 123.405 166.921 123.633 166.914 123.841H167.051C167.122 123.678 167.21 123.493 167.314 123.285C167.425 123.076 167.552 122.871 167.695 122.669L174.707 112.972H177.578V127.191ZM194.102 127.191H191.445V117.669C191.445 117.461 191.449 117.233 191.455 116.986C191.462 116.732 191.471 116.504 191.484 116.302H191.367C191.27 116.497 191.172 116.69 191.074 116.878C190.983 117.067 190.853 117.272 190.684 117.494L183.682 127.191H180.811V112.972H183.477V122.484C183.477 122.686 183.47 122.91 183.457 123.158C183.451 123.405 183.444 123.633 183.438 123.841H183.574C183.646 123.678 183.734 123.493 183.838 123.285C183.949 123.076 184.076 122.871 184.219 122.669L191.23 112.972H194.102V127.191ZM187.637 109.945C188.19 109.945 188.646 109.805 189.004 109.525C189.368 109.245 189.661 108.776 189.883 108.119L191.533 109.066C191.175 109.984 190.651 110.638 189.961 111.029C189.277 111.413 188.503 111.605 187.637 111.605C186.764 111.605 185.98 111.41 185.283 111.019C184.593 110.628 184.069 109.977 183.711 109.066L185.352 108.119C185.573 108.789 185.866 109.261 186.23 109.535C186.602 109.808 187.07 109.945 187.637 109.945Z" fill="#231F20"/>
<g clip-path="url(#clip1_9859_21950)">
<path d="M279.102 196.077V-8.11917H418.509V196.077H279.102Z" fill="#F4F3F1" stroke="#231F20"/>
<path d="M298.672 172.513V-31.6832H438.08V172.513H298.672Z" fill="#F4F3F1" stroke="#231F20"/>
<path d="M305.281 165.887V-38.3091H444.689V165.887H305.281Z" fill="#7099ED" stroke="#231F20"/>
<path d="M261.367 208.005V195.749H438.083V208.005H261.367Z" fill="#F4F3F1" stroke="#231F20"/>
<path d="M258.511 193.977H260.716C261.169 193.977 261.54 194.346 261.54 194.805V209.859C261.54 210.318 261.169 210.687 260.716 210.687H258.511C258.058 210.687 257.688 210.318 257.688 209.859V194.805C257.688 194.346 258.058 193.977 258.511 193.977Z" fill="#F4F3F1" stroke="#231F20"/>
<path d="M346.191 65.7925L329.422 86.4352" stroke="white" stroke-miterlimit="10"/>
<path d="M348.079 84.872L318.516 124.702" stroke="white" stroke-miterlimit="10"/>
<path d="M369.8 88.864L351.109 114.043" stroke="white" stroke-miterlimit="10"/>
<path d="M348.81 117.222L344.359 123.083" stroke="white" stroke-miterlimit="10"/>
</g>
</g>
<defs>
<clipPath id="clip0_9859_21950">
<rect width="384" height="240" rx="32" fill="white"/>
</clipPath>
<clipPath id="clip1_9859_21950">
<rect width="188" height="250" fill="white" transform="translate(257.188 -38.8091)"/>
</clipPath>
</defs>
</svg>
